<?xml version="1.0" encoding="utf-8" standalone="no"?>
<!DOCTYPE svg PUBLIC "-//W3C//DTD SVG 1.1//EN"
  "http://www.w3.org/Graphics/SVG/1.1/DTD/svg11.dtd">
<svg xmlns:xlink="http://www.w3.org/1999/xlink" width="288pt" height="180pt" viewBox="0 0 288 180" xmlns="http://www.w3.org/2000/svg" version="1.1">
 <metadata>
  <rdf:RDF xmlns:dc="http://purl.org/dc/elements/1.1/" xmlns:cc="http://creativecommons.org/ns#" xmlns:rdf="http://www.w3.org/1999/02/22-rdf-syntax-ns#">
   <cc:Work>
    <dc:type rdf:resource="http://purl.org/dc/dcmitype/StillImage"/>
    <dc:date>2025-01-13T14:52:06.030620</dc:date>
    <dc:format>image/svg+xml</dc:format>
    <dc:creator>
     <cc:Agent>
      <dc:title>Matplotlib v3.9.2, https://matplotlib.org/</dc:title>
     </cc:Agent>
    </dc:creator>
   </cc:Work>
  </rdf:RDF>
 </metadata>
 <defs>
  <style type="text/css">*{stroke-linejoin: round; stroke-linecap: butt}</style>
 </defs>
 <g id="figure_1">
  <g id="patch_1">
   <path d="M 0 180 
L 288 180 
L 288 0 
L 0 0 
z
" style="fill: #ffffff"/>
  </g>
  <g id="axes_1">
   <g id="patch_2">
    <path d="M 43.862584 144.428666 
L 275.824213 144.428666 
L 275.824213 17.735865 
L 43.862584 17.735865 
z
" style="fill: #ffffff"/>
   </g>
   <g id="PolyCollection_1">
    <defs>
     <path id="m9b75cc441c" d="M 43.862584 -110.904257 
L 43.862584 -110.904257 
L 44.051822 -111.314166 
L 44.24106 -111.716743 
L 44.430298 -112.112043 
L 44.619536 -112.500122 
L 44.808774 -112.881033 
L 44.998012 -113.254832 
L 45.18725 -113.621572 
L 45.376487 -113.981309 
L 45.565725 -114.334095 
L 45.754963 -114.679985 
L 45.944201 -115.019031 
L 46.133439 -115.351288 
L 46.322677 -115.676807 
L 46.511915 -115.995643 
L 46.701153 -116.307846 
L 46.890391 -116.61347 
L 47.079629 -116.912566 
L 47.268867 -117.205186 
L 47.458105 -117.491382 
L 47.647343 -117.771206 
L 47.836581 -118.044707 
L 48.025819 -118.311938 
L 48.215057 -118.572949 
L 48.404295 -118.82779 
L 48.593533 -119.076511 
L 48.782771 -119.319163 
L 48.972009 -119.555796 
L 49.161247 -119.786458 
L 49.350485 -120.011199 
L 49.539723 -120.230069 
L 49.728961 -120.443116 
L 49.918199 -120.650389 
L 50.107437 -120.851936 
L 50.296675 -121.047805 
L 50.485913 -121.238045 
L 50.675151 -121.422704 
L 50.864388 -121.601828 
L 51.053626 -121.775465 
L 51.242864 -121.943663 
L 51.432102 -122.106468 
L 51.62134 -122.263927 
L 51.810578 -122.416087 
L 51.999816 -122.562993 
L 52.189054 -122.704692 
L 52.378292 -122.84123 
L 52.56753 -122.972652 
L 52.756768 -123.099003 
L 52.946006 -123.220329 
L 53.135244 -123.336675 
L 53.324482 -123.448086 
L 53.51372 -123.554605 
L 53.702958 -123.656278 
L 53.892196 -123.753149 
L 54.081434 -123.845261 
L 54.270672 -123.932658 
L 54.45991 -124.015383 
L 54.649148 -124.093481 
L 54.838386 -124.166993 
L 55.027624 -124.235964 
L 55.216862 -124.300435 
L 55.4061 -124.360448 
L 55.595338 -124.416047 
L 55.784576 -124.467273 
L 55.973814 -124.514168 
L 56.163052 -124.556774 
L 56.352289 -124.595132 
L 56.541527 -124.629283 
L 56.730765 -124.659268 
L 56.920003 -124.685128 
L 57.109241 -124.706903 
L 57.298479 -124.724635 
L 57.487717 -124.738363 
L 57.676955 -124.748126 
L 57.866193 -124.753966 
L 58.055431 -124.755921 
L 58.244669 -124.754031 
L 58.433907 -124.748335 
L 58.623145 -124.738871 
L 58.812383 -124.72568 
L 59.001621 -124.708798 
L 59.190859 -124.688265 
L 59.380097 -124.664119 
L 59.569335 -124.636398 
L 59.758573 -124.605139 
L 59.947811 -124.57038 
L 60.137049 -124.532159 
L 60.326287 -124.490512 
L 60.515525 -124.445476 
L 60.704763 -124.397089 
L 60.894001 -124.345387 
L 61.083239 -124.290406 
L 61.272477 -124.232182 
L 61.461715 -124.170752 
L 61.650953 -124.106151 
L 61.840191 -124.038415 
L 62.029428 -123.96758 
L 62.218666 -123.893679 
L 62.407904 -123.81675 
L 62.597142 -123.736825 
L 62.78638 -123.653941 
L 62.975618 -123.56813 
L 63.164856 -123.479429 
L 63.354094 -123.38787 
L 63.543332 -123.293488 
L 63.73257 -123.196316 
L 63.921808 -123.096388 
L 64.111046 -122.993737 
L 64.300284 -122.888396 
L 64.489522 -122.780398 
L 64.67876 -122.669777 
L 64.867998 -122.556563 
L 65.057236 -122.44079 
L 65.246474 -122.322491 
L 65.435712 -122.201696 
L 65.62495 -122.078438 
L 65.814188 -121.952749 
L 66.003426 -121.824659 
L 66.192664 -121.694201 
L 66.381902 -121.561404 
L 66.57114 -121.426301 
L 66.760378 -121.288921 
L 66.949616 -121.149296 
L 67.138854 -121.007455 
L 67.328092 -120.863429 
L 67.517329 -120.717248 
L 67.706567 -120.568941 
L 67.895805 -120.418539 
L 68.085043 -120.26607 
L 68.274281 -120.111563 
L 68.463519 -119.955049 
L 68.652757 -119.796556 
L 68.841995 -119.636112 
L 69.031233 -119.473746 
L 69.220471 -119.309486 
L 69.409709 -119.143361 
L 69.598947 -118.975399 
L 69.788185 -118.805627 
L 69.977423 -118.634073 
L 70.166661 -118.460765 
L 70.355899 -118.28573 
L 70.545137 -118.108994 
L 70.734375 -117.930585 
L 70.923613 -117.75053 
L 71.112851 -117.568856 
L 71.302089 -117.385588 
L 71.491327 -117.200753 
L 71.680565 -117.014377 
L 71.869803 -116.826486 
L 72.059041 -116.637106 
L 72.248279 -116.446261 
L 72.437517 -116.253979 
L 72.626755 -116.060284 
L 72.815993 -115.8652 
L 73.00523 -115.668753 
L 73.194468 -115.470968 
L 73.383706 -115.271869 
L 73.572944 -115.07148 
L 73.762182 -114.869826 
L 73.95142 -114.66693 
L 74.140658 -114.462818 
L 74.329896 -114.257511 
L 74.519134 -114.051034 
L 74.708372 -113.843411 
L 74.89761 -113.634663 
L 75.086848 -113.424816 
L 75.276086 -113.21389 
L 75.465324 -113.00191 
L 75.654562 -112.788897 
L 75.8438 -112.574874 
L 76.033038 -112.359863 
L 76.222276 -112.143886 
L 76.411514 -111.926965 
L 76.600752 -111.709123 
L 76.78999 -111.490379 
L 76.979228 -111.270757 
L 77.168466 -111.050276 
L 77.357704 -110.828958 
L 77.546942 -110.606825 
L 77.73618 -110.383896 
L 77.925418 -110.160193 
L 78.114656 -109.935735 
L 78.303894 -109.710543 
L 78.493132 -109.484638 
L 78.682369 -109.258039 
L 78.871607 -109.030766 
L 79.060845 -108.802838 
L 79.250083 -108.574276 
L 79.439321 -108.345098 
L 79.628559 -108.115323 
L 79.817797 -107.884971 
L 80.007035 -107.654061 
L 80.196273 -107.422611 
L 80.385511 -107.190639 
L 80.574749 -106.958165 
L 80.763987 -106.725206 
L 80.953225 -106.49178 
L 81.142463 -106.257906 
L 81.331701 -106.023601 
L 81.520939 -105.788883 
L 81.710177 -105.553769 
L 81.899415 -105.318276 
L 82.088653 -105.082422 
L 82.277891 -104.846224 
L 82.467129 -104.609699 
L 82.656367 -104.372862 
L 82.845605 -104.135732 
L 83.034843 -103.898324 
L 83.224081 -103.660654 
L 83.413319 -103.422739 
L 83.602557 -103.184595 
L 83.791795 -102.946237 
L 83.981033 -102.707681 
L 84.17027 -102.468942 
L 84.359508 -102.230037 
L 84.548746 -101.990979 
L 84.737984 -101.751785 
L 84.927222 -101.512469 
L 85.11646 -101.273045 
L 85.305698 -101.033529 
L 85.494936 -100.793935 
L 85.684174 -100.554278 
L 85.873412 -100.31457 
L 86.06265 -100.074828 
L 86.251888 -99.835063 
L 86.441126 -99.595291 
L 86.630364 -99.355524 
L 86.819602 -99.115777 
L 87.00884 -98.876062 
L 87.198078 -98.636392 
L 87.387316 -98.396781 
L 87.576554 -98.157242 
L 87.765792 -97.917787 
L 87.95503 -97.678429 
L 88.144268 -97.43918 
L 88.333506 -97.200053 
L 88.522744 -96.96106 
L 88.711982 -96.722212 
L 88.90122 -96.483522 
L 89.090458 -96.245001 
L 89.279696 -96.006661 
L 89.468934 -95.768514 
L 89.658171 -95.530571 
L 89.847409 -95.292842 
L 90.036647 -95.05534 
L 90.225885 -94.818074 
L 90.415123 -94.581056 
L 90.604361 -94.344296 
L 90.793599 -94.107805 
L 90.982837 -93.871592 
L 91.172075 -93.635669 
L 91.361313 -93.400046 
L 91.550551 -93.164731 
L 91.739789 -92.929735 
L 91.929027 -92.695068 
L 92.118265 -92.460739 
L 92.307503 -92.226758 
L 92.496741 -91.993133 
L 92.685979 -91.759874 
L 92.875217 -91.52699 
L 93.064455 -91.294489 
L 93.253693 -91.062381 
L 93.442931 -90.830673 
L 93.632169 -90.599375 
L 93.821407 -90.368494 
L 94.010645 -90.138038 
L 94.199883 -89.908017 
L 94.389121 -89.678436 
L 94.578359 -89.449305 
L 94.767597 -89.220631 
L 94.956835 -88.992421 
L 95.146073 -88.764682 
L 95.33531 -88.537423 
L 95.524548 -88.310649 
L 95.713786 -88.084368 
L 95.903024 -87.858586 
L 96.092262 -87.633311 
L 96.2815 -87.408548 
L 96.470738 -87.184304 
L 96.659976 -86.960586 
L 96.849214 -86.7374 
L 97.038452 -86.51475 
L 97.22769 -86.292645 
L 97.416928 -86.071088 
L 97.606166 -85.850086 
L 97.795404 -85.629644 
L 97.984642 -85.409768 
L 98.17388 -85.190462 
L 98.363118 -84.971732 
L 98.552356 -84.753583 
L 98.741594 -84.536019 
L 98.930832 -84.319045 
L 99.12007 -84.102667 
L 99.309308 -83.886887 
L 99.498546 -83.671711 
L 99.687784 -83.457142 
L 99.877022 -83.243185 
L 100.06626 -83.029844 
L 100.255498 -82.817122 
L 100.444736 -82.605023 
L 100.633974 -82.39355 
L 100.823211 -82.182707 
L 101.012449 -81.972498 
L 101.201687 -81.762925 
L 101.390925 -81.553991 
L 101.580163 -81.345699 
L 101.769401 -81.138052 
L 101.958639 -80.931053 
L 102.147877 -80.724704 
L 102.337115 -80.519007 
L 102.526353 -80.313965 
L 102.715591 -80.10958 
L 102.904829 -79.905854 
L 103.094067 -79.702789 
L 103.283305 -79.500386 
L 103.472543 -79.298647 
L 103.661781 -79.097574 
L 103.851019 -78.897168 
L 104.040257 -78.697431 
L 104.229495 -78.498363 
L 104.418733 -78.299966 
L 104.607971 -78.10224 
L 104.797209 -77.905187 
L 104.986447 -77.708807 
L 105.175685 -77.5131 
L 105.364923 -77.318068 
L 105.554161 -77.12371 
L 105.743399 -76.930026 
L 105.932637 -76.737018 
L 106.121875 -76.544684 
L 106.311112 -76.353025 
L 106.50035 -76.16204 
L 106.689588 -75.97173 
L 106.878826 -75.782093 
L 107.068064 -75.593129 
L 107.257302 -75.404838 
L 107.44654 -75.217219 
L 107.635778 -75.030271 
L 107.825016 -74.843992 
L 108.014254 -74.658383 
L 108.203492 -74.473441 
L 108.39273 -74.289166 
L 108.581968 -74.105557 
L 108.771206 -73.92261 
L 108.960444 -73.740327 
L 109.149682 -73.558703 
L 109.33892 -73.377739 
L 109.528158 -73.197431 
L 109.717396 -73.017779 
L 109.906634 -72.83878 
L 110.095872 -72.660432 
L 110.28511 -72.482733 
L 110.474348 -72.30568 
L 110.663586 -72.129273 
L 110.852824 -71.953507 
L 111.042062 -71.77838 
L 111.2313 -71.603891 
L 111.420538 -71.430037 
L 111.609776 -71.256814 
L 111.799014 -71.08422 
L 111.988251 -70.912253 
L 112.177489 -70.740909 
L 112.366727 -70.570186 
L 112.555965 -70.400081 
L 112.745203 -70.23059 
L 112.934441 -70.061711 
L 113.123679 -69.89344 
L 113.312917 -69.725775 
L 113.502155 -69.558712 
L 113.691393 -69.392249 
L 113.880631 -69.226381 
L 114.069869 -69.061106 
L 114.259107 -68.89642 
L 114.448345 -68.73232 
L 114.637583 -68.568803 
L 114.826821 -68.405865 
L 115.016059 -68.243503 
L 115.205297 -68.081714 
L 115.394535 -67.920494 
L 115.583773 -67.75984 
L 115.773011 -67.599749 
L 115.962249 -67.440217 
L 116.151487 -67.281241 
L 116.340725 -67.122817 
L 116.529963 -66.964942 
L 116.719201 -66.807614 
L 116.908439 -66.650828 
L 117.097677 -66.494581 
L 117.286915 -66.33887 
L 117.476152 -66.183693 
L 117.66539 -66.029046 
L 117.854628 -65.874925 
L 118.043866 -65.721328 
L 118.233104 -65.568252 
L 118.422342 -65.415693 
L 118.61158 -65.26365 
L 118.800818 -65.112119 
L 118.990056 -64.961097 
L 119.179294 -64.810581 
L 119.368532 -64.66057 
L 119.55777 -64.511061 
L 119.747008 -64.36205 
L 119.936246 -64.213537 
L 120.125484 -64.065517 
L 120.314722 -63.91799 
L 120.50396 -63.770953 
L 120.693198 -63.624404 
L 120.882436 -63.478342 
L 121.071674 -63.332764 
L 121.260912 -63.187668 
L 121.45015 -63.043054 
L 121.639388 -62.898919 
L 121.828626 -62.755262 
L 122.017864 -62.612082 
L 122.207102 -62.469378 
L 122.39634 -62.327149 
L 122.585578 -62.185393 
L 122.774816 -62.04411 
L 122.964053 -61.9033 
L 123.153291 -61.762961 
L 123.342529 -61.623093 
L 123.531767 -61.483696 
L 123.721005 -61.34477 
L 123.910243 -61.206314 
L 124.099481 -61.068329 
L 124.288719 -60.930815 
L 124.477957 -60.793771 
L 124.667195 -60.6572 
L 124.856433 -60.5211 
L 125.045671 -60.385473 
L 125.234909 -60.250319 
L 125.424147 -60.11564 
L 125.613385 -59.981436 
L 125.802623 -59.847708 
L 125.991861 -59.714459 
L 126.181099 -59.581688 
L 126.370337 -59.449398 
L 126.559575 -59.317591 
L 126.748813 -59.186268 
L 126.938051 -59.05543 
L 127.127289 -58.925081 
L 127.316527 -58.795221 
L 127.505765 -58.665854 
L 127.695003 -58.536981 
L 127.884241 -58.408605 
L 128.073479 -58.280728 
L 128.262717 -58.153353 
L 128.451955 -58.026482 
L 128.641192 -57.900119 
L 128.83043 -57.774266 
L 129.019668 -57.648926 
L 129.208906 -57.524102 
L 129.398144 -57.399797 
L 129.587382 -57.276014 
L 129.77662 -57.152758 
L 129.965858 -57.03003 
L 130.155096 -56.907834 
L 130.344334 -56.786174 
L 130.533572 -56.665053 
L 130.72281 -56.544476 
L 130.912048 -56.424444 
L 131.101286 -56.304963 
L 131.290524 -56.186035 
L 131.479762 -56.067665 
L 131.669 -55.949857 
L 131.858238 -55.832613 
L 132.047476 -55.715939 
L 132.236714 -55.599837 
L 132.425952 -55.484313 
L 132.61519 -55.369369 
L 132.804428 -55.25501 
L 132.993666 -55.141239 
L 133.182904 -55.028062 
L 133.372142 -54.915481 
L 133.56138 -54.8035 
L 133.750618 -54.692125 
L 133.939856 -54.581358 
L 134.129093 -54.471204 
L 134.318331 -54.361667 
L 134.507569 -54.25275 
L 134.696807 -54.144459 
L 134.886045 -54.036796 
L 135.075283 -53.929765 
L 135.264521 -53.823372 
L 135.453759 -53.717618 
L 135.642997 -53.61251 
L 135.832235 -53.508049 
L 136.021473 -53.404241 
L 136.210711 -53.301088 
L 136.399949 -53.198595 
L 136.589187 -53.096766 
L 136.778425 -52.995603 
L 136.967663 -52.895111 
L 137.156901 -52.795294 
L 137.346139 -52.696154 
L 137.535377 -52.597696 
L 137.724615 -52.499923 
L 137.913853 -52.402838 
L 138.103091 -52.306444 
L 138.292329 -52.210746 
L 138.481567 -52.115746 
L 138.670805 -52.021447 
L 138.860043 -51.927852 
L 139.049281 -51.834965 
L 139.238519 -51.742789 
L 139.427757 -51.651326 
L 139.616994 -51.56058 
L 139.806232 -51.470552 
L 139.99547 -51.381247 
L 140.184708 -51.292666 
L 140.373946 -51.204813 
L 140.563184 -51.117689 
L 140.752422 -51.031297 
L 140.94166 -50.94564 
L 141.130898 -50.86072 
L 141.320136 -50.776539 
L 141.509374 -50.693099 
L 141.698612 -50.610402 
L 141.88785 -50.528451 
L 142.077088 -50.447247 
L 142.266326 -50.366792 
L 142.455564 -50.287088 
L 142.644802 -50.208137 
L 142.83404 -50.12994 
L 143.023278 -50.052498 
L 143.212516 -49.975813 
L 143.401754 -49.899887 
L 143.590992 -49.824721 
L 143.78023 -49.750316 
L 143.969468 -49.676672 
L 144.158706 -49.603791 
L 144.347944 -49.531675 
L 144.537182 -49.460323 
L 144.72642 -49.389737 
L 144.915658 -49.319917 
L 145.104896 -49.250863 
L 145.294133 -49.182577 
L 145.483371 -49.115058 
L 145.672609 -49.048308 
L 145.861847 -48.982325 
L 146.051085 -48.917111 
L 146.240323 -48.852666 
L 146.429561 -48.788988 
L 146.618799 -48.726079 
L 146.808037 -48.663938 
L 146.997275 -48.602564 
L 147.186513 -48.541958 
L 147.375751 -48.482119 
L 147.564989 -48.423045 
L 147.754227 -48.364738 
L 147.943465 -48.307195 
L 148.132703 -48.250416 
L 148.321941 -48.1944 
L 148.511179 -48.139146 
L 148.700417 -48.084653 
L 148.889655 -48.030919 
L 149.078893 -47.977944 
L 149.268131 -47.925726 
L 149.457369 -47.874264 
L 149.646607 -47.823555 
L 149.835845 -47.773599 
L 150.025083 -47.724393 
L 150.214321 -47.675935 
L 150.403559 -47.628225 
L 150.592797 -47.581259 
L 150.782034 -47.535036 
L 150.971272 -47.489554 
L 151.16051 -47.44481 
L 151.349748 -47.400801 
L 151.538986 -47.357526 
L 151.728224 -47.314981 
L 151.917462 -47.273165 
L 152.1067 -47.232074 
L 152.295938 -47.191706 
L 152.485176 -47.152057 
L 152.674414 -47.113125 
L 152.863652 -47.074907 
L 153.05289 -47.037399 
L 153.242128 -47.000599 
L 153.431366 -46.964502 
L 153.620604 -46.929105 
L 153.809842 -46.894406 
L 153.99908 -46.8604 
L 154.188318 -46.827083 
L 154.377556 -46.794452 
L 154.566794 -46.762503 
L 154.756032 -46.731232 
L 154.94527 -46.700635 
L 155.134508 -46.670708 
L 155.323746 -46.641446 
L 155.512984 -46.612846 
L 155.702222 -46.584903 
L 155.89146 -46.557612 
L 156.080698 -46.530969 
L 156.269935 -46.50497 
L 156.459173 -46.479609 
L 156.648411 -46.454881 
L 156.837649 -46.430783 
L 157.026887 -46.407309 
L 157.216125 -46.384453 
L 157.405363 -46.362212 
L 157.594601 -46.340579 
L 157.783839 -46.319549 
L 157.973077 -46.299117 
L 158.162315 -46.279278 
L 158.351553 -46.260026 
L 158.540791 -46.241355 
L 158.730029 -46.22326 
L 158.919267 -46.205735 
L 159.108505 -46.188774 
L 159.297743 -46.172371 
L 159.486981 -46.156521 
L 159.676219 -46.141217 
L 159.865457 -46.126453 
L 160.054695 -46.112223 
L 160.243933 -46.09852 
L 160.433171 -46.085339 
L 160.622409 -46.072672 
L 160.811647 -46.060514 
L 161.000885 -46.048858 
L 161.190123 -46.037697 
L 161.379361 -46.027025 
L 161.568599 -46.016834 
L 161.757837 -46.007119 
L 161.947074 -45.997871 
L 162.136312 -45.989085 
L 162.32555 -45.980753 
L 162.514788 -45.972868 
L 162.704026 -45.965423 
L 162.893264 -45.95841 
L 163.082502 -45.951824 
L 163.27174 -45.945655 
L 163.460978 -45.939897 
L 163.650216 -45.934543 
L 163.839454 -45.929584 
L 164.028692 -45.925015 
L 164.21793 -45.920826 
L 164.407168 -45.91701 
L 164.596406 -45.91356 
L 164.785644 -45.910467 
L 164.974882 -45.907725 
L 165.16412 -45.905326 
L 165.353358 -45.90326 
L 165.542596 -45.901522 
L 165.731834 -45.900102 
L 165.921072 -45.898992 
L 166.11031 -45.898186 
L 166.299548 -45.897674 
L 166.488786 -45.897448 
L 166.678024 -45.897502 
L 166.867262 -45.897825 
L 167.0565 -45.898411 
L 167.245738 -45.899251 
L 167.434975 -45.900337 
L 167.624213 -45.901661 
L 167.813451 -45.903214 
L 168.002689 -45.904988 
L 168.191927 -45.906975 
L 168.381165 -45.909167 
L 168.570403 -45.911555 
L 168.759641 -45.914131 
L 168.948879 -45.916887 
L 169.138117 -45.919814 
L 169.327355 -45.922904 
L 169.516593 -45.926149 
L 169.705831 -45.92954 
L 169.895069 -45.93307 
L 170.084307 -45.936729 
L 170.273545 -45.94051 
L 170.462783 -45.944404 
L 170.652021 -45.948404 
L 170.841259 -45.952499 
L 171.030497 -45.956684 
L 171.219735 -45.960948 
L 171.408973 -45.965285 
L 171.598211 -45.969686 
L 171.787449 -45.974142 
L 171.976687 -45.978646 
L 172.165925 -45.98319 
L 172.355163 -45.987765 
L 172.544401 -45.992364 
L 172.733639 -45.996979 
L 172.922876 -46.001601 
L 173.112114 -46.006224 
L 173.301352 -46.010838 
L 173.49059 -46.015437 
L 173.679828 -46.020012 
L 173.869066 -46.024557 
L 174.058304 -46.029063 
L 174.247542 -46.033522 
L 174.43678 -46.037929 
L 174.626018 -46.042274 
L 174.815256 -46.046551 
L 175.004494 -46.050753 
L 175.193732 -46.054872 
L 175.38297 -46.058902 
L 175.572208 -46.062835 
L 175.761446 -46.066664 
L 175.950684 -46.070384 
L 176.139922 -46.073986 
L 176.32916 -46.077464 
L 176.518398 -46.080812 
L 176.707636 -46.084024 
L 176.896874 -46.087092 
L 177.086112 -46.090012 
L 177.27535 -46.092776 
L 177.464588 -46.095378 
L 177.653826 -46.097814 
L 177.843064 -46.100076 
L 178.032302 -46.10216 
L 178.22154 -46.104059 
L 178.410778 -46.105769 
L 178.600015 -46.107284 
L 178.789253 -46.108598 
L 178.978491 -46.109708 
L 179.167729 -46.110607 
L 179.356967 -46.111291 
L 179.546205 -46.111756 
L 179.735443 -46.111996 
L 179.924681 -46.112008 
L 180.113919 -46.111787 
L 180.303157 -46.11133 
L 180.492395 -46.110631 
L 180.681633 -46.109688 
L 180.870871 -46.108497 
L 181.060109 -46.107054 
L 181.249347 -46.105355 
L 181.438585 -46.103399 
L 181.627823 -46.101181 
L 181.817061 -46.098698 
L 182.006299 -46.095948 
L 182.195537 -46.092929 
L 182.384775 -46.089638 
L 182.574013 -46.086072 
L 182.763251 -46.082229 
L 182.952489 -46.078109 
L 183.141727 -46.073708 
L 183.330965 -46.069025 
L 183.520203 -46.064058 
L 183.709441 -46.058808 
L 183.898679 -46.053271 
L 184.087916 -46.047448 
L 184.277154 -46.041337 
L 184.466392 -46.034939 
L 184.65563 -46.028252 
L 184.844868 -46.021276 
L 185.034106 -46.014011 
L 185.223344 -46.006457 
L 185.412582 -45.998615 
L 185.60182 -45.990485 
L 185.791058 -45.982067 
L 185.980296 -45.973362 
L 186.169534 -45.964372 
L 186.358772 -45.955096 
L 186.54801 -45.945538 
L 186.737248 -45.935697 
L 186.926486 -45.925575 
L 187.115724 -45.915175 
L 187.304962 -45.904499 
L 187.4942 -45.893548 
L 187.683438 -45.882324 
L 187.872676 -45.870831 
L 188.061914 -45.859071 
L 188.251152 -45.847046 
L 188.44039 -45.83476 
L 188.629628 -45.822216 
L 188.818866 -45.809417 
L 189.008104 -45.796367 
L 189.197342 -45.783069 
L 189.38658 -45.769527 
L 189.575817 -45.755745 
L 189.765055 -45.741728 
L 189.954293 -45.727479 
L 190.143531 -45.713004 
L 190.332769 -45.698306 
L 190.522007 -45.68339 
L 190.711245 -45.668262 
L 190.900483 -45.652927 
L 191.089721 -45.63739 
L 191.278959 -45.621656 
L 191.468197 -45.605731 
L 191.657435 -45.589621 
L 191.846673 -45.573332 
L 192.035911 -45.556869 
L 192.225149 -45.540239 
L 192.414387 -45.523449 
L 192.603625 -45.506504 
L 192.792863 -45.489412 
L 192.982101 -45.47218 
L 193.171339 -45.454813 
L 193.360577 -45.43732 
L 193.549815 -45.419708 
L 193.739053 -45.401983 
L 193.928291 -45.384154 
L 194.117529 -45.366229 
L 194.306767 -45.348214 
L 194.496005 -45.330119 
L 194.685243 -45.31195 
L 194.874481 -45.293717 
L 195.063719 -45.275427 
L 195.252956 -45.25709 
L 195.442194 -45.238713 
L 195.631432 -45.220306 
L 195.82067 -45.201877 
L 196.009908 -45.183435 
L 196.199146 -45.164989 
L 196.388384 -45.14655 
L 196.577622 -45.128125 
L 196.76686 -45.109724 
L 196.956098 -45.091358 
L 197.145336 -45.073035 
L 197.334574 -45.054766 
L 197.523812 -45.03656 
L 197.71305 -45.018428 
L 197.902288 -45.000379 
L 198.091526 -44.982424 
L 198.280764 -44.964572 
L 198.470002 -44.946836 
L 198.65924 -44.929224 
L 198.848478 -44.911749 
L 199.037716 -44.894419 
L 199.226954 -44.877247 
L 199.416192 -44.860243 
L 199.60543 -44.843419 
L 199.794668 -44.826784 
L 199.983906 -44.810351 
L 200.173144 -44.79413 
L 200.362382 -44.778134 
L 200.55162 -44.762373 
L 200.740857 -44.746858 
L 200.930095 -44.731602 
L 201.119333 -44.716616 
L 201.308571 -44.701912 
L 201.497809 -44.687501 
L 201.687047 -44.673395 
L 201.876285 -44.659606 
L 202.065523 -44.646146 
L 202.254761 -44.633028 
L 202.443999 -44.620262 
L 202.633237 -44.607861 
L 202.822475 -44.595837 
L 203.011713 -44.584202 
L 203.200951 -44.572969 
L 203.390189 -44.562149 
L 203.579427 -44.551755 
L 203.768665 -44.541799 
L 203.957903 -44.532294 
L 204.147141 -44.523251 
L 204.336379 -44.514682 
L 204.525617 -44.506601 
L 204.714855 -44.49902 
L 204.904093 -44.49195 
L 205.093331 -44.485404 
L 205.282569 -44.479394 
L 205.471807 -44.473933 
L 205.661045 -44.469032 
L 205.850283 -44.464705 
L 206.039521 -44.460962 
L 206.228758 -44.457817 
L 206.417996 -44.45528 
L 206.607234 -44.453366 
L 206.796472 -44.452084 
L 206.98571 -44.451447 
L 207.174948 -44.451467 
L 207.364186 -44.452156 
L 207.553424 -44.453525 
L 207.742662 -44.455585 
L 207.9319 -44.458349 
L 208.121138 -44.461827 
L 208.310376 -44.46603 
L 208.499614 -44.470971 
L 208.688852 -44.476658 
L 208.87809 -44.483104 
L 209.067328 -44.490319 
L 209.256566 -44.498312 
L 209.445804 -44.507095 
L 209.635042 -44.516678 
L 209.82428 -44.527069 
L 210.013518 -44.538279 
L 210.202756 -44.550317 
L 210.391994 -44.563192 
L 210.581232 -44.576913 
L 210.77047 -44.591487 
L 210.959708 -44.606925 
L 211.148946 -44.623232 
L 211.338184 -44.640418 
L 211.527422 -44.658488 
L 211.71666 -44.677451 
L 211.905897 -44.697311 
L 212.095135 -44.718076 
L 212.284373 -44.73975 
L 212.473611 -44.76234 
L 212.662849 -44.785849 
L 212.852087 -44.810282 
L 213.041325 -44.835641 
L 213.230563 -44.861932 
L 213.419801 -44.889155 
L 213.609039 -44.917312 
L 213.798277 -44.946405 
L 213.987515 -44.976435 
L 214.176753 -45.007401 
L 214.365991 -45.039302 
L 214.555229 -45.072136 
L 214.744467 -45.105902 
L 214.933705 -45.140595 
L 215.122943 -45.176212 
L 215.312181 -45.212747 
L 215.501419 -45.250194 
L 215.690657 -45.288546 
L 215.879895 -45.327795 
L 216.069133 -45.367931 
L 216.258371 -45.408944 
L 216.447609 -45.450823 
L 216.636847 -45.493553 
L 216.826085 -45.537122 
L 217.015323 -45.581513 
L 217.204561 -45.626709 
L 217.393798 -45.672691 
L 217.583036 -45.71944 
L 217.772274 -45.766933 
L 217.961512 -45.815147 
L 218.15075 -45.864057 
L 218.339988 -45.913634 
L 218.529226 -45.963851 
L 218.718464 -46.014675 
L 218.907702 -46.066075 
L 219.09694 -46.118013 
L 219.286178 -46.170453 
L 219.475416 -46.223354 
L 219.664654 -46.276674 
L 219.853892 -46.330367 
L 220.04313 -46.384387 
L 220.232368 -46.438682 
L 220.421606 -46.493199 
L 220.610844 -46.547882 
L 220.800082 -46.602672 
L 220.98932 -46.657507 
L 221.178558 -46.71232 
L 221.367796 -46.767043 
L 221.557034 -46.821604 
L 221.746272 -46.875926 
L 221.93551 -46.92993 
L 222.124748 -46.983532 
L 222.313986 -47.036647 
L 222.503224 -47.089182 
L 222.692462 -47.141043 
L 222.881699 -47.192131 
L 223.070937 -47.242342 
L 223.260175 -47.291571 
L 223.449413 -47.339704 
L 223.638651 -47.386627 
L 223.827889 -47.432219 
L 224.017127 -47.476356 
L 224.206365 -47.518909 
L 224.395603 -47.559747 
L 224.584841 -47.598731 
L 224.774079 -47.635721 
L 224.963317 -47.670571 
L 225.152555 -47.703132 
L 225.341793 -47.733251 
L 225.531031 -47.760772 
L 225.720269 -47.785533 
L 225.909507 -47.807371 
L 226.098745 -47.826121 
L 226.287983 -47.841612 
L 226.477221 -47.853671 
L 226.666459 -47.862127 
L 226.855697 -47.866801 
L 227.044935 -47.867517 
L 227.234173 -47.864097 
L 227.423411 -47.856361 
L 227.612649 -47.84413 
L 227.801887 -47.827225 
L 227.991125 -47.805468 
L 228.180363 -47.778682 
L 228.369601 -47.746692 
L 228.558838 -47.709325 
L 228.748076 -47.666412 
L 228.937314 -47.617785 
L 229.126552 -47.563282 
L 229.31579 -47.502744 
L 229.505028 -47.436018 
L 229.694266 -47.362954 
L 229.883504 -47.283412 
L 230.072742 -47.197252 
L 230.26198 -47.104346 
L 230.451218 -47.00457 
L 230.640456 -46.897805 
L 230.829694 -46.783944 
L 231.018932 -46.662882 
L 231.20817 -46.534526 
L 231.397408 -46.398788 
L 231.586646 -46.255588 
L 231.775884 -46.104854 
L 231.965122 -45.94652 
L 232.15436 -45.780528 
L 232.343598 -45.606829 
L 232.532836 -45.425379 
L 232.722074 -45.236141 
L 232.911312 -45.039085 
L 232.911312 -83.10197 
L 232.911312 -83.10197 
L 232.722074 -82.862756 
L 232.532836 -82.632442 
L 232.343598 -82.410979 
L 232.15436 -82.198309 
L 231.965122 -81.994371 
L 231.775884 -81.799095 
L 231.586646 -81.612404 
L 231.397408 -81.434215 
L 231.20817 -81.264436 
L 231.018932 -81.102968 
L 230.829694 -80.949707 
L 230.640456 -80.804538 
L 230.451218 -80.667342 
L 230.26198 -80.537991 
L 230.072742 -80.41635 
L 229.883504 -80.302278 
L 229.694266 -80.195626 
L 229.505028 -80.096242 
L 229.31579 -80.003964 
L 229.126552 -79.918628 
L 228.937314 -79.840062 
L 228.748076 -79.768092 
L 228.558838 -79.702538 
L 228.369601 -79.643217 
L 228.180363 -79.589943 
L 227.991125 -79.542528 
L 227.801887 -79.500779 
L 227.612649 -79.464504 
L 227.423411 -79.433509 
L 227.234173 -79.407601 
L 227.044935 -79.386583 
L 226.855697 -79.370262 
L 226.666459 -79.358444 
L 226.477221 -79.350937 
L 226.287983 -79.347549 
L 226.098745 -79.348093 
L 225.909507 -79.35238 
L 225.720269 -79.360229 
L 225.531031 -79.371457 
L 225.341793 -79.385887 
L 225.152555 -79.403344 
L 224.963317 -79.423658 
L 224.774079 -79.446663 
L 224.584841 -79.472194 
L 224.395603 -79.500094 
L 224.206365 -79.530208 
L 224.017127 -79.562385 
L 223.827889 -79.59648 
L 223.638651 -79.632351 
L 223.449413 -79.669862 
L 223.260175 -79.708878 
L 223.070937 -79.749273 
L 222.881699 -79.790923 
L 222.692462 -79.833707 
L 222.503224 -79.877511 
L 222.313986 -79.922223 
L 222.124748 -79.967737 
L 221.93551 -80.01395 
L 221.746272 -80.060764 
L 221.557034 -80.108083 
L 221.367796 -80.155816 
L 221.178558 -80.203878 
L 220.98932 -80.252183 
L 220.800082 -80.300652 
L 220.610844 -80.349209 
L 220.421606 -80.397781 
L 220.232368 -80.446297 
L 220.04313 -80.494691 
L 219.853892 -80.542899 
L 219.664654 -80.590861 
L 219.475416 -80.638519 
L 219.286178 -80.685817 
L 219.09694 -80.732704 
L 218.907702 -80.779129 
L 218.718464 -80.825045 
L 218.529226 -80.870408 
L 218.339988 -80.915174 
L 218.15075 -80.959303 
L 217.961512 -81.002757 
L 217.772274 -81.045499 
L 217.583036 -81.087496 
L 217.393798 -81.128714 
L 217.204561 -81.169124 
L 217.015323 -81.208697 
L 216.826085 -81.247406 
L 216.636847 -81.285225 
L 216.447609 -81.32213 
L 216.258371 -81.358099 
L 216.069133 -81.393112 
L 215.879895 -81.427148 
L 215.690657 -81.460189 
L 215.501419 -81.492219 
L 215.312181 -81.523222 
L 215.122943 -81.553183 
L 214.933705 -81.582088 
L 214.744467 -81.609927 
L 214.555229 -81.636687 
L 214.365991 -81.662357 
L 214.176753 -81.68693 
L 213.987515 -81.710396 
L 213.798277 -81.732748 
L 213.609039 -81.75398 
L 213.419801 -81.774084 
L 213.230563 -81.793058 
L 213.041325 -81.810896 
L 212.852087 -81.827594 
L 212.662849 -81.84315 
L 212.473611 -81.857562 
L 212.284373 -81.870828 
L 212.095135 -81.882946 
L 211.905897 -81.893918 
L 211.71666 -81.903743 
L 211.527422 -81.912421 
L 211.338184 -81.919954 
L 211.148946 -81.926344 
L 210.959708 -81.931593 
L 210.77047 -81.935704 
L 210.581232 -81.938679 
L 210.391994 -81.940523 
L 210.202756 -81.94124 
L 210.013518 -81.940833 
L 209.82428 -81.939307 
L 209.635042 -81.936669 
L 209.445804 -81.932922 
L 209.256566 -81.928073 
L 209.067328 -81.922128 
L 208.87809 -81.915093 
L 208.688852 -81.906975 
L 208.499614 -81.897781 
L 208.310376 -81.887518 
L 208.121138 -81.876194 
L 207.9319 -81.863816 
L 207.742662 -81.850393 
L 207.553424 -81.835932 
L 207.364186 -81.820441 
L 207.174948 -81.803931 
L 206.98571 -81.786409 
L 206.796472 -81.767884 
L 206.607234 -81.748366 
L 206.417996 -81.727863 
L 206.228758 -81.706386 
L 206.039521 -81.683944 
L 205.850283 -81.660547 
L 205.661045 -81.636204 
L 205.471807 -81.610927 
L 205.282569 -81.584725 
L 205.093331 -81.557608 
L 204.904093 -81.529587 
L 204.714855 -81.500673 
L 204.525617 -81.470876 
L 204.336379 -81.440207 
L 204.147141 -81.408676 
L 203.957903 -81.376296 
L 203.768665 -81.343077 
L 203.579427 -81.30903 
L 203.390189 -81.274166 
L 203.200951 -81.238496 
L 203.011713 -81.202033 
L 202.822475 -81.164786 
L 202.633237 -81.126769 
L 202.443999 -81.087991 
L 202.254761 -81.048466 
L 202.065523 -81.008204 
L 201.876285 -80.967217 
L 201.687047 -80.925517 
L 201.497809 -80.883115 
L 201.308571 -80.840024 
L 201.119333 -80.796255 
L 200.930095 -80.751819 
L 200.740857 -80.706729 
L 200.55162 -80.660997 
L 200.362382 -80.614633 
L 200.173144 -80.567652 
L 199.983906 -80.520063 
L 199.794668 -80.471879 
L 199.60543 -80.423112 
L 199.416192 -80.373773 
L 199.226954 -80.323875 
L 199.037716 -80.27343 
L 198.848478 -80.222449 
L 198.65924 -80.170944 
L 198.470002 -80.118926 
L 198.280764 -80.066409 
L 198.091526 -80.013403 
L 197.902288 -79.959921 
L 197.71305 -79.905973 
L 197.523812 -79.851573 
L 197.334574 -79.796731 
L 197.145336 -79.741459 
L 196.956098 -79.685768 
L 196.76686 -79.629671 
L 196.577622 -79.573179 
L 196.388384 -79.516304 
L 196.199146 -79.459056 
L 196.009908 -79.401448 
L 195.82067 -79.34349 
L 195.631432 -79.285194 
L 195.442194 -79.226571 
L 195.252956 -79.167633 
L 195.063719 -79.10839 
L 194.874481 -79.048855 
L 194.685243 -78.989037 
L 194.496005 -78.928947 
L 194.306767 -78.868598 
L 194.117529 -78.807999 
L 193.928291 -78.747161 
L 193.739053 -78.686095 
L 193.549815 -78.624812 
L 193.360577 -78.563322 
L 193.171339 -78.501636 
L 192.982101 -78.439764 
L 192.792863 -78.377717 
L 192.603625 -78.315504 
L 192.414387 -78.253137 
L 192.225149 -78.190624 
L 192.035911 -78.127977 
L 191.846673 -78.065204 
L 191.657435 -78.002316 
L 191.468197 -77.939323 
L 191.278959 -77.876234 
L 191.089721 -77.813059 
L 190.900483 -77.749808 
L 190.711245 -77.686489 
L 190.522007 -77.623111 
L 190.332769 -77.559685 
L 190.143531 -77.496219 
L 189.954293 -77.432722 
L 189.765055 -77.369203 
L 189.575817 -77.305671 
L 189.38658 -77.242135 
L 189.197342 -77.178602 
L 189.008104 -77.115081 
L 188.818866 -77.051582 
L 188.629628 -76.988111 
L 188.44039 -76.924677 
L 188.251152 -76.861289 
L 188.061914 -76.797953 
L 187.872676 -76.734678 
L 187.683438 -76.671472 
L 187.4942 -76.608341 
L 187.304962 -76.545293 
L 187.115724 -76.482336 
L 186.926486 -76.419477 
L 186.737248 -76.356723 
L 186.54801 -76.29408 
L 186.358772 -76.231556 
L 186.169534 -76.169157 
L 185.980296 -76.10689 
L 185.791058 -76.044762 
L 185.60182 -75.982778 
L 185.412582 -75.920944 
L 185.223344 -75.859268 
L 185.034106 -75.797754 
L 184.844868 -75.736409 
L 184.65563 -75.675238 
L 184.466392 -75.614247 
L 184.277154 -75.553441 
L 184.087916 -75.492827 
L 183.898679 -75.432407 
L 183.709441 -75.372189 
L 183.520203 -75.312177 
L 183.330965 -75.252376 
L 183.141727 -75.19279 
L 182.952489 -75.133423 
L 182.763251 -75.074282 
L 182.574013 -75.015369 
L 182.384775 -74.956689 
L 182.195537 -74.898246 
L 182.006299 -74.840044 
L 181.817061 -74.782088 
L 181.627823 -74.724379 
L 181.438585 -74.666923 
L 181.249347 -74.609723 
L 181.060109 -74.552782 
L 180.870871 -74.496103 
L 180.681633 -74.43969 
L 180.492395 -74.383545 
L 180.303157 -74.327672 
L 180.113919 -74.272073 
L 179.924681 -74.216751 
L 179.735443 -74.161708 
L 179.546205 -74.106948 
L 179.356967 -74.052472 
L 179.167729 -73.998283 
L 178.978491 -73.944382 
L 178.789253 -73.890773 
L 178.600015 -73.837457 
L 178.410778 -73.784435 
L 178.22154 -73.73171 
L 178.032302 -73.679283 
L 177.843064 -73.627156 
L 177.653826 -73.575331 
L 177.464588 -73.523808 
L 177.27535 -73.47259 
L 177.086112 -73.421677 
L 176.896874 -73.37107 
L 176.707636 -73.320771 
L 176.518398 -73.270781 
L 176.32916 -73.2211 
L 176.139922 -73.17173 
L 175.950684 -73.122671 
L 175.761446 -73.073924 
L 175.572208 -73.025489 
L 175.38297 -72.977368 
L 175.193732 -72.929561 
L 175.004494 -72.882067 
L 174.815256 -72.834889 
L 174.626018 -72.788025 
L 174.43678 -72.741476 
L 174.247542 -72.695243 
L 174.058304 -72.649325 
L 173.869066 -72.603724 
L 173.679828 -72.558438 
L 173.49059 -72.513468 
L 173.301352 -72.468814 
L 173.112114 -72.424476 
L 172.922876 -72.380454 
L 172.733639 -72.336748 
L 172.544401 -72.293358 
L 172.355163 -72.250283 
L 172.165925 -72.207523 
L 171.976687 -72.165079 
L 171.787449 -72.12295 
L 171.598211 -72.081135 
L 171.408973 -72.039635 
L 171.219735 -71.998449 
L 171.030497 -71.957577 
L 170.841259 -71.917019 
L 170.652021 -71.876773 
L 170.462783 -71.836841 
L 170.273545 -71.797222 
L 170.084307 -71.757915 
L 169.895069 -71.71892 
L 169.705831 -71.680237 
L 169.516593 -71.641865 
L 169.327355 -71.603804 
L 169.138117 -71.566055 
L 168.948879 -71.528615 
L 168.759641 -71.491486 
L 168.570403 -71.454667 
L 168.381165 -71.418158 
L 168.191927 -71.381958 
L 168.002689 -71.346067 
L 167.813451 -71.310486 
L 167.624213 -71.275213 
L 167.434975 -71.24025 
L 167.245738 -71.205594 
L 167.0565 -71.171248 
L 166.867262 -71.13721 
L 166.678024 -71.10348 
L 166.488786 -71.070059 
L 166.299548 -71.036946 
L 166.11031 -71.004141 
L 165.921072 -70.971645 
L 165.731834 -70.939458 
L 165.542596 -70.90758 
L 165.353358 -70.87601 
L 165.16412 -70.84475 
L 164.974882 -70.8138 
L 164.785644 -70.78316 
L 164.596406 -70.752829 
L 164.407168 -70.72281 
L 164.21793 -70.693102 
L 164.028692 -70.663705 
L 163.839454 -70.634621 
L 163.650216 -70.605849 
L 163.460978 -70.577391 
L 163.27174 -70.549247 
L 163.082502 -70.521419 
L 162.893264 -70.493906 
L 162.704026 -70.466709 
L 162.514788 -70.439831 
L 162.32555 -70.41327 
L 162.136312 -70.38703 
L 161.947074 -70.36111 
L 161.757837 -70.335512 
L 161.568599 -70.310236 
L 161.379361 -70.285286 
L 161.190123 -70.26066 
L 161.000885 -70.236362 
L 160.811647 -70.212392 
L 160.622409 -70.188752 
L 160.433171 -70.165443 
L 160.243933 -70.142468 
L 160.054695 -70.119827 
L 159.865457 -70.097522 
L 159.676219 -70.075556 
L 159.486981 -70.05393 
L 159.297743 -70.032647 
L 159.108505 -70.011707 
L 158.919267 -69.991113 
L 158.730029 -69.970868 
L 158.540791 -69.950972 
L 158.351553 -69.93143 
L 158.162315 -69.912243 
L 157.973077 -69.893412 
L 157.783839 -69.874942 
L 157.594601 -69.856834 
L 157.405363 -69.839091 
L 157.216125 -69.821715 
L 157.026887 -69.804709 
L 156.837649 -69.788077 
L 156.648411 -69.77182 
L 156.459173 -69.755941 
L 156.269935 -69.740444 
L 156.080698 -69.725332 
L 155.89146 -69.710608 
L 155.702222 -69.696274 
L 155.512984 -69.682334 
L 155.323746 -69.668792 
L 155.134508 -69.65565 
L 154.94527 -69.642913 
L 154.756032 -69.630583 
L 154.566794 -69.618664 
L 154.377556 -69.60716 
L 154.188318 -69.596074 
L 153.99908 -69.58541 
L 153.809842 -69.575172 
L 153.620604 -69.565363 
L 153.431366 -69.555989 
L 153.242128 -69.547052 
L 153.05289 -69.538556 
L 152.863652 -69.530507 
L 152.674414 -69.522907 
L 152.485176 -69.515762 
L 152.295938 -69.509074 
L 152.1067 -69.50285 
L 151.917462 -69.497093 
L 151.728224 -69.491808 
L 151.538986 -69.486999 
L 151.349748 -69.482671 
L 151.16051 -69.478828 
L 150.971272 -69.475476 
L 150.782034 -69.472618 
L 150.592797 -69.470261 
L 150.403559 -69.468408 
L 150.214321 -69.467065 
L 150.025083 -69.466236 
L 149.835845 -69.465928 
L 149.646607 -69.466144 
L 149.457369 -69.466891 
L 149.268131 -69.468173 
L 149.078893 -69.469996 
L 148.889655 -69.472364 
L 148.700417 -69.475285 
L 148.511179 -69.478762 
L 148.321941 -69.482802 
L 148.132703 -69.487409 
L 147.943465 -69.492591 
L 147.754227 -69.498352 
L 147.564989 -69.504698 
L 147.375751 -69.511635 
L 147.186513 -69.519168 
L 146.997275 -69.527305 
L 146.808037 -69.53605 
L 146.618799 -69.54541 
L 146.429561 -69.555391 
L 146.240323 -69.565998 
L 146.051085 -69.577238 
L 145.861847 -69.589118 
L 145.672609 -69.601643 
L 145.483371 -69.61482 
L 145.294133 -69.628655 
L 145.104896 -69.643154 
L 144.915658 -69.658325 
L 144.72642 -69.674172 
L 144.537182 -69.690704 
L 144.347944 -69.707926 
L 144.158706 -69.725846 
L 143.969468 -69.744469 
L 143.78023 -69.763803 
L 143.590992 -69.783854 
L 143.401754 -69.804628 
L 143.212516 -69.826134 
L 143.023278 -69.848378 
L 142.83404 -69.871366 
L 142.644802 -69.895105 
L 142.455564 -69.919604 
L 142.266326 -69.944867 
L 142.077088 -69.970903 
L 141.88785 -69.997719 
L 141.698612 -70.025321 
L 141.509374 -70.053717 
L 141.320136 -70.082914 
L 141.130898 -70.112919 
L 140.94166 -70.14374 
L 140.752422 -70.175383 
L 140.563184 -70.207856 
L 140.373946 -70.241166 
L 140.184708 -70.27532 
L 139.99547 -70.310326 
L 139.806232 -70.346191 
L 139.616994 -70.382923 
L 139.427757 -70.420528 
L 139.238519 -70.459014 
L 139.049281 -70.498389 
L 138.860043 -70.53866 
L 138.670805 -70.579834 
L 138.481567 -70.621919 
L 138.292329 -70.664922 
L 138.103091 -70.70885 
L 137.913853 -70.753712 
L 137.724615 -70.799514 
L 137.535377 -70.846264 
L 137.346139 -70.893968 
L 137.156901 -70.942636 
L 136.967663 -70.992274 
L 136.778425 -71.042888 
L 136.589187 -71.094488 
L 136.399949 -71.14708 
L 136.210711 -71.200671 
L 136.021473 -71.255269 
L 135.832235 -71.31088 
L 135.642997 -71.367513 
L 135.453759 -71.425174 
L 135.264521 -71.483871 
L 135.075283 -71.543611 
L 134.886045 -71.6044 
L 134.696807 -71.666246 
L 134.507569 -71.729156 
L 134.318331 -71.793137 
L 134.129093 -71.858196 
L 133.939856 -71.924339 
L 133.750618 -71.991573 
L 133.56138 -72.059906 
L 133.372142 -72.129343 
L 133.182904 -72.199892 
L 132.993666 -72.271558 
L 132.804428 -72.344349 
L 132.61519 -72.418271 
L 132.425952 -72.493329 
L 132.236714 -72.569531 
L 132.047476 -72.646882 
L 131.858238 -72.725388 
L 131.669 -72.805055 
L 131.479762 -72.885889 
L 131.290524 -72.967896 
L 131.101286 -73.051081 
L 130.912048 -73.13545 
L 130.72281 -73.221007 
L 130.533572 -73.30776 
L 130.344334 -73.395711 
L 130.155096 -73.484867 
L 129.965858 -73.575233 
L 129.77662 -73.666812 
L 129.587382 -73.75961 
L 129.398144 -73.853631 
L 129.208906 -73.948879 
L 129.019668 -74.045359 
L 128.83043 -74.143074 
L 128.641192 -74.242028 
L 128.451955 -74.342225 
L 128.262717 -74.443668 
L 128.073479 -74.546362 
L 127.884241 -74.650308 
L 127.695003 -74.75551 
L 127.505765 -74.86197 
L 127.316527 -74.969692 
L 127.127289 -75.078678 
L 126.938051 -75.188929 
L 126.748813 -75.300449 
L 126.559575 -75.413238 
L 126.370337 -75.527299 
L 126.181099 -75.642633 
L 125.991861 -75.759242 
L 125.802623 -75.877126 
L 125.613385 -75.996286 
L 125.424147 -76.116723 
L 125.234909 -76.238437 
L 125.045671 -76.361429 
L 124.856433 -76.485699 
L 124.667195 -76.611247 
L 124.477957 -76.738071 
L 124.288719 -76.866172 
L 124.099481 -76.995549 
L 123.910243 -77.126201 
L 123.721005 -77.258126 
L 123.531767 -77.391324 
L 123.342529 -77.525792 
L 123.153291 -77.661528 
L 122.964053 -77.798531 
L 122.774816 -77.936798 
L 122.585578 -78.076327 
L 122.39634 -78.217114 
L 122.207102 -78.359158 
L 122.017864 -78.502454 
L 121.828626 -78.647 
L 121.639388 -78.792792 
L 121.45015 -78.939826 
L 121.260912 -79.088097 
L 121.071674 -79.237603 
L 120.882436 -79.388338 
L 120.693198 -79.540298 
L 120.50396 -79.693478 
L 120.314722 -79.847873 
L 120.125484 -80.003478 
L 119.936246 -80.160287 
L 119.747008 -80.318295 
L 119.55777 -80.477497 
L 119.368532 -80.637885 
L 119.179294 -80.799455 
L 118.990056 -80.962199 
L 118.800818 -81.126111 
L 118.61158 -81.291185 
L 118.422342 -81.457414 
L 118.233104 -81.624791 
L 118.043866 -81.793308 
L 117.854628 -81.962958 
L 117.66539 -82.133734 
L 117.476152 -82.305628 
L 117.286915 -82.478632 
L 117.097677 -82.652739 
L 116.908439 -82.827939 
L 116.719201 -83.004226 
L 116.529963 -83.181591 
L 116.340725 -83.360025 
L 116.151487 -83.539519 
L 115.962249 -83.720065 
L 115.773011 -83.901654 
L 115.583773 -84.084277 
L 115.394535 -84.267924 
L 115.205297 -84.452587 
L 115.016059 -84.638256 
L 114.826821 -84.824922 
L 114.637583 -85.012575 
L 114.448345 -85.201206 
L 114.259107 -85.390804 
L 114.069869 -85.581359 
L 113.880631 -85.772863 
L 113.691393 -85.965305 
L 113.502155 -86.158674 
L 113.312917 -86.35296 
L 113.123679 -86.548154 
L 112.934441 -86.744245 
L 112.745203 -86.941221 
L 112.555965 -87.139074 
L 112.366727 -87.337791 
L 112.177489 -87.537363 
L 111.988251 -87.737779 
L 111.799014 -87.939028 
L 111.609776 -88.141099 
L 111.420538 -88.343981 
L 111.2313 -88.547663 
L 111.042062 -88.752134 
L 110.852824 -88.957383 
L 110.663586 -89.163399 
L 110.474348 -89.370171 
L 110.28511 -89.577687 
L 110.095872 -89.785936 
L 109.906634 -89.994907 
L 109.717396 -90.204589 
L 109.528158 -90.414969 
L 109.33892 -90.626037 
L 109.149682 -90.837782 
L 108.960444 -91.050191 
L 108.771206 -91.263252 
L 108.581968 -91.476956 
L 108.39273 -91.691289 
L 108.203492 -91.90624 
L 108.014254 -92.121798 
L 107.825016 -92.33795 
L 107.635778 -92.554686 
L 107.44654 -92.771992 
L 107.257302 -92.989859 
L 107.068064 -93.208272 
L 106.878826 -93.427222 
L 106.689588 -93.646695 
L 106.50035 -93.866681 
L 106.311112 -94.087166 
L 106.121875 -94.30814 
L 105.932637 -94.52959 
L 105.743399 -94.751504 
L 105.554161 -94.97387 
L 105.364923 -95.196677 
L 105.175685 -95.419911 
L 104.986447 -95.643562 
L 104.797209 -95.867617 
L 104.607971 -96.092064 
L 104.418733 -96.316891 
L 104.229495 -96.542085 
L 104.040257 -96.767636 
L 103.851019 -96.993529 
L 103.661781 -97.219754 
L 103.472543 -97.446298 
L 103.283305 -97.673149 
L 103.094067 -97.900295 
L 102.904829 -98.127723 
L 102.715591 -98.355422 
L 102.526353 -98.583378 
L 102.337115 -98.81158 
L 102.147877 -99.040016 
L 101.958639 -99.268672 
L 101.769401 -99.497538 
L 101.580163 -99.7266 
L 101.390925 -99.955846 
L 101.201687 -100.185263 
L 101.012449 -100.414841 
L 100.823211 -100.644565 
L 100.633974 -100.874423 
L 100.444736 -101.104404 
L 100.255498 -101.334494 
L 100.06626 -101.564682 
L 99.877022 -101.794954 
L 99.687784 -102.025299 
L 99.498546 -102.255703 
L 99.309308 -102.486155 
L 99.12007 -102.716641 
L 98.930832 -102.94715 
L 98.741594 -103.177668 
L 98.552356 -103.408183 
L 98.363118 -103.638683 
L 98.17388 -103.869154 
L 97.984642 -104.099585 
L 97.795404 -104.329962 
L 97.606166 -104.560273 
L 97.416928 -104.790505 
L 97.22769 -105.020645 
L 97.038452 -105.250681 
L 96.849214 -105.4806 
L 96.659976 -105.71039 
L 96.470738 -105.940036 
L 96.2815 -106.169528 
L 96.092262 -106.398851 
L 95.903024 -106.627993 
L 95.713786 -106.856941 
L 95.524548 -107.085683 
L 95.33531 -107.314205 
L 95.146073 -107.542494 
L 94.956835 -107.770538 
L 94.767597 -107.998323 
L 94.578359 -108.225837 
L 94.389121 -108.453066 
L 94.199883 -108.679998 
L 94.010645 -108.90662 
L 93.821407 -109.132918 
L 93.632169 -109.358879 
L 93.442931 -109.58449 
L 93.253693 -109.809739 
L 93.064455 -110.034611 
L 92.875217 -110.259094 
L 92.685979 -110.483175 
L 92.496741 -110.70684 
L 92.307503 -110.930076 
L 92.118265 -111.15287 
L 91.929027 -111.375208 
L 91.739789 -111.597078 
L 91.550551 -111.818465 
L 91.361313 -112.039357 
L 91.172075 -112.25974 
L 90.982837 -112.479601 
L 90.793599 -112.698926 
L 90.604361 -112.917701 
L 90.415123 -113.135914 
L 90.225885 -113.35355 
L 90.036647 -113.570597 
L 89.847409 -113.78704 
L 89.658171 -114.002867 
L 89.468934 -114.218062 
L 89.279696 -114.432614 
L 89.090458 -114.646507 
L 88.90122 -114.859729 
L 88.711982 -115.072265 
L 88.522744 -115.284102 
L 88.333506 -115.495227 
L 88.144268 -115.705624 
L 87.95503 -115.915281 
L 87.765792 -116.124183 
L 87.576554 -116.332317 
L 87.387316 -116.539668 
L 87.198078 -116.746224 
L 87.00884 -116.951969 
L 86.819602 -117.156889 
L 86.630364 -117.360972 
L 86.441126 -117.564201 
L 86.251888 -117.766565 
L 86.06265 -117.968047 
L 85.873412 -118.168635 
L 85.684174 -118.368314 
L 85.494936 -118.56707 
L 85.305698 -118.764888 
L 85.11646 -118.961754 
L 84.927222 -119.157654 
L 84.737984 -119.352574 
L 84.548746 -119.546499 
L 84.359508 -119.739415 
L 84.17027 -119.931307 
L 83.981033 -120.122161 
L 83.791795 -120.311962 
L 83.602557 -120.500696 
L 83.413319 -120.688348 
L 83.224081 -120.874904 
L 83.034843 -121.060349 
L 82.845605 -121.244669 
L 82.656367 -121.427848 
L 82.467129 -121.609872 
L 82.277891 -121.790727 
L 82.088653 -121.970397 
L 81.899415 -122.148867 
L 81.710177 -122.326123 
L 81.520939 -122.502151 
L 81.331701 -122.676934 
L 81.142463 -122.850458 
L 80.953225 -123.022708 
L 80.763987 -123.19367 
L 80.574749 -123.363327 
L 80.385511 -123.531666 
L 80.196273 -123.69867 
L 80.007035 -123.864325 
L 79.817797 -124.028615 
L 79.628559 -124.191526 
L 79.439321 -124.353041 
L 79.250083 -124.513147 
L 79.060845 -124.671827 
L 78.871607 -124.829066 
L 78.682369 -124.984849 
L 78.493132 -125.13916 
L 78.303894 -125.291984 
L 78.114656 -125.443306 
L 77.925418 -125.593109 
L 77.73618 -125.741379 
L 77.546942 -125.888099 
L 77.357704 -126.033255 
L 77.168466 -126.176831 
L 76.979228 -126.31881 
L 76.78999 -126.459177 
L 76.600752 -126.597917 
L 76.411514 -126.735013 
L 76.222276 -126.87045 
L 76.033038 -127.004212 
L 75.8438 -127.136283 
L 75.654562 -127.266647 
L 75.465324 -127.395288 
L 75.276086 -127.52219 
L 75.086848 -127.647338 
L 74.89761 -127.770714 
L 74.708372 -127.892304 
L 74.519134 -128.01209 
L 74.329896 -128.130057 
L 74.140658 -128.246188 
L 73.95142 -128.360468 
L 73.762182 -128.47288 
L 73.572944 -128.583407 
L 73.383706 -128.692034 
L 73.194468 -128.798743 
L 73.00523 -128.903519 
L 72.815993 -129.006346 
L 72.626755 -129.107205 
L 72.437517 -129.206082 
L 72.248279 -129.30296 
L 72.059041 -129.397821 
L 71.869803 -129.49065 
L 71.680565 -129.581429 
L 71.491327 -129.670142 
L 71.302089 -129.756773 
L 71.112851 -129.841304 
L 70.923613 -129.923718 
L 70.734375 -130.004 
L 70.545137 -130.082131 
L 70.355899 -130.158096 
L 70.166661 -130.231876 
L 69.977423 -130.303456 
L 69.788185 -130.372818 
L 69.598947 -130.439945 
L 69.409709 -130.50482 
L 69.220471 -130.567425 
L 69.031233 -130.627745 
L 68.841995 -130.68576 
L 68.652757 -130.741455 
L 68.463519 -130.794813 
L 68.274281 -130.845814 
L 68.085043 -130.894444 
L 67.895805 -130.940683 
L 67.706567 -130.984514 
L 67.517329 -131.025921 
L 67.328092 -131.064886 
L 67.138854 -131.10139 
L 66.949616 -131.135418 
L 66.760378 -131.16695 
L 66.57114 -131.195969 
L 66.381902 -131.222459 
L 66.192664 -131.2464 
L 66.003426 -131.267776 
L 65.814188 -131.286568 
L 65.62495 -131.302758 
L 65.435712 -131.31633 
L 65.246474 -131.327264 
L 65.057236 -131.335544 
L 64.867998 -131.341151 
L 64.67876 -131.344067 
L 64.489522 -131.344273 
L 64.300284 -131.341753 
L 64.111046 -131.336488 
L 63.921808 -131.32846 
L 63.73257 -131.31765 
L 63.543332 -131.304041 
L 63.354094 -131.287614 
L 63.164856 -131.268351 
L 62.975618 -131.246234 
L 62.78638 -131.221244 
L 62.597142 -131.193362 
L 62.407904 -131.162571 
L 62.218666 -131.128853 
L 62.029428 -131.092187 
L 61.840191 -131.052557 
L 61.650953 -131.009943 
L 61.461715 -130.964327 
L 61.272477 -130.91569 
L 61.083239 -130.864013 
L 60.894001 -130.809279 
L 60.704763 -130.751467 
L 60.515525 -130.690559 
L 60.326287 -130.626537 
L 60.137049 -130.559382 
L 59.947811 -130.489074 
L 59.758573 -130.415595 
L 59.569335 -130.338926 
L 59.380097 -130.259048 
L 59.190859 -130.175941 
L 59.001621 -130.089587 
L 58.812383 -129.999967 
L 58.623145 -129.907061 
L 58.433907 -129.81085 
L 58.244669 -129.711315 
L 58.055431 -129.608437 
L 57.866193 -129.502197 
L 57.676955 -129.392574 
L 57.487717 -129.279551 
L 57.298479 -129.163106 
L 57.109241 -129.043222 
L 56.920003 -128.919878 
L 56.730765 -128.793056 
L 56.541527 -128.662734 
L 56.352289 -128.528895 
L 56.163052 -128.391517 
L 55.973814 -128.250582 
L 55.784576 -128.106071 
L 55.595338 -127.957962 
L 55.4061 -127.806236 
L 55.216862 -127.650875 
L 55.027624 -127.491857 
L 54.838386 -127.329162 
L 54.649148 -127.162772 
L 54.45991 -126.992666 
L 54.270672 -126.818824 
L 54.081434 -126.641226 
L 53.892196 -126.459852 
L 53.702958 -126.274682 
L 53.51372 -126.085695 
L 53.324482 -125.892872 
L 53.135244 -125.696193 
L 52.946006 -125.495637 
L 52.756768 -125.291184 
L 52.56753 -125.082813 
L 52.378292 -124.870505 
L 52.189054 -124.654238 
L 51.999816 -124.433993 
L 51.810578 -124.209749 
L 51.62134 -123.981486 
L 51.432102 -123.749182 
L 51.242864 -123.512818 
L 51.053626 -123.272373 
L 50.864388 -123.027826 
L 50.675151 -122.779157 
L 50.485913 -122.526345 
L 50.296675 -122.269369 
L 50.107437 -122.008208 
L 49.918199 -121.742842 
L 49.728961 -121.473249 
L 49.539723 -121.19941 
L 49.350485 -120.921302 
L 49.161247 -120.638905 
L 48.972009 -120.352198 
L 48.782771 -120.061161 
L 48.593533 -119.765771 
L 48.404295 -119.466008 
L 48.215057 -119.16185 
L 48.025819 -118.853277 
L 47.836581 -118.540268 
L 47.647343 -118.2228 
L 47.458105 -117.900853 
L 47.268867 -117.574406 
L 47.079629 -117.243437 
L 46.890391 -116.907924 
L 46.701153 -116.567847 
L 46.511915 -116.223184 
L 46.322677 -115.873913 
L 46.133439 -115.520013 
L 45.944201 -115.161463 
L 45.754963 -114.79824 
L 45.565725 -114.430323 
L 45.376487 -114.05769 
L 45.18725 -113.680321 
L 44.998012 -113.298192 
L 44.808774 -112.911282 
L 44.619536 -112.51957 
L 44.430298 -112.123033 
L 44.24106 -111.72165 
L 44.051822 -111.315399 
L 43.862584 -110.904257 
z
" style="stroke: #1f77b4; stroke-opacity: 0.2"/>
    </defs>
    <g clip-path="url(#pfe40515ace)">
     <use xlink:href="#m9b75cc441c" x="0" y="180" style="fill: #1f77b4; fill-opacity: 0.2; stroke: #1f77b4; stroke-opacity: 0.2"/>
    </g>
   </g>
   <g id="LineCollection_1">
    <path d="M 45.061052 75.611263 
L 45.061052 54.226179 
" clip-path="url(#pfe40515ace)" style="fill: none; stroke: #1f77b4; stroke-width: 1.25"/>
    <path d="M 59.906596 71.47254 
L 59.906596 42.754844 
" clip-path="url(#pfe40515ace)" style="fill: none; stroke: #1f77b4; stroke-width: 1.25"/>
    <path d="M 68.141234 69.374102 
L 68.141234 50.792733 
" clip-path="url(#pfe40515ace)" style="fill: none; stroke: #1f77b4; stroke-width: 1.25"/>
    <path d="M 79.816636 66.509706 
L 79.816636 48.831549 
" clip-path="url(#pfe40515ace)" style="fill: none; stroke: #1f77b4; stroke-width: 1.25"/>
    <path d="M 91.492038 84.015566 
L 91.492038 64.715377 
" clip-path="url(#pfe40515ace)" style="fill: none; stroke: #1f77b4; stroke-width: 1.25"/>
    <path d="M 102.510216 97.973059 
L 102.510216 80.156277 
" clip-path="url(#pfe40515ace)" style="fill: none; stroke: #1f77b4; stroke-width: 1.25"/>
    <path d="M 114.804182 117.830075 
L 114.804182 101.173024 
" clip-path="url(#pfe40515ace)" style="fill: none; stroke: #1f77b4; stroke-width: 1.25"/>
    <path d="M 130.22963 125.462967 
L 130.22963 106.378692 
" clip-path="url(#pfe40515ace)" style="fill: none; stroke: #1f77b4; stroke-width: 1.25"/>
    <path d="M 149.250484 130.587557 
L 149.250484 112.290741 
" clip-path="url(#pfe40515ace)" style="fill: none; stroke: #1f77b4; stroke-width: 1.25"/>
    <path d="M 162.240335 127.474261 
L 162.240335 97.041013 
" clip-path="url(#pfe40515ace)" style="fill: none; stroke: #1f77b4; stroke-width: 1.25"/>
    <path d="M 202.447018 131.222448 
L 202.447018 106.459994 
" clip-path="url(#pfe40515ace)" style="fill: none; stroke: #1f77b4; stroke-width: 1.25"/>
    <path d="M 232.911312 128.892701 
L 232.911312 102.110957 
" clip-path="url(#pfe40515ace)" style="fill: none; stroke: #1f77b4; stroke-width: 1.25"/>
   </g>
   <g id="line2d_1">
    <defs>
     <path id="mcb1997ab7c" d="M 2.75 0 
L -2.75 -0 
" style="stroke: #1f77b4; stroke-width: 1.25"/>
    </defs>
    <g clip-path="url(#pfe40515ace)">
     <use xlink:href="#mcb1997ab7c" x="45.061052" y="75.611263" style="fill: #1f77b4; stroke: #1f77b4; stroke-width: 1.25"/>
     <use xlink:href="#mcb1997ab7c" x="59.906596" y="71.47254" style="fill: #1f77b4; stroke: #1f77b4; stroke-width: 1.25"/>
     <use xlink:href="#mcb1997ab7c" x="68.141234" y="69.374102" style="fill: #1f77b4; stroke: #1f77b4; stroke-width: 1.25"/>
     <use xlink:href="#mcb1997ab7c" x="79.816636" y="66.509706" style="fill: #1f77b4; stroke: #1f77b4; stroke-width: 1.25"/>
     <use xlink:href="#mcb1997ab7c" x="91.492038" y="84.015566" style="fill: #1f77b4; stroke: #1f77b4; stroke-width: 1.25"/>
     <use xlink:href="#mcb1997ab7c" x="102.510216" y="97.973059" style="fill: #1f77b4; stroke: #1f77b4; stroke-width: 1.25"/>
     <use xlink:href="#mcb1997ab7c" x="114.804182" y="117.830075" style="fill: #1f77b4; stroke: #1f77b4; stroke-width: 1.25"/>
     <use xlink:href="#mcb1997ab7c" x="130.22963" y="125.462967" style="fill: #1f77b4; stroke: #1f77b4; stroke-width: 1.25"/>
     <use xlink:href="#mcb1997ab7c" x="149.250484" y="130.587557" style="fill: #1f77b4; stroke: #1f77b4; stroke-width: 1.25"/>
     <use xlink:href="#mcb1997ab7c" x="162.240335" y="127.474261" style="fill: #1f77b4; stroke: #1f77b4; stroke-width: 1.25"/>
     <use xlink:href="#mcb1997ab7c" x="202.447018" y="131.222448" style="fill: #1f77b4; stroke: #1f77b4; stroke-width: 1.25"/>
     <use xlink:href="#mcb1997ab7c" x="232.911312" y="128.892701" style="fill: #1f77b4; stroke: #1f77b4; stroke-width: 1.25"/>
    </g>
   </g>
   <g id="line2d_2">
    <g clip-path="url(#pfe40515ace)">
     <use xlink:href="#mcb1997ab7c" x="45.061052" y="54.226179" style="fill: #1f77b4; stroke: #1f77b4; stroke-width: 1.25"/>
     <use xlink:href="#mcb1997ab7c" x="59.906596" y="42.754844" style="fill: #1f77b4; stroke: #1f77b4; stroke-width: 1.25"/>
     <use xlink:href="#mcb1997ab7c" x="68.141234" y="50.792733" style="fill: #1f77b4; stroke: #1f77b4; stroke-width: 1.25"/>
     <use xlink:href="#mcb1997ab7c" x="79.816636" y="48.831549" style="fill: #1f77b4; stroke: #1f77b4; stroke-width: 1.25"/>
     <use xlink:href="#mcb1997ab7c" x="91.492038" y="64.715377" style="fill: #1f77b4; stroke: #1f77b4; stroke-width: 1.25"/>
     <use xlink:href="#mcb1997ab7c" x="102.510216" y="80.156277" style="fill: #1f77b4; stroke: #1f77b4; stroke-width: 1.25"/>
     <use xlink:href="#mcb1997ab7c" x="114.804182" y="101.173024" style="fill: #1f77b4; stroke: #1f77b4; stroke-width: 1.25"/>
     <use xlink:href="#mcb1997ab7c" x="130.22963" y="106.378692" style="fill: #1f77b4; stroke: #1f77b4; stroke-width: 1.25"/>
     <use xlink:href="#mcb1997ab7c" x="149.250484" y="112.290741" style="fill: #1f77b4; stroke: #1f77b4; stroke-width: 1.25"/>
     <use xlink:href="#mcb1997ab7c" x="162.240335" y="97.041013" style="fill: #1f77b4; stroke: #1f77b4; stroke-width: 1.25"/>
     <use xlink:href="#mcb1997ab7c" x="202.447018" y="106.459994" style="fill: #1f77b4; stroke: #1f77b4; stroke-width: 1.25"/>
     <use xlink:href="#mcb1997ab7c" x="232.911312" y="102.110957" style="fill: #1f77b4; stroke: #1f77b4; stroke-width: 1.25"/>
    </g>
   </g>
   <g id="line2d_3">
    <path d="M 43.862584 69.095743 
L 45.565725 65.617791 
L 47.268867 62.610204 
L 48.972009 60.046003 
L 50.675151 57.89907 
L 52.189054 56.320535 
L 53.702958 55.03452 
L 55.216862 54.024345 
L 56.730765 53.273838 
L 58.244669 52.767327 
L 59.758573 52.489633 
L 61.272477 52.426064 
L 62.975618 52.592818 
L 64.67876 52.993078 
L 66.57114 53.688865 
L 68.463519 54.625069 
L 70.545137 55.904437 
L 72.815993 57.564227 
L 75.276086 59.63196 
L 78.114656 62.31048 
L 81.520939 65.854483 
L 85.684174 70.538704 
L 91.739789 77.736593 
L 102.147877 90.11764 
L 107.068064 95.599299 
L 111.2313 99.924223 
L 115.205297 103.732849 
L 118.800818 106.880885 
L 122.207102 109.585732 
L 125.613385 112.011139 
L 128.83043 114.04133 
L 132.047476 115.81859 
L 135.264521 117.346379 
L 138.481567 118.631168 
L 141.698612 119.682138 
L 145.104896 120.552991 
L 148.511179 121.191046 
L 152.1067 121.632538 
L 155.89146 121.86589 
L 159.865457 121.888012 
L 164.407168 121.68009 
L 169.516593 121.215993 
L 176.139922 120.377142 
L 196.199146 117.687977 
L 202.822475 117.119688 
L 209.445804 116.779992 
L 217.961512 116.591048 
L 227.612649 116.345683 
L 232.15436 116.010581 
L 232.911312 115.929472 
L 232.911312 115.929472 
" clip-path="url(#pfe40515ace)" style="fill: none; stroke: #1f77b4; stroke-width: 1.5; stroke-linecap: square"/>
   </g>
   <g id="line2d_4">
    <defs>
     <path id="m75d845da8c" d="M 0 4 
C 1.060812 4 2.078319 3.578535 2.828427 2.828427 
C 3.578535 2.078319 4 1.060812 4 0 
C 4 -1.060812 3.578535 -2.078319 2.828427 -2.828427 
C 2.078319 -3.578535 1.060812 -4 0 -4 
C -1.060812 -4 -2.078319 -3.578535 -2.828427 -2.828427 
C -3.578535 -2.078319 -4 -1.060812 -4 0 
C -4 1.060812 -3.578535 2.078319 -2.828427 2.828427 
C -2.078319 3.578535 -1.060812 4 0 4 
z
" style="stroke: #1f77b4; stroke-width: 1.25"/>
    </defs>
    <g clip-path="url(#pfe40515ace)">
     <use xlink:href="#m75d845da8c" x="45.061052" y="64.918721" style="fill-opacity: 0; stroke: #1f77b4; stroke-width: 1.25"/>
     <use xlink:href="#m75d845da8c" x="59.906596" y="57.113692" style="fill-opacity: 0; stroke: #1f77b4; stroke-width: 1.25"/>
     <use xlink:href="#m75d845da8c" x="68.141234" y="60.083417" style="fill-opacity: 0; stroke: #1f77b4; stroke-width: 1.25"/>
     <use xlink:href="#m75d845da8c" x="79.816636" y="57.670627" style="fill-opacity: 0; stroke: #1f77b4; stroke-width: 1.25"/>
     <use xlink:href="#m75d845da8c" x="91.492038" y="74.365471" style="fill-opacity: 0; stroke: #1f77b4; stroke-width: 1.25"/>
     <use xlink:href="#m75d845da8c" x="102.510216" y="89.064668" style="fill-opacity: 0; stroke: #1f77b4; stroke-width: 1.25"/>
     <use xlink:href="#m75d845da8c" x="114.804182" y="109.501549" style="fill-opacity: 0; stroke: #1f77b4; stroke-width: 1.25"/>
     <use xlink:href="#m75d845da8c" x="130.22963" y="115.92083" style="fill-opacity: 0; stroke: #1f77b4; stroke-width: 1.25"/>
     <use xlink:href="#m75d845da8c" x="149.250484" y="121.439149" style="fill-opacity: 0; stroke: #1f77b4; stroke-width: 1.25"/>
     <use xlink:href="#m75d845da8c" x="162.240335" y="112.257637" style="fill-opacity: 0; stroke: #1f77b4; stroke-width: 1.25"/>
     <use xlink:href="#m75d845da8c" x="202.447018" y="118.841221" style="fill-opacity: 0; stroke: #1f77b4; stroke-width: 1.25"/>
     <use xlink:href="#m75d845da8c" x="232.911312" y="115.501829" style="fill-opacity: 0; stroke: #1f77b4; stroke-width: 1.25"/>
    </g>
   </g>
   <g id="patch_3">
    <path d="M 43.862584 144.428666 
L 43.862584 17.735865 
" style="fill: none; stroke: #000000; stroke-linejoin: miter; stroke-linecap: square"/>
   </g>
   <g id="patch_4">
    <path d="M 275.824213 144.428666 
L 275.824213 17.735865 
" style="fill: none; stroke: #000000; stroke-linejoin: miter; stroke-linecap: square"/>
   </g>
   <g id="patch_5">
    <path d="M 43.862584 144.428666 
L 275.824213 144.428666 
" style="fill: none; stroke: #000000; stroke-linejoin: miter; stroke-linecap: square"/>
   </g>
   <g id="patch_6">
    <path d="M 43.862584 17.735865 
L 275.824213 17.735865 
" style="fill: none; stroke: #000000; stroke-linejoin: miter; stroke-linecap: square"/>
   </g>
   <g id="matplotlib.axis_1">
    <g id="xtick_1">
     <g id="line2d_5">
      <defs>
       <path id="mec718ec90c" d="M 0 0 
L 0 3.75 
" style="stroke: #000000; stroke-width: 1.25"/>
      </defs>
      <g>
       <use xlink:href="#mec718ec90c" x="43.862584" y="144.428666" style="stroke: #000000; stroke-width: 1.25"/>
      </g>
     </g>
     <g id="text_1">
      <text style="font: 11px 'Arial'; text-anchor: middle" x="43.862584" y="159.55226" transform="rotate(-0 43.862584 159.55226)">0</text>
     </g>
    </g>
    <g id="xtick_2">
     <g id="line2d_6">
      <g>
       <use xlink:href="#mec718ec90c" x="90.25491" y="144.428666" style="stroke: #000000; stroke-width: 1.25"/>
      </g>
     </g>
     <g id="text_2">
      <text style="font: 11px 'Arial'; text-anchor: middle" x="90.25491" y="159.55226" transform="rotate(-0 90.25491 159.55226)">20</text>
     </g>
    </g>
    <g id="xtick_3">
     <g id="line2d_7">
      <g>
       <use xlink:href="#mec718ec90c" x="136.647236" y="144.428666" style="stroke: #000000; stroke-width: 1.25"/>
      </g>
     </g>
     <g id="text_3">
      <text style="font: 11px 'Arial'; text-anchor: middle" x="136.647236" y="159.55226" transform="rotate(-0 136.647236 159.55226)">40</text>
     </g>
    </g>
    <g id="xtick_4">
     <g id="line2d_8">
      <g>
       <use xlink:href="#mec718ec90c" x="183.039561" y="144.428666" style="stroke: #000000; stroke-width: 1.25"/>
      </g>
     </g>
     <g id="text_4">
      <text style="font: 11px 'Arial'; text-anchor: middle" x="183.039561" y="159.55226" transform="rotate(-0 183.039561 159.55226)">60</text>
     </g>
    </g>
    <g id="xtick_5">
     <g id="line2d_9">
      <g>
       <use xlink:href="#mec718ec90c" x="229.431887" y="144.428666" style="stroke: #000000; stroke-width: 1.25"/>
      </g>
     </g>
     <g id="text_5">
      <text style="font: 11px 'Arial'; text-anchor: middle" x="229.431887" y="159.55226" transform="rotate(-0 229.431887 159.55226)">80</text>
     </g>
    </g>
    <g id="xtick_6">
     <g id="line2d_10">
      <g>
       <use xlink:href="#mec718ec90c" x="275.824213" y="144.428666" style="stroke: #000000; stroke-width: 1.25"/>
      </g>
     </g>
     <g id="text_6">
      <text style="font: 11px 'Arial'; text-anchor: middle" x="275.824213" y="159.55226" transform="rotate(-0 275.824213 159.55226)">100</text>
     </g>
    </g>
    <g id="text_7">
     <text style="font: 12px 'Arial'; text-anchor: middle" x="159.843398" y="174.474135" transform="rotate(-0 159.843398 174.474135)">Time (min)</text>
    </g>
   </g>
   <g id="matplotlib.axis_2">
    <g id="ytick_1">
     <g id="line2d_11">
      <defs>
       <path id="mfbfa5d936f" d="M 0 0 
L -3.75 0 
" style="stroke: #000000; stroke-width: 1.25"/>
      </defs>
      <g>
       <use xlink:href="#mfbfa5d936f" x="43.862584" y="144.428666" style="stroke: #000000; stroke-width: 1.25"/>
      </g>
     </g>
     <g id="text_8">
      <text style="font: 11px 'Arial'; text-anchor: end" x="36.612584" y="148.365463" transform="rotate(-0 36.612584 148.365463)">400</text>
     </g>
    </g>
    <g id="ytick_2">
     <g id="line2d_12">
      <g>
       <use xlink:href="#mfbfa5d936f" x="43.862584" y="119.090106" style="stroke: #000000; stroke-width: 1.25"/>
      </g>
     </g>
     <g id="text_9">
      <text style="font: 11px 'Arial'; text-anchor: end" x="36.612584" y="123.026903" transform="rotate(-0 36.612584 123.026903)">500</text>
     </g>
    </g>
    <g id="ytick_3">
     <g id="line2d_13">
      <g>
       <use xlink:href="#mfbfa5d936f" x="43.862584" y="93.751546" style="stroke: #000000; stroke-width: 1.25"/>
      </g>
     </g>
     <g id="text_10">
      <text style="font: 11px 'Arial'; text-anchor: end" x="36.612584" y="97.688343" transform="rotate(-0 36.612584 97.688343)">600</text>
     </g>
    </g>
    <g id="ytick_4">
     <g id="line2d_14">
      <g>
       <use xlink:href="#mfbfa5d936f" x="43.862584" y="68.412986" style="stroke: #000000; stroke-width: 1.25"/>
      </g>
     </g>
     <g id="text_11">
      <text style="font: 11px 'Arial'; text-anchor: end" x="36.612584" y="72.349782" transform="rotate(-0 36.612584 72.349782)">700</text>
     </g>
    </g>
    <g id="ytick_5">
     <g id="line2d_15">
      <g>
       <use xlink:href="#mfbfa5d936f" x="43.862584" y="43.074425" style="stroke: #000000; stroke-width: 1.25"/>
      </g>
     </g>
     <g id="text_12">
      <text style="font: 11px 'Arial'; text-anchor: end" x="36.612584" y="47.011222" transform="rotate(-0 36.612584 47.011222)">800</text>
     </g>
    </g>
    <g id="ytick_6">
     <g id="line2d_16">
      <g>
       <use xlink:href="#mfbfa5d936f" x="43.862584" y="17.735865" style="stroke: #000000; stroke-width: 1.25"/>
      </g>
     </g>
     <g id="text_13">
      <text style="font: 11px 'Arial'; text-anchor: end" x="36.612584" y="21.672662" transform="rotate(-0 36.612584 21.672662)">900</text>
     </g>
    </g>
    <g id="text_14">
     <text style="font: 12px 'Arial'; text-anchor: middle" x="11.735865" y="81.082266" transform="rotate(-90 11.735865 81.082266)">Temperature (C)</text>
    </g>
   </g>
   <g id="text_15">
    <text style="font: 700 12px 'Arial'; text-anchor: middle" x="159.843398" y="11.735865" transform="rotate(-0 159.843398 11.735865)">Surface temperature</text>
   </g>
   <g id="legend_1">
    <g id="patch_7">
     <path d="M 186.358588 51.265553 
L 271.824213 51.265553 
Q 273.824213 51.265553 273.824213 49.265553 
L 273.824213 21.735865 
Q 273.824213 19.735865 271.824213 19.735865 
L 186.358588 19.735865 
Q 184.358588 19.735865 184.358588 21.735865 
L 184.358588 49.265553 
Q 184.358588 51.265553 186.358588 51.265553 
z
" style="fill: #ffffff; opacity: 0.8; stroke: #cccccc; stroke-linejoin: miter"/>
    </g>
    <g id="line2d_17">
     <path d="M 188.358588 27.515553 
L 198.358588 27.515553 
L 208.358588 27.515553 
" style="fill: none; stroke: #1f77b4; stroke-width: 1.5; stroke-linecap: square"/>
    </g>
    <g id="text_16">
     <text style="font: 10px 'Arial'; text-anchor: start" x="210.358588" y="31.015553" transform="rotate(-0 210.358588 31.015553)">Polynomial fit</text>
    </g>
    <g id="LineCollection_2">
     <path d="M 198.358588 46.778053 
L 198.358588 36.778053 
" style="fill: none; stroke: #1f77b4; stroke-width: 1.25"/>
    </g>
    <g id="line2d_18">
     <g>
      <use xlink:href="#mcb1997ab7c" x="198.358588" y="46.778053" style="fill: #1f77b4; stroke: #1f77b4; stroke-width: 1.25"/>
     </g>
    </g>
    <g id="line2d_19">
     <g>
      <use xlink:href="#mcb1997ab7c" x="198.358588" y="36.778053" style="fill: #1f77b4; stroke: #1f77b4; stroke-width: 1.25"/>
     </g>
    </g>
    <g id="line2d_20"/>
    <g id="line2d_21">
     <g>
      <use xlink:href="#m75d845da8c" x="198.358588" y="41.778053" style="fill-opacity: 0; stroke: #1f77b4; stroke-width: 1.25"/>
     </g>
    </g>
    <g id="text_17">
     <text style="font: 10px 'Arial'; text-anchor: start" x="210.358588" y="45.278053" transform="rotate(-0 210.358588 45.278053)">Data</text>
    </g>
   </g>
  </g>
 </g>
 <defs>
  <clipPath id="pfe40515ace">
   <rect x="43.862584" y="17.735865" width="231.961629" height="126.692801"/>
  </clipPath>
 </defs>
</svg>
