<?xml version="1.0" encoding="utf-8" standalone="no"?>
<!DOCTYPE svg PUBLIC "-//W3C//DTD SVG 1.1//EN"
  "http://www.w3.org/Graphics/SVG/1.1/DTD/svg11.dtd">
<svg xmlns:xlink="http://www.w3.org/1999/xlink" width="324pt" height="342pt" viewBox="0 0 324 342" xmlns="http://www.w3.org/2000/svg" version="1.1">
 <metadata>
  <rdf:RDF xmlns:dc="http://purl.org/dc/elements/1.1/" xmlns:cc="http://creativecommons.org/ns#" xmlns:rdf="http://www.w3.org/1999/02/22-rdf-syntax-ns#">
   <cc:Work>
    <dc:type rdf:resource="http://purl.org/dc/dcmitype/StillImage"/>
    <dc:date>2025-01-26T11:23:26.021040</dc:date>
    <dc:format>image/svg+xml</dc:format>
    <dc:creator>
     <cc:Agent>
      <dc:title>Matplotlib v3.9.2, https://matplotlib.org/</dc:title>
     </cc:Agent>
    </dc:creator>
   </cc:Work>
  </rdf:RDF>
 </metadata>
 <defs>
  <style type="text/css">*{stroke-linejoin: round; stroke-linecap: butt}</style>
 </defs>
 <g id="figure_1">
  <g id="patch_1">
   <path d="M 0 342 
L 324 342 
L 324 0 
L 0 0 
z
" style="fill: #ffffff"/>
  </g>
  <g id="axes_1">
   <g id="patch_2">
    <path d="M 68.53743 148.65269 
L 313.35476 148.65269 
L 313.35476 17.589615 
L 68.53743 17.589615 
z
" style="fill: #ffffff"/>
   </g>
   <g id="line2d_1">
    <path d="M 68.53743 148.65269 
L 77.350854 148.65269 
L 78.330123 147.787962 
L 79.309392 147.510099 
L 80.288662 147.026234 
L 81.267931 145.555478 
L 82.2472 140.616228 
L 83.22647 125.788896 
L 84.205739 93.743654 
L 85.185008 54.73268 
L 86.164278 40.473051 
L 87.143547 68.889309 
L 88.122816 110.199837 
L 89.102086 136.409961 
L 90.081355 145.567455 
L 91.060624 147.356795 
L 92.039893 146.990304 
L 94.977701 142.649896 
L 95.956971 143.404437 
L 97.915509 147.131631 
L 98.894779 148.082592 
L 99.874048 148.269431 
L 100.853317 148.314943 
L 103.791125 148.123313 
L 113.583819 148.164034 
L 115.542357 148.003545 
L 117.500896 147.478959 
L 118.480165 147.129235 
L 119.459434 147.136421 
L 121.417973 147.476564 
L 122.397242 147.886172 
L 124.355781 148.192779 
L 127.293589 148.106546 
L 129.252128 148.094569 
L 130.231397 148.106546 
L 131.210666 147.981986 
L 133.169205 148.053848 
L 134.148474 147.984382 
L 135.127744 148.049057 
L 138.065552 147.941265 
L 139.044821 148.013126 
L 141.00336 147.984382 
L 145.899706 147.958033 
L 147.858245 147.850241 
L 160.588746 147.910125 
L 162.547285 147.87659 
L 167.443631 147.888567 
L 168.422901 147.74724 
L 170.381439 147.9748 
L 171.360708 147.816706 
L 174.298516 147.900544 
L 175.277786 147.941265 
L 177.236324 147.831078 
L 178.215594 147.981986 
L 182.132671 147.890962 
L 186.049748 147.936474 
L 187.029018 147.869404 
L 188.008287 147.986777 
L 188.987556 147.898149 
L 191.925364 147.991568 
L 203.676596 148.022708 
L 206.614404 148.065824 
L 216.407097 148.001149 
L 221.303444 148.125709 
L 223.261982 148.238291 
L 224.241252 148.113732 
L 225.220521 148.223919 
L 231.096137 148.214337 
L 232.075406 148.259849 
L 234.033945 148.204756 
L 235.992484 148.204756 
L 238.930292 148.183197 
L 242.847369 148.214337 
L 244.805908 148.231105 
L 254.598601 148.293384 
L 255.57787 148.372432 
L 257.536409 148.276617 
L 260.474217 148.334106 
L 261.453486 148.283803 
L 262.432755 148.389199 
L 264.391294 148.348478 
L 267.329102 148.36285 
L 273.204718 148.286198 
L 275.163256 148.391595 
L 282.018142 148.343687 
L 283.97668 148.398781 
L 284.95595 148.338896 
L 287.893758 148.422734 
L 289.852296 148.382013 
L 294.748643 148.336501 
L 296.707182 148.379618 
L 313.35476 148.441897 
L 313.35476 148.441897 
" clip-path="url(#pb998ee4826)" style="fill: none; stroke: #1f77b4; stroke-width: 1.5; stroke-linecap: square"/>
   </g>
   <g id="line2d_2">
    <defs>
     <path id="m8d6285f766" d="M 0 5 
L 0 -5 
" style="stroke: #d62728; stroke-width: 1.5"/>
    </defs>
    <g clip-path="url(#pb998ee4826)">
     <use xlink:href="#m8d6285f766" x="86.164278" y="40.473051" style="fill: #d62728; stroke: #d62728; stroke-width: 1.5"/>
    </g>
   </g>
   <g id="line2d_3">
    <g clip-path="url(#pb998ee4826)">
     <use xlink:href="#m8d6285f766" x="94.977701" y="142.649896" style="fill: #d62728; stroke: #d62728; stroke-width: 1.5"/>
    </g>
   </g>
   <g id="line2d_4">
    <g clip-path="url(#pb998ee4826)">
     <use xlink:href="#m8d6285f766" x="119.851142" y="147.136421" style="fill: #d62728; stroke: #d62728; stroke-width: 1.5"/>
    </g>
   </g>
   <g id="patch_3">
    <path d="M 68.53743 148.65269 
L 68.53743 17.589615 
" style="fill: none; stroke: #000000; stroke-linejoin: miter; stroke-linecap: square"/>
   </g>
   <g id="patch_4">
    <path d="M 313.35476 148.65269 
L 313.35476 17.589615 
" style="fill: none; stroke: #000000; stroke-linejoin: miter; stroke-linecap: square"/>
   </g>
   <g id="patch_5">
    <path d="M 68.53743 148.65269 
L 313.35476 148.65269 
" style="fill: none; stroke: #000000; stroke-linejoin: miter; stroke-linecap: square"/>
   </g>
   <g id="patch_6">
    <path d="M 68.53743 17.589615 
L 313.35476 17.589615 
" style="fill: none; stroke: #000000; stroke-linejoin: miter; stroke-linecap: square"/>
   </g>
   <g id="matplotlib.axis_1">
    <g id="xtick_1">
     <g id="line2d_5">
      <defs>
       <path id="med719e99a8" d="M 0 0 
L 0 3.75 
" style="stroke: #000000; stroke-width: 1.25"/>
      </defs>
      <g>
       <use xlink:href="#med719e99a8" x="68.53743" y="148.65269" style="stroke: #000000; stroke-width: 1.25"/>
      </g>
     </g>
    </g>
    <g id="xtick_2">
     <g id="line2d_6">
      <g>
       <use xlink:href="#med719e99a8" x="117.500896" y="148.65269" style="stroke: #000000; stroke-width: 1.25"/>
      </g>
     </g>
    </g>
    <g id="xtick_3">
     <g id="line2d_7">
      <g>
       <use xlink:href="#med719e99a8" x="166.464362" y="148.65269" style="stroke: #000000; stroke-width: 1.25"/>
      </g>
     </g>
    </g>
    <g id="xtick_4">
     <g id="line2d_8">
      <g>
       <use xlink:href="#med719e99a8" x="215.427828" y="148.65269" style="stroke: #000000; stroke-width: 1.25"/>
      </g>
     </g>
    </g>
    <g id="xtick_5">
     <g id="line2d_9">
      <g>
       <use xlink:href="#med719e99a8" x="264.391294" y="148.65269" style="stroke: #000000; stroke-width: 1.25"/>
      </g>
     </g>
    </g>
    <g id="xtick_6">
     <g id="line2d_10">
      <g>
       <use xlink:href="#med719e99a8" x="313.35476" y="148.65269" style="stroke: #000000; stroke-width: 1.25"/>
      </g>
     </g>
    </g>
    <g id="xtick_7">
     <g id="line2d_11">
      <defs>
       <path id="m5a76206848" d="M 0 0 
L 0 2.5 
" style="stroke: #000000; stroke-width: 0.75"/>
      </defs>
      <g>
       <use xlink:href="#m5a76206848" x="78.330123" y="148.65269" style="stroke: #000000; stroke-width: 0.75"/>
      </g>
     </g>
    </g>
    <g id="xtick_8">
     <g id="line2d_12">
      <g>
       <use xlink:href="#m5a76206848" x="88.122816" y="148.65269" style="stroke: #000000; stroke-width: 0.75"/>
      </g>
     </g>
    </g>
    <g id="xtick_9">
     <g id="line2d_13">
      <g>
       <use xlink:href="#m5a76206848" x="97.915509" y="148.65269" style="stroke: #000000; stroke-width: 0.75"/>
      </g>
     </g>
    </g>
    <g id="xtick_10">
     <g id="line2d_14">
      <g>
       <use xlink:href="#m5a76206848" x="107.708203" y="148.65269" style="stroke: #000000; stroke-width: 0.75"/>
      </g>
     </g>
    </g>
    <g id="xtick_11">
     <g id="line2d_15">
      <g>
       <use xlink:href="#m5a76206848" x="127.293589" y="148.65269" style="stroke: #000000; stroke-width: 0.75"/>
      </g>
     </g>
    </g>
    <g id="xtick_12">
     <g id="line2d_16">
      <g>
       <use xlink:href="#m5a76206848" x="137.086282" y="148.65269" style="stroke: #000000; stroke-width: 0.75"/>
      </g>
     </g>
    </g>
    <g id="xtick_13">
     <g id="line2d_17">
      <g>
       <use xlink:href="#m5a76206848" x="146.878975" y="148.65269" style="stroke: #000000; stroke-width: 0.75"/>
      </g>
     </g>
    </g>
    <g id="xtick_14">
     <g id="line2d_18">
      <g>
       <use xlink:href="#m5a76206848" x="156.671669" y="148.65269" style="stroke: #000000; stroke-width: 0.75"/>
      </g>
     </g>
    </g>
    <g id="xtick_15">
     <g id="line2d_19">
      <g>
       <use xlink:href="#m5a76206848" x="176.257055" y="148.65269" style="stroke: #000000; stroke-width: 0.75"/>
      </g>
     </g>
    </g>
    <g id="xtick_16">
     <g id="line2d_20">
      <g>
       <use xlink:href="#m5a76206848" x="186.049748" y="148.65269" style="stroke: #000000; stroke-width: 0.75"/>
      </g>
     </g>
    </g>
    <g id="xtick_17">
     <g id="line2d_21">
      <g>
       <use xlink:href="#m5a76206848" x="195.842442" y="148.65269" style="stroke: #000000; stroke-width: 0.75"/>
      </g>
     </g>
    </g>
    <g id="xtick_18">
     <g id="line2d_22">
      <g>
       <use xlink:href="#m5a76206848" x="205.635135" y="148.65269" style="stroke: #000000; stroke-width: 0.75"/>
      </g>
     </g>
    </g>
    <g id="xtick_19">
     <g id="line2d_23">
      <g>
       <use xlink:href="#m5a76206848" x="225.220521" y="148.65269" style="stroke: #000000; stroke-width: 0.75"/>
      </g>
     </g>
    </g>
    <g id="xtick_20">
     <g id="line2d_24">
      <g>
       <use xlink:href="#m5a76206848" x="235.013214" y="148.65269" style="stroke: #000000; stroke-width: 0.75"/>
      </g>
     </g>
    </g>
    <g id="xtick_21">
     <g id="line2d_25">
      <g>
       <use xlink:href="#m5a76206848" x="244.805908" y="148.65269" style="stroke: #000000; stroke-width: 0.75"/>
      </g>
     </g>
    </g>
    <g id="xtick_22">
     <g id="line2d_26">
      <g>
       <use xlink:href="#m5a76206848" x="254.598601" y="148.65269" style="stroke: #000000; stroke-width: 0.75"/>
      </g>
     </g>
    </g>
    <g id="xtick_23">
     <g id="line2d_27">
      <g>
       <use xlink:href="#m5a76206848" x="274.183987" y="148.65269" style="stroke: #000000; stroke-width: 0.75"/>
      </g>
     </g>
    </g>
    <g id="xtick_24">
     <g id="line2d_28">
      <g>
       <use xlink:href="#m5a76206848" x="283.97668" y="148.65269" style="stroke: #000000; stroke-width: 0.75"/>
      </g>
     </g>
    </g>
    <g id="xtick_25">
     <g id="line2d_29">
      <g>
       <use xlink:href="#m5a76206848" x="293.769374" y="148.65269" style="stroke: #000000; stroke-width: 0.75"/>
      </g>
     </g>
    </g>
    <g id="xtick_26">
     <g id="line2d_30">
      <g>
       <use xlink:href="#m5a76206848" x="303.562067" y="148.65269" style="stroke: #000000; stroke-width: 0.75"/>
      </g>
     </g>
    </g>
   </g>
   <g id="matplotlib.axis_2">
    <g id="ytick_1">
     <g id="line2d_31">
      <defs>
       <path id="m742f5f54e1" d="M 0 0 
L -3.75 0 
" style="stroke: #000000; stroke-width: 1.25"/>
      </defs>
      <g>
       <use xlink:href="#m742f5f54e1" x="68.53743" y="148.65269" style="stroke: #000000; stroke-width: 1.25"/>
      </g>
     </g>
     <g id="text_1">
      <text style="font: 11px 'Arial'; text-anchor: end" x="61.28743" y="152.589487" transform="rotate(-0 61.28743 152.589487)">0.0</text>
     </g>
    </g>
    <g id="ytick_2">
     <g id="line2d_32">
      <g>
       <use xlink:href="#m742f5f54e1" x="68.53743" y="115.886921" style="stroke: #000000; stroke-width: 1.25"/>
      </g>
     </g>
     <g id="text_2">
      <text style="font: 11px 'Arial'; text-anchor: end" x="61.28743" y="119.823718" transform="rotate(-0 61.28743 119.823718)">0.5</text>
     </g>
    </g>
    <g id="ytick_3">
     <g id="line2d_33">
      <g>
       <use xlink:href="#m742f5f54e1" x="68.53743" y="83.121152" style="stroke: #000000; stroke-width: 1.25"/>
      </g>
     </g>
     <g id="text_3">
      <text style="font: 11px 'Arial'; text-anchor: end" x="61.28743" y="87.057949" transform="rotate(-0 61.28743 87.057949)">1.0</text>
     </g>
    </g>
    <g id="ytick_4">
     <g id="line2d_34">
      <g>
       <use xlink:href="#m742f5f54e1" x="68.53743" y="50.355384" style="stroke: #000000; stroke-width: 1.25"/>
      </g>
     </g>
     <g id="text_4">
      <text style="font: 11px 'Arial'; text-anchor: end" x="61.28743" y="54.292181" transform="rotate(-0 61.28743 54.292181)">1.5</text>
     </g>
    </g>
    <g id="ytick_5">
     <g id="line2d_35">
      <g>
       <use xlink:href="#m742f5f54e1" x="68.53743" y="17.589615" style="stroke: #000000; stroke-width: 1.25"/>
      </g>
     </g>
     <g id="text_5">
      <text style="font: 11px 'Arial'; text-anchor: end" x="61.28743" y="21.526412" transform="rotate(-0 61.28743 21.526412)">2.0</text>
     </g>
    </g>
   </g>
   <g id="text_6">
    <!-- $\mathregular{B_{K_a}}$ -->
    <g transform="translate(77.749278 19.753051)">
     <text>
      <tspan style="font: 11px 'Arial'" x="0" y="-0.125">B</tspan>
      <tspan style="font: 7.7px 'Arial'" x="7.528572" y="3.1605624999999993">K</tspan>
      <tspan style="font: 5.39px 'Arial'" x="12.798572" y="5.46045625">a</tspan>
     </text>
    </g>
   </g>
   <g id="text_7">
    <!-- $\mathregular{C_{K_a}}$ -->
    <g transform="translate(86.287701 121.929896)">
     <text>
      <tspan style="font: 11px 'Arial'" x="0" y="-0.984375">C</tspan>
      <tspan style="font: 7.7px 'Arial'" x="8.135505" y="2.3011874999999993">K</tspan>
      <tspan style="font: 5.39px 'Arial'" x="13.405506" y="4.60108125">a</tspan>
     </text>
    </g>
   </g>
   <g id="text_8">
    <!-- $\mathregular{O_{K_a}}$ -->
    <g transform="translate(110.831142 126.416421)">
     <text>
      <tspan style="font: 11px 'Arial'" x="0" y="-0.984375">O</tspan>
      <tspan style="font: 7.7px 'Arial'" x="8.74781" y="2.3011874999999993">K</tspan>
      <tspan style="font: 5.39px 'Arial'" x="14.01781" y="4.60108125">a</tspan>
     </text>
    </g>
   </g>
   <g id="text_9">
    <text style="font: 700 14px 'Arial'; text-anchor: end" x="39.15935" y="21.228024" transform="rotate(-0 39.15935 21.228024)">(a)</text>
   </g>
   <g id="text_10">
    <text style="font: 700 12px 'Arial'; text-anchor: middle" x="190.946095" y="11.589615" transform="rotate(-0 190.946095 11.589615)">Boron rod</text>
   </g>
   <g id="legend_1">
    <g id="patch_7">
     <path d="M 259.45476 36.734927 
L 309.35476 36.734927 
Q 311.35476 36.734927 311.35476 34.734927 
L 311.35476 21.589615 
Q 311.35476 19.589615 309.35476 19.589615 
L 259.45476 19.589615 
Q 257.45476 19.589615 257.45476 21.589615 
L 257.45476 34.734927 
Q 257.45476 36.734927 259.45476 36.734927 
z
" style="fill: #ffffff; opacity: 0.8; stroke: #cccccc; stroke-linejoin: miter"/>
    </g>
    <g id="line2d_36">
     <path d="M 261.45476 27.247427 
L 271.45476 27.247427 
L 281.45476 27.247427 
" style="fill: none; stroke: #1f77b4; stroke-width: 1.5; stroke-linecap: square"/>
    </g>
    <g id="text_11">
     <text style="font: 10px 'Arial'; text-anchor: start" x="283.45476" y="30.747427" transform="rotate(-0 283.45476 30.747427)">B rod</text>
    </g>
   </g>
  </g>
  <g id="axes_2">
   <g id="patch_8">
    <path d="M 68.53743 306.428666 
L 313.35476 306.428666 
L 313.35476 175.365592 
L 68.53743 175.365592 
z
" style="fill: #ffffff"/>
   </g>
   <g id="line2d_37">
    <path d="M 68.53743 306.428666 
L 77.350854 306.428666 
L 78.330123 305.445335 
L 80.288662 304.753195 
L 81.267931 303.393554 
L 82.2472 299.776059 
L 83.22647 289.942745 
L 85.185008 248.660743 
L 86.164278 243.461854 
L 87.143547 260.960226 
L 88.122816 284.143553 
L 89.102086 297.979632 
L 90.081355 302.826851 
L 91.060624 303.346516 
L 92.039893 302.345265 
L 93.019163 300.241966 
L 93.998432 297.372609 
L 94.977701 295.909932 
L 95.956971 297.291972 
L 97.915509 302.831331 
L 98.894779 304.027456 
L 99.874048 303.660107 
L 100.853317 301.854719 
L 101.832587 297.67948 
L 102.811856 287.669211 
L 103.791125 267.39108 
L 104.770395 238.408561 
L 105.749664 213.502724 
L 106.728933 209.685875 
L 107.708203 230.638227 
L 108.687472 263.094884 
L 109.666741 287.192105 
L 110.646011 299.258634 
L 111.62528 302.580458 
L 112.604549 303.165081 
L 113.583819 302.287026 
L 114.563088 299.366151 
L 115.542357 293.336246 
L 116.521627 280.671654 
L 118.480165 243.573851 
L 119.459434 236.273903 
L 120.438704 244.093516 
L 122.397242 282.701035 
L 123.376512 296.035368 
L 124.355781 302.080952 
L 125.33505 304.085694 
L 126.31432 304.549361 
L 128.272858 304.836072 
L 130.231397 304.759915 
L 131.210666 304.93015 
L 132.189936 304.831593 
L 133.169205 304.57176 
L 134.148474 304.439604 
L 135.127744 304.058815 
L 138.065552 303.848261 
L 140.02409 304.22905 
L 141.00336 304.484403 
L 141.982629 304.320887 
L 143.941168 304.473203 
L 144.920437 304.401525 
L 148.837514 304.542641 
L 153.733861 304.309688 
L 155.692399 304.161852 
L 156.671669 304.049855 
L 158.630207 304.157372 
L 159.609477 304.105854 
L 160.588746 304.372406 
L 164.505823 304.419445 
L 167.443631 304.285048 
L 169.40217 304.132733 
L 172.339978 304.311928 
L 173.319247 304.164092 
L 175.277786 304.394805 
L 176.257055 304.477683 
L 178.215594 304.361206 
L 179.194863 304.482163 
L 181.153402 304.513522 
L 183.11194 304.58296 
L 185.070479 304.491123 
L 187.029018 304.643438 
L 188.008287 304.475443 
L 188.987556 304.603119 
L 189.966826 304.437364 
L 191.925364 304.638958 
L 196.821711 304.656878 
L 198.780249 304.739755 
L 208.572943 304.650158 
L 209.552212 304.836072 
L 210.531481 304.683757 
L 216.407097 304.795754 
L 220.324175 304.943589 
L 225.220521 305.004068 
L 229.137598 304.983908 
L 230.116868 305.147423 
L 233.054676 304.874151 
L 234.033945 305.001828 
L 235.013214 304.818153 
L 236.971753 304.887591 
L 237.951022 304.786794 
L 241.8681 304.959269 
L 243.826638 305.028707 
L 244.805908 305.024227 
L 246.764446 305.243741 
L 247.743716 305.174303 
L 248.722985 305.25494 
L 249.702254 305.194462 
L 252.640062 305.331098 
L 255.57787 305.293019 
L 259.494947 305.360217 
L 263.412025 305.382617 
L 266.349833 305.420696 
L 268.308371 305.378137 
L 270.26691 305.445335 
L 272.225449 305.456534 
L 273.204718 305.541652 
L 274.183987 305.366937 
L 276.142526 305.467734 
L 277.121795 305.487894 
L 278.101064 305.631249 
L 279.080334 305.514773 
L 283.97668 305.570771 
L 284.95595 305.452055 
L 285.935219 305.564051 
L 286.914488 305.503573 
L 288.873027 305.586451 
L 289.852296 305.490133 
L 291.810835 305.566291 
L 292.790104 305.461014 
L 294.748643 305.552852 
L 295.727912 305.474454 
L 299.64499 305.662608 
L 301.603528 305.60885 
L 313.35476 305.651409 
L 313.35476 305.651409 
" clip-path="url(#pceca39f09b)" style="fill: none; stroke: #ff7f0e; stroke-width: 1.5; stroke-linecap: square"/>
   </g>
   <g id="line2d_38">
    <g clip-path="url(#pceca39f09b)">
     <use xlink:href="#m8d6285f766" x="86.164278" y="243.461854" style="fill: #d62728; stroke: #d62728; stroke-width: 1.5"/>
    </g>
   </g>
   <g id="line2d_39">
    <g clip-path="url(#pceca39f09b)">
     <use xlink:href="#m8d6285f766" x="94.977701" y="295.909932" style="fill: #d62728; stroke: #d62728; stroke-width: 1.5"/>
    </g>
   </g>
   <g id="line2d_40">
    <g clip-path="url(#pceca39f09b)">
     <use xlink:href="#m8d6285f766" x="106.728933" y="209.685875" style="fill: #d62728; stroke: #d62728; stroke-width: 1.5"/>
    </g>
   </g>
   <g id="line2d_41">
    <g clip-path="url(#pceca39f09b)">
     <use xlink:href="#m8d6285f766" x="119.459434" y="236.273903" style="fill: #d62728; stroke: #d62728; stroke-width: 1.5"/>
    </g>
   </g>
   <g id="patch_9">
    <path d="M 68.53743 306.428666 
L 68.53743 175.365592 
" style="fill: none; stroke: #000000; stroke-linejoin: miter; stroke-linecap: square"/>
   </g>
   <g id="patch_10">
    <path d="M 313.35476 306.428666 
L 313.35476 175.365592 
" style="fill: none; stroke: #000000; stroke-linejoin: miter; stroke-linecap: square"/>
   </g>
   <g id="patch_11">
    <path d="M 68.53743 306.428666 
L 313.35476 306.428666 
" style="fill: none; stroke: #000000; stroke-linejoin: miter; stroke-linecap: square"/>
   </g>
   <g id="patch_12">
    <path d="M 68.53743 175.365592 
L 313.35476 175.365592 
" style="fill: none; stroke: #000000; stroke-linejoin: miter; stroke-linecap: square"/>
   </g>
   <g id="matplotlib.axis_3">
    <g id="xtick_27">
     <g id="line2d_42">
      <g>
       <use xlink:href="#med719e99a8" x="68.53743" y="306.428666" style="stroke: #000000; stroke-width: 1.25"/>
      </g>
     </g>
     <g id="text_12">
      <text style="font: 11px 'Arial'; text-anchor: middle" x="68.53743" y="321.55226" transform="rotate(-0 68.53743 321.55226)">0.0</text>
     </g>
    </g>
    <g id="xtick_28">
     <g id="line2d_43">
      <g>
       <use xlink:href="#med719e99a8" x="117.500896" y="306.428666" style="stroke: #000000; stroke-width: 1.25"/>
      </g>
     </g>
     <g id="text_13">
      <text style="font: 11px 'Arial'; text-anchor: middle" x="117.500896" y="321.55226" transform="rotate(-0 117.500896 321.55226)">0.5</text>
     </g>
    </g>
    <g id="xtick_29">
     <g id="line2d_44">
      <g>
       <use xlink:href="#med719e99a8" x="166.464362" y="306.428666" style="stroke: #000000; stroke-width: 1.25"/>
      </g>
     </g>
     <g id="text_14">
      <text style="font: 11px 'Arial'; text-anchor: middle" x="166.464362" y="321.55226" transform="rotate(-0 166.464362 321.55226)">1.0</text>
     </g>
    </g>
    <g id="xtick_30">
     <g id="line2d_45">
      <g>
       <use xlink:href="#med719e99a8" x="215.427828" y="306.428666" style="stroke: #000000; stroke-width: 1.25"/>
      </g>
     </g>
     <g id="text_15">
      <text style="font: 11px 'Arial'; text-anchor: middle" x="215.427828" y="321.55226" transform="rotate(-0 215.427828 321.55226)">1.5</text>
     </g>
    </g>
    <g id="xtick_31">
     <g id="line2d_46">
      <g>
       <use xlink:href="#med719e99a8" x="264.391294" y="306.428666" style="stroke: #000000; stroke-width: 1.25"/>
      </g>
     </g>
     <g id="text_16">
      <text style="font: 11px 'Arial'; text-anchor: middle" x="264.391294" y="321.55226" transform="rotate(-0 264.391294 321.55226)">2.0</text>
     </g>
    </g>
    <g id="xtick_32">
     <g id="line2d_47">
      <g>
       <use xlink:href="#med719e99a8" x="313.35476" y="306.428666" style="stroke: #000000; stroke-width: 1.25"/>
      </g>
     </g>
     <g id="text_17">
      <text style="font: 11px 'Arial'; text-anchor: middle" x="313.35476" y="321.55226" transform="rotate(-0 313.35476 321.55226)">2.5</text>
     </g>
    </g>
    <g id="xtick_33">
     <g id="line2d_48">
      <g>
       <use xlink:href="#m5a76206848" x="78.330123" y="306.428666" style="stroke: #000000; stroke-width: 0.75"/>
      </g>
     </g>
    </g>
    <g id="xtick_34">
     <g id="line2d_49">
      <g>
       <use xlink:href="#m5a76206848" x="88.122816" y="306.428666" style="stroke: #000000; stroke-width: 0.75"/>
      </g>
     </g>
    </g>
    <g id="xtick_35">
     <g id="line2d_50">
      <g>
       <use xlink:href="#m5a76206848" x="97.915509" y="306.428666" style="stroke: #000000; stroke-width: 0.75"/>
      </g>
     </g>
    </g>
    <g id="xtick_36">
     <g id="line2d_51">
      <g>
       <use xlink:href="#m5a76206848" x="107.708203" y="306.428666" style="stroke: #000000; stroke-width: 0.75"/>
      </g>
     </g>
    </g>
    <g id="xtick_37">
     <g id="line2d_52">
      <g>
       <use xlink:href="#m5a76206848" x="127.293589" y="306.428666" style="stroke: #000000; stroke-width: 0.75"/>
      </g>
     </g>
    </g>
    <g id="xtick_38">
     <g id="line2d_53">
      <g>
       <use xlink:href="#m5a76206848" x="137.086282" y="306.428666" style="stroke: #000000; stroke-width: 0.75"/>
      </g>
     </g>
    </g>
    <g id="xtick_39">
     <g id="line2d_54">
      <g>
       <use xlink:href="#m5a76206848" x="146.878975" y="306.428666" style="stroke: #000000; stroke-width: 0.75"/>
      </g>
     </g>
    </g>
    <g id="xtick_40">
     <g id="line2d_55">
      <g>
       <use xlink:href="#m5a76206848" x="156.671669" y="306.428666" style="stroke: #000000; stroke-width: 0.75"/>
      </g>
     </g>
    </g>
    <g id="xtick_41">
     <g id="line2d_56">
      <g>
       <use xlink:href="#m5a76206848" x="176.257055" y="306.428666" style="stroke: #000000; stroke-width: 0.75"/>
      </g>
     </g>
    </g>
    <g id="xtick_42">
     <g id="line2d_57">
      <g>
       <use xlink:href="#m5a76206848" x="186.049748" y="306.428666" style="stroke: #000000; stroke-width: 0.75"/>
      </g>
     </g>
    </g>
    <g id="xtick_43">
     <g id="line2d_58">
      <g>
       <use xlink:href="#m5a76206848" x="195.842442" y="306.428666" style="stroke: #000000; stroke-width: 0.75"/>
      </g>
     </g>
    </g>
    <g id="xtick_44">
     <g id="line2d_59">
      <g>
       <use xlink:href="#m5a76206848" x="205.635135" y="306.428666" style="stroke: #000000; stroke-width: 0.75"/>
      </g>
     </g>
    </g>
    <g id="xtick_45">
     <g id="line2d_60">
      <g>
       <use xlink:href="#m5a76206848" x="225.220521" y="306.428666" style="stroke: #000000; stroke-width: 0.75"/>
      </g>
     </g>
    </g>
    <g id="xtick_46">
     <g id="line2d_61">
      <g>
       <use xlink:href="#m5a76206848" x="235.013214" y="306.428666" style="stroke: #000000; stroke-width: 0.75"/>
      </g>
     </g>
    </g>
    <g id="xtick_47">
     <g id="line2d_62">
      <g>
       <use xlink:href="#m5a76206848" x="244.805908" y="306.428666" style="stroke: #000000; stroke-width: 0.75"/>
      </g>
     </g>
    </g>
    <g id="xtick_48">
     <g id="line2d_63">
      <g>
       <use xlink:href="#m5a76206848" x="254.598601" y="306.428666" style="stroke: #000000; stroke-width: 0.75"/>
      </g>
     </g>
    </g>
    <g id="xtick_49">
     <g id="line2d_64">
      <g>
       <use xlink:href="#m5a76206848" x="274.183987" y="306.428666" style="stroke: #000000; stroke-width: 0.75"/>
      </g>
     </g>
    </g>
    <g id="xtick_50">
     <g id="line2d_65">
      <g>
       <use xlink:href="#m5a76206848" x="283.97668" y="306.428666" style="stroke: #000000; stroke-width: 0.75"/>
      </g>
     </g>
    </g>
    <g id="xtick_51">
     <g id="line2d_66">
      <g>
       <use xlink:href="#m5a76206848" x="293.769374" y="306.428666" style="stroke: #000000; stroke-width: 0.75"/>
      </g>
     </g>
    </g>
    <g id="xtick_52">
     <g id="line2d_67">
      <g>
       <use xlink:href="#m5a76206848" x="303.562067" y="306.428666" style="stroke: #000000; stroke-width: 0.75"/>
      </g>
     </g>
    </g>
    <g id="text_18">
     <text style="font: 12px 'Arial'; text-anchor: middle" x="190.946095" y="336.474135" transform="rotate(-0 190.946095 336.474135)">Energy (keV)</text>
    </g>
   </g>
   <g id="matplotlib.axis_4">
    <g id="ytick_6">
     <g id="line2d_68">
      <g>
       <use xlink:href="#m742f5f54e1" x="68.53743" y="306.428666" style="stroke: #000000; stroke-width: 1.25"/>
      </g>
     </g>
     <g id="text_19">
      <text style="font: 11px 'Arial'; text-anchor: end" x="61.28743" y="310.365463" transform="rotate(-0 61.28743 310.365463)">0.0</text>
     </g>
    </g>
    <g id="ytick_7">
     <g id="line2d_69">
      <g>
       <use xlink:href="#m742f5f54e1" x="68.53743" y="280.216051" style="stroke: #000000; stroke-width: 1.25"/>
      </g>
     </g>
     <g id="text_20">
      <text style="font: 11px 'Arial'; text-anchor: end" x="61.28743" y="284.152848" transform="rotate(-0 61.28743 284.152848)">0.2</text>
     </g>
    </g>
    <g id="ytick_8">
     <g id="line2d_70">
      <g>
       <use xlink:href="#m742f5f54e1" x="68.53743" y="254.003436" style="stroke: #000000; stroke-width: 1.25"/>
      </g>
     </g>
     <g id="text_21">
      <text style="font: 11px 'Arial'; text-anchor: end" x="61.28743" y="257.940233" transform="rotate(-0 61.28743 257.940233)">0.4</text>
     </g>
    </g>
    <g id="ytick_9">
     <g id="line2d_71">
      <g>
       <use xlink:href="#m742f5f54e1" x="68.53743" y="227.790821" style="stroke: #000000; stroke-width: 1.25"/>
      </g>
     </g>
     <g id="text_22">
      <text style="font: 11px 'Arial'; text-anchor: end" x="61.28743" y="231.727618" transform="rotate(-0 61.28743 231.727618)">0.6</text>
     </g>
    </g>
    <g id="ytick_10">
     <g id="line2d_72">
      <g>
       <use xlink:href="#m742f5f54e1" x="68.53743" y="201.578207" style="stroke: #000000; stroke-width: 1.25"/>
      </g>
     </g>
     <g id="text_23">
      <text style="font: 11px 'Arial'; text-anchor: end" x="61.28743" y="205.515003" transform="rotate(-0 61.28743 205.515003)">0.8</text>
     </g>
    </g>
    <g id="ytick_11">
     <g id="line2d_73">
      <g>
       <use xlink:href="#m742f5f54e1" x="68.53743" y="175.365592" style="stroke: #000000; stroke-width: 1.25"/>
      </g>
     </g>
     <g id="text_24">
      <text style="font: 11px 'Arial'; text-anchor: end" x="61.28743" y="179.302388" transform="rotate(-0 61.28743 179.302388)">1.0</text>
     </g>
    </g>
   </g>
   <g id="text_25">
    <!-- $\mathregular{B_{K_a}}$ -->
    <g transform="translate(77.749278 222.741854)">
     <text>
      <tspan style="font: 11px 'Arial'" x="0" y="-0.125">B</tspan>
      <tspan style="font: 7.7px 'Arial'" x="7.528572" y="3.1605624999999993">K</tspan>
      <tspan style="font: 5.39px 'Arial'" x="12.798572" y="5.46045625">a</tspan>
     </text>
    </g>
   </g>
   <g id="text_26">
    <!-- $\mathregular{C_{K_a}}$ -->
    <g transform="translate(86.287701 275.189932)">
     <text>
      <tspan style="font: 11px 'Arial'" x="0" y="-0.984375">C</tspan>
      <tspan style="font: 7.7px 'Arial'" x="8.135505" y="2.3011874999999993">K</tspan>
      <tspan style="font: 5.39px 'Arial'" x="13.405506" y="4.60108125">a</tspan>
     </text>
    </g>
   </g>
   <g id="text_27">
    <!-- $\mathregular{N_{K_a}}$ -->
    <g transform="translate(98.038933 188.965875)">
     <text>
      <tspan style="font: 11px 'Arial'" x="0" y="-0.125">N</tspan>
      <tspan style="font: 7.7px 'Arial'" x="8.135505" y="3.1605624999999993">K</tspan>
      <tspan style="font: 5.39px 'Arial'" x="13.405506" y="5.46045625">a</tspan>
     </text>
    </g>
   </g>
   <g id="text_28">
    <!-- $\mathregular{O_{K_a}}$ -->
    <g transform="translate(110.439434 215.553903)">
     <text>
      <tspan style="font: 11px 'Arial'" x="0" y="-0.984375">O</tspan>
      <tspan style="font: 7.7px 'Arial'" x="8.74781" y="2.3011874999999993">K</tspan>
      <tspan style="font: 5.39px 'Arial'" x="14.01781" y="4.60108125">a</tspan>
     </text>
    </g>
   </g>
   <g id="text_29">
    <text style="font: 700 14px 'Arial'; text-anchor: end" x="39.15935" y="179.004" transform="rotate(-0 39.15935 179.004)">(b)</text>
   </g>
   <g id="text_30">
    <!-- $c_{\mathrm{B}} = (48 \pm 5)~\%$\\  -->
    <g transform="translate(221.957939 217.097736) scale(0.12 -0.12)">
     <defs>
      <path id="NimbusRomNo9L-ReguItal-63" d="M 2240 682 
C 1888 306 1638 166 1325 166 
C 960 166 742 440 742 892 
C 742 1433 966 2000 1325 2375 
C 1510 2566 1766 2681 2016 2681 
C 2163 2681 2259 2630 2259 2554 
C 2259 2522 2246 2490 2221 2433 
C 2176 2350 2163 2305 2163 2248 
C 2163 2095 2259 2006 2413 2006 
C 2586 2006 2720 2133 2720 2299 
C 2720 2592 2432 2816 2048 2816 
C 1088 2816 192 1885 192 892 
C 192 287 538 -64 1133 -64 
C 1606 -64 1958 134 2342 618 
L 2240 682 
z
" transform="scale(0.015625)"/>
      <path id="NimbusRomNo9L-Regu-42" d="M 109 4224 
L 109 4102 
C 646 4070 723 4000 723 3528 
L 723 695 
C 723 223 640 140 109 121 
L 109 0 
L 2246 0 
C 2746 0 3200 134 3437 351 
C 3667 555 3795 842 3795 1148 
C 3795 1429 3680 1684 3482 1869 
C 3290 2041 3117 2118 2701 2220 
C 3034 2303 3168 2367 3322 2500 
C 3482 2641 3578 2877 3578 3138 
C 3578 3853 3008 4224 1901 4224 
L 109 4224 
z
M 1376 2080 
C 1997 2080 2291 2048 2522 1952 
C 2886 1799 3059 1544 3059 1142 
C 3059 798 2925 549 2669 402 
C 2464 287 2202 236 1779 236 
C 1466 236 1376 294 1376 498 
L 1376 2080 
z
M 1376 2335 
L 1376 3795 
C 1376 3929 1421 3987 1517 3987 
L 1798 3987 
C 2534 3987 2925 3680 2925 3113 
C 2925 2615 2586 2335 1984 2335 
L 1376 2335 
z
" transform="scale(0.015625)"/>
      <path id="CMR10-3d" d="M 4397 2111 
C 4493 2111 4614 2111 4614 2239 
C 4614 2368 4493 2368 4403 2368 
L 570 2368 
C 480 2368 358 2368 358 2239 
C 358 2111 480 2111 576 2111 
L 4397 2111 
z
M 4403 832 
C 4493 832 4614 832 4614 960 
C 4614 1088 4493 1088 4397 1088 
L 576 1088 
C 480 1088 358 1088 358 960 
C 358 832 480 832 570 832 
L 4403 832 
z
" transform="scale(0.015625)"/>
      <path id="CMR10-28" d="M 2118 -1536 
C 2118 -1517 2118 -1504 2010 -1396 
C 1210 -589 1005 620 1005 1600 
C 1005 2713 1248 3827 2035 4627 
C 2118 4704 2118 4716 2118 4736 
C 2118 4780 2093 4800 2054 4800 
C 1990 4800 1414 4365 1037 3552 
C 710 2848 634 2137 634 1600 
C 634 1100 704 326 1056 -397 
C 1440 -1184 1990 -1600 2054 -1600 
C 2093 -1600 2118 -1581 2118 -1536 
z
" transform="scale(0.015625)"/>
      <path id="NimbusRomNo9L-Regu-34" d="M 3021 1497 
L 2368 1497 
L 2368 4352 
L 2086 4352 
L 77 1497 
L 77 1088 
L 1875 1088 
L 1875 0 
L 2368 0 
L 2368 1088 
L 3021 1088 
L 3021 1497 
z
M 1869 1497 
L 333 1497 
L 1869 3697 
L 1869 1497 
z
" transform="scale(0.015625)"/>
      <path id="NimbusRomNo9L-Regu-38" d="M 1856 2400 
C 2490 2739 2714 3008 2714 3443 
C 2714 3968 2253 4352 1613 4352 
C 915 4352 397 3923 397 3341 
C 397 2924 518 2739 1190 2150 
C 499 1625 358 1427 358 992 
C 358 371 864 -64 1587 -64 
C 2355 -64 2848 358 2848 1017 
C 2848 1510 2630 1824 1856 2400 
z
M 1741 1740 
C 2208 1408 2362 1177 2362 819 
C 2362 403 2074 115 1658 115 
C 1171 115 845 486 845 1043 
C 845 1452 986 1721 1357 2022 
L 1741 1740 
z
M 1670 2515 
C 1101 2886 870 3180 870 3539 
C 870 3910 1158 4172 1562 4172 
C 1997 4172 2272 3891 2272 3449 
C 2272 3084 2093 2796 1728 2553 
C 1696 2534 1696 2534 1670 2515 
z
" transform="scale(0.015625)"/>
      <path id="CMSY10-6" d="M 2618 1984 
L 4397 1984 
C 4506 1984 4621 1984 4621 2112 
C 4621 2240 4506 2240 4397 2240 
L 2618 2240 
L 2618 4048 
C 2618 4153 2618 4288 2490 4288 
C 2362 4288 2362 4172 2362 4068 
L 2362 2240 
L 576 2240 
C 467 2240 352 2240 352 2112 
C 352 1984 467 1984 576 1984 
L 2362 1984 
L 2362 256 
L 576 256 
C 467 256 352 256 352 128 
C 352 0 467 0 576 0 
L 4397 0 
C 4506 0 4621 0 4621 128 
C 4621 256 4506 256 4397 256 
L 2618 256 
L 2618 1984 
z
" transform="scale(0.015625)"/>
      <path id="NimbusRomNo9L-Regu-35" d="M 1158 3718 
L 2413 3718 
C 2515 3718 2541 3731 2560 3775 
L 2803 4345 
L 2746 4390 
C 2650 4256 2586 4224 2451 4224 
L 1114 4224 
L 416 2717 
C 410 2705 410 2698 410 2686 
C 410 2654 435 2635 486 2635 
C 691 2635 947 2591 1210 2508 
C 1946 2274 2285 1882 2285 1255 
C 2285 647 1894 172 1395 172 
C 1267 172 1158 217 966 356 
C 762 502 614 565 480 565 
C 294 565 205 489 205 331 
C 205 89 506 -64 986 -64 
C 1523 -64 1984 108 2304 432 
C 2598 717 2733 1078 2733 1559 
C 2733 2015 2611 2306 2291 2622 
C 2010 2901 1645 3047 890 3180 
L 1158 3718 
z
" transform="scale(0.015625)"/>
      <path id="CMR10-29" d="M 1850 1600 
C 1850 2099 1779 2873 1427 3597 
C 1043 4384 493 4800 429 4800 
C 390 4800 365 4774 365 4736 
C 365 4716 365 4704 486 4589 
C 1114 3955 1478 2937 1478 1600 
C 1478 505 1242 -621 448 -1428 
C 365 -1504 365 -1517 365 -1536 
C 365 -1575 390 -1600 429 -1600 
C 493 -1600 1069 -1165 1446 -352 
C 1773 352 1850 1062 1850 1600 
z
" transform="scale(0.015625)"/>
      <path id="NimbusRomNo9L-Regu-25" d="M 4282 2380 
C 3558 2380 2874 1630 2874 827 
C 2874 326 3181 0 3642 0 
C 3930 0 4166 102 4390 326 
C 4730 673 4941 1193 4941 1694 
C 4941 2131 4698 2380 4282 2380 
z
M 4326 2176 
C 4570 2176 4774 1944 4774 1662 
C 4774 1296 4614 859 4371 558 
C 4166 301 3981 192 3750 192 
C 3520 192 3360 358 3360 602 
C 3360 943 3539 1469 3776 1803 
C 3949 2060 4128 2176 4326 2176 
z
M 4058 4352 
L 3808 4352 
C 3462 4017 3206 3904 2810 3904 
C 2554 3904 2406 3950 2253 4084 
C 2086 4191 2003 4224 1805 4224 
C 1075 4224 390 3487 390 2671 
C 390 2221 730 1856 1146 1856 
C 1421 1856 1709 1984 1920 2208 
C 2253 2549 2458 3056 2458 3525 
C 2458 3615 2445 3692 2413 3807 
C 2528 3763 2643 3743 2829 3743 
C 3110 3743 3277 3788 3533 3930 
L 1286 -64 
L 1594 -64 
L 4058 4352 
z
M 2240 3862 
C 2278 3733 2298 3636 2298 3546 
C 2298 2816 1773 2073 1254 2073 
C 1030 2073 877 2235 877 2467 
C 877 2738 1005 3177 1178 3500 
C 1363 3814 1606 4031 1805 4031 
C 1837 4031 1850 4025 1888 3993 
C 1978 3910 2054 3878 2240 3827 
L 2240 3862 
z
" transform="scale(0.015625)"/>
     </defs>
     <use xlink:href="#NimbusRomNo9L-ReguItal-63" transform="scale(0.996264)"/>
     <use xlink:href="#NimbusRomNo9L-Regu-42" transform="translate(44.233569 -15.050129) scale(0.737241)"/>
     <use xlink:href="#CMR10-3d" transform="translate(116.044235 0) scale(0.996264)"/>
     <use xlink:href="#CMR10-28" transform="translate(215.592088 0) scale(0.996264)"/>
     <use xlink:href="#NimbusRomNo9L-Regu-34" transform="translate(254.245934 0) scale(0.996264)"/>
     <use xlink:href="#NimbusRomNo9L-Regu-38" transform="translate(304.059134 0) scale(0.996264)"/>
     <use xlink:href="#CMSY10-6" transform="translate(367.709301 0) scale(0.996264)"/>
     <use xlink:href="#NimbusRomNo9L-Regu-35" transform="translate(458.954975 0) scale(0.996264)"/>
     <use xlink:href="#CMR10-29" transform="translate(508.768175 0) scale(0.996264)"/>
     <use xlink:href="#NimbusRomNo9L-Regu-25" transform="translate(572.328621 0) scale(0.996264)"/>
    </g>
    <!-- $c_{\mathrm{N}} = (42 \pm 5)~\%$\\  -->
    <g transform="translate(221.464748 230.84618) scale(0.12 -0.12)">
     <defs>
      <path id="NimbusRomNo9L-Regu-4e" d="M 3917 -64 
L 3917 3287 
C 3917 3669 3981 3905 4102 3988 
C 4192 4051 4282 4077 4525 4102 
L 4525 4224 
L 3021 4224 
L 3021 4102 
C 3264 4083 3354 4058 3450 4000 
C 3578 3911 3635 3682 3635 3287 
L 3635 1140 
L 1171 4224 
L 77 4224 
L 77 4102 
C 352 4102 442 4051 698 3752 
L 698 943 
C 698 281 608 160 77 121 
L 77 0 
L 1581 0 
L 1581 121 
C 1088 147 979 294 979 940 
L 979 3449 
L 3808 -64 
L 3917 -64 
z
" transform="scale(0.015625)"/>
      <path id="NimbusRomNo9L-Regu-32" d="M 3040 879 
L 2957 912 
C 2720 544 2637 486 2349 486 
L 819 486 
L 1894 1621 
C 2464 2221 2714 2711 2714 3214 
C 2714 3858 2195 4352 1530 4352 
C 1178 4352 845 4211 608 3955 
C 403 3736 307 3530 198 3072 
L 333 3039 
C 589 3671 819 3878 1261 3878 
C 1798 3878 2163 3510 2163 2969 
C 2163 2466 1869 1866 1331 1292 
L 192 76 
L 192 0 
L 2688 0 
L 3040 879 
z
" transform="scale(0.015625)"/>
     </defs>
     <use xlink:href="#NimbusRomNo9L-ReguItal-63" transform="scale(0.996264)"/>
     <use xlink:href="#NimbusRomNo9L-Regu-4e" transform="translate(44.233569 -15.050129) scale(0.737241)"/>
     <use xlink:href="#CMR10-3d" transform="translate(120.099432 0) scale(0.996264)"/>
     <use xlink:href="#CMR10-28" transform="translate(219.647285 0) scale(0.996264)"/>
     <use xlink:href="#NimbusRomNo9L-Regu-34" transform="translate(258.301131 0) scale(0.996264)"/>
     <use xlink:href="#NimbusRomNo9L-Regu-32" transform="translate(308.114331 0) scale(0.996264)"/>
     <use xlink:href="#CMSY10-6" transform="translate(371.764498 0) scale(0.996264)"/>
     <use xlink:href="#NimbusRomNo9L-Regu-35" transform="translate(463.010172 0) scale(0.996264)"/>
     <use xlink:href="#CMR10-29" transform="translate(512.823372 0) scale(0.996264)"/>
     <use xlink:href="#NimbusRomNo9L-Regu-25" transform="translate(576.383818 0) scale(0.996264)"/>
    </g>
    <!-- $c_{\mathrm{O}} = (10 \pm 9)~\%$\\  -->
    <g transform="translate(221.464748 244.594623) scale(0.12 -0.12)">
     <defs>
      <path id="NimbusRomNo9L-Regu-4f" d="M 2310 4352 
C 1088 4352 218 3430 218 2144 
C 218 1542 422 960 768 588 
C 1139 185 1709 -64 2272 -64 
C 3533 -64 4403 832 4403 2118 
C 4403 2752 4218 3296 3866 3680 
C 3462 4121 2925 4352 2310 4352 
z
M 2310 4121 
C 2605 4121 2899 4006 3130 3801 
C 3475 3488 3674 2886 3674 2124 
C 3674 1747 3590 1305 3462 972 
C 3405 812 3296 652 3149 505 
C 2925 281 2637 166 2298 166 
C 2003 166 1715 281 1491 480 
C 1158 774 947 1420 947 2131 
C 947 2784 1126 3405 1395 3705 
C 1645 3981 1958 4121 2310 4121 
z
" transform="scale(0.015625)"/>
      <path id="NimbusRomNo9L-Regu-31" d="M 1862 4352 
L 710 3776 
L 710 3686 
C 787 3718 858 3743 883 3756 
C 998 3801 1107 3826 1171 3826 
C 1306 3826 1363 3731 1363 3525 
L 1363 599 
C 1363 386 1312 238 1210 179 
C 1114 121 1024 102 755 96 
L 755 0 
L 2522 0 
L 2522 96 
C 2016 102 1914 167 1914 477 
L 1914 4339 
L 1862 4352 
z
" transform="scale(0.015625)"/>
      <path id="NimbusRomNo9L-Regu-30" d="M 1626 4352 
C 1274 4352 1005 4243 768 4019 
C 397 3661 154 2924 154 2176 
C 154 1478 365 729 666 371 
C 902 89 1229 -64 1600 -64 
C 1926 -64 2202 44 2432 268 
C 2803 620 3046 1363 3046 2137 
C 3046 3449 2464 4352 1626 4352 
z
M 1606 4185 
C 2144 4185 2432 3462 2432 2124 
C 2432 787 2150 102 1600 102 
C 1050 102 768 787 768 2118 
C 768 3475 1056 4185 1606 4185 
z
" transform="scale(0.015625)"/>
      <path id="NimbusRomNo9L-Regu-39" d="M 378 -122 
C 1094 -39 1446 83 1882 396 
C 2547 883 2938 1676 2938 2542 
C 2938 3601 2349 4352 1523 4352 
C 762 4352 192 3704 192 2837 
C 192 2055 653 1536 1344 1536 
C 1696 1536 1965 1638 2304 1901 
C 2042 857 1331 172 358 6 
L 378 -122 
z
M 2317 2292 
C 2317 2164 2291 2106 2221 2048 
C 2042 1894 1805 1811 1574 1811 
C 1088 1811 781 2292 781 3056 
C 781 3421 883 3806 1018 3973 
C 1126 4102 1286 4172 1472 4172 
C 2029 4172 2317 3620 2317 2542 
L 2317 2292 
z
" transform="scale(0.015625)"/>
     </defs>
     <use xlink:href="#NimbusRomNo9L-ReguItal-63" transform="scale(0.996264)"/>
     <use xlink:href="#NimbusRomNo9L-Regu-4f" transform="translate(44.233569 -15.050129) scale(0.737241)"/>
     <use xlink:href="#CMR10-3d" transform="translate(120.099432 0) scale(0.996264)"/>
     <use xlink:href="#CMR10-28" transform="translate(219.647285 0) scale(0.996264)"/>
     <use xlink:href="#NimbusRomNo9L-Regu-31" transform="translate(258.301131 0) scale(0.996264)"/>
     <use xlink:href="#NimbusRomNo9L-Regu-30" transform="translate(308.114331 0) scale(0.996264)"/>
     <use xlink:href="#CMSY10-6" transform="translate(371.764498 0) scale(0.996264)"/>
     <use xlink:href="#NimbusRomNo9L-Regu-39" transform="translate(463.010172 0) scale(0.996264)"/>
     <use xlink:href="#CMR10-29" transform="translate(512.823372 0) scale(0.996264)"/>
     <use xlink:href="#NimbusRomNo9L-Regu-25" transform="translate(576.383818 0) scale(0.996264)"/>
    </g>
    <!--  -->
    <g transform="translate(301.113893 257.309996) scale(0.12 -0.12)"/>
   </g>
   <g id="text_31">
    <text style="font: 700 12px 'Arial'; text-anchor: middle" x="190.946095" y="169.365592" transform="rotate(-0 190.946095 169.365592)">Boron pebble rod</text>
   </g>
   <g id="legend_2">
    <g id="patch_13">
     <path d="M 204.976635 194.628092 
L 309.35476 194.628092 
Q 311.35476 194.628092 311.35476 192.628092 
L 311.35476 179.365592 
Q 311.35476 177.365592 309.35476 177.365592 
L 204.976635 177.365592 
Q 202.976635 177.365592 202.976635 179.365592 
L 202.976635 192.628092 
Q 202.976635 194.628092 204.976635 194.628092 
z
" style="fill: #ffffff; opacity: 0.8; stroke: #cccccc; stroke-linejoin: miter"/>
    </g>
    <g id="line2d_74">
     <path d="M 206.976635 185.023404 
L 216.976635 185.023404 
L 226.976635 185.023404 
" style="fill: none; stroke: #ff7f0e; stroke-width: 1.5; stroke-linecap: square"/>
    </g>
    <g id="text_32">
     <text style="font: 10px 'Arial'; text-anchor: start" x="228.976635" y="188.523404" transform="rotate(-0 228.976635 188.523404)">poly-B pebble rod</text>
    </g>
   </g>
  </g>
  <g id="text_33">
   <text style="font: 13.2px 'Arial'" transform="translate(12.609428 230.797031) rotate(-90)">Counts/s/nA (x1000)</text>
  </g>
 </g>
 <defs>
  <clipPath id="pb998ee4826">
   <rect x="68.53743" y="17.589615" width="244.81733" height="131.063075"/>
  </clipPath>
  <clipPath id="pceca39f09b">
   <rect x="68.53743" y="175.365592" width="244.81733" height="131.063075"/>
  </clipPath>
 </defs>
</svg>
