<?xml version="1.0" encoding="utf-8" standalone="no"?>
<!DOCTYPE svg PUBLIC "-//W3C//DTD SVG 1.1//EN"
  "http://www.w3.org/Graphics/SVG/1.1/DTD/svg11.dtd">
<svg xmlns:xlink="http://www.w3.org/1999/xlink" width="288pt" height="180pt" viewBox="0 0 288 180" xmlns="http://www.w3.org/2000/svg" version="1.1">
 <metadata>
  <rdf:RDF xmlns:dc="http://purl.org/dc/elements/1.1/" xmlns:cc="http://creativecommons.org/ns#" xmlns:rdf="http://www.w3.org/1999/02/22-rdf-syntax-ns#">
   <cc:Work>
    <dc:type rdf:resource="http://purl.org/dc/dcmitype/StillImage"/>
    <dc:date>2024-12-30T07:22:35.492078</dc:date>
    <dc:format>image/svg+xml</dc:format>
    <dc:creator>
     <cc:Agent>
      <dc:title>Matplotlib v3.9.2, https://matplotlib.org/</dc:title>
     </cc:Agent>
    </dc:creator>
   </cc:Work>
  </rdf:RDF>
 </metadata>
 <defs>
  <style type="text/css">*{stroke-linejoin: round; stroke-linecap: butt}</style>
 </defs>
 <g id="figure_1">
  <g id="patch_1">
   <path d="M 0 180 
L 288 180 
L 288 0 
L 0 0 
z
" style="fill: #ffffff"/>
  </g>
  <g id="axes_1">
   <g id="patch_2">
    <path d="M 43.862584 144.428666 
L 275.824213 144.428666 
L 275.824213 17.735865 
L 43.862584 17.735865 
z
" style="fill: #ffffff"/>
   </g>
   <g id="PolyCollection_1">
    <defs>
     <path id="m8122ef19d1" d="M 43.862584 -107.813179 
L 43.862584 -107.813179 
L 44.051822 -108.386457 
L 44.24106 -108.950256 
L 44.430298 -109.504646 
L 44.619536 -110.049701 
L 44.808774 -110.585491 
L 44.998012 -111.112087 
L 45.18725 -111.629562 
L 45.376487 -112.137986 
L 45.565725 -112.637428 
L 45.754963 -113.127959 
L 45.944201 -113.609648 
L 46.133439 -114.082566 
L 46.322677 -114.546781 
L 46.511915 -115.002362 
L 46.701153 -115.449377 
L 46.890391 -115.887895 
L 47.079629 -116.317983 
L 47.268867 -116.73971 
L 47.458105 -117.153142 
L 47.647343 -117.558347 
L 47.836581 -117.955391 
L 48.025819 -118.344341 
L 48.215057 -118.725262 
L 48.404295 -119.09822 
L 48.593533 -119.463282 
L 48.782771 -119.820511 
L 48.972009 -120.169974 
L 49.161247 -120.511735 
L 49.350485 -120.845857 
L 49.539723 -121.172405 
L 49.728961 -121.491443 
L 49.918199 -121.803034 
L 50.107437 -122.107241 
L 50.296675 -122.404127 
L 50.485913 -122.693755 
L 50.675151 -122.976187 
L 50.864388 -123.251484 
L 51.053626 -123.519709 
L 51.242864 -123.780923 
L 51.432102 -124.035186 
L 51.62134 -124.28256 
L 51.810578 -124.523105 
L 51.999816 -124.756882 
L 52.189054 -124.98395 
L 52.378292 -125.204369 
L 52.56753 -125.418198 
L 52.756768 -125.625496 
L 52.946006 -125.826323 
L 53.135244 -126.020736 
L 53.324482 -126.208794 
L 53.51372 -126.390555 
L 53.702958 -126.566076 
L 53.892196 -126.735414 
L 54.081434 -126.898628 
L 54.270672 -127.055773 
L 54.45991 -127.206906 
L 54.649148 -127.352084 
L 54.838386 -127.491362 
L 55.027624 -127.624796 
L 55.216862 -127.752441 
L 55.4061 -127.874353 
L 55.595338 -127.990585 
L 55.784576 -128.101194 
L 55.973814 -128.206233 
L 56.163052 -128.305756 
L 56.352289 -128.399817 
L 56.541527 -128.488469 
L 56.730765 -128.571766 
L 56.920003 -128.64976 
L 57.109241 -128.722504 
L 57.298479 -128.790051 
L 57.487717 -128.852452 
L 57.676955 -128.909759 
L 57.866193 -128.962024 
L 58.055431 -129.009299 
L 58.244669 -129.051633 
L 58.433907 -129.089078 
L 58.623145 -129.121685 
L 58.812383 -129.149503 
L 59.001621 -129.172583 
L 59.190859 -129.190973 
L 59.380097 -129.204725 
L 59.569335 -129.213886 
L 59.758573 -129.218505 
L 59.947811 -129.218631 
L 60.137049 -129.214313 
L 60.326287 -129.205599 
L 60.515525 -129.192535 
L 60.704763 -129.175171 
L 60.894001 -129.153553 
L 61.083239 -129.127728 
L 61.272477 -129.097743 
L 61.461715 -129.063644 
L 61.650953 -129.025478 
L 61.840191 -128.983291 
L 62.029428 -128.937127 
L 62.218666 -128.887034 
L 62.407904 -128.833056 
L 62.597142 -128.775238 
L 62.78638 -128.713624 
L 62.975618 -128.64826 
L 63.164856 -128.579189 
L 63.354094 -128.506455 
L 63.543332 -128.430101 
L 63.73257 -128.350173 
L 63.921808 -128.266711 
L 64.111046 -128.17976 
L 64.300284 -128.089362 
L 64.489522 -127.995559 
L 64.67876 -127.898394 
L 64.867998 -127.797908 
L 65.057236 -127.694144 
L 65.246474 -127.587141 
L 65.435712 -127.476943 
L 65.62495 -127.363589 
L 65.814188 -127.24712 
L 66.003426 -127.127577 
L 66.192664 -127.004999 
L 66.381902 -126.879427 
L 66.57114 -126.750901 
L 66.760378 -126.619459 
L 66.949616 -126.485141 
L 67.138854 -126.347986 
L 67.328092 -126.208032 
L 67.517329 -126.065318 
L 67.706567 -125.919883 
L 67.895805 -125.771763 
L 68.085043 -125.620998 
L 68.274281 -125.467623 
L 68.463519 -125.311677 
L 68.652757 -125.153197 
L 68.841995 -124.992218 
L 69.031233 -124.828779 
L 69.220471 -124.662914 
L 69.409709 -124.494661 
L 69.598947 -124.324054 
L 69.788185 -124.151129 
L 69.977423 -123.975922 
L 70.166661 -123.798468 
L 70.355899 -123.618802 
L 70.545137 -123.436957 
L 70.734375 -123.25297 
L 70.923613 -123.066872 
L 71.112851 -122.8787 
L 71.302089 -122.688485 
L 71.491327 -122.496263 
L 71.680565 -122.302065 
L 71.869803 -122.105925 
L 72.059041 -121.907875 
L 72.248279 -121.707949 
L 72.437517 -121.506178 
L 72.626755 -121.302594 
L 72.815993 -121.097229 
L 73.00523 -120.890116 
L 73.194468 -120.681284 
L 73.383706 -120.470765 
L 73.572944 -120.258591 
L 73.762182 -120.044791 
L 73.95142 -119.829396 
L 74.140658 -119.612437 
L 74.329896 -119.393943 
L 74.519134 -119.173945 
L 74.708372 -118.952471 
L 74.89761 -118.729551 
L 75.086848 -118.505214 
L 75.276086 -118.279488 
L 75.465324 -118.052404 
L 75.654562 -117.823988 
L 75.8438 -117.594269 
L 76.033038 -117.363276 
L 76.222276 -117.131035 
L 76.411514 -116.897575 
L 76.600752 -116.662922 
L 76.78999 -116.427103 
L 76.979228 -116.190147 
L 77.168466 -115.952078 
L 77.357704 -115.712924 
L 77.546942 -115.472711 
L 77.73618 -115.231464 
L 77.925418 -114.98921 
L 78.114656 -114.745974 
L 78.303894 -114.501781 
L 78.493132 -114.256657 
L 78.682369 -114.010625 
L 78.871607 -113.763712 
L 79.060845 -113.515941 
L 79.250083 -113.267337 
L 79.439321 -113.017923 
L 79.628559 -112.767724 
L 79.817797 -112.516762 
L 80.007035 -112.265062 
L 80.196273 -112.012647 
L 80.385511 -111.759539 
L 80.574749 -111.505761 
L 80.763987 -111.251335 
L 80.953225 -110.996285 
L 81.142463 -110.740632 
L 81.331701 -110.484397 
L 81.520939 -110.227604 
L 81.710177 -109.970272 
L 81.899415 -109.712423 
L 82.088653 -109.454079 
L 82.277891 -109.19526 
L 82.467129 -108.935987 
L 82.656367 -108.676279 
L 82.845605 -108.416158 
L 83.034843 -108.155643 
L 83.224081 -107.894754 
L 83.413319 -107.633511 
L 83.602557 -107.371933 
L 83.791795 -107.110038 
L 83.981033 -106.847847 
L 84.17027 -106.585377 
L 84.359508 -106.322648 
L 84.548746 -106.059677 
L 84.737984 -105.796482 
L 84.927222 -105.533083 
L 85.11646 -105.269495 
L 85.305698 -105.005737 
L 85.494936 -104.741826 
L 85.684174 -104.477779 
L 85.873412 -104.213613 
L 86.06265 -103.949345 
L 86.251888 -103.68499 
L 86.441126 -103.420566 
L 86.630364 -103.156088 
L 86.819602 -102.891573 
L 87.00884 -102.627035 
L 87.198078 -102.362491 
L 87.387316 -102.097955 
L 87.576554 -101.833442 
L 87.765792 -101.568968 
L 87.95503 -101.304547 
L 88.144268 -101.040193 
L 88.333506 -100.775922 
L 88.522744 -100.511745 
L 88.711982 -100.247679 
L 88.90122 -99.983735 
L 89.090458 -99.719929 
L 89.279696 -99.456272 
L 89.468934 -99.192777 
L 89.658171 -98.929459 
L 89.847409 -98.666329 
L 90.036647 -98.4034 
L 90.225885 -98.140684 
L 90.415123 -97.878193 
L 90.604361 -97.615939 
L 90.793599 -97.353933 
L 90.982837 -97.092188 
L 91.172075 -96.830714 
L 91.361313 -96.569522 
L 91.550551 -96.308623 
L 91.739789 -96.048029 
L 91.929027 -95.787749 
L 92.118265 -95.527794 
L 92.307503 -95.268173 
L 92.496741 -95.008897 
L 92.685979 -94.749976 
L 92.875217 -94.491419 
L 93.064455 -94.233235 
L 93.253693 -93.975434 
L 93.442931 -93.718024 
L 93.632169 -93.461014 
L 93.821407 -93.204414 
L 94.010645 -92.94823 
L 94.199883 -92.692472 
L 94.389121 -92.437147 
L 94.578359 -92.182264 
L 94.767597 -91.92783 
L 94.956835 -91.673852 
L 95.146073 -91.420338 
L 95.33531 -91.167295 
L 95.524548 -90.91473 
L 95.713786 -90.662649 
L 95.903024 -90.41106 
L 96.092262 -90.159968 
L 96.2815 -89.90938 
L 96.470738 -89.659302 
L 96.659976 -89.40974 
L 96.849214 -89.160699 
L 97.038452 -88.912185 
L 97.22769 -88.664204 
L 97.416928 -88.41676 
L 97.606166 -88.169859 
L 97.795404 -87.923506 
L 97.984642 -87.677705 
L 98.17388 -87.43246 
L 98.363118 -87.187777 
L 98.552356 -86.94366 
L 98.741594 -86.700111 
L 98.930832 -86.457137 
L 99.12007 -86.214739 
L 99.309308 -85.972922 
L 99.498546 -85.73169 
L 99.687784 -85.491045 
L 99.877022 -85.250991 
L 100.06626 -85.011531 
L 100.255498 -84.772668 
L 100.444736 -84.534404 
L 100.633974 -84.296742 
L 100.823211 -84.059685 
L 101.012449 -83.823235 
L 101.201687 -83.587393 
L 101.390925 -83.352164 
L 101.580163 -83.117547 
L 101.769401 -82.883546 
L 101.958639 -82.650161 
L 102.147877 -82.417395 
L 102.337115 -82.185249 
L 102.526353 -81.953724 
L 102.715591 -81.722822 
L 102.904829 -81.492544 
L 103.094067 -81.262891 
L 103.283305 -81.033864 
L 103.472543 -80.805464 
L 103.661781 -80.577692 
L 103.851019 -80.350548 
L 104.040257 -80.124033 
L 104.229495 -79.898148 
L 104.418733 -79.672894 
L 104.607971 -79.44827 
L 104.797209 -79.224277 
L 104.986447 -79.000915 
L 105.175685 -78.778185 
L 105.364923 -78.556087 
L 105.554161 -78.334621 
L 105.743399 -78.113786 
L 105.932637 -77.893584 
L 106.121875 -77.674014 
L 106.311112 -77.455075 
L 106.50035 -77.236769 
L 106.689588 -77.019095 
L 106.878826 -76.802052 
L 107.068064 -76.585641 
L 107.257302 -76.369861 
L 107.44654 -76.154713 
L 107.635778 -75.940195 
L 107.825016 -75.726309 
L 108.014254 -75.513053 
L 108.203492 -75.300428 
L 108.39273 -75.088434 
L 108.581968 -74.87707 
L 108.771206 -74.666335 
L 108.960444 -74.456231 
L 109.149682 -74.246757 
L 109.33892 -74.037913 
L 109.528158 -73.829698 
L 109.717396 -73.622114 
L 109.906634 -73.415159 
L 110.095872 -73.208834 
L 110.28511 -73.003139 
L 110.474348 -72.798075 
L 110.663586 -72.593641 
L 110.852824 -72.389838 
L 111.042062 -72.186666 
L 111.2313 -71.984125 
L 111.420538 -71.782217 
L 111.609776 -71.580941 
L 111.799014 -71.380298 
L 111.988251 -71.180289 
L 112.177489 -70.980914 
L 112.366727 -70.782174 
L 112.555965 -70.584071 
L 112.745203 -70.386605 
L 112.934441 -70.189777 
L 113.123679 -69.993588 
L 113.312917 -69.79804 
L 113.502155 -69.603134 
L 113.691393 -69.408871 
L 113.880631 -69.215252 
L 114.069869 -69.02228 
L 114.259107 -68.829956 
L 114.448345 -68.638281 
L 114.637583 -68.447258 
L 114.826821 -68.256888 
L 115.016059 -68.067173 
L 115.205297 -67.878116 
L 115.394535 -67.689718 
L 115.583773 -67.501982 
L 115.773011 -67.31491 
L 115.962249 -67.128505 
L 116.151487 -66.942769 
L 116.340725 -66.757705 
L 116.529963 -66.573315 
L 116.719201 -66.389602 
L 116.908439 -66.20657 
L 117.097677 -66.02422 
L 117.286915 -65.842557 
L 117.476152 -65.661583 
L 117.66539 -65.481301 
L 117.854628 -65.301715 
L 118.043866 -65.122827 
L 118.233104 -64.944642 
L 118.422342 -64.767163 
L 118.61158 -64.590393 
L 118.800818 -64.414335 
L 118.990056 -64.238995 
L 119.179294 -64.064374 
L 119.368532 -63.890478 
L 119.55777 -63.717309 
L 119.747008 -63.544873 
L 119.936246 -63.373171 
L 120.125484 -63.20221 
L 120.314722 -63.031992 
L 120.50396 -62.862522 
L 120.693198 -62.693804 
L 120.882436 -62.525841 
L 121.071674 -62.358639 
L 121.260912 -62.192201 
L 121.45015 -62.026532 
L 121.639388 -61.861635 
L 121.828626 -61.697516 
L 122.017864 -61.534177 
L 122.207102 -61.371625 
L 122.39634 -61.209863 
L 122.585578 -61.048895 
L 122.774816 -60.888726 
L 122.964053 -60.729359 
L 123.153291 -60.570801 
L 123.342529 -60.413054 
L 123.531767 -60.256123 
L 123.721005 -60.100013 
L 123.910243 -59.944727 
L 124.099481 -59.790271 
L 124.288719 -59.636649 
L 124.477957 -59.483864 
L 124.667195 -59.331921 
L 124.856433 -59.180825 
L 125.045671 -59.030579 
L 125.234909 -58.881188 
L 125.424147 -58.732657 
L 125.613385 -58.584988 
L 125.802623 -58.438187 
L 125.991861 -58.292258 
L 126.181099 -58.147204 
L 126.370337 -58.00303 
L 126.559575 -57.859739 
L 126.748813 -57.717336 
L 126.938051 -57.575825 
L 127.127289 -57.435208 
L 127.316527 -57.295491 
L 127.505765 -57.156677 
L 127.695003 -57.01877 
L 127.884241 -56.881773 
L 128.073479 -56.74569 
L 128.262717 -56.610525 
L 128.451955 -56.476281 
L 128.641192 -56.342961 
L 128.83043 -56.210569 
L 129.019668 -56.079109 
L 129.208906 -55.948583 
L 129.398144 -55.818994 
L 129.587382 -55.690347 
L 129.77662 -55.562644 
L 129.965858 -55.435887 
L 130.155096 -55.310081 
L 130.344334 -55.185227 
L 130.533572 -55.061329 
L 130.72281 -54.938389 
L 130.912048 -54.816411 
L 131.101286 -54.695396 
L 131.290524 -54.575347 
L 131.479762 -54.456266 
L 131.669 -54.338157 
L 131.858238 -54.221021 
L 132.047476 -54.104861 
L 132.236714 -53.989678 
L 132.425952 -53.875474 
L 132.61519 -53.762253 
L 132.804428 -53.650015 
L 132.993666 -53.538762 
L 133.182904 -53.428497 
L 133.372142 -53.31922 
L 133.56138 -53.210934 
L 133.750618 -53.10364 
L 133.939856 -52.997339 
L 134.129093 -52.892033 
L 134.318331 -52.787722 
L 134.507569 -52.684409 
L 134.696807 -52.582094 
L 134.886045 -52.480778 
L 135.075283 -52.380462 
L 135.264521 -52.281148 
L 135.453759 -52.182834 
L 135.642997 -52.085524 
L 135.832235 -51.989216 
L 136.021473 -51.893912 
L 136.210711 -51.799611 
L 136.399949 -51.706315 
L 136.589187 -51.614023 
L 136.778425 -51.522735 
L 136.967663 -51.432453 
L 137.156901 -51.343175 
L 137.346139 -51.254901 
L 137.535377 -51.167631 
L 137.724615 -51.081366 
L 137.913853 -50.996104 
L 138.103091 -50.911845 
L 138.292329 -50.828589 
L 138.481567 -50.746335 
L 138.670805 -50.665082 
L 138.860043 -50.584829 
L 139.049281 -50.505576 
L 139.238519 -50.427321 
L 139.427757 -50.350064 
L 139.616994 -50.273803 
L 139.806232 -50.198537 
L 139.99547 -50.124264 
L 140.184708 -50.050984 
L 140.373946 -49.978695 
L 140.563184 -49.907394 
L 140.752422 -49.837081 
L 140.94166 -49.767754 
L 141.130898 -49.69941 
L 141.320136 -49.632048 
L 141.509374 -49.565665 
L 141.698612 -49.50026 
L 141.88785 -49.43583 
L 142.077088 -49.372374 
L 142.266326 -49.309887 
L 142.455564 -49.248369 
L 142.644802 -49.187816 
L 142.83404 -49.128226 
L 143.023278 -49.069596 
L 143.212516 -49.011923 
L 143.401754 -48.955205 
L 143.590992 -48.899437 
L 143.78023 -48.844618 
L 143.969468 -48.790743 
L 144.158706 -48.73781 
L 144.347944 -48.685815 
L 144.537182 -48.634754 
L 144.72642 -48.584625 
L 144.915658 -48.535423 
L 145.104896 -48.487144 
L 145.294133 -48.439786 
L 145.483371 -48.393343 
L 145.672609 -48.347812 
L 145.861847 -48.303189 
L 146.051085 -48.259469 
L 146.240323 -48.216649 
L 146.429561 -48.174724 
L 146.618799 -48.133689 
L 146.808037 -48.09354 
L 146.997275 -48.054272 
L 147.186513 -48.01588 
L 147.375751 -47.978361 
L 147.564989 -47.941708 
L 147.754227 -47.905917 
L 147.943465 -47.870983 
L 148.132703 -47.8369 
L 148.321941 -47.803664 
L 148.511179 -47.771268 
L 148.700417 -47.739708 
L 148.889655 -47.708978 
L 149.078893 -47.679072 
L 149.268131 -47.649985 
L 149.457369 -47.621711 
L 149.646607 -47.594243 
L 149.835845 -47.567577 
L 150.025083 -47.541706 
L 150.214321 -47.516623 
L 150.403559 -47.492323 
L 150.592797 -47.468799 
L 150.782034 -47.446045 
L 150.971272 -47.424054 
L 151.16051 -47.40282 
L 151.349748 -47.382336 
L 151.538986 -47.362595 
L 151.728224 -47.34359 
L 151.917462 -47.325315 
L 152.1067 -47.307762 
L 152.295938 -47.290925 
L 152.485176 -47.274796 
L 152.674414 -47.259367 
L 152.863652 -47.244632 
L 153.05289 -47.230583 
L 153.242128 -47.217212 
L 153.431366 -47.204512 
L 153.620604 -47.192476 
L 153.809842 -47.181094 
L 153.99908 -47.170359 
L 154.188318 -47.160264 
L 154.377556 -47.1508 
L 154.566794 -47.14196 
L 154.756032 -47.133734 
L 154.94527 -47.126114 
L 155.134508 -47.119093 
L 155.323746 -47.112662 
L 155.512984 -47.106811 
L 155.702222 -47.101533 
L 155.89146 -47.096818 
L 156.080698 -47.092659 
L 156.269935 -47.089045 
L 156.459173 -47.085968 
L 156.648411 -47.083419 
L 156.837649 -47.081388 
L 157.026887 -47.079867 
L 157.216125 -47.078846 
L 157.405363 -47.078316 
L 157.594601 -47.078267 
L 157.783839 -47.07869 
L 157.973077 -47.079575 
L 158.162315 -47.080912 
L 158.351553 -47.082692 
L 158.540791 -47.084904 
L 158.730029 -47.087539 
L 158.919267 -47.090587 
L 159.108505 -47.094038 
L 159.297743 -47.097881 
L 159.486981 -47.102107 
L 159.676219 -47.106705 
L 159.865457 -47.111664 
L 160.054695 -47.116974 
L 160.243933 -47.122625 
L 160.433171 -47.128607 
L 160.622409 -47.134908 
L 160.811647 -47.141517 
L 161.000885 -47.148425 
L 161.190123 -47.15562 
L 161.379361 -47.163091 
L 161.568599 -47.170828 
L 161.757837 -47.178819 
L 161.947074 -47.187053 
L 162.136312 -47.195519 
L 162.32555 -47.204207 
L 162.514788 -47.213104 
L 162.704026 -47.2222 
L 162.893264 -47.231483 
L 163.082502 -47.240942 
L 163.27174 -47.250565 
L 163.460978 -47.260341 
L 163.650216 -47.270259 
L 163.839454 -47.280306 
L 164.028692 -47.290472 
L 164.21793 -47.300744 
L 164.407168 -47.311111 
L 164.596406 -47.321562 
L 164.785644 -47.332084 
L 164.974882 -47.342666 
L 165.16412 -47.353296 
L 165.353358 -47.363962 
L 165.542596 -47.374652 
L 165.731834 -47.385355 
L 165.921072 -47.396059 
L 166.11031 -47.406752 
L 166.299548 -47.417421 
L 166.488786 -47.428055 
L 166.678024 -47.438643 
L 166.867262 -47.449172 
L 167.0565 -47.459629 
L 167.245738 -47.470005 
L 167.434975 -47.480285 
L 167.624213 -47.490459 
L 167.813451 -47.500515 
L 168.002689 -47.510441 
L 168.191927 -47.520224 
L 168.381165 -47.529854 
L 168.570403 -47.539317 
L 168.759641 -47.548603 
L 168.948879 -47.5577 
L 169.138117 -47.566595 
L 169.327355 -47.575278 
L 169.516593 -47.583736 
L 169.705831 -47.591958 
L 169.895069 -47.599933 
L 170.084307 -47.607648 
L 170.273545 -47.615092 
L 170.462783 -47.622255 
L 170.652021 -47.629123 
L 170.841259 -47.635687 
L 171.030497 -47.641935 
L 171.219735 -47.647856 
L 171.408973 -47.653439 
L 171.598211 -47.658672 
L 171.787449 -47.663545 
L 171.976687 -47.668046 
L 172.165925 -47.672166 
L 172.355163 -47.675894 
L 172.544401 -47.679218 
L 172.733639 -47.682129 
L 172.922876 -47.684616 
L 173.112114 -47.686669 
L 173.301352 -47.688278 
L 173.49059 -47.689432 
L 173.679828 -47.690122 
L 173.869066 -47.690338 
L 174.058304 -47.690071 
L 174.247542 -47.68931 
L 174.43678 -47.688046 
L 174.626018 -47.686271 
L 174.815256 -47.683975 
L 175.004494 -47.681149 
L 175.193732 -47.677784 
L 175.38297 -47.673872 
L 175.572208 -47.669404 
L 175.761446 -47.664372 
L 175.950684 -47.658767 
L 176.139922 -47.652582 
L 176.32916 -47.645809 
L 176.518398 -47.63844 
L 176.707636 -47.630467 
L 176.896874 -47.621884 
L 177.086112 -47.612683 
L 177.27535 -47.602857 
L 177.464588 -47.592399 
L 177.653826 -47.581304 
L 177.843064 -47.569564 
L 178.032302 -47.557173 
L 178.22154 -47.544126 
L 178.410778 -47.530416 
L 178.600015 -47.516039 
L 178.789253 -47.500988 
L 178.978491 -47.48526 
L 179.167729 -47.468847 
L 179.356967 -47.451747 
L 179.546205 -47.433955 
L 179.735443 -47.415465 
L 179.924681 -47.396275 
L 180.113919 -47.376381 
L 180.303157 -47.355779 
L 180.492395 -47.334465 
L 180.681633 -47.312436 
L 180.870871 -47.28969 
L 181.060109 -47.266224 
L 181.249347 -47.242036 
L 181.438585 -47.217122 
L 181.627823 -47.191482 
L 181.817061 -47.165114 
L 182.006299 -47.138016 
L 182.195537 -47.110187 
L 182.384775 -47.081626 
L 182.574013 -47.052332 
L 182.763251 -47.022305 
L 182.952489 -46.991545 
L 183.141727 -46.960051 
L 183.330965 -46.927824 
L 183.520203 -46.894864 
L 183.709441 -46.861172 
L 183.898679 -46.826749 
L 184.087916 -46.791596 
L 184.277154 -46.755714 
L 184.466392 -46.719106 
L 184.65563 -46.681774 
L 184.844868 -46.643719 
L 185.034106 -46.604943 
L 185.223344 -46.565451 
L 185.412582 -46.525244 
L 185.60182 -46.484326 
L 185.791058 -46.4427 
L 185.980296 -46.40037 
L 186.169534 -46.357339 
L 186.358772 -46.313613 
L 186.54801 -46.269195 
L 186.737248 -46.22409 
L 186.926486 -46.178302 
L 187.115724 -46.131838 
L 187.304962 -46.084702 
L 187.4942 -46.036899 
L 187.683438 -45.988437 
L 187.872676 -45.93932 
L 188.061914 -45.889555 
L 188.251152 -45.839148 
L 188.44039 -45.788107 
L 188.629628 -45.736438 
L 188.818866 -45.684148 
L 189.008104 -45.631245 
L 189.197342 -45.577736 
L 189.38658 -45.52363 
L 189.575817 -45.468934 
L 189.765055 -45.413656 
L 189.954293 -45.357806 
L 190.143531 -45.301391 
L 190.332769 -45.244422 
L 190.522007 -45.186906 
L 190.711245 -45.128854 
L 190.900483 -45.070275 
L 191.089721 -45.011178 
L 191.278959 -44.951574 
L 191.468197 -44.891473 
L 191.657435 -44.830885 
L 191.846673 -44.769821 
L 192.035911 -44.708291 
L 192.225149 -44.646307 
L 192.414387 -44.58388 
L 192.603625 -44.521021 
L 192.792863 -44.457742 
L 192.982101 -44.394055 
L 193.171339 -44.32997 
L 193.360577 -44.265502 
L 193.549815 -44.200661 
L 193.739053 -44.13546 
L 193.928291 -44.069913 
L 194.117529 -44.004031 
L 194.306767 -43.937828 
L 194.496005 -43.871317 
L 194.685243 -43.804512 
L 194.874481 -43.737426 
L 195.063719 -43.670072 
L 195.252956 -43.602465 
L 195.442194 -43.534618 
L 195.631432 -43.466547 
L 195.82067 -43.398264 
L 196.009908 -43.329785 
L 196.199146 -43.261124 
L 196.388384 -43.192297 
L 196.577622 -43.123318 
L 196.76686 -43.054202 
L 196.956098 -42.984965 
L 197.145336 -42.915621 
L 197.334574 -42.846188 
L 197.523812 -42.776679 
L 197.71305 -42.707112 
L 197.902288 -42.637502 
L 198.091526 -42.567865 
L 198.280764 -42.498218 
L 198.470002 -42.428576 
L 198.65924 -42.358957 
L 198.848478 -42.289378 
L 199.037716 -42.219854 
L 199.226954 -42.150403 
L 199.416192 -42.081041 
L 199.60543 -42.011787 
L 199.794668 -41.942657 
L 199.983906 -41.873668 
L 200.173144 -41.804838 
L 200.362382 -41.736185 
L 200.55162 -41.667727 
L 200.740857 -41.59948 
L 200.930095 -41.531463 
L 201.119333 -41.463695 
L 201.308571 -41.396192 
L 201.497809 -41.328973 
L 201.687047 -41.262057 
L 201.876285 -41.195462 
L 202.065523 -41.129206 
L 202.254761 -41.063307 
L 202.443999 -40.997785 
L 202.633237 -40.932658 
L 202.822475 -40.867944 
L 203.011713 -40.803662 
L 203.200951 -40.739832 
L 203.390189 -40.676472 
L 203.579427 -40.613601 
L 203.768665 -40.551237 
L 203.957903 -40.489401 
L 204.147141 -40.428111 
L 204.336379 -40.367386 
L 204.525617 -40.307245 
L 204.714855 -40.247707 
L 204.904093 -40.188792 
L 205.093331 -40.130519 
L 205.282569 -40.072906 
L 205.471807 -40.015974 
L 205.661045 -39.959741 
L 205.850283 -39.904226 
L 206.039521 -39.849449 
L 206.228758 -39.795428 
L 206.417996 -39.742184 
L 206.607234 -39.689734 
L 206.796472 -39.638097 
L 206.98571 -39.587294 
L 207.174948 -39.537342 
L 207.364186 -39.48826 
L 207.553424 -39.440068 
L 207.742662 -39.392783 
L 207.9319 -39.346425 
L 208.121138 -39.301011 
L 208.310376 -39.256561 
L 208.499614 -39.213092 
L 208.688852 -39.170622 
L 208.87809 -39.129169 
L 209.067328 -39.088751 
L 209.256566 -39.049386 
L 209.445804 -39.01109 
L 209.635042 -38.973882 
L 209.82428 -38.937777 
L 210.013518 -38.902794 
L 210.202756 -38.868947 
L 210.391994 -38.836254 
L 210.581232 -38.804729 
L 210.77047 -38.77439 
L 210.959708 -38.745251 
L 211.148946 -38.717327 
L 211.338184 -38.690633 
L 211.527422 -38.665182 
L 211.71666 -38.64099 
L 211.905897 -38.618068 
L 212.095135 -38.596431 
L 212.284373 -38.576091 
L 212.473611 -38.557059 
L 212.662849 -38.539348 
L 212.852087 -38.522968 
L 213.041325 -38.507929 
L 213.230563 -38.494242 
L 213.419801 -38.481915 
L 213.609039 -38.470957 
L 213.798277 -38.461376 
L 213.987515 -38.453178 
L 214.176753 -38.446371 
L 214.365991 -38.440958 
L 214.555229 -38.436946 
L 214.744467 -38.434337 
L 214.933705 -38.433135 
L 215.122943 -38.43334 
L 215.312181 -38.434954 
L 215.501419 -38.437977 
L 215.690657 -38.442407 
L 215.879895 -38.44824 
L 216.069133 -38.455474 
L 216.258371 -38.464102 
L 216.447609 -38.474119 
L 216.636847 -38.485516 
L 216.826085 -38.498284 
L 217.015323 -38.512411 
L 217.204561 -38.527884 
L 217.393798 -38.54469 
L 217.583036 -38.562812 
L 217.772274 -38.582231 
L 217.961512 -38.602929 
L 218.15075 -38.624881 
L 218.339988 -38.648065 
L 218.529226 -38.672454 
L 218.718464 -38.698019 
L 218.907702 -38.724729 
L 219.09694 -38.75255 
L 219.286178 -38.781446 
L 219.475416 -38.811378 
L 219.664654 -38.842304 
L 219.853892 -38.874179 
L 220.04313 -38.906955 
L 220.232368 -38.940582 
L 220.421606 -38.975005 
L 220.610844 -39.010167 
L 220.800082 -39.046005 
L 220.98932 -39.082457 
L 221.178558 -39.119451 
L 221.367796 -39.156917 
L 221.557034 -39.194778 
L 221.746272 -39.232952 
L 221.93551 -39.271355 
L 222.124748 -39.309898 
L 222.313986 -39.348487 
L 222.503224 -39.387023 
L 222.692462 -39.425403 
L 222.881699 -39.46352 
L 223.070937 -39.50126 
L 223.260175 -39.538505 
L 223.449413 -39.575134 
L 223.638651 -39.611017 
L 223.827889 -39.646022 
L 224.017127 -39.68001 
L 224.206365 -39.712838 
L 224.395603 -39.744358 
L 224.584841 -39.774415 
L 224.774079 -39.802852 
L 224.963317 -39.829503 
L 225.152555 -39.8542 
L 225.341793 -39.876771 
L 225.531031 -39.897036 
L 225.720269 -39.914814 
L 225.909507 -39.929918 
L 226.098745 -39.942157 
L 226.287983 -39.951337 
L 226.477221 -39.957261 
L 226.666459 -39.95973 
L 226.855697 -39.95854 
L 227.044935 -39.953486 
L 227.234173 -39.944363 
L 227.423411 -39.930964 
L 227.612649 -39.913081 
L 227.801887 -39.890507 
L 227.991125 -39.863035 
L 228.180363 -39.83046 
L 228.369601 -39.792578 
L 228.558838 -39.749188 
L 228.748076 -39.700094 
L 228.937314 -39.645101 
L 229.126552 -39.584021 
L 229.31579 -39.51667 
L 229.505028 -39.442868 
L 229.694266 -39.362445 
L 229.883504 -39.275236 
L 230.072742 -39.181083 
L 230.26198 -39.079835 
L 230.451218 -38.971352 
L 230.640456 -38.8555 
L 230.829694 -38.732155 
L 231.018932 -38.601203 
L 231.20817 -38.462536 
L 231.397408 -38.316059 
L 231.586646 -38.161684 
L 231.775884 -37.999334 
L 231.965122 -37.828941 
L 232.15436 -37.650445 
L 232.343598 -37.463796 
L 232.532836 -37.268954 
L 232.722074 -37.065886 
L 232.911312 -36.854567 
L 232.911312 -81.042143 
L 232.911312 -81.042143 
L 232.722074 -80.752983 
L 232.532836 -80.475423 
L 232.343598 -80.209395 
L 232.15436 -79.954822 
L 231.965122 -79.711619 
L 231.775884 -79.479694 
L 231.586646 -79.258944 
L 231.397408 -79.049259 
L 231.20817 -78.850518 
L 231.018932 -78.662592 
L 230.829694 -78.485343 
L 230.640456 -78.318623 
L 230.451218 -78.162277 
L 230.26198 -78.016138 
L 230.072742 -77.880033 
L 229.883504 -77.753781 
L 229.694266 -77.63719 
L 229.505028 -77.530063 
L 229.31579 -77.432196 
L 229.126552 -77.343378 
L 228.937314 -77.263391 
L 228.748076 -77.192012 
L 228.558838 -77.129014 
L 228.369601 -77.074164 
L 228.180363 -77.027228 
L 227.991125 -76.987967 
L 227.801887 -76.956139 
L 227.612649 -76.931503 
L 227.423411 -76.913814 
L 227.234173 -76.902829 
L 227.044935 -76.898303 
L 226.855697 -76.899993 
L 226.666459 -76.907658 
L 226.477221 -76.921056 
L 226.287983 -76.93995 
L 226.098745 -76.964105 
L 225.909507 -76.993288 
L 225.720269 -77.02727 
L 225.531031 -77.065828 
L 225.341793 -77.108739 
L 225.152555 -77.155788 
L 224.963317 -77.206763 
L 224.774079 -77.261457 
L 224.584841 -77.319669 
L 224.395603 -77.381201 
L 224.206365 -77.445862 
L 224.017127 -77.513466 
L 223.827889 -77.583832 
L 223.638651 -77.656785 
L 223.449413 -77.732156 
L 223.260175 -77.809778 
L 223.070937 -77.889494 
L 222.881699 -77.971149 
L 222.692462 -78.054596 
L 222.503224 -78.13969 
L 222.313986 -78.226294 
L 222.124748 -78.314274 
L 221.93551 -78.403503 
L 221.746272 -78.493857 
L 221.557034 -78.585218 
L 221.367796 -78.677471 
L 221.178558 -78.770508 
L 220.98932 -78.864223 
L 220.800082 -78.958515 
L 220.610844 -79.053288 
L 220.421606 -79.148448 
L 220.232368 -79.243908 
L 220.04313 -79.339582 
L 219.853892 -79.435389 
L 219.664654 -79.531251 
L 219.475416 -79.627094 
L 219.286178 -79.722846 
L 219.09694 -79.818439 
L 218.907702 -79.913809 
L 218.718464 -80.008893 
L 218.529226 -80.103632 
L 218.339988 -80.19797 
L 218.15075 -80.291854 
L 217.961512 -80.385231 
L 217.772274 -80.478053 
L 217.583036 -80.570273 
L 217.393798 -80.661848 
L 217.204561 -80.752735 
L 217.015323 -80.842894 
L 216.826085 -80.932288 
L 216.636847 -81.02088 
L 216.447609 -81.108637 
L 216.258371 -81.195526 
L 216.069133 -81.281515 
L 215.879895 -81.366578 
L 215.690657 -81.450685 
L 215.501419 -81.533811 
L 215.312181 -81.615932 
L 215.122943 -81.697025 
L 214.933705 -81.777068 
L 214.744467 -81.856041 
L 214.555229 -81.933924 
L 214.365991 -82.0107 
L 214.176753 -82.086353 
L 213.987515 -82.160865 
L 213.798277 -82.234224 
L 213.609039 -82.306415 
L 213.419801 -82.377426 
L 213.230563 -82.447245 
L 213.041325 -82.515862 
L 212.852087 -82.583267 
L 212.662849 -82.649451 
L 212.473611 -82.714405 
L 212.284373 -82.778123 
L 212.095135 -82.840598 
L 211.905897 -82.901824 
L 211.71666 -82.961795 
L 211.527422 -83.020508 
L 211.338184 -83.077958 
L 211.148946 -83.134143 
L 210.959708 -83.189059 
L 210.77047 -83.242705 
L 210.581232 -83.295078 
L 210.391994 -83.346179 
L 210.202756 -83.396006 
L 210.013518 -83.44456 
L 209.82428 -83.491841 
L 209.635042 -83.53785 
L 209.445804 -83.582589 
L 209.256566 -83.626059 
L 209.067328 -83.668263 
L 208.87809 -83.709203 
L 208.688852 -83.748883 
L 208.499614 -83.787305 
L 208.310376 -83.824474 
L 208.121138 -83.860394 
L 207.9319 -83.895068 
L 207.742662 -83.928503 
L 207.553424 -83.960702 
L 207.364186 -83.991672 
L 207.174948 -84.021418 
L 206.98571 -84.049945 
L 206.796472 -84.077261 
L 206.607234 -84.103371 
L 206.417996 -84.128282 
L 206.228758 -84.152002 
L 206.039521 -84.174537 
L 205.850283 -84.195894 
L 205.661045 -84.216082 
L 205.471807 -84.235108 
L 205.282569 -84.25298 
L 205.093331 -84.269706 
L 204.904093 -84.285295 
L 204.714855 -84.299755 
L 204.525617 -84.313095 
L 204.336379 -84.325324 
L 204.147141 -84.336451 
L 203.957903 -84.346485 
L 203.768665 -84.355435 
L 203.579427 -84.363311 
L 203.390189 -84.370123 
L 203.200951 -84.37588 
L 203.011713 -84.380593 
L 202.822475 -84.38427 
L 202.633237 -84.386923 
L 202.443999 -84.388562 
L 202.254761 -84.389196 
L 202.065523 -84.388837 
L 201.876285 -84.387494 
L 201.687047 -84.38518 
L 201.497809 -84.381903 
L 201.308571 -84.377676 
L 201.119333 -84.372508 
L 200.930095 -84.366411 
L 200.740857 -84.359396 
L 200.55162 -84.351475 
L 200.362382 -84.342657 
L 200.173144 -84.332955 
L 199.983906 -84.32238 
L 199.794668 -84.310943 
L 199.60543 -84.298655 
L 199.416192 -84.285528 
L 199.226954 -84.271574 
L 199.037716 -84.256804 
L 198.848478 -84.241229 
L 198.65924 -84.224861 
L 198.470002 -84.207713 
L 198.280764 -84.189795 
L 198.091526 -84.171119 
L 197.902288 -84.151697 
L 197.71305 -84.13154 
L 197.523812 -84.110662 
L 197.334574 -84.089072 
L 197.145336 -84.066784 
L 196.956098 -84.043808 
L 196.76686 -84.020157 
L 196.577622 -83.995843 
L 196.388384 -83.970877 
L 196.199146 -83.945271 
L 196.009908 -83.919037 
L 195.82067 -83.892187 
L 195.631432 -83.864732 
L 195.442194 -83.836685 
L 195.252956 -83.808057 
L 195.063719 -83.778859 
L 194.874481 -83.749105 
L 194.685243 -83.718804 
L 194.496005 -83.687969 
L 194.306767 -83.656613 
L 194.117529 -83.624745 
L 193.928291 -83.592378 
L 193.739053 -83.559523 
L 193.549815 -83.526193 
L 193.360577 -83.492398 
L 193.171339 -83.458149 
L 192.982101 -83.423459 
L 192.792863 -83.388338 
L 192.603625 -83.352798 
L 192.414387 -83.31685 
L 192.225149 -83.280505 
L 192.035911 -83.243775 
L 191.846673 -83.20667 
L 191.657435 -83.169201 
L 191.468197 -83.131379 
L 191.278959 -83.093216 
L 191.089721 -83.054721 
L 190.900483 -83.015906 
L 190.711245 -82.976781 
L 190.522007 -82.937357 
L 190.332769 -82.897644 
L 190.143531 -82.857652 
L 189.954293 -82.817392 
L 189.765055 -82.776875 
L 189.575817 -82.73611 
L 189.38658 -82.695106 
L 189.197342 -82.653875 
L 189.008104 -82.612426 
L 188.818866 -82.570769 
L 188.629628 -82.528913 
L 188.44039 -82.486868 
L 188.251152 -82.444643 
L 188.061914 -82.402247 
L 187.872676 -82.359691 
L 187.683438 -82.316982 
L 187.4942 -82.274129 
L 187.304962 -82.231143 
L 187.115724 -82.188031 
L 186.926486 -82.144801 
L 186.737248 -82.101463 
L 186.54801 -82.058025 
L 186.358772 -82.014495 
L 186.169534 -81.970881 
L 185.980296 -81.927191 
L 185.791058 -81.883433 
L 185.60182 -81.839615 
L 185.412582 -81.795743 
L 185.223344 -81.751827 
L 185.034106 -81.707872 
L 184.844868 -81.663886 
L 184.65563 -81.619877 
L 184.466392 -81.57585 
L 184.277154 -81.531814 
L 184.087916 -81.487773 
L 183.898679 -81.443735 
L 183.709441 -81.399707 
L 183.520203 -81.355693 
L 183.330965 -81.311701 
L 183.141727 -81.267736 
L 182.952489 -81.223804 
L 182.763251 -81.17991 
L 182.574013 -81.13606 
L 182.384775 -81.092259 
L 182.195537 -81.048512 
L 182.006299 -81.004824 
L 181.817061 -80.9612 
L 181.627823 -80.917646 
L 181.438585 -80.874164 
L 181.249347 -80.83076 
L 181.060109 -80.787437 
L 180.870871 -80.744201 
L 180.681633 -80.701054 
L 180.492395 -80.658002 
L 180.303157 -80.615046 
L 180.113919 -80.572191 
L 179.924681 -80.529441 
L 179.735443 -80.486797 
L 179.546205 -80.444264 
L 179.356967 -80.401845 
L 179.167729 -80.359542 
L 178.978491 -80.317357 
L 178.789253 -80.275294 
L 178.600015 -80.233355 
L 178.410778 -80.191541 
L 178.22154 -80.149856 
L 178.032302 -80.108301 
L 177.843064 -80.066877 
L 177.653826 -80.025588 
L 177.464588 -79.984434 
L 177.27535 -79.943416 
L 177.086112 -79.902537 
L 176.896874 -79.861797 
L 176.707636 -79.821198 
L 176.518398 -79.78074 
L 176.32916 -79.740425 
L 176.139922 -79.700253 
L 175.950684 -79.660225 
L 175.761446 -79.620342 
L 175.572208 -79.580604 
L 175.38297 -79.541011 
L 175.193732 -79.501564 
L 175.004494 -79.462264 
L 174.815256 -79.423109 
L 174.626018 -79.384101 
L 174.43678 -79.345239 
L 174.247542 -79.306523 
L 174.058304 -79.267953 
L 173.869066 -79.229528 
L 173.679828 -79.191249 
L 173.49059 -79.153115 
L 173.301352 -79.115125 
L 173.112114 -79.077279 
L 172.922876 -79.039576 
L 172.733639 -79.002015 
L 172.544401 -78.964597 
L 172.355163 -78.92732 
L 172.165925 -78.890183 
L 171.976687 -78.853186 
L 171.787449 -78.816327 
L 171.598211 -78.779606 
L 171.408973 -78.743022 
L 171.219735 -78.706574 
L 171.030497 -78.67026 
L 170.841259 -78.634081 
L 170.652021 -78.598034 
L 170.462783 -78.562118 
L 170.273545 -78.526333 
L 170.084307 -78.490678 
L 169.895069 -78.455151 
L 169.705831 -78.419751 
L 169.516593 -78.384478 
L 169.327355 -78.349329 
L 169.138117 -78.314304 
L 168.948879 -78.279402 
L 168.759641 -78.244622 
L 168.570403 -78.209962 
L 168.381165 -78.175422 
L 168.191927 -78.141 
L 168.002689 -78.106696 
L 167.813451 -78.072508 
L 167.624213 -78.038435 
L 167.434975 -78.004477 
L 167.245738 -77.970632 
L 167.0565 -77.936899 
L 166.867262 -77.903278 
L 166.678024 -77.869768 
L 166.488786 -77.836368 
L 166.299548 -77.803077 
L 166.11031 -77.769894 
L 165.921072 -77.736819 
L 165.731834 -77.703851 
L 165.542596 -77.670989 
L 165.353358 -77.638233 
L 165.16412 -77.605583 
L 164.974882 -77.573037 
L 164.785644 -77.540596 
L 164.596406 -77.508259 
L 164.407168 -77.476026 
L 164.21793 -77.443896 
L 164.028692 -77.41187 
L 163.839454 -77.379947 
L 163.650216 -77.348128 
L 163.460978 -77.316411 
L 163.27174 -77.284798 
L 163.082502 -77.253289 
L 162.893264 -77.221883 
L 162.704026 -77.190581 
L 162.514788 -77.159384 
L 162.32555 -77.128291 
L 162.136312 -77.097303 
L 161.947074 -77.066421 
L 161.757837 -77.035645 
L 161.568599 -77.004977 
L 161.379361 -76.974416 
L 161.190123 -76.943964 
L 161.000885 -76.913622 
L 160.811647 -76.88339 
L 160.622409 -76.85327 
L 160.433171 -76.823263 
L 160.243933 -76.79337 
L 160.054695 -76.763593 
L 159.865457 -76.733932 
L 159.676219 -76.70439 
L 159.486981 -76.674967 
L 159.297743 -76.645666 
L 159.108505 -76.616488 
L 158.919267 -76.587436 
L 158.730029 -76.55851 
L 158.540791 -76.529713 
L 158.351553 -76.501046 
L 158.162315 -76.472513 
L 157.973077 -76.444115 
L 157.783839 -76.415854 
L 157.594601 -76.387733 
L 157.405363 -76.359755 
L 157.216125 -76.331921 
L 157.026887 -76.304234 
L 156.837649 -76.276698 
L 156.648411 -76.249314 
L 156.459173 -76.222086 
L 156.269935 -76.195017 
L 156.080698 -76.168109 
L 155.89146 -76.141366 
L 155.702222 -76.114791 
L 155.512984 -76.088386 
L 155.323746 -76.062156 
L 155.134508 -76.036104 
L 154.94527 -76.010234 
L 154.756032 -75.984547 
L 154.566794 -75.95905 
L 154.377556 -75.933744 
L 154.188318 -75.908635 
L 153.99908 -75.883725 
L 153.809842 -75.859019 
L 153.620604 -75.834521 
L 153.431366 -75.810235 
L 153.242128 -75.786165 
L 153.05289 -75.762315 
L 152.863652 -75.738689 
L 152.674414 -75.715293 
L 152.485176 -75.69213 
L 152.295938 -75.669205 
L 152.1067 -75.646522 
L 151.917462 -75.624087 
L 151.728224 -75.601903 
L 151.538986 -75.579976 
L 151.349748 -75.558312 
L 151.16051 -75.536913 
L 150.971272 -75.515786 
L 150.782034 -75.494936 
L 150.592797 -75.474368 
L 150.403559 -75.454087 
L 150.214321 -75.434098 
L 150.025083 -75.414407 
L 149.835845 -75.395019 
L 149.646607 -75.37594 
L 149.457369 -75.357175 
L 149.268131 -75.33873 
L 149.078893 -75.32061 
L 148.889655 -75.302821 
L 148.700417 -75.285369 
L 148.511179 -75.26826 
L 148.321941 -75.2515 
L 148.132703 -75.235094 
L 147.943465 -75.219049 
L 147.754227 -75.203371 
L 147.564989 -75.188066 
L 147.375751 -75.173139 
L 147.186513 -75.158599 
L 146.997275 -75.144449 
L 146.808037 -75.130698 
L 146.618799 -75.117351 
L 146.429561 -75.104415 
L 146.240323 -75.091897 
L 146.051085 -75.079802 
L 145.861847 -75.068138 
L 145.672609 -75.056911 
L 145.483371 -75.046128 
L 145.294133 -75.035796 
L 145.104896 -75.025921 
L 144.915658 -75.016511 
L 144.72642 -75.007572 
L 144.537182 -74.999111 
L 144.347944 -74.991135 
L 144.158706 -74.983652 
L 143.969468 -74.976668 
L 143.78023 -74.97019 
L 143.590992 -74.964226 
L 143.401754 -74.958783 
L 143.212516 -74.953868 
L 143.023278 -74.949488 
L 142.83404 -74.945651 
L 142.644802 -74.942364 
L 142.455564 -74.939635 
L 142.266326 -74.93747 
L 142.077088 -74.935878 
L 141.88785 -74.934865 
L 141.698612 -74.93444 
L 141.509374 -74.93461 
L 141.320136 -74.935383 
L 141.130898 -74.936766 
L 140.94166 -74.938767 
L 140.752422 -74.941393 
L 140.563184 -74.944653 
L 140.373946 -74.948554 
L 140.184708 -74.953104 
L 139.99547 -74.958311 
L 139.806232 -74.964183 
L 139.616994 -74.970727 
L 139.427757 -74.977951 
L 139.238519 -74.985864 
L 139.049281 -74.994473 
L 138.860043 -75.003787 
L 138.670805 -75.013813 
L 138.481567 -75.024559 
L 138.292329 -75.036034 
L 138.103091 -75.048245 
L 137.913853 -75.061201 
L 137.724615 -75.07491 
L 137.535377 -75.089379 
L 137.346139 -75.104617 
L 137.156901 -75.120633 
L 136.967663 -75.137433 
L 136.778425 -75.155028 
L 136.589187 -75.173424 
L 136.399949 -75.19263 
L 136.210711 -75.212654 
L 136.021473 -75.233505 
L 135.832235 -75.25519 
L 135.642997 -75.277719 
L 135.453759 -75.301098 
L 135.264521 -75.325338 
L 135.075283 -75.350445 
L 134.886045 -75.376428 
L 134.696807 -75.403295 
L 134.507569 -75.431056 
L 134.318331 -75.459717 
L 134.129093 -75.489288 
L 133.939856 -75.519777 
L 133.750618 -75.551192 
L 133.56138 -75.583541 
L 133.372142 -75.616832 
L 133.182904 -75.651075 
L 132.993666 -75.686277 
L 132.804428 -75.722447 
L 132.61519 -75.759592 
L 132.425952 -75.797722 
L 132.236714 -75.836844 
L 132.047476 -75.876966 
L 131.858238 -75.918098 
L 131.669 -75.960247 
L 131.479762 -76.003421 
L 131.290524 -76.047629 
L 131.101286 -76.092879 
L 130.912048 -76.139179 
L 130.72281 -76.186537 
L 130.533572 -76.234962 
L 130.344334 -76.28446 
L 130.155096 -76.335042 
L 129.965858 -76.386714 
L 129.77662 -76.439484 
L 129.587382 -76.493361 
L 129.398144 -76.548353 
L 129.208906 -76.604467 
L 129.019668 -76.661712 
L 128.83043 -76.720094 
L 128.641192 -76.779623 
L 128.451955 -76.840306 
L 128.262717 -76.90215 
L 128.073479 -76.965164 
L 127.884241 -77.029355 
L 127.695003 -77.09473 
L 127.505765 -77.161297 
L 127.316527 -77.229064 
L 127.127289 -77.298038 
L 126.938051 -77.368226 
L 126.748813 -77.439636 
L 126.559575 -77.512274 
L 126.370337 -77.586149 
L 126.181099 -77.661267 
L 125.991861 -77.737636 
L 125.802623 -77.815262 
L 125.613385 -77.894152 
L 125.424147 -77.974312 
L 125.234909 -78.055751 
L 125.045671 -78.138474 
L 124.856433 -78.222488 
L 124.667195 -78.307799 
L 124.477957 -78.394414 
L 124.288719 -78.482339 
L 124.099481 -78.57158 
L 123.910243 -78.662144 
L 123.721005 -78.754035 
L 123.531767 -78.847261 
L 123.342529 -78.941827 
L 123.153291 -79.037739 
L 122.964053 -79.135001 
L 122.774816 -79.23362 
L 122.585578 -79.333601 
L 122.39634 -79.434948 
L 122.207102 -79.537668 
L 122.017864 -79.641764 
L 121.828626 -79.747241 
L 121.639388 -79.854105 
L 121.45015 -79.962359 
L 121.260912 -80.072008 
L 121.071674 -80.183056 
L 120.882436 -80.295507 
L 120.693198 -80.409365 
L 120.50396 -80.524633 
L 120.314722 -80.641316 
L 120.125484 -80.759415 
L 119.936246 -80.878935 
L 119.747008 -80.999879 
L 119.55777 -81.122248 
L 119.368532 -81.246047 
L 119.179294 -81.371277 
L 118.990056 -81.49794 
L 118.800818 -81.626039 
L 118.61158 -81.755575 
L 118.422342 -81.886551 
L 118.233104 -82.018967 
L 118.043866 -82.152824 
L 117.854628 -82.288125 
L 117.66539 -82.424869 
L 117.476152 -82.563058 
L 117.286915 -82.702691 
L 117.097677 -82.843769 
L 116.908439 -82.986291 
L 116.719201 -83.130258 
L 116.529963 -83.275669 
L 116.340725 -83.422524 
L 116.151487 -83.570821 
L 115.962249 -83.720558 
L 115.773011 -83.871736 
L 115.583773 -84.024352 
L 115.394535 -84.178403 
L 115.205297 -84.333889 
L 115.016059 -84.490806 
L 114.826821 -84.649153 
L 114.637583 -84.808925 
L 114.448345 -84.970121 
L 114.259107 -85.132736 
L 114.069869 -85.296768 
L 113.880631 -85.462211 
L 113.691393 -85.629063 
L 113.502155 -85.797319 
L 113.312917 -85.966974 
L 113.123679 -86.138023 
L 112.934441 -86.310462 
L 112.745203 -86.484285 
L 112.555965 -86.659486 
L 112.366727 -86.83606 
L 112.177489 -87.014001 
L 111.988251 -87.193302 
L 111.799014 -87.373957 
L 111.609776 -87.555959 
L 111.420538 -87.739301 
L 111.2313 -87.923977 
L 111.042062 -88.109977 
L 110.852824 -88.297295 
L 110.663586 -88.485923 
L 110.474348 -88.675852 
L 110.28511 -88.867075 
L 110.095872 -89.059582 
L 109.906634 -89.253365 
L 109.717396 -89.448414 
L 109.528158 -89.644721 
L 109.33892 -89.842275 
L 109.149682 -90.041068 
L 108.960444 -90.241089 
L 108.771206 -90.442328 
L 108.581968 -90.644775 
L 108.39273 -90.848419 
L 108.203492 -91.05325 
L 108.014254 -91.259256 
L 107.825016 -91.466427 
L 107.635778 -91.674751 
L 107.44654 -91.884217 
L 107.257302 -92.094813 
L 107.068064 -92.306527 
L 106.878826 -92.519347 
L 106.689588 -92.733261 
L 106.50035 -92.948257 
L 106.311112 -93.164323 
L 106.121875 -93.381444 
L 105.932637 -93.599609 
L 105.743399 -93.818805 
L 105.554161 -94.039019 
L 105.364923 -94.260236 
L 105.175685 -94.482445 
L 104.986447 -94.70563 
L 104.797209 -94.929779 
L 104.607971 -95.154878 
L 104.418733 -95.380912 
L 104.229495 -95.607868 
L 104.040257 -95.835731 
L 103.851019 -96.064487 
L 103.661781 -96.294121 
L 103.472543 -96.524619 
L 103.283305 -96.755967 
L 103.094067 -96.988148 
L 102.904829 -97.221149 
L 102.715591 -97.454955 
L 102.526353 -97.68955 
L 102.337115 -97.924918 
L 102.147877 -98.161045 
L 101.958639 -98.397916 
L 101.769401 -98.635514 
L 101.580163 -98.873824 
L 101.390925 -99.112831 
L 101.201687 -99.352518 
L 101.012449 -99.59287 
L 100.823211 -99.833871 
L 100.633974 -100.075504 
L 100.444736 -100.317754 
L 100.255498 -100.560604 
L 100.06626 -100.804039 
L 99.877022 -101.048041 
L 99.687784 -101.292595 
L 99.498546 -101.537684 
L 99.309308 -101.783291 
L 99.12007 -102.0294 
L 98.930832 -102.275994 
L 98.741594 -102.523057 
L 98.552356 -102.770571 
L 98.363118 -103.018519 
L 98.17388 -103.266886 
L 97.984642 -103.515654 
L 97.795404 -103.764805 
L 97.606166 -104.014323 
L 97.416928 -104.26419 
L 97.22769 -104.51439 
L 97.038452 -104.764905 
L 96.849214 -105.015718 
L 96.659976 -105.266812 
L 96.470738 -105.518168 
L 96.2815 -105.76977 
L 96.092262 -106.0216 
L 95.903024 -106.27364 
L 95.713786 -106.525874 
L 95.524548 -106.778282 
L 95.33531 -107.030848 
L 95.146073 -107.283554 
L 94.956835 -107.536382 
L 94.767597 -107.789314 
L 94.578359 -108.042332 
L 94.389121 -108.295418 
L 94.199883 -108.548554 
L 94.010645 -108.801723 
L 93.821407 -109.054906 
L 93.632169 -109.308085 
L 93.442931 -109.561241 
L 93.253693 -109.814357 
L 93.064455 -110.067415 
L 92.875217 -110.320395 
L 92.685979 -110.57328 
L 92.496741 -110.826051 
L 92.307503 -111.07869 
L 92.118265 -111.331178 
L 91.929027 -111.583497 
L 91.739789 -111.835628 
L 91.550551 -112.087552 
L 91.361313 -112.339251 
L 91.172075 -112.590707 
L 90.982837 -112.841899 
L 90.793599 -113.09281 
L 90.604361 -113.34342 
L 90.415123 -113.593711 
L 90.225885 -113.843663 
L 90.036647 -114.093258 
L 89.847409 -114.342476 
L 89.658171 -114.591299 
L 89.468934 -114.839707 
L 89.279696 -115.087681 
L 89.090458 -115.335202 
L 88.90122 -115.58225 
L 88.711982 -115.828806 
L 88.522744 -116.074851 
L 88.333506 -116.320365 
L 88.144268 -116.565328 
L 87.95503 -116.809721 
L 87.765792 -117.053525 
L 87.576554 -117.296719 
L 87.387316 -117.539284 
L 87.198078 -117.781201 
L 87.00884 -118.022449 
L 86.819602 -118.263008 
L 86.630364 -118.502858 
L 86.441126 -118.74198 
L 86.251888 -118.980353 
L 86.06265 -119.217958 
L 85.873412 -119.454774 
L 85.684174 -119.69078 
L 85.494936 -119.925957 
L 85.305698 -120.160284 
L 85.11646 -120.393741 
L 84.927222 -120.626307 
L 84.737984 -120.857962 
L 84.548746 -121.088686 
L 84.359508 -121.318456 
L 84.17027 -121.547254 
L 83.981033 -121.775058 
L 83.791795 -122.001847 
L 83.602557 -122.2276 
L 83.413319 -122.452297 
L 83.224081 -122.675917 
L 83.034843 -122.898438 
L 82.845605 -123.119839 
L 82.656367 -123.340099 
L 82.467129 -123.559197 
L 82.277891 -123.777111 
L 82.088653 -123.993821 
L 81.899415 -124.209304 
L 81.710177 -124.423539 
L 81.520939 -124.636505 
L 81.331701 -124.84818 
L 81.142463 -125.058542 
L 80.953225 -125.26757 
L 80.763987 -125.475241 
L 80.574749 -125.681533 
L 80.385511 -125.886426 
L 80.196273 -126.089896 
L 80.007035 -126.291922 
L 79.817797 -126.492481 
L 79.628559 -126.691551 
L 79.439321 -126.889111 
L 79.250083 -127.085136 
L 79.060845 -127.279606 
L 78.871607 -127.472497 
L 78.682369 -127.663786 
L 78.493132 -127.853453 
L 78.303894 -128.041472 
L 78.114656 -128.227822 
L 77.925418 -128.41248 
L 77.73618 -128.595423 
L 77.546942 -128.776627 
L 77.357704 -128.95607 
L 77.168466 -129.133729 
L 76.979228 -129.30958 
L 76.78999 -129.4836 
L 76.600752 -129.655766 
L 76.411514 -129.826053 
L 76.222276 -129.994439 
L 76.033038 -130.160901 
L 75.8438 -130.325413 
L 75.654562 -130.487953 
L 75.465324 -130.648496 
L 75.276086 -130.80702 
L 75.086848 -130.963499 
L 74.89761 -131.117909 
L 74.708372 -131.270228 
L 74.519134 -131.420429 
L 74.329896 -131.56849 
L 74.140658 -131.714385 
L 73.95142 -131.85809 
L 73.762182 -131.999581 
L 73.572944 -132.138833 
L 73.383706 -132.275822 
L 73.194468 -132.410522 
L 73.00523 -132.542908 
L 72.815993 -132.672957 
L 72.626755 -132.800642 
L 72.437517 -132.925939 
L 72.248279 -133.048823 
L 72.059041 -133.169268 
L 71.869803 -133.287248 
L 71.680565 -133.40274 
L 71.491327 -133.515716 
L 71.302089 -133.626152 
L 71.112851 -133.734022 
L 70.923613 -133.8393 
L 70.734375 -133.94196 
L 70.545137 -134.041977 
L 70.355899 -134.139324 
L 70.166661 -134.233975 
L 69.977423 -134.325905 
L 69.788185 -134.415086 
L 69.598947 -134.501494 
L 69.409709 -134.5851 
L 69.220471 -134.66588 
L 69.031233 -134.743805 
L 68.841995 -134.81885 
L 68.652757 -134.890988 
L 68.463519 -134.960192 
L 68.274281 -135.026436 
L 68.085043 -135.089691 
L 67.895805 -135.149931 
L 67.706567 -135.207129 
L 67.517329 -135.261258 
L 67.328092 -135.312291 
L 67.138854 -135.360199 
L 66.949616 -135.404956 
L 66.760378 -135.446533 
L 66.57114 -135.484904 
L 66.381902 -135.52004 
L 66.192664 -135.551913 
L 66.003426 -135.580497 
L 65.814188 -135.605762 
L 65.62495 -135.62768 
L 65.435712 -135.646224 
L 65.246474 -135.661364 
L 65.057236 -135.673073 
L 64.867998 -135.681323 
L 64.67876 -135.686084 
L 64.489522 -135.687328 
L 64.300284 -135.685026 
L 64.111046 -135.67915 
L 63.921808 -135.66967 
L 63.73257 -135.656558 
L 63.543332 -135.639784 
L 63.354094 -135.61932 
L 63.164856 -135.595135 
L 62.975618 -135.567202 
L 62.78638 -135.535489 
L 62.597142 -135.499968 
L 62.407904 -135.460609 
L 62.218666 -135.417383 
L 62.029428 -135.370259 
L 61.840191 -135.319208 
L 61.650953 -135.264199 
L 61.461715 -135.205203 
L 61.272477 -135.142189 
L 61.083239 -135.075128 
L 60.894001 -135.003988 
L 60.704763 -134.928739 
L 60.515525 -134.849352 
L 60.326287 -134.765794 
L 60.137049 -134.678036 
L 59.947811 -134.586047 
L 59.758573 -134.489795 
L 59.569335 -134.38925 
L 59.380097 -134.284381 
L 59.190859 -134.175156 
L 59.001621 -134.061544 
L 58.812383 -133.943514 
L 58.623145 -133.821034 
L 58.433907 -133.694073 
L 58.244669 -133.562599 
L 58.055431 -133.426581 
L 57.866193 -133.285986 
L 57.676955 -133.140782 
L 57.487717 -132.990938 
L 57.298479 -132.836422 
L 57.109241 -132.6772 
L 56.920003 -132.513242 
L 56.730765 -132.344514 
L 56.541527 -132.170983 
L 56.352289 -131.992619 
L 56.163052 -131.809386 
L 55.973814 -131.621254 
L 55.784576 -131.428189 
L 55.595338 -131.230157 
L 55.4061 -131.027127 
L 55.216862 -130.819064 
L 55.027624 -130.605936 
L 54.838386 -130.387708 
L 54.649148 -130.164349 
L 54.45991 -129.935823 
L 54.270672 -129.702098 
L 54.081434 -129.463139 
L 53.892196 -129.218913 
L 53.702958 -128.969386 
L 53.51372 -128.714524 
L 53.324482 -128.454292 
L 53.135244 -128.188657 
L 52.946006 -127.917584 
L 52.756768 -127.641038 
L 52.56753 -127.358986 
L 52.378292 -127.071391 
L 52.189054 -126.778221 
L 51.999816 -126.479439 
L 51.810578 -126.175012 
L 51.62134 -125.864903 
L 51.432102 -125.549078 
L 51.242864 -125.227501 
L 51.053626 -124.900138 
L 50.864388 -124.566953 
L 50.675151 -124.227909 
L 50.485913 -123.882973 
L 50.296675 -123.532107 
L 50.107437 -123.175277 
L 49.918199 -122.812445 
L 49.728961 -122.443577 
L 49.539723 -122.068636 
L 49.350485 -121.687586 
L 49.161247 -121.30039 
L 48.972009 -120.907012 
L 48.782771 -120.507416 
L 48.593533 -120.101564 
L 48.404295 -119.689421 
L 48.215057 -119.270949 
L 48.025819 -118.846112 
L 47.836581 -118.414872 
L 47.647343 -117.977192 
L 47.458105 -117.533036 
L 47.268867 -117.082365 
L 47.079629 -116.625142 
L 46.890391 -116.161331 
L 46.701153 -115.690892 
L 46.511915 -115.213789 
L 46.322677 -114.729983 
L 46.133439 -114.239437 
L 45.944201 -113.742112 
L 45.754963 -113.237971 
L 45.565725 -112.726974 
L 45.376487 -112.209085 
L 45.18725 -111.684264 
L 44.998012 -111.152473 
L 44.808774 -110.613673 
L 44.619536 -110.067825 
L 44.430298 -109.514891 
L 44.24106 -108.954831 
L 44.051822 -108.387607 
L 43.862584 -107.813179 
z
" style="stroke: #1f77b4; stroke-opacity: 0.2"/>
    </defs>
    <g clip-path="url(#p2e4e6b3281)">
     <use xlink:href="#m8122ef19d1" x="0" y="180" style="fill: #1f77b4; fill-opacity: 0.2; stroke: #1f77b4; stroke-opacity: 0.2"/>
    </g>
   </g>
   <g id="LineCollection_1">
    <path d="M 45.061052 80.962902 
L 45.061052 56.099022 
" clip-path="url(#p2e4e6b3281)" style="fill: none; stroke: #1f77b4; stroke-width: 1.25"/>
    <path d="M 59.906596 56.010187 
L 59.906596 35.754628 
" clip-path="url(#p2e4e6b3281)" style="fill: none; stroke: #1f77b4; stroke-width: 1.25"/>
    <path d="M 68.141234 69.374103 
L 68.141234 50.792734 
" clip-path="url(#p2e4e6b3281)" style="fill: none; stroke: #1f77b4; stroke-width: 1.25"/>
    <path d="M 79.816636 66.509706 
L 79.816636 48.831549 
" clip-path="url(#p2e4e6b3281)" style="fill: none; stroke: #1f77b4; stroke-width: 1.25"/>
    <path d="M 91.492038 84.01557 
L 91.492038 64.715381 
" clip-path="url(#p2e4e6b3281)" style="fill: none; stroke: #1f77b4; stroke-width: 1.25"/>
    <path d="M 102.510216 97.973056 
L 102.510216 80.156274 
" clip-path="url(#p2e4e6b3281)" style="fill: none; stroke: #1f77b4; stroke-width: 1.25"/>
    <path d="M 114.804182 120.617544 
L 114.804182 98.421306 
" clip-path="url(#p2e4e6b3281)" style="fill: none; stroke: #1f77b4; stroke-width: 1.25"/>
    <path d="M 130.22963 128.366188 
L 130.22963 101.471881 
" clip-path="url(#p2e4e6b3281)" style="fill: none; stroke: #1f77b4; stroke-width: 1.25"/>
    <path d="M 149.250484 126.803509 
L 149.250484 100.674226 
" clip-path="url(#p2e4e6b3281)" style="fill: none; stroke: #1f77b4; stroke-width: 1.25"/>
    <path d="M 162.240335 140.318486 
L 162.240335 102.166564 
" clip-path="url(#p2e4e6b3281)" style="fill: none; stroke: #1f77b4; stroke-width: 1.25"/>
    <path d="M 202.447018 134.596829 
L 202.447018 100.600004 
" clip-path="url(#p2e4e6b3281)" style="fill: none; stroke: #1f77b4; stroke-width: 1.25"/>
    <path d="M 232.911312 137.769568 
L 232.911312 104.138313 
" clip-path="url(#p2e4e6b3281)" style="fill: none; stroke: #1f77b4; stroke-width: 1.25"/>
   </g>
   <g id="line2d_1">
    <defs>
     <path id="m94b3ffb609" d="M 2.75 0 
L -2.75 -0 
" style="stroke: #1f77b4; stroke-width: 1.25"/>
    </defs>
    <g clip-path="url(#p2e4e6b3281)">
     <use xlink:href="#m94b3ffb609" x="45.061052" y="80.962902" style="fill: #1f77b4; stroke: #1f77b4; stroke-width: 1.25"/>
     <use xlink:href="#m94b3ffb609" x="59.906596" y="56.010187" style="fill: #1f77b4; stroke: #1f77b4; stroke-width: 1.25"/>
     <use xlink:href="#m94b3ffb609" x="68.141234" y="69.374103" style="fill: #1f77b4; stroke: #1f77b4; stroke-width: 1.25"/>
     <use xlink:href="#m94b3ffb609" x="79.816636" y="66.509706" style="fill: #1f77b4; stroke: #1f77b4; stroke-width: 1.25"/>
     <use xlink:href="#m94b3ffb609" x="91.492038" y="84.01557" style="fill: #1f77b4; stroke: #1f77b4; stroke-width: 1.25"/>
     <use xlink:href="#m94b3ffb609" x="102.510216" y="97.973056" style="fill: #1f77b4; stroke: #1f77b4; stroke-width: 1.25"/>
     <use xlink:href="#m94b3ffb609" x="114.804182" y="120.617544" style="fill: #1f77b4; stroke: #1f77b4; stroke-width: 1.25"/>
     <use xlink:href="#m94b3ffb609" x="130.22963" y="128.366188" style="fill: #1f77b4; stroke: #1f77b4; stroke-width: 1.25"/>
     <use xlink:href="#m94b3ffb609" x="149.250484" y="126.803509" style="fill: #1f77b4; stroke: #1f77b4; stroke-width: 1.25"/>
     <use xlink:href="#m94b3ffb609" x="162.240335" y="140.318486" style="fill: #1f77b4; stroke: #1f77b4; stroke-width: 1.25"/>
     <use xlink:href="#m94b3ffb609" x="202.447018" y="134.596829" style="fill: #1f77b4; stroke: #1f77b4; stroke-width: 1.25"/>
     <use xlink:href="#m94b3ffb609" x="232.911312" y="137.769568" style="fill: #1f77b4; stroke: #1f77b4; stroke-width: 1.25"/>
    </g>
   </g>
   <g id="line2d_2">
    <g clip-path="url(#p2e4e6b3281)">
     <use xlink:href="#m94b3ffb609" x="45.061052" y="56.099022" style="fill: #1f77b4; stroke: #1f77b4; stroke-width: 1.25"/>
     <use xlink:href="#m94b3ffb609" x="59.906596" y="35.754628" style="fill: #1f77b4; stroke: #1f77b4; stroke-width: 1.25"/>
     <use xlink:href="#m94b3ffb609" x="68.141234" y="50.792734" style="fill: #1f77b4; stroke: #1f77b4; stroke-width: 1.25"/>
     <use xlink:href="#m94b3ffb609" x="79.816636" y="48.831549" style="fill: #1f77b4; stroke: #1f77b4; stroke-width: 1.25"/>
     <use xlink:href="#m94b3ffb609" x="91.492038" y="64.715381" style="fill: #1f77b4; stroke: #1f77b4; stroke-width: 1.25"/>
     <use xlink:href="#m94b3ffb609" x="102.510216" y="80.156274" style="fill: #1f77b4; stroke: #1f77b4; stroke-width: 1.25"/>
     <use xlink:href="#m94b3ffb609" x="114.804182" y="98.421306" style="fill: #1f77b4; stroke: #1f77b4; stroke-width: 1.25"/>
     <use xlink:href="#m94b3ffb609" x="130.22963" y="101.471881" style="fill: #1f77b4; stroke: #1f77b4; stroke-width: 1.25"/>
     <use xlink:href="#m94b3ffb609" x="149.250484" y="100.674226" style="fill: #1f77b4; stroke: #1f77b4; stroke-width: 1.25"/>
     <use xlink:href="#m94b3ffb609" x="162.240335" y="102.166564" style="fill: #1f77b4; stroke: #1f77b4; stroke-width: 1.25"/>
     <use xlink:href="#m94b3ffb609" x="202.447018" y="100.600004" style="fill: #1f77b4; stroke: #1f77b4; stroke-width: 1.25"/>
     <use xlink:href="#m94b3ffb609" x="232.911312" y="104.138313" style="fill: #1f77b4; stroke: #1f77b4; stroke-width: 1.25"/>
    </g>
   </g>
   <g id="line2d_3">
    <path d="M 43.862584 72.186821 
L 45.565725 67.317799 
L 47.268867 63.088962 
L 48.972009 59.461507 
L 50.485913 56.711636 
L 51.999816 54.381839 
L 53.51372 52.447461 
L 55.027624 50.884634 
L 56.541527 49.670274 
L 57.866193 48.875995 
L 59.190859 48.316935 
L 60.515525 47.979056 
L 61.840191 47.848751 
L 63.354094 47.937113 
L 64.867998 48.260384 
L 66.381902 48.800266 
L 68.085043 49.644656 
L 69.977423 50.849086 
L 72.059041 52.461428 
L 74.329896 54.518783 
L 76.979228 57.250137 
L 80.007035 60.721508 
L 83.602557 65.200233 
L 88.711982 71.961758 
L 100.06626 87.092215 
L 104.418733 92.473097 
L 108.203492 96.823161 
L 111.799014 100.622873 
L 115.205297 103.893998 
L 118.422342 106.673143 
L 121.45015 109.005555 
L 124.477957 111.060861 
L 127.505765 112.841013 
L 130.533572 114.351855 
L 133.56138 115.602763 
L 136.589187 116.606277 
L 139.616994 117.377735 
L 142.83404 117.963061 
L 146.240323 118.345727 
L 149.835845 118.518702 
L 153.809842 118.479943 
L 158.351553 118.208131 
L 164.407168 117.606431 
L 178.22154 116.153009 
L 183.330965 115.880238 
L 187.872676 115.850495 
L 192.225149 116.036594 
L 196.577622 116.44042 
L 201.119333 117.081899 
L 206.417996 118.064767 
L 222.313986 121.21261 
L 225.531031 121.518568 
L 228.369601 121.566629 
L 230.829694 121.391251 
L 232.911312 121.051645 
L 232.911312 121.051645 
" clip-path="url(#p2e4e6b3281)" style="fill: none; stroke: #1f77b4; stroke-width: 1.5; stroke-linecap: square"/>
   </g>
   <g id="line2d_4">
    <defs>
     <path id="m206a60cd27" d="M 0 4 
C 1.060812 4 2.078319 3.578535 2.828427 2.828427 
C 3.578535 2.078319 4 1.060812 4 0 
C 4 -1.060812 3.578535 -2.078319 2.828427 -2.828427 
C 2.078319 -3.578535 1.060812 -4 0 -4 
C -1.060812 -4 -2.078319 -3.578535 -2.828427 -2.828427 
C -3.578535 -2.078319 -4 -1.060812 -4 0 
C -4 1.060812 -3.578535 2.078319 -2.828427 2.828427 
C -2.078319 3.578535 -1.060812 4 0 4 
z
" style="stroke: #1f77b4; stroke-width: 1.25"/>
    </defs>
    <g clip-path="url(#p2e4e6b3281)">
     <use xlink:href="#m206a60cd27" x="45.061052" y="68.530962" style="fill-opacity: 0; stroke: #1f77b4; stroke-width: 1.25"/>
     <use xlink:href="#m206a60cd27" x="59.906596" y="45.882407" style="fill-opacity: 0; stroke: #1f77b4; stroke-width: 1.25"/>
     <use xlink:href="#m206a60cd27" x="68.141234" y="60.083419" style="fill-opacity: 0; stroke: #1f77b4; stroke-width: 1.25"/>
     <use xlink:href="#m206a60cd27" x="79.816636" y="57.670628" style="fill-opacity: 0; stroke: #1f77b4; stroke-width: 1.25"/>
     <use xlink:href="#m206a60cd27" x="91.492038" y="74.365476" style="fill-opacity: 0; stroke: #1f77b4; stroke-width: 1.25"/>
     <use xlink:href="#m206a60cd27" x="102.510216" y="89.064665" style="fill-opacity: 0; stroke: #1f77b4; stroke-width: 1.25"/>
     <use xlink:href="#m206a60cd27" x="114.804182" y="109.519425" style="fill-opacity: 0; stroke: #1f77b4; stroke-width: 1.25"/>
     <use xlink:href="#m206a60cd27" x="130.22963" y="114.919034" style="fill-opacity: 0; stroke: #1f77b4; stroke-width: 1.25"/>
     <use xlink:href="#m206a60cd27" x="149.250484" y="113.738868" style="fill-opacity: 0; stroke: #1f77b4; stroke-width: 1.25"/>
     <use xlink:href="#m206a60cd27" x="162.240335" y="121.242525" style="fill-opacity: 0; stroke: #1f77b4; stroke-width: 1.25"/>
     <use xlink:href="#m206a60cd27" x="202.447018" y="117.598416" style="fill-opacity: 0; stroke: #1f77b4; stroke-width: 1.25"/>
     <use xlink:href="#m206a60cd27" x="232.911312" y="120.953941" style="fill-opacity: 0; stroke: #1f77b4; stroke-width: 1.25"/>
    </g>
   </g>
   <g id="patch_3">
    <path d="M 43.862584 144.428666 
L 43.862584 17.735865 
" style="fill: none; stroke: #000000; stroke-linejoin: miter; stroke-linecap: square"/>
   </g>
   <g id="patch_4">
    <path d="M 275.824213 144.428666 
L 275.824213 17.735865 
" style="fill: none; stroke: #000000; stroke-linejoin: miter; stroke-linecap: square"/>
   </g>
   <g id="patch_5">
    <path d="M 43.862584 144.428666 
L 275.824213 144.428666 
" style="fill: none; stroke: #000000; stroke-linejoin: miter; stroke-linecap: square"/>
   </g>
   <g id="patch_6">
    <path d="M 43.862584 17.735865 
L 275.824213 17.735865 
" style="fill: none; stroke: #000000; stroke-linejoin: miter; stroke-linecap: square"/>
   </g>
   <g id="matplotlib.axis_1">
    <g id="xtick_1">
     <g id="line2d_5">
      <defs>
       <path id="me16dbc5c9f" d="M 0 0 
L 0 3.75 
" style="stroke: #000000; stroke-width: 1.25"/>
      </defs>
      <g>
       <use xlink:href="#me16dbc5c9f" x="43.862584" y="144.428666" style="stroke: #000000; stroke-width: 1.25"/>
      </g>
     </g>
     <g id="text_1">
      <text style="font: 11px 'Arial'; text-anchor: middle" x="43.862584" y="159.55226" transform="rotate(-0 43.862584 159.55226)">0</text>
     </g>
    </g>
    <g id="xtick_2">
     <g id="line2d_6">
      <g>
       <use xlink:href="#me16dbc5c9f" x="90.25491" y="144.428666" style="stroke: #000000; stroke-width: 1.25"/>
      </g>
     </g>
     <g id="text_2">
      <text style="font: 11px 'Arial'; text-anchor: middle" x="90.25491" y="159.55226" transform="rotate(-0 90.25491 159.55226)">20</text>
     </g>
    </g>
    <g id="xtick_3">
     <g id="line2d_7">
      <g>
       <use xlink:href="#me16dbc5c9f" x="136.647236" y="144.428666" style="stroke: #000000; stroke-width: 1.25"/>
      </g>
     </g>
     <g id="text_3">
      <text style="font: 11px 'Arial'; text-anchor: middle" x="136.647236" y="159.55226" transform="rotate(-0 136.647236 159.55226)">40</text>
     </g>
    </g>
    <g id="xtick_4">
     <g id="line2d_8">
      <g>
       <use xlink:href="#me16dbc5c9f" x="183.039561" y="144.428666" style="stroke: #000000; stroke-width: 1.25"/>
      </g>
     </g>
     <g id="text_4">
      <text style="font: 11px 'Arial'; text-anchor: middle" x="183.039561" y="159.55226" transform="rotate(-0 183.039561 159.55226)">60</text>
     </g>
    </g>
    <g id="xtick_5">
     <g id="line2d_9">
      <g>
       <use xlink:href="#me16dbc5c9f" x="229.431887" y="144.428666" style="stroke: #000000; stroke-width: 1.25"/>
      </g>
     </g>
     <g id="text_5">
      <text style="font: 11px 'Arial'; text-anchor: middle" x="229.431887" y="159.55226" transform="rotate(-0 229.431887 159.55226)">80</text>
     </g>
    </g>
    <g id="xtick_6">
     <g id="line2d_10">
      <g>
       <use xlink:href="#me16dbc5c9f" x="275.824213" y="144.428666" style="stroke: #000000; stroke-width: 1.25"/>
      </g>
     </g>
     <g id="text_6">
      <text style="font: 11px 'Arial'; text-anchor: middle" x="275.824213" y="159.55226" transform="rotate(-0 275.824213 159.55226)">100</text>
     </g>
    </g>
    <g id="text_7">
     <text style="font: 12px 'Arial'; text-anchor: middle" x="159.843398" y="174.474135" transform="rotate(-0 159.843398 174.474135)">Time (min)</text>
    </g>
   </g>
   <g id="matplotlib.axis_2">
    <g id="ytick_1">
     <g id="line2d_11">
      <defs>
       <path id="m28089da49f" d="M 0 0 
L -3.75 0 
" style="stroke: #000000; stroke-width: 1.25"/>
      </defs>
      <g>
       <use xlink:href="#m28089da49f" x="43.862584" y="144.428666" style="stroke: #000000; stroke-width: 1.25"/>
      </g>
     </g>
     <g id="text_8">
      <text style="font: 11px 'Arial'; text-anchor: end" x="36.612584" y="148.365463" transform="rotate(-0 36.612584 148.365463)">400</text>
     </g>
    </g>
    <g id="ytick_2">
     <g id="line2d_12">
      <g>
       <use xlink:href="#m28089da49f" x="43.862584" y="119.090106" style="stroke: #000000; stroke-width: 1.25"/>
      </g>
     </g>
     <g id="text_9">
      <text style="font: 11px 'Arial'; text-anchor: end" x="36.612584" y="123.026903" transform="rotate(-0 36.612584 123.026903)">500</text>
     </g>
    </g>
    <g id="ytick_3">
     <g id="line2d_13">
      <g>
       <use xlink:href="#m28089da49f" x="43.862584" y="93.751546" style="stroke: #000000; stroke-width: 1.25"/>
      </g>
     </g>
     <g id="text_10">
      <text style="font: 11px 'Arial'; text-anchor: end" x="36.612584" y="97.688343" transform="rotate(-0 36.612584 97.688343)">600</text>
     </g>
    </g>
    <g id="ytick_4">
     <g id="line2d_14">
      <g>
       <use xlink:href="#m28089da49f" x="43.862584" y="68.412986" style="stroke: #000000; stroke-width: 1.25"/>
      </g>
     </g>
     <g id="text_11">
      <text style="font: 11px 'Arial'; text-anchor: end" x="36.612584" y="72.349782" transform="rotate(-0 36.612584 72.349782)">700</text>
     </g>
    </g>
    <g id="ytick_5">
     <g id="line2d_15">
      <g>
       <use xlink:href="#m28089da49f" x="43.862584" y="43.074425" style="stroke: #000000; stroke-width: 1.25"/>
      </g>
     </g>
     <g id="text_12">
      <text style="font: 11px 'Arial'; text-anchor: end" x="36.612584" y="47.011222" transform="rotate(-0 36.612584 47.011222)">800</text>
     </g>
    </g>
    <g id="ytick_6">
     <g id="line2d_16">
      <g>
       <use xlink:href="#m28089da49f" x="43.862584" y="17.735865" style="stroke: #000000; stroke-width: 1.25"/>
      </g>
     </g>
     <g id="text_13">
      <text style="font: 11px 'Arial'; text-anchor: end" x="36.612584" y="21.672662" transform="rotate(-0 36.612584 21.672662)">900</text>
     </g>
    </g>
    <g id="text_14">
     <text style="font: 12px 'Arial'; text-anchor: middle" x="11.735865" y="81.082266" transform="rotate(-90 11.735865 81.082266)">Temperature (C)</text>
    </g>
   </g>
   <g id="text_15">
    <text style="font: 700 12px 'Arial'; text-anchor: middle" x="159.843398" y="11.735865" transform="rotate(-0 159.843398 11.735865)">Surface temperature</text>
   </g>
   <g id="legend_1">
    <g id="patch_7">
     <path d="M 186.358588 51.265553 
L 271.824213 51.265553 
Q 273.824213 51.265553 273.824213 49.265553 
L 273.824213 21.735865 
Q 273.824213 19.735865 271.824213 19.735865 
L 186.358588 19.735865 
Q 184.358588 19.735865 184.358588 21.735865 
L 184.358588 49.265553 
Q 184.358588 51.265553 186.358588 51.265553 
z
" style="fill: #ffffff; opacity: 0.8; stroke: #cccccc; stroke-linejoin: miter"/>
    </g>
    <g id="line2d_17">
     <path d="M 188.358588 27.515553 
L 198.358588 27.515553 
L 208.358588 27.515553 
" style="fill: none; stroke: #1f77b4; stroke-width: 1.5; stroke-linecap: square"/>
    </g>
    <g id="text_16">
     <text style="font: 10px 'Arial'; text-anchor: start" x="210.358588" y="31.015553" transform="rotate(-0 210.358588 31.015553)">Polynomial fit</text>
    </g>
    <g id="LineCollection_2">
     <path d="M 198.358588 46.778053 
L 198.358588 36.778053 
" style="fill: none; stroke: #1f77b4; stroke-width: 1.25"/>
    </g>
    <g id="line2d_18">
     <g>
      <use xlink:href="#m94b3ffb609" x="198.358588" y="46.778053" style="fill: #1f77b4; stroke: #1f77b4; stroke-width: 1.25"/>
     </g>
    </g>
    <g id="line2d_19">
     <g>
      <use xlink:href="#m94b3ffb609" x="198.358588" y="36.778053" style="fill: #1f77b4; stroke: #1f77b4; stroke-width: 1.25"/>
     </g>
    </g>
    <g id="line2d_20"/>
    <g id="line2d_21">
     <g>
      <use xlink:href="#m206a60cd27" x="198.358588" y="41.778053" style="fill-opacity: 0; stroke: #1f77b4; stroke-width: 1.25"/>
     </g>
    </g>
    <g id="text_17">
     <text style="font: 10px 'Arial'; text-anchor: start" x="210.358588" y="45.278053" transform="rotate(-0 210.358588 45.278053)">Data</text>
    </g>
   </g>
  </g>
 </g>
 <defs>
  <clipPath id="p2e4e6b3281">
   <rect x="43.862584" y="17.735865" width="231.961629" height="126.692801"/>
  </clipPath>
 </defs>
</svg>
