<?xml version="1.0" encoding="utf-8" standalone="no"?>
<!DOCTYPE svg PUBLIC "-//W3C//DTD SVG 1.1//EN"
  "http://www.w3.org/Graphics/SVG/1.1/DTD/svg11.dtd">
<svg xmlns:xlink="http://www.w3.org/1999/xlink" width="324pt" height="252pt" viewBox="0 0 324 252" xmlns="http://www.w3.org/2000/svg" version="1.1">
 <metadata>
  <rdf:RDF xmlns:dc="http://purl.org/dc/elements/1.1/" xmlns:cc="http://creativecommons.org/ns#" xmlns:rdf="http://www.w3.org/1999/02/22-rdf-syntax-ns#">
   <cc:Work>
    <dc:type rdf:resource="http://purl.org/dc/dcmitype/StillImage"/>
    <dc:date>2024-12-06T11:02:49.138593</dc:date>
    <dc:format>image/svg+xml</dc:format>
    <dc:creator>
     <cc:Agent>
      <dc:title>Matplotlib v3.9.2, https://matplotlib.org/</dc:title>
     </cc:Agent>
    </dc:creator>
   </cc:Work>
  </rdf:RDF>
 </metadata>
 <defs>
  <style type="text/css">*{stroke-linejoin: round; stroke-linecap: butt}</style>
 </defs>
 <g id="figure_1">
  <g id="patch_1">
   <path d="M 0 252 
L 324 252 
L 324 0 
L 0 0 
z
" style="fill: #ffffff"/>
  </g>
  <g id="axes_1">
   <g id="patch_2">
    <path d="M 43.003987 216.404326 
L 320.99976 216.404326 
L 320.99976 17.735865 
L 43.003987 17.735865 
z
" style="fill: #ffffff"/>
   </g>
   <g id="PolyCollection_1">
    <path d="M 43.27895 216.146687 
L 43.27895 216.404326 
L 44.636075 216.404326 
L 45.992189 216.404326 
L 47.349314 216.404326 
L 48.705428 216.404326 
L 50.062553 216.404326 
L 51.420183 216.404326 
L 52.775791 216.404326 
L 54.133422 216.404326 
L 55.490547 216.404326 
L 56.848177 216.404326 
L 58.205807 216.404326 
L 59.562932 216.404326 
L 60.920562 216.404326 
L 62.277687 216.404326 
L 63.635317 216.404326 
L 64.993958 216.404326 
L 66.351589 216.404326 
L 67.708713 216.404326 
L 69.06786 216.404326 
L 70.42549 216.404326 
L 71.784131 216.404326 
L 73.141762 216.404326 
L 74.500403 216.404326 
L 75.85955 216.404326 
L 77.216674 216.404326 
L 78.575821 216.404326 
L 79.934968 216.404326 
L 81.293609 216.404326 
L 82.652755 216.404326 
L 84.011396 216.404326 
L 85.370543 216.404326 
L 86.72969 216.404326 
L 88.089847 216.404326 
L 89.448994 216.404326 
L 90.80814 216.404326 
L 92.168298 216.404326 
L 93.527444 216.404326 
L 94.887602 216.404326 
L 96.246749 216.404326 
L 97.607412 216.404326 
L 98.966053 216.404326 
L 100.326716 216.404326 
L 101.687379 216.404326 
L 103.047536 216.404326 
L 104.408199 216.404326 
L 105.768862 216.404326 
L 107.129019 216.404326 
L 108.489682 216.404326 
L 109.84984 216.404326 
L 111.210503 216.404326 
L 112.571166 216.404326 
L 113.93284 216.404326 
L 115.293503 216.404326 
L 116.654166 216.404326 
L 118.015839 216.404326 
L 119.376502 216.404326 
L 120.738682 216.404326 
L 122.100861 216.404326 
L 123.461018 216.404326 
L 124.823198 216.404326 
L 126.185377 216.404326 
L 127.547051 216.404326 
L 128.90923 216.404326 
L 130.271409 216.404326 
L 131.633083 216.404326 
L 132.995262 216.404326 
L 134.357442 216.404326 
L 135.719116 216.404326 
L 137.082811 216.404326 
L 138.444991 216.404326 
L 139.80717 216.404326 
L 141.17036 216.404326 
L 142.532539 216.404326 
L 143.896235 216.404326 
L 145.259931 216.404326 
L 146.621604 216.404326 
L 147.9853 216.404326 
L 149.348996 216.404326 
L 150.712691 216.404326 
L 152.075881 216.404326 
L 153.438061 216.404326 
L 154.801756 216.404326 
L 156.166968 216.404326 
L 157.530159 216.404326 
L 158.893854 216.404326 
L 160.25755 216.404326 
L 161.621245 216.404326 
L 162.985952 216.404326 
L 164.349648 216.404326 
L 165.714859 216.404326 
L 167.078555 216.404326 
L 168.443767 216.404326 
L 169.808474 216.404326 
L 171.172169 216.404326 
L 172.537381 216.404326 
L 173.902593 216.404326 
L 175.267805 216.404326 
L 176.632512 216.404326 
L 177.997724 216.404326 
L 179.362936 216.404326 
L 180.728148 216.404326 
L 182.09336 216.404326 
L 183.458066 216.404326 
L 184.823278 216.404326 
L 186.190006 216.404326 
L 187.555218 216.404326 
L 188.921947 216.404326 
L 190.286653 216.404326 
L 191.653381 216.404326 
L 193.018593 216.404326 
L 194.385322 216.404326 
L 195.75205 216.404326 
L 197.118778 216.404326 
L 198.48399 216.404326 
L 199.850213 216.404326 
L 201.216941 216.404326 
L 202.58367 216.404326 
L 203.950398 216.404326 
L 205.318643 216.404326 
L 206.685371 216.404326 
L 208.052099 216.404326 
L 209.418322 216.404326 
L 210.786567 216.404326 
L 212.153295 216.404326 
L 213.52154 216.404326 
L 214.888268 216.404326 
L 216.256513 216.404326 
L 217.623241 216.404326 
L 218.991486 216.404326 
L 220.35973 216.404326 
L 221.72747 216.404326 
L 223.095714 216.404326 
L 224.463959 216.404326 
L 225.832204 216.404326 
L 227.200448 216.404326 
L 228.568693 216.404326 
L 229.936937 216.404326 
L 231.305182 216.404326 
L 232.673427 216.404326 
L 234.043188 216.404326 
L 235.411432 216.404326 
L 236.781193 216.404326 
L 238.148933 216.404326 
L 239.518694 216.404326 
L 240.886938 216.404326 
L 242.256699 216.404326 
L 243.62646 216.404326 
L 244.996221 216.404326 
L 246.364466 216.404326 
L 247.734227 216.404326 
L 249.103988 216.404326 
L 250.473749 216.404326 
L 251.84351 216.404326 
L 253.214787 216.404326 
L 254.584548 216.404326 
L 255.954309 216.404326 
L 257.32407 216.404326 
L 258.695347 216.404326 
L 260.065108 216.404326 
L 261.436386 216.404326 
L 262.806147 216.404326 
L 264.177424 216.404326 
L 265.547185 216.404326 
L 266.918462 216.404326 
L 268.28974 216.404326 
L 269.661017 216.404326 
L 271.032294 216.404326 
L 272.403572 216.404326 
L 273.774849 216.404326 
L 275.146126 216.404326 
L 276.517404 216.404326 
L 277.888681 216.404326 
L 279.259958 216.404326 
L 280.632752 216.404326 
L 282.004029 216.404326 
L 283.375307 216.404326 
L 284.7481 216.404326 
L 286.119378 216.404326 
L 287.492171 216.404326 
L 288.864965 216.404326 
L 290.236242 216.404326 
L 291.609036 216.404326 
L 292.98183 216.404326 
L 294.354623 216.404326 
L 295.727417 216.404326 
L 297.100716 216.404326 
L 298.47351 216.404326 
L 299.846303 216.404326 
L 301.219097 216.404326 
L 302.591891 216.404326 
L 303.964684 216.404326 
L 305.338995 216.404326 
L 306.711788 216.404326 
L 308.086098 216.404326 
L 309.458892 216.404326 
L 310.833202 216.404326 
L 312.205996 216.404326 
L 313.580811 216.404326 
L 314.955121 216.404326 
L 316.327915 216.404326 
L 317.702225 216.404326 
L 319.076535 216.404326 
L 320.450845 216.404326 
L 320.450845 215.084306 
L 320.450845 215.084306 
L 319.076535 215.040291 
L 317.702225 214.994018 
L 316.327915 214.945327 
L 314.955121 214.894102 
L 313.580811 214.84004 
L 312.205996 214.782967 
L 310.833202 214.722762 
L 309.458892 214.659022 
L 308.086098 214.591611 
L 306.711788 214.520072 
L 305.338995 214.444224 
L 303.964684 214.363523 
L 302.591891 214.277728 
L 301.219097 214.186282 
L 299.846303 214.088663 
L 298.47351 213.984277 
L 297.100716 213.87246 
L 295.727417 213.752409 
L 294.354623 213.623352 
L 292.98183 213.48426 
L 291.609036 213.334001 
L 290.236242 213.171264 
L 288.864965 212.994726 
L 287.492171 212.802208 
L 286.119378 212.591783 
L 284.7481 212.361195 
L 283.375307 212.106902 
L 282.004029 211.825779 
L 280.632752 211.513017 
L 279.259958 211.162535 
L 277.888681 210.767896 
L 276.517404 210.319426 
L 275.146126 209.804846 
L 273.774849 209.207588 
L 272.403572 208.504704 
L 271.032294 207.663475 
L 269.661017 206.635694 
L 268.28974 205.347743 
L 266.918462 203.682781 
L 265.547185 201.448164 
L 264.177424 198.320668 
L 262.806147 193.738215 
L 261.436386 186.868865 
L 260.065108 177.073218 
L 258.695347 166.714824 
L 257.32407 163.537497 
L 255.954309 169.403602 
L 254.584548 176.295058 
L 253.214787 179.894002 
L 251.84351 179.945707 
L 250.473749 176.62784 
L 249.103988 169.730589 
L 247.734227 160.476834 
L 246.364466 155.436458 
L 244.996221 158.421462 
L 243.62646 162.591897 
L 242.256699 164.046817 
L 240.886938 163.169071 
L 239.518694 160.992516 
L 238.148933 158.354307 
L 236.781193 155.940036 
L 235.411432 154.304771 
L 234.043188 153.864949 
L 232.673427 154.818816 
L 231.305182 157.119427 
L 229.936937 160.516232 
L 228.568693 164.645081 
L 227.200448 169.13075 
L 225.832204 173.659251 
L 224.463959 178.007852 
L 223.095714 182.042593 
L 221.72747 185.699694 
L 220.35973 188.962444 
L 218.991486 191.847029 
L 217.623241 194.381569 
L 216.256513 196.599772 
L 214.888268 198.543735 
L 213.52154 200.244514 
L 212.153295 201.738121 
L 210.786567 203.049756 
L 209.418322 204.207188 
L 208.052099 205.228887 
L 206.685371 206.135264 
L 205.318643 206.941535 
L 203.950398 207.661762 
L 202.58367 208.305699 
L 201.216941 208.883861 
L 199.850213 209.40451 
L 198.48399 209.874554 
L 197.118778 210.299958 
L 195.75205 210.686704 
L 194.385322 211.038801 
L 193.018593 211.36015 
L 191.653381 211.65382 
L 190.286653 211.923407 
L 188.921947 212.170787 
L 187.555218 212.398941 
L 186.190006 212.609237 
L 184.823278 212.803876 
L 183.458066 212.983957 
L 182.09336 213.150997 
L 180.728148 213.306317 
L 179.362936 213.450919 
L 177.997724 213.585754 
L 176.632512 213.711671 
L 175.267805 213.829386 
L 173.902593 213.939668 
L 172.537381 214.043085 
L 171.172169 214.14019 
L 169.808474 214.231382 
L 168.443767 214.317283 
L 167.078555 214.39826 
L 165.714859 214.474569 
L 164.349648 214.546717 
L 162.985952 214.614848 
L 161.621245 214.679372 
L 160.25755 214.740446 
L 158.893854 214.798355 
L 157.530159 214.85331 
L 156.166968 214.90549 
L 154.801756 214.955167 
L 153.438061 215.002376 
L 152.075881 215.04728 
L 150.712691 215.090101 
L 149.348996 215.130952 
L 147.9853 215.169937 
L 146.621604 215.207166 
L 145.259931 215.242692 
L 143.896235 215.276715 
L 142.532539 215.309272 
L 141.17036 215.34041 
L 139.80717 215.370265 
L 138.444991 215.398865 
L 137.082811 215.426299 
L 135.719116 215.452658 
L 134.357442 215.477932 
L 132.995262 215.502224 
L 131.633083 215.525577 
L 130.271409 215.548029 
L 128.90923 215.569641 
L 127.547051 215.590448 
L 126.185377 215.610482 
L 124.823198 215.629793 
L 123.461018 215.648411 
L 122.100861 215.66634 
L 120.738682 215.683666 
L 119.376502 215.700391 
L 118.015839 215.716523 
L 116.654166 215.73212 
L 115.293503 215.747183 
L 113.93284 215.761746 
L 112.571166 215.775841 
L 111.210503 215.789469 
L 109.84984 215.802659 
L 108.489682 215.815425 
L 107.129019 215.827795 
L 105.768862 215.839775 
L 104.408199 215.851391 
L 103.047536 215.862652 
L 101.687379 215.873569 
L 100.326716 215.884165 
L 98.966053 215.894446 
L 97.607412 215.904412 
L 96.246749 215.914102 
L 94.887602 215.923504 
L 93.527444 215.932645 
L 92.168298 215.941522 
L 90.80814 215.950157 
L 89.448994 215.958547 
L 88.089847 215.966707 
L 86.72969 215.974651 
L 85.370543 215.982375 
L 84.011396 215.989893 
L 82.652755 215.99721 
L 81.293609 216.004337 
L 79.934968 216.011276 
L 78.575821 216.018039 
L 77.216674 216.02463 
L 75.85955 216.031043 
L 74.500403 216.037305 
L 73.141762 216.043409 
L 71.784131 216.049357 
L 70.42549 216.055164 
L 69.06786 216.060826 
L 67.708713 216.066357 
L 66.351589 216.071748 
L 64.993958 216.077013 
L 63.635317 216.082158 
L 62.277687 216.087179 
L 60.920562 216.092082 
L 59.562932 216.096874 
L 58.205807 216.101554 
L 56.848177 216.106131 
L 55.490547 216.110604 
L 54.133422 216.114976 
L 52.775791 216.119253 
L 51.420183 216.12343 
L 50.062553 216.127522 
L 48.705428 216.131523 
L 47.349314 216.135436 
L 45.992189 216.139267 
L 44.636075 216.143015 
L 43.27895 216.146687 
z
" clip-path="url(#pc9e76815cd)" style="fill: #1f77b4; fill-opacity: 0.25"/>
   </g>
   <g id="PolyCollection_2">
    <path d="M 43.27895 214.996456 
L 43.27895 216.404326 
L 44.636075 216.404326 
L 45.992189 216.404326 
L 47.349314 216.404326 
L 48.705428 216.404326 
L 50.062553 216.404326 
L 51.420183 216.404326 
L 52.775791 216.404326 
L 54.133422 216.404326 
L 55.490547 216.404326 
L 56.848177 216.404326 
L 58.205807 216.404326 
L 59.562932 216.404326 
L 60.920562 216.404326 
L 62.277687 216.404326 
L 63.635317 216.404326 
L 64.993958 216.404326 
L 66.351589 216.404326 
L 67.708713 216.404326 
L 69.06786 216.404326 
L 70.42549 216.404326 
L 71.784131 216.404326 
L 73.141762 216.404326 
L 74.500403 216.404326 
L 75.85955 216.404326 
L 77.216674 216.404326 
L 78.575821 216.404326 
L 79.934968 216.404326 
L 81.293609 216.404326 
L 82.652755 216.404326 
L 84.011396 216.404326 
L 85.370543 216.404326 
L 86.72969 216.404326 
L 88.089847 216.404326 
L 89.448994 216.404326 
L 90.80814 216.404326 
L 92.168298 216.404326 
L 93.527444 216.404326 
L 94.887602 216.404326 
L 96.246749 216.404326 
L 97.607412 216.404326 
L 98.966053 216.404326 
L 100.326716 216.404326 
L 101.687379 216.404326 
L 103.047536 216.404326 
L 104.408199 216.404326 
L 105.768862 216.404326 
L 107.129019 216.404326 
L 108.489682 216.404326 
L 109.84984 216.404326 
L 111.210503 216.404326 
L 112.571166 216.404326 
L 113.93284 216.404326 
L 115.293503 216.404326 
L 116.654166 216.404326 
L 118.015839 216.404326 
L 119.376502 216.404326 
L 120.738682 216.404326 
L 122.100861 216.404326 
L 123.461018 216.404326 
L 124.823198 216.404326 
L 126.185377 216.404326 
L 127.547051 216.404326 
L 128.90923 216.404326 
L 130.271409 216.404326 
L 131.633083 216.404326 
L 132.995262 216.404326 
L 134.357442 216.404326 
L 135.719116 216.404326 
L 137.082811 216.404326 
L 138.444991 216.404326 
L 139.80717 216.404326 
L 141.17036 216.404326 
L 142.532539 216.404326 
L 143.896235 216.404326 
L 145.259931 216.404326 
L 146.621604 216.404326 
L 147.9853 216.404326 
L 149.348996 216.404326 
L 150.712691 216.404326 
L 152.075881 216.404326 
L 153.438061 216.404326 
L 154.801756 216.404326 
L 156.166968 216.404326 
L 157.530159 216.404326 
L 158.893854 216.404326 
L 160.25755 216.404326 
L 161.621245 216.404326 
L 162.985952 216.404326 
L 164.349648 216.404326 
L 165.714859 216.404326 
L 167.078555 216.404326 
L 168.443767 216.404326 
L 169.808474 216.404326 
L 171.172169 216.404326 
L 172.537381 216.404326 
L 173.902593 216.404326 
L 175.267805 216.404326 
L 176.632512 216.404326 
L 177.997724 216.404326 
L 179.362936 216.404326 
L 180.728148 216.404326 
L 182.09336 216.404326 
L 183.458066 216.404326 
L 184.823278 216.404326 
L 186.190006 216.404326 
L 187.555218 216.404326 
L 188.921947 216.404326 
L 190.286653 216.404326 
L 191.653381 216.404326 
L 193.018593 216.404326 
L 194.385322 216.404326 
L 195.75205 216.404326 
L 197.118778 216.404326 
L 198.48399 216.404326 
L 199.850213 216.404326 
L 201.216941 216.404326 
L 202.58367 216.404326 
L 203.950398 216.404326 
L 205.318643 216.404326 
L 206.685371 216.404326 
L 208.052099 216.404326 
L 209.418322 216.404326 
L 210.786567 216.404326 
L 212.153295 216.404326 
L 213.52154 216.404326 
L 214.888268 216.404326 
L 216.256513 216.404326 
L 217.623241 216.404326 
L 218.991486 216.404326 
L 220.35973 216.404326 
L 221.72747 216.404326 
L 223.095714 216.404326 
L 224.463959 216.404326 
L 225.832204 216.404326 
L 227.200448 216.404326 
L 228.568693 216.404326 
L 229.936937 216.404326 
L 231.305182 216.404326 
L 232.673427 216.404326 
L 234.043188 216.404326 
L 235.411432 216.404326 
L 236.781193 216.404326 
L 238.148933 216.404326 
L 239.518694 216.404326 
L 240.886938 216.404326 
L 242.256699 216.404326 
L 243.62646 216.404326 
L 244.996221 216.404326 
L 246.364466 216.404326 
L 247.734227 216.404326 
L 249.103988 216.404326 
L 250.473749 216.404326 
L 251.84351 216.404326 
L 253.214787 216.404326 
L 254.584548 216.404326 
L 255.954309 216.404326 
L 257.32407 216.404326 
L 258.695347 216.404326 
L 260.065108 216.404326 
L 261.436386 216.404326 
L 262.806147 216.404326 
L 264.177424 216.404326 
L 265.547185 216.404326 
L 266.918462 216.404326 
L 268.28974 216.404326 
L 269.661017 216.404326 
L 271.032294 216.404326 
L 272.403572 216.404326 
L 273.774849 216.404326 
L 275.146126 216.404326 
L 276.517404 216.404326 
L 277.888681 216.404326 
L 279.259958 216.404326 
L 280.632752 216.404326 
L 282.004029 216.404326 
L 283.375307 216.404326 
L 284.7481 216.404326 
L 286.119378 216.404326 
L 287.492171 216.404326 
L 288.864965 216.404326 
L 290.236242 216.404326 
L 291.609036 216.404326 
L 292.98183 216.404326 
L 294.354623 216.404326 
L 295.727417 216.404326 
L 297.100716 216.404326 
L 298.47351 216.404326 
L 299.846303 216.404326 
L 301.219097 216.404326 
L 302.591891 216.404326 
L 303.964684 216.404326 
L 305.338995 216.404326 
L 306.711788 216.404326 
L 308.086098 216.404326 
L 309.458892 216.404326 
L 310.833202 216.404326 
L 312.205996 216.404326 
L 313.580811 216.404326 
L 314.955121 216.404326 
L 316.327915 216.404326 
L 317.702225 216.404326 
L 319.076535 216.404326 
L 320.450845 216.404326 
L 320.450845 216.185056 
L 320.450845 216.185056 
L 319.076535 216.181449 
L 317.702225 216.17775 
L 316.327915 216.173955 
L 314.955121 216.170066 
L 313.580811 216.166069 
L 312.205996 216.161965 
L 310.833202 216.157756 
L 309.458892 216.153428 
L 308.086098 216.148986 
L 306.711788 216.144416 
L 305.338995 216.139723 
L 303.964684 216.134891 
L 302.591891 216.129927 
L 301.219097 216.12482 
L 299.846303 216.119563 
L 298.47351 216.11415 
L 297.100716 216.108576 
L 295.727417 216.102831 
L 294.354623 216.096913 
L 292.98183 216.090812 
L 291.609036 216.084519 
L 290.236242 216.078027 
L 288.864965 216.071335 
L 287.492171 216.064418 
L 286.119378 216.057273 
L 284.7481 216.049899 
L 283.375307 216.042268 
L 282.004029 216.034386 
L 280.632752 216.026231 
L 279.259958 216.01778 
L 277.888681 216.009039 
L 276.517404 215.999984 
L 275.146126 215.990598 
L 273.774849 215.980864 
L 272.403572 215.970764 
L 271.032294 215.96028 
L 269.661017 215.949389 
L 268.28974 215.938071 
L 266.918462 215.926301 
L 265.547185 215.914054 
L 264.177424 215.901317 
L 262.806147 215.888032 
L 261.436386 215.874197 
L 260.065108 215.859747 
L 258.695347 215.844679 
L 257.32407 215.828917 
L 255.954309 215.812455 
L 254.584548 215.795229 
L 253.214787 215.777188 
L 251.84351 215.758255 
L 250.473749 215.738414 
L 249.103988 215.717577 
L 247.734227 215.695675 
L 246.364466 215.672628 
L 244.996221 215.648379 
L 243.62646 215.622781 
L 242.256699 215.595754 
L 240.886938 215.567186 
L 239.518694 215.536985 
L 238.148933 215.504943 
L 236.781193 215.470988 
L 235.411432 215.434848 
L 234.043188 215.396421 
L 232.673427 215.355404 
L 231.305182 215.311645 
L 229.936937 215.264825 
L 228.568693 215.214635 
L 227.200448 215.160723 
L 225.832204 215.102686 
L 224.463959 215.040068 
L 223.095714 214.972341 
L 221.72747 214.8989 
L 220.35973 214.819071 
L 218.991486 214.731978 
L 217.623241 214.636692 
L 216.256513 214.532209 
L 214.888268 214.416965 
L 213.52154 214.289633 
L 212.153295 214.148032 
L 210.786567 213.990183 
L 209.418322 213.812944 
L 208.052099 213.613367 
L 206.685371 213.386888 
L 205.318643 213.128287 
L 203.950398 212.830526 
L 202.58367 212.485714 
L 201.216941 212.082489 
L 199.850213 211.606346 
L 198.48399 211.038207 
L 197.118778 210.352381 
L 195.75205 209.511624 
L 194.385322 208.466228 
L 193.018593 207.144123 
L 191.653381 205.442334 
L 190.286653 203.201062 
L 188.921947 200.192049 
L 187.555218 196.052935 
L 186.190006 190.280374 
L 184.823278 182.205765 
L 183.458066 171.369895 
L 182.09336 158.627796 
L 180.728148 147.981671 
L 179.362936 144.840273 
L 177.997724 148.37382 
L 176.632512 150.797298 
L 175.267805 144.474325 
L 173.902593 130.699578 
L 172.537381 135.383637 
L 171.172169 159.358707 
L 169.808474 177.352382 
L 168.443767 187.112908 
L 167.078555 191.934737 
L 165.714859 193.545252 
L 164.349648 192.064532 
L 162.985952 185.746028 
L 161.621245 172.300448 
L 160.25755 168.269232 
L 158.893854 180.325563 
L 157.530159 186.109812 
L 156.166968 185.263061 
L 154.801756 179.238972 
L 153.438061 167.124892 
L 152.075881 147.686174 
L 150.712691 127.405931 
L 149.348996 125.040771 
L 147.9853 137.310837 
L 146.621604 143.494754 
L 145.259931 136.791946 
L 143.896235 123.760311 
L 142.532539 125.770487 
L 141.17036 145.947061 
L 139.80717 164.819896 
L 138.444991 176.066082 
L 137.082811 181.302032 
L 135.719116 182.085641 
L 134.357442 178.644551 
L 132.995262 169.7349 
L 131.633083 152.510526 
L 130.271409 125.31149 
L 128.90923 102.786843 
L 127.547051 113.867244 
L 126.185377 142.692346 
L 124.823198 164.209546 
L 123.461018 176.233548 
L 122.100861 182.008272 
L 120.738682 183.667486 
L 119.376502 182.012005 
L 118.015839 176.9881 
L 116.654166 168.066596 
L 115.293503 155.363469 
L 113.93284 142.475771 
L 112.571166 138.040645 
L 111.210503 146.229513 
L 109.84984 159.779232 
L 108.489682 171.17427 
L 107.129019 178.133088 
L 105.768862 180.51149 
L 104.408199 177.928461 
L 103.047536 169.648061 
L 101.687379 159.578639 
L 100.326716 161.581724 
L 98.966053 174.707683 
L 97.607412 185.736488 
L 96.246749 192.024712 
L 94.887602 194.925709 
L 93.527444 195.415743 
L 92.168298 193.624598 
L 90.80814 188.744567 
L 89.448994 178.419748 
L 88.089847 157.938603 
L 86.72969 129.254665 
L 85.370543 126.948638 
L 84.011396 143.476538 
L 82.652755 148.085299 
L 81.293609 147.99301 
L 79.934968 156.705678 
L 78.575821 171.821043 
L 77.216674 184.820578 
L 75.85955 193.672458 
L 74.500403 199.447572 
L 73.141762 203.275185 
L 71.784131 205.902147 
L 70.42549 207.775108 
L 69.06786 209.153826 
L 67.708713 210.200783 
L 66.351589 211.01406 
L 64.993958 211.660998 
L 63.635317 212.185501 
L 62.277687 212.617076 
L 60.920562 212.977439 
L 59.562932 213.282335 
L 58.205807 213.542954 
L 56.848177 213.768071 
L 55.490547 213.964139 
L 54.133422 214.136176 
L 52.775791 214.2883 
L 51.420183 214.423422 
L 50.062553 214.54449 
L 48.705428 214.653321 
L 47.349314 214.751587 
L 45.992189 214.840833 
L 44.636075 214.92209 
L 43.27895 214.996456 
z
" clip-path="url(#pc9e76815cd)" style="fill: #ff7f0e; fill-opacity: 0.25"/>
   </g>
   <g id="line2d_1">
    <path d="M 43.27895 184.458777 
L 45.992189 176.428331 
L 47.349314 176.573913 
L 48.705428 181.588925 
L 50.062553 188.079698 
L 51.420183 191.115585 
L 52.775791 191.643438 
L 54.133422 188.476848 
L 55.490547 186.556507 
L 56.848177 185.864512 
L 58.205807 187.519762 
L 59.562932 188.957932 
L 60.920562 187.697301 
L 62.277687 183.127146 
L 63.635317 174.396714 
L 64.993958 171.10687 
L 66.351589 167.248165 
L 67.708713 168.303811 
L 69.06786 175.701172 
L 70.42549 182.295721 
L 71.784131 187.927948 
L 73.141762 190.134343 
L 74.500403 192.047494 
L 75.85955 189.725355 
L 77.216674 181.271963 
L 78.575821 164.827806 
L 79.934968 150.874541 
L 81.293609 143.605676 
L 82.652755 152.064244 
L 84.011396 134.787357 
L 85.370543 121.58118 
L 88.089847 167.526755 
L 89.448994 184.820774 
L 90.80814 190.30295 
L 92.168298 192.614338 
L 93.527444 191.811956 
L 94.887602 190.876318 
L 96.246749 189.562218 
L 97.607412 181.095571 
L 98.966053 168.25991 
L 100.326716 158.652584 
L 101.687379 161.732951 
L 104.408199 181.523675 
L 105.768862 183.942689 
L 107.129019 177.462593 
L 109.84984 150.721017 
L 111.210503 139.83791 
L 112.571166 138.935908 
L 113.93284 147.713277 
L 116.654166 173.339219 
L 118.015839 180.556199 
L 119.376502 183.001361 
L 120.738682 177.912001 
L 122.100861 171.824311 
L 123.461018 167.036235 
L 124.823198 155.533709 
L 127.547051 104.616 
L 128.90923 108.45278 
L 131.633083 161.757159 
L 132.995262 176.868566 
L 134.357442 181.475134 
L 135.719116 187.834666 
L 137.082811 189.270681 
L 138.444991 178.109491 
L 139.80717 144.846243 
L 141.17036 129.913335 
L 142.532539 126.408637 
L 143.896235 130.903431 
L 145.259931 133.026915 
L 146.621604 136.770136 
L 147.9853 132.54585 
L 149.348996 126.558352 
L 150.712691 128.231913 
L 152.075881 154.504608 
L 153.438061 175.391587 
L 154.801756 188.049311 
L 156.166968 188.622738 
L 157.530159 182.493155 
L 158.893854 169.731922 
L 160.25755 167.619285 
L 161.621245 175.813846 
L 162.985952 186.394005 
L 164.349648 191.15152 
L 165.714859 191.008826 
L 167.078555 189.553918 
L 168.443767 184.034041 
L 169.808474 167.408799 
L 171.172169 143.188542 
L 172.537381 128.992853 
L 173.902593 132.965587 
L 175.267805 144.801861 
L 176.632512 151.15307 
L 177.997724 144.965271 
L 179.362936 139.584993 
L 180.728148 146.458597 
L 182.09336 160.564453 
L 183.458066 178.653517 
L 184.823278 189.408441 
L 186.190006 192.060367 
L 187.555218 188.197173 
L 188.921947 200.535648 
L 190.286653 214.367613 
L 191.653381 216.404326 
L 193.018593 216.404326 
L 195.75205 185.990069 
L 197.118778 188.065579 
L 199.850213 196.844226 
L 201.216941 198.712191 
L 202.58367 199.049487 
L 203.950398 200.651803 
L 205.318643 200.810213 
L 206.685371 205.220137 
L 208.052099 215.197148 
L 209.418322 216.305331 
L 210.786567 209.436493 
L 212.153295 203.15007 
L 213.52154 203.247989 
L 214.888268 201.412218 
L 216.256513 199.246589 
L 217.623241 197.54852 
L 218.991486 195.30053 
L 220.35973 191.690961 
L 221.72747 183.476377 
L 223.095714 172.539959 
L 224.463959 167.384352 
L 225.832204 169.026717 
L 227.200448 166.181139 
L 228.568693 159.121582 
L 229.936937 154.459584 
L 231.305182 151.737809 
L 232.673427 152.392304 
L 234.043188 158.580363 
L 235.411432 163.376958 
L 236.781193 159.291547 
L 238.148933 153.793935 
L 240.886938 158.896653 
L 242.256699 162.241325 
L 243.62646 160.033218 
L 244.996221 159.231726 
L 246.364466 155.882394 
L 247.734227 156.14907 
L 249.103988 181.286583 
L 250.473749 181.466068 
L 251.84351 180.159653 
L 253.214787 175.186923 
L 254.584548 168.86235 
L 255.954309 166.074032 
L 257.32407 167.866178 
L 258.695347 169.84633 
L 260.065108 165.357546 
L 261.436386 203.154475 
L 262.806147 203.840269 
L 264.177424 203.041988 
L 265.547185 201.99558 
L 266.918462 201.256099 
L 268.28974 202.504705 
L 269.661017 202.768619 
L 271.032294 200.718699 
L 272.403572 198.200436 
L 273.774849 197.090994 
L 275.146126 196.87075 
L 276.517404 196.523785 
L 277.888681 194.501704 
L 279.259958 192.17066 
L 280.632752 189.569726 
L 283.375307 182.054401 
L 284.7481 175.719889 
L 286.119378 164.990543 
L 287.492171 140.058762 
L 288.864965 92.685075 
L 289.901631 -1 
M 300.331851 -1 
L 301.219097 89.48041 
L 302.591891 131.022483 
L 303.964684 148.809699 
L 305.338995 162.537462 
L 306.711788 174.718829 
L 308.086098 183.308172 
L 309.458892 187.746925 
L 310.833202 190.491562 
L 312.205996 191.057086 
L 313.580811 187.723438 
L 314.955121 184.809066 
L 316.327915 185.431082 
L 317.702225 190.398285 
L 319.076535 194.702474 
L 320.450845 194.814923 
L 320.450845 194.814923 
" clip-path="url(#pc9e76815cd)" style="fill: none; stroke: #1f77b4; stroke-width: 1.5; stroke-linecap: square"/>
    <defs>
     <path id="me98a6ab09b" d="M 0 1.5 
C 0.397805 1.5 0.77937 1.341951 1.06066 1.06066 
C 1.341951 0.77937 1.5 0.397805 1.5 0 
C 1.5 -0.397805 1.341951 -0.77937 1.06066 -1.06066 
C 0.77937 -1.341951 0.397805 -1.5 0 -1.5 
C -0.397805 -1.5 -0.77937 -1.341951 -1.06066 -1.06066 
C -1.341951 -0.77937 -1.5 -0.397805 -1.5 0 
C -1.5 0.397805 -1.341951 0.77937 -1.06066 1.06066 
C -0.77937 1.341951 -0.397805 1.5 0 1.5 
z
" style="stroke: #1f77b4"/>
    </defs>
    <g clip-path="url(#pc9e76815cd)">
     <use xlink:href="#me98a6ab09b" x="43.27895" y="184.458777" style="fill-opacity: 0; stroke: #1f77b4"/>
     <use xlink:href="#me98a6ab09b" x="44.636075" y="180.53674" style="fill-opacity: 0; stroke: #1f77b4"/>
     <use xlink:href="#me98a6ab09b" x="45.992189" y="176.428331" style="fill-opacity: 0; stroke: #1f77b4"/>
     <use xlink:href="#me98a6ab09b" x="47.349314" y="176.573913" style="fill-opacity: 0; stroke: #1f77b4"/>
     <use xlink:href="#me98a6ab09b" x="48.705428" y="181.588925" style="fill-opacity: 0; stroke: #1f77b4"/>
     <use xlink:href="#me98a6ab09b" x="50.062553" y="188.079698" style="fill-opacity: 0; stroke: #1f77b4"/>
     <use xlink:href="#me98a6ab09b" x="51.420183" y="191.115585" style="fill-opacity: 0; stroke: #1f77b4"/>
     <use xlink:href="#me98a6ab09b" x="52.775791" y="191.643438" style="fill-opacity: 0; stroke: #1f77b4"/>
     <use xlink:href="#me98a6ab09b" x="54.133422" y="188.476848" style="fill-opacity: 0; stroke: #1f77b4"/>
     <use xlink:href="#me98a6ab09b" x="55.490547" y="186.556507" style="fill-opacity: 0; stroke: #1f77b4"/>
     <use xlink:href="#me98a6ab09b" x="56.848177" y="185.864512" style="fill-opacity: 0; stroke: #1f77b4"/>
     <use xlink:href="#me98a6ab09b" x="58.205807" y="187.519762" style="fill-opacity: 0; stroke: #1f77b4"/>
     <use xlink:href="#me98a6ab09b" x="59.562932" y="188.957932" style="fill-opacity: 0; stroke: #1f77b4"/>
     <use xlink:href="#me98a6ab09b" x="60.920562" y="187.697301" style="fill-opacity: 0; stroke: #1f77b4"/>
     <use xlink:href="#me98a6ab09b" x="62.277687" y="183.127146" style="fill-opacity: 0; stroke: #1f77b4"/>
     <use xlink:href="#me98a6ab09b" x="63.635317" y="174.396714" style="fill-opacity: 0; stroke: #1f77b4"/>
     <use xlink:href="#me98a6ab09b" x="64.993958" y="171.10687" style="fill-opacity: 0; stroke: #1f77b4"/>
     <use xlink:href="#me98a6ab09b" x="66.351589" y="167.248165" style="fill-opacity: 0; stroke: #1f77b4"/>
     <use xlink:href="#me98a6ab09b" x="67.708713" y="168.303811" style="fill-opacity: 0; stroke: #1f77b4"/>
     <use xlink:href="#me98a6ab09b" x="69.06786" y="175.701172" style="fill-opacity: 0; stroke: #1f77b4"/>
     <use xlink:href="#me98a6ab09b" x="70.42549" y="182.295721" style="fill-opacity: 0; stroke: #1f77b4"/>
     <use xlink:href="#me98a6ab09b" x="71.784131" y="187.927948" style="fill-opacity: 0; stroke: #1f77b4"/>
     <use xlink:href="#me98a6ab09b" x="73.141762" y="190.134343" style="fill-opacity: 0; stroke: #1f77b4"/>
     <use xlink:href="#me98a6ab09b" x="74.500403" y="192.047494" style="fill-opacity: 0; stroke: #1f77b4"/>
     <use xlink:href="#me98a6ab09b" x="75.85955" y="189.725355" style="fill-opacity: 0; stroke: #1f77b4"/>
     <use xlink:href="#me98a6ab09b" x="77.216674" y="181.271963" style="fill-opacity: 0; stroke: #1f77b4"/>
     <use xlink:href="#me98a6ab09b" x="78.575821" y="164.827806" style="fill-opacity: 0; stroke: #1f77b4"/>
     <use xlink:href="#me98a6ab09b" x="79.934968" y="150.874541" style="fill-opacity: 0; stroke: #1f77b4"/>
     <use xlink:href="#me98a6ab09b" x="81.293609" y="143.605676" style="fill-opacity: 0; stroke: #1f77b4"/>
     <use xlink:href="#me98a6ab09b" x="82.652755" y="152.064244" style="fill-opacity: 0; stroke: #1f77b4"/>
     <use xlink:href="#me98a6ab09b" x="84.011396" y="134.787357" style="fill-opacity: 0; stroke: #1f77b4"/>
     <use xlink:href="#me98a6ab09b" x="85.370543" y="121.58118" style="fill-opacity: 0; stroke: #1f77b4"/>
     <use xlink:href="#me98a6ab09b" x="86.72969" y="143.698058" style="fill-opacity: 0; stroke: #1f77b4"/>
     <use xlink:href="#me98a6ab09b" x="88.089847" y="167.526755" style="fill-opacity: 0; stroke: #1f77b4"/>
     <use xlink:href="#me98a6ab09b" x="89.448994" y="184.820774" style="fill-opacity: 0; stroke: #1f77b4"/>
     <use xlink:href="#me98a6ab09b" x="90.80814" y="190.30295" style="fill-opacity: 0; stroke: #1f77b4"/>
     <use xlink:href="#me98a6ab09b" x="92.168298" y="192.614338" style="fill-opacity: 0; stroke: #1f77b4"/>
     <use xlink:href="#me98a6ab09b" x="93.527444" y="191.811956" style="fill-opacity: 0; stroke: #1f77b4"/>
     <use xlink:href="#me98a6ab09b" x="94.887602" y="190.876318" style="fill-opacity: 0; stroke: #1f77b4"/>
     <use xlink:href="#me98a6ab09b" x="96.246749" y="189.562218" style="fill-opacity: 0; stroke: #1f77b4"/>
     <use xlink:href="#me98a6ab09b" x="97.607412" y="181.095571" style="fill-opacity: 0; stroke: #1f77b4"/>
     <use xlink:href="#me98a6ab09b" x="98.966053" y="168.25991" style="fill-opacity: 0; stroke: #1f77b4"/>
     <use xlink:href="#me98a6ab09b" x="100.326716" y="158.652584" style="fill-opacity: 0; stroke: #1f77b4"/>
     <use xlink:href="#me98a6ab09b" x="101.687379" y="161.732951" style="fill-opacity: 0; stroke: #1f77b4"/>
     <use xlink:href="#me98a6ab09b" x="103.047536" y="172.026374" style="fill-opacity: 0; stroke: #1f77b4"/>
     <use xlink:href="#me98a6ab09b" x="104.408199" y="181.523675" style="fill-opacity: 0; stroke: #1f77b4"/>
     <use xlink:href="#me98a6ab09b" x="105.768862" y="183.942689" style="fill-opacity: 0; stroke: #1f77b4"/>
     <use xlink:href="#me98a6ab09b" x="107.129019" y="177.462593" style="fill-opacity: 0; stroke: #1f77b4"/>
     <use xlink:href="#me98a6ab09b" x="108.489682" y="164.29551" style="fill-opacity: 0; stroke: #1f77b4"/>
     <use xlink:href="#me98a6ab09b" x="109.84984" y="150.721017" style="fill-opacity: 0; stroke: #1f77b4"/>
     <use xlink:href="#me98a6ab09b" x="111.210503" y="139.83791" style="fill-opacity: 0; stroke: #1f77b4"/>
     <use xlink:href="#me98a6ab09b" x="112.571166" y="138.935908" style="fill-opacity: 0; stroke: #1f77b4"/>
     <use xlink:href="#me98a6ab09b" x="113.93284" y="147.713277" style="fill-opacity: 0; stroke: #1f77b4"/>
     <use xlink:href="#me98a6ab09b" x="115.293503" y="161.053774" style="fill-opacity: 0; stroke: #1f77b4"/>
     <use xlink:href="#me98a6ab09b" x="116.654166" y="173.339219" style="fill-opacity: 0; stroke: #1f77b4"/>
     <use xlink:href="#me98a6ab09b" x="118.015839" y="180.556199" style="fill-opacity: 0; stroke: #1f77b4"/>
     <use xlink:href="#me98a6ab09b" x="119.376502" y="183.001361" style="fill-opacity: 0; stroke: #1f77b4"/>
     <use xlink:href="#me98a6ab09b" x="120.738682" y="177.912001" style="fill-opacity: 0; stroke: #1f77b4"/>
     <use xlink:href="#me98a6ab09b" x="122.100861" y="171.824311" style="fill-opacity: 0; stroke: #1f77b4"/>
     <use xlink:href="#me98a6ab09b" x="123.461018" y="167.036235" style="fill-opacity: 0; stroke: #1f77b4"/>
     <use xlink:href="#me98a6ab09b" x="124.823198" y="155.533709" style="fill-opacity: 0; stroke: #1f77b4"/>
     <use xlink:href="#me98a6ab09b" x="126.185377" y="130.609171" style="fill-opacity: 0; stroke: #1f77b4"/>
     <use xlink:href="#me98a6ab09b" x="127.547051" y="104.616" style="fill-opacity: 0; stroke: #1f77b4"/>
     <use xlink:href="#me98a6ab09b" x="128.90923" y="108.45278" style="fill-opacity: 0; stroke: #1f77b4"/>
     <use xlink:href="#me98a6ab09b" x="130.271409" y="134.927612" style="fill-opacity: 0; stroke: #1f77b4"/>
     <use xlink:href="#me98a6ab09b" x="131.633083" y="161.757159" style="fill-opacity: 0; stroke: #1f77b4"/>
     <use xlink:href="#me98a6ab09b" x="132.995262" y="176.868566" style="fill-opacity: 0; stroke: #1f77b4"/>
     <use xlink:href="#me98a6ab09b" x="134.357442" y="181.475134" style="fill-opacity: 0; stroke: #1f77b4"/>
     <use xlink:href="#me98a6ab09b" x="135.719116" y="187.834666" style="fill-opacity: 0; stroke: #1f77b4"/>
     <use xlink:href="#me98a6ab09b" x="137.082811" y="189.270681" style="fill-opacity: 0; stroke: #1f77b4"/>
     <use xlink:href="#me98a6ab09b" x="138.444991" y="178.109491" style="fill-opacity: 0; stroke: #1f77b4"/>
     <use xlink:href="#me98a6ab09b" x="139.80717" y="144.846243" style="fill-opacity: 0; stroke: #1f77b4"/>
     <use xlink:href="#me98a6ab09b" x="141.17036" y="129.913335" style="fill-opacity: 0; stroke: #1f77b4"/>
     <use xlink:href="#me98a6ab09b" x="142.532539" y="126.408637" style="fill-opacity: 0; stroke: #1f77b4"/>
     <use xlink:href="#me98a6ab09b" x="143.896235" y="130.903431" style="fill-opacity: 0; stroke: #1f77b4"/>
     <use xlink:href="#me98a6ab09b" x="145.259931" y="133.026915" style="fill-opacity: 0; stroke: #1f77b4"/>
     <use xlink:href="#me98a6ab09b" x="146.621604" y="136.770136" style="fill-opacity: 0; stroke: #1f77b4"/>
     <use xlink:href="#me98a6ab09b" x="147.9853" y="132.54585" style="fill-opacity: 0; stroke: #1f77b4"/>
     <use xlink:href="#me98a6ab09b" x="149.348996" y="126.558352" style="fill-opacity: 0; stroke: #1f77b4"/>
     <use xlink:href="#me98a6ab09b" x="150.712691" y="128.231913" style="fill-opacity: 0; stroke: #1f77b4"/>
     <use xlink:href="#me98a6ab09b" x="152.075881" y="154.504608" style="fill-opacity: 0; stroke: #1f77b4"/>
     <use xlink:href="#me98a6ab09b" x="153.438061" y="175.391587" style="fill-opacity: 0; stroke: #1f77b4"/>
     <use xlink:href="#me98a6ab09b" x="154.801756" y="188.049311" style="fill-opacity: 0; stroke: #1f77b4"/>
     <use xlink:href="#me98a6ab09b" x="156.166968" y="188.622738" style="fill-opacity: 0; stroke: #1f77b4"/>
     <use xlink:href="#me98a6ab09b" x="157.530159" y="182.493155" style="fill-opacity: 0; stroke: #1f77b4"/>
     <use xlink:href="#me98a6ab09b" x="158.893854" y="169.731922" style="fill-opacity: 0; stroke: #1f77b4"/>
     <use xlink:href="#me98a6ab09b" x="160.25755" y="167.619285" style="fill-opacity: 0; stroke: #1f77b4"/>
     <use xlink:href="#me98a6ab09b" x="161.621245" y="175.813846" style="fill-opacity: 0; stroke: #1f77b4"/>
     <use xlink:href="#me98a6ab09b" x="162.985952" y="186.394005" style="fill-opacity: 0; stroke: #1f77b4"/>
     <use xlink:href="#me98a6ab09b" x="164.349648" y="191.15152" style="fill-opacity: 0; stroke: #1f77b4"/>
     <use xlink:href="#me98a6ab09b" x="165.714859" y="191.008826" style="fill-opacity: 0; stroke: #1f77b4"/>
     <use xlink:href="#me98a6ab09b" x="167.078555" y="189.553918" style="fill-opacity: 0; stroke: #1f77b4"/>
     <use xlink:href="#me98a6ab09b" x="168.443767" y="184.034041" style="fill-opacity: 0; stroke: #1f77b4"/>
     <use xlink:href="#me98a6ab09b" x="169.808474" y="167.408799" style="fill-opacity: 0; stroke: #1f77b4"/>
     <use xlink:href="#me98a6ab09b" x="171.172169" y="143.188542" style="fill-opacity: 0; stroke: #1f77b4"/>
     <use xlink:href="#me98a6ab09b" x="172.537381" y="128.992853" style="fill-opacity: 0; stroke: #1f77b4"/>
     <use xlink:href="#me98a6ab09b" x="173.902593" y="132.965587" style="fill-opacity: 0; stroke: #1f77b4"/>
     <use xlink:href="#me98a6ab09b" x="175.267805" y="144.801861" style="fill-opacity: 0; stroke: #1f77b4"/>
     <use xlink:href="#me98a6ab09b" x="176.632512" y="151.15307" style="fill-opacity: 0; stroke: #1f77b4"/>
     <use xlink:href="#me98a6ab09b" x="177.997724" y="144.965271" style="fill-opacity: 0; stroke: #1f77b4"/>
     <use xlink:href="#me98a6ab09b" x="179.362936" y="139.584993" style="fill-opacity: 0; stroke: #1f77b4"/>
     <use xlink:href="#me98a6ab09b" x="180.728148" y="146.458597" style="fill-opacity: 0; stroke: #1f77b4"/>
     <use xlink:href="#me98a6ab09b" x="182.09336" y="160.564453" style="fill-opacity: 0; stroke: #1f77b4"/>
     <use xlink:href="#me98a6ab09b" x="183.458066" y="178.653517" style="fill-opacity: 0; stroke: #1f77b4"/>
     <use xlink:href="#me98a6ab09b" x="184.823278" y="189.408441" style="fill-opacity: 0; stroke: #1f77b4"/>
     <use xlink:href="#me98a6ab09b" x="186.190006" y="192.060367" style="fill-opacity: 0; stroke: #1f77b4"/>
     <use xlink:href="#me98a6ab09b" x="187.555218" y="188.197173" style="fill-opacity: 0; stroke: #1f77b4"/>
     <use xlink:href="#me98a6ab09b" x="188.921947" y="200.535648" style="fill-opacity: 0; stroke: #1f77b4"/>
     <use xlink:href="#me98a6ab09b" x="190.286653" y="214.367613" style="fill-opacity: 0; stroke: #1f77b4"/>
     <use xlink:href="#me98a6ab09b" x="191.653381" y="216.404326" style="fill-opacity: 0; stroke: #1f77b4"/>
     <use xlink:href="#me98a6ab09b" x="193.018593" y="216.404326" style="fill-opacity: 0; stroke: #1f77b4"/>
     <use xlink:href="#me98a6ab09b" x="194.385322" y="201.314523" style="fill-opacity: 0; stroke: #1f77b4"/>
     <use xlink:href="#me98a6ab09b" x="195.75205" y="185.990069" style="fill-opacity: 0; stroke: #1f77b4"/>
     <use xlink:href="#me98a6ab09b" x="197.118778" y="188.065579" style="fill-opacity: 0; stroke: #1f77b4"/>
     <use xlink:href="#me98a6ab09b" x="198.48399" y="192.300096" style="fill-opacity: 0; stroke: #1f77b4"/>
     <use xlink:href="#me98a6ab09b" x="199.850213" y="196.844226" style="fill-opacity: 0; stroke: #1f77b4"/>
     <use xlink:href="#me98a6ab09b" x="201.216941" y="198.712191" style="fill-opacity: 0; stroke: #1f77b4"/>
     <use xlink:href="#me98a6ab09b" x="202.58367" y="199.049487" style="fill-opacity: 0; stroke: #1f77b4"/>
     <use xlink:href="#me98a6ab09b" x="203.950398" y="200.651803" style="fill-opacity: 0; stroke: #1f77b4"/>
     <use xlink:href="#me98a6ab09b" x="205.318643" y="200.810213" style="fill-opacity: 0; stroke: #1f77b4"/>
     <use xlink:href="#me98a6ab09b" x="206.685371" y="205.220137" style="fill-opacity: 0; stroke: #1f77b4"/>
     <use xlink:href="#me98a6ab09b" x="208.052099" y="215.197148" style="fill-opacity: 0; stroke: #1f77b4"/>
     <use xlink:href="#me98a6ab09b" x="209.418322" y="216.305331" style="fill-opacity: 0; stroke: #1f77b4"/>
     <use xlink:href="#me98a6ab09b" x="210.786567" y="209.436493" style="fill-opacity: 0; stroke: #1f77b4"/>
     <use xlink:href="#me98a6ab09b" x="212.153295" y="203.15007" style="fill-opacity: 0; stroke: #1f77b4"/>
     <use xlink:href="#me98a6ab09b" x="213.52154" y="203.247989" style="fill-opacity: 0; stroke: #1f77b4"/>
     <use xlink:href="#me98a6ab09b" x="214.888268" y="201.412218" style="fill-opacity: 0; stroke: #1f77b4"/>
     <use xlink:href="#me98a6ab09b" x="216.256513" y="199.246589" style="fill-opacity: 0; stroke: #1f77b4"/>
     <use xlink:href="#me98a6ab09b" x="217.623241" y="197.54852" style="fill-opacity: 0; stroke: #1f77b4"/>
     <use xlink:href="#me98a6ab09b" x="218.991486" y="195.30053" style="fill-opacity: 0; stroke: #1f77b4"/>
     <use xlink:href="#me98a6ab09b" x="220.35973" y="191.690961" style="fill-opacity: 0; stroke: #1f77b4"/>
     <use xlink:href="#me98a6ab09b" x="221.72747" y="183.476377" style="fill-opacity: 0; stroke: #1f77b4"/>
     <use xlink:href="#me98a6ab09b" x="223.095714" y="172.539959" style="fill-opacity: 0; stroke: #1f77b4"/>
     <use xlink:href="#me98a6ab09b" x="224.463959" y="167.384352" style="fill-opacity: 0; stroke: #1f77b4"/>
     <use xlink:href="#me98a6ab09b" x="225.832204" y="169.026717" style="fill-opacity: 0; stroke: #1f77b4"/>
     <use xlink:href="#me98a6ab09b" x="227.200448" y="166.181139" style="fill-opacity: 0; stroke: #1f77b4"/>
     <use xlink:href="#me98a6ab09b" x="228.568693" y="159.121582" style="fill-opacity: 0; stroke: #1f77b4"/>
     <use xlink:href="#me98a6ab09b" x="229.936937" y="154.459584" style="fill-opacity: 0; stroke: #1f77b4"/>
     <use xlink:href="#me98a6ab09b" x="231.305182" y="151.737809" style="fill-opacity: 0; stroke: #1f77b4"/>
     <use xlink:href="#me98a6ab09b" x="232.673427" y="152.392304" style="fill-opacity: 0; stroke: #1f77b4"/>
     <use xlink:href="#me98a6ab09b" x="234.043188" y="158.580363" style="fill-opacity: 0; stroke: #1f77b4"/>
     <use xlink:href="#me98a6ab09b" x="235.411432" y="163.376958" style="fill-opacity: 0; stroke: #1f77b4"/>
     <use xlink:href="#me98a6ab09b" x="236.781193" y="159.291547" style="fill-opacity: 0; stroke: #1f77b4"/>
     <use xlink:href="#me98a6ab09b" x="238.148933" y="153.793935" style="fill-opacity: 0; stroke: #1f77b4"/>
     <use xlink:href="#me98a6ab09b" x="239.518694" y="156.364154" style="fill-opacity: 0; stroke: #1f77b4"/>
     <use xlink:href="#me98a6ab09b" x="240.886938" y="158.896653" style="fill-opacity: 0; stroke: #1f77b4"/>
     <use xlink:href="#me98a6ab09b" x="242.256699" y="162.241325" style="fill-opacity: 0; stroke: #1f77b4"/>
     <use xlink:href="#me98a6ab09b" x="243.62646" y="160.033218" style="fill-opacity: 0; stroke: #1f77b4"/>
     <use xlink:href="#me98a6ab09b" x="244.996221" y="159.231726" style="fill-opacity: 0; stroke: #1f77b4"/>
     <use xlink:href="#me98a6ab09b" x="246.364466" y="155.882394" style="fill-opacity: 0; stroke: #1f77b4"/>
     <use xlink:href="#me98a6ab09b" x="247.734227" y="156.14907" style="fill-opacity: 0; stroke: #1f77b4"/>
     <use xlink:href="#me98a6ab09b" x="249.103988" y="181.286583" style="fill-opacity: 0; stroke: #1f77b4"/>
     <use xlink:href="#me98a6ab09b" x="250.473749" y="181.466068" style="fill-opacity: 0; stroke: #1f77b4"/>
     <use xlink:href="#me98a6ab09b" x="251.84351" y="180.159653" style="fill-opacity: 0; stroke: #1f77b4"/>
     <use xlink:href="#me98a6ab09b" x="253.214787" y="175.186923" style="fill-opacity: 0; stroke: #1f77b4"/>
     <use xlink:href="#me98a6ab09b" x="254.584548" y="168.86235" style="fill-opacity: 0; stroke: #1f77b4"/>
     <use xlink:href="#me98a6ab09b" x="255.954309" y="166.074032" style="fill-opacity: 0; stroke: #1f77b4"/>
     <use xlink:href="#me98a6ab09b" x="257.32407" y="167.866178" style="fill-opacity: 0; stroke: #1f77b4"/>
     <use xlink:href="#me98a6ab09b" x="258.695347" y="169.84633" style="fill-opacity: 0; stroke: #1f77b4"/>
     <use xlink:href="#me98a6ab09b" x="260.065108" y="165.357546" style="fill-opacity: 0; stroke: #1f77b4"/>
     <use xlink:href="#me98a6ab09b" x="261.436386" y="203.154475" style="fill-opacity: 0; stroke: #1f77b4"/>
     <use xlink:href="#me98a6ab09b" x="262.806147" y="203.840269" style="fill-opacity: 0; stroke: #1f77b4"/>
     <use xlink:href="#me98a6ab09b" x="264.177424" y="203.041988" style="fill-opacity: 0; stroke: #1f77b4"/>
     <use xlink:href="#me98a6ab09b" x="265.547185" y="201.99558" style="fill-opacity: 0; stroke: #1f77b4"/>
     <use xlink:href="#me98a6ab09b" x="266.918462" y="201.256099" style="fill-opacity: 0; stroke: #1f77b4"/>
     <use xlink:href="#me98a6ab09b" x="268.28974" y="202.504705" style="fill-opacity: 0; stroke: #1f77b4"/>
     <use xlink:href="#me98a6ab09b" x="269.661017" y="202.768619" style="fill-opacity: 0; stroke: #1f77b4"/>
     <use xlink:href="#me98a6ab09b" x="271.032294" y="200.718699" style="fill-opacity: 0; stroke: #1f77b4"/>
     <use xlink:href="#me98a6ab09b" x="272.403572" y="198.200436" style="fill-opacity: 0; stroke: #1f77b4"/>
     <use xlink:href="#me98a6ab09b" x="273.774849" y="197.090994" style="fill-opacity: 0; stroke: #1f77b4"/>
     <use xlink:href="#me98a6ab09b" x="275.146126" y="196.87075" style="fill-opacity: 0; stroke: #1f77b4"/>
     <use xlink:href="#me98a6ab09b" x="276.517404" y="196.523785" style="fill-opacity: 0; stroke: #1f77b4"/>
     <use xlink:href="#me98a6ab09b" x="277.888681" y="194.501704" style="fill-opacity: 0; stroke: #1f77b4"/>
     <use xlink:href="#me98a6ab09b" x="279.259958" y="192.17066" style="fill-opacity: 0; stroke: #1f77b4"/>
     <use xlink:href="#me98a6ab09b" x="280.632752" y="189.569726" style="fill-opacity: 0; stroke: #1f77b4"/>
     <use xlink:href="#me98a6ab09b" x="282.004029" y="185.871427" style="fill-opacity: 0; stroke: #1f77b4"/>
     <use xlink:href="#me98a6ab09b" x="283.375307" y="182.054401" style="fill-opacity: 0; stroke: #1f77b4"/>
     <use xlink:href="#me98a6ab09b" x="284.7481" y="175.719889" style="fill-opacity: 0; stroke: #1f77b4"/>
     <use xlink:href="#me98a6ab09b" x="286.119378" y="164.990543" style="fill-opacity: 0; stroke: #1f77b4"/>
     <use xlink:href="#me98a6ab09b" x="287.492171" y="140.058762" style="fill-opacity: 0; stroke: #1f77b4"/>
     <use xlink:href="#me98a6ab09b" x="288.864965" y="92.685075" style="fill-opacity: 0; stroke: #1f77b4"/>
     <use xlink:href="#me98a6ab09b" x="289.901631" y="-1" style="fill-opacity: 0; stroke: #1f77b4"/>
     <use xlink:href="#me98a6ab09b" x="300.331851" y="-1" style="fill-opacity: 0; stroke: #1f77b4"/>
     <use xlink:href="#me98a6ab09b" x="301.219097" y="89.48041" style="fill-opacity: 0; stroke: #1f77b4"/>
     <use xlink:href="#me98a6ab09b" x="302.591891" y="131.022483" style="fill-opacity: 0; stroke: #1f77b4"/>
     <use xlink:href="#me98a6ab09b" x="303.964684" y="148.809699" style="fill-opacity: 0; stroke: #1f77b4"/>
     <use xlink:href="#me98a6ab09b" x="305.338995" y="162.537462" style="fill-opacity: 0; stroke: #1f77b4"/>
     <use xlink:href="#me98a6ab09b" x="306.711788" y="174.718829" style="fill-opacity: 0; stroke: #1f77b4"/>
     <use xlink:href="#me98a6ab09b" x="308.086098" y="183.308172" style="fill-opacity: 0; stroke: #1f77b4"/>
     <use xlink:href="#me98a6ab09b" x="309.458892" y="187.746925" style="fill-opacity: 0; stroke: #1f77b4"/>
     <use xlink:href="#me98a6ab09b" x="310.833202" y="190.491562" style="fill-opacity: 0; stroke: #1f77b4"/>
     <use xlink:href="#me98a6ab09b" x="312.205996" y="191.057086" style="fill-opacity: 0; stroke: #1f77b4"/>
     <use xlink:href="#me98a6ab09b" x="313.580811" y="187.723438" style="fill-opacity: 0; stroke: #1f77b4"/>
     <use xlink:href="#me98a6ab09b" x="314.955121" y="184.809066" style="fill-opacity: 0; stroke: #1f77b4"/>
     <use xlink:href="#me98a6ab09b" x="316.327915" y="185.431082" style="fill-opacity: 0; stroke: #1f77b4"/>
     <use xlink:href="#me98a6ab09b" x="317.702225" y="190.398285" style="fill-opacity: 0; stroke: #1f77b4"/>
     <use xlink:href="#me98a6ab09b" x="319.076535" y="194.702474" style="fill-opacity: 0; stroke: #1f77b4"/>
     <use xlink:href="#me98a6ab09b" x="320.450845" y="194.814923" style="fill-opacity: 0; stroke: #1f77b4"/>
    </g>
   </g>
   <g id="line2d_2">
    <path d="M 43.27895 214.738817 
L 50.062553 214.267685 
L 55.490547 213.670417 
L 59.562932 212.974883 
L 62.277687 212.299929 
L 64.993958 211.333685 
L 66.351589 210.681482 
L 67.708713 209.862814 
L 69.06786 208.810326 
L 70.42549 207.425946 
L 71.784131 205.547179 
L 73.141762 202.914268 
L 74.500403 199.080551 
L 75.85955 193.299176 
L 77.216674 184.440882 
L 78.575821 171.434756 
L 79.934968 156.312628 
L 81.293609 147.593021 
L 82.652755 147.678183 
L 84.011396 143.062105 
L 85.370543 126.526687 
L 86.72969 128.82499 
L 88.089847 157.500984 
L 89.448994 177.97397 
L 90.80814 188.290399 
L 92.168298 193.161794 
L 93.527444 194.944063 
L 94.887602 194.444887 
L 96.246749 191.534489 
L 97.607412 185.236574 
L 98.966053 174.197803 
L 100.326716 161.061563 
L 101.687379 159.047883 
L 103.047536 169.106387 
L 104.408199 177.375526 
L 105.768862 179.94694 
L 107.129019 177.556557 
L 108.489682 170.585369 
L 109.84984 159.177565 
L 111.210503 145.614656 
L 112.571166 137.41216 
L 113.93284 141.833191 
L 116.654166 167.39439 
L 118.015839 176.300297 
L 119.376502 181.308069 
L 120.738682 182.946827 
L 122.100861 181.270287 
L 123.461018 175.477633 
L 124.823198 163.435013 
L 126.185377 141.898502 
L 127.547051 113.053366 
L 128.90923 101.952158 
L 130.271409 124.455193 
L 131.633083 151.631777 
L 132.995262 168.832799 
L 134.357442 177.718157 
L 135.719116 181.133973 
L 137.082811 180.324005 
L 138.444991 175.060621 
L 139.80717 163.785835 
L 142.532539 124.675432 
L 143.896235 122.6327 
L 145.259931 135.630312 
L 146.621604 142.297594 
L 147.9853 136.076448 
L 149.348996 123.767397 
L 150.712691 126.091707 
L 153.438061 165.722942 
L 154.801756 177.789813 
L 156.166968 183.764225 
L 157.530159 184.558796 
L 158.893854 178.719591 
L 160.25755 166.605352 
L 161.621245 170.575494 
L 162.985952 183.956551 
L 164.349648 190.206923 
L 165.714859 191.615495 
L 167.078555 189.928671 
L 168.443767 185.025864 
L 169.808474 175.179438 
L 171.172169 157.094571 
L 172.537381 133.022396 
L 173.902593 128.23492 
L 175.267805 141.899385 
L 176.632512 148.104642 
L 177.997724 145.555248 
L 179.362936 141.886866 
L 180.728148 144.883662 
L 182.09336 155.374467 
L 183.458066 167.949526 
L 184.823278 178.605315 
L 186.190006 186.485284 
L 187.555218 192.04755 
L 188.921947 195.958511 
L 190.286653 198.720143 
L 191.653381 200.691828 
L 193.018593 202.099947 
L 194.385322 203.100704 
L 195.75205 203.794002 
L 197.118778 204.248013 
L 198.48399 204.508435 
L 199.850213 204.60653 
L 201.216941 204.562024 
L 202.58367 204.387087 
L 203.950398 204.087962 
L 205.318643 203.665496 
L 206.685371 203.117826 
L 208.052099 202.437928 
L 209.418322 201.615806 
L 210.786567 200.635612 
L 212.153295 199.481827 
L 213.52154 198.129821 
L 214.888268 196.556374 
L 216.256513 194.727655 
L 217.623241 192.613935 
L 218.991486 190.174681 
L 220.35973 187.377189 
L 221.72747 184.194268 
L 223.095714 180.610608 
L 225.832204 172.357611 
L 228.568693 163.45539 
L 229.936937 159.376731 
L 231.305182 156.026746 
L 232.673427 153.769894 
L 234.043188 152.857044 
L 235.411432 153.335294 
L 236.781193 155.006699 
L 240.886938 162.331932 
L 242.256699 163.238245 
L 243.62646 161.810352 
L 244.996221 157.665515 
L 246.364466 154.70476 
L 247.734227 159.768184 
L 249.103988 169.04384 
L 250.473749 175.961928 
L 251.84351 179.299637 
L 253.214787 179.266864 
L 254.584548 175.685961 
L 255.954309 168.811731 
L 257.32407 162.962088 
L 258.695347 166.155177 
L 261.436386 186.338736 
L 262.806147 193.22192 
L 264.177424 197.817659 
L 265.547185 200.957892 
L 266.918462 203.204756 
L 268.28974 204.881488 
L 269.661017 206.180758 
L 271.032294 207.219429 
L 272.403572 208.071143 
L 275.146126 209.391118 
L 277.888681 210.37261 
L 280.632752 211.134922 
L 284.7481 212.006769 
L 288.864965 212.661735 
L 294.354623 213.315939 
L 301.219097 213.906776 
L 310.833202 214.476192 
L 320.450845 214.865036 
L 320.450845 214.865036 
" clip-path="url(#pc9e76815cd)" style="fill: none; stroke: #ff0000; stroke-width: 1.5; stroke-linecap: square"/>
   </g>
   <g id="line2d_3">
    <path d="M 295.727417 216.404326 
L 295.727417 17.735865 
" clip-path="url(#pc9e76815cd)" style="fill: none; stroke-dasharray: 3.7,1.6; stroke-dashoffset: 0; stroke: #808080"/>
   </g>
   <g id="patch_3">
    <path d="M 43.003987 216.404326 
L 43.003987 17.735865 
" style="fill: none; stroke: #000000; stroke-linejoin: miter; stroke-linecap: square"/>
   </g>
   <g id="patch_4">
    <path d="M 320.99976 216.404326 
L 320.99976 17.735865 
" style="fill: none; stroke: #000000; stroke-linejoin: miter; stroke-linecap: square"/>
   </g>
   <g id="patch_5">
    <path d="M 43.003987 216.404326 
L 320.99976 216.404326 
" style="fill: none; stroke: #000000; stroke-linejoin: miter; stroke-linecap: square"/>
   </g>
   <g id="patch_6">
    <path d="M 43.003987 17.735865 
L 320.99976 17.735865 
" style="fill: none; stroke: #000000; stroke-linejoin: miter; stroke-linecap: square"/>
   </g>
   <g id="matplotlib.axis_1">
    <g id="xtick_1">
     <g id="line2d_4">
      <defs>
       <path id="m6ad75e4a9d" d="M 0 0 
L 0 3.75 
" style="stroke: #000000; stroke-width: 1.25"/>
      </defs>
      <g>
       <use xlink:href="#m6ad75e4a9d" x="43.003987" y="216.404326" style="stroke: #000000; stroke-width: 1.25"/>
      </g>
     </g>
     <g id="text_1">
      <!-- $\mathdefault{429}$ -->
      <g transform="translate(33.818987 231.52792)">
       <text>
        <tspan style="font: 11px 'Arial'" x="0 6.117676 12.235352" y="-0.09375">429</tspan>
       </text>
      </g>
     </g>
    </g>
    <g id="xtick_2">
     <g id="line2d_5">
      <g>
       <use xlink:href="#m6ad75e4a9d" x="93.548673" y="216.404326" style="stroke: #000000; stroke-width: 1.25"/>
      </g>
     </g>
     <g id="text_2">
      <!-- $\mathdefault{430}$ -->
      <g transform="translate(84.363673 231.52792)">
       <text>
        <tspan style="font: 11px 'Arial'" x="0 6.117676 12.235352" y="-0.09375">430</tspan>
       </text>
      </g>
     </g>
    </g>
    <g id="xtick_3">
     <g id="line2d_6">
      <g>
       <use xlink:href="#m6ad75e4a9d" x="144.093359" y="216.404326" style="stroke: #000000; stroke-width: 1.25"/>
      </g>
     </g>
     <g id="text_3">
      <!-- $\mathdefault{431}$ -->
      <g transform="translate(134.908359 231.52792)">
       <text>
        <tspan style="font: 11px 'Arial'" x="0 6.117676 12.235352" y="-0.09375">431</tspan>
       </text>
      </g>
     </g>
    </g>
    <g id="xtick_4">
     <g id="line2d_7">
      <g>
       <use xlink:href="#m6ad75e4a9d" x="194.638045" y="216.404326" style="stroke: #000000; stroke-width: 1.25"/>
      </g>
     </g>
     <g id="text_4">
      <!-- $\mathdefault{432}$ -->
      <g transform="translate(185.453045 231.52792)">
       <text>
        <tspan style="font: 11px 'Arial'" x="0 6.117676 12.235352" y="-0.09375">432</tspan>
       </text>
      </g>
     </g>
    </g>
    <g id="xtick_5">
     <g id="line2d_8">
      <g>
       <use xlink:href="#m6ad75e4a9d" x="245.182731" y="216.404326" style="stroke: #000000; stroke-width: 1.25"/>
      </g>
     </g>
     <g id="text_5">
      <!-- $\mathdefault{433}$ -->
      <g transform="translate(235.997731 231.52792)">
       <text>
        <tspan style="font: 11px 'Arial'" x="0 6.117676 12.235352" y="-0.09375">433</tspan>
       </text>
      </g>
     </g>
    </g>
    <g id="xtick_6">
     <g id="line2d_9">
      <g>
       <use xlink:href="#m6ad75e4a9d" x="295.727417" y="216.404326" style="stroke: #000000; stroke-width: 1.25"/>
      </g>
     </g>
     <g id="text_6">
      <!-- $\mathdefault{434}$ -->
      <g transform="translate(286.542417 231.52792)">
       <text>
        <tspan style="font: 11px 'Arial'" x="0 6.117676 12.235352" y="-0.09375">434</tspan>
       </text>
      </g>
     </g>
    </g>
    <g id="text_7">
     <!-- $\lambda$ {\sffamily (nm)} -->
     <g transform="translate(164.206736 246.411565) scale(0.12 -0.12)">
      <defs>
       <path id="StandardSymL-6c" d="M 480 3650 
C 525 4013 710 4224 998 4224 
C 1203 4224 1376 4064 1472 3778 
C 1517 3650 1574 3440 1632 3198 
L 154 19 
L 755 19 
L 1843 2301 
C 2048 1059 2150 607 2266 358 
C 2406 83 2611 -64 2848 -64 
C 3098 -64 3296 89 3405 371 
C 3475 543 3501 715 3507 1014 
L 3373 1014 
C 3322 683 3174 499 2944 499 
C 2752 499 2586 620 2483 843 
C 2400 1008 2355 1174 2266 1645 
L 2093 2466 
C 2086 2485 2080 2530 2067 2594 
C 1920 3415 1690 4192 1536 4422 
C 1395 4627 1203 4736 992 4736 
C 602 4736 397 4403 326 3650 
L 480 3650 
z
" transform="scale(0.015625)"/>
       <path id="NimbusSanL-Regu-28" d="M 1510 4672 
C 870 3833 467 2668 467 1663 
C 467 652 870 -513 1510 -1351 
L 1862 -1351 
C 1299 -436 986 639 986 1663 
C 986 2681 1299 3763 1862 4672 
L 1510 4672 
z
" transform="scale(0.015625)"/>
       <path id="NimbusSanL-Regu-6e" d="M 448 3328 
L 448 0 
L 986 0 
L 986 1835 
C 986 2539 1344 2988 1894 2988 
C 2317 2988 2586 2732 2586 2328 
L 2586 0 
L 3117 0 
L 3117 2539 
C 3117 3097 2701 3456 2054 3456 
C 1555 3456 1235 3263 941 2796 
L 941 3328 
L 448 3328 
z
" transform="scale(0.015625)"/>
       <path id="NimbusSanL-Regu-6d" d="M 448 3328 
L 448 0 
L 986 0 
L 986 2089 
C 986 2597 1338 2988 1773 2988 
C 2170 2988 2394 2744 2394 2315 
L 2394 0 
L 2931 0 
L 2931 2109 
C 2931 2597 3283 2988 3718 2988 
C 4109 2988 4339 2738 4339 2315 
L 4339 0 
L 4877 0 
L 4877 2520 
C 4877 3123 4531 3456 3904 3456 
C 3456 3456 3187 3321 2874 2943 
C 2675 3302 2406 3456 1971 3456 
C 1523 3456 1229 3289 941 2886 
L 941 3328 
L 448 3328 
z
" transform="scale(0.015625)"/>
       <path id="NimbusSanL-Regu-29" d="M 595 -1351 
C 1235 -513 1638 652 1638 1657 
C 1638 2668 1235 3833 595 4672 
L 243 4672 
C 806 3756 1120 2681 1120 1657 
C 1120 639 806 -442 243 -1351 
L 595 -1351 
z
" transform="scale(0.015625)"/>
      </defs>
      <use xlink:href="#StandardSymL-6c" transform="scale(0.996264)"/>
      <use xlink:href="#NimbusSanL-Regu-28" transform="translate(91.855235 0) scale(0.996264)"/>
      <use xlink:href="#NimbusSanL-Regu-6e" transform="translate(125.030464 0) scale(0.996264)"/>
      <use xlink:href="#NimbusSanL-Regu-6d" transform="translate(180.422141 0) scale(0.996264)"/>
      <use xlink:href="#NimbusSanL-Regu-29" transform="translate(263.410572 0) scale(0.996264)"/>
     </g>
    </g>
   </g>
   <g id="matplotlib.axis_2">
    <g id="ytick_1">
     <g id="line2d_10">
      <defs>
       <path id="m054dc9b183" d="M 0 0 
L -3.75 0 
" style="stroke: #000000; stroke-width: 1.25"/>
      </defs>
      <g>
       <use xlink:href="#m054dc9b183" x="43.003987" y="216.404326" style="stroke: #000000; stroke-width: 1.25"/>
      </g>
     </g>
     <g id="text_8">
      <!-- $\mathdefault{0.0}$ -->
      <g transform="translate(20.353987 220.341123)">
       <text>
        <tspan style="font: 11px 'Arial'" x="0 6.117676 9.173828" y="-0.09375">0.0</tspan>
       </text>
      </g>
     </g>
    </g>
    <g id="ytick_2">
     <g id="line2d_11">
      <g>
       <use xlink:href="#m054dc9b183" x="43.003987" y="186.13425" style="stroke: #000000; stroke-width: 1.25"/>
      </g>
     </g>
     <g id="text_9">
      <!-- $\mathdefault{0.5}$ -->
      <g transform="translate(20.353987 190.071047)">
       <text>
        <tspan style="font: 11px 'Arial'" x="0 6.117676 9.173828" y="-0.09375">0.5</tspan>
       </text>
      </g>
     </g>
    </g>
    <g id="ytick_3">
     <g id="line2d_12">
      <g>
       <use xlink:href="#m054dc9b183" x="43.003987" y="155.864174" style="stroke: #000000; stroke-width: 1.25"/>
      </g>
     </g>
     <g id="text_10">
      <!-- $\mathdefault{1.0}$ -->
      <g transform="translate(20.353987 159.800971)">
       <text>
        <tspan style="font: 11px 'Arial'" x="0 6.117676 9.173828" y="-0.09375">1.0</tspan>
       </text>
      </g>
     </g>
    </g>
    <g id="ytick_4">
     <g id="line2d_13">
      <g>
       <use xlink:href="#m054dc9b183" x="43.003987" y="125.594099" style="stroke: #000000; stroke-width: 1.25"/>
      </g>
     </g>
     <g id="text_11">
      <!-- $\mathdefault{1.5}$ -->
      <g transform="translate(20.353987 129.530896)">
       <text>
        <tspan style="font: 11px 'Arial'" x="0 6.117676 9.173828" y="-0.09375">1.5</tspan>
       </text>
      </g>
     </g>
    </g>
    <g id="ytick_5">
     <g id="line2d_14">
      <g>
       <use xlink:href="#m054dc9b183" x="43.003987" y="95.324023" style="stroke: #000000; stroke-width: 1.25"/>
      </g>
     </g>
     <g id="text_12">
      <!-- $\mathdefault{2.0}$ -->
      <g transform="translate(20.353987 99.26082)">
       <text>
        <tspan style="font: 11px 'Arial'" x="0 6.117676 9.173828" y="-0.09375">2.0</tspan>
       </text>
      </g>
     </g>
    </g>
    <g id="ytick_6">
     <g id="line2d_15">
      <g>
       <use xlink:href="#m054dc9b183" x="43.003987" y="65.053947" style="stroke: #000000; stroke-width: 1.25"/>
      </g>
     </g>
     <g id="text_13">
      <!-- $\mathdefault{2.5}$ -->
      <g transform="translate(20.353987 68.990744)">
       <text>
        <tspan style="font: 11px 'Arial'" x="0 6.117676 9.173828" y="-0.09375">2.5</tspan>
       </text>
      </g>
     </g>
    </g>
    <g id="ytick_7">
     <g id="line2d_16">
      <g>
       <use xlink:href="#m054dc9b183" x="43.003987" y="34.783872" style="stroke: #000000; stroke-width: 1.25"/>
      </g>
     </g>
     <g id="text_14">
      <!-- $\mathdefault{3.0}$ -->
      <g transform="translate(20.353987 38.720669)">
       <text>
        <tspan style="font: 11px 'Arial'" x="0 6.117676 9.173828" y="-0.09375">3.0</tspan>
       </text>
      </g>
     </g>
    </g>
    <g id="text_15">
     <!-- $B_{\lambda}$ {\sffamily (photons/cm\textsuperscript{2}/s/nm)} -->
     <g transform="translate(13.728305 177.714049) rotate(-90) scale(0.12 -0.12)">
      <defs>
       <path id="NimbusRomNo9L-ReguItal-42" d="M -51 0 
L 1754 0 
C 2758 0 3450 523 3450 1274 
C 3450 1510 3373 1732 3232 1872 
C 3104 2019 2976 2095 2643 2235 
C 3098 2344 3283 2420 3488 2598 
C 3667 2751 3763 2968 3763 3222 
C 3763 3827 3309 4160 2483 4160 
L 832 4160 
L 832 4057 
C 1229 4025 1325 3974 1325 3795 
C 1325 3700 1299 3541 1254 3388 
L 467 574 
C 352 204 307 166 -51 102 
L -51 0 
z
M 1523 2108 
C 1939 2108 2208 2083 2336 2032 
C 2598 1923 2758 1643 2758 1299 
C 2758 612 2285 192 1504 192 
C 1235 192 1094 287 1094 459 
C 1094 535 1171 841 1318 1350 
C 1402 1637 1440 1783 1523 2108 
z
M 2003 3789 
C 2042 3929 2118 3967 2368 3967 
C 2880 3967 3117 3751 3117 3280 
C 3117 2917 2963 2637 2688 2484 
C 2470 2356 2163 2312 1587 2312 
L 2003 3789 
z
" transform="scale(0.015625)"/>
       <path id="NimbusSanL-Regu-70" d="M 346 -1408 
L 883 -1408 
L 883 371 
C 1165 25 1478 -128 1914 -128 
C 2778 -128 3347 568 3347 1632 
C 3347 2752 2797 3456 1907 3456 
C 1453 3456 1088 3251 838 2854 
L 838 3359 
L 346 3359 
L 346 -1408 
z
M 1818 2956 
C 2406 2956 2790 2440 2790 1644 
C 2790 887 2400 371 1818 371 
C 1254 371 883 880 883 1663 
C 883 2447 1254 2956 1818 2956 
z
" transform="scale(0.015625)"/>
       <path id="NimbusSanL-Regu-68" d="M 448 4672 
L 448 0 
L 979 0 
L 979 1853 
C 979 2539 1338 2988 1888 2988 
C 2061 2988 2234 2930 2362 2834 
C 2515 2725 2579 2565 2579 2328 
L 2579 0 
L 3110 0 
L 3110 2539 
C 3110 3103 2707 3456 2054 3456 
C 1581 3456 1293 3308 979 2898 
L 979 4672 
L 448 4672 
z
" transform="scale(0.015625)"/>
       <path id="NimbusSanL-Regu-6f" d="M 1741 3456 
C 800 3456 230 2784 230 1663 
C 230 543 794 -128 1747 -128 
C 2688 -128 3264 543 3264 1638 
C 3264 2791 2707 3456 1741 3456 
z
M 1747 2963 
C 2349 2963 2707 2472 2707 1644 
C 2707 861 2336 364 1747 364 
C 1152 364 787 855 787 1663 
C 787 2466 1152 2963 1747 2963 
z
" transform="scale(0.015625)"/>
       <path id="NimbusSanL-Regu-74" d="M 1626 3328 
L 1075 3328 
L 1075 4249 
L 544 4249 
L 544 3328 
L 90 3328 
L 90 2892 
L 544 2892 
L 544 402 
C 544 64 774 -128 1190 -128 
C 1318 -128 1446 -116 1626 -84 
L 1626 364 
C 1555 345 1472 339 1370 339 
C 1139 339 1075 402 1075 634 
L 1075 2892 
L 1626 2892 
L 1626 3328 
z
" transform="scale(0.015625)"/>
       <path id="NimbusSanL-Regu-73" d="M 2803 2428 
C 2797 3084 2362 3456 1587 3456 
C 806 3456 301 3052 301 2434 
C 301 1912 570 1663 1363 1472 
L 1862 1351 
C 2234 1262 2381 1129 2381 887 
C 2381 574 2067 364 1600 364 
C 1312 364 1069 447 934 587 
C 851 683 813 778 781 1014 
L 218 1014 
C 243 243 678 -128 1555 -128 
C 2400 -128 2938 288 2938 931 
C 2938 1428 2656 1702 1990 1861 
L 1478 1982 
C 1043 2084 858 2224 858 2459 
C 858 2765 1133 2963 1568 2963 
C 1997 2963 2227 2778 2240 2428 
L 2803 2428 
z
" transform="scale(0.015625)"/>
       <path id="NimbusSanL-Regu-2f" d="M 1466 4672 
L -51 -128 
L 301 -128 
L 1818 4672 
L 1466 4672 
z
" transform="scale(0.015625)"/>
       <path id="NimbusSanL-Regu-63" d="M 3014 2237 
C 2989 2561 2918 2771 2790 2956 
C 2560 3270 2157 3456 1690 3456 
C 787 3456 198 2740 198 1632 
C 198 555 774 -128 1683 -128 
C 2483 -128 2989 352 3053 1167 
L 2515 1167 
C 2426 632 2150 364 1696 364 
C 1107 364 755 842 755 1632 
C 755 2466 1101 2963 1683 2963 
C 2131 2963 2413 2701 2477 2237 
L 3014 2237 
z
" transform="scale(0.015625)"/>
       <path id="NimbusSanL-Regu-32" d="M 3238 556 
L 851 556 
C 909 928 1114 1165 1670 1493 
L 2310 1839 
C 2944 2185 3270 2653 3270 3211 
C 3270 3589 3117 3942 2848 4185 
C 2579 4428 2246 4544 1818 4544 
C 1242 4544 813 4339 563 3955 
C 403 3711 333 3429 320 2967 
L 883 2967 
C 902 3275 941 3461 1018 3608 
C 1165 3884 1459 4051 1798 4051 
C 2310 4051 2694 3685 2694 3198 
C 2694 2839 2483 2531 2080 2300 
L 1491 1967 
C 544 1428 269 999 218 0 
L 3238 0 
L 3238 556 
z
" transform="scale(0.015625)"/>
      </defs>
      <use xlink:href="#NimbusRomNo9L-ReguItal-42" transform="scale(0.996264)"/>
      <use xlink:href="#StandardSymL-6c" transform="translate(60.871631 -20.616338) scale(0.737241)"/>
      <use xlink:href="#NimbusSanL-Regu-28" transform="translate(135.818713 0) scale(0.996264)"/>
      <use xlink:href="#NimbusSanL-Regu-70" transform="translate(168.993943 0) scale(0.996264)"/>
      <use xlink:href="#NimbusSanL-Regu-68" transform="translate(224.38562 0) scale(0.996264)"/>
      <use xlink:href="#NimbusSanL-Regu-6f" transform="translate(279.777297 0) scale(0.996264)"/>
      <use xlink:href="#NimbusSanL-Regu-74" transform="translate(335.168974 0) scale(0.996264)"/>
      <use xlink:href="#NimbusSanL-Regu-6f" transform="translate(362.864143 0) scale(0.996264)"/>
      <use xlink:href="#NimbusSanL-Regu-6e" transform="translate(418.25582 0) scale(0.996264)"/>
      <use xlink:href="#NimbusSanL-Regu-73" transform="translate(473.647497 0) scale(0.996264)"/>
      <use xlink:href="#NimbusSanL-Regu-2f" transform="translate(523.460698 0) scale(0.996264)"/>
      <use xlink:href="#NimbusSanL-Regu-63" transform="translate(551.155868 0) scale(0.996264)"/>
      <use xlink:href="#NimbusSanL-Regu-6d" transform="translate(600.969068 0) scale(0.996264)"/>
      <use xlink:href="#NimbusSanL-Regu-32" transform="translate(683.957498 36.163231) scale(0.737241)"/>
      <use xlink:href="#NimbusSanL-Regu-2f" transform="translate(725.445777 0) scale(0.996264)"/>
      <use xlink:href="#NimbusSanL-Regu-73" transform="translate(753.140947 0) scale(0.996264)"/>
      <use xlink:href="#NimbusSanL-Regu-2f" transform="translate(802.954147 0) scale(0.996264)"/>
      <use xlink:href="#NimbusSanL-Regu-6e" transform="translate(830.649317 0) scale(0.996264)"/>
      <use xlink:href="#NimbusSanL-Regu-6d" transform="translate(886.040994 0) scale(0.996264)"/>
      <use xlink:href="#NimbusSanL-Regu-29" transform="translate(969.029424 0) scale(0.996264)"/>
     </g>
    </g>
    <g id="text_16">
     <!-- $\times\mathdefault{10^{12}}\mathdefault{}$ -->
     <g transform="translate(43.003987 14.735865)">
      <text>
       <tspan style="font: 11px 'STIXGeneral'" x="0" y="-0.799312500000001"></tspan>
       <tspan style="font: 11px 'Arial'" x="7.039993 13.157669" y="-0.799312500000001">10</tspan>
       <tspan style="font: 7.7px 'Arial'" x="19.467003 23.749376" y="-8.465625">12</tspan>
      </text>
     </g>
    </g>
   </g>
   <g id="patch_7">
    <path d="M 217.800817 47.652918 
L 217.800817 67.40298 
L 294.609383 67.40298 
" style="fill: none; stroke: #000000; stroke-linecap: round"/>
    <path d="M 290.609383 65.40298 
L 294.609383 67.40298 
L 290.609383 69.40298 
" style="fill: none; stroke: #000000; stroke-linecap: round"/>
   </g>
   <g id="text_17">
    <g id="patch_8">
     <path d="M 184.100817 50.702711 
L 251.500817 50.702711 
Q 254.500817 50.702711 254.500817 47.702711 
L 254.500817 37.602711 
Q 254.500817 34.602711 251.500817 34.602711 
L 184.100817 34.602711 
Q 181.100817 34.602711 181.100817 37.602711 
L 181.100817 47.702711 
Q 181.100817 50.702711 184.100817 50.702711 
z
" style="fill: #f5deb3; stroke: #000000; stroke-linejoin: miter"/>
    </g>
    <!-- D$_{\gamma}$ (434.00) nm -->
    <g transform="translate(184.100817 44.902711)">
     <text>
      <tspan style="font: 10px 'Arial'" x="0 10.686517 13.464837 16.794915 22.356439 27.917962 33.479486 36.257806 41.81933 47.380853 50.710931 53.489251 59.050775" y="-0.71875">D(434.00)nm</tspan>
      <tspan style="font: italic 7px 'STIXGeneral'" x="7.375898" y="0.6031250000000004"></tspan>
     </text>
    </g>
   </g>
   <g id="text_18">
    <text style="font: 10px 'Arial'; text-anchor: middle" x="236.103604" y="91.877449" transform="rotate(-0 236.103604 91.877449)">Q-branch</text>
   </g>
   <g id="text_19">
    <text style="font: 10px 'Arial'; text-anchor: middle" x="121.690624" y="39.581797" transform="rotate(-0 121.690624 39.581797)">B-D + C-D</text>
   </g>
   <g id="text_20">
    <text style="font: 700 12px 'Arial'; text-anchor: middle" x="182.001874" y="11.735865" transform="rotate(-0 182.001874 11.735865)">PC boron pebble rod - 32 min</text>
   </g>
  </g>
 </g>
 <defs>
  <clipPath id="pc9e76815cd">
   <rect x="43.003987" y="17.735865" width="277.995773" height="198.668461"/>
  </clipPath>
 </defs>
</svg>
