<?xml version="1.0" encoding="utf-8" standalone="no"?>
<!DOCTYPE svg PUBLIC "-//W3C//DTD SVG 1.1//EN"
  "http://www.w3.org/Graphics/SVG/1.1/DTD/svg11.dtd">
<svg xmlns:xlink="http://www.w3.org/1999/xlink" width="324pt" height="252pt" viewBox="0 0 324 252" xmlns="http://www.w3.org/2000/svg" version="1.1">
 <metadata>
  <rdf:RDF xmlns:dc="http://purl.org/dc/elements/1.1/" xmlns:cc="http://creativecommons.org/ns#" xmlns:rdf="http://www.w3.org/1999/02/22-rdf-syntax-ns#">
   <cc:Work>
    <dc:type rdf:resource="http://purl.org/dc/dcmitype/StillImage"/>
    <dc:date>2024-12-06T11:02:02.774218</dc:date>
    <dc:format>image/svg+xml</dc:format>
    <dc:creator>
     <cc:Agent>
      <dc:title>Matplotlib v3.9.2, https://matplotlib.org/</dc:title>
     </cc:Agent>
    </dc:creator>
   </cc:Work>
  </rdf:RDF>
 </metadata>
 <defs>
  <style type="text/css">*{stroke-linejoin: round; stroke-linecap: butt}</style>
 </defs>
 <g id="figure_1">
  <g id="patch_1">
   <path d="M 0 252 
L 324 252 
L 324 0 
L 0 0 
z
" style="fill: #ffffff"/>
  </g>
  <g id="axes_1">
   <g id="patch_2">
    <path d="M 43.003987 216.404326 
L 320.99976 216.404326 
L 320.99976 17.735865 
L 43.003987 17.735865 
z
" style="fill: #ffffff"/>
   </g>
   <g id="PolyCollection_1">
    <path d="M 43.27895 216.215099 
L 43.27895 216.404326 
L 44.636075 216.404326 
L 45.992189 216.404326 
L 47.349314 216.404326 
L 48.705428 216.404326 
L 50.062553 216.404326 
L 51.420183 216.404326 
L 52.775791 216.404326 
L 54.133422 216.404326 
L 55.490547 216.404326 
L 56.848177 216.404326 
L 58.205807 216.404326 
L 59.562932 216.404326 
L 60.920562 216.404326 
L 62.277687 216.404326 
L 63.635317 216.404326 
L 64.993958 216.404326 
L 66.351589 216.404326 
L 67.708713 216.404326 
L 69.06786 216.404326 
L 70.42549 216.404326 
L 71.784131 216.404326 
L 73.141762 216.404326 
L 74.500403 216.404326 
L 75.85955 216.404326 
L 77.216674 216.404326 
L 78.575821 216.404326 
L 79.934968 216.404326 
L 81.293609 216.404326 
L 82.652755 216.404326 
L 84.011396 216.404326 
L 85.370543 216.404326 
L 86.72969 216.404326 
L 88.089847 216.404326 
L 89.448994 216.404326 
L 90.80814 216.404326 
L 92.168298 216.404326 
L 93.527444 216.404326 
L 94.887602 216.404326 
L 96.246749 216.404326 
L 97.607412 216.404326 
L 98.966053 216.404326 
L 100.326716 216.404326 
L 101.687379 216.404326 
L 103.047536 216.404326 
L 104.408199 216.404326 
L 105.768862 216.404326 
L 107.129019 216.404326 
L 108.489682 216.404326 
L 109.84984 216.404326 
L 111.210503 216.404326 
L 112.571166 216.404326 
L 113.93284 216.404326 
L 115.293503 216.404326 
L 116.654166 216.404326 
L 118.015839 216.404326 
L 119.376502 216.404326 
L 120.738682 216.404326 
L 122.100861 216.404326 
L 123.461018 216.404326 
L 124.823198 216.404326 
L 126.185377 216.404326 
L 127.547051 216.404326 
L 128.90923 216.404326 
L 130.271409 216.404326 
L 131.633083 216.404326 
L 132.995262 216.404326 
L 134.357442 216.404326 
L 135.719116 216.404326 
L 137.082811 216.404326 
L 138.444991 216.404326 
L 139.80717 216.404326 
L 141.17036 216.404326 
L 142.532539 216.404326 
L 143.896235 216.404326 
L 145.259931 216.404326 
L 146.621604 216.404326 
L 147.9853 216.404326 
L 149.348996 216.404326 
L 150.712691 216.404326 
L 152.075881 216.404326 
L 153.438061 216.404326 
L 154.801756 216.404326 
L 156.166968 216.404326 
L 157.530159 216.404326 
L 158.893854 216.404326 
L 160.25755 216.404326 
L 161.621245 216.404326 
L 162.985952 216.404326 
L 164.349648 216.404326 
L 165.714859 216.404326 
L 167.078555 216.404326 
L 168.443767 216.404326 
L 169.808474 216.404326 
L 171.172169 216.404326 
L 172.537381 216.404326 
L 173.902593 216.404326 
L 175.267805 216.404326 
L 176.632512 216.404326 
L 177.997724 216.404326 
L 179.362936 216.404326 
L 180.728148 216.404326 
L 182.09336 216.404326 
L 183.458066 216.404326 
L 184.823278 216.404326 
L 186.190006 216.404326 
L 187.555218 216.404326 
L 188.921947 216.404326 
L 190.286653 216.404326 
L 191.653381 216.404326 
L 193.018593 216.404326 
L 194.385322 216.404326 
L 195.75205 216.404326 
L 197.118778 216.404326 
L 198.48399 216.404326 
L 199.850213 216.404326 
L 201.216941 216.404326 
L 202.58367 216.404326 
L 203.950398 216.404326 
L 205.318643 216.404326 
L 206.685371 216.404326 
L 208.052099 216.404326 
L 209.418322 216.404326 
L 210.786567 216.404326 
L 212.153295 216.404326 
L 213.52154 216.404326 
L 214.888268 216.404326 
L 216.256513 216.404326 
L 217.623241 216.404326 
L 218.991486 216.404326 
L 220.35973 216.404326 
L 221.72747 216.404326 
L 223.095714 216.404326 
L 224.463959 216.404326 
L 225.832204 216.404326 
L 227.200448 216.404326 
L 228.568693 216.404326 
L 229.936937 216.404326 
L 231.305182 216.404326 
L 232.673427 216.404326 
L 234.043188 216.404326 
L 235.411432 216.404326 
L 236.781193 216.404326 
L 238.148933 216.404326 
L 239.518694 216.404326 
L 240.886938 216.404326 
L 242.256699 216.404326 
L 243.62646 216.404326 
L 244.996221 216.404326 
L 246.364466 216.404326 
L 247.734227 216.404326 
L 249.103988 216.404326 
L 250.473749 216.404326 
L 251.84351 216.404326 
L 253.214787 216.404326 
L 254.584548 216.404326 
L 255.954309 216.404326 
L 257.32407 216.404326 
L 258.695347 216.404326 
L 260.065108 216.404326 
L 261.436386 216.404326 
L 262.806147 216.404326 
L 264.177424 216.404326 
L 265.547185 216.404326 
L 266.918462 216.404326 
L 268.28974 216.404326 
L 269.661017 216.404326 
L 271.032294 216.404326 
L 272.403572 216.404326 
L 273.774849 216.404326 
L 275.146126 216.404326 
L 276.517404 216.404326 
L 277.888681 216.404326 
L 279.259958 216.404326 
L 280.632752 216.404326 
L 282.004029 216.404326 
L 283.375307 216.404326 
L 284.7481 216.404326 
L 286.119378 216.404326 
L 287.492171 216.404326 
L 288.864965 216.404326 
L 290.236242 216.404326 
L 291.609036 216.404326 
L 292.98183 216.404326 
L 294.354623 216.404326 
L 295.727417 216.404326 
L 297.100716 216.404326 
L 298.47351 216.404326 
L 299.846303 216.404326 
L 301.219097 216.404326 
L 302.591891 216.404326 
L 303.964684 216.404326 
L 305.338995 216.404326 
L 306.711788 216.404326 
L 308.086098 216.404326 
L 309.458892 216.404326 
L 310.833202 216.404326 
L 312.205996 216.404326 
L 313.580811 216.404326 
L 314.955121 216.404326 
L 316.327915 216.404326 
L 317.702225 216.404326 
L 319.076535 216.404326 
L 320.450845 216.404326 
L 320.450845 215.392403 
L 320.450845 215.392403 
L 319.076535 215.357608 
L 317.702225 215.320961 
L 316.327915 215.282326 
L 314.955121 215.241599 
L 313.580811 215.198528 
L 312.205996 215.152959 
L 310.833202 215.104781 
L 309.458892 215.053653 
L 308.086098 214.999446 
L 306.711788 214.941771 
L 305.338995 214.880457 
L 303.964684 214.815034 
L 302.591891 214.745273 
L 301.219097 214.670686 
L 299.846303 214.590802 
L 298.47351 214.505089 
L 297.100716 214.412942 
L 295.727417 214.313636 
L 294.354623 214.206455 
L 292.98183 214.09046 
L 291.609036 213.964605 
L 290.236242 213.827674 
L 288.864965 213.67842 
L 287.492171 213.51484 
L 286.119378 213.335108 
L 284.7481 213.137081 
L 283.375307 212.917459 
L 282.004029 212.67324 
L 280.632752 212.399896 
L 279.259958 212.091687 
L 277.888681 211.742463 
L 276.517404 211.343085 
L 275.146126 210.881935 
L 273.774849 210.343356 
L 272.403572 209.705692 
L 271.032294 208.938064 
L 269.661017 207.994913 
L 268.28974 206.806348 
L 266.918462 205.26044 
L 265.547185 203.169838 
L 264.177424 200.212877 
L 262.806147 195.814896 
L 261.436386 189.107841 
L 260.065108 179.549702 
L 258.695347 170.401545 
L 257.32407 169.579765 
L 255.954309 175.502594 
L 254.584548 180.258817 
L 253.214787 181.645894 
L 251.84351 180.224157 
L 250.473749 176.668439 
L 249.103988 171.501094 
L 247.734227 165.404796 
L 246.364466 159.527338 
L 244.996221 155.397797 
L 243.62646 154.127455 
L 242.256699 155.553377 
L 240.886938 158.370689 
L 239.518694 161.14359 
L 238.148933 163.012769 
L 236.781193 163.732872 
L 235.411432 163.497567 
L 234.043188 162.765679 
L 232.673427 162.143213 
L 231.305182 162.246805 
L 229.936937 163.519043 
L 228.568693 166.08359 
L 227.200448 169.728357 
L 225.832204 174.035364 
L 224.463959 178.559589 
L 223.095714 182.952697 
L 221.72747 187.001372 
L 220.35973 190.607401 
L 218.991486 193.755076 
L 217.623241 196.468736 
L 216.256513 198.791839 
L 214.888268 200.781075 
L 213.52154 202.481764 
L 212.153295 203.942426 
L 210.786567 205.198421 
L 209.418322 206.285192 
L 208.052099 207.22722 
L 206.685371 208.049037 
L 205.318643 208.768925 
L 203.950398 209.40298 
L 202.58367 209.962597 
L 201.216941 210.45915 
L 199.850213 210.901497 
L 198.48399 211.296914 
L 197.118778 211.651544 
L 195.75205 211.971272 
L 194.385322 212.260134 
L 193.018593 212.52192 
L 191.653381 212.759611 
L 190.286653 212.976508 
L 188.921947 213.174443 
L 187.555218 213.356065 
L 186.190006 213.522681 
L 184.823278 213.676219 
L 183.458066 213.817697 
L 182.09336 213.948433 
L 180.728148 214.069571 
L 179.362936 214.181981 
L 177.997724 214.286478 
L 176.632512 214.383786 
L 175.267805 214.474513 
L 173.902593 214.5593 
L 172.537381 214.638624 
L 171.172169 214.712942 
L 169.808474 214.782592 
L 168.443767 214.848075 
L 167.078555 214.909692 
L 165.714859 214.967658 
L 164.349648 215.022375 
L 162.985952 215.073967 
L 161.621245 215.122757 
L 160.25755 215.168878 
L 158.893854 215.212551 
L 157.530159 215.253947 
L 156.166968 215.293208 
L 154.801756 215.330545 
L 153.438061 215.365991 
L 152.075881 215.399673 
L 150.712691 215.431764 
L 149.348996 215.462351 
L 147.9853 215.491516 
L 146.621604 215.519346 
L 145.259931 215.545883 
L 143.896235 215.57128 
L 142.532539 215.595564 
L 141.17036 215.618776 
L 139.80717 215.641018 
L 138.444991 215.662312 
L 137.082811 215.682726 
L 135.719116 215.70233 
L 134.357442 215.721117 
L 132.995262 215.739166 
L 131.633083 215.756509 
L 130.271409 215.773175 
L 128.90923 215.789211 
L 127.547051 215.804643 
L 126.185377 215.819496 
L 124.823198 215.833808 
L 123.461018 215.8476 
L 122.100861 215.860879 
L 120.738682 215.873706 
L 119.376502 215.886084 
L 118.015839 215.89802 
L 116.654166 215.909557 
L 115.293503 215.920695 
L 113.93284 215.931461 
L 112.571166 215.941878 
L 111.210503 215.951948 
L 109.84984 215.961692 
L 108.489682 215.97112 
L 107.129019 215.980254 
L 105.768862 215.989098 
L 104.408199 215.997671 
L 103.047536 216.005981 
L 101.687379 216.014036 
L 100.326716 216.021851 
L 98.966053 216.029434 
L 97.607412 216.036783 
L 96.246749 216.043928 
L 94.887602 216.050859 
L 93.527444 216.057596 
L 92.168298 216.064138 
L 90.80814 216.070501 
L 89.448994 216.076682 
L 88.089847 216.082693 
L 86.72969 216.088544 
L 85.370543 216.094233 
L 84.011396 216.099769 
L 82.652755 216.105157 
L 81.293609 216.110404 
L 79.934968 216.115512 
L 78.575821 216.120491 
L 77.216674 216.125341 
L 75.85955 216.130061 
L 74.500403 216.134669 
L 73.141762 216.13916 
L 71.784131 216.143537 
L 70.42549 216.147809 
L 69.06786 216.151974 
L 67.708713 216.156043 
L 66.351589 216.160008 
L 64.993958 216.16388 
L 63.635317 216.167664 
L 62.277687 216.171356 
L 60.920562 216.174961 
L 59.562932 216.178484 
L 58.205807 216.181926 
L 56.848177 216.18529 
L 55.490547 216.188579 
L 54.133422 216.191793 
L 52.775791 216.194937 
L 51.420183 216.198007 
L 50.062553 216.201014 
L 48.705428 216.203955 
L 47.349314 216.20683 
L 45.992189 216.209646 
L 44.636075 216.2124 
L 43.27895 216.215099 
z
" clip-path="url(#p884e683ea0)" style="fill: #1f77b4; fill-opacity: 0.25"/>
   </g>
   <g id="PolyCollection_2">
    <path d="M 43.27895 214.852059 
L 43.27895 216.404326 
L 44.636075 216.404326 
L 45.992189 216.404326 
L 47.349314 216.404326 
L 48.705428 216.404326 
L 50.062553 216.404326 
L 51.420183 216.404326 
L 52.775791 216.404326 
L 54.133422 216.404326 
L 55.490547 216.404326 
L 56.848177 216.404326 
L 58.205807 216.404326 
L 59.562932 216.404326 
L 60.920562 216.404326 
L 62.277687 216.404326 
L 63.635317 216.404326 
L 64.993958 216.404326 
L 66.351589 216.404326 
L 67.708713 216.404326 
L 69.06786 216.404326 
L 70.42549 216.404326 
L 71.784131 216.404326 
L 73.141762 216.404326 
L 74.500403 216.404326 
L 75.85955 216.404326 
L 77.216674 216.404326 
L 78.575821 216.404326 
L 79.934968 216.404326 
L 81.293609 216.404326 
L 82.652755 216.404326 
L 84.011396 216.404326 
L 85.370543 216.404326 
L 86.72969 216.404326 
L 88.089847 216.404326 
L 89.448994 216.404326 
L 90.80814 216.404326 
L 92.168298 216.404326 
L 93.527444 216.404326 
L 94.887602 216.404326 
L 96.246749 216.404326 
L 97.607412 216.404326 
L 98.966053 216.404326 
L 100.326716 216.404326 
L 101.687379 216.404326 
L 103.047536 216.404326 
L 104.408199 216.404326 
L 105.768862 216.404326 
L 107.129019 216.404326 
L 108.489682 216.404326 
L 109.84984 216.404326 
L 111.210503 216.404326 
L 112.571166 216.404326 
L 113.93284 216.404326 
L 115.293503 216.404326 
L 116.654166 216.404326 
L 118.015839 216.404326 
L 119.376502 216.404326 
L 120.738682 216.404326 
L 122.100861 216.404326 
L 123.461018 216.404326 
L 124.823198 216.404326 
L 126.185377 216.404326 
L 127.547051 216.404326 
L 128.90923 216.404326 
L 130.271409 216.404326 
L 131.633083 216.404326 
L 132.995262 216.404326 
L 134.357442 216.404326 
L 135.719116 216.404326 
L 137.082811 216.404326 
L 138.444991 216.404326 
L 139.80717 216.404326 
L 141.17036 216.404326 
L 142.532539 216.404326 
L 143.896235 216.404326 
L 145.259931 216.404326 
L 146.621604 216.404326 
L 147.9853 216.404326 
L 149.348996 216.404326 
L 150.712691 216.404326 
L 152.075881 216.404326 
L 153.438061 216.404326 
L 154.801756 216.404326 
L 156.166968 216.404326 
L 157.530159 216.404326 
L 158.893854 216.404326 
L 160.25755 216.404326 
L 161.621245 216.404326 
L 162.985952 216.404326 
L 164.349648 216.404326 
L 165.714859 216.404326 
L 167.078555 216.404326 
L 168.443767 216.404326 
L 169.808474 216.404326 
L 171.172169 216.404326 
L 172.537381 216.404326 
L 173.902593 216.404326 
L 175.267805 216.404326 
L 176.632512 216.404326 
L 177.997724 216.404326 
L 179.362936 216.404326 
L 180.728148 216.404326 
L 182.09336 216.404326 
L 183.458066 216.404326 
L 184.823278 216.404326 
L 186.190006 216.404326 
L 187.555218 216.404326 
L 188.921947 216.404326 
L 190.286653 216.404326 
L 191.653381 216.404326 
L 193.018593 216.404326 
L 194.385322 216.404326 
L 195.75205 216.404326 
L 197.118778 216.404326 
L 198.48399 216.404326 
L 199.850213 216.404326 
L 201.216941 216.404326 
L 202.58367 216.404326 
L 203.950398 216.404326 
L 205.318643 216.404326 
L 206.685371 216.404326 
L 208.052099 216.404326 
L 209.418322 216.404326 
L 210.786567 216.404326 
L 212.153295 216.404326 
L 213.52154 216.404326 
L 214.888268 216.404326 
L 216.256513 216.404326 
L 217.623241 216.404326 
L 218.991486 216.404326 
L 220.35973 216.404326 
L 221.72747 216.404326 
L 223.095714 216.404326 
L 224.463959 216.404326 
L 225.832204 216.404326 
L 227.200448 216.404326 
L 228.568693 216.404326 
L 229.936937 216.404326 
L 231.305182 216.404326 
L 232.673427 216.404326 
L 234.043188 216.404326 
L 235.411432 216.404326 
L 236.781193 216.404326 
L 238.148933 216.404326 
L 239.518694 216.404326 
L 240.886938 216.404326 
L 242.256699 216.404326 
L 243.62646 216.404326 
L 244.996221 216.404326 
L 246.364466 216.404326 
L 247.734227 216.404326 
L 249.103988 216.404326 
L 250.473749 216.404326 
L 251.84351 216.404326 
L 253.214787 216.404326 
L 254.584548 216.404326 
L 255.954309 216.404326 
L 257.32407 216.404326 
L 258.695347 216.404326 
L 260.065108 216.404326 
L 261.436386 216.404326 
L 262.806147 216.404326 
L 264.177424 216.404326 
L 265.547185 216.404326 
L 266.918462 216.404326 
L 268.28974 216.404326 
L 269.661017 216.404326 
L 271.032294 216.404326 
L 272.403572 216.404326 
L 273.774849 216.404326 
L 275.146126 216.404326 
L 276.517404 216.404326 
L 277.888681 216.404326 
L 279.259958 216.404326 
L 280.632752 216.404326 
L 282.004029 216.404326 
L 283.375307 216.404326 
L 284.7481 216.404326 
L 286.119378 216.404326 
L 287.492171 216.404326 
L 288.864965 216.404326 
L 290.236242 216.404326 
L 291.609036 216.404326 
L 292.98183 216.404326 
L 294.354623 216.404326 
L 295.727417 216.404326 
L 297.100716 216.404326 
L 298.47351 216.404326 
L 299.846303 216.404326 
L 301.219097 216.404326 
L 302.591891 216.404326 
L 303.964684 216.404326 
L 305.338995 216.404326 
L 306.711788 216.404326 
L 308.086098 216.404326 
L 309.458892 216.404326 
L 310.833202 216.404326 
L 312.205996 216.404326 
L 313.580811 216.404326 
L 314.955121 216.404326 
L 316.327915 216.404326 
L 317.702225 216.404326 
L 319.076535 216.404326 
L 320.450845 216.404326 
L 320.450845 216.188847 
L 320.450845 216.188847 
L 319.076535 216.185314 
L 317.702225 216.18169 
L 316.327915 216.177973 
L 314.955121 216.174163 
L 313.580811 216.170248 
L 312.205996 216.166227 
L 310.833202 216.162104 
L 309.458892 216.157865 
L 308.086098 216.153514 
L 306.711788 216.149037 
L 305.338995 216.14444 
L 303.964684 216.139707 
L 302.591891 216.134845 
L 301.219097 216.129841 
L 299.846303 216.124691 
L 298.47351 216.119389 
L 297.100716 216.113929 
L 295.727417 216.108301 
L 294.354623 216.102503 
L 292.98183 216.096525 
L 291.609036 216.09036 
L 290.236242 216.083999 
L 288.864965 216.077442 
L 287.492171 216.070664 
L 286.119378 216.063663 
L 284.7481 216.056436 
L 283.375307 216.048958 
L 282.004029 216.041232 
L 280.632752 216.033239 
L 279.259958 216.024955 
L 277.888681 216.016386 
L 276.517404 216.007508 
L 275.146126 215.998305 
L 273.774849 215.98876 
L 272.403572 215.978855 
L 271.032294 215.968571 
L 269.661017 215.957888 
L 268.28974 215.946784 
L 266.918462 215.935235 
L 265.547185 215.923217 
L 264.177424 215.910715 
L 262.806147 215.897673 
L 261.436386 215.884089 
L 260.065108 215.869899 
L 258.695347 215.855098 
L 257.32407 215.839613 
L 255.954309 215.823436 
L 254.584548 215.806504 
L 253.214787 215.788766 
L 251.84351 215.770147 
L 250.473749 215.750629 
L 249.103988 215.730125 
L 247.734227 215.708566 
L 246.364466 215.685872 
L 244.996221 215.661986 
L 243.62646 215.63676 
L 242.256699 215.610118 
L 240.886938 215.581943 
L 239.518694 215.552143 
L 238.148933 215.520513 
L 236.781193 215.486977 
L 235.411432 215.451264 
L 234.043188 215.413268 
L 232.673427 215.372688 
L 231.305182 215.329367 
L 229.936937 215.282985 
L 228.568693 215.233229 
L 227.200448 215.179741 
L 225.832204 215.122117 
L 224.463959 215.059889 
L 223.095714 214.992525 
L 221.72747 214.919407 
L 220.35973 214.839849 
L 218.991486 214.752959 
L 217.623241 214.657788 
L 216.256513 214.553304 
L 214.888268 214.437913 
L 213.52154 214.310247 
L 212.153295 214.16807 
L 210.786567 214.009339 
L 209.418322 213.830824 
L 208.052099 213.629468 
L 206.685371 213.400561 
L 205.318643 213.138694 
L 203.950398 212.836572 
L 202.58367 212.485981 
L 201.216941 212.075105 
L 199.850213 211.588836 
L 198.48399 211.007281 
L 197.118778 210.303641 
L 195.75205 209.439111 
L 194.385322 208.36194 
L 193.018593 206.997354 
L 191.653381 205.239166 
L 190.286653 202.924277 
L 188.921947 199.82425 
L 187.555218 195.587479 
L 186.190006 189.75815 
L 184.823278 181.81451 
L 183.458066 171.656707 
L 182.09336 160.695213 
L 180.728148 152.897204 
L 179.362936 152.050435 
L 177.997724 156.219677 
L 176.632512 158.92178 
L 175.267805 153.785442 
L 173.902593 139.670783 
L 172.537381 139.614641 
L 171.172169 161.890129 
L 169.808474 179.502134 
L 168.443767 188.821818 
L 167.078555 193.239665 
L 165.714859 194.489629 
L 164.349648 192.609721 
L 162.985952 185.782137 
L 161.621245 172.453315 
L 160.25755 169.951652 
L 158.893854 181.965551 
L 157.530159 187.934624 
L 156.166968 187.631131 
L 154.801756 182.352617 
L 153.438061 170.968625 
L 152.075881 151.441075 
L 150.712691 129.814373 
L 149.348996 128.371144 
L 147.9853 142.398121 
L 146.621604 148.721281 
L 145.259931 142.428634 
L 143.896235 130.702299 
L 142.532539 131.999021 
L 141.17036 149.578205 
L 139.80717 167.080329 
L 138.444991 178.068499 
L 137.082811 183.550619 
L 135.719116 184.897144 
L 134.357442 182.359325 
L 132.995262 174.771654 
L 131.633083 159.069597 
L 130.271409 131.923833 
L 128.90923 105.972506 
L 127.547051 116.475864 
L 126.185377 146.862904 
L 124.823198 168.225318 
L 123.461018 179.493113 
L 122.100861 184.625906 
L 120.738682 185.912477 
L 119.376502 184.21511 
L 118.015839 179.619301 
L 116.654166 171.899312 
L 115.293503 161.524396 
L 113.93284 151.589223 
L 112.571166 148.212159 
L 111.210503 154.127012 
L 109.84984 164.470514 
L 108.489682 173.614635 
L 107.129019 179.301368 
L 105.768862 180.979564 
L 104.408199 178.01853 
L 103.047536 169.674015 
L 101.687379 159.924169 
L 100.326716 161.920796 
L 98.966053 174.511446 
L 97.607412 185.157837 
L 96.246749 191.218512 
L 94.887602 193.929382 
L 93.527444 194.217481 
L 92.168298 192.208602 
L 90.80814 187.156988 
L 89.448994 177.011137 
L 88.089847 158.237533 
L 86.72969 134.040888 
L 85.370543 130.48031 
L 84.011396 142.109751 
L 82.652755 145.957416 
L 81.293609 146.620938 
L 79.934968 153.906543 
L 78.575821 167.123091 
L 77.216674 179.867787 
L 75.85955 189.398206 
L 74.500403 196.004381 
L 73.141762 200.544716 
L 71.784131 203.727035 
L 70.42549 206.022661 
L 69.06786 207.722604 
L 67.708713 209.016507 
L 66.351589 210.021618 
L 64.993958 210.819947 
L 63.635317 211.465563 
L 62.277687 211.995112 
L 60.920562 212.435693 
L 59.562932 212.807021 
L 58.205807 213.123149 
L 56.848177 213.395095 
L 55.490547 213.630973 
L 54.133422 213.837092 
L 52.775791 214.018613 
L 51.420183 214.179203 
L 50.062553 214.322529 
L 48.705428 214.450876 
L 47.349314 214.566332 
L 45.992189 214.670811 
L 44.636075 214.765602 
L 43.27895 214.852059 
z
" clip-path="url(#p884e683ea0)" style="fill: #ff7f0e; fill-opacity: 0.25"/>
   </g>
   <g id="line2d_1">
    <path d="M 43.27895 186.320445 
L 44.636075 179.637664 
L 45.992189 174.572164 
L 47.349314 175.133381 
L 48.705428 179.154435 
L 51.420183 190.216457 
L 52.775791 192.318812 
L 54.133422 190.09809 
L 55.490547 188.843566 
L 56.848177 188.376567 
L 58.205807 189.045464 
L 59.562932 190.348635 
L 60.920562 187.974483 
L 63.635317 177.774459 
L 64.993958 175.515087 
L 66.351589 171.956871 
L 67.708713 171.605328 
L 69.06786 175.517667 
L 70.42549 180.232914 
L 71.784131 187.09055 
L 73.141762 189.384376 
L 74.500403 190.411979 
L 75.85955 187.574097 
L 77.216674 179.724997 
L 78.575821 166.37479 
L 79.934968 150.546181 
L 81.293609 142.498344 
L 82.652755 149.54684 
L 84.011396 140.361909 
L 85.370543 126.720622 
L 86.72969 139.708201 
L 88.089847 159.883411 
L 89.448994 182.370709 
L 90.80814 188.220909 
L 92.168298 189.929454 
L 93.527444 190.341283 
L 94.887602 191.009813 
L 96.246749 189.022159 
L 97.607412 183.338877 
L 98.966053 172.911438 
L 100.326716 160.669259 
L 101.687379 159.95344 
L 104.408199 178.949242 
L 105.768862 184.765139 
L 107.129019 182.988296 
L 108.489682 172.503104 
L 109.84984 159.396409 
L 111.210503 149.54896 
L 112.571166 148.13327 
L 113.93284 154.054012 
L 116.654166 174.32141 
L 118.015839 181.31982 
L 119.376502 185.091448 
L 120.738682 181.179594 
L 122.100861 175.18057 
L 123.461018 170.950436 
L 124.823198 164.673 
L 126.185377 143.165314 
L 127.547051 112.960073 
L 128.90923 107.679335 
L 130.271409 131.757196 
L 131.633083 165.030277 
L 132.995262 181.482898 
L 134.357442 184.249845 
L 135.719116 189.076416 
L 137.082811 189.664503 
L 138.444991 182.785315 
L 139.80717 156.873428 
L 141.17036 138.723013 
L 142.532539 132.665424 
L 145.259931 139.624257 
L 146.621604 141.446787 
L 147.9853 139.222299 
L 149.348996 130.863897 
L 150.712691 128.159787 
L 152.075881 152.618821 
L 153.438061 172.385376 
L 154.801756 189.067583 
L 156.166968 193.907682 
L 157.530159 188.326838 
L 158.893854 173.627268 
L 160.25755 168.747732 
L 161.621245 173.99563 
L 162.985952 185.921065 
L 164.349648 189.874877 
L 165.714859 190.790272 
L 167.078555 189.940581 
L 168.443767 187.408758 
L 169.808474 176.338584 
L 171.172169 154.360931 
L 172.537381 136.90405 
L 173.902593 138.873917 
L 175.267805 152.919675 
L 176.632512 160.488954 
L 177.997724 156.311302 
L 179.362936 147.404251 
L 180.728148 146.879341 
L 182.09336 158.768482 
L 183.458066 176.149832 
L 184.823278 187.034496 
L 186.190006 191.4643 
L 187.555218 187.913726 
L 188.921947 196.619724 
L 190.286653 209.007988 
L 191.653381 216.404326 
L 193.018593 216.404326 
L 194.385322 203.486042 
L 195.75205 188.883605 
L 197.118778 189.428881 
L 198.48399 191.883083 
L 199.850213 196.401232 
L 201.216941 198.117581 
L 202.58367 200.597706 
L 203.950398 202.209932 
L 205.318643 200.142107 
L 206.685371 203.042571 
L 208.052099 212.112579 
L 209.418322 214.887783 
L 212.153295 204.124405 
L 213.52154 203.97601 
L 214.888268 201.938333 
L 216.256513 200.161913 
L 217.623241 198.836976 
L 218.991486 196.075564 
L 220.35973 192.033373 
L 221.72747 186.525535 
L 224.463959 169.104705 
L 225.832204 169.573367 
L 227.200448 170.22902 
L 228.568693 165.485786 
L 229.936937 161.948426 
L 231.305182 159.316011 
L 232.673427 159.216761 
L 234.043188 162.753762 
L 235.411432 168.31223 
L 236.781193 169.052047 
L 238.148933 154.805314 
L 239.518694 153.45704 
L 240.886938 156.901952 
L 242.256699 158.93069 
L 243.62646 157.500066 
L 244.996221 154.674844 
L 246.364466 156.794439 
L 247.734227 155.104309 
L 249.103988 178.163169 
L 250.473749 182.73647 
L 251.84351 184.500005 
L 253.214787 181.350759 
L 254.584548 175.589178 
L 255.954309 170.524204 
L 257.32407 171.882301 
L 258.695347 173.863414 
L 260.065108 167.300977 
L 261.436386 203.057226 
L 262.806147 202.102126 
L 264.177424 200.114895 
L 265.547185 199.820038 
L 266.918462 201.313653 
L 269.661017 201.618148 
L 271.032294 201.026716 
L 272.403572 199.540297 
L 273.774849 195.487411 
L 275.146126 196.444631 
L 276.517404 198.85375 
L 277.888681 197.823737 
L 279.259958 193.981865 
L 280.632752 190.558363 
L 282.004029 188.692639 
L 283.375307 183.810901 
L 286.119378 169.031342 
L 287.492171 151.614797 
L 288.864965 119.879388 
L 290.236242 36.886526 
L 290.42374 -1 
M 300.643451 -1 
L 301.219097 72.662308 
L 302.591891 121.365487 
L 303.964684 144.396324 
L 305.338995 163.321402 
L 306.711788 176.590474 
L 308.086098 183.004137 
L 309.458892 184.048315 
L 312.205996 180.473274 
L 313.580811 180.710361 
L 316.327915 185.688636 
L 319.076535 191.514205 
L 320.450845 193.288728 
L 320.450845 193.288728 
" clip-path="url(#p884e683ea0)" style="fill: none; stroke: #1f77b4; stroke-width: 1.5; stroke-linecap: square"/>
    <defs>
     <path id="m8af2f92d10" d="M 0 1.5 
C 0.397805 1.5 0.77937 1.341951 1.06066 1.06066 
C 1.341951 0.77937 1.5 0.397805 1.5 0 
C 1.5 -0.397805 1.341951 -0.77937 1.06066 -1.06066 
C 0.77937 -1.341951 0.397805 -1.5 0 -1.5 
C -0.397805 -1.5 -0.77937 -1.341951 -1.06066 -1.06066 
C -1.341951 -0.77937 -1.5 -0.397805 -1.5 0 
C -1.5 0.397805 -1.341951 0.77937 -1.06066 1.06066 
C -0.77937 1.341951 -0.397805 1.5 0 1.5 
z
" style="stroke: #1f77b4"/>
    </defs>
    <g clip-path="url(#p884e683ea0)">
     <use xlink:href="#m8af2f92d10" x="43.27895" y="186.320445" style="fill-opacity: 0; stroke: #1f77b4"/>
     <use xlink:href="#m8af2f92d10" x="44.636075" y="179.637664" style="fill-opacity: 0; stroke: #1f77b4"/>
     <use xlink:href="#m8af2f92d10" x="45.992189" y="174.572164" style="fill-opacity: 0; stroke: #1f77b4"/>
     <use xlink:href="#m8af2f92d10" x="47.349314" y="175.133381" style="fill-opacity: 0; stroke: #1f77b4"/>
     <use xlink:href="#m8af2f92d10" x="48.705428" y="179.154435" style="fill-opacity: 0; stroke: #1f77b4"/>
     <use xlink:href="#m8af2f92d10" x="50.062553" y="184.657326" style="fill-opacity: 0; stroke: #1f77b4"/>
     <use xlink:href="#m8af2f92d10" x="51.420183" y="190.216457" style="fill-opacity: 0; stroke: #1f77b4"/>
     <use xlink:href="#m8af2f92d10" x="52.775791" y="192.318812" style="fill-opacity: 0; stroke: #1f77b4"/>
     <use xlink:href="#m8af2f92d10" x="54.133422" y="190.09809" style="fill-opacity: 0; stroke: #1f77b4"/>
     <use xlink:href="#m8af2f92d10" x="55.490547" y="188.843566" style="fill-opacity: 0; stroke: #1f77b4"/>
     <use xlink:href="#m8af2f92d10" x="56.848177" y="188.376567" style="fill-opacity: 0; stroke: #1f77b4"/>
     <use xlink:href="#m8af2f92d10" x="58.205807" y="189.045464" style="fill-opacity: 0; stroke: #1f77b4"/>
     <use xlink:href="#m8af2f92d10" x="59.562932" y="190.348635" style="fill-opacity: 0; stroke: #1f77b4"/>
     <use xlink:href="#m8af2f92d10" x="60.920562" y="187.974483" style="fill-opacity: 0; stroke: #1f77b4"/>
     <use xlink:href="#m8af2f92d10" x="62.277687" y="183.030924" style="fill-opacity: 0; stroke: #1f77b4"/>
     <use xlink:href="#m8af2f92d10" x="63.635317" y="177.774459" style="fill-opacity: 0; stroke: #1f77b4"/>
     <use xlink:href="#m8af2f92d10" x="64.993958" y="175.515087" style="fill-opacity: 0; stroke: #1f77b4"/>
     <use xlink:href="#m8af2f92d10" x="66.351589" y="171.956871" style="fill-opacity: 0; stroke: #1f77b4"/>
     <use xlink:href="#m8af2f92d10" x="67.708713" y="171.605328" style="fill-opacity: 0; stroke: #1f77b4"/>
     <use xlink:href="#m8af2f92d10" x="69.06786" y="175.517667" style="fill-opacity: 0; stroke: #1f77b4"/>
     <use xlink:href="#m8af2f92d10" x="70.42549" y="180.232914" style="fill-opacity: 0; stroke: #1f77b4"/>
     <use xlink:href="#m8af2f92d10" x="71.784131" y="187.09055" style="fill-opacity: 0; stroke: #1f77b4"/>
     <use xlink:href="#m8af2f92d10" x="73.141762" y="189.384376" style="fill-opacity: 0; stroke: #1f77b4"/>
     <use xlink:href="#m8af2f92d10" x="74.500403" y="190.411979" style="fill-opacity: 0; stroke: #1f77b4"/>
     <use xlink:href="#m8af2f92d10" x="75.85955" y="187.574097" style="fill-opacity: 0; stroke: #1f77b4"/>
     <use xlink:href="#m8af2f92d10" x="77.216674" y="179.724997" style="fill-opacity: 0; stroke: #1f77b4"/>
     <use xlink:href="#m8af2f92d10" x="78.575821" y="166.37479" style="fill-opacity: 0; stroke: #1f77b4"/>
     <use xlink:href="#m8af2f92d10" x="79.934968" y="150.546181" style="fill-opacity: 0; stroke: #1f77b4"/>
     <use xlink:href="#m8af2f92d10" x="81.293609" y="142.498344" style="fill-opacity: 0; stroke: #1f77b4"/>
     <use xlink:href="#m8af2f92d10" x="82.652755" y="149.54684" style="fill-opacity: 0; stroke: #1f77b4"/>
     <use xlink:href="#m8af2f92d10" x="84.011396" y="140.361909" style="fill-opacity: 0; stroke: #1f77b4"/>
     <use xlink:href="#m8af2f92d10" x="85.370543" y="126.720622" style="fill-opacity: 0; stroke: #1f77b4"/>
     <use xlink:href="#m8af2f92d10" x="86.72969" y="139.708201" style="fill-opacity: 0; stroke: #1f77b4"/>
     <use xlink:href="#m8af2f92d10" x="88.089847" y="159.883411" style="fill-opacity: 0; stroke: #1f77b4"/>
     <use xlink:href="#m8af2f92d10" x="89.448994" y="182.370709" style="fill-opacity: 0; stroke: #1f77b4"/>
     <use xlink:href="#m8af2f92d10" x="90.80814" y="188.220909" style="fill-opacity: 0; stroke: #1f77b4"/>
     <use xlink:href="#m8af2f92d10" x="92.168298" y="189.929454" style="fill-opacity: 0; stroke: #1f77b4"/>
     <use xlink:href="#m8af2f92d10" x="93.527444" y="190.341283" style="fill-opacity: 0; stroke: #1f77b4"/>
     <use xlink:href="#m8af2f92d10" x="94.887602" y="191.009813" style="fill-opacity: 0; stroke: #1f77b4"/>
     <use xlink:href="#m8af2f92d10" x="96.246749" y="189.022159" style="fill-opacity: 0; stroke: #1f77b4"/>
     <use xlink:href="#m8af2f92d10" x="97.607412" y="183.338877" style="fill-opacity: 0; stroke: #1f77b4"/>
     <use xlink:href="#m8af2f92d10" x="98.966053" y="172.911438" style="fill-opacity: 0; stroke: #1f77b4"/>
     <use xlink:href="#m8af2f92d10" x="100.326716" y="160.669259" style="fill-opacity: 0; stroke: #1f77b4"/>
     <use xlink:href="#m8af2f92d10" x="101.687379" y="159.95344" style="fill-opacity: 0; stroke: #1f77b4"/>
     <use xlink:href="#m8af2f92d10" x="103.047536" y="169.267173" style="fill-opacity: 0; stroke: #1f77b4"/>
     <use xlink:href="#m8af2f92d10" x="104.408199" y="178.949242" style="fill-opacity: 0; stroke: #1f77b4"/>
     <use xlink:href="#m8af2f92d10" x="105.768862" y="184.765139" style="fill-opacity: 0; stroke: #1f77b4"/>
     <use xlink:href="#m8af2f92d10" x="107.129019" y="182.988296" style="fill-opacity: 0; stroke: #1f77b4"/>
     <use xlink:href="#m8af2f92d10" x="108.489682" y="172.503104" style="fill-opacity: 0; stroke: #1f77b4"/>
     <use xlink:href="#m8af2f92d10" x="109.84984" y="159.396409" style="fill-opacity: 0; stroke: #1f77b4"/>
     <use xlink:href="#m8af2f92d10" x="111.210503" y="149.54896" style="fill-opacity: 0; stroke: #1f77b4"/>
     <use xlink:href="#m8af2f92d10" x="112.571166" y="148.13327" style="fill-opacity: 0; stroke: #1f77b4"/>
     <use xlink:href="#m8af2f92d10" x="113.93284" y="154.054012" style="fill-opacity: 0; stroke: #1f77b4"/>
     <use xlink:href="#m8af2f92d10" x="115.293503" y="163.944247" style="fill-opacity: 0; stroke: #1f77b4"/>
     <use xlink:href="#m8af2f92d10" x="116.654166" y="174.32141" style="fill-opacity: 0; stroke: #1f77b4"/>
     <use xlink:href="#m8af2f92d10" x="118.015839" y="181.31982" style="fill-opacity: 0; stroke: #1f77b4"/>
     <use xlink:href="#m8af2f92d10" x="119.376502" y="185.091448" style="fill-opacity: 0; stroke: #1f77b4"/>
     <use xlink:href="#m8af2f92d10" x="120.738682" y="181.179594" style="fill-opacity: 0; stroke: #1f77b4"/>
     <use xlink:href="#m8af2f92d10" x="122.100861" y="175.18057" style="fill-opacity: 0; stroke: #1f77b4"/>
     <use xlink:href="#m8af2f92d10" x="123.461018" y="170.950436" style="fill-opacity: 0; stroke: #1f77b4"/>
     <use xlink:href="#m8af2f92d10" x="124.823198" y="164.673" style="fill-opacity: 0; stroke: #1f77b4"/>
     <use xlink:href="#m8af2f92d10" x="126.185377" y="143.165314" style="fill-opacity: 0; stroke: #1f77b4"/>
     <use xlink:href="#m8af2f92d10" x="127.547051" y="112.960073" style="fill-opacity: 0; stroke: #1f77b4"/>
     <use xlink:href="#m8af2f92d10" x="128.90923" y="107.679335" style="fill-opacity: 0; stroke: #1f77b4"/>
     <use xlink:href="#m8af2f92d10" x="130.271409" y="131.757196" style="fill-opacity: 0; stroke: #1f77b4"/>
     <use xlink:href="#m8af2f92d10" x="131.633083" y="165.030277" style="fill-opacity: 0; stroke: #1f77b4"/>
     <use xlink:href="#m8af2f92d10" x="132.995262" y="181.482898" style="fill-opacity: 0; stroke: #1f77b4"/>
     <use xlink:href="#m8af2f92d10" x="134.357442" y="184.249845" style="fill-opacity: 0; stroke: #1f77b4"/>
     <use xlink:href="#m8af2f92d10" x="135.719116" y="189.076416" style="fill-opacity: 0; stroke: #1f77b4"/>
     <use xlink:href="#m8af2f92d10" x="137.082811" y="189.664503" style="fill-opacity: 0; stroke: #1f77b4"/>
     <use xlink:href="#m8af2f92d10" x="138.444991" y="182.785315" style="fill-opacity: 0; stroke: #1f77b4"/>
     <use xlink:href="#m8af2f92d10" x="139.80717" y="156.873428" style="fill-opacity: 0; stroke: #1f77b4"/>
     <use xlink:href="#m8af2f92d10" x="141.17036" y="138.723013" style="fill-opacity: 0; stroke: #1f77b4"/>
     <use xlink:href="#m8af2f92d10" x="142.532539" y="132.665424" style="fill-opacity: 0; stroke: #1f77b4"/>
     <use xlink:href="#m8af2f92d10" x="143.896235" y="136.127272" style="fill-opacity: 0; stroke: #1f77b4"/>
     <use xlink:href="#m8af2f92d10" x="145.259931" y="139.624257" style="fill-opacity: 0; stroke: #1f77b4"/>
     <use xlink:href="#m8af2f92d10" x="146.621604" y="141.446787" style="fill-opacity: 0; stroke: #1f77b4"/>
     <use xlink:href="#m8af2f92d10" x="147.9853" y="139.222299" style="fill-opacity: 0; stroke: #1f77b4"/>
     <use xlink:href="#m8af2f92d10" x="149.348996" y="130.863897" style="fill-opacity: 0; stroke: #1f77b4"/>
     <use xlink:href="#m8af2f92d10" x="150.712691" y="128.159787" style="fill-opacity: 0; stroke: #1f77b4"/>
     <use xlink:href="#m8af2f92d10" x="152.075881" y="152.618821" style="fill-opacity: 0; stroke: #1f77b4"/>
     <use xlink:href="#m8af2f92d10" x="153.438061" y="172.385376" style="fill-opacity: 0; stroke: #1f77b4"/>
     <use xlink:href="#m8af2f92d10" x="154.801756" y="189.067583" style="fill-opacity: 0; stroke: #1f77b4"/>
     <use xlink:href="#m8af2f92d10" x="156.166968" y="193.907682" style="fill-opacity: 0; stroke: #1f77b4"/>
     <use xlink:href="#m8af2f92d10" x="157.530159" y="188.326838" style="fill-opacity: 0; stroke: #1f77b4"/>
     <use xlink:href="#m8af2f92d10" x="158.893854" y="173.627268" style="fill-opacity: 0; stroke: #1f77b4"/>
     <use xlink:href="#m8af2f92d10" x="160.25755" y="168.747732" style="fill-opacity: 0; stroke: #1f77b4"/>
     <use xlink:href="#m8af2f92d10" x="161.621245" y="173.99563" style="fill-opacity: 0; stroke: #1f77b4"/>
     <use xlink:href="#m8af2f92d10" x="162.985952" y="185.921065" style="fill-opacity: 0; stroke: #1f77b4"/>
     <use xlink:href="#m8af2f92d10" x="164.349648" y="189.874877" style="fill-opacity: 0; stroke: #1f77b4"/>
     <use xlink:href="#m8af2f92d10" x="165.714859" y="190.790272" style="fill-opacity: 0; stroke: #1f77b4"/>
     <use xlink:href="#m8af2f92d10" x="167.078555" y="189.940581" style="fill-opacity: 0; stroke: #1f77b4"/>
     <use xlink:href="#m8af2f92d10" x="168.443767" y="187.408758" style="fill-opacity: 0; stroke: #1f77b4"/>
     <use xlink:href="#m8af2f92d10" x="169.808474" y="176.338584" style="fill-opacity: 0; stroke: #1f77b4"/>
     <use xlink:href="#m8af2f92d10" x="171.172169" y="154.360931" style="fill-opacity: 0; stroke: #1f77b4"/>
     <use xlink:href="#m8af2f92d10" x="172.537381" y="136.90405" style="fill-opacity: 0; stroke: #1f77b4"/>
     <use xlink:href="#m8af2f92d10" x="173.902593" y="138.873917" style="fill-opacity: 0; stroke: #1f77b4"/>
     <use xlink:href="#m8af2f92d10" x="175.267805" y="152.919675" style="fill-opacity: 0; stroke: #1f77b4"/>
     <use xlink:href="#m8af2f92d10" x="176.632512" y="160.488954" style="fill-opacity: 0; stroke: #1f77b4"/>
     <use xlink:href="#m8af2f92d10" x="177.997724" y="156.311302" style="fill-opacity: 0; stroke: #1f77b4"/>
     <use xlink:href="#m8af2f92d10" x="179.362936" y="147.404251" style="fill-opacity: 0; stroke: #1f77b4"/>
     <use xlink:href="#m8af2f92d10" x="180.728148" y="146.879341" style="fill-opacity: 0; stroke: #1f77b4"/>
     <use xlink:href="#m8af2f92d10" x="182.09336" y="158.768482" style="fill-opacity: 0; stroke: #1f77b4"/>
     <use xlink:href="#m8af2f92d10" x="183.458066" y="176.149832" style="fill-opacity: 0; stroke: #1f77b4"/>
     <use xlink:href="#m8af2f92d10" x="184.823278" y="187.034496" style="fill-opacity: 0; stroke: #1f77b4"/>
     <use xlink:href="#m8af2f92d10" x="186.190006" y="191.4643" style="fill-opacity: 0; stroke: #1f77b4"/>
     <use xlink:href="#m8af2f92d10" x="187.555218" y="187.913726" style="fill-opacity: 0; stroke: #1f77b4"/>
     <use xlink:href="#m8af2f92d10" x="188.921947" y="196.619724" style="fill-opacity: 0; stroke: #1f77b4"/>
     <use xlink:href="#m8af2f92d10" x="190.286653" y="209.007988" style="fill-opacity: 0; stroke: #1f77b4"/>
     <use xlink:href="#m8af2f92d10" x="191.653381" y="216.404326" style="fill-opacity: 0; stroke: #1f77b4"/>
     <use xlink:href="#m8af2f92d10" x="193.018593" y="216.404326" style="fill-opacity: 0; stroke: #1f77b4"/>
     <use xlink:href="#m8af2f92d10" x="194.385322" y="203.486042" style="fill-opacity: 0; stroke: #1f77b4"/>
     <use xlink:href="#m8af2f92d10" x="195.75205" y="188.883605" style="fill-opacity: 0; stroke: #1f77b4"/>
     <use xlink:href="#m8af2f92d10" x="197.118778" y="189.428881" style="fill-opacity: 0; stroke: #1f77b4"/>
     <use xlink:href="#m8af2f92d10" x="198.48399" y="191.883083" style="fill-opacity: 0; stroke: #1f77b4"/>
     <use xlink:href="#m8af2f92d10" x="199.850213" y="196.401232" style="fill-opacity: 0; stroke: #1f77b4"/>
     <use xlink:href="#m8af2f92d10" x="201.216941" y="198.117581" style="fill-opacity: 0; stroke: #1f77b4"/>
     <use xlink:href="#m8af2f92d10" x="202.58367" y="200.597706" style="fill-opacity: 0; stroke: #1f77b4"/>
     <use xlink:href="#m8af2f92d10" x="203.950398" y="202.209932" style="fill-opacity: 0; stroke: #1f77b4"/>
     <use xlink:href="#m8af2f92d10" x="205.318643" y="200.142107" style="fill-opacity: 0; stroke: #1f77b4"/>
     <use xlink:href="#m8af2f92d10" x="206.685371" y="203.042571" style="fill-opacity: 0; stroke: #1f77b4"/>
     <use xlink:href="#m8af2f92d10" x="208.052099" y="212.112579" style="fill-opacity: 0; stroke: #1f77b4"/>
     <use xlink:href="#m8af2f92d10" x="209.418322" y="214.887783" style="fill-opacity: 0; stroke: #1f77b4"/>
     <use xlink:href="#m8af2f92d10" x="210.786567" y="209.326923" style="fill-opacity: 0; stroke: #1f77b4"/>
     <use xlink:href="#m8af2f92d10" x="212.153295" y="204.124405" style="fill-opacity: 0; stroke: #1f77b4"/>
     <use xlink:href="#m8af2f92d10" x="213.52154" y="203.97601" style="fill-opacity: 0; stroke: #1f77b4"/>
     <use xlink:href="#m8af2f92d10" x="214.888268" y="201.938333" style="fill-opacity: 0; stroke: #1f77b4"/>
     <use xlink:href="#m8af2f92d10" x="216.256513" y="200.161913" style="fill-opacity: 0; stroke: #1f77b4"/>
     <use xlink:href="#m8af2f92d10" x="217.623241" y="198.836976" style="fill-opacity: 0; stroke: #1f77b4"/>
     <use xlink:href="#m8af2f92d10" x="218.991486" y="196.075564" style="fill-opacity: 0; stroke: #1f77b4"/>
     <use xlink:href="#m8af2f92d10" x="220.35973" y="192.033373" style="fill-opacity: 0; stroke: #1f77b4"/>
     <use xlink:href="#m8af2f92d10" x="221.72747" y="186.525535" style="fill-opacity: 0; stroke: #1f77b4"/>
     <use xlink:href="#m8af2f92d10" x="223.095714" y="177.603513" style="fill-opacity: 0; stroke: #1f77b4"/>
     <use xlink:href="#m8af2f92d10" x="224.463959" y="169.104705" style="fill-opacity: 0; stroke: #1f77b4"/>
     <use xlink:href="#m8af2f92d10" x="225.832204" y="169.573367" style="fill-opacity: 0; stroke: #1f77b4"/>
     <use xlink:href="#m8af2f92d10" x="227.200448" y="170.22902" style="fill-opacity: 0; stroke: #1f77b4"/>
     <use xlink:href="#m8af2f92d10" x="228.568693" y="165.485786" style="fill-opacity: 0; stroke: #1f77b4"/>
     <use xlink:href="#m8af2f92d10" x="229.936937" y="161.948426" style="fill-opacity: 0; stroke: #1f77b4"/>
     <use xlink:href="#m8af2f92d10" x="231.305182" y="159.316011" style="fill-opacity: 0; stroke: #1f77b4"/>
     <use xlink:href="#m8af2f92d10" x="232.673427" y="159.216761" style="fill-opacity: 0; stroke: #1f77b4"/>
     <use xlink:href="#m8af2f92d10" x="234.043188" y="162.753762" style="fill-opacity: 0; stroke: #1f77b4"/>
     <use xlink:href="#m8af2f92d10" x="235.411432" y="168.31223" style="fill-opacity: 0; stroke: #1f77b4"/>
     <use xlink:href="#m8af2f92d10" x="236.781193" y="169.052047" style="fill-opacity: 0; stroke: #1f77b4"/>
     <use xlink:href="#m8af2f92d10" x="238.148933" y="154.805314" style="fill-opacity: 0; stroke: #1f77b4"/>
     <use xlink:href="#m8af2f92d10" x="239.518694" y="153.45704" style="fill-opacity: 0; stroke: #1f77b4"/>
     <use xlink:href="#m8af2f92d10" x="240.886938" y="156.901952" style="fill-opacity: 0; stroke: #1f77b4"/>
     <use xlink:href="#m8af2f92d10" x="242.256699" y="158.93069" style="fill-opacity: 0; stroke: #1f77b4"/>
     <use xlink:href="#m8af2f92d10" x="243.62646" y="157.500066" style="fill-opacity: 0; stroke: #1f77b4"/>
     <use xlink:href="#m8af2f92d10" x="244.996221" y="154.674844" style="fill-opacity: 0; stroke: #1f77b4"/>
     <use xlink:href="#m8af2f92d10" x="246.364466" y="156.794439" style="fill-opacity: 0; stroke: #1f77b4"/>
     <use xlink:href="#m8af2f92d10" x="247.734227" y="155.104309" style="fill-opacity: 0; stroke: #1f77b4"/>
     <use xlink:href="#m8af2f92d10" x="249.103988" y="178.163169" style="fill-opacity: 0; stroke: #1f77b4"/>
     <use xlink:href="#m8af2f92d10" x="250.473749" y="182.73647" style="fill-opacity: 0; stroke: #1f77b4"/>
     <use xlink:href="#m8af2f92d10" x="251.84351" y="184.500005" style="fill-opacity: 0; stroke: #1f77b4"/>
     <use xlink:href="#m8af2f92d10" x="253.214787" y="181.350759" style="fill-opacity: 0; stroke: #1f77b4"/>
     <use xlink:href="#m8af2f92d10" x="254.584548" y="175.589178" style="fill-opacity: 0; stroke: #1f77b4"/>
     <use xlink:href="#m8af2f92d10" x="255.954309" y="170.524204" style="fill-opacity: 0; stroke: #1f77b4"/>
     <use xlink:href="#m8af2f92d10" x="257.32407" y="171.882301" style="fill-opacity: 0; stroke: #1f77b4"/>
     <use xlink:href="#m8af2f92d10" x="258.695347" y="173.863414" style="fill-opacity: 0; stroke: #1f77b4"/>
     <use xlink:href="#m8af2f92d10" x="260.065108" y="167.300977" style="fill-opacity: 0; stroke: #1f77b4"/>
     <use xlink:href="#m8af2f92d10" x="261.436386" y="203.057226" style="fill-opacity: 0; stroke: #1f77b4"/>
     <use xlink:href="#m8af2f92d10" x="262.806147" y="202.102126" style="fill-opacity: 0; stroke: #1f77b4"/>
     <use xlink:href="#m8af2f92d10" x="264.177424" y="200.114895" style="fill-opacity: 0; stroke: #1f77b4"/>
     <use xlink:href="#m8af2f92d10" x="265.547185" y="199.820038" style="fill-opacity: 0; stroke: #1f77b4"/>
     <use xlink:href="#m8af2f92d10" x="266.918462" y="201.313653" style="fill-opacity: 0; stroke: #1f77b4"/>
     <use xlink:href="#m8af2f92d10" x="268.28974" y="201.513751" style="fill-opacity: 0; stroke: #1f77b4"/>
     <use xlink:href="#m8af2f92d10" x="269.661017" y="201.618148" style="fill-opacity: 0; stroke: #1f77b4"/>
     <use xlink:href="#m8af2f92d10" x="271.032294" y="201.026716" style="fill-opacity: 0; stroke: #1f77b4"/>
     <use xlink:href="#m8af2f92d10" x="272.403572" y="199.540297" style="fill-opacity: 0; stroke: #1f77b4"/>
     <use xlink:href="#m8af2f92d10" x="273.774849" y="195.487411" style="fill-opacity: 0; stroke: #1f77b4"/>
     <use xlink:href="#m8af2f92d10" x="275.146126" y="196.444631" style="fill-opacity: 0; stroke: #1f77b4"/>
     <use xlink:href="#m8af2f92d10" x="276.517404" y="198.85375" style="fill-opacity: 0; stroke: #1f77b4"/>
     <use xlink:href="#m8af2f92d10" x="277.888681" y="197.823737" style="fill-opacity: 0; stroke: #1f77b4"/>
     <use xlink:href="#m8af2f92d10" x="279.259958" y="193.981865" style="fill-opacity: 0; stroke: #1f77b4"/>
     <use xlink:href="#m8af2f92d10" x="280.632752" y="190.558363" style="fill-opacity: 0; stroke: #1f77b4"/>
     <use xlink:href="#m8af2f92d10" x="282.004029" y="188.692639" style="fill-opacity: 0; stroke: #1f77b4"/>
     <use xlink:href="#m8af2f92d10" x="283.375307" y="183.810901" style="fill-opacity: 0; stroke: #1f77b4"/>
     <use xlink:href="#m8af2f92d10" x="284.7481" y="176.292584" style="fill-opacity: 0; stroke: #1f77b4"/>
     <use xlink:href="#m8af2f92d10" x="286.119378" y="169.031342" style="fill-opacity: 0; stroke: #1f77b4"/>
     <use xlink:href="#m8af2f92d10" x="287.492171" y="151.614797" style="fill-opacity: 0; stroke: #1f77b4"/>
     <use xlink:href="#m8af2f92d10" x="288.864965" y="119.879388" style="fill-opacity: 0; stroke: #1f77b4"/>
     <use xlink:href="#m8af2f92d10" x="290.236242" y="36.886526" style="fill-opacity: 0; stroke: #1f77b4"/>
     <use xlink:href="#m8af2f92d10" x="290.42374" y="-1" style="fill-opacity: 0; stroke: #1f77b4"/>
     <use xlink:href="#m8af2f92d10" x="300.643451" y="-1" style="fill-opacity: 0; stroke: #1f77b4"/>
     <use xlink:href="#m8af2f92d10" x="301.219097" y="72.662308" style="fill-opacity: 0; stroke: #1f77b4"/>
     <use xlink:href="#m8af2f92d10" x="302.591891" y="121.365487" style="fill-opacity: 0; stroke: #1f77b4"/>
     <use xlink:href="#m8af2f92d10" x="303.964684" y="144.396324" style="fill-opacity: 0; stroke: #1f77b4"/>
     <use xlink:href="#m8af2f92d10" x="305.338995" y="163.321402" style="fill-opacity: 0; stroke: #1f77b4"/>
     <use xlink:href="#m8af2f92d10" x="306.711788" y="176.590474" style="fill-opacity: 0; stroke: #1f77b4"/>
     <use xlink:href="#m8af2f92d10" x="308.086098" y="183.004137" style="fill-opacity: 0; stroke: #1f77b4"/>
     <use xlink:href="#m8af2f92d10" x="309.458892" y="184.048315" style="fill-opacity: 0; stroke: #1f77b4"/>
     <use xlink:href="#m8af2f92d10" x="310.833202" y="182.317887" style="fill-opacity: 0; stroke: #1f77b4"/>
     <use xlink:href="#m8af2f92d10" x="312.205996" y="180.473274" style="fill-opacity: 0; stroke: #1f77b4"/>
     <use xlink:href="#m8af2f92d10" x="313.580811" y="180.710361" style="fill-opacity: 0; stroke: #1f77b4"/>
     <use xlink:href="#m8af2f92d10" x="314.955121" y="183.169675" style="fill-opacity: 0; stroke: #1f77b4"/>
     <use xlink:href="#m8af2f92d10" x="316.327915" y="185.688636" style="fill-opacity: 0; stroke: #1f77b4"/>
     <use xlink:href="#m8af2f92d10" x="317.702225" y="188.733038" style="fill-opacity: 0; stroke: #1f77b4"/>
     <use xlink:href="#m8af2f92d10" x="319.076535" y="191.514205" style="fill-opacity: 0; stroke: #1f77b4"/>
     <use xlink:href="#m8af2f92d10" x="320.450845" y="193.288728" style="fill-opacity: 0; stroke: #1f77b4"/>
    </g>
   </g>
   <g id="line2d_2">
    <path d="M 43.27895 214.662831 
L 50.062553 214.119217 
L 54.133422 213.624559 
L 58.205807 212.900748 
L 60.920562 212.206328 
L 63.635317 211.228901 
L 64.993958 210.579501 
L 66.351589 209.7773 
L 67.708713 208.768224 
L 69.06786 207.470252 
L 70.42549 205.766144 
L 71.784131 203.466246 
L 73.141762 200.27955 
L 74.500403 195.734724 
L 75.85955 189.123942 
L 77.216674 179.588802 
L 79.934968 153.617729 
L 81.293609 146.327016 
L 82.652755 145.658247 
L 84.011396 141.805195 
L 85.370543 130.170218 
L 86.72969 133.725107 
L 88.089847 157.9159 
L 89.448994 176.683494 
L 90.80814 186.823163 
L 92.168298 191.868414 
L 93.527444 193.870752 
L 94.887602 193.575915 
L 96.246749 190.858114 
L 97.607412 184.790294 
L 98.966053 174.136555 
L 100.326716 161.538321 
L 101.687379 159.53388 
L 103.047536 169.27567 
L 104.408199 177.611876 
L 105.768862 180.564336 
L 107.129019 178.877296 
L 108.489682 173.18143 
L 109.84984 164.02788 
L 111.210503 153.674634 
L 112.571166 147.749712 
L 113.93284 151.116358 
L 116.654166 171.404543 
L 118.015839 179.112996 
L 119.376502 183.696868 
L 120.738682 185.381857 
L 122.100861 184.082459 
L 123.461018 178.936387 
L 124.823198 167.6548 
L 126.185377 146.278074 
L 127.547051 115.876181 
L 128.90923 105.357391 
L 131.633083 158.421779 
L 132.995262 174.106494 
L 134.357442 181.676117 
L 135.719116 184.195149 
L 137.082811 182.82902 
L 138.444991 177.326485 
L 139.80717 166.317021 
L 142.532539 131.190259 
L 143.896235 129.869253 
L 145.259931 141.570191 
L 146.621604 147.836301 
L 147.9853 141.485311 
L 149.348996 127.429169 
L 150.712691 128.841811 
L 152.075881 150.436422 
L 153.438061 169.93029 
L 154.801756 181.278836 
L 156.166968 186.520013 
L 157.530159 186.784245 
L 158.893854 180.773776 
L 160.25755 168.716203 
L 161.621245 171.171746 
L 162.985952 184.451778 
L 164.349648 191.227769 
L 165.714859 193.052961 
L 167.078555 191.745031 
L 168.443767 187.265567 
L 169.808474 177.8804 
L 171.172169 160.198746 
L 172.537381 137.848939 
L 173.902593 137.825757 
L 175.267805 151.855629 
L 176.632512 156.90124 
L 177.997724 154.101829 
L 179.362936 149.82809 
L 180.728148 150.562449 
L 182.09336 158.23932 
L 184.823278 179.086404 
L 186.190006 186.876505 
L 187.555218 192.539218 
L 188.921947 196.594368 
L 190.286653 199.496459 
L 191.653381 201.594451 
L 193.018593 203.114948 
L 194.385322 204.217749 
L 195.75205 205.006057 
L 197.118778 205.550859 
L 198.48399 205.899869 
L 199.850213 206.086007 
L 201.216941 206.129929 
L 202.58367 206.044252 
L 203.950398 205.835226 
L 205.318643 205.503293 
L 206.685371 205.045272 
L 208.052099 204.452362 
L 209.418322 203.71169 
L 210.786567 202.803434 
L 212.153295 201.70617 
L 213.52154 200.387685 
L 214.888268 198.814662 
L 216.256513 196.940817 
L 217.623241 194.722198 
L 218.991486 192.10371 
L 220.35973 189.042925 
L 221.72747 185.516453 
L 223.095714 181.540897 
L 227.200448 168.503773 
L 228.568693 164.912493 
L 229.936937 162.397703 
L 231.305182 161.171846 
L 232.673427 161.111575 
L 235.411432 162.544505 
L 236.781193 162.815523 
L 238.148933 162.128956 
L 239.518694 160.291407 
L 242.256699 154.759168 
L 243.62646 153.359889 
L 244.996221 154.655457 
L 246.364466 158.808884 
L 249.103988 170.826893 
L 250.473749 176.014742 
L 251.84351 179.589979 
L 253.214787 181.030335 
L 254.584548 179.660995 
L 255.954309 174.921704 
L 257.32407 169.015052 
L 258.695347 169.852317 
L 261.436386 188.587605 
L 262.806147 195.308243 
L 264.177424 199.719266 
L 265.547185 202.688729 
L 266.918462 204.791349 
L 268.28974 206.348806 
L 269.661017 207.548476 
L 271.032294 208.502309 
L 272.403572 209.280221 
L 275.146126 210.475913 
L 277.888681 211.354523 
L 280.632752 212.028808 
L 284.7481 212.789192 
L 290.236242 213.507348 
L 297.100716 214.122545 
L 305.338995 214.620571 
L 316.327915 215.055973 
L 320.450845 215.176924 
L 320.450845 215.176924 
" clip-path="url(#p884e683ea0)" style="fill: none; stroke: #ff0000; stroke-width: 1.5; stroke-linecap: square"/>
   </g>
   <g id="line2d_3">
    <path d="M 295.727417 216.404326 
L 295.727417 17.735865 
" clip-path="url(#p884e683ea0)" style="fill: none; stroke-dasharray: 3.7,1.6; stroke-dashoffset: 0; stroke: #808080"/>
   </g>
   <g id="patch_3">
    <path d="M 43.003987 216.404326 
L 43.003987 17.735865 
" style="fill: none; stroke: #000000; stroke-linejoin: miter; stroke-linecap: square"/>
   </g>
   <g id="patch_4">
    <path d="M 320.99976 216.404326 
L 320.99976 17.735865 
" style="fill: none; stroke: #000000; stroke-linejoin: miter; stroke-linecap: square"/>
   </g>
   <g id="patch_5">
    <path d="M 43.003987 216.404326 
L 320.99976 216.404326 
" style="fill: none; stroke: #000000; stroke-linejoin: miter; stroke-linecap: square"/>
   </g>
   <g id="patch_6">
    <path d="M 43.003987 17.735865 
L 320.99976 17.735865 
" style="fill: none; stroke: #000000; stroke-linejoin: miter; stroke-linecap: square"/>
   </g>
   <g id="matplotlib.axis_1">
    <g id="xtick_1">
     <g id="line2d_4">
      <defs>
       <path id="m3872f4b9af" d="M 0 0 
L 0 3.75 
" style="stroke: #000000; stroke-width: 1.25"/>
      </defs>
      <g>
       <use xlink:href="#m3872f4b9af" x="43.003987" y="216.404326" style="stroke: #000000; stroke-width: 1.25"/>
      </g>
     </g>
     <g id="text_1">
      <!-- $\mathdefault{429}$ -->
      <g transform="translate(33.818987 231.52792)">
       <text>
        <tspan style="font: 11px 'Arial'" x="0 6.117676 12.235352" y="-0.09375">429</tspan>
       </text>
      </g>
     </g>
    </g>
    <g id="xtick_2">
     <g id="line2d_5">
      <g>
       <use xlink:href="#m3872f4b9af" x="93.548673" y="216.404326" style="stroke: #000000; stroke-width: 1.25"/>
      </g>
     </g>
     <g id="text_2">
      <!-- $\mathdefault{430}$ -->
      <g transform="translate(84.363673 231.52792)">
       <text>
        <tspan style="font: 11px 'Arial'" x="0 6.117676 12.235352" y="-0.09375">430</tspan>
       </text>
      </g>
     </g>
    </g>
    <g id="xtick_3">
     <g id="line2d_6">
      <g>
       <use xlink:href="#m3872f4b9af" x="144.093359" y="216.404326" style="stroke: #000000; stroke-width: 1.25"/>
      </g>
     </g>
     <g id="text_3">
      <!-- $\mathdefault{431}$ -->
      <g transform="translate(134.908359 231.52792)">
       <text>
        <tspan style="font: 11px 'Arial'" x="0 6.117676 12.235352" y="-0.09375">431</tspan>
       </text>
      </g>
     </g>
    </g>
    <g id="xtick_4">
     <g id="line2d_7">
      <g>
       <use xlink:href="#m3872f4b9af" x="194.638045" y="216.404326" style="stroke: #000000; stroke-width: 1.25"/>
      </g>
     </g>
     <g id="text_4">
      <!-- $\mathdefault{432}$ -->
      <g transform="translate(185.453045 231.52792)">
       <text>
        <tspan style="font: 11px 'Arial'" x="0 6.117676 12.235352" y="-0.09375">432</tspan>
       </text>
      </g>
     </g>
    </g>
    <g id="xtick_5">
     <g id="line2d_8">
      <g>
       <use xlink:href="#m3872f4b9af" x="245.182731" y="216.404326" style="stroke: #000000; stroke-width: 1.25"/>
      </g>
     </g>
     <g id="text_5">
      <!-- $\mathdefault{433}$ -->
      <g transform="translate(235.997731 231.52792)">
       <text>
        <tspan style="font: 11px 'Arial'" x="0 6.117676 12.235352" y="-0.09375">433</tspan>
       </text>
      </g>
     </g>
    </g>
    <g id="xtick_6">
     <g id="line2d_9">
      <g>
       <use xlink:href="#m3872f4b9af" x="295.727417" y="216.404326" style="stroke: #000000; stroke-width: 1.25"/>
      </g>
     </g>
     <g id="text_6">
      <!-- $\mathdefault{434}$ -->
      <g transform="translate(286.542417 231.52792)">
       <text>
        <tspan style="font: 11px 'Arial'" x="0 6.117676 12.235352" y="-0.09375">434</tspan>
       </text>
      </g>
     </g>
    </g>
    <g id="text_7">
     <!-- $\lambda$ {\sffamily (nm)} -->
     <g transform="translate(164.206736 246.411565) scale(0.12 -0.12)">
      <defs>
       <path id="StandardSymL-6c" d="M 480 3650 
C 525 4013 710 4224 998 4224 
C 1203 4224 1376 4064 1472 3778 
C 1517 3650 1574 3440 1632 3198 
L 154 19 
L 755 19 
L 1843 2301 
C 2048 1059 2150 607 2266 358 
C 2406 83 2611 -64 2848 -64 
C 3098 -64 3296 89 3405 371 
C 3475 543 3501 715 3507 1014 
L 3373 1014 
C 3322 683 3174 499 2944 499 
C 2752 499 2586 620 2483 843 
C 2400 1008 2355 1174 2266 1645 
L 2093 2466 
C 2086 2485 2080 2530 2067 2594 
C 1920 3415 1690 4192 1536 4422 
C 1395 4627 1203 4736 992 4736 
C 602 4736 397 4403 326 3650 
L 480 3650 
z
" transform="scale(0.015625)"/>
       <path id="NimbusSanL-Regu-28" d="M 1510 4672 
C 870 3833 467 2668 467 1663 
C 467 652 870 -513 1510 -1351 
L 1862 -1351 
C 1299 -436 986 639 986 1663 
C 986 2681 1299 3763 1862 4672 
L 1510 4672 
z
" transform="scale(0.015625)"/>
       <path id="NimbusSanL-Regu-6e" d="M 448 3328 
L 448 0 
L 986 0 
L 986 1835 
C 986 2539 1344 2988 1894 2988 
C 2317 2988 2586 2732 2586 2328 
L 2586 0 
L 3117 0 
L 3117 2539 
C 3117 3097 2701 3456 2054 3456 
C 1555 3456 1235 3263 941 2796 
L 941 3328 
L 448 3328 
z
" transform="scale(0.015625)"/>
       <path id="NimbusSanL-Regu-6d" d="M 448 3328 
L 448 0 
L 986 0 
L 986 2089 
C 986 2597 1338 2988 1773 2988 
C 2170 2988 2394 2744 2394 2315 
L 2394 0 
L 2931 0 
L 2931 2109 
C 2931 2597 3283 2988 3718 2988 
C 4109 2988 4339 2738 4339 2315 
L 4339 0 
L 4877 0 
L 4877 2520 
C 4877 3123 4531 3456 3904 3456 
C 3456 3456 3187 3321 2874 2943 
C 2675 3302 2406 3456 1971 3456 
C 1523 3456 1229 3289 941 2886 
L 941 3328 
L 448 3328 
z
" transform="scale(0.015625)"/>
       <path id="NimbusSanL-Regu-29" d="M 595 -1351 
C 1235 -513 1638 652 1638 1657 
C 1638 2668 1235 3833 595 4672 
L 243 4672 
C 806 3756 1120 2681 1120 1657 
C 1120 639 806 -442 243 -1351 
L 595 -1351 
z
" transform="scale(0.015625)"/>
      </defs>
      <use xlink:href="#StandardSymL-6c" transform="scale(0.996264)"/>
      <use xlink:href="#NimbusSanL-Regu-28" transform="translate(91.855235 0) scale(0.996264)"/>
      <use xlink:href="#NimbusSanL-Regu-6e" transform="translate(125.030464 0) scale(0.996264)"/>
      <use xlink:href="#NimbusSanL-Regu-6d" transform="translate(180.422141 0) scale(0.996264)"/>
      <use xlink:href="#NimbusSanL-Regu-29" transform="translate(263.410572 0) scale(0.996264)"/>
     </g>
    </g>
   </g>
   <g id="matplotlib.axis_2">
    <g id="ytick_1">
     <g id="line2d_10">
      <defs>
       <path id="m77cd1f1159" d="M 0 0 
L -3.75 0 
" style="stroke: #000000; stroke-width: 1.25"/>
      </defs>
      <g>
       <use xlink:href="#m77cd1f1159" x="43.003987" y="216.404326" style="stroke: #000000; stroke-width: 1.25"/>
      </g>
     </g>
     <g id="text_8">
      <!-- $\mathdefault{0.0}$ -->
      <g transform="translate(20.353987 220.341123)">
       <text>
        <tspan style="font: 11px 'Arial'" x="0 6.117676 9.173828" y="-0.09375">0.0</tspan>
       </text>
      </g>
     </g>
    </g>
    <g id="ytick_2">
     <g id="line2d_11">
      <g>
       <use xlink:href="#m77cd1f1159" x="43.003987" y="189.447332" style="stroke: #000000; stroke-width: 1.25"/>
      </g>
     </g>
     <g id="text_9">
      <!-- $\mathdefault{0.5}$ -->
      <g transform="translate(20.353987 193.384128)">
       <text>
        <tspan style="font: 11px 'Arial'" x="0 6.117676 9.173828" y="-0.09375">0.5</tspan>
       </text>
      </g>
     </g>
    </g>
    <g id="ytick_3">
     <g id="line2d_12">
      <g>
       <use xlink:href="#m77cd1f1159" x="43.003987" y="162.490337" style="stroke: #000000; stroke-width: 1.25"/>
      </g>
     </g>
     <g id="text_10">
      <!-- $\mathdefault{1.0}$ -->
      <g transform="translate(20.353987 166.427134)">
       <text>
        <tspan style="font: 11px 'Arial'" x="0 6.117676 9.173828" y="-0.09375">1.0</tspan>
       </text>
      </g>
     </g>
    </g>
    <g id="ytick_4">
     <g id="line2d_13">
      <g>
       <use xlink:href="#m77cd1f1159" x="43.003987" y="135.533343" style="stroke: #000000; stroke-width: 1.25"/>
      </g>
     </g>
     <g id="text_11">
      <!-- $\mathdefault{1.5}$ -->
      <g transform="translate(20.353987 139.47014)">
       <text>
        <tspan style="font: 11px 'Arial'" x="0 6.117676 9.173828" y="-0.09375">1.5</tspan>
       </text>
      </g>
     </g>
    </g>
    <g id="ytick_5">
     <g id="line2d_14">
      <g>
       <use xlink:href="#m77cd1f1159" x="43.003987" y="108.576349" style="stroke: #000000; stroke-width: 1.25"/>
      </g>
     </g>
     <g id="text_12">
      <!-- $\mathdefault{2.0}$ -->
      <g transform="translate(20.353987 112.513146)">
       <text>
        <tspan style="font: 11px 'Arial'" x="0 6.117676 9.173828" y="-0.09375">2.0</tspan>
       </text>
      </g>
     </g>
    </g>
    <g id="ytick_6">
     <g id="line2d_15">
      <g>
       <use xlink:href="#m77cd1f1159" x="43.003987" y="81.619354" style="stroke: #000000; stroke-width: 1.25"/>
      </g>
     </g>
     <g id="text_13">
      <!-- $\mathdefault{2.5}$ -->
      <g transform="translate(20.353987 85.556151)">
       <text>
        <tspan style="font: 11px 'Arial'" x="0 6.117676 9.173828" y="-0.09375">2.5</tspan>
       </text>
      </g>
     </g>
    </g>
    <g id="ytick_7">
     <g id="line2d_16">
      <g>
       <use xlink:href="#m77cd1f1159" x="43.003987" y="54.66236" style="stroke: #000000; stroke-width: 1.25"/>
      </g>
     </g>
     <g id="text_14">
      <!-- $\mathdefault{3.0}$ -->
      <g transform="translate(20.353987 58.599157)">
       <text>
        <tspan style="font: 11px 'Arial'" x="0 6.117676 9.173828" y="-0.09375">3.0</tspan>
       </text>
      </g>
     </g>
    </g>
    <g id="ytick_8">
     <g id="line2d_17">
      <g>
       <use xlink:href="#m77cd1f1159" x="43.003987" y="27.705366" style="stroke: #000000; stroke-width: 1.25"/>
      </g>
     </g>
     <g id="text_15">
      <!-- $\mathdefault{3.5}$ -->
      <g transform="translate(20.353987 31.642163)">
       <text>
        <tspan style="font: 11px 'Arial'" x="0 6.117676 9.173828" y="-0.09375">3.5</tspan>
       </text>
      </g>
     </g>
    </g>
    <g id="text_16">
     <!-- $B_{\lambda}$ {\sffamily (photons/cm\textsuperscript{2}/s/nm)} -->
     <g transform="translate(13.728305 177.714049) rotate(-90) scale(0.12 -0.12)">
      <defs>
       <path id="NimbusRomNo9L-ReguItal-42" d="M -51 0 
L 1754 0 
C 2758 0 3450 523 3450 1274 
C 3450 1510 3373 1732 3232 1872 
C 3104 2019 2976 2095 2643 2235 
C 3098 2344 3283 2420 3488 2598 
C 3667 2751 3763 2968 3763 3222 
C 3763 3827 3309 4160 2483 4160 
L 832 4160 
L 832 4057 
C 1229 4025 1325 3974 1325 3795 
C 1325 3700 1299 3541 1254 3388 
L 467 574 
C 352 204 307 166 -51 102 
L -51 0 
z
M 1523 2108 
C 1939 2108 2208 2083 2336 2032 
C 2598 1923 2758 1643 2758 1299 
C 2758 612 2285 192 1504 192 
C 1235 192 1094 287 1094 459 
C 1094 535 1171 841 1318 1350 
C 1402 1637 1440 1783 1523 2108 
z
M 2003 3789 
C 2042 3929 2118 3967 2368 3967 
C 2880 3967 3117 3751 3117 3280 
C 3117 2917 2963 2637 2688 2484 
C 2470 2356 2163 2312 1587 2312 
L 2003 3789 
z
" transform="scale(0.015625)"/>
       <path id="NimbusSanL-Regu-70" d="M 346 -1408 
L 883 -1408 
L 883 371 
C 1165 25 1478 -128 1914 -128 
C 2778 -128 3347 568 3347 1632 
C 3347 2752 2797 3456 1907 3456 
C 1453 3456 1088 3251 838 2854 
L 838 3359 
L 346 3359 
L 346 -1408 
z
M 1818 2956 
C 2406 2956 2790 2440 2790 1644 
C 2790 887 2400 371 1818 371 
C 1254 371 883 880 883 1663 
C 883 2447 1254 2956 1818 2956 
z
" transform="scale(0.015625)"/>
       <path id="NimbusSanL-Regu-68" d="M 448 4672 
L 448 0 
L 979 0 
L 979 1853 
C 979 2539 1338 2988 1888 2988 
C 2061 2988 2234 2930 2362 2834 
C 2515 2725 2579 2565 2579 2328 
L 2579 0 
L 3110 0 
L 3110 2539 
C 3110 3103 2707 3456 2054 3456 
C 1581 3456 1293 3308 979 2898 
L 979 4672 
L 448 4672 
z
" transform="scale(0.015625)"/>
       <path id="NimbusSanL-Regu-6f" d="M 1741 3456 
C 800 3456 230 2784 230 1663 
C 230 543 794 -128 1747 -128 
C 2688 -128 3264 543 3264 1638 
C 3264 2791 2707 3456 1741 3456 
z
M 1747 2963 
C 2349 2963 2707 2472 2707 1644 
C 2707 861 2336 364 1747 364 
C 1152 364 787 855 787 1663 
C 787 2466 1152 2963 1747 2963 
z
" transform="scale(0.015625)"/>
       <path id="NimbusSanL-Regu-74" d="M 1626 3328 
L 1075 3328 
L 1075 4249 
L 544 4249 
L 544 3328 
L 90 3328 
L 90 2892 
L 544 2892 
L 544 402 
C 544 64 774 -128 1190 -128 
C 1318 -128 1446 -116 1626 -84 
L 1626 364 
C 1555 345 1472 339 1370 339 
C 1139 339 1075 402 1075 634 
L 1075 2892 
L 1626 2892 
L 1626 3328 
z
" transform="scale(0.015625)"/>
       <path id="NimbusSanL-Regu-73" d="M 2803 2428 
C 2797 3084 2362 3456 1587 3456 
C 806 3456 301 3052 301 2434 
C 301 1912 570 1663 1363 1472 
L 1862 1351 
C 2234 1262 2381 1129 2381 887 
C 2381 574 2067 364 1600 364 
C 1312 364 1069 447 934 587 
C 851 683 813 778 781 1014 
L 218 1014 
C 243 243 678 -128 1555 -128 
C 2400 -128 2938 288 2938 931 
C 2938 1428 2656 1702 1990 1861 
L 1478 1982 
C 1043 2084 858 2224 858 2459 
C 858 2765 1133 2963 1568 2963 
C 1997 2963 2227 2778 2240 2428 
L 2803 2428 
z
" transform="scale(0.015625)"/>
       <path id="NimbusSanL-Regu-2f" d="M 1466 4672 
L -51 -128 
L 301 -128 
L 1818 4672 
L 1466 4672 
z
" transform="scale(0.015625)"/>
       <path id="NimbusSanL-Regu-63" d="M 3014 2237 
C 2989 2561 2918 2771 2790 2956 
C 2560 3270 2157 3456 1690 3456 
C 787 3456 198 2740 198 1632 
C 198 555 774 -128 1683 -128 
C 2483 -128 2989 352 3053 1167 
L 2515 1167 
C 2426 632 2150 364 1696 364 
C 1107 364 755 842 755 1632 
C 755 2466 1101 2963 1683 2963 
C 2131 2963 2413 2701 2477 2237 
L 3014 2237 
z
" transform="scale(0.015625)"/>
       <path id="NimbusSanL-Regu-32" d="M 3238 556 
L 851 556 
C 909 928 1114 1165 1670 1493 
L 2310 1839 
C 2944 2185 3270 2653 3270 3211 
C 3270 3589 3117 3942 2848 4185 
C 2579 4428 2246 4544 1818 4544 
C 1242 4544 813 4339 563 3955 
C 403 3711 333 3429 320 2967 
L 883 2967 
C 902 3275 941 3461 1018 3608 
C 1165 3884 1459 4051 1798 4051 
C 2310 4051 2694 3685 2694 3198 
C 2694 2839 2483 2531 2080 2300 
L 1491 1967 
C 544 1428 269 999 218 0 
L 3238 0 
L 3238 556 
z
" transform="scale(0.015625)"/>
      </defs>
      <use xlink:href="#NimbusRomNo9L-ReguItal-42" transform="scale(0.996264)"/>
      <use xlink:href="#StandardSymL-6c" transform="translate(60.871631 -20.616338) scale(0.737241)"/>
      <use xlink:href="#NimbusSanL-Regu-28" transform="translate(135.818713 0) scale(0.996264)"/>
      <use xlink:href="#NimbusSanL-Regu-70" transform="translate(168.993943 0) scale(0.996264)"/>
      <use xlink:href="#NimbusSanL-Regu-68" transform="translate(224.38562 0) scale(0.996264)"/>
      <use xlink:href="#NimbusSanL-Regu-6f" transform="translate(279.777297 0) scale(0.996264)"/>
      <use xlink:href="#NimbusSanL-Regu-74" transform="translate(335.168974 0) scale(0.996264)"/>
      <use xlink:href="#NimbusSanL-Regu-6f" transform="translate(362.864143 0) scale(0.996264)"/>
      <use xlink:href="#NimbusSanL-Regu-6e" transform="translate(418.25582 0) scale(0.996264)"/>
      <use xlink:href="#NimbusSanL-Regu-73" transform="translate(473.647497 0) scale(0.996264)"/>
      <use xlink:href="#NimbusSanL-Regu-2f" transform="translate(523.460698 0) scale(0.996264)"/>
      <use xlink:href="#NimbusSanL-Regu-63" transform="translate(551.155868 0) scale(0.996264)"/>
      <use xlink:href="#NimbusSanL-Regu-6d" transform="translate(600.969068 0) scale(0.996264)"/>
      <use xlink:href="#NimbusSanL-Regu-32" transform="translate(683.957498 36.163231) scale(0.737241)"/>
      <use xlink:href="#NimbusSanL-Regu-2f" transform="translate(725.445777 0) scale(0.996264)"/>
      <use xlink:href="#NimbusSanL-Regu-73" transform="translate(753.140947 0) scale(0.996264)"/>
      <use xlink:href="#NimbusSanL-Regu-2f" transform="translate(802.954147 0) scale(0.996264)"/>
      <use xlink:href="#NimbusSanL-Regu-6e" transform="translate(830.649317 0) scale(0.996264)"/>
      <use xlink:href="#NimbusSanL-Regu-6d" transform="translate(886.040994 0) scale(0.996264)"/>
      <use xlink:href="#NimbusSanL-Regu-29" transform="translate(969.029424 0) scale(0.996264)"/>
     </g>
    </g>
    <g id="text_17">
     <!-- $\times\mathdefault{10^{12}}\mathdefault{}$ -->
     <g transform="translate(43.003987 14.735865)">
      <text>
       <tspan style="font: 11px 'STIXGeneral'" x="0" y="-0.799312500000001"></tspan>
       <tspan style="font: 11px 'Arial'" x="7.039993 13.157669" y="-0.799312500000001">10</tspan>
       <tspan style="font: 7.7px 'Arial'" x="19.467003 23.749376" y="-8.465625">12</tspan>
      </text>
     </g>
    </g>
   </g>
   <g id="patch_7">
    <path d="M 217.800817 47.652918 
L 217.800817 67.40298 
L 294.609383 67.40298 
" style="fill: none; stroke: #000000; stroke-linecap: round"/>
    <path d="M 290.609383 65.40298 
L 294.609383 67.40298 
L 290.609383 69.40298 
" style="fill: none; stroke: #000000; stroke-linecap: round"/>
   </g>
   <g id="text_18">
    <g id="patch_8">
     <path d="M 184.100817 50.702711 
L 251.500817 50.702711 
Q 254.500817 50.702711 254.500817 47.702711 
L 254.500817 37.602711 
Q 254.500817 34.602711 251.500817 34.602711 
L 184.100817 34.602711 
Q 181.100817 34.602711 181.100817 37.602711 
L 181.100817 47.702711 
Q 181.100817 50.702711 184.100817 50.702711 
z
" style="fill: #f5deb3; stroke: #000000; stroke-linejoin: miter"/>
    </g>
    <!-- D$_{\gamma}$ (434.00) nm -->
    <g transform="translate(184.100817 44.902711)">
     <text>
      <tspan style="font: 10px 'Arial'" x="0 10.686517 13.464837 16.794915 22.356439 27.917962 33.479486 36.257806 41.81933 47.380853 50.710931 53.489251 59.050775" y="-0.71875">D(434.00)nm</tspan>
      <tspan style="font: italic 7px 'STIXGeneral'" x="7.375898" y="0.6031250000000004"></tspan>
     </text>
    </g>
   </g>
   <g id="text_19">
    <text style="font: 10px 'Arial'; text-anchor: middle" x="234.356094" y="92.139955" transform="rotate(-0 234.356094 92.139955)">Q-branch</text>
   </g>
   <g id="text_20">
    <text style="font: 10px 'Arial'; text-anchor: middle" x="121.696799" y="43.144944" transform="rotate(-0 121.696799 43.144944)">B-D + C-D</text>
   </g>
   <g id="text_21">
    <text style="font: 700 12px 'Arial'; text-anchor: middle" x="182.001874" y="11.735865" transform="rotate(-0 182.001874 11.735865)">PC boron pebble rod - 18 min</text>
   </g>
  </g>
 </g>
 <defs>
  <clipPath id="p884e683ea0">
   <rect x="43.003987" y="17.735865" width="277.995773" height="198.668461"/>
  </clipPath>
 </defs>
</svg>
