<?xml version="1.0" encoding="utf-8" standalone="no"?>
<!DOCTYPE svg PUBLIC "-//W3C//DTD SVG 1.1//EN"
  "http://www.w3.org/Graphics/SVG/1.1/DTD/svg11.dtd">
<svg xmlns:xlink="http://www.w3.org/1999/xlink" width="324pt" height="252pt" viewBox="0 0 324 252" xmlns="http://www.w3.org/2000/svg" version="1.1">
 <metadata>
  <rdf:RDF xmlns:dc="http://purl.org/dc/elements/1.1/" xmlns:cc="http://creativecommons.org/ns#" xmlns:rdf="http://www.w3.org/1999/02/22-rdf-syntax-ns#">
   <cc:Work>
    <dc:type rdf:resource="http://purl.org/dc/dcmitype/StillImage"/>
    <dc:date>2024-12-06T11:01:41.934466</dc:date>
    <dc:format>image/svg+xml</dc:format>
    <dc:creator>
     <cc:Agent>
      <dc:title>Matplotlib v3.9.2, https://matplotlib.org/</dc:title>
     </cc:Agent>
    </dc:creator>
   </cc:Work>
  </rdf:RDF>
 </metadata>
 <defs>
  <style type="text/css">*{stroke-linejoin: round; stroke-linecap: butt}</style>
 </defs>
 <g id="figure_1">
  <g id="patch_1">
   <path d="M 0 252 
L 324 252 
L 324 0 
L 0 0 
z
" style="fill: #ffffff"/>
  </g>
  <g id="axes_1">
   <g id="patch_2">
    <path d="M 43.003987 216.404326 
L 320.99976 216.404326 
L 320.99976 17.735865 
L 43.003987 17.735865 
z
" style="fill: #ffffff"/>
   </g>
   <g id="PolyCollection_1">
    <path d="M 43.27895 216.246045 
L 43.27895 216.404326 
L 44.636075 216.404326 
L 45.992189 216.404326 
L 47.349314 216.404326 
L 48.705428 216.404326 
L 50.062553 216.404326 
L 51.420183 216.404326 
L 52.775791 216.404326 
L 54.133422 216.404326 
L 55.490547 216.404326 
L 56.848177 216.404326 
L 58.205807 216.404326 
L 59.562932 216.404326 
L 60.920562 216.404326 
L 62.277687 216.404326 
L 63.635317 216.404326 
L 64.993958 216.404326 
L 66.351589 216.404326 
L 67.708713 216.404326 
L 69.06786 216.404326 
L 70.42549 216.404326 
L 71.784131 216.404326 
L 73.141762 216.404326 
L 74.500403 216.404326 
L 75.85955 216.404326 
L 77.216674 216.404326 
L 78.575821 216.404326 
L 79.934968 216.404326 
L 81.293609 216.404326 
L 82.652755 216.404326 
L 84.011396 216.404326 
L 85.370543 216.404326 
L 86.72969 216.404326 
L 88.089847 216.404326 
L 89.448994 216.404326 
L 90.80814 216.404326 
L 92.168298 216.404326 
L 93.527444 216.404326 
L 94.887602 216.404326 
L 96.246749 216.404326 
L 97.607412 216.404326 
L 98.966053 216.404326 
L 100.326716 216.404326 
L 101.687379 216.404326 
L 103.047536 216.404326 
L 104.408199 216.404326 
L 105.768862 216.404326 
L 107.129019 216.404326 
L 108.489682 216.404326 
L 109.84984 216.404326 
L 111.210503 216.404326 
L 112.571166 216.404326 
L 113.93284 216.404326 
L 115.293503 216.404326 
L 116.654166 216.404326 
L 118.015839 216.404326 
L 119.376502 216.404326 
L 120.738682 216.404326 
L 122.100861 216.404326 
L 123.461018 216.404326 
L 124.823198 216.404326 
L 126.185377 216.404326 
L 127.547051 216.404326 
L 128.90923 216.404326 
L 130.271409 216.404326 
L 131.633083 216.404326 
L 132.995262 216.404326 
L 134.357442 216.404326 
L 135.719116 216.404326 
L 137.082811 216.404326 
L 138.444991 216.404326 
L 139.80717 216.404326 
L 141.17036 216.404326 
L 142.532539 216.404326 
L 143.896235 216.404326 
L 145.259931 216.404326 
L 146.621604 216.404326 
L 147.9853 216.404326 
L 149.348996 216.404326 
L 150.712691 216.404326 
L 152.075881 216.404326 
L 153.438061 216.404326 
L 154.801756 216.404326 
L 156.166968 216.404326 
L 157.530159 216.404326 
L 158.893854 216.404326 
L 160.25755 216.404326 
L 161.621245 216.404326 
L 162.985952 216.404326 
L 164.349648 216.404326 
L 165.714859 216.404326 
L 167.078555 216.404326 
L 168.443767 216.404326 
L 169.808474 216.404326 
L 171.172169 216.404326 
L 172.537381 216.404326 
L 173.902593 216.404326 
L 175.267805 216.404326 
L 176.632512 216.404326 
L 177.997724 216.404326 
L 179.362936 216.404326 
L 180.728148 216.404326 
L 182.09336 216.404326 
L 183.458066 216.404326 
L 184.823278 216.404326 
L 186.190006 216.404326 
L 187.555218 216.404326 
L 188.921947 216.404326 
L 190.286653 216.404326 
L 191.653381 216.404326 
L 193.018593 216.404326 
L 194.385322 216.404326 
L 195.75205 216.404326 
L 197.118778 216.404326 
L 198.48399 216.404326 
L 199.850213 216.404326 
L 201.216941 216.404326 
L 202.58367 216.404326 
L 203.950398 216.404326 
L 205.318643 216.404326 
L 206.685371 216.404326 
L 208.052099 216.404326 
L 209.418322 216.404326 
L 210.786567 216.404326 
L 212.153295 216.404326 
L 213.52154 216.404326 
L 214.888268 216.404326 
L 216.256513 216.404326 
L 217.623241 216.404326 
L 218.991486 216.404326 
L 220.35973 216.404326 
L 221.72747 216.404326 
L 223.095714 216.404326 
L 224.463959 216.404326 
L 225.832204 216.404326 
L 227.200448 216.404326 
L 228.568693 216.404326 
L 229.936937 216.404326 
L 231.305182 216.404326 
L 232.673427 216.404326 
L 234.043188 216.404326 
L 235.411432 216.404326 
L 236.781193 216.404326 
L 238.148933 216.404326 
L 239.518694 216.404326 
L 240.886938 216.404326 
L 242.256699 216.404326 
L 243.62646 216.404326 
L 244.996221 216.404326 
L 246.364466 216.404326 
L 247.734227 216.404326 
L 249.103988 216.404326 
L 250.473749 216.404326 
L 251.84351 216.404326 
L 253.214787 216.404326 
L 254.584548 216.404326 
L 255.954309 216.404326 
L 257.32407 216.404326 
L 258.695347 216.404326 
L 260.065108 216.404326 
L 261.436386 216.404326 
L 262.806147 216.404326 
L 264.177424 216.404326 
L 265.547185 216.404326 
L 266.918462 216.404326 
L 268.28974 216.404326 
L 269.661017 216.404326 
L 271.032294 216.404326 
L 272.403572 216.404326 
L 273.774849 216.404326 
L 275.146126 216.404326 
L 276.517404 216.404326 
L 277.888681 216.404326 
L 279.259958 216.404326 
L 280.632752 216.404326 
L 282.004029 216.404326 
L 283.375307 216.404326 
L 284.7481 216.404326 
L 286.119378 216.404326 
L 287.492171 216.404326 
L 288.864965 216.404326 
L 290.236242 216.404326 
L 291.609036 216.404326 
L 292.98183 216.404326 
L 294.354623 216.404326 
L 295.727417 216.404326 
L 297.100716 216.404326 
L 298.47351 216.404326 
L 299.846303 216.404326 
L 301.219097 216.404326 
L 302.591891 216.404326 
L 303.964684 216.404326 
L 305.338995 216.404326 
L 306.711788 216.404326 
L 308.086098 216.404326 
L 309.458892 216.404326 
L 310.833202 216.404326 
L 312.205996 216.404326 
L 313.580811 216.404326 
L 314.955121 216.404326 
L 316.327915 216.404326 
L 317.702225 216.404326 
L 319.076535 216.404326 
L 320.450845 216.404326 
L 320.450845 215.523619 
L 320.450845 215.523619 
L 319.076535 215.492841 
L 317.702225 215.460397 
L 316.327915 215.426165 
L 314.955121 215.390048 
L 313.580811 215.351818 
L 312.205996 215.311332 
L 310.833202 215.268488 
L 309.458892 215.222976 
L 308.086098 215.174674 
L 306.711788 215.123228 
L 305.338995 215.068475 
L 303.964684 215.009989 
L 302.591891 214.947553 
L 301.219097 214.880718 
L 299.846303 214.809049 
L 298.47351 214.732054 
L 297.100716 214.649173 
L 295.727417 214.559733 
L 294.354623 214.463071 
L 292.98183 214.358315 
L 291.609036 214.244495 
L 290.236242 214.120481 
L 288.864965 213.985113 
L 287.492171 213.836539 
L 286.119378 213.673064 
L 284.7481 213.492699 
L 283.375307 213.292399 
L 282.004029 213.069392 
L 280.632752 212.819513 
L 279.259958 212.537504 
L 277.888681 212.217756 
L 276.517404 211.851974 
L 275.146126 211.429688 
L 273.774849 210.936889 
L 272.403572 210.354368 
L 271.032294 209.654996 
L 269.661017 208.799141 
L 268.28974 207.726581 
L 266.918462 206.341624 
L 265.547185 204.484511 
L 264.177424 201.878378 
L 262.806147 198.008296 
L 261.436386 191.984591 
L 260.065108 182.656957 
L 258.695347 171.312832 
L 257.32407 166.816737 
L 255.954309 172.597786 
L 254.584548 178.729567 
L 253.214787 180.970884 
L 251.84351 179.897655 
L 250.473749 176.472496 
L 249.103988 171.461928 
L 247.734227 165.790612 
L 246.364466 160.80373 
L 244.996221 157.992335 
L 243.62646 158.100212 
L 242.256699 160.539383 
L 240.886938 163.876437 
L 239.518694 166.798433 
L 238.148933 168.586169 
L 236.781193 169.042631 
L 235.411432 168.340987 
L 234.043188 166.927069 
L 232.673427 165.473011 
L 231.305182 164.77737 
L 229.936937 165.506737 
L 228.568693 167.913048 
L 227.200448 171.732123 
L 225.832204 176.372509 
L 224.463959 181.218183 
L 223.095714 185.824636 
L 221.72747 189.956299 
L 220.35973 193.534591 
L 218.991486 196.576737 
L 217.623241 199.138056 
L 216.256513 201.285896 
L 214.888268 203.09267 
L 213.52154 204.614142 
L 212.153295 205.904192 
L 210.786567 207.001469 
L 209.418322 207.942195 
L 208.052099 208.751285 
L 206.685371 209.45247 
L 205.318643 210.063244 
L 203.950398 210.598624 
L 202.58367 211.069229 
L 201.216941 211.485351 
L 199.850213 211.854948 
L 198.48399 212.184497 
L 197.118778 212.479414 
L 195.75205 212.744813 
L 194.385322 212.984213 
L 193.018593 213.200879 
L 191.653381 213.397377 
L 190.286653 213.576511 
L 188.921947 213.739848 
L 187.555218 213.889619 
L 186.190006 214.026936 
L 184.823278 214.153412 
L 183.458066 214.269906 
L 182.09336 214.377522 
L 180.728148 214.477209 
L 179.362936 214.569696 
L 177.997724 214.655659 
L 176.632512 214.735699 
L 175.267805 214.81032 
L 173.902593 214.880054 
L 172.537381 214.945293 
L 171.172169 215.006417 
L 169.808474 215.063703 
L 168.443767 215.117565 
L 167.078555 215.168251 
L 165.714859 215.215939 
L 164.349648 215.260958 
L 162.985952 215.303411 
L 161.621245 215.343564 
L 160.25755 215.381525 
L 158.893854 215.417476 
L 157.530159 215.451559 
L 156.166968 215.483888 
L 154.801756 215.514638 
L 153.438061 215.543836 
L 152.075881 215.571585 
L 150.712691 215.598028 
L 149.348996 215.623236 
L 147.9853 215.647277 
L 146.621604 215.670221 
L 145.259931 215.692103 
L 143.896235 215.713048 
L 142.532539 215.73308 
L 141.17036 215.75223 
L 139.80717 215.770584 
L 138.444991 215.788158 
L 137.082811 215.805009 
L 135.719116 215.821194 
L 134.357442 215.836708 
L 132.995262 215.851615 
L 131.633083 215.86594 
L 130.271409 215.87971 
L 128.90923 215.892961 
L 127.547051 215.905715 
L 126.185377 215.917992 
L 124.823198 215.929825 
L 123.461018 215.94123 
L 122.100861 215.952211 
L 120.738682 215.962822 
L 119.376502 215.973062 
L 118.015839 215.982938 
L 116.654166 215.992485 
L 115.293503 216.001704 
L 113.93284 216.010616 
L 112.571166 216.019242 
L 111.210503 216.02758 
L 109.84984 216.035649 
L 108.489682 216.043459 
L 107.129019 216.051026 
L 105.768862 216.058353 
L 104.408199 216.065458 
L 103.047536 216.072345 
L 101.687379 216.079022 
L 100.326716 216.085501 
L 98.966053 216.091788 
L 97.607412 216.097882 
L 96.246749 216.103808 
L 94.887602 216.109557 
L 93.527444 216.115146 
L 92.168298 216.120573 
L 90.80814 216.125853 
L 89.448994 216.130983 
L 88.089847 216.135972 
L 86.72969 216.140829 
L 85.370543 216.145552 
L 84.011396 216.150148 
L 82.652755 216.154622 
L 81.293609 216.15898 
L 79.934968 216.163223 
L 78.575821 216.167358 
L 77.216674 216.171387 
L 75.85955 216.175309 
L 74.500403 216.179138 
L 73.141762 216.182871 
L 71.784131 216.186508 
L 70.42549 216.190059 
L 69.06786 216.193521 
L 67.708713 216.196904 
L 66.351589 216.200201 
L 64.993958 216.203421 
L 63.635317 216.206568 
L 62.277687 216.209639 
L 60.920562 216.212637 
L 59.562932 216.215568 
L 58.205807 216.218431 
L 56.848177 216.221231 
L 55.490547 216.223967 
L 54.133422 216.226642 
L 52.775791 216.229259 
L 51.420183 216.231814 
L 50.062553 216.234317 
L 48.705428 216.236766 
L 47.349314 216.23916 
L 45.992189 216.241504 
L 44.636075 216.243798 
L 43.27895 216.246045 
z
" clip-path="url(#p71e76ecf2b)" style="fill: #1f77b4; fill-opacity: 0.25"/>
   </g>
   <g id="PolyCollection_2">
    <path d="M 43.27895 215.059538 
L 43.27895 216.404326 
L 44.636075 216.404326 
L 45.992189 216.404326 
L 47.349314 216.404326 
L 48.705428 216.404326 
L 50.062553 216.404326 
L 51.420183 216.404326 
L 52.775791 216.404326 
L 54.133422 216.404326 
L 55.490547 216.404326 
L 56.848177 216.404326 
L 58.205807 216.404326 
L 59.562932 216.404326 
L 60.920562 216.404326 
L 62.277687 216.404326 
L 63.635317 216.404326 
L 64.993958 216.404326 
L 66.351589 216.404326 
L 67.708713 216.404326 
L 69.06786 216.404326 
L 70.42549 216.404326 
L 71.784131 216.404326 
L 73.141762 216.404326 
L 74.500403 216.404326 
L 75.85955 216.404326 
L 77.216674 216.404326 
L 78.575821 216.404326 
L 79.934968 216.404326 
L 81.293609 216.404326 
L 82.652755 216.404326 
L 84.011396 216.404326 
L 85.370543 216.404326 
L 86.72969 216.404326 
L 88.089847 216.404326 
L 89.448994 216.404326 
L 90.80814 216.404326 
L 92.168298 216.404326 
L 93.527444 216.404326 
L 94.887602 216.404326 
L 96.246749 216.404326 
L 97.607412 216.404326 
L 98.966053 216.404326 
L 100.326716 216.404326 
L 101.687379 216.404326 
L 103.047536 216.404326 
L 104.408199 216.404326 
L 105.768862 216.404326 
L 107.129019 216.404326 
L 108.489682 216.404326 
L 109.84984 216.404326 
L 111.210503 216.404326 
L 112.571166 216.404326 
L 113.93284 216.404326 
L 115.293503 216.404326 
L 116.654166 216.404326 
L 118.015839 216.404326 
L 119.376502 216.404326 
L 120.738682 216.404326 
L 122.100861 216.404326 
L 123.461018 216.404326 
L 124.823198 216.404326 
L 126.185377 216.404326 
L 127.547051 216.404326 
L 128.90923 216.404326 
L 130.271409 216.404326 
L 131.633083 216.404326 
L 132.995262 216.404326 
L 134.357442 216.404326 
L 135.719116 216.404326 
L 137.082811 216.404326 
L 138.444991 216.404326 
L 139.80717 216.404326 
L 141.17036 216.404326 
L 142.532539 216.404326 
L 143.896235 216.404326 
L 145.259931 216.404326 
L 146.621604 216.404326 
L 147.9853 216.404326 
L 149.348996 216.404326 
L 150.712691 216.404326 
L 152.075881 216.404326 
L 153.438061 216.404326 
L 154.801756 216.404326 
L 156.166968 216.404326 
L 157.530159 216.404326 
L 158.893854 216.404326 
L 160.25755 216.404326 
L 161.621245 216.404326 
L 162.985952 216.404326 
L 164.349648 216.404326 
L 165.714859 216.404326 
L 167.078555 216.404326 
L 168.443767 216.404326 
L 169.808474 216.404326 
L 171.172169 216.404326 
L 172.537381 216.404326 
L 173.902593 216.404326 
L 175.267805 216.404326 
L 176.632512 216.404326 
L 177.997724 216.404326 
L 179.362936 216.404326 
L 180.728148 216.404326 
L 182.09336 216.404326 
L 183.458066 216.404326 
L 184.823278 216.404326 
L 186.190006 216.404326 
L 187.555218 216.404326 
L 188.921947 216.404326 
L 190.286653 216.404326 
L 191.653381 216.404326 
L 193.018593 216.404326 
L 194.385322 216.404326 
L 195.75205 216.404326 
L 197.118778 216.404326 
L 198.48399 216.404326 
L 199.850213 216.404326 
L 201.216941 216.404326 
L 202.58367 216.404326 
L 203.950398 216.404326 
L 205.318643 216.404326 
L 206.685371 216.404326 
L 208.052099 216.404326 
L 209.418322 216.404326 
L 210.786567 216.404326 
L 212.153295 216.404326 
L 213.52154 216.404326 
L 214.888268 216.404326 
L 216.256513 216.404326 
L 217.623241 216.404326 
L 218.991486 216.404326 
L 220.35973 216.404326 
L 221.72747 216.404326 
L 223.095714 216.404326 
L 224.463959 216.404326 
L 225.832204 216.404326 
L 227.200448 216.404326 
L 228.568693 216.404326 
L 229.936937 216.404326 
L 231.305182 216.404326 
L 232.673427 216.404326 
L 234.043188 216.404326 
L 235.411432 216.404326 
L 236.781193 216.404326 
L 238.148933 216.404326 
L 239.518694 216.404326 
L 240.886938 216.404326 
L 242.256699 216.404326 
L 243.62646 216.404326 
L 244.996221 216.404326 
L 246.364466 216.404326 
L 247.734227 216.404326 
L 249.103988 216.404326 
L 250.473749 216.404326 
L 251.84351 216.404326 
L 253.214787 216.404326 
L 254.584548 216.404326 
L 255.954309 216.404326 
L 257.32407 216.404326 
L 258.695347 216.404326 
L 260.065108 216.404326 
L 261.436386 216.404326 
L 262.806147 216.404326 
L 264.177424 216.404326 
L 265.547185 216.404326 
L 266.918462 216.404326 
L 268.28974 216.404326 
L 269.661017 216.404326 
L 271.032294 216.404326 
L 272.403572 216.404326 
L 273.774849 216.404326 
L 275.146126 216.404326 
L 276.517404 216.404326 
L 277.888681 216.404326 
L 279.259958 216.404326 
L 280.632752 216.404326 
L 282.004029 216.404326 
L 283.375307 216.404326 
L 284.7481 216.404326 
L 286.119378 216.404326 
L 287.492171 216.404326 
L 288.864965 216.404326 
L 290.236242 216.404326 
L 291.609036 216.404326 
L 292.98183 216.404326 
L 294.354623 216.404326 
L 295.727417 216.404326 
L 297.100716 216.404326 
L 298.47351 216.404326 
L 299.846303 216.404326 
L 301.219097 216.404326 
L 302.591891 216.404326 
L 303.964684 216.404326 
L 305.338995 216.404326 
L 306.711788 216.404326 
L 308.086098 216.404326 
L 309.458892 216.404326 
L 310.833202 216.404326 
L 312.205996 216.404326 
L 313.580811 216.404326 
L 314.955121 216.404326 
L 316.327915 216.404326 
L 317.702225 216.404326 
L 319.076535 216.404326 
L 320.450845 216.404326 
L 320.450845 216.163745 
L 320.450845 216.163745 
L 319.076535 216.159652 
L 317.702225 216.155451 
L 316.327915 216.151137 
L 314.955121 216.146712 
L 313.580811 216.142162 
L 312.205996 216.137484 
L 310.833202 216.132683 
L 309.458892 216.127741 
L 308.086098 216.122665 
L 306.711788 216.117437 
L 305.338995 216.112064 
L 303.964684 216.106526 
L 302.591891 216.100831 
L 301.219097 216.094965 
L 299.846303 216.088922 
L 298.47351 216.082693 
L 297.100716 216.076271 
L 295.727417 216.069645 
L 294.354623 216.062812 
L 292.98183 216.055759 
L 291.609036 216.048477 
L 290.236242 216.040956 
L 288.864965 216.033193 
L 287.492171 216.025159 
L 286.119378 216.016851 
L 284.7481 216.008265 
L 283.375307 215.999369 
L 282.004029 215.990167 
L 280.632752 215.980635 
L 279.259958 215.970744 
L 277.888681 215.960499 
L 276.517404 215.949869 
L 275.146126 215.938836 
L 273.774849 215.927378 
L 272.403572 215.915471 
L 271.032294 215.903091 
L 269.661017 215.890212 
L 268.28974 215.876805 
L 266.918462 215.862841 
L 265.547185 215.848287 
L 264.177424 215.833125 
L 262.806147 215.817284 
L 261.436386 215.800758 
L 260.065108 215.783467 
L 258.695347 215.765402 
L 257.32407 215.746471 
L 255.954309 215.726661 
L 254.584548 215.705891 
L 253.214787 215.684096 
L 251.84351 215.661178 
L 250.473749 215.63711 
L 249.103988 215.611782 
L 247.734227 215.585101 
L 246.364466 215.556965 
L 244.996221 215.527296 
L 243.62646 215.495904 
L 242.256699 215.462685 
L 240.886938 215.427489 
L 239.518694 215.390191 
L 238.148933 215.350524 
L 236.781193 215.308387 
L 235.411432 215.263424 
L 234.043188 215.215495 
L 232.673427 215.164204 
L 231.305182 215.109342 
L 229.936937 215.050489 
L 228.568693 214.987232 
L 227.200448 214.919101 
L 225.832204 214.845564 
L 224.463959 214.766007 
L 223.095714 214.679731 
L 221.72747 214.585927 
L 220.35973 214.483697 
L 218.991486 214.371879 
L 217.623241 214.249237 
L 216.256513 214.114434 
L 214.888268 213.965412 
L 213.52154 213.800411 
L 212.153295 213.61657 
L 210.786567 213.4113 
L 209.418322 213.180514 
L 208.052099 212.920408 
L 206.685371 212.625127 
L 205.318643 212.288052 
L 203.950398 211.900343 
L 202.58367 211.452294 
L 201.216941 210.930074 
L 199.850213 210.316439 
L 198.48399 209.589303 
L 197.118778 208.719865 
L 195.75205 207.667666 
L 194.385322 206.381779 
L 193.018593 204.792614 
L 191.653381 202.809019 
L 190.286653 200.301763 
L 188.921947 197.115679 
L 187.555218 193.043705 
L 186.190006 187.892454 
L 184.823278 181.538292 
L 183.458066 174.200879 
L 182.09336 166.746776 
L 180.728148 160.841567 
L 179.362936 158.169242 
L 177.997724 158.751894 
L 176.632512 160.085201 
L 175.267805 157.701542 
L 173.902593 148.426272 
L 172.537381 148.41943 
L 171.172169 167.150229 
L 169.808474 181.551764 
L 168.443767 189.16321 
L 167.078555 192.919145 
L 165.714859 194.147999 
L 164.349648 192.833081 
L 162.985952 187.531754 
L 161.621245 176.680757 
L 160.25755 172.858141 
L 158.893854 182.512179 
L 157.530159 187.888745 
L 156.166968 187.564435 
L 154.801756 182.667682 
L 153.438061 172.421401 
L 152.075881 155.538829 
L 150.712691 136.945513 
L 149.348996 133.43215 
L 147.9853 143.830721 
L 146.621604 149.363554 
L 145.259931 143.904941 
L 143.896235 134.010833 
L 142.532539 136.984793 
L 141.17036 154.049503 
L 139.80717 170.018196 
L 138.444991 179.760145 
L 137.082811 184.38292 
L 135.719116 185.0684 
L 134.357442 181.891283 
L 132.995262 173.555697 
L 131.633083 157.152181 
L 130.271409 131.074701 
L 128.90923 111.299044 
L 127.547051 125.220408 
L 126.185377 152.595272 
L 124.823198 171.506193 
L 123.461018 181.758479 
L 122.100861 186.634117 
L 120.738682 188.057888 
L 119.376502 186.753861 
L 118.015839 182.727409 
L 116.654166 175.566981 
L 115.293503 165.192371 
L 113.93284 153.807204 
L 112.571166 147.811256 
L 111.210503 152.314188 
L 109.84984 163.20082 
L 108.489682 173.544807 
L 107.129019 180.376853 
L 105.768862 183.198728 
L 104.408199 181.672274 
L 103.047536 175.110423 
L 101.687379 166.046789 
L 100.326716 166.086842 
L 98.966053 177.024754 
L 97.607412 187.030527 
L 96.246749 192.747476 
L 94.887602 195.1967 
L 93.527444 195.228325 
L 92.168298 192.899029 
L 90.80814 187.410946 
L 89.448994 176.924466 
L 88.089847 159.557597 
L 86.72969 141.837759 
L 85.370543 142.202421 
L 84.011396 152.412532 
L 82.652755 154.585936 
L 81.293609 150.945977 
L 79.934968 156.018066 
L 78.575821 171.270323 
L 77.216674 185.234216 
L 75.85955 194.477417 
L 74.500403 200.287974 
L 73.141762 204.030478 
L 71.784131 206.549389 
L 70.42549 208.322501 
L 69.06786 209.617068 
L 67.708713 210.595093 
L 66.351589 211.352476 
L 64.993958 211.95391 
L 63.635317 212.441118 
L 62.277687 212.841921 
L 60.920562 213.176653 
L 59.562932 213.459994 
L 58.205807 213.702344 
L 56.848177 213.91184 
L 55.490547 214.094452 
L 54.133422 214.254822 
L 52.775791 214.396754 
L 51.420183 214.522935 
L 50.062553 214.636092 
L 48.705428 214.737901 
L 47.349314 214.829906 
L 45.992189 214.913535 
L 44.636075 214.989739 
L 43.27895 215.059538 
z
" clip-path="url(#p71e76ecf2b)" style="fill: #ff7f0e; fill-opacity: 0.25"/>
   </g>
   <g id="line2d_1">
    <path d="M 43.27895 186.834523 
L 44.636075 181.947761 
L 45.992189 177.754132 
L 47.349314 178.568418 
L 48.705428 183.162722 
L 50.062553 188.752686 
L 51.420183 192.818017 
L 52.775791 191.936867 
L 54.133422 189.017396 
L 55.490547 187.514439 
L 56.848177 187.168988 
L 58.205807 189.551434 
L 59.562932 192.45549 
L 60.920562 191.26348 
L 62.277687 188.161744 
L 63.635317 181.528039 
L 64.993958 178.067582 
L 66.351589 176.48549 
L 67.708713 175.53882 
L 69.06786 177.664669 
L 70.42549 183.142836 
L 71.784131 190.733231 
L 73.141762 193.622059 
L 74.500403 194.540119 
L 75.85955 192.938509 
L 77.216674 184.19716 
L 78.575821 169.68641 
L 79.934968 153.345929 
L 81.293609 149.141771 
L 82.652755 157.741881 
L 84.011396 150.321674 
L 85.370543 139.536861 
L 86.72969 144.891857 
L 88.089847 160.715454 
L 89.448994 182.522288 
L 90.80814 188.975767 
L 92.168298 192.149185 
L 93.527444 192.462246 
L 94.887602 191.49514 
L 96.246749 189.624764 
L 97.607412 185.160584 
L 98.966053 176.218462 
L 100.326716 165.734923 
L 101.687379 165.301798 
L 104.408199 183.546497 
L 105.768862 187.671028 
L 107.129019 184.211038 
L 108.489682 171.875139 
L 109.84984 157.152143 
L 111.210503 147.700074 
L 112.571166 149.713924 
L 113.93284 157.697174 
L 115.293503 166.394619 
L 116.654166 175.91772 
L 118.015839 183.810455 
L 119.376502 187.629693 
L 120.738682 183.975394 
L 122.100861 179.676033 
L 123.461018 174.870012 
L 124.823198 166.630783 
L 126.185377 149.719987 
L 127.547051 122.29854 
L 128.90923 112.678549 
L 130.271409 129.788589 
L 131.633083 161.302061 
L 132.995262 180.496813 
L 134.357442 185.325348 
L 135.719116 188.692198 
L 137.082811 189.188858 
L 138.444991 183.312448 
L 139.80717 162.457535 
L 141.17036 144.184292 
L 142.532539 136.918219 
L 143.896235 138.498672 
L 145.259931 142.057627 
L 146.621604 142.369256 
L 147.9853 142.37362 
L 149.348996 136.167912 
L 150.712691 135.275307 
L 153.438061 174.789969 
L 154.801756 188.974517 
L 156.166968 190.763394 
L 157.530159 186.22859 
L 158.893854 176.567907 
L 160.25755 172.800328 
L 161.621245 176.904877 
L 162.985952 187.362585 
L 164.349648 191.515518 
L 165.714859 192.778201 
L 167.078555 191.677166 
L 168.443767 188.14718 
L 169.808474 178.692447 
L 171.172169 160.410387 
L 172.537381 146.678994 
L 173.902593 147.345881 
L 175.267805 155.50646 
L 176.632512 162.629171 
L 177.997724 160.166433 
L 179.362936 153.131937 
L 180.728148 154.703613 
L 182.09336 162.826399 
L 183.458066 177.264335 
L 184.823278 187.507577 
L 186.190006 190.318678 
L 187.555218 188.165786 
L 188.921947 197.444122 
L 190.286653 209.081906 
L 191.653381 216.404326 
L 193.018593 213.594458 
L 195.75205 189.483199 
L 197.118778 190.742309 
L 199.850213 197.650505 
L 201.216941 199.399379 
L 202.58367 200.376269 
L 203.950398 201.915631 
L 205.318643 201.923729 
L 206.685371 204.905787 
L 208.052099 211.349082 
L 209.418322 212.512386 
L 210.786567 207.528914 
L 212.153295 203.261869 
L 213.52154 203.959668 
L 216.256513 200.321867 
L 217.623241 199.288851 
L 220.35973 195.522871 
L 221.72747 190.213927 
L 223.095714 180.323143 
L 224.463959 172.753964 
L 225.832204 170.533522 
L 227.200448 170.93845 
L 228.568693 167.995481 
L 229.936937 163.637874 
L 231.305182 164.59023 
L 232.673427 164.878858 
L 234.043188 165.907594 
L 235.411432 167.489303 
L 236.781193 167.315219 
L 238.148933 166.721437 
L 239.518694 165.799546 
L 240.886938 160.060826 
L 242.256699 158.321963 
L 243.62646 160.744317 
L 244.996221 161.170774 
L 247.734227 154.414127 
L 249.103988 179.371532 
L 250.473749 180.884176 
L 251.84351 180.955142 
L 253.214787 178.940681 
L 255.954309 169.388087 
L 257.32407 169.658031 
L 258.695347 172.491769 
L 260.065108 172.29592 
L 261.436386 204.706968 
L 262.806147 202.398153 
L 264.177424 203.011569 
L 265.547185 205.069304 
L 266.918462 205.397867 
L 268.28974 203.757962 
L 269.661017 203.248386 
L 271.032294 200.52585 
L 272.403572 196.556209 
L 275.146126 191.690928 
L 276.517404 191.270318 
L 277.888681 192.353224 
L 279.259958 193.104124 
L 280.632752 190.15664 
L 282.004029 186.105491 
L 283.375307 180.976177 
L 284.7481 177.881884 
L 286.119378 172.557229 
L 287.492171 158.378724 
L 288.864965 129.773032 
L 290.236242 52.594228 
L 290.524334 -1 
M 300.678431 -1 
L 301.219097 75.106179 
L 302.591891 130.145771 
L 303.964684 149.587719 
L 305.338995 164.73154 
L 306.711788 176.775941 
L 308.086098 184.368137 
L 309.458892 188.329404 
L 310.833202 189.795463 
L 312.205996 189.442998 
L 313.580811 188.128056 
L 314.955121 187.251555 
L 316.327915 188.665767 
L 317.702225 193.411869 
L 319.076535 195.879676 
L 320.450845 195.218735 
L 320.450845 195.218735 
" clip-path="url(#p71e76ecf2b)" style="fill: none; stroke: #1f77b4; stroke-width: 1.5; stroke-linecap: square"/>
    <defs>
     <path id="m3140c4d791" d="M 0 1.5 
C 0.397805 1.5 0.77937 1.341951 1.06066 1.06066 
C 1.341951 0.77937 1.5 0.397805 1.5 0 
C 1.5 -0.397805 1.341951 -0.77937 1.06066 -1.06066 
C 0.77937 -1.341951 0.397805 -1.5 0 -1.5 
C -0.397805 -1.5 -0.77937 -1.341951 -1.06066 -1.06066 
C -1.341951 -0.77937 -1.5 -0.397805 -1.5 0 
C -1.5 0.397805 -1.341951 0.77937 -1.06066 1.06066 
C -0.77937 1.341951 -0.397805 1.5 0 1.5 
z
" style="stroke: #1f77b4"/>
    </defs>
    <g clip-path="url(#p71e76ecf2b)">
     <use xlink:href="#m3140c4d791" x="43.27895" y="186.834523" style="fill-opacity: 0; stroke: #1f77b4"/>
     <use xlink:href="#m3140c4d791" x="44.636075" y="181.947761" style="fill-opacity: 0; stroke: #1f77b4"/>
     <use xlink:href="#m3140c4d791" x="45.992189" y="177.754132" style="fill-opacity: 0; stroke: #1f77b4"/>
     <use xlink:href="#m3140c4d791" x="47.349314" y="178.568418" style="fill-opacity: 0; stroke: #1f77b4"/>
     <use xlink:href="#m3140c4d791" x="48.705428" y="183.162722" style="fill-opacity: 0; stroke: #1f77b4"/>
     <use xlink:href="#m3140c4d791" x="50.062553" y="188.752686" style="fill-opacity: 0; stroke: #1f77b4"/>
     <use xlink:href="#m3140c4d791" x="51.420183" y="192.818017" style="fill-opacity: 0; stroke: #1f77b4"/>
     <use xlink:href="#m3140c4d791" x="52.775791" y="191.936867" style="fill-opacity: 0; stroke: #1f77b4"/>
     <use xlink:href="#m3140c4d791" x="54.133422" y="189.017396" style="fill-opacity: 0; stroke: #1f77b4"/>
     <use xlink:href="#m3140c4d791" x="55.490547" y="187.514439" style="fill-opacity: 0; stroke: #1f77b4"/>
     <use xlink:href="#m3140c4d791" x="56.848177" y="187.168988" style="fill-opacity: 0; stroke: #1f77b4"/>
     <use xlink:href="#m3140c4d791" x="58.205807" y="189.551434" style="fill-opacity: 0; stroke: #1f77b4"/>
     <use xlink:href="#m3140c4d791" x="59.562932" y="192.45549" style="fill-opacity: 0; stroke: #1f77b4"/>
     <use xlink:href="#m3140c4d791" x="60.920562" y="191.26348" style="fill-opacity: 0; stroke: #1f77b4"/>
     <use xlink:href="#m3140c4d791" x="62.277687" y="188.161744" style="fill-opacity: 0; stroke: #1f77b4"/>
     <use xlink:href="#m3140c4d791" x="63.635317" y="181.528039" style="fill-opacity: 0; stroke: #1f77b4"/>
     <use xlink:href="#m3140c4d791" x="64.993958" y="178.067582" style="fill-opacity: 0; stroke: #1f77b4"/>
     <use xlink:href="#m3140c4d791" x="66.351589" y="176.48549" style="fill-opacity: 0; stroke: #1f77b4"/>
     <use xlink:href="#m3140c4d791" x="67.708713" y="175.53882" style="fill-opacity: 0; stroke: #1f77b4"/>
     <use xlink:href="#m3140c4d791" x="69.06786" y="177.664669" style="fill-opacity: 0; stroke: #1f77b4"/>
     <use xlink:href="#m3140c4d791" x="70.42549" y="183.142836" style="fill-opacity: 0; stroke: #1f77b4"/>
     <use xlink:href="#m3140c4d791" x="71.784131" y="190.733231" style="fill-opacity: 0; stroke: #1f77b4"/>
     <use xlink:href="#m3140c4d791" x="73.141762" y="193.622059" style="fill-opacity: 0; stroke: #1f77b4"/>
     <use xlink:href="#m3140c4d791" x="74.500403" y="194.540119" style="fill-opacity: 0; stroke: #1f77b4"/>
     <use xlink:href="#m3140c4d791" x="75.85955" y="192.938509" style="fill-opacity: 0; stroke: #1f77b4"/>
     <use xlink:href="#m3140c4d791" x="77.216674" y="184.19716" style="fill-opacity: 0; stroke: #1f77b4"/>
     <use xlink:href="#m3140c4d791" x="78.575821" y="169.68641" style="fill-opacity: 0; stroke: #1f77b4"/>
     <use xlink:href="#m3140c4d791" x="79.934968" y="153.345929" style="fill-opacity: 0; stroke: #1f77b4"/>
     <use xlink:href="#m3140c4d791" x="81.293609" y="149.141771" style="fill-opacity: 0; stroke: #1f77b4"/>
     <use xlink:href="#m3140c4d791" x="82.652755" y="157.741881" style="fill-opacity: 0; stroke: #1f77b4"/>
     <use xlink:href="#m3140c4d791" x="84.011396" y="150.321674" style="fill-opacity: 0; stroke: #1f77b4"/>
     <use xlink:href="#m3140c4d791" x="85.370543" y="139.536861" style="fill-opacity: 0; stroke: #1f77b4"/>
     <use xlink:href="#m3140c4d791" x="86.72969" y="144.891857" style="fill-opacity: 0; stroke: #1f77b4"/>
     <use xlink:href="#m3140c4d791" x="88.089847" y="160.715454" style="fill-opacity: 0; stroke: #1f77b4"/>
     <use xlink:href="#m3140c4d791" x="89.448994" y="182.522288" style="fill-opacity: 0; stroke: #1f77b4"/>
     <use xlink:href="#m3140c4d791" x="90.80814" y="188.975767" style="fill-opacity: 0; stroke: #1f77b4"/>
     <use xlink:href="#m3140c4d791" x="92.168298" y="192.149185" style="fill-opacity: 0; stroke: #1f77b4"/>
     <use xlink:href="#m3140c4d791" x="93.527444" y="192.462246" style="fill-opacity: 0; stroke: #1f77b4"/>
     <use xlink:href="#m3140c4d791" x="94.887602" y="191.49514" style="fill-opacity: 0; stroke: #1f77b4"/>
     <use xlink:href="#m3140c4d791" x="96.246749" y="189.624764" style="fill-opacity: 0; stroke: #1f77b4"/>
     <use xlink:href="#m3140c4d791" x="97.607412" y="185.160584" style="fill-opacity: 0; stroke: #1f77b4"/>
     <use xlink:href="#m3140c4d791" x="98.966053" y="176.218462" style="fill-opacity: 0; stroke: #1f77b4"/>
     <use xlink:href="#m3140c4d791" x="100.326716" y="165.734923" style="fill-opacity: 0; stroke: #1f77b4"/>
     <use xlink:href="#m3140c4d791" x="101.687379" y="165.301798" style="fill-opacity: 0; stroke: #1f77b4"/>
     <use xlink:href="#m3140c4d791" x="103.047536" y="174.127764" style="fill-opacity: 0; stroke: #1f77b4"/>
     <use xlink:href="#m3140c4d791" x="104.408199" y="183.546497" style="fill-opacity: 0; stroke: #1f77b4"/>
     <use xlink:href="#m3140c4d791" x="105.768862" y="187.671028" style="fill-opacity: 0; stroke: #1f77b4"/>
     <use xlink:href="#m3140c4d791" x="107.129019" y="184.211038" style="fill-opacity: 0; stroke: #1f77b4"/>
     <use xlink:href="#m3140c4d791" x="108.489682" y="171.875139" style="fill-opacity: 0; stroke: #1f77b4"/>
     <use xlink:href="#m3140c4d791" x="109.84984" y="157.152143" style="fill-opacity: 0; stroke: #1f77b4"/>
     <use xlink:href="#m3140c4d791" x="111.210503" y="147.700074" style="fill-opacity: 0; stroke: #1f77b4"/>
     <use xlink:href="#m3140c4d791" x="112.571166" y="149.713924" style="fill-opacity: 0; stroke: #1f77b4"/>
     <use xlink:href="#m3140c4d791" x="113.93284" y="157.697174" style="fill-opacity: 0; stroke: #1f77b4"/>
     <use xlink:href="#m3140c4d791" x="115.293503" y="166.394619" style="fill-opacity: 0; stroke: #1f77b4"/>
     <use xlink:href="#m3140c4d791" x="116.654166" y="175.91772" style="fill-opacity: 0; stroke: #1f77b4"/>
     <use xlink:href="#m3140c4d791" x="118.015839" y="183.810455" style="fill-opacity: 0; stroke: #1f77b4"/>
     <use xlink:href="#m3140c4d791" x="119.376502" y="187.629693" style="fill-opacity: 0; stroke: #1f77b4"/>
     <use xlink:href="#m3140c4d791" x="120.738682" y="183.975394" style="fill-opacity: 0; stroke: #1f77b4"/>
     <use xlink:href="#m3140c4d791" x="122.100861" y="179.676033" style="fill-opacity: 0; stroke: #1f77b4"/>
     <use xlink:href="#m3140c4d791" x="123.461018" y="174.870012" style="fill-opacity: 0; stroke: #1f77b4"/>
     <use xlink:href="#m3140c4d791" x="124.823198" y="166.630783" style="fill-opacity: 0; stroke: #1f77b4"/>
     <use xlink:href="#m3140c4d791" x="126.185377" y="149.719987" style="fill-opacity: 0; stroke: #1f77b4"/>
     <use xlink:href="#m3140c4d791" x="127.547051" y="122.29854" style="fill-opacity: 0; stroke: #1f77b4"/>
     <use xlink:href="#m3140c4d791" x="128.90923" y="112.678549" style="fill-opacity: 0; stroke: #1f77b4"/>
     <use xlink:href="#m3140c4d791" x="130.271409" y="129.788589" style="fill-opacity: 0; stroke: #1f77b4"/>
     <use xlink:href="#m3140c4d791" x="131.633083" y="161.302061" style="fill-opacity: 0; stroke: #1f77b4"/>
     <use xlink:href="#m3140c4d791" x="132.995262" y="180.496813" style="fill-opacity: 0; stroke: #1f77b4"/>
     <use xlink:href="#m3140c4d791" x="134.357442" y="185.325348" style="fill-opacity: 0; stroke: #1f77b4"/>
     <use xlink:href="#m3140c4d791" x="135.719116" y="188.692198" style="fill-opacity: 0; stroke: #1f77b4"/>
     <use xlink:href="#m3140c4d791" x="137.082811" y="189.188858" style="fill-opacity: 0; stroke: #1f77b4"/>
     <use xlink:href="#m3140c4d791" x="138.444991" y="183.312448" style="fill-opacity: 0; stroke: #1f77b4"/>
     <use xlink:href="#m3140c4d791" x="139.80717" y="162.457535" style="fill-opacity: 0; stroke: #1f77b4"/>
     <use xlink:href="#m3140c4d791" x="141.17036" y="144.184292" style="fill-opacity: 0; stroke: #1f77b4"/>
     <use xlink:href="#m3140c4d791" x="142.532539" y="136.918219" style="fill-opacity: 0; stroke: #1f77b4"/>
     <use xlink:href="#m3140c4d791" x="143.896235" y="138.498672" style="fill-opacity: 0; stroke: #1f77b4"/>
     <use xlink:href="#m3140c4d791" x="145.259931" y="142.057627" style="fill-opacity: 0; stroke: #1f77b4"/>
     <use xlink:href="#m3140c4d791" x="146.621604" y="142.369256" style="fill-opacity: 0; stroke: #1f77b4"/>
     <use xlink:href="#m3140c4d791" x="147.9853" y="142.37362" style="fill-opacity: 0; stroke: #1f77b4"/>
     <use xlink:href="#m3140c4d791" x="149.348996" y="136.167912" style="fill-opacity: 0; stroke: #1f77b4"/>
     <use xlink:href="#m3140c4d791" x="150.712691" y="135.275307" style="fill-opacity: 0; stroke: #1f77b4"/>
     <use xlink:href="#m3140c4d791" x="152.075881" y="155.579743" style="fill-opacity: 0; stroke: #1f77b4"/>
     <use xlink:href="#m3140c4d791" x="153.438061" y="174.789969" style="fill-opacity: 0; stroke: #1f77b4"/>
     <use xlink:href="#m3140c4d791" x="154.801756" y="188.974517" style="fill-opacity: 0; stroke: #1f77b4"/>
     <use xlink:href="#m3140c4d791" x="156.166968" y="190.763394" style="fill-opacity: 0; stroke: #1f77b4"/>
     <use xlink:href="#m3140c4d791" x="157.530159" y="186.22859" style="fill-opacity: 0; stroke: #1f77b4"/>
     <use xlink:href="#m3140c4d791" x="158.893854" y="176.567907" style="fill-opacity: 0; stroke: #1f77b4"/>
     <use xlink:href="#m3140c4d791" x="160.25755" y="172.800328" style="fill-opacity: 0; stroke: #1f77b4"/>
     <use xlink:href="#m3140c4d791" x="161.621245" y="176.904877" style="fill-opacity: 0; stroke: #1f77b4"/>
     <use xlink:href="#m3140c4d791" x="162.985952" y="187.362585" style="fill-opacity: 0; stroke: #1f77b4"/>
     <use xlink:href="#m3140c4d791" x="164.349648" y="191.515518" style="fill-opacity: 0; stroke: #1f77b4"/>
     <use xlink:href="#m3140c4d791" x="165.714859" y="192.778201" style="fill-opacity: 0; stroke: #1f77b4"/>
     <use xlink:href="#m3140c4d791" x="167.078555" y="191.677166" style="fill-opacity: 0; stroke: #1f77b4"/>
     <use xlink:href="#m3140c4d791" x="168.443767" y="188.14718" style="fill-opacity: 0; stroke: #1f77b4"/>
     <use xlink:href="#m3140c4d791" x="169.808474" y="178.692447" style="fill-opacity: 0; stroke: #1f77b4"/>
     <use xlink:href="#m3140c4d791" x="171.172169" y="160.410387" style="fill-opacity: 0; stroke: #1f77b4"/>
     <use xlink:href="#m3140c4d791" x="172.537381" y="146.678994" style="fill-opacity: 0; stroke: #1f77b4"/>
     <use xlink:href="#m3140c4d791" x="173.902593" y="147.345881" style="fill-opacity: 0; stroke: #1f77b4"/>
     <use xlink:href="#m3140c4d791" x="175.267805" y="155.50646" style="fill-opacity: 0; stroke: #1f77b4"/>
     <use xlink:href="#m3140c4d791" x="176.632512" y="162.629171" style="fill-opacity: 0; stroke: #1f77b4"/>
     <use xlink:href="#m3140c4d791" x="177.997724" y="160.166433" style="fill-opacity: 0; stroke: #1f77b4"/>
     <use xlink:href="#m3140c4d791" x="179.362936" y="153.131937" style="fill-opacity: 0; stroke: #1f77b4"/>
     <use xlink:href="#m3140c4d791" x="180.728148" y="154.703613" style="fill-opacity: 0; stroke: #1f77b4"/>
     <use xlink:href="#m3140c4d791" x="182.09336" y="162.826399" style="fill-opacity: 0; stroke: #1f77b4"/>
     <use xlink:href="#m3140c4d791" x="183.458066" y="177.264335" style="fill-opacity: 0; stroke: #1f77b4"/>
     <use xlink:href="#m3140c4d791" x="184.823278" y="187.507577" style="fill-opacity: 0; stroke: #1f77b4"/>
     <use xlink:href="#m3140c4d791" x="186.190006" y="190.318678" style="fill-opacity: 0; stroke: #1f77b4"/>
     <use xlink:href="#m3140c4d791" x="187.555218" y="188.165786" style="fill-opacity: 0; stroke: #1f77b4"/>
     <use xlink:href="#m3140c4d791" x="188.921947" y="197.444122" style="fill-opacity: 0; stroke: #1f77b4"/>
     <use xlink:href="#m3140c4d791" x="190.286653" y="209.081906" style="fill-opacity: 0; stroke: #1f77b4"/>
     <use xlink:href="#m3140c4d791" x="191.653381" y="216.404326" style="fill-opacity: 0; stroke: #1f77b4"/>
     <use xlink:href="#m3140c4d791" x="193.018593" y="213.594458" style="fill-opacity: 0; stroke: #1f77b4"/>
     <use xlink:href="#m3140c4d791" x="194.385322" y="201.584524" style="fill-opacity: 0; stroke: #1f77b4"/>
     <use xlink:href="#m3140c4d791" x="195.75205" y="189.483199" style="fill-opacity: 0; stroke: #1f77b4"/>
     <use xlink:href="#m3140c4d791" x="197.118778" y="190.742309" style="fill-opacity: 0; stroke: #1f77b4"/>
     <use xlink:href="#m3140c4d791" x="198.48399" y="194.189785" style="fill-opacity: 0; stroke: #1f77b4"/>
     <use xlink:href="#m3140c4d791" x="199.850213" y="197.650505" style="fill-opacity: 0; stroke: #1f77b4"/>
     <use xlink:href="#m3140c4d791" x="201.216941" y="199.399379" style="fill-opacity: 0; stroke: #1f77b4"/>
     <use xlink:href="#m3140c4d791" x="202.58367" y="200.376269" style="fill-opacity: 0; stroke: #1f77b4"/>
     <use xlink:href="#m3140c4d791" x="203.950398" y="201.915631" style="fill-opacity: 0; stroke: #1f77b4"/>
     <use xlink:href="#m3140c4d791" x="205.318643" y="201.923729" style="fill-opacity: 0; stroke: #1f77b4"/>
     <use xlink:href="#m3140c4d791" x="206.685371" y="204.905787" style="fill-opacity: 0; stroke: #1f77b4"/>
     <use xlink:href="#m3140c4d791" x="208.052099" y="211.349082" style="fill-opacity: 0; stroke: #1f77b4"/>
     <use xlink:href="#m3140c4d791" x="209.418322" y="212.512386" style="fill-opacity: 0; stroke: #1f77b4"/>
     <use xlink:href="#m3140c4d791" x="210.786567" y="207.528914" style="fill-opacity: 0; stroke: #1f77b4"/>
     <use xlink:href="#m3140c4d791" x="212.153295" y="203.261869" style="fill-opacity: 0; stroke: #1f77b4"/>
     <use xlink:href="#m3140c4d791" x="213.52154" y="203.959668" style="fill-opacity: 0; stroke: #1f77b4"/>
     <use xlink:href="#m3140c4d791" x="214.888268" y="202.105407" style="fill-opacity: 0; stroke: #1f77b4"/>
     <use xlink:href="#m3140c4d791" x="216.256513" y="200.321867" style="fill-opacity: 0; stroke: #1f77b4"/>
     <use xlink:href="#m3140c4d791" x="217.623241" y="199.288851" style="fill-opacity: 0; stroke: #1f77b4"/>
     <use xlink:href="#m3140c4d791" x="218.991486" y="197.329622" style="fill-opacity: 0; stroke: #1f77b4"/>
     <use xlink:href="#m3140c4d791" x="220.35973" y="195.522871" style="fill-opacity: 0; stroke: #1f77b4"/>
     <use xlink:href="#m3140c4d791" x="221.72747" y="190.213927" style="fill-opacity: 0; stroke: #1f77b4"/>
     <use xlink:href="#m3140c4d791" x="223.095714" y="180.323143" style="fill-opacity: 0; stroke: #1f77b4"/>
     <use xlink:href="#m3140c4d791" x="224.463959" y="172.753964" style="fill-opacity: 0; stroke: #1f77b4"/>
     <use xlink:href="#m3140c4d791" x="225.832204" y="170.533522" style="fill-opacity: 0; stroke: #1f77b4"/>
     <use xlink:href="#m3140c4d791" x="227.200448" y="170.93845" style="fill-opacity: 0; stroke: #1f77b4"/>
     <use xlink:href="#m3140c4d791" x="228.568693" y="167.995481" style="fill-opacity: 0; stroke: #1f77b4"/>
     <use xlink:href="#m3140c4d791" x="229.936937" y="163.637874" style="fill-opacity: 0; stroke: #1f77b4"/>
     <use xlink:href="#m3140c4d791" x="231.305182" y="164.59023" style="fill-opacity: 0; stroke: #1f77b4"/>
     <use xlink:href="#m3140c4d791" x="232.673427" y="164.878858" style="fill-opacity: 0; stroke: #1f77b4"/>
     <use xlink:href="#m3140c4d791" x="234.043188" y="165.907594" style="fill-opacity: 0; stroke: #1f77b4"/>
     <use xlink:href="#m3140c4d791" x="235.411432" y="167.489303" style="fill-opacity: 0; stroke: #1f77b4"/>
     <use xlink:href="#m3140c4d791" x="236.781193" y="167.315219" style="fill-opacity: 0; stroke: #1f77b4"/>
     <use xlink:href="#m3140c4d791" x="238.148933" y="166.721437" style="fill-opacity: 0; stroke: #1f77b4"/>
     <use xlink:href="#m3140c4d791" x="239.518694" y="165.799546" style="fill-opacity: 0; stroke: #1f77b4"/>
     <use xlink:href="#m3140c4d791" x="240.886938" y="160.060826" style="fill-opacity: 0; stroke: #1f77b4"/>
     <use xlink:href="#m3140c4d791" x="242.256699" y="158.321963" style="fill-opacity: 0; stroke: #1f77b4"/>
     <use xlink:href="#m3140c4d791" x="243.62646" y="160.744317" style="fill-opacity: 0; stroke: #1f77b4"/>
     <use xlink:href="#m3140c4d791" x="244.996221" y="161.170774" style="fill-opacity: 0; stroke: #1f77b4"/>
     <use xlink:href="#m3140c4d791" x="246.364466" y="157.78339" style="fill-opacity: 0; stroke: #1f77b4"/>
     <use xlink:href="#m3140c4d791" x="247.734227" y="154.414127" style="fill-opacity: 0; stroke: #1f77b4"/>
     <use xlink:href="#m3140c4d791" x="249.103988" y="179.371532" style="fill-opacity: 0; stroke: #1f77b4"/>
     <use xlink:href="#m3140c4d791" x="250.473749" y="180.884176" style="fill-opacity: 0; stroke: #1f77b4"/>
     <use xlink:href="#m3140c4d791" x="251.84351" y="180.955142" style="fill-opacity: 0; stroke: #1f77b4"/>
     <use xlink:href="#m3140c4d791" x="253.214787" y="178.940681" style="fill-opacity: 0; stroke: #1f77b4"/>
     <use xlink:href="#m3140c4d791" x="254.584548" y="174.234541" style="fill-opacity: 0; stroke: #1f77b4"/>
     <use xlink:href="#m3140c4d791" x="255.954309" y="169.388087" style="fill-opacity: 0; stroke: #1f77b4"/>
     <use xlink:href="#m3140c4d791" x="257.32407" y="169.658031" style="fill-opacity: 0; stroke: #1f77b4"/>
     <use xlink:href="#m3140c4d791" x="258.695347" y="172.491769" style="fill-opacity: 0; stroke: #1f77b4"/>
     <use xlink:href="#m3140c4d791" x="260.065108" y="172.29592" style="fill-opacity: 0; stroke: #1f77b4"/>
     <use xlink:href="#m3140c4d791" x="261.436386" y="204.706968" style="fill-opacity: 0; stroke: #1f77b4"/>
     <use xlink:href="#m3140c4d791" x="262.806147" y="202.398153" style="fill-opacity: 0; stroke: #1f77b4"/>
     <use xlink:href="#m3140c4d791" x="264.177424" y="203.011569" style="fill-opacity: 0; stroke: #1f77b4"/>
     <use xlink:href="#m3140c4d791" x="265.547185" y="205.069304" style="fill-opacity: 0; stroke: #1f77b4"/>
     <use xlink:href="#m3140c4d791" x="266.918462" y="205.397867" style="fill-opacity: 0; stroke: #1f77b4"/>
     <use xlink:href="#m3140c4d791" x="268.28974" y="203.757962" style="fill-opacity: 0; stroke: #1f77b4"/>
     <use xlink:href="#m3140c4d791" x="269.661017" y="203.248386" style="fill-opacity: 0; stroke: #1f77b4"/>
     <use xlink:href="#m3140c4d791" x="271.032294" y="200.52585" style="fill-opacity: 0; stroke: #1f77b4"/>
     <use xlink:href="#m3140c4d791" x="272.403572" y="196.556209" style="fill-opacity: 0; stroke: #1f77b4"/>
     <use xlink:href="#m3140c4d791" x="273.774849" y="194.121235" style="fill-opacity: 0; stroke: #1f77b4"/>
     <use xlink:href="#m3140c4d791" x="275.146126" y="191.690928" style="fill-opacity: 0; stroke: #1f77b4"/>
     <use xlink:href="#m3140c4d791" x="276.517404" y="191.270318" style="fill-opacity: 0; stroke: #1f77b4"/>
     <use xlink:href="#m3140c4d791" x="277.888681" y="192.353224" style="fill-opacity: 0; stroke: #1f77b4"/>
     <use xlink:href="#m3140c4d791" x="279.259958" y="193.104124" style="fill-opacity: 0; stroke: #1f77b4"/>
     <use xlink:href="#m3140c4d791" x="280.632752" y="190.15664" style="fill-opacity: 0; stroke: #1f77b4"/>
     <use xlink:href="#m3140c4d791" x="282.004029" y="186.105491" style="fill-opacity: 0; stroke: #1f77b4"/>
     <use xlink:href="#m3140c4d791" x="283.375307" y="180.976177" style="fill-opacity: 0; stroke: #1f77b4"/>
     <use xlink:href="#m3140c4d791" x="284.7481" y="177.881884" style="fill-opacity: 0; stroke: #1f77b4"/>
     <use xlink:href="#m3140c4d791" x="286.119378" y="172.557229" style="fill-opacity: 0; stroke: #1f77b4"/>
     <use xlink:href="#m3140c4d791" x="287.492171" y="158.378724" style="fill-opacity: 0; stroke: #1f77b4"/>
     <use xlink:href="#m3140c4d791" x="288.864965" y="129.773032" style="fill-opacity: 0; stroke: #1f77b4"/>
     <use xlink:href="#m3140c4d791" x="290.236242" y="52.594228" style="fill-opacity: 0; stroke: #1f77b4"/>
     <use xlink:href="#m3140c4d791" x="290.524334" y="-1" style="fill-opacity: 0; stroke: #1f77b4"/>
     <use xlink:href="#m3140c4d791" x="300.678431" y="-1" style="fill-opacity: 0; stroke: #1f77b4"/>
     <use xlink:href="#m3140c4d791" x="301.219097" y="75.106179" style="fill-opacity: 0; stroke: #1f77b4"/>
     <use xlink:href="#m3140c4d791" x="302.591891" y="130.145771" style="fill-opacity: 0; stroke: #1f77b4"/>
     <use xlink:href="#m3140c4d791" x="303.964684" y="149.587719" style="fill-opacity: 0; stroke: #1f77b4"/>
     <use xlink:href="#m3140c4d791" x="305.338995" y="164.73154" style="fill-opacity: 0; stroke: #1f77b4"/>
     <use xlink:href="#m3140c4d791" x="306.711788" y="176.775941" style="fill-opacity: 0; stroke: #1f77b4"/>
     <use xlink:href="#m3140c4d791" x="308.086098" y="184.368137" style="fill-opacity: 0; stroke: #1f77b4"/>
     <use xlink:href="#m3140c4d791" x="309.458892" y="188.329404" style="fill-opacity: 0; stroke: #1f77b4"/>
     <use xlink:href="#m3140c4d791" x="310.833202" y="189.795463" style="fill-opacity: 0; stroke: #1f77b4"/>
     <use xlink:href="#m3140c4d791" x="312.205996" y="189.442998" style="fill-opacity: 0; stroke: #1f77b4"/>
     <use xlink:href="#m3140c4d791" x="313.580811" y="188.128056" style="fill-opacity: 0; stroke: #1f77b4"/>
     <use xlink:href="#m3140c4d791" x="314.955121" y="187.251555" style="fill-opacity: 0; stroke: #1f77b4"/>
     <use xlink:href="#m3140c4d791" x="316.327915" y="188.665767" style="fill-opacity: 0; stroke: #1f77b4"/>
     <use xlink:href="#m3140c4d791" x="317.702225" y="193.411869" style="fill-opacity: 0; stroke: #1f77b4"/>
     <use xlink:href="#m3140c4d791" x="319.076535" y="195.879676" style="fill-opacity: 0; stroke: #1f77b4"/>
     <use xlink:href="#m3140c4d791" x="320.450845" y="195.218735" style="fill-opacity: 0; stroke: #1f77b4"/>
    </g>
   </g>
   <g id="line2d_2">
    <path d="M 43.27895 214.901257 
L 50.062553 214.466084 
L 55.490547 213.914094 
L 59.562932 213.271237 
L 62.277687 212.647233 
L 64.993958 211.753005 
L 66.351589 211.148352 
L 67.708713 210.387671 
L 69.06786 209.406263 
L 70.42549 208.108234 
L 71.784131 206.331571 
L 73.141762 203.809022 
L 74.500403 200.062787 
L 75.85955 194.2484 
L 77.216674 185.001277 
L 78.575821 171.033355 
L 79.934968 155.776963 
L 81.293609 150.700631 
L 82.652755 154.336232 
L 84.011396 152.158354 
L 85.370543 141.943647 
L 86.72969 141.574262 
L 89.448994 176.651123 
L 90.80814 187.132473 
L 92.168298 192.615276 
L 93.527444 194.939145 
L 94.887602 194.90193 
L 96.246749 192.446958 
L 97.607412 186.724083 
L 98.966053 176.712216 
L 100.326716 165.768017 
L 101.687379 165.721485 
L 103.047536 174.778442 
L 104.408199 181.333406 
L 105.768862 182.852755 
L 107.129019 180.023552 
L 108.489682 173.18394 
L 111.210503 151.937442 
L 112.571166 147.426172 
L 113.93284 153.413494 
L 115.293503 164.789749 
L 116.654166 175.155141 
L 118.015839 182.306022 
L 119.376502 186.322597 
L 120.738682 187.616384 
L 122.100861 186.182002 
L 123.461018 181.295383 
L 124.823198 171.031692 
L 126.185377 152.108939 
L 127.547051 124.721798 
L 128.90923 110.787679 
L 130.271409 130.550085 
L 131.633083 156.613796 
L 132.995262 173.002986 
L 134.357442 181.323665 
L 135.719116 184.485269 
L 137.082811 183.783603 
L 138.444991 179.143977 
L 139.80717 169.384454 
L 142.532539 136.313548 
L 143.896235 133.319555 
L 145.259931 143.192718 
L 146.621604 148.629449 
L 147.9853 143.073673 
L 149.348996 132.651061 
L 150.712691 136.139216 
L 152.075881 154.706089 
L 153.438061 171.560911 
L 154.801756 181.777995 
L 156.166968 186.643998 
L 157.530159 186.935978 
L 158.893854 181.52533 
L 160.25755 171.83534 
L 161.621245 175.619995 
L 162.985952 186.43084 
L 164.349648 191.689713 
L 165.714859 192.959612 
L 167.078555 191.683071 
L 168.443767 187.876449 
L 169.808474 180.211141 
L 171.172169 165.75232 
L 172.537381 146.960397 
L 173.902593 146.902 
L 175.267805 156.107537 
L 176.632512 158.416574 
L 177.997724 157.003228 
L 179.362936 156.334612 
L 180.728148 158.914451 
L 182.09336 164.719972 
L 184.823278 179.287379 
L 186.190006 185.515064 
L 187.555218 190.528998 
L 188.921947 194.451201 
L 190.286653 197.473948 
L 191.653381 199.802071 
L 193.018593 201.589167 
L 194.385322 202.961666 
L 195.75205 204.008153 
L 197.118778 204.794952 
L 198.48399 205.369473 
L 199.850213 205.767062 
L 201.216941 206.011099 
L 202.58367 206.117196 
L 203.950398 206.094642 
L 205.318643 205.94697 
L 206.685371 205.673272 
L 208.052099 205.267367 
L 209.418322 204.718383 
L 210.786567 204.008443 
L 212.153295 203.116437 
L 213.52154 202.010227 
L 214.888268 200.653756 
L 216.256513 198.996005 
L 217.623241 196.982967 
L 218.991486 194.54429 
L 220.35973 191.613962 
L 221.72747 188.1379 
L 223.095714 184.100042 
L 227.200448 170.246898 
L 228.568693 166.495954 
L 229.936937 164.1529 
L 231.305182 163.482386 
L 232.673427 164.23289 
L 235.411432 167.200085 
L 236.781193 167.946692 
L 238.148933 167.532367 
L 239.518694 165.784298 
L 240.886938 162.8996 
L 242.256699 159.597742 
L 243.62646 157.19179 
L 244.996221 157.115305 
L 246.364466 159.956369 
L 247.734227 164.971387 
L 249.103988 170.669384 
L 250.473749 175.70528 
L 251.84351 179.154507 
L 253.214787 180.250654 
L 254.584548 178.031132 
L 257.32407 166.158882 
L 258.695347 170.673908 
L 260.065108 182.036098 
L 261.436386 191.381023 
L 262.806147 197.421254 
L 264.177424 201.307178 
L 265.547185 203.928473 
L 266.918462 205.800139 
L 268.28974 207.19906 
L 269.661017 208.285027 
L 271.032294 209.153761 
L 273.774849 210.459941 
L 276.517404 211.397518 
L 279.259958 212.103922 
L 283.375307 212.887443 
L 288.864965 213.61398 
L 295.727417 214.225053 
L 303.964684 214.712189 
L 314.955121 215.132435 
L 320.450845 215.283038 
L 320.450845 215.283038 
" clip-path="url(#p71e76ecf2b)" style="fill: none; stroke: #ff0000; stroke-width: 1.5; stroke-linecap: square"/>
   </g>
   <g id="line2d_3">
    <path d="M 295.727417 216.404326 
L 295.727417 17.735865 
" clip-path="url(#p71e76ecf2b)" style="fill: none; stroke-dasharray: 3.7,1.6; stroke-dashoffset: 0; stroke: #808080"/>
   </g>
   <g id="patch_3">
    <path d="M 43.003987 216.404326 
L 43.003987 17.735865 
" style="fill: none; stroke: #000000; stroke-linejoin: miter; stroke-linecap: square"/>
   </g>
   <g id="patch_4">
    <path d="M 320.99976 216.404326 
L 320.99976 17.735865 
" style="fill: none; stroke: #000000; stroke-linejoin: miter; stroke-linecap: square"/>
   </g>
   <g id="patch_5">
    <path d="M 43.003987 216.404326 
L 320.99976 216.404326 
" style="fill: none; stroke: #000000; stroke-linejoin: miter; stroke-linecap: square"/>
   </g>
   <g id="patch_6">
    <path d="M 43.003987 17.735865 
L 320.99976 17.735865 
" style="fill: none; stroke: #000000; stroke-linejoin: miter; stroke-linecap: square"/>
   </g>
   <g id="matplotlib.axis_1">
    <g id="xtick_1">
     <g id="line2d_4">
      <defs>
       <path id="m8d656b314b" d="M 0 0 
L 0 3.75 
" style="stroke: #000000; stroke-width: 1.25"/>
      </defs>
      <g>
       <use xlink:href="#m8d656b314b" x="43.003987" y="216.404326" style="stroke: #000000; stroke-width: 1.25"/>
      </g>
     </g>
     <g id="text_1">
      <!-- $\mathdefault{429}$ -->
      <g transform="translate(33.818987 231.52792)">
       <text>
        <tspan style="font: 11px 'Arial'" x="0 6.117676 12.235352" y="-0.09375">429</tspan>
       </text>
      </g>
     </g>
    </g>
    <g id="xtick_2">
     <g id="line2d_5">
      <g>
       <use xlink:href="#m8d656b314b" x="93.548673" y="216.404326" style="stroke: #000000; stroke-width: 1.25"/>
      </g>
     </g>
     <g id="text_2">
      <!-- $\mathdefault{430}$ -->
      <g transform="translate(84.363673 231.52792)">
       <text>
        <tspan style="font: 11px 'Arial'" x="0 6.117676 12.235352" y="-0.09375">430</tspan>
       </text>
      </g>
     </g>
    </g>
    <g id="xtick_3">
     <g id="line2d_6">
      <g>
       <use xlink:href="#m8d656b314b" x="144.093359" y="216.404326" style="stroke: #000000; stroke-width: 1.25"/>
      </g>
     </g>
     <g id="text_3">
      <!-- $\mathdefault{431}$ -->
      <g transform="translate(134.908359 231.52792)">
       <text>
        <tspan style="font: 11px 'Arial'" x="0 6.117676 12.235352" y="-0.09375">431</tspan>
       </text>
      </g>
     </g>
    </g>
    <g id="xtick_4">
     <g id="line2d_7">
      <g>
       <use xlink:href="#m8d656b314b" x="194.638045" y="216.404326" style="stroke: #000000; stroke-width: 1.25"/>
      </g>
     </g>
     <g id="text_4">
      <!-- $\mathdefault{432}$ -->
      <g transform="translate(185.453045 231.52792)">
       <text>
        <tspan style="font: 11px 'Arial'" x="0 6.117676 12.235352" y="-0.09375">432</tspan>
       </text>
      </g>
     </g>
    </g>
    <g id="xtick_5">
     <g id="line2d_8">
      <g>
       <use xlink:href="#m8d656b314b" x="245.182731" y="216.404326" style="stroke: #000000; stroke-width: 1.25"/>
      </g>
     </g>
     <g id="text_5">
      <!-- $\mathdefault{433}$ -->
      <g transform="translate(235.997731 231.52792)">
       <text>
        <tspan style="font: 11px 'Arial'" x="0 6.117676 12.235352" y="-0.09375">433</tspan>
       </text>
      </g>
     </g>
    </g>
    <g id="xtick_6">
     <g id="line2d_9">
      <g>
       <use xlink:href="#m8d656b314b" x="295.727417" y="216.404326" style="stroke: #000000; stroke-width: 1.25"/>
      </g>
     </g>
     <g id="text_6">
      <!-- $\mathdefault{434}$ -->
      <g transform="translate(286.542417 231.52792)">
       <text>
        <tspan style="font: 11px 'Arial'" x="0 6.117676 12.235352" y="-0.09375">434</tspan>
       </text>
      </g>
     </g>
    </g>
    <g id="text_7">
     <!-- $\lambda$ {\sffamily (nm)} -->
     <g transform="translate(164.206736 246.411565) scale(0.12 -0.12)">
      <defs>
       <path id="StandardSymL-6c" d="M 480 3650 
C 525 4013 710 4224 998 4224 
C 1203 4224 1376 4064 1472 3778 
C 1517 3650 1574 3440 1632 3198 
L 154 19 
L 755 19 
L 1843 2301 
C 2048 1059 2150 607 2266 358 
C 2406 83 2611 -64 2848 -64 
C 3098 -64 3296 89 3405 371 
C 3475 543 3501 715 3507 1014 
L 3373 1014 
C 3322 683 3174 499 2944 499 
C 2752 499 2586 620 2483 843 
C 2400 1008 2355 1174 2266 1645 
L 2093 2466 
C 2086 2485 2080 2530 2067 2594 
C 1920 3415 1690 4192 1536 4422 
C 1395 4627 1203 4736 992 4736 
C 602 4736 397 4403 326 3650 
L 480 3650 
z
" transform="scale(0.015625)"/>
       <path id="NimbusSanL-Regu-28" d="M 1510 4672 
C 870 3833 467 2668 467 1663 
C 467 652 870 -513 1510 -1351 
L 1862 -1351 
C 1299 -436 986 639 986 1663 
C 986 2681 1299 3763 1862 4672 
L 1510 4672 
z
" transform="scale(0.015625)"/>
       <path id="NimbusSanL-Regu-6e" d="M 448 3328 
L 448 0 
L 986 0 
L 986 1835 
C 986 2539 1344 2988 1894 2988 
C 2317 2988 2586 2732 2586 2328 
L 2586 0 
L 3117 0 
L 3117 2539 
C 3117 3097 2701 3456 2054 3456 
C 1555 3456 1235 3263 941 2796 
L 941 3328 
L 448 3328 
z
" transform="scale(0.015625)"/>
       <path id="NimbusSanL-Regu-6d" d="M 448 3328 
L 448 0 
L 986 0 
L 986 2089 
C 986 2597 1338 2988 1773 2988 
C 2170 2988 2394 2744 2394 2315 
L 2394 0 
L 2931 0 
L 2931 2109 
C 2931 2597 3283 2988 3718 2988 
C 4109 2988 4339 2738 4339 2315 
L 4339 0 
L 4877 0 
L 4877 2520 
C 4877 3123 4531 3456 3904 3456 
C 3456 3456 3187 3321 2874 2943 
C 2675 3302 2406 3456 1971 3456 
C 1523 3456 1229 3289 941 2886 
L 941 3328 
L 448 3328 
z
" transform="scale(0.015625)"/>
       <path id="NimbusSanL-Regu-29" d="M 595 -1351 
C 1235 -513 1638 652 1638 1657 
C 1638 2668 1235 3833 595 4672 
L 243 4672 
C 806 3756 1120 2681 1120 1657 
C 1120 639 806 -442 243 -1351 
L 595 -1351 
z
" transform="scale(0.015625)"/>
      </defs>
      <use xlink:href="#StandardSymL-6c" transform="scale(0.996264)"/>
      <use xlink:href="#NimbusSanL-Regu-28" transform="translate(91.855235 0) scale(0.996264)"/>
      <use xlink:href="#NimbusSanL-Regu-6e" transform="translate(125.030464 0) scale(0.996264)"/>
      <use xlink:href="#NimbusSanL-Regu-6d" transform="translate(180.422141 0) scale(0.996264)"/>
      <use xlink:href="#NimbusSanL-Regu-29" transform="translate(263.410572 0) scale(0.996264)"/>
     </g>
    </g>
   </g>
   <g id="matplotlib.axis_2">
    <g id="ytick_1">
     <g id="line2d_10">
      <defs>
       <path id="m22b0c238ca" d="M 0 0 
L -3.75 0 
" style="stroke: #000000; stroke-width: 1.25"/>
      </defs>
      <g>
       <use xlink:href="#m22b0c238ca" x="43.003987" y="216.404326" style="stroke: #000000; stroke-width: 1.25"/>
      </g>
     </g>
     <g id="text_8">
      <!-- $\mathdefault{0.0}$ -->
      <g transform="translate(20.353987 220.341123)">
       <text>
        <tspan style="font: 11px 'Arial'" x="0 6.117676 9.173828" y="-0.09375">0.0</tspan>
       </text>
      </g>
     </g>
    </g>
    <g id="ytick_2">
     <g id="line2d_11">
      <g>
       <use xlink:href="#m22b0c238ca" x="43.003987" y="193.971136" style="stroke: #000000; stroke-width: 1.25"/>
      </g>
     </g>
     <g id="text_9">
      <!-- $\mathdefault{0.5}$ -->
      <g transform="translate(20.353987 197.907933)">
       <text>
        <tspan style="font: 11px 'Arial'" x="0 6.117676 9.173828" y="-0.09375">0.5</tspan>
       </text>
      </g>
     </g>
    </g>
    <g id="ytick_3">
     <g id="line2d_12">
      <g>
       <use xlink:href="#m22b0c238ca" x="43.003987" y="171.537946" style="stroke: #000000; stroke-width: 1.25"/>
      </g>
     </g>
     <g id="text_10">
      <!-- $\mathdefault{1.0}$ -->
      <g transform="translate(20.353987 175.474742)">
       <text>
        <tspan style="font: 11px 'Arial'" x="0 6.117676 9.173828" y="-0.09375">1.0</tspan>
       </text>
      </g>
     </g>
    </g>
    <g id="ytick_4">
     <g id="line2d_13">
      <g>
       <use xlink:href="#m22b0c238ca" x="43.003987" y="149.104755" style="stroke: #000000; stroke-width: 1.25"/>
      </g>
     </g>
     <g id="text_11">
      <!-- $\mathdefault{1.5}$ -->
      <g transform="translate(20.353987 153.041552)">
       <text>
        <tspan style="font: 11px 'Arial'" x="0 6.117676 9.173828" y="-0.09375">1.5</tspan>
       </text>
      </g>
     </g>
    </g>
    <g id="ytick_5">
     <g id="line2d_14">
      <g>
       <use xlink:href="#m22b0c238ca" x="43.003987" y="126.671565" style="stroke: #000000; stroke-width: 1.25"/>
      </g>
     </g>
     <g id="text_12">
      <!-- $\mathdefault{2.0}$ -->
      <g transform="translate(20.353987 130.608362)">
       <text>
        <tspan style="font: 11px 'Arial'" x="0 6.117676 9.173828" y="-0.09375">2.0</tspan>
       </text>
      </g>
     </g>
    </g>
    <g id="ytick_6">
     <g id="line2d_15">
      <g>
       <use xlink:href="#m22b0c238ca" x="43.003987" y="104.238375" style="stroke: #000000; stroke-width: 1.25"/>
      </g>
     </g>
     <g id="text_13">
      <!-- $\mathdefault{2.5}$ -->
      <g transform="translate(20.353987 108.175172)">
       <text>
        <tspan style="font: 11px 'Arial'" x="0 6.117676 9.173828" y="-0.09375">2.5</tspan>
       </text>
      </g>
     </g>
    </g>
    <g id="ytick_7">
     <g id="line2d_16">
      <g>
       <use xlink:href="#m22b0c238ca" x="43.003987" y="81.805185" style="stroke: #000000; stroke-width: 1.25"/>
      </g>
     </g>
     <g id="text_14">
      <!-- $\mathdefault{3.0}$ -->
      <g transform="translate(20.353987 85.741982)">
       <text>
        <tspan style="font: 11px 'Arial'" x="0 6.117676 9.173828" y="-0.09375">3.0</tspan>
       </text>
      </g>
     </g>
    </g>
    <g id="ytick_8">
     <g id="line2d_17">
      <g>
       <use xlink:href="#m22b0c238ca" x="43.003987" y="59.371995" style="stroke: #000000; stroke-width: 1.25"/>
      </g>
     </g>
     <g id="text_15">
      <!-- $\mathdefault{3.5}$ -->
      <g transform="translate(20.353987 63.308792)">
       <text>
        <tspan style="font: 11px 'Arial'" x="0 6.117676 9.173828" y="-0.09375">3.5</tspan>
       </text>
      </g>
     </g>
    </g>
    <g id="ytick_9">
     <g id="line2d_18">
      <g>
       <use xlink:href="#m22b0c238ca" x="43.003987" y="36.938804" style="stroke: #000000; stroke-width: 1.25"/>
      </g>
     </g>
     <g id="text_16">
      <!-- $\mathdefault{4.0}$ -->
      <g transform="translate(20.353987 40.875601)">
       <text>
        <tspan style="font: 11px 'Arial'" x="0 6.117676 9.173828" y="-0.09375">4.0</tspan>
       </text>
      </g>
     </g>
    </g>
    <g id="text_17">
     <!-- $B_{\lambda}$ {\sffamily (photons/cm\textsuperscript{2}/s/nm)} -->
     <g transform="translate(13.728305 177.714049) rotate(-90) scale(0.12 -0.12)">
      <defs>
       <path id="NimbusRomNo9L-ReguItal-42" d="M -51 0 
L 1754 0 
C 2758 0 3450 523 3450 1274 
C 3450 1510 3373 1732 3232 1872 
C 3104 2019 2976 2095 2643 2235 
C 3098 2344 3283 2420 3488 2598 
C 3667 2751 3763 2968 3763 3222 
C 3763 3827 3309 4160 2483 4160 
L 832 4160 
L 832 4057 
C 1229 4025 1325 3974 1325 3795 
C 1325 3700 1299 3541 1254 3388 
L 467 574 
C 352 204 307 166 -51 102 
L -51 0 
z
M 1523 2108 
C 1939 2108 2208 2083 2336 2032 
C 2598 1923 2758 1643 2758 1299 
C 2758 612 2285 192 1504 192 
C 1235 192 1094 287 1094 459 
C 1094 535 1171 841 1318 1350 
C 1402 1637 1440 1783 1523 2108 
z
M 2003 3789 
C 2042 3929 2118 3967 2368 3967 
C 2880 3967 3117 3751 3117 3280 
C 3117 2917 2963 2637 2688 2484 
C 2470 2356 2163 2312 1587 2312 
L 2003 3789 
z
" transform="scale(0.015625)"/>
       <path id="NimbusSanL-Regu-70" d="M 346 -1408 
L 883 -1408 
L 883 371 
C 1165 25 1478 -128 1914 -128 
C 2778 -128 3347 568 3347 1632 
C 3347 2752 2797 3456 1907 3456 
C 1453 3456 1088 3251 838 2854 
L 838 3359 
L 346 3359 
L 346 -1408 
z
M 1818 2956 
C 2406 2956 2790 2440 2790 1644 
C 2790 887 2400 371 1818 371 
C 1254 371 883 880 883 1663 
C 883 2447 1254 2956 1818 2956 
z
" transform="scale(0.015625)"/>
       <path id="NimbusSanL-Regu-68" d="M 448 4672 
L 448 0 
L 979 0 
L 979 1853 
C 979 2539 1338 2988 1888 2988 
C 2061 2988 2234 2930 2362 2834 
C 2515 2725 2579 2565 2579 2328 
L 2579 0 
L 3110 0 
L 3110 2539 
C 3110 3103 2707 3456 2054 3456 
C 1581 3456 1293 3308 979 2898 
L 979 4672 
L 448 4672 
z
" transform="scale(0.015625)"/>
       <path id="NimbusSanL-Regu-6f" d="M 1741 3456 
C 800 3456 230 2784 230 1663 
C 230 543 794 -128 1747 -128 
C 2688 -128 3264 543 3264 1638 
C 3264 2791 2707 3456 1741 3456 
z
M 1747 2963 
C 2349 2963 2707 2472 2707 1644 
C 2707 861 2336 364 1747 364 
C 1152 364 787 855 787 1663 
C 787 2466 1152 2963 1747 2963 
z
" transform="scale(0.015625)"/>
       <path id="NimbusSanL-Regu-74" d="M 1626 3328 
L 1075 3328 
L 1075 4249 
L 544 4249 
L 544 3328 
L 90 3328 
L 90 2892 
L 544 2892 
L 544 402 
C 544 64 774 -128 1190 -128 
C 1318 -128 1446 -116 1626 -84 
L 1626 364 
C 1555 345 1472 339 1370 339 
C 1139 339 1075 402 1075 634 
L 1075 2892 
L 1626 2892 
L 1626 3328 
z
" transform="scale(0.015625)"/>
       <path id="NimbusSanL-Regu-73" d="M 2803 2428 
C 2797 3084 2362 3456 1587 3456 
C 806 3456 301 3052 301 2434 
C 301 1912 570 1663 1363 1472 
L 1862 1351 
C 2234 1262 2381 1129 2381 887 
C 2381 574 2067 364 1600 364 
C 1312 364 1069 447 934 587 
C 851 683 813 778 781 1014 
L 218 1014 
C 243 243 678 -128 1555 -128 
C 2400 -128 2938 288 2938 931 
C 2938 1428 2656 1702 1990 1861 
L 1478 1982 
C 1043 2084 858 2224 858 2459 
C 858 2765 1133 2963 1568 2963 
C 1997 2963 2227 2778 2240 2428 
L 2803 2428 
z
" transform="scale(0.015625)"/>
       <path id="NimbusSanL-Regu-2f" d="M 1466 4672 
L -51 -128 
L 301 -128 
L 1818 4672 
L 1466 4672 
z
" transform="scale(0.015625)"/>
       <path id="NimbusSanL-Regu-63" d="M 3014 2237 
C 2989 2561 2918 2771 2790 2956 
C 2560 3270 2157 3456 1690 3456 
C 787 3456 198 2740 198 1632 
C 198 555 774 -128 1683 -128 
C 2483 -128 2989 352 3053 1167 
L 2515 1167 
C 2426 632 2150 364 1696 364 
C 1107 364 755 842 755 1632 
C 755 2466 1101 2963 1683 2963 
C 2131 2963 2413 2701 2477 2237 
L 3014 2237 
z
" transform="scale(0.015625)"/>
       <path id="NimbusSanL-Regu-32" d="M 3238 556 
L 851 556 
C 909 928 1114 1165 1670 1493 
L 2310 1839 
C 2944 2185 3270 2653 3270 3211 
C 3270 3589 3117 3942 2848 4185 
C 2579 4428 2246 4544 1818 4544 
C 1242 4544 813 4339 563 3955 
C 403 3711 333 3429 320 2967 
L 883 2967 
C 902 3275 941 3461 1018 3608 
C 1165 3884 1459 4051 1798 4051 
C 2310 4051 2694 3685 2694 3198 
C 2694 2839 2483 2531 2080 2300 
L 1491 1967 
C 544 1428 269 999 218 0 
L 3238 0 
L 3238 556 
z
" transform="scale(0.015625)"/>
      </defs>
      <use xlink:href="#NimbusRomNo9L-ReguItal-42" transform="scale(0.996264)"/>
      <use xlink:href="#StandardSymL-6c" transform="translate(60.871631 -20.616338) scale(0.737241)"/>
      <use xlink:href="#NimbusSanL-Regu-28" transform="translate(135.818713 0) scale(0.996264)"/>
      <use xlink:href="#NimbusSanL-Regu-70" transform="translate(168.993943 0) scale(0.996264)"/>
      <use xlink:href="#NimbusSanL-Regu-68" transform="translate(224.38562 0) scale(0.996264)"/>
      <use xlink:href="#NimbusSanL-Regu-6f" transform="translate(279.777297 0) scale(0.996264)"/>
      <use xlink:href="#NimbusSanL-Regu-74" transform="translate(335.168974 0) scale(0.996264)"/>
      <use xlink:href="#NimbusSanL-Regu-6f" transform="translate(362.864143 0) scale(0.996264)"/>
      <use xlink:href="#NimbusSanL-Regu-6e" transform="translate(418.25582 0) scale(0.996264)"/>
      <use xlink:href="#NimbusSanL-Regu-73" transform="translate(473.647497 0) scale(0.996264)"/>
      <use xlink:href="#NimbusSanL-Regu-2f" transform="translate(523.460698 0) scale(0.996264)"/>
      <use xlink:href="#NimbusSanL-Regu-63" transform="translate(551.155868 0) scale(0.996264)"/>
      <use xlink:href="#NimbusSanL-Regu-6d" transform="translate(600.969068 0) scale(0.996264)"/>
      <use xlink:href="#NimbusSanL-Regu-32" transform="translate(683.957498 36.163231) scale(0.737241)"/>
      <use xlink:href="#NimbusSanL-Regu-2f" transform="translate(725.445777 0) scale(0.996264)"/>
      <use xlink:href="#NimbusSanL-Regu-73" transform="translate(753.140947 0) scale(0.996264)"/>
      <use xlink:href="#NimbusSanL-Regu-2f" transform="translate(802.954147 0) scale(0.996264)"/>
      <use xlink:href="#NimbusSanL-Regu-6e" transform="translate(830.649317 0) scale(0.996264)"/>
      <use xlink:href="#NimbusSanL-Regu-6d" transform="translate(886.040994 0) scale(0.996264)"/>
      <use xlink:href="#NimbusSanL-Regu-29" transform="translate(969.029424 0) scale(0.996264)"/>
     </g>
    </g>
    <g id="text_18">
     <!-- $\times\mathdefault{10^{12}}\mathdefault{}$ -->
     <g transform="translate(43.003987 14.735865)">
      <text>
       <tspan style="font: 11px 'STIXGeneral'" x="0" y="-0.799312500000001"></tspan>
       <tspan style="font: 11px 'Arial'" x="7.039993 13.157669" y="-0.799312500000001">10</tspan>
       <tspan style="font: 7.7px 'Arial'" x="19.467003 23.749376" y="-8.465625">12</tspan>
      </text>
     </g>
    </g>
   </g>
   <g id="patch_7">
    <path d="M 217.800817 47.652918 
L 217.800817 67.40298 
L 294.609383 67.40298 
" style="fill: none; stroke: #000000; stroke-linecap: round"/>
    <path d="M 290.609383 65.40298 
L 294.609383 67.40298 
L 290.609383 69.40298 
" style="fill: none; stroke: #000000; stroke-linecap: round"/>
   </g>
   <g id="text_19">
    <g id="patch_8">
     <path d="M 184.100817 50.702711 
L 251.500817 50.702711 
Q 254.500817 50.702711 254.500817 47.702711 
L 254.500817 37.602711 
Q 254.500817 34.602711 251.500817 34.602711 
L 184.100817 34.602711 
Q 181.100817 34.602711 181.100817 37.602711 
L 181.100817 47.702711 
Q 181.100817 50.702711 184.100817 50.702711 
z
" style="fill: #f5deb3; stroke: #000000; stroke-linejoin: miter"/>
    </g>
    <!-- D$_{\gamma}$ (434.00) nm -->
    <g transform="translate(184.100817 44.902711)">
     <text>
      <tspan style="font: 10px 'Arial'" x="0 10.686517 13.464837 16.794915 22.356439 27.917962 33.479486 36.257806 41.81933 47.380853 50.710931 53.489251 59.050775" y="-0.71875">D(434.00)nm</tspan>
      <tspan style="font: italic 7px 'STIXGeneral'" x="7.375898" y="0.6031250000000004"></tspan>
     </text>
    </g>
   </g>
   <g id="text_20">
    <text style="font: 10px 'Arial'; text-anchor: middle" x="234.261485" y="96.004835" transform="rotate(-0 234.261485 96.004835)">Q-branch</text>
   </g>
   <g id="text_21">
    <text style="font: 10px 'Arial'; text-anchor: middle" x="121.568273" y="48.880368" transform="rotate(-0 121.568273 48.880368)">B-D + C-D</text>
   </g>
   <g id="text_22">
    <text style="font: 700 12px 'Arial'; text-anchor: middle" x="182.001874" y="11.735865" transform="rotate(-0 182.001874 11.735865)">PC boron pebble rod - 12 min</text>
   </g>
  </g>
 </g>
 <defs>
  <clipPath id="p71e76ecf2b">
   <rect x="43.003987" y="17.735865" width="277.995773" height="198.668461"/>
  </clipPath>
 </defs>
</svg>
