<?xml version="1.0" encoding="utf-8" standalone="no"?>
<!DOCTYPE svg PUBLIC "-//W3C//DTD SVG 1.1//EN"
  "http://www.w3.org/Graphics/SVG/1.1/DTD/svg11.dtd">
<svg xmlns:xlink="http://www.w3.org/1999/xlink" width="324pt" height="252pt" viewBox="0 0 324 252" xmlns="http://www.w3.org/2000/svg" version="1.1">
 <metadata>
  <rdf:RDF xmlns:dc="http://purl.org/dc/elements/1.1/" xmlns:cc="http://creativecommons.org/ns#" xmlns:rdf="http://www.w3.org/1999/02/22-rdf-syntax-ns#">
   <cc:Work>
    <dc:type rdf:resource="http://purl.org/dc/dcmitype/StillImage"/>
    <dc:date>2024-12-06T11:01:25.558042</dc:date>
    <dc:format>image/svg+xml</dc:format>
    <dc:creator>
     <cc:Agent>
      <dc:title>Matplotlib v3.9.2, https://matplotlib.org/</dc:title>
     </cc:Agent>
    </dc:creator>
   </cc:Work>
  </rdf:RDF>
 </metadata>
 <defs>
  <style type="text/css">*{stroke-linejoin: round; stroke-linecap: butt}</style>
 </defs>
 <g id="figure_1">
  <g id="patch_1">
   <path d="M 0 252 
L 324 252 
L 324 0 
L 0 0 
z
" style="fill: #ffffff"/>
  </g>
  <g id="axes_1">
   <g id="patch_2">
    <path d="M 33.763987 216.404326 
L 320.99976 216.404326 
L 320.99976 17.735865 
L 33.763987 17.735865 
z
" style="fill: #ffffff"/>
   </g>
   <g id="PolyCollection_1">
    <path d="M 34.04809 216.196052 
L 34.04809 216.404326 
L 35.450322 216.404326 
L 36.851511 216.404326 
L 38.253744 216.404326 
L 39.654932 216.404326 
L 41.057165 216.404326 
L 42.45992 216.404326 
L 43.860586 216.404326 
L 45.263341 216.404326 
L 46.665574 216.404326 
L 48.068329 216.404326 
L 49.471084 216.404326 
L 50.873317 216.404326 
L 52.276072 216.404326 
L 53.678305 216.404326 
L 55.08106 216.404326 
L 56.484859 216.404326 
L 57.887614 216.404326 
L 59.289847 216.404326 
L 60.694169 216.404326 
L 62.096924 216.404326 
L 63.500723 216.404326 
L 64.903479 216.404326 
L 66.307278 216.404326 
L 67.7116 216.404326 
L 69.113833 216.404326 
L 70.518155 216.404326 
L 71.922476 216.404326 
L 73.326276 216.404326 
L 74.730598 216.404326 
L 76.134397 216.404326 
L 77.538719 216.404326 
L 78.943041 216.404326 
L 80.348407 216.404326 
L 81.752729 216.404326 
L 83.157051 216.404326 
L 84.562417 216.404326 
L 85.966739 216.404326 
L 87.372105 216.404326 
L 88.776427 216.404326 
L 90.182316 216.404326 
L 91.586115 216.404326 
L 92.992004 216.404326 
L 94.397892 216.404326 
L 95.803258 216.404326 
L 97.209147 216.404326 
L 98.615036 216.404326 
L 100.020402 216.404326 
L 101.42629 216.404326 
L 102.831657 216.404326 
L 104.237545 216.404326 
L 105.643434 216.404326 
L 107.050367 216.404326 
L 108.456255 216.404326 
L 109.862144 216.404326 
L 111.269077 216.404326 
L 112.674966 216.404326 
L 114.082421 216.404326 
L 115.489876 216.404326 
L 116.895242 216.404326 
L 118.302698 216.404326 
L 119.710153 216.404326 
L 121.117086 216.404326 
L 122.524541 216.404326 
L 123.931997 216.404326 
L 125.33893 216.404326 
L 126.746385 216.404326 
L 128.15384 216.404326 
L 129.560773 216.404326 
L 130.969795 216.404326 
L 132.377251 216.404326 
L 133.784706 216.404326 
L 135.193206 216.404326 
L 136.600661 216.404326 
L 138.009683 216.404326 
L 139.418705 216.404326 
L 140.825638 216.404326 
L 142.23466 216.404326 
L 143.643682 216.404326 
L 145.052704 216.404326 
L 146.461204 216.404326 
L 147.868659 216.404326 
L 149.277681 216.404326 
L 150.68827 216.404326 
L 152.09677 216.404326 
L 153.505792 216.404326 
L 154.914814 216.404326 
L 156.323836 216.404326 
L 157.733902 216.404326 
L 159.142924 216.404326 
L 160.553513 216.404326 
L 161.962535 216.404326 
L 163.373124 216.404326 
L 164.78319 216.404326 
L 166.192212 216.404326 
L 167.602801 216.404326 
L 169.01339 216.404326 
L 170.423979 216.404326 
L 171.834045 216.404326 
L 173.244634 216.404326 
L 174.655223 216.404326 
L 176.065812 216.404326 
L 177.4764 216.404326 
L 178.886467 216.404326 
L 180.297056 216.404326 
L 181.709211 216.404326 
L 183.1198 216.404326 
L 184.531955 216.404326 
L 185.942022 216.404326 
L 187.354177 216.404326 
L 188.764766 216.404326 
L 190.176922 216.404326 
L 191.589077 216.404326 
L 193.001233 216.404326 
L 194.411821 216.404326 
L 195.823455 216.404326 
L 197.23561 216.404326 
L 198.647766 216.404326 
L 200.059921 216.404326 
L 201.473644 216.404326 
L 202.885799 216.404326 
L 204.297955 216.404326 
L 205.709588 216.404326 
L 207.12331 216.404326 
L 208.535466 216.404326 
L 209.949188 216.404326 
L 211.361343 216.404326 
L 212.775066 216.404326 
L 214.187221 216.404326 
L 215.600943 216.404326 
L 217.014666 216.404326 
L 218.427866 216.404326 
L 219.841588 216.404326 
L 221.25531 216.404326 
L 222.669032 216.404326 
L 224.082755 216.404326 
L 225.496477 216.404326 
L 226.910199 216.404326 
L 228.323921 216.404326 
L 229.737644 216.404326 
L 231.152933 216.404326 
L 232.566655 216.404326 
L 233.981944 216.404326 
L 235.395144 216.404326 
L 236.810433 216.404326 
L 238.224155 216.404326 
L 239.639444 216.404326 
L 241.054733 216.404326 
L 242.470022 216.404326 
L 243.883744 216.404326 
L 245.299033 216.404326 
L 246.714322 216.404326 
L 248.129611 216.404326 
L 249.5449 216.404326 
L 250.961756 216.404326 
L 252.377045 216.404326 
L 253.792334 216.404326 
L 255.207623 216.404326 
L 256.624479 216.404326 
L 258.039768 216.404326 
L 259.456623 216.404326 
L 260.871912 216.404326 
L 262.288768 216.404326 
L 263.704057 216.404326 
L 265.120913 216.404326 
L 266.537769 216.404326 
L 267.954624 216.404326 
L 269.37148 216.404326 
L 270.788336 216.404326 
L 272.205191 216.404326 
L 273.622047 216.404326 
L 275.038903 216.404326 
L 276.455759 216.404326 
L 277.872614 216.404326 
L 279.291037 216.404326 
L 280.707893 216.404326 
L 282.124748 216.404326 
L 283.543171 216.404326 
L 284.960026 216.404326 
L 286.378449 216.404326 
L 287.796871 216.404326 
L 289.213727 216.404326 
L 290.63215 216.404326 
L 292.050572 216.404326 
L 293.468995 216.404326 
L 294.887417 216.404326 
L 296.306362 216.404326 
L 297.724784 216.404326 
L 299.143207 216.404326 
L 300.561629 216.404326 
L 301.980052 216.404326 
L 303.398474 216.404326 
L 304.818463 216.404326 
L 306.236886 216.404326 
L 307.656875 216.404326 
L 309.075297 216.404326 
L 310.495287 216.404326 
L 311.913709 216.404326 
L 313.334221 216.404326 
L 314.75421 216.404326 
L 316.172632 216.404326 
L 317.592621 216.404326 
L 319.012611 216.404326 
L 320.4326 216.404326 
L 320.4326 215.367108 
L 320.4326 215.367108 
L 319.012611 215.332911 
L 317.592621 215.296981 
L 316.172632 215.259197 
L 314.75421 215.219473 
L 313.334221 215.177578 
L 311.913709 215.13338 
L 310.495287 215.086792 
L 309.075297 215.037506 
L 307.656875 214.985424 
L 306.236886 214.930201 
L 304.818463 214.871704 
L 303.398474 214.809524 
L 301.980052 214.743484 
L 300.561629 214.67317 
L 299.143207 214.598193 
L 297.724784 214.518115 
L 296.306362 214.432443 
L 294.887417 214.340587 
L 293.468995 214.241982 
L 292.050572 214.135874 
L 290.63215 214.021436 
L 289.213727 213.897716 
L 287.796871 213.763761 
L 286.378449 213.617985 
L 284.960026 213.459009 
L 283.543171 213.285228 
L 282.124748 213.094098 
L 280.707893 212.883423 
L 279.291037 212.649796 
L 277.872614 212.388923 
L 276.455759 212.096335 
L 275.038903 211.765267 
L 273.622047 211.387188 
L 272.205191 210.950611 
L 270.788336 210.439638 
L 269.37148 209.831561 
L 267.954624 209.092742 
L 266.537769 208.171252 
L 265.120913 206.98309 
L 263.704057 205.3852 
L 262.288768 203.123785 
L 260.871912 199.713735 
L 259.456623 194.277421 
L 258.039768 185.561323 
L 256.624479 174.522666 
L 255.207623 170.377446 
L 253.792334 177.181483 
L 252.377045 184.284329 
L 250.961756 187.363617 
L 249.5449 186.915195 
L 248.129611 183.319724 
L 246.714322 176.225634 
L 245.299033 166.081287 
L 243.883744 158.718331 
L 242.470022 161.232133 
L 241.054733 167.852978 
L 239.639444 172.076034 
L 238.224155 173.407072 
L 236.810433 172.908385 
L 235.395144 171.485964 
L 233.981944 169.809361 
L 232.566655 168.395397 
L 231.152933 167.653588 
L 229.737644 167.84654 
L 228.323921 169.061236 
L 226.910199 171.207949 
L 225.496477 174.067397 
L 224.082755 177.364324 
L 222.669032 180.835929 
L 221.25531 184.273593 
L 219.841588 187.535786 
L 218.427866 190.541652 
L 217.014666 193.255423 
L 215.600943 195.675028 
L 214.187221 197.813587 
L 212.775066 199.69271 
L 211.361343 201.343752 
L 209.949188 202.790451 
L 208.535466 204.061876 
L 207.12331 205.178593 
L 205.709588 206.163786 
L 204.297955 207.032972 
L 202.885799 207.803467 
L 201.473644 208.48824 
L 200.059921 209.099316 
L 198.647766 209.645074 
L 197.23561 210.134537 
L 195.823455 210.574809 
L 194.411821 210.971834 
L 193.001233 211.330746 
L 191.589077 211.656675 
L 190.176922 211.953078 
L 188.764766 212.223303 
L 187.354177 212.469995 
L 185.942022 212.696224 
L 184.531955 212.903613 
L 183.1198 213.0947 
L 181.709211 213.270665 
L 180.297056 213.433384 
L 178.886467 213.583801 
L 177.4764 213.723207 
L 176.065812 213.852727 
L 174.655223 213.973215 
L 173.244634 214.08548 
L 171.834045 214.190242 
L 170.423979 214.28811 
L 169.01339 214.379737 
L 167.602801 214.465603 
L 166.192212 214.546176 
L 164.78319 214.621797 
L 163.373124 214.692987 
L 161.962535 214.760058 
L 160.553513 214.823227 
L 159.142924 214.882918 
L 157.733902 214.939257 
L 156.323836 214.992586 
L 154.914814 215.043039 
L 153.505792 215.090853 
L 152.09677 215.136208 
L 150.68827 215.179253 
L 149.277681 215.220216 
L 147.868659 215.259127 
L 146.461204 215.296122 
L 145.052704 215.331389 
L 143.643682 215.365019 
L 142.23466 215.3971 
L 140.825638 215.427725 
L 139.418705 215.456939 
L 138.009683 215.484908 
L 136.600661 215.511661 
L 135.193206 215.537241 
L 133.784706 215.561759 
L 132.377251 215.585238 
L 130.969795 215.607754 
L 129.560773 215.62938 
L 128.15384 215.650111 
L 126.746385 215.670031 
L 125.33893 215.689174 
L 123.931997 215.707575 
L 122.524541 215.725283 
L 121.117086 215.742326 
L 119.710153 215.758732 
L 118.302698 215.774542 
L 116.895242 215.789781 
L 115.489876 215.804453 
L 114.082421 215.818628 
L 112.674966 215.832308 
L 111.269077 215.845501 
L 109.862144 215.858253 
L 108.456255 215.870565 
L 107.050367 215.882467 
L 105.643434 215.893984 
L 104.237545 215.905117 
L 102.831657 215.91589 
L 101.42629 215.926315 
L 100.020402 215.936415 
L 98.615036 215.946194 
L 97.209147 215.955675 
L 95.803258 215.964864 
L 94.397892 215.973772 
L 92.992004 215.982414 
L 91.586115 215.9908 
L 90.182316 215.998927 
L 88.776427 216.006828 
L 87.372105 216.014493 
L 85.966739 216.021944 
L 84.562417 216.029178 
L 83.157051 216.036214 
L 81.752729 216.04305 
L 80.348407 216.049697 
L 78.943041 216.056168 
L 77.538719 216.062458 
L 76.134397 216.06858 
L 74.730598 216.074537 
L 73.326276 216.080339 
L 71.922476 216.085987 
L 70.518155 216.091492 
L 69.113833 216.096855 
L 67.7116 216.102073 
L 66.307278 216.107168 
L 64.903479 216.112133 
L 63.500723 216.116971 
L 62.096924 216.121694 
L 60.694169 216.126298 
L 59.289847 216.130795 
L 57.887614 216.135178 
L 56.484859 216.139458 
L 55.08106 216.14364 
L 53.678305 216.147721 
L 52.276072 216.151705 
L 50.873317 216.155599 
L 49.471084 216.159402 
L 48.068329 216.16312 
L 46.665574 216.166754 
L 45.263341 216.170305 
L 43.860586 216.173779 
L 42.45992 216.177171 
L 41.057165 216.180494 
L 39.654932 216.183743 
L 38.253744 216.186919 
L 36.851511 216.19003 
L 35.450322 216.193072 
L 34.04809 216.196052 
z
" clip-path="url(#p2e6f8182bc)" style="fill: #1f77b4; fill-opacity: 0.25"/>
   </g>
   <g id="PolyCollection_2">
    <path d="M 34.04809 214.954429 
L 34.04809 216.404326 
L 35.450322 216.404326 
L 36.851511 216.404326 
L 38.253744 216.404326 
L 39.654932 216.404326 
L 41.057165 216.404326 
L 42.45992 216.404326 
L 43.860586 216.404326 
L 45.263341 216.404326 
L 46.665574 216.404326 
L 48.068329 216.404326 
L 49.471084 216.404326 
L 50.873317 216.404326 
L 52.276072 216.404326 
L 53.678305 216.404326 
L 55.08106 216.404326 
L 56.484859 216.404326 
L 57.887614 216.404326 
L 59.289847 216.404326 
L 60.694169 216.404326 
L 62.096924 216.404326 
L 63.500723 216.404326 
L 64.903479 216.404326 
L 66.307278 216.404326 
L 67.7116 216.404326 
L 69.113833 216.404326 
L 70.518155 216.404326 
L 71.922476 216.404326 
L 73.326276 216.404326 
L 74.730598 216.404326 
L 76.134397 216.404326 
L 77.538719 216.404326 
L 78.943041 216.404326 
L 80.348407 216.404326 
L 81.752729 216.404326 
L 83.157051 216.404326 
L 84.562417 216.404326 
L 85.966739 216.404326 
L 87.372105 216.404326 
L 88.776427 216.404326 
L 90.182316 216.404326 
L 91.586115 216.404326 
L 92.992004 216.404326 
L 94.397892 216.404326 
L 95.803258 216.404326 
L 97.209147 216.404326 
L 98.615036 216.404326 
L 100.020402 216.404326 
L 101.42629 216.404326 
L 102.831657 216.404326 
L 104.237545 216.404326 
L 105.643434 216.404326 
L 107.050367 216.404326 
L 108.456255 216.404326 
L 109.862144 216.404326 
L 111.269077 216.404326 
L 112.674966 216.404326 
L 114.082421 216.404326 
L 115.489876 216.404326 
L 116.895242 216.404326 
L 118.302698 216.404326 
L 119.710153 216.404326 
L 121.117086 216.404326 
L 122.524541 216.404326 
L 123.931997 216.404326 
L 125.33893 216.404326 
L 126.746385 216.404326 
L 128.15384 216.404326 
L 129.560773 216.404326 
L 130.969795 216.404326 
L 132.377251 216.404326 
L 133.784706 216.404326 
L 135.193206 216.404326 
L 136.600661 216.404326 
L 138.009683 216.404326 
L 139.418705 216.404326 
L 140.825638 216.404326 
L 142.23466 216.404326 
L 143.643682 216.404326 
L 145.052704 216.404326 
L 146.461204 216.404326 
L 147.868659 216.404326 
L 149.277681 216.404326 
L 150.68827 216.404326 
L 152.09677 216.404326 
L 153.505792 216.404326 
L 154.914814 216.404326 
L 156.323836 216.404326 
L 157.733902 216.404326 
L 159.142924 216.404326 
L 160.553513 216.404326 
L 161.962535 216.404326 
L 163.373124 216.404326 
L 164.78319 216.404326 
L 166.192212 216.404326 
L 167.602801 216.404326 
L 169.01339 216.404326 
L 170.423979 216.404326 
L 171.834045 216.404326 
L 173.244634 216.404326 
L 174.655223 216.404326 
L 176.065812 216.404326 
L 177.4764 216.404326 
L 178.886467 216.404326 
L 180.297056 216.404326 
L 181.709211 216.404326 
L 183.1198 216.404326 
L 184.531955 216.404326 
L 185.942022 216.404326 
L 187.354177 216.404326 
L 188.764766 216.404326 
L 190.176922 216.404326 
L 191.589077 216.404326 
L 193.001233 216.404326 
L 194.411821 216.404326 
L 195.823455 216.404326 
L 197.23561 216.404326 
L 198.647766 216.404326 
L 200.059921 216.404326 
L 201.473644 216.404326 
L 202.885799 216.404326 
L 204.297955 216.404326 
L 205.709588 216.404326 
L 207.12331 216.404326 
L 208.535466 216.404326 
L 209.949188 216.404326 
L 211.361343 216.404326 
L 212.775066 216.404326 
L 214.187221 216.404326 
L 215.600943 216.404326 
L 217.014666 216.404326 
L 218.427866 216.404326 
L 219.841588 216.404326 
L 221.25531 216.404326 
L 222.669032 216.404326 
L 224.082755 216.404326 
L 225.496477 216.404326 
L 226.910199 216.404326 
L 228.323921 216.404326 
L 229.737644 216.404326 
L 231.152933 216.404326 
L 232.566655 216.404326 
L 233.981944 216.404326 
L 235.395144 216.404326 
L 236.810433 216.404326 
L 238.224155 216.404326 
L 239.639444 216.404326 
L 241.054733 216.404326 
L 242.470022 216.404326 
L 243.883744 216.404326 
L 245.299033 216.404326 
L 246.714322 216.404326 
L 248.129611 216.404326 
L 249.5449 216.404326 
L 250.961756 216.404326 
L 252.377045 216.404326 
L 253.792334 216.404326 
L 255.207623 216.404326 
L 256.624479 216.404326 
L 258.039768 216.404326 
L 259.456623 216.404326 
L 260.871912 216.404326 
L 262.288768 216.404326 
L 263.704057 216.404326 
L 265.120913 216.404326 
L 266.537769 216.404326 
L 267.954624 216.404326 
L 269.37148 216.404326 
L 270.788336 216.404326 
L 272.205191 216.404326 
L 273.622047 216.404326 
L 275.038903 216.404326 
L 276.455759 216.404326 
L 277.872614 216.404326 
L 279.291037 216.404326 
L 280.707893 216.404326 
L 282.124748 216.404326 
L 283.543171 216.404326 
L 284.960026 216.404326 
L 286.378449 216.404326 
L 287.796871 216.404326 
L 289.213727 216.404326 
L 290.63215 216.404326 
L 292.050572 216.404326 
L 293.468995 216.404326 
L 294.887417 216.404326 
L 296.306362 216.404326 
L 297.724784 216.404326 
L 299.143207 216.404326 
L 300.561629 216.404326 
L 301.980052 216.404326 
L 303.398474 216.404326 
L 304.818463 216.404326 
L 306.236886 216.404326 
L 307.656875 216.404326 
L 309.075297 216.404326 
L 310.495287 216.404326 
L 311.913709 216.404326 
L 313.334221 216.404326 
L 314.75421 216.404326 
L 316.172632 216.404326 
L 317.592621 216.404326 
L 319.012611 216.404326 
L 320.4326 216.404326 
L 320.4326 216.195788 
L 320.4326 216.195788 
L 319.012611 216.192335 
L 317.592621 216.188793 
L 316.172632 216.185159 
L 314.75421 216.181433 
L 313.334221 216.177603 
L 311.913709 216.173669 
L 310.495287 216.169634 
L 309.075297 216.165483 
L 307.656875 216.161223 
L 306.236886 216.156838 
L 304.818463 216.152333 
L 303.398474 216.147695 
L 301.980052 216.142928 
L 300.561629 216.138021 
L 299.143207 216.132969 
L 297.724784 216.127767 
L 296.306362 216.122406 
L 294.887417 216.11688 
L 293.468995 216.111185 
L 292.050572 216.105312 
L 290.63215 216.099253 
L 289.213727 216.092999 
L 287.796871 216.086549 
L 286.378449 216.07988 
L 284.960026 216.072989 
L 283.543171 216.065873 
L 282.124748 216.058507 
L 280.707893 216.050894 
L 279.291037 216.043014 
L 277.872614 216.034845 
L 276.455759 216.026391 
L 275.038903 216.017628 
L 273.622047 216.008541 
L 272.205191 215.999111 
L 270.788336 215.989323 
L 269.37148 215.979155 
L 267.954624 215.968587 
L 266.537769 215.957598 
L 265.120913 215.946163 
L 263.704057 215.934257 
L 262.288768 215.921867 
L 260.871912 215.908935 
L 259.456623 215.895458 
L 258.039768 215.881373 
L 256.624479 215.866673 
L 255.207623 215.851285 
L 253.792334 215.835202 
L 252.377045 215.818357 
L 250.961756 215.800702 
L 249.5449 215.782159 
L 248.129611 215.762708 
L 246.714322 215.742263 
L 245.299033 215.720752 
L 243.883744 215.698096 
L 242.470022 215.674235 
L 241.054733 215.649019 
L 239.639444 215.62237 
L 238.224155 215.59417 
L 236.810433 215.564325 
L 235.395144 215.532625 
L 233.981944 215.498994 
L 232.566655 215.463155 
L 231.152933 215.425001 
L 229.737644 215.384225 
L 228.323921 215.340667 
L 226.910199 215.294001 
L 225.496477 215.243908 
L 224.082755 215.190026 
L 222.669032 215.131942 
L 221.25531 215.069184 
L 219.841588 215.001209 
L 218.427866 214.927391 
L 217.014666 214.847037 
L 215.600943 214.759245 
L 214.187221 214.663056 
L 212.775066 214.557434 
L 211.361343 214.440773 
L 209.949188 214.311707 
L 208.535466 214.167997 
L 207.12331 214.007617 
L 205.709588 213.827357 
L 204.297955 213.624212 
L 202.885799 213.393552 
L 201.473644 213.130106 
L 200.059921 212.826803 
L 198.647766 212.475792 
L 197.23561 212.065836 
L 195.823455 211.582758 
L 194.411821 211.008165 
L 193.001233 210.317701 
L 191.589077 209.476646 
L 190.176922 208.440055 
L 188.764766 207.14479 
L 187.354177 205.504697 
L 185.942022 203.392502 
L 184.531955 200.642145 
L 183.1198 197.013589 
L 181.709211 192.231904 
L 180.297056 186.026219 
L 178.886467 178.42967 
L 177.4764 170.275568 
L 176.065812 163.667855 
L 174.655223 161.007235 
L 173.244634 162.28451 
L 171.834045 164.113297 
L 170.423979 161.601042 
L 169.01339 152.493729 
L 167.602801 151.945657 
L 166.192212 169.106149 
L 164.78319 183.603413 
L 163.373124 191.566465 
L 161.962535 195.574748 
L 160.553513 197.079587 
L 159.142924 196.287212 
L 157.733902 192.080045 
L 156.323836 182.047282 
L 154.914814 173.692861 
L 153.505792 182.560864 
L 152.09677 190.050591 
L 150.68827 191.249108 
L 149.277681 187.724607 
L 147.868659 178.855498 
L 146.461204 162.739602 
L 145.052704 144.456048 
L 143.643682 144.177957 
L 142.23466 155.589094 
L 140.825638 158.778063 
L 139.418705 150.802508 
L 138.009683 138.138008 
L 136.600661 137.828472 
L 135.193206 153.6112 
L 133.784706 169.903295 
L 132.377251 180.12091 
L 130.969795 185.057867 
L 129.560773 185.956267 
L 128.15384 182.979414 
L 126.746385 174.916211 
L 125.33893 158.96033 
L 123.931997 133.642507 
L 122.524541 114.837525 
L 121.117086 128.758133 
L 119.710153 155.090422 
L 118.302698 173.061962 
L 116.895242 182.700661 
L 115.489876 187.175208 
L 114.082421 188.321404 
L 112.674966 186.837817 
L 111.269077 182.777345 
L 109.862144 175.898504 
L 108.456255 166.453505 
L 107.050367 156.822857 
L 105.643434 152.403779 
L 104.237545 156.707542 
L 102.831657 166.179858 
L 101.42629 175.312875 
L 100.020402 181.530922 
L 98.615036 184.212193 
L 97.209147 182.888634 
L 95.803258 176.730973 
L 94.397892 167.762407 
L 92.992004 167.258949 
L 91.586115 177.867338 
L 90.182316 187.76011 
L 88.776427 193.456431 
L 87.372105 196.021698 
L 85.966739 196.378655 
L 84.562417 194.709806 
L 83.157051 190.428325 
L 81.752729 181.843239 
L 80.348407 166.060611 
L 78.943041 146.051959 
L 77.538719 143.053173 
L 76.134397 151.331634 
L 74.730598 153.907445 
L 73.326276 155.576467 
L 71.922476 162.913629 
L 70.518155 174.157861 
L 69.113833 184.643927 
L 67.7116 192.562185 
L 66.307278 198.160355 
L 64.903479 202.080963 
L 63.500723 204.871443 
L 62.096924 206.908681 
L 60.694169 208.431319 
L 59.289847 209.598614 
L 57.887614 210.510471 
L 56.484859 211.237941 
L 55.08106 211.828333 
L 53.678305 212.313966 
L 52.276072 212.718948 
L 50.873317 213.060924 
L 49.471084 213.352526 
L 48.068329 213.603709 
L 46.665574 213.821822 
L 45.263341 214.012602 
L 43.860586 214.180753 
L 42.45992 214.329622 
L 41.057165 214.46257 
L 39.654932 214.581691 
L 38.253744 214.6889 
L 36.851511 214.785958 
L 35.450322 214.874051 
L 34.04809 214.954429 
z
" clip-path="url(#p2e6f8182bc)" style="fill: #ff7f0e; fill-opacity: 0.25"/>
   </g>
   <g id="line2d_1">
    <path d="M 34.04809 190.919375 
L 35.450322 184.86702 
L 36.851511 180.399085 
L 38.253744 181.19854 
L 41.057165 189.533859 
L 42.45992 192.386359 
L 43.860586 192.919945 
L 45.263341 189.436353 
L 46.665574 187.644396 
L 48.068329 189.217442 
L 49.471084 190.297134 
L 50.873317 192.071768 
L 52.276072 190.695822 
L 53.678305 186.808112 
L 55.08106 181.068965 
L 56.484859 177.976548 
L 57.887614 173.411306 
L 59.289847 174.201695 
L 60.694169 179.887039 
L 62.096924 184.627151 
L 63.500723 191.255763 
L 64.903479 194.093303 
L 67.7116 190.132722 
L 69.113833 187.788479 
L 70.518155 176.919968 
L 71.922476 160.106864 
L 73.326276 151.897567 
L 74.730598 156.146733 
L 76.134397 152.451894 
L 77.538719 139.750716 
L 78.943041 148.969896 
L 80.348407 163.916468 
L 81.752729 184.381009 
L 83.157051 191.236874 
L 84.562417 193.423123 
L 85.966739 193.677489 
L 87.372105 193.546705 
L 88.776427 192.458591 
L 90.182316 186.848937 
L 92.992004 167.466676 
L 94.397892 167.627923 
L 95.803258 173.675376 
L 97.209147 182.462472 
L 98.615036 188.420131 
L 100.020402 186.491729 
L 101.42629 176.029619 
L 102.831657 162.201785 
L 104.237545 152.105902 
L 105.643434 151.885296 
L 107.050367 160.01215 
L 108.456255 168.845945 
L 109.862144 174.966595 
L 111.269077 180.125276 
L 112.674966 186.436156 
L 114.082421 186.262346 
L 116.895242 175.82112 
L 118.302698 171.207821 
L 119.710153 154.926956 
L 121.117086 127.761825 
L 122.524541 116.067775 
L 123.931997 129.503858 
L 125.33893 158.5237 
L 126.746385 178.997734 
L 128.15384 185.768251 
L 129.560773 190.669096 
L 130.969795 190.303433 
L 132.377251 183.526693 
L 133.784706 163.351857 
L 135.193206 146.439889 
L 136.600661 139.078526 
L 138.009683 141.027778 
L 140.825638 154.327589 
L 142.23466 153.518952 
L 143.643682 145.342734 
L 145.052704 143.237021 
L 147.868659 177.301158 
L 149.277681 192.103835 
L 150.68827 195.146018 
L 152.09677 189.205239 
L 153.505792 176.944479 
L 154.914814 174.338177 
L 156.323836 180.203969 
L 157.733902 190.378865 
L 159.142924 195.106922 
L 160.553513 194.344831 
L 161.962535 192.646812 
L 163.373124 190.351405 
L 164.78319 182.414436 
L 166.192212 164.858667 
L 167.602801 150.502374 
L 169.01339 150.392056 
L 170.423979 158.152057 
L 171.834045 164.600481 
L 173.244634 163.447883 
L 174.655223 156.58233 
L 176.065812 157.147896 
L 177.4764 165.436278 
L 178.886467 178.903533 
L 180.297056 189.784543 
L 181.709211 193.555794 
L 183.1198 191.142785 
L 184.531955 198.786703 
L 185.942022 208.245446 
L 187.354177 216.404326 
L 188.764766 212.849546 
L 191.589077 190.707238 
L 193.001233 189.762091 
L 195.823455 197.177113 
L 198.647766 200.965445 
L 200.059921 202.455445 
L 201.473644 202.037951 
L 202.885799 204.065076 
L 204.297955 209.860008 
L 205.709588 211.907424 
L 208.535466 203.98796 
L 209.949188 204.104527 
L 211.361343 202.644366 
L 212.775066 200.99838 
L 214.187221 200.307233 
L 215.600943 199.281445 
L 217.014666 197.200701 
L 218.427866 192.001571 
L 219.841588 183.295344 
L 221.25531 175.822116 
L 222.669032 174.848619 
L 224.082755 174.270074 
L 225.496477 172.316441 
L 226.910199 168.847811 
L 228.323921 164.687179 
L 229.737644 165.441511 
L 232.566655 175.679202 
L 233.981944 175.768819 
L 235.395144 167.777678 
L 236.810433 166.1252 
L 238.224155 166.971454 
L 239.639444 167.302987 
L 241.054733 168.336147 
L 242.470022 164.651853 
L 243.883744 158.218069 
L 245.299033 156.908828 
L 246.714322 184.686479 
L 248.129611 186.834461 
L 249.5449 186.94957 
L 250.961756 185.078691 
L 253.792334 174.98031 
L 255.207623 173.335425 
L 256.624479 174.755212 
L 258.039768 173.663754 
L 259.456623 205.882051 
L 260.871912 204.710599 
L 262.288768 204.201359 
L 263.704057 205.608868 
L 265.120913 205.725781 
L 267.954624 204.112819 
L 269.37148 202.813104 
L 270.788336 201.772788 
L 272.205191 199.739903 
L 273.622047 199.103184 
L 275.038903 198.990701 
L 276.455759 198.013337 
L 280.707893 191.157207 
L 282.124748 186.133495 
L 284.960026 170.544393 
L 286.378449 154.422605 
L 287.796871 127.143713 
L 289.213727 60.597672 
L 289.59148 -1 
M 300.172115 -1 
L 300.561629 57.268851 
L 301.980052 119.896203 
L 303.398474 144.660441 
L 304.818463 159.861615 
L 306.236886 173.085438 
L 307.656875 182.554969 
L 309.075297 188.102514 
L 310.495287 190.833516 
L 311.913709 191.420907 
L 313.334221 189.841498 
L 314.75421 188.597543 
L 316.172632 190.440722 
L 317.592621 193.502467 
L 319.012611 195.66709 
L 320.4326 196.623374 
L 320.4326 196.623374 
" clip-path="url(#p2e6f8182bc)" style="fill: none; stroke: #1f77b4; stroke-width: 1.5; stroke-linecap: square"/>
    <defs>
     <path id="m1c5878e57a" d="M 0 1.5 
C 0.397805 1.5 0.77937 1.341951 1.06066 1.06066 
C 1.341951 0.77937 1.5 0.397805 1.5 0 
C 1.5 -0.397805 1.341951 -0.77937 1.06066 -1.06066 
C 0.77937 -1.341951 0.397805 -1.5 0 -1.5 
C -0.397805 -1.5 -0.77937 -1.341951 -1.06066 -1.06066 
C -1.341951 -0.77937 -1.5 -0.397805 -1.5 0 
C -1.5 0.397805 -1.341951 0.77937 -1.06066 1.06066 
C -0.77937 1.341951 -0.397805 1.5 0 1.5 
z
" style="stroke: #1f77b4"/>
    </defs>
    <g clip-path="url(#p2e6f8182bc)">
     <use xlink:href="#m1c5878e57a" x="34.04809" y="190.919375" style="fill-opacity: 0; stroke: #1f77b4"/>
     <use xlink:href="#m1c5878e57a" x="35.450322" y="184.86702" style="fill-opacity: 0; stroke: #1f77b4"/>
     <use xlink:href="#m1c5878e57a" x="36.851511" y="180.399085" style="fill-opacity: 0; stroke: #1f77b4"/>
     <use xlink:href="#m1c5878e57a" x="38.253744" y="181.19854" style="fill-opacity: 0; stroke: #1f77b4"/>
     <use xlink:href="#m1c5878e57a" x="39.654932" y="185.43151" style="fill-opacity: 0; stroke: #1f77b4"/>
     <use xlink:href="#m1c5878e57a" x="41.057165" y="189.533859" style="fill-opacity: 0; stroke: #1f77b4"/>
     <use xlink:href="#m1c5878e57a" x="42.45992" y="192.386359" style="fill-opacity: 0; stroke: #1f77b4"/>
     <use xlink:href="#m1c5878e57a" x="43.860586" y="192.919945" style="fill-opacity: 0; stroke: #1f77b4"/>
     <use xlink:href="#m1c5878e57a" x="45.263341" y="189.436353" style="fill-opacity: 0; stroke: #1f77b4"/>
     <use xlink:href="#m1c5878e57a" x="46.665574" y="187.644396" style="fill-opacity: 0; stroke: #1f77b4"/>
     <use xlink:href="#m1c5878e57a" x="48.068329" y="189.217442" style="fill-opacity: 0; stroke: #1f77b4"/>
     <use xlink:href="#m1c5878e57a" x="49.471084" y="190.297134" style="fill-opacity: 0; stroke: #1f77b4"/>
     <use xlink:href="#m1c5878e57a" x="50.873317" y="192.071768" style="fill-opacity: 0; stroke: #1f77b4"/>
     <use xlink:href="#m1c5878e57a" x="52.276072" y="190.695822" style="fill-opacity: 0; stroke: #1f77b4"/>
     <use xlink:href="#m1c5878e57a" x="53.678305" y="186.808112" style="fill-opacity: 0; stroke: #1f77b4"/>
     <use xlink:href="#m1c5878e57a" x="55.08106" y="181.068965" style="fill-opacity: 0; stroke: #1f77b4"/>
     <use xlink:href="#m1c5878e57a" x="56.484859" y="177.976548" style="fill-opacity: 0; stroke: #1f77b4"/>
     <use xlink:href="#m1c5878e57a" x="57.887614" y="173.411306" style="fill-opacity: 0; stroke: #1f77b4"/>
     <use xlink:href="#m1c5878e57a" x="59.289847" y="174.201695" style="fill-opacity: 0; stroke: #1f77b4"/>
     <use xlink:href="#m1c5878e57a" x="60.694169" y="179.887039" style="fill-opacity: 0; stroke: #1f77b4"/>
     <use xlink:href="#m1c5878e57a" x="62.096924" y="184.627151" style="fill-opacity: 0; stroke: #1f77b4"/>
     <use xlink:href="#m1c5878e57a" x="63.500723" y="191.255763" style="fill-opacity: 0; stroke: #1f77b4"/>
     <use xlink:href="#m1c5878e57a" x="64.903479" y="194.093303" style="fill-opacity: 0; stroke: #1f77b4"/>
     <use xlink:href="#m1c5878e57a" x="66.307278" y="192.11754" style="fill-opacity: 0; stroke: #1f77b4"/>
     <use xlink:href="#m1c5878e57a" x="67.7116" y="190.132722" style="fill-opacity: 0; stroke: #1f77b4"/>
     <use xlink:href="#m1c5878e57a" x="69.113833" y="187.788479" style="fill-opacity: 0; stroke: #1f77b4"/>
     <use xlink:href="#m1c5878e57a" x="70.518155" y="176.919968" style="fill-opacity: 0; stroke: #1f77b4"/>
     <use xlink:href="#m1c5878e57a" x="71.922476" y="160.106864" style="fill-opacity: 0; stroke: #1f77b4"/>
     <use xlink:href="#m1c5878e57a" x="73.326276" y="151.897567" style="fill-opacity: 0; stroke: #1f77b4"/>
     <use xlink:href="#m1c5878e57a" x="74.730598" y="156.146733" style="fill-opacity: 0; stroke: #1f77b4"/>
     <use xlink:href="#m1c5878e57a" x="76.134397" y="152.451894" style="fill-opacity: 0; stroke: #1f77b4"/>
     <use xlink:href="#m1c5878e57a" x="77.538719" y="139.750716" style="fill-opacity: 0; stroke: #1f77b4"/>
     <use xlink:href="#m1c5878e57a" x="78.943041" y="148.969896" style="fill-opacity: 0; stroke: #1f77b4"/>
     <use xlink:href="#m1c5878e57a" x="80.348407" y="163.916468" style="fill-opacity: 0; stroke: #1f77b4"/>
     <use xlink:href="#m1c5878e57a" x="81.752729" y="184.381009" style="fill-opacity: 0; stroke: #1f77b4"/>
     <use xlink:href="#m1c5878e57a" x="83.157051" y="191.236874" style="fill-opacity: 0; stroke: #1f77b4"/>
     <use xlink:href="#m1c5878e57a" x="84.562417" y="193.423123" style="fill-opacity: 0; stroke: #1f77b4"/>
     <use xlink:href="#m1c5878e57a" x="85.966739" y="193.677489" style="fill-opacity: 0; stroke: #1f77b4"/>
     <use xlink:href="#m1c5878e57a" x="87.372105" y="193.546705" style="fill-opacity: 0; stroke: #1f77b4"/>
     <use xlink:href="#m1c5878e57a" x="88.776427" y="192.458591" style="fill-opacity: 0; stroke: #1f77b4"/>
     <use xlink:href="#m1c5878e57a" x="90.182316" y="186.848937" style="fill-opacity: 0; stroke: #1f77b4"/>
     <use xlink:href="#m1c5878e57a" x="91.586115" y="177.006425" style="fill-opacity: 0; stroke: #1f77b4"/>
     <use xlink:href="#m1c5878e57a" x="92.992004" y="167.466676" style="fill-opacity: 0; stroke: #1f77b4"/>
     <use xlink:href="#m1c5878e57a" x="94.397892" y="167.627923" style="fill-opacity: 0; stroke: #1f77b4"/>
     <use xlink:href="#m1c5878e57a" x="95.803258" y="173.675376" style="fill-opacity: 0; stroke: #1f77b4"/>
     <use xlink:href="#m1c5878e57a" x="97.209147" y="182.462472" style="fill-opacity: 0; stroke: #1f77b4"/>
     <use xlink:href="#m1c5878e57a" x="98.615036" y="188.420131" style="fill-opacity: 0; stroke: #1f77b4"/>
     <use xlink:href="#m1c5878e57a" x="100.020402" y="186.491729" style="fill-opacity: 0; stroke: #1f77b4"/>
     <use xlink:href="#m1c5878e57a" x="101.42629" y="176.029619" style="fill-opacity: 0; stroke: #1f77b4"/>
     <use xlink:href="#m1c5878e57a" x="102.831657" y="162.201785" style="fill-opacity: 0; stroke: #1f77b4"/>
     <use xlink:href="#m1c5878e57a" x="104.237545" y="152.105902" style="fill-opacity: 0; stroke: #1f77b4"/>
     <use xlink:href="#m1c5878e57a" x="105.643434" y="151.885296" style="fill-opacity: 0; stroke: #1f77b4"/>
     <use xlink:href="#m1c5878e57a" x="107.050367" y="160.01215" style="fill-opacity: 0; stroke: #1f77b4"/>
     <use xlink:href="#m1c5878e57a" x="108.456255" y="168.845945" style="fill-opacity: 0; stroke: #1f77b4"/>
     <use xlink:href="#m1c5878e57a" x="109.862144" y="174.966595" style="fill-opacity: 0; stroke: #1f77b4"/>
     <use xlink:href="#m1c5878e57a" x="111.269077" y="180.125276" style="fill-opacity: 0; stroke: #1f77b4"/>
     <use xlink:href="#m1c5878e57a" x="112.674966" y="186.436156" style="fill-opacity: 0; stroke: #1f77b4"/>
     <use xlink:href="#m1c5878e57a" x="114.082421" y="186.262346" style="fill-opacity: 0; stroke: #1f77b4"/>
     <use xlink:href="#m1c5878e57a" x="115.489876" y="180.924692" style="fill-opacity: 0; stroke: #1f77b4"/>
     <use xlink:href="#m1c5878e57a" x="116.895242" y="175.82112" style="fill-opacity: 0; stroke: #1f77b4"/>
     <use xlink:href="#m1c5878e57a" x="118.302698" y="171.207821" style="fill-opacity: 0; stroke: #1f77b4"/>
     <use xlink:href="#m1c5878e57a" x="119.710153" y="154.926956" style="fill-opacity: 0; stroke: #1f77b4"/>
     <use xlink:href="#m1c5878e57a" x="121.117086" y="127.761825" style="fill-opacity: 0; stroke: #1f77b4"/>
     <use xlink:href="#m1c5878e57a" x="122.524541" y="116.067775" style="fill-opacity: 0; stroke: #1f77b4"/>
     <use xlink:href="#m1c5878e57a" x="123.931997" y="129.503858" style="fill-opacity: 0; stroke: #1f77b4"/>
     <use xlink:href="#m1c5878e57a" x="125.33893" y="158.5237" style="fill-opacity: 0; stroke: #1f77b4"/>
     <use xlink:href="#m1c5878e57a" x="126.746385" y="178.997734" style="fill-opacity: 0; stroke: #1f77b4"/>
     <use xlink:href="#m1c5878e57a" x="128.15384" y="185.768251" style="fill-opacity: 0; stroke: #1f77b4"/>
     <use xlink:href="#m1c5878e57a" x="129.560773" y="190.669096" style="fill-opacity: 0; stroke: #1f77b4"/>
     <use xlink:href="#m1c5878e57a" x="130.969795" y="190.303433" style="fill-opacity: 0; stroke: #1f77b4"/>
     <use xlink:href="#m1c5878e57a" x="132.377251" y="183.526693" style="fill-opacity: 0; stroke: #1f77b4"/>
     <use xlink:href="#m1c5878e57a" x="133.784706" y="163.351857" style="fill-opacity: 0; stroke: #1f77b4"/>
     <use xlink:href="#m1c5878e57a" x="135.193206" y="146.439889" style="fill-opacity: 0; stroke: #1f77b4"/>
     <use xlink:href="#m1c5878e57a" x="136.600661" y="139.078526" style="fill-opacity: 0; stroke: #1f77b4"/>
     <use xlink:href="#m1c5878e57a" x="138.009683" y="141.027778" style="fill-opacity: 0; stroke: #1f77b4"/>
     <use xlink:href="#m1c5878e57a" x="139.418705" y="147.530122" style="fill-opacity: 0; stroke: #1f77b4"/>
     <use xlink:href="#m1c5878e57a" x="140.825638" y="154.327589" style="fill-opacity: 0; stroke: #1f77b4"/>
     <use xlink:href="#m1c5878e57a" x="142.23466" y="153.518952" style="fill-opacity: 0; stroke: #1f77b4"/>
     <use xlink:href="#m1c5878e57a" x="143.643682" y="145.342734" style="fill-opacity: 0; stroke: #1f77b4"/>
     <use xlink:href="#m1c5878e57a" x="145.052704" y="143.237021" style="fill-opacity: 0; stroke: #1f77b4"/>
     <use xlink:href="#m1c5878e57a" x="146.461204" y="160.287468" style="fill-opacity: 0; stroke: #1f77b4"/>
     <use xlink:href="#m1c5878e57a" x="147.868659" y="177.301158" style="fill-opacity: 0; stroke: #1f77b4"/>
     <use xlink:href="#m1c5878e57a" x="149.277681" y="192.103835" style="fill-opacity: 0; stroke: #1f77b4"/>
     <use xlink:href="#m1c5878e57a" x="150.68827" y="195.146018" style="fill-opacity: 0; stroke: #1f77b4"/>
     <use xlink:href="#m1c5878e57a" x="152.09677" y="189.205239" style="fill-opacity: 0; stroke: #1f77b4"/>
     <use xlink:href="#m1c5878e57a" x="153.505792" y="176.944479" style="fill-opacity: 0; stroke: #1f77b4"/>
     <use xlink:href="#m1c5878e57a" x="154.914814" y="174.338177" style="fill-opacity: 0; stroke: #1f77b4"/>
     <use xlink:href="#m1c5878e57a" x="156.323836" y="180.203969" style="fill-opacity: 0; stroke: #1f77b4"/>
     <use xlink:href="#m1c5878e57a" x="157.733902" y="190.378865" style="fill-opacity: 0; stroke: #1f77b4"/>
     <use xlink:href="#m1c5878e57a" x="159.142924" y="195.106922" style="fill-opacity: 0; stroke: #1f77b4"/>
     <use xlink:href="#m1c5878e57a" x="160.553513" y="194.344831" style="fill-opacity: 0; stroke: #1f77b4"/>
     <use xlink:href="#m1c5878e57a" x="161.962535" y="192.646812" style="fill-opacity: 0; stroke: #1f77b4"/>
     <use xlink:href="#m1c5878e57a" x="163.373124" y="190.351405" style="fill-opacity: 0; stroke: #1f77b4"/>
     <use xlink:href="#m1c5878e57a" x="164.78319" y="182.414436" style="fill-opacity: 0; stroke: #1f77b4"/>
     <use xlink:href="#m1c5878e57a" x="166.192212" y="164.858667" style="fill-opacity: 0; stroke: #1f77b4"/>
     <use xlink:href="#m1c5878e57a" x="167.602801" y="150.502374" style="fill-opacity: 0; stroke: #1f77b4"/>
     <use xlink:href="#m1c5878e57a" x="169.01339" y="150.392056" style="fill-opacity: 0; stroke: #1f77b4"/>
     <use xlink:href="#m1c5878e57a" x="170.423979" y="158.152057" style="fill-opacity: 0; stroke: #1f77b4"/>
     <use xlink:href="#m1c5878e57a" x="171.834045" y="164.600481" style="fill-opacity: 0; stroke: #1f77b4"/>
     <use xlink:href="#m1c5878e57a" x="173.244634" y="163.447883" style="fill-opacity: 0; stroke: #1f77b4"/>
     <use xlink:href="#m1c5878e57a" x="174.655223" y="156.58233" style="fill-opacity: 0; stroke: #1f77b4"/>
     <use xlink:href="#m1c5878e57a" x="176.065812" y="157.147896" style="fill-opacity: 0; stroke: #1f77b4"/>
     <use xlink:href="#m1c5878e57a" x="177.4764" y="165.436278" style="fill-opacity: 0; stroke: #1f77b4"/>
     <use xlink:href="#m1c5878e57a" x="178.886467" y="178.903533" style="fill-opacity: 0; stroke: #1f77b4"/>
     <use xlink:href="#m1c5878e57a" x="180.297056" y="189.784543" style="fill-opacity: 0; stroke: #1f77b4"/>
     <use xlink:href="#m1c5878e57a" x="181.709211" y="193.555794" style="fill-opacity: 0; stroke: #1f77b4"/>
     <use xlink:href="#m1c5878e57a" x="183.1198" y="191.142785" style="fill-opacity: 0; stroke: #1f77b4"/>
     <use xlink:href="#m1c5878e57a" x="184.531955" y="198.786703" style="fill-opacity: 0; stroke: #1f77b4"/>
     <use xlink:href="#m1c5878e57a" x="185.942022" y="208.245446" style="fill-opacity: 0; stroke: #1f77b4"/>
     <use xlink:href="#m1c5878e57a" x="187.354177" y="216.404326" style="fill-opacity: 0; stroke: #1f77b4"/>
     <use xlink:href="#m1c5878e57a" x="188.764766" y="212.849546" style="fill-opacity: 0; stroke: #1f77b4"/>
     <use xlink:href="#m1c5878e57a" x="190.176922" y="202.17419" style="fill-opacity: 0; stroke: #1f77b4"/>
     <use xlink:href="#m1c5878e57a" x="191.589077" y="190.707238" style="fill-opacity: 0; stroke: #1f77b4"/>
     <use xlink:href="#m1c5878e57a" x="193.001233" y="189.762091" style="fill-opacity: 0; stroke: #1f77b4"/>
     <use xlink:href="#m1c5878e57a" x="194.411821" y="193.337831" style="fill-opacity: 0; stroke: #1f77b4"/>
     <use xlink:href="#m1c5878e57a" x="195.823455" y="197.177113" style="fill-opacity: 0; stroke: #1f77b4"/>
     <use xlink:href="#m1c5878e57a" x="197.23561" y="199.061599" style="fill-opacity: 0; stroke: #1f77b4"/>
     <use xlink:href="#m1c5878e57a" x="198.647766" y="200.965445" style="fill-opacity: 0; stroke: #1f77b4"/>
     <use xlink:href="#m1c5878e57a" x="200.059921" y="202.455445" style="fill-opacity: 0; stroke: #1f77b4"/>
     <use xlink:href="#m1c5878e57a" x="201.473644" y="202.037951" style="fill-opacity: 0; stroke: #1f77b4"/>
     <use xlink:href="#m1c5878e57a" x="202.885799" y="204.065076" style="fill-opacity: 0; stroke: #1f77b4"/>
     <use xlink:href="#m1c5878e57a" x="204.297955" y="209.860008" style="fill-opacity: 0; stroke: #1f77b4"/>
     <use xlink:href="#m1c5878e57a" x="205.709588" y="211.907424" style="fill-opacity: 0; stroke: #1f77b4"/>
     <use xlink:href="#m1c5878e57a" x="207.12331" y="208.098056" style="fill-opacity: 0; stroke: #1f77b4"/>
     <use xlink:href="#m1c5878e57a" x="208.535466" y="203.98796" style="fill-opacity: 0; stroke: #1f77b4"/>
     <use xlink:href="#m1c5878e57a" x="209.949188" y="204.104527" style="fill-opacity: 0; stroke: #1f77b4"/>
     <use xlink:href="#m1c5878e57a" x="211.361343" y="202.644366" style="fill-opacity: 0; stroke: #1f77b4"/>
     <use xlink:href="#m1c5878e57a" x="212.775066" y="200.99838" style="fill-opacity: 0; stroke: #1f77b4"/>
     <use xlink:href="#m1c5878e57a" x="214.187221" y="200.307233" style="fill-opacity: 0; stroke: #1f77b4"/>
     <use xlink:href="#m1c5878e57a" x="215.600943" y="199.281445" style="fill-opacity: 0; stroke: #1f77b4"/>
     <use xlink:href="#m1c5878e57a" x="217.014666" y="197.200701" style="fill-opacity: 0; stroke: #1f77b4"/>
     <use xlink:href="#m1c5878e57a" x="218.427866" y="192.001571" style="fill-opacity: 0; stroke: #1f77b4"/>
     <use xlink:href="#m1c5878e57a" x="219.841588" y="183.295344" style="fill-opacity: 0; stroke: #1f77b4"/>
     <use xlink:href="#m1c5878e57a" x="221.25531" y="175.822116" style="fill-opacity: 0; stroke: #1f77b4"/>
     <use xlink:href="#m1c5878e57a" x="222.669032" y="174.848619" style="fill-opacity: 0; stroke: #1f77b4"/>
     <use xlink:href="#m1c5878e57a" x="224.082755" y="174.270074" style="fill-opacity: 0; stroke: #1f77b4"/>
     <use xlink:href="#m1c5878e57a" x="225.496477" y="172.316441" style="fill-opacity: 0; stroke: #1f77b4"/>
     <use xlink:href="#m1c5878e57a" x="226.910199" y="168.847811" style="fill-opacity: 0; stroke: #1f77b4"/>
     <use xlink:href="#m1c5878e57a" x="228.323921" y="164.687179" style="fill-opacity: 0; stroke: #1f77b4"/>
     <use xlink:href="#m1c5878e57a" x="229.737644" y="165.441511" style="fill-opacity: 0; stroke: #1f77b4"/>
     <use xlink:href="#m1c5878e57a" x="231.152933" y="170.674006" style="fill-opacity: 0; stroke: #1f77b4"/>
     <use xlink:href="#m1c5878e57a" x="232.566655" y="175.679202" style="fill-opacity: 0; stroke: #1f77b4"/>
     <use xlink:href="#m1c5878e57a" x="233.981944" y="175.768819" style="fill-opacity: 0; stroke: #1f77b4"/>
     <use xlink:href="#m1c5878e57a" x="235.395144" y="167.777678" style="fill-opacity: 0; stroke: #1f77b4"/>
     <use xlink:href="#m1c5878e57a" x="236.810433" y="166.1252" style="fill-opacity: 0; stroke: #1f77b4"/>
     <use xlink:href="#m1c5878e57a" x="238.224155" y="166.971454" style="fill-opacity: 0; stroke: #1f77b4"/>
     <use xlink:href="#m1c5878e57a" x="239.639444" y="167.302987" style="fill-opacity: 0; stroke: #1f77b4"/>
     <use xlink:href="#m1c5878e57a" x="241.054733" y="168.336147" style="fill-opacity: 0; stroke: #1f77b4"/>
     <use xlink:href="#m1c5878e57a" x="242.470022" y="164.651853" style="fill-opacity: 0; stroke: #1f77b4"/>
     <use xlink:href="#m1c5878e57a" x="243.883744" y="158.218069" style="fill-opacity: 0; stroke: #1f77b4"/>
     <use xlink:href="#m1c5878e57a" x="245.299033" y="156.908828" style="fill-opacity: 0; stroke: #1f77b4"/>
     <use xlink:href="#m1c5878e57a" x="246.714322" y="184.686479" style="fill-opacity: 0; stroke: #1f77b4"/>
     <use xlink:href="#m1c5878e57a" x="248.129611" y="186.834461" style="fill-opacity: 0; stroke: #1f77b4"/>
     <use xlink:href="#m1c5878e57a" x="249.5449" y="186.94957" style="fill-opacity: 0; stroke: #1f77b4"/>
     <use xlink:href="#m1c5878e57a" x="250.961756" y="185.078691" style="fill-opacity: 0; stroke: #1f77b4"/>
     <use xlink:href="#m1c5878e57a" x="252.377045" y="179.979842" style="fill-opacity: 0; stroke: #1f77b4"/>
     <use xlink:href="#m1c5878e57a" x="253.792334" y="174.98031" style="fill-opacity: 0; stroke: #1f77b4"/>
     <use xlink:href="#m1c5878e57a" x="255.207623" y="173.335425" style="fill-opacity: 0; stroke: #1f77b4"/>
     <use xlink:href="#m1c5878e57a" x="256.624479" y="174.755212" style="fill-opacity: 0; stroke: #1f77b4"/>
     <use xlink:href="#m1c5878e57a" x="258.039768" y="173.663754" style="fill-opacity: 0; stroke: #1f77b4"/>
     <use xlink:href="#m1c5878e57a" x="259.456623" y="205.882051" style="fill-opacity: 0; stroke: #1f77b4"/>
     <use xlink:href="#m1c5878e57a" x="260.871912" y="204.710599" style="fill-opacity: 0; stroke: #1f77b4"/>
     <use xlink:href="#m1c5878e57a" x="262.288768" y="204.201359" style="fill-opacity: 0; stroke: #1f77b4"/>
     <use xlink:href="#m1c5878e57a" x="263.704057" y="205.608868" style="fill-opacity: 0; stroke: #1f77b4"/>
     <use xlink:href="#m1c5878e57a" x="265.120913" y="205.725781" style="fill-opacity: 0; stroke: #1f77b4"/>
     <use xlink:href="#m1c5878e57a" x="266.537769" y="204.8724" style="fill-opacity: 0; stroke: #1f77b4"/>
     <use xlink:href="#m1c5878e57a" x="267.954624" y="204.112819" style="fill-opacity: 0; stroke: #1f77b4"/>
     <use xlink:href="#m1c5878e57a" x="269.37148" y="202.813104" style="fill-opacity: 0; stroke: #1f77b4"/>
     <use xlink:href="#m1c5878e57a" x="270.788336" y="201.772788" style="fill-opacity: 0; stroke: #1f77b4"/>
     <use xlink:href="#m1c5878e57a" x="272.205191" y="199.739903" style="fill-opacity: 0; stroke: #1f77b4"/>
     <use xlink:href="#m1c5878e57a" x="273.622047" y="199.103184" style="fill-opacity: 0; stroke: #1f77b4"/>
     <use xlink:href="#m1c5878e57a" x="275.038903" y="198.990701" style="fill-opacity: 0; stroke: #1f77b4"/>
     <use xlink:href="#m1c5878e57a" x="276.455759" y="198.013337" style="fill-opacity: 0; stroke: #1f77b4"/>
     <use xlink:href="#m1c5878e57a" x="277.872614" y="195.711028" style="fill-opacity: 0; stroke: #1f77b4"/>
     <use xlink:href="#m1c5878e57a" x="279.291037" y="193.352023" style="fill-opacity: 0; stroke: #1f77b4"/>
     <use xlink:href="#m1c5878e57a" x="280.707893" y="191.157207" style="fill-opacity: 0; stroke: #1f77b4"/>
     <use xlink:href="#m1c5878e57a" x="282.124748" y="186.133495" style="fill-opacity: 0; stroke: #1f77b4"/>
     <use xlink:href="#m1c5878e57a" x="283.543171" y="178.139825" style="fill-opacity: 0; stroke: #1f77b4"/>
     <use xlink:href="#m1c5878e57a" x="284.960026" y="170.544393" style="fill-opacity: 0; stroke: #1f77b4"/>
     <use xlink:href="#m1c5878e57a" x="286.378449" y="154.422605" style="fill-opacity: 0; stroke: #1f77b4"/>
     <use xlink:href="#m1c5878e57a" x="287.796871" y="127.143713" style="fill-opacity: 0; stroke: #1f77b4"/>
     <use xlink:href="#m1c5878e57a" x="289.213727" y="60.597672" style="fill-opacity: 0; stroke: #1f77b4"/>
     <use xlink:href="#m1c5878e57a" x="289.59148" y="-1" style="fill-opacity: 0; stroke: #1f77b4"/>
     <use xlink:href="#m1c5878e57a" x="300.172115" y="-1" style="fill-opacity: 0; stroke: #1f77b4"/>
     <use xlink:href="#m1c5878e57a" x="300.561629" y="57.268851" style="fill-opacity: 0; stroke: #1f77b4"/>
     <use xlink:href="#m1c5878e57a" x="301.980052" y="119.896203" style="fill-opacity: 0; stroke: #1f77b4"/>
     <use xlink:href="#m1c5878e57a" x="303.398474" y="144.660441" style="fill-opacity: 0; stroke: #1f77b4"/>
     <use xlink:href="#m1c5878e57a" x="304.818463" y="159.861615" style="fill-opacity: 0; stroke: #1f77b4"/>
     <use xlink:href="#m1c5878e57a" x="306.236886" y="173.085438" style="fill-opacity: 0; stroke: #1f77b4"/>
     <use xlink:href="#m1c5878e57a" x="307.656875" y="182.554969" style="fill-opacity: 0; stroke: #1f77b4"/>
     <use xlink:href="#m1c5878e57a" x="309.075297" y="188.102514" style="fill-opacity: 0; stroke: #1f77b4"/>
     <use xlink:href="#m1c5878e57a" x="310.495287" y="190.833516" style="fill-opacity: 0; stroke: #1f77b4"/>
     <use xlink:href="#m1c5878e57a" x="311.913709" y="191.420907" style="fill-opacity: 0; stroke: #1f77b4"/>
     <use xlink:href="#m1c5878e57a" x="313.334221" y="189.841498" style="fill-opacity: 0; stroke: #1f77b4"/>
     <use xlink:href="#m1c5878e57a" x="314.75421" y="188.597543" style="fill-opacity: 0; stroke: #1f77b4"/>
     <use xlink:href="#m1c5878e57a" x="316.172632" y="190.440722" style="fill-opacity: 0; stroke: #1f77b4"/>
     <use xlink:href="#m1c5878e57a" x="317.592621" y="193.502467" style="fill-opacity: 0; stroke: #1f77b4"/>
     <use xlink:href="#m1c5878e57a" x="319.012611" y="195.66709" style="fill-opacity: 0; stroke: #1f77b4"/>
     <use xlink:href="#m1c5878e57a" x="320.4326" y="196.623374" style="fill-opacity: 0; stroke: #1f77b4"/>
    </g>
   </g>
   <g id="line2d_2">
    <path d="M 34.04809 214.746155 
L 41.057165 214.238738 
L 46.665574 213.584251 
L 50.873317 212.812197 
L 53.678305 212.057361 
L 56.484859 210.973073 
L 57.887614 210.241324 
L 59.289847 209.325083 
L 60.694169 208.153291 
L 62.096924 206.626049 
L 63.500723 204.584088 
L 64.903479 201.78877 
L 66.307278 197.863197 
L 67.7116 192.259932 
L 69.113833 184.336456 
L 71.922476 162.595291 
L 73.326276 155.252481 
L 74.730598 153.577656 
L 76.134397 150.995889 
L 77.538719 142.711305 
L 78.943041 145.703801 
L 80.348407 165.705982 
L 81.752729 181.481963 
L 83.157051 190.060214 
L 84.562417 194.334659 
L 85.966739 195.996273 
L 87.372105 195.631865 
L 88.776427 193.058933 
L 90.182316 187.354711 
L 92.992004 166.837038 
L 94.397892 167.331853 
L 95.803258 176.291511 
L 97.209147 182.439983 
L 98.615036 183.754062 
L 100.020402 181.06301 
L 101.42629 174.834865 
L 104.237545 156.208333 
L 105.643434 151.893437 
L 107.050367 156.300998 
L 109.862144 175.352431 
L 111.269077 182.21852 
L 112.674966 186.265799 
L 114.082421 187.735706 
L 115.489876 186.575335 
L 116.895242 182.086116 
L 118.302698 172.432179 
L 119.710153 154.444828 
L 121.117086 128.096133 
L 122.524541 114.158482 
L 123.931997 132.945755 
L 125.33893 158.245178 
L 126.746385 174.181916 
L 128.15384 182.225199 
L 129.560773 185.181321 
L 130.969795 184.261295 
L 132.377251 179.301823 
L 133.784706 169.060728 
L 136.600661 136.935807 
L 138.009683 137.21859 
L 139.418705 149.855121 
L 140.825638 157.801462 
L 142.23466 154.581868 
L 143.643682 143.13865 
L 145.052704 143.383111 
L 146.461204 161.631399 
L 147.868659 177.7103 
L 149.277681 186.540497 
L 150.68827 190.024036 
L 152.09677 188.782474 
L 153.505792 181.247391 
L 154.914814 172.331574 
L 156.323836 180.635542 
L 157.733902 190.614976 
L 159.142924 194.765805 
L 160.553513 195.498487 
L 161.962535 193.93048 
L 163.373124 189.855126 
L 164.78319 181.820884 
L 166.192212 167.248 
L 167.602801 150.006934 
L 169.01339 150.46914 
L 170.423979 159.484826 
L 171.834045 161.899213 
L 173.244634 159.965664 
L 174.655223 158.576125 
L 176.065812 161.116257 
L 177.4764 167.594449 
L 180.297056 183.055276 
L 181.709211 189.098243 
L 183.1198 193.703963 
L 184.531955 197.141432 
L 185.942022 199.6844 
L 187.354177 201.570366 
L 188.764766 202.963767 
L 190.176922 203.988807 
L 191.589077 204.728996 
L 193.001233 205.244121 
L 194.411821 205.575673 
L 195.823455 205.753241 
L 197.23561 205.796047 
L 198.647766 205.71654 
L 200.059921 205.521793 
L 201.473644 205.214021 
L 202.885799 204.792693 
L 204.297955 204.252858 
L 205.709588 203.586817 
L 207.12331 202.781884 
L 208.535466 201.825547 
L 209.949188 200.697832 
L 211.361343 199.380199 
L 212.775066 197.845817 
L 214.187221 196.072317 
L 215.600943 194.029947 
L 217.014666 191.698135 
L 218.427866 189.064717 
L 219.841588 186.132669 
L 222.669032 179.563545 
L 225.496477 172.906979 
L 226.910199 170.097623 
L 228.323921 167.997577 
L 229.737644 166.826439 
L 231.152933 166.674263 
L 232.566655 167.454226 
L 233.981944 168.904029 
L 235.395144 170.614263 
L 236.810433 172.068384 
L 238.224155 172.596916 
L 239.639444 171.294078 
L 241.054733 167.097671 
L 242.470022 160.502042 
L 243.883744 158.012102 
L 245.299033 165.397713 
L 246.714322 175.563571 
L 248.129611 182.678106 
L 249.5449 186.293028 
L 250.961756 186.759993 
L 252.377045 183.69836 
L 255.207623 169.824406 
L 256.624479 173.985013 
L 258.039768 185.038369 
L 259.456623 193.768554 
L 260.871912 199.218344 
L 262.288768 202.641326 
L 263.704057 204.915131 
L 265.120913 206.524928 
L 266.537769 207.724525 
L 267.954624 208.657003 
L 269.37148 209.40639 
L 272.205191 210.545397 
L 275.038903 211.378569 
L 279.291037 212.288484 
L 283.543171 212.946776 
L 289.213727 213.586389 
L 296.306362 214.150524 
L 306.236886 214.682713 
L 319.012611 215.12092 
L 320.4326 215.15857 
L 320.4326 215.15857 
" clip-path="url(#p2e6f8182bc)" style="fill: none; stroke: #ff0000; stroke-width: 1.5; stroke-linecap: square"/>
   </g>
   <g id="line2d_3">
    <path d="M 294.887417 216.404326 
L 294.887417 17.735865 
" clip-path="url(#p2e6f8182bc)" style="fill: none; stroke-dasharray: 3.7,1.6; stroke-dashoffset: 0; stroke: #808080"/>
   </g>
   <g id="patch_3">
    <path d="M 33.763987 216.404326 
L 33.763987 17.735865 
" style="fill: none; stroke: #000000; stroke-linejoin: miter; stroke-linecap: square"/>
   </g>
   <g id="patch_4">
    <path d="M 320.99976 216.404326 
L 320.99976 17.735865 
" style="fill: none; stroke: #000000; stroke-linejoin: miter; stroke-linecap: square"/>
   </g>
   <g id="patch_5">
    <path d="M 33.763987 216.404326 
L 320.99976 216.404326 
" style="fill: none; stroke: #000000; stroke-linejoin: miter; stroke-linecap: square"/>
   </g>
   <g id="patch_6">
    <path d="M 33.763987 17.735865 
L 320.99976 17.735865 
" style="fill: none; stroke: #000000; stroke-linejoin: miter; stroke-linecap: square"/>
   </g>
   <g id="matplotlib.axis_1">
    <g id="xtick_1">
     <g id="line2d_4">
      <defs>
       <path id="m76050e5d26" d="M 0 0 
L 0 3.75 
" style="stroke: #000000; stroke-width: 1.25"/>
      </defs>
      <g>
       <use xlink:href="#m76050e5d26" x="33.763987" y="216.404326" style="stroke: #000000; stroke-width: 1.25"/>
      </g>
     </g>
     <g id="text_1">
      <!-- $\mathdefault{429}$ -->
      <g transform="translate(24.578987 231.52792)">
       <text>
        <tspan style="font: 11px 'Arial'" x="0 6.117676 12.235352" y="-0.09375">429</tspan>
       </text>
      </g>
     </g>
    </g>
    <g id="xtick_2">
     <g id="line2d_5">
      <g>
       <use xlink:href="#m76050e5d26" x="85.988673" y="216.404326" style="stroke: #000000; stroke-width: 1.25"/>
      </g>
     </g>
     <g id="text_2">
      <!-- $\mathdefault{430}$ -->
      <g transform="translate(76.803673 231.52792)">
       <text>
        <tspan style="font: 11px 'Arial'" x="0 6.117676 12.235352" y="-0.09375">430</tspan>
       </text>
      </g>
     </g>
    </g>
    <g id="xtick_3">
     <g id="line2d_6">
      <g>
       <use xlink:href="#m76050e5d26" x="138.213359" y="216.404326" style="stroke: #000000; stroke-width: 1.25"/>
      </g>
     </g>
     <g id="text_3">
      <!-- $\mathdefault{431}$ -->
      <g transform="translate(129.028359 231.52792)">
       <text>
        <tspan style="font: 11px 'Arial'" x="0 6.117676 12.235352" y="-0.09375">431</tspan>
       </text>
      </g>
     </g>
    </g>
    <g id="xtick_4">
     <g id="line2d_7">
      <g>
       <use xlink:href="#m76050e5d26" x="190.438045" y="216.404326" style="stroke: #000000; stroke-width: 1.25"/>
      </g>
     </g>
     <g id="text_4">
      <!-- $\mathdefault{432}$ -->
      <g transform="translate(181.253045 231.52792)">
       <text>
        <tspan style="font: 11px 'Arial'" x="0 6.117676 12.235352" y="-0.09375">432</tspan>
       </text>
      </g>
     </g>
    </g>
    <g id="xtick_5">
     <g id="line2d_8">
      <g>
       <use xlink:href="#m76050e5d26" x="242.662731" y="216.404326" style="stroke: #000000; stroke-width: 1.25"/>
      </g>
     </g>
     <g id="text_5">
      <!-- $\mathdefault{433}$ -->
      <g transform="translate(233.477731 231.52792)">
       <text>
        <tspan style="font: 11px 'Arial'" x="0 6.117676 12.235352" y="-0.09375">433</tspan>
       </text>
      </g>
     </g>
    </g>
    <g id="xtick_6">
     <g id="line2d_9">
      <g>
       <use xlink:href="#m76050e5d26" x="294.887417" y="216.404326" style="stroke: #000000; stroke-width: 1.25"/>
      </g>
     </g>
     <g id="text_6">
      <!-- $\mathdefault{434}$ -->
      <g transform="translate(285.702417 231.52792)">
       <text>
        <tspan style="font: 11px 'Arial'" x="0 6.117676 12.235352" y="-0.09375">434</tspan>
       </text>
      </g>
     </g>
    </g>
    <g id="text_7">
     <!-- $\lambda$ {\sffamily (nm)} -->
     <g transform="translate(159.586736 246.411565) scale(0.12 -0.12)">
      <defs>
       <path id="StandardSymL-6c" d="M 480 3650 
C 525 4013 710 4224 998 4224 
C 1203 4224 1376 4064 1472 3778 
C 1517 3650 1574 3440 1632 3198 
L 154 19 
L 755 19 
L 1843 2301 
C 2048 1059 2150 607 2266 358 
C 2406 83 2611 -64 2848 -64 
C 3098 -64 3296 89 3405 371 
C 3475 543 3501 715 3507 1014 
L 3373 1014 
C 3322 683 3174 499 2944 499 
C 2752 499 2586 620 2483 843 
C 2400 1008 2355 1174 2266 1645 
L 2093 2466 
C 2086 2485 2080 2530 2067 2594 
C 1920 3415 1690 4192 1536 4422 
C 1395 4627 1203 4736 992 4736 
C 602 4736 397 4403 326 3650 
L 480 3650 
z
" transform="scale(0.015625)"/>
       <path id="NimbusSanL-Regu-28" d="M 1510 4672 
C 870 3833 467 2668 467 1663 
C 467 652 870 -513 1510 -1351 
L 1862 -1351 
C 1299 -436 986 639 986 1663 
C 986 2681 1299 3763 1862 4672 
L 1510 4672 
z
" transform="scale(0.015625)"/>
       <path id="NimbusSanL-Regu-6e" d="M 448 3328 
L 448 0 
L 986 0 
L 986 1835 
C 986 2539 1344 2988 1894 2988 
C 2317 2988 2586 2732 2586 2328 
L 2586 0 
L 3117 0 
L 3117 2539 
C 3117 3097 2701 3456 2054 3456 
C 1555 3456 1235 3263 941 2796 
L 941 3328 
L 448 3328 
z
" transform="scale(0.015625)"/>
       <path id="NimbusSanL-Regu-6d" d="M 448 3328 
L 448 0 
L 986 0 
L 986 2089 
C 986 2597 1338 2988 1773 2988 
C 2170 2988 2394 2744 2394 2315 
L 2394 0 
L 2931 0 
L 2931 2109 
C 2931 2597 3283 2988 3718 2988 
C 4109 2988 4339 2738 4339 2315 
L 4339 0 
L 4877 0 
L 4877 2520 
C 4877 3123 4531 3456 3904 3456 
C 3456 3456 3187 3321 2874 2943 
C 2675 3302 2406 3456 1971 3456 
C 1523 3456 1229 3289 941 2886 
L 941 3328 
L 448 3328 
z
" transform="scale(0.015625)"/>
       <path id="NimbusSanL-Regu-29" d="M 595 -1351 
C 1235 -513 1638 652 1638 1657 
C 1638 2668 1235 3833 595 4672 
L 243 4672 
C 806 3756 1120 2681 1120 1657 
C 1120 639 806 -442 243 -1351 
L 595 -1351 
z
" transform="scale(0.015625)"/>
      </defs>
      <use xlink:href="#StandardSymL-6c" transform="scale(0.996264)"/>
      <use xlink:href="#NimbusSanL-Regu-28" transform="translate(91.855235 0) scale(0.996264)"/>
      <use xlink:href="#NimbusSanL-Regu-6e" transform="translate(125.030464 0) scale(0.996264)"/>
      <use xlink:href="#NimbusSanL-Regu-6d" transform="translate(180.422141 0) scale(0.996264)"/>
      <use xlink:href="#NimbusSanL-Regu-29" transform="translate(263.410572 0) scale(0.996264)"/>
     </g>
    </g>
   </g>
   <g id="matplotlib.axis_2">
    <g id="ytick_1">
     <g id="line2d_10">
      <defs>
       <path id="me7191402be" d="M 0 0 
L -3.75 0 
" style="stroke: #000000; stroke-width: 1.25"/>
      </defs>
      <g>
       <use xlink:href="#me7191402be" x="33.763987" y="216.404326" style="stroke: #000000; stroke-width: 1.25"/>
      </g>
     </g>
     <g id="text_8">
      <!-- $\mathdefault{0}$ -->
      <g transform="translate(20.353987 220.341123)">
       <text>
        <tspan style="font: 11px 'Arial'" x="0" y="-0.09375">0</tspan>
       </text>
      </g>
     </g>
    </g>
    <g id="ytick_2">
     <g id="line2d_11">
      <g>
       <use xlink:href="#me7191402be" x="33.763987" y="179.493752" style="stroke: #000000; stroke-width: 1.25"/>
      </g>
     </g>
     <g id="text_9">
      <!-- $\mathdefault{1}$ -->
      <g transform="translate(20.353987 183.430549)">
       <text>
        <tspan style="font: 11px 'Arial'" x="0" y="-0.09375">1</tspan>
       </text>
      </g>
     </g>
    </g>
    <g id="ytick_3">
     <g id="line2d_12">
      <g>
       <use xlink:href="#me7191402be" x="33.763987" y="142.583177" style="stroke: #000000; stroke-width: 1.25"/>
      </g>
     </g>
     <g id="text_10">
      <!-- $\mathdefault{2}$ -->
      <g transform="translate(20.353987 146.519974)">
       <text>
        <tspan style="font: 11px 'Arial'" x="0" y="-0.09375">2</tspan>
       </text>
      </g>
     </g>
    </g>
    <g id="ytick_4">
     <g id="line2d_13">
      <g>
       <use xlink:href="#me7191402be" x="33.763987" y="105.672603" style="stroke: #000000; stroke-width: 1.25"/>
      </g>
     </g>
     <g id="text_11">
      <!-- $\mathdefault{3}$ -->
      <g transform="translate(20.353987 109.6094)">
       <text>
        <tspan style="font: 11px 'Arial'" x="0" y="-0.09375">3</tspan>
       </text>
      </g>
     </g>
    </g>
    <g id="ytick_5">
     <g id="line2d_14">
      <g>
       <use xlink:href="#me7191402be" x="33.763987" y="68.762029" style="stroke: #000000; stroke-width: 1.25"/>
      </g>
     </g>
     <g id="text_12">
      <!-- $\mathdefault{4}$ -->
      <g transform="translate(20.353987 72.698826)">
       <text>
        <tspan style="font: 11px 'Arial'" x="0" y="-0.125">4</tspan>
       </text>
      </g>
     </g>
    </g>
    <g id="ytick_6">
     <g id="line2d_15">
      <g>
       <use xlink:href="#me7191402be" x="33.763987" y="31.851455" style="stroke: #000000; stroke-width: 1.25"/>
      </g>
     </g>
     <g id="text_13">
      <!-- $\mathdefault{5}$ -->
      <g transform="translate(20.353987 35.788252)">
       <text>
        <tspan style="font: 11px 'Arial'" x="0" y="-0.234375">5</tspan>
       </text>
      </g>
     </g>
    </g>
    <g id="text_14">
     <!-- $B_{\lambda}$ {\sffamily (photons/cm\textsuperscript{2}/s/nm)} -->
     <g transform="translate(13.728305 177.714049) rotate(-90) scale(0.12 -0.12)">
      <defs>
       <path id="NimbusRomNo9L-ReguItal-42" d="M -51 0 
L 1754 0 
C 2758 0 3450 523 3450 1274 
C 3450 1510 3373 1732 3232 1872 
C 3104 2019 2976 2095 2643 2235 
C 3098 2344 3283 2420 3488 2598 
C 3667 2751 3763 2968 3763 3222 
C 3763 3827 3309 4160 2483 4160 
L 832 4160 
L 832 4057 
C 1229 4025 1325 3974 1325 3795 
C 1325 3700 1299 3541 1254 3388 
L 467 574 
C 352 204 307 166 -51 102 
L -51 0 
z
M 1523 2108 
C 1939 2108 2208 2083 2336 2032 
C 2598 1923 2758 1643 2758 1299 
C 2758 612 2285 192 1504 192 
C 1235 192 1094 287 1094 459 
C 1094 535 1171 841 1318 1350 
C 1402 1637 1440 1783 1523 2108 
z
M 2003 3789 
C 2042 3929 2118 3967 2368 3967 
C 2880 3967 3117 3751 3117 3280 
C 3117 2917 2963 2637 2688 2484 
C 2470 2356 2163 2312 1587 2312 
L 2003 3789 
z
" transform="scale(0.015625)"/>
       <path id="NimbusSanL-Regu-70" d="M 346 -1408 
L 883 -1408 
L 883 371 
C 1165 25 1478 -128 1914 -128 
C 2778 -128 3347 568 3347 1632 
C 3347 2752 2797 3456 1907 3456 
C 1453 3456 1088 3251 838 2854 
L 838 3359 
L 346 3359 
L 346 -1408 
z
M 1818 2956 
C 2406 2956 2790 2440 2790 1644 
C 2790 887 2400 371 1818 371 
C 1254 371 883 880 883 1663 
C 883 2447 1254 2956 1818 2956 
z
" transform="scale(0.015625)"/>
       <path id="NimbusSanL-Regu-68" d="M 448 4672 
L 448 0 
L 979 0 
L 979 1853 
C 979 2539 1338 2988 1888 2988 
C 2061 2988 2234 2930 2362 2834 
C 2515 2725 2579 2565 2579 2328 
L 2579 0 
L 3110 0 
L 3110 2539 
C 3110 3103 2707 3456 2054 3456 
C 1581 3456 1293 3308 979 2898 
L 979 4672 
L 448 4672 
z
" transform="scale(0.015625)"/>
       <path id="NimbusSanL-Regu-6f" d="M 1741 3456 
C 800 3456 230 2784 230 1663 
C 230 543 794 -128 1747 -128 
C 2688 -128 3264 543 3264 1638 
C 3264 2791 2707 3456 1741 3456 
z
M 1747 2963 
C 2349 2963 2707 2472 2707 1644 
C 2707 861 2336 364 1747 364 
C 1152 364 787 855 787 1663 
C 787 2466 1152 2963 1747 2963 
z
" transform="scale(0.015625)"/>
       <path id="NimbusSanL-Regu-74" d="M 1626 3328 
L 1075 3328 
L 1075 4249 
L 544 4249 
L 544 3328 
L 90 3328 
L 90 2892 
L 544 2892 
L 544 402 
C 544 64 774 -128 1190 -128 
C 1318 -128 1446 -116 1626 -84 
L 1626 364 
C 1555 345 1472 339 1370 339 
C 1139 339 1075 402 1075 634 
L 1075 2892 
L 1626 2892 
L 1626 3328 
z
" transform="scale(0.015625)"/>
       <path id="NimbusSanL-Regu-73" d="M 2803 2428 
C 2797 3084 2362 3456 1587 3456 
C 806 3456 301 3052 301 2434 
C 301 1912 570 1663 1363 1472 
L 1862 1351 
C 2234 1262 2381 1129 2381 887 
C 2381 574 2067 364 1600 364 
C 1312 364 1069 447 934 587 
C 851 683 813 778 781 1014 
L 218 1014 
C 243 243 678 -128 1555 -128 
C 2400 -128 2938 288 2938 931 
C 2938 1428 2656 1702 1990 1861 
L 1478 1982 
C 1043 2084 858 2224 858 2459 
C 858 2765 1133 2963 1568 2963 
C 1997 2963 2227 2778 2240 2428 
L 2803 2428 
z
" transform="scale(0.015625)"/>
       <path id="NimbusSanL-Regu-2f" d="M 1466 4672 
L -51 -128 
L 301 -128 
L 1818 4672 
L 1466 4672 
z
" transform="scale(0.015625)"/>
       <path id="NimbusSanL-Regu-63" d="M 3014 2237 
C 2989 2561 2918 2771 2790 2956 
C 2560 3270 2157 3456 1690 3456 
C 787 3456 198 2740 198 1632 
C 198 555 774 -128 1683 -128 
C 2483 -128 2989 352 3053 1167 
L 2515 1167 
C 2426 632 2150 364 1696 364 
C 1107 364 755 842 755 1632 
C 755 2466 1101 2963 1683 2963 
C 2131 2963 2413 2701 2477 2237 
L 3014 2237 
z
" transform="scale(0.015625)"/>
       <path id="NimbusSanL-Regu-32" d="M 3238 556 
L 851 556 
C 909 928 1114 1165 1670 1493 
L 2310 1839 
C 2944 2185 3270 2653 3270 3211 
C 3270 3589 3117 3942 2848 4185 
C 2579 4428 2246 4544 1818 4544 
C 1242 4544 813 4339 563 3955 
C 403 3711 333 3429 320 2967 
L 883 2967 
C 902 3275 941 3461 1018 3608 
C 1165 3884 1459 4051 1798 4051 
C 2310 4051 2694 3685 2694 3198 
C 2694 2839 2483 2531 2080 2300 
L 1491 1967 
C 544 1428 269 999 218 0 
L 3238 0 
L 3238 556 
z
" transform="scale(0.015625)"/>
      </defs>
      <use xlink:href="#NimbusRomNo9L-ReguItal-42" transform="scale(0.996264)"/>
      <use xlink:href="#StandardSymL-6c" transform="translate(60.871631 -20.616338) scale(0.737241)"/>
      <use xlink:href="#NimbusSanL-Regu-28" transform="translate(135.818713 0) scale(0.996264)"/>
      <use xlink:href="#NimbusSanL-Regu-70" transform="translate(168.993943 0) scale(0.996264)"/>
      <use xlink:href="#NimbusSanL-Regu-68" transform="translate(224.38562 0) scale(0.996264)"/>
      <use xlink:href="#NimbusSanL-Regu-6f" transform="translate(279.777297 0) scale(0.996264)"/>
      <use xlink:href="#NimbusSanL-Regu-74" transform="translate(335.168974 0) scale(0.996264)"/>
      <use xlink:href="#NimbusSanL-Regu-6f" transform="translate(362.864143 0) scale(0.996264)"/>
      <use xlink:href="#NimbusSanL-Regu-6e" transform="translate(418.25582 0) scale(0.996264)"/>
      <use xlink:href="#NimbusSanL-Regu-73" transform="translate(473.647497 0) scale(0.996264)"/>
      <use xlink:href="#NimbusSanL-Regu-2f" transform="translate(523.460698 0) scale(0.996264)"/>
      <use xlink:href="#NimbusSanL-Regu-63" transform="translate(551.155868 0) scale(0.996264)"/>
      <use xlink:href="#NimbusSanL-Regu-6d" transform="translate(600.969068 0) scale(0.996264)"/>
      <use xlink:href="#NimbusSanL-Regu-32" transform="translate(683.957498 36.163231) scale(0.737241)"/>
      <use xlink:href="#NimbusSanL-Regu-2f" transform="translate(725.445777 0) scale(0.996264)"/>
      <use xlink:href="#NimbusSanL-Regu-73" transform="translate(753.140947 0) scale(0.996264)"/>
      <use xlink:href="#NimbusSanL-Regu-2f" transform="translate(802.954147 0) scale(0.996264)"/>
      <use xlink:href="#NimbusSanL-Regu-6e" transform="translate(830.649317 0) scale(0.996264)"/>
      <use xlink:href="#NimbusSanL-Regu-6d" transform="translate(886.040994 0) scale(0.996264)"/>
      <use xlink:href="#NimbusSanL-Regu-29" transform="translate(969.029424 0) scale(0.996264)"/>
     </g>
    </g>
    <g id="text_15">
     <!-- $\times\mathdefault{10^{12}}\mathdefault{}$ -->
     <g transform="translate(33.763987 14.735865)">
      <text>
       <tspan style="font: 11px 'STIXGeneral'" x="0" y="-0.799312500000001"></tspan>
       <tspan style="font: 11px 'Arial'" x="7.039993 13.157669" y="-0.799312500000001">10</tspan>
       <tspan style="font: 7.7px 'Arial'" x="19.467003 23.749376" y="-8.465625">12</tspan>
      </text>
     </g>
    </g>
   </g>
   <g id="patch_7">
    <path d="M 215.490817 47.652918 
L 215.490817 67.40298 
L 293.769383 67.40298 
" style="fill: none; stroke: #000000; stroke-linecap: round"/>
    <path d="M 289.769383 65.40298 
L 293.769383 67.40298 
L 289.769383 69.40298 
" style="fill: none; stroke: #000000; stroke-linecap: round"/>
   </g>
   <g id="text_16">
    <g id="patch_8">
     <path d="M 181.790817 50.702711 
L 249.190817 50.702711 
Q 252.190817 50.702711 252.190817 47.702711 
L 252.190817 37.602711 
Q 252.190817 34.602711 249.190817 34.602711 
L 181.790817 34.602711 
Q 178.790817 34.602711 178.790817 37.602711 
L 178.790817 47.702711 
Q 178.790817 50.702711 181.790817 50.702711 
z
" style="fill: #f5deb3; stroke: #000000; stroke-linejoin: miter"/>
    </g>
    <!-- D$_{\gamma}$ (434.00) nm -->
    <g transform="translate(181.790817 44.902711)">
     <text>
      <tspan style="font: 10px 'Arial'" x="0 10.686517 13.464837 16.794915 22.356439 27.917962 33.479486 36.257806 41.81933 47.380853 50.710931 53.489251 59.050775" y="-0.71875">D(434.00)nm</tspan>
      <tspan style="font: italic 7px 'STIXGeneral'" x="7.375898" y="0.6031250000000004"></tspan>
     </text>
    </g>
   </g>
   <g id="text_17">
    <text style="font: 10px 'Arial'; text-anchor: middle" x="233.172074" y="96.730831" transform="rotate(-0 233.172074 96.730831)">Q-branch</text>
   </g>
   <g id="text_18">
    <text style="font: 10px 'Arial'; text-anchor: middle" x="115.305256" y="52.76012" transform="rotate(-0 115.305256 52.76012)">B-D + C-D</text>
   </g>
   <g id="text_19">
    <text style="font: 700 12px 'Arial'; text-anchor: middle" x="177.381874" y="11.735865" transform="rotate(-0 177.381874 11.735865)">PC boron pebble rod - 8 min</text>
   </g>
  </g>
 </g>
 <defs>
  <clipPath id="p2e6f8182bc">
   <rect x="33.763987" y="17.735865" width="287.235773" height="198.668461"/>
  </clipPath>
 </defs>
</svg>
