<?xml version="1.0" encoding="utf-8" standalone="no"?>
<!DOCTYPE svg PUBLIC "-//W3C//DTD SVG 1.1//EN"
  "http://www.w3.org/Graphics/SVG/1.1/DTD/svg11.dtd">
<svg xmlns:xlink="http://www.w3.org/1999/xlink" width="324pt" height="252pt" viewBox="0 0 324 252" xmlns="http://www.w3.org/2000/svg" version="1.1">
 <metadata>
  <rdf:RDF xmlns:dc="http://purl.org/dc/elements/1.1/" xmlns:cc="http://creativecommons.org/ns#" xmlns:rdf="http://www.w3.org/1999/02/22-rdf-syntax-ns#">
   <cc:Work>
    <dc:type rdf:resource="http://purl.org/dc/dcmitype/StillImage"/>
    <dc:date>2024-12-06T11:01:03.861578</dc:date>
    <dc:format>image/svg+xml</dc:format>
    <dc:creator>
     <cc:Agent>
      <dc:title>Matplotlib v3.9.2, https://matplotlib.org/</dc:title>
     </cc:Agent>
    </dc:creator>
   </cc:Work>
  </rdf:RDF>
 </metadata>
 <defs>
  <style type="text/css">*{stroke-linejoin: round; stroke-linecap: butt}</style>
 </defs>
 <g id="figure_1">
  <g id="patch_1">
   <path d="M 0 252 
L 324 252 
L 324 0 
L 0 0 
z
" style="fill: #ffffff"/>
  </g>
  <g id="axes_1">
   <g id="patch_2">
    <path d="M 33.763987 216.404326 
L 320.99976 216.404326 
L 320.99976 17.735865 
L 33.763987 17.735865 
z
" style="fill: #ffffff"/>
   </g>
   <g id="PolyCollection_1">
    <path d="M 34.04809 216.172513 
L 34.04809 216.404326 
L 35.450322 216.404326 
L 36.851511 216.404326 
L 38.253744 216.404326 
L 39.654932 216.404326 
L 41.057165 216.404326 
L 42.45992 216.404326 
L 43.860586 216.404326 
L 45.263341 216.404326 
L 46.665574 216.404326 
L 48.068329 216.404326 
L 49.471084 216.404326 
L 50.873317 216.404326 
L 52.276072 216.404326 
L 53.678305 216.404326 
L 55.08106 216.404326 
L 56.484859 216.404326 
L 57.887614 216.404326 
L 59.289847 216.404326 
L 60.694169 216.404326 
L 62.096924 216.404326 
L 63.500723 216.404326 
L 64.903479 216.404326 
L 66.307278 216.404326 
L 67.7116 216.404326 
L 69.113833 216.404326 
L 70.518155 216.404326 
L 71.922476 216.404326 
L 73.326276 216.404326 
L 74.730598 216.404326 
L 76.134397 216.404326 
L 77.538719 216.404326 
L 78.943041 216.404326 
L 80.348407 216.404326 
L 81.752729 216.404326 
L 83.157051 216.404326 
L 84.562417 216.404326 
L 85.966739 216.404326 
L 87.372105 216.404326 
L 88.776427 216.404326 
L 90.182316 216.404326 
L 91.586115 216.404326 
L 92.992004 216.404326 
L 94.397892 216.404326 
L 95.803258 216.404326 
L 97.209147 216.404326 
L 98.615036 216.404326 
L 100.020402 216.404326 
L 101.42629 216.404326 
L 102.831657 216.404326 
L 104.237545 216.404326 
L 105.643434 216.404326 
L 107.050367 216.404326 
L 108.456255 216.404326 
L 109.862144 216.404326 
L 111.269077 216.404326 
L 112.674966 216.404326 
L 114.082421 216.404326 
L 115.489876 216.404326 
L 116.895242 216.404326 
L 118.302698 216.404326 
L 119.710153 216.404326 
L 121.117086 216.404326 
L 122.524541 216.404326 
L 123.931997 216.404326 
L 125.33893 216.404326 
L 126.746385 216.404326 
L 128.15384 216.404326 
L 129.560773 216.404326 
L 130.969795 216.404326 
L 132.377251 216.404326 
L 133.784706 216.404326 
L 135.193206 216.404326 
L 136.600661 216.404326 
L 138.009683 216.404326 
L 139.418705 216.404326 
L 140.825638 216.404326 
L 142.23466 216.404326 
L 143.643682 216.404326 
L 145.052704 216.404326 
L 146.461204 216.404326 
L 147.868659 216.404326 
L 149.277681 216.404326 
L 150.68827 216.404326 
L 152.09677 216.404326 
L 153.505792 216.404326 
L 154.914814 216.404326 
L 156.323836 216.404326 
L 157.733902 216.404326 
L 159.142924 216.404326 
L 160.553513 216.404326 
L 161.962535 216.404326 
L 163.373124 216.404326 
L 164.78319 216.404326 
L 166.192212 216.404326 
L 167.602801 216.404326 
L 169.01339 216.404326 
L 170.423979 216.404326 
L 171.834045 216.404326 
L 173.244634 216.404326 
L 174.655223 216.404326 
L 176.065812 216.404326 
L 177.4764 216.404326 
L 178.886467 216.404326 
L 180.297056 216.404326 
L 181.709211 216.404326 
L 183.1198 216.404326 
L 184.531955 216.404326 
L 185.942022 216.404326 
L 187.354177 216.404326 
L 188.764766 216.404326 
L 190.176922 216.404326 
L 191.589077 216.404326 
L 193.001233 216.404326 
L 194.411821 216.404326 
L 195.823455 216.404326 
L 197.23561 216.404326 
L 198.647766 216.404326 
L 200.059921 216.404326 
L 201.473644 216.404326 
L 202.885799 216.404326 
L 204.297955 216.404326 
L 205.709588 216.404326 
L 207.12331 216.404326 
L 208.535466 216.404326 
L 209.949188 216.404326 
L 211.361343 216.404326 
L 212.775066 216.404326 
L 214.187221 216.404326 
L 215.600943 216.404326 
L 217.014666 216.404326 
L 218.427866 216.404326 
L 219.841588 216.404326 
L 221.25531 216.404326 
L 222.669032 216.404326 
L 224.082755 216.404326 
L 225.496477 216.404326 
L 226.910199 216.404326 
L 228.323921 216.404326 
L 229.737644 216.404326 
L 231.152933 216.404326 
L 232.566655 216.404326 
L 233.981944 216.404326 
L 235.395144 216.404326 
L 236.810433 216.404326 
L 238.224155 216.404326 
L 239.639444 216.404326 
L 241.054733 216.404326 
L 242.470022 216.404326 
L 243.883744 216.404326 
L 245.299033 216.404326 
L 246.714322 216.404326 
L 248.129611 216.404326 
L 249.5449 216.404326 
L 250.961756 216.404326 
L 252.377045 216.404326 
L 253.792334 216.404326 
L 255.207623 216.404326 
L 256.624479 216.404326 
L 258.039768 216.404326 
L 259.456623 216.404326 
L 260.871912 216.404326 
L 262.288768 216.404326 
L 263.704057 216.404326 
L 265.120913 216.404326 
L 266.537769 216.404326 
L 267.954624 216.404326 
L 269.37148 216.404326 
L 270.788336 216.404326 
L 272.205191 216.404326 
L 273.622047 216.404326 
L 275.038903 216.404326 
L 276.455759 216.404326 
L 277.872614 216.404326 
L 279.291037 216.404326 
L 280.707893 216.404326 
L 282.124748 216.404326 
L 283.543171 216.404326 
L 284.960026 216.404326 
L 286.378449 216.404326 
L 287.796871 216.404326 
L 289.213727 216.404326 
L 290.63215 216.404326 
L 292.050572 216.404326 
L 293.468995 216.404326 
L 294.887417 216.404326 
L 296.306362 216.404326 
L 297.724784 216.404326 
L 299.143207 216.404326 
L 300.561629 216.404326 
L 301.980052 216.404326 
L 303.398474 216.404326 
L 304.818463 216.404326 
L 306.236886 216.404326 
L 307.656875 216.404326 
L 309.075297 216.404326 
L 310.495287 216.404326 
L 311.913709 216.404326 
L 313.334221 216.404326 
L 314.75421 216.404326 
L 316.172632 216.404326 
L 317.592621 216.404326 
L 319.012611 216.404326 
L 320.4326 216.404326 
L 320.4326 215.22246 
L 320.4326 215.22246 
L 319.012611 215.183487 
L 317.592621 215.142549 
L 316.172632 215.09951 
L 314.75421 215.054275 
L 313.334221 215.006583 
L 311.913709 214.956288 
L 310.495287 214.903297 
L 309.075297 214.847263 
L 307.656875 214.788079 
L 306.236886 214.725362 
L 304.818463 214.658969 
L 303.398474 214.588444 
L 301.980052 214.5136 
L 300.561629 214.433979 
L 299.143207 214.349159 
L 297.724784 214.258664 
L 296.306362 214.161962 
L 294.887417 214.058416 
L 293.468995 213.947423 
L 292.050572 213.828179 
L 290.63215 213.699808 
L 289.213727 213.561307 
L 287.796871 213.41169 
L 286.378449 213.249287 
L 284.960026 213.072689 
L 283.543171 212.880273 
L 282.124748 212.669421 
L 280.707893 212.437972 
L 279.291037 212.182514 
L 277.872614 211.898787 
L 276.455759 211.582497 
L 275.038903 211.227083 
L 273.622047 210.824391 
L 272.205191 210.363549 
L 270.788336 209.829641 
L 269.37148 209.201523 
L 267.954624 208.448067 
L 266.537769 207.521407 
L 265.120913 206.344224 
L 263.704057 204.784536 
L 262.288768 202.606414 
L 260.871912 199.350338 
L 259.456623 194.149132 
L 258.039768 185.599108 
L 256.624479 173.98534 
L 255.207623 168.667915 
L 253.792334 175.723714 
L 252.377045 183.509308 
L 250.961756 187.113371 
L 249.5449 187.263056 
L 248.129611 184.426036 
L 246.714322 177.72849 
L 245.299033 165.847485 
L 243.883744 157.204092 
L 242.470022 163.620595 
L 241.054733 170.34537 
L 239.639444 172.445162 
L 238.224155 172.002088 
L 236.810433 170.522266 
L 235.395144 168.834616 
L 233.981944 167.472146 
L 232.566655 166.792244 
L 231.152933 167.009426 
L 229.737644 168.180345 
L 228.323921 170.212796 
L 226.910199 172.913549 
L 225.496477 176.042557 
L 224.082755 179.367431 
L 222.669032 182.697777 
L 221.25531 185.897937 
L 219.841588 188.884193 
L 218.427866 191.614337 
L 217.014666 194.074707 
L 215.600943 196.273105 
L 214.187221 198.225301 
L 212.775066 199.951431 
L 211.361343 201.478914 
L 209.949188 202.827509 
L 208.535466 204.021858 
L 207.12331 205.078888 
L 205.709588 206.018352 
L 204.297955 206.853114 
L 202.885799 207.598135 
L 201.473644 208.264551 
L 200.059921 208.862884 
L 198.647766 209.400345 
L 197.23561 209.884986 
L 195.823455 210.323149 
L 194.411821 210.720171 
L 193.001233 211.080702 
L 191.589077 211.409495 
L 190.176922 211.709698 
L 188.764766 211.984421 
L 187.354177 212.236109 
L 185.942022 212.467693 
L 184.531955 212.680663 
L 183.1198 212.877477 
L 181.709211 213.05923 
L 180.297056 213.227749 
L 178.886467 213.383923 
L 177.4764 213.529012 
L 176.065812 213.664119 
L 174.655223 213.790077 
L 173.244634 213.907679 
L 171.834045 214.017637 
L 170.423979 214.120552 
L 169.01339 214.217074 
L 167.602801 214.307681 
L 166.192212 214.392841 
L 164.78319 214.47289 
L 163.373124 214.548361 
L 161.962535 214.619566 
L 160.553513 214.68672 
L 159.142924 214.75026 
L 157.733902 214.810305 
L 156.323836 214.86721 
L 154.914814 214.921109 
L 153.505792 214.972246 
L 152.09677 215.020804 
L 150.68827 215.066936 
L 149.277681 215.11088 
L 147.868659 215.152662 
L 146.461204 215.192424 
L 145.052704 215.23036 
L 143.643682 215.266568 
L 142.23466 215.301136 
L 140.825638 215.334162 
L 139.418705 215.36569 
L 138.009683 215.395896 
L 136.600661 215.424811 
L 135.193206 215.452477 
L 133.784706 215.479012 
L 132.377251 215.50444 
L 130.969795 215.528839 
L 129.560773 215.552289 
L 128.15384 215.574781 
L 126.746385 215.596406 
L 125.33893 215.6172 
L 123.931997 215.637197 
L 122.524541 215.656452 
L 121.117086 215.674994 
L 119.710153 215.692851 
L 118.302698 215.710069 
L 116.895242 215.726672 
L 115.489876 215.742665 
L 114.082421 215.758123 
L 112.674966 215.773047 
L 111.269077 215.787446 
L 109.862144 215.80137 
L 108.456255 215.81482 
L 107.050367 215.827825 
L 105.643434 215.840416 
L 104.237545 215.852591 
L 102.831657 215.864377 
L 101.42629 215.875786 
L 100.020402 215.886842 
L 98.615036 215.897552 
L 97.209147 215.907938 
L 95.803258 215.918008 
L 94.397892 215.927772 
L 92.992004 215.93725 
L 91.586115 215.946448 
L 90.182316 215.955364 
L 88.776427 215.964036 
L 87.372105 215.972451 
L 85.966739 215.980633 
L 84.562417 215.988579 
L 83.157051 215.99631 
L 81.752729 216.003822 
L 80.348407 216.011129 
L 78.943041 216.018244 
L 77.538719 216.025163 
L 76.134397 216.031897 
L 74.730598 216.038452 
L 73.326276 216.044838 
L 71.922476 216.051056 
L 70.518155 216.057116 
L 69.113833 216.063023 
L 67.7116 216.068771 
L 66.307278 216.074384 
L 64.903479 216.079856 
L 63.500723 216.085189 
L 62.096924 216.090396 
L 60.694169 216.095472 
L 59.289847 216.100432 
L 57.887614 216.105267 
L 56.484859 216.109989 
L 55.08106 216.114604 
L 53.678305 216.119108 
L 52.276072 216.123506 
L 50.873317 216.127805 
L 49.471084 216.132005 
L 48.068329 216.136111 
L 46.665574 216.140125 
L 45.263341 216.144049 
L 43.860586 216.147887 
L 42.45992 216.151636 
L 41.057165 216.155308 
L 39.654932 216.1589 
L 38.253744 216.162412 
L 36.851511 216.165852 
L 35.450322 216.169216 
L 34.04809 216.172513 
z
" clip-path="url(#p8157bbf28c)" style="fill: #1f77b4; fill-opacity: 0.25"/>
   </g>
   <g id="PolyCollection_2">
    <path d="M 34.04809 215.01737 
L 34.04809 216.404326 
L 35.450322 216.404326 
L 36.851511 216.404326 
L 38.253744 216.404326 
L 39.654932 216.404326 
L 41.057165 216.404326 
L 42.45992 216.404326 
L 43.860586 216.404326 
L 45.263341 216.404326 
L 46.665574 216.404326 
L 48.068329 216.404326 
L 49.471084 216.404326 
L 50.873317 216.404326 
L 52.276072 216.404326 
L 53.678305 216.404326 
L 55.08106 216.404326 
L 56.484859 216.404326 
L 57.887614 216.404326 
L 59.289847 216.404326 
L 60.694169 216.404326 
L 62.096924 216.404326 
L 63.500723 216.404326 
L 64.903479 216.404326 
L 66.307278 216.404326 
L 67.7116 216.404326 
L 69.113833 216.404326 
L 70.518155 216.404326 
L 71.922476 216.404326 
L 73.326276 216.404326 
L 74.730598 216.404326 
L 76.134397 216.404326 
L 77.538719 216.404326 
L 78.943041 216.404326 
L 80.348407 216.404326 
L 81.752729 216.404326 
L 83.157051 216.404326 
L 84.562417 216.404326 
L 85.966739 216.404326 
L 87.372105 216.404326 
L 88.776427 216.404326 
L 90.182316 216.404326 
L 91.586115 216.404326 
L 92.992004 216.404326 
L 94.397892 216.404326 
L 95.803258 216.404326 
L 97.209147 216.404326 
L 98.615036 216.404326 
L 100.020402 216.404326 
L 101.42629 216.404326 
L 102.831657 216.404326 
L 104.237545 216.404326 
L 105.643434 216.404326 
L 107.050367 216.404326 
L 108.456255 216.404326 
L 109.862144 216.404326 
L 111.269077 216.404326 
L 112.674966 216.404326 
L 114.082421 216.404326 
L 115.489876 216.404326 
L 116.895242 216.404326 
L 118.302698 216.404326 
L 119.710153 216.404326 
L 121.117086 216.404326 
L 122.524541 216.404326 
L 123.931997 216.404326 
L 125.33893 216.404326 
L 126.746385 216.404326 
L 128.15384 216.404326 
L 129.560773 216.404326 
L 130.969795 216.404326 
L 132.377251 216.404326 
L 133.784706 216.404326 
L 135.193206 216.404326 
L 136.600661 216.404326 
L 138.009683 216.404326 
L 139.418705 216.404326 
L 140.825638 216.404326 
L 142.23466 216.404326 
L 143.643682 216.404326 
L 145.052704 216.404326 
L 146.461204 216.404326 
L 147.868659 216.404326 
L 149.277681 216.404326 
L 150.68827 216.404326 
L 152.09677 216.404326 
L 153.505792 216.404326 
L 154.914814 216.404326 
L 156.323836 216.404326 
L 157.733902 216.404326 
L 159.142924 216.404326 
L 160.553513 216.404326 
L 161.962535 216.404326 
L 163.373124 216.404326 
L 164.78319 216.404326 
L 166.192212 216.404326 
L 167.602801 216.404326 
L 169.01339 216.404326 
L 170.423979 216.404326 
L 171.834045 216.404326 
L 173.244634 216.404326 
L 174.655223 216.404326 
L 176.065812 216.404326 
L 177.4764 216.404326 
L 178.886467 216.404326 
L 180.297056 216.404326 
L 181.709211 216.404326 
L 183.1198 216.404326 
L 184.531955 216.404326 
L 185.942022 216.404326 
L 187.354177 216.404326 
L 188.764766 216.404326 
L 190.176922 216.404326 
L 191.589077 216.404326 
L 193.001233 216.404326 
L 194.411821 216.404326 
L 195.823455 216.404326 
L 197.23561 216.404326 
L 198.647766 216.404326 
L 200.059921 216.404326 
L 201.473644 216.404326 
L 202.885799 216.404326 
L 204.297955 216.404326 
L 205.709588 216.404326 
L 207.12331 216.404326 
L 208.535466 216.404326 
L 209.949188 216.404326 
L 211.361343 216.404326 
L 212.775066 216.404326 
L 214.187221 216.404326 
L 215.600943 216.404326 
L 217.014666 216.404326 
L 218.427866 216.404326 
L 219.841588 216.404326 
L 221.25531 216.404326 
L 222.669032 216.404326 
L 224.082755 216.404326 
L 225.496477 216.404326 
L 226.910199 216.404326 
L 228.323921 216.404326 
L 229.737644 216.404326 
L 231.152933 216.404326 
L 232.566655 216.404326 
L 233.981944 216.404326 
L 235.395144 216.404326 
L 236.810433 216.404326 
L 238.224155 216.404326 
L 239.639444 216.404326 
L 241.054733 216.404326 
L 242.470022 216.404326 
L 243.883744 216.404326 
L 245.299033 216.404326 
L 246.714322 216.404326 
L 248.129611 216.404326 
L 249.5449 216.404326 
L 250.961756 216.404326 
L 252.377045 216.404326 
L 253.792334 216.404326 
L 255.207623 216.404326 
L 256.624479 216.404326 
L 258.039768 216.404326 
L 259.456623 216.404326 
L 260.871912 216.404326 
L 262.288768 216.404326 
L 263.704057 216.404326 
L 265.120913 216.404326 
L 266.537769 216.404326 
L 267.954624 216.404326 
L 269.37148 216.404326 
L 270.788336 216.404326 
L 272.205191 216.404326 
L 273.622047 216.404326 
L 275.038903 216.404326 
L 276.455759 216.404326 
L 277.872614 216.404326 
L 279.291037 216.404326 
L 280.707893 216.404326 
L 282.124748 216.404326 
L 283.543171 216.404326 
L 284.960026 216.404326 
L 286.378449 216.404326 
L 287.796871 216.404326 
L 289.213727 216.404326 
L 290.63215 216.404326 
L 292.050572 216.404326 
L 293.468995 216.404326 
L 294.887417 216.404326 
L 296.306362 216.404326 
L 297.724784 216.404326 
L 299.143207 216.404326 
L 300.561629 216.404326 
L 301.980052 216.404326 
L 303.398474 216.404326 
L 304.818463 216.404326 
L 306.236886 216.404326 
L 307.656875 216.404326 
L 309.075297 216.404326 
L 310.495287 216.404326 
L 311.913709 216.404326 
L 313.334221 216.404326 
L 314.75421 216.404326 
L 316.172632 216.404326 
L 317.592621 216.404326 
L 319.012611 216.404326 
L 320.4326 216.404326 
L 320.4326 216.192806 
L 320.4326 216.192806 
L 319.012611 216.189331 
L 317.592621 216.185767 
L 316.172632 216.182111 
L 314.75421 216.178364 
L 313.334221 216.174514 
L 311.913709 216.170559 
L 310.495287 216.166504 
L 309.075297 216.162334 
L 307.656875 216.158054 
L 306.236886 216.153651 
L 304.818463 216.149129 
L 303.398474 216.144474 
L 301.980052 216.139691 
L 300.561629 216.134769 
L 299.143207 216.129703 
L 297.724784 216.124488 
L 296.306362 216.119116 
L 294.887417 216.11358 
L 293.468995 216.107876 
L 292.050572 216.101996 
L 290.63215 216.095931 
L 289.213727 216.089674 
L 287.796871 216.083224 
L 286.378449 216.076556 
L 284.960026 216.069669 
L 283.543171 216.06256 
L 282.124748 216.055203 
L 280.707893 216.047604 
L 279.291037 216.03974 
L 277.872614 216.031592 
L 276.455759 216.023163 
L 275.038903 216.01443 
L 273.622047 216.005377 
L 272.205191 215.995988 
L 270.788336 215.986246 
L 269.37148 215.976131 
L 267.954624 215.965624 
L 266.537769 215.954703 
L 265.120913 215.943344 
L 263.704057 215.931524 
L 262.288768 215.91923 
L 260.871912 215.906405 
L 259.456623 215.893048 
L 258.039768 215.879096 
L 256.624479 215.864543 
L 255.207623 215.84932 
L 253.792334 215.833417 
L 252.377045 215.816773 
L 250.961756 215.799339 
L 249.5449 215.781041 
L 248.129611 215.76186 
L 246.714322 215.741714 
L 245.299033 215.720533 
L 243.883744 215.698241 
L 242.470022 215.674781 
L 241.054733 215.65001 
L 239.639444 215.623852 
L 238.224155 215.596195 
L 236.810433 215.56695 
L 235.395144 215.535914 
L 233.981944 215.503019 
L 232.566655 215.467997 
L 231.152933 215.430748 
L 229.737644 215.39098 
L 228.323921 215.348541 
L 226.910199 215.303123 
L 225.496477 215.254422 
L 224.082755 215.202095 
L 222.669032 215.145753 
L 221.25531 215.084947 
L 219.841588 215.019168 
L 218.427866 214.947823 
L 217.014666 214.870262 
L 215.600943 214.785632 
L 214.187221 214.693034 
L 212.775066 214.591497 
L 211.361343 214.479511 
L 209.949188 214.3558 
L 208.535466 214.218264 
L 207.12331 214.065015 
L 205.709588 213.89305 
L 204.297955 213.699579 
L 202.885799 213.480283 
L 201.473644 213.230264 
L 200.059921 212.942955 
L 198.647766 212.611095 
L 197.23561 212.224286 
L 195.823455 211.769443 
L 194.411821 211.229632 
L 193.001233 210.582487 
L 191.589077 209.796178 
L 190.176922 208.829694 
L 188.764766 207.625625 
L 187.354177 206.106057 
L 185.942022 204.156414 
L 184.531955 201.628651 
L 183.1198 198.310441 
L 181.709211 193.962973 
L 180.297056 188.356767 
L 178.886467 181.535035 
L 177.4764 174.228785 
L 176.065812 168.232302 
L 174.655223 165.566118 
L 173.244634 166.194896 
L 171.834045 167.122936 
L 170.423979 163.968653 
L 169.01339 155.425121 
L 167.602801 156.260431 
L 166.192212 172.150199 
L 164.78319 185.123764 
L 163.373124 192.231994 
L 161.962535 195.701339 
L 160.553513 196.751172 
L 159.142924 195.468143 
L 157.733902 190.82775 
L 156.323836 181.800663 
L 154.914814 176.873522 
L 153.505792 184.015453 
L 152.09677 189.713611 
L 150.68827 190.407697 
L 149.277681 186.949924 
L 147.868659 178.990966 
L 146.461204 165.759947 
L 145.052704 151.229623 
L 143.643682 148.022917 
L 142.23466 155.248611 
L 140.825638 158.891721 
L 139.418705 154.38999 
L 138.009683 146.197489 
L 136.600661 145.972104 
L 135.193206 157.443952 
L 133.784706 170.682725 
L 132.377251 179.70555 
L 130.969795 184.288009 
L 129.560773 185.188595 
L 128.15384 182.509059 
L 126.746385 175.320496 
L 125.33893 161.635017 
L 123.931997 140.828722 
L 122.524541 124.16894 
L 121.117086 131.811518 
L 119.710153 153.248998 
L 118.302698 170.060947 
L 116.895242 179.659016 
L 115.489876 184.197713 
L 114.082421 185.320892 
L 112.674966 183.764629 
L 111.269077 179.750954 
L 109.862144 173.403576 
L 108.456255 165.523877 
L 107.050367 158.57602 
L 105.643434 156.328987 
L 104.237545 160.35846 
L 102.831657 168.004717 
L 101.42629 175.586706 
L 100.020402 181.110339 
L 98.615036 183.911155 
L 97.209147 183.636596 
L 95.803258 179.838119 
L 94.397892 173.215874 
L 92.992004 169.294455 
L 91.586115 174.223553 
L 90.182316 183.007756 
L 88.776427 189.626355 
L 87.372105 193.14375 
L 85.966739 194.096682 
L 84.562417 192.664493 
L 83.157051 188.302974 
L 81.752729 179.552064 
L 80.348407 164.715867 
L 78.943041 148.270302 
L 77.538719 146.3047 
L 76.134397 155.593919 
L 74.730598 160.295254 
L 73.326276 160.723015 
L 71.922476 165.418733 
L 70.518155 176.103516 
L 69.113833 186.891877 
L 67.7116 194.829393 
L 66.307278 200.186137 
L 64.903479 203.789766 
L 63.500723 206.280731 
L 62.096924 208.063869 
L 60.694169 209.380085 
L 59.289847 210.381834 
L 57.887614 211.161588 
L 56.484859 211.783072 
L 55.08106 212.287893 
L 53.678305 212.704039 
L 52.276072 213.052135 
L 50.873317 213.347153 
L 49.471084 213.599738 
L 48.068329 213.818252 
L 46.665574 214.008845 
L 45.263341 214.176306 
L 43.860586 214.324572 
L 42.45992 214.456423 
L 41.057165 214.574692 
L 39.654932 214.681116 
L 38.253744 214.777301 
L 36.851511 214.864732 
L 35.450322 214.944402 
L 34.04809 215.01737 
z
" clip-path="url(#p8157bbf28c)" style="fill: #ff7f0e; fill-opacity: 0.25"/>
   </g>
   <g id="line2d_1">
    <path d="M 34.04809 188.880568 
L 35.450322 185.386244 
L 36.851511 182.271515 
L 38.253744 181.705946 
L 39.654932 184.638755 
L 41.057165 190.008457 
L 42.45992 194.167584 
L 43.860586 194.173822 
L 45.263341 191.085098 
L 46.665574 189.429811 
L 48.068329 189.01253 
L 50.873317 190.736447 
L 52.276072 189.779489 
L 53.678305 187.683756 
L 55.08106 182.063116 
L 59.289847 177.488731 
L 60.694169 181.148286 
L 63.500723 190.226579 
L 64.903479 192.946126 
L 66.307278 194.858973 
L 67.7116 193.810491 
L 69.113833 188.864606 
L 70.518155 178.292434 
L 71.922476 164.417806 
L 73.326276 157.452294 
L 74.730598 162.914815 
L 76.134397 156.721358 
L 77.538719 143.409148 
L 78.943041 149.603983 
L 80.348407 162.724174 
L 81.752729 181.079048 
L 83.157051 187.485186 
L 84.562417 190.788004 
L 85.966739 192.152421 
L 87.372105 191.071776 
L 88.776427 188.039939 
L 90.182316 182.909083 
L 91.586115 175.200579 
L 92.992004 169.642199 
L 94.397892 170.933871 
L 95.803258 176.627464 
L 97.209147 184.154995 
L 98.615036 188.403891 
L 100.020402 185.679958 
L 101.42629 176.751499 
L 102.831657 164.786819 
L 104.237545 155.96654 
L 105.643434 154.997441 
L 107.050367 160.373766 
L 109.862144 174.001244 
L 111.269077 179.145123 
L 112.674966 183.292283 
L 114.082421 181.442604 
L 115.489876 175.874364 
L 116.895242 172.82736 
L 118.302698 170.267971 
L 119.710153 156.619098 
L 121.117086 132.254459 
L 122.524541 123.145445 
L 123.931997 136.07698 
L 125.33893 161.777473 
L 126.746385 178.105017 
L 128.15384 182.737999 
L 129.560773 186.510953 
L 130.969795 187.322544 
L 132.377251 182.437872 
L 133.784706 166.626148 
L 135.193206 153.589876 
L 136.600661 145.217135 
L 138.009683 149.20853 
L 139.418705 152.25384 
L 140.825638 152.213452 
L 142.23466 154.190494 
L 145.052704 147.872724 
L 146.461204 161.56852 
L 147.868659 177.729649 
L 149.277681 190.401033 
L 150.68827 193.022273 
L 152.09677 188.559755 
L 153.505792 180.088336 
L 154.914814 176.079966 
L 156.323836 180.845997 
L 157.733902 188.637203 
L 159.142924 192.50382 
L 160.553513 193.536465 
L 161.962535 192.762274 
L 163.373124 190.965713 
L 164.78319 185.041945 
L 166.192212 169.224314 
L 167.602801 154.756305 
L 169.01339 153.3172 
L 171.834045 166.374631 
L 173.244634 167.252724 
L 174.655223 161.938433 
L 176.065812 161.453938 
L 177.4764 168.912702 
L 178.886467 181.288958 
L 180.297056 189.571871 
L 181.709211 192.845783 
L 183.1198 192.362939 
L 184.531955 198.117973 
L 185.942022 204.531865 
L 187.354177 212.496558 
L 188.764766 207.707303 
L 190.176922 200.185748 
L 191.589077 190.452985 
L 193.001233 190.463427 
L 194.411821 192.905518 
L 195.823455 197.281135 
L 197.23561 200.300281 
L 200.059921 203.316266 
L 201.473644 202.222847 
L 202.885799 203.722051 
L 204.297955 209.282637 
L 205.709588 210.20008 
L 207.12331 207.371572 
L 208.535466 205.105586 
L 209.949188 204.839372 
L 212.775066 202.465425 
L 214.187221 200.912986 
L 217.014666 197.268268 
L 218.427866 192.973063 
L 219.841588 185.064825 
L 221.25531 178.34692 
L 222.669032 177.446518 
L 224.082755 177.285515 
L 226.910199 168.422573 
L 228.323921 167.362873 
L 229.737644 165.891446 
L 231.152933 168.80175 
L 232.566655 173.159986 
L 233.981944 172.463303 
L 235.395144 167.430242 
L 236.810433 166.369847 
L 238.224155 166.859129 
L 241.054733 168.525632 
L 242.470022 164.121573 
L 243.883744 159.221731 
L 245.299033 157.745057 
L 246.714322 184.749261 
L 248.129611 186.634544 
L 249.5449 187.107161 
L 250.961756 185.323001 
L 252.377045 180.000526 
L 253.792334 173.430045 
L 255.207623 172.00895 
L 256.624479 173.323069 
L 258.039768 172.538193 
L 259.456623 205.930523 
L 260.871912 205.559831 
L 262.288768 204.894919 
L 263.704057 204.630191 
L 266.537769 202.421679 
L 267.954624 202.867183 
L 269.37148 203.834055 
L 270.788336 202.696576 
L 272.205191 200.644158 
L 273.622047 197.830239 
L 275.038903 195.740765 
L 276.455759 195.60537 
L 277.872614 194.069805 
L 280.707893 186.294049 
L 282.124748 183.465691 
L 283.543171 178.957637 
L 284.960026 171.933922 
L 286.378449 158.481355 
L 287.796871 134.539893 
L 289.213727 69.592749 
L 289.674891 -1 
M 300.291915 -1 
L 300.561629 41.470947 
L 301.980052 103.747716 
L 303.398474 132.135456 
L 304.818463 155.005131 
L 306.236886 172.503168 
L 307.656875 182.694794 
L 309.075297 187.389397 
L 310.495287 189.672297 
L 311.913709 189.989575 
L 313.334221 190.185205 
L 314.75421 191.317092 
L 316.172632 191.020105 
L 317.592621 192.109426 
L 319.012611 194.297619 
L 320.4326 194.961029 
L 320.4326 194.961029 
" clip-path="url(#p8157bbf28c)" style="fill: none; stroke: #1f77b4; stroke-width: 1.5; stroke-linecap: square"/>
    <defs>
     <path id="m1f48eaebac" d="M 0 1.5 
C 0.397805 1.5 0.77937 1.341951 1.06066 1.06066 
C 1.341951 0.77937 1.5 0.397805 1.5 0 
C 1.5 -0.397805 1.341951 -0.77937 1.06066 -1.06066 
C 0.77937 -1.341951 0.397805 -1.5 0 -1.5 
C -0.397805 -1.5 -0.77937 -1.341951 -1.06066 -1.06066 
C -1.341951 -0.77937 -1.5 -0.397805 -1.5 0 
C -1.5 0.397805 -1.341951 0.77937 -1.06066 1.06066 
C -0.77937 1.341951 -0.397805 1.5 0 1.5 
z
" style="stroke: #1f77b4"/>
    </defs>
    <g clip-path="url(#p8157bbf28c)">
     <use xlink:href="#m1f48eaebac" x="34.04809" y="188.880568" style="fill-opacity: 0; stroke: #1f77b4"/>
     <use xlink:href="#m1f48eaebac" x="35.450322" y="185.386244" style="fill-opacity: 0; stroke: #1f77b4"/>
     <use xlink:href="#m1f48eaebac" x="36.851511" y="182.271515" style="fill-opacity: 0; stroke: #1f77b4"/>
     <use xlink:href="#m1f48eaebac" x="38.253744" y="181.705946" style="fill-opacity: 0; stroke: #1f77b4"/>
     <use xlink:href="#m1f48eaebac" x="39.654932" y="184.638755" style="fill-opacity: 0; stroke: #1f77b4"/>
     <use xlink:href="#m1f48eaebac" x="41.057165" y="190.008457" style="fill-opacity: 0; stroke: #1f77b4"/>
     <use xlink:href="#m1f48eaebac" x="42.45992" y="194.167584" style="fill-opacity: 0; stroke: #1f77b4"/>
     <use xlink:href="#m1f48eaebac" x="43.860586" y="194.173822" style="fill-opacity: 0; stroke: #1f77b4"/>
     <use xlink:href="#m1f48eaebac" x="45.263341" y="191.085098" style="fill-opacity: 0; stroke: #1f77b4"/>
     <use xlink:href="#m1f48eaebac" x="46.665574" y="189.429811" style="fill-opacity: 0; stroke: #1f77b4"/>
     <use xlink:href="#m1f48eaebac" x="48.068329" y="189.01253" style="fill-opacity: 0; stroke: #1f77b4"/>
     <use xlink:href="#m1f48eaebac" x="49.471084" y="189.933397" style="fill-opacity: 0; stroke: #1f77b4"/>
     <use xlink:href="#m1f48eaebac" x="50.873317" y="190.736447" style="fill-opacity: 0; stroke: #1f77b4"/>
     <use xlink:href="#m1f48eaebac" x="52.276072" y="189.779489" style="fill-opacity: 0; stroke: #1f77b4"/>
     <use xlink:href="#m1f48eaebac" x="53.678305" y="187.683756" style="fill-opacity: 0; stroke: #1f77b4"/>
     <use xlink:href="#m1f48eaebac" x="55.08106" y="182.063116" style="fill-opacity: 0; stroke: #1f77b4"/>
     <use xlink:href="#m1f48eaebac" x="56.484859" y="180.528777" style="fill-opacity: 0; stroke: #1f77b4"/>
     <use xlink:href="#m1f48eaebac" x="57.887614" y="179.105994" style="fill-opacity: 0; stroke: #1f77b4"/>
     <use xlink:href="#m1f48eaebac" x="59.289847" y="177.488731" style="fill-opacity: 0; stroke: #1f77b4"/>
     <use xlink:href="#m1f48eaebac" x="60.694169" y="181.148286" style="fill-opacity: 0; stroke: #1f77b4"/>
     <use xlink:href="#m1f48eaebac" x="62.096924" y="185.571563" style="fill-opacity: 0; stroke: #1f77b4"/>
     <use xlink:href="#m1f48eaebac" x="63.500723" y="190.226579" style="fill-opacity: 0; stroke: #1f77b4"/>
     <use xlink:href="#m1f48eaebac" x="64.903479" y="192.946126" style="fill-opacity: 0; stroke: #1f77b4"/>
     <use xlink:href="#m1f48eaebac" x="66.307278" y="194.858973" style="fill-opacity: 0; stroke: #1f77b4"/>
     <use xlink:href="#m1f48eaebac" x="67.7116" y="193.810491" style="fill-opacity: 0; stroke: #1f77b4"/>
     <use xlink:href="#m1f48eaebac" x="69.113833" y="188.864606" style="fill-opacity: 0; stroke: #1f77b4"/>
     <use xlink:href="#m1f48eaebac" x="70.518155" y="178.292434" style="fill-opacity: 0; stroke: #1f77b4"/>
     <use xlink:href="#m1f48eaebac" x="71.922476" y="164.417806" style="fill-opacity: 0; stroke: #1f77b4"/>
     <use xlink:href="#m1f48eaebac" x="73.326276" y="157.452294" style="fill-opacity: 0; stroke: #1f77b4"/>
     <use xlink:href="#m1f48eaebac" x="74.730598" y="162.914815" style="fill-opacity: 0; stroke: #1f77b4"/>
     <use xlink:href="#m1f48eaebac" x="76.134397" y="156.721358" style="fill-opacity: 0; stroke: #1f77b4"/>
     <use xlink:href="#m1f48eaebac" x="77.538719" y="143.409148" style="fill-opacity: 0; stroke: #1f77b4"/>
     <use xlink:href="#m1f48eaebac" x="78.943041" y="149.603983" style="fill-opacity: 0; stroke: #1f77b4"/>
     <use xlink:href="#m1f48eaebac" x="80.348407" y="162.724174" style="fill-opacity: 0; stroke: #1f77b4"/>
     <use xlink:href="#m1f48eaebac" x="81.752729" y="181.079048" style="fill-opacity: 0; stroke: #1f77b4"/>
     <use xlink:href="#m1f48eaebac" x="83.157051" y="187.485186" style="fill-opacity: 0; stroke: #1f77b4"/>
     <use xlink:href="#m1f48eaebac" x="84.562417" y="190.788004" style="fill-opacity: 0; stroke: #1f77b4"/>
     <use xlink:href="#m1f48eaebac" x="85.966739" y="192.152421" style="fill-opacity: 0; stroke: #1f77b4"/>
     <use xlink:href="#m1f48eaebac" x="87.372105" y="191.071776" style="fill-opacity: 0; stroke: #1f77b4"/>
     <use xlink:href="#m1f48eaebac" x="88.776427" y="188.039939" style="fill-opacity: 0; stroke: #1f77b4"/>
     <use xlink:href="#m1f48eaebac" x="90.182316" y="182.909083" style="fill-opacity: 0; stroke: #1f77b4"/>
     <use xlink:href="#m1f48eaebac" x="91.586115" y="175.200579" style="fill-opacity: 0; stroke: #1f77b4"/>
     <use xlink:href="#m1f48eaebac" x="92.992004" y="169.642199" style="fill-opacity: 0; stroke: #1f77b4"/>
     <use xlink:href="#m1f48eaebac" x="94.397892" y="170.933871" style="fill-opacity: 0; stroke: #1f77b4"/>
     <use xlink:href="#m1f48eaebac" x="95.803258" y="176.627464" style="fill-opacity: 0; stroke: #1f77b4"/>
     <use xlink:href="#m1f48eaebac" x="97.209147" y="184.154995" style="fill-opacity: 0; stroke: #1f77b4"/>
     <use xlink:href="#m1f48eaebac" x="98.615036" y="188.403891" style="fill-opacity: 0; stroke: #1f77b4"/>
     <use xlink:href="#m1f48eaebac" x="100.020402" y="185.679958" style="fill-opacity: 0; stroke: #1f77b4"/>
     <use xlink:href="#m1f48eaebac" x="101.42629" y="176.751499" style="fill-opacity: 0; stroke: #1f77b4"/>
     <use xlink:href="#m1f48eaebac" x="102.831657" y="164.786819" style="fill-opacity: 0; stroke: #1f77b4"/>
     <use xlink:href="#m1f48eaebac" x="104.237545" y="155.96654" style="fill-opacity: 0; stroke: #1f77b4"/>
     <use xlink:href="#m1f48eaebac" x="105.643434" y="154.997441" style="fill-opacity: 0; stroke: #1f77b4"/>
     <use xlink:href="#m1f48eaebac" x="107.050367" y="160.373766" style="fill-opacity: 0; stroke: #1f77b4"/>
     <use xlink:href="#m1f48eaebac" x="108.456255" y="167.205392" style="fill-opacity: 0; stroke: #1f77b4"/>
     <use xlink:href="#m1f48eaebac" x="109.862144" y="174.001244" style="fill-opacity: 0; stroke: #1f77b4"/>
     <use xlink:href="#m1f48eaebac" x="111.269077" y="179.145123" style="fill-opacity: 0; stroke: #1f77b4"/>
     <use xlink:href="#m1f48eaebac" x="112.674966" y="183.292283" style="fill-opacity: 0; stroke: #1f77b4"/>
     <use xlink:href="#m1f48eaebac" x="114.082421" y="181.442604" style="fill-opacity: 0; stroke: #1f77b4"/>
     <use xlink:href="#m1f48eaebac" x="115.489876" y="175.874364" style="fill-opacity: 0; stroke: #1f77b4"/>
     <use xlink:href="#m1f48eaebac" x="116.895242" y="172.82736" style="fill-opacity: 0; stroke: #1f77b4"/>
     <use xlink:href="#m1f48eaebac" x="118.302698" y="170.267971" style="fill-opacity: 0; stroke: #1f77b4"/>
     <use xlink:href="#m1f48eaebac" x="119.710153" y="156.619098" style="fill-opacity: 0; stroke: #1f77b4"/>
     <use xlink:href="#m1f48eaebac" x="121.117086" y="132.254459" style="fill-opacity: 0; stroke: #1f77b4"/>
     <use xlink:href="#m1f48eaebac" x="122.524541" y="123.145445" style="fill-opacity: 0; stroke: #1f77b4"/>
     <use xlink:href="#m1f48eaebac" x="123.931997" y="136.07698" style="fill-opacity: 0; stroke: #1f77b4"/>
     <use xlink:href="#m1f48eaebac" x="125.33893" y="161.777473" style="fill-opacity: 0; stroke: #1f77b4"/>
     <use xlink:href="#m1f48eaebac" x="126.746385" y="178.105017" style="fill-opacity: 0; stroke: #1f77b4"/>
     <use xlink:href="#m1f48eaebac" x="128.15384" y="182.737999" style="fill-opacity: 0; stroke: #1f77b4"/>
     <use xlink:href="#m1f48eaebac" x="129.560773" y="186.510953" style="fill-opacity: 0; stroke: #1f77b4"/>
     <use xlink:href="#m1f48eaebac" x="130.969795" y="187.322544" style="fill-opacity: 0; stroke: #1f77b4"/>
     <use xlink:href="#m1f48eaebac" x="132.377251" y="182.437872" style="fill-opacity: 0; stroke: #1f77b4"/>
     <use xlink:href="#m1f48eaebac" x="133.784706" y="166.626148" style="fill-opacity: 0; stroke: #1f77b4"/>
     <use xlink:href="#m1f48eaebac" x="135.193206" y="153.589876" style="fill-opacity: 0; stroke: #1f77b4"/>
     <use xlink:href="#m1f48eaebac" x="136.600661" y="145.217135" style="fill-opacity: 0; stroke: #1f77b4"/>
     <use xlink:href="#m1f48eaebac" x="138.009683" y="149.20853" style="fill-opacity: 0; stroke: #1f77b4"/>
     <use xlink:href="#m1f48eaebac" x="139.418705" y="152.25384" style="fill-opacity: 0; stroke: #1f77b4"/>
     <use xlink:href="#m1f48eaebac" x="140.825638" y="152.213452" style="fill-opacity: 0; stroke: #1f77b4"/>
     <use xlink:href="#m1f48eaebac" x="142.23466" y="154.190494" style="fill-opacity: 0; stroke: #1f77b4"/>
     <use xlink:href="#m1f48eaebac" x="143.643682" y="151.13055" style="fill-opacity: 0; stroke: #1f77b4"/>
     <use xlink:href="#m1f48eaebac" x="145.052704" y="147.872724" style="fill-opacity: 0; stroke: #1f77b4"/>
     <use xlink:href="#m1f48eaebac" x="146.461204" y="161.56852" style="fill-opacity: 0; stroke: #1f77b4"/>
     <use xlink:href="#m1f48eaebac" x="147.868659" y="177.729649" style="fill-opacity: 0; stroke: #1f77b4"/>
     <use xlink:href="#m1f48eaebac" x="149.277681" y="190.401033" style="fill-opacity: 0; stroke: #1f77b4"/>
     <use xlink:href="#m1f48eaebac" x="150.68827" y="193.022273" style="fill-opacity: 0; stroke: #1f77b4"/>
     <use xlink:href="#m1f48eaebac" x="152.09677" y="188.559755" style="fill-opacity: 0; stroke: #1f77b4"/>
     <use xlink:href="#m1f48eaebac" x="153.505792" y="180.088336" style="fill-opacity: 0; stroke: #1f77b4"/>
     <use xlink:href="#m1f48eaebac" x="154.914814" y="176.079966" style="fill-opacity: 0; stroke: #1f77b4"/>
     <use xlink:href="#m1f48eaebac" x="156.323836" y="180.845997" style="fill-opacity: 0; stroke: #1f77b4"/>
     <use xlink:href="#m1f48eaebac" x="157.733902" y="188.637203" style="fill-opacity: 0; stroke: #1f77b4"/>
     <use xlink:href="#m1f48eaebac" x="159.142924" y="192.50382" style="fill-opacity: 0; stroke: #1f77b4"/>
     <use xlink:href="#m1f48eaebac" x="160.553513" y="193.536465" style="fill-opacity: 0; stroke: #1f77b4"/>
     <use xlink:href="#m1f48eaebac" x="161.962535" y="192.762274" style="fill-opacity: 0; stroke: #1f77b4"/>
     <use xlink:href="#m1f48eaebac" x="163.373124" y="190.965713" style="fill-opacity: 0; stroke: #1f77b4"/>
     <use xlink:href="#m1f48eaebac" x="164.78319" y="185.041945" style="fill-opacity: 0; stroke: #1f77b4"/>
     <use xlink:href="#m1f48eaebac" x="166.192212" y="169.224314" style="fill-opacity: 0; stroke: #1f77b4"/>
     <use xlink:href="#m1f48eaebac" x="167.602801" y="154.756305" style="fill-opacity: 0; stroke: #1f77b4"/>
     <use xlink:href="#m1f48eaebac" x="169.01339" y="153.3172" style="fill-opacity: 0; stroke: #1f77b4"/>
     <use xlink:href="#m1f48eaebac" x="170.423979" y="159.802063" style="fill-opacity: 0; stroke: #1f77b4"/>
     <use xlink:href="#m1f48eaebac" x="171.834045" y="166.374631" style="fill-opacity: 0; stroke: #1f77b4"/>
     <use xlink:href="#m1f48eaebac" x="173.244634" y="167.252724" style="fill-opacity: 0; stroke: #1f77b4"/>
     <use xlink:href="#m1f48eaebac" x="174.655223" y="161.938433" style="fill-opacity: 0; stroke: #1f77b4"/>
     <use xlink:href="#m1f48eaebac" x="176.065812" y="161.453938" style="fill-opacity: 0; stroke: #1f77b4"/>
     <use xlink:href="#m1f48eaebac" x="177.4764" y="168.912702" style="fill-opacity: 0; stroke: #1f77b4"/>
     <use xlink:href="#m1f48eaebac" x="178.886467" y="181.288958" style="fill-opacity: 0; stroke: #1f77b4"/>
     <use xlink:href="#m1f48eaebac" x="180.297056" y="189.571871" style="fill-opacity: 0; stroke: #1f77b4"/>
     <use xlink:href="#m1f48eaebac" x="181.709211" y="192.845783" style="fill-opacity: 0; stroke: #1f77b4"/>
     <use xlink:href="#m1f48eaebac" x="183.1198" y="192.362939" style="fill-opacity: 0; stroke: #1f77b4"/>
     <use xlink:href="#m1f48eaebac" x="184.531955" y="198.117973" style="fill-opacity: 0; stroke: #1f77b4"/>
     <use xlink:href="#m1f48eaebac" x="185.942022" y="204.531865" style="fill-opacity: 0; stroke: #1f77b4"/>
     <use xlink:href="#m1f48eaebac" x="187.354177" y="212.496558" style="fill-opacity: 0; stroke: #1f77b4"/>
     <use xlink:href="#m1f48eaebac" x="188.764766" y="207.707303" style="fill-opacity: 0; stroke: #1f77b4"/>
     <use xlink:href="#m1f48eaebac" x="190.176922" y="200.185748" style="fill-opacity: 0; stroke: #1f77b4"/>
     <use xlink:href="#m1f48eaebac" x="191.589077" y="190.452985" style="fill-opacity: 0; stroke: #1f77b4"/>
     <use xlink:href="#m1f48eaebac" x="193.001233" y="190.463427" style="fill-opacity: 0; stroke: #1f77b4"/>
     <use xlink:href="#m1f48eaebac" x="194.411821" y="192.905518" style="fill-opacity: 0; stroke: #1f77b4"/>
     <use xlink:href="#m1f48eaebac" x="195.823455" y="197.281135" style="fill-opacity: 0; stroke: #1f77b4"/>
     <use xlink:href="#m1f48eaebac" x="197.23561" y="200.300281" style="fill-opacity: 0; stroke: #1f77b4"/>
     <use xlink:href="#m1f48eaebac" x="198.647766" y="201.792156" style="fill-opacity: 0; stroke: #1f77b4"/>
     <use xlink:href="#m1f48eaebac" x="200.059921" y="203.316266" style="fill-opacity: 0; stroke: #1f77b4"/>
     <use xlink:href="#m1f48eaebac" x="201.473644" y="202.222847" style="fill-opacity: 0; stroke: #1f77b4"/>
     <use xlink:href="#m1f48eaebac" x="202.885799" y="203.722051" style="fill-opacity: 0; stroke: #1f77b4"/>
     <use xlink:href="#m1f48eaebac" x="204.297955" y="209.282637" style="fill-opacity: 0; stroke: #1f77b4"/>
     <use xlink:href="#m1f48eaebac" x="205.709588" y="210.20008" style="fill-opacity: 0; stroke: #1f77b4"/>
     <use xlink:href="#m1f48eaebac" x="207.12331" y="207.371572" style="fill-opacity: 0; stroke: #1f77b4"/>
     <use xlink:href="#m1f48eaebac" x="208.535466" y="205.105586" style="fill-opacity: 0; stroke: #1f77b4"/>
     <use xlink:href="#m1f48eaebac" x="209.949188" y="204.839372" style="fill-opacity: 0; stroke: #1f77b4"/>
     <use xlink:href="#m1f48eaebac" x="211.361343" y="203.644168" style="fill-opacity: 0; stroke: #1f77b4"/>
     <use xlink:href="#m1f48eaebac" x="212.775066" y="202.465425" style="fill-opacity: 0; stroke: #1f77b4"/>
     <use xlink:href="#m1f48eaebac" x="214.187221" y="200.912986" style="fill-opacity: 0; stroke: #1f77b4"/>
     <use xlink:href="#m1f48eaebac" x="215.600943" y="199.018858" style="fill-opacity: 0; stroke: #1f77b4"/>
     <use xlink:href="#m1f48eaebac" x="217.014666" y="197.268268" style="fill-opacity: 0; stroke: #1f77b4"/>
     <use xlink:href="#m1f48eaebac" x="218.427866" y="192.973063" style="fill-opacity: 0; stroke: #1f77b4"/>
     <use xlink:href="#m1f48eaebac" x="219.841588" y="185.064825" style="fill-opacity: 0; stroke: #1f77b4"/>
     <use xlink:href="#m1f48eaebac" x="221.25531" y="178.34692" style="fill-opacity: 0; stroke: #1f77b4"/>
     <use xlink:href="#m1f48eaebac" x="222.669032" y="177.446518" style="fill-opacity: 0; stroke: #1f77b4"/>
     <use xlink:href="#m1f48eaebac" x="224.082755" y="177.285515" style="fill-opacity: 0; stroke: #1f77b4"/>
     <use xlink:href="#m1f48eaebac" x="225.496477" y="172.841812" style="fill-opacity: 0; stroke: #1f77b4"/>
     <use xlink:href="#m1f48eaebac" x="226.910199" y="168.422573" style="fill-opacity: 0; stroke: #1f77b4"/>
     <use xlink:href="#m1f48eaebac" x="228.323921" y="167.362873" style="fill-opacity: 0; stroke: #1f77b4"/>
     <use xlink:href="#m1f48eaebac" x="229.737644" y="165.891446" style="fill-opacity: 0; stroke: #1f77b4"/>
     <use xlink:href="#m1f48eaebac" x="231.152933" y="168.80175" style="fill-opacity: 0; stroke: #1f77b4"/>
     <use xlink:href="#m1f48eaebac" x="232.566655" y="173.159986" style="fill-opacity: 0; stroke: #1f77b4"/>
     <use xlink:href="#m1f48eaebac" x="233.981944" y="172.463303" style="fill-opacity: 0; stroke: #1f77b4"/>
     <use xlink:href="#m1f48eaebac" x="235.395144" y="167.430242" style="fill-opacity: 0; stroke: #1f77b4"/>
     <use xlink:href="#m1f48eaebac" x="236.810433" y="166.369847" style="fill-opacity: 0; stroke: #1f77b4"/>
     <use xlink:href="#m1f48eaebac" x="238.224155" y="166.859129" style="fill-opacity: 0; stroke: #1f77b4"/>
     <use xlink:href="#m1f48eaebac" x="239.639444" y="167.679035" style="fill-opacity: 0; stroke: #1f77b4"/>
     <use xlink:href="#m1f48eaebac" x="241.054733" y="168.525632" style="fill-opacity: 0; stroke: #1f77b4"/>
     <use xlink:href="#m1f48eaebac" x="242.470022" y="164.121573" style="fill-opacity: 0; stroke: #1f77b4"/>
     <use xlink:href="#m1f48eaebac" x="243.883744" y="159.221731" style="fill-opacity: 0; stroke: #1f77b4"/>
     <use xlink:href="#m1f48eaebac" x="245.299033" y="157.745057" style="fill-opacity: 0; stroke: #1f77b4"/>
     <use xlink:href="#m1f48eaebac" x="246.714322" y="184.749261" style="fill-opacity: 0; stroke: #1f77b4"/>
     <use xlink:href="#m1f48eaebac" x="248.129611" y="186.634544" style="fill-opacity: 0; stroke: #1f77b4"/>
     <use xlink:href="#m1f48eaebac" x="249.5449" y="187.107161" style="fill-opacity: 0; stroke: #1f77b4"/>
     <use xlink:href="#m1f48eaebac" x="250.961756" y="185.323001" style="fill-opacity: 0; stroke: #1f77b4"/>
     <use xlink:href="#m1f48eaebac" x="252.377045" y="180.000526" style="fill-opacity: 0; stroke: #1f77b4"/>
     <use xlink:href="#m1f48eaebac" x="253.792334" y="173.430045" style="fill-opacity: 0; stroke: #1f77b4"/>
     <use xlink:href="#m1f48eaebac" x="255.207623" y="172.00895" style="fill-opacity: 0; stroke: #1f77b4"/>
     <use xlink:href="#m1f48eaebac" x="256.624479" y="173.323069" style="fill-opacity: 0; stroke: #1f77b4"/>
     <use xlink:href="#m1f48eaebac" x="258.039768" y="172.538193" style="fill-opacity: 0; stroke: #1f77b4"/>
     <use xlink:href="#m1f48eaebac" x="259.456623" y="205.930523" style="fill-opacity: 0; stroke: #1f77b4"/>
     <use xlink:href="#m1f48eaebac" x="260.871912" y="205.559831" style="fill-opacity: 0; stroke: #1f77b4"/>
     <use xlink:href="#m1f48eaebac" x="262.288768" y="204.894919" style="fill-opacity: 0; stroke: #1f77b4"/>
     <use xlink:href="#m1f48eaebac" x="263.704057" y="204.630191" style="fill-opacity: 0; stroke: #1f77b4"/>
     <use xlink:href="#m1f48eaebac" x="265.120913" y="203.563334" style="fill-opacity: 0; stroke: #1f77b4"/>
     <use xlink:href="#m1f48eaebac" x="266.537769" y="202.421679" style="fill-opacity: 0; stroke: #1f77b4"/>
     <use xlink:href="#m1f48eaebac" x="267.954624" y="202.867183" style="fill-opacity: 0; stroke: #1f77b4"/>
     <use xlink:href="#m1f48eaebac" x="269.37148" y="203.834055" style="fill-opacity: 0; stroke: #1f77b4"/>
     <use xlink:href="#m1f48eaebac" x="270.788336" y="202.696576" style="fill-opacity: 0; stroke: #1f77b4"/>
     <use xlink:href="#m1f48eaebac" x="272.205191" y="200.644158" style="fill-opacity: 0; stroke: #1f77b4"/>
     <use xlink:href="#m1f48eaebac" x="273.622047" y="197.830239" style="fill-opacity: 0; stroke: #1f77b4"/>
     <use xlink:href="#m1f48eaebac" x="275.038903" y="195.740765" style="fill-opacity: 0; stroke: #1f77b4"/>
     <use xlink:href="#m1f48eaebac" x="276.455759" y="195.60537" style="fill-opacity: 0; stroke: #1f77b4"/>
     <use xlink:href="#m1f48eaebac" x="277.872614" y="194.069805" style="fill-opacity: 0; stroke: #1f77b4"/>
     <use xlink:href="#m1f48eaebac" x="279.291037" y="190.029976" style="fill-opacity: 0; stroke: #1f77b4"/>
     <use xlink:href="#m1f48eaebac" x="280.707893" y="186.294049" style="fill-opacity: 0; stroke: #1f77b4"/>
     <use xlink:href="#m1f48eaebac" x="282.124748" y="183.465691" style="fill-opacity: 0; stroke: #1f77b4"/>
     <use xlink:href="#m1f48eaebac" x="283.543171" y="178.957637" style="fill-opacity: 0; stroke: #1f77b4"/>
     <use xlink:href="#m1f48eaebac" x="284.960026" y="171.933922" style="fill-opacity: 0; stroke: #1f77b4"/>
     <use xlink:href="#m1f48eaebac" x="286.378449" y="158.481355" style="fill-opacity: 0; stroke: #1f77b4"/>
     <use xlink:href="#m1f48eaebac" x="287.796871" y="134.539893" style="fill-opacity: 0; stroke: #1f77b4"/>
     <use xlink:href="#m1f48eaebac" x="289.213727" y="69.592749" style="fill-opacity: 0; stroke: #1f77b4"/>
     <use xlink:href="#m1f48eaebac" x="289.674891" y="-1" style="fill-opacity: 0; stroke: #1f77b4"/>
     <use xlink:href="#m1f48eaebac" x="300.291915" y="-1" style="fill-opacity: 0; stroke: #1f77b4"/>
     <use xlink:href="#m1f48eaebac" x="300.561629" y="41.470947" style="fill-opacity: 0; stroke: #1f77b4"/>
     <use xlink:href="#m1f48eaebac" x="301.980052" y="103.747716" style="fill-opacity: 0; stroke: #1f77b4"/>
     <use xlink:href="#m1f48eaebac" x="303.398474" y="132.135456" style="fill-opacity: 0; stroke: #1f77b4"/>
     <use xlink:href="#m1f48eaebac" x="304.818463" y="155.005131" style="fill-opacity: 0; stroke: #1f77b4"/>
     <use xlink:href="#m1f48eaebac" x="306.236886" y="172.503168" style="fill-opacity: 0; stroke: #1f77b4"/>
     <use xlink:href="#m1f48eaebac" x="307.656875" y="182.694794" style="fill-opacity: 0; stroke: #1f77b4"/>
     <use xlink:href="#m1f48eaebac" x="309.075297" y="187.389397" style="fill-opacity: 0; stroke: #1f77b4"/>
     <use xlink:href="#m1f48eaebac" x="310.495287" y="189.672297" style="fill-opacity: 0; stroke: #1f77b4"/>
     <use xlink:href="#m1f48eaebac" x="311.913709" y="189.989575" style="fill-opacity: 0; stroke: #1f77b4"/>
     <use xlink:href="#m1f48eaebac" x="313.334221" y="190.185205" style="fill-opacity: 0; stroke: #1f77b4"/>
     <use xlink:href="#m1f48eaebac" x="314.75421" y="191.317092" style="fill-opacity: 0; stroke: #1f77b4"/>
     <use xlink:href="#m1f48eaebac" x="316.172632" y="191.020105" style="fill-opacity: 0; stroke: #1f77b4"/>
     <use xlink:href="#m1f48eaebac" x="317.592621" y="192.109426" style="fill-opacity: 0; stroke: #1f77b4"/>
     <use xlink:href="#m1f48eaebac" x="319.012611" y="194.297619" style="fill-opacity: 0; stroke: #1f77b4"/>
     <use xlink:href="#m1f48eaebac" x="320.4326" y="194.961029" style="fill-opacity: 0; stroke: #1f77b4"/>
    </g>
   </g>
   <g id="line2d_2">
    <path d="M 34.04809 214.785557 
L 41.057165 214.325674 
L 46.665574 213.744644 
L 50.873317 213.070633 
L 53.678305 212.418821 
L 56.484859 211.488735 
L 57.887614 210.862529 
L 59.289847 210.077941 
L 60.694169 209.071232 
L 62.096924 207.749938 
L 63.500723 205.961594 
L 64.903479 203.465296 
L 66.307278 199.856195 
L 67.7116 194.493838 
L 69.113833 186.550574 
L 71.922476 165.065462 
L 73.326276 160.363527 
L 74.730598 159.92938 
L 76.134397 155.22149 
L 77.538719 145.925537 
L 78.943041 147.88422 
L 80.348407 164.32267 
L 81.752729 179.15156 
L 83.157051 187.894958 
L 84.562417 192.248746 
L 85.966739 193.672989 
L 87.372105 192.711875 
L 88.776427 189.186065 
L 90.182316 182.558795 
L 91.586115 173.765675 
L 92.992004 168.827379 
L 94.397892 172.739321 
L 95.803258 179.351801 
L 97.209147 183.140208 
L 98.615036 183.404381 
L 100.020402 180.592856 
L 101.42629 175.058166 
L 104.237545 159.806725 
L 105.643434 155.765077 
L 107.050367 157.99952 
L 108.456255 164.934371 
L 109.862144 172.800621 
L 111.269077 179.134074 
L 112.674966 183.133351 
L 114.082421 184.674689 
L 115.489876 183.536052 
L 116.895242 178.981362 
L 118.302698 169.366691 
L 119.710153 152.537524 
L 121.117086 131.082186 
L 122.524541 123.421067 
L 123.931997 140.061593 
L 125.33893 160.847891 
L 126.746385 174.512576 
L 128.15384 181.679514 
L 129.560773 184.336558 
L 130.969795 183.412522 
L 132.377251 178.805664 
L 133.784706 169.757411 
L 135.193206 156.492102 
L 136.600661 144.99259 
L 138.009683 145.189059 
L 139.418705 153.351354 
L 140.825638 157.821557 
L 142.23466 154.145421 
L 143.643682 146.885159 
L 145.052704 150.055658 
L 146.461204 164.548044 
L 147.868659 177.739302 
L 149.277681 185.656477 
L 150.68827 189.070308 
L 152.09677 188.33009 
L 153.505792 182.583373 
L 154.914814 175.390306 
L 156.323836 180.263548 
L 157.733902 189.233729 
L 159.142924 193.814077 
L 160.553513 195.033567 
L 161.962535 193.91658 
L 163.373124 190.37603 
L 164.78319 183.192328 
L 166.192212 170.138715 
L 167.602801 154.163787 
L 169.01339 153.237869 
L 170.423979 161.684879 
L 171.834045 164.736247 
L 173.244634 163.698249 
L 174.655223 162.951869 
L 176.065812 165.492095 
L 177.4764 171.353471 
L 180.297056 185.18019 
L 181.709211 190.617877 
L 183.1198 194.783593 
L 184.531955 197.904988 
L 185.942022 200.219782 
L 187.354177 201.93784 
L 188.764766 203.20572 
L 190.176922 204.135066 
L 191.589077 204.801347 
L 193.001233 205.258863 
L 194.411821 205.545477 
L 195.823455 205.688265 
L 197.23561 205.704946 
L 200.059921 205.401513 
L 202.885799 204.674092 
L 205.709588 203.507076 
L 207.12331 202.739577 
L 208.535466 201.835796 
L 209.949188 200.778983 
L 211.361343 199.554099 
L 212.775066 198.138602 
L 214.187221 196.514009 
L 215.600943 194.654411 
L 217.014666 192.540642 
L 218.427866 190.157835 
L 219.841588 187.499035 
L 222.669032 181.439204 
L 226.910199 171.812346 
L 228.323921 169.157011 
L 229.737644 167.166999 
L 231.152933 166.035848 
L 232.566655 165.855915 
L 233.981944 166.57084 
L 235.395144 167.966205 
L 236.810433 169.68489 
L 238.224155 171.193957 
L 239.639444 171.664688 
L 241.054733 169.591054 
L 243.883744 156.498008 
L 245.299033 165.163692 
L 246.714322 177.065878 
L 248.129611 183.78357 
L 249.5449 186.63977 
L 250.961756 186.508384 
L 252.377045 182.921755 
L 253.792334 175.152805 
L 255.207623 168.112909 
L 256.624479 173.445557 
L 258.039768 185.073878 
L 259.456623 193.637855 
L 260.871912 198.852418 
L 262.288768 202.121318 
L 263.704057 204.311735 
L 265.120913 205.883243 
L 266.537769 207.071784 
L 267.954624 208.009365 
L 270.788336 209.411561 
L 273.622047 210.425442 
L 276.455759 211.201335 
L 280.707893 212.08125 
L 284.960026 212.738032 
L 290.63215 213.391414 
L 297.724784 213.978826 
L 307.656875 214.541808 
L 320.4326 215.01094 
L 320.4326 215.01094 
" clip-path="url(#p8157bbf28c)" style="fill: none; stroke: #ff0000; stroke-width: 1.5; stroke-linecap: square"/>
   </g>
   <g id="line2d_3">
    <path d="M 294.887417 216.404326 
L 294.887417 17.735865 
" clip-path="url(#p8157bbf28c)" style="fill: none; stroke-dasharray: 3.7,1.6; stroke-dashoffset: 0; stroke: #808080"/>
   </g>
   <g id="patch_3">
    <path d="M 33.763987 216.404326 
L 33.763987 17.735865 
" style="fill: none; stroke: #000000; stroke-linejoin: miter; stroke-linecap: square"/>
   </g>
   <g id="patch_4">
    <path d="M 320.99976 216.404326 
L 320.99976 17.735865 
" style="fill: none; stroke: #000000; stroke-linejoin: miter; stroke-linecap: square"/>
   </g>
   <g id="patch_5">
    <path d="M 33.763987 216.404326 
L 320.99976 216.404326 
" style="fill: none; stroke: #000000; stroke-linejoin: miter; stroke-linecap: square"/>
   </g>
   <g id="patch_6">
    <path d="M 33.763987 17.735865 
L 320.99976 17.735865 
" style="fill: none; stroke: #000000; stroke-linejoin: miter; stroke-linecap: square"/>
   </g>
   <g id="matplotlib.axis_1">
    <g id="xtick_1">
     <g id="line2d_4">
      <defs>
       <path id="m3b318e2d75" d="M 0 0 
L 0 3.75 
" style="stroke: #000000; stroke-width: 1.25"/>
      </defs>
      <g>
       <use xlink:href="#m3b318e2d75" x="33.763987" y="216.404326" style="stroke: #000000; stroke-width: 1.25"/>
      </g>
     </g>
     <g id="text_1">
      <!-- $\mathdefault{429}$ -->
      <g transform="translate(24.578987 231.52792)">
       <text>
        <tspan style="font: 11px 'Arial'" x="0 6.117676 12.235352" y="-0.09375">429</tspan>
       </text>
      </g>
     </g>
    </g>
    <g id="xtick_2">
     <g id="line2d_5">
      <g>
       <use xlink:href="#m3b318e2d75" x="85.988673" y="216.404326" style="stroke: #000000; stroke-width: 1.25"/>
      </g>
     </g>
     <g id="text_2">
      <!-- $\mathdefault{430}$ -->
      <g transform="translate(76.803673 231.52792)">
       <text>
        <tspan style="font: 11px 'Arial'" x="0 6.117676 12.235352" y="-0.09375">430</tspan>
       </text>
      </g>
     </g>
    </g>
    <g id="xtick_3">
     <g id="line2d_6">
      <g>
       <use xlink:href="#m3b318e2d75" x="138.213359" y="216.404326" style="stroke: #000000; stroke-width: 1.25"/>
      </g>
     </g>
     <g id="text_3">
      <!-- $\mathdefault{431}$ -->
      <g transform="translate(129.028359 231.52792)">
       <text>
        <tspan style="font: 11px 'Arial'" x="0 6.117676 12.235352" y="-0.09375">431</tspan>
       </text>
      </g>
     </g>
    </g>
    <g id="xtick_4">
     <g id="line2d_7">
      <g>
       <use xlink:href="#m3b318e2d75" x="190.438045" y="216.404326" style="stroke: #000000; stroke-width: 1.25"/>
      </g>
     </g>
     <g id="text_4">
      <!-- $\mathdefault{432}$ -->
      <g transform="translate(181.253045 231.52792)">
       <text>
        <tspan style="font: 11px 'Arial'" x="0 6.117676 12.235352" y="-0.09375">432</tspan>
       </text>
      </g>
     </g>
    </g>
    <g id="xtick_5">
     <g id="line2d_8">
      <g>
       <use xlink:href="#m3b318e2d75" x="242.662731" y="216.404326" style="stroke: #000000; stroke-width: 1.25"/>
      </g>
     </g>
     <g id="text_5">
      <!-- $\mathdefault{433}$ -->
      <g transform="translate(233.477731 231.52792)">
       <text>
        <tspan style="font: 11px 'Arial'" x="0 6.117676 12.235352" y="-0.09375">433</tspan>
       </text>
      </g>
     </g>
    </g>
    <g id="xtick_6">
     <g id="line2d_9">
      <g>
       <use xlink:href="#m3b318e2d75" x="294.887417" y="216.404326" style="stroke: #000000; stroke-width: 1.25"/>
      </g>
     </g>
     <g id="text_6">
      <!-- $\mathdefault{434}$ -->
      <g transform="translate(285.702417 231.52792)">
       <text>
        <tspan style="font: 11px 'Arial'" x="0 6.117676 12.235352" y="-0.09375">434</tspan>
       </text>
      </g>
     </g>
    </g>
    <g id="text_7">
     <!-- $\lambda$ {\sffamily (nm)} -->
     <g transform="translate(159.586736 246.411565) scale(0.12 -0.12)">
      <defs>
       <path id="StandardSymL-6c" d="M 480 3650 
C 525 4013 710 4224 998 4224 
C 1203 4224 1376 4064 1472 3778 
C 1517 3650 1574 3440 1632 3198 
L 154 19 
L 755 19 
L 1843 2301 
C 2048 1059 2150 607 2266 358 
C 2406 83 2611 -64 2848 -64 
C 3098 -64 3296 89 3405 371 
C 3475 543 3501 715 3507 1014 
L 3373 1014 
C 3322 683 3174 499 2944 499 
C 2752 499 2586 620 2483 843 
C 2400 1008 2355 1174 2266 1645 
L 2093 2466 
C 2086 2485 2080 2530 2067 2594 
C 1920 3415 1690 4192 1536 4422 
C 1395 4627 1203 4736 992 4736 
C 602 4736 397 4403 326 3650 
L 480 3650 
z
" transform="scale(0.015625)"/>
       <path id="NimbusSanL-Regu-28" d="M 1510 4672 
C 870 3833 467 2668 467 1663 
C 467 652 870 -513 1510 -1351 
L 1862 -1351 
C 1299 -436 986 639 986 1663 
C 986 2681 1299 3763 1862 4672 
L 1510 4672 
z
" transform="scale(0.015625)"/>
       <path id="NimbusSanL-Regu-6e" d="M 448 3328 
L 448 0 
L 986 0 
L 986 1835 
C 986 2539 1344 2988 1894 2988 
C 2317 2988 2586 2732 2586 2328 
L 2586 0 
L 3117 0 
L 3117 2539 
C 3117 3097 2701 3456 2054 3456 
C 1555 3456 1235 3263 941 2796 
L 941 3328 
L 448 3328 
z
" transform="scale(0.015625)"/>
       <path id="NimbusSanL-Regu-6d" d="M 448 3328 
L 448 0 
L 986 0 
L 986 2089 
C 986 2597 1338 2988 1773 2988 
C 2170 2988 2394 2744 2394 2315 
L 2394 0 
L 2931 0 
L 2931 2109 
C 2931 2597 3283 2988 3718 2988 
C 4109 2988 4339 2738 4339 2315 
L 4339 0 
L 4877 0 
L 4877 2520 
C 4877 3123 4531 3456 3904 3456 
C 3456 3456 3187 3321 2874 2943 
C 2675 3302 2406 3456 1971 3456 
C 1523 3456 1229 3289 941 2886 
L 941 3328 
L 448 3328 
z
" transform="scale(0.015625)"/>
       <path id="NimbusSanL-Regu-29" d="M 595 -1351 
C 1235 -513 1638 652 1638 1657 
C 1638 2668 1235 3833 595 4672 
L 243 4672 
C 806 3756 1120 2681 1120 1657 
C 1120 639 806 -442 243 -1351 
L 595 -1351 
z
" transform="scale(0.015625)"/>
      </defs>
      <use xlink:href="#StandardSymL-6c" transform="scale(0.996264)"/>
      <use xlink:href="#NimbusSanL-Regu-28" transform="translate(91.855235 0) scale(0.996264)"/>
      <use xlink:href="#NimbusSanL-Regu-6e" transform="translate(125.030464 0) scale(0.996264)"/>
      <use xlink:href="#NimbusSanL-Regu-6d" transform="translate(180.422141 0) scale(0.996264)"/>
      <use xlink:href="#NimbusSanL-Regu-29" transform="translate(263.410572 0) scale(0.996264)"/>
     </g>
    </g>
   </g>
   <g id="matplotlib.axis_2">
    <g id="ytick_1">
     <g id="line2d_10">
      <defs>
       <path id="mecd0a75c96" d="M 0 0 
L -3.75 0 
" style="stroke: #000000; stroke-width: 1.25"/>
      </defs>
      <g>
       <use xlink:href="#mecd0a75c96" x="33.763987" y="216.404326" style="stroke: #000000; stroke-width: 1.25"/>
      </g>
     </g>
     <g id="text_8">
      <!-- $\mathdefault{0}$ -->
      <g transform="translate(20.353987 220.341123)">
       <text>
        <tspan style="font: 11px 'Arial'" x="0" y="-0.09375">0</tspan>
       </text>
      </g>
     </g>
    </g>
    <g id="ytick_2">
     <g id="line2d_11">
      <g>
       <use xlink:href="#mecd0a75c96" x="33.763987" y="186.681646" style="stroke: #000000; stroke-width: 1.25"/>
      </g>
     </g>
     <g id="text_9">
      <!-- $\mathdefault{1}$ -->
      <g transform="translate(20.353987 190.618443)">
       <text>
        <tspan style="font: 11px 'Arial'" x="0" y="-0.09375">1</tspan>
       </text>
      </g>
     </g>
    </g>
    <g id="ytick_3">
     <g id="line2d_12">
      <g>
       <use xlink:href="#mecd0a75c96" x="33.763987" y="156.958966" style="stroke: #000000; stroke-width: 1.25"/>
      </g>
     </g>
     <g id="text_10">
      <!-- $\mathdefault{2}$ -->
      <g transform="translate(20.353987 160.895762)">
       <text>
        <tspan style="font: 11px 'Arial'" x="0" y="-0.09375">2</tspan>
       </text>
      </g>
     </g>
    </g>
    <g id="ytick_4">
     <g id="line2d_13">
      <g>
       <use xlink:href="#mecd0a75c96" x="33.763987" y="127.236285" style="stroke: #000000; stroke-width: 1.25"/>
      </g>
     </g>
     <g id="text_11">
      <!-- $\mathdefault{3}$ -->
      <g transform="translate(20.353987 131.173082)">
       <text>
        <tspan style="font: 11px 'Arial'" x="0" y="-0.09375">3</tspan>
       </text>
      </g>
     </g>
    </g>
    <g id="ytick_5">
     <g id="line2d_14">
      <g>
       <use xlink:href="#mecd0a75c96" x="33.763987" y="97.513605" style="stroke: #000000; stroke-width: 1.25"/>
      </g>
     </g>
     <g id="text_12">
      <!-- $\mathdefault{4}$ -->
      <g transform="translate(20.353987 101.450402)">
       <text>
        <tspan style="font: 11px 'Arial'" x="0" y="-0.125">4</tspan>
       </text>
      </g>
     </g>
    </g>
    <g id="ytick_6">
     <g id="line2d_15">
      <g>
       <use xlink:href="#mecd0a75c96" x="33.763987" y="67.790925" style="stroke: #000000; stroke-width: 1.25"/>
      </g>
     </g>
     <g id="text_13">
      <!-- $\mathdefault{5}$ -->
      <g transform="translate(20.353987 71.727722)">
       <text>
        <tspan style="font: 11px 'Arial'" x="0" y="-0.234375">5</tspan>
       </text>
      </g>
     </g>
    </g>
    <g id="ytick_7">
     <g id="line2d_16">
      <g>
       <use xlink:href="#mecd0a75c96" x="33.763987" y="38.068245" style="stroke: #000000; stroke-width: 1.25"/>
      </g>
     </g>
     <g id="text_14">
      <!-- $\mathdefault{6}$ -->
      <g transform="translate(20.353987 42.005042)">
       <text>
        <tspan style="font: 11px 'Arial'" x="0" y="-0.09375">6</tspan>
       </text>
      </g>
     </g>
    </g>
    <g id="text_15">
     <!-- $B_{\lambda}$ {\sffamily (photons/cm\textsuperscript{2}/s/nm)} -->
     <g transform="translate(13.728305 177.714049) rotate(-90) scale(0.12 -0.12)">
      <defs>
       <path id="NimbusRomNo9L-ReguItal-42" d="M -51 0 
L 1754 0 
C 2758 0 3450 523 3450 1274 
C 3450 1510 3373 1732 3232 1872 
C 3104 2019 2976 2095 2643 2235 
C 3098 2344 3283 2420 3488 2598 
C 3667 2751 3763 2968 3763 3222 
C 3763 3827 3309 4160 2483 4160 
L 832 4160 
L 832 4057 
C 1229 4025 1325 3974 1325 3795 
C 1325 3700 1299 3541 1254 3388 
L 467 574 
C 352 204 307 166 -51 102 
L -51 0 
z
M 1523 2108 
C 1939 2108 2208 2083 2336 2032 
C 2598 1923 2758 1643 2758 1299 
C 2758 612 2285 192 1504 192 
C 1235 192 1094 287 1094 459 
C 1094 535 1171 841 1318 1350 
C 1402 1637 1440 1783 1523 2108 
z
M 2003 3789 
C 2042 3929 2118 3967 2368 3967 
C 2880 3967 3117 3751 3117 3280 
C 3117 2917 2963 2637 2688 2484 
C 2470 2356 2163 2312 1587 2312 
L 2003 3789 
z
" transform="scale(0.015625)"/>
       <path id="NimbusSanL-Regu-70" d="M 346 -1408 
L 883 -1408 
L 883 371 
C 1165 25 1478 -128 1914 -128 
C 2778 -128 3347 568 3347 1632 
C 3347 2752 2797 3456 1907 3456 
C 1453 3456 1088 3251 838 2854 
L 838 3359 
L 346 3359 
L 346 -1408 
z
M 1818 2956 
C 2406 2956 2790 2440 2790 1644 
C 2790 887 2400 371 1818 371 
C 1254 371 883 880 883 1663 
C 883 2447 1254 2956 1818 2956 
z
" transform="scale(0.015625)"/>
       <path id="NimbusSanL-Regu-68" d="M 448 4672 
L 448 0 
L 979 0 
L 979 1853 
C 979 2539 1338 2988 1888 2988 
C 2061 2988 2234 2930 2362 2834 
C 2515 2725 2579 2565 2579 2328 
L 2579 0 
L 3110 0 
L 3110 2539 
C 3110 3103 2707 3456 2054 3456 
C 1581 3456 1293 3308 979 2898 
L 979 4672 
L 448 4672 
z
" transform="scale(0.015625)"/>
       <path id="NimbusSanL-Regu-6f" d="M 1741 3456 
C 800 3456 230 2784 230 1663 
C 230 543 794 -128 1747 -128 
C 2688 -128 3264 543 3264 1638 
C 3264 2791 2707 3456 1741 3456 
z
M 1747 2963 
C 2349 2963 2707 2472 2707 1644 
C 2707 861 2336 364 1747 364 
C 1152 364 787 855 787 1663 
C 787 2466 1152 2963 1747 2963 
z
" transform="scale(0.015625)"/>
       <path id="NimbusSanL-Regu-74" d="M 1626 3328 
L 1075 3328 
L 1075 4249 
L 544 4249 
L 544 3328 
L 90 3328 
L 90 2892 
L 544 2892 
L 544 402 
C 544 64 774 -128 1190 -128 
C 1318 -128 1446 -116 1626 -84 
L 1626 364 
C 1555 345 1472 339 1370 339 
C 1139 339 1075 402 1075 634 
L 1075 2892 
L 1626 2892 
L 1626 3328 
z
" transform="scale(0.015625)"/>
       <path id="NimbusSanL-Regu-73" d="M 2803 2428 
C 2797 3084 2362 3456 1587 3456 
C 806 3456 301 3052 301 2434 
C 301 1912 570 1663 1363 1472 
L 1862 1351 
C 2234 1262 2381 1129 2381 887 
C 2381 574 2067 364 1600 364 
C 1312 364 1069 447 934 587 
C 851 683 813 778 781 1014 
L 218 1014 
C 243 243 678 -128 1555 -128 
C 2400 -128 2938 288 2938 931 
C 2938 1428 2656 1702 1990 1861 
L 1478 1982 
C 1043 2084 858 2224 858 2459 
C 858 2765 1133 2963 1568 2963 
C 1997 2963 2227 2778 2240 2428 
L 2803 2428 
z
" transform="scale(0.015625)"/>
       <path id="NimbusSanL-Regu-2f" d="M 1466 4672 
L -51 -128 
L 301 -128 
L 1818 4672 
L 1466 4672 
z
" transform="scale(0.015625)"/>
       <path id="NimbusSanL-Regu-63" d="M 3014 2237 
C 2989 2561 2918 2771 2790 2956 
C 2560 3270 2157 3456 1690 3456 
C 787 3456 198 2740 198 1632 
C 198 555 774 -128 1683 -128 
C 2483 -128 2989 352 3053 1167 
L 2515 1167 
C 2426 632 2150 364 1696 364 
C 1107 364 755 842 755 1632 
C 755 2466 1101 2963 1683 2963 
C 2131 2963 2413 2701 2477 2237 
L 3014 2237 
z
" transform="scale(0.015625)"/>
       <path id="NimbusSanL-Regu-32" d="M 3238 556 
L 851 556 
C 909 928 1114 1165 1670 1493 
L 2310 1839 
C 2944 2185 3270 2653 3270 3211 
C 3270 3589 3117 3942 2848 4185 
C 2579 4428 2246 4544 1818 4544 
C 1242 4544 813 4339 563 3955 
C 403 3711 333 3429 320 2967 
L 883 2967 
C 902 3275 941 3461 1018 3608 
C 1165 3884 1459 4051 1798 4051 
C 2310 4051 2694 3685 2694 3198 
C 2694 2839 2483 2531 2080 2300 
L 1491 1967 
C 544 1428 269 999 218 0 
L 3238 0 
L 3238 556 
z
" transform="scale(0.015625)"/>
      </defs>
      <use xlink:href="#NimbusRomNo9L-ReguItal-42" transform="scale(0.996264)"/>
      <use xlink:href="#StandardSymL-6c" transform="translate(60.871631 -20.616338) scale(0.737241)"/>
      <use xlink:href="#NimbusSanL-Regu-28" transform="translate(135.818713 0) scale(0.996264)"/>
      <use xlink:href="#NimbusSanL-Regu-70" transform="translate(168.993943 0) scale(0.996264)"/>
      <use xlink:href="#NimbusSanL-Regu-68" transform="translate(224.38562 0) scale(0.996264)"/>
      <use xlink:href="#NimbusSanL-Regu-6f" transform="translate(279.777297 0) scale(0.996264)"/>
      <use xlink:href="#NimbusSanL-Regu-74" transform="translate(335.168974 0) scale(0.996264)"/>
      <use xlink:href="#NimbusSanL-Regu-6f" transform="translate(362.864143 0) scale(0.996264)"/>
      <use xlink:href="#NimbusSanL-Regu-6e" transform="translate(418.25582 0) scale(0.996264)"/>
      <use xlink:href="#NimbusSanL-Regu-73" transform="translate(473.647497 0) scale(0.996264)"/>
      <use xlink:href="#NimbusSanL-Regu-2f" transform="translate(523.460698 0) scale(0.996264)"/>
      <use xlink:href="#NimbusSanL-Regu-63" transform="translate(551.155868 0) scale(0.996264)"/>
      <use xlink:href="#NimbusSanL-Regu-6d" transform="translate(600.969068 0) scale(0.996264)"/>
      <use xlink:href="#NimbusSanL-Regu-32" transform="translate(683.957498 36.163231) scale(0.737241)"/>
      <use xlink:href="#NimbusSanL-Regu-2f" transform="translate(725.445777 0) scale(0.996264)"/>
      <use xlink:href="#NimbusSanL-Regu-73" transform="translate(753.140947 0) scale(0.996264)"/>
      <use xlink:href="#NimbusSanL-Regu-2f" transform="translate(802.954147 0) scale(0.996264)"/>
      <use xlink:href="#NimbusSanL-Regu-6e" transform="translate(830.649317 0) scale(0.996264)"/>
      <use xlink:href="#NimbusSanL-Regu-6d" transform="translate(886.040994 0) scale(0.996264)"/>
      <use xlink:href="#NimbusSanL-Regu-29" transform="translate(969.029424 0) scale(0.996264)"/>
     </g>
    </g>
    <g id="text_16">
     <!-- $\times\mathdefault{10^{12}}\mathdefault{}$ -->
     <g transform="translate(33.763987 14.735865)">
      <text>
       <tspan style="font: 11px 'STIXGeneral'" x="0" y="-0.799312500000001"></tspan>
       <tspan style="font: 11px 'Arial'" x="7.039993 13.157669" y="-0.799312500000001">10</tspan>
       <tspan style="font: 7.7px 'Arial'" x="19.467003 23.749376" y="-8.465625">12</tspan>
      </text>
     </g>
    </g>
   </g>
   <g id="patch_7">
    <path d="M 215.490817 47.652918 
L 215.490817 67.40298 
L 293.769383 67.40298 
" style="fill: none; stroke: #000000; stroke-linecap: round"/>
    <path d="M 289.769383 65.40298 
L 293.769383 67.40298 
L 289.769383 69.40298 
" style="fill: none; stroke: #000000; stroke-linecap: round"/>
   </g>
   <g id="text_17">
    <g id="patch_8">
     <path d="M 181.790817 50.702711 
L 249.190817 50.702711 
Q 252.190817 50.702711 252.190817 47.702711 
L 252.190817 37.602711 
Q 252.190817 34.602711 249.190817 34.602711 
L 181.790817 34.602711 
Q 178.790817 34.602711 178.790817 37.602711 
L 178.790817 47.702711 
Q 178.790817 50.702711 181.790817 50.702711 
z
" style="fill: #f5deb3; stroke: #000000; stroke-linejoin: miter"/>
    </g>
    <!-- D$_{\gamma}$ (434.00) nm -->
    <g transform="translate(181.790817 44.902711)">
     <text>
      <tspan style="font: 10px 'Arial'" x="0 10.686517 13.464837 16.794915 22.356439 27.917962 33.479486 36.257806 41.81933 47.380853 50.710931 53.489251 59.050775" y="-0.71875">D(434.00)nm</tspan>
      <tspan style="font: italic 7px 'STIXGeneral'" x="7.375898" y="0.6031250000000004"></tspan>
     </text>
    </g>
   </g>
   <g id="text_18">
    <text style="font: 10px 'Arial'; text-anchor: middle" x="233.750292" y="95.216592" transform="rotate(-0 233.750292 95.216592)">Q-branch</text>
   </g>
   <g id="text_19">
    <text style="font: 10px 'Arial'; text-anchor: middle" x="115.172343" y="63.066971" transform="rotate(-0 115.172343 63.066971)">B-D + C-D</text>
   </g>
   <g id="text_20">
    <text style="font: 700 12px 'Arial'; text-anchor: middle" x="177.381874" y="11.735865" transform="rotate(-0 177.381874 11.735865)">PC boron pebble rod - 4 min</text>
   </g>
  </g>
 </g>
 <defs>
  <clipPath id="p8157bbf28c">
   <rect x="33.763987" y="17.735865" width="287.235773" height="198.668461"/>
  </clipPath>
 </defs>
</svg>
