<?xml version="1.0" encoding="utf-8" standalone="no"?>
<!DOCTYPE svg PUBLIC "-//W3C//DTD SVG 1.1//EN"
  "http://www.w3.org/Graphics/SVG/1.1/DTD/svg11.dtd">
<svg xmlns:xlink="http://www.w3.org/1999/xlink" width="324pt" height="252pt" viewBox="0 0 324 252" xmlns="http://www.w3.org/2000/svg" version="1.1">
 <metadata>
  <rdf:RDF xmlns:dc="http://purl.org/dc/elements/1.1/" xmlns:cc="http://creativecommons.org/ns#" xmlns:rdf="http://www.w3.org/1999/02/22-rdf-syntax-ns#">
   <cc:Work>
    <dc:type rdf:resource="http://purl.org/dc/dcmitype/StillImage"/>
    <dc:date>2024-12-06T11:03:31.026466</dc:date>
    <dc:format>image/svg+xml</dc:format>
    <dc:creator>
     <cc:Agent>
      <dc:title>Matplotlib v3.9.2, https://matplotlib.org/</dc:title>
     </cc:Agent>
    </dc:creator>
   </cc:Work>
  </rdf:RDF>
 </metadata>
 <defs>
  <style type="text/css">*{stroke-linejoin: round; stroke-linecap: butt}</style>
 </defs>
 <g id="figure_1">
  <g id="patch_1">
   <path d="M 0 252 
L 324 252 
L 324 0 
L 0 0 
z
" style="fill: #ffffff"/>
  </g>
  <g id="axes_1">
   <g id="patch_2">
    <path d="M 43.003987 216.404326 
L 320.99976 216.404326 
L 320.99976 17.735865 
L 43.003987 17.735865 
z
" style="fill: #ffffff"/>
   </g>
   <g id="PolyCollection_1">
    <path d="M 43.27895 216.256092 
L 43.27895 216.404326 
L 44.636075 216.404326 
L 45.992189 216.404326 
L 47.349314 216.404326 
L 48.705428 216.404326 
L 50.062553 216.404326 
L 51.420183 216.404326 
L 52.775791 216.404326 
L 54.133422 216.404326 
L 55.490547 216.404326 
L 56.848177 216.404326 
L 58.205807 216.404326 
L 59.562932 216.404326 
L 60.920562 216.404326 
L 62.277687 216.404326 
L 63.635317 216.404326 
L 64.993958 216.404326 
L 66.351589 216.404326 
L 67.708713 216.404326 
L 69.06786 216.404326 
L 70.42549 216.404326 
L 71.784131 216.404326 
L 73.141762 216.404326 
L 74.500403 216.404326 
L 75.85955 216.404326 
L 77.216674 216.404326 
L 78.575821 216.404326 
L 79.934968 216.404326 
L 81.293609 216.404326 
L 82.652755 216.404326 
L 84.011396 216.404326 
L 85.370543 216.404326 
L 86.72969 216.404326 
L 88.089847 216.404326 
L 89.448994 216.404326 
L 90.80814 216.404326 
L 92.168298 216.404326 
L 93.527444 216.404326 
L 94.887602 216.404326 
L 96.246749 216.404326 
L 97.607412 216.404326 
L 98.966053 216.404326 
L 100.326716 216.404326 
L 101.687379 216.404326 
L 103.047536 216.404326 
L 104.408199 216.404326 
L 105.768862 216.404326 
L 107.129019 216.404326 
L 108.489682 216.404326 
L 109.84984 216.404326 
L 111.210503 216.404326 
L 112.571166 216.404326 
L 113.93284 216.404326 
L 115.293503 216.404326 
L 116.654166 216.404326 
L 118.015839 216.404326 
L 119.376502 216.404326 
L 120.738682 216.404326 
L 122.100861 216.404326 
L 123.461018 216.404326 
L 124.823198 216.404326 
L 126.185377 216.404326 
L 127.547051 216.404326 
L 128.90923 216.404326 
L 130.271409 216.404326 
L 131.633083 216.404326 
L 132.995262 216.404326 
L 134.357442 216.404326 
L 135.719116 216.404326 
L 137.082811 216.404326 
L 138.444991 216.404326 
L 139.80717 216.404326 
L 141.17036 216.404326 
L 142.532539 216.404326 
L 143.896235 216.404326 
L 145.259931 216.404326 
L 146.621604 216.404326 
L 147.9853 216.404326 
L 149.348996 216.404326 
L 150.712691 216.404326 
L 152.075881 216.404326 
L 153.438061 216.404326 
L 154.801756 216.404326 
L 156.166968 216.404326 
L 157.530159 216.404326 
L 158.893854 216.404326 
L 160.25755 216.404326 
L 161.621245 216.404326 
L 162.985952 216.404326 
L 164.349648 216.404326 
L 165.714859 216.404326 
L 167.078555 216.404326 
L 168.443767 216.404326 
L 169.808474 216.404326 
L 171.172169 216.404326 
L 172.537381 216.404326 
L 173.902593 216.404326 
L 175.267805 216.404326 
L 176.632512 216.404326 
L 177.997724 216.404326 
L 179.362936 216.404326 
L 180.728148 216.404326 
L 182.09336 216.404326 
L 183.458066 216.404326 
L 184.823278 216.404326 
L 186.190006 216.404326 
L 187.555218 216.404326 
L 188.921947 216.404326 
L 190.286653 216.404326 
L 191.653381 216.404326 
L 193.018593 216.404326 
L 194.385322 216.404326 
L 195.75205 216.404326 
L 197.118778 216.404326 
L 198.48399 216.404326 
L 199.850213 216.404326 
L 201.216941 216.404326 
L 202.58367 216.404326 
L 203.950398 216.404326 
L 205.318643 216.404326 
L 206.685371 216.404326 
L 208.052099 216.404326 
L 209.418322 216.404326 
L 210.786567 216.404326 
L 212.153295 216.404326 
L 213.52154 216.404326 
L 214.888268 216.404326 
L 216.256513 216.404326 
L 217.623241 216.404326 
L 218.991486 216.404326 
L 220.35973 216.404326 
L 221.72747 216.404326 
L 223.095714 216.404326 
L 224.463959 216.404326 
L 225.832204 216.404326 
L 227.200448 216.404326 
L 228.568693 216.404326 
L 229.936937 216.404326 
L 231.305182 216.404326 
L 232.673427 216.404326 
L 234.043188 216.404326 
L 235.411432 216.404326 
L 236.781193 216.404326 
L 238.148933 216.404326 
L 239.518694 216.404326 
L 240.886938 216.404326 
L 242.256699 216.404326 
L 243.62646 216.404326 
L 244.996221 216.404326 
L 246.364466 216.404326 
L 247.734227 216.404326 
L 249.103988 216.404326 
L 250.473749 216.404326 
L 251.84351 216.404326 
L 253.214787 216.404326 
L 254.584548 216.404326 
L 255.954309 216.404326 
L 257.32407 216.404326 
L 258.695347 216.404326 
L 260.065108 216.404326 
L 261.436386 216.404326 
L 262.806147 216.404326 
L 264.177424 216.404326 
L 265.547185 216.404326 
L 266.918462 216.404326 
L 268.28974 216.404326 
L 269.661017 216.404326 
L 271.032294 216.404326 
L 272.403572 216.404326 
L 273.774849 216.404326 
L 275.146126 216.404326 
L 276.517404 216.404326 
L 277.888681 216.404326 
L 279.259958 216.404326 
L 280.632752 216.404326 
L 282.004029 216.404326 
L 283.375307 216.404326 
L 284.7481 216.404326 
L 286.119378 216.404326 
L 287.492171 216.404326 
L 288.864965 216.404326 
L 290.236242 216.404326 
L 291.609036 216.404326 
L 292.98183 216.404326 
L 294.354623 216.404326 
L 295.727417 216.404326 
L 297.100716 216.404326 
L 298.47351 216.404326 
L 299.846303 216.404326 
L 301.219097 216.404326 
L 302.591891 216.404326 
L 303.964684 216.404326 
L 305.338995 216.404326 
L 306.711788 216.404326 
L 308.086098 216.404326 
L 309.458892 216.404326 
L 310.833202 216.404326 
L 312.205996 216.404326 
L 313.580811 216.404326 
L 314.955121 216.404326 
L 316.327915 216.404326 
L 317.702225 216.404326 
L 319.076535 216.404326 
L 320.450845 216.404326 
L 320.450845 215.615831 
L 320.450845 215.615831 
L 319.076535 215.588769 
L 317.702225 215.560272 
L 316.327915 215.530235 
L 314.955121 215.49858 
L 313.580811 215.465111 
L 312.205996 215.42971 
L 310.833202 215.392294 
L 309.458892 215.352601 
L 308.086098 215.310533 
L 306.711788 215.265793 
L 305.338995 215.218252 
L 303.964684 215.167551 
L 302.591891 215.11352 
L 301.219097 215.055789 
L 299.846303 214.994003 
L 298.47351 214.927763 
L 297.100716 214.856617 
L 295.727417 214.780024 
L 294.354623 214.697456 
L 292.98183 214.608219 
L 291.609036 214.511546 
L 290.236242 214.406552 
L 288.864965 214.292342 
L 287.492171 214.167465 
L 286.119378 214.030632 
L 284.7481 213.880348 
L 283.375307 213.714292 
L 282.004029 213.53044 
L 280.632752 213.325715 
L 279.259958 213.096277 
L 277.888681 212.838181 
L 276.517404 212.545561 
L 275.146126 212.211175 
L 273.774849 211.825507 
L 272.403572 211.375745 
L 271.032294 210.844128 
L 269.661017 210.205155 
L 268.28974 209.420632 
L 266.918462 208.430367 
L 265.547185 207.133498 
L 264.177424 205.350716 
L 262.806147 202.723694 
L 261.436386 198.512615 
L 260.065108 191.128689 
L 258.695347 178.59691 
L 257.32407 167.843308 
L 255.954309 173.806887 
L 254.584548 182.201543 
L 253.214787 184.947219 
L 251.84351 183.687335 
L 250.473749 179.860747 
L 249.103988 174.246704 
L 247.734227 167.698987 
L 246.364466 161.659456 
L 244.996221 158.007115 
L 243.62646 157.887245 
L 242.256699 160.683743 
L 240.886938 164.571326 
L 239.518694 167.893021 
L 238.148933 169.78137 
L 236.781193 169.990575 
L 235.411432 168.651778 
L 234.043188 166.168792 
L 232.673427 163.235431 
L 231.305182 160.852697 
L 229.936937 160.088341 
L 228.568693 161.626221 
L 227.200448 165.385527 
L 225.832204 170.620711 
L 224.463959 176.395285 
L 223.095714 181.98493 
L 221.72747 186.996133 
L 220.35973 191.294507 
L 218.991486 194.899052 
L 217.623241 197.888586 
L 216.256513 200.358389 
L 214.888268 202.406861 
L 213.52154 204.109506 
L 212.153295 205.536102 
L 210.786567 206.736513 
L 209.418322 207.755685 
L 208.052099 208.624567 
L 206.685371 209.371606 
L 205.318643 210.017646 
L 203.950398 210.58024 
L 202.58367 211.071821 
L 201.216941 211.504127 
L 199.850213 211.886186 
L 198.48399 212.225283 
L 197.118778 212.527464 
L 195.75205 212.798339 
L 194.385322 213.041793 
L 193.018593 213.261387 
L 191.653381 213.459917 
L 190.286653 213.640373 
L 188.921947 213.804467 
L 187.555218 213.954547 
L 186.190006 214.091814 
L 184.823278 214.217959 
L 183.458066 214.3339 
L 182.09336 214.440788 
L 180.728148 214.539613 
L 179.362936 214.631134 
L 177.997724 214.716054 
L 176.632512 214.794994 
L 175.267805 214.868476 
L 173.902593 214.937044 
L 172.537381 215.001102 
L 171.172169 215.061039 
L 169.808474 215.117142 
L 168.443767 215.169825 
L 167.078555 215.219345 
L 165.714859 215.265883 
L 164.349648 215.309769 
L 162.985952 215.351111 
L 161.621245 215.390174 
L 160.25755 215.427069 
L 158.893854 215.461979 
L 157.530159 215.495045 
L 156.166968 215.526383 
L 154.801756 215.556166 
L 153.438061 215.584423 
L 152.075881 215.611257 
L 150.712691 215.636809 
L 149.348996 215.661151 
L 147.9853 215.684349 
L 146.621604 215.706474 
L 145.259931 215.727561 
L 143.896235 215.747733 
L 142.532539 215.767013 
L 141.17036 215.785434 
L 139.80717 215.803078 
L 138.444991 215.819964 
L 137.082811 215.836147 
L 135.719116 215.851681 
L 134.357442 215.866563 
L 132.995262 215.880856 
L 131.633083 215.894585 
L 130.271409 215.907775 
L 128.90923 215.920463 
L 127.547051 215.932669 
L 126.185377 215.944414 
L 124.823198 215.955729 
L 123.461018 215.96663 
L 122.100861 215.977122 
L 120.738682 215.987255 
L 119.376502 215.997031 
L 118.015839 216.006457 
L 116.654166 216.015565 
L 115.293503 216.024356 
L 113.93284 216.032852 
L 112.571166 216.041072 
L 111.210503 216.049015 
L 109.84984 216.056701 
L 108.489682 216.064136 
L 107.129019 216.071337 
L 105.768862 216.078309 
L 104.408199 216.085067 
L 103.047536 216.091616 
L 101.687379 216.097963 
L 100.326716 216.104121 
L 98.966053 216.110094 
L 97.607412 216.115882 
L 96.246749 216.121509 
L 94.887602 216.126967 
L 93.527444 216.132272 
L 92.168298 216.137422 
L 90.80814 216.14243 
L 89.448994 216.147295 
L 88.089847 216.152026 
L 86.72969 216.15663 
L 85.370543 216.161106 
L 84.011396 216.165462 
L 82.652755 216.1697 
L 81.293609 216.173827 
L 79.934968 216.177845 
L 78.575821 216.18176 
L 77.216674 216.185574 
L 75.85955 216.189285 
L 74.500403 216.192908 
L 73.141762 216.196439 
L 71.784131 216.199879 
L 70.42549 216.203237 
L 69.06786 216.20651 
L 67.708713 216.209708 
L 66.351589 216.212824 
L 64.993958 216.215866 
L 63.635317 216.218839 
L 62.277687 216.22174 
L 60.920562 216.224572 
L 59.562932 216.22734 
L 58.205807 216.230043 
L 56.848177 216.232686 
L 55.490547 216.235269 
L 54.133422 216.237793 
L 52.775791 216.240262 
L 51.420183 216.242673 
L 50.062553 216.245034 
L 48.705428 216.247343 
L 47.349314 216.249601 
L 45.992189 216.251812 
L 44.636075 216.253974 
L 43.27895 216.256092 
z
" clip-path="url(#p477b6f19b2)" style="fill: #1f77b4; fill-opacity: 0.25"/>
   </g>
   <g id="PolyCollection_2">
    <path d="M 43.27895 215.039309 
L 43.27895 216.404326 
L 44.636075 216.404326 
L 45.992189 216.404326 
L 47.349314 216.404326 
L 48.705428 216.404326 
L 50.062553 216.404326 
L 51.420183 216.404326 
L 52.775791 216.404326 
L 54.133422 216.404326 
L 55.490547 216.404326 
L 56.848177 216.404326 
L 58.205807 216.404326 
L 59.562932 216.404326 
L 60.920562 216.404326 
L 62.277687 216.404326 
L 63.635317 216.404326 
L 64.993958 216.404326 
L 66.351589 216.404326 
L 67.708713 216.404326 
L 69.06786 216.404326 
L 70.42549 216.404326 
L 71.784131 216.404326 
L 73.141762 216.404326 
L 74.500403 216.404326 
L 75.85955 216.404326 
L 77.216674 216.404326 
L 78.575821 216.404326 
L 79.934968 216.404326 
L 81.293609 216.404326 
L 82.652755 216.404326 
L 84.011396 216.404326 
L 85.370543 216.404326 
L 86.72969 216.404326 
L 88.089847 216.404326 
L 89.448994 216.404326 
L 90.80814 216.404326 
L 92.168298 216.404326 
L 93.527444 216.404326 
L 94.887602 216.404326 
L 96.246749 216.404326 
L 97.607412 216.404326 
L 98.966053 216.404326 
L 100.326716 216.404326 
L 101.687379 216.404326 
L 103.047536 216.404326 
L 104.408199 216.404326 
L 105.768862 216.404326 
L 107.129019 216.404326 
L 108.489682 216.404326 
L 109.84984 216.404326 
L 111.210503 216.404326 
L 112.571166 216.404326 
L 113.93284 216.404326 
L 115.293503 216.404326 
L 116.654166 216.404326 
L 118.015839 216.404326 
L 119.376502 216.404326 
L 120.738682 216.404326 
L 122.100861 216.404326 
L 123.461018 216.404326 
L 124.823198 216.404326 
L 126.185377 216.404326 
L 127.547051 216.404326 
L 128.90923 216.404326 
L 130.271409 216.404326 
L 131.633083 216.404326 
L 132.995262 216.404326 
L 134.357442 216.404326 
L 135.719116 216.404326 
L 137.082811 216.404326 
L 138.444991 216.404326 
L 139.80717 216.404326 
L 141.17036 216.404326 
L 142.532539 216.404326 
L 143.896235 216.404326 
L 145.259931 216.404326 
L 146.621604 216.404326 
L 147.9853 216.404326 
L 149.348996 216.404326 
L 150.712691 216.404326 
L 152.075881 216.404326 
L 153.438061 216.404326 
L 154.801756 216.404326 
L 156.166968 216.404326 
L 157.530159 216.404326 
L 158.893854 216.404326 
L 160.25755 216.404326 
L 161.621245 216.404326 
L 162.985952 216.404326 
L 164.349648 216.404326 
L 165.714859 216.404326 
L 167.078555 216.404326 
L 168.443767 216.404326 
L 169.808474 216.404326 
L 171.172169 216.404326 
L 172.537381 216.404326 
L 173.902593 216.404326 
L 175.267805 216.404326 
L 176.632512 216.404326 
L 177.997724 216.404326 
L 179.362936 216.404326 
L 180.728148 216.404326 
L 182.09336 216.404326 
L 183.458066 216.404326 
L 184.823278 216.404326 
L 186.190006 216.404326 
L 187.555218 216.404326 
L 188.921947 216.404326 
L 190.286653 216.404326 
L 191.653381 216.404326 
L 193.018593 216.404326 
L 194.385322 216.404326 
L 195.75205 216.404326 
L 197.118778 216.404326 
L 198.48399 216.404326 
L 199.850213 216.404326 
L 201.216941 216.404326 
L 202.58367 216.404326 
L 203.950398 216.404326 
L 205.318643 216.404326 
L 206.685371 216.404326 
L 208.052099 216.404326 
L 209.418322 216.404326 
L 210.786567 216.404326 
L 212.153295 216.404326 
L 213.52154 216.404326 
L 214.888268 216.404326 
L 216.256513 216.404326 
L 217.623241 216.404326 
L 218.991486 216.404326 
L 220.35973 216.404326 
L 221.72747 216.404326 
L 223.095714 216.404326 
L 224.463959 216.404326 
L 225.832204 216.404326 
L 227.200448 216.404326 
L 228.568693 216.404326 
L 229.936937 216.404326 
L 231.305182 216.404326 
L 232.673427 216.404326 
L 234.043188 216.404326 
L 235.411432 216.404326 
L 236.781193 216.404326 
L 238.148933 216.404326 
L 239.518694 216.404326 
L 240.886938 216.404326 
L 242.256699 216.404326 
L 243.62646 216.404326 
L 244.996221 216.404326 
L 246.364466 216.404326 
L 247.734227 216.404326 
L 249.103988 216.404326 
L 250.473749 216.404326 
L 251.84351 216.404326 
L 253.214787 216.404326 
L 254.584548 216.404326 
L 255.954309 216.404326 
L 257.32407 216.404326 
L 258.695347 216.404326 
L 260.065108 216.404326 
L 261.436386 216.404326 
L 262.806147 216.404326 
L 264.177424 216.404326 
L 265.547185 216.404326 
L 266.918462 216.404326 
L 268.28974 216.404326 
L 269.661017 216.404326 
L 271.032294 216.404326 
L 272.403572 216.404326 
L 273.774849 216.404326 
L 275.146126 216.404326 
L 276.517404 216.404326 
L 277.888681 216.404326 
L 279.259958 216.404326 
L 280.632752 216.404326 
L 282.004029 216.404326 
L 283.375307 216.404326 
L 284.7481 216.404326 
L 286.119378 216.404326 
L 287.492171 216.404326 
L 288.864965 216.404326 
L 290.236242 216.404326 
L 291.609036 216.404326 
L 292.98183 216.404326 
L 294.354623 216.404326 
L 295.727417 216.404326 
L 297.100716 216.404326 
L 298.47351 216.404326 
L 299.846303 216.404326 
L 301.219097 216.404326 
L 302.591891 216.404326 
L 303.964684 216.404326 
L 305.338995 216.404326 
L 306.711788 216.404326 
L 308.086098 216.404326 
L 309.458892 216.404326 
L 310.833202 216.404326 
L 312.205996 216.404326 
L 313.580811 216.404326 
L 314.955121 216.404326 
L 316.327915 216.404326 
L 317.702225 216.404326 
L 319.076535 216.404326 
L 320.450845 216.404326 
L 320.450845 216.200643 
L 320.450845 216.200643 
L 319.076535 216.197323 
L 317.702225 216.193918 
L 316.327915 216.190426 
L 314.955121 216.186847 
L 313.580811 216.183171 
L 312.205996 216.179396 
L 310.833202 216.175526 
L 309.458892 216.171547 
L 308.086098 216.167465 
L 306.711788 216.163266 
L 305.338995 216.158955 
L 303.964684 216.154519 
L 302.591891 216.149961 
L 301.219097 216.145273 
L 299.846303 216.140449 
L 298.47351 216.135484 
L 297.100716 216.130372 
L 295.727417 216.125105 
L 294.354623 216.11968 
L 292.98183 216.114089 
L 291.609036 216.108325 
L 290.236242 216.10238 
L 288.864965 216.096253 
L 287.492171 216.089922 
L 286.119378 216.083385 
L 284.7481 216.076641 
L 283.375307 216.069663 
L 282.004029 216.062458 
L 280.632752 216.055007 
L 279.259958 216.047288 
L 277.888681 216.039307 
L 276.517404 216.031041 
L 275.146126 216.022477 
L 273.774849 216.013599 
L 272.403572 216.004391 
L 271.032294 215.994835 
L 269.661017 215.984914 
L 268.28974 215.974607 
L 266.918462 215.963893 
L 265.547185 215.952749 
L 264.177424 215.941165 
L 262.806147 215.929087 
L 261.436386 215.916515 
L 260.065108 215.903391 
L 258.695347 215.88971 
L 257.32407 215.875408 
L 255.954309 215.860476 
L 254.584548 215.844859 
L 253.214787 215.828512 
L 251.84351 215.811365 
L 250.473749 215.793405 
L 249.103988 215.774554 
L 247.734227 215.754749 
L 246.364466 215.73392 
L 244.996221 215.712017 
L 243.62646 215.688908 
L 242.256699 215.664525 
L 240.886938 215.638765 
L 239.518694 215.611548 
L 238.148933 215.58269 
L 236.781193 215.552128 
L 235.411432 215.519618 
L 234.043188 215.485073 
L 232.673427 215.448222 
L 231.305182 215.408932 
L 229.936937 215.366921 
L 228.568693 215.321914 
L 227.200448 215.273599 
L 225.832204 215.221621 
L 224.463959 215.165573 
L 223.095714 215.104991 
L 221.72747 215.039334 
L 220.35973 214.968009 
L 218.991486 214.890235 
L 217.623241 214.80519 
L 216.256513 214.711979 
L 214.888268 214.609212 
L 213.52154 214.495706 
L 212.153295 214.369515 
L 210.786567 214.22887 
L 209.418322 214.070958 
L 208.052099 213.893128 
L 206.685371 213.691274 
L 205.318643 213.460676 
L 203.950398 213.194956 
L 202.58367 212.886905 
L 201.216941 212.526115 
L 199.850213 212.099194 
L 198.48399 211.588382 
L 197.118778 210.969516 
L 195.75205 210.207229 
L 194.385322 209.253471 
L 193.018593 208.037322 
L 191.653381 206.45484 
L 190.286653 204.340294 
L 188.921947 201.445484 
L 187.555218 197.356408 
L 186.190006 191.443856 
L 184.823278 182.765227 
L 183.458066 170.413943 
L 182.09336 155.139343 
L 180.728148 142.872528 
L 179.362936 142.04759 
L 177.997724 150.076959 
L 176.632512 156.045629 
L 175.267805 152.609584 
L 173.902593 140.493813 
L 172.537381 141.454664 
L 171.172169 162.247136 
L 169.808474 179.556105 
L 168.443767 189.188099 
L 167.078555 194.057882 
L 165.714859 195.957315 
L 164.349648 195.244702 
L 162.985952 190.644115 
L 161.621245 179.258183 
L 160.25755 172.936366 
L 158.893854 183.456558 
L 157.530159 188.556082 
L 156.166968 187.543146 
L 154.801756 182.121921 
L 153.438061 171.845787 
L 152.075881 155.603722 
L 150.712691 135.809779 
L 149.348996 125.107501 
L 147.9853 132.247587 
L 146.621604 143.457784 
L 145.259931 145.102777 
L 143.896235 135.008192 
L 142.532539 129.619193 
L 141.17036 146.832557 
L 139.80717 166.844228 
L 138.444991 178.569894 
L 137.082811 183.799453 
L 135.719116 184.534182 
L 134.357442 181.137906 
L 132.995262 172.280788 
L 131.633083 154.505219 
L 130.271409 124.082856 
L 128.90923 95.156827 
L 127.547051 106.948422 
L 126.185377 140.805619 
L 124.823198 164.6388 
L 123.461018 177.321747 
L 122.100861 183.282254 
L 120.738682 185.097784 
L 119.376502 183.77332 
L 118.015839 179.451123 
L 116.654166 171.862547 
L 115.293503 161.240882 
L 113.93284 150.275445 
L 112.571166 145.304577 
L 111.210503 150.47943 
L 109.84984 161.513312 
L 108.489682 172.00083 
L 107.129019 179.122644 
L 105.768862 182.296055 
L 104.408199 181.046115 
L 103.047536 174.385223 
L 101.687379 164.605956 
L 100.326716 164.871565 
L 98.966053 176.991489 
L 97.607412 187.461119 
L 96.246749 193.263359 
L 94.887602 195.77535 
L 93.527444 195.954362 
L 92.168298 193.895816 
L 90.80814 188.791019 
L 89.448994 178.488559 
L 88.089847 159.463642 
L 86.72969 135.904873 
L 85.370543 134.661272 
L 84.011396 148.302851 
L 82.652755 152.694818 
L 81.293609 152.078195 
L 79.934968 158.795003 
L 78.575821 172.560053 
L 77.216674 185.158215 
L 75.85955 193.920066 
L 74.500403 199.665045 
L 73.141762 203.471142 
L 71.784131 206.078388 
L 70.42549 207.933414 
L 69.06786 209.296349 
L 67.708713 210.329651 
L 66.351589 211.131232 
L 64.993958 211.76814 
L 63.635317 212.28401 
L 62.277687 212.708128 
L 60.920562 213.062006 
L 59.562932 213.361222 
L 58.205807 213.616837 
L 56.848177 213.837515 
L 55.490547 214.029621 
L 54.133422 214.198106 
L 52.775791 214.347024 
L 51.420183 214.479244 
L 50.062553 214.597666 
L 48.705428 214.70408 
L 47.349314 214.800128 
L 45.992189 214.887328 
L 44.636075 214.966696 
L 43.27895 215.039309 
z
" clip-path="url(#p477b6f19b2)" style="fill: #ff7f0e; fill-opacity: 0.25"/>
   </g>
   <g id="line2d_1">
    <path d="M 43.27895 190.540493 
L 44.636075 188.522098 
L 45.992189 185.407415 
L 47.349314 184.435059 
L 48.705428 187.645615 
L 50.062553 191.924136 
L 51.420183 193.451353 
L 52.775791 192.083651 
L 54.133422 189.893705 
L 55.490547 189.11123 
L 58.205807 192.615002 
L 59.562932 195.934774 
L 60.920562 195.647446 
L 62.277687 190.305691 
L 63.635317 182.838963 
L 64.993958 176.224772 
L 66.351589 174.429985 
L 67.708713 172.832081 
L 69.06786 173.908187 
L 70.42549 180.622861 
L 71.784131 189.836595 
L 73.141762 194.961339 
L 74.500403 196.718772 
L 75.85955 194.940445 
L 77.216674 189.490112 
L 78.575821 176.921846 
L 79.934968 160.49023 
L 81.293609 152.329777 
L 82.652755 152.87092 
L 84.011396 150.241584 
L 85.370543 136.850288 
L 86.72969 133.89366 
L 88.089847 151.083975 
L 89.448994 174.808647 
L 90.80814 188.912119 
L 92.168298 194.355664 
L 94.887602 194.451451 
L 96.246749 193.431275 
L 97.607412 188.17046 
L 98.966053 179.026835 
L 100.326716 167.642064 
L 101.687379 164.092517 
L 103.047536 168.725591 
L 104.408199 178.256664 
L 105.768862 185.487792 
L 107.129019 185.924427 
L 108.489682 176.107537 
L 109.84984 160.043982 
L 111.210503 149.462264 
L 112.571166 146.719529 
L 113.93284 149.239052 
L 115.293503 158.411855 
L 116.654166 169.281066 
L 118.015839 176.923449 
L 119.376502 183.506659 
L 120.738682 185.058001 
L 122.100861 177.892806 
L 123.461018 172.243251 
L 124.823198 168.602697 
L 126.185377 147.978189 
L 127.547051 114.849243 
L 128.90923 95.352165 
L 130.271409 111.12825 
L 131.633083 146.28139 
L 132.995262 171.750289 
L 134.357442 180.825834 
L 135.719116 187.973486 
L 137.082811 191.041056 
L 138.444991 186.168879 
L 139.80717 169.345759 
L 141.17036 144.318604 
L 142.532539 133.233867 
L 143.896235 135.058732 
L 145.259931 139.701185 
L 146.621604 139.059016 
L 147.9853 132.950862 
L 149.348996 131.955862 
L 150.712691 129.718855 
L 152.075881 141.421835 
L 153.438061 166.912495 
L 154.801756 187.356887 
L 156.166968 194.051018 
L 157.530159 192.07485 
L 158.893854 179.313863 
L 160.25755 174.255842 
L 161.621245 176.152047 
L 162.985952 186.139387 
L 164.349648 191.814083 
L 165.714859 193.687547 
L 167.078555 192.51501 
L 168.443767 190.347788 
L 169.808474 182.7983 
L 171.172169 165.043506 
L 172.537381 144.274836 
L 173.902593 137.543897 
L 176.632512 156.030403 
L 177.997724 153.723307 
L 179.362936 140.807608 
L 180.728148 138.202565 
L 182.09336 147.451328 
L 184.823278 184.403649 
L 186.190006 191.709887 
L 187.555218 188.491613 
L 190.286653 215.772485 
L 191.653381 216.404326 
L 193.018593 216.404326 
L 194.385322 207.718318 
L 195.75205 193.053996 
L 197.118778 191.543905 
L 198.48399 195.093539 
L 199.850213 197.607892 
L 201.216941 198.88643 
L 202.58367 201.888081 
L 203.950398 202.984226 
L 205.318643 202.632291 
L 206.685371 206.286273 
L 208.052099 213.688741 
L 209.418322 215.735758 
L 212.153295 204.945484 
L 213.52154 204.73148 
L 214.888268 203.676112 
L 216.256513 201.421675 
L 217.623241 200.215155 
L 218.991486 199.952684 
L 220.35973 196.603874 
L 221.72747 190.467744 
L 223.095714 180.840126 
L 224.463959 168.703634 
L 225.832204 165.574259 
L 227.200448 167.483729 
L 228.568693 164.040752 
L 229.936937 159.058183 
L 231.305182 160.103094 
L 232.673427 159.584815 
L 234.043188 165.0405 
L 235.411432 169.329715 
L 236.781193 172.055639 
L 238.148933 167.58883 
L 239.518694 163.640614 
L 240.886938 160.210025 
L 242.256699 160.026046 
L 243.62646 164.910395 
L 244.996221 162.627266 
L 246.364466 155.04046 
L 247.734227 152.126269 
L 249.103988 180.650358 
L 250.473749 181.986325 
L 251.84351 183.836305 
L 253.214787 183.563574 
L 254.584548 180.176954 
L 255.954309 173.012756 
L 257.32407 170.702381 
L 258.695347 174.421166 
L 260.065108 176.136117 
L 261.436386 208.679725 
L 264.177424 208.45291 
L 265.547185 208.62598 
L 266.918462 207.500214 
L 268.28974 207.257145 
L 269.661017 207.317462 
L 271.032294 208.676168 
L 272.403572 208.00301 
L 275.146126 199.201506 
L 276.517404 196.32612 
L 277.888681 197.803202 
L 279.259958 197.651457 
L 280.632752 195.763411 
L 282.004029 191.399891 
L 283.375307 184.581217 
L 284.7481 179.872 
L 286.119378 175.719783 
L 287.492171 165.453939 
L 288.864965 151.216068 
L 290.236242 99.522675 
L 290.946653 -1 
M 301.004263 -1 
L 301.219097 44.777642 
L 302.591891 123.153618 
L 303.964684 152.195548 
L 305.338995 167.746298 
L 306.711788 178.858543 
L 308.086098 188.104607 
L 309.458892 193.190091 
L 310.833202 194.798972 
L 312.205996 194.901155 
L 313.580811 193.962599 
L 314.955121 194.377544 
L 316.327915 195.295205 
L 317.702225 195.54895 
L 320.450845 202.692638 
L 320.450845 202.692638 
" clip-path="url(#p477b6f19b2)" style="fill: none; stroke: #1f77b4; stroke-width: 1.5; stroke-linecap: square"/>
    <defs>
     <path id="meb647e3a9e" d="M 0 1.5 
C 0.397805 1.5 0.77937 1.341951 1.06066 1.06066 
C 1.341951 0.77937 1.5 0.397805 1.5 0 
C 1.5 -0.397805 1.341951 -0.77937 1.06066 -1.06066 
C 0.77937 -1.341951 0.397805 -1.5 0 -1.5 
C -0.397805 -1.5 -0.77937 -1.341951 -1.06066 -1.06066 
C -1.341951 -0.77937 -1.5 -0.397805 -1.5 0 
C -1.5 0.397805 -1.341951 0.77937 -1.06066 1.06066 
C -0.77937 1.341951 -0.397805 1.5 0 1.5 
z
" style="stroke: #1f77b4"/>
    </defs>
    <g clip-path="url(#p477b6f19b2)">
     <use xlink:href="#meb647e3a9e" x="43.27895" y="190.540493" style="fill-opacity: 0; stroke: #1f77b4"/>
     <use xlink:href="#meb647e3a9e" x="44.636075" y="188.522098" style="fill-opacity: 0; stroke: #1f77b4"/>
     <use xlink:href="#meb647e3a9e" x="45.992189" y="185.407415" style="fill-opacity: 0; stroke: #1f77b4"/>
     <use xlink:href="#meb647e3a9e" x="47.349314" y="184.435059" style="fill-opacity: 0; stroke: #1f77b4"/>
     <use xlink:href="#meb647e3a9e" x="48.705428" y="187.645615" style="fill-opacity: 0; stroke: #1f77b4"/>
     <use xlink:href="#meb647e3a9e" x="50.062553" y="191.924136" style="fill-opacity: 0; stroke: #1f77b4"/>
     <use xlink:href="#meb647e3a9e" x="51.420183" y="193.451353" style="fill-opacity: 0; stroke: #1f77b4"/>
     <use xlink:href="#meb647e3a9e" x="52.775791" y="192.083651" style="fill-opacity: 0; stroke: #1f77b4"/>
     <use xlink:href="#meb647e3a9e" x="54.133422" y="189.893705" style="fill-opacity: 0; stroke: #1f77b4"/>
     <use xlink:href="#meb647e3a9e" x="55.490547" y="189.11123" style="fill-opacity: 0; stroke: #1f77b4"/>
     <use xlink:href="#meb647e3a9e" x="56.848177" y="190.874469" style="fill-opacity: 0; stroke: #1f77b4"/>
     <use xlink:href="#meb647e3a9e" x="58.205807" y="192.615002" style="fill-opacity: 0; stroke: #1f77b4"/>
     <use xlink:href="#meb647e3a9e" x="59.562932" y="195.934774" style="fill-opacity: 0; stroke: #1f77b4"/>
     <use xlink:href="#meb647e3a9e" x="60.920562" y="195.647446" style="fill-opacity: 0; stroke: #1f77b4"/>
     <use xlink:href="#meb647e3a9e" x="62.277687" y="190.305691" style="fill-opacity: 0; stroke: #1f77b4"/>
     <use xlink:href="#meb647e3a9e" x="63.635317" y="182.838963" style="fill-opacity: 0; stroke: #1f77b4"/>
     <use xlink:href="#meb647e3a9e" x="64.993958" y="176.224772" style="fill-opacity: 0; stroke: #1f77b4"/>
     <use xlink:href="#meb647e3a9e" x="66.351589" y="174.429985" style="fill-opacity: 0; stroke: #1f77b4"/>
     <use xlink:href="#meb647e3a9e" x="67.708713" y="172.832081" style="fill-opacity: 0; stroke: #1f77b4"/>
     <use xlink:href="#meb647e3a9e" x="69.06786" y="173.908187" style="fill-opacity: 0; stroke: #1f77b4"/>
     <use xlink:href="#meb647e3a9e" x="70.42549" y="180.622861" style="fill-opacity: 0; stroke: #1f77b4"/>
     <use xlink:href="#meb647e3a9e" x="71.784131" y="189.836595" style="fill-opacity: 0; stroke: #1f77b4"/>
     <use xlink:href="#meb647e3a9e" x="73.141762" y="194.961339" style="fill-opacity: 0; stroke: #1f77b4"/>
     <use xlink:href="#meb647e3a9e" x="74.500403" y="196.718772" style="fill-opacity: 0; stroke: #1f77b4"/>
     <use xlink:href="#meb647e3a9e" x="75.85955" y="194.940445" style="fill-opacity: 0; stroke: #1f77b4"/>
     <use xlink:href="#meb647e3a9e" x="77.216674" y="189.490112" style="fill-opacity: 0; stroke: #1f77b4"/>
     <use xlink:href="#meb647e3a9e" x="78.575821" y="176.921846" style="fill-opacity: 0; stroke: #1f77b4"/>
     <use xlink:href="#meb647e3a9e" x="79.934968" y="160.49023" style="fill-opacity: 0; stroke: #1f77b4"/>
     <use xlink:href="#meb647e3a9e" x="81.293609" y="152.329777" style="fill-opacity: 0; stroke: #1f77b4"/>
     <use xlink:href="#meb647e3a9e" x="82.652755" y="152.87092" style="fill-opacity: 0; stroke: #1f77b4"/>
     <use xlink:href="#meb647e3a9e" x="84.011396" y="150.241584" style="fill-opacity: 0; stroke: #1f77b4"/>
     <use xlink:href="#meb647e3a9e" x="85.370543" y="136.850288" style="fill-opacity: 0; stroke: #1f77b4"/>
     <use xlink:href="#meb647e3a9e" x="86.72969" y="133.89366" style="fill-opacity: 0; stroke: #1f77b4"/>
     <use xlink:href="#meb647e3a9e" x="88.089847" y="151.083975" style="fill-opacity: 0; stroke: #1f77b4"/>
     <use xlink:href="#meb647e3a9e" x="89.448994" y="174.808647" style="fill-opacity: 0; stroke: #1f77b4"/>
     <use xlink:href="#meb647e3a9e" x="90.80814" y="188.912119" style="fill-opacity: 0; stroke: #1f77b4"/>
     <use xlink:href="#meb647e3a9e" x="92.168298" y="194.355664" style="fill-opacity: 0; stroke: #1f77b4"/>
     <use xlink:href="#meb647e3a9e" x="93.527444" y="194.356289" style="fill-opacity: 0; stroke: #1f77b4"/>
     <use xlink:href="#meb647e3a9e" x="94.887602" y="194.451451" style="fill-opacity: 0; stroke: #1f77b4"/>
     <use xlink:href="#meb647e3a9e" x="96.246749" y="193.431275" style="fill-opacity: 0; stroke: #1f77b4"/>
     <use xlink:href="#meb647e3a9e" x="97.607412" y="188.17046" style="fill-opacity: 0; stroke: #1f77b4"/>
     <use xlink:href="#meb647e3a9e" x="98.966053" y="179.026835" style="fill-opacity: 0; stroke: #1f77b4"/>
     <use xlink:href="#meb647e3a9e" x="100.326716" y="167.642064" style="fill-opacity: 0; stroke: #1f77b4"/>
     <use xlink:href="#meb647e3a9e" x="101.687379" y="164.092517" style="fill-opacity: 0; stroke: #1f77b4"/>
     <use xlink:href="#meb647e3a9e" x="103.047536" y="168.725591" style="fill-opacity: 0; stroke: #1f77b4"/>
     <use xlink:href="#meb647e3a9e" x="104.408199" y="178.256664" style="fill-opacity: 0; stroke: #1f77b4"/>
     <use xlink:href="#meb647e3a9e" x="105.768862" y="185.487792" style="fill-opacity: 0; stroke: #1f77b4"/>
     <use xlink:href="#meb647e3a9e" x="107.129019" y="185.924427" style="fill-opacity: 0; stroke: #1f77b4"/>
     <use xlink:href="#meb647e3a9e" x="108.489682" y="176.107537" style="fill-opacity: 0; stroke: #1f77b4"/>
     <use xlink:href="#meb647e3a9e" x="109.84984" y="160.043982" style="fill-opacity: 0; stroke: #1f77b4"/>
     <use xlink:href="#meb647e3a9e" x="111.210503" y="149.462264" style="fill-opacity: 0; stroke: #1f77b4"/>
     <use xlink:href="#meb647e3a9e" x="112.571166" y="146.719529" style="fill-opacity: 0; stroke: #1f77b4"/>
     <use xlink:href="#meb647e3a9e" x="113.93284" y="149.239052" style="fill-opacity: 0; stroke: #1f77b4"/>
     <use xlink:href="#meb647e3a9e" x="115.293503" y="158.411855" style="fill-opacity: 0; stroke: #1f77b4"/>
     <use xlink:href="#meb647e3a9e" x="116.654166" y="169.281066" style="fill-opacity: 0; stroke: #1f77b4"/>
     <use xlink:href="#meb647e3a9e" x="118.015839" y="176.923449" style="fill-opacity: 0; stroke: #1f77b4"/>
     <use xlink:href="#meb647e3a9e" x="119.376502" y="183.506659" style="fill-opacity: 0; stroke: #1f77b4"/>
     <use xlink:href="#meb647e3a9e" x="120.738682" y="185.058001" style="fill-opacity: 0; stroke: #1f77b4"/>
     <use xlink:href="#meb647e3a9e" x="122.100861" y="177.892806" style="fill-opacity: 0; stroke: #1f77b4"/>
     <use xlink:href="#meb647e3a9e" x="123.461018" y="172.243251" style="fill-opacity: 0; stroke: #1f77b4"/>
     <use xlink:href="#meb647e3a9e" x="124.823198" y="168.602697" style="fill-opacity: 0; stroke: #1f77b4"/>
     <use xlink:href="#meb647e3a9e" x="126.185377" y="147.978189" style="fill-opacity: 0; stroke: #1f77b4"/>
     <use xlink:href="#meb647e3a9e" x="127.547051" y="114.849243" style="fill-opacity: 0; stroke: #1f77b4"/>
     <use xlink:href="#meb647e3a9e" x="128.90923" y="95.352165" style="fill-opacity: 0; stroke: #1f77b4"/>
     <use xlink:href="#meb647e3a9e" x="130.271409" y="111.12825" style="fill-opacity: 0; stroke: #1f77b4"/>
     <use xlink:href="#meb647e3a9e" x="131.633083" y="146.28139" style="fill-opacity: 0; stroke: #1f77b4"/>
     <use xlink:href="#meb647e3a9e" x="132.995262" y="171.750289" style="fill-opacity: 0; stroke: #1f77b4"/>
     <use xlink:href="#meb647e3a9e" x="134.357442" y="180.825834" style="fill-opacity: 0; stroke: #1f77b4"/>
     <use xlink:href="#meb647e3a9e" x="135.719116" y="187.973486" style="fill-opacity: 0; stroke: #1f77b4"/>
     <use xlink:href="#meb647e3a9e" x="137.082811" y="191.041056" style="fill-opacity: 0; stroke: #1f77b4"/>
     <use xlink:href="#meb647e3a9e" x="138.444991" y="186.168879" style="fill-opacity: 0; stroke: #1f77b4"/>
     <use xlink:href="#meb647e3a9e" x="139.80717" y="169.345759" style="fill-opacity: 0; stroke: #1f77b4"/>
     <use xlink:href="#meb647e3a9e" x="141.17036" y="144.318604" style="fill-opacity: 0; stroke: #1f77b4"/>
     <use xlink:href="#meb647e3a9e" x="142.532539" y="133.233867" style="fill-opacity: 0; stroke: #1f77b4"/>
     <use xlink:href="#meb647e3a9e" x="143.896235" y="135.058732" style="fill-opacity: 0; stroke: #1f77b4"/>
     <use xlink:href="#meb647e3a9e" x="145.259931" y="139.701185" style="fill-opacity: 0; stroke: #1f77b4"/>
     <use xlink:href="#meb647e3a9e" x="146.621604" y="139.059016" style="fill-opacity: 0; stroke: #1f77b4"/>
     <use xlink:href="#meb647e3a9e" x="147.9853" y="132.950862" style="fill-opacity: 0; stroke: #1f77b4"/>
     <use xlink:href="#meb647e3a9e" x="149.348996" y="131.955862" style="fill-opacity: 0; stroke: #1f77b4"/>
     <use xlink:href="#meb647e3a9e" x="150.712691" y="129.718855" style="fill-opacity: 0; stroke: #1f77b4"/>
     <use xlink:href="#meb647e3a9e" x="152.075881" y="141.421835" style="fill-opacity: 0; stroke: #1f77b4"/>
     <use xlink:href="#meb647e3a9e" x="153.438061" y="166.912495" style="fill-opacity: 0; stroke: #1f77b4"/>
     <use xlink:href="#meb647e3a9e" x="154.801756" y="187.356887" style="fill-opacity: 0; stroke: #1f77b4"/>
     <use xlink:href="#meb647e3a9e" x="156.166968" y="194.051018" style="fill-opacity: 0; stroke: #1f77b4"/>
     <use xlink:href="#meb647e3a9e" x="157.530159" y="192.07485" style="fill-opacity: 0; stroke: #1f77b4"/>
     <use xlink:href="#meb647e3a9e" x="158.893854" y="179.313863" style="fill-opacity: 0; stroke: #1f77b4"/>
     <use xlink:href="#meb647e3a9e" x="160.25755" y="174.255842" style="fill-opacity: 0; stroke: #1f77b4"/>
     <use xlink:href="#meb647e3a9e" x="161.621245" y="176.152047" style="fill-opacity: 0; stroke: #1f77b4"/>
     <use xlink:href="#meb647e3a9e" x="162.985952" y="186.139387" style="fill-opacity: 0; stroke: #1f77b4"/>
     <use xlink:href="#meb647e3a9e" x="164.349648" y="191.814083" style="fill-opacity: 0; stroke: #1f77b4"/>
     <use xlink:href="#meb647e3a9e" x="165.714859" y="193.687547" style="fill-opacity: 0; stroke: #1f77b4"/>
     <use xlink:href="#meb647e3a9e" x="167.078555" y="192.51501" style="fill-opacity: 0; stroke: #1f77b4"/>
     <use xlink:href="#meb647e3a9e" x="168.443767" y="190.347788" style="fill-opacity: 0; stroke: #1f77b4"/>
     <use xlink:href="#meb647e3a9e" x="169.808474" y="182.7983" style="fill-opacity: 0; stroke: #1f77b4"/>
     <use xlink:href="#meb647e3a9e" x="171.172169" y="165.043506" style="fill-opacity: 0; stroke: #1f77b4"/>
     <use xlink:href="#meb647e3a9e" x="172.537381" y="144.274836" style="fill-opacity: 0; stroke: #1f77b4"/>
     <use xlink:href="#meb647e3a9e" x="173.902593" y="137.543897" style="fill-opacity: 0; stroke: #1f77b4"/>
     <use xlink:href="#meb647e3a9e" x="175.267805" y="146.582916" style="fill-opacity: 0; stroke: #1f77b4"/>
     <use xlink:href="#meb647e3a9e" x="176.632512" y="156.030403" style="fill-opacity: 0; stroke: #1f77b4"/>
     <use xlink:href="#meb647e3a9e" x="177.997724" y="153.723307" style="fill-opacity: 0; stroke: #1f77b4"/>
     <use xlink:href="#meb647e3a9e" x="179.362936" y="140.807608" style="fill-opacity: 0; stroke: #1f77b4"/>
     <use xlink:href="#meb647e3a9e" x="180.728148" y="138.202565" style="fill-opacity: 0; stroke: #1f77b4"/>
     <use xlink:href="#meb647e3a9e" x="182.09336" y="147.451328" style="fill-opacity: 0; stroke: #1f77b4"/>
     <use xlink:href="#meb647e3a9e" x="183.458066" y="165.902644" style="fill-opacity: 0; stroke: #1f77b4"/>
     <use xlink:href="#meb647e3a9e" x="184.823278" y="184.403649" style="fill-opacity: 0; stroke: #1f77b4"/>
     <use xlink:href="#meb647e3a9e" x="186.190006" y="191.709887" style="fill-opacity: 0; stroke: #1f77b4"/>
     <use xlink:href="#meb647e3a9e" x="187.555218" y="188.491613" style="fill-opacity: 0; stroke: #1f77b4"/>
     <use xlink:href="#meb647e3a9e" x="188.921947" y="201.637748" style="fill-opacity: 0; stroke: #1f77b4"/>
     <use xlink:href="#meb647e3a9e" x="190.286653" y="215.772485" style="fill-opacity: 0; stroke: #1f77b4"/>
     <use xlink:href="#meb647e3a9e" x="191.653381" y="216.404326" style="fill-opacity: 0; stroke: #1f77b4"/>
     <use xlink:href="#meb647e3a9e" x="193.018593" y="216.404326" style="fill-opacity: 0; stroke: #1f77b4"/>
     <use xlink:href="#meb647e3a9e" x="194.385322" y="207.718318" style="fill-opacity: 0; stroke: #1f77b4"/>
     <use xlink:href="#meb647e3a9e" x="195.75205" y="193.053996" style="fill-opacity: 0; stroke: #1f77b4"/>
     <use xlink:href="#meb647e3a9e" x="197.118778" y="191.543905" style="fill-opacity: 0; stroke: #1f77b4"/>
     <use xlink:href="#meb647e3a9e" x="198.48399" y="195.093539" style="fill-opacity: 0; stroke: #1f77b4"/>
     <use xlink:href="#meb647e3a9e" x="199.850213" y="197.607892" style="fill-opacity: 0; stroke: #1f77b4"/>
     <use xlink:href="#meb647e3a9e" x="201.216941" y="198.88643" style="fill-opacity: 0; stroke: #1f77b4"/>
     <use xlink:href="#meb647e3a9e" x="202.58367" y="201.888081" style="fill-opacity: 0; stroke: #1f77b4"/>
     <use xlink:href="#meb647e3a9e" x="203.950398" y="202.984226" style="fill-opacity: 0; stroke: #1f77b4"/>
     <use xlink:href="#meb647e3a9e" x="205.318643" y="202.632291" style="fill-opacity: 0; stroke: #1f77b4"/>
     <use xlink:href="#meb647e3a9e" x="206.685371" y="206.286273" style="fill-opacity: 0; stroke: #1f77b4"/>
     <use xlink:href="#meb647e3a9e" x="208.052099" y="213.688741" style="fill-opacity: 0; stroke: #1f77b4"/>
     <use xlink:href="#meb647e3a9e" x="209.418322" y="215.735758" style="fill-opacity: 0; stroke: #1f77b4"/>
     <use xlink:href="#meb647e3a9e" x="210.786567" y="210.424624" style="fill-opacity: 0; stroke: #1f77b4"/>
     <use xlink:href="#meb647e3a9e" x="212.153295" y="204.945484" style="fill-opacity: 0; stroke: #1f77b4"/>
     <use xlink:href="#meb647e3a9e" x="213.52154" y="204.73148" style="fill-opacity: 0; stroke: #1f77b4"/>
     <use xlink:href="#meb647e3a9e" x="214.888268" y="203.676112" style="fill-opacity: 0; stroke: #1f77b4"/>
     <use xlink:href="#meb647e3a9e" x="216.256513" y="201.421675" style="fill-opacity: 0; stroke: #1f77b4"/>
     <use xlink:href="#meb647e3a9e" x="217.623241" y="200.215155" style="fill-opacity: 0; stroke: #1f77b4"/>
     <use xlink:href="#meb647e3a9e" x="218.991486" y="199.952684" style="fill-opacity: 0; stroke: #1f77b4"/>
     <use xlink:href="#meb647e3a9e" x="220.35973" y="196.603874" style="fill-opacity: 0; stroke: #1f77b4"/>
     <use xlink:href="#meb647e3a9e" x="221.72747" y="190.467744" style="fill-opacity: 0; stroke: #1f77b4"/>
     <use xlink:href="#meb647e3a9e" x="223.095714" y="180.840126" style="fill-opacity: 0; stroke: #1f77b4"/>
     <use xlink:href="#meb647e3a9e" x="224.463959" y="168.703634" style="fill-opacity: 0; stroke: #1f77b4"/>
     <use xlink:href="#meb647e3a9e" x="225.832204" y="165.574259" style="fill-opacity: 0; stroke: #1f77b4"/>
     <use xlink:href="#meb647e3a9e" x="227.200448" y="167.483729" style="fill-opacity: 0; stroke: #1f77b4"/>
     <use xlink:href="#meb647e3a9e" x="228.568693" y="164.040752" style="fill-opacity: 0; stroke: #1f77b4"/>
     <use xlink:href="#meb647e3a9e" x="229.936937" y="159.058183" style="fill-opacity: 0; stroke: #1f77b4"/>
     <use xlink:href="#meb647e3a9e" x="231.305182" y="160.103094" style="fill-opacity: 0; stroke: #1f77b4"/>
     <use xlink:href="#meb647e3a9e" x="232.673427" y="159.584815" style="fill-opacity: 0; stroke: #1f77b4"/>
     <use xlink:href="#meb647e3a9e" x="234.043188" y="165.0405" style="fill-opacity: 0; stroke: #1f77b4"/>
     <use xlink:href="#meb647e3a9e" x="235.411432" y="169.329715" style="fill-opacity: 0; stroke: #1f77b4"/>
     <use xlink:href="#meb647e3a9e" x="236.781193" y="172.055639" style="fill-opacity: 0; stroke: #1f77b4"/>
     <use xlink:href="#meb647e3a9e" x="238.148933" y="167.58883" style="fill-opacity: 0; stroke: #1f77b4"/>
     <use xlink:href="#meb647e3a9e" x="239.518694" y="163.640614" style="fill-opacity: 0; stroke: #1f77b4"/>
     <use xlink:href="#meb647e3a9e" x="240.886938" y="160.210025" style="fill-opacity: 0; stroke: #1f77b4"/>
     <use xlink:href="#meb647e3a9e" x="242.256699" y="160.026046" style="fill-opacity: 0; stroke: #1f77b4"/>
     <use xlink:href="#meb647e3a9e" x="243.62646" y="164.910395" style="fill-opacity: 0; stroke: #1f77b4"/>
     <use xlink:href="#meb647e3a9e" x="244.996221" y="162.627266" style="fill-opacity: 0; stroke: #1f77b4"/>
     <use xlink:href="#meb647e3a9e" x="246.364466" y="155.04046" style="fill-opacity: 0; stroke: #1f77b4"/>
     <use xlink:href="#meb647e3a9e" x="247.734227" y="152.126269" style="fill-opacity: 0; stroke: #1f77b4"/>
     <use xlink:href="#meb647e3a9e" x="249.103988" y="180.650358" style="fill-opacity: 0; stroke: #1f77b4"/>
     <use xlink:href="#meb647e3a9e" x="250.473749" y="181.986325" style="fill-opacity: 0; stroke: #1f77b4"/>
     <use xlink:href="#meb647e3a9e" x="251.84351" y="183.836305" style="fill-opacity: 0; stroke: #1f77b4"/>
     <use xlink:href="#meb647e3a9e" x="253.214787" y="183.563574" style="fill-opacity: 0; stroke: #1f77b4"/>
     <use xlink:href="#meb647e3a9e" x="254.584548" y="180.176954" style="fill-opacity: 0; stroke: #1f77b4"/>
     <use xlink:href="#meb647e3a9e" x="255.954309" y="173.012756" style="fill-opacity: 0; stroke: #1f77b4"/>
     <use xlink:href="#meb647e3a9e" x="257.32407" y="170.702381" style="fill-opacity: 0; stroke: #1f77b4"/>
     <use xlink:href="#meb647e3a9e" x="258.695347" y="174.421166" style="fill-opacity: 0; stroke: #1f77b4"/>
     <use xlink:href="#meb647e3a9e" x="260.065108" y="176.136117" style="fill-opacity: 0; stroke: #1f77b4"/>
     <use xlink:href="#meb647e3a9e" x="261.436386" y="208.679725" style="fill-opacity: 0; stroke: #1f77b4"/>
     <use xlink:href="#meb647e3a9e" x="262.806147" y="208.549682" style="fill-opacity: 0; stroke: #1f77b4"/>
     <use xlink:href="#meb647e3a9e" x="264.177424" y="208.45291" style="fill-opacity: 0; stroke: #1f77b4"/>
     <use xlink:href="#meb647e3a9e" x="265.547185" y="208.62598" style="fill-opacity: 0; stroke: #1f77b4"/>
     <use xlink:href="#meb647e3a9e" x="266.918462" y="207.500214" style="fill-opacity: 0; stroke: #1f77b4"/>
     <use xlink:href="#meb647e3a9e" x="268.28974" y="207.257145" style="fill-opacity: 0; stroke: #1f77b4"/>
     <use xlink:href="#meb647e3a9e" x="269.661017" y="207.317462" style="fill-opacity: 0; stroke: #1f77b4"/>
     <use xlink:href="#meb647e3a9e" x="271.032294" y="208.676168" style="fill-opacity: 0; stroke: #1f77b4"/>
     <use xlink:href="#meb647e3a9e" x="272.403572" y="208.00301" style="fill-opacity: 0; stroke: #1f77b4"/>
     <use xlink:href="#meb647e3a9e" x="273.774849" y="203.674847" style="fill-opacity: 0; stroke: #1f77b4"/>
     <use xlink:href="#meb647e3a9e" x="275.146126" y="199.201506" style="fill-opacity: 0; stroke: #1f77b4"/>
     <use xlink:href="#meb647e3a9e" x="276.517404" y="196.32612" style="fill-opacity: 0; stroke: #1f77b4"/>
     <use xlink:href="#meb647e3a9e" x="277.888681" y="197.803202" style="fill-opacity: 0; stroke: #1f77b4"/>
     <use xlink:href="#meb647e3a9e" x="279.259958" y="197.651457" style="fill-opacity: 0; stroke: #1f77b4"/>
     <use xlink:href="#meb647e3a9e" x="280.632752" y="195.763411" style="fill-opacity: 0; stroke: #1f77b4"/>
     <use xlink:href="#meb647e3a9e" x="282.004029" y="191.399891" style="fill-opacity: 0; stroke: #1f77b4"/>
     <use xlink:href="#meb647e3a9e" x="283.375307" y="184.581217" style="fill-opacity: 0; stroke: #1f77b4"/>
     <use xlink:href="#meb647e3a9e" x="284.7481" y="179.872" style="fill-opacity: 0; stroke: #1f77b4"/>
     <use xlink:href="#meb647e3a9e" x="286.119378" y="175.719783" style="fill-opacity: 0; stroke: #1f77b4"/>
     <use xlink:href="#meb647e3a9e" x="287.492171" y="165.453939" style="fill-opacity: 0; stroke: #1f77b4"/>
     <use xlink:href="#meb647e3a9e" x="288.864965" y="151.216068" style="fill-opacity: 0; stroke: #1f77b4"/>
     <use xlink:href="#meb647e3a9e" x="290.236242" y="99.522675" style="fill-opacity: 0; stroke: #1f77b4"/>
     <use xlink:href="#meb647e3a9e" x="290.946653" y="-1" style="fill-opacity: 0; stroke: #1f77b4"/>
     <use xlink:href="#meb647e3a9e" x="301.004263" y="-1" style="fill-opacity: 0; stroke: #1f77b4"/>
     <use xlink:href="#meb647e3a9e" x="301.219097" y="44.777642" style="fill-opacity: 0; stroke: #1f77b4"/>
     <use xlink:href="#meb647e3a9e" x="302.591891" y="123.153618" style="fill-opacity: 0; stroke: #1f77b4"/>
     <use xlink:href="#meb647e3a9e" x="303.964684" y="152.195548" style="fill-opacity: 0; stroke: #1f77b4"/>
     <use xlink:href="#meb647e3a9e" x="305.338995" y="167.746298" style="fill-opacity: 0; stroke: #1f77b4"/>
     <use xlink:href="#meb647e3a9e" x="306.711788" y="178.858543" style="fill-opacity: 0; stroke: #1f77b4"/>
     <use xlink:href="#meb647e3a9e" x="308.086098" y="188.104607" style="fill-opacity: 0; stroke: #1f77b4"/>
     <use xlink:href="#meb647e3a9e" x="309.458892" y="193.190091" style="fill-opacity: 0; stroke: #1f77b4"/>
     <use xlink:href="#meb647e3a9e" x="310.833202" y="194.798972" style="fill-opacity: 0; stroke: #1f77b4"/>
     <use xlink:href="#meb647e3a9e" x="312.205996" y="194.901155" style="fill-opacity: 0; stroke: #1f77b4"/>
     <use xlink:href="#meb647e3a9e" x="313.580811" y="193.962599" style="fill-opacity: 0; stroke: #1f77b4"/>
     <use xlink:href="#meb647e3a9e" x="314.955121" y="194.377544" style="fill-opacity: 0; stroke: #1f77b4"/>
     <use xlink:href="#meb647e3a9e" x="316.327915" y="195.295205" style="fill-opacity: 0; stroke: #1f77b4"/>
     <use xlink:href="#meb647e3a9e" x="317.702225" y="195.54895" style="fill-opacity: 0; stroke: #1f77b4"/>
     <use xlink:href="#meb647e3a9e" x="319.076535" y="199.172986" style="fill-opacity: 0; stroke: #1f77b4"/>
     <use xlink:href="#meb647e3a9e" x="320.450845" y="202.692638" style="fill-opacity: 0; stroke: #1f77b4"/>
    </g>
   </g>
   <g id="line2d_2">
    <path d="M 43.27895 214.891074 
L 50.062553 214.438375 
L 55.490547 213.860564 
L 59.562932 213.184236 
L 62.277687 212.525542 
L 64.993958 211.57968 
L 66.351589 210.93973 
L 67.708713 210.135033 
L 69.06786 209.098534 
L 70.42549 207.732325 
L 71.784131 205.873941 
L 73.141762 203.263255 
L 74.500403 199.453627 
L 75.85955 193.705025 
L 77.216674 184.939463 
L 78.575821 172.337487 
L 79.934968 158.568521 
L 81.293609 151.847696 
L 82.652755 152.460192 
L 84.011396 148.063987 
L 85.370543 134.418052 
L 86.72969 135.657177 
L 88.089847 159.211342 
L 89.448994 178.231528 
L 90.80814 188.529124 
L 92.168298 193.628912 
L 93.527444 195.682308 
L 94.887602 195.497991 
L 96.246749 192.980543 
L 97.607412 187.172676 
L 98.966053 176.697257 
L 100.326716 164.57136 
L 101.687379 164.299593 
L 103.047536 174.072513 
L 104.408199 180.726856 
L 105.768862 181.970038 
L 107.129019 178.789655 
L 108.489682 171.66064 
L 111.210503 150.124119 
L 112.571166 144.941323 
L 113.93284 149.903972 
L 116.654166 171.473786 
L 118.015839 179.053254 
L 119.376502 183.366025 
L 120.738682 184.680713 
L 122.100861 182.85505 
L 123.461018 176.884051 
L 124.823198 164.190203 
L 126.185377 140.345707 
L 127.547051 106.476765 
L 128.90923 94.672964 
L 131.633083 153.995479 
L 132.995262 171.757318 
L 134.357442 180.600144 
L 135.719116 183.981537 
L 137.082811 183.231274 
L 138.444991 177.985532 
L 139.80717 166.24298 
L 141.17036 146.213665 
L 142.532539 128.98188 
L 143.896235 134.351599 
L 145.259931 144.426013 
L 146.621604 142.759932 
L 147.9853 131.52761 
L 149.348996 124.364326 
L 150.712691 135.042263 
L 152.075881 154.810653 
L 153.438061 171.025884 
L 154.801756 181.273761 
L 156.166968 186.665203 
L 157.530159 187.646801 
L 158.893854 182.514211 
L 160.25755 171.959109 
L 161.621245 178.244031 
L 162.985952 189.5909 
L 164.349648 194.150145 
L 165.714859 194.818872 
L 167.078555 192.872902 
L 168.443767 187.953599 
L 169.808474 178.268921 
L 171.172169 160.903849 
L 172.537381 140.051441 
L 173.902593 139.026531 
L 175.267805 151.073735 
L 176.632512 154.436297 
L 177.997724 148.388687 
L 179.362936 140.274398 
L 180.728148 141.007816 
L 182.09336 153.175805 
L 183.458066 168.343517 
L 184.823278 180.57886 
L 186.190006 189.131345 
L 187.555218 194.906629 
L 188.921947 198.845625 
L 190.286653 201.576341 
L 191.653381 203.510431 
L 193.018593 204.894383 
L 194.385322 205.890938 
L 195.75205 206.601242 
L 197.118778 207.092654 
L 198.48399 207.409339 
L 199.850213 207.581054 
L 201.216941 207.625916 
L 202.58367 207.554401 
L 203.950398 207.37087 
L 205.318643 207.073996 
L 206.685371 206.658553 
L 208.052099 206.113369 
L 209.418322 205.422317 
L 210.786567 204.561057 
L 212.153295 203.501292 
L 213.52154 202.200887 
L 214.888268 200.611747 
L 216.256513 198.666042 
L 217.623241 196.28945 
L 218.991486 193.384962 
L 220.35973 189.85819 
L 221.72747 185.631142 
L 223.095714 180.685594 
L 227.200448 164.2548 
L 228.568693 160.543809 
L 229.936937 159.050936 
L 231.305182 159.857303 
L 232.673427 162.279327 
L 234.043188 165.249539 
L 235.411432 167.76707 
L 236.781193 169.138377 
L 238.148933 168.959734 
L 239.518694 167.100244 
L 240.886938 163.805765 
L 242.256699 159.943941 
L 243.62646 157.171828 
L 244.996221 157.314807 
L 246.364466 160.989051 
L 247.734227 167.04941 
L 249.103988 173.616932 
L 250.473749 179.249826 
L 251.84351 183.094375 
L 253.214787 184.371405 
L 254.584548 181.642076 
L 255.954309 173.263037 
L 257.32407 167.31439 
L 258.695347 178.082295 
L 260.065108 190.627754 
L 261.436386 198.024805 
L 262.806147 202.248456 
L 264.177424 204.887555 
L 265.547185 206.681921 
L 266.918462 207.989934 
L 268.28974 208.990913 
L 269.661017 209.785743 
L 272.403572 210.97581 
L 275.146126 211.829326 
L 277.888681 212.473162 
L 282.004029 213.188573 
L 287.492171 213.853061 
L 294.354623 214.41281 
L 303.964684 214.917744 
L 316.327915 215.316335 
L 320.450845 215.412149 
L 320.450845 215.412149 
" clip-path="url(#p477b6f19b2)" style="fill: none; stroke: #ff0000; stroke-width: 1.5; stroke-linecap: square"/>
   </g>
   <g id="line2d_3">
    <path d="M 295.727417 216.404326 
L 295.727417 17.735865 
" clip-path="url(#p477b6f19b2)" style="fill: none; stroke-dasharray: 3.7,1.6; stroke-dashoffset: 0; stroke: #808080"/>
   </g>
   <g id="patch_3">
    <path d="M 43.003987 216.404326 
L 43.003987 17.735865 
" style="fill: none; stroke: #000000; stroke-linejoin: miter; stroke-linecap: square"/>
   </g>
   <g id="patch_4">
    <path d="M 320.99976 216.404326 
L 320.99976 17.735865 
" style="fill: none; stroke: #000000; stroke-linejoin: miter; stroke-linecap: square"/>
   </g>
   <g id="patch_5">
    <path d="M 43.003987 216.404326 
L 320.99976 216.404326 
" style="fill: none; stroke: #000000; stroke-linejoin: miter; stroke-linecap: square"/>
   </g>
   <g id="patch_6">
    <path d="M 43.003987 17.735865 
L 320.99976 17.735865 
" style="fill: none; stroke: #000000; stroke-linejoin: miter; stroke-linecap: square"/>
   </g>
   <g id="matplotlib.axis_1">
    <g id="xtick_1">
     <g id="line2d_4">
      <defs>
       <path id="m414de0d966" d="M 0 0 
L 0 3.75 
" style="stroke: #000000; stroke-width: 1.25"/>
      </defs>
      <g>
       <use xlink:href="#m414de0d966" x="43.003987" y="216.404326" style="stroke: #000000; stroke-width: 1.25"/>
      </g>
     </g>
     <g id="text_1">
      <!-- $\mathdefault{429}$ -->
      <g transform="translate(33.818987 231.52792)">
       <text>
        <tspan style="font: 11px 'Arial'" x="0 6.117676 12.235352" y="-0.09375">429</tspan>
       </text>
      </g>
     </g>
    </g>
    <g id="xtick_2">
     <g id="line2d_5">
      <g>
       <use xlink:href="#m414de0d966" x="93.548673" y="216.404326" style="stroke: #000000; stroke-width: 1.25"/>
      </g>
     </g>
     <g id="text_2">
      <!-- $\mathdefault{430}$ -->
      <g transform="translate(84.363673 231.52792)">
       <text>
        <tspan style="font: 11px 'Arial'" x="0 6.117676 12.235352" y="-0.09375">430</tspan>
       </text>
      </g>
     </g>
    </g>
    <g id="xtick_3">
     <g id="line2d_6">
      <g>
       <use xlink:href="#m414de0d966" x="144.093359" y="216.404326" style="stroke: #000000; stroke-width: 1.25"/>
      </g>
     </g>
     <g id="text_3">
      <!-- $\mathdefault{431}$ -->
      <g transform="translate(134.908359 231.52792)">
       <text>
        <tspan style="font: 11px 'Arial'" x="0 6.117676 12.235352" y="-0.09375">431</tspan>
       </text>
      </g>
     </g>
    </g>
    <g id="xtick_4">
     <g id="line2d_7">
      <g>
       <use xlink:href="#m414de0d966" x="194.638045" y="216.404326" style="stroke: #000000; stroke-width: 1.25"/>
      </g>
     </g>
     <g id="text_4">
      <!-- $\mathdefault{432}$ -->
      <g transform="translate(185.453045 231.52792)">
       <text>
        <tspan style="font: 11px 'Arial'" x="0 6.117676 12.235352" y="-0.09375">432</tspan>
       </text>
      </g>
     </g>
    </g>
    <g id="xtick_5">
     <g id="line2d_8">
      <g>
       <use xlink:href="#m414de0d966" x="245.182731" y="216.404326" style="stroke: #000000; stroke-width: 1.25"/>
      </g>
     </g>
     <g id="text_5">
      <!-- $\mathdefault{433}$ -->
      <g transform="translate(235.997731 231.52792)">
       <text>
        <tspan style="font: 11px 'Arial'" x="0 6.117676 12.235352" y="-0.09375">433</tspan>
       </text>
      </g>
     </g>
    </g>
    <g id="xtick_6">
     <g id="line2d_9">
      <g>
       <use xlink:href="#m414de0d966" x="295.727417" y="216.404326" style="stroke: #000000; stroke-width: 1.25"/>
      </g>
     </g>
     <g id="text_6">
      <!-- $\mathdefault{434}$ -->
      <g transform="translate(286.542417 231.52792)">
       <text>
        <tspan style="font: 11px 'Arial'" x="0 6.117676 12.235352" y="-0.09375">434</tspan>
       </text>
      </g>
     </g>
    </g>
    <g id="text_7">
     <!-- $\lambda$ {\sffamily (nm)} -->
     <g transform="translate(164.206736 246.411565) scale(0.12 -0.12)">
      <defs>
       <path id="StandardSymL-6c" d="M 480 3650 
C 525 4013 710 4224 998 4224 
C 1203 4224 1376 4064 1472 3778 
C 1517 3650 1574 3440 1632 3198 
L 154 19 
L 755 19 
L 1843 2301 
C 2048 1059 2150 607 2266 358 
C 2406 83 2611 -64 2848 -64 
C 3098 -64 3296 89 3405 371 
C 3475 543 3501 715 3507 1014 
L 3373 1014 
C 3322 683 3174 499 2944 499 
C 2752 499 2586 620 2483 843 
C 2400 1008 2355 1174 2266 1645 
L 2093 2466 
C 2086 2485 2080 2530 2067 2594 
C 1920 3415 1690 4192 1536 4422 
C 1395 4627 1203 4736 992 4736 
C 602 4736 397 4403 326 3650 
L 480 3650 
z
" transform="scale(0.015625)"/>
       <path id="NimbusSanL-Regu-28" d="M 1510 4672 
C 870 3833 467 2668 467 1663 
C 467 652 870 -513 1510 -1351 
L 1862 -1351 
C 1299 -436 986 639 986 1663 
C 986 2681 1299 3763 1862 4672 
L 1510 4672 
z
" transform="scale(0.015625)"/>
       <path id="NimbusSanL-Regu-6e" d="M 448 3328 
L 448 0 
L 986 0 
L 986 1835 
C 986 2539 1344 2988 1894 2988 
C 2317 2988 2586 2732 2586 2328 
L 2586 0 
L 3117 0 
L 3117 2539 
C 3117 3097 2701 3456 2054 3456 
C 1555 3456 1235 3263 941 2796 
L 941 3328 
L 448 3328 
z
" transform="scale(0.015625)"/>
       <path id="NimbusSanL-Regu-6d" d="M 448 3328 
L 448 0 
L 986 0 
L 986 2089 
C 986 2597 1338 2988 1773 2988 
C 2170 2988 2394 2744 2394 2315 
L 2394 0 
L 2931 0 
L 2931 2109 
C 2931 2597 3283 2988 3718 2988 
C 4109 2988 4339 2738 4339 2315 
L 4339 0 
L 4877 0 
L 4877 2520 
C 4877 3123 4531 3456 3904 3456 
C 3456 3456 3187 3321 2874 2943 
C 2675 3302 2406 3456 1971 3456 
C 1523 3456 1229 3289 941 2886 
L 941 3328 
L 448 3328 
z
" transform="scale(0.015625)"/>
       <path id="NimbusSanL-Regu-29" d="M 595 -1351 
C 1235 -513 1638 652 1638 1657 
C 1638 2668 1235 3833 595 4672 
L 243 4672 
C 806 3756 1120 2681 1120 1657 
C 1120 639 806 -442 243 -1351 
L 595 -1351 
z
" transform="scale(0.015625)"/>
      </defs>
      <use xlink:href="#StandardSymL-6c" transform="scale(0.996264)"/>
      <use xlink:href="#NimbusSanL-Regu-28" transform="translate(91.855235 0) scale(0.996264)"/>
      <use xlink:href="#NimbusSanL-Regu-6e" transform="translate(125.030464 0) scale(0.996264)"/>
      <use xlink:href="#NimbusSanL-Regu-6d" transform="translate(180.422141 0) scale(0.996264)"/>
      <use xlink:href="#NimbusSanL-Regu-29" transform="translate(263.410572 0) scale(0.996264)"/>
     </g>
    </g>
   </g>
   <g id="matplotlib.axis_2">
    <g id="ytick_1">
     <g id="line2d_10">
      <defs>
       <path id="m95fb6a9d9a" d="M 0 0 
L -3.75 0 
" style="stroke: #000000; stroke-width: 1.25"/>
      </defs>
      <g>
       <use xlink:href="#m95fb6a9d9a" x="43.003987" y="216.404326" style="stroke: #000000; stroke-width: 1.25"/>
      </g>
     </g>
     <g id="text_8">
      <!-- $\mathdefault{0.0}$ -->
      <g transform="translate(20.353987 220.341123)">
       <text>
        <tspan style="font: 11px 'Arial'" x="0 6.117676 9.173828" y="-0.09375">0.0</tspan>
       </text>
      </g>
     </g>
    </g>
    <g id="ytick_2">
     <g id="line2d_11">
      <g>
       <use xlink:href="#m95fb6a9d9a" x="43.003987" y="187.278937" style="stroke: #000000; stroke-width: 1.25"/>
      </g>
     </g>
     <g id="text_9">
      <!-- $\mathdefault{0.5}$ -->
      <g transform="translate(20.353987 191.215734)">
       <text>
        <tspan style="font: 11px 'Arial'" x="0 6.117676 9.173828" y="-0.09375">0.5</tspan>
       </text>
      </g>
     </g>
    </g>
    <g id="ytick_3">
     <g id="line2d_12">
      <g>
       <use xlink:href="#m95fb6a9d9a" x="43.003987" y="158.153549" style="stroke: #000000; stroke-width: 1.25"/>
      </g>
     </g>
     <g id="text_10">
      <!-- $\mathdefault{1.0}$ -->
      <g transform="translate(20.353987 162.090346)">
       <text>
        <tspan style="font: 11px 'Arial'" x="0 6.117676 9.173828" y="-0.09375">1.0</tspan>
       </text>
      </g>
     </g>
    </g>
    <g id="ytick_4">
     <g id="line2d_13">
      <g>
       <use xlink:href="#m95fb6a9d9a" x="43.003987" y="129.028161" style="stroke: #000000; stroke-width: 1.25"/>
      </g>
     </g>
     <g id="text_11">
      <!-- $\mathdefault{1.5}$ -->
      <g transform="translate(20.353987 132.964957)">
       <text>
        <tspan style="font: 11px 'Arial'" x="0 6.117676 9.173828" y="-0.09375">1.5</tspan>
       </text>
      </g>
     </g>
    </g>
    <g id="ytick_5">
     <g id="line2d_14">
      <g>
       <use xlink:href="#m95fb6a9d9a" x="43.003987" y="99.902772" style="stroke: #000000; stroke-width: 1.25"/>
      </g>
     </g>
     <g id="text_12">
      <!-- $\mathdefault{2.0}$ -->
      <g transform="translate(20.353987 103.839569)">
       <text>
        <tspan style="font: 11px 'Arial'" x="0 6.117676 9.173828" y="-0.09375">2.0</tspan>
       </text>
      </g>
     </g>
    </g>
    <g id="ytick_6">
     <g id="line2d_15">
      <g>
       <use xlink:href="#m95fb6a9d9a" x="43.003987" y="70.777384" style="stroke: #000000; stroke-width: 1.25"/>
      </g>
     </g>
     <g id="text_13">
      <!-- $\mathdefault{2.5}$ -->
      <g transform="translate(20.353987 74.71418)">
       <text>
        <tspan style="font: 11px 'Arial'" x="0 6.117676 9.173828" y="-0.09375">2.5</tspan>
       </text>
      </g>
     </g>
    </g>
    <g id="ytick_7">
     <g id="line2d_16">
      <g>
       <use xlink:href="#m95fb6a9d9a" x="43.003987" y="41.651995" style="stroke: #000000; stroke-width: 1.25"/>
      </g>
     </g>
     <g id="text_14">
      <!-- $\mathdefault{3.0}$ -->
      <g transform="translate(20.353987 45.588792)">
       <text>
        <tspan style="font: 11px 'Arial'" x="0 6.117676 9.173828" y="-0.09375">3.0</tspan>
       </text>
      </g>
     </g>
    </g>
    <g id="text_15">
     <!-- $B_{\lambda}$ {\sffamily (photons/cm\textsuperscript{2}/s/nm)} -->
     <g transform="translate(13.728305 177.714049) rotate(-90) scale(0.12 -0.12)">
      <defs>
       <path id="NimbusRomNo9L-ReguItal-42" d="M -51 0 
L 1754 0 
C 2758 0 3450 523 3450 1274 
C 3450 1510 3373 1732 3232 1872 
C 3104 2019 2976 2095 2643 2235 
C 3098 2344 3283 2420 3488 2598 
C 3667 2751 3763 2968 3763 3222 
C 3763 3827 3309 4160 2483 4160 
L 832 4160 
L 832 4057 
C 1229 4025 1325 3974 1325 3795 
C 1325 3700 1299 3541 1254 3388 
L 467 574 
C 352 204 307 166 -51 102 
L -51 0 
z
M 1523 2108 
C 1939 2108 2208 2083 2336 2032 
C 2598 1923 2758 1643 2758 1299 
C 2758 612 2285 192 1504 192 
C 1235 192 1094 287 1094 459 
C 1094 535 1171 841 1318 1350 
C 1402 1637 1440 1783 1523 2108 
z
M 2003 3789 
C 2042 3929 2118 3967 2368 3967 
C 2880 3967 3117 3751 3117 3280 
C 3117 2917 2963 2637 2688 2484 
C 2470 2356 2163 2312 1587 2312 
L 2003 3789 
z
" transform="scale(0.015625)"/>
       <path id="NimbusSanL-Regu-70" d="M 346 -1408 
L 883 -1408 
L 883 371 
C 1165 25 1478 -128 1914 -128 
C 2778 -128 3347 568 3347 1632 
C 3347 2752 2797 3456 1907 3456 
C 1453 3456 1088 3251 838 2854 
L 838 3359 
L 346 3359 
L 346 -1408 
z
M 1818 2956 
C 2406 2956 2790 2440 2790 1644 
C 2790 887 2400 371 1818 371 
C 1254 371 883 880 883 1663 
C 883 2447 1254 2956 1818 2956 
z
" transform="scale(0.015625)"/>
       <path id="NimbusSanL-Regu-68" d="M 448 4672 
L 448 0 
L 979 0 
L 979 1853 
C 979 2539 1338 2988 1888 2988 
C 2061 2988 2234 2930 2362 2834 
C 2515 2725 2579 2565 2579 2328 
L 2579 0 
L 3110 0 
L 3110 2539 
C 3110 3103 2707 3456 2054 3456 
C 1581 3456 1293 3308 979 2898 
L 979 4672 
L 448 4672 
z
" transform="scale(0.015625)"/>
       <path id="NimbusSanL-Regu-6f" d="M 1741 3456 
C 800 3456 230 2784 230 1663 
C 230 543 794 -128 1747 -128 
C 2688 -128 3264 543 3264 1638 
C 3264 2791 2707 3456 1741 3456 
z
M 1747 2963 
C 2349 2963 2707 2472 2707 1644 
C 2707 861 2336 364 1747 364 
C 1152 364 787 855 787 1663 
C 787 2466 1152 2963 1747 2963 
z
" transform="scale(0.015625)"/>
       <path id="NimbusSanL-Regu-74" d="M 1626 3328 
L 1075 3328 
L 1075 4249 
L 544 4249 
L 544 3328 
L 90 3328 
L 90 2892 
L 544 2892 
L 544 402 
C 544 64 774 -128 1190 -128 
C 1318 -128 1446 -116 1626 -84 
L 1626 364 
C 1555 345 1472 339 1370 339 
C 1139 339 1075 402 1075 634 
L 1075 2892 
L 1626 2892 
L 1626 3328 
z
" transform="scale(0.015625)"/>
       <path id="NimbusSanL-Regu-73" d="M 2803 2428 
C 2797 3084 2362 3456 1587 3456 
C 806 3456 301 3052 301 2434 
C 301 1912 570 1663 1363 1472 
L 1862 1351 
C 2234 1262 2381 1129 2381 887 
C 2381 574 2067 364 1600 364 
C 1312 364 1069 447 934 587 
C 851 683 813 778 781 1014 
L 218 1014 
C 243 243 678 -128 1555 -128 
C 2400 -128 2938 288 2938 931 
C 2938 1428 2656 1702 1990 1861 
L 1478 1982 
C 1043 2084 858 2224 858 2459 
C 858 2765 1133 2963 1568 2963 
C 1997 2963 2227 2778 2240 2428 
L 2803 2428 
z
" transform="scale(0.015625)"/>
       <path id="NimbusSanL-Regu-2f" d="M 1466 4672 
L -51 -128 
L 301 -128 
L 1818 4672 
L 1466 4672 
z
" transform="scale(0.015625)"/>
       <path id="NimbusSanL-Regu-63" d="M 3014 2237 
C 2989 2561 2918 2771 2790 2956 
C 2560 3270 2157 3456 1690 3456 
C 787 3456 198 2740 198 1632 
C 198 555 774 -128 1683 -128 
C 2483 -128 2989 352 3053 1167 
L 2515 1167 
C 2426 632 2150 364 1696 364 
C 1107 364 755 842 755 1632 
C 755 2466 1101 2963 1683 2963 
C 2131 2963 2413 2701 2477 2237 
L 3014 2237 
z
" transform="scale(0.015625)"/>
       <path id="NimbusSanL-Regu-32" d="M 3238 556 
L 851 556 
C 909 928 1114 1165 1670 1493 
L 2310 1839 
C 2944 2185 3270 2653 3270 3211 
C 3270 3589 3117 3942 2848 4185 
C 2579 4428 2246 4544 1818 4544 
C 1242 4544 813 4339 563 3955 
C 403 3711 333 3429 320 2967 
L 883 2967 
C 902 3275 941 3461 1018 3608 
C 1165 3884 1459 4051 1798 4051 
C 2310 4051 2694 3685 2694 3198 
C 2694 2839 2483 2531 2080 2300 
L 1491 1967 
C 544 1428 269 999 218 0 
L 3238 0 
L 3238 556 
z
" transform="scale(0.015625)"/>
      </defs>
      <use xlink:href="#NimbusRomNo9L-ReguItal-42" transform="scale(0.996264)"/>
      <use xlink:href="#StandardSymL-6c" transform="translate(60.871631 -20.616338) scale(0.737241)"/>
      <use xlink:href="#NimbusSanL-Regu-28" transform="translate(135.818713 0) scale(0.996264)"/>
      <use xlink:href="#NimbusSanL-Regu-70" transform="translate(168.993943 0) scale(0.996264)"/>
      <use xlink:href="#NimbusSanL-Regu-68" transform="translate(224.38562 0) scale(0.996264)"/>
      <use xlink:href="#NimbusSanL-Regu-6f" transform="translate(279.777297 0) scale(0.996264)"/>
      <use xlink:href="#NimbusSanL-Regu-74" transform="translate(335.168974 0) scale(0.996264)"/>
      <use xlink:href="#NimbusSanL-Regu-6f" transform="translate(362.864143 0) scale(0.996264)"/>
      <use xlink:href="#NimbusSanL-Regu-6e" transform="translate(418.25582 0) scale(0.996264)"/>
      <use xlink:href="#NimbusSanL-Regu-73" transform="translate(473.647497 0) scale(0.996264)"/>
      <use xlink:href="#NimbusSanL-Regu-2f" transform="translate(523.460698 0) scale(0.996264)"/>
      <use xlink:href="#NimbusSanL-Regu-63" transform="translate(551.155868 0) scale(0.996264)"/>
      <use xlink:href="#NimbusSanL-Regu-6d" transform="translate(600.969068 0) scale(0.996264)"/>
      <use xlink:href="#NimbusSanL-Regu-32" transform="translate(683.957498 36.163231) scale(0.737241)"/>
      <use xlink:href="#NimbusSanL-Regu-2f" transform="translate(725.445777 0) scale(0.996264)"/>
      <use xlink:href="#NimbusSanL-Regu-73" transform="translate(753.140947 0) scale(0.996264)"/>
      <use xlink:href="#NimbusSanL-Regu-2f" transform="translate(802.954147 0) scale(0.996264)"/>
      <use xlink:href="#NimbusSanL-Regu-6e" transform="translate(830.649317 0) scale(0.996264)"/>
      <use xlink:href="#NimbusSanL-Regu-6d" transform="translate(886.040994 0) scale(0.996264)"/>
      <use xlink:href="#NimbusSanL-Regu-29" transform="translate(969.029424 0) scale(0.996264)"/>
     </g>
    </g>
    <g id="text_16">
     <!-- $\times\mathdefault{10^{12}}\mathdefault{}$ -->
     <g transform="translate(43.003987 14.735865)">
      <text>
       <tspan style="font: 11px 'STIXGeneral'" x="0" y="-0.799312500000001"></tspan>
       <tspan style="font: 11px 'Arial'" x="7.039993 13.157669" y="-0.799312500000001">10</tspan>
       <tspan style="font: 7.7px 'Arial'" x="19.467003 23.749376" y="-8.465625">12</tspan>
      </text>
     </g>
    </g>
   </g>
   <g id="patch_7">
    <path d="M 217.800817 47.652918 
L 217.800817 67.40298 
L 294.609383 67.40298 
" style="fill: none; stroke: #000000; stroke-linecap: round"/>
    <path d="M 290.609383 65.40298 
L 294.609383 67.40298 
L 290.609383 69.40298 
" style="fill: none; stroke: #000000; stroke-linecap: round"/>
   </g>
   <g id="text_17">
    <g id="patch_8">
     <path d="M 184.100817 50.702711 
L 251.500817 50.702711 
Q 254.500817 50.702711 254.500817 47.702711 
L 254.500817 37.602711 
Q 254.500817 34.602711 251.500817 34.602711 
L 184.100817 34.602711 
Q 181.100817 34.602711 181.100817 37.602711 
L 181.100817 47.702711 
Q 181.100817 50.702711 184.100817 50.702711 
z
" style="fill: #f5deb3; stroke: #000000; stroke-linejoin: miter"/>
    </g>
    <!-- D$_{\gamma}$ (434.00) nm -->
    <g transform="translate(184.100817 44.902711)">
     <text>
      <tspan style="font: 10px 'Arial'" x="0 10.686517 13.464837 16.794915 22.356439 27.917962 33.479486 36.257806 41.81933 47.380853 50.710931 53.489251 59.050775" y="-0.71875">D(434.00)nm</tspan>
      <tspan style="font: italic 7px 'STIXGeneral'" x="7.375898" y="0.6031250000000004"></tspan>
     </text>
    </g>
   </g>
   <g id="text_18">
    <text style="font: 10px 'Arial'; text-anchor: middle" x="233.844364" y="95.899745" transform="rotate(-0 233.844364 95.899745)">Q-branch</text>
   </g>
   <g id="text_19">
    <text style="font: 10px 'Arial'; text-anchor: middle" x="121.508553" y="31.269443" transform="rotate(-0 121.508553 31.269443)">B-D + C-D</text>
   </g>
   <g id="text_20">
    <text style="font: 700 12px 'Arial'; text-anchor: middle" x="182.001874" y="11.735865" transform="rotate(-0 182.001874 11.735865)">PC boron pebble rod - 66 min</text>
   </g>
  </g>
 </g>
 <defs>
  <clipPath id="p477b6f19b2">
   <rect x="43.003987" y="17.735865" width="277.995773" height="198.668461"/>
  </clipPath>
 </defs>
</svg>
