<?xml version="1.0" encoding="utf-8" standalone="no"?>
<!DOCTYPE svg PUBLIC "-//W3C//DTD SVG 1.1//EN"
  "http://www.w3.org/Graphics/SVG/1.1/DTD/svg11.dtd">
<svg xmlns:xlink="http://www.w3.org/1999/xlink" width="324pt" height="252pt" viewBox="0 0 324 252" xmlns="http://www.w3.org/2000/svg" version="1.1">
 <metadata>
  <rdf:RDF xmlns:dc="http://purl.org/dc/elements/1.1/" xmlns:cc="http://creativecommons.org/ns#" xmlns:rdf="http://www.w3.org/1999/02/22-rdf-syntax-ns#">
   <cc:Work>
    <dc:type rdf:resource="http://purl.org/dc/dcmitype/StillImage"/>
    <dc:date>2024-12-06T11:02:58.024805</dc:date>
    <dc:format>image/svg+xml</dc:format>
    <dc:creator>
     <cc:Agent>
      <dc:title>Matplotlib v3.9.2, https://matplotlib.org/</dc:title>
     </cc:Agent>
    </dc:creator>
   </cc:Work>
  </rdf:RDF>
 </metadata>
 <defs>
  <style type="text/css">*{stroke-linejoin: round; stroke-linecap: butt}</style>
 </defs>
 <g id="figure_1">
  <g id="patch_1">
   <path d="M 0 252 
L 324 252 
L 324 0 
L 0 0 
z
" style="fill: #ffffff"/>
  </g>
  <g id="axes_1">
   <g id="patch_2">
    <path d="M 43.003987 216.404326 
L 320.99976 216.404326 
L 320.99976 17.735865 
L 43.003987 17.735865 
z
" style="fill: #ffffff"/>
   </g>
   <g id="PolyCollection_1">
    <path d="M 43.29563 216.069813 
L 43.29563 216.404326 
L 44.651744 216.404326 
L 46.008869 216.404326 
L 47.364983 216.404326 
L 48.722108 216.404326 
L 50.078222 216.404326 
L 51.435346 216.404326 
L 52.792977 216.404326 
L 54.148585 216.404326 
L 55.506215 216.404326 
L 56.86334 216.404326 
L 58.22097 216.404326 
L 59.578601 216.404326 
L 60.935726 216.404326 
L 62.293356 216.404326 
L 63.650481 216.404326 
L 65.008111 216.404326 
L 66.366752 216.404326 
L 67.724382 216.404326 
L 69.081507 216.404326 
L 70.440654 216.404326 
L 71.798284 216.404326 
L 73.156925 216.404326 
L 74.514555 216.404326 
L 75.873197 216.404326 
L 77.232343 216.404326 
L 78.589468 216.404326 
L 79.948615 216.404326 
L 81.307761 216.404326 
L 82.666402 216.404326 
L 84.025549 216.404326 
L 85.38419 216.404326 
L 86.743337 216.404326 
L 88.102483 216.404326 
L 89.462641 216.404326 
L 90.821787 216.404326 
L 92.180934 216.404326 
L 93.541092 216.404326 
L 94.900238 216.404326 
L 96.260396 216.404326 
L 97.619542 216.404326 
L 98.980205 216.404326 
L 100.338846 216.404326 
L 101.699509 216.404326 
L 103.060172 216.404326 
L 104.42033 216.404326 
L 105.780993 216.404326 
L 107.141656 216.404326 
L 108.501813 216.404326 
L 109.862476 216.404326 
L 111.222634 216.404326 
L 112.583297 216.404326 
L 113.943959 216.404326 
L 115.305633 216.404326 
L 116.666296 216.404326 
L 118.026959 216.404326 
L 119.388633 216.404326 
L 120.749296 216.404326 
L 122.111475 216.404326 
L 123.473655 216.404326 
L 124.833812 216.404326 
L 126.195991 216.404326 
L 127.558171 216.404326 
L 128.919844 216.404326 
L 130.282024 216.404326 
L 131.644203 216.404326 
L 133.005877 216.404326 
L 134.368056 216.404326 
L 135.730235 216.404326 
L 137.091909 216.404326 
L 138.455605 216.404326 
L 139.817784 216.404326 
L 141.179963 216.404326 
L 142.543154 216.404326 
L 143.905333 216.404326 
L 145.269029 216.404326 
L 146.632724 216.404326 
L 147.994398 216.404326 
L 149.358094 216.404326 
L 150.721789 216.404326 
L 152.085485 216.404326 
L 153.448675 216.404326 
L 154.810854 216.404326 
L 156.17455 216.404326 
L 157.539762 216.404326 
L 158.902952 216.404326 
L 160.266648 216.404326 
L 161.630343 216.404326 
L 162.994039 216.404326 
L 164.358746 216.404326 
L 165.722441 216.404326 
L 167.087653 216.404326 
L 168.451349 216.404326 
L 169.816561 216.404326 
L 171.181267 216.404326 
L 172.544963 216.404326 
L 173.910175 216.404326 
L 175.275387 216.404326 
L 176.640599 216.404326 
L 178.005305 216.404326 
L 179.370517 216.404326 
L 180.735729 216.404326 
L 182.100941 216.404326 
L 183.466153 216.404326 
L 184.83086 216.404326 
L 186.196072 216.404326 
L 187.5628 216.404326 
L 188.928012 216.404326 
L 190.29474 216.404326 
L 191.659447 216.404326 
L 193.026175 216.404326 
L 194.391387 216.404326 
L 195.758115 216.404326 
L 197.124844 216.404326 
L 198.491572 216.404326 
L 199.856784 216.404326 
L 201.223007 216.404326 
L 202.589735 216.404326 
L 203.956463 216.404326 
L 205.323192 216.404326 
L 206.691436 216.404326 
L 208.058165 216.404326 
L 209.424893 216.404326 
L 210.791116 216.404326 
L 212.159361 216.404326 
L 213.526089 216.404326 
L 214.894333 216.404326 
L 216.261062 216.404326 
L 217.629306 216.404326 
L 218.996035 216.404326 
L 220.364279 216.404326 
L 221.732524 216.404326 
L 223.100263 216.404326 
L 224.468508 216.404326 
L 225.836753 216.404326 
L 227.204997 216.404326 
L 228.573242 216.404326 
L 229.941486 216.404326 
L 231.309731 216.404326 
L 232.677976 216.404326 
L 234.04622 216.404326 
L 235.415981 216.404326 
L 236.784226 216.404326 
L 238.153987 216.404326 
L 239.521726 216.404326 
L 240.891487 216.404326 
L 242.259732 216.404326 
L 243.629493 216.404326 
L 244.999254 216.404326 
L 246.369015 216.404326 
L 247.73726 216.404326 
L 249.10702 216.404326 
L 250.476781 216.404326 
L 251.846542 216.404326 
L 253.216303 216.404326 
L 254.587581 216.404326 
L 255.957342 216.404326 
L 257.327103 216.404326 
L 258.696864 216.404326 
L 260.068141 216.404326 
L 261.437902 216.404326 
L 262.809179 216.404326 
L 264.17894 216.404326 
L 265.550218 216.404326 
L 266.919979 216.404326 
L 268.291256 216.404326 
L 269.662533 216.404326 
L 271.033811 216.404326 
L 272.405088 216.404326 
L 273.776365 216.404326 
L 275.147643 216.404326 
L 276.51892 216.404326 
L 277.890197 216.404326 
L 279.261475 216.404326 
L 280.632752 216.404326 
L 282.005546 216.404326 
L 283.376823 216.404326 
L 284.7481 216.404326 
L 286.120894 216.404326 
L 287.492171 216.404326 
L 288.864965 216.404326 
L 290.237759 216.404326 
L 291.609036 216.404326 
L 292.98183 216.404326 
L 294.354623 216.404326 
L 295.727417 216.404326 
L 297.100211 216.404326 
L 298.47351 216.404326 
L 299.846303 216.404326 
L 301.219097 216.404326 
L 302.591891 216.404326 
L 303.964684 216.404326 
L 305.337478 216.404326 
L 306.711788 216.404326 
L 308.084582 216.404326 
L 309.458892 216.404326 
L 310.831686 216.404326 
L 312.205996 216.404326 
L 313.578789 216.404326 
L 314.953605 216.404326 
L 316.327915 216.404326 
L 317.700708 216.404326 
L 319.075018 216.404326 
L 320.449328 216.404326 
L 320.449328 214.685979 
L 320.449328 214.685979 
L 319.075018 214.629626 
L 317.700708 214.570462 
L 316.327915 214.508365 
L 314.953605 214.442992 
L 313.578789 214.374158 
L 312.205996 214.301749 
L 310.831686 214.225315 
L 309.458892 214.14473 
L 308.084582 214.059495 
L 306.711788 213.969447 
L 305.337478 213.873998 
L 303.964684 213.772932 
L 302.591891 213.665675 
L 301.219097 213.551705 
L 299.846303 213.430442 
L 298.47351 213.301238 
L 297.100211 213.163321 
L 295.727417 213.015981 
L 294.354623 212.858258 
L 292.98183 212.689124 
L 291.609036 212.507412 
L 290.237759 212.312014 
L 288.864965 212.100973 
L 287.492171 211.872737 
L 286.120894 211.625546 
L 284.7481 211.356458 
L 283.376823 211.063245 
L 282.005546 210.74225 
L 280.632752 210.388987 
L 279.261475 209.99923 
L 277.890197 209.566364 
L 276.51892 209.082445 
L 275.147643 208.537124 
L 273.776365 207.91655 
L 272.405088 207.201588 
L 271.033811 206.36482 
L 269.662533 205.365266 
L 268.291256 204.138703 
L 266.919979 202.579033 
L 265.550218 200.503718 
L 264.17894 197.568703 
L 262.809179 193.148001 
L 261.437902 186.190185 
L 260.068141 176.251749 
L 258.696864 168.499914 
L 257.327103 171.265175 
L 255.957342 178.160483 
L 254.587581 182.152681 
L 253.216303 182.832019 
L 251.846542 180.685114 
L 250.476781 174.923351 
L 249.10702 162.502262 
L 247.73726 147.744344 
L 246.369015 155.308721 
L 244.999254 164.142444 
L 243.629493 166.350906 
L 242.259732 165.646405 
L 240.891487 163.911067 
L 239.521726 161.988477 
L 238.153987 160.362641 
L 236.784226 159.344901 
L 235.415981 159.137154 
L 234.04622 159.823896 
L 232.677976 161.376839 
L 231.309731 163.676405 
L 229.941486 166.543123 
L 228.573242 169.776353 
L 227.204997 173.186857 
L 225.836753 176.617342 
L 224.468508 179.950551 
L 223.100263 183.10816 
L 221.732524 186.043574 
L 220.364279 188.738326 
L 218.996035 191.188069 
L 217.629306 193.398511 
L 216.261062 195.389172 
L 214.894333 197.173555 
L 213.526089 198.774723 
L 212.159361 200.208007 
L 210.791116 201.494516 
L 209.424893 202.647506 
L 208.058165 203.684274 
L 206.691436 204.617741 
L 205.323192 205.46066 
L 203.956463 206.221645 
L 202.589735 206.910886 
L 201.223007 207.536464 
L 199.856784 208.105262 
L 198.491572 208.623359 
L 197.124844 209.097127 
L 195.758115 209.530744 
L 194.391387 209.928407 
L 193.026175 210.293423 
L 191.659447 210.629857 
L 190.29474 210.939719 
L 188.928012 211.226467 
L 187.5628 211.491594 
L 186.196072 211.737687 
L 184.83086 211.965975 
L 183.466153 212.178247 
L 182.100941 212.376073 
L 180.735729 212.560632 
L 179.370517 212.733059 
L 178.005305 212.894371 
L 176.640599 213.045428 
L 175.275387 213.187168 
L 173.910175 213.320277 
L 172.544963 213.445431 
L 171.181267 213.563112 
L 169.816561 213.674097 
L 168.451349 213.778836 
L 167.087653 213.877639 
L 165.722441 213.971144 
L 164.358746 214.059525 
L 162.994039 214.143297 
L 161.630343 214.222654 
L 160.266648 214.297955 
L 158.902952 214.369466 
L 157.539762 214.437411 
L 156.17455 214.502138 
L 154.810854 214.563687 
L 153.448675 214.622261 
L 152.085485 214.67815 
L 150.721789 214.731493 
L 149.358094 214.782423 
L 147.994398 214.831081 
L 146.632724 214.877533 
L 145.269029 214.922039 
L 143.905333 214.964641 
L 142.543154 215.005402 
L 141.179963 215.044497 
L 139.817784 215.081961 
L 138.455605 215.117908 
L 137.091909 215.152456 
L 135.730235 215.185591 
L 134.368056 215.217448 
L 133.005877 215.24808 
L 131.644203 215.277538 
L 130.282024 215.3059 
L 128.919844 215.333212 
L 127.558171 215.359513 
L 126.195991 215.384871 
L 124.833812 215.409323 
L 123.473655 215.432875 
L 122.111475 215.455638 
L 120.749296 215.477614 
L 119.388633 215.498816 
L 118.026959 215.519316 
L 116.666296 215.539117 
L 115.305633 215.558264 
L 113.943959 215.576798 
L 112.583297 215.59472 
L 111.222634 215.612067 
L 109.862476 215.62886 
L 108.501813 215.645132 
L 107.141656 215.660893 
L 105.780993 215.676176 
L 104.42033 215.690995 
L 103.060172 215.705362 
L 101.699509 215.719305 
L 100.338846 215.732838 
L 98.980205 215.745955 
L 97.619542 215.758711 
L 96.260396 215.771088 
L 94.900238 215.783123 
L 93.541092 215.79481 
L 92.180934 215.80618 
L 90.821787 215.817227 
L 89.462641 215.827972 
L 88.102483 215.838433 
L 86.743337 215.848605 
L 85.38419 215.858507 
L 84.025549 215.868143 
L 82.666402 215.87753 
L 81.307761 215.88667 
L 79.948615 215.895579 
L 78.589468 215.90426 
L 77.232343 215.912708 
L 75.873197 215.920957 
L 74.514555 215.928998 
L 73.156925 215.936835 
L 71.798284 215.944485 
L 70.440654 215.951944 
L 69.081507 215.959231 
L 67.724382 215.966334 
L 66.366752 215.973271 
L 65.008111 215.98005 
L 63.650481 215.986665 
L 62.293356 215.993125 
L 60.935726 215.999439 
L 59.578601 216.005607 
L 58.22097 216.011637 
L 56.86334 216.017531 
L 55.506215 216.023293 
L 54.148585 216.028928 
L 52.792977 216.034432 
L 51.435346 216.039824 
L 50.078222 216.045097 
L 48.722108 216.050252 
L 47.364983 216.055302 
L 46.008869 216.06024 
L 44.651744 216.065079 
L 43.29563 216.069813 
z
" clip-path="url(#p7a5101763f)" style="fill: #1f77b4; fill-opacity: 0.25"/>
   </g>
   <g id="PolyCollection_2">
    <path d="M 43.29563 214.945456 
L 43.29563 216.404326 
L 44.651744 216.404326 
L 46.008869 216.404326 
L 47.364983 216.404326 
L 48.722108 216.404326 
L 50.078222 216.404326 
L 51.435346 216.404326 
L 52.792977 216.404326 
L 54.148585 216.404326 
L 55.506215 216.404326 
L 56.86334 216.404326 
L 58.22097 216.404326 
L 59.578601 216.404326 
L 60.935726 216.404326 
L 62.293356 216.404326 
L 63.650481 216.404326 
L 65.008111 216.404326 
L 66.366752 216.404326 
L 67.724382 216.404326 
L 69.081507 216.404326 
L 70.440654 216.404326 
L 71.798284 216.404326 
L 73.156925 216.404326 
L 74.514555 216.404326 
L 75.873197 216.404326 
L 77.232343 216.404326 
L 78.589468 216.404326 
L 79.948615 216.404326 
L 81.307761 216.404326 
L 82.666402 216.404326 
L 84.025549 216.404326 
L 85.38419 216.404326 
L 86.743337 216.404326 
L 88.102483 216.404326 
L 89.462641 216.404326 
L 90.821787 216.404326 
L 92.180934 216.404326 
L 93.541092 216.404326 
L 94.900238 216.404326 
L 96.260396 216.404326 
L 97.619542 216.404326 
L 98.980205 216.404326 
L 100.338846 216.404326 
L 101.699509 216.404326 
L 103.060172 216.404326 
L 104.42033 216.404326 
L 105.780993 216.404326 
L 107.141656 216.404326 
L 108.501813 216.404326 
L 109.862476 216.404326 
L 111.222634 216.404326 
L 112.583297 216.404326 
L 113.943959 216.404326 
L 115.305633 216.404326 
L 116.666296 216.404326 
L 118.026959 216.404326 
L 119.388633 216.404326 
L 120.749296 216.404326 
L 122.111475 216.404326 
L 123.473655 216.404326 
L 124.833812 216.404326 
L 126.195991 216.404326 
L 127.558171 216.404326 
L 128.919844 216.404326 
L 130.282024 216.404326 
L 131.644203 216.404326 
L 133.005877 216.404326 
L 134.368056 216.404326 
L 135.730235 216.404326 
L 137.091909 216.404326 
L 138.455605 216.404326 
L 139.817784 216.404326 
L 141.179963 216.404326 
L 142.543154 216.404326 
L 143.905333 216.404326 
L 145.269029 216.404326 
L 146.632724 216.404326 
L 147.994398 216.404326 
L 149.358094 216.404326 
L 150.721789 216.404326 
L 152.085485 216.404326 
L 153.448675 216.404326 
L 154.810854 216.404326 
L 156.17455 216.404326 
L 157.539762 216.404326 
L 158.902952 216.404326 
L 160.266648 216.404326 
L 161.630343 216.404326 
L 162.994039 216.404326 
L 164.358746 216.404326 
L 165.722441 216.404326 
L 167.087653 216.404326 
L 168.451349 216.404326 
L 169.816561 216.404326 
L 171.181267 216.404326 
L 172.544963 216.404326 
L 173.910175 216.404326 
L 175.275387 216.404326 
L 176.640599 216.404326 
L 178.005305 216.404326 
L 179.370517 216.404326 
L 180.735729 216.404326 
L 182.100941 216.404326 
L 183.466153 216.404326 
L 184.83086 216.404326 
L 186.196072 216.404326 
L 187.5628 216.404326 
L 188.928012 216.404326 
L 190.29474 216.404326 
L 191.659447 216.404326 
L 193.026175 216.404326 
L 194.391387 216.404326 
L 195.758115 216.404326 
L 197.124844 216.404326 
L 198.491572 216.404326 
L 199.856784 216.404326 
L 201.223007 216.404326 
L 202.589735 216.404326 
L 203.956463 216.404326 
L 205.323192 216.404326 
L 206.691436 216.404326 
L 208.058165 216.404326 
L 209.424893 216.404326 
L 210.791116 216.404326 
L 212.159361 216.404326 
L 213.526089 216.404326 
L 214.894333 216.404326 
L 216.261062 216.404326 
L 217.629306 216.404326 
L 218.996035 216.404326 
L 220.364279 216.404326 
L 221.732524 216.404326 
L 223.100263 216.404326 
L 224.468508 216.404326 
L 225.836753 216.404326 
L 227.204997 216.404326 
L 228.573242 216.404326 
L 229.941486 216.404326 
L 231.309731 216.404326 
L 232.677976 216.404326 
L 234.04622 216.404326 
L 235.415981 216.404326 
L 236.784226 216.404326 
L 238.153987 216.404326 
L 239.521726 216.404326 
L 240.891487 216.404326 
L 242.259732 216.404326 
L 243.629493 216.404326 
L 244.999254 216.404326 
L 246.369015 216.404326 
L 247.73726 216.404326 
L 249.10702 216.404326 
L 250.476781 216.404326 
L 251.846542 216.404326 
L 253.216303 216.404326 
L 254.587581 216.404326 
L 255.957342 216.404326 
L 257.327103 216.404326 
L 258.696864 216.404326 
L 260.068141 216.404326 
L 261.437902 216.404326 
L 262.809179 216.404326 
L 264.17894 216.404326 
L 265.550218 216.404326 
L 266.919979 216.404326 
L 268.291256 216.404326 
L 269.662533 216.404326 
L 271.033811 216.404326 
L 272.405088 216.404326 
L 273.776365 216.404326 
L 275.147643 216.404326 
L 276.51892 216.404326 
L 277.890197 216.404326 
L 279.261475 216.404326 
L 280.632752 216.404326 
L 282.005546 216.404326 
L 283.376823 216.404326 
L 284.7481 216.404326 
L 286.120894 216.404326 
L 287.492171 216.404326 
L 288.864965 216.404326 
L 290.237759 216.404326 
L 291.609036 216.404326 
L 292.98183 216.404326 
L 294.354623 216.404326 
L 295.727417 216.404326 
L 297.100211 216.404326 
L 298.47351 216.404326 
L 299.846303 216.404326 
L 301.219097 216.404326 
L 302.591891 216.404326 
L 303.964684 216.404326 
L 305.337478 216.404326 
L 306.711788 216.404326 
L 308.084582 216.404326 
L 309.458892 216.404326 
L 310.831686 216.404326 
L 312.205996 216.404326 
L 313.578789 216.404326 
L 314.953605 216.404326 
L 316.327915 216.404326 
L 317.700708 216.404326 
L 319.075018 216.404326 
L 320.449328 216.404326 
L 320.449328 216.19311 
L 320.449328 216.19311 
L 319.075018 216.189656 
L 317.700708 216.186112 
L 316.327915 216.182482 
L 314.953605 216.178753 
L 313.578789 216.174925 
L 312.205996 216.171001 
L 310.831686 216.166967 
L 309.458892 216.162828 
L 308.084582 216.158572 
L 306.711788 216.154203 
L 305.337478 216.149706 
L 303.964684 216.145089 
L 302.591891 216.140339 
L 301.219097 216.135453 
L 299.846303 216.130424 
L 298.47351 216.125247 
L 297.100211 216.119914 
L 295.727417 216.114422 
L 294.354623 216.108763 
L 292.98183 216.102929 
L 291.609036 216.096913 
L 290.237759 216.090715 
L 288.864965 216.084311 
L 287.492171 216.0777 
L 286.120894 216.07088 
L 284.7481 216.063826 
L 283.376823 216.056543 
L 282.005546 216.049012 
L 280.632752 216.041213 
L 279.261475 216.03315 
L 277.890197 216.024801 
L 276.51892 216.016153 
L 275.147643 216.00719 
L 273.776365 215.997895 
L 272.405088 215.988253 
L 271.033811 215.978243 
L 269.662533 215.967846 
L 268.291256 215.957042 
L 266.919979 215.945808 
L 265.550218 215.934131 
L 264.17894 215.921962 
L 262.809179 215.909298 
L 261.437902 215.896081 
L 260.068141 215.882308 
L 258.696864 215.867914 
L 257.327103 215.852891 
L 255.957342 215.837185 
L 254.587581 215.820749 
L 253.216303 215.803517 
L 251.846542 215.785473 
L 250.476781 215.766543 
L 249.10702 215.746662 
L 247.73726 215.725764 
L 246.369015 215.703799 
L 244.999254 215.680634 
L 243.629493 215.656205 
L 242.259732 215.630412 
L 240.891487 215.603175 
L 239.521726 215.574313 
L 238.153987 215.543768 
L 236.784226 215.511298 
L 235.415981 215.47682 
L 234.04622 215.44007 
L 232.677976 215.400921 
L 231.309731 215.359098 
L 229.941486 215.314336 
L 228.573242 215.266334 
L 227.204997 215.214751 
L 225.836753 215.159198 
L 224.468508 215.099227 
L 223.100263 215.034329 
L 221.732524 214.963936 
L 220.364279 214.887311 
L 218.996035 214.803677 
L 217.629306 214.712202 
L 216.261062 214.611577 
L 214.894333 214.500715 
L 213.526089 214.377805 
L 212.159361 214.241239 
L 210.791116 214.088435 
L 209.424893 213.91702 
L 208.058165 213.723292 
L 206.691436 213.503062 
L 205.323192 213.250699 
L 203.956463 212.959988 
L 202.589735 212.621974 
L 201.223007 212.225345 
L 199.856784 211.755361 
L 198.491572 211.19236 
L 197.124844 210.508015 
L 195.758115 209.665067 
L 194.391387 208.609983 
L 193.026175 207.267127 
L 191.659447 205.519624 
L 190.29474 203.201492 
L 188.928012 200.045591 
L 187.5628 195.665549 
L 186.196072 189.480551 
L 184.83086 180.813764 
L 183.466153 169.346744 
L 182.100941 156.692414 
L 180.735729 148.115019 
L 179.370517 148.509132 
L 178.005305 154.588454 
L 176.640599 158.070455 
L 175.275387 152.043366 
L 173.910175 136.83083 
L 172.544963 140.430487 
L 171.181267 164.602451 
L 169.816561 181.611549 
L 168.451349 190.357662 
L 167.087653 194.508812 
L 165.722441 195.754056 
L 164.358746 194.115407 
L 162.994039 187.648627 
L 161.630343 174.28708 
L 160.266648 173.59732 
L 158.902952 184.937215 
L 157.539762 188.854497 
L 156.17455 187.085617 
L 154.810854 180.854125 
L 153.448675 169.412259 
L 152.085485 152.207108 
L 150.721789 135.183073 
L 149.358094 132.434056 
L 147.994398 141.685082 
L 146.632724 146.156998 
L 145.269029 137.443756 
L 143.905333 119.778756 
L 142.543154 121.033056 
L 141.179963 145.894163 
L 139.817784 166.898067 
L 138.455605 178.359351 
L 137.091909 183.348879 
L 135.730235 183.847985 
L 134.368056 180.117524 
L 133.005877 170.733607 
L 131.644203 152.410565 
L 130.282024 123.279789 
L 128.919844 101.715747 
L 127.558171 118.016832 
L 126.195991 148.108035 
L 124.833812 168.353778 
L 123.473655 179.099385 
L 122.111475 184.036316 
L 120.749296 185.190403 
L 119.388633 183.316196 
L 118.026959 178.378373 
L 116.666296 169.990433 
L 115.305633 158.354852 
L 113.943959 146.562197 
L 112.583297 141.810207 
L 111.222634 148.167834 
L 109.862476 160.237735 
L 108.501813 171.188279 
L 107.141656 178.370164 
L 105.780993 181.398142 
L 104.42033 179.878427 
L 103.060172 172.88378 
L 101.699509 162.561341 
L 100.338846 161.789858 
L 98.980205 173.815481 
L 97.619542 185.072218 
L 96.260396 191.516862 
L 94.900238 194.422053 
L 93.541092 194.809945 
L 92.180934 192.827075 
L 90.821787 187.635129 
L 89.462641 176.792873 
L 88.102483 155.916205 
L 86.743337 130.675648 
L 85.38419 133.15175 
L 84.025549 146.536387 
L 82.666402 149.816178 
L 81.307761 151.656519 
L 79.948615 160.63509 
L 78.589468 173.688364 
L 77.232343 185.052585 
L 75.873197 193.221317 
L 74.514555 198.791066 
L 73.156925 202.610542 
L 71.798284 205.299772 
L 70.440654 207.246465 
L 69.081507 208.698769 
L 67.724382 209.807591 
L 66.366752 210.675383 
L 65.008111 211.368387 
L 63.650481 211.930721 
L 62.293356 212.394295 
L 60.935726 212.781931 
L 59.578601 213.109707 
L 58.22097 213.390024 
L 56.86334 213.631928 
L 55.506215 213.842382 
L 54.148585 214.027008 
L 52.792977 214.189797 
L 51.435346 214.334657 
L 50.078222 214.464043 
L 48.722108 214.580169 
L 47.364983 214.685043 
L 46.008869 214.780024 
L 44.651744 214.866519 
L 43.29563 214.945456 
z
" clip-path="url(#p7a5101763f)" style="fill: #ff7f0e; fill-opacity: 0.25"/>
   </g>
   <g id="line2d_1">
    <path d="M 43.29563 188.01195 
L 44.651744 180.937463 
L 46.008869 176.305013 
L 47.364983 177.205473 
L 48.722108 180.669869 
L 51.435346 190.970661 
L 52.792977 191.971185 
L 54.148585 191.303653 
L 55.506215 188.041224 
L 56.86334 185.83101 
L 58.22097 187.497543 
L 59.578601 191.712041 
L 60.935726 193.036891 
L 62.293356 190.710101 
L 63.650481 183.521864 
L 65.008111 173.940196 
L 66.366752 168.542649 
L 67.724382 167.002969 
L 69.081507 170.579904 
L 70.440654 175.550297 
L 73.156925 189.845014 
L 74.514555 194.654362 
L 75.873197 194.199938 
L 77.232343 190.781088 
L 78.589468 181.759416 
L 79.948615 163.962554 
L 81.307761 154.167684 
L 82.666402 147.420481 
L 84.025549 151.763231 
L 85.38419 137.937872 
L 86.743337 127.050926 
L 88.102483 143.966891 
L 89.462641 168.104717 
L 90.821787 185.292505 
L 92.180934 190.080161 
L 93.541092 191.317423 
L 94.900238 193.245112 
L 96.260396 192.174256 
L 97.619542 186.716841 
L 98.980205 177.994774 
L 100.338846 166.65646 
L 101.699509 159.915782 
L 103.060172 166.206042 
L 104.42033 174.872892 
L 105.780993 182.218303 
L 107.141656 184.978994 
L 108.501813 179.465895 
L 111.222634 148.037547 
L 112.583297 140.822998 
L 113.943959 144.325597 
L 115.305633 154.072567 
L 116.666296 165.779774 
L 118.026959 174.636198 
L 119.388633 180.558646 
L 120.749296 183.034354 
L 123.473655 171.975264 
L 124.833812 169.429119 
L 126.195991 157.837492 
L 128.919844 106.328119 
L 130.282024 106.079195 
L 133.005877 167.573461 
L 134.368056 180.939843 
L 135.730235 183.690655 
L 137.091909 188.231062 
L 138.455605 186.729207 
L 139.817784 176.257978 
L 141.179963 147.264858 
L 142.543154 127.002006 
L 143.905333 118.170765 
L 145.269029 129.815371 
L 146.632724 137.363573 
L 147.994398 139.408832 
L 149.358094 137.048933 
L 150.721789 134.946215 
L 152.085485 135.611778 
L 153.448675 159.003684 
L 154.810854 177.816481 
L 156.17455 189.891522 
L 157.539762 189.896314 
L 158.902952 184.284193 
L 160.266648 174.348942 
L 161.630343 170.497653 
L 162.994039 178.059191 
L 164.358746 189.616775 
L 165.722441 193.129975 
L 167.087653 194.223233 
L 168.451349 192.654263 
L 169.816561 185.880881 
L 171.181267 169.599088 
L 172.544963 144.94591 
L 173.910175 133.50227 
L 175.275387 140.936155 
L 176.640599 151.82511 
L 178.005305 156.826613 
L 180.735729 141.215134 
L 182.100941 145.254445 
L 183.466153 158.874541 
L 184.83086 177.729148 
L 186.196072 188.000922 
L 187.5628 190.419238 
L 188.928012 187.098742 
L 190.29474 198.264176 
L 191.659447 213.696322 
L 193.026175 216.404326 
L 194.391387 216.404326 
L 197.124844 185.282771 
L 198.491572 187.397369 
L 199.856784 190.915729 
L 201.223007 195.394311 
L 202.589735 197.763027 
L 203.956463 199.082559 
L 205.323192 200.745128 
L 206.691436 200.221088 
L 208.058165 203.573872 
L 209.424893 214.051645 
L 210.791116 215.812101 
L 213.526089 202.780914 
L 214.894333 202.306201 
L 216.261062 201.072338 
L 217.629306 200.184409 
L 218.996035 199.136564 
L 220.364279 196.646543 
L 221.732524 192.25788 
L 223.100263 183.016383 
L 224.468508 171.218965 
L 225.836753 165.269278 
L 227.204997 168.879978 
L 228.573242 168.846961 
L 229.941486 163.078244 
L 231.309731 161.136827 
L 232.677976 160.182496 
L 234.04622 158.996845 
L 236.784226 166.691739 
L 238.153987 165.365107 
L 239.521726 160.16444 
L 240.891487 159.606087 
L 242.259732 158.80007 
L 243.629493 161.72118 
L 244.999254 162.213741 
L 246.369015 158.222329 
L 247.73726 151.68745 
L 249.10702 147.729452 
L 250.476781 179.477081 
L 251.846542 181.265669 
L 253.216303 180.517995 
L 254.587581 178.2374 
L 257.327103 173.128736 
L 258.696864 172.507254 
L 260.068141 171.518645 
L 261.437902 167.624493 
L 262.809179 202.992368 
L 264.17894 202.412311 
L 265.550218 202.943699 
L 266.919979 202.872758 
L 268.291256 201.84191 
L 269.662533 199.212034 
L 271.033811 198.960902 
L 272.405088 200.167222 
L 273.776365 199.181118 
L 275.147643 198.883621 
L 276.51892 199.28381 
L 277.890197 198.915413 
L 279.261475 197.243137 
L 280.632752 194.338936 
L 282.005546 190.950288 
L 283.376823 187.212561 
L 284.7481 181.830491 
L 286.120894 173.115221 
L 287.492171 159.796459 
L 288.864965 131.575078 
L 290.237759 79.778292 
L 291.049085 -1 
M 301.511509 -1 
L 302.591891 100.692209 
L 303.964684 136.567738 
L 305.337478 153.328548 
L 306.711788 166.7354 
L 308.084582 175.64591 
L 312.205996 187.771716 
L 313.578789 189.287424 
L 314.953605 189.390482 
L 316.327915 191.200762 
L 317.700708 193.612271 
L 319.075018 195.552449 
L 320.449328 197.152591 
L 320.449328 197.152591 
" clip-path="url(#p7a5101763f)" style="fill: none; stroke: #1f77b4; stroke-width: 1.5; stroke-linecap: square"/>
    <defs>
     <path id="mf0c5d46e8c" d="M 0 1.5 
C 0.397805 1.5 0.77937 1.341951 1.06066 1.06066 
C 1.341951 0.77937 1.5 0.397805 1.5 0 
C 1.5 -0.397805 1.341951 -0.77937 1.06066 -1.06066 
C 0.77937 -1.341951 0.397805 -1.5 0 -1.5 
C -0.397805 -1.5 -0.77937 -1.341951 -1.06066 -1.06066 
C -1.341951 -0.77937 -1.5 -0.397805 -1.5 0 
C -1.5 0.397805 -1.341951 0.77937 -1.06066 1.06066 
C -0.77937 1.341951 -0.397805 1.5 0 1.5 
z
" style="stroke: #1f77b4"/>
    </defs>
    <g clip-path="url(#p7a5101763f)">
     <use xlink:href="#mf0c5d46e8c" x="43.29563" y="188.01195" style="fill-opacity: 0; stroke: #1f77b4"/>
     <use xlink:href="#mf0c5d46e8c" x="44.651744" y="180.937463" style="fill-opacity: 0; stroke: #1f77b4"/>
     <use xlink:href="#mf0c5d46e8c" x="46.008869" y="176.305013" style="fill-opacity: 0; stroke: #1f77b4"/>
     <use xlink:href="#mf0c5d46e8c" x="47.364983" y="177.205473" style="fill-opacity: 0; stroke: #1f77b4"/>
     <use xlink:href="#mf0c5d46e8c" x="48.722108" y="180.669869" style="fill-opacity: 0; stroke: #1f77b4"/>
     <use xlink:href="#mf0c5d46e8c" x="50.078222" y="185.81652" style="fill-opacity: 0; stroke: #1f77b4"/>
     <use xlink:href="#mf0c5d46e8c" x="51.435346" y="190.970661" style="fill-opacity: 0; stroke: #1f77b4"/>
     <use xlink:href="#mf0c5d46e8c" x="52.792977" y="191.971185" style="fill-opacity: 0; stroke: #1f77b4"/>
     <use xlink:href="#mf0c5d46e8c" x="54.148585" y="191.303653" style="fill-opacity: 0; stroke: #1f77b4"/>
     <use xlink:href="#mf0c5d46e8c" x="55.506215" y="188.041224" style="fill-opacity: 0; stroke: #1f77b4"/>
     <use xlink:href="#mf0c5d46e8c" x="56.86334" y="185.83101" style="fill-opacity: 0; stroke: #1f77b4"/>
     <use xlink:href="#mf0c5d46e8c" x="58.22097" y="187.497543" style="fill-opacity: 0; stroke: #1f77b4"/>
     <use xlink:href="#mf0c5d46e8c" x="59.578601" y="191.712041" style="fill-opacity: 0; stroke: #1f77b4"/>
     <use xlink:href="#mf0c5d46e8c" x="60.935726" y="193.036891" style="fill-opacity: 0; stroke: #1f77b4"/>
     <use xlink:href="#mf0c5d46e8c" x="62.293356" y="190.710101" style="fill-opacity: 0; stroke: #1f77b4"/>
     <use xlink:href="#mf0c5d46e8c" x="63.650481" y="183.521864" style="fill-opacity: 0; stroke: #1f77b4"/>
     <use xlink:href="#mf0c5d46e8c" x="65.008111" y="173.940196" style="fill-opacity: 0; stroke: #1f77b4"/>
     <use xlink:href="#mf0c5d46e8c" x="66.366752" y="168.542649" style="fill-opacity: 0; stroke: #1f77b4"/>
     <use xlink:href="#mf0c5d46e8c" x="67.724382" y="167.002969" style="fill-opacity: 0; stroke: #1f77b4"/>
     <use xlink:href="#mf0c5d46e8c" x="69.081507" y="170.579904" style="fill-opacity: 0; stroke: #1f77b4"/>
     <use xlink:href="#mf0c5d46e8c" x="70.440654" y="175.550297" style="fill-opacity: 0; stroke: #1f77b4"/>
     <use xlink:href="#mf0c5d46e8c" x="71.798284" y="182.4715" style="fill-opacity: 0; stroke: #1f77b4"/>
     <use xlink:href="#mf0c5d46e8c" x="73.156925" y="189.845014" style="fill-opacity: 0; stroke: #1f77b4"/>
     <use xlink:href="#mf0c5d46e8c" x="74.514555" y="194.654362" style="fill-opacity: 0; stroke: #1f77b4"/>
     <use xlink:href="#mf0c5d46e8c" x="75.873197" y="194.199938" style="fill-opacity: 0; stroke: #1f77b4"/>
     <use xlink:href="#mf0c5d46e8c" x="77.232343" y="190.781088" style="fill-opacity: 0; stroke: #1f77b4"/>
     <use xlink:href="#mf0c5d46e8c" x="78.589468" y="181.759416" style="fill-opacity: 0; stroke: #1f77b4"/>
     <use xlink:href="#mf0c5d46e8c" x="79.948615" y="163.962554" style="fill-opacity: 0; stroke: #1f77b4"/>
     <use xlink:href="#mf0c5d46e8c" x="81.307761" y="154.167684" style="fill-opacity: 0; stroke: #1f77b4"/>
     <use xlink:href="#mf0c5d46e8c" x="82.666402" y="147.420481" style="fill-opacity: 0; stroke: #1f77b4"/>
     <use xlink:href="#mf0c5d46e8c" x="84.025549" y="151.763231" style="fill-opacity: 0; stroke: #1f77b4"/>
     <use xlink:href="#mf0c5d46e8c" x="85.38419" y="137.937872" style="fill-opacity: 0; stroke: #1f77b4"/>
     <use xlink:href="#mf0c5d46e8c" x="86.743337" y="127.050926" style="fill-opacity: 0; stroke: #1f77b4"/>
     <use xlink:href="#mf0c5d46e8c" x="88.102483" y="143.966891" style="fill-opacity: 0; stroke: #1f77b4"/>
     <use xlink:href="#mf0c5d46e8c" x="89.462641" y="168.104717" style="fill-opacity: 0; stroke: #1f77b4"/>
     <use xlink:href="#mf0c5d46e8c" x="90.821787" y="185.292505" style="fill-opacity: 0; stroke: #1f77b4"/>
     <use xlink:href="#mf0c5d46e8c" x="92.180934" y="190.080161" style="fill-opacity: 0; stroke: #1f77b4"/>
     <use xlink:href="#mf0c5d46e8c" x="93.541092" y="191.317423" style="fill-opacity: 0; stroke: #1f77b4"/>
     <use xlink:href="#mf0c5d46e8c" x="94.900238" y="193.245112" style="fill-opacity: 0; stroke: #1f77b4"/>
     <use xlink:href="#mf0c5d46e8c" x="96.260396" y="192.174256" style="fill-opacity: 0; stroke: #1f77b4"/>
     <use xlink:href="#mf0c5d46e8c" x="97.619542" y="186.716841" style="fill-opacity: 0; stroke: #1f77b4"/>
     <use xlink:href="#mf0c5d46e8c" x="98.980205" y="177.994774" style="fill-opacity: 0; stroke: #1f77b4"/>
     <use xlink:href="#mf0c5d46e8c" x="100.338846" y="166.65646" style="fill-opacity: 0; stroke: #1f77b4"/>
     <use xlink:href="#mf0c5d46e8c" x="101.699509" y="159.915782" style="fill-opacity: 0; stroke: #1f77b4"/>
     <use xlink:href="#mf0c5d46e8c" x="103.060172" y="166.206042" style="fill-opacity: 0; stroke: #1f77b4"/>
     <use xlink:href="#mf0c5d46e8c" x="104.42033" y="174.872892" style="fill-opacity: 0; stroke: #1f77b4"/>
     <use xlink:href="#mf0c5d46e8c" x="105.780993" y="182.218303" style="fill-opacity: 0; stroke: #1f77b4"/>
     <use xlink:href="#mf0c5d46e8c" x="107.141656" y="184.978994" style="fill-opacity: 0; stroke: #1f77b4"/>
     <use xlink:href="#mf0c5d46e8c" x="108.501813" y="179.465895" style="fill-opacity: 0; stroke: #1f77b4"/>
     <use xlink:href="#mf0c5d46e8c" x="109.862476" y="163.431006" style="fill-opacity: 0; stroke: #1f77b4"/>
     <use xlink:href="#mf0c5d46e8c" x="111.222634" y="148.037547" style="fill-opacity: 0; stroke: #1f77b4"/>
     <use xlink:href="#mf0c5d46e8c" x="112.583297" y="140.822998" style="fill-opacity: 0; stroke: #1f77b4"/>
     <use xlink:href="#mf0c5d46e8c" x="113.943959" y="144.325597" style="fill-opacity: 0; stroke: #1f77b4"/>
     <use xlink:href="#mf0c5d46e8c" x="115.305633" y="154.072567" style="fill-opacity: 0; stroke: #1f77b4"/>
     <use xlink:href="#mf0c5d46e8c" x="116.666296" y="165.779774" style="fill-opacity: 0; stroke: #1f77b4"/>
     <use xlink:href="#mf0c5d46e8c" x="118.026959" y="174.636198" style="fill-opacity: 0; stroke: #1f77b4"/>
     <use xlink:href="#mf0c5d46e8c" x="119.388633" y="180.558646" style="fill-opacity: 0; stroke: #1f77b4"/>
     <use xlink:href="#mf0c5d46e8c" x="120.749296" y="183.034354" style="fill-opacity: 0; stroke: #1f77b4"/>
     <use xlink:href="#mf0c5d46e8c" x="122.111475" y="177.412073" style="fill-opacity: 0; stroke: #1f77b4"/>
     <use xlink:href="#mf0c5d46e8c" x="123.473655" y="171.975264" style="fill-opacity: 0; stroke: #1f77b4"/>
     <use xlink:href="#mf0c5d46e8c" x="124.833812" y="169.429119" style="fill-opacity: 0; stroke: #1f77b4"/>
     <use xlink:href="#mf0c5d46e8c" x="126.195991" y="157.837492" style="fill-opacity: 0; stroke: #1f77b4"/>
     <use xlink:href="#mf0c5d46e8c" x="127.558171" y="131.826156" style="fill-opacity: 0; stroke: #1f77b4"/>
     <use xlink:href="#mf0c5d46e8c" x="128.919844" y="106.328119" style="fill-opacity: 0; stroke: #1f77b4"/>
     <use xlink:href="#mf0c5d46e8c" x="130.282024" y="106.079195" style="fill-opacity: 0; stroke: #1f77b4"/>
     <use xlink:href="#mf0c5d46e8c" x="131.644203" y="136.417089" style="fill-opacity: 0; stroke: #1f77b4"/>
     <use xlink:href="#mf0c5d46e8c" x="133.005877" y="167.573461" style="fill-opacity: 0; stroke: #1f77b4"/>
     <use xlink:href="#mf0c5d46e8c" x="134.368056" y="180.939843" style="fill-opacity: 0; stroke: #1f77b4"/>
     <use xlink:href="#mf0c5d46e8c" x="135.730235" y="183.690655" style="fill-opacity: 0; stroke: #1f77b4"/>
     <use xlink:href="#mf0c5d46e8c" x="137.091909" y="188.231062" style="fill-opacity: 0; stroke: #1f77b4"/>
     <use xlink:href="#mf0c5d46e8c" x="138.455605" y="186.729207" style="fill-opacity: 0; stroke: #1f77b4"/>
     <use xlink:href="#mf0c5d46e8c" x="139.817784" y="176.257978" style="fill-opacity: 0; stroke: #1f77b4"/>
     <use xlink:href="#mf0c5d46e8c" x="141.179963" y="147.264858" style="fill-opacity: 0; stroke: #1f77b4"/>
     <use xlink:href="#mf0c5d46e8c" x="142.543154" y="127.002006" style="fill-opacity: 0; stroke: #1f77b4"/>
     <use xlink:href="#mf0c5d46e8c" x="143.905333" y="118.170765" style="fill-opacity: 0; stroke: #1f77b4"/>
     <use xlink:href="#mf0c5d46e8c" x="145.269029" y="129.815371" style="fill-opacity: 0; stroke: #1f77b4"/>
     <use xlink:href="#mf0c5d46e8c" x="146.632724" y="137.363573" style="fill-opacity: 0; stroke: #1f77b4"/>
     <use xlink:href="#mf0c5d46e8c" x="147.994398" y="139.408832" style="fill-opacity: 0; stroke: #1f77b4"/>
     <use xlink:href="#mf0c5d46e8c" x="149.358094" y="137.048933" style="fill-opacity: 0; stroke: #1f77b4"/>
     <use xlink:href="#mf0c5d46e8c" x="150.721789" y="134.946215" style="fill-opacity: 0; stroke: #1f77b4"/>
     <use xlink:href="#mf0c5d46e8c" x="152.085485" y="135.611778" style="fill-opacity: 0; stroke: #1f77b4"/>
     <use xlink:href="#mf0c5d46e8c" x="153.448675" y="159.003684" style="fill-opacity: 0; stroke: #1f77b4"/>
     <use xlink:href="#mf0c5d46e8c" x="154.810854" y="177.816481" style="fill-opacity: 0; stroke: #1f77b4"/>
     <use xlink:href="#mf0c5d46e8c" x="156.17455" y="189.891522" style="fill-opacity: 0; stroke: #1f77b4"/>
     <use xlink:href="#mf0c5d46e8c" x="157.539762" y="189.896314" style="fill-opacity: 0; stroke: #1f77b4"/>
     <use xlink:href="#mf0c5d46e8c" x="158.902952" y="184.284193" style="fill-opacity: 0; stroke: #1f77b4"/>
     <use xlink:href="#mf0c5d46e8c" x="160.266648" y="174.348942" style="fill-opacity: 0; stroke: #1f77b4"/>
     <use xlink:href="#mf0c5d46e8c" x="161.630343" y="170.497653" style="fill-opacity: 0; stroke: #1f77b4"/>
     <use xlink:href="#mf0c5d46e8c" x="162.994039" y="178.059191" style="fill-opacity: 0; stroke: #1f77b4"/>
     <use xlink:href="#mf0c5d46e8c" x="164.358746" y="189.616775" style="fill-opacity: 0; stroke: #1f77b4"/>
     <use xlink:href="#mf0c5d46e8c" x="165.722441" y="193.129975" style="fill-opacity: 0; stroke: #1f77b4"/>
     <use xlink:href="#mf0c5d46e8c" x="167.087653" y="194.223233" style="fill-opacity: 0; stroke: #1f77b4"/>
     <use xlink:href="#mf0c5d46e8c" x="168.451349" y="192.654263" style="fill-opacity: 0; stroke: #1f77b4"/>
     <use xlink:href="#mf0c5d46e8c" x="169.816561" y="185.880881" style="fill-opacity: 0; stroke: #1f77b4"/>
     <use xlink:href="#mf0c5d46e8c" x="171.181267" y="169.599088" style="fill-opacity: 0; stroke: #1f77b4"/>
     <use xlink:href="#mf0c5d46e8c" x="172.544963" y="144.94591" style="fill-opacity: 0; stroke: #1f77b4"/>
     <use xlink:href="#mf0c5d46e8c" x="173.910175" y="133.50227" style="fill-opacity: 0; stroke: #1f77b4"/>
     <use xlink:href="#mf0c5d46e8c" x="175.275387" y="140.936155" style="fill-opacity: 0; stroke: #1f77b4"/>
     <use xlink:href="#mf0c5d46e8c" x="176.640599" y="151.82511" style="fill-opacity: 0; stroke: #1f77b4"/>
     <use xlink:href="#mf0c5d46e8c" x="178.005305" y="156.826613" style="fill-opacity: 0; stroke: #1f77b4"/>
     <use xlink:href="#mf0c5d46e8c" x="179.370517" y="149.171647" style="fill-opacity: 0; stroke: #1f77b4"/>
     <use xlink:href="#mf0c5d46e8c" x="180.735729" y="141.215134" style="fill-opacity: 0; stroke: #1f77b4"/>
     <use xlink:href="#mf0c5d46e8c" x="182.100941" y="145.254445" style="fill-opacity: 0; stroke: #1f77b4"/>
     <use xlink:href="#mf0c5d46e8c" x="183.466153" y="158.874541" style="fill-opacity: 0; stroke: #1f77b4"/>
     <use xlink:href="#mf0c5d46e8c" x="184.83086" y="177.729148" style="fill-opacity: 0; stroke: #1f77b4"/>
     <use xlink:href="#mf0c5d46e8c" x="186.196072" y="188.000922" style="fill-opacity: 0; stroke: #1f77b4"/>
     <use xlink:href="#mf0c5d46e8c" x="187.5628" y="190.419238" style="fill-opacity: 0; stroke: #1f77b4"/>
     <use xlink:href="#mf0c5d46e8c" x="188.928012" y="187.098742" style="fill-opacity: 0; stroke: #1f77b4"/>
     <use xlink:href="#mf0c5d46e8c" x="190.29474" y="198.264176" style="fill-opacity: 0; stroke: #1f77b4"/>
     <use xlink:href="#mf0c5d46e8c" x="191.659447" y="213.696322" style="fill-opacity: 0; stroke: #1f77b4"/>
     <use xlink:href="#mf0c5d46e8c" x="193.026175" y="216.404326" style="fill-opacity: 0; stroke: #1f77b4"/>
     <use xlink:href="#mf0c5d46e8c" x="194.391387" y="216.404326" style="fill-opacity: 0; stroke: #1f77b4"/>
     <use xlink:href="#mf0c5d46e8c" x="195.758115" y="201.068281" style="fill-opacity: 0; stroke: #1f77b4"/>
     <use xlink:href="#mf0c5d46e8c" x="197.124844" y="185.282771" style="fill-opacity: 0; stroke: #1f77b4"/>
     <use xlink:href="#mf0c5d46e8c" x="198.491572" y="187.397369" style="fill-opacity: 0; stroke: #1f77b4"/>
     <use xlink:href="#mf0c5d46e8c" x="199.856784" y="190.915729" style="fill-opacity: 0; stroke: #1f77b4"/>
     <use xlink:href="#mf0c5d46e8c" x="201.223007" y="195.394311" style="fill-opacity: 0; stroke: #1f77b4"/>
     <use xlink:href="#mf0c5d46e8c" x="202.589735" y="197.763027" style="fill-opacity: 0; stroke: #1f77b4"/>
     <use xlink:href="#mf0c5d46e8c" x="203.956463" y="199.082559" style="fill-opacity: 0; stroke: #1f77b4"/>
     <use xlink:href="#mf0c5d46e8c" x="205.323192" y="200.745128" style="fill-opacity: 0; stroke: #1f77b4"/>
     <use xlink:href="#mf0c5d46e8c" x="206.691436" y="200.221088" style="fill-opacity: 0; stroke: #1f77b4"/>
     <use xlink:href="#mf0c5d46e8c" x="208.058165" y="203.573872" style="fill-opacity: 0; stroke: #1f77b4"/>
     <use xlink:href="#mf0c5d46e8c" x="209.424893" y="214.051645" style="fill-opacity: 0; stroke: #1f77b4"/>
     <use xlink:href="#mf0c5d46e8c" x="210.791116" y="215.812101" style="fill-opacity: 0; stroke: #1f77b4"/>
     <use xlink:href="#mf0c5d46e8c" x="212.159361" y="209.287507" style="fill-opacity: 0; stroke: #1f77b4"/>
     <use xlink:href="#mf0c5d46e8c" x="213.526089" y="202.780914" style="fill-opacity: 0; stroke: #1f77b4"/>
     <use xlink:href="#mf0c5d46e8c" x="214.894333" y="202.306201" style="fill-opacity: 0; stroke: #1f77b4"/>
     <use xlink:href="#mf0c5d46e8c" x="216.261062" y="201.072338" style="fill-opacity: 0; stroke: #1f77b4"/>
     <use xlink:href="#mf0c5d46e8c" x="217.629306" y="200.184409" style="fill-opacity: 0; stroke: #1f77b4"/>
     <use xlink:href="#mf0c5d46e8c" x="218.996035" y="199.136564" style="fill-opacity: 0; stroke: #1f77b4"/>
     <use xlink:href="#mf0c5d46e8c" x="220.364279" y="196.646543" style="fill-opacity: 0; stroke: #1f77b4"/>
     <use xlink:href="#mf0c5d46e8c" x="221.732524" y="192.25788" style="fill-opacity: 0; stroke: #1f77b4"/>
     <use xlink:href="#mf0c5d46e8c" x="223.100263" y="183.016383" style="fill-opacity: 0; stroke: #1f77b4"/>
     <use xlink:href="#mf0c5d46e8c" x="224.468508" y="171.218965" style="fill-opacity: 0; stroke: #1f77b4"/>
     <use xlink:href="#mf0c5d46e8c" x="225.836753" y="165.269278" style="fill-opacity: 0; stroke: #1f77b4"/>
     <use xlink:href="#mf0c5d46e8c" x="227.204997" y="168.879978" style="fill-opacity: 0; stroke: #1f77b4"/>
     <use xlink:href="#mf0c5d46e8c" x="228.573242" y="168.846961" style="fill-opacity: 0; stroke: #1f77b4"/>
     <use xlink:href="#mf0c5d46e8c" x="229.941486" y="163.078244" style="fill-opacity: 0; stroke: #1f77b4"/>
     <use xlink:href="#mf0c5d46e8c" x="231.309731" y="161.136827" style="fill-opacity: 0; stroke: #1f77b4"/>
     <use xlink:href="#mf0c5d46e8c" x="232.677976" y="160.182496" style="fill-opacity: 0; stroke: #1f77b4"/>
     <use xlink:href="#mf0c5d46e8c" x="234.04622" y="158.996845" style="fill-opacity: 0; stroke: #1f77b4"/>
     <use xlink:href="#mf0c5d46e8c" x="235.415981" y="162.860426" style="fill-opacity: 0; stroke: #1f77b4"/>
     <use xlink:href="#mf0c5d46e8c" x="236.784226" y="166.691739" style="fill-opacity: 0; stroke: #1f77b4"/>
     <use xlink:href="#mf0c5d46e8c" x="238.153987" y="165.365107" style="fill-opacity: 0; stroke: #1f77b4"/>
     <use xlink:href="#mf0c5d46e8c" x="239.521726" y="160.16444" style="fill-opacity: 0; stroke: #1f77b4"/>
     <use xlink:href="#mf0c5d46e8c" x="240.891487" y="159.606087" style="fill-opacity: 0; stroke: #1f77b4"/>
     <use xlink:href="#mf0c5d46e8c" x="242.259732" y="158.80007" style="fill-opacity: 0; stroke: #1f77b4"/>
     <use xlink:href="#mf0c5d46e8c" x="243.629493" y="161.72118" style="fill-opacity: 0; stroke: #1f77b4"/>
     <use xlink:href="#mf0c5d46e8c" x="244.999254" y="162.213741" style="fill-opacity: 0; stroke: #1f77b4"/>
     <use xlink:href="#mf0c5d46e8c" x="246.369015" y="158.222329" style="fill-opacity: 0; stroke: #1f77b4"/>
     <use xlink:href="#mf0c5d46e8c" x="247.73726" y="151.68745" style="fill-opacity: 0; stroke: #1f77b4"/>
     <use xlink:href="#mf0c5d46e8c" x="249.10702" y="147.729452" style="fill-opacity: 0; stroke: #1f77b4"/>
     <use xlink:href="#mf0c5d46e8c" x="250.476781" y="179.477081" style="fill-opacity: 0; stroke: #1f77b4"/>
     <use xlink:href="#mf0c5d46e8c" x="251.846542" y="181.265669" style="fill-opacity: 0; stroke: #1f77b4"/>
     <use xlink:href="#mf0c5d46e8c" x="253.216303" y="180.517995" style="fill-opacity: 0; stroke: #1f77b4"/>
     <use xlink:href="#mf0c5d46e8c" x="254.587581" y="178.2374" style="fill-opacity: 0; stroke: #1f77b4"/>
     <use xlink:href="#mf0c5d46e8c" x="255.957342" y="175.68152" style="fill-opacity: 0; stroke: #1f77b4"/>
     <use xlink:href="#mf0c5d46e8c" x="257.327103" y="173.128736" style="fill-opacity: 0; stroke: #1f77b4"/>
     <use xlink:href="#mf0c5d46e8c" x="258.696864" y="172.507254" style="fill-opacity: 0; stroke: #1f77b4"/>
     <use xlink:href="#mf0c5d46e8c" x="260.068141" y="171.518645" style="fill-opacity: 0; stroke: #1f77b4"/>
     <use xlink:href="#mf0c5d46e8c" x="261.437902" y="167.624493" style="fill-opacity: 0; stroke: #1f77b4"/>
     <use xlink:href="#mf0c5d46e8c" x="262.809179" y="202.992368" style="fill-opacity: 0; stroke: #1f77b4"/>
     <use xlink:href="#mf0c5d46e8c" x="264.17894" y="202.412311" style="fill-opacity: 0; stroke: #1f77b4"/>
     <use xlink:href="#mf0c5d46e8c" x="265.550218" y="202.943699" style="fill-opacity: 0; stroke: #1f77b4"/>
     <use xlink:href="#mf0c5d46e8c" x="266.919979" y="202.872758" style="fill-opacity: 0; stroke: #1f77b4"/>
     <use xlink:href="#mf0c5d46e8c" x="268.291256" y="201.84191" style="fill-opacity: 0; stroke: #1f77b4"/>
     <use xlink:href="#mf0c5d46e8c" x="269.662533" y="199.212034" style="fill-opacity: 0; stroke: #1f77b4"/>
     <use xlink:href="#mf0c5d46e8c" x="271.033811" y="198.960902" style="fill-opacity: 0; stroke: #1f77b4"/>
     <use xlink:href="#mf0c5d46e8c" x="272.405088" y="200.167222" style="fill-opacity: 0; stroke: #1f77b4"/>
     <use xlink:href="#mf0c5d46e8c" x="273.776365" y="199.181118" style="fill-opacity: 0; stroke: #1f77b4"/>
     <use xlink:href="#mf0c5d46e8c" x="275.147643" y="198.883621" style="fill-opacity: 0; stroke: #1f77b4"/>
     <use xlink:href="#mf0c5d46e8c" x="276.51892" y="199.28381" style="fill-opacity: 0; stroke: #1f77b4"/>
     <use xlink:href="#mf0c5d46e8c" x="277.890197" y="198.915413" style="fill-opacity: 0; stroke: #1f77b4"/>
     <use xlink:href="#mf0c5d46e8c" x="279.261475" y="197.243137" style="fill-opacity: 0; stroke: #1f77b4"/>
     <use xlink:href="#mf0c5d46e8c" x="280.632752" y="194.338936" style="fill-opacity: 0; stroke: #1f77b4"/>
     <use xlink:href="#mf0c5d46e8c" x="282.005546" y="190.950288" style="fill-opacity: 0; stroke: #1f77b4"/>
     <use xlink:href="#mf0c5d46e8c" x="283.376823" y="187.212561" style="fill-opacity: 0; stroke: #1f77b4"/>
     <use xlink:href="#mf0c5d46e8c" x="284.7481" y="181.830491" style="fill-opacity: 0; stroke: #1f77b4"/>
     <use xlink:href="#mf0c5d46e8c" x="286.120894" y="173.115221" style="fill-opacity: 0; stroke: #1f77b4"/>
     <use xlink:href="#mf0c5d46e8c" x="287.492171" y="159.796459" style="fill-opacity: 0; stroke: #1f77b4"/>
     <use xlink:href="#mf0c5d46e8c" x="288.864965" y="131.575078" style="fill-opacity: 0; stroke: #1f77b4"/>
     <use xlink:href="#mf0c5d46e8c" x="290.237759" y="79.778292" style="fill-opacity: 0; stroke: #1f77b4"/>
     <use xlink:href="#mf0c5d46e8c" x="291.049085" y="-1" style="fill-opacity: 0; stroke: #1f77b4"/>
     <use xlink:href="#mf0c5d46e8c" x="301.511509" y="-1" style="fill-opacity: 0; stroke: #1f77b4"/>
     <use xlink:href="#mf0c5d46e8c" x="302.591891" y="100.692209" style="fill-opacity: 0; stroke: #1f77b4"/>
     <use xlink:href="#mf0c5d46e8c" x="303.964684" y="136.567738" style="fill-opacity: 0; stroke: #1f77b4"/>
     <use xlink:href="#mf0c5d46e8c" x="305.337478" y="153.328548" style="fill-opacity: 0; stroke: #1f77b4"/>
     <use xlink:href="#mf0c5d46e8c" x="306.711788" y="166.7354" style="fill-opacity: 0; stroke: #1f77b4"/>
     <use xlink:href="#mf0c5d46e8c" x="308.084582" y="175.64591" style="fill-opacity: 0; stroke: #1f77b4"/>
     <use xlink:href="#mf0c5d46e8c" x="309.458892" y="179.747767" style="fill-opacity: 0; stroke: #1f77b4"/>
     <use xlink:href="#mf0c5d46e8c" x="310.831686" y="183.640986" style="fill-opacity: 0; stroke: #1f77b4"/>
     <use xlink:href="#mf0c5d46e8c" x="312.205996" y="187.771716" style="fill-opacity: 0; stroke: #1f77b4"/>
     <use xlink:href="#mf0c5d46e8c" x="313.578789" y="189.287424" style="fill-opacity: 0; stroke: #1f77b4"/>
     <use xlink:href="#mf0c5d46e8c" x="314.953605" y="189.390482" style="fill-opacity: 0; stroke: #1f77b4"/>
     <use xlink:href="#mf0c5d46e8c" x="316.327915" y="191.200762" style="fill-opacity: 0; stroke: #1f77b4"/>
     <use xlink:href="#mf0c5d46e8c" x="317.700708" y="193.612271" style="fill-opacity: 0; stroke: #1f77b4"/>
     <use xlink:href="#mf0c5d46e8c" x="319.075018" y="195.552449" style="fill-opacity: 0; stroke: #1f77b4"/>
     <use xlink:href="#mf0c5d46e8c" x="320.449328" y="197.152591" style="fill-opacity: 0; stroke: #1f77b4"/>
    </g>
   </g>
   <g id="line2d_2">
    <path d="M 43.29563 214.610943 
L 50.078222 214.104814 
L 55.506215 213.461349 
L 59.578601 212.710987 
L 62.293356 211.983095 
L 65.008111 210.94411 
L 66.366752 210.244328 
L 67.724382 209.369599 
L 69.081507 208.253675 
L 70.440654 206.794083 
L 71.798284 204.839931 
L 73.156925 202.14305 
L 74.514555 198.315738 
L 75.873197 192.737948 
L 77.232343 184.560968 
L 78.589468 173.188298 
L 79.948615 160.126343 
L 81.307761 151.138864 
L 82.666402 149.289383 
L 84.025549 146.000204 
L 85.38419 132.60593 
L 86.743337 130.119927 
L 88.102483 155.350312 
L 89.462641 176.21652 
L 90.821787 187.04803 
L 92.180934 192.228928 
L 93.541092 194.200429 
L 94.900238 193.80085 
L 96.260396 190.883624 
L 97.619542 184.426604 
L 100.338846 161.118369 
L 101.699509 161.87632 
L 103.060172 172.184816 
L 104.42033 179.165095 
L 105.780993 180.669992 
L 107.141656 177.626731 
L 108.501813 170.429085 
L 109.862476 159.462269 
L 111.222634 147.375576 
L 112.583297 141.000601 
L 113.943959 145.734669 
L 116.666296 169.125224 
L 118.026959 177.493363 
L 119.388633 182.410686 
L 120.749296 184.263691 
L 122.111475 183.087628 
L 123.473655 178.127934 
L 124.833812 167.358775 
L 126.195991 147.088581 
L 127.558171 116.972018 
L 128.919844 100.644633 
L 130.282024 122.181363 
L 131.644203 151.283777 
L 133.005877 169.577362 
L 134.368056 178.930647 
L 135.730235 182.629251 
L 137.091909 182.097009 
L 138.455605 177.072932 
L 139.817784 165.575702 
L 141.179963 144.534335 
L 142.543154 119.634132 
L 143.905333 118.339071 
L 145.269029 135.961469 
L 146.632724 144.630205 
L 147.994398 140.111837 
L 149.358094 130.812153 
L 150.721789 133.51024 
L 153.448675 167.630194 
L 154.810854 179.013486 
L 156.17455 185.183429 
L 157.539762 186.887582 
L 158.902952 182.902355 
L 160.266648 171.490949 
L 161.630343 172.105409 
L 162.994039 185.387597 
L 164.358746 191.770606 
L 165.722441 193.320875 
L 167.087653 191.982125 
L 168.451349 187.732171 
L 169.816561 178.88132 
L 171.181267 161.761237 
L 172.544963 137.471591 
L 173.910175 133.746781 
L 175.275387 148.826207 
L 176.640599 154.711557 
L 178.005305 151.078499 
L 179.370517 144.837865 
L 180.735729 144.271325 
L 182.100941 152.66416 
L 183.466153 165.120665 
L 184.83086 176.375413 
L 186.196072 184.813912 
L 187.5628 190.752817 
L 188.928012 194.867732 
L 190.29474 197.736884 
L 191.659447 199.745155 
L 193.026175 201.156224 
L 194.391387 202.134063 
L 195.758115 202.791484 
L 197.124844 203.200817 
L 198.491572 203.411394 
L 199.856784 203.456297 
L 201.223007 203.357483 
L 202.589735 203.128535 
L 203.956463 202.777307 
L 205.323192 202.307033 
L 206.691436 201.716477 
L 208.058165 201.003239 
L 209.424893 200.1602 
L 210.791116 199.178625 
L 212.159361 198.04492 
L 213.526089 196.748202 
L 214.894333 195.269945 
L 216.261062 193.596423 
L 217.629306 191.706387 
L 218.996035 189.58742 
L 220.364279 187.22131 
L 221.732524 184.603184 
L 224.468508 178.645453 
L 229.941486 165.453133 
L 231.309731 162.631177 
L 232.677976 160.373435 
L 234.04622 158.85964 
L 235.415981 158.209648 
L 236.784226 158.451873 
L 238.153987 159.502083 
L 239.521726 161.158465 
L 242.259732 164.872491 
L 243.629493 165.602785 
L 244.999254 163.418753 
L 246.369015 154.608194 
L 247.73726 147.065783 
L 249.10702 161.844599 
L 250.476781 174.285568 
L 251.846542 180.066261 
L 253.216303 182.23121 
L 254.587581 181.569104 
L 255.957342 177.593342 
L 257.327103 170.71374 
L 258.696864 167.963502 
L 260.068141 175.729732 
L 261.437902 185.68194 
L 262.809179 192.652973 
L 264.17894 197.086339 
L 265.550218 200.033523 
L 266.919979 202.120514 
L 268.291256 203.691419 
L 269.662533 204.928787 
L 271.033811 205.938737 
L 273.776365 207.51012 
L 276.51892 208.694272 
L 279.261475 209.628054 
L 283.376823 210.715462 
L 287.492171 211.546111 
L 292.98183 212.387728 
L 299.846303 213.15654 
L 308.084582 213.813741 
L 317.700708 214.352249 
L 320.449328 214.474763 
L 320.449328 214.474763 
" clip-path="url(#p7a5101763f)" style="fill: none; stroke: #ff0000; stroke-width: 1.5; stroke-linecap: square"/>
   </g>
   <g id="line2d_3">
    <path d="M 295.727417 216.404326 
L 295.727417 17.735865 
" clip-path="url(#p7a5101763f)" style="fill: none; stroke-dasharray: 3.7,1.6; stroke-dashoffset: 0; stroke: #808080"/>
   </g>
   <g id="patch_3">
    <path d="M 43.003987 216.404326 
L 43.003987 17.735865 
" style="fill: none; stroke: #000000; stroke-linejoin: miter; stroke-linecap: square"/>
   </g>
   <g id="patch_4">
    <path d="M 320.99976 216.404326 
L 320.99976 17.735865 
" style="fill: none; stroke: #000000; stroke-linejoin: miter; stroke-linecap: square"/>
   </g>
   <g id="patch_5">
    <path d="M 43.003987 216.404326 
L 320.99976 216.404326 
" style="fill: none; stroke: #000000; stroke-linejoin: miter; stroke-linecap: square"/>
   </g>
   <g id="patch_6">
    <path d="M 43.003987 17.735865 
L 320.99976 17.735865 
" style="fill: none; stroke: #000000; stroke-linejoin: miter; stroke-linecap: square"/>
   </g>
   <g id="matplotlib.axis_1">
    <g id="xtick_1">
     <g id="line2d_4">
      <defs>
       <path id="m447f40b4cf" d="M 0 0 
L 0 3.75 
" style="stroke: #000000; stroke-width: 1.25"/>
      </defs>
      <g>
       <use xlink:href="#m447f40b4cf" x="43.003987" y="216.404326" style="stroke: #000000; stroke-width: 1.25"/>
      </g>
     </g>
     <g id="text_1">
      <!-- $\mathdefault{429}$ -->
      <g transform="translate(33.818987 231.52792)">
       <text>
        <tspan style="font: 11px 'Arial'" x="0 6.117676 12.235352" y="-0.09375">429</tspan>
       </text>
      </g>
     </g>
    </g>
    <g id="xtick_2">
     <g id="line2d_5">
      <g>
       <use xlink:href="#m447f40b4cf" x="93.548673" y="216.404326" style="stroke: #000000; stroke-width: 1.25"/>
      </g>
     </g>
     <g id="text_2">
      <!-- $\mathdefault{430}$ -->
      <g transform="translate(84.363673 231.52792)">
       <text>
        <tspan style="font: 11px 'Arial'" x="0 6.117676 12.235352" y="-0.09375">430</tspan>
       </text>
      </g>
     </g>
    </g>
    <g id="xtick_3">
     <g id="line2d_6">
      <g>
       <use xlink:href="#m447f40b4cf" x="144.093359" y="216.404326" style="stroke: #000000; stroke-width: 1.25"/>
      </g>
     </g>
     <g id="text_3">
      <!-- $\mathdefault{431}$ -->
      <g transform="translate(134.908359 231.52792)">
       <text>
        <tspan style="font: 11px 'Arial'" x="0 6.117676 12.235352" y="-0.09375">431</tspan>
       </text>
      </g>
     </g>
    </g>
    <g id="xtick_4">
     <g id="line2d_7">
      <g>
       <use xlink:href="#m447f40b4cf" x="194.638045" y="216.404326" style="stroke: #000000; stroke-width: 1.25"/>
      </g>
     </g>
     <g id="text_4">
      <!-- $\mathdefault{432}$ -->
      <g transform="translate(185.453045 231.52792)">
       <text>
        <tspan style="font: 11px 'Arial'" x="0 6.117676 12.235352" y="-0.09375">432</tspan>
       </text>
      </g>
     </g>
    </g>
    <g id="xtick_5">
     <g id="line2d_8">
      <g>
       <use xlink:href="#m447f40b4cf" x="245.182731" y="216.404326" style="stroke: #000000; stroke-width: 1.25"/>
      </g>
     </g>
     <g id="text_5">
      <!-- $\mathdefault{433}$ -->
      <g transform="translate(235.997731 231.52792)">
       <text>
        <tspan style="font: 11px 'Arial'" x="0 6.117676 12.235352" y="-0.09375">433</tspan>
       </text>
      </g>
     </g>
    </g>
    <g id="xtick_6">
     <g id="line2d_9">
      <g>
       <use xlink:href="#m447f40b4cf" x="295.727417" y="216.404326" style="stroke: #000000; stroke-width: 1.25"/>
      </g>
     </g>
     <g id="text_6">
      <!-- $\mathdefault{434}$ -->
      <g transform="translate(286.542417 231.52792)">
       <text>
        <tspan style="font: 11px 'Arial'" x="0 6.117676 12.235352" y="-0.09375">434</tspan>
       </text>
      </g>
     </g>
    </g>
    <g id="text_7">
     <!-- $\lambda$ {\sffamily (nm)} -->
     <g transform="translate(164.206736 246.411565) scale(0.12 -0.12)">
      <defs>
       <path id="StandardSymL-6c" d="M 480 3650 
C 525 4013 710 4224 998 4224 
C 1203 4224 1376 4064 1472 3778 
C 1517 3650 1574 3440 1632 3198 
L 154 19 
L 755 19 
L 1843 2301 
C 2048 1059 2150 607 2266 358 
C 2406 83 2611 -64 2848 -64 
C 3098 -64 3296 89 3405 371 
C 3475 543 3501 715 3507 1014 
L 3373 1014 
C 3322 683 3174 499 2944 499 
C 2752 499 2586 620 2483 843 
C 2400 1008 2355 1174 2266 1645 
L 2093 2466 
C 2086 2485 2080 2530 2067 2594 
C 1920 3415 1690 4192 1536 4422 
C 1395 4627 1203 4736 992 4736 
C 602 4736 397 4403 326 3650 
L 480 3650 
z
" transform="scale(0.015625)"/>
       <path id="NimbusSanL-Regu-28" d="M 1510 4672 
C 870 3833 467 2668 467 1663 
C 467 652 870 -513 1510 -1351 
L 1862 -1351 
C 1299 -436 986 639 986 1663 
C 986 2681 1299 3763 1862 4672 
L 1510 4672 
z
" transform="scale(0.015625)"/>
       <path id="NimbusSanL-Regu-6e" d="M 448 3328 
L 448 0 
L 986 0 
L 986 1835 
C 986 2539 1344 2988 1894 2988 
C 2317 2988 2586 2732 2586 2328 
L 2586 0 
L 3117 0 
L 3117 2539 
C 3117 3097 2701 3456 2054 3456 
C 1555 3456 1235 3263 941 2796 
L 941 3328 
L 448 3328 
z
" transform="scale(0.015625)"/>
       <path id="NimbusSanL-Regu-6d" d="M 448 3328 
L 448 0 
L 986 0 
L 986 2089 
C 986 2597 1338 2988 1773 2988 
C 2170 2988 2394 2744 2394 2315 
L 2394 0 
L 2931 0 
L 2931 2109 
C 2931 2597 3283 2988 3718 2988 
C 4109 2988 4339 2738 4339 2315 
L 4339 0 
L 4877 0 
L 4877 2520 
C 4877 3123 4531 3456 3904 3456 
C 3456 3456 3187 3321 2874 2943 
C 2675 3302 2406 3456 1971 3456 
C 1523 3456 1229 3289 941 2886 
L 941 3328 
L 448 3328 
z
" transform="scale(0.015625)"/>
       <path id="NimbusSanL-Regu-29" d="M 595 -1351 
C 1235 -513 1638 652 1638 1657 
C 1638 2668 1235 3833 595 4672 
L 243 4672 
C 806 3756 1120 2681 1120 1657 
C 1120 639 806 -442 243 -1351 
L 595 -1351 
z
" transform="scale(0.015625)"/>
      </defs>
      <use xlink:href="#StandardSymL-6c" transform="scale(0.996264)"/>
      <use xlink:href="#NimbusSanL-Regu-28" transform="translate(91.855235 0) scale(0.996264)"/>
      <use xlink:href="#NimbusSanL-Regu-6e" transform="translate(125.030464 0) scale(0.996264)"/>
      <use xlink:href="#NimbusSanL-Regu-6d" transform="translate(180.422141 0) scale(0.996264)"/>
      <use xlink:href="#NimbusSanL-Regu-29" transform="translate(263.410572 0) scale(0.996264)"/>
     </g>
    </g>
   </g>
   <g id="matplotlib.axis_2">
    <g id="ytick_1">
     <g id="line2d_10">
      <defs>
       <path id="md84f458149" d="M 0 0 
L -3.75 0 
" style="stroke: #000000; stroke-width: 1.25"/>
      </defs>
      <g>
       <use xlink:href="#md84f458149" x="43.003987" y="216.404326" style="stroke: #000000; stroke-width: 1.25"/>
      </g>
     </g>
     <g id="text_8">
      <!-- $\mathdefault{0.0}$ -->
      <g transform="translate(20.353987 220.341123)">
       <text>
        <tspan style="font: 11px 'Arial'" x="0 6.117676 9.173828" y="-0.09375">0.0</tspan>
       </text>
      </g>
     </g>
    </g>
    <g id="ytick_2">
     <g id="line2d_11">
      <g>
       <use xlink:href="#md84f458149" x="43.003987" y="186.679881" style="stroke: #000000; stroke-width: 1.25"/>
      </g>
     </g>
     <g id="text_9">
      <!-- $\mathdefault{0.5}$ -->
      <g transform="translate(20.353987 190.616678)">
       <text>
        <tspan style="font: 11px 'Arial'" x="0 6.117676 9.173828" y="-0.09375">0.5</tspan>
       </text>
      </g>
     </g>
    </g>
    <g id="ytick_3">
     <g id="line2d_12">
      <g>
       <use xlink:href="#md84f458149" x="43.003987" y="156.955435" style="stroke: #000000; stroke-width: 1.25"/>
      </g>
     </g>
     <g id="text_10">
      <!-- $\mathdefault{1.0}$ -->
      <g transform="translate(20.353987 160.892232)">
       <text>
        <tspan style="font: 11px 'Arial'" x="0 6.117676 9.173828" y="-0.09375">1.0</tspan>
       </text>
      </g>
     </g>
    </g>
    <g id="ytick_4">
     <g id="line2d_13">
      <g>
       <use xlink:href="#md84f458149" x="43.003987" y="127.23099" style="stroke: #000000; stroke-width: 1.25"/>
      </g>
     </g>
     <g id="text_11">
      <!-- $\mathdefault{1.5}$ -->
      <g transform="translate(20.353987 131.167787)">
       <text>
        <tspan style="font: 11px 'Arial'" x="0 6.117676 9.173828" y="-0.09375">1.5</tspan>
       </text>
      </g>
     </g>
    </g>
    <g id="ytick_5">
     <g id="line2d_14">
      <g>
       <use xlink:href="#md84f458149" x="43.003987" y="97.506545" style="stroke: #000000; stroke-width: 1.25"/>
      </g>
     </g>
     <g id="text_12">
      <!-- $\mathdefault{2.0}$ -->
      <g transform="translate(20.353987 101.443342)">
       <text>
        <tspan style="font: 11px 'Arial'" x="0 6.117676 9.173828" y="-0.09375">2.0</tspan>
       </text>
      </g>
     </g>
    </g>
    <g id="ytick_6">
     <g id="line2d_15">
      <g>
       <use xlink:href="#md84f458149" x="43.003987" y="67.7821" style="stroke: #000000; stroke-width: 1.25"/>
      </g>
     </g>
     <g id="text_13">
      <!-- $\mathdefault{2.5}$ -->
      <g transform="translate(20.353987 71.718897)">
       <text>
        <tspan style="font: 11px 'Arial'" x="0 6.117676 9.173828" y="-0.09375">2.5</tspan>
       </text>
      </g>
     </g>
    </g>
    <g id="ytick_7">
     <g id="line2d_16">
      <g>
       <use xlink:href="#md84f458149" x="43.003987" y="38.057655" style="stroke: #000000; stroke-width: 1.25"/>
      </g>
     </g>
     <g id="text_14">
      <!-- $\mathdefault{3.0}$ -->
      <g transform="translate(20.353987 41.994451)">
       <text>
        <tspan style="font: 11px 'Arial'" x="0 6.117676 9.173828" y="-0.09375">3.0</tspan>
       </text>
      </g>
     </g>
    </g>
    <g id="text_15">
     <!-- $B_{\lambda}$ {\sffamily (photons/cm\textsuperscript{2}/s/nm)} -->
     <g transform="translate(13.728305 177.714049) rotate(-90) scale(0.12 -0.12)">
      <defs>
       <path id="NimbusRomNo9L-ReguItal-42" d="M -51 0 
L 1754 0 
C 2758 0 3450 523 3450 1274 
C 3450 1510 3373 1732 3232 1872 
C 3104 2019 2976 2095 2643 2235 
C 3098 2344 3283 2420 3488 2598 
C 3667 2751 3763 2968 3763 3222 
C 3763 3827 3309 4160 2483 4160 
L 832 4160 
L 832 4057 
C 1229 4025 1325 3974 1325 3795 
C 1325 3700 1299 3541 1254 3388 
L 467 574 
C 352 204 307 166 -51 102 
L -51 0 
z
M 1523 2108 
C 1939 2108 2208 2083 2336 2032 
C 2598 1923 2758 1643 2758 1299 
C 2758 612 2285 192 1504 192 
C 1235 192 1094 287 1094 459 
C 1094 535 1171 841 1318 1350 
C 1402 1637 1440 1783 1523 2108 
z
M 2003 3789 
C 2042 3929 2118 3967 2368 3967 
C 2880 3967 3117 3751 3117 3280 
C 3117 2917 2963 2637 2688 2484 
C 2470 2356 2163 2312 1587 2312 
L 2003 3789 
z
" transform="scale(0.015625)"/>
       <path id="NimbusSanL-Regu-70" d="M 346 -1408 
L 883 -1408 
L 883 371 
C 1165 25 1478 -128 1914 -128 
C 2778 -128 3347 568 3347 1632 
C 3347 2752 2797 3456 1907 3456 
C 1453 3456 1088 3251 838 2854 
L 838 3359 
L 346 3359 
L 346 -1408 
z
M 1818 2956 
C 2406 2956 2790 2440 2790 1644 
C 2790 887 2400 371 1818 371 
C 1254 371 883 880 883 1663 
C 883 2447 1254 2956 1818 2956 
z
" transform="scale(0.015625)"/>
       <path id="NimbusSanL-Regu-68" d="M 448 4672 
L 448 0 
L 979 0 
L 979 1853 
C 979 2539 1338 2988 1888 2988 
C 2061 2988 2234 2930 2362 2834 
C 2515 2725 2579 2565 2579 2328 
L 2579 0 
L 3110 0 
L 3110 2539 
C 3110 3103 2707 3456 2054 3456 
C 1581 3456 1293 3308 979 2898 
L 979 4672 
L 448 4672 
z
" transform="scale(0.015625)"/>
       <path id="NimbusSanL-Regu-6f" d="M 1741 3456 
C 800 3456 230 2784 230 1663 
C 230 543 794 -128 1747 -128 
C 2688 -128 3264 543 3264 1638 
C 3264 2791 2707 3456 1741 3456 
z
M 1747 2963 
C 2349 2963 2707 2472 2707 1644 
C 2707 861 2336 364 1747 364 
C 1152 364 787 855 787 1663 
C 787 2466 1152 2963 1747 2963 
z
" transform="scale(0.015625)"/>
       <path id="NimbusSanL-Regu-74" d="M 1626 3328 
L 1075 3328 
L 1075 4249 
L 544 4249 
L 544 3328 
L 90 3328 
L 90 2892 
L 544 2892 
L 544 402 
C 544 64 774 -128 1190 -128 
C 1318 -128 1446 -116 1626 -84 
L 1626 364 
C 1555 345 1472 339 1370 339 
C 1139 339 1075 402 1075 634 
L 1075 2892 
L 1626 2892 
L 1626 3328 
z
" transform="scale(0.015625)"/>
       <path id="NimbusSanL-Regu-73" d="M 2803 2428 
C 2797 3084 2362 3456 1587 3456 
C 806 3456 301 3052 301 2434 
C 301 1912 570 1663 1363 1472 
L 1862 1351 
C 2234 1262 2381 1129 2381 887 
C 2381 574 2067 364 1600 364 
C 1312 364 1069 447 934 587 
C 851 683 813 778 781 1014 
L 218 1014 
C 243 243 678 -128 1555 -128 
C 2400 -128 2938 288 2938 931 
C 2938 1428 2656 1702 1990 1861 
L 1478 1982 
C 1043 2084 858 2224 858 2459 
C 858 2765 1133 2963 1568 2963 
C 1997 2963 2227 2778 2240 2428 
L 2803 2428 
z
" transform="scale(0.015625)"/>
       <path id="NimbusSanL-Regu-2f" d="M 1466 4672 
L -51 -128 
L 301 -128 
L 1818 4672 
L 1466 4672 
z
" transform="scale(0.015625)"/>
       <path id="NimbusSanL-Regu-63" d="M 3014 2237 
C 2989 2561 2918 2771 2790 2956 
C 2560 3270 2157 3456 1690 3456 
C 787 3456 198 2740 198 1632 
C 198 555 774 -128 1683 -128 
C 2483 -128 2989 352 3053 1167 
L 2515 1167 
C 2426 632 2150 364 1696 364 
C 1107 364 755 842 755 1632 
C 755 2466 1101 2963 1683 2963 
C 2131 2963 2413 2701 2477 2237 
L 3014 2237 
z
" transform="scale(0.015625)"/>
       <path id="NimbusSanL-Regu-32" d="M 3238 556 
L 851 556 
C 909 928 1114 1165 1670 1493 
L 2310 1839 
C 2944 2185 3270 2653 3270 3211 
C 3270 3589 3117 3942 2848 4185 
C 2579 4428 2246 4544 1818 4544 
C 1242 4544 813 4339 563 3955 
C 403 3711 333 3429 320 2967 
L 883 2967 
C 902 3275 941 3461 1018 3608 
C 1165 3884 1459 4051 1798 4051 
C 2310 4051 2694 3685 2694 3198 
C 2694 2839 2483 2531 2080 2300 
L 1491 1967 
C 544 1428 269 999 218 0 
L 3238 0 
L 3238 556 
z
" transform="scale(0.015625)"/>
      </defs>
      <use xlink:href="#NimbusRomNo9L-ReguItal-42" transform="scale(0.996264)"/>
      <use xlink:href="#StandardSymL-6c" transform="translate(60.871631 -20.616338) scale(0.737241)"/>
      <use xlink:href="#NimbusSanL-Regu-28" transform="translate(135.818713 0) scale(0.996264)"/>
      <use xlink:href="#NimbusSanL-Regu-70" transform="translate(168.993943 0) scale(0.996264)"/>
      <use xlink:href="#NimbusSanL-Regu-68" transform="translate(224.38562 0) scale(0.996264)"/>
      <use xlink:href="#NimbusSanL-Regu-6f" transform="translate(279.777297 0) scale(0.996264)"/>
      <use xlink:href="#NimbusSanL-Regu-74" transform="translate(335.168974 0) scale(0.996264)"/>
      <use xlink:href="#NimbusSanL-Regu-6f" transform="translate(362.864143 0) scale(0.996264)"/>
      <use xlink:href="#NimbusSanL-Regu-6e" transform="translate(418.25582 0) scale(0.996264)"/>
      <use xlink:href="#NimbusSanL-Regu-73" transform="translate(473.647497 0) scale(0.996264)"/>
      <use xlink:href="#NimbusSanL-Regu-2f" transform="translate(523.460698 0) scale(0.996264)"/>
      <use xlink:href="#NimbusSanL-Regu-63" transform="translate(551.155868 0) scale(0.996264)"/>
      <use xlink:href="#NimbusSanL-Regu-6d" transform="translate(600.969068 0) scale(0.996264)"/>
      <use xlink:href="#NimbusSanL-Regu-32" transform="translate(683.957498 36.163231) scale(0.737241)"/>
      <use xlink:href="#NimbusSanL-Regu-2f" transform="translate(725.445777 0) scale(0.996264)"/>
      <use xlink:href="#NimbusSanL-Regu-73" transform="translate(753.140947 0) scale(0.996264)"/>
      <use xlink:href="#NimbusSanL-Regu-2f" transform="translate(802.954147 0) scale(0.996264)"/>
      <use xlink:href="#NimbusSanL-Regu-6e" transform="translate(830.649317 0) scale(0.996264)"/>
      <use xlink:href="#NimbusSanL-Regu-6d" transform="translate(886.040994 0) scale(0.996264)"/>
      <use xlink:href="#NimbusSanL-Regu-29" transform="translate(969.029424 0) scale(0.996264)"/>
     </g>
    </g>
    <g id="text_16">
     <!-- $\times\mathdefault{10^{12}}\mathdefault{}$ -->
     <g transform="translate(43.003987 14.735865)">
      <text>
       <tspan style="font: 11px 'STIXGeneral'" x="0" y="-0.799312500000001"></tspan>
       <tspan style="font: 11px 'Arial'" x="7.039993 13.157669" y="-0.799312500000001">10</tspan>
       <tspan style="font: 7.7px 'Arial'" x="19.467003 23.749376" y="-8.465625">12</tspan>
      </text>
     </g>
    </g>
   </g>
   <g id="patch_7">
    <path d="M 217.800817 47.652918 
L 217.800817 67.40298 
L 294.609383 67.40298 
" style="fill: none; stroke: #000000; stroke-linecap: round"/>
    <path d="M 290.609383 65.40298 
L 294.609383 67.40298 
L 290.609383 69.40298 
" style="fill: none; stroke: #000000; stroke-linecap: round"/>
   </g>
   <g id="text_17">
    <g id="patch_8">
     <path d="M 184.100817 50.702711 
L 251.500817 50.702711 
Q 254.500817 50.702711 254.500817 47.702711 
L 254.500817 37.602711 
Q 254.500817 34.602711 251.500817 34.602711 
L 184.100817 34.602711 
Q 181.100817 34.602711 181.100817 37.602711 
L 181.100817 47.702711 
Q 181.100817 50.702711 184.100817 50.702711 
z
" style="fill: #f5deb3; stroke: #000000; stroke-linejoin: miter"/>
    </g>
    <!-- D$_{\gamma}$ (434.00) nm -->
    <g transform="translate(184.100817 44.902711)">
     <text>
      <tspan style="font: 10px 'Arial'" x="0 10.686517 13.464837 16.794915 22.356439 27.917962 33.479486 36.257806 41.81933 47.380853 50.710931 53.489251 59.050775" y="-0.71875">D(434.00)nm</tspan>
      <tspan style="font: italic 7px 'STIXGeneral'" x="7.375898" y="0.6031250000000004"></tspan>
     </text>
    </g>
   </g>
   <g id="text_18">
    <text style="font: 10px 'Arial'; text-anchor: middle" x="237.204043" y="85.756844" transform="rotate(-0 237.204043 85.756844)">Q-branch</text>
   </g>
   <g id="text_19">
    <text style="font: 10px 'Arial'; text-anchor: middle" x="121.78602" y="38.293101" transform="rotate(-0 121.78602 38.293101)">B-D + C-D</text>
   </g>
   <g id="text_20">
    <text style="font: 700 12px 'Arial'; text-anchor: middle" x="182.001874" y="11.735865" transform="rotate(-0 182.001874 11.735865)">PC boron pebble rod - 44 min</text>
   </g>
  </g>
 </g>
 <defs>
  <clipPath id="p7a5101763f">
   <rect x="43.003987" y="17.735865" width="277.995773" height="198.668461"/>
  </clipPath>
 </defs>
</svg>
