<?xml version="1.0" encoding="utf-8" standalone="no"?>
<!DOCTYPE svg PUBLIC "-//W3C//DTD SVG 1.1//EN"
  "http://www.w3.org/Graphics/SVG/1.1/DTD/svg11.dtd">
<svg xmlns:xlink="http://www.w3.org/1999/xlink" width="324pt" height="252pt" viewBox="0 0 324 252" xmlns="http://www.w3.org/2000/svg" version="1.1">
 <metadata>
  <rdf:RDF xmlns:dc="http://purl.org/dc/elements/1.1/" xmlns:cc="http://creativecommons.org/ns#" xmlns:rdf="http://www.w3.org/1999/02/22-rdf-syntax-ns#">
   <cc:Work>
    <dc:type rdf:resource="http://purl.org/dc/dcmitype/StillImage"/>
    <dc:date>2024-12-06T11:03:15.441594</dc:date>
    <dc:format>image/svg+xml</dc:format>
    <dc:creator>
     <cc:Agent>
      <dc:title>Matplotlib v3.9.2, https://matplotlib.org/</dc:title>
     </cc:Agent>
    </dc:creator>
   </cc:Work>
  </rdf:RDF>
 </metadata>
 <defs>
  <style type="text/css">*{stroke-linejoin: round; stroke-linecap: butt}</style>
 </defs>
 <g id="figure_1">
  <g id="patch_1">
   <path d="M 0 252 
L 324 252 
L 324 0 
L 0 0 
z
" style="fill: #ffffff"/>
  </g>
  <g id="axes_1">
   <g id="patch_2">
    <path d="M 43.003987 216.404326 
L 320.99976 216.404326 
L 320.99976 17.735865 
L 43.003987 17.735865 
z
" style="fill: #ffffff"/>
   </g>
   <g id="PolyCollection_1">
    <path d="M 43.27895 216.245569 
L 43.27895 216.404326 
L 44.636075 216.404326 
L 45.992189 216.404326 
L 47.349314 216.404326 
L 48.705428 216.404326 
L 50.062553 216.404326 
L 51.420183 216.404326 
L 52.775791 216.404326 
L 54.133422 216.404326 
L 55.490547 216.404326 
L 56.848177 216.404326 
L 58.205807 216.404326 
L 59.562932 216.404326 
L 60.920562 216.404326 
L 62.277687 216.404326 
L 63.635317 216.404326 
L 64.993958 216.404326 
L 66.351589 216.404326 
L 67.708713 216.404326 
L 69.06786 216.404326 
L 70.42549 216.404326 
L 71.784131 216.404326 
L 73.141762 216.404326 
L 74.500403 216.404326 
L 75.85955 216.404326 
L 77.216674 216.404326 
L 78.575821 216.404326 
L 79.934968 216.404326 
L 81.293609 216.404326 
L 82.652755 216.404326 
L 84.011396 216.404326 
L 85.370543 216.404326 
L 86.72969 216.404326 
L 88.089847 216.404326 
L 89.448994 216.404326 
L 90.80814 216.404326 
L 92.168298 216.404326 
L 93.527444 216.404326 
L 94.887602 216.404326 
L 96.246749 216.404326 
L 97.607412 216.404326 
L 98.966053 216.404326 
L 100.326716 216.404326 
L 101.687379 216.404326 
L 103.047536 216.404326 
L 104.408199 216.404326 
L 105.768862 216.404326 
L 107.129019 216.404326 
L 108.489682 216.404326 
L 109.84984 216.404326 
L 111.210503 216.404326 
L 112.571166 216.404326 
L 113.93284 216.404326 
L 115.293503 216.404326 
L 116.654166 216.404326 
L 118.015839 216.404326 
L 119.376502 216.404326 
L 120.738682 216.404326 
L 122.100861 216.404326 
L 123.461018 216.404326 
L 124.823198 216.404326 
L 126.185377 216.404326 
L 127.547051 216.404326 
L 128.90923 216.404326 
L 130.271409 216.404326 
L 131.633083 216.404326 
L 132.995262 216.404326 
L 134.357442 216.404326 
L 135.719116 216.404326 
L 137.082811 216.404326 
L 138.444991 216.404326 
L 139.80717 216.404326 
L 141.17036 216.404326 
L 142.532539 216.404326 
L 143.896235 216.404326 
L 145.259931 216.404326 
L 146.621604 216.404326 
L 147.9853 216.404326 
L 149.348996 216.404326 
L 150.712691 216.404326 
L 152.075881 216.404326 
L 153.438061 216.404326 
L 154.801756 216.404326 
L 156.166968 216.404326 
L 157.530159 216.404326 
L 158.893854 216.404326 
L 160.25755 216.404326 
L 161.621245 216.404326 
L 162.985952 216.404326 
L 164.349648 216.404326 
L 165.714859 216.404326 
L 167.078555 216.404326 
L 168.443767 216.404326 
L 169.808474 216.404326 
L 171.172169 216.404326 
L 172.537381 216.404326 
L 173.902593 216.404326 
L 175.267805 216.404326 
L 176.632512 216.404326 
L 177.997724 216.404326 
L 179.362936 216.404326 
L 180.728148 216.404326 
L 182.09336 216.404326 
L 183.458066 216.404326 
L 184.823278 216.404326 
L 186.190006 216.404326 
L 187.555218 216.404326 
L 188.921947 216.404326 
L 190.286653 216.404326 
L 191.653381 216.404326 
L 193.018593 216.404326 
L 194.385322 216.404326 
L 195.75205 216.404326 
L 197.118778 216.404326 
L 198.48399 216.404326 
L 199.850213 216.404326 
L 201.216941 216.404326 
L 202.58367 216.404326 
L 203.950398 216.404326 
L 205.318643 216.404326 
L 206.685371 216.404326 
L 208.052099 216.404326 
L 209.418322 216.404326 
L 210.786567 216.404326 
L 212.153295 216.404326 
L 213.52154 216.404326 
L 214.888268 216.404326 
L 216.256513 216.404326 
L 217.623241 216.404326 
L 218.991486 216.404326 
L 220.35973 216.404326 
L 221.72747 216.404326 
L 223.095714 216.404326 
L 224.463959 216.404326 
L 225.832204 216.404326 
L 227.200448 216.404326 
L 228.568693 216.404326 
L 229.936937 216.404326 
L 231.305182 216.404326 
L 232.673427 216.404326 
L 234.043188 216.404326 
L 235.411432 216.404326 
L 236.781193 216.404326 
L 238.148933 216.404326 
L 239.518694 216.404326 
L 240.886938 216.404326 
L 242.256699 216.404326 
L 243.62646 216.404326 
L 244.996221 216.404326 
L 246.364466 216.404326 
L 247.734227 216.404326 
L 249.103988 216.404326 
L 250.473749 216.404326 
L 251.84351 216.404326 
L 253.214787 216.404326 
L 254.584548 216.404326 
L 255.954309 216.404326 
L 257.32407 216.404326 
L 258.695347 216.404326 
L 260.065108 216.404326 
L 261.436386 216.404326 
L 262.806147 216.404326 
L 264.177424 216.404326 
L 265.547185 216.404326 
L 266.918462 216.404326 
L 268.28974 216.404326 
L 269.661017 216.404326 
L 271.032294 216.404326 
L 272.403572 216.404326 
L 273.774849 216.404326 
L 275.146126 216.404326 
L 276.517404 216.404326 
L 277.888681 216.404326 
L 279.259958 216.404326 
L 280.632752 216.404326 
L 282.004029 216.404326 
L 283.375307 216.404326 
L 284.7481 216.404326 
L 286.119378 216.404326 
L 287.492171 216.404326 
L 288.864965 216.404326 
L 290.236242 216.404326 
L 291.609036 216.404326 
L 292.98183 216.404326 
L 294.354623 216.404326 
L 295.727417 216.404326 
L 297.100716 216.404326 
L 298.47351 216.404326 
L 299.846303 216.404326 
L 301.219097 216.404326 
L 302.591891 216.404326 
L 303.964684 216.404326 
L 305.338995 216.404326 
L 306.711788 216.404326 
L 308.086098 216.404326 
L 309.458892 216.404326 
L 310.833202 216.404326 
L 312.205996 216.404326 
L 313.580811 216.404326 
L 314.955121 216.404326 
L 316.327915 216.404326 
L 317.702225 216.404326 
L 319.076535 216.404326 
L 320.450845 216.404326 
L 320.450845 215.514331 
L 320.450845 215.514331 
L 319.076535 215.483281 
L 317.702225 215.45056 
L 316.327915 215.416046 
L 314.955121 215.379643 
L 313.580811 215.341124 
L 312.205996 215.300348 
L 310.833202 215.257216 
L 309.458892 215.211419 
L 308.086098 215.162839 
L 306.711788 215.111126 
L 305.338995 215.056124 
L 303.964684 214.99741 
L 302.591891 214.934779 
L 301.219097 214.867791 
L 299.846303 214.796023 
L 298.47351 214.718999 
L 297.100716 214.63618 
L 295.727417 214.546918 
L 294.354623 214.450581 
L 292.98183 214.346338 
L 291.609036 214.233269 
L 290.236242 214.110311 
L 288.864965 213.976382 
L 287.492171 213.829744 
L 286.119378 213.668837 
L 284.7481 213.491852 
L 283.375307 213.295989 
L 282.004029 213.078785 
L 280.632752 212.836505 
L 279.259958 212.564484 
L 277.888681 212.257885 
L 276.517404 211.909536 
L 275.146126 211.510539 
L 273.774849 211.049161 
L 272.403572 210.509543 
L 271.032294 209.869617 
L 269.661017 209.097598 
L 268.28974 208.145792 
L 266.918462 206.939128 
L 265.547185 205.352691 
L 264.177424 203.168272 
L 262.806147 199.965459 
L 261.436386 194.941676 
L 260.065108 186.645406 
L 258.695347 174.278886 
L 257.32407 165.317868 
L 255.954309 170.331025 
L 254.584548 178.480048 
L 253.214787 182.231095 
L 251.84351 182.288165 
L 250.473749 180.000858 
L 249.103988 176.207208 
L 247.734227 171.565893 
L 246.364466 166.847482 
L 244.996221 162.995428 
L 243.62646 160.851482 
L 242.256699 160.733733 
L 240.886938 162.19852 
L 239.518694 164.309406 
L 238.148933 166.12315 
L 236.781193 166.973608 
L 235.411432 166.554292 
L 234.043188 164.906911 
L 232.673427 162.461364 
L 231.305182 160.100619 
L 229.936937 159.009947 
L 228.568693 160.1888 
L 227.200448 163.836887 
L 225.832204 169.253386 
L 224.463959 175.364998 
L 223.095714 181.298536 
L 221.72747 186.583211 
L 220.35973 191.069549 
L 218.991486 194.790695 
L 217.623241 197.845973 
L 216.256513 200.348489 
L 214.888268 202.409642 
L 213.52154 204.113474 
L 212.153295 205.53516 
L 210.786567 206.727835 
L 209.418322 207.738332 
L 208.052099 208.598682 
L 206.685371 209.337864 
L 205.318643 209.976974 
L 203.950398 210.533636 
L 202.58367 211.020274 
L 201.216941 211.448549 
L 199.850213 211.827395 
L 198.48399 212.164002 
L 197.118778 212.464319 
L 195.75205 212.733863 
L 194.385322 212.976442 
L 193.018593 213.195544 
L 191.653381 213.393904 
L 190.286653 213.574458 
L 188.921947 213.738871 
L 187.555218 213.889451 
L 186.190006 214.027368 
L 184.823278 214.154283 
L 183.458066 214.27109 
L 182.09336 214.378919 
L 180.728148 214.478744 
L 179.362936 214.571309 
L 177.997724 214.657305 
L 176.632512 214.737342 
L 175.267805 214.811936 
L 173.902593 214.881621 
L 172.537381 214.946798 
L 171.172169 215.007849 
L 169.808474 215.065056 
L 168.443767 215.118833 
L 167.078555 215.169433 
L 165.714859 215.217033 
L 164.349648 215.261965 
L 162.985952 215.304332 
L 161.621245 215.344401 
L 160.25755 215.38228 
L 158.893854 215.418153 
L 157.530159 215.45216 
L 156.166968 215.484416 
L 154.801756 215.515097 
L 153.438061 215.544229 
L 152.075881 215.571915 
L 150.712691 215.598298 
L 149.348996 215.62345 
L 147.9853 215.647437 
L 146.621604 215.670331 
L 145.259931 215.692165 
L 143.896235 215.713066 
L 142.532539 215.733056 
L 141.17036 215.752167 
L 139.80717 215.770483 
L 138.444991 215.788023 
L 137.082811 215.804842 
L 135.719116 215.820996 
L 134.357442 215.836482 
L 132.995262 215.851362 
L 131.633083 215.865663 
L 130.271409 215.879409 
L 128.90923 215.892639 
L 127.547051 215.905373 
L 126.185377 215.917632 
L 124.823198 215.929447 
L 123.461018 215.940836 
L 122.100861 215.951803 
L 120.738682 215.962399 
L 119.376502 215.972627 
L 118.015839 215.982491 
L 116.654166 215.992028 
L 115.293503 216.001237 
L 113.93284 216.01014 
L 112.571166 216.018757 
L 111.210503 216.027087 
L 109.84984 216.03515 
L 108.489682 216.042954 
L 107.129019 216.050515 
L 105.768862 216.057837 
L 104.408199 216.064937 
L 103.047536 216.071821 
L 101.687379 216.078494 
L 100.326716 216.08497 
L 98.966053 216.091254 
L 97.607412 216.097346 
L 96.246749 216.10327 
L 94.887602 216.109017 
L 93.527444 216.114605 
L 92.168298 216.120032 
L 90.80814 216.125311 
L 89.448994 216.13044 
L 88.089847 216.135429 
L 86.72969 216.140286 
L 85.370543 216.145009 
L 84.011396 216.149606 
L 82.652755 216.154081 
L 81.293609 216.158439 
L 79.934968 216.162683 
L 78.575821 216.16682 
L 77.216674 216.170851 
L 75.85955 216.174774 
L 74.500403 216.178605 
L 73.141762 216.182339 
L 71.784131 216.185978 
L 70.42549 216.189531 
L 69.06786 216.192995 
L 67.708713 216.19638 
L 66.351589 216.199679 
L 64.993958 216.202902 
L 63.635317 216.206051 
L 62.277687 216.209124 
L 60.920562 216.212125 
L 59.562932 216.215059 
L 58.205807 216.217925 
L 56.848177 216.220727 
L 55.490547 216.223466 
L 54.133422 216.226143 
L 52.775791 216.228763 
L 51.420183 216.231321 
L 50.062553 216.233827 
L 48.705428 216.236278 
L 47.349314 216.238675 
L 45.992189 216.241023 
L 44.636075 216.243319 
L 43.27895 216.245569 
z
" clip-path="url(#pa8d58b2f5d)" style="fill: #1f77b4; fill-opacity: 0.25"/>
   </g>
   <g id="PolyCollection_2">
    <path d="M 43.27895 214.956793 
L 43.27895 216.404326 
L 44.636075 216.404326 
L 45.992189 216.404326 
L 47.349314 216.404326 
L 48.705428 216.404326 
L 50.062553 216.404326 
L 51.420183 216.404326 
L 52.775791 216.404326 
L 54.133422 216.404326 
L 55.490547 216.404326 
L 56.848177 216.404326 
L 58.205807 216.404326 
L 59.562932 216.404326 
L 60.920562 216.404326 
L 62.277687 216.404326 
L 63.635317 216.404326 
L 64.993958 216.404326 
L 66.351589 216.404326 
L 67.708713 216.404326 
L 69.06786 216.404326 
L 70.42549 216.404326 
L 71.784131 216.404326 
L 73.141762 216.404326 
L 74.500403 216.404326 
L 75.85955 216.404326 
L 77.216674 216.404326 
L 78.575821 216.404326 
L 79.934968 216.404326 
L 81.293609 216.404326 
L 82.652755 216.404326 
L 84.011396 216.404326 
L 85.370543 216.404326 
L 86.72969 216.404326 
L 88.089847 216.404326 
L 89.448994 216.404326 
L 90.80814 216.404326 
L 92.168298 216.404326 
L 93.527444 216.404326 
L 94.887602 216.404326 
L 96.246749 216.404326 
L 97.607412 216.404326 
L 98.966053 216.404326 
L 100.326716 216.404326 
L 101.687379 216.404326 
L 103.047536 216.404326 
L 104.408199 216.404326 
L 105.768862 216.404326 
L 107.129019 216.404326 
L 108.489682 216.404326 
L 109.84984 216.404326 
L 111.210503 216.404326 
L 112.571166 216.404326 
L 113.93284 216.404326 
L 115.293503 216.404326 
L 116.654166 216.404326 
L 118.015839 216.404326 
L 119.376502 216.404326 
L 120.738682 216.404326 
L 122.100861 216.404326 
L 123.461018 216.404326 
L 124.823198 216.404326 
L 126.185377 216.404326 
L 127.547051 216.404326 
L 128.90923 216.404326 
L 130.271409 216.404326 
L 131.633083 216.404326 
L 132.995262 216.404326 
L 134.357442 216.404326 
L 135.719116 216.404326 
L 137.082811 216.404326 
L 138.444991 216.404326 
L 139.80717 216.404326 
L 141.17036 216.404326 
L 142.532539 216.404326 
L 143.896235 216.404326 
L 145.259931 216.404326 
L 146.621604 216.404326 
L 147.9853 216.404326 
L 149.348996 216.404326 
L 150.712691 216.404326 
L 152.075881 216.404326 
L 153.438061 216.404326 
L 154.801756 216.404326 
L 156.166968 216.404326 
L 157.530159 216.404326 
L 158.893854 216.404326 
L 160.25755 216.404326 
L 161.621245 216.404326 
L 162.985952 216.404326 
L 164.349648 216.404326 
L 165.714859 216.404326 
L 167.078555 216.404326 
L 168.443767 216.404326 
L 169.808474 216.404326 
L 171.172169 216.404326 
L 172.537381 216.404326 
L 173.902593 216.404326 
L 175.267805 216.404326 
L 176.632512 216.404326 
L 177.997724 216.404326 
L 179.362936 216.404326 
L 180.728148 216.404326 
L 182.09336 216.404326 
L 183.458066 216.404326 
L 184.823278 216.404326 
L 186.190006 216.404326 
L 187.555218 216.404326 
L 188.921947 216.404326 
L 190.286653 216.404326 
L 191.653381 216.404326 
L 193.018593 216.404326 
L 194.385322 216.404326 
L 195.75205 216.404326 
L 197.118778 216.404326 
L 198.48399 216.404326 
L 199.850213 216.404326 
L 201.216941 216.404326 
L 202.58367 216.404326 
L 203.950398 216.404326 
L 205.318643 216.404326 
L 206.685371 216.404326 
L 208.052099 216.404326 
L 209.418322 216.404326 
L 210.786567 216.404326 
L 212.153295 216.404326 
L 213.52154 216.404326 
L 214.888268 216.404326 
L 216.256513 216.404326 
L 217.623241 216.404326 
L 218.991486 216.404326 
L 220.35973 216.404326 
L 221.72747 216.404326 
L 223.095714 216.404326 
L 224.463959 216.404326 
L 225.832204 216.404326 
L 227.200448 216.404326 
L 228.568693 216.404326 
L 229.936937 216.404326 
L 231.305182 216.404326 
L 232.673427 216.404326 
L 234.043188 216.404326 
L 235.411432 216.404326 
L 236.781193 216.404326 
L 238.148933 216.404326 
L 239.518694 216.404326 
L 240.886938 216.404326 
L 242.256699 216.404326 
L 243.62646 216.404326 
L 244.996221 216.404326 
L 246.364466 216.404326 
L 247.734227 216.404326 
L 249.103988 216.404326 
L 250.473749 216.404326 
L 251.84351 216.404326 
L 253.214787 216.404326 
L 254.584548 216.404326 
L 255.954309 216.404326 
L 257.32407 216.404326 
L 258.695347 216.404326 
L 260.065108 216.404326 
L 261.436386 216.404326 
L 262.806147 216.404326 
L 264.177424 216.404326 
L 265.547185 216.404326 
L 266.918462 216.404326 
L 268.28974 216.404326 
L 269.661017 216.404326 
L 271.032294 216.404326 
L 272.403572 216.404326 
L 273.774849 216.404326 
L 275.146126 216.404326 
L 276.517404 216.404326 
L 277.888681 216.404326 
L 279.259958 216.404326 
L 280.632752 216.404326 
L 282.004029 216.404326 
L 283.375307 216.404326 
L 284.7481 216.404326 
L 286.119378 216.404326 
L 287.492171 216.404326 
L 288.864965 216.404326 
L 290.236242 216.404326 
L 291.609036 216.404326 
L 292.98183 216.404326 
L 294.354623 216.404326 
L 295.727417 216.404326 
L 297.100716 216.404326 
L 298.47351 216.404326 
L 299.846303 216.404326 
L 301.219097 216.404326 
L 302.591891 216.404326 
L 303.964684 216.404326 
L 305.338995 216.404326 
L 306.711788 216.404326 
L 308.086098 216.404326 
L 309.458892 216.404326 
L 310.833202 216.404326 
L 312.205996 216.404326 
L 313.580811 216.404326 
L 314.955121 216.404326 
L 316.327915 216.404326 
L 317.702225 216.404326 
L 319.076535 216.404326 
L 320.450845 216.404326 
L 320.450845 216.18958 
L 320.450845 216.18958 
L 319.076535 216.186038 
L 317.702225 216.182404 
L 316.327915 216.178677 
L 314.955121 216.174856 
L 313.580811 216.170929 
L 312.205996 216.166896 
L 310.833202 216.16276 
L 309.458892 216.158506 
L 308.086098 216.15414 
L 306.711788 216.149647 
L 305.338995 216.145033 
L 303.964684 216.140282 
L 302.591891 216.1354 
L 301.219097 216.130377 
L 299.846303 216.125206 
L 298.47351 216.119881 
L 297.100716 216.114396 
L 295.727417 216.108743 
L 294.354623 216.102918 
L 292.98183 216.096911 
L 291.609036 216.090716 
L 290.236242 216.084324 
L 288.864965 216.077733 
L 287.492171 216.070919 
L 286.119378 216.06388 
L 284.7481 216.056614 
L 283.375307 216.049094 
L 282.004029 216.041324 
L 280.632752 216.033283 
L 279.259958 216.02495 
L 277.888681 216.016329 
L 276.517404 216.007395 
L 275.146126 215.998134 
L 273.774849 215.988527 
L 272.403572 215.978557 
L 271.032294 215.968204 
L 269.661017 215.957448 
L 268.28974 215.946267 
L 266.918462 215.934637 
L 265.547185 215.922532 
L 264.177424 215.909939 
L 262.806147 215.896801 
L 261.436386 215.883115 
L 260.065108 215.868817 
L 258.695347 215.853902 
L 257.32407 215.838296 
L 255.954309 215.821991 
L 254.584548 215.804924 
L 253.214787 215.787043 
L 251.84351 215.768272 
L 250.473749 215.748592 
L 249.103988 215.727918 
L 247.734227 215.706178 
L 246.364466 215.683292 
L 244.996221 215.659203 
L 243.62646 215.633762 
L 242.256699 215.60689 
L 240.886938 215.578472 
L 239.518694 215.548415 
L 238.148933 215.51651 
L 236.781193 215.482684 
L 235.411432 215.446661 
L 234.043188 215.408337 
L 232.673427 215.367408 
L 231.305182 215.323718 
L 229.936937 215.276943 
L 228.568693 215.226769 
L 227.200448 215.172839 
L 225.832204 215.114745 
L 224.463959 215.05202 
L 223.095714 214.98413 
L 221.72747 214.910455 
L 220.35973 214.830311 
L 218.991486 214.742805 
L 217.623241 214.646987 
L 216.256513 214.541831 
L 214.888268 214.425742 
L 213.52154 214.297361 
L 212.153295 214.154457 
L 210.786567 213.995002 
L 209.418322 213.815785 
L 208.052099 213.613775 
L 206.685371 213.384301 
L 205.318643 213.122009 
L 203.950398 212.819688 
L 202.58367 212.46924 
L 201.216941 212.059024 
L 199.850213 211.574187 
L 198.48399 210.995213 
L 197.118778 210.295875 
L 195.75205 209.438253 
L 194.385322 208.371951 
L 193.018593 207.024325 
L 191.653381 205.292521 
L 190.286653 203.018811 
L 188.921947 199.98279 
L 187.555218 195.844522 
L 186.190006 190.15971 
L 184.823278 182.401819 
L 183.458066 172.393061 
L 182.09336 161.304032 
L 180.728148 152.805909 
L 179.362936 150.880127 
L 177.997724 154.182529 
L 176.632512 156.280516 
L 175.267805 150.577557 
L 173.902593 137.02566 
L 172.537381 139.30986 
L 171.172169 161.834612 
L 169.808474 179.305691 
L 168.443767 188.839093 
L 167.078555 193.707259 
L 165.714859 195.712276 
L 164.349648 195.177794 
L 162.985952 190.514817 
L 161.621245 176.102802 
L 160.25755 165.660658 
L 158.893854 182.187053 
L 157.530159 188.526275 
L 156.166968 187.649852 
L 154.801756 182.499527 
L 153.438061 173.026955 
L 152.075881 158.509064 
L 150.712691 140.798564 
L 149.348996 129.312534 
L 147.9853 132.920163 
L 146.621604 143.102545 
L 145.259931 146.195637 
L 143.896235 135.533692 
L 142.532539 123.108191 
L 141.17036 140.259291 
L 139.80717 164.709975 
L 138.444991 178.552005 
L 137.082811 184.680485 
L 135.719116 186.010286 
L 134.357442 183.252622 
L 132.995262 175.242213 
L 131.633083 158.565814 
L 130.271409 129.336265 
L 128.90923 102.442023 
L 127.547051 116.778163 
L 126.185377 149.191042 
L 124.823198 170.489349 
L 123.461018 181.444314 
L 122.100861 186.411882 
L 120.738682 187.68402 
L 119.376502 186.068655 
L 118.015839 181.547504 
L 116.654166 173.651499 
L 115.293503 162.372701 
L 113.93284 150.499311 
L 112.571166 145.358687 
L 111.210503 151.44059 
L 109.84984 163.047297 
L 108.489682 173.140053 
L 107.129019 179.240343 
L 105.768862 181.068506 
L 104.408199 178.358894 
L 103.047536 170.783511 
L 101.687379 161.625681 
L 100.326716 161.580211 
L 98.966053 172.309472 
L 97.607412 183.160092 
L 96.246749 189.997616 
L 94.887602 193.390064 
L 93.527444 194.193925 
L 92.168298 192.565432 
L 90.80814 187.757494 
L 89.448994 177.658315 
L 88.089847 158.986556 
L 86.72969 137.575323 
L 85.370543 139.249995 
L 84.011396 151.997093 
L 82.652755 155.410522 
L 81.293609 153.917197 
L 79.934968 157.972011 
L 78.575821 169.442993 
L 77.216674 181.705711 
L 75.85955 191.028639 
L 74.500403 197.42787 
L 73.141762 201.760737 
L 71.784131 204.756492 
L 70.42549 206.893993 
L 69.06786 208.463659 
L 67.708713 209.650998 
L 66.351589 210.569164 
L 64.993958 211.296093 
L 63.635317 211.882668 
L 62.277687 212.363098 
L 60.920562 212.762475 
L 59.562932 213.098946 
L 58.205807 213.385389 
L 56.848177 213.63186 
L 55.490547 213.845738 
L 54.133422 214.032747 
L 52.775791 214.19756 
L 51.420183 214.343489 
L 50.062553 214.473847 
L 48.705428 214.590693 
L 47.349314 214.695906 
L 45.992189 214.79121 
L 44.636075 214.877767 
L 43.27895 214.956793 
z
" clip-path="url(#pa8d58b2f5d)" style="fill: #ff7f0e; fill-opacity: 0.25"/>
   </g>
   <g id="line2d_1">
    <path d="M 43.27895 191.347713 
L 45.992189 179.822933 
L 47.349314 177.839162 
L 48.705428 181.504024 
L 50.062553 188.559783 
L 51.420183 193.849966 
L 52.775791 194.283598 
L 55.490547 188.949266 
L 56.848177 189.4489 
L 58.205807 190.691391 
L 59.562932 194.326203 
L 60.920562 194.103726 
L 62.277687 191.002999 
L 63.635317 184.215836 
L 64.993958 179.023196 
L 66.351589 178.133152 
L 67.708713 175.264058 
L 69.06786 176.29426 
L 71.784131 186.397889 
L 73.141762 190.713375 
L 74.500403 192.427303 
L 75.85955 191.821292 
L 77.216674 187.242912 
L 78.575821 174.107661 
L 79.934968 157.155685 
L 81.293609 153.186795 
L 82.652755 156.185939 
L 84.011396 154.161566 
L 85.370543 140.342805 
L 86.72969 136.620295 
L 88.089847 152.115836 
L 89.448994 175.079251 
L 90.80814 188.785708 
L 92.168298 192.863199 
L 93.527444 192.060596 
L 96.246749 187.237906 
L 97.607412 182.571523 
L 98.966053 176.661156 
L 100.326716 164.757547 
L 101.687379 159.936396 
L 103.047536 164.366426 
L 104.408199 176.106482 
L 105.768862 186.098258 
L 107.129019 186.328066 
L 108.489682 177.143584 
L 109.84984 162.206539 
L 111.210503 148.953289 
L 112.571166 145.648347 
L 113.93284 150.813499 
L 115.293503 160.376635 
L 116.654166 170.951719 
L 118.015839 179.614071 
L 119.376502 185.53498 
L 120.738682 185.756041 
L 123.461018 175.044669 
L 124.823198 170.633562 
L 126.185377 153.870884 
L 127.547051 125.336386 
L 128.90923 102.996116 
L 130.271409 116.762608 
L 131.633083 151.780065 
L 132.995262 177.220158 
L 134.357442 185.959553 
L 135.719116 191.424235 
L 137.082811 191.987095 
L 138.444991 186.160883 
L 139.80717 165.33012 
L 141.17036 139.466769 
L 142.532539 125.782803 
L 143.896235 134.022977 
L 145.259931 139.860214 
L 146.621604 137.353668 
L 147.9853 135.705471 
L 149.348996 135.413442 
L 150.712691 134.554314 
L 152.075881 144.379403 
L 153.438061 168.332591 
L 154.801756 187.247029 
L 156.166968 196.44609 
L 157.530159 194.784569 
L 158.893854 176.465195 
L 160.25755 168.42428 
L 161.621245 171.371531 
L 162.985952 185.130008 
L 164.349648 192.860072 
L 165.714859 195.752419 
L 167.078555 193.47068 
L 168.443767 188.763315 
L 169.808474 180.552558 
L 171.172169 163.798255 
L 172.537381 142.195496 
L 173.902593 134.338365 
L 175.267805 143.727788 
L 176.632512 156.197279 
L 177.997724 157.999757 
L 179.362936 148.658126 
L 180.728148 146.263811 
L 182.09336 154.449195 
L 183.458066 168.606941 
L 184.823278 185.503059 
L 186.190006 192.326301 
L 187.555218 190.211342 
L 190.286653 216.404326 
L 193.018593 216.404326 
L 194.385322 207.913417 
L 195.75205 189.739259 
L 197.118778 188.33542 
L 198.48399 191.785589 
L 201.216941 197.446231 
L 202.58367 200.80262 
L 203.950398 202.370038 
L 205.318643 201.115764 
L 206.685371 205.308137 
L 208.052099 213.751099 
L 209.418322 215.199225 
L 212.153295 203.09303 
L 213.52154 203.587703 
L 214.888268 203.492007 
L 216.256513 202.313007 
L 217.623241 199.770904 
L 220.35973 196.34376 
L 221.72747 189.878731 
L 223.095714 177.189409 
L 224.463959 167.767947 
L 225.832204 167.203137 
L 227.200448 168.466033 
L 228.568693 163.12689 
L 229.936937 155.129565 
L 231.305182 155.666491 
L 232.673427 157.876284 
L 234.043188 165.324841 
L 235.411432 169.808113 
L 236.781193 171.571394 
L 238.148933 163.76292 
L 239.518694 160.031209 
L 240.886938 159.324362 
L 242.256699 159.701193 
L 243.62646 163.548976 
L 244.996221 166.772366 
L 246.364466 160.890205 
L 247.734227 158.856343 
L 249.103988 182.531244 
L 251.84351 182.545646 
L 253.214787 181.287439 
L 254.584548 176.458629 
L 255.954309 169.950396 
L 257.32407 167.539062 
L 258.695347 171.760523 
L 260.065108 173.038485 
L 261.436386 202.954831 
L 262.806147 205.258265 
L 264.177424 205.263236 
L 265.547185 203.488377 
L 268.28974 204.978126 
L 269.661017 203.112435 
L 271.032294 200.340303 
L 272.403572 198.812656 
L 273.774849 199.409496 
L 275.146126 198.44134 
L 276.517404 194.980049 
L 279.259958 193.365826 
L 280.632752 189.189992 
L 282.004029 186.043978 
L 283.375307 183.430987 
L 284.7481 180.441914 
L 286.119378 174.169263 
L 288.864965 147.476078 
L 290.236242 106.603233 
L 291.027488 -1 
M 301.007204 -1 
L 301.219097 43.102492 
L 302.591891 119.305895 
L 303.964684 143.229005 
L 306.711788 172.966591 
L 308.086098 181.405695 
L 310.833202 183.907889 
L 312.205996 188.050346 
L 313.580811 190.434484 
L 314.955121 190.921252 
L 316.327915 191.542072 
L 317.702225 193.02436 
L 319.076535 194.290145 
L 320.450845 195.083887 
L 320.450845 195.083887 
" clip-path="url(#pa8d58b2f5d)" style="fill: none; stroke: #1f77b4; stroke-width: 1.5; stroke-linecap: square"/>
    <defs>
     <path id="m8920649b76" d="M 0 1.5 
C 0.397805 1.5 0.77937 1.341951 1.06066 1.06066 
C 1.341951 0.77937 1.5 0.397805 1.5 0 
C 1.5 -0.397805 1.341951 -0.77937 1.06066 -1.06066 
C 0.77937 -1.341951 0.397805 -1.5 0 -1.5 
C -0.397805 -1.5 -0.77937 -1.341951 -1.06066 -1.06066 
C -1.341951 -0.77937 -1.5 -0.397805 -1.5 0 
C -1.5 0.397805 -1.341951 0.77937 -1.06066 1.06066 
C -0.77937 1.341951 -0.397805 1.5 0 1.5 
z
" style="stroke: #1f77b4"/>
    </defs>
    <g clip-path="url(#pa8d58b2f5d)">
     <use xlink:href="#m8920649b76" x="43.27895" y="191.347713" style="fill-opacity: 0; stroke: #1f77b4"/>
     <use xlink:href="#m8920649b76" x="44.636075" y="185.53586" style="fill-opacity: 0; stroke: #1f77b4"/>
     <use xlink:href="#m8920649b76" x="45.992189" y="179.822933" style="fill-opacity: 0; stroke: #1f77b4"/>
     <use xlink:href="#m8920649b76" x="47.349314" y="177.839162" style="fill-opacity: 0; stroke: #1f77b4"/>
     <use xlink:href="#m8920649b76" x="48.705428" y="181.504024" style="fill-opacity: 0; stroke: #1f77b4"/>
     <use xlink:href="#m8920649b76" x="50.062553" y="188.559783" style="fill-opacity: 0; stroke: #1f77b4"/>
     <use xlink:href="#m8920649b76" x="51.420183" y="193.849966" style="fill-opacity: 0; stroke: #1f77b4"/>
     <use xlink:href="#m8920649b76" x="52.775791" y="194.283598" style="fill-opacity: 0; stroke: #1f77b4"/>
     <use xlink:href="#m8920649b76" x="54.133422" y="191.513151" style="fill-opacity: 0; stroke: #1f77b4"/>
     <use xlink:href="#m8920649b76" x="55.490547" y="188.949266" style="fill-opacity: 0; stroke: #1f77b4"/>
     <use xlink:href="#m8920649b76" x="56.848177" y="189.4489" style="fill-opacity: 0; stroke: #1f77b4"/>
     <use xlink:href="#m8920649b76" x="58.205807" y="190.691391" style="fill-opacity: 0; stroke: #1f77b4"/>
     <use xlink:href="#m8920649b76" x="59.562932" y="194.326203" style="fill-opacity: 0; stroke: #1f77b4"/>
     <use xlink:href="#m8920649b76" x="60.920562" y="194.103726" style="fill-opacity: 0; stroke: #1f77b4"/>
     <use xlink:href="#m8920649b76" x="62.277687" y="191.002999" style="fill-opacity: 0; stroke: #1f77b4"/>
     <use xlink:href="#m8920649b76" x="63.635317" y="184.215836" style="fill-opacity: 0; stroke: #1f77b4"/>
     <use xlink:href="#m8920649b76" x="64.993958" y="179.023196" style="fill-opacity: 0; stroke: #1f77b4"/>
     <use xlink:href="#m8920649b76" x="66.351589" y="178.133152" style="fill-opacity: 0; stroke: #1f77b4"/>
     <use xlink:href="#m8920649b76" x="67.708713" y="175.264058" style="fill-opacity: 0; stroke: #1f77b4"/>
     <use xlink:href="#m8920649b76" x="69.06786" y="176.29426" style="fill-opacity: 0; stroke: #1f77b4"/>
     <use xlink:href="#m8920649b76" x="70.42549" y="181.486033" style="fill-opacity: 0; stroke: #1f77b4"/>
     <use xlink:href="#m8920649b76" x="71.784131" y="186.397889" style="fill-opacity: 0; stroke: #1f77b4"/>
     <use xlink:href="#m8920649b76" x="73.141762" y="190.713375" style="fill-opacity: 0; stroke: #1f77b4"/>
     <use xlink:href="#m8920649b76" x="74.500403" y="192.427303" style="fill-opacity: 0; stroke: #1f77b4"/>
     <use xlink:href="#m8920649b76" x="75.85955" y="191.821292" style="fill-opacity: 0; stroke: #1f77b4"/>
     <use xlink:href="#m8920649b76" x="77.216674" y="187.242912" style="fill-opacity: 0; stroke: #1f77b4"/>
     <use xlink:href="#m8920649b76" x="78.575821" y="174.107661" style="fill-opacity: 0; stroke: #1f77b4"/>
     <use xlink:href="#m8920649b76" x="79.934968" y="157.155685" style="fill-opacity: 0; stroke: #1f77b4"/>
     <use xlink:href="#m8920649b76" x="81.293609" y="153.186795" style="fill-opacity: 0; stroke: #1f77b4"/>
     <use xlink:href="#m8920649b76" x="82.652755" y="156.185939" style="fill-opacity: 0; stroke: #1f77b4"/>
     <use xlink:href="#m8920649b76" x="84.011396" y="154.161566" style="fill-opacity: 0; stroke: #1f77b4"/>
     <use xlink:href="#m8920649b76" x="85.370543" y="140.342805" style="fill-opacity: 0; stroke: #1f77b4"/>
     <use xlink:href="#m8920649b76" x="86.72969" y="136.620295" style="fill-opacity: 0; stroke: #1f77b4"/>
     <use xlink:href="#m8920649b76" x="88.089847" y="152.115836" style="fill-opacity: 0; stroke: #1f77b4"/>
     <use xlink:href="#m8920649b76" x="89.448994" y="175.079251" style="fill-opacity: 0; stroke: #1f77b4"/>
     <use xlink:href="#m8920649b76" x="90.80814" y="188.785708" style="fill-opacity: 0; stroke: #1f77b4"/>
     <use xlink:href="#m8920649b76" x="92.168298" y="192.863199" style="fill-opacity: 0; stroke: #1f77b4"/>
     <use xlink:href="#m8920649b76" x="93.527444" y="192.060596" style="fill-opacity: 0; stroke: #1f77b4"/>
     <use xlink:href="#m8920649b76" x="94.887602" y="189.670142" style="fill-opacity: 0; stroke: #1f77b4"/>
     <use xlink:href="#m8920649b76" x="96.246749" y="187.237906" style="fill-opacity: 0; stroke: #1f77b4"/>
     <use xlink:href="#m8920649b76" x="97.607412" y="182.571523" style="fill-opacity: 0; stroke: #1f77b4"/>
     <use xlink:href="#m8920649b76" x="98.966053" y="176.661156" style="fill-opacity: 0; stroke: #1f77b4"/>
     <use xlink:href="#m8920649b76" x="100.326716" y="164.757547" style="fill-opacity: 0; stroke: #1f77b4"/>
     <use xlink:href="#m8920649b76" x="101.687379" y="159.936396" style="fill-opacity: 0; stroke: #1f77b4"/>
     <use xlink:href="#m8920649b76" x="103.047536" y="164.366426" style="fill-opacity: 0; stroke: #1f77b4"/>
     <use xlink:href="#m8920649b76" x="104.408199" y="176.106482" style="fill-opacity: 0; stroke: #1f77b4"/>
     <use xlink:href="#m8920649b76" x="105.768862" y="186.098258" style="fill-opacity: 0; stroke: #1f77b4"/>
     <use xlink:href="#m8920649b76" x="107.129019" y="186.328066" style="fill-opacity: 0; stroke: #1f77b4"/>
     <use xlink:href="#m8920649b76" x="108.489682" y="177.143584" style="fill-opacity: 0; stroke: #1f77b4"/>
     <use xlink:href="#m8920649b76" x="109.84984" y="162.206539" style="fill-opacity: 0; stroke: #1f77b4"/>
     <use xlink:href="#m8920649b76" x="111.210503" y="148.953289" style="fill-opacity: 0; stroke: #1f77b4"/>
     <use xlink:href="#m8920649b76" x="112.571166" y="145.648347" style="fill-opacity: 0; stroke: #1f77b4"/>
     <use xlink:href="#m8920649b76" x="113.93284" y="150.813499" style="fill-opacity: 0; stroke: #1f77b4"/>
     <use xlink:href="#m8920649b76" x="115.293503" y="160.376635" style="fill-opacity: 0; stroke: #1f77b4"/>
     <use xlink:href="#m8920649b76" x="116.654166" y="170.951719" style="fill-opacity: 0; stroke: #1f77b4"/>
     <use xlink:href="#m8920649b76" x="118.015839" y="179.614071" style="fill-opacity: 0; stroke: #1f77b4"/>
     <use xlink:href="#m8920649b76" x="119.376502" y="185.53498" style="fill-opacity: 0; stroke: #1f77b4"/>
     <use xlink:href="#m8920649b76" x="120.738682" y="185.756041" style="fill-opacity: 0; stroke: #1f77b4"/>
     <use xlink:href="#m8920649b76" x="122.100861" y="180.251704" style="fill-opacity: 0; stroke: #1f77b4"/>
     <use xlink:href="#m8920649b76" x="123.461018" y="175.044669" style="fill-opacity: 0; stroke: #1f77b4"/>
     <use xlink:href="#m8920649b76" x="124.823198" y="170.633562" style="fill-opacity: 0; stroke: #1f77b4"/>
     <use xlink:href="#m8920649b76" x="126.185377" y="153.870884" style="fill-opacity: 0; stroke: #1f77b4"/>
     <use xlink:href="#m8920649b76" x="127.547051" y="125.336386" style="fill-opacity: 0; stroke: #1f77b4"/>
     <use xlink:href="#m8920649b76" x="128.90923" y="102.996116" style="fill-opacity: 0; stroke: #1f77b4"/>
     <use xlink:href="#m8920649b76" x="130.271409" y="116.762608" style="fill-opacity: 0; stroke: #1f77b4"/>
     <use xlink:href="#m8920649b76" x="131.633083" y="151.780065" style="fill-opacity: 0; stroke: #1f77b4"/>
     <use xlink:href="#m8920649b76" x="132.995262" y="177.220158" style="fill-opacity: 0; stroke: #1f77b4"/>
     <use xlink:href="#m8920649b76" x="134.357442" y="185.959553" style="fill-opacity: 0; stroke: #1f77b4"/>
     <use xlink:href="#m8920649b76" x="135.719116" y="191.424235" style="fill-opacity: 0; stroke: #1f77b4"/>
     <use xlink:href="#m8920649b76" x="137.082811" y="191.987095" style="fill-opacity: 0; stroke: #1f77b4"/>
     <use xlink:href="#m8920649b76" x="138.444991" y="186.160883" style="fill-opacity: 0; stroke: #1f77b4"/>
     <use xlink:href="#m8920649b76" x="139.80717" y="165.33012" style="fill-opacity: 0; stroke: #1f77b4"/>
     <use xlink:href="#m8920649b76" x="141.17036" y="139.466769" style="fill-opacity: 0; stroke: #1f77b4"/>
     <use xlink:href="#m8920649b76" x="142.532539" y="125.782803" style="fill-opacity: 0; stroke: #1f77b4"/>
     <use xlink:href="#m8920649b76" x="143.896235" y="134.022977" style="fill-opacity: 0; stroke: #1f77b4"/>
     <use xlink:href="#m8920649b76" x="145.259931" y="139.860214" style="fill-opacity: 0; stroke: #1f77b4"/>
     <use xlink:href="#m8920649b76" x="146.621604" y="137.353668" style="fill-opacity: 0; stroke: #1f77b4"/>
     <use xlink:href="#m8920649b76" x="147.9853" y="135.705471" style="fill-opacity: 0; stroke: #1f77b4"/>
     <use xlink:href="#m8920649b76" x="149.348996" y="135.413442" style="fill-opacity: 0; stroke: #1f77b4"/>
     <use xlink:href="#m8920649b76" x="150.712691" y="134.554314" style="fill-opacity: 0; stroke: #1f77b4"/>
     <use xlink:href="#m8920649b76" x="152.075881" y="144.379403" style="fill-opacity: 0; stroke: #1f77b4"/>
     <use xlink:href="#m8920649b76" x="153.438061" y="168.332591" style="fill-opacity: 0; stroke: #1f77b4"/>
     <use xlink:href="#m8920649b76" x="154.801756" y="187.247029" style="fill-opacity: 0; stroke: #1f77b4"/>
     <use xlink:href="#m8920649b76" x="156.166968" y="196.44609" style="fill-opacity: 0; stroke: #1f77b4"/>
     <use xlink:href="#m8920649b76" x="157.530159" y="194.784569" style="fill-opacity: 0; stroke: #1f77b4"/>
     <use xlink:href="#m8920649b76" x="158.893854" y="176.465195" style="fill-opacity: 0; stroke: #1f77b4"/>
     <use xlink:href="#m8920649b76" x="160.25755" y="168.42428" style="fill-opacity: 0; stroke: #1f77b4"/>
     <use xlink:href="#m8920649b76" x="161.621245" y="171.371531" style="fill-opacity: 0; stroke: #1f77b4"/>
     <use xlink:href="#m8920649b76" x="162.985952" y="185.130008" style="fill-opacity: 0; stroke: #1f77b4"/>
     <use xlink:href="#m8920649b76" x="164.349648" y="192.860072" style="fill-opacity: 0; stroke: #1f77b4"/>
     <use xlink:href="#m8920649b76" x="165.714859" y="195.752419" style="fill-opacity: 0; stroke: #1f77b4"/>
     <use xlink:href="#m8920649b76" x="167.078555" y="193.47068" style="fill-opacity: 0; stroke: #1f77b4"/>
     <use xlink:href="#m8920649b76" x="168.443767" y="188.763315" style="fill-opacity: 0; stroke: #1f77b4"/>
     <use xlink:href="#m8920649b76" x="169.808474" y="180.552558" style="fill-opacity: 0; stroke: #1f77b4"/>
     <use xlink:href="#m8920649b76" x="171.172169" y="163.798255" style="fill-opacity: 0; stroke: #1f77b4"/>
     <use xlink:href="#m8920649b76" x="172.537381" y="142.195496" style="fill-opacity: 0; stroke: #1f77b4"/>
     <use xlink:href="#m8920649b76" x="173.902593" y="134.338365" style="fill-opacity: 0; stroke: #1f77b4"/>
     <use xlink:href="#m8920649b76" x="175.267805" y="143.727788" style="fill-opacity: 0; stroke: #1f77b4"/>
     <use xlink:href="#m8920649b76" x="176.632512" y="156.197279" style="fill-opacity: 0; stroke: #1f77b4"/>
     <use xlink:href="#m8920649b76" x="177.997724" y="157.999757" style="fill-opacity: 0; stroke: #1f77b4"/>
     <use xlink:href="#m8920649b76" x="179.362936" y="148.658126" style="fill-opacity: 0; stroke: #1f77b4"/>
     <use xlink:href="#m8920649b76" x="180.728148" y="146.263811" style="fill-opacity: 0; stroke: #1f77b4"/>
     <use xlink:href="#m8920649b76" x="182.09336" y="154.449195" style="fill-opacity: 0; stroke: #1f77b4"/>
     <use xlink:href="#m8920649b76" x="183.458066" y="168.606941" style="fill-opacity: 0; stroke: #1f77b4"/>
     <use xlink:href="#m8920649b76" x="184.823278" y="185.503059" style="fill-opacity: 0; stroke: #1f77b4"/>
     <use xlink:href="#m8920649b76" x="186.190006" y="192.326301" style="fill-opacity: 0; stroke: #1f77b4"/>
     <use xlink:href="#m8920649b76" x="187.555218" y="190.211342" style="fill-opacity: 0; stroke: #1f77b4"/>
     <use xlink:href="#m8920649b76" x="188.921947" y="203.038465" style="fill-opacity: 0; stroke: #1f77b4"/>
     <use xlink:href="#m8920649b76" x="190.286653" y="216.404326" style="fill-opacity: 0; stroke: #1f77b4"/>
     <use xlink:href="#m8920649b76" x="191.653381" y="216.404326" style="fill-opacity: 0; stroke: #1f77b4"/>
     <use xlink:href="#m8920649b76" x="193.018593" y="216.404326" style="fill-opacity: 0; stroke: #1f77b4"/>
     <use xlink:href="#m8920649b76" x="194.385322" y="207.913417" style="fill-opacity: 0; stroke: #1f77b4"/>
     <use xlink:href="#m8920649b76" x="195.75205" y="189.739259" style="fill-opacity: 0; stroke: #1f77b4"/>
     <use xlink:href="#m8920649b76" x="197.118778" y="188.33542" style="fill-opacity: 0; stroke: #1f77b4"/>
     <use xlink:href="#m8920649b76" x="198.48399" y="191.785589" style="fill-opacity: 0; stroke: #1f77b4"/>
     <use xlink:href="#m8920649b76" x="199.850213" y="194.565166" style="fill-opacity: 0; stroke: #1f77b4"/>
     <use xlink:href="#m8920649b76" x="201.216941" y="197.446231" style="fill-opacity: 0; stroke: #1f77b4"/>
     <use xlink:href="#m8920649b76" x="202.58367" y="200.80262" style="fill-opacity: 0; stroke: #1f77b4"/>
     <use xlink:href="#m8920649b76" x="203.950398" y="202.370038" style="fill-opacity: 0; stroke: #1f77b4"/>
     <use xlink:href="#m8920649b76" x="205.318643" y="201.115764" style="fill-opacity: 0; stroke: #1f77b4"/>
     <use xlink:href="#m8920649b76" x="206.685371" y="205.308137" style="fill-opacity: 0; stroke: #1f77b4"/>
     <use xlink:href="#m8920649b76" x="208.052099" y="213.751099" style="fill-opacity: 0; stroke: #1f77b4"/>
     <use xlink:href="#m8920649b76" x="209.418322" y="215.199225" style="fill-opacity: 0; stroke: #1f77b4"/>
     <use xlink:href="#m8920649b76" x="210.786567" y="209.068784" style="fill-opacity: 0; stroke: #1f77b4"/>
     <use xlink:href="#m8920649b76" x="212.153295" y="203.09303" style="fill-opacity: 0; stroke: #1f77b4"/>
     <use xlink:href="#m8920649b76" x="213.52154" y="203.587703" style="fill-opacity: 0; stroke: #1f77b4"/>
     <use xlink:href="#m8920649b76" x="214.888268" y="203.492007" style="fill-opacity: 0; stroke: #1f77b4"/>
     <use xlink:href="#m8920649b76" x="216.256513" y="202.313007" style="fill-opacity: 0; stroke: #1f77b4"/>
     <use xlink:href="#m8920649b76" x="217.623241" y="199.770904" style="fill-opacity: 0; stroke: #1f77b4"/>
     <use xlink:href="#m8920649b76" x="218.991486" y="198.047116" style="fill-opacity: 0; stroke: #1f77b4"/>
     <use xlink:href="#m8920649b76" x="220.35973" y="196.34376" style="fill-opacity: 0; stroke: #1f77b4"/>
     <use xlink:href="#m8920649b76" x="221.72747" y="189.878731" style="fill-opacity: 0; stroke: #1f77b4"/>
     <use xlink:href="#m8920649b76" x="223.095714" y="177.189409" style="fill-opacity: 0; stroke: #1f77b4"/>
     <use xlink:href="#m8920649b76" x="224.463959" y="167.767947" style="fill-opacity: 0; stroke: #1f77b4"/>
     <use xlink:href="#m8920649b76" x="225.832204" y="167.203137" style="fill-opacity: 0; stroke: #1f77b4"/>
     <use xlink:href="#m8920649b76" x="227.200448" y="168.466033" style="fill-opacity: 0; stroke: #1f77b4"/>
     <use xlink:href="#m8920649b76" x="228.568693" y="163.12689" style="fill-opacity: 0; stroke: #1f77b4"/>
     <use xlink:href="#m8920649b76" x="229.936937" y="155.129565" style="fill-opacity: 0; stroke: #1f77b4"/>
     <use xlink:href="#m8920649b76" x="231.305182" y="155.666491" style="fill-opacity: 0; stroke: #1f77b4"/>
     <use xlink:href="#m8920649b76" x="232.673427" y="157.876284" style="fill-opacity: 0; stroke: #1f77b4"/>
     <use xlink:href="#m8920649b76" x="234.043188" y="165.324841" style="fill-opacity: 0; stroke: #1f77b4"/>
     <use xlink:href="#m8920649b76" x="235.411432" y="169.808113" style="fill-opacity: 0; stroke: #1f77b4"/>
     <use xlink:href="#m8920649b76" x="236.781193" y="171.571394" style="fill-opacity: 0; stroke: #1f77b4"/>
     <use xlink:href="#m8920649b76" x="238.148933" y="163.76292" style="fill-opacity: 0; stroke: #1f77b4"/>
     <use xlink:href="#m8920649b76" x="239.518694" y="160.031209" style="fill-opacity: 0; stroke: #1f77b4"/>
     <use xlink:href="#m8920649b76" x="240.886938" y="159.324362" style="fill-opacity: 0; stroke: #1f77b4"/>
     <use xlink:href="#m8920649b76" x="242.256699" y="159.701193" style="fill-opacity: 0; stroke: #1f77b4"/>
     <use xlink:href="#m8920649b76" x="243.62646" y="163.548976" style="fill-opacity: 0; stroke: #1f77b4"/>
     <use xlink:href="#m8920649b76" x="244.996221" y="166.772366" style="fill-opacity: 0; stroke: #1f77b4"/>
     <use xlink:href="#m8920649b76" x="246.364466" y="160.890205" style="fill-opacity: 0; stroke: #1f77b4"/>
     <use xlink:href="#m8920649b76" x="247.734227" y="158.856343" style="fill-opacity: 0; stroke: #1f77b4"/>
     <use xlink:href="#m8920649b76" x="249.103988" y="182.531244" style="fill-opacity: 0; stroke: #1f77b4"/>
     <use xlink:href="#m8920649b76" x="250.473749" y="182.525686" style="fill-opacity: 0; stroke: #1f77b4"/>
     <use xlink:href="#m8920649b76" x="251.84351" y="182.545646" style="fill-opacity: 0; stroke: #1f77b4"/>
     <use xlink:href="#m8920649b76" x="253.214787" y="181.287439" style="fill-opacity: 0; stroke: #1f77b4"/>
     <use xlink:href="#m8920649b76" x="254.584548" y="176.458629" style="fill-opacity: 0; stroke: #1f77b4"/>
     <use xlink:href="#m8920649b76" x="255.954309" y="169.950396" style="fill-opacity: 0; stroke: #1f77b4"/>
     <use xlink:href="#m8920649b76" x="257.32407" y="167.539062" style="fill-opacity: 0; stroke: #1f77b4"/>
     <use xlink:href="#m8920649b76" x="258.695347" y="171.760523" style="fill-opacity: 0; stroke: #1f77b4"/>
     <use xlink:href="#m8920649b76" x="260.065108" y="173.038485" style="fill-opacity: 0; stroke: #1f77b4"/>
     <use xlink:href="#m8920649b76" x="261.436386" y="202.954831" style="fill-opacity: 0; stroke: #1f77b4"/>
     <use xlink:href="#m8920649b76" x="262.806147" y="205.258265" style="fill-opacity: 0; stroke: #1f77b4"/>
     <use xlink:href="#m8920649b76" x="264.177424" y="205.263236" style="fill-opacity: 0; stroke: #1f77b4"/>
     <use xlink:href="#m8920649b76" x="265.547185" y="203.488377" style="fill-opacity: 0; stroke: #1f77b4"/>
     <use xlink:href="#m8920649b76" x="266.918462" y="204.231582" style="fill-opacity: 0; stroke: #1f77b4"/>
     <use xlink:href="#m8920649b76" x="268.28974" y="204.978126" style="fill-opacity: 0; stroke: #1f77b4"/>
     <use xlink:href="#m8920649b76" x="269.661017" y="203.112435" style="fill-opacity: 0; stroke: #1f77b4"/>
     <use xlink:href="#m8920649b76" x="271.032294" y="200.340303" style="fill-opacity: 0; stroke: #1f77b4"/>
     <use xlink:href="#m8920649b76" x="272.403572" y="198.812656" style="fill-opacity: 0; stroke: #1f77b4"/>
     <use xlink:href="#m8920649b76" x="273.774849" y="199.409496" style="fill-opacity: 0; stroke: #1f77b4"/>
     <use xlink:href="#m8920649b76" x="275.146126" y="198.44134" style="fill-opacity: 0; stroke: #1f77b4"/>
     <use xlink:href="#m8920649b76" x="276.517404" y="194.980049" style="fill-opacity: 0; stroke: #1f77b4"/>
     <use xlink:href="#m8920649b76" x="277.888681" y="194.20225" style="fill-opacity: 0; stroke: #1f77b4"/>
     <use xlink:href="#m8920649b76" x="279.259958" y="193.365826" style="fill-opacity: 0; stroke: #1f77b4"/>
     <use xlink:href="#m8920649b76" x="280.632752" y="189.189992" style="fill-opacity: 0; stroke: #1f77b4"/>
     <use xlink:href="#m8920649b76" x="282.004029" y="186.043978" style="fill-opacity: 0; stroke: #1f77b4"/>
     <use xlink:href="#m8920649b76" x="283.375307" y="183.430987" style="fill-opacity: 0; stroke: #1f77b4"/>
     <use xlink:href="#m8920649b76" x="284.7481" y="180.441914" style="fill-opacity: 0; stroke: #1f77b4"/>
     <use xlink:href="#m8920649b76" x="286.119378" y="174.169263" style="fill-opacity: 0; stroke: #1f77b4"/>
     <use xlink:href="#m8920649b76" x="287.492171" y="160.542433" style="fill-opacity: 0; stroke: #1f77b4"/>
     <use xlink:href="#m8920649b76" x="288.864965" y="147.476078" style="fill-opacity: 0; stroke: #1f77b4"/>
     <use xlink:href="#m8920649b76" x="290.236242" y="106.603233" style="fill-opacity: 0; stroke: #1f77b4"/>
     <use xlink:href="#m8920649b76" x="291.027488" y="-1" style="fill-opacity: 0; stroke: #1f77b4"/>
     <use xlink:href="#m8920649b76" x="301.007204" y="-1" style="fill-opacity: 0; stroke: #1f77b4"/>
     <use xlink:href="#m8920649b76" x="301.219097" y="43.102492" style="fill-opacity: 0; stroke: #1f77b4"/>
     <use xlink:href="#m8920649b76" x="302.591891" y="119.305895" style="fill-opacity: 0; stroke: #1f77b4"/>
     <use xlink:href="#m8920649b76" x="303.964684" y="143.229005" style="fill-opacity: 0; stroke: #1f77b4"/>
     <use xlink:href="#m8920649b76" x="305.338995" y="158.139127" style="fill-opacity: 0; stroke: #1f77b4"/>
     <use xlink:href="#m8920649b76" x="306.711788" y="172.966591" style="fill-opacity: 0; stroke: #1f77b4"/>
     <use xlink:href="#m8920649b76" x="308.086098" y="181.405695" style="fill-opacity: 0; stroke: #1f77b4"/>
     <use xlink:href="#m8920649b76" x="309.458892" y="182.704054" style="fill-opacity: 0; stroke: #1f77b4"/>
     <use xlink:href="#m8920649b76" x="310.833202" y="183.907889" style="fill-opacity: 0; stroke: #1f77b4"/>
     <use xlink:href="#m8920649b76" x="312.205996" y="188.050346" style="fill-opacity: 0; stroke: #1f77b4"/>
     <use xlink:href="#m8920649b76" x="313.580811" y="190.434484" style="fill-opacity: 0; stroke: #1f77b4"/>
     <use xlink:href="#m8920649b76" x="314.955121" y="190.921252" style="fill-opacity: 0; stroke: #1f77b4"/>
     <use xlink:href="#m8920649b76" x="316.327915" y="191.542072" style="fill-opacity: 0; stroke: #1f77b4"/>
     <use xlink:href="#m8920649b76" x="317.702225" y="193.02436" style="fill-opacity: 0; stroke: #1f77b4"/>
     <use xlink:href="#m8920649b76" x="319.076535" y="194.290145" style="fill-opacity: 0; stroke: #1f77b4"/>
     <use xlink:href="#m8920649b76" x="320.450845" y="195.083887" style="fill-opacity: 0; stroke: #1f77b4"/>
    </g>
   </g>
   <g id="line2d_2">
    <path d="M 43.27895 214.798036 
L 50.062553 214.303348 
L 55.490547 213.664878 
L 59.562932 212.909679 
L 62.277687 212.167896 
L 64.993958 211.094669 
L 66.351589 210.364517 
L 67.708713 209.443052 
L 69.06786 208.252329 
L 70.42549 206.679199 
L 71.784131 204.538144 
L 73.141762 201.53875 
L 74.500403 197.202149 
L 75.85955 190.799087 
L 77.216674 181.472236 
L 79.934968 157.730368 
L 81.293609 153.67131 
L 82.652755 155.160276 
L 84.011396 151.742374 
L 85.370543 138.990678 
L 86.72969 137.311284 
L 88.089847 158.717659 
L 89.448994 177.384429 
L 90.80814 187.478479 
L 92.168298 192.281138 
L 93.527444 193.904205 
L 94.887602 193.094755 
L 96.246749 189.69656 
L 97.607412 182.853113 
L 100.326716 161.260855 
L 101.687379 161.299848 
L 103.047536 170.451005 
L 104.408199 178.019505 
L 105.768862 180.722018 
L 107.129019 178.886531 
L 108.489682 172.778681 
L 109.84984 162.678121 
L 111.210503 151.063351 
L 112.571166 144.973117 
L 113.93284 150.105125 
L 116.654166 173.239201 
L 118.015839 181.125669 
L 119.376502 185.636956 
L 120.738682 187.242093 
L 122.100861 185.959359 
L 123.461018 180.980824 
L 124.823198 170.01447 
L 126.185377 148.704348 
L 127.547051 116.27921 
L 128.90923 101.930336 
L 130.271409 128.811348 
L 131.633083 158.027151 
L 132.995262 174.689249 
L 134.357442 182.684778 
L 135.719116 185.426957 
L 137.082811 184.081001 
L 138.444991 177.935702 
L 139.80717 164.076133 
L 141.17036 139.607132 
L 142.532539 122.436921 
L 143.896235 134.842432 
L 145.259931 145.483477 
L 146.621604 142.368551 
L 147.9853 132.163274 
L 149.348996 128.531658 
L 150.712691 139.992536 
L 152.075881 157.676653 
L 153.438061 172.166857 
L 154.801756 181.610298 
L 156.166968 186.729943 
L 157.530159 187.574109 
L 158.893854 181.200881 
L 160.25755 164.638612 
L 161.621245 175.042877 
L 162.985952 189.414823 
L 164.349648 194.035433 
L 165.714859 194.524984 
L 167.078555 192.472367 
L 168.443767 187.5536 
L 169.808474 177.966421 
L 171.172169 160.438135 
L 172.537381 137.852332 
L 173.902593 135.502955 
L 175.267805 148.985167 
L 176.632512 154.613532 
L 177.997724 152.435508 
L 179.362936 149.047111 
L 180.728148 150.880328 
L 182.09336 159.278624 
L 183.458066 170.259825 
L 184.823278 180.151776 
L 186.190006 187.782753 
L 187.555218 193.329647 
L 188.921947 197.317334 
L 190.286653 200.188943 
L 191.653381 202.282099 
L 193.018593 203.815543 
L 194.385322 204.944066 
L 195.75205 205.76779 
L 197.118778 206.355868 
L 198.48399 206.75489 
L 199.850213 206.997256 
L 201.216941 207.103247 
L 202.58367 207.085189 
L 203.950398 206.948999 
L 205.318643 206.694658 
L 206.685371 206.317838 
L 208.052099 205.808131 
L 209.418322 205.149791 
L 210.786567 204.318512 
L 212.153295 203.285291 
L 213.52154 202.006509 
L 214.888268 200.431059 
L 216.256513 198.485994 
L 217.623241 196.088634 
L 218.991486 193.129174 
L 220.35973 189.495535 
L 221.72747 185.08934 
L 223.095714 179.878339 
L 227.200448 162.6054 
L 228.568693 159.011243 
L 229.936937 157.882564 
L 231.305182 159.020011 
L 234.043188 163.910923 
L 235.411432 165.596627 
L 236.781193 166.051966 
L 238.148933 165.235334 
L 239.518694 163.453495 
L 240.886938 161.372667 
L 242.256699 159.936297 
L 243.62646 160.080918 
L 244.996221 162.250305 
L 246.364466 166.126448 
L 249.103988 175.530801 
L 250.473749 179.345124 
L 251.84351 181.652111 
L 253.214787 181.613812 
L 254.584548 177.880646 
L 255.954309 169.748691 
L 257.32407 164.751838 
L 258.695347 173.728462 
L 260.065108 186.109897 
L 261.436386 194.420465 
L 262.806147 199.457934 
L 264.177424 202.673885 
L 265.547185 204.870897 
L 266.918462 206.469439 
L 268.28974 207.687733 
L 269.661017 208.65072 
L 271.032294 209.433496 
L 273.774849 210.633362 
L 276.517404 211.512606 
L 279.259958 212.185108 
L 283.375307 212.940757 
L 288.864965 213.649789 
L 295.727417 214.251335 
L 303.964684 214.733367 
L 314.955121 215.150173 
L 320.450845 215.299584 
L 320.450845 215.299584 
" clip-path="url(#pa8d58b2f5d)" style="fill: none; stroke: #ff0000; stroke-width: 1.5; stroke-linecap: square"/>
   </g>
   <g id="line2d_3">
    <path d="M 295.727417 216.404326 
L 295.727417 17.735865 
" clip-path="url(#pa8d58b2f5d)" style="fill: none; stroke-dasharray: 3.7,1.6; stroke-dashoffset: 0; stroke: #808080"/>
   </g>
   <g id="patch_3">
    <path d="M 43.003987 216.404326 
L 43.003987 17.735865 
" style="fill: none; stroke: #000000; stroke-linejoin: miter; stroke-linecap: square"/>
   </g>
   <g id="patch_4">
    <path d="M 320.99976 216.404326 
L 320.99976 17.735865 
" style="fill: none; stroke: #000000; stroke-linejoin: miter; stroke-linecap: square"/>
   </g>
   <g id="patch_5">
    <path d="M 43.003987 216.404326 
L 320.99976 216.404326 
" style="fill: none; stroke: #000000; stroke-linejoin: miter; stroke-linecap: square"/>
   </g>
   <g id="patch_6">
    <path d="M 43.003987 17.735865 
L 320.99976 17.735865 
" style="fill: none; stroke: #000000; stroke-linejoin: miter; stroke-linecap: square"/>
   </g>
   <g id="matplotlib.axis_1">
    <g id="xtick_1">
     <g id="line2d_4">
      <defs>
       <path id="m2adefe8f9f" d="M 0 0 
L 0 3.75 
" style="stroke: #000000; stroke-width: 1.25"/>
      </defs>
      <g>
       <use xlink:href="#m2adefe8f9f" x="43.003987" y="216.404326" style="stroke: #000000; stroke-width: 1.25"/>
      </g>
     </g>
     <g id="text_1">
      <!-- $\mathdefault{429}$ -->
      <g transform="translate(33.818987 231.52792)">
       <text>
        <tspan style="font: 11px 'Arial'" x="0 6.117676 12.235352" y="-0.09375">429</tspan>
       </text>
      </g>
     </g>
    </g>
    <g id="xtick_2">
     <g id="line2d_5">
      <g>
       <use xlink:href="#m2adefe8f9f" x="93.548673" y="216.404326" style="stroke: #000000; stroke-width: 1.25"/>
      </g>
     </g>
     <g id="text_2">
      <!-- $\mathdefault{430}$ -->
      <g transform="translate(84.363673 231.52792)">
       <text>
        <tspan style="font: 11px 'Arial'" x="0 6.117676 12.235352" y="-0.09375">430</tspan>
       </text>
      </g>
     </g>
    </g>
    <g id="xtick_3">
     <g id="line2d_6">
      <g>
       <use xlink:href="#m2adefe8f9f" x="144.093359" y="216.404326" style="stroke: #000000; stroke-width: 1.25"/>
      </g>
     </g>
     <g id="text_3">
      <!-- $\mathdefault{431}$ -->
      <g transform="translate(134.908359 231.52792)">
       <text>
        <tspan style="font: 11px 'Arial'" x="0 6.117676 12.235352" y="-0.09375">431</tspan>
       </text>
      </g>
     </g>
    </g>
    <g id="xtick_4">
     <g id="line2d_7">
      <g>
       <use xlink:href="#m2adefe8f9f" x="194.638045" y="216.404326" style="stroke: #000000; stroke-width: 1.25"/>
      </g>
     </g>
     <g id="text_4">
      <!-- $\mathdefault{432}$ -->
      <g transform="translate(185.453045 231.52792)">
       <text>
        <tspan style="font: 11px 'Arial'" x="0 6.117676 12.235352" y="-0.09375">432</tspan>
       </text>
      </g>
     </g>
    </g>
    <g id="xtick_5">
     <g id="line2d_8">
      <g>
       <use xlink:href="#m2adefe8f9f" x="245.182731" y="216.404326" style="stroke: #000000; stroke-width: 1.25"/>
      </g>
     </g>
     <g id="text_5">
      <!-- $\mathdefault{433}$ -->
      <g transform="translate(235.997731 231.52792)">
       <text>
        <tspan style="font: 11px 'Arial'" x="0 6.117676 12.235352" y="-0.09375">433</tspan>
       </text>
      </g>
     </g>
    </g>
    <g id="xtick_6">
     <g id="line2d_9">
      <g>
       <use xlink:href="#m2adefe8f9f" x="295.727417" y="216.404326" style="stroke: #000000; stroke-width: 1.25"/>
      </g>
     </g>
     <g id="text_6">
      <!-- $\mathdefault{434}$ -->
      <g transform="translate(286.542417 231.52792)">
       <text>
        <tspan style="font: 11px 'Arial'" x="0 6.117676 12.235352" y="-0.09375">434</tspan>
       </text>
      </g>
     </g>
    </g>
    <g id="text_7">
     <!-- $\lambda$ {\sffamily (nm)} -->
     <g transform="translate(164.206736 246.411565) scale(0.12 -0.12)">
      <defs>
       <path id="StandardSymL-6c" d="M 480 3650 
C 525 4013 710 4224 998 4224 
C 1203 4224 1376 4064 1472 3778 
C 1517 3650 1574 3440 1632 3198 
L 154 19 
L 755 19 
L 1843 2301 
C 2048 1059 2150 607 2266 358 
C 2406 83 2611 -64 2848 -64 
C 3098 -64 3296 89 3405 371 
C 3475 543 3501 715 3507 1014 
L 3373 1014 
C 3322 683 3174 499 2944 499 
C 2752 499 2586 620 2483 843 
C 2400 1008 2355 1174 2266 1645 
L 2093 2466 
C 2086 2485 2080 2530 2067 2594 
C 1920 3415 1690 4192 1536 4422 
C 1395 4627 1203 4736 992 4736 
C 602 4736 397 4403 326 3650 
L 480 3650 
z
" transform="scale(0.015625)"/>
       <path id="NimbusSanL-Regu-28" d="M 1510 4672 
C 870 3833 467 2668 467 1663 
C 467 652 870 -513 1510 -1351 
L 1862 -1351 
C 1299 -436 986 639 986 1663 
C 986 2681 1299 3763 1862 4672 
L 1510 4672 
z
" transform="scale(0.015625)"/>
       <path id="NimbusSanL-Regu-6e" d="M 448 3328 
L 448 0 
L 986 0 
L 986 1835 
C 986 2539 1344 2988 1894 2988 
C 2317 2988 2586 2732 2586 2328 
L 2586 0 
L 3117 0 
L 3117 2539 
C 3117 3097 2701 3456 2054 3456 
C 1555 3456 1235 3263 941 2796 
L 941 3328 
L 448 3328 
z
" transform="scale(0.015625)"/>
       <path id="NimbusSanL-Regu-6d" d="M 448 3328 
L 448 0 
L 986 0 
L 986 2089 
C 986 2597 1338 2988 1773 2988 
C 2170 2988 2394 2744 2394 2315 
L 2394 0 
L 2931 0 
L 2931 2109 
C 2931 2597 3283 2988 3718 2988 
C 4109 2988 4339 2738 4339 2315 
L 4339 0 
L 4877 0 
L 4877 2520 
C 4877 3123 4531 3456 3904 3456 
C 3456 3456 3187 3321 2874 2943 
C 2675 3302 2406 3456 1971 3456 
C 1523 3456 1229 3289 941 2886 
L 941 3328 
L 448 3328 
z
" transform="scale(0.015625)"/>
       <path id="NimbusSanL-Regu-29" d="M 595 -1351 
C 1235 -513 1638 652 1638 1657 
C 1638 2668 1235 3833 595 4672 
L 243 4672 
C 806 3756 1120 2681 1120 1657 
C 1120 639 806 -442 243 -1351 
L 595 -1351 
z
" transform="scale(0.015625)"/>
      </defs>
      <use xlink:href="#StandardSymL-6c" transform="scale(0.996264)"/>
      <use xlink:href="#NimbusSanL-Regu-28" transform="translate(91.855235 0) scale(0.996264)"/>
      <use xlink:href="#NimbusSanL-Regu-6e" transform="translate(125.030464 0) scale(0.996264)"/>
      <use xlink:href="#NimbusSanL-Regu-6d" transform="translate(180.422141 0) scale(0.996264)"/>
      <use xlink:href="#NimbusSanL-Regu-29" transform="translate(263.410572 0) scale(0.996264)"/>
     </g>
    </g>
   </g>
   <g id="matplotlib.axis_2">
    <g id="ytick_1">
     <g id="line2d_10">
      <defs>
       <path id="m1efb2eef1e" d="M 0 0 
L -3.75 0 
" style="stroke: #000000; stroke-width: 1.25"/>
      </defs>
      <g>
       <use xlink:href="#m1efb2eef1e" x="43.003987" y="216.404326" style="stroke: #000000; stroke-width: 1.25"/>
      </g>
     </g>
     <g id="text_8">
      <!-- $\mathdefault{0.0}$ -->
      <g transform="translate(20.353987 220.341123)">
       <text>
        <tspan style="font: 11px 'Arial'" x="0 6.117676 9.173828" y="-0.09375">0.0</tspan>
       </text>
      </g>
     </g>
    </g>
    <g id="ytick_2">
     <g id="line2d_11">
      <g>
       <use xlink:href="#m1efb2eef1e" x="43.003987" y="184.526097" style="stroke: #000000; stroke-width: 1.25"/>
      </g>
     </g>
     <g id="text_9">
      <!-- $\mathdefault{0.5}$ -->
      <g transform="translate(20.353987 188.462894)">
       <text>
        <tspan style="font: 11px 'Arial'" x="0 6.117676 9.173828" y="-0.09375">0.5</tspan>
       </text>
      </g>
     </g>
    </g>
    <g id="ytick_3">
     <g id="line2d_12">
      <g>
       <use xlink:href="#m1efb2eef1e" x="43.003987" y="152.647868" style="stroke: #000000; stroke-width: 1.25"/>
      </g>
     </g>
     <g id="text_10">
      <!-- $\mathdefault{1.0}$ -->
      <g transform="translate(20.353987 156.584665)">
       <text>
        <tspan style="font: 11px 'Arial'" x="0 6.117676 9.173828" y="-0.09375">1.0</tspan>
       </text>
      </g>
     </g>
    </g>
    <g id="ytick_4">
     <g id="line2d_13">
      <g>
       <use xlink:href="#m1efb2eef1e" x="43.003987" y="120.769639" style="stroke: #000000; stroke-width: 1.25"/>
      </g>
     </g>
     <g id="text_11">
      <!-- $\mathdefault{1.5}$ -->
      <g transform="translate(20.353987 124.706436)">
       <text>
        <tspan style="font: 11px 'Arial'" x="0 6.117676 9.173828" y="-0.09375">1.5</tspan>
       </text>
      </g>
     </g>
    </g>
    <g id="ytick_5">
     <g id="line2d_14">
      <g>
       <use xlink:href="#m1efb2eef1e" x="43.003987" y="88.89141" style="stroke: #000000; stroke-width: 1.25"/>
      </g>
     </g>
     <g id="text_12">
      <!-- $\mathdefault{2.0}$ -->
      <g transform="translate(20.353987 92.828207)">
       <text>
        <tspan style="font: 11px 'Arial'" x="0 6.117676 9.173828" y="-0.09375">2.0</tspan>
       </text>
      </g>
     </g>
    </g>
    <g id="ytick_6">
     <g id="line2d_15">
      <g>
       <use xlink:href="#m1efb2eef1e" x="43.003987" y="57.013182" style="stroke: #000000; stroke-width: 1.25"/>
      </g>
     </g>
     <g id="text_13">
      <!-- $\mathdefault{2.5}$ -->
      <g transform="translate(20.353987 60.949978)">
       <text>
        <tspan style="font: 11px 'Arial'" x="0 6.117676 9.173828" y="-0.09375">2.5</tspan>
       </text>
      </g>
     </g>
    </g>
    <g id="ytick_7">
     <g id="line2d_16">
      <g>
       <use xlink:href="#m1efb2eef1e" x="43.003987" y="25.134953" style="stroke: #000000; stroke-width: 1.25"/>
      </g>
     </g>
     <g id="text_14">
      <!-- $\mathdefault{3.0}$ -->
      <g transform="translate(20.353987 29.07175)">
       <text>
        <tspan style="font: 11px 'Arial'" x="0 6.117676 9.173828" y="-0.09375">3.0</tspan>
       </text>
      </g>
     </g>
    </g>
    <g id="text_15">
     <!-- $B_{\lambda}$ {\sffamily (photons/cm\textsuperscript{2}/s/nm)} -->
     <g transform="translate(13.728305 177.714049) rotate(-90) scale(0.12 -0.12)">
      <defs>
       <path id="NimbusRomNo9L-ReguItal-42" d="M -51 0 
L 1754 0 
C 2758 0 3450 523 3450 1274 
C 3450 1510 3373 1732 3232 1872 
C 3104 2019 2976 2095 2643 2235 
C 3098 2344 3283 2420 3488 2598 
C 3667 2751 3763 2968 3763 3222 
C 3763 3827 3309 4160 2483 4160 
L 832 4160 
L 832 4057 
C 1229 4025 1325 3974 1325 3795 
C 1325 3700 1299 3541 1254 3388 
L 467 574 
C 352 204 307 166 -51 102 
L -51 0 
z
M 1523 2108 
C 1939 2108 2208 2083 2336 2032 
C 2598 1923 2758 1643 2758 1299 
C 2758 612 2285 192 1504 192 
C 1235 192 1094 287 1094 459 
C 1094 535 1171 841 1318 1350 
C 1402 1637 1440 1783 1523 2108 
z
M 2003 3789 
C 2042 3929 2118 3967 2368 3967 
C 2880 3967 3117 3751 3117 3280 
C 3117 2917 2963 2637 2688 2484 
C 2470 2356 2163 2312 1587 2312 
L 2003 3789 
z
" transform="scale(0.015625)"/>
       <path id="NimbusSanL-Regu-70" d="M 346 -1408 
L 883 -1408 
L 883 371 
C 1165 25 1478 -128 1914 -128 
C 2778 -128 3347 568 3347 1632 
C 3347 2752 2797 3456 1907 3456 
C 1453 3456 1088 3251 838 2854 
L 838 3359 
L 346 3359 
L 346 -1408 
z
M 1818 2956 
C 2406 2956 2790 2440 2790 1644 
C 2790 887 2400 371 1818 371 
C 1254 371 883 880 883 1663 
C 883 2447 1254 2956 1818 2956 
z
" transform="scale(0.015625)"/>
       <path id="NimbusSanL-Regu-68" d="M 448 4672 
L 448 0 
L 979 0 
L 979 1853 
C 979 2539 1338 2988 1888 2988 
C 2061 2988 2234 2930 2362 2834 
C 2515 2725 2579 2565 2579 2328 
L 2579 0 
L 3110 0 
L 3110 2539 
C 3110 3103 2707 3456 2054 3456 
C 1581 3456 1293 3308 979 2898 
L 979 4672 
L 448 4672 
z
" transform="scale(0.015625)"/>
       <path id="NimbusSanL-Regu-6f" d="M 1741 3456 
C 800 3456 230 2784 230 1663 
C 230 543 794 -128 1747 -128 
C 2688 -128 3264 543 3264 1638 
C 3264 2791 2707 3456 1741 3456 
z
M 1747 2963 
C 2349 2963 2707 2472 2707 1644 
C 2707 861 2336 364 1747 364 
C 1152 364 787 855 787 1663 
C 787 2466 1152 2963 1747 2963 
z
" transform="scale(0.015625)"/>
       <path id="NimbusSanL-Regu-74" d="M 1626 3328 
L 1075 3328 
L 1075 4249 
L 544 4249 
L 544 3328 
L 90 3328 
L 90 2892 
L 544 2892 
L 544 402 
C 544 64 774 -128 1190 -128 
C 1318 -128 1446 -116 1626 -84 
L 1626 364 
C 1555 345 1472 339 1370 339 
C 1139 339 1075 402 1075 634 
L 1075 2892 
L 1626 2892 
L 1626 3328 
z
" transform="scale(0.015625)"/>
       <path id="NimbusSanL-Regu-73" d="M 2803 2428 
C 2797 3084 2362 3456 1587 3456 
C 806 3456 301 3052 301 2434 
C 301 1912 570 1663 1363 1472 
L 1862 1351 
C 2234 1262 2381 1129 2381 887 
C 2381 574 2067 364 1600 364 
C 1312 364 1069 447 934 587 
C 851 683 813 778 781 1014 
L 218 1014 
C 243 243 678 -128 1555 -128 
C 2400 -128 2938 288 2938 931 
C 2938 1428 2656 1702 1990 1861 
L 1478 1982 
C 1043 2084 858 2224 858 2459 
C 858 2765 1133 2963 1568 2963 
C 1997 2963 2227 2778 2240 2428 
L 2803 2428 
z
" transform="scale(0.015625)"/>
       <path id="NimbusSanL-Regu-2f" d="M 1466 4672 
L -51 -128 
L 301 -128 
L 1818 4672 
L 1466 4672 
z
" transform="scale(0.015625)"/>
       <path id="NimbusSanL-Regu-63" d="M 3014 2237 
C 2989 2561 2918 2771 2790 2956 
C 2560 3270 2157 3456 1690 3456 
C 787 3456 198 2740 198 1632 
C 198 555 774 -128 1683 -128 
C 2483 -128 2989 352 3053 1167 
L 2515 1167 
C 2426 632 2150 364 1696 364 
C 1107 364 755 842 755 1632 
C 755 2466 1101 2963 1683 2963 
C 2131 2963 2413 2701 2477 2237 
L 3014 2237 
z
" transform="scale(0.015625)"/>
       <path id="NimbusSanL-Regu-32" d="M 3238 556 
L 851 556 
C 909 928 1114 1165 1670 1493 
L 2310 1839 
C 2944 2185 3270 2653 3270 3211 
C 3270 3589 3117 3942 2848 4185 
C 2579 4428 2246 4544 1818 4544 
C 1242 4544 813 4339 563 3955 
C 403 3711 333 3429 320 2967 
L 883 2967 
C 902 3275 941 3461 1018 3608 
C 1165 3884 1459 4051 1798 4051 
C 2310 4051 2694 3685 2694 3198 
C 2694 2839 2483 2531 2080 2300 
L 1491 1967 
C 544 1428 269 999 218 0 
L 3238 0 
L 3238 556 
z
" transform="scale(0.015625)"/>
      </defs>
      <use xlink:href="#NimbusRomNo9L-ReguItal-42" transform="scale(0.996264)"/>
      <use xlink:href="#StandardSymL-6c" transform="translate(60.871631 -20.616338) scale(0.737241)"/>
      <use xlink:href="#NimbusSanL-Regu-28" transform="translate(135.818713 0) scale(0.996264)"/>
      <use xlink:href="#NimbusSanL-Regu-70" transform="translate(168.993943 0) scale(0.996264)"/>
      <use xlink:href="#NimbusSanL-Regu-68" transform="translate(224.38562 0) scale(0.996264)"/>
      <use xlink:href="#NimbusSanL-Regu-6f" transform="translate(279.777297 0) scale(0.996264)"/>
      <use xlink:href="#NimbusSanL-Regu-74" transform="translate(335.168974 0) scale(0.996264)"/>
      <use xlink:href="#NimbusSanL-Regu-6f" transform="translate(362.864143 0) scale(0.996264)"/>
      <use xlink:href="#NimbusSanL-Regu-6e" transform="translate(418.25582 0) scale(0.996264)"/>
      <use xlink:href="#NimbusSanL-Regu-73" transform="translate(473.647497 0) scale(0.996264)"/>
      <use xlink:href="#NimbusSanL-Regu-2f" transform="translate(523.460698 0) scale(0.996264)"/>
      <use xlink:href="#NimbusSanL-Regu-63" transform="translate(551.155868 0) scale(0.996264)"/>
      <use xlink:href="#NimbusSanL-Regu-6d" transform="translate(600.969068 0) scale(0.996264)"/>
      <use xlink:href="#NimbusSanL-Regu-32" transform="translate(683.957498 36.163231) scale(0.737241)"/>
      <use xlink:href="#NimbusSanL-Regu-2f" transform="translate(725.445777 0) scale(0.996264)"/>
      <use xlink:href="#NimbusSanL-Regu-73" transform="translate(753.140947 0) scale(0.996264)"/>
      <use xlink:href="#NimbusSanL-Regu-2f" transform="translate(802.954147 0) scale(0.996264)"/>
      <use xlink:href="#NimbusSanL-Regu-6e" transform="translate(830.649317 0) scale(0.996264)"/>
      <use xlink:href="#NimbusSanL-Regu-6d" transform="translate(886.040994 0) scale(0.996264)"/>
      <use xlink:href="#NimbusSanL-Regu-29" transform="translate(969.029424 0) scale(0.996264)"/>
     </g>
    </g>
    <g id="text_16">
     <!-- $\times\mathdefault{10^{12}}\mathdefault{}$ -->
     <g transform="translate(43.003987 14.735865)">
      <text>
       <tspan style="font: 11px 'STIXGeneral'" x="0" y="-0.799312500000001"></tspan>
       <tspan style="font: 11px 'Arial'" x="7.039993 13.157669" y="-0.799312500000001">10</tspan>
       <tspan style="font: 7.7px 'Arial'" x="19.467003 23.749376" y="-8.465625">12</tspan>
      </text>
     </g>
    </g>
   </g>
   <g id="patch_7">
    <path d="M 217.800817 47.652918 
L 217.800817 67.40298 
L 294.609383 67.40298 
" style="fill: none; stroke: #000000; stroke-linecap: round"/>
    <path d="M 290.609383 65.40298 
L 294.609383 67.40298 
L 290.609383 69.40298 
" style="fill: none; stroke: #000000; stroke-linecap: round"/>
   </g>
   <g id="text_17">
    <g id="patch_8">
     <path d="M 184.100817 50.702711 
L 251.500817 50.702711 
Q 254.500817 50.702711 254.500817 47.702711 
L 254.500817 37.602711 
Q 254.500817 34.602711 251.500817 34.602711 
L 184.100817 34.602711 
Q 181.100817 34.602711 181.100817 37.602711 
L 181.100817 47.702711 
Q 181.100817 50.702711 184.100817 50.702711 
z
" style="fill: #f5deb3; stroke: #000000; stroke-linejoin: miter"/>
    </g>
    <!-- D$_{\gamma}$ (434.00) nm -->
    <g transform="translate(184.100817 44.902711)">
     <text>
      <tspan style="font: 10px 'Arial'" x="0 10.686517 13.464837 16.794915 22.356439 27.917962 33.479486 36.257806 41.81933 47.380853 50.710931 53.489251 59.050775" y="-0.71875">D(434.00)nm</tspan>
      <tspan style="font: italic 7px 'STIXGeneral'" x="7.375898" y="0.6031250000000004"></tspan>
     </text>
    </g>
   </g>
   <g id="text_18">
    <text style="font: 10px 'Arial'; text-anchor: middle" x="233.35781" y="97.022447" transform="rotate(-0 233.35781 97.022447)">Q-branch</text>
   </g>
   <g id="text_19">
    <text style="font: 10px 'Arial'; text-anchor: middle" x="121.462431" y="39.231303" transform="rotate(-0 121.462431 39.231303)">B-D + C-D</text>
   </g>
   <g id="text_20">
    <text style="font: 700 12px 'Arial'; text-anchor: middle" x="182.001874" y="11.735865" transform="rotate(-0 182.001874 11.735865)">PC boron pebble rod - 58 min</text>
   </g>
  </g>
 </g>
 <defs>
  <clipPath id="pa8d58b2f5d">
   <rect x="43.003987" y="17.735865" width="277.995773" height="198.668461"/>
  </clipPath>
 </defs>
</svg>
