<?xml version="1.0" encoding="utf-8" standalone="no"?>
<!DOCTYPE svg PUBLIC "-//W3C//DTD SVG 1.1//EN"
  "http://www.w3.org/Graphics/SVG/1.1/DTD/svg11.dtd">
<svg xmlns:xlink="http://www.w3.org/1999/xlink" width="324pt" height="252pt" viewBox="0 0 324 252" xmlns="http://www.w3.org/2000/svg" version="1.1">
 <metadata>
  <rdf:RDF xmlns:dc="http://purl.org/dc/elements/1.1/" xmlns:cc="http://creativecommons.org/ns#" xmlns:rdf="http://www.w3.org/1999/02/22-rdf-syntax-ns#">
   <cc:Work>
    <dc:type rdf:resource="http://purl.org/dc/dcmitype/StillImage"/>
    <dc:date>2024-12-06T11:03:25.441542</dc:date>
    <dc:format>image/svg+xml</dc:format>
    <dc:creator>
     <cc:Agent>
      <dc:title>Matplotlib v3.9.2, https://matplotlib.org/</dc:title>
     </cc:Agent>
    </dc:creator>
   </cc:Work>
  </rdf:RDF>
 </metadata>
 <defs>
  <style type="text/css">*{stroke-linejoin: round; stroke-linecap: butt}</style>
 </defs>
 <g id="figure_1">
  <g id="patch_1">
   <path d="M 0 252 
L 324 252 
L 324 0 
L 0 0 
z
" style="fill: #ffffff"/>
  </g>
  <g id="axes_1">
   <g id="patch_2">
    <path d="M 43.003987 216.404326 
L 320.99976 216.404326 
L 320.99976 17.735865 
L 43.003987 17.735865 
z
" style="fill: #ffffff"/>
   </g>
   <g id="PolyCollection_1">
    <path d="M 43.27895 216.108347 
L 43.27895 216.404326 
L 44.636075 216.404326 
L 45.992189 216.404326 
L 47.349314 216.404326 
L 48.705428 216.404326 
L 50.062553 216.404326 
L 51.420183 216.404326 
L 52.775791 216.404326 
L 54.133422 216.404326 
L 55.490547 216.404326 
L 56.848177 216.404326 
L 58.205807 216.404326 
L 59.562932 216.404326 
L 60.920562 216.404326 
L 62.277687 216.404326 
L 63.635317 216.404326 
L 64.993958 216.404326 
L 66.351589 216.404326 
L 67.708713 216.404326 
L 69.06786 216.404326 
L 70.42549 216.404326 
L 71.784131 216.404326 
L 73.141762 216.404326 
L 74.500403 216.404326 
L 75.85955 216.404326 
L 77.216674 216.404326 
L 78.575821 216.404326 
L 79.934968 216.404326 
L 81.293609 216.404326 
L 82.652755 216.404326 
L 84.011396 216.404326 
L 85.370543 216.404326 
L 86.72969 216.404326 
L 88.089847 216.404326 
L 89.448994 216.404326 
L 90.80814 216.404326 
L 92.168298 216.404326 
L 93.527444 216.404326 
L 94.887602 216.404326 
L 96.246749 216.404326 
L 97.607412 216.404326 
L 98.966053 216.404326 
L 100.326716 216.404326 
L 101.687379 216.404326 
L 103.047536 216.404326 
L 104.408199 216.404326 
L 105.768862 216.404326 
L 107.129019 216.404326 
L 108.489682 216.404326 
L 109.84984 216.404326 
L 111.210503 216.404326 
L 112.571166 216.404326 
L 113.93284 216.404326 
L 115.293503 216.404326 
L 116.654166 216.404326 
L 118.015839 216.404326 
L 119.376502 216.404326 
L 120.738682 216.404326 
L 122.100861 216.404326 
L 123.461018 216.404326 
L 124.823198 216.404326 
L 126.185377 216.404326 
L 127.547051 216.404326 
L 128.90923 216.404326 
L 130.271409 216.404326 
L 131.633083 216.404326 
L 132.995262 216.404326 
L 134.357442 216.404326 
L 135.719116 216.404326 
L 137.082811 216.404326 
L 138.444991 216.404326 
L 139.80717 216.404326 
L 141.17036 216.404326 
L 142.532539 216.404326 
L 143.896235 216.404326 
L 145.259931 216.404326 
L 146.621604 216.404326 
L 147.9853 216.404326 
L 149.348996 216.404326 
L 150.712691 216.404326 
L 152.075881 216.404326 
L 153.438061 216.404326 
L 154.801756 216.404326 
L 156.166968 216.404326 
L 157.530159 216.404326 
L 158.893854 216.404326 
L 160.25755 216.404326 
L 161.621245 216.404326 
L 162.985952 216.404326 
L 164.349648 216.404326 
L 165.714859 216.404326 
L 167.078555 216.404326 
L 168.443767 216.404326 
L 169.808474 216.404326 
L 171.172169 216.404326 
L 172.537381 216.404326 
L 173.902593 216.404326 
L 175.267805 216.404326 
L 176.632512 216.404326 
L 177.997724 216.404326 
L 179.362936 216.404326 
L 180.728148 216.404326 
L 182.09336 216.404326 
L 183.458066 216.404326 
L 184.823278 216.404326 
L 186.190006 216.404326 
L 187.555218 216.404326 
L 188.921947 216.404326 
L 190.286653 216.404326 
L 191.653381 216.404326 
L 193.018593 216.404326 
L 194.385322 216.404326 
L 195.75205 216.404326 
L 197.118778 216.404326 
L 198.48399 216.404326 
L 199.850213 216.404326 
L 201.216941 216.404326 
L 202.58367 216.404326 
L 203.950398 216.404326 
L 205.318643 216.404326 
L 206.685371 216.404326 
L 208.052099 216.404326 
L 209.418322 216.404326 
L 210.786567 216.404326 
L 212.153295 216.404326 
L 213.52154 216.404326 
L 214.888268 216.404326 
L 216.256513 216.404326 
L 217.623241 216.404326 
L 218.991486 216.404326 
L 220.35973 216.404326 
L 221.72747 216.404326 
L 223.095714 216.404326 
L 224.463959 216.404326 
L 225.832204 216.404326 
L 227.200448 216.404326 
L 228.568693 216.404326 
L 229.936937 216.404326 
L 231.305182 216.404326 
L 232.673427 216.404326 
L 234.043188 216.404326 
L 235.411432 216.404326 
L 236.781193 216.404326 
L 238.148933 216.404326 
L 239.518694 216.404326 
L 240.886938 216.404326 
L 242.256699 216.404326 
L 243.62646 216.404326 
L 244.996221 216.404326 
L 246.364466 216.404326 
L 247.734227 216.404326 
L 249.103988 216.404326 
L 250.473749 216.404326 
L 251.84351 216.404326 
L 253.214787 216.404326 
L 254.584548 216.404326 
L 255.954309 216.404326 
L 257.32407 216.404326 
L 258.695347 216.404326 
L 260.065108 216.404326 
L 261.436386 216.404326 
L 262.806147 216.404326 
L 264.177424 216.404326 
L 265.547185 216.404326 
L 266.918462 216.404326 
L 268.28974 216.404326 
L 269.661017 216.404326 
L 271.032294 216.404326 
L 272.403572 216.404326 
L 273.774849 216.404326 
L 275.146126 216.404326 
L 276.517404 216.404326 
L 277.888681 216.404326 
L 279.259958 216.404326 
L 280.632752 216.404326 
L 282.004029 216.404326 
L 283.375307 216.404326 
L 284.7481 216.404326 
L 286.119378 216.404326 
L 287.492171 216.404326 
L 288.864965 216.404326 
L 290.236242 216.404326 
L 291.609036 216.404326 
L 292.98183 216.404326 
L 294.354623 216.404326 
L 295.727417 216.404326 
L 297.100716 216.404326 
L 298.47351 216.404326 
L 299.846303 216.404326 
L 301.219097 216.404326 
L 302.591891 216.404326 
L 303.964684 216.404326 
L 305.338995 216.404326 
L 306.711788 216.404326 
L 308.086098 216.404326 
L 309.458892 216.404326 
L 310.833202 216.404326 
L 312.205996 216.404326 
L 313.580811 216.404326 
L 314.955121 216.404326 
L 316.327915 216.404326 
L 317.702225 216.404326 
L 319.076535 216.404326 
L 320.450845 216.404326 
L 320.450845 214.946841 
L 320.450845 214.946841 
L 319.076535 214.899698 
L 317.702225 214.850236 
L 316.327915 214.798298 
L 314.955121 214.74378 
L 313.580811 214.686377 
L 312.205996 214.625928 
L 310.833202 214.562331 
L 309.458892 214.495188 
L 308.086098 214.424389 
L 306.711788 214.349494 
L 305.338995 214.270358 
L 303.964684 214.186462 
L 302.591891 214.097616 
L 301.219097 214.003312 
L 299.846303 213.90309 
L 298.47351 213.796438 
L 297.100716 213.682784 
L 295.727417 213.561446 
L 294.354623 213.431799 
L 292.98183 213.292997 
L 291.609036 213.144131 
L 290.236242 212.984175 
L 288.864965 212.812152 
L 287.492171 212.626343 
L 286.119378 212.425384 
L 284.7481 212.20773 
L 283.375307 211.970805 
L 282.004029 211.712661 
L 280.632752 211.430108 
L 279.259958 211.119239 
L 277.888681 210.776395 
L 276.517404 210.395852 
L 275.146126 209.970765 
L 273.774849 209.492253 
L 272.403572 208.948475 
L 271.032294 208.323138 
L 269.661017 207.59297 
L 268.28974 206.723274 
L 266.918462 205.659687 
L 265.547185 204.312131 
L 264.177424 202.524204 
L 262.806147 199.994735 
L 261.436386 196.147345 
L 260.065108 189.878752 
L 258.695347 180.04338 
L 257.32407 170.519117 
L 255.954309 172.452381 
L 254.584548 180.483508 
L 253.214787 185.464432 
L 251.84351 187.009381 
L 250.473749 186.030924 
L 249.103988 181.838606 
L 247.734227 167.229311 
L 246.364466 158.923656 
L 244.996221 173.387181 
L 243.62646 174.629592 
L 242.256699 172.731466 
L 240.886938 169.996806 
L 239.518694 167.122101 
L 238.148933 164.489602 
L 236.781193 162.413652 
L 235.411432 161.13998 
L 234.043188 160.841103 
L 232.673427 161.572506 
L 231.305182 163.267088 
L 229.936937 165.75903 
L 228.568693 168.824101 
L 227.200448 172.226953 
L 225.832204 175.757786 
L 224.463959 179.252155 
L 223.095714 182.595472 
L 221.72747 185.717686 
L 220.35973 188.582634 
L 218.991486 191.182056 
L 217.623241 193.52056 
L 216.256513 195.611161 
L 214.888268 197.478533 
L 213.52154 199.140342 
L 212.153295 200.62204 
L 210.786567 201.940934 
L 209.418322 203.118894 
L 208.052099 204.169965 
L 206.685371 205.111409 
L 205.318643 205.956117 
L 203.950398 206.716535 
L 202.58367 207.401147 
L 201.216941 208.019687 
L 199.850213 208.579853 
L 198.48399 209.088163 
L 197.118778 209.550334 
L 195.75205 209.972276 
L 194.385322 210.357891 
L 193.018593 210.711061 
L 191.653381 211.034843 
L 190.286653 211.332942 
L 188.921947 211.607219 
L 187.555218 211.860801 
L 186.190006 212.095064 
L 184.823278 212.312339 
L 183.458066 212.513749 
L 182.09336 212.700905 
L 180.728148 212.875216 
L 179.362936 213.037747 
L 177.997724 213.189513 
L 176.632512 213.331427 
L 175.267805 213.464259 
L 173.902593 213.588845 
L 172.537381 213.7058 
L 171.172169 213.815724 
L 169.808474 213.919049 
L 168.443767 214.016464 
L 167.078555 214.108369 
L 165.714859 214.195042 
L 164.349648 214.277045 
L 162.985952 214.354535 
L 161.621245 214.427967 
L 160.25755 214.497514 
L 158.893854 214.563492 
L 157.530159 214.626138 
L 156.166968 214.685649 
L 154.801756 214.742331 
L 153.438061 214.796221 
L 152.075881 214.847499 
L 150.712691 214.896419 
L 149.348996 214.943104 
L 147.9853 214.987671 
L 146.621604 215.030245 
L 145.259931 215.070884 
L 143.896235 215.109815 
L 142.532539 215.147078 
L 141.17036 215.182727 
L 139.80717 215.216915 
L 138.444991 215.249673 
L 137.082811 215.281103 
L 135.719116 215.311307 
L 134.357442 215.340273 
L 132.995262 215.36812 
L 131.633083 215.394894 
L 130.271409 215.42064 
L 128.90923 215.445427 
L 127.547051 215.469294 
L 126.185377 215.492277 
L 124.823198 215.514434 
L 123.461018 215.535798 
L 122.100861 215.556375 
L 120.738682 215.576262 
L 119.376502 215.59546 
L 118.015839 215.613981 
L 116.654166 215.631888 
L 115.293503 215.649184 
L 113.93284 215.665907 
L 112.571166 215.682095 
L 111.210503 215.697747 
L 109.84984 215.712897 
L 108.489682 215.727562 
L 107.129019 215.741772 
L 105.768862 215.755536 
L 104.408199 215.768881 
L 103.047536 215.78182 
L 101.687379 215.794365 
L 100.326716 215.80654 
L 98.966053 215.818355 
L 97.607412 215.829808 
L 96.246749 215.840945 
L 94.887602 215.851751 
L 93.527444 215.862257 
L 92.168298 215.87246 
L 90.80814 215.882386 
L 89.448994 215.89203 
L 88.089847 215.90141 
L 86.72969 215.910542 
L 85.370543 215.919421 
L 84.011396 215.928064 
L 82.652755 215.936475 
L 81.293609 215.944669 
L 79.934968 215.952647 
L 78.575821 215.960423 
L 77.216674 215.968 
L 75.85955 215.975374 
L 74.500403 215.982574 
L 73.141762 215.989592 
L 71.784131 215.996431 
L 70.42549 216.003108 
L 69.06786 216.009618 
L 67.708713 216.015978 
L 66.351589 216.022177 
L 64.993958 216.028231 
L 63.635317 216.034146 
L 62.277687 216.03992 
L 60.920562 216.045557 
L 59.562932 216.051067 
L 58.205807 216.05645 
L 56.848177 216.061712 
L 55.490547 216.066856 
L 54.133422 216.071884 
L 52.775791 216.076802 
L 51.420183 216.081604 
L 50.062553 216.086309 
L 48.705428 216.09091 
L 47.349314 216.095409 
L 45.992189 216.099816 
L 44.636075 216.104125 
L 43.27895 216.108347 
z
" clip-path="url(#p401700d389)" style="fill: #1f77b4; fill-opacity: 0.25"/>
   </g>
   <g id="PolyCollection_2">
    <path d="M 43.27895 215.041355 
L 43.27895 216.404326 
L 44.636075 216.404326 
L 45.992189 216.404326 
L 47.349314 216.404326 
L 48.705428 216.404326 
L 50.062553 216.404326 
L 51.420183 216.404326 
L 52.775791 216.404326 
L 54.133422 216.404326 
L 55.490547 216.404326 
L 56.848177 216.404326 
L 58.205807 216.404326 
L 59.562932 216.404326 
L 60.920562 216.404326 
L 62.277687 216.404326 
L 63.635317 216.404326 
L 64.993958 216.404326 
L 66.351589 216.404326 
L 67.708713 216.404326 
L 69.06786 216.404326 
L 70.42549 216.404326 
L 71.784131 216.404326 
L 73.141762 216.404326 
L 74.500403 216.404326 
L 75.85955 216.404326 
L 77.216674 216.404326 
L 78.575821 216.404326 
L 79.934968 216.404326 
L 81.293609 216.404326 
L 82.652755 216.404326 
L 84.011396 216.404326 
L 85.370543 216.404326 
L 86.72969 216.404326 
L 88.089847 216.404326 
L 89.448994 216.404326 
L 90.80814 216.404326 
L 92.168298 216.404326 
L 93.527444 216.404326 
L 94.887602 216.404326 
L 96.246749 216.404326 
L 97.607412 216.404326 
L 98.966053 216.404326 
L 100.326716 216.404326 
L 101.687379 216.404326 
L 103.047536 216.404326 
L 104.408199 216.404326 
L 105.768862 216.404326 
L 107.129019 216.404326 
L 108.489682 216.404326 
L 109.84984 216.404326 
L 111.210503 216.404326 
L 112.571166 216.404326 
L 113.93284 216.404326 
L 115.293503 216.404326 
L 116.654166 216.404326 
L 118.015839 216.404326 
L 119.376502 216.404326 
L 120.738682 216.404326 
L 122.100861 216.404326 
L 123.461018 216.404326 
L 124.823198 216.404326 
L 126.185377 216.404326 
L 127.547051 216.404326 
L 128.90923 216.404326 
L 130.271409 216.404326 
L 131.633083 216.404326 
L 132.995262 216.404326 
L 134.357442 216.404326 
L 135.719116 216.404326 
L 137.082811 216.404326 
L 138.444991 216.404326 
L 139.80717 216.404326 
L 141.17036 216.404326 
L 142.532539 216.404326 
L 143.896235 216.404326 
L 145.259931 216.404326 
L 146.621604 216.404326 
L 147.9853 216.404326 
L 149.348996 216.404326 
L 150.712691 216.404326 
L 152.075881 216.404326 
L 153.438061 216.404326 
L 154.801756 216.404326 
L 156.166968 216.404326 
L 157.530159 216.404326 
L 158.893854 216.404326 
L 160.25755 216.404326 
L 161.621245 216.404326 
L 162.985952 216.404326 
L 164.349648 216.404326 
L 165.714859 216.404326 
L 167.078555 216.404326 
L 168.443767 216.404326 
L 169.808474 216.404326 
L 171.172169 216.404326 
L 172.537381 216.404326 
L 173.902593 216.404326 
L 175.267805 216.404326 
L 176.632512 216.404326 
L 177.997724 216.404326 
L 179.362936 216.404326 
L 180.728148 216.404326 
L 182.09336 216.404326 
L 183.458066 216.404326 
L 184.823278 216.404326 
L 186.190006 216.404326 
L 187.555218 216.404326 
L 188.921947 216.404326 
L 190.286653 216.404326 
L 191.653381 216.404326 
L 193.018593 216.404326 
L 194.385322 216.404326 
L 195.75205 216.404326 
L 197.118778 216.404326 
L 198.48399 216.404326 
L 199.850213 216.404326 
L 201.216941 216.404326 
L 202.58367 216.404326 
L 203.950398 216.404326 
L 205.318643 216.404326 
L 206.685371 216.404326 
L 208.052099 216.404326 
L 209.418322 216.404326 
L 210.786567 216.404326 
L 212.153295 216.404326 
L 213.52154 216.404326 
L 214.888268 216.404326 
L 216.256513 216.404326 
L 217.623241 216.404326 
L 218.991486 216.404326 
L 220.35973 216.404326 
L 221.72747 216.404326 
L 223.095714 216.404326 
L 224.463959 216.404326 
L 225.832204 216.404326 
L 227.200448 216.404326 
L 228.568693 216.404326 
L 229.936937 216.404326 
L 231.305182 216.404326 
L 232.673427 216.404326 
L 234.043188 216.404326 
L 235.411432 216.404326 
L 236.781193 216.404326 
L 238.148933 216.404326 
L 239.518694 216.404326 
L 240.886938 216.404326 
L 242.256699 216.404326 
L 243.62646 216.404326 
L 244.996221 216.404326 
L 246.364466 216.404326 
L 247.734227 216.404326 
L 249.103988 216.404326 
L 250.473749 216.404326 
L 251.84351 216.404326 
L 253.214787 216.404326 
L 254.584548 216.404326 
L 255.954309 216.404326 
L 257.32407 216.404326 
L 258.695347 216.404326 
L 260.065108 216.404326 
L 261.436386 216.404326 
L 262.806147 216.404326 
L 264.177424 216.404326 
L 265.547185 216.404326 
L 266.918462 216.404326 
L 268.28974 216.404326 
L 269.661017 216.404326 
L 271.032294 216.404326 
L 272.403572 216.404326 
L 273.774849 216.404326 
L 275.146126 216.404326 
L 276.517404 216.404326 
L 277.888681 216.404326 
L 279.259958 216.404326 
L 280.632752 216.404326 
L 282.004029 216.404326 
L 283.375307 216.404326 
L 284.7481 216.404326 
L 286.119378 216.404326 
L 287.492171 216.404326 
L 288.864965 216.404326 
L 290.236242 216.404326 
L 291.609036 216.404326 
L 292.98183 216.404326 
L 294.354623 216.404326 
L 295.727417 216.404326 
L 297.100716 216.404326 
L 298.47351 216.404326 
L 299.846303 216.404326 
L 301.219097 216.404326 
L 302.591891 216.404326 
L 303.964684 216.404326 
L 305.338995 216.404326 
L 306.711788 216.404326 
L 308.086098 216.404326 
L 309.458892 216.404326 
L 310.833202 216.404326 
L 312.205996 216.404326 
L 313.580811 216.404326 
L 314.955121 216.404326 
L 316.327915 216.404326 
L 317.702225 216.404326 
L 319.076535 216.404326 
L 320.450845 216.404326 
L 320.450845 216.218614 
L 320.450845 216.218614 
L 319.076535 216.215612 
L 317.702225 216.212534 
L 316.327915 216.209377 
L 314.955121 216.206144 
L 313.580811 216.202822 
L 312.205996 216.199413 
L 310.833202 216.195918 
L 309.458892 216.192326 
L 308.086098 216.188641 
L 306.711788 216.184852 
L 305.338995 216.180963 
L 303.964684 216.176961 
L 302.591891 216.172851 
L 301.219097 216.168624 
L 299.846303 216.164277 
L 298.47351 216.159803 
L 297.100716 216.155197 
L 295.727417 216.150454 
L 294.354623 216.145569 
L 292.98183 216.140537 
L 291.609036 216.13535 
L 290.236242 216.130002 
L 288.864965 216.124492 
L 287.492171 216.1188 
L 286.119378 216.112925 
L 284.7481 216.106865 
L 283.375307 216.100598 
L 282.004029 216.094129 
L 280.632752 216.08744 
L 279.259958 216.080515 
L 277.888681 216.073356 
L 276.517404 216.065944 
L 275.146126 216.058268 
L 273.774849 216.050314 
L 272.403572 216.042067 
L 271.032294 216.033512 
L 269.661017 216.024634 
L 268.28974 216.015414 
L 266.918462 216.005834 
L 265.547185 215.995874 
L 264.177424 215.985525 
L 262.806147 215.974741 
L 261.436386 215.96352 
L 260.065108 215.951812 
L 258.695347 215.939614 
L 257.32407 215.926868 
L 255.954309 215.913569 
L 254.584548 215.899666 
L 253.214787 215.885121 
L 251.84351 215.869874 
L 250.473749 215.853913 
L 249.103988 215.83717 
L 247.734227 215.819591 
L 246.364466 215.801116 
L 244.996221 215.7817 
L 243.62646 215.761229 
L 242.256699 215.739644 
L 240.886938 215.716857 
L 239.518694 215.692799 
L 238.148933 215.66731 
L 236.781193 215.640338 
L 235.411432 215.61167 
L 234.043188 215.581232 
L 232.673427 215.548791 
L 231.305182 215.514234 
L 229.936937 215.477317 
L 228.568693 215.437805 
L 227.200448 215.395431 
L 225.832204 215.34989 
L 224.463959 215.300834 
L 223.095714 215.247866 
L 221.72747 215.190525 
L 220.35973 215.128303 
L 218.991486 215.060535 
L 217.623241 214.986518 
L 216.256513 214.905493 
L 214.888268 214.816272 
L 213.52154 214.717852 
L 212.153295 214.608572 
L 210.786567 214.48693 
L 209.418322 214.350531 
L 208.052099 214.197121 
L 206.685371 214.023202 
L 205.318643 213.824755 
L 203.950398 213.596337 
L 202.58367 213.331799 
L 201.216941 213.022232 
L 199.850213 212.656153 
L 198.48399 212.218274 
L 197.118778 211.687711 
L 195.75205 211.033735 
L 194.385322 210.214265 
L 193.018593 209.166608 
L 191.653381 207.797673 
L 190.286653 205.956821 
L 188.921947 203.412875 
L 187.555218 199.769913 
L 186.190006 194.399223 
L 184.823278 186.308226 
L 183.458066 174.450344 
L 182.09336 159.594583 
L 180.728148 148.583281 
L 179.362936 149.888864 
L 177.997724 158.170714 
L 176.632512 162.179319 
L 175.267805 156.011342 
L 173.902593 140.938968 
L 172.537381 139.121321 
L 171.172169 159.880059 
L 169.808474 178.486424 
L 168.443767 189.003703 
L 167.078555 194.321447 
L 165.714859 196.410921 
L 164.349648 195.682781 
L 162.985952 190.665231 
L 161.621245 177.83396 
L 160.25755 171.782904 
L 158.893854 184.425346 
L 157.530159 190.190301 
L 156.166968 189.663561 
L 154.801756 184.864602 
L 153.438061 175.375656 
L 152.075881 159.884156 
L 150.712691 140.363629 
L 149.348996 129.580361 
L 147.9853 135.695245 
L 146.621604 143.488227 
L 145.259931 140.758617 
L 143.896235 129.994837 
L 142.532539 130.55344 
L 141.17036 149.345196 
L 139.80717 167.941942 
L 138.444991 179.235257 
L 137.082811 184.734263 
L 135.719116 186.064673 
L 134.357442 183.554045 
L 132.995262 176.046367 
L 131.633083 160.384691 
L 130.271409 132.704123 
L 128.90923 104.73856 
L 127.547051 114.529372 
L 126.185377 146.464815 
L 124.823198 169.024945 
L 123.461018 181.003777 
L 122.100861 186.688308 
L 120.738682 188.538622 
L 119.376502 187.484458 
L 118.015839 183.580585 
L 116.654166 176.348444 
L 115.293503 165.530553 
L 113.93284 153.282215 
L 112.571166 146.756118 
L 111.210503 151.945683 
L 109.84984 163.988601 
L 108.489682 175.142548 
L 107.129019 182.509487 
L 105.768862 185.86836 
L 104.408199 185.030921 
L 103.047536 179.035304 
L 101.687379 169.277599 
L 100.326716 168.283667 
L 98.966053 179.672739 
L 97.607412 189.72809 
L 96.246749 195.21501 
L 94.887602 197.5822 
L 93.527444 197.835517 
L 92.168298 196.154855 
L 90.80814 191.904199 
L 89.448994 183.115723 
L 88.089847 165.344953 
L 86.72969 137.326248 
L 85.370543 130.891951 
L 84.011396 145.659721 
L 82.652755 150.414595 
L 81.293609 151.727931 
L 79.934968 159.650059 
L 78.575821 172.461389 
L 77.216674 184.150983 
L 75.85955 192.667509 
L 74.500403 198.504136 
L 73.141762 202.496555 
L 71.784131 205.289486 
L 70.42549 207.302735 
L 69.06786 208.793173 
L 67.708713 209.9275 
L 66.351589 210.808605 
L 64.993958 211.5084 
L 63.635317 212.074293 
L 62.277687 212.538412 
L 60.920562 212.92452 
L 59.562932 213.249906 
L 58.205807 213.526896 
L 56.848177 213.765152 
L 55.490547 213.971792 
L 54.133422 214.152349 
L 52.775791 214.31135 
L 51.420183 214.452012 
L 50.062553 214.577547 
L 48.705428 214.689962 
L 47.349314 214.791087 
L 45.992189 214.882597 
L 44.636075 214.965625 
L 43.27895 215.041355 
z
" clip-path="url(#p401700d389)" style="fill: #ff7f0e; fill-opacity: 0.25"/>
   </g>
   <g id="line2d_1">
    <path d="M 43.27895 189.917246 
L 44.636075 186.438819 
L 45.992189 182.443229 
L 47.349314 180.927081 
L 48.705428 184.763961 
L 50.062553 191.369622 
L 51.420183 195.082566 
L 52.775791 193.207828 
L 54.133422 189.692879 
L 55.490547 187.33365 
L 56.848177 188.286524 
L 58.205807 191.526723 
L 59.562932 194.406403 
L 60.920562 193.528761 
L 62.277687 189.368409 
L 63.635317 182.213504 
L 64.993958 178.626695 
L 67.708713 175.258397 
L 69.06786 175.945878 
L 70.42549 181.040418 
L 71.784131 190.798236 
L 73.141762 194.949654 
L 74.500403 194.474758 
L 75.85955 192.353628 
L 77.216674 189.891781 
L 78.575821 177.213693 
L 79.934968 160.118143 
L 81.293609 153.084355 
L 82.652755 150.479349 
L 84.011396 147.083169 
L 85.370543 133.865293 
L 86.72969 132.371512 
L 89.448994 180.21653 
L 90.80814 192.190825 
L 92.168298 195.58755 
L 93.527444 196.354949 
L 94.887602 198.067068 
L 96.246749 195.92686 
L 97.607412 190.025332 
L 98.966053 181.114243 
L 100.326716 170.38455 
L 101.687379 168.337857 
L 103.047536 173.382908 
L 104.408199 181.641859 
L 105.768862 188.050329 
L 107.129019 188.39622 
L 108.489682 179.151454 
L 109.84984 163.223004 
L 111.210503 150.806619 
L 112.571166 148.334127 
L 113.93284 151.997296 
L 115.293503 159.706275 
L 116.654166 171.922468 
L 118.015839 182.258761 
L 119.376502 188.240098 
L 120.738682 188.76199 
L 123.461018 175.130086 
L 124.823198 169.78534 
L 126.185377 152.823072 
L 127.547051 123.47167 
L 128.90923 103.775609 
L 130.271409 118.531473 
L 131.633083 152.076343 
L 132.995262 175.038552 
L 134.357442 184.214217 
L 135.719116 190.870474 
L 137.082811 191.189828 
L 138.444991 187.788619 
L 139.80717 169.468735 
L 141.17036 145.244647 
L 142.532539 132.735696 
L 143.896235 132.976852 
L 146.621604 135.943071 
L 147.9853 135.345672 
L 149.348996 134.924175 
L 150.712691 134.029205 
L 152.075881 144.83157 
L 153.438061 170.14187 
L 154.801756 187.619352 
L 156.166968 195.22977 
L 157.530159 194.652174 
L 158.893854 179.837639 
L 160.25755 172.579272 
L 161.621245 173.561731 
L 162.985952 183.811819 
L 164.349648 191.099608 
L 165.714859 193.832488 
L 167.078555 193.220948 
L 168.443767 189.254794 
L 169.808474 180.268522 
L 171.172169 162.001725 
L 172.537381 140.898414 
L 173.902593 135.653207 
L 176.632512 159.883831 
L 177.997724 158.327409 
L 179.362936 148.228624 
L 180.728148 143.670454 
L 182.09336 150.836436 
L 184.823278 183.730498 
L 186.190006 191.239295 
L 187.555218 189.46122 
L 188.921947 200.868963 
L 190.286653 213.830237 
L 191.653381 216.404326 
L 193.018593 216.404326 
L 194.385322 207.93237 
L 195.75205 190.386873 
L 197.118778 189.516713 
L 199.850213 197.478229 
L 201.216941 200.071062 
L 202.58367 201.678444 
L 203.950398 202.768572 
L 205.318643 202.02136 
L 206.685371 205.880883 
L 208.052099 213.755508 
L 209.418322 215.430787 
L 212.153295 203.849582 
L 213.52154 203.869644 
L 214.888268 203.129161 
L 216.256513 201.178767 
L 217.623241 199.546177 
L 218.991486 198.71058 
L 220.35973 196.096108 
L 221.72747 189.970303 
L 223.095714 178.192125 
L 224.463959 167.831395 
L 225.832204 166.525803 
L 227.200448 168.507557 
L 228.568693 164.033935 
L 229.936937 158.240192 
L 232.673427 163.102019 
L 234.043188 166.193201 
L 235.411432 168.597629 
L 236.781193 172.244277 
L 238.148933 166.270964 
L 239.518694 162.262551 
L 240.886938 159.940517 
L 243.62646 171.142235 
L 244.996221 168.841952 
L 246.364466 166.079764 
L 247.734227 158.432352 
L 249.103988 183.157357 
L 250.473749 186.269791 
L 251.84351 188.221349 
L 253.214787 185.255521 
L 254.584548 177.984055 
L 255.954309 173.190077 
L 257.32407 173.148417 
L 258.695347 174.853003 
L 260.065108 175.527362 
L 261.436386 207.626998 
L 262.806147 205.860384 
L 264.177424 204.596629 
L 265.547185 202.542494 
L 266.918462 202.346975 
L 268.28974 204.899471 
L 269.661017 204.688257 
L 271.032294 201.979113 
L 272.403572 201.248679 
L 275.146126 203.048351 
L 276.517404 203.827956 
L 277.888681 203.512948 
L 279.259958 200.435837 
L 280.632752 196.545365 
L 282.004029 190.59436 
L 283.375307 185.707468 
L 284.7481 181.859464 
L 286.119378 174.124536 
L 288.864965 142.996878 
L 290.236242 98.777517 
L 290.99073 -1 
M 301.057539 -1 
L 301.219097 33.965748 
L 302.591891 108.846837 
L 303.964684 138.166639 
L 305.338995 159.445094 
L 306.711788 174.88623 
L 308.086098 183.304485 
L 309.458892 188.571242 
L 310.833202 192.107821 
L 312.205996 194.211598 
L 313.580811 194.734464 
L 314.955121 193.008742 
L 316.327915 193.825305 
L 317.702225 197.305943 
L 319.076535 199.647686 
L 320.450845 200.307856 
L 320.450845 200.307856 
" clip-path="url(#p401700d389)" style="fill: none; stroke: #1f77b4; stroke-width: 1.5; stroke-linecap: square"/>
    <defs>
     <path id="mbaaf817c4d" d="M 0 1.5 
C 0.397805 1.5 0.77937 1.341951 1.06066 1.06066 
C 1.341951 0.77937 1.5 0.397805 1.5 0 
C 1.5 -0.397805 1.341951 -0.77937 1.06066 -1.06066 
C 0.77937 -1.341951 0.397805 -1.5 0 -1.5 
C -0.397805 -1.5 -0.77937 -1.341951 -1.06066 -1.06066 
C -1.341951 -0.77937 -1.5 -0.397805 -1.5 0 
C -1.5 0.397805 -1.341951 0.77937 -1.06066 1.06066 
C -0.77937 1.341951 -0.397805 1.5 0 1.5 
z
" style="stroke: #1f77b4"/>
    </defs>
    <g clip-path="url(#p401700d389)">
     <use xlink:href="#mbaaf817c4d" x="43.27895" y="189.917246" style="fill-opacity: 0; stroke: #1f77b4"/>
     <use xlink:href="#mbaaf817c4d" x="44.636075" y="186.438819" style="fill-opacity: 0; stroke: #1f77b4"/>
     <use xlink:href="#mbaaf817c4d" x="45.992189" y="182.443229" style="fill-opacity: 0; stroke: #1f77b4"/>
     <use xlink:href="#mbaaf817c4d" x="47.349314" y="180.927081" style="fill-opacity: 0; stroke: #1f77b4"/>
     <use xlink:href="#mbaaf817c4d" x="48.705428" y="184.763961" style="fill-opacity: 0; stroke: #1f77b4"/>
     <use xlink:href="#mbaaf817c4d" x="50.062553" y="191.369622" style="fill-opacity: 0; stroke: #1f77b4"/>
     <use xlink:href="#mbaaf817c4d" x="51.420183" y="195.082566" style="fill-opacity: 0; stroke: #1f77b4"/>
     <use xlink:href="#mbaaf817c4d" x="52.775791" y="193.207828" style="fill-opacity: 0; stroke: #1f77b4"/>
     <use xlink:href="#mbaaf817c4d" x="54.133422" y="189.692879" style="fill-opacity: 0; stroke: #1f77b4"/>
     <use xlink:href="#mbaaf817c4d" x="55.490547" y="187.33365" style="fill-opacity: 0; stroke: #1f77b4"/>
     <use xlink:href="#mbaaf817c4d" x="56.848177" y="188.286524" style="fill-opacity: 0; stroke: #1f77b4"/>
     <use xlink:href="#mbaaf817c4d" x="58.205807" y="191.526723" style="fill-opacity: 0; stroke: #1f77b4"/>
     <use xlink:href="#mbaaf817c4d" x="59.562932" y="194.406403" style="fill-opacity: 0; stroke: #1f77b4"/>
     <use xlink:href="#mbaaf817c4d" x="60.920562" y="193.528761" style="fill-opacity: 0; stroke: #1f77b4"/>
     <use xlink:href="#mbaaf817c4d" x="62.277687" y="189.368409" style="fill-opacity: 0; stroke: #1f77b4"/>
     <use xlink:href="#mbaaf817c4d" x="63.635317" y="182.213504" style="fill-opacity: 0; stroke: #1f77b4"/>
     <use xlink:href="#mbaaf817c4d" x="64.993958" y="178.626695" style="fill-opacity: 0; stroke: #1f77b4"/>
     <use xlink:href="#mbaaf817c4d" x="66.351589" y="177.004521" style="fill-opacity: 0; stroke: #1f77b4"/>
     <use xlink:href="#mbaaf817c4d" x="67.708713" y="175.258397" style="fill-opacity: 0; stroke: #1f77b4"/>
     <use xlink:href="#mbaaf817c4d" x="69.06786" y="175.945878" style="fill-opacity: 0; stroke: #1f77b4"/>
     <use xlink:href="#mbaaf817c4d" x="70.42549" y="181.040418" style="fill-opacity: 0; stroke: #1f77b4"/>
     <use xlink:href="#mbaaf817c4d" x="71.784131" y="190.798236" style="fill-opacity: 0; stroke: #1f77b4"/>
     <use xlink:href="#mbaaf817c4d" x="73.141762" y="194.949654" style="fill-opacity: 0; stroke: #1f77b4"/>
     <use xlink:href="#mbaaf817c4d" x="74.500403" y="194.474758" style="fill-opacity: 0; stroke: #1f77b4"/>
     <use xlink:href="#mbaaf817c4d" x="75.85955" y="192.353628" style="fill-opacity: 0; stroke: #1f77b4"/>
     <use xlink:href="#mbaaf817c4d" x="77.216674" y="189.891781" style="fill-opacity: 0; stroke: #1f77b4"/>
     <use xlink:href="#mbaaf817c4d" x="78.575821" y="177.213693" style="fill-opacity: 0; stroke: #1f77b4"/>
     <use xlink:href="#mbaaf817c4d" x="79.934968" y="160.118143" style="fill-opacity: 0; stroke: #1f77b4"/>
     <use xlink:href="#mbaaf817c4d" x="81.293609" y="153.084355" style="fill-opacity: 0; stroke: #1f77b4"/>
     <use xlink:href="#mbaaf817c4d" x="82.652755" y="150.479349" style="fill-opacity: 0; stroke: #1f77b4"/>
     <use xlink:href="#mbaaf817c4d" x="84.011396" y="147.083169" style="fill-opacity: 0; stroke: #1f77b4"/>
     <use xlink:href="#mbaaf817c4d" x="85.370543" y="133.865293" style="fill-opacity: 0; stroke: #1f77b4"/>
     <use xlink:href="#mbaaf817c4d" x="86.72969" y="132.371512" style="fill-opacity: 0; stroke: #1f77b4"/>
     <use xlink:href="#mbaaf817c4d" x="88.089847" y="155.408818" style="fill-opacity: 0; stroke: #1f77b4"/>
     <use xlink:href="#mbaaf817c4d" x="89.448994" y="180.21653" style="fill-opacity: 0; stroke: #1f77b4"/>
     <use xlink:href="#mbaaf817c4d" x="90.80814" y="192.190825" style="fill-opacity: 0; stroke: #1f77b4"/>
     <use xlink:href="#mbaaf817c4d" x="92.168298" y="195.58755" style="fill-opacity: 0; stroke: #1f77b4"/>
     <use xlink:href="#mbaaf817c4d" x="93.527444" y="196.354949" style="fill-opacity: 0; stroke: #1f77b4"/>
     <use xlink:href="#mbaaf817c4d" x="94.887602" y="198.067068" style="fill-opacity: 0; stroke: #1f77b4"/>
     <use xlink:href="#mbaaf817c4d" x="96.246749" y="195.92686" style="fill-opacity: 0; stroke: #1f77b4"/>
     <use xlink:href="#mbaaf817c4d" x="97.607412" y="190.025332" style="fill-opacity: 0; stroke: #1f77b4"/>
     <use xlink:href="#mbaaf817c4d" x="98.966053" y="181.114243" style="fill-opacity: 0; stroke: #1f77b4"/>
     <use xlink:href="#mbaaf817c4d" x="100.326716" y="170.38455" style="fill-opacity: 0; stroke: #1f77b4"/>
     <use xlink:href="#mbaaf817c4d" x="101.687379" y="168.337857" style="fill-opacity: 0; stroke: #1f77b4"/>
     <use xlink:href="#mbaaf817c4d" x="103.047536" y="173.382908" style="fill-opacity: 0; stroke: #1f77b4"/>
     <use xlink:href="#mbaaf817c4d" x="104.408199" y="181.641859" style="fill-opacity: 0; stroke: #1f77b4"/>
     <use xlink:href="#mbaaf817c4d" x="105.768862" y="188.050329" style="fill-opacity: 0; stroke: #1f77b4"/>
     <use xlink:href="#mbaaf817c4d" x="107.129019" y="188.39622" style="fill-opacity: 0; stroke: #1f77b4"/>
     <use xlink:href="#mbaaf817c4d" x="108.489682" y="179.151454" style="fill-opacity: 0; stroke: #1f77b4"/>
     <use xlink:href="#mbaaf817c4d" x="109.84984" y="163.223004" style="fill-opacity: 0; stroke: #1f77b4"/>
     <use xlink:href="#mbaaf817c4d" x="111.210503" y="150.806619" style="fill-opacity: 0; stroke: #1f77b4"/>
     <use xlink:href="#mbaaf817c4d" x="112.571166" y="148.334127" style="fill-opacity: 0; stroke: #1f77b4"/>
     <use xlink:href="#mbaaf817c4d" x="113.93284" y="151.997296" style="fill-opacity: 0; stroke: #1f77b4"/>
     <use xlink:href="#mbaaf817c4d" x="115.293503" y="159.706275" style="fill-opacity: 0; stroke: #1f77b4"/>
     <use xlink:href="#mbaaf817c4d" x="116.654166" y="171.922468" style="fill-opacity: 0; stroke: #1f77b4"/>
     <use xlink:href="#mbaaf817c4d" x="118.015839" y="182.258761" style="fill-opacity: 0; stroke: #1f77b4"/>
     <use xlink:href="#mbaaf817c4d" x="119.376502" y="188.240098" style="fill-opacity: 0; stroke: #1f77b4"/>
     <use xlink:href="#mbaaf817c4d" x="120.738682" y="188.76199" style="fill-opacity: 0; stroke: #1f77b4"/>
     <use xlink:href="#mbaaf817c4d" x="122.100861" y="182.075477" style="fill-opacity: 0; stroke: #1f77b4"/>
     <use xlink:href="#mbaaf817c4d" x="123.461018" y="175.130086" style="fill-opacity: 0; stroke: #1f77b4"/>
     <use xlink:href="#mbaaf817c4d" x="124.823198" y="169.78534" style="fill-opacity: 0; stroke: #1f77b4"/>
     <use xlink:href="#mbaaf817c4d" x="126.185377" y="152.823072" style="fill-opacity: 0; stroke: #1f77b4"/>
     <use xlink:href="#mbaaf817c4d" x="127.547051" y="123.47167" style="fill-opacity: 0; stroke: #1f77b4"/>
     <use xlink:href="#mbaaf817c4d" x="128.90923" y="103.775609" style="fill-opacity: 0; stroke: #1f77b4"/>
     <use xlink:href="#mbaaf817c4d" x="130.271409" y="118.531473" style="fill-opacity: 0; stroke: #1f77b4"/>
     <use xlink:href="#mbaaf817c4d" x="131.633083" y="152.076343" style="fill-opacity: 0; stroke: #1f77b4"/>
     <use xlink:href="#mbaaf817c4d" x="132.995262" y="175.038552" style="fill-opacity: 0; stroke: #1f77b4"/>
     <use xlink:href="#mbaaf817c4d" x="134.357442" y="184.214217" style="fill-opacity: 0; stroke: #1f77b4"/>
     <use xlink:href="#mbaaf817c4d" x="135.719116" y="190.870474" style="fill-opacity: 0; stroke: #1f77b4"/>
     <use xlink:href="#mbaaf817c4d" x="137.082811" y="191.189828" style="fill-opacity: 0; stroke: #1f77b4"/>
     <use xlink:href="#mbaaf817c4d" x="138.444991" y="187.788619" style="fill-opacity: 0; stroke: #1f77b4"/>
     <use xlink:href="#mbaaf817c4d" x="139.80717" y="169.468735" style="fill-opacity: 0; stroke: #1f77b4"/>
     <use xlink:href="#mbaaf817c4d" x="141.17036" y="145.244647" style="fill-opacity: 0; stroke: #1f77b4"/>
     <use xlink:href="#mbaaf817c4d" x="142.532539" y="132.735696" style="fill-opacity: 0; stroke: #1f77b4"/>
     <use xlink:href="#mbaaf817c4d" x="143.896235" y="132.976852" style="fill-opacity: 0; stroke: #1f77b4"/>
     <use xlink:href="#mbaaf817c4d" x="145.259931" y="134.499798" style="fill-opacity: 0; stroke: #1f77b4"/>
     <use xlink:href="#mbaaf817c4d" x="146.621604" y="135.943071" style="fill-opacity: 0; stroke: #1f77b4"/>
     <use xlink:href="#mbaaf817c4d" x="147.9853" y="135.345672" style="fill-opacity: 0; stroke: #1f77b4"/>
     <use xlink:href="#mbaaf817c4d" x="149.348996" y="134.924175" style="fill-opacity: 0; stroke: #1f77b4"/>
     <use xlink:href="#mbaaf817c4d" x="150.712691" y="134.029205" style="fill-opacity: 0; stroke: #1f77b4"/>
     <use xlink:href="#mbaaf817c4d" x="152.075881" y="144.83157" style="fill-opacity: 0; stroke: #1f77b4"/>
     <use xlink:href="#mbaaf817c4d" x="153.438061" y="170.14187" style="fill-opacity: 0; stroke: #1f77b4"/>
     <use xlink:href="#mbaaf817c4d" x="154.801756" y="187.619352" style="fill-opacity: 0; stroke: #1f77b4"/>
     <use xlink:href="#mbaaf817c4d" x="156.166968" y="195.22977" style="fill-opacity: 0; stroke: #1f77b4"/>
     <use xlink:href="#mbaaf817c4d" x="157.530159" y="194.652174" style="fill-opacity: 0; stroke: #1f77b4"/>
     <use xlink:href="#mbaaf817c4d" x="158.893854" y="179.837639" style="fill-opacity: 0; stroke: #1f77b4"/>
     <use xlink:href="#mbaaf817c4d" x="160.25755" y="172.579272" style="fill-opacity: 0; stroke: #1f77b4"/>
     <use xlink:href="#mbaaf817c4d" x="161.621245" y="173.561731" style="fill-opacity: 0; stroke: #1f77b4"/>
     <use xlink:href="#mbaaf817c4d" x="162.985952" y="183.811819" style="fill-opacity: 0; stroke: #1f77b4"/>
     <use xlink:href="#mbaaf817c4d" x="164.349648" y="191.099608" style="fill-opacity: 0; stroke: #1f77b4"/>
     <use xlink:href="#mbaaf817c4d" x="165.714859" y="193.832488" style="fill-opacity: 0; stroke: #1f77b4"/>
     <use xlink:href="#mbaaf817c4d" x="167.078555" y="193.220948" style="fill-opacity: 0; stroke: #1f77b4"/>
     <use xlink:href="#mbaaf817c4d" x="168.443767" y="189.254794" style="fill-opacity: 0; stroke: #1f77b4"/>
     <use xlink:href="#mbaaf817c4d" x="169.808474" y="180.268522" style="fill-opacity: 0; stroke: #1f77b4"/>
     <use xlink:href="#mbaaf817c4d" x="171.172169" y="162.001725" style="fill-opacity: 0; stroke: #1f77b4"/>
     <use xlink:href="#mbaaf817c4d" x="172.537381" y="140.898414" style="fill-opacity: 0; stroke: #1f77b4"/>
     <use xlink:href="#mbaaf817c4d" x="173.902593" y="135.653207" style="fill-opacity: 0; stroke: #1f77b4"/>
     <use xlink:href="#mbaaf817c4d" x="175.267805" y="147.931858" style="fill-opacity: 0; stroke: #1f77b4"/>
     <use xlink:href="#mbaaf817c4d" x="176.632512" y="159.883831" style="fill-opacity: 0; stroke: #1f77b4"/>
     <use xlink:href="#mbaaf817c4d" x="177.997724" y="158.327409" style="fill-opacity: 0; stroke: #1f77b4"/>
     <use xlink:href="#mbaaf817c4d" x="179.362936" y="148.228624" style="fill-opacity: 0; stroke: #1f77b4"/>
     <use xlink:href="#mbaaf817c4d" x="180.728148" y="143.670454" style="fill-opacity: 0; stroke: #1f77b4"/>
     <use xlink:href="#mbaaf817c4d" x="182.09336" y="150.836436" style="fill-opacity: 0; stroke: #1f77b4"/>
     <use xlink:href="#mbaaf817c4d" x="183.458066" y="167.252453" style="fill-opacity: 0; stroke: #1f77b4"/>
     <use xlink:href="#mbaaf817c4d" x="184.823278" y="183.730498" style="fill-opacity: 0; stroke: #1f77b4"/>
     <use xlink:href="#mbaaf817c4d" x="186.190006" y="191.239295" style="fill-opacity: 0; stroke: #1f77b4"/>
     <use xlink:href="#mbaaf817c4d" x="187.555218" y="189.46122" style="fill-opacity: 0; stroke: #1f77b4"/>
     <use xlink:href="#mbaaf817c4d" x="188.921947" y="200.868963" style="fill-opacity: 0; stroke: #1f77b4"/>
     <use xlink:href="#mbaaf817c4d" x="190.286653" y="213.830237" style="fill-opacity: 0; stroke: #1f77b4"/>
     <use xlink:href="#mbaaf817c4d" x="191.653381" y="216.404326" style="fill-opacity: 0; stroke: #1f77b4"/>
     <use xlink:href="#mbaaf817c4d" x="193.018593" y="216.404326" style="fill-opacity: 0; stroke: #1f77b4"/>
     <use xlink:href="#mbaaf817c4d" x="194.385322" y="207.93237" style="fill-opacity: 0; stroke: #1f77b4"/>
     <use xlink:href="#mbaaf817c4d" x="195.75205" y="190.386873" style="fill-opacity: 0; stroke: #1f77b4"/>
     <use xlink:href="#mbaaf817c4d" x="197.118778" y="189.516713" style="fill-opacity: 0; stroke: #1f77b4"/>
     <use xlink:href="#mbaaf817c4d" x="198.48399" y="193.412514" style="fill-opacity: 0; stroke: #1f77b4"/>
     <use xlink:href="#mbaaf817c4d" x="199.850213" y="197.478229" style="fill-opacity: 0; stroke: #1f77b4"/>
     <use xlink:href="#mbaaf817c4d" x="201.216941" y="200.071062" style="fill-opacity: 0; stroke: #1f77b4"/>
     <use xlink:href="#mbaaf817c4d" x="202.58367" y="201.678444" style="fill-opacity: 0; stroke: #1f77b4"/>
     <use xlink:href="#mbaaf817c4d" x="203.950398" y="202.768572" style="fill-opacity: 0; stroke: #1f77b4"/>
     <use xlink:href="#mbaaf817c4d" x="205.318643" y="202.02136" style="fill-opacity: 0; stroke: #1f77b4"/>
     <use xlink:href="#mbaaf817c4d" x="206.685371" y="205.880883" style="fill-opacity: 0; stroke: #1f77b4"/>
     <use xlink:href="#mbaaf817c4d" x="208.052099" y="213.755508" style="fill-opacity: 0; stroke: #1f77b4"/>
     <use xlink:href="#mbaaf817c4d" x="209.418322" y="215.430787" style="fill-opacity: 0; stroke: #1f77b4"/>
     <use xlink:href="#mbaaf817c4d" x="210.786567" y="209.74717" style="fill-opacity: 0; stroke: #1f77b4"/>
     <use xlink:href="#mbaaf817c4d" x="212.153295" y="203.849582" style="fill-opacity: 0; stroke: #1f77b4"/>
     <use xlink:href="#mbaaf817c4d" x="213.52154" y="203.869644" style="fill-opacity: 0; stroke: #1f77b4"/>
     <use xlink:href="#mbaaf817c4d" x="214.888268" y="203.129161" style="fill-opacity: 0; stroke: #1f77b4"/>
     <use xlink:href="#mbaaf817c4d" x="216.256513" y="201.178767" style="fill-opacity: 0; stroke: #1f77b4"/>
     <use xlink:href="#mbaaf817c4d" x="217.623241" y="199.546177" style="fill-opacity: 0; stroke: #1f77b4"/>
     <use xlink:href="#mbaaf817c4d" x="218.991486" y="198.71058" style="fill-opacity: 0; stroke: #1f77b4"/>
     <use xlink:href="#mbaaf817c4d" x="220.35973" y="196.096108" style="fill-opacity: 0; stroke: #1f77b4"/>
     <use xlink:href="#mbaaf817c4d" x="221.72747" y="189.970303" style="fill-opacity: 0; stroke: #1f77b4"/>
     <use xlink:href="#mbaaf817c4d" x="223.095714" y="178.192125" style="fill-opacity: 0; stroke: #1f77b4"/>
     <use xlink:href="#mbaaf817c4d" x="224.463959" y="167.831395" style="fill-opacity: 0; stroke: #1f77b4"/>
     <use xlink:href="#mbaaf817c4d" x="225.832204" y="166.525803" style="fill-opacity: 0; stroke: #1f77b4"/>
     <use xlink:href="#mbaaf817c4d" x="227.200448" y="168.507557" style="fill-opacity: 0; stroke: #1f77b4"/>
     <use xlink:href="#mbaaf817c4d" x="228.568693" y="164.033935" style="fill-opacity: 0; stroke: #1f77b4"/>
     <use xlink:href="#mbaaf817c4d" x="229.936937" y="158.240192" style="fill-opacity: 0; stroke: #1f77b4"/>
     <use xlink:href="#mbaaf817c4d" x="231.305182" y="160.597749" style="fill-opacity: 0; stroke: #1f77b4"/>
     <use xlink:href="#mbaaf817c4d" x="232.673427" y="163.102019" style="fill-opacity: 0; stroke: #1f77b4"/>
     <use xlink:href="#mbaaf817c4d" x="234.043188" y="166.193201" style="fill-opacity: 0; stroke: #1f77b4"/>
     <use xlink:href="#mbaaf817c4d" x="235.411432" y="168.597629" style="fill-opacity: 0; stroke: #1f77b4"/>
     <use xlink:href="#mbaaf817c4d" x="236.781193" y="172.244277" style="fill-opacity: 0; stroke: #1f77b4"/>
     <use xlink:href="#mbaaf817c4d" x="238.148933" y="166.270964" style="fill-opacity: 0; stroke: #1f77b4"/>
     <use xlink:href="#mbaaf817c4d" x="239.518694" y="162.262551" style="fill-opacity: 0; stroke: #1f77b4"/>
     <use xlink:href="#mbaaf817c4d" x="240.886938" y="159.940517" style="fill-opacity: 0; stroke: #1f77b4"/>
     <use xlink:href="#mbaaf817c4d" x="242.256699" y="165.559515" style="fill-opacity: 0; stroke: #1f77b4"/>
     <use xlink:href="#mbaaf817c4d" x="243.62646" y="171.142235" style="fill-opacity: 0; stroke: #1f77b4"/>
     <use xlink:href="#mbaaf817c4d" x="244.996221" y="168.841952" style="fill-opacity: 0; stroke: #1f77b4"/>
     <use xlink:href="#mbaaf817c4d" x="246.364466" y="166.079764" style="fill-opacity: 0; stroke: #1f77b4"/>
     <use xlink:href="#mbaaf817c4d" x="247.734227" y="158.432352" style="fill-opacity: 0; stroke: #1f77b4"/>
     <use xlink:href="#mbaaf817c4d" x="249.103988" y="183.157357" style="fill-opacity: 0; stroke: #1f77b4"/>
     <use xlink:href="#mbaaf817c4d" x="250.473749" y="186.269791" style="fill-opacity: 0; stroke: #1f77b4"/>
     <use xlink:href="#mbaaf817c4d" x="251.84351" y="188.221349" style="fill-opacity: 0; stroke: #1f77b4"/>
     <use xlink:href="#mbaaf817c4d" x="253.214787" y="185.255521" style="fill-opacity: 0; stroke: #1f77b4"/>
     <use xlink:href="#mbaaf817c4d" x="254.584548" y="177.984055" style="fill-opacity: 0; stroke: #1f77b4"/>
     <use xlink:href="#mbaaf817c4d" x="255.954309" y="173.190077" style="fill-opacity: 0; stroke: #1f77b4"/>
     <use xlink:href="#mbaaf817c4d" x="257.32407" y="173.148417" style="fill-opacity: 0; stroke: #1f77b4"/>
     <use xlink:href="#mbaaf817c4d" x="258.695347" y="174.853003" style="fill-opacity: 0; stroke: #1f77b4"/>
     <use xlink:href="#mbaaf817c4d" x="260.065108" y="175.527362" style="fill-opacity: 0; stroke: #1f77b4"/>
     <use xlink:href="#mbaaf817c4d" x="261.436386" y="207.626998" style="fill-opacity: 0; stroke: #1f77b4"/>
     <use xlink:href="#mbaaf817c4d" x="262.806147" y="205.860384" style="fill-opacity: 0; stroke: #1f77b4"/>
     <use xlink:href="#mbaaf817c4d" x="264.177424" y="204.596629" style="fill-opacity: 0; stroke: #1f77b4"/>
     <use xlink:href="#mbaaf817c4d" x="265.547185" y="202.542494" style="fill-opacity: 0; stroke: #1f77b4"/>
     <use xlink:href="#mbaaf817c4d" x="266.918462" y="202.346975" style="fill-opacity: 0; stroke: #1f77b4"/>
     <use xlink:href="#mbaaf817c4d" x="268.28974" y="204.899471" style="fill-opacity: 0; stroke: #1f77b4"/>
     <use xlink:href="#mbaaf817c4d" x="269.661017" y="204.688257" style="fill-opacity: 0; stroke: #1f77b4"/>
     <use xlink:href="#mbaaf817c4d" x="271.032294" y="201.979113" style="fill-opacity: 0; stroke: #1f77b4"/>
     <use xlink:href="#mbaaf817c4d" x="272.403572" y="201.248679" style="fill-opacity: 0; stroke: #1f77b4"/>
     <use xlink:href="#mbaaf817c4d" x="273.774849" y="202.190054" style="fill-opacity: 0; stroke: #1f77b4"/>
     <use xlink:href="#mbaaf817c4d" x="275.146126" y="203.048351" style="fill-opacity: 0; stroke: #1f77b4"/>
     <use xlink:href="#mbaaf817c4d" x="276.517404" y="203.827956" style="fill-opacity: 0; stroke: #1f77b4"/>
     <use xlink:href="#mbaaf817c4d" x="277.888681" y="203.512948" style="fill-opacity: 0; stroke: #1f77b4"/>
     <use xlink:href="#mbaaf817c4d" x="279.259958" y="200.435837" style="fill-opacity: 0; stroke: #1f77b4"/>
     <use xlink:href="#mbaaf817c4d" x="280.632752" y="196.545365" style="fill-opacity: 0; stroke: #1f77b4"/>
     <use xlink:href="#mbaaf817c4d" x="282.004029" y="190.59436" style="fill-opacity: 0; stroke: #1f77b4"/>
     <use xlink:href="#mbaaf817c4d" x="283.375307" y="185.707468" style="fill-opacity: 0; stroke: #1f77b4"/>
     <use xlink:href="#mbaaf817c4d" x="284.7481" y="181.859464" style="fill-opacity: 0; stroke: #1f77b4"/>
     <use xlink:href="#mbaaf817c4d" x="286.119378" y="174.124536" style="fill-opacity: 0; stroke: #1f77b4"/>
     <use xlink:href="#mbaaf817c4d" x="287.492171" y="159.047947" style="fill-opacity: 0; stroke: #1f77b4"/>
     <use xlink:href="#mbaaf817c4d" x="288.864965" y="142.996878" style="fill-opacity: 0; stroke: #1f77b4"/>
     <use xlink:href="#mbaaf817c4d" x="290.236242" y="98.777517" style="fill-opacity: 0; stroke: #1f77b4"/>
     <use xlink:href="#mbaaf817c4d" x="290.99073" y="-1" style="fill-opacity: 0; stroke: #1f77b4"/>
     <use xlink:href="#mbaaf817c4d" x="301.057539" y="-1" style="fill-opacity: 0; stroke: #1f77b4"/>
     <use xlink:href="#mbaaf817c4d" x="301.219097" y="33.965748" style="fill-opacity: 0; stroke: #1f77b4"/>
     <use xlink:href="#mbaaf817c4d" x="302.591891" y="108.846837" style="fill-opacity: 0; stroke: #1f77b4"/>
     <use xlink:href="#mbaaf817c4d" x="303.964684" y="138.166639" style="fill-opacity: 0; stroke: #1f77b4"/>
     <use xlink:href="#mbaaf817c4d" x="305.338995" y="159.445094" style="fill-opacity: 0; stroke: #1f77b4"/>
     <use xlink:href="#mbaaf817c4d" x="306.711788" y="174.88623" style="fill-opacity: 0; stroke: #1f77b4"/>
     <use xlink:href="#mbaaf817c4d" x="308.086098" y="183.304485" style="fill-opacity: 0; stroke: #1f77b4"/>
     <use xlink:href="#mbaaf817c4d" x="309.458892" y="188.571242" style="fill-opacity: 0; stroke: #1f77b4"/>
     <use xlink:href="#mbaaf817c4d" x="310.833202" y="192.107821" style="fill-opacity: 0; stroke: #1f77b4"/>
     <use xlink:href="#mbaaf817c4d" x="312.205996" y="194.211598" style="fill-opacity: 0; stroke: #1f77b4"/>
     <use xlink:href="#mbaaf817c4d" x="313.580811" y="194.734464" style="fill-opacity: 0; stroke: #1f77b4"/>
     <use xlink:href="#mbaaf817c4d" x="314.955121" y="193.008742" style="fill-opacity: 0; stroke: #1f77b4"/>
     <use xlink:href="#mbaaf817c4d" x="316.327915" y="193.825305" style="fill-opacity: 0; stroke: #1f77b4"/>
     <use xlink:href="#mbaaf817c4d" x="317.702225" y="197.305943" style="fill-opacity: 0; stroke: #1f77b4"/>
     <use xlink:href="#mbaaf817c4d" x="319.076535" y="199.647686" style="fill-opacity: 0; stroke: #1f77b4"/>
     <use xlink:href="#mbaaf817c4d" x="320.450845" y="200.307856" style="fill-opacity: 0; stroke: #1f77b4"/>
    </g>
   </g>
   <g id="line2d_2">
    <path d="M 43.27895 214.745376 
L 50.062553 214.259531 
L 55.490547 213.634322 
L 59.562932 212.896648 
L 62.277687 212.174006 
L 64.993958 211.132305 
L 66.351589 210.426455 
L 67.708713 209.539152 
L 69.06786 208.398465 
L 70.42549 206.901517 
L 71.784131 204.881591 
L 73.141762 202.081821 
L 74.500403 198.082384 
L 75.85955 192.238557 
L 77.216674 183.714657 
L 78.575821 172.017486 
L 79.934968 159.19838 
L 81.293609 151.268274 
L 82.652755 149.946744 
L 84.011396 145.183459 
L 85.370543 130.407047 
L 86.72969 136.832464 
L 88.089847 164.842037 
L 89.448994 182.603427 
L 90.80814 191.382259 
L 92.168298 195.622989 
L 93.527444 197.293448 
L 94.887602 197.029625 
L 96.246749 194.651629 
L 97.607412 189.153572 
L 98.966053 179.086768 
L 100.326716 167.685881 
L 101.687379 168.667638 
L 103.047536 178.412798 
L 104.408199 184.395476 
L 105.768862 185.21957 
L 107.129019 181.846934 
L 108.489682 174.465784 
L 111.210503 151.239104 
L 112.571166 146.033887 
L 113.93284 152.543796 
L 115.293503 164.775411 
L 116.654166 175.576006 
L 118.015839 182.79024 
L 119.376502 186.675592 
L 120.738682 187.710558 
L 122.100861 185.840358 
L 123.461018 180.135249 
L 124.823198 168.135053 
L 126.185377 145.552766 
L 127.547051 113.59434 
L 128.90923 103.779661 
L 131.633083 159.37526 
L 132.995262 175.010162 
L 134.357442 182.489992 
L 135.719116 184.971654 
L 137.082811 183.61104 
L 138.444991 178.080605 
L 139.80717 166.754532 
L 142.532539 129.296192 
L 143.896235 128.700327 
L 145.259931 139.425175 
L 146.621604 142.114147 
L 147.9853 134.27859 
L 149.348996 128.119139 
L 150.712691 138.855722 
L 152.075881 158.327329 
L 153.438061 173.767551 
L 154.801756 183.202607 
L 156.166968 187.944884 
L 157.530159 188.412114 
L 158.893854 182.584512 
L 160.25755 169.876092 
L 161.621245 175.857601 
L 162.985952 188.61544 
L 164.349648 193.5555 
L 165.714859 194.201636 
L 167.078555 192.02549 
L 168.443767 186.615841 
L 169.808474 176.001147 
L 171.172169 157.291457 
L 172.537381 136.422795 
L 173.902593 138.123487 
L 175.267805 153.071274 
L 176.632512 159.10642 
L 177.997724 154.955901 
L 179.362936 146.522285 
L 180.728148 145.054171 
L 182.09336 155.891162 
L 183.458066 170.559767 
L 184.823278 182.216239 
L 186.190006 190.089961 
L 187.555218 195.226388 
L 188.921947 198.615768 
L 190.286653 200.885437 
L 191.653381 202.428191 
L 193.018593 203.473343 
L 194.385322 204.16783 
L 195.75205 204.601686 
L 197.118778 204.833719 
L 198.48399 204.902111 
L 199.850213 204.831679 
L 201.216941 204.637593 
L 203.950398 203.908547 
L 206.685371 202.730285 
L 208.052099 201.96276 
L 209.418322 201.065099 
L 210.786567 200.023539 
L 212.153295 198.826285 
L 213.52154 197.453868 
L 214.888268 195.890479 
L 216.256513 194.112328 
L 217.623241 192.102752 
L 218.991486 189.838265 
L 220.35973 187.306611 
L 221.72747 184.503885 
L 224.463959 178.148663 
L 228.568693 167.85758 
L 229.936937 164.832021 
L 231.305182 162.376996 
L 232.673427 160.716971 
L 234.043188 160.018009 
L 235.411432 160.347324 
L 236.781193 161.649663 
L 238.148933 163.752586 
L 239.518694 166.410574 
L 242.256699 172.066784 
L 243.62646 173.986495 
L 244.996221 172.764555 
L 246.364466 158.320445 
L 247.734227 166.644577 
L 249.103988 181.271451 
L 250.473749 185.480511 
L 251.84351 186.474929 
L 253.214787 184.945228 
L 254.584548 179.978848 
L 255.954309 171.961624 
L 257.32407 170.041659 
L 260.065108 189.426239 
L 261.436386 195.70654 
L 262.806147 199.56515 
L 264.177424 202.105404 
L 265.547185 203.90368 
L 266.918462 205.261195 
L 268.28974 206.334361 
L 269.661017 207.213277 
L 272.403572 208.586216 
L 275.146126 209.624708 
L 277.888681 210.445425 
L 282.004029 211.402464 
L 286.119378 212.133983 
L 291.609036 212.875155 
L 298.47351 213.551914 
L 306.711788 214.130021 
L 317.702225 214.658444 
L 320.450845 214.761129 
L 320.450845 214.761129 
" clip-path="url(#p401700d389)" style="fill: none; stroke: #ff0000; stroke-width: 1.5; stroke-linecap: square"/>
   </g>
   <g id="line2d_3">
    <path d="M 295.727417 216.404326 
L 295.727417 17.735865 
" clip-path="url(#p401700d389)" style="fill: none; stroke-dasharray: 3.7,1.6; stroke-dashoffset: 0; stroke: #808080"/>
   </g>
   <g id="patch_3">
    <path d="M 43.003987 216.404326 
L 43.003987 17.735865 
" style="fill: none; stroke: #000000; stroke-linejoin: miter; stroke-linecap: square"/>
   </g>
   <g id="patch_4">
    <path d="M 320.99976 216.404326 
L 320.99976 17.735865 
" style="fill: none; stroke: #000000; stroke-linejoin: miter; stroke-linecap: square"/>
   </g>
   <g id="patch_5">
    <path d="M 43.003987 216.404326 
L 320.99976 216.404326 
" style="fill: none; stroke: #000000; stroke-linejoin: miter; stroke-linecap: square"/>
   </g>
   <g id="patch_6">
    <path d="M 43.003987 17.735865 
L 320.99976 17.735865 
" style="fill: none; stroke: #000000; stroke-linejoin: miter; stroke-linecap: square"/>
   </g>
   <g id="matplotlib.axis_1">
    <g id="xtick_1">
     <g id="line2d_4">
      <defs>
       <path id="m1561174aa6" d="M 0 0 
L 0 3.75 
" style="stroke: #000000; stroke-width: 1.25"/>
      </defs>
      <g>
       <use xlink:href="#m1561174aa6" x="43.003987" y="216.404326" style="stroke: #000000; stroke-width: 1.25"/>
      </g>
     </g>
     <g id="text_1">
      <!-- $\mathdefault{429}$ -->
      <g transform="translate(33.818987 231.52792)">
       <text>
        <tspan style="font: 11px 'Arial'" x="0 6.117676 12.235352" y="-0.09375">429</tspan>
       </text>
      </g>
     </g>
    </g>
    <g id="xtick_2">
     <g id="line2d_5">
      <g>
       <use xlink:href="#m1561174aa6" x="93.548673" y="216.404326" style="stroke: #000000; stroke-width: 1.25"/>
      </g>
     </g>
     <g id="text_2">
      <!-- $\mathdefault{430}$ -->
      <g transform="translate(84.363673 231.52792)">
       <text>
        <tspan style="font: 11px 'Arial'" x="0 6.117676 12.235352" y="-0.09375">430</tspan>
       </text>
      </g>
     </g>
    </g>
    <g id="xtick_3">
     <g id="line2d_6">
      <g>
       <use xlink:href="#m1561174aa6" x="144.093359" y="216.404326" style="stroke: #000000; stroke-width: 1.25"/>
      </g>
     </g>
     <g id="text_3">
      <!-- $\mathdefault{431}$ -->
      <g transform="translate(134.908359 231.52792)">
       <text>
        <tspan style="font: 11px 'Arial'" x="0 6.117676 12.235352" y="-0.09375">431</tspan>
       </text>
      </g>
     </g>
    </g>
    <g id="xtick_4">
     <g id="line2d_7">
      <g>
       <use xlink:href="#m1561174aa6" x="194.638045" y="216.404326" style="stroke: #000000; stroke-width: 1.25"/>
      </g>
     </g>
     <g id="text_4">
      <!-- $\mathdefault{432}$ -->
      <g transform="translate(185.453045 231.52792)">
       <text>
        <tspan style="font: 11px 'Arial'" x="0 6.117676 12.235352" y="-0.09375">432</tspan>
       </text>
      </g>
     </g>
    </g>
    <g id="xtick_5">
     <g id="line2d_8">
      <g>
       <use xlink:href="#m1561174aa6" x="245.182731" y="216.404326" style="stroke: #000000; stroke-width: 1.25"/>
      </g>
     </g>
     <g id="text_5">
      <!-- $\mathdefault{433}$ -->
      <g transform="translate(235.997731 231.52792)">
       <text>
        <tspan style="font: 11px 'Arial'" x="0 6.117676 12.235352" y="-0.09375">433</tspan>
       </text>
      </g>
     </g>
    </g>
    <g id="xtick_6">
     <g id="line2d_9">
      <g>
       <use xlink:href="#m1561174aa6" x="295.727417" y="216.404326" style="stroke: #000000; stroke-width: 1.25"/>
      </g>
     </g>
     <g id="text_6">
      <!-- $\mathdefault{434}$ -->
      <g transform="translate(286.542417 231.52792)">
       <text>
        <tspan style="font: 11px 'Arial'" x="0 6.117676 12.235352" y="-0.09375">434</tspan>
       </text>
      </g>
     </g>
    </g>
    <g id="text_7">
     <!-- $\lambda$ {\sffamily (nm)} -->
     <g transform="translate(164.206736 246.411565) scale(0.12 -0.12)">
      <defs>
       <path id="StandardSymL-6c" d="M 480 3650 
C 525 4013 710 4224 998 4224 
C 1203 4224 1376 4064 1472 3778 
C 1517 3650 1574 3440 1632 3198 
L 154 19 
L 755 19 
L 1843 2301 
C 2048 1059 2150 607 2266 358 
C 2406 83 2611 -64 2848 -64 
C 3098 -64 3296 89 3405 371 
C 3475 543 3501 715 3507 1014 
L 3373 1014 
C 3322 683 3174 499 2944 499 
C 2752 499 2586 620 2483 843 
C 2400 1008 2355 1174 2266 1645 
L 2093 2466 
C 2086 2485 2080 2530 2067 2594 
C 1920 3415 1690 4192 1536 4422 
C 1395 4627 1203 4736 992 4736 
C 602 4736 397 4403 326 3650 
L 480 3650 
z
" transform="scale(0.015625)"/>
       <path id="NimbusSanL-Regu-28" d="M 1510 4672 
C 870 3833 467 2668 467 1663 
C 467 652 870 -513 1510 -1351 
L 1862 -1351 
C 1299 -436 986 639 986 1663 
C 986 2681 1299 3763 1862 4672 
L 1510 4672 
z
" transform="scale(0.015625)"/>
       <path id="NimbusSanL-Regu-6e" d="M 448 3328 
L 448 0 
L 986 0 
L 986 1835 
C 986 2539 1344 2988 1894 2988 
C 2317 2988 2586 2732 2586 2328 
L 2586 0 
L 3117 0 
L 3117 2539 
C 3117 3097 2701 3456 2054 3456 
C 1555 3456 1235 3263 941 2796 
L 941 3328 
L 448 3328 
z
" transform="scale(0.015625)"/>
       <path id="NimbusSanL-Regu-6d" d="M 448 3328 
L 448 0 
L 986 0 
L 986 2089 
C 986 2597 1338 2988 1773 2988 
C 2170 2988 2394 2744 2394 2315 
L 2394 0 
L 2931 0 
L 2931 2109 
C 2931 2597 3283 2988 3718 2988 
C 4109 2988 4339 2738 4339 2315 
L 4339 0 
L 4877 0 
L 4877 2520 
C 4877 3123 4531 3456 3904 3456 
C 3456 3456 3187 3321 2874 2943 
C 2675 3302 2406 3456 1971 3456 
C 1523 3456 1229 3289 941 2886 
L 941 3328 
L 448 3328 
z
" transform="scale(0.015625)"/>
       <path id="NimbusSanL-Regu-29" d="M 595 -1351 
C 1235 -513 1638 652 1638 1657 
C 1638 2668 1235 3833 595 4672 
L 243 4672 
C 806 3756 1120 2681 1120 1657 
C 1120 639 806 -442 243 -1351 
L 595 -1351 
z
" transform="scale(0.015625)"/>
      </defs>
      <use xlink:href="#StandardSymL-6c" transform="scale(0.996264)"/>
      <use xlink:href="#NimbusSanL-Regu-28" transform="translate(91.855235 0) scale(0.996264)"/>
      <use xlink:href="#NimbusSanL-Regu-6e" transform="translate(125.030464 0) scale(0.996264)"/>
      <use xlink:href="#NimbusSanL-Regu-6d" transform="translate(180.422141 0) scale(0.996264)"/>
      <use xlink:href="#NimbusSanL-Regu-29" transform="translate(263.410572 0) scale(0.996264)"/>
     </g>
    </g>
   </g>
   <g id="matplotlib.axis_2">
    <g id="ytick_1">
     <g id="line2d_10">
      <defs>
       <path id="m15054514ad" d="M 0 0 
L -3.75 0 
" style="stroke: #000000; stroke-width: 1.25"/>
      </defs>
      <g>
       <use xlink:href="#m15054514ad" x="43.003987" y="216.404326" style="stroke: #000000; stroke-width: 1.25"/>
      </g>
     </g>
     <g id="text_8">
      <!-- $\mathdefault{0.0}$ -->
      <g transform="translate(20.353987 220.341123)">
       <text>
        <tspan style="font: 11px 'Arial'" x="0 6.117676 9.173828" y="-0.09375">0.0</tspan>
       </text>
      </g>
     </g>
    </g>
    <g id="ytick_2">
     <g id="line2d_11">
      <g>
       <use xlink:href="#m15054514ad" x="43.003987" y="187.707229" style="stroke: #000000; stroke-width: 1.25"/>
      </g>
     </g>
     <g id="text_9">
      <!-- $\mathdefault{0.5}$ -->
      <g transform="translate(20.353987 191.644026)">
       <text>
        <tspan style="font: 11px 'Arial'" x="0 6.117676 9.173828" y="-0.09375">0.5</tspan>
       </text>
      </g>
     </g>
    </g>
    <g id="ytick_3">
     <g id="line2d_12">
      <g>
       <use xlink:href="#m15054514ad" x="43.003987" y="159.010132" style="stroke: #000000; stroke-width: 1.25"/>
      </g>
     </g>
     <g id="text_10">
      <!-- $\mathdefault{1.0}$ -->
      <g transform="translate(20.353987 162.946929)">
       <text>
        <tspan style="font: 11px 'Arial'" x="0 6.117676 9.173828" y="-0.09375">1.0</tspan>
       </text>
      </g>
     </g>
    </g>
    <g id="ytick_4">
     <g id="line2d_13">
      <g>
       <use xlink:href="#m15054514ad" x="43.003987" y="130.313035" style="stroke: #000000; stroke-width: 1.25"/>
      </g>
     </g>
     <g id="text_11">
      <!-- $\mathdefault{1.5}$ -->
      <g transform="translate(20.353987 134.249832)">
       <text>
        <tspan style="font: 11px 'Arial'" x="0 6.117676 9.173828" y="-0.09375">1.5</tspan>
       </text>
      </g>
     </g>
    </g>
    <g id="ytick_5">
     <g id="line2d_14">
      <g>
       <use xlink:href="#m15054514ad" x="43.003987" y="101.615938" style="stroke: #000000; stroke-width: 1.25"/>
      </g>
     </g>
     <g id="text_12">
      <!-- $\mathdefault{2.0}$ -->
      <g transform="translate(20.353987 105.552735)">
       <text>
        <tspan style="font: 11px 'Arial'" x="0 6.117676 9.173828" y="-0.09375">2.0</tspan>
       </text>
      </g>
     </g>
    </g>
    <g id="ytick_6">
     <g id="line2d_15">
      <g>
       <use xlink:href="#m15054514ad" x="43.003987" y="72.918841" style="stroke: #000000; stroke-width: 1.25"/>
      </g>
     </g>
     <g id="text_13">
      <!-- $\mathdefault{2.5}$ -->
      <g transform="translate(20.353987 76.855638)">
       <text>
        <tspan style="font: 11px 'Arial'" x="0 6.117676 9.173828" y="-0.09375">2.5</tspan>
       </text>
      </g>
     </g>
    </g>
    <g id="ytick_7">
     <g id="line2d_16">
      <g>
       <use xlink:href="#m15054514ad" x="43.003987" y="44.221744" style="stroke: #000000; stroke-width: 1.25"/>
      </g>
     </g>
     <g id="text_14">
      <!-- $\mathdefault{3.0}$ -->
      <g transform="translate(20.353987 48.158541)">
       <text>
        <tspan style="font: 11px 'Arial'" x="0 6.117676 9.173828" y="-0.09375">3.0</tspan>
       </text>
      </g>
     </g>
    </g>
    <g id="text_15">
     <!-- $B_{\lambda}$ {\sffamily (photons/cm\textsuperscript{2}/s/nm)} -->
     <g transform="translate(13.728305 177.714049) rotate(-90) scale(0.12 -0.12)">
      <defs>
       <path id="NimbusRomNo9L-ReguItal-42" d="M -51 0 
L 1754 0 
C 2758 0 3450 523 3450 1274 
C 3450 1510 3373 1732 3232 1872 
C 3104 2019 2976 2095 2643 2235 
C 3098 2344 3283 2420 3488 2598 
C 3667 2751 3763 2968 3763 3222 
C 3763 3827 3309 4160 2483 4160 
L 832 4160 
L 832 4057 
C 1229 4025 1325 3974 1325 3795 
C 1325 3700 1299 3541 1254 3388 
L 467 574 
C 352 204 307 166 -51 102 
L -51 0 
z
M 1523 2108 
C 1939 2108 2208 2083 2336 2032 
C 2598 1923 2758 1643 2758 1299 
C 2758 612 2285 192 1504 192 
C 1235 192 1094 287 1094 459 
C 1094 535 1171 841 1318 1350 
C 1402 1637 1440 1783 1523 2108 
z
M 2003 3789 
C 2042 3929 2118 3967 2368 3967 
C 2880 3967 3117 3751 3117 3280 
C 3117 2917 2963 2637 2688 2484 
C 2470 2356 2163 2312 1587 2312 
L 2003 3789 
z
" transform="scale(0.015625)"/>
       <path id="NimbusSanL-Regu-70" d="M 346 -1408 
L 883 -1408 
L 883 371 
C 1165 25 1478 -128 1914 -128 
C 2778 -128 3347 568 3347 1632 
C 3347 2752 2797 3456 1907 3456 
C 1453 3456 1088 3251 838 2854 
L 838 3359 
L 346 3359 
L 346 -1408 
z
M 1818 2956 
C 2406 2956 2790 2440 2790 1644 
C 2790 887 2400 371 1818 371 
C 1254 371 883 880 883 1663 
C 883 2447 1254 2956 1818 2956 
z
" transform="scale(0.015625)"/>
       <path id="NimbusSanL-Regu-68" d="M 448 4672 
L 448 0 
L 979 0 
L 979 1853 
C 979 2539 1338 2988 1888 2988 
C 2061 2988 2234 2930 2362 2834 
C 2515 2725 2579 2565 2579 2328 
L 2579 0 
L 3110 0 
L 3110 2539 
C 3110 3103 2707 3456 2054 3456 
C 1581 3456 1293 3308 979 2898 
L 979 4672 
L 448 4672 
z
" transform="scale(0.015625)"/>
       <path id="NimbusSanL-Regu-6f" d="M 1741 3456 
C 800 3456 230 2784 230 1663 
C 230 543 794 -128 1747 -128 
C 2688 -128 3264 543 3264 1638 
C 3264 2791 2707 3456 1741 3456 
z
M 1747 2963 
C 2349 2963 2707 2472 2707 1644 
C 2707 861 2336 364 1747 364 
C 1152 364 787 855 787 1663 
C 787 2466 1152 2963 1747 2963 
z
" transform="scale(0.015625)"/>
       <path id="NimbusSanL-Regu-74" d="M 1626 3328 
L 1075 3328 
L 1075 4249 
L 544 4249 
L 544 3328 
L 90 3328 
L 90 2892 
L 544 2892 
L 544 402 
C 544 64 774 -128 1190 -128 
C 1318 -128 1446 -116 1626 -84 
L 1626 364 
C 1555 345 1472 339 1370 339 
C 1139 339 1075 402 1075 634 
L 1075 2892 
L 1626 2892 
L 1626 3328 
z
" transform="scale(0.015625)"/>
       <path id="NimbusSanL-Regu-73" d="M 2803 2428 
C 2797 3084 2362 3456 1587 3456 
C 806 3456 301 3052 301 2434 
C 301 1912 570 1663 1363 1472 
L 1862 1351 
C 2234 1262 2381 1129 2381 887 
C 2381 574 2067 364 1600 364 
C 1312 364 1069 447 934 587 
C 851 683 813 778 781 1014 
L 218 1014 
C 243 243 678 -128 1555 -128 
C 2400 -128 2938 288 2938 931 
C 2938 1428 2656 1702 1990 1861 
L 1478 1982 
C 1043 2084 858 2224 858 2459 
C 858 2765 1133 2963 1568 2963 
C 1997 2963 2227 2778 2240 2428 
L 2803 2428 
z
" transform="scale(0.015625)"/>
       <path id="NimbusSanL-Regu-2f" d="M 1466 4672 
L -51 -128 
L 301 -128 
L 1818 4672 
L 1466 4672 
z
" transform="scale(0.015625)"/>
       <path id="NimbusSanL-Regu-63" d="M 3014 2237 
C 2989 2561 2918 2771 2790 2956 
C 2560 3270 2157 3456 1690 3456 
C 787 3456 198 2740 198 1632 
C 198 555 774 -128 1683 -128 
C 2483 -128 2989 352 3053 1167 
L 2515 1167 
C 2426 632 2150 364 1696 364 
C 1107 364 755 842 755 1632 
C 755 2466 1101 2963 1683 2963 
C 2131 2963 2413 2701 2477 2237 
L 3014 2237 
z
" transform="scale(0.015625)"/>
       <path id="NimbusSanL-Regu-32" d="M 3238 556 
L 851 556 
C 909 928 1114 1165 1670 1493 
L 2310 1839 
C 2944 2185 3270 2653 3270 3211 
C 3270 3589 3117 3942 2848 4185 
C 2579 4428 2246 4544 1818 4544 
C 1242 4544 813 4339 563 3955 
C 403 3711 333 3429 320 2967 
L 883 2967 
C 902 3275 941 3461 1018 3608 
C 1165 3884 1459 4051 1798 4051 
C 2310 4051 2694 3685 2694 3198 
C 2694 2839 2483 2531 2080 2300 
L 1491 1967 
C 544 1428 269 999 218 0 
L 3238 0 
L 3238 556 
z
" transform="scale(0.015625)"/>
      </defs>
      <use xlink:href="#NimbusRomNo9L-ReguItal-42" transform="scale(0.996264)"/>
      <use xlink:href="#StandardSymL-6c" transform="translate(60.871631 -20.616338) scale(0.737241)"/>
      <use xlink:href="#NimbusSanL-Regu-28" transform="translate(135.818713 0) scale(0.996264)"/>
      <use xlink:href="#NimbusSanL-Regu-70" transform="translate(168.993943 0) scale(0.996264)"/>
      <use xlink:href="#NimbusSanL-Regu-68" transform="translate(224.38562 0) scale(0.996264)"/>
      <use xlink:href="#NimbusSanL-Regu-6f" transform="translate(279.777297 0) scale(0.996264)"/>
      <use xlink:href="#NimbusSanL-Regu-74" transform="translate(335.168974 0) scale(0.996264)"/>
      <use xlink:href="#NimbusSanL-Regu-6f" transform="translate(362.864143 0) scale(0.996264)"/>
      <use xlink:href="#NimbusSanL-Regu-6e" transform="translate(418.25582 0) scale(0.996264)"/>
      <use xlink:href="#NimbusSanL-Regu-73" transform="translate(473.647497 0) scale(0.996264)"/>
      <use xlink:href="#NimbusSanL-Regu-2f" transform="translate(523.460698 0) scale(0.996264)"/>
      <use xlink:href="#NimbusSanL-Regu-63" transform="translate(551.155868 0) scale(0.996264)"/>
      <use xlink:href="#NimbusSanL-Regu-6d" transform="translate(600.969068 0) scale(0.996264)"/>
      <use xlink:href="#NimbusSanL-Regu-32" transform="translate(683.957498 36.163231) scale(0.737241)"/>
      <use xlink:href="#NimbusSanL-Regu-2f" transform="translate(725.445777 0) scale(0.996264)"/>
      <use xlink:href="#NimbusSanL-Regu-73" transform="translate(753.140947 0) scale(0.996264)"/>
      <use xlink:href="#NimbusSanL-Regu-2f" transform="translate(802.954147 0) scale(0.996264)"/>
      <use xlink:href="#NimbusSanL-Regu-6e" transform="translate(830.649317 0) scale(0.996264)"/>
      <use xlink:href="#NimbusSanL-Regu-6d" transform="translate(886.040994 0) scale(0.996264)"/>
      <use xlink:href="#NimbusSanL-Regu-29" transform="translate(969.029424 0) scale(0.996264)"/>
     </g>
    </g>
    <g id="text_16">
     <!-- $\times\mathdefault{10^{12}}\mathdefault{}$ -->
     <g transform="translate(43.003987 14.735865)">
      <text>
       <tspan style="font: 11px 'STIXGeneral'" x="0" y="-0.799312500000001"></tspan>
       <tspan style="font: 11px 'Arial'" x="7.039993 13.157669" y="-0.799312500000001">10</tspan>
       <tspan style="font: 7.7px 'Arial'" x="19.467003 23.749376" y="-8.465625">12</tspan>
      </text>
     </g>
    </g>
   </g>
   <g id="patch_7">
    <path d="M 217.800817 47.652918 
L 217.800817 67.40298 
L 294.609383 67.40298 
" style="fill: none; stroke: #000000; stroke-linecap: round"/>
    <path d="M 290.609383 65.40298 
L 294.609383 67.40298 
L 290.609383 69.40298 
" style="fill: none; stroke: #000000; stroke-linecap: round"/>
   </g>
   <g id="text_17">
    <g id="patch_8">
     <path d="M 184.100817 50.702711 
L 251.500817 50.702711 
Q 254.500817 50.702711 254.500817 47.702711 
L 254.500817 37.602711 
Q 254.500817 34.602711 251.500817 34.602711 
L 184.100817 34.602711 
Q 181.100817 34.602711 181.100817 37.602711 
L 181.100817 47.702711 
Q 181.100817 50.702711 184.100817 50.702711 
z
" style="fill: #f5deb3; stroke: #000000; stroke-linejoin: miter"/>
    </g>
    <!-- D$_{\gamma}$ (434.00) nm -->
    <g transform="translate(184.100817 44.902711)">
     <text>
      <tspan style="font: 10px 'Arial'" x="0 10.686517 13.464837 16.794915 22.356439 27.917962 33.479486 36.257806 41.81933 47.380853 50.710931 53.489251 59.050775" y="-0.71875">D(434.00)nm</tspan>
      <tspan style="font: italic 7px 'STIXGeneral'" x="7.375898" y="0.6031250000000004"></tspan>
     </text>
    </g>
   </g>
   <g id="text_18">
    <text style="font: 10px 'Arial'; text-anchor: middle" x="236.023319" y="96.936156" transform="rotate(-0 236.023319 96.936156)">Q-branch</text>
   </g>
   <g id="text_19">
    <text style="font: 10px 'Arial'; text-anchor: middle" x="121.559719" y="41.825337" transform="rotate(-0 121.559719 41.825337)">B-D + C-D</text>
   </g>
   <g id="text_20">
    <text style="font: 700 12px 'Arial'; text-anchor: middle" x="182.001874" y="11.735865" transform="rotate(-0 182.001874 11.735865)">PC boron pebble rod - 63 min</text>
   </g>
  </g>
 </g>
 <defs>
  <clipPath id="p401700d389">
   <rect x="43.003987" y="17.735865" width="277.995773" height="198.668461"/>
  </clipPath>
 </defs>
</svg>
