<?xml version="1.0" encoding="utf-8" standalone="no"?>
<!DOCTYPE svg PUBLIC "-//W3C//DTD SVG 1.1//EN"
  "http://www.w3.org/Graphics/SVG/1.1/DTD/svg11.dtd">
<svg xmlns:xlink="http://www.w3.org/1999/xlink" width="324pt" height="252pt" viewBox="0 0 324 252" xmlns="http://www.w3.org/2000/svg" version="1.1">
 <metadata>
  <rdf:RDF xmlns:dc="http://purl.org/dc/elements/1.1/" xmlns:cc="http://creativecommons.org/ns#" xmlns:rdf="http://www.w3.org/1999/02/22-rdf-syntax-ns#">
   <cc:Work>
    <dc:type rdf:resource="http://purl.org/dc/dcmitype/StillImage"/>
    <dc:date>2024-12-06T11:03:06.681744</dc:date>
    <dc:format>image/svg+xml</dc:format>
    <dc:creator>
     <cc:Agent>
      <dc:title>Matplotlib v3.9.2, https://matplotlib.org/</dc:title>
     </cc:Agent>
    </dc:creator>
   </cc:Work>
  </rdf:RDF>
 </metadata>
 <defs>
  <style type="text/css">*{stroke-linejoin: round; stroke-linecap: butt}</style>
 </defs>
 <g id="figure_1">
  <g id="patch_1">
   <path d="M 0 252 
L 324 252 
L 324 0 
L 0 0 
z
" style="fill: #ffffff"/>
  </g>
  <g id="axes_1">
   <g id="patch_2">
    <path d="M 43.003987 216.404326 
L 320.99976 216.404326 
L 320.99976 17.735865 
L 43.003987 17.735865 
z
" style="fill: #ffffff"/>
   </g>
   <g id="PolyCollection_1">
    <path d="M 43.27895 216.195198 
L 43.27895 216.404326 
L 44.636075 216.404326 
L 45.992189 216.404326 
L 47.349314 216.404326 
L 48.705428 216.404326 
L 50.062553 216.404326 
L 51.420183 216.404326 
L 52.775791 216.404326 
L 54.133422 216.404326 
L 55.490547 216.404326 
L 56.848177 216.404326 
L 58.205807 216.404326 
L 59.562932 216.404326 
L 60.920562 216.404326 
L 62.277687 216.404326 
L 63.635317 216.404326 
L 64.993958 216.404326 
L 66.351589 216.404326 
L 67.708713 216.404326 
L 69.06786 216.404326 
L 70.42549 216.404326 
L 71.784131 216.404326 
L 73.141762 216.404326 
L 74.500403 216.404326 
L 75.85955 216.404326 
L 77.216674 216.404326 
L 78.575821 216.404326 
L 79.934968 216.404326 
L 81.293609 216.404326 
L 82.652755 216.404326 
L 84.011396 216.404326 
L 85.370543 216.404326 
L 86.72969 216.404326 
L 88.089847 216.404326 
L 89.448994 216.404326 
L 90.80814 216.404326 
L 92.168298 216.404326 
L 93.527444 216.404326 
L 94.887602 216.404326 
L 96.246749 216.404326 
L 97.607412 216.404326 
L 98.966053 216.404326 
L 100.326716 216.404326 
L 101.687379 216.404326 
L 103.047536 216.404326 
L 104.408199 216.404326 
L 105.768862 216.404326 
L 107.129019 216.404326 
L 108.489682 216.404326 
L 109.84984 216.404326 
L 111.210503 216.404326 
L 112.571166 216.404326 
L 113.93284 216.404326 
L 115.293503 216.404326 
L 116.654166 216.404326 
L 118.015839 216.404326 
L 119.376502 216.404326 
L 120.738682 216.404326 
L 122.100861 216.404326 
L 123.461018 216.404326 
L 124.823198 216.404326 
L 126.185377 216.404326 
L 127.547051 216.404326 
L 128.90923 216.404326 
L 130.271409 216.404326 
L 131.633083 216.404326 
L 132.995262 216.404326 
L 134.357442 216.404326 
L 135.719116 216.404326 
L 137.082811 216.404326 
L 138.444991 216.404326 
L 139.80717 216.404326 
L 141.17036 216.404326 
L 142.532539 216.404326 
L 143.896235 216.404326 
L 145.259931 216.404326 
L 146.621604 216.404326 
L 147.9853 216.404326 
L 149.348996 216.404326 
L 150.712691 216.404326 
L 152.075881 216.404326 
L 153.438061 216.404326 
L 154.801756 216.404326 
L 156.166968 216.404326 
L 157.530159 216.404326 
L 158.893854 216.404326 
L 160.25755 216.404326 
L 161.621245 216.404326 
L 162.985952 216.404326 
L 164.349648 216.404326 
L 165.714859 216.404326 
L 167.078555 216.404326 
L 168.443767 216.404326 
L 169.808474 216.404326 
L 171.172169 216.404326 
L 172.537381 216.404326 
L 173.902593 216.404326 
L 175.267805 216.404326 
L 176.632512 216.404326 
L 177.997724 216.404326 
L 179.362936 216.404326 
L 180.728148 216.404326 
L 182.09336 216.404326 
L 183.458066 216.404326 
L 184.823278 216.404326 
L 186.190006 216.404326 
L 187.555218 216.404326 
L 188.921947 216.404326 
L 190.286653 216.404326 
L 191.653381 216.404326 
L 193.018593 216.404326 
L 194.385322 216.404326 
L 195.75205 216.404326 
L 197.118778 216.404326 
L 198.48399 216.404326 
L 199.850213 216.404326 
L 201.216941 216.404326 
L 202.58367 216.404326 
L 203.950398 216.404326 
L 205.318643 216.404326 
L 206.685371 216.404326 
L 208.052099 216.404326 
L 209.418322 216.404326 
L 210.786567 216.404326 
L 212.153295 216.404326 
L 213.52154 216.404326 
L 214.888268 216.404326 
L 216.256513 216.404326 
L 217.623241 216.404326 
L 218.991486 216.404326 
L 220.35973 216.404326 
L 221.72747 216.404326 
L 223.095714 216.404326 
L 224.463959 216.404326 
L 225.832204 216.404326 
L 227.200448 216.404326 
L 228.568693 216.404326 
L 229.936937 216.404326 
L 231.305182 216.404326 
L 232.673427 216.404326 
L 234.043188 216.404326 
L 235.411432 216.404326 
L 236.781193 216.404326 
L 238.148933 216.404326 
L 239.518694 216.404326 
L 240.886938 216.404326 
L 242.256699 216.404326 
L 243.62646 216.404326 
L 244.996221 216.404326 
L 246.364466 216.404326 
L 247.734227 216.404326 
L 249.103988 216.404326 
L 250.473749 216.404326 
L 251.84351 216.404326 
L 253.214787 216.404326 
L 254.584548 216.404326 
L 255.954309 216.404326 
L 257.32407 216.404326 
L 258.695347 216.404326 
L 260.065108 216.404326 
L 261.436386 216.404326 
L 262.806147 216.404326 
L 264.177424 216.404326 
L 265.547185 216.404326 
L 266.918462 216.404326 
L 268.28974 216.404326 
L 269.661017 216.404326 
L 271.032294 216.404326 
L 272.403572 216.404326 
L 273.774849 216.404326 
L 275.146126 216.404326 
L 276.517404 216.404326 
L 277.888681 216.404326 
L 279.259958 216.404326 
L 280.632752 216.404326 
L 282.004029 216.404326 
L 283.375307 216.404326 
L 284.7481 216.404326 
L 286.119378 216.404326 
L 287.492171 216.404326 
L 288.864965 216.404326 
L 290.236242 216.404326 
L 291.609036 216.404326 
L 292.98183 216.404326 
L 294.354623 216.404326 
L 295.727417 216.404326 
L 297.100716 216.404326 
L 298.47351 216.404326 
L 299.846303 216.404326 
L 301.219097 216.404326 
L 302.591891 216.404326 
L 303.964684 216.404326 
L 305.338995 216.404326 
L 306.711788 216.404326 
L 308.086098 216.404326 
L 309.458892 216.404326 
L 310.833202 216.404326 
L 312.205996 216.404326 
L 313.580811 216.404326 
L 314.955121 216.404326 
L 316.327915 216.404326 
L 317.702225 216.404326 
L 319.076535 216.404326 
L 320.450845 216.404326 
L 320.450845 215.37572 
L 320.450845 215.37572 
L 319.076535 215.341888 
L 317.702225 215.306346 
L 316.327915 215.268977 
L 314.955121 215.229694 
L 313.580811 215.188272 
L 312.205996 215.144581 
L 310.833202 215.098537 
L 309.458892 215.049838 
L 308.086098 214.998389 
L 306.711788 214.943852 
L 305.338995 214.886099 
L 303.964684 214.824731 
L 302.591891 214.759579 
L 301.219097 214.69024 
L 299.846303 214.616337 
L 298.47351 214.53745 
L 297.100716 214.453106 
L 295.727417 214.362738 
L 294.354623 214.265809 
L 292.98183 214.161602 
L 291.609036 214.049338 
L 290.236242 213.928122 
L 288.864965 213.797072 
L 287.492171 213.654705 
L 286.119378 213.499765 
L 284.7481 213.330808 
L 283.375307 213.14552 
L 282.004029 212.941992 
L 280.632752 212.717232 
L 279.259958 212.467529 
L 277.888681 212.189188 
L 276.517404 211.876611 
L 275.146126 211.522949 
L 273.774849 211.119236 
L 272.403572 210.653429 
L 271.032294 210.108879 
L 269.661017 209.461755 
L 268.28974 208.676545 
L 266.918462 207.697726 
L 265.547185 206.433509 
L 264.177424 204.724331 
L 262.806147 202.260959 
L 261.436386 198.434895 
L 260.065108 191.996859 
L 258.695347 181.220468 
L 257.32407 169.38568 
L 255.954309 170.736529 
L 254.584548 179.513027 
L 253.214787 184.004947 
L 251.84351 183.970881 
L 250.473749 180.699965 
L 249.103988 174.836461 
L 247.734227 167.243604 
L 246.364466 160.296979 
L 244.996221 157.422221 
L 243.62646 159.21652 
L 242.256699 162.642003 
L 240.886938 165.034787 
L 239.518694 165.663683 
L 238.148933 164.830299 
L 236.781193 163.135937 
L 235.411432 161.232422 
L 234.043188 159.762004 
L 232.673427 159.260207 
L 231.305182 160.060113 
L 229.936937 162.211214 
L 228.568693 165.498402 
L 227.200448 169.544546 
L 225.832204 173.942361 
L 224.463959 178.351541 
L 223.095714 182.538511 
L 221.72747 186.37205 
L 220.35973 189.797447 
L 218.991486 192.814012 
L 217.623241 195.445403 
L 216.256513 197.727415 
L 214.888268 199.707186 
L 213.52154 201.421257 
L 212.153295 202.910908 
L 210.786567 204.205834 
L 209.418322 205.337426 
L 208.052099 206.327097 
L 206.685371 207.197415 
L 205.318643 207.965269 
L 203.950398 208.645909 
L 202.58367 209.250075 
L 201.216941 209.788882 
L 199.850213 210.271041 
L 198.48399 210.703777 
L 197.118778 211.093265 
L 195.75205 211.445535 
L 194.385322 211.764698 
L 193.018593 212.05467 
L 191.653381 212.318542 
L 190.286653 212.559807 
L 188.921947 212.780367 
L 187.555218 212.983067 
L 186.190006 213.169276 
L 184.823278 213.34108 
L 183.458066 213.499561 
L 182.09336 213.646151 
L 180.728148 213.782092 
L 179.362936 213.908333 
L 177.997724 214.025765 
L 176.632512 214.135179 
L 175.267805 214.237244 
L 173.902593 214.332667 
L 172.537381 214.421975 
L 171.172169 214.505673 
L 169.808474 214.584134 
L 168.443767 214.657917 
L 167.078555 214.727356 
L 165.714859 214.79269 
L 164.349648 214.854368 
L 162.985952 214.912529 
L 161.621245 214.967534 
L 160.25755 215.01953 
L 158.893854 215.068767 
L 157.530159 215.115437 
L 156.166968 215.159697 
L 154.801756 215.201786 
L 153.438061 215.241742 
L 152.075881 215.279705 
L 150.712691 215.315872 
L 149.348996 215.350341 
L 147.9853 215.383203 
L 146.621604 215.414558 
L 145.259931 215.444451 
L 143.896235 215.473056 
L 142.532539 215.500405 
L 141.17036 215.526541 
L 139.80717 215.551582 
L 138.444991 215.575551 
L 137.082811 215.598527 
L 135.719116 215.620586 
L 134.357442 215.641723 
L 132.995262 215.662026 
L 131.633083 215.681531 
L 130.271409 215.700272 
L 128.90923 215.718301 
L 127.547051 215.735648 
L 126.185377 215.75234 
L 124.823198 215.768422 
L 123.461018 215.783918 
L 122.100861 215.798833 
L 120.738682 215.813238 
L 119.376502 215.827137 
L 118.015839 215.840537 
L 116.654166 215.853485 
L 115.293503 215.865985 
L 113.93284 215.878064 
L 112.571166 215.889751 
L 111.210503 215.901044 
L 109.84984 215.911971 
L 108.489682 215.922542 
L 107.129019 215.93278 
L 105.768862 215.942693 
L 104.408199 215.9523 
L 103.047536 215.96161 
L 101.687379 215.970633 
L 100.326716 215.979386 
L 98.966053 215.987877 
L 97.607412 215.996104 
L 96.246749 216.004102 
L 94.887602 216.011859 
L 93.527444 216.019399 
L 92.168298 216.026718 
L 90.80814 216.033835 
L 89.448994 216.040748 
L 88.089847 216.04747 
L 86.72969 216.054012 
L 85.370543 216.060372 
L 84.011396 216.066559 
L 82.652755 216.07258 
L 81.293609 216.078443 
L 79.934968 216.08415 
L 78.575821 216.08971 
L 77.216674 216.095127 
L 75.85955 216.100398 
L 74.500403 216.105542 
L 73.141762 216.110556 
L 71.784131 216.115441 
L 70.42549 216.120208 
L 69.06786 216.124855 
L 67.708713 216.129394 
L 66.351589 216.133817 
L 64.993958 216.138136 
L 63.635317 216.142355 
L 62.277687 216.146472 
L 60.920562 216.150491 
L 59.562932 216.154419 
L 58.205807 216.158254 
L 56.848177 216.162004 
L 55.490547 216.165668 
L 54.133422 216.169248 
L 52.775791 216.17275 
L 51.420183 216.17617 
L 50.062553 216.179519 
L 48.705428 216.182793 
L 47.349314 216.185995 
L 45.992189 216.189129 
L 44.636075 216.192195 
L 43.27895 216.195198 
z
" clip-path="url(#p713bdc4507)" style="fill: #1f77b4; fill-opacity: 0.25"/>
   </g>
   <g id="PolyCollection_2">
    <path d="M 43.27895 215.041022 
L 43.27895 216.404326 
L 44.636075 216.404326 
L 45.992189 216.404326 
L 47.349314 216.404326 
L 48.705428 216.404326 
L 50.062553 216.404326 
L 51.420183 216.404326 
L 52.775791 216.404326 
L 54.133422 216.404326 
L 55.490547 216.404326 
L 56.848177 216.404326 
L 58.205807 216.404326 
L 59.562932 216.404326 
L 60.920562 216.404326 
L 62.277687 216.404326 
L 63.635317 216.404326 
L 64.993958 216.404326 
L 66.351589 216.404326 
L 67.708713 216.404326 
L 69.06786 216.404326 
L 70.42549 216.404326 
L 71.784131 216.404326 
L 73.141762 216.404326 
L 74.500403 216.404326 
L 75.85955 216.404326 
L 77.216674 216.404326 
L 78.575821 216.404326 
L 79.934968 216.404326 
L 81.293609 216.404326 
L 82.652755 216.404326 
L 84.011396 216.404326 
L 85.370543 216.404326 
L 86.72969 216.404326 
L 88.089847 216.404326 
L 89.448994 216.404326 
L 90.80814 216.404326 
L 92.168298 216.404326 
L 93.527444 216.404326 
L 94.887602 216.404326 
L 96.246749 216.404326 
L 97.607412 216.404326 
L 98.966053 216.404326 
L 100.326716 216.404326 
L 101.687379 216.404326 
L 103.047536 216.404326 
L 104.408199 216.404326 
L 105.768862 216.404326 
L 107.129019 216.404326 
L 108.489682 216.404326 
L 109.84984 216.404326 
L 111.210503 216.404326 
L 112.571166 216.404326 
L 113.93284 216.404326 
L 115.293503 216.404326 
L 116.654166 216.404326 
L 118.015839 216.404326 
L 119.376502 216.404326 
L 120.738682 216.404326 
L 122.100861 216.404326 
L 123.461018 216.404326 
L 124.823198 216.404326 
L 126.185377 216.404326 
L 127.547051 216.404326 
L 128.90923 216.404326 
L 130.271409 216.404326 
L 131.633083 216.404326 
L 132.995262 216.404326 
L 134.357442 216.404326 
L 135.719116 216.404326 
L 137.082811 216.404326 
L 138.444991 216.404326 
L 139.80717 216.404326 
L 141.17036 216.404326 
L 142.532539 216.404326 
L 143.896235 216.404326 
L 145.259931 216.404326 
L 146.621604 216.404326 
L 147.9853 216.404326 
L 149.348996 216.404326 
L 150.712691 216.404326 
L 152.075881 216.404326 
L 153.438061 216.404326 
L 154.801756 216.404326 
L 156.166968 216.404326 
L 157.530159 216.404326 
L 158.893854 216.404326 
L 160.25755 216.404326 
L 161.621245 216.404326 
L 162.985952 216.404326 
L 164.349648 216.404326 
L 165.714859 216.404326 
L 167.078555 216.404326 
L 168.443767 216.404326 
L 169.808474 216.404326 
L 171.172169 216.404326 
L 172.537381 216.404326 
L 173.902593 216.404326 
L 175.267805 216.404326 
L 176.632512 216.404326 
L 177.997724 216.404326 
L 179.362936 216.404326 
L 180.728148 216.404326 
L 182.09336 216.404326 
L 183.458066 216.404326 
L 184.823278 216.404326 
L 186.190006 216.404326 
L 187.555218 216.404326 
L 188.921947 216.404326 
L 190.286653 216.404326 
L 191.653381 216.404326 
L 193.018593 216.404326 
L 194.385322 216.404326 
L 195.75205 216.404326 
L 197.118778 216.404326 
L 198.48399 216.404326 
L 199.850213 216.404326 
L 201.216941 216.404326 
L 202.58367 216.404326 
L 203.950398 216.404326 
L 205.318643 216.404326 
L 206.685371 216.404326 
L 208.052099 216.404326 
L 209.418322 216.404326 
L 210.786567 216.404326 
L 212.153295 216.404326 
L 213.52154 216.404326 
L 214.888268 216.404326 
L 216.256513 216.404326 
L 217.623241 216.404326 
L 218.991486 216.404326 
L 220.35973 216.404326 
L 221.72747 216.404326 
L 223.095714 216.404326 
L 224.463959 216.404326 
L 225.832204 216.404326 
L 227.200448 216.404326 
L 228.568693 216.404326 
L 229.936937 216.404326 
L 231.305182 216.404326 
L 232.673427 216.404326 
L 234.043188 216.404326 
L 235.411432 216.404326 
L 236.781193 216.404326 
L 238.148933 216.404326 
L 239.518694 216.404326 
L 240.886938 216.404326 
L 242.256699 216.404326 
L 243.62646 216.404326 
L 244.996221 216.404326 
L 246.364466 216.404326 
L 247.734227 216.404326 
L 249.103988 216.404326 
L 250.473749 216.404326 
L 251.84351 216.404326 
L 253.214787 216.404326 
L 254.584548 216.404326 
L 255.954309 216.404326 
L 257.32407 216.404326 
L 258.695347 216.404326 
L 260.065108 216.404326 
L 261.436386 216.404326 
L 262.806147 216.404326 
L 264.177424 216.404326 
L 265.547185 216.404326 
L 266.918462 216.404326 
L 268.28974 216.404326 
L 269.661017 216.404326 
L 271.032294 216.404326 
L 272.403572 216.404326 
L 273.774849 216.404326 
L 275.146126 216.404326 
L 276.517404 216.404326 
L 277.888681 216.404326 
L 279.259958 216.404326 
L 280.632752 216.404326 
L 282.004029 216.404326 
L 283.375307 216.404326 
L 284.7481 216.404326 
L 286.119378 216.404326 
L 287.492171 216.404326 
L 288.864965 216.404326 
L 290.236242 216.404326 
L 291.609036 216.404326 
L 292.98183 216.404326 
L 294.354623 216.404326 
L 295.727417 216.404326 
L 297.100716 216.404326 
L 298.47351 216.404326 
L 299.846303 216.404326 
L 301.219097 216.404326 
L 302.591891 216.404326 
L 303.964684 216.404326 
L 305.338995 216.404326 
L 306.711788 216.404326 
L 308.086098 216.404326 
L 309.458892 216.404326 
L 310.833202 216.404326 
L 312.205996 216.404326 
L 313.580811 216.404326 
L 314.955121 216.404326 
L 316.327915 216.404326 
L 317.702225 216.404326 
L 319.076535 216.404326 
L 320.450845 216.404326 
L 320.450845 216.210056 
L 320.450845 216.210056 
L 319.076535 216.206912 
L 317.702225 216.203688 
L 316.327915 216.200382 
L 314.955121 216.196994 
L 313.580811 216.193515 
L 312.205996 216.189943 
L 310.833202 216.186282 
L 309.458892 216.182519 
L 308.086098 216.178659 
L 306.711788 216.174689 
L 305.338995 216.170613 
L 303.964684 216.16642 
L 302.591891 216.162113 
L 301.219097 216.157684 
L 299.846303 216.153127 
L 298.47351 216.148438 
L 297.100716 216.143611 
L 295.727417 216.138638 
L 294.354623 216.133518 
L 292.98183 216.128242 
L 291.609036 216.122804 
L 290.236242 216.117196 
L 288.864965 216.111418 
L 287.492171 216.10545 
L 286.119378 216.099288 
L 284.7481 216.092932 
L 283.375307 216.086359 
L 282.004029 216.079572 
L 280.632752 216.072555 
L 279.259958 216.065289 
L 277.888681 216.057777 
L 276.517404 216.05 
L 275.146126 216.041943 
L 273.774849 216.033594 
L 272.403572 216.024937 
L 271.032294 216.015956 
L 269.661017 216.006634 
L 268.28974 215.996952 
L 266.918462 215.986891 
L 265.547185 215.976429 
L 264.177424 215.965558 
L 262.806147 215.954227 
L 261.436386 215.942436 
L 260.065108 215.930132 
L 258.695347 215.91731 
L 257.32407 215.90391 
L 255.954309 215.889926 
L 254.584548 215.875305 
L 253.214787 215.860006 
L 251.84351 215.843966 
L 250.473749 215.827171 
L 249.103988 215.80955 
L 247.734227 215.791045 
L 246.364466 215.771593 
L 244.996221 215.751146 
L 243.62646 215.729582 
L 242.256699 215.70684 
L 240.886938 215.682825 
L 239.518694 215.657465 
L 238.148933 215.630589 
L 236.781193 215.60214 
L 235.411432 215.571895 
L 234.043188 215.539773 
L 232.673427 215.505528 
L 231.305182 215.469037 
L 229.936937 215.430042 
L 228.568693 215.388291 
L 227.200448 215.343501 
L 225.832204 215.295348 
L 224.463959 215.24346 
L 223.095714 215.187413 
L 221.72747 215.126717 
L 220.35973 215.060831 
L 218.991486 214.989045 
L 217.623241 214.910611 
L 216.256513 214.82472 
L 214.888268 214.730108 
L 213.52154 214.625704 
L 212.153295 214.509743 
L 210.786567 214.380628 
L 209.418322 214.235809 
L 208.052099 214.072897 
L 206.685371 213.888178 
L 205.318643 213.677393 
L 203.950398 213.434782 
L 202.58367 213.153853 
L 201.216941 212.825213 
L 199.850213 212.436791 
L 198.48399 211.972566 
L 197.118778 211.410733 
L 195.75205 210.719329 
L 194.385322 209.854861 
L 193.018593 208.752957 
L 191.653381 207.318892 
L 190.286653 205.400842 
L 188.921947 202.769515 
L 187.555218 199.038682 
L 186.190006 193.612015 
L 184.823278 185.579987 
L 183.458066 174.045265 
L 182.09336 159.753182 
L 180.728148 148.575119 
L 179.362936 148.05567 
L 177.997724 154.201871 
L 176.632512 156.326429 
L 175.267805 148.215539 
L 173.902593 134.345009 
L 172.537381 139.10912 
L 171.172169 161.394834 
L 169.808474 178.880202 
L 168.443767 188.746348 
L 167.078555 193.810293 
L 165.714859 195.771147 
L 164.349648 194.871142 
L 162.985952 189.372172 
L 161.621245 174.199386 
L 160.25755 162.454108 
L 158.893854 179.076614 
L 157.530159 188.055146 
L 156.166968 188.592781 
L 154.801756 183.799136 
L 153.438061 173.132484 
L 152.075881 154.661754 
L 150.712691 132.742481 
L 149.348996 128.11768 
L 147.9853 141.192407 
L 146.621604 148.511852 
L 145.259931 142.517402 
L 143.896235 129.485309 
L 142.532539 130.656894 
L 141.17036 150.144912 
L 139.80717 168.504221 
L 138.444991 179.417751 
L 137.082811 184.566505 
L 135.719116 185.519931 
L 134.357442 182.491407 
L 132.995262 174.095017 
L 131.633083 156.68222 
L 130.271409 125.926992 
L 128.90923 96.865536 
L 127.547051 111.379901 
L 126.185377 145.629443 
L 124.823198 168.05932 
L 123.461018 179.460229 
L 122.100861 184.492805 
L 120.738682 185.59459 
L 119.376502 183.633349 
L 118.015839 178.639184 
L 116.654166 170.251298 
L 115.293503 158.68796 
L 113.93284 146.864298 
L 112.571166 141.638408 
L 111.210503 147.347758 
L 109.84984 159.208241 
L 108.489682 170.382535 
L 107.129019 177.964406 
L 105.768862 181.400282 
L 104.408199 180.199894 
L 103.047536 173.18644 
L 101.687379 162.412692 
L 100.326716 162.364079 
L 98.966053 175.48677 
L 97.607412 186.634133 
L 96.246749 192.679293 
L 94.887602 195.227996 
L 93.527444 195.32005 
L 92.168298 193.039828 
L 90.80814 187.486309 
L 89.448994 176.29499 
L 88.089847 155.729915 
L 86.72969 131.318215 
L 85.370543 131.851663 
L 84.011396 146.228483 
L 82.652755 149.96093 
L 81.293609 148.601172 
L 79.934968 155.969524 
L 78.575821 171.055316 
L 77.216674 184.457471 
L 75.85955 193.571433 
L 74.500403 199.468136 
L 73.141762 203.345612 
L 71.784131 205.990656 
L 70.42549 207.86814 
L 69.06786 209.245734 
L 67.708713 210.289361 
L 66.351589 211.09861 
L 64.993958 211.741459 
L 63.635317 212.262072 
L 62.277687 212.690054 
L 60.920562 213.047132 
L 59.562932 213.349034 
L 58.205807 213.606925 
L 56.848177 213.829546 
L 55.490547 214.023324 
L 54.133422 214.193252 
L 52.775791 214.343422 
L 51.420183 214.476732 
L 50.062553 214.596107 
L 48.705428 214.703354 
L 47.349314 214.800133 
L 45.992189 214.887977 
L 44.636075 214.967911 
L 43.27895 215.041022 
z
" clip-path="url(#p713bdc4507)" style="fill: #ff7f0e; fill-opacity: 0.25"/>
   </g>
   <g id="line2d_1">
    <path d="M 43.27895 186.557652 
L 45.992189 178.022112 
L 47.349314 176.469145 
L 48.705428 180.855449 
L 50.062553 185.88732 
L 51.420183 190.184698 
L 52.775791 192.39 
L 54.133422 192.557422 
L 55.490547 189.734528 
L 56.848177 188.185516 
L 58.205807 187.740045 
L 59.562932 190.843648 
L 60.920562 193.465726 
L 62.277687 189.776311 
L 63.635317 183.171641 
L 64.993958 177.690326 
L 66.351589 174.685685 
L 67.708713 172.89426 
L 69.06786 172.823858 
L 70.42549 178.584685 
L 71.784131 186.345163 
L 73.141762 190.45716 
L 74.500403 193.050737 
L 75.85955 192.123424 
L 77.216674 189.430821 
L 78.575821 181.84192 
L 79.934968 158.814801 
L 81.293609 147.69837 
L 82.652755 149.728876 
L 84.011396 150.79416 
L 85.370543 134.1015 
L 86.72969 129.46686 
L 88.089847 144.860945 
L 89.448994 168.642435 
L 90.80814 185.856724 
L 92.168298 193.055381 
L 93.527444 195.188296 
L 94.887602 195.138233 
L 96.246749 193.648335 
L 97.607412 188.022993 
L 98.966053 178.426852 
L 100.326716 165.882849 
L 101.687379 161.547475 
L 103.047536 167.054165 
L 105.768862 183.424519 
L 107.129019 184.730614 
L 108.489682 177.687293 
L 109.84984 160.274108 
L 111.210503 145.80051 
L 112.571166 142.191803 
L 113.93284 146.36209 
L 115.293503 154.726397 
L 116.654166 164.988097 
L 118.015839 174.234727 
L 119.376502 182.605111 
L 120.738682 186.702316 
L 122.100861 180.729351 
L 123.461018 173.980909 
L 124.823198 168.016519 
L 126.185377 154.127792 
L 127.547051 124.376024 
L 128.90923 98.328454 
L 130.271409 108.905355 
L 131.633083 143.512149 
L 132.995262 172.58738 
L 134.357442 184.592038 
L 135.719116 190.937791 
L 137.082811 192.197498 
L 138.444991 188.002538 
L 139.80717 172.715408 
L 141.17036 147.699533 
L 142.532539 133.929766 
L 143.896235 131.665932 
L 145.259931 137.08864 
L 146.621604 140.960178 
L 147.9853 139.581194 
L 149.348996 135.286974 
L 150.712691 129.730306 
L 152.075881 138.487315 
L 153.438061 164.185004 
L 154.801756 185.509468 
L 156.166968 196.29529 
L 157.530159 194.228302 
L 158.893854 176.291227 
L 160.25755 165.833372 
L 161.621245 167.131559 
L 162.985952 181.610692 
L 164.349648 190.467133 
L 165.714859 193.910439 
L 167.078555 194.136913 
L 168.443767 189.357371 
L 169.808474 181.00265 
L 171.172169 166.522432 
L 172.537381 144.119568 
L 173.902593 131.520294 
L 175.267805 139.273161 
L 176.632512 152.880357 
L 177.997724 157.292418 
L 179.362936 147.930162 
L 180.728148 141.524571 
L 182.09336 151.105367 
L 184.823278 184.195894 
L 186.190006 190.886715 
L 187.555218 190.107801 
L 188.921947 202.225634 
L 190.286653 216.404326 
L 193.018593 216.404326 
L 194.385322 208.235137 
L 195.75205 191.888886 
L 197.118778 189.144344 
L 198.48399 191.14904 
L 201.216941 195.707384 
L 202.58367 199.693338 
L 203.950398 201.690718 
L 205.318643 201.840963 
L 206.685371 205.945813 
L 208.052099 213.373669 
L 209.418322 215.28866 
L 212.153295 204.193882 
L 213.52154 204.108463 
L 214.888268 203.17794 
L 217.623241 199.045375 
L 218.991486 198.064214 
L 220.35973 196.312503 
L 221.72747 192.015225 
L 223.095714 182.866784 
L 224.463959 170.959944 
L 225.832204 165.628758 
L 227.200448 168.145783 
L 228.568693 167.371594 
L 229.936937 162.142451 
L 232.673427 156.238291 
L 234.043188 162.843247 
L 235.411432 165.502649 
L 236.781193 165.727687 
L 238.148933 159.84028 
L 239.518694 156.953668 
L 240.886938 160.150317 
L 242.256699 164.706905 
L 243.62646 163.327119 
L 244.996221 159.250385 
L 246.364466 157.547831 
L 247.734227 154.880524 
L 249.103988 180.142212 
L 250.473749 180.678142 
L 251.84351 182.200191 
L 253.214787 181.54631 
L 254.584548 176.734597 
L 255.954309 172.648424 
L 257.32407 172.107922 
L 258.695347 173.887965 
L 260.065108 174.164008 
L 261.436386 209.644511 
L 262.806147 210.736959 
L 264.177424 209.989245 
L 265.547185 208.648847 
L 266.918462 208.507551 
L 268.28974 207.422733 
L 269.661017 205.824082 
L 271.032294 206.397571 
L 272.403572 203.896923 
L 273.774849 201.143928 
L 275.146126 198.938162 
L 276.517404 199.515159 
L 277.888681 202.79753 
L 279.259958 200.601353 
L 280.632752 195.570332 
L 282.004029 192.884998 
L 283.375307 189.670096 
L 284.7481 185.185044 
L 286.119378 179.515122 
L 287.492171 169.81708 
L 288.864965 156.932712 
L 290.236242 116.049371 
L 291.172575 -1 
M 301.239389 -1 
L 302.591891 98.954392 
L 303.964684 132.642001 
L 306.711788 170.367653 
L 308.086098 182.414341 
L 309.458892 187.270908 
L 310.833202 190.282004 
L 312.205996 191.758985 
L 313.580811 188.993751 
L 314.955121 183.994281 
L 316.327915 183.260924 
L 317.702225 187.979379 
L 319.076535 193.801074 
L 320.450845 197.886519 
L 320.450845 197.886519 
" clip-path="url(#p713bdc4507)" style="fill: none; stroke: #1f77b4; stroke-width: 1.5; stroke-linecap: square"/>
    <defs>
     <path id="m6efba99592" d="M 0 1.5 
C 0.397805 1.5 0.77937 1.341951 1.06066 1.06066 
C 1.341951 0.77937 1.5 0.397805 1.5 0 
C 1.5 -0.397805 1.341951 -0.77937 1.06066 -1.06066 
C 0.77937 -1.341951 0.397805 -1.5 0 -1.5 
C -0.397805 -1.5 -0.77937 -1.341951 -1.06066 -1.06066 
C -1.341951 -0.77937 -1.5 -0.397805 -1.5 0 
C -1.5 0.397805 -1.341951 0.77937 -1.06066 1.06066 
C -0.77937 1.341951 -0.397805 1.5 0 1.5 
z
" style="stroke: #1f77b4"/>
    </defs>
    <g clip-path="url(#p713bdc4507)">
     <use xlink:href="#m6efba99592" x="43.27895" y="186.557652" style="fill-opacity: 0; stroke: #1f77b4"/>
     <use xlink:href="#m6efba99592" x="44.636075" y="182.352973" style="fill-opacity: 0; stroke: #1f77b4"/>
     <use xlink:href="#m6efba99592" x="45.992189" y="178.022112" style="fill-opacity: 0; stroke: #1f77b4"/>
     <use xlink:href="#m6efba99592" x="47.349314" y="176.469145" style="fill-opacity: 0; stroke: #1f77b4"/>
     <use xlink:href="#m6efba99592" x="48.705428" y="180.855449" style="fill-opacity: 0; stroke: #1f77b4"/>
     <use xlink:href="#m6efba99592" x="50.062553" y="185.88732" style="fill-opacity: 0; stroke: #1f77b4"/>
     <use xlink:href="#m6efba99592" x="51.420183" y="190.184698" style="fill-opacity: 0; stroke: #1f77b4"/>
     <use xlink:href="#m6efba99592" x="52.775791" y="192.39" style="fill-opacity: 0; stroke: #1f77b4"/>
     <use xlink:href="#m6efba99592" x="54.133422" y="192.557422" style="fill-opacity: 0; stroke: #1f77b4"/>
     <use xlink:href="#m6efba99592" x="55.490547" y="189.734528" style="fill-opacity: 0; stroke: #1f77b4"/>
     <use xlink:href="#m6efba99592" x="56.848177" y="188.185516" style="fill-opacity: 0; stroke: #1f77b4"/>
     <use xlink:href="#m6efba99592" x="58.205807" y="187.740045" style="fill-opacity: 0; stroke: #1f77b4"/>
     <use xlink:href="#m6efba99592" x="59.562932" y="190.843648" style="fill-opacity: 0; stroke: #1f77b4"/>
     <use xlink:href="#m6efba99592" x="60.920562" y="193.465726" style="fill-opacity: 0; stroke: #1f77b4"/>
     <use xlink:href="#m6efba99592" x="62.277687" y="189.776311" style="fill-opacity: 0; stroke: #1f77b4"/>
     <use xlink:href="#m6efba99592" x="63.635317" y="183.171641" style="fill-opacity: 0; stroke: #1f77b4"/>
     <use xlink:href="#m6efba99592" x="64.993958" y="177.690326" style="fill-opacity: 0; stroke: #1f77b4"/>
     <use xlink:href="#m6efba99592" x="66.351589" y="174.685685" style="fill-opacity: 0; stroke: #1f77b4"/>
     <use xlink:href="#m6efba99592" x="67.708713" y="172.89426" style="fill-opacity: 0; stroke: #1f77b4"/>
     <use xlink:href="#m6efba99592" x="69.06786" y="172.823858" style="fill-opacity: 0; stroke: #1f77b4"/>
     <use xlink:href="#m6efba99592" x="70.42549" y="178.584685" style="fill-opacity: 0; stroke: #1f77b4"/>
     <use xlink:href="#m6efba99592" x="71.784131" y="186.345163" style="fill-opacity: 0; stroke: #1f77b4"/>
     <use xlink:href="#m6efba99592" x="73.141762" y="190.45716" style="fill-opacity: 0; stroke: #1f77b4"/>
     <use xlink:href="#m6efba99592" x="74.500403" y="193.050737" style="fill-opacity: 0; stroke: #1f77b4"/>
     <use xlink:href="#m6efba99592" x="75.85955" y="192.123424" style="fill-opacity: 0; stroke: #1f77b4"/>
     <use xlink:href="#m6efba99592" x="77.216674" y="189.430821" style="fill-opacity: 0; stroke: #1f77b4"/>
     <use xlink:href="#m6efba99592" x="78.575821" y="181.84192" style="fill-opacity: 0; stroke: #1f77b4"/>
     <use xlink:href="#m6efba99592" x="79.934968" y="158.814801" style="fill-opacity: 0; stroke: #1f77b4"/>
     <use xlink:href="#m6efba99592" x="81.293609" y="147.69837" style="fill-opacity: 0; stroke: #1f77b4"/>
     <use xlink:href="#m6efba99592" x="82.652755" y="149.728876" style="fill-opacity: 0; stroke: #1f77b4"/>
     <use xlink:href="#m6efba99592" x="84.011396" y="150.79416" style="fill-opacity: 0; stroke: #1f77b4"/>
     <use xlink:href="#m6efba99592" x="85.370543" y="134.1015" style="fill-opacity: 0; stroke: #1f77b4"/>
     <use xlink:href="#m6efba99592" x="86.72969" y="129.46686" style="fill-opacity: 0; stroke: #1f77b4"/>
     <use xlink:href="#m6efba99592" x="88.089847" y="144.860945" style="fill-opacity: 0; stroke: #1f77b4"/>
     <use xlink:href="#m6efba99592" x="89.448994" y="168.642435" style="fill-opacity: 0; stroke: #1f77b4"/>
     <use xlink:href="#m6efba99592" x="90.80814" y="185.856724" style="fill-opacity: 0; stroke: #1f77b4"/>
     <use xlink:href="#m6efba99592" x="92.168298" y="193.055381" style="fill-opacity: 0; stroke: #1f77b4"/>
     <use xlink:href="#m6efba99592" x="93.527444" y="195.188296" style="fill-opacity: 0; stroke: #1f77b4"/>
     <use xlink:href="#m6efba99592" x="94.887602" y="195.138233" style="fill-opacity: 0; stroke: #1f77b4"/>
     <use xlink:href="#m6efba99592" x="96.246749" y="193.648335" style="fill-opacity: 0; stroke: #1f77b4"/>
     <use xlink:href="#m6efba99592" x="97.607412" y="188.022993" style="fill-opacity: 0; stroke: #1f77b4"/>
     <use xlink:href="#m6efba99592" x="98.966053" y="178.426852" style="fill-opacity: 0; stroke: #1f77b4"/>
     <use xlink:href="#m6efba99592" x="100.326716" y="165.882849" style="fill-opacity: 0; stroke: #1f77b4"/>
     <use xlink:href="#m6efba99592" x="101.687379" y="161.547475" style="fill-opacity: 0; stroke: #1f77b4"/>
     <use xlink:href="#m6efba99592" x="103.047536" y="167.054165" style="fill-opacity: 0; stroke: #1f77b4"/>
     <use xlink:href="#m6efba99592" x="104.408199" y="175.106728" style="fill-opacity: 0; stroke: #1f77b4"/>
     <use xlink:href="#m6efba99592" x="105.768862" y="183.424519" style="fill-opacity: 0; stroke: #1f77b4"/>
     <use xlink:href="#m6efba99592" x="107.129019" y="184.730614" style="fill-opacity: 0; stroke: #1f77b4"/>
     <use xlink:href="#m6efba99592" x="108.489682" y="177.687293" style="fill-opacity: 0; stroke: #1f77b4"/>
     <use xlink:href="#m6efba99592" x="109.84984" y="160.274108" style="fill-opacity: 0; stroke: #1f77b4"/>
     <use xlink:href="#m6efba99592" x="111.210503" y="145.80051" style="fill-opacity: 0; stroke: #1f77b4"/>
     <use xlink:href="#m6efba99592" x="112.571166" y="142.191803" style="fill-opacity: 0; stroke: #1f77b4"/>
     <use xlink:href="#m6efba99592" x="113.93284" y="146.36209" style="fill-opacity: 0; stroke: #1f77b4"/>
     <use xlink:href="#m6efba99592" x="115.293503" y="154.726397" style="fill-opacity: 0; stroke: #1f77b4"/>
     <use xlink:href="#m6efba99592" x="116.654166" y="164.988097" style="fill-opacity: 0; stroke: #1f77b4"/>
     <use xlink:href="#m6efba99592" x="118.015839" y="174.234727" style="fill-opacity: 0; stroke: #1f77b4"/>
     <use xlink:href="#m6efba99592" x="119.376502" y="182.605111" style="fill-opacity: 0; stroke: #1f77b4"/>
     <use xlink:href="#m6efba99592" x="120.738682" y="186.702316" style="fill-opacity: 0; stroke: #1f77b4"/>
     <use xlink:href="#m6efba99592" x="122.100861" y="180.729351" style="fill-opacity: 0; stroke: #1f77b4"/>
     <use xlink:href="#m6efba99592" x="123.461018" y="173.980909" style="fill-opacity: 0; stroke: #1f77b4"/>
     <use xlink:href="#m6efba99592" x="124.823198" y="168.016519" style="fill-opacity: 0; stroke: #1f77b4"/>
     <use xlink:href="#m6efba99592" x="126.185377" y="154.127792" style="fill-opacity: 0; stroke: #1f77b4"/>
     <use xlink:href="#m6efba99592" x="127.547051" y="124.376024" style="fill-opacity: 0; stroke: #1f77b4"/>
     <use xlink:href="#m6efba99592" x="128.90923" y="98.328454" style="fill-opacity: 0; stroke: #1f77b4"/>
     <use xlink:href="#m6efba99592" x="130.271409" y="108.905355" style="fill-opacity: 0; stroke: #1f77b4"/>
     <use xlink:href="#m6efba99592" x="131.633083" y="143.512149" style="fill-opacity: 0; stroke: #1f77b4"/>
     <use xlink:href="#m6efba99592" x="132.995262" y="172.58738" style="fill-opacity: 0; stroke: #1f77b4"/>
     <use xlink:href="#m6efba99592" x="134.357442" y="184.592038" style="fill-opacity: 0; stroke: #1f77b4"/>
     <use xlink:href="#m6efba99592" x="135.719116" y="190.937791" style="fill-opacity: 0; stroke: #1f77b4"/>
     <use xlink:href="#m6efba99592" x="137.082811" y="192.197498" style="fill-opacity: 0; stroke: #1f77b4"/>
     <use xlink:href="#m6efba99592" x="138.444991" y="188.002538" style="fill-opacity: 0; stroke: #1f77b4"/>
     <use xlink:href="#m6efba99592" x="139.80717" y="172.715408" style="fill-opacity: 0; stroke: #1f77b4"/>
     <use xlink:href="#m6efba99592" x="141.17036" y="147.699533" style="fill-opacity: 0; stroke: #1f77b4"/>
     <use xlink:href="#m6efba99592" x="142.532539" y="133.929766" style="fill-opacity: 0; stroke: #1f77b4"/>
     <use xlink:href="#m6efba99592" x="143.896235" y="131.665932" style="fill-opacity: 0; stroke: #1f77b4"/>
     <use xlink:href="#m6efba99592" x="145.259931" y="137.08864" style="fill-opacity: 0; stroke: #1f77b4"/>
     <use xlink:href="#m6efba99592" x="146.621604" y="140.960178" style="fill-opacity: 0; stroke: #1f77b4"/>
     <use xlink:href="#m6efba99592" x="147.9853" y="139.581194" style="fill-opacity: 0; stroke: #1f77b4"/>
     <use xlink:href="#m6efba99592" x="149.348996" y="135.286974" style="fill-opacity: 0; stroke: #1f77b4"/>
     <use xlink:href="#m6efba99592" x="150.712691" y="129.730306" style="fill-opacity: 0; stroke: #1f77b4"/>
     <use xlink:href="#m6efba99592" x="152.075881" y="138.487315" style="fill-opacity: 0; stroke: #1f77b4"/>
     <use xlink:href="#m6efba99592" x="153.438061" y="164.185004" style="fill-opacity: 0; stroke: #1f77b4"/>
     <use xlink:href="#m6efba99592" x="154.801756" y="185.509468" style="fill-opacity: 0; stroke: #1f77b4"/>
     <use xlink:href="#m6efba99592" x="156.166968" y="196.29529" style="fill-opacity: 0; stroke: #1f77b4"/>
     <use xlink:href="#m6efba99592" x="157.530159" y="194.228302" style="fill-opacity: 0; stroke: #1f77b4"/>
     <use xlink:href="#m6efba99592" x="158.893854" y="176.291227" style="fill-opacity: 0; stroke: #1f77b4"/>
     <use xlink:href="#m6efba99592" x="160.25755" y="165.833372" style="fill-opacity: 0; stroke: #1f77b4"/>
     <use xlink:href="#m6efba99592" x="161.621245" y="167.131559" style="fill-opacity: 0; stroke: #1f77b4"/>
     <use xlink:href="#m6efba99592" x="162.985952" y="181.610692" style="fill-opacity: 0; stroke: #1f77b4"/>
     <use xlink:href="#m6efba99592" x="164.349648" y="190.467133" style="fill-opacity: 0; stroke: #1f77b4"/>
     <use xlink:href="#m6efba99592" x="165.714859" y="193.910439" style="fill-opacity: 0; stroke: #1f77b4"/>
     <use xlink:href="#m6efba99592" x="167.078555" y="194.136913" style="fill-opacity: 0; stroke: #1f77b4"/>
     <use xlink:href="#m6efba99592" x="168.443767" y="189.357371" style="fill-opacity: 0; stroke: #1f77b4"/>
     <use xlink:href="#m6efba99592" x="169.808474" y="181.00265" style="fill-opacity: 0; stroke: #1f77b4"/>
     <use xlink:href="#m6efba99592" x="171.172169" y="166.522432" style="fill-opacity: 0; stroke: #1f77b4"/>
     <use xlink:href="#m6efba99592" x="172.537381" y="144.119568" style="fill-opacity: 0; stroke: #1f77b4"/>
     <use xlink:href="#m6efba99592" x="173.902593" y="131.520294" style="fill-opacity: 0; stroke: #1f77b4"/>
     <use xlink:href="#m6efba99592" x="175.267805" y="139.273161" style="fill-opacity: 0; stroke: #1f77b4"/>
     <use xlink:href="#m6efba99592" x="176.632512" y="152.880357" style="fill-opacity: 0; stroke: #1f77b4"/>
     <use xlink:href="#m6efba99592" x="177.997724" y="157.292418" style="fill-opacity: 0; stroke: #1f77b4"/>
     <use xlink:href="#m6efba99592" x="179.362936" y="147.930162" style="fill-opacity: 0; stroke: #1f77b4"/>
     <use xlink:href="#m6efba99592" x="180.728148" y="141.524571" style="fill-opacity: 0; stroke: #1f77b4"/>
     <use xlink:href="#m6efba99592" x="182.09336" y="151.105367" style="fill-opacity: 0; stroke: #1f77b4"/>
     <use xlink:href="#m6efba99592" x="183.458066" y="168.086066" style="fill-opacity: 0; stroke: #1f77b4"/>
     <use xlink:href="#m6efba99592" x="184.823278" y="184.195894" style="fill-opacity: 0; stroke: #1f77b4"/>
     <use xlink:href="#m6efba99592" x="186.190006" y="190.886715" style="fill-opacity: 0; stroke: #1f77b4"/>
     <use xlink:href="#m6efba99592" x="187.555218" y="190.107801" style="fill-opacity: 0; stroke: #1f77b4"/>
     <use xlink:href="#m6efba99592" x="188.921947" y="202.225634" style="fill-opacity: 0; stroke: #1f77b4"/>
     <use xlink:href="#m6efba99592" x="190.286653" y="216.404326" style="fill-opacity: 0; stroke: #1f77b4"/>
     <use xlink:href="#m6efba99592" x="191.653381" y="216.404326" style="fill-opacity: 0; stroke: #1f77b4"/>
     <use xlink:href="#m6efba99592" x="193.018593" y="216.404326" style="fill-opacity: 0; stroke: #1f77b4"/>
     <use xlink:href="#m6efba99592" x="194.385322" y="208.235137" style="fill-opacity: 0; stroke: #1f77b4"/>
     <use xlink:href="#m6efba99592" x="195.75205" y="191.888886" style="fill-opacity: 0; stroke: #1f77b4"/>
     <use xlink:href="#m6efba99592" x="197.118778" y="189.144344" style="fill-opacity: 0; stroke: #1f77b4"/>
     <use xlink:href="#m6efba99592" x="198.48399" y="191.14904" style="fill-opacity: 0; stroke: #1f77b4"/>
     <use xlink:href="#m6efba99592" x="199.850213" y="193.425521" style="fill-opacity: 0; stroke: #1f77b4"/>
     <use xlink:href="#m6efba99592" x="201.216941" y="195.707384" style="fill-opacity: 0; stroke: #1f77b4"/>
     <use xlink:href="#m6efba99592" x="202.58367" y="199.693338" style="fill-opacity: 0; stroke: #1f77b4"/>
     <use xlink:href="#m6efba99592" x="203.950398" y="201.690718" style="fill-opacity: 0; stroke: #1f77b4"/>
     <use xlink:href="#m6efba99592" x="205.318643" y="201.840963" style="fill-opacity: 0; stroke: #1f77b4"/>
     <use xlink:href="#m6efba99592" x="206.685371" y="205.945813" style="fill-opacity: 0; stroke: #1f77b4"/>
     <use xlink:href="#m6efba99592" x="208.052099" y="213.373669" style="fill-opacity: 0; stroke: #1f77b4"/>
     <use xlink:href="#m6efba99592" x="209.418322" y="215.28866" style="fill-opacity: 0; stroke: #1f77b4"/>
     <use xlink:href="#m6efba99592" x="210.786567" y="209.536223" style="fill-opacity: 0; stroke: #1f77b4"/>
     <use xlink:href="#m6efba99592" x="212.153295" y="204.193882" style="fill-opacity: 0; stroke: #1f77b4"/>
     <use xlink:href="#m6efba99592" x="213.52154" y="204.108463" style="fill-opacity: 0; stroke: #1f77b4"/>
     <use xlink:href="#m6efba99592" x="214.888268" y="203.17794" style="fill-opacity: 0; stroke: #1f77b4"/>
     <use xlink:href="#m6efba99592" x="216.256513" y="201.086361" style="fill-opacity: 0; stroke: #1f77b4"/>
     <use xlink:href="#m6efba99592" x="217.623241" y="199.045375" style="fill-opacity: 0; stroke: #1f77b4"/>
     <use xlink:href="#m6efba99592" x="218.991486" y="198.064214" style="fill-opacity: 0; stroke: #1f77b4"/>
     <use xlink:href="#m6efba99592" x="220.35973" y="196.312503" style="fill-opacity: 0; stroke: #1f77b4"/>
     <use xlink:href="#m6efba99592" x="221.72747" y="192.015225" style="fill-opacity: 0; stroke: #1f77b4"/>
     <use xlink:href="#m6efba99592" x="223.095714" y="182.866784" style="fill-opacity: 0; stroke: #1f77b4"/>
     <use xlink:href="#m6efba99592" x="224.463959" y="170.959944" style="fill-opacity: 0; stroke: #1f77b4"/>
     <use xlink:href="#m6efba99592" x="225.832204" y="165.628758" style="fill-opacity: 0; stroke: #1f77b4"/>
     <use xlink:href="#m6efba99592" x="227.200448" y="168.145783" style="fill-opacity: 0; stroke: #1f77b4"/>
     <use xlink:href="#m6efba99592" x="228.568693" y="167.371594" style="fill-opacity: 0; stroke: #1f77b4"/>
     <use xlink:href="#m6efba99592" x="229.936937" y="162.142451" style="fill-opacity: 0; stroke: #1f77b4"/>
     <use xlink:href="#m6efba99592" x="231.305182" y="159.163508" style="fill-opacity: 0; stroke: #1f77b4"/>
     <use xlink:href="#m6efba99592" x="232.673427" y="156.238291" style="fill-opacity: 0; stroke: #1f77b4"/>
     <use xlink:href="#m6efba99592" x="234.043188" y="162.843247" style="fill-opacity: 0; stroke: #1f77b4"/>
     <use xlink:href="#m6efba99592" x="235.411432" y="165.502649" style="fill-opacity: 0; stroke: #1f77b4"/>
     <use xlink:href="#m6efba99592" x="236.781193" y="165.727687" style="fill-opacity: 0; stroke: #1f77b4"/>
     <use xlink:href="#m6efba99592" x="238.148933" y="159.84028" style="fill-opacity: 0; stroke: #1f77b4"/>
     <use xlink:href="#m6efba99592" x="239.518694" y="156.953668" style="fill-opacity: 0; stroke: #1f77b4"/>
     <use xlink:href="#m6efba99592" x="240.886938" y="160.150317" style="fill-opacity: 0; stroke: #1f77b4"/>
     <use xlink:href="#m6efba99592" x="242.256699" y="164.706905" style="fill-opacity: 0; stroke: #1f77b4"/>
     <use xlink:href="#m6efba99592" x="243.62646" y="163.327119" style="fill-opacity: 0; stroke: #1f77b4"/>
     <use xlink:href="#m6efba99592" x="244.996221" y="159.250385" style="fill-opacity: 0; stroke: #1f77b4"/>
     <use xlink:href="#m6efba99592" x="246.364466" y="157.547831" style="fill-opacity: 0; stroke: #1f77b4"/>
     <use xlink:href="#m6efba99592" x="247.734227" y="154.880524" style="fill-opacity: 0; stroke: #1f77b4"/>
     <use xlink:href="#m6efba99592" x="249.103988" y="180.142212" style="fill-opacity: 0; stroke: #1f77b4"/>
     <use xlink:href="#m6efba99592" x="250.473749" y="180.678142" style="fill-opacity: 0; stroke: #1f77b4"/>
     <use xlink:href="#m6efba99592" x="251.84351" y="182.200191" style="fill-opacity: 0; stroke: #1f77b4"/>
     <use xlink:href="#m6efba99592" x="253.214787" y="181.54631" style="fill-opacity: 0; stroke: #1f77b4"/>
     <use xlink:href="#m6efba99592" x="254.584548" y="176.734597" style="fill-opacity: 0; stroke: #1f77b4"/>
     <use xlink:href="#m6efba99592" x="255.954309" y="172.648424" style="fill-opacity: 0; stroke: #1f77b4"/>
     <use xlink:href="#m6efba99592" x="257.32407" y="172.107922" style="fill-opacity: 0; stroke: #1f77b4"/>
     <use xlink:href="#m6efba99592" x="258.695347" y="173.887965" style="fill-opacity: 0; stroke: #1f77b4"/>
     <use xlink:href="#m6efba99592" x="260.065108" y="174.164008" style="fill-opacity: 0; stroke: #1f77b4"/>
     <use xlink:href="#m6efba99592" x="261.436386" y="209.644511" style="fill-opacity: 0; stroke: #1f77b4"/>
     <use xlink:href="#m6efba99592" x="262.806147" y="210.736959" style="fill-opacity: 0; stroke: #1f77b4"/>
     <use xlink:href="#m6efba99592" x="264.177424" y="209.989245" style="fill-opacity: 0; stroke: #1f77b4"/>
     <use xlink:href="#m6efba99592" x="265.547185" y="208.648847" style="fill-opacity: 0; stroke: #1f77b4"/>
     <use xlink:href="#m6efba99592" x="266.918462" y="208.507551" style="fill-opacity: 0; stroke: #1f77b4"/>
     <use xlink:href="#m6efba99592" x="268.28974" y="207.422733" style="fill-opacity: 0; stroke: #1f77b4"/>
     <use xlink:href="#m6efba99592" x="269.661017" y="205.824082" style="fill-opacity: 0; stroke: #1f77b4"/>
     <use xlink:href="#m6efba99592" x="271.032294" y="206.397571" style="fill-opacity: 0; stroke: #1f77b4"/>
     <use xlink:href="#m6efba99592" x="272.403572" y="203.896923" style="fill-opacity: 0; stroke: #1f77b4"/>
     <use xlink:href="#m6efba99592" x="273.774849" y="201.143928" style="fill-opacity: 0; stroke: #1f77b4"/>
     <use xlink:href="#m6efba99592" x="275.146126" y="198.938162" style="fill-opacity: 0; stroke: #1f77b4"/>
     <use xlink:href="#m6efba99592" x="276.517404" y="199.515159" style="fill-opacity: 0; stroke: #1f77b4"/>
     <use xlink:href="#m6efba99592" x="277.888681" y="202.79753" style="fill-opacity: 0; stroke: #1f77b4"/>
     <use xlink:href="#m6efba99592" x="279.259958" y="200.601353" style="fill-opacity: 0; stroke: #1f77b4"/>
     <use xlink:href="#m6efba99592" x="280.632752" y="195.570332" style="fill-opacity: 0; stroke: #1f77b4"/>
     <use xlink:href="#m6efba99592" x="282.004029" y="192.884998" style="fill-opacity: 0; stroke: #1f77b4"/>
     <use xlink:href="#m6efba99592" x="283.375307" y="189.670096" style="fill-opacity: 0; stroke: #1f77b4"/>
     <use xlink:href="#m6efba99592" x="284.7481" y="185.185044" style="fill-opacity: 0; stroke: #1f77b4"/>
     <use xlink:href="#m6efba99592" x="286.119378" y="179.515122" style="fill-opacity: 0; stroke: #1f77b4"/>
     <use xlink:href="#m6efba99592" x="287.492171" y="169.81708" style="fill-opacity: 0; stroke: #1f77b4"/>
     <use xlink:href="#m6efba99592" x="288.864965" y="156.932712" style="fill-opacity: 0; stroke: #1f77b4"/>
     <use xlink:href="#m6efba99592" x="290.236242" y="116.049371" style="fill-opacity: 0; stroke: #1f77b4"/>
     <use xlink:href="#m6efba99592" x="291.172575" y="-1" style="fill-opacity: 0; stroke: #1f77b4"/>
     <use xlink:href="#m6efba99592" x="301.239389" y="-1" style="fill-opacity: 0; stroke: #1f77b4"/>
     <use xlink:href="#m6efba99592" x="302.591891" y="98.954392" style="fill-opacity: 0; stroke: #1f77b4"/>
     <use xlink:href="#m6efba99592" x="303.964684" y="132.642001" style="fill-opacity: 0; stroke: #1f77b4"/>
     <use xlink:href="#m6efba99592" x="305.338995" y="151.488094" style="fill-opacity: 0; stroke: #1f77b4"/>
     <use xlink:href="#m6efba99592" x="306.711788" y="170.367653" style="fill-opacity: 0; stroke: #1f77b4"/>
     <use xlink:href="#m6efba99592" x="308.086098" y="182.414341" style="fill-opacity: 0; stroke: #1f77b4"/>
     <use xlink:href="#m6efba99592" x="309.458892" y="187.270908" style="fill-opacity: 0; stroke: #1f77b4"/>
     <use xlink:href="#m6efba99592" x="310.833202" y="190.282004" style="fill-opacity: 0; stroke: #1f77b4"/>
     <use xlink:href="#m6efba99592" x="312.205996" y="191.758985" style="fill-opacity: 0; stroke: #1f77b4"/>
     <use xlink:href="#m6efba99592" x="313.580811" y="188.993751" style="fill-opacity: 0; stroke: #1f77b4"/>
     <use xlink:href="#m6efba99592" x="314.955121" y="183.994281" style="fill-opacity: 0; stroke: #1f77b4"/>
     <use xlink:href="#m6efba99592" x="316.327915" y="183.260924" style="fill-opacity: 0; stroke: #1f77b4"/>
     <use xlink:href="#m6efba99592" x="317.702225" y="187.979379" style="fill-opacity: 0; stroke: #1f77b4"/>
     <use xlink:href="#m6efba99592" x="319.076535" y="193.801074" style="fill-opacity: 0; stroke: #1f77b4"/>
     <use xlink:href="#m6efba99592" x="320.450845" y="197.886519" style="fill-opacity: 0; stroke: #1f77b4"/>
    </g>
   </g>
   <g id="line2d_2">
    <path d="M 43.27895 214.831894 
L 50.062553 214.3713 
L 55.490547 213.784666 
L 59.562932 213.099127 
L 62.277687 212.4322 
L 64.993958 211.47527 
L 66.351589 210.828102 
L 67.708713 210.01443 
L 69.06786 208.966263 
L 70.42549 207.584023 
L 71.784131 205.701771 
L 73.141762 203.051842 
L 74.500403 199.169353 
L 75.85955 193.267505 
L 77.216674 184.148272 
L 78.575821 170.740701 
L 79.934968 155.649348 
L 81.293609 148.275288 
L 82.652755 149.629184 
L 84.011396 145.890717 
L 85.370543 131.507709 
L 86.72969 130.967902 
L 88.089847 155.37306 
L 89.448994 175.931412 
L 90.80814 187.115818 
L 92.168298 192.66222 
L 93.527444 194.935123 
L 94.887602 194.83553 
L 96.246749 192.27907 
L 97.607412 186.225911 
L 98.966053 175.070322 
L 100.326716 161.939139 
L 101.687379 161.978999 
L 103.047536 172.743724 
L 104.408199 179.747867 
L 105.768862 180.938649 
L 107.129019 177.49286 
L 108.489682 169.900751 
L 111.210503 146.844476 
L 112.571166 141.123833 
L 113.93284 146.338036 
L 116.654166 169.700458 
L 118.015839 178.075395 
L 119.376502 183.056159 
L 120.738682 185.003502 
L 122.100861 183.887312 
L 123.461018 178.839821 
L 124.823198 167.423416 
L 126.185377 144.977457 
L 127.547051 110.711223 
L 128.90923 96.179511 
L 131.633083 155.959425 
L 132.995262 173.352718 
L 134.357442 181.728805 
L 135.719116 184.736192 
L 137.082811 183.760705 
L 138.444991 178.588976 
L 139.80717 167.651477 
L 142.532539 129.752972 
L 143.896235 128.554039 
L 145.259931 141.557528 
L 146.621604 147.522083 
L 147.9853 140.171284 
L 149.348996 127.063695 
L 150.712691 131.654027 
L 152.075881 153.537133 
L 153.438061 171.9699 
L 154.801756 182.596596 
L 156.166968 187.348152 
L 157.530159 186.766256 
L 158.893854 177.741055 
L 160.25755 161.069312 
L 161.621245 172.762594 
L 162.985952 187.880375 
L 164.349648 193.321184 
L 165.714859 194.159511 
L 167.078555 192.133323 
L 168.443767 186.999938 
L 169.808474 177.060011 
L 171.172169 159.496182 
L 172.537381 137.126769 
L 173.902593 132.273351 
L 175.267805 146.048457 
L 176.632512 154.057282 
L 177.997724 151.82331 
L 179.362936 145.559677 
L 180.728148 145.952885 
L 182.09336 156.995006 
L 183.458066 171.1405 
L 184.823278 182.516742 
L 186.190006 190.376966 
L 187.555218 195.617423 
L 188.921947 199.145557 
L 190.286653 201.556323 
L 191.653381 203.233109 
L 193.018593 204.403302 
L 194.385322 205.215233 
L 195.75205 205.760538 
L 197.118778 206.099672 
L 198.48399 206.272017 
L 199.850213 206.303506 
L 201.216941 206.20977 
L 202.58367 205.999602 
L 203.950398 205.676365 
L 205.318643 205.238336 
L 206.685371 204.681267 
L 208.052099 203.995668 
L 209.418322 203.16891 
L 210.786567 202.182136 
L 212.153295 201.016325 
L 213.52154 199.642635 
L 214.888268 198.032967 
L 216.256513 196.14781 
L 217.623241 193.951688 
L 218.991486 191.398731 
L 220.35973 188.453952 
L 221.72747 185.094441 
L 223.095714 181.321598 
L 225.832204 172.833383 
L 228.568693 164.482368 
L 229.936937 161.236929 
L 231.305182 159.124824 
L 232.673427 158.361409 
L 234.043188 158.897452 
L 235.411432 160.399992 
L 236.781193 162.333751 
L 238.148933 164.056562 
L 239.518694 164.916822 
L 240.886938 164.313287 
L 242.256699 161.944517 
L 243.62646 158.541776 
L 244.996221 156.769041 
L 246.364466 159.664246 
L 247.734227 166.630323 
L 249.103988 174.241685 
L 250.473749 180.12281 
L 251.84351 183.410522 
L 253.214787 183.460628 
L 254.584548 178.984006 
L 255.954309 170.222129 
L 257.32407 168.885264 
L 258.695347 180.733452 
L 260.065108 191.522664 
L 261.436386 197.973005 
L 262.806147 201.81086 
L 264.177424 204.285563 
L 265.547185 206.005612 
L 266.918462 207.28029 
L 268.28974 208.269171 
L 269.661017 209.064063 
L 272.403572 210.274041 
L 275.146126 211.160567 
L 277.888681 211.842639 
L 282.004029 212.617239 
L 287.492171 213.355829 
L 294.354623 213.995001 
L 302.591891 214.517366 
L 313.580811 214.977461 
L 320.450845 215.18145 
L 320.450845 215.18145 
" clip-path="url(#p713bdc4507)" style="fill: none; stroke: #ff0000; stroke-width: 1.5; stroke-linecap: square"/>
   </g>
   <g id="line2d_3">
    <path d="M 295.727417 216.404326 
L 295.727417 17.735865 
" clip-path="url(#p713bdc4507)" style="fill: none; stroke-dasharray: 3.7,1.6; stroke-dashoffset: 0; stroke: #808080"/>
   </g>
   <g id="patch_3">
    <path d="M 43.003987 216.404326 
L 43.003987 17.735865 
" style="fill: none; stroke: #000000; stroke-linejoin: miter; stroke-linecap: square"/>
   </g>
   <g id="patch_4">
    <path d="M 320.99976 216.404326 
L 320.99976 17.735865 
" style="fill: none; stroke: #000000; stroke-linejoin: miter; stroke-linecap: square"/>
   </g>
   <g id="patch_5">
    <path d="M 43.003987 216.404326 
L 320.99976 216.404326 
" style="fill: none; stroke: #000000; stroke-linejoin: miter; stroke-linecap: square"/>
   </g>
   <g id="patch_6">
    <path d="M 43.003987 17.735865 
L 320.99976 17.735865 
" style="fill: none; stroke: #000000; stroke-linejoin: miter; stroke-linecap: square"/>
   </g>
   <g id="matplotlib.axis_1">
    <g id="xtick_1">
     <g id="line2d_4">
      <defs>
       <path id="m360140f3b7" d="M 0 0 
L 0 3.75 
" style="stroke: #000000; stroke-width: 1.25"/>
      </defs>
      <g>
       <use xlink:href="#m360140f3b7" x="43.003987" y="216.404326" style="stroke: #000000; stroke-width: 1.25"/>
      </g>
     </g>
     <g id="text_1">
      <!-- $\mathdefault{429}$ -->
      <g transform="translate(33.818987 231.52792)">
       <text>
        <tspan style="font: 11px 'Arial'" x="0 6.117676 12.235352" y="-0.09375">429</tspan>
       </text>
      </g>
     </g>
    </g>
    <g id="xtick_2">
     <g id="line2d_5">
      <g>
       <use xlink:href="#m360140f3b7" x="93.548673" y="216.404326" style="stroke: #000000; stroke-width: 1.25"/>
      </g>
     </g>
     <g id="text_2">
      <!-- $\mathdefault{430}$ -->
      <g transform="translate(84.363673 231.52792)">
       <text>
        <tspan style="font: 11px 'Arial'" x="0 6.117676 12.235352" y="-0.09375">430</tspan>
       </text>
      </g>
     </g>
    </g>
    <g id="xtick_3">
     <g id="line2d_6">
      <g>
       <use xlink:href="#m360140f3b7" x="144.093359" y="216.404326" style="stroke: #000000; stroke-width: 1.25"/>
      </g>
     </g>
     <g id="text_3">
      <!-- $\mathdefault{431}$ -->
      <g transform="translate(134.908359 231.52792)">
       <text>
        <tspan style="font: 11px 'Arial'" x="0 6.117676 12.235352" y="-0.09375">431</tspan>
       </text>
      </g>
     </g>
    </g>
    <g id="xtick_4">
     <g id="line2d_7">
      <g>
       <use xlink:href="#m360140f3b7" x="194.638045" y="216.404326" style="stroke: #000000; stroke-width: 1.25"/>
      </g>
     </g>
     <g id="text_4">
      <!-- $\mathdefault{432}$ -->
      <g transform="translate(185.453045 231.52792)">
       <text>
        <tspan style="font: 11px 'Arial'" x="0 6.117676 12.235352" y="-0.09375">432</tspan>
       </text>
      </g>
     </g>
    </g>
    <g id="xtick_5">
     <g id="line2d_8">
      <g>
       <use xlink:href="#m360140f3b7" x="245.182731" y="216.404326" style="stroke: #000000; stroke-width: 1.25"/>
      </g>
     </g>
     <g id="text_5">
      <!-- $\mathdefault{433}$ -->
      <g transform="translate(235.997731 231.52792)">
       <text>
        <tspan style="font: 11px 'Arial'" x="0 6.117676 12.235352" y="-0.09375">433</tspan>
       </text>
      </g>
     </g>
    </g>
    <g id="xtick_6">
     <g id="line2d_9">
      <g>
       <use xlink:href="#m360140f3b7" x="295.727417" y="216.404326" style="stroke: #000000; stroke-width: 1.25"/>
      </g>
     </g>
     <g id="text_6">
      <!-- $\mathdefault{434}$ -->
      <g transform="translate(286.542417 231.52792)">
       <text>
        <tspan style="font: 11px 'Arial'" x="0 6.117676 12.235352" y="-0.09375">434</tspan>
       </text>
      </g>
     </g>
    </g>
    <g id="text_7">
     <!-- $\lambda$ {\sffamily (nm)} -->
     <g transform="translate(164.206736 246.411565) scale(0.12 -0.12)">
      <defs>
       <path id="StandardSymL-6c" d="M 480 3650 
C 525 4013 710 4224 998 4224 
C 1203 4224 1376 4064 1472 3778 
C 1517 3650 1574 3440 1632 3198 
L 154 19 
L 755 19 
L 1843 2301 
C 2048 1059 2150 607 2266 358 
C 2406 83 2611 -64 2848 -64 
C 3098 -64 3296 89 3405 371 
C 3475 543 3501 715 3507 1014 
L 3373 1014 
C 3322 683 3174 499 2944 499 
C 2752 499 2586 620 2483 843 
C 2400 1008 2355 1174 2266 1645 
L 2093 2466 
C 2086 2485 2080 2530 2067 2594 
C 1920 3415 1690 4192 1536 4422 
C 1395 4627 1203 4736 992 4736 
C 602 4736 397 4403 326 3650 
L 480 3650 
z
" transform="scale(0.015625)"/>
       <path id="NimbusSanL-Regu-28" d="M 1510 4672 
C 870 3833 467 2668 467 1663 
C 467 652 870 -513 1510 -1351 
L 1862 -1351 
C 1299 -436 986 639 986 1663 
C 986 2681 1299 3763 1862 4672 
L 1510 4672 
z
" transform="scale(0.015625)"/>
       <path id="NimbusSanL-Regu-6e" d="M 448 3328 
L 448 0 
L 986 0 
L 986 1835 
C 986 2539 1344 2988 1894 2988 
C 2317 2988 2586 2732 2586 2328 
L 2586 0 
L 3117 0 
L 3117 2539 
C 3117 3097 2701 3456 2054 3456 
C 1555 3456 1235 3263 941 2796 
L 941 3328 
L 448 3328 
z
" transform="scale(0.015625)"/>
       <path id="NimbusSanL-Regu-6d" d="M 448 3328 
L 448 0 
L 986 0 
L 986 2089 
C 986 2597 1338 2988 1773 2988 
C 2170 2988 2394 2744 2394 2315 
L 2394 0 
L 2931 0 
L 2931 2109 
C 2931 2597 3283 2988 3718 2988 
C 4109 2988 4339 2738 4339 2315 
L 4339 0 
L 4877 0 
L 4877 2520 
C 4877 3123 4531 3456 3904 3456 
C 3456 3456 3187 3321 2874 2943 
C 2675 3302 2406 3456 1971 3456 
C 1523 3456 1229 3289 941 2886 
L 941 3328 
L 448 3328 
z
" transform="scale(0.015625)"/>
       <path id="NimbusSanL-Regu-29" d="M 595 -1351 
C 1235 -513 1638 652 1638 1657 
C 1638 2668 1235 3833 595 4672 
L 243 4672 
C 806 3756 1120 2681 1120 1657 
C 1120 639 806 -442 243 -1351 
L 595 -1351 
z
" transform="scale(0.015625)"/>
      </defs>
      <use xlink:href="#StandardSymL-6c" transform="scale(0.996264)"/>
      <use xlink:href="#NimbusSanL-Regu-28" transform="translate(91.855235 0) scale(0.996264)"/>
      <use xlink:href="#NimbusSanL-Regu-6e" transform="translate(125.030464 0) scale(0.996264)"/>
      <use xlink:href="#NimbusSanL-Regu-6d" transform="translate(180.422141 0) scale(0.996264)"/>
      <use xlink:href="#NimbusSanL-Regu-29" transform="translate(263.410572 0) scale(0.996264)"/>
     </g>
    </g>
   </g>
   <g id="matplotlib.axis_2">
    <g id="ytick_1">
     <g id="line2d_10">
      <defs>
       <path id="m1298ca3604" d="M 0 0 
L -3.75 0 
" style="stroke: #000000; stroke-width: 1.25"/>
      </defs>
      <g>
       <use xlink:href="#m1298ca3604" x="43.003987" y="216.404326" style="stroke: #000000; stroke-width: 1.25"/>
      </g>
     </g>
     <g id="text_8">
      <!-- $\mathdefault{0.0}$ -->
      <g transform="translate(20.353987 220.341123)">
       <text>
        <tspan style="font: 11px 'Arial'" x="0 6.117676 9.173828" y="-0.09375">0.0</tspan>
       </text>
      </g>
     </g>
    </g>
    <g id="ytick_2">
     <g id="line2d_11">
      <g>
       <use xlink:href="#m1298ca3604" x="43.003987" y="186.184059" style="stroke: #000000; stroke-width: 1.25"/>
      </g>
     </g>
     <g id="text_9">
      <!-- $\mathdefault{0.5}$ -->
      <g transform="translate(20.353987 190.120856)">
       <text>
        <tspan style="font: 11px 'Arial'" x="0 6.117676 9.173828" y="-0.09375">0.5</tspan>
       </text>
      </g>
     </g>
    </g>
    <g id="ytick_3">
     <g id="line2d_12">
      <g>
       <use xlink:href="#m1298ca3604" x="43.003987" y="155.963792" style="stroke: #000000; stroke-width: 1.25"/>
      </g>
     </g>
     <g id="text_10">
      <!-- $\mathdefault{1.0}$ -->
      <g transform="translate(20.353987 159.900589)">
       <text>
        <tspan style="font: 11px 'Arial'" x="0 6.117676 9.173828" y="-0.09375">1.0</tspan>
       </text>
      </g>
     </g>
    </g>
    <g id="ytick_4">
     <g id="line2d_13">
      <g>
       <use xlink:href="#m1298ca3604" x="43.003987" y="125.743525" style="stroke: #000000; stroke-width: 1.25"/>
      </g>
     </g>
     <g id="text_11">
      <!-- $\mathdefault{1.5}$ -->
      <g transform="translate(20.353987 129.680322)">
       <text>
        <tspan style="font: 11px 'Arial'" x="0 6.117676 9.173828" y="-0.09375">1.5</tspan>
       </text>
      </g>
     </g>
    </g>
    <g id="ytick_5">
     <g id="line2d_14">
      <g>
       <use xlink:href="#m1298ca3604" x="43.003987" y="95.523258" style="stroke: #000000; stroke-width: 1.25"/>
      </g>
     </g>
     <g id="text_12">
      <!-- $\mathdefault{2.0}$ -->
      <g transform="translate(20.353987 99.460055)">
       <text>
        <tspan style="font: 11px 'Arial'" x="0 6.117676 9.173828" y="-0.09375">2.0</tspan>
       </text>
      </g>
     </g>
    </g>
    <g id="ytick_6">
     <g id="line2d_15">
      <g>
       <use xlink:href="#m1298ca3604" x="43.003987" y="65.302991" style="stroke: #000000; stroke-width: 1.25"/>
      </g>
     </g>
     <g id="text_13">
      <!-- $\mathdefault{2.5}$ -->
      <g transform="translate(20.353987 69.239788)">
       <text>
        <tspan style="font: 11px 'Arial'" x="0 6.117676 9.173828" y="-0.09375">2.5</tspan>
       </text>
      </g>
     </g>
    </g>
    <g id="ytick_7">
     <g id="line2d_16">
      <g>
       <use xlink:href="#m1298ca3604" x="43.003987" y="35.082724" style="stroke: #000000; stroke-width: 1.25"/>
      </g>
     </g>
     <g id="text_14">
      <!-- $\mathdefault{3.0}$ -->
      <g transform="translate(20.353987 39.019521)">
       <text>
        <tspan style="font: 11px 'Arial'" x="0 6.117676 9.173828" y="-0.09375">3.0</tspan>
       </text>
      </g>
     </g>
    </g>
    <g id="text_15">
     <!-- $B_{\lambda}$ {\sffamily (photons/cm\textsuperscript{2}/s/nm)} -->
     <g transform="translate(13.728305 177.714049) rotate(-90) scale(0.12 -0.12)">
      <defs>
       <path id="NimbusRomNo9L-ReguItal-42" d="M -51 0 
L 1754 0 
C 2758 0 3450 523 3450 1274 
C 3450 1510 3373 1732 3232 1872 
C 3104 2019 2976 2095 2643 2235 
C 3098 2344 3283 2420 3488 2598 
C 3667 2751 3763 2968 3763 3222 
C 3763 3827 3309 4160 2483 4160 
L 832 4160 
L 832 4057 
C 1229 4025 1325 3974 1325 3795 
C 1325 3700 1299 3541 1254 3388 
L 467 574 
C 352 204 307 166 -51 102 
L -51 0 
z
M 1523 2108 
C 1939 2108 2208 2083 2336 2032 
C 2598 1923 2758 1643 2758 1299 
C 2758 612 2285 192 1504 192 
C 1235 192 1094 287 1094 459 
C 1094 535 1171 841 1318 1350 
C 1402 1637 1440 1783 1523 2108 
z
M 2003 3789 
C 2042 3929 2118 3967 2368 3967 
C 2880 3967 3117 3751 3117 3280 
C 3117 2917 2963 2637 2688 2484 
C 2470 2356 2163 2312 1587 2312 
L 2003 3789 
z
" transform="scale(0.015625)"/>
       <path id="NimbusSanL-Regu-70" d="M 346 -1408 
L 883 -1408 
L 883 371 
C 1165 25 1478 -128 1914 -128 
C 2778 -128 3347 568 3347 1632 
C 3347 2752 2797 3456 1907 3456 
C 1453 3456 1088 3251 838 2854 
L 838 3359 
L 346 3359 
L 346 -1408 
z
M 1818 2956 
C 2406 2956 2790 2440 2790 1644 
C 2790 887 2400 371 1818 371 
C 1254 371 883 880 883 1663 
C 883 2447 1254 2956 1818 2956 
z
" transform="scale(0.015625)"/>
       <path id="NimbusSanL-Regu-68" d="M 448 4672 
L 448 0 
L 979 0 
L 979 1853 
C 979 2539 1338 2988 1888 2988 
C 2061 2988 2234 2930 2362 2834 
C 2515 2725 2579 2565 2579 2328 
L 2579 0 
L 3110 0 
L 3110 2539 
C 3110 3103 2707 3456 2054 3456 
C 1581 3456 1293 3308 979 2898 
L 979 4672 
L 448 4672 
z
" transform="scale(0.015625)"/>
       <path id="NimbusSanL-Regu-6f" d="M 1741 3456 
C 800 3456 230 2784 230 1663 
C 230 543 794 -128 1747 -128 
C 2688 -128 3264 543 3264 1638 
C 3264 2791 2707 3456 1741 3456 
z
M 1747 2963 
C 2349 2963 2707 2472 2707 1644 
C 2707 861 2336 364 1747 364 
C 1152 364 787 855 787 1663 
C 787 2466 1152 2963 1747 2963 
z
" transform="scale(0.015625)"/>
       <path id="NimbusSanL-Regu-74" d="M 1626 3328 
L 1075 3328 
L 1075 4249 
L 544 4249 
L 544 3328 
L 90 3328 
L 90 2892 
L 544 2892 
L 544 402 
C 544 64 774 -128 1190 -128 
C 1318 -128 1446 -116 1626 -84 
L 1626 364 
C 1555 345 1472 339 1370 339 
C 1139 339 1075 402 1075 634 
L 1075 2892 
L 1626 2892 
L 1626 3328 
z
" transform="scale(0.015625)"/>
       <path id="NimbusSanL-Regu-73" d="M 2803 2428 
C 2797 3084 2362 3456 1587 3456 
C 806 3456 301 3052 301 2434 
C 301 1912 570 1663 1363 1472 
L 1862 1351 
C 2234 1262 2381 1129 2381 887 
C 2381 574 2067 364 1600 364 
C 1312 364 1069 447 934 587 
C 851 683 813 778 781 1014 
L 218 1014 
C 243 243 678 -128 1555 -128 
C 2400 -128 2938 288 2938 931 
C 2938 1428 2656 1702 1990 1861 
L 1478 1982 
C 1043 2084 858 2224 858 2459 
C 858 2765 1133 2963 1568 2963 
C 1997 2963 2227 2778 2240 2428 
L 2803 2428 
z
" transform="scale(0.015625)"/>
       <path id="NimbusSanL-Regu-2f" d="M 1466 4672 
L -51 -128 
L 301 -128 
L 1818 4672 
L 1466 4672 
z
" transform="scale(0.015625)"/>
       <path id="NimbusSanL-Regu-63" d="M 3014 2237 
C 2989 2561 2918 2771 2790 2956 
C 2560 3270 2157 3456 1690 3456 
C 787 3456 198 2740 198 1632 
C 198 555 774 -128 1683 -128 
C 2483 -128 2989 352 3053 1167 
L 2515 1167 
C 2426 632 2150 364 1696 364 
C 1107 364 755 842 755 1632 
C 755 2466 1101 2963 1683 2963 
C 2131 2963 2413 2701 2477 2237 
L 3014 2237 
z
" transform="scale(0.015625)"/>
       <path id="NimbusSanL-Regu-32" d="M 3238 556 
L 851 556 
C 909 928 1114 1165 1670 1493 
L 2310 1839 
C 2944 2185 3270 2653 3270 3211 
C 3270 3589 3117 3942 2848 4185 
C 2579 4428 2246 4544 1818 4544 
C 1242 4544 813 4339 563 3955 
C 403 3711 333 3429 320 2967 
L 883 2967 
C 902 3275 941 3461 1018 3608 
C 1165 3884 1459 4051 1798 4051 
C 2310 4051 2694 3685 2694 3198 
C 2694 2839 2483 2531 2080 2300 
L 1491 1967 
C 544 1428 269 999 218 0 
L 3238 0 
L 3238 556 
z
" transform="scale(0.015625)"/>
      </defs>
      <use xlink:href="#NimbusRomNo9L-ReguItal-42" transform="scale(0.996264)"/>
      <use xlink:href="#StandardSymL-6c" transform="translate(60.871631 -20.616338) scale(0.737241)"/>
      <use xlink:href="#NimbusSanL-Regu-28" transform="translate(135.818713 0) scale(0.996264)"/>
      <use xlink:href="#NimbusSanL-Regu-70" transform="translate(168.993943 0) scale(0.996264)"/>
      <use xlink:href="#NimbusSanL-Regu-68" transform="translate(224.38562 0) scale(0.996264)"/>
      <use xlink:href="#NimbusSanL-Regu-6f" transform="translate(279.777297 0) scale(0.996264)"/>
      <use xlink:href="#NimbusSanL-Regu-74" transform="translate(335.168974 0) scale(0.996264)"/>
      <use xlink:href="#NimbusSanL-Regu-6f" transform="translate(362.864143 0) scale(0.996264)"/>
      <use xlink:href="#NimbusSanL-Regu-6e" transform="translate(418.25582 0) scale(0.996264)"/>
      <use xlink:href="#NimbusSanL-Regu-73" transform="translate(473.647497 0) scale(0.996264)"/>
      <use xlink:href="#NimbusSanL-Regu-2f" transform="translate(523.460698 0) scale(0.996264)"/>
      <use xlink:href="#NimbusSanL-Regu-63" transform="translate(551.155868 0) scale(0.996264)"/>
      <use xlink:href="#NimbusSanL-Regu-6d" transform="translate(600.969068 0) scale(0.996264)"/>
      <use xlink:href="#NimbusSanL-Regu-32" transform="translate(683.957498 36.163231) scale(0.737241)"/>
      <use xlink:href="#NimbusSanL-Regu-2f" transform="translate(725.445777 0) scale(0.996264)"/>
      <use xlink:href="#NimbusSanL-Regu-73" transform="translate(753.140947 0) scale(0.996264)"/>
      <use xlink:href="#NimbusSanL-Regu-2f" transform="translate(802.954147 0) scale(0.996264)"/>
      <use xlink:href="#NimbusSanL-Regu-6e" transform="translate(830.649317 0) scale(0.996264)"/>
      <use xlink:href="#NimbusSanL-Regu-6d" transform="translate(886.040994 0) scale(0.996264)"/>
      <use xlink:href="#NimbusSanL-Regu-29" transform="translate(969.029424 0) scale(0.996264)"/>
     </g>
    </g>
    <g id="text_16">
     <!-- $\times\mathdefault{10^{12}}\mathdefault{}$ -->
     <g transform="translate(43.003987 14.735865)">
      <text>
       <tspan style="font: 11px 'STIXGeneral'" x="0" y="-0.799312500000001"></tspan>
       <tspan style="font: 11px 'Arial'" x="7.039993 13.157669" y="-0.799312500000001">10</tspan>
       <tspan style="font: 7.7px 'Arial'" x="19.467003 23.749376" y="-8.465625">12</tspan>
      </text>
     </g>
    </g>
   </g>
   <g id="patch_7">
    <path d="M 217.800817 47.652918 
L 217.800817 67.40298 
L 294.609383 67.40298 
" style="fill: none; stroke: #000000; stroke-linecap: round"/>
    <path d="M 290.609383 65.40298 
L 294.609383 67.40298 
L 290.609383 69.40298 
" style="fill: none; stroke: #000000; stroke-linecap: round"/>
   </g>
   <g id="text_17">
    <g id="patch_8">
     <path d="M 184.100817 50.702711 
L 251.500817 50.702711 
Q 254.500817 50.702711 254.500817 47.702711 
L 254.500817 37.602711 
Q 254.500817 34.602711 251.500817 34.602711 
L 184.100817 34.602711 
Q 181.100817 34.602711 181.100817 37.602711 
L 181.100817 47.702711 
Q 181.100817 50.702711 184.100817 50.702711 
z
" style="fill: #f5deb3; stroke: #000000; stroke-linejoin: miter"/>
    </g>
    <!-- D$_{\gamma}$ (434.00) nm -->
    <g transform="translate(184.100817 44.902711)">
     <text>
      <tspan style="font: 10px 'Arial'" x="0 10.686517 13.464837 16.794915 22.356439 27.917962 33.479486 36.257806 41.81933 47.380853 50.710931 53.489251 59.050775" y="-0.71875">D(434.00)nm</tspan>
      <tspan style="font: italic 7px 'STIXGeneral'" x="7.375898" y="0.6031250000000004"></tspan>
     </text>
    </g>
   </g>
   <g id="text_18">
    <text style="font: 10px 'Arial'; text-anchor: middle" x="234.821641" y="95.434721" transform="rotate(-0 234.821641 95.434721)">Q-branch</text>
   </g>
   <g id="text_19">
    <text style="font: 10px 'Arial'; text-anchor: middle" x="121.647361" y="33.123674" transform="rotate(-0 121.647361 33.123674)">B-D + C-D</text>
   </g>
   <g id="text_20">
    <text style="font: 700 12px 'Arial'; text-anchor: middle" x="182.001874" y="11.735865" transform="rotate(-0 182.001874 11.735865)">PC boron pebble rod - 49 min</text>
   </g>
  </g>
 </g>
 <defs>
  <clipPath id="p713bdc4507">
   <rect x="43.003987" y="17.735865" width="277.995773" height="198.668461"/>
  </clipPath>
 </defs>
</svg>
