<?xml version="1.0" encoding="utf-8" standalone="no"?>
<!DOCTYPE svg PUBLIC "-//W3C//DTD SVG 1.1//EN"
  "http://www.w3.org/Graphics/SVG/1.1/DTD/svg11.dtd">
<svg xmlns:xlink="http://www.w3.org/1999/xlink" width="324pt" height="252pt" viewBox="0 0 324 252" xmlns="http://www.w3.org/2000/svg" version="1.1">
 <metadata>
  <rdf:RDF xmlns:dc="http://purl.org/dc/elements/1.1/" xmlns:cc="http://creativecommons.org/ns#" xmlns:rdf="http://www.w3.org/1999/02/22-rdf-syntax-ns#">
   <cc:Work>
    <dc:type rdf:resource="http://purl.org/dc/dcmitype/StillImage"/>
    <dc:date>2024-12-06T11:02:13.476445</dc:date>
    <dc:format>image/svg+xml</dc:format>
    <dc:creator>
     <cc:Agent>
      <dc:title>Matplotlib v3.9.2, https://matplotlib.org/</dc:title>
     </cc:Agent>
    </dc:creator>
   </cc:Work>
  </rdf:RDF>
 </metadata>
 <defs>
  <style type="text/css">*{stroke-linejoin: round; stroke-linecap: butt}</style>
 </defs>
 <g id="figure_1">
  <g id="patch_1">
   <path d="M 0 252 
L 324 252 
L 324 0 
L 0 0 
z
" style="fill: #ffffff"/>
  </g>
  <g id="axes_1">
   <g id="patch_2">
    <path d="M 43.003987 216.404326 
L 320.99976 216.404326 
L 320.99976 17.735865 
L 43.003987 17.735865 
z
" style="fill: #ffffff"/>
   </g>
   <g id="PolyCollection_1">
    <path d="M 43.27895 216.09211 
L 43.27895 216.404326 
L 44.636075 216.404326 
L 45.992189 216.404326 
L 47.349314 216.404326 
L 48.705428 216.404326 
L 50.062553 216.404326 
L 51.420183 216.404326 
L 52.775791 216.404326 
L 54.133422 216.404326 
L 55.490547 216.404326 
L 56.848177 216.404326 
L 58.205807 216.404326 
L 59.562932 216.404326 
L 60.920562 216.404326 
L 62.277687 216.404326 
L 63.635317 216.404326 
L 64.993958 216.404326 
L 66.351589 216.404326 
L 67.708713 216.404326 
L 69.06786 216.404326 
L 70.42549 216.404326 
L 71.784131 216.404326 
L 73.141762 216.404326 
L 74.500403 216.404326 
L 75.85955 216.404326 
L 77.216674 216.404326 
L 78.575821 216.404326 
L 79.934968 216.404326 
L 81.293609 216.404326 
L 82.652755 216.404326 
L 84.011396 216.404326 
L 85.370543 216.404326 
L 86.72969 216.404326 
L 88.089847 216.404326 
L 89.448994 216.404326 
L 90.80814 216.404326 
L 92.168298 216.404326 
L 93.527444 216.404326 
L 94.887602 216.404326 
L 96.246749 216.404326 
L 97.607412 216.404326 
L 98.966053 216.404326 
L 100.326716 216.404326 
L 101.687379 216.404326 
L 103.047536 216.404326 
L 104.408199 216.404326 
L 105.768862 216.404326 
L 107.129019 216.404326 
L 108.489682 216.404326 
L 109.84984 216.404326 
L 111.210503 216.404326 
L 112.571166 216.404326 
L 113.93284 216.404326 
L 115.293503 216.404326 
L 116.654166 216.404326 
L 118.015839 216.404326 
L 119.376502 216.404326 
L 120.738682 216.404326 
L 122.100861 216.404326 
L 123.461018 216.404326 
L 124.823198 216.404326 
L 126.185377 216.404326 
L 127.547051 216.404326 
L 128.90923 216.404326 
L 130.271409 216.404326 
L 131.633083 216.404326 
L 132.995262 216.404326 
L 134.357442 216.404326 
L 135.719116 216.404326 
L 137.082811 216.404326 
L 138.444991 216.404326 
L 139.80717 216.404326 
L 141.17036 216.404326 
L 142.532539 216.404326 
L 143.896235 216.404326 
L 145.259931 216.404326 
L 146.621604 216.404326 
L 147.9853 216.404326 
L 149.348996 216.404326 
L 150.712691 216.404326 
L 152.075881 216.404326 
L 153.438061 216.404326 
L 154.801756 216.404326 
L 156.166968 216.404326 
L 157.530159 216.404326 
L 158.893854 216.404326 
L 160.25755 216.404326 
L 161.621245 216.404326 
L 162.985952 216.404326 
L 164.349648 216.404326 
L 165.714859 216.404326 
L 167.078555 216.404326 
L 168.443767 216.404326 
L 169.808474 216.404326 
L 171.172169 216.404326 
L 172.537381 216.404326 
L 173.902593 216.404326 
L 175.267805 216.404326 
L 176.632512 216.404326 
L 177.997724 216.404326 
L 179.362936 216.404326 
L 180.728148 216.404326 
L 182.09336 216.404326 
L 183.458066 216.404326 
L 184.823278 216.404326 
L 186.190006 216.404326 
L 187.555218 216.404326 
L 188.921947 216.404326 
L 190.286653 216.404326 
L 191.653381 216.404326 
L 193.018593 216.404326 
L 194.385322 216.404326 
L 195.75205 216.404326 
L 197.118778 216.404326 
L 198.48399 216.404326 
L 199.850213 216.404326 
L 201.216941 216.404326 
L 202.58367 216.404326 
L 203.950398 216.404326 
L 205.318643 216.404326 
L 206.685371 216.404326 
L 208.052099 216.404326 
L 209.418322 216.404326 
L 210.786567 216.404326 
L 212.153295 216.404326 
L 213.52154 216.404326 
L 214.888268 216.404326 
L 216.256513 216.404326 
L 217.623241 216.404326 
L 218.991486 216.404326 
L 220.35973 216.404326 
L 221.72747 216.404326 
L 223.095714 216.404326 
L 224.463959 216.404326 
L 225.832204 216.404326 
L 227.200448 216.404326 
L 228.568693 216.404326 
L 229.936937 216.404326 
L 231.305182 216.404326 
L 232.673427 216.404326 
L 234.043188 216.404326 
L 235.411432 216.404326 
L 236.781193 216.404326 
L 238.148933 216.404326 
L 239.518694 216.404326 
L 240.886938 216.404326 
L 242.256699 216.404326 
L 243.62646 216.404326 
L 244.996221 216.404326 
L 246.364466 216.404326 
L 247.734227 216.404326 
L 249.103988 216.404326 
L 250.473749 216.404326 
L 251.84351 216.404326 
L 253.214787 216.404326 
L 254.584548 216.404326 
L 255.954309 216.404326 
L 257.32407 216.404326 
L 258.695347 216.404326 
L 260.065108 216.404326 
L 261.436386 216.404326 
L 262.806147 216.404326 
L 264.177424 216.404326 
L 265.547185 216.404326 
L 266.918462 216.404326 
L 268.28974 216.404326 
L 269.661017 216.404326 
L 271.032294 216.404326 
L 272.403572 216.404326 
L 273.774849 216.404326 
L 275.146126 216.404326 
L 276.517404 216.404326 
L 277.888681 216.404326 
L 279.259958 216.404326 
L 280.632752 216.404326 
L 282.004029 216.404326 
L 283.375307 216.404326 
L 284.7481 216.404326 
L 286.119378 216.404326 
L 287.492171 216.404326 
L 288.864965 216.404326 
L 290.236242 216.404326 
L 291.609036 216.404326 
L 292.98183 216.404326 
L 294.354623 216.404326 
L 295.727417 216.404326 
L 297.100716 216.404326 
L 298.47351 216.404326 
L 299.846303 216.404326 
L 301.219097 216.404326 
L 302.591891 216.404326 
L 303.964684 216.404326 
L 305.338995 216.404326 
L 306.711788 216.404326 
L 308.086098 216.404326 
L 309.458892 216.404326 
L 310.833202 216.404326 
L 312.205996 216.404326 
L 313.580811 216.404326 
L 314.955121 216.404326 
L 316.327915 216.404326 
L 317.702225 216.404326 
L 319.076535 216.404326 
L 320.450845 216.404326 
L 320.450845 214.851205 
L 320.450845 214.851205 
L 319.076535 214.800594 
L 317.702225 214.747465 
L 316.327915 214.691646 
L 314.955121 214.633019 
L 313.580811 214.571251 
L 312.205996 214.50616 
L 310.833202 214.437631 
L 309.458892 214.365226 
L 308.086098 214.288814 
L 306.711788 214.207909 
L 305.338995 214.12234 
L 303.964684 214.03153 
L 302.591891 213.935253 
L 301.219097 213.832937 
L 299.846303 213.724056 
L 298.47351 213.608019 
L 297.100716 213.484168 
L 295.727417 213.351712 
L 294.354623 213.209912 
L 292.98183 213.057773 
L 291.609036 212.894219 
L 290.236242 212.718014 
L 288.864965 212.527958 
L 287.492171 212.321987 
L 286.119378 212.098384 
L 284.7481 211.855173 
L 283.375307 211.589137 
L 282.004029 211.297653 
L 280.632752 210.976545 
L 279.259958 210.620596 
L 277.888681 210.224577 
L 276.517404 209.780442 
L 275.146126 209.278194 
L 273.774849 208.704467 
L 272.403572 208.040884 
L 271.032294 207.261322 
L 269.661017 206.327243 
L 268.28974 205.17933 
L 266.918462 203.721909 
L 265.547185 201.792758 
L 264.177424 199.106866 
L 262.806147 195.130507 
L 261.436386 188.954531 
L 260.065108 179.53806 
L 258.695347 168.874026 
L 257.32407 166.231829 
L 255.954309 173.082666 
L 254.584548 179.595466 
L 253.214787 182.332157 
L 251.84351 181.673334 
L 250.473749 177.607167 
L 249.103988 168.729342 
L 247.734227 154.63187 
L 246.364466 149.253706 
L 244.996221 158.565492 
L 243.62646 165.296055 
L 242.256699 167.257303 
L 240.886938 166.781369 
L 239.518694 165.289941 
L 238.148933 163.549911 
L 236.781193 162.05013 
L 235.411432 161.122167 
L 234.043188 160.985727 
L 232.673427 161.736462 
L 231.305182 163.348533 
L 229.936937 165.698388 
L 228.568693 168.59957 
L 227.200448 171.84523 
L 225.832204 175.242999 
L 224.463959 178.636002 
L 223.095714 181.910175 
L 221.72747 184.991913 
L 220.35973 187.839767 
L 218.991486 190.439936 
L 217.623241 192.79207 
L 216.256513 194.905051 
L 214.888268 196.800406 
L 213.52154 198.493353 
L 212.153295 200.007686 
L 210.786567 201.359437 
L 209.418322 202.569729 
L 208.052099 203.651997 
L 206.685371 204.623241 
L 205.318643 205.496162 
L 203.950398 206.283158 
L 202.58367 206.992645 
L 201.216941 207.634425 
L 199.850213 208.216257 
L 198.48399 208.744735 
L 197.118778 209.22566 
L 195.75205 209.665066 
L 194.385322 210.066926 
L 193.018593 210.435212 
L 191.653381 210.773052 
L 190.286653 211.08426 
L 188.921947 211.370741 
L 187.555218 211.635727 
L 186.190006 211.880627 
L 184.823278 212.107855 
L 183.458066 212.318569 
L 182.09336 212.514434 
L 180.728148 212.696914 
L 179.362936 212.867111 
L 177.997724 213.026078 
L 176.632512 213.174763 
L 175.267805 213.313967 
L 173.902593 213.444558 
L 172.537381 213.567175 
L 171.172169 213.682444 
L 169.808474 213.790815 
L 168.443767 213.893003 
L 167.078555 213.989429 
L 165.714859 214.080379 
L 164.349648 214.166442 
L 162.985952 214.24778 
L 161.621245 214.32487 
L 160.25755 214.39789 
L 158.893854 214.467172 
L 157.530159 214.532963 
L 156.166968 214.595468 
L 154.801756 214.655009 
L 153.438061 214.711623 
L 152.075881 214.765498 
L 150.712691 214.816901 
L 149.348996 214.86596 
L 147.9853 214.912798 
L 146.621604 214.957545 
L 145.259931 215.000261 
L 143.896235 215.041186 
L 142.532539 215.08036 
L 141.17036 215.11784 
L 139.80717 215.153787 
L 138.444991 215.188232 
L 137.082811 215.221283 
L 135.719116 215.253047 
L 134.357442 215.283512 
L 132.995262 215.312801 
L 131.633083 215.340964 
L 130.271409 215.368046 
L 128.90923 215.394121 
L 127.547051 215.41923 
L 126.185377 215.443409 
L 124.823198 215.466722 
L 123.461018 215.489201 
L 122.100861 215.510853 
L 120.738682 215.53178 
L 119.376502 215.551983 
L 118.015839 215.571474 
L 116.654166 215.590321 
L 115.293503 215.608524 
L 113.93284 215.626126 
L 112.571166 215.643165 
L 111.210503 215.659641 
L 109.84984 215.675589 
L 108.489682 215.691026 
L 107.129019 215.705986 
L 105.768862 215.720476 
L 104.408199 215.734526 
L 103.047536 215.748149 
L 101.687379 215.761357 
L 100.326716 215.774177 
L 98.966053 215.786618 
L 97.607412 215.798677 
L 96.246749 215.810405 
L 94.887602 215.821784 
L 93.527444 215.832848 
L 92.168298 215.843593 
L 90.80814 215.854047 
L 89.448994 215.864204 
L 88.089847 215.874083 
L 86.72969 215.883701 
L 85.370543 215.893053 
L 84.011396 215.902157 
L 82.652755 215.911017 
L 81.293609 215.919648 
L 79.934968 215.928052 
L 78.575821 215.936243 
L 77.216674 215.944225 
L 75.85955 215.951993 
L 74.500403 215.959578 
L 73.141762 215.966971 
L 71.784131 215.974177 
L 70.42549 215.981212 
L 69.06786 215.98807 
L 67.708713 215.994771 
L 66.351589 216.001303 
L 64.993958 216.007681 
L 63.635317 216.013915 
L 62.277687 216.019998 
L 60.920562 216.025939 
L 59.562932 216.031745 
L 58.205807 216.037417 
L 56.848177 216.042962 
L 55.490547 216.048383 
L 54.133422 216.053681 
L 52.775791 216.058864 
L 51.420183 216.063925 
L 50.062553 216.068883 
L 48.705428 216.073733 
L 47.349314 216.078474 
L 45.992189 216.083118 
L 44.636075 216.08766 
L 43.27895 216.09211 
z
" clip-path="url(#pca2402596a)" style="fill: #1f77b4; fill-opacity: 0.25"/>
   </g>
   <g id="PolyCollection_2">
    <path d="M 43.27895 215.013582 
L 43.27895 216.404326 
L 44.636075 216.404326 
L 45.992189 216.404326 
L 47.349314 216.404326 
L 48.705428 216.404326 
L 50.062553 216.404326 
L 51.420183 216.404326 
L 52.775791 216.404326 
L 54.133422 216.404326 
L 55.490547 216.404326 
L 56.848177 216.404326 
L 58.205807 216.404326 
L 59.562932 216.404326 
L 60.920562 216.404326 
L 62.277687 216.404326 
L 63.635317 216.404326 
L 64.993958 216.404326 
L 66.351589 216.404326 
L 67.708713 216.404326 
L 69.06786 216.404326 
L 70.42549 216.404326 
L 71.784131 216.404326 
L 73.141762 216.404326 
L 74.500403 216.404326 
L 75.85955 216.404326 
L 77.216674 216.404326 
L 78.575821 216.404326 
L 79.934968 216.404326 
L 81.293609 216.404326 
L 82.652755 216.404326 
L 84.011396 216.404326 
L 85.370543 216.404326 
L 86.72969 216.404326 
L 88.089847 216.404326 
L 89.448994 216.404326 
L 90.80814 216.404326 
L 92.168298 216.404326 
L 93.527444 216.404326 
L 94.887602 216.404326 
L 96.246749 216.404326 
L 97.607412 216.404326 
L 98.966053 216.404326 
L 100.326716 216.404326 
L 101.687379 216.404326 
L 103.047536 216.404326 
L 104.408199 216.404326 
L 105.768862 216.404326 
L 107.129019 216.404326 
L 108.489682 216.404326 
L 109.84984 216.404326 
L 111.210503 216.404326 
L 112.571166 216.404326 
L 113.93284 216.404326 
L 115.293503 216.404326 
L 116.654166 216.404326 
L 118.015839 216.404326 
L 119.376502 216.404326 
L 120.738682 216.404326 
L 122.100861 216.404326 
L 123.461018 216.404326 
L 124.823198 216.404326 
L 126.185377 216.404326 
L 127.547051 216.404326 
L 128.90923 216.404326 
L 130.271409 216.404326 
L 131.633083 216.404326 
L 132.995262 216.404326 
L 134.357442 216.404326 
L 135.719116 216.404326 
L 137.082811 216.404326 
L 138.444991 216.404326 
L 139.80717 216.404326 
L 141.17036 216.404326 
L 142.532539 216.404326 
L 143.896235 216.404326 
L 145.259931 216.404326 
L 146.621604 216.404326 
L 147.9853 216.404326 
L 149.348996 216.404326 
L 150.712691 216.404326 
L 152.075881 216.404326 
L 153.438061 216.404326 
L 154.801756 216.404326 
L 156.166968 216.404326 
L 157.530159 216.404326 
L 158.893854 216.404326 
L 160.25755 216.404326 
L 161.621245 216.404326 
L 162.985952 216.404326 
L 164.349648 216.404326 
L 165.714859 216.404326 
L 167.078555 216.404326 
L 168.443767 216.404326 
L 169.808474 216.404326 
L 171.172169 216.404326 
L 172.537381 216.404326 
L 173.902593 216.404326 
L 175.267805 216.404326 
L 176.632512 216.404326 
L 177.997724 216.404326 
L 179.362936 216.404326 
L 180.728148 216.404326 
L 182.09336 216.404326 
L 183.458066 216.404326 
L 184.823278 216.404326 
L 186.190006 216.404326 
L 187.555218 216.404326 
L 188.921947 216.404326 
L 190.286653 216.404326 
L 191.653381 216.404326 
L 193.018593 216.404326 
L 194.385322 216.404326 
L 195.75205 216.404326 
L 197.118778 216.404326 
L 198.48399 216.404326 
L 199.850213 216.404326 
L 201.216941 216.404326 
L 202.58367 216.404326 
L 203.950398 216.404326 
L 205.318643 216.404326 
L 206.685371 216.404326 
L 208.052099 216.404326 
L 209.418322 216.404326 
L 210.786567 216.404326 
L 212.153295 216.404326 
L 213.52154 216.404326 
L 214.888268 216.404326 
L 216.256513 216.404326 
L 217.623241 216.404326 
L 218.991486 216.404326 
L 220.35973 216.404326 
L 221.72747 216.404326 
L 223.095714 216.404326 
L 224.463959 216.404326 
L 225.832204 216.404326 
L 227.200448 216.404326 
L 228.568693 216.404326 
L 229.936937 216.404326 
L 231.305182 216.404326 
L 232.673427 216.404326 
L 234.043188 216.404326 
L 235.411432 216.404326 
L 236.781193 216.404326 
L 238.148933 216.404326 
L 239.518694 216.404326 
L 240.886938 216.404326 
L 242.256699 216.404326 
L 243.62646 216.404326 
L 244.996221 216.404326 
L 246.364466 216.404326 
L 247.734227 216.404326 
L 249.103988 216.404326 
L 250.473749 216.404326 
L 251.84351 216.404326 
L 253.214787 216.404326 
L 254.584548 216.404326 
L 255.954309 216.404326 
L 257.32407 216.404326 
L 258.695347 216.404326 
L 260.065108 216.404326 
L 261.436386 216.404326 
L 262.806147 216.404326 
L 264.177424 216.404326 
L 265.547185 216.404326 
L 266.918462 216.404326 
L 268.28974 216.404326 
L 269.661017 216.404326 
L 271.032294 216.404326 
L 272.403572 216.404326 
L 273.774849 216.404326 
L 275.146126 216.404326 
L 276.517404 216.404326 
L 277.888681 216.404326 
L 279.259958 216.404326 
L 280.632752 216.404326 
L 282.004029 216.404326 
L 283.375307 216.404326 
L 284.7481 216.404326 
L 286.119378 216.404326 
L 287.492171 216.404326 
L 288.864965 216.404326 
L 290.236242 216.404326 
L 291.609036 216.404326 
L 292.98183 216.404326 
L 294.354623 216.404326 
L 295.727417 216.404326 
L 297.100716 216.404326 
L 298.47351 216.404326 
L 299.846303 216.404326 
L 301.219097 216.404326 
L 302.591891 216.404326 
L 303.964684 216.404326 
L 305.338995 216.404326 
L 306.711788 216.404326 
L 308.086098 216.404326 
L 309.458892 216.404326 
L 310.833202 216.404326 
L 312.205996 216.404326 
L 313.580811 216.404326 
L 314.955121 216.404326 
L 316.327915 216.404326 
L 317.702225 216.404326 
L 319.076535 216.404326 
L 320.450845 216.404326 
L 320.450845 216.195264 
L 320.450845 216.195264 
L 319.076535 216.19185 
L 317.702225 216.18835 
L 316.327915 216.18476 
L 314.955121 216.181081 
L 313.580811 216.177301 
L 312.205996 216.17342 
L 310.833202 216.169441 
L 309.458892 216.16535 
L 308.086098 216.161152 
L 306.711788 216.156834 
L 305.338995 216.1524 
L 303.964684 216.147837 
L 302.591891 216.14315 
L 301.219097 216.138328 
L 299.846303 216.133366 
L 298.47351 216.128258 
L 297.100716 216.122999 
L 295.727417 216.11758 
L 294.354623 216.111998 
L 292.98183 216.106245 
L 291.609036 216.100314 
L 290.236242 216.094196 
L 288.864965 216.08789 
L 287.492171 216.081374 
L 286.119378 216.074646 
L 284.7481 216.067703 
L 283.375307 216.06052 
L 282.004029 216.053102 
L 280.632752 216.04543 
L 279.259958 216.037482 
L 277.888681 216.029263 
L 276.517404 216.020751 
L 275.146126 216.01193 
L 273.774849 216.002785 
L 272.403572 215.993299 
L 271.032294 215.983455 
L 269.661017 215.973233 
L 268.28974 215.962612 
L 266.918462 215.951571 
L 265.547185 215.940086 
L 264.177424 215.928145 
L 262.806147 215.915695 
L 261.436386 215.902734 
L 260.065108 215.889202 
L 258.695347 215.875095 
L 257.32407 215.860345 
L 255.954309 215.844945 
L 254.584548 215.828835 
L 253.214787 215.81197 
L 251.84351 215.794279 
L 250.473749 215.775746 
L 249.103988 215.756291 
L 247.734227 215.735849 
L 246.364466 215.714348 
L 244.996221 215.691735 
L 243.62646 215.667874 
L 242.256699 215.642693 
L 240.886938 215.616089 
L 239.518694 215.587975 
L 238.148933 215.558163 
L 236.781193 215.526586 
L 235.411432 215.492994 
L 234.043188 215.457293 
L 232.673427 215.419206 
L 231.305182 215.378594 
L 229.936937 215.335164 
L 228.568693 215.288634 
L 227.200448 215.23868 
L 225.832204 215.184936 
L 224.463959 215.126982 
L 223.095714 215.064338 
L 221.72747 214.996448 
L 220.35973 214.9227 
L 218.991486 214.842291 
L 217.623241 214.754375 
L 216.256513 214.658036 
L 214.888268 214.551846 
L 213.52154 214.434598 
L 212.153295 214.3043 
L 210.786567 214.159155 
L 209.418322 213.996298 
L 208.052099 213.813049 
L 206.685371 213.605252 
L 205.318643 213.368162 
L 203.950398 213.095375 
L 202.58367 212.779723 
L 201.216941 212.410874 
L 199.850213 211.975643 
L 198.48399 211.456687 
L 197.118778 210.830636 
L 195.75205 210.063582 
L 194.385322 209.110208 
L 193.018593 207.904655 
L 191.653381 206.352463 
L 190.286653 204.306226 
L 188.921947 201.553144 
L 187.555218 197.750182 
L 186.190006 192.404973 
L 184.823278 184.82121 
L 183.458066 174.382016 
L 182.09336 161.559259 
L 180.728148 150.06783 
L 179.362936 146.11645 
L 177.997724 150.103577 
L 176.632512 154.235917 
L 175.267805 150.275125 
L 173.902593 136.319281 
L 172.537381 135.294583 
L 171.172169 158.358628 
L 169.808474 177.578804 
L 168.443767 188.001044 
L 167.078555 193.17247 
L 165.714859 195.123724 
L 164.349648 194.216438 
L 162.985952 189.020581 
L 161.621245 176.511328 
L 160.25755 169.224925 
L 158.893854 181.228925 
L 157.530159 188.243229 
L 156.166968 188.382903 
L 154.801756 183.467738 
L 153.438061 172.555861 
L 152.075881 153.452948 
L 150.712691 131.580844 
L 149.348996 129.536279 
L 147.9853 142.780552 
L 146.621604 147.787698 
L 145.259931 140.092167 
L 143.896235 127.511904 
L 142.532539 128.802775 
L 141.17036 146.660779 
L 139.80717 164.464262 
L 138.444991 175.600028 
L 137.082811 180.978482 
L 135.719116 181.926587 
L 134.357442 178.638579 
L 132.995262 169.904303 
L 131.633083 152.96505 
L 130.271409 126.284479 
L 128.90923 104.232763 
L 127.547051 114.969177 
L 126.185377 143.261449 
L 124.823198 164.558167 
L 123.461018 176.554265 
L 122.100861 182.413114 
L 120.738682 184.27818 
L 119.376502 183.030097 
L 118.015839 178.785864 
L 116.654166 171.300366 
L 115.293503 160.882186 
L 113.93284 150.313251 
L 112.571166 145.822373 
L 111.210503 151.196179 
L 109.84984 162.093957 
L 108.489682 172.367177 
L 107.129019 179.349249 
L 105.768862 182.488171 
L 104.408199 181.28605 
L 103.047536 174.497448 
L 101.687379 163.207339 
L 100.326716 160.79262 
L 98.966053 173.259981 
L 97.607412 185.144838 
L 96.246749 191.772708 
L 94.887602 194.650164 
L 93.527444 194.960152 
L 92.168298 192.930268 
L 90.80814 187.904175 
L 89.448994 178.143384 
L 88.089847 161.151548 
L 86.72969 140.141864 
L 85.370543 134.67489 
L 84.011396 144.969856 
L 82.652755 149.653995 
L 81.293609 148.561984 
L 79.934968 155.123323 
L 78.575821 170.331292 
L 77.216674 184.159951 
L 75.85955 193.495484 
L 74.500403 199.46787 
L 73.141762 203.361566 
L 71.784131 206.003129 
L 70.42549 207.872145 
L 69.06786 209.241232 
L 67.708713 210.277706 
L 66.351589 211.081368 
L 64.993958 211.720002 
L 63.635317 212.237513 
L 62.277687 212.663268 
L 60.920562 213.018791 
L 59.562932 213.319649 
L 58.205807 213.576885 
L 56.848177 213.799149 
L 55.490547 213.992794 
L 54.133422 214.16276 
L 52.775791 214.3131 
L 51.420183 214.446676 
L 50.062553 214.566392 
L 48.705428 214.674034 
L 47.349314 214.771249 
L 45.992189 214.859557 
L 44.636075 214.939974 
L 43.27895 215.013582 
z
" clip-path="url(#pca2402596a)" style="fill: #ff7f0e; fill-opacity: 0.25"/>
   </g>
   <g id="line2d_1">
    <path d="M 43.27895 182.657614 
L 44.636075 176.8356 
L 45.992189 176.030944 
L 47.349314 180.666627 
L 48.705428 185.975156 
L 50.062553 190.54446 
L 51.420183 191.559071 
L 52.775791 190.814136 
L 54.133422 186.495981 
L 55.490547 184.458812 
L 56.848177 186.073663 
L 58.205807 189.716048 
L 59.562932 190.884603 
L 60.920562 188.347762 
L 62.277687 184.131462 
L 63.635317 177.177255 
L 64.993958 173.945709 
L 67.708713 170.876944 
L 69.06786 174.456417 
L 71.784131 187.642686 
L 73.141762 190.680279 
L 74.500403 191.304437 
L 75.85955 189.76672 
L 77.216674 182.372756 
L 78.575821 164.402327 
L 79.934968 150.284621 
L 81.293609 145.723177 
L 82.652755 153.303898 
L 84.011396 138.807215 
L 85.370543 132.241347 
L 89.448994 182.244341 
L 90.80814 189.198941 
L 92.168298 192.267299 
L 93.527444 194.792117 
L 94.887602 192.709423 
L 96.246749 187.593293 
L 97.607412 180.014163 
L 98.966053 168.098778 
L 100.326716 160.036221 
L 101.687379 164.759854 
L 104.408199 184.466221 
L 105.768862 186.744717 
L 107.129019 181.212259 
L 108.489682 168.229627 
L 109.84984 152.933665 
L 111.210503 144.76412 
L 112.571166 147.384908 
L 113.93284 155.356466 
L 115.293503 165.465438 
L 116.654166 173.561151 
L 118.015839 180.344812 
L 119.376502 183.696057 
L 120.738682 177.807849 
L 122.100861 169.082708 
L 123.461018 165.007828 
L 124.823198 159.389181 
L 126.185377 135.959799 
L 127.547051 107.350148 
L 128.90923 106.179276 
L 130.271409 132.587386 
L 131.633083 162.238249 
L 132.995262 177.579065 
L 134.357442 180.157458 
L 135.719116 185.138026 
L 137.082811 187.752452 
L 138.444991 177.784727 
L 139.80717 148.762779 
L 141.17036 131.890359 
L 142.532539 129.814173 
L 143.896235 133.855957 
L 145.259931 136.904273 
L 146.621604 140.650615 
L 147.9853 138.477756 
L 149.348996 129.676511 
L 150.712691 131.702526 
L 152.075881 158.997563 
L 153.438061 178.89555 
L 154.801756 190.131237 
L 156.166968 190.481135 
L 157.530159 184.225969 
L 158.893854 171.810596 
L 160.25755 169.102824 
L 161.621245 178.083624 
L 162.985952 188.58794 
L 164.349648 192.05011 
L 165.714859 192.473622 
L 167.078555 190.971491 
L 168.443767 184.712082 
L 169.808474 168.508146 
L 171.172169 144.318405 
L 172.537381 131.155416 
L 173.902593 137.020502 
L 175.267805 149.049632 
L 176.632512 153.699815 
L 177.997724 145.997325 
L 179.362936 139.816009 
L 180.728148 147.472503 
L 182.09336 162.572439 
L 183.458066 180.227118 
L 184.823278 190.423937 
L 186.190006 191.68125 
L 187.555218 186.891703 
L 188.921947 199.999356 
L 190.286653 215.743707 
L 191.653381 216.404326 
L 193.018593 216.404326 
L 194.385322 203.381882 
L 195.75205 186.268166 
L 197.118778 186.016079 
L 198.48399 188.581533 
L 199.850213 193.144662 
L 201.216941 196.932467 
L 202.58367 199.587852 
L 203.950398 201.991559 
L 205.318643 200.441499 
L 206.685371 204.128303 
L 208.052099 214.085081 
L 209.418322 215.052278 
L 210.786567 208.792005 
L 212.153295 203.482649 
L 213.52154 203.837517 
L 214.888268 200.929789 
L 216.256513 197.523202 
L 217.623241 196.655874 
L 218.991486 195.505376 
L 220.35973 192.592679 
L 221.72747 183.904392 
L 223.095714 171.256902 
L 224.463959 163.753277 
L 227.200448 169.282503 
L 228.568693 164.947138 
L 229.936937 162.455905 
L 232.673427 162.319885 
L 234.043188 163.809828 
L 235.411432 167.385068 
L 236.781193 165.091205 
L 238.148933 158.531604 
L 239.518694 160.285494 
L 240.886938 165.359793 
L 242.256699 164.3689 
L 243.62646 160.560282 
L 244.996221 156.047866 
L 246.364466 149.672229 
L 247.734227 152.617349 
L 249.103988 180.987197 
L 250.473749 180.635745 
L 251.84351 181.630743 
L 253.214787 179.74299 
L 254.584548 172.977451 
L 255.954309 168.611174 
L 257.32407 170.3721 
L 258.695347 171.20734 
L 260.065108 166.72245 
L 261.436386 205.116918 
L 262.806147 204.298018 
L 264.177424 203.794464 
L 265.547185 204.289961 
L 266.918462 204.389169 
L 268.28974 202.758925 
L 271.032294 195.380341 
L 272.403572 195.153112 
L 273.774849 197.411003 
L 275.146126 197.869313 
L 276.517404 195.418767 
L 277.888681 194.071513 
L 279.259958 192.958801 
L 280.632752 189.065427 
L 282.004029 186.730993 
L 283.375307 183.048972 
L 284.7481 174.910892 
L 286.119378 165.895323 
L 287.492171 145.692149 
L 288.864965 106.247758 
L 290.246258 -1 
M 300.378527 -1 
L 301.219097 81.561335 
L 302.591891 119.532688 
L 303.964684 141.791919 
L 305.338995 156.610296 
L 306.711788 169.445599 
L 308.086098 179.098027 
L 309.458892 182.991229 
L 310.833202 185.791769 
L 312.205996 184.704716 
L 313.580811 183.238659 
L 314.955121 186.143954 
L 316.327915 189.760664 
L 317.702225 194.113261 
L 319.076535 197.690332 
L 320.450845 198.780668 
L 320.450845 198.780668 
" clip-path="url(#pca2402596a)" style="fill: none; stroke: #1f77b4; stroke-width: 1.5; stroke-linecap: square"/>
    <defs>
     <path id="m98c45dbc48" d="M 0 1.5 
C 0.397805 1.5 0.77937 1.341951 1.06066 1.06066 
C 1.341951 0.77937 1.5 0.397805 1.5 0 
C 1.5 -0.397805 1.341951 -0.77937 1.06066 -1.06066 
C 0.77937 -1.341951 0.397805 -1.5 0 -1.5 
C -0.397805 -1.5 -0.77937 -1.341951 -1.06066 -1.06066 
C -1.341951 -0.77937 -1.5 -0.397805 -1.5 0 
C -1.5 0.397805 -1.341951 0.77937 -1.06066 1.06066 
C -0.77937 1.341951 -0.397805 1.5 0 1.5 
z
" style="stroke: #1f77b4"/>
    </defs>
    <g clip-path="url(#pca2402596a)">
     <use xlink:href="#m98c45dbc48" x="43.27895" y="182.657614" style="fill-opacity: 0; stroke: #1f77b4"/>
     <use xlink:href="#m98c45dbc48" x="44.636075" y="176.8356" style="fill-opacity: 0; stroke: #1f77b4"/>
     <use xlink:href="#m98c45dbc48" x="45.992189" y="176.030944" style="fill-opacity: 0; stroke: #1f77b4"/>
     <use xlink:href="#m98c45dbc48" x="47.349314" y="180.666627" style="fill-opacity: 0; stroke: #1f77b4"/>
     <use xlink:href="#m98c45dbc48" x="48.705428" y="185.975156" style="fill-opacity: 0; stroke: #1f77b4"/>
     <use xlink:href="#m98c45dbc48" x="50.062553" y="190.54446" style="fill-opacity: 0; stroke: #1f77b4"/>
     <use xlink:href="#m98c45dbc48" x="51.420183" y="191.559071" style="fill-opacity: 0; stroke: #1f77b4"/>
     <use xlink:href="#m98c45dbc48" x="52.775791" y="190.814136" style="fill-opacity: 0; stroke: #1f77b4"/>
     <use xlink:href="#m98c45dbc48" x="54.133422" y="186.495981" style="fill-opacity: 0; stroke: #1f77b4"/>
     <use xlink:href="#m98c45dbc48" x="55.490547" y="184.458812" style="fill-opacity: 0; stroke: #1f77b4"/>
     <use xlink:href="#m98c45dbc48" x="56.848177" y="186.073663" style="fill-opacity: 0; stroke: #1f77b4"/>
     <use xlink:href="#m98c45dbc48" x="58.205807" y="189.716048" style="fill-opacity: 0; stroke: #1f77b4"/>
     <use xlink:href="#m98c45dbc48" x="59.562932" y="190.884603" style="fill-opacity: 0; stroke: #1f77b4"/>
     <use xlink:href="#m98c45dbc48" x="60.920562" y="188.347762" style="fill-opacity: 0; stroke: #1f77b4"/>
     <use xlink:href="#m98c45dbc48" x="62.277687" y="184.131462" style="fill-opacity: 0; stroke: #1f77b4"/>
     <use xlink:href="#m98c45dbc48" x="63.635317" y="177.177255" style="fill-opacity: 0; stroke: #1f77b4"/>
     <use xlink:href="#m98c45dbc48" x="64.993958" y="173.945709" style="fill-opacity: 0; stroke: #1f77b4"/>
     <use xlink:href="#m98c45dbc48" x="66.351589" y="172.363714" style="fill-opacity: 0; stroke: #1f77b4"/>
     <use xlink:href="#m98c45dbc48" x="67.708713" y="170.876944" style="fill-opacity: 0; stroke: #1f77b4"/>
     <use xlink:href="#m98c45dbc48" x="69.06786" y="174.456417" style="fill-opacity: 0; stroke: #1f77b4"/>
     <use xlink:href="#m98c45dbc48" x="70.42549" y="180.864258" style="fill-opacity: 0; stroke: #1f77b4"/>
     <use xlink:href="#m98c45dbc48" x="71.784131" y="187.642686" style="fill-opacity: 0; stroke: #1f77b4"/>
     <use xlink:href="#m98c45dbc48" x="73.141762" y="190.680279" style="fill-opacity: 0; stroke: #1f77b4"/>
     <use xlink:href="#m98c45dbc48" x="74.500403" y="191.304437" style="fill-opacity: 0; stroke: #1f77b4"/>
     <use xlink:href="#m98c45dbc48" x="75.85955" y="189.76672" style="fill-opacity: 0; stroke: #1f77b4"/>
     <use xlink:href="#m98c45dbc48" x="77.216674" y="182.372756" style="fill-opacity: 0; stroke: #1f77b4"/>
     <use xlink:href="#m98c45dbc48" x="78.575821" y="164.402327" style="fill-opacity: 0; stroke: #1f77b4"/>
     <use xlink:href="#m98c45dbc48" x="79.934968" y="150.284621" style="fill-opacity: 0; stroke: #1f77b4"/>
     <use xlink:href="#m98c45dbc48" x="81.293609" y="145.723177" style="fill-opacity: 0; stroke: #1f77b4"/>
     <use xlink:href="#m98c45dbc48" x="82.652755" y="153.303898" style="fill-opacity: 0; stroke: #1f77b4"/>
     <use xlink:href="#m98c45dbc48" x="84.011396" y="138.807215" style="fill-opacity: 0; stroke: #1f77b4"/>
     <use xlink:href="#m98c45dbc48" x="85.370543" y="132.241347" style="fill-opacity: 0; stroke: #1f77b4"/>
     <use xlink:href="#m98c45dbc48" x="86.72969" y="149.133371" style="fill-opacity: 0; stroke: #1f77b4"/>
     <use xlink:href="#m98c45dbc48" x="88.089847" y="166.508886" style="fill-opacity: 0; stroke: #1f77b4"/>
     <use xlink:href="#m98c45dbc48" x="89.448994" y="182.244341" style="fill-opacity: 0; stroke: #1f77b4"/>
     <use xlink:href="#m98c45dbc48" x="90.80814" y="189.198941" style="fill-opacity: 0; stroke: #1f77b4"/>
     <use xlink:href="#m98c45dbc48" x="92.168298" y="192.267299" style="fill-opacity: 0; stroke: #1f77b4"/>
     <use xlink:href="#m98c45dbc48" x="93.527444" y="194.792117" style="fill-opacity: 0; stroke: #1f77b4"/>
     <use xlink:href="#m98c45dbc48" x="94.887602" y="192.709423" style="fill-opacity: 0; stroke: #1f77b4"/>
     <use xlink:href="#m98c45dbc48" x="96.246749" y="187.593293" style="fill-opacity: 0; stroke: #1f77b4"/>
     <use xlink:href="#m98c45dbc48" x="97.607412" y="180.014163" style="fill-opacity: 0; stroke: #1f77b4"/>
     <use xlink:href="#m98c45dbc48" x="98.966053" y="168.098778" style="fill-opacity: 0; stroke: #1f77b4"/>
     <use xlink:href="#m98c45dbc48" x="100.326716" y="160.036221" style="fill-opacity: 0; stroke: #1f77b4"/>
     <use xlink:href="#m98c45dbc48" x="101.687379" y="164.759854" style="fill-opacity: 0; stroke: #1f77b4"/>
     <use xlink:href="#m98c45dbc48" x="103.047536" y="174.552284" style="fill-opacity: 0; stroke: #1f77b4"/>
     <use xlink:href="#m98c45dbc48" x="104.408199" y="184.466221" style="fill-opacity: 0; stroke: #1f77b4"/>
     <use xlink:href="#m98c45dbc48" x="105.768862" y="186.744717" style="fill-opacity: 0; stroke: #1f77b4"/>
     <use xlink:href="#m98c45dbc48" x="107.129019" y="181.212259" style="fill-opacity: 0; stroke: #1f77b4"/>
     <use xlink:href="#m98c45dbc48" x="108.489682" y="168.229627" style="fill-opacity: 0; stroke: #1f77b4"/>
     <use xlink:href="#m98c45dbc48" x="109.84984" y="152.933665" style="fill-opacity: 0; stroke: #1f77b4"/>
     <use xlink:href="#m98c45dbc48" x="111.210503" y="144.76412" style="fill-opacity: 0; stroke: #1f77b4"/>
     <use xlink:href="#m98c45dbc48" x="112.571166" y="147.384908" style="fill-opacity: 0; stroke: #1f77b4"/>
     <use xlink:href="#m98c45dbc48" x="113.93284" y="155.356466" style="fill-opacity: 0; stroke: #1f77b4"/>
     <use xlink:href="#m98c45dbc48" x="115.293503" y="165.465438" style="fill-opacity: 0; stroke: #1f77b4"/>
     <use xlink:href="#m98c45dbc48" x="116.654166" y="173.561151" style="fill-opacity: 0; stroke: #1f77b4"/>
     <use xlink:href="#m98c45dbc48" x="118.015839" y="180.344812" style="fill-opacity: 0; stroke: #1f77b4"/>
     <use xlink:href="#m98c45dbc48" x="119.376502" y="183.696057" style="fill-opacity: 0; stroke: #1f77b4"/>
     <use xlink:href="#m98c45dbc48" x="120.738682" y="177.807849" style="fill-opacity: 0; stroke: #1f77b4"/>
     <use xlink:href="#m98c45dbc48" x="122.100861" y="169.082708" style="fill-opacity: 0; stroke: #1f77b4"/>
     <use xlink:href="#m98c45dbc48" x="123.461018" y="165.007828" style="fill-opacity: 0; stroke: #1f77b4"/>
     <use xlink:href="#m98c45dbc48" x="124.823198" y="159.389181" style="fill-opacity: 0; stroke: #1f77b4"/>
     <use xlink:href="#m98c45dbc48" x="126.185377" y="135.959799" style="fill-opacity: 0; stroke: #1f77b4"/>
     <use xlink:href="#m98c45dbc48" x="127.547051" y="107.350148" style="fill-opacity: 0; stroke: #1f77b4"/>
     <use xlink:href="#m98c45dbc48" x="128.90923" y="106.179276" style="fill-opacity: 0; stroke: #1f77b4"/>
     <use xlink:href="#m98c45dbc48" x="130.271409" y="132.587386" style="fill-opacity: 0; stroke: #1f77b4"/>
     <use xlink:href="#m98c45dbc48" x="131.633083" y="162.238249" style="fill-opacity: 0; stroke: #1f77b4"/>
     <use xlink:href="#m98c45dbc48" x="132.995262" y="177.579065" style="fill-opacity: 0; stroke: #1f77b4"/>
     <use xlink:href="#m98c45dbc48" x="134.357442" y="180.157458" style="fill-opacity: 0; stroke: #1f77b4"/>
     <use xlink:href="#m98c45dbc48" x="135.719116" y="185.138026" style="fill-opacity: 0; stroke: #1f77b4"/>
     <use xlink:href="#m98c45dbc48" x="137.082811" y="187.752452" style="fill-opacity: 0; stroke: #1f77b4"/>
     <use xlink:href="#m98c45dbc48" x="138.444991" y="177.784727" style="fill-opacity: 0; stroke: #1f77b4"/>
     <use xlink:href="#m98c45dbc48" x="139.80717" y="148.762779" style="fill-opacity: 0; stroke: #1f77b4"/>
     <use xlink:href="#m98c45dbc48" x="141.17036" y="131.890359" style="fill-opacity: 0; stroke: #1f77b4"/>
     <use xlink:href="#m98c45dbc48" x="142.532539" y="129.814173" style="fill-opacity: 0; stroke: #1f77b4"/>
     <use xlink:href="#m98c45dbc48" x="143.896235" y="133.855957" style="fill-opacity: 0; stroke: #1f77b4"/>
     <use xlink:href="#m98c45dbc48" x="145.259931" y="136.904273" style="fill-opacity: 0; stroke: #1f77b4"/>
     <use xlink:href="#m98c45dbc48" x="146.621604" y="140.650615" style="fill-opacity: 0; stroke: #1f77b4"/>
     <use xlink:href="#m98c45dbc48" x="147.9853" y="138.477756" style="fill-opacity: 0; stroke: #1f77b4"/>
     <use xlink:href="#m98c45dbc48" x="149.348996" y="129.676511" style="fill-opacity: 0; stroke: #1f77b4"/>
     <use xlink:href="#m98c45dbc48" x="150.712691" y="131.702526" style="fill-opacity: 0; stroke: #1f77b4"/>
     <use xlink:href="#m98c45dbc48" x="152.075881" y="158.997563" style="fill-opacity: 0; stroke: #1f77b4"/>
     <use xlink:href="#m98c45dbc48" x="153.438061" y="178.89555" style="fill-opacity: 0; stroke: #1f77b4"/>
     <use xlink:href="#m98c45dbc48" x="154.801756" y="190.131237" style="fill-opacity: 0; stroke: #1f77b4"/>
     <use xlink:href="#m98c45dbc48" x="156.166968" y="190.481135" style="fill-opacity: 0; stroke: #1f77b4"/>
     <use xlink:href="#m98c45dbc48" x="157.530159" y="184.225969" style="fill-opacity: 0; stroke: #1f77b4"/>
     <use xlink:href="#m98c45dbc48" x="158.893854" y="171.810596" style="fill-opacity: 0; stroke: #1f77b4"/>
     <use xlink:href="#m98c45dbc48" x="160.25755" y="169.102824" style="fill-opacity: 0; stroke: #1f77b4"/>
     <use xlink:href="#m98c45dbc48" x="161.621245" y="178.083624" style="fill-opacity: 0; stroke: #1f77b4"/>
     <use xlink:href="#m98c45dbc48" x="162.985952" y="188.58794" style="fill-opacity: 0; stroke: #1f77b4"/>
     <use xlink:href="#m98c45dbc48" x="164.349648" y="192.05011" style="fill-opacity: 0; stroke: #1f77b4"/>
     <use xlink:href="#m98c45dbc48" x="165.714859" y="192.473622" style="fill-opacity: 0; stroke: #1f77b4"/>
     <use xlink:href="#m98c45dbc48" x="167.078555" y="190.971491" style="fill-opacity: 0; stroke: #1f77b4"/>
     <use xlink:href="#m98c45dbc48" x="168.443767" y="184.712082" style="fill-opacity: 0; stroke: #1f77b4"/>
     <use xlink:href="#m98c45dbc48" x="169.808474" y="168.508146" style="fill-opacity: 0; stroke: #1f77b4"/>
     <use xlink:href="#m98c45dbc48" x="171.172169" y="144.318405" style="fill-opacity: 0; stroke: #1f77b4"/>
     <use xlink:href="#m98c45dbc48" x="172.537381" y="131.155416" style="fill-opacity: 0; stroke: #1f77b4"/>
     <use xlink:href="#m98c45dbc48" x="173.902593" y="137.020502" style="fill-opacity: 0; stroke: #1f77b4"/>
     <use xlink:href="#m98c45dbc48" x="175.267805" y="149.049632" style="fill-opacity: 0; stroke: #1f77b4"/>
     <use xlink:href="#m98c45dbc48" x="176.632512" y="153.699815" style="fill-opacity: 0; stroke: #1f77b4"/>
     <use xlink:href="#m98c45dbc48" x="177.997724" y="145.997325" style="fill-opacity: 0; stroke: #1f77b4"/>
     <use xlink:href="#m98c45dbc48" x="179.362936" y="139.816009" style="fill-opacity: 0; stroke: #1f77b4"/>
     <use xlink:href="#m98c45dbc48" x="180.728148" y="147.472503" style="fill-opacity: 0; stroke: #1f77b4"/>
     <use xlink:href="#m98c45dbc48" x="182.09336" y="162.572439" style="fill-opacity: 0; stroke: #1f77b4"/>
     <use xlink:href="#m98c45dbc48" x="183.458066" y="180.227118" style="fill-opacity: 0; stroke: #1f77b4"/>
     <use xlink:href="#m98c45dbc48" x="184.823278" y="190.423937" style="fill-opacity: 0; stroke: #1f77b4"/>
     <use xlink:href="#m98c45dbc48" x="186.190006" y="191.68125" style="fill-opacity: 0; stroke: #1f77b4"/>
     <use xlink:href="#m98c45dbc48" x="187.555218" y="186.891703" style="fill-opacity: 0; stroke: #1f77b4"/>
     <use xlink:href="#m98c45dbc48" x="188.921947" y="199.999356" style="fill-opacity: 0; stroke: #1f77b4"/>
     <use xlink:href="#m98c45dbc48" x="190.286653" y="215.743707" style="fill-opacity: 0; stroke: #1f77b4"/>
     <use xlink:href="#m98c45dbc48" x="191.653381" y="216.404326" style="fill-opacity: 0; stroke: #1f77b4"/>
     <use xlink:href="#m98c45dbc48" x="193.018593" y="216.404326" style="fill-opacity: 0; stroke: #1f77b4"/>
     <use xlink:href="#m98c45dbc48" x="194.385322" y="203.381882" style="fill-opacity: 0; stroke: #1f77b4"/>
     <use xlink:href="#m98c45dbc48" x="195.75205" y="186.268166" style="fill-opacity: 0; stroke: #1f77b4"/>
     <use xlink:href="#m98c45dbc48" x="197.118778" y="186.016079" style="fill-opacity: 0; stroke: #1f77b4"/>
     <use xlink:href="#m98c45dbc48" x="198.48399" y="188.581533" style="fill-opacity: 0; stroke: #1f77b4"/>
     <use xlink:href="#m98c45dbc48" x="199.850213" y="193.144662" style="fill-opacity: 0; stroke: #1f77b4"/>
     <use xlink:href="#m98c45dbc48" x="201.216941" y="196.932467" style="fill-opacity: 0; stroke: #1f77b4"/>
     <use xlink:href="#m98c45dbc48" x="202.58367" y="199.587852" style="fill-opacity: 0; stroke: #1f77b4"/>
     <use xlink:href="#m98c45dbc48" x="203.950398" y="201.991559" style="fill-opacity: 0; stroke: #1f77b4"/>
     <use xlink:href="#m98c45dbc48" x="205.318643" y="200.441499" style="fill-opacity: 0; stroke: #1f77b4"/>
     <use xlink:href="#m98c45dbc48" x="206.685371" y="204.128303" style="fill-opacity: 0; stroke: #1f77b4"/>
     <use xlink:href="#m98c45dbc48" x="208.052099" y="214.085081" style="fill-opacity: 0; stroke: #1f77b4"/>
     <use xlink:href="#m98c45dbc48" x="209.418322" y="215.052278" style="fill-opacity: 0; stroke: #1f77b4"/>
     <use xlink:href="#m98c45dbc48" x="210.786567" y="208.792005" style="fill-opacity: 0; stroke: #1f77b4"/>
     <use xlink:href="#m98c45dbc48" x="212.153295" y="203.482649" style="fill-opacity: 0; stroke: #1f77b4"/>
     <use xlink:href="#m98c45dbc48" x="213.52154" y="203.837517" style="fill-opacity: 0; stroke: #1f77b4"/>
     <use xlink:href="#m98c45dbc48" x="214.888268" y="200.929789" style="fill-opacity: 0; stroke: #1f77b4"/>
     <use xlink:href="#m98c45dbc48" x="216.256513" y="197.523202" style="fill-opacity: 0; stroke: #1f77b4"/>
     <use xlink:href="#m98c45dbc48" x="217.623241" y="196.655874" style="fill-opacity: 0; stroke: #1f77b4"/>
     <use xlink:href="#m98c45dbc48" x="218.991486" y="195.505376" style="fill-opacity: 0; stroke: #1f77b4"/>
     <use xlink:href="#m98c45dbc48" x="220.35973" y="192.592679" style="fill-opacity: 0; stroke: #1f77b4"/>
     <use xlink:href="#m98c45dbc48" x="221.72747" y="183.904392" style="fill-opacity: 0; stroke: #1f77b4"/>
     <use xlink:href="#m98c45dbc48" x="223.095714" y="171.256902" style="fill-opacity: 0; stroke: #1f77b4"/>
     <use xlink:href="#m98c45dbc48" x="224.463959" y="163.753277" style="fill-opacity: 0; stroke: #1f77b4"/>
     <use xlink:href="#m98c45dbc48" x="225.832204" y="166.451621" style="fill-opacity: 0; stroke: #1f77b4"/>
     <use xlink:href="#m98c45dbc48" x="227.200448" y="169.282503" style="fill-opacity: 0; stroke: #1f77b4"/>
     <use xlink:href="#m98c45dbc48" x="228.568693" y="164.947138" style="fill-opacity: 0; stroke: #1f77b4"/>
     <use xlink:href="#m98c45dbc48" x="229.936937" y="162.455905" style="fill-opacity: 0; stroke: #1f77b4"/>
     <use xlink:href="#m98c45dbc48" x="231.305182" y="162.383044" style="fill-opacity: 0; stroke: #1f77b4"/>
     <use xlink:href="#m98c45dbc48" x="232.673427" y="162.319885" style="fill-opacity: 0; stroke: #1f77b4"/>
     <use xlink:href="#m98c45dbc48" x="234.043188" y="163.809828" style="fill-opacity: 0; stroke: #1f77b4"/>
     <use xlink:href="#m98c45dbc48" x="235.411432" y="167.385068" style="fill-opacity: 0; stroke: #1f77b4"/>
     <use xlink:href="#m98c45dbc48" x="236.781193" y="165.091205" style="fill-opacity: 0; stroke: #1f77b4"/>
     <use xlink:href="#m98c45dbc48" x="238.148933" y="158.531604" style="fill-opacity: 0; stroke: #1f77b4"/>
     <use xlink:href="#m98c45dbc48" x="239.518694" y="160.285494" style="fill-opacity: 0; stroke: #1f77b4"/>
     <use xlink:href="#m98c45dbc48" x="240.886938" y="165.359793" style="fill-opacity: 0; stroke: #1f77b4"/>
     <use xlink:href="#m98c45dbc48" x="242.256699" y="164.3689" style="fill-opacity: 0; stroke: #1f77b4"/>
     <use xlink:href="#m98c45dbc48" x="243.62646" y="160.560282" style="fill-opacity: 0; stroke: #1f77b4"/>
     <use xlink:href="#m98c45dbc48" x="244.996221" y="156.047866" style="fill-opacity: 0; stroke: #1f77b4"/>
     <use xlink:href="#m98c45dbc48" x="246.364466" y="149.672229" style="fill-opacity: 0; stroke: #1f77b4"/>
     <use xlink:href="#m98c45dbc48" x="247.734227" y="152.617349" style="fill-opacity: 0; stroke: #1f77b4"/>
     <use xlink:href="#m98c45dbc48" x="249.103988" y="180.987197" style="fill-opacity: 0; stroke: #1f77b4"/>
     <use xlink:href="#m98c45dbc48" x="250.473749" y="180.635745" style="fill-opacity: 0; stroke: #1f77b4"/>
     <use xlink:href="#m98c45dbc48" x="251.84351" y="181.630743" style="fill-opacity: 0; stroke: #1f77b4"/>
     <use xlink:href="#m98c45dbc48" x="253.214787" y="179.74299" style="fill-opacity: 0; stroke: #1f77b4"/>
     <use xlink:href="#m98c45dbc48" x="254.584548" y="172.977451" style="fill-opacity: 0; stroke: #1f77b4"/>
     <use xlink:href="#m98c45dbc48" x="255.954309" y="168.611174" style="fill-opacity: 0; stroke: #1f77b4"/>
     <use xlink:href="#m98c45dbc48" x="257.32407" y="170.3721" style="fill-opacity: 0; stroke: #1f77b4"/>
     <use xlink:href="#m98c45dbc48" x="258.695347" y="171.20734" style="fill-opacity: 0; stroke: #1f77b4"/>
     <use xlink:href="#m98c45dbc48" x="260.065108" y="166.72245" style="fill-opacity: 0; stroke: #1f77b4"/>
     <use xlink:href="#m98c45dbc48" x="261.436386" y="205.116918" style="fill-opacity: 0; stroke: #1f77b4"/>
     <use xlink:href="#m98c45dbc48" x="262.806147" y="204.298018" style="fill-opacity: 0; stroke: #1f77b4"/>
     <use xlink:href="#m98c45dbc48" x="264.177424" y="203.794464" style="fill-opacity: 0; stroke: #1f77b4"/>
     <use xlink:href="#m98c45dbc48" x="265.547185" y="204.289961" style="fill-opacity: 0; stroke: #1f77b4"/>
     <use xlink:href="#m98c45dbc48" x="266.918462" y="204.389169" style="fill-opacity: 0; stroke: #1f77b4"/>
     <use xlink:href="#m98c45dbc48" x="268.28974" y="202.758925" style="fill-opacity: 0; stroke: #1f77b4"/>
     <use xlink:href="#m98c45dbc48" x="269.661017" y="198.94359" style="fill-opacity: 0; stroke: #1f77b4"/>
     <use xlink:href="#m98c45dbc48" x="271.032294" y="195.380341" style="fill-opacity: 0; stroke: #1f77b4"/>
     <use xlink:href="#m98c45dbc48" x="272.403572" y="195.153112" style="fill-opacity: 0; stroke: #1f77b4"/>
     <use xlink:href="#m98c45dbc48" x="273.774849" y="197.411003" style="fill-opacity: 0; stroke: #1f77b4"/>
     <use xlink:href="#m98c45dbc48" x="275.146126" y="197.869313" style="fill-opacity: 0; stroke: #1f77b4"/>
     <use xlink:href="#m98c45dbc48" x="276.517404" y="195.418767" style="fill-opacity: 0; stroke: #1f77b4"/>
     <use xlink:href="#m98c45dbc48" x="277.888681" y="194.071513" style="fill-opacity: 0; stroke: #1f77b4"/>
     <use xlink:href="#m98c45dbc48" x="279.259958" y="192.958801" style="fill-opacity: 0; stroke: #1f77b4"/>
     <use xlink:href="#m98c45dbc48" x="280.632752" y="189.065427" style="fill-opacity: 0; stroke: #1f77b4"/>
     <use xlink:href="#m98c45dbc48" x="282.004029" y="186.730993" style="fill-opacity: 0; stroke: #1f77b4"/>
     <use xlink:href="#m98c45dbc48" x="283.375307" y="183.048972" style="fill-opacity: 0; stroke: #1f77b4"/>
     <use xlink:href="#m98c45dbc48" x="284.7481" y="174.910892" style="fill-opacity: 0; stroke: #1f77b4"/>
     <use xlink:href="#m98c45dbc48" x="286.119378" y="165.895323" style="fill-opacity: 0; stroke: #1f77b4"/>
     <use xlink:href="#m98c45dbc48" x="287.492171" y="145.692149" style="fill-opacity: 0; stroke: #1f77b4"/>
     <use xlink:href="#m98c45dbc48" x="288.864965" y="106.247758" style="fill-opacity: 0; stroke: #1f77b4"/>
     <use xlink:href="#m98c45dbc48" x="290.236242" y="1.525097" style="fill-opacity: 0; stroke: #1f77b4"/>
     <use xlink:href="#m98c45dbc48" x="290.246258" y="-1" style="fill-opacity: 0; stroke: #1f77b4"/>
     <use xlink:href="#m98c45dbc48" x="300.378527" y="-1" style="fill-opacity: 0; stroke: #1f77b4"/>
     <use xlink:href="#m98c45dbc48" x="301.219097" y="81.561335" style="fill-opacity: 0; stroke: #1f77b4"/>
     <use xlink:href="#m98c45dbc48" x="302.591891" y="119.532688" style="fill-opacity: 0; stroke: #1f77b4"/>
     <use xlink:href="#m98c45dbc48" x="303.964684" y="141.791919" style="fill-opacity: 0; stroke: #1f77b4"/>
     <use xlink:href="#m98c45dbc48" x="305.338995" y="156.610296" style="fill-opacity: 0; stroke: #1f77b4"/>
     <use xlink:href="#m98c45dbc48" x="306.711788" y="169.445599" style="fill-opacity: 0; stroke: #1f77b4"/>
     <use xlink:href="#m98c45dbc48" x="308.086098" y="179.098027" style="fill-opacity: 0; stroke: #1f77b4"/>
     <use xlink:href="#m98c45dbc48" x="309.458892" y="182.991229" style="fill-opacity: 0; stroke: #1f77b4"/>
     <use xlink:href="#m98c45dbc48" x="310.833202" y="185.791769" style="fill-opacity: 0; stroke: #1f77b4"/>
     <use xlink:href="#m98c45dbc48" x="312.205996" y="184.704716" style="fill-opacity: 0; stroke: #1f77b4"/>
     <use xlink:href="#m98c45dbc48" x="313.580811" y="183.238659" style="fill-opacity: 0; stroke: #1f77b4"/>
     <use xlink:href="#m98c45dbc48" x="314.955121" y="186.143954" style="fill-opacity: 0; stroke: #1f77b4"/>
     <use xlink:href="#m98c45dbc48" x="316.327915" y="189.760664" style="fill-opacity: 0; stroke: #1f77b4"/>
     <use xlink:href="#m98c45dbc48" x="317.702225" y="194.113261" style="fill-opacity: 0; stroke: #1f77b4"/>
     <use xlink:href="#m98c45dbc48" x="319.076535" y="197.690332" style="fill-opacity: 0; stroke: #1f77b4"/>
     <use xlink:href="#m98c45dbc48" x="320.450845" y="198.780668" style="fill-opacity: 0; stroke: #1f77b4"/>
    </g>
   </g>
   <g id="line2d_2">
    <path d="M 43.27895 214.701366 
L 50.062553 214.230949 
L 55.490547 213.636851 
L 59.562932 212.947068 
L 62.277687 212.278941 
L 64.993958 211.323358 
L 66.351589 210.678344 
L 67.708713 209.868152 
L 69.06786 208.824976 
L 70.42549 207.449031 
L 71.784131 205.572981 
L 73.141762 202.924212 
L 74.500403 199.023122 
L 75.85955 193.043151 
L 77.216674 183.69985 
L 78.575821 169.863209 
L 79.934968 154.647049 
L 81.293609 148.077306 
L 82.652755 149.160686 
L 84.011396 144.467687 
L 85.370543 134.163618 
L 86.72969 139.621239 
L 88.089847 160.621305 
L 89.448994 177.603262 
L 90.80814 187.353896 
L 92.168298 192.369536 
L 93.527444 194.388674 
L 94.887602 194.067622 
L 96.246749 191.178787 
L 97.607412 184.539189 
L 100.326716 160.162471 
L 101.687379 162.564371 
L 103.047536 173.841271 
L 104.408199 180.616251 
L 105.768862 181.804321 
L 107.129019 178.650909 
L 108.489682 171.653878 
L 111.210503 150.451494 
L 112.571166 145.061212 
L 113.93284 149.535052 
L 116.654166 170.486361 
L 118.015839 177.953012 
L 119.376502 182.177755 
L 120.738682 183.405634 
L 122.100861 181.519641 
L 123.461018 175.63914 
L 124.823198 163.620564 
L 126.185377 142.300532 
L 127.547051 113.984081 
L 128.90923 103.222558 
L 130.271409 125.248198 
L 131.633083 151.901688 
L 132.995262 168.812779 
L 134.357442 177.517766 
L 135.719116 180.775309 
L 137.082811 179.795439 
L 138.444991 174.383935 
L 139.80717 163.213723 
L 142.532539 127.478809 
L 143.896235 126.148764 
L 145.259931 138.688102 
L 146.621604 146.340917 
L 147.9853 141.289023 
L 149.348996 127.997913 
L 150.712691 129.993419 
L 152.075881 151.81412 
L 153.438061 170.863158 
L 154.801756 181.718421 
L 156.166968 186.574046 
L 157.530159 186.371866 
L 158.893854 179.291771 
L 160.25755 167.21849 
L 161.621245 174.431872 
L 162.985952 186.864035 
L 164.349648 191.978554 
L 165.714859 192.799777 
L 167.078555 190.757573 
L 168.443767 185.489722 
L 169.808474 174.965293 
L 171.172169 155.636747 
L 172.537381 132.457432 
L 173.902593 133.359513 
L 175.267805 147.184765 
L 176.632512 151.006355 
L 179.362936 142.579235 
L 180.728148 146.360419 
L 182.09336 157.669368 
L 183.458066 170.296259 
L 184.823278 180.524739 
L 186.190006 187.881273 
L 187.555218 192.981583 
L 188.921947 196.519559 
L 190.286653 198.98616 
L 191.653381 200.721189 
L 193.018593 201.935541 
L 194.385322 202.772808 
L 195.75205 203.324322 
L 197.118778 203.65197 
L 198.48399 203.797097 
L 199.850213 203.787575 
L 201.216941 203.640973 
L 202.58367 203.368043 
L 203.950398 202.974207 
L 205.318643 202.459998 
L 206.685371 201.824168 
L 208.052099 201.06072 
L 209.418322 200.161701 
L 210.786567 199.114266 
L 212.153295 197.907661 
L 213.52154 196.523625 
L 214.888268 194.947926 
L 216.256513 193.158761 
L 217.623241 191.142119 
L 218.991486 188.877902 
L 220.35973 186.358141 
L 223.095714 180.570188 
L 229.936937 164.629227 
L 231.305182 162.322801 
L 232.673427 160.751341 
L 234.043188 160.038693 
L 235.411432 160.210834 
L 236.781193 161.172391 
L 238.148933 162.703748 
L 239.518694 164.47359 
L 240.886938 165.993132 
L 242.256699 166.49567 
L 243.62646 164.559603 
L 244.996221 157.852902 
L 246.364466 148.563729 
L 247.734227 153.963393 
L 249.103988 168.081307 
L 250.473749 176.978587 
L 251.84351 181.063287 
L 253.214787 181.739801 
L 254.584548 179.019975 
L 257.32407 165.687848 
L 258.695347 168.344795 
L 260.065108 179.022937 
L 261.436386 188.45294 
L 262.806147 194.641877 
L 264.177424 198.630686 
L 265.547185 201.328518 
L 266.918462 203.269155 
L 268.28974 204.737616 
L 269.661017 205.89615 
L 271.032294 206.840451 
L 273.774849 208.302927 
L 276.517404 209.396867 
L 279.259958 210.253752 
L 283.375307 211.245331 
L 287.492171 211.999035 
L 292.98183 212.759693 
L 299.846303 213.453095 
L 308.086098 214.04564 
L 319.076535 214.588119 
L 320.450845 214.642143 
L 320.450845 214.642143 
" clip-path="url(#pca2402596a)" style="fill: none; stroke: #ff0000; stroke-width: 1.5; stroke-linecap: square"/>
   </g>
   <g id="line2d_3">
    <path d="M 295.727417 216.404326 
L 295.727417 17.735865 
" clip-path="url(#pca2402596a)" style="fill: none; stroke-dasharray: 3.7,1.6; stroke-dashoffset: 0; stroke: #808080"/>
   </g>
   <g id="patch_3">
    <path d="M 43.003987 216.404326 
L 43.003987 17.735865 
" style="fill: none; stroke: #000000; stroke-linejoin: miter; stroke-linecap: square"/>
   </g>
   <g id="patch_4">
    <path d="M 320.99976 216.404326 
L 320.99976 17.735865 
" style="fill: none; stroke: #000000; stroke-linejoin: miter; stroke-linecap: square"/>
   </g>
   <g id="patch_5">
    <path d="M 43.003987 216.404326 
L 320.99976 216.404326 
" style="fill: none; stroke: #000000; stroke-linejoin: miter; stroke-linecap: square"/>
   </g>
   <g id="patch_6">
    <path d="M 43.003987 17.735865 
L 320.99976 17.735865 
" style="fill: none; stroke: #000000; stroke-linejoin: miter; stroke-linecap: square"/>
   </g>
   <g id="matplotlib.axis_1">
    <g id="xtick_1">
     <g id="line2d_4">
      <defs>
       <path id="m1e228190fe" d="M 0 0 
L 0 3.75 
" style="stroke: #000000; stroke-width: 1.25"/>
      </defs>
      <g>
       <use xlink:href="#m1e228190fe" x="43.003987" y="216.404326" style="stroke: #000000; stroke-width: 1.25"/>
      </g>
     </g>
     <g id="text_1">
      <!-- $\mathdefault{429}$ -->
      <g transform="translate(33.818987 231.52792)">
       <text>
        <tspan style="font: 11px 'Arial'" x="0 6.117676 12.235352" y="-0.09375">429</tspan>
       </text>
      </g>
     </g>
    </g>
    <g id="xtick_2">
     <g id="line2d_5">
      <g>
       <use xlink:href="#m1e228190fe" x="93.548673" y="216.404326" style="stroke: #000000; stroke-width: 1.25"/>
      </g>
     </g>
     <g id="text_2">
      <!-- $\mathdefault{430}$ -->
      <g transform="translate(84.363673 231.52792)">
       <text>
        <tspan style="font: 11px 'Arial'" x="0 6.117676 12.235352" y="-0.09375">430</tspan>
       </text>
      </g>
     </g>
    </g>
    <g id="xtick_3">
     <g id="line2d_6">
      <g>
       <use xlink:href="#m1e228190fe" x="144.093359" y="216.404326" style="stroke: #000000; stroke-width: 1.25"/>
      </g>
     </g>
     <g id="text_3">
      <!-- $\mathdefault{431}$ -->
      <g transform="translate(134.908359 231.52792)">
       <text>
        <tspan style="font: 11px 'Arial'" x="0 6.117676 12.235352" y="-0.09375">431</tspan>
       </text>
      </g>
     </g>
    </g>
    <g id="xtick_4">
     <g id="line2d_7">
      <g>
       <use xlink:href="#m1e228190fe" x="194.638045" y="216.404326" style="stroke: #000000; stroke-width: 1.25"/>
      </g>
     </g>
     <g id="text_4">
      <!-- $\mathdefault{432}$ -->
      <g transform="translate(185.453045 231.52792)">
       <text>
        <tspan style="font: 11px 'Arial'" x="0 6.117676 12.235352" y="-0.09375">432</tspan>
       </text>
      </g>
     </g>
    </g>
    <g id="xtick_5">
     <g id="line2d_8">
      <g>
       <use xlink:href="#m1e228190fe" x="245.182731" y="216.404326" style="stroke: #000000; stroke-width: 1.25"/>
      </g>
     </g>
     <g id="text_5">
      <!-- $\mathdefault{433}$ -->
      <g transform="translate(235.997731 231.52792)">
       <text>
        <tspan style="font: 11px 'Arial'" x="0 6.117676 12.235352" y="-0.09375">433</tspan>
       </text>
      </g>
     </g>
    </g>
    <g id="xtick_6">
     <g id="line2d_9">
      <g>
       <use xlink:href="#m1e228190fe" x="295.727417" y="216.404326" style="stroke: #000000; stroke-width: 1.25"/>
      </g>
     </g>
     <g id="text_6">
      <!-- $\mathdefault{434}$ -->
      <g transform="translate(286.542417 231.52792)">
       <text>
        <tspan style="font: 11px 'Arial'" x="0 6.117676 12.235352" y="-0.09375">434</tspan>
       </text>
      </g>
     </g>
    </g>
    <g id="text_7">
     <!-- $\lambda$ {\sffamily (nm)} -->
     <g transform="translate(164.206736 246.411565) scale(0.12 -0.12)">
      <defs>
       <path id="StandardSymL-6c" d="M 480 3650 
C 525 4013 710 4224 998 4224 
C 1203 4224 1376 4064 1472 3778 
C 1517 3650 1574 3440 1632 3198 
L 154 19 
L 755 19 
L 1843 2301 
C 2048 1059 2150 607 2266 358 
C 2406 83 2611 -64 2848 -64 
C 3098 -64 3296 89 3405 371 
C 3475 543 3501 715 3507 1014 
L 3373 1014 
C 3322 683 3174 499 2944 499 
C 2752 499 2586 620 2483 843 
C 2400 1008 2355 1174 2266 1645 
L 2093 2466 
C 2086 2485 2080 2530 2067 2594 
C 1920 3415 1690 4192 1536 4422 
C 1395 4627 1203 4736 992 4736 
C 602 4736 397 4403 326 3650 
L 480 3650 
z
" transform="scale(0.015625)"/>
       <path id="NimbusSanL-Regu-28" d="M 1510 4672 
C 870 3833 467 2668 467 1663 
C 467 652 870 -513 1510 -1351 
L 1862 -1351 
C 1299 -436 986 639 986 1663 
C 986 2681 1299 3763 1862 4672 
L 1510 4672 
z
" transform="scale(0.015625)"/>
       <path id="NimbusSanL-Regu-6e" d="M 448 3328 
L 448 0 
L 986 0 
L 986 1835 
C 986 2539 1344 2988 1894 2988 
C 2317 2988 2586 2732 2586 2328 
L 2586 0 
L 3117 0 
L 3117 2539 
C 3117 3097 2701 3456 2054 3456 
C 1555 3456 1235 3263 941 2796 
L 941 3328 
L 448 3328 
z
" transform="scale(0.015625)"/>
       <path id="NimbusSanL-Regu-6d" d="M 448 3328 
L 448 0 
L 986 0 
L 986 2089 
C 986 2597 1338 2988 1773 2988 
C 2170 2988 2394 2744 2394 2315 
L 2394 0 
L 2931 0 
L 2931 2109 
C 2931 2597 3283 2988 3718 2988 
C 4109 2988 4339 2738 4339 2315 
L 4339 0 
L 4877 0 
L 4877 2520 
C 4877 3123 4531 3456 3904 3456 
C 3456 3456 3187 3321 2874 2943 
C 2675 3302 2406 3456 1971 3456 
C 1523 3456 1229 3289 941 2886 
L 941 3328 
L 448 3328 
z
" transform="scale(0.015625)"/>
       <path id="NimbusSanL-Regu-29" d="M 595 -1351 
C 1235 -513 1638 652 1638 1657 
C 1638 2668 1235 3833 595 4672 
L 243 4672 
C 806 3756 1120 2681 1120 1657 
C 1120 639 806 -442 243 -1351 
L 595 -1351 
z
" transform="scale(0.015625)"/>
      </defs>
      <use xlink:href="#StandardSymL-6c" transform="scale(0.996264)"/>
      <use xlink:href="#NimbusSanL-Regu-28" transform="translate(91.855235 0) scale(0.996264)"/>
      <use xlink:href="#NimbusSanL-Regu-6e" transform="translate(125.030464 0) scale(0.996264)"/>
      <use xlink:href="#NimbusSanL-Regu-6d" transform="translate(180.422141 0) scale(0.996264)"/>
      <use xlink:href="#NimbusSanL-Regu-29" transform="translate(263.410572 0) scale(0.996264)"/>
     </g>
    </g>
   </g>
   <g id="matplotlib.axis_2">
    <g id="ytick_1">
     <g id="line2d_10">
      <defs>
       <path id="m0fa8c6eff9" d="M 0 0 
L -3.75 0 
" style="stroke: #000000; stroke-width: 1.25"/>
      </defs>
      <g>
       <use xlink:href="#m0fa8c6eff9" x="43.003987" y="216.404326" style="stroke: #000000; stroke-width: 1.25"/>
      </g>
     </g>
     <g id="text_8">
      <!-- $\mathdefault{0.0}$ -->
      <g transform="translate(20.353987 220.341123)">
       <text>
        <tspan style="font: 11px 'Arial'" x="0 6.117676 9.173828" y="-0.09375">0.0</tspan>
       </text>
      </g>
     </g>
    </g>
    <g id="ytick_2">
     <g id="line2d_11">
      <g>
       <use xlink:href="#m0fa8c6eff9" x="43.003987" y="185.977897" style="stroke: #000000; stroke-width: 1.25"/>
      </g>
     </g>
     <g id="text_9">
      <!-- $\mathdefault{0.5}$ -->
      <g transform="translate(20.353987 189.914694)">
       <text>
        <tspan style="font: 11px 'Arial'" x="0 6.117676 9.173828" y="-0.09375">0.5</tspan>
       </text>
      </g>
     </g>
    </g>
    <g id="ytick_3">
     <g id="line2d_12">
      <g>
       <use xlink:href="#m0fa8c6eff9" x="43.003987" y="155.551468" style="stroke: #000000; stroke-width: 1.25"/>
      </g>
     </g>
     <g id="text_10">
      <!-- $\mathdefault{1.0}$ -->
      <g transform="translate(20.353987 159.488265)">
       <text>
        <tspan style="font: 11px 'Arial'" x="0 6.117676 9.173828" y="-0.09375">1.0</tspan>
       </text>
      </g>
     </g>
    </g>
    <g id="ytick_4">
     <g id="line2d_13">
      <g>
       <use xlink:href="#m0fa8c6eff9" x="43.003987" y="125.125039" style="stroke: #000000; stroke-width: 1.25"/>
      </g>
     </g>
     <g id="text_11">
      <!-- $\mathdefault{1.5}$ -->
      <g transform="translate(20.353987 129.061836)">
       <text>
        <tspan style="font: 11px 'Arial'" x="0 6.117676 9.173828" y="-0.09375">1.5</tspan>
       </text>
      </g>
     </g>
    </g>
    <g id="ytick_5">
     <g id="line2d_14">
      <g>
       <use xlink:href="#m0fa8c6eff9" x="43.003987" y="94.69861" style="stroke: #000000; stroke-width: 1.25"/>
      </g>
     </g>
     <g id="text_12">
      <!-- $\mathdefault{2.0}$ -->
      <g transform="translate(20.353987 98.635407)">
       <text>
        <tspan style="font: 11px 'Arial'" x="0 6.117676 9.173828" y="-0.09375">2.0</tspan>
       </text>
      </g>
     </g>
    </g>
    <g id="ytick_6">
     <g id="line2d_15">
      <g>
       <use xlink:href="#m0fa8c6eff9" x="43.003987" y="64.272181" style="stroke: #000000; stroke-width: 1.25"/>
      </g>
     </g>
     <g id="text_13">
      <!-- $\mathdefault{2.5}$ -->
      <g transform="translate(20.353987 68.208978)">
       <text>
        <tspan style="font: 11px 'Arial'" x="0 6.117676 9.173828" y="-0.09375">2.5</tspan>
       </text>
      </g>
     </g>
    </g>
    <g id="ytick_7">
     <g id="line2d_16">
      <g>
       <use xlink:href="#m0fa8c6eff9" x="43.003987" y="33.845752" style="stroke: #000000; stroke-width: 1.25"/>
      </g>
     </g>
     <g id="text_14">
      <!-- $\mathdefault{3.0}$ -->
      <g transform="translate(20.353987 37.782549)">
       <text>
        <tspan style="font: 11px 'Arial'" x="0 6.117676 9.173828" y="-0.09375">3.0</tspan>
       </text>
      </g>
     </g>
    </g>
    <g id="text_15">
     <!-- $B_{\lambda}$ {\sffamily (photons/cm\textsuperscript{2}/s/nm)} -->
     <g transform="translate(13.728305 177.714049) rotate(-90) scale(0.12 -0.12)">
      <defs>
       <path id="NimbusRomNo9L-ReguItal-42" d="M -51 0 
L 1754 0 
C 2758 0 3450 523 3450 1274 
C 3450 1510 3373 1732 3232 1872 
C 3104 2019 2976 2095 2643 2235 
C 3098 2344 3283 2420 3488 2598 
C 3667 2751 3763 2968 3763 3222 
C 3763 3827 3309 4160 2483 4160 
L 832 4160 
L 832 4057 
C 1229 4025 1325 3974 1325 3795 
C 1325 3700 1299 3541 1254 3388 
L 467 574 
C 352 204 307 166 -51 102 
L -51 0 
z
M 1523 2108 
C 1939 2108 2208 2083 2336 2032 
C 2598 1923 2758 1643 2758 1299 
C 2758 612 2285 192 1504 192 
C 1235 192 1094 287 1094 459 
C 1094 535 1171 841 1318 1350 
C 1402 1637 1440 1783 1523 2108 
z
M 2003 3789 
C 2042 3929 2118 3967 2368 3967 
C 2880 3967 3117 3751 3117 3280 
C 3117 2917 2963 2637 2688 2484 
C 2470 2356 2163 2312 1587 2312 
L 2003 3789 
z
" transform="scale(0.015625)"/>
       <path id="NimbusSanL-Regu-70" d="M 346 -1408 
L 883 -1408 
L 883 371 
C 1165 25 1478 -128 1914 -128 
C 2778 -128 3347 568 3347 1632 
C 3347 2752 2797 3456 1907 3456 
C 1453 3456 1088 3251 838 2854 
L 838 3359 
L 346 3359 
L 346 -1408 
z
M 1818 2956 
C 2406 2956 2790 2440 2790 1644 
C 2790 887 2400 371 1818 371 
C 1254 371 883 880 883 1663 
C 883 2447 1254 2956 1818 2956 
z
" transform="scale(0.015625)"/>
       <path id="NimbusSanL-Regu-68" d="M 448 4672 
L 448 0 
L 979 0 
L 979 1853 
C 979 2539 1338 2988 1888 2988 
C 2061 2988 2234 2930 2362 2834 
C 2515 2725 2579 2565 2579 2328 
L 2579 0 
L 3110 0 
L 3110 2539 
C 3110 3103 2707 3456 2054 3456 
C 1581 3456 1293 3308 979 2898 
L 979 4672 
L 448 4672 
z
" transform="scale(0.015625)"/>
       <path id="NimbusSanL-Regu-6f" d="M 1741 3456 
C 800 3456 230 2784 230 1663 
C 230 543 794 -128 1747 -128 
C 2688 -128 3264 543 3264 1638 
C 3264 2791 2707 3456 1741 3456 
z
M 1747 2963 
C 2349 2963 2707 2472 2707 1644 
C 2707 861 2336 364 1747 364 
C 1152 364 787 855 787 1663 
C 787 2466 1152 2963 1747 2963 
z
" transform="scale(0.015625)"/>
       <path id="NimbusSanL-Regu-74" d="M 1626 3328 
L 1075 3328 
L 1075 4249 
L 544 4249 
L 544 3328 
L 90 3328 
L 90 2892 
L 544 2892 
L 544 402 
C 544 64 774 -128 1190 -128 
C 1318 -128 1446 -116 1626 -84 
L 1626 364 
C 1555 345 1472 339 1370 339 
C 1139 339 1075 402 1075 634 
L 1075 2892 
L 1626 2892 
L 1626 3328 
z
" transform="scale(0.015625)"/>
       <path id="NimbusSanL-Regu-73" d="M 2803 2428 
C 2797 3084 2362 3456 1587 3456 
C 806 3456 301 3052 301 2434 
C 301 1912 570 1663 1363 1472 
L 1862 1351 
C 2234 1262 2381 1129 2381 887 
C 2381 574 2067 364 1600 364 
C 1312 364 1069 447 934 587 
C 851 683 813 778 781 1014 
L 218 1014 
C 243 243 678 -128 1555 -128 
C 2400 -128 2938 288 2938 931 
C 2938 1428 2656 1702 1990 1861 
L 1478 1982 
C 1043 2084 858 2224 858 2459 
C 858 2765 1133 2963 1568 2963 
C 1997 2963 2227 2778 2240 2428 
L 2803 2428 
z
" transform="scale(0.015625)"/>
       <path id="NimbusSanL-Regu-2f" d="M 1466 4672 
L -51 -128 
L 301 -128 
L 1818 4672 
L 1466 4672 
z
" transform="scale(0.015625)"/>
       <path id="NimbusSanL-Regu-63" d="M 3014 2237 
C 2989 2561 2918 2771 2790 2956 
C 2560 3270 2157 3456 1690 3456 
C 787 3456 198 2740 198 1632 
C 198 555 774 -128 1683 -128 
C 2483 -128 2989 352 3053 1167 
L 2515 1167 
C 2426 632 2150 364 1696 364 
C 1107 364 755 842 755 1632 
C 755 2466 1101 2963 1683 2963 
C 2131 2963 2413 2701 2477 2237 
L 3014 2237 
z
" transform="scale(0.015625)"/>
       <path id="NimbusSanL-Regu-32" d="M 3238 556 
L 851 556 
C 909 928 1114 1165 1670 1493 
L 2310 1839 
C 2944 2185 3270 2653 3270 3211 
C 3270 3589 3117 3942 2848 4185 
C 2579 4428 2246 4544 1818 4544 
C 1242 4544 813 4339 563 3955 
C 403 3711 333 3429 320 2967 
L 883 2967 
C 902 3275 941 3461 1018 3608 
C 1165 3884 1459 4051 1798 4051 
C 2310 4051 2694 3685 2694 3198 
C 2694 2839 2483 2531 2080 2300 
L 1491 1967 
C 544 1428 269 999 218 0 
L 3238 0 
L 3238 556 
z
" transform="scale(0.015625)"/>
      </defs>
      <use xlink:href="#NimbusRomNo9L-ReguItal-42" transform="scale(0.996264)"/>
      <use xlink:href="#StandardSymL-6c" transform="translate(60.871631 -20.616338) scale(0.737241)"/>
      <use xlink:href="#NimbusSanL-Regu-28" transform="translate(135.818713 0) scale(0.996264)"/>
      <use xlink:href="#NimbusSanL-Regu-70" transform="translate(168.993943 0) scale(0.996264)"/>
      <use xlink:href="#NimbusSanL-Regu-68" transform="translate(224.38562 0) scale(0.996264)"/>
      <use xlink:href="#NimbusSanL-Regu-6f" transform="translate(279.777297 0) scale(0.996264)"/>
      <use xlink:href="#NimbusSanL-Regu-74" transform="translate(335.168974 0) scale(0.996264)"/>
      <use xlink:href="#NimbusSanL-Regu-6f" transform="translate(362.864143 0) scale(0.996264)"/>
      <use xlink:href="#NimbusSanL-Regu-6e" transform="translate(418.25582 0) scale(0.996264)"/>
      <use xlink:href="#NimbusSanL-Regu-73" transform="translate(473.647497 0) scale(0.996264)"/>
      <use xlink:href="#NimbusSanL-Regu-2f" transform="translate(523.460698 0) scale(0.996264)"/>
      <use xlink:href="#NimbusSanL-Regu-63" transform="translate(551.155868 0) scale(0.996264)"/>
      <use xlink:href="#NimbusSanL-Regu-6d" transform="translate(600.969068 0) scale(0.996264)"/>
      <use xlink:href="#NimbusSanL-Regu-32" transform="translate(683.957498 36.163231) scale(0.737241)"/>
      <use xlink:href="#NimbusSanL-Regu-2f" transform="translate(725.445777 0) scale(0.996264)"/>
      <use xlink:href="#NimbusSanL-Regu-73" transform="translate(753.140947 0) scale(0.996264)"/>
      <use xlink:href="#NimbusSanL-Regu-2f" transform="translate(802.954147 0) scale(0.996264)"/>
      <use xlink:href="#NimbusSanL-Regu-6e" transform="translate(830.649317 0) scale(0.996264)"/>
      <use xlink:href="#NimbusSanL-Regu-6d" transform="translate(886.040994 0) scale(0.996264)"/>
      <use xlink:href="#NimbusSanL-Regu-29" transform="translate(969.029424 0) scale(0.996264)"/>
     </g>
    </g>
    <g id="text_16">
     <!-- $\times\mathdefault{10^{12}}\mathdefault{}$ -->
     <g transform="translate(43.003987 14.735865)">
      <text>
       <tspan style="font: 11px 'STIXGeneral'" x="0" y="-0.799312500000001"></tspan>
       <tspan style="font: 11px 'Arial'" x="7.039993 13.157669" y="-0.799312500000001">10</tspan>
       <tspan style="font: 7.7px 'Arial'" x="19.467003 23.749376" y="-8.465625">12</tspan>
      </text>
     </g>
    </g>
   </g>
   <g id="patch_7">
    <path d="M 217.800817 47.652918 
L 217.800817 67.40298 
L 294.609383 67.40298 
" style="fill: none; stroke: #000000; stroke-linecap: round"/>
    <path d="M 290.609383 65.40298 
L 294.609383 67.40298 
L 290.609383 69.40298 
" style="fill: none; stroke: #000000; stroke-linecap: round"/>
   </g>
   <g id="text_17">
    <g id="patch_8">
     <path d="M 184.100817 50.702711 
L 251.500817 50.702711 
Q 254.500817 50.702711 254.500817 47.702711 
L 254.500817 37.602711 
Q 254.500817 34.602711 251.500817 34.602711 
L 184.100817 34.602711 
Q 181.100817 34.602711 181.100817 37.602711 
L 181.100817 47.702711 
Q 181.100817 50.702711 184.100817 50.702711 
z
" style="fill: #f5deb3; stroke: #000000; stroke-linejoin: miter"/>
    </g>
    <!-- D$_{\gamma}$ (434.00) nm -->
    <g transform="translate(184.100817 44.902711)">
     <text>
      <tspan style="font: 10px 'Arial'" x="0 10.686517 13.464837 16.794915 22.356439 27.917962 33.479486 36.257806 41.81933 47.380853 50.710931 53.489251 59.050775" y="-0.71875">D(434.00)nm</tspan>
      <tspan style="font: italic 7px 'STIXGeneral'" x="7.375898" y="0.6031250000000004"></tspan>
     </text>
    </g>
   </g>
   <g id="text_18">
    <text style="font: 10px 'Arial'; text-anchor: middle" x="236.249967" y="87.266206" transform="rotate(-0 236.249967 87.266206)">Q-branch</text>
   </g>
   <g id="text_19">
    <text style="font: 10px 'Arial'; text-anchor: middle" x="121.534807" y="41.170246" transform="rotate(-0 121.534807 41.170246)">B-D + C-D</text>
   </g>
   <g id="text_20">
    <text style="font: 700 12px 'Arial'; text-anchor: middle" x="182.001874" y="11.735865" transform="rotate(-0 182.001874 11.735865)">PC boron pebble rod - 27 min</text>
   </g>
  </g>
 </g>
 <defs>
  <clipPath id="pca2402596a">
   <rect x="43.003987" y="17.735865" width="277.995773" height="198.668461"/>
  </clipPath>
 </defs>
</svg>
