<?xml version="1.0" encoding="utf-8" standalone="no"?>
<!DOCTYPE svg PUBLIC "-//W3C//DTD SVG 1.1//EN"
  "http://www.w3.org/Graphics/SVG/1.1/DTD/svg11.dtd">
<svg xmlns:xlink="http://www.w3.org/1999/xlink" width="324pt" height="252pt" viewBox="0 0 324 252" xmlns="http://www.w3.org/2000/svg" version="1.1">
 <metadata>
  <rdf:RDF xmlns:dc="http://purl.org/dc/elements/1.1/" xmlns:cc="http://creativecommons.org/ns#" xmlns:rdf="http://www.w3.org/1999/02/22-rdf-syntax-ns#">
   <cc:Work>
    <dc:type rdf:resource="http://purl.org/dc/dcmitype/StillImage"/>
    <dc:date>2025-02-18T12:23:27.349498</dc:date>
    <dc:format>image/svg+xml</dc:format>
    <dc:creator>
     <cc:Agent>
      <dc:title>Matplotlib v3.9.2, https://matplotlib.org/</dc:title>
     </cc:Agent>
    </dc:creator>
   </cc:Work>
  </rdf:RDF>
 </metadata>
 <defs>
  <style type="text/css">*{stroke-linejoin: round; stroke-linecap: butt}</style>
 </defs>
 <g id="figure_1">
  <g id="patch_1">
   <path d="M 0 252 
L 324 252 
L 324 0 
L 0 0 
z
" style="fill: #ffffff"/>
  </g>
  <g id="axes_1">
   <g id="patch_2">
    <path d="M 42.61024 216.428666 
L 308.765697 216.428666 
L 308.765697 17.834923 
L 42.61024 17.834923 
z
" style="fill: #ffffff"/>
   </g>
   <g id="line2d_1">
    <defs>
     <path id="mc09b05b3ad" d="M 0 3.5 
C 0.928211 3.5 1.81853 3.131218 2.474874 2.474874 
C 3.131218 1.81853 3.5 0.928211 3.5 0 
C 3.5 -0.928211 3.131218 -1.81853 2.474874 -2.474874 
C 1.81853 -3.131218 0.928211 -3.5 0 -3.5 
C -0.928211 -3.5 -1.81853 -3.131218 -2.474874 -2.474874 
C -3.131218 -1.81853 -3.5 -0.928211 -3.5 0 
C -3.5 0.928211 -3.131218 1.81853 -2.474874 2.474874 
C -1.81853 3.131218 -0.928211 3.5 0 3.5 
z
" style="stroke: #1f77b4"/>
    </defs>
    <g clip-path="url(#p97237d7591)">
     <use xlink:href="#mc09b05b3ad" x="59.408849" y="214.629082" style="fill-opacity: 0; stroke: #1f77b4"/>
     <use xlink:href="#mc09b05b3ad" x="61.691427" y="213.151689" style="fill-opacity: 0; stroke: #1f77b4"/>
     <use xlink:href="#mc09b05b3ad" x="62.93739" y="211.463642" style="fill-opacity: 0; stroke: #1f77b4"/>
     <use xlink:href="#mc09b05b3ad" x="65.013225" y="209.353493" style="fill-opacity: 0; stroke: #1f77b4"/>
     <use xlink:href="#mc09b05b3ad" x="66.674627" y="207.032655" style="fill-opacity: 0; stroke: #1f77b4"/>
     <use xlink:href="#mc09b05b3ad" x="67.715413" y="203.235362" style="fill-opacity: 0; stroke: #1f77b4"/>
     <use xlink:href="#mc09b05b3ad" x="69.583706" y="201.336264" style="fill-opacity: 0; stroke: #1f77b4"/>
     <use xlink:href="#mc09b05b3ad" x="70.209319" y="197.961254" style="fill-opacity: 0; stroke: #1f77b4"/>
     <use xlink:href="#mc09b05b3ad" x="72.700593" y="195.217049" style="fill-opacity: 0; stroke: #1f77b4"/>
     <use xlink:href="#mc09b05b3ad" x="72.909939" y="193.319576" style="fill-opacity: 0; stroke: #1f77b4"/>
     <use xlink:href="#mc09b05b3ad" x="73.949424" y="190.788409" style="fill-opacity: 0; stroke: #1f77b4"/>
     <use xlink:href="#mc09b05b3ad" x="75.19583" y="188.677899" style="fill-opacity: 0; stroke: #1f77b4"/>
     <use xlink:href="#mc09b05b3ad" x="76.44333" y="185.513037" style="fill-opacity: 0; stroke: #1f77b4"/>
     <use xlink:href="#mc09b05b3ad" x="77.898432" y="182.138748" style="fill-opacity: 0; stroke: #1f77b4"/>
     <use xlink:href="#mc09b05b3ad" x="79.559981" y="179.605775" style="fill-opacity: 0; stroke: #1f77b4"/>
     <use xlink:href="#mc09b05b3ad" x="80.184737" y="177.074608" style="fill-opacity: 0; stroke: #1f77b4"/>
     <use xlink:href="#mc09b05b3ad" x="81.017715" y="173.70032" style="fill-opacity: 0; stroke: #1f77b4"/>
     <use xlink:href="#mc09b05b3ad" x="83.300323" y="172.221699" style="fill-opacity: 0; stroke: #1f77b4"/>
     <use xlink:href="#mc09b05b3ad" x="83.511" y="169.058642" style="fill-opacity: 0; stroke: #1f77b4"/>
     <use xlink:href="#mc09b05b3ad" x="85.586628" y="167.159364" style="fill-opacity: 0; stroke: #1f77b4"/>
     <use xlink:href="#mc09b05b3ad" x="86.004226" y="164.416965" style="fill-opacity: 0; stroke: #1f77b4"/>
     <use xlink:href="#mc09b05b3ad" x="87.251075" y="161.883992" style="fill-opacity: 0; stroke: #1f77b4"/>
     <use xlink:href="#mc09b05b3ad" x="87.876038" y="159.141593" style="fill-opacity: 0; stroke: #1f77b4"/>
     <use xlink:href="#mc09b05b3ad" x="89.123124" y="156.399194" style="fill-opacity: 0; stroke: #1f77b4"/>
     <use xlink:href="#mc09b05b3ad" x="90.16258" y="153.868026" style="fill-opacity: 0; stroke: #1f77b4"/>
     <use xlink:href="#mc09b05b3ad" x="91.61703" y="151.125627" style="fill-opacity: 0; stroke: #1f77b4"/>
     <use xlink:href="#mc09b05b3ad" x="92.45267" y="145.218366" style="fill-opacity: 0; stroke: #1f77b4"/>
     <use xlink:href="#mc09b05b3ad" x="94.526317" y="145.218366" style="fill-opacity: 0; stroke: #1f77b4"/>
     <use xlink:href="#mc09b05b3ad" x="95.980324" y="142.896625" style="fill-opacity: 0; stroke: #1f77b4"/>
     <use xlink:href="#mc09b05b3ad" x="97.642346" y="139.942994" style="fill-opacity: 0; stroke: #1f77b4"/>
     <use xlink:href="#mc09b05b3ad" x="98.26796" y="136.568706" style="fill-opacity: 0; stroke: #1f77b4"/>
     <use xlink:href="#mc09b05b3ad" x="99.514602" y="134.246965" style="fill-opacity: 0; stroke: #1f77b4"/>
     <use xlink:href="#mc09b05b3ad" x="100.762309" y="130.872676" style="fill-opacity: 0; stroke: #1f77b4"/>
     <use xlink:href="#mc09b05b3ad" x="100.974761" y="126.019767" style="fill-opacity: 0; stroke: #1f77b4"/>
     <use xlink:href="#mc09b05b3ad" x="101.808389" y="122.011785" style="fill-opacity: 0; stroke: #1f77b4"/>
     <use xlink:href="#mc09b05b3ad" x="102.435126" y="117.583144" style="fill-opacity: 0; stroke: #1f77b4"/>
     <use xlink:href="#mc09b05b3ad" x="103.268133" y="114.20705" style="fill-opacity: 0; stroke: #1f77b4"/>
     <use xlink:href="#mc09b05b3ad" x="103.895077" y="109.567178" style="fill-opacity: 0; stroke: #1f77b4"/>
     <use xlink:href="#mc09b05b3ad" x="105.353698" y="102.816797" style="fill-opacity: 0; stroke: #1f77b4"/>
     <use xlink:href="#mc09b05b3ad" x="105.978661" y="100.074398" style="fill-opacity: 0; stroke: #1f77b4"/>
     <use xlink:href="#mc09b05b3ad" x="107.227699" y="95.43272" style="fill-opacity: 0; stroke: #1f77b4"/>
     <use xlink:href="#mc09b05b3ad" x="108.069726" y="83.408772" style="fill-opacity: 0; stroke: #1f77b4"/>
     <use xlink:href="#mc09b05b3ad" x="108.268278" y="91.8472" style="fill-opacity: 0; stroke: #1f77b4"/>
     <use xlink:href="#mc09b05b3ad" x="108.903591" y="79.189557" style="fill-opacity: 0; stroke: #1f77b4"/>
     <use xlink:href="#mc09b05b3ad" x="110.975493" y="80.877604" style="fill-opacity: 0; stroke: #1f77b4"/>
     <use xlink:href="#mc09b05b3ad" x="111.396846" y="74.54788" style="fill-opacity: 0; stroke: #1f77b4"/>
     <use xlink:href="#mc09b05b3ad" x="112.646121" y="69.696776" style="fill-opacity: 0; stroke: #1f77b4"/>
     <use xlink:href="#mc09b05b3ad" x="113.055113" y="75.181574" style="fill-opacity: 0; stroke: #1f77b4"/>
     <use xlink:href="#mc09b05b3ad" x="113.271527" y="66.531914" style="fill-opacity: 0; stroke: #1f77b4"/>
     <use xlink:href="#mc09b05b3ad" x="114.310332" y="64.634441" style="fill-opacity: 0; stroke: #1f77b4"/>
     <use xlink:href="#mc09b05b3ad" x="115.551237" y="67.797498" style="fill-opacity: 0; stroke: #1f77b4"/>
     <use xlink:href="#mc09b05b3ad" x="116.170256" y="70.749323" style="fill-opacity: 0; stroke: #1f77b4"/>
     <use xlink:href="#mc09b05b3ad" x="118.041388" y="66.109451" style="fill-opacity: 0; stroke: #1f77b4"/>
     <use xlink:href="#mc09b05b3ad" x="119.074248" y="69.904397" style="fill-opacity: 0; stroke: #1f77b4"/>
     <use xlink:href="#mc09b05b3ad" x="121.358365" y="66.950767" style="fill-opacity: 0; stroke: #1f77b4"/>
     <use xlink:href="#mc09b05b3ad" x="123.222045" y="69.481934" style="fill-opacity: 0; stroke: #1f77b4"/>
     <use xlink:href="#mc09b05b3ad" x="124.884954" y="65.683377" style="fill-opacity: 0; stroke: #1f77b4"/>
     <use xlink:href="#mc09b05b3ad" x="127.164014" y="67.58085" style="fill-opacity: 0; stroke: #1f77b4"/>
     <use xlink:href="#mc09b05b3ad" x="127.996548" y="64.629025" style="fill-opacity: 0; stroke: #1f77b4"/>
     <use xlink:href="#mc09b05b3ad" x="129.238341" y="66.948961" style="fill-opacity: 0; stroke: #1f77b4"/>
     <use xlink:href="#mc09b05b3ad" x="129.865935" y="61.673589" style="fill-opacity: 0; stroke: #1f77b4"/>
     <use xlink:href="#mc09b05b3ad" x="130.898589" y="65.681572" style="fill-opacity: 0; stroke: #1f77b4"/>
     <use xlink:href="#mc09b05b3ad" x="131.937187" y="63.993525" style="fill-opacity: 0; stroke: #1f77b4"/>
     <use xlink:href="#mc09b05b3ad" x="132.768627" y="62.096052" style="fill-opacity: 0; stroke: #1f77b4"/>
     <use xlink:href="#mc09b05b3ad" x="133.190868" y="54.923207" style="fill-opacity: 0; stroke: #1f77b4"/>
     <use xlink:href="#mc09b05b3ad" x="135.052773" y="59.140616" style="fill-opacity: 0; stroke: #1f77b4"/>
     <use xlink:href="#mc09b05b3ad" x="135.884657" y="56.82068" style="fill-opacity: 0; stroke: #1f77b4"/>
     <use xlink:href="#mc09b05b3ad" x="136.716984" y="54.078281" style="fill-opacity: 0; stroke: #1f77b4"/>
     <use xlink:href="#mc09b05b3ad" x="139.202314" y="57.030106" style="fill-opacity: 0; stroke: #1f77b4"/>
     <use xlink:href="#mc09b05b3ad" x="140.242657" y="53.654013" style="fill-opacity: 0; stroke: #1f77b4"/>
     <use xlink:href="#mc09b05b3ad" x="142.521066" y="56.18518" style="fill-opacity: 0; stroke: #1f77b4"/>
     <use xlink:href="#mc09b05b3ad" x="143.768122" y="53.442781" style="fill-opacity: 0; stroke: #1f77b4"/>
     <use xlink:href="#mc09b05b3ad" x="144.600006" y="51.122845" style="fill-opacity: 0; stroke: #1f77b4"/>
     <use xlink:href="#mc09b05b3ad" x="147.08643" y="53.018513" style="fill-opacity: 0; stroke: #1f77b4"/>
     <use xlink:href="#mc09b05b3ad" x="148.541295" y="49.855456" style="fill-opacity: 0; stroke: #1f77b4"/>
     <use xlink:href="#mc09b05b3ad" x="150.198468" y="51.541697" style="fill-opacity: 0; stroke: #1f77b4"/>
     <use xlink:href="#mc09b05b3ad" x="151.652268" y="49.431188" style="fill-opacity: 0; stroke: #1f77b4"/>
     <use xlink:href="#mc09b05b3ad" x="152.277881" y="46.056899" style="fill-opacity: 0; stroke: #1f77b4"/>
     <use xlink:href="#mc09b05b3ad" x="153.518343" y="49.642419" style="fill-opacity: 0; stroke: #1f77b4"/>
     <use xlink:href="#mc09b05b3ad" x="154.354633" y="43.103269" style="fill-opacity: 0; stroke: #1f77b4"/>
     <use xlink:href="#mc09b05b3ad" x="156.212575" y="51.117429" style="fill-opacity: 0; stroke: #1f77b4"/>
     <use xlink:href="#mc09b05b3ad" x="156.432923" y="38.672823" style="fill-opacity: 0; stroke: #1f77b4"/>
     <use xlink:href="#mc09b05b3ad" x="157.258419" y="42.469574" style="fill-opacity: 0; stroke: #1f77b4"/>
     <use xlink:href="#mc09b05b3ad" x="157.458981" y="49.006919" style="fill-opacity: 0; stroke: #1f77b4"/>
     <use xlink:href="#mc09b05b3ad" x="158.707132" y="45.210168" style="fill-opacity: 0; stroke: #1f77b4"/>
     <use xlink:href="#mc09b05b3ad" x="159.322188" y="51.96055" style="fill-opacity: 0; stroke: #1f77b4"/>
     <use xlink:href="#mc09b05b3ad" x="160.984211" y="49.006919" style="fill-opacity: 0; stroke: #1f77b4"/>
     <use xlink:href="#mc09b05b3ad" x="161.186075" y="54.27868" style="fill-opacity: 0; stroke: #1f77b4"/>
     <use xlink:href="#mc09b05b3ad" x="162.220473" y="56.598616" style="fill-opacity: 0; stroke: #1f77b4"/>
     <use xlink:href="#mc09b05b3ad" x="162.432481" y="52.169976" style="fill-opacity: 0; stroke: #1f77b4"/>
     <use xlink:href="#mc09b05b3ad" x="163.466672" y="54.701143" style="fill-opacity: 0; stroke: #1f77b4"/>
     <use xlink:href="#mc09b05b3ad" x="163.876344" y="59.552247" style="fill-opacity: 0; stroke: #1f77b4"/>
     <use xlink:href="#mc09b05b3ad" x="165.1179" y="62.081609" style="fill-opacity: 0; stroke: #1f77b4"/>
     <use xlink:href="#mc09b05b3ad" x="165.537923" y="57.019274" style="fill-opacity: 0; stroke: #1f77b4"/>
     <use xlink:href="#mc09b05b3ad" x="167.19069" y="62.92473" style="fill-opacity: 0; stroke: #1f77b4"/>
     <use xlink:href="#mc09b05b3ad" x="168.233014" y="57.651163" style="fill-opacity: 0; stroke: #1f77b4"/>
     <use xlink:href="#mc09b05b3ad" x="169.465786" y="68.618954" style="fill-opacity: 0; stroke: #1f77b4"/>
     <use xlink:href="#mc09b05b3ad" x="169.473475" y="61.236683" style="fill-opacity: 0; stroke: #1f77b4"/>
     <use xlink:href="#mc09b05b3ad" x="170.29767" y="66.299018" style="fill-opacity: 0; stroke: #1f77b4"/>
     <use xlink:href="#mc09b05b3ad" x="170.501072" y="70.095769" style="fill-opacity: 0; stroke: #1f77b4"/>
     <use xlink:href="#mc09b05b3ad" x="172.575606" y="69.250843" style="fill-opacity: 0; stroke: #1f77b4"/>
     <use xlink:href="#mc09b05b3ad" x="173.402433" y="71.782011" style="fill-opacity: 0; stroke: #1f77b4"/>
     <use xlink:href="#mc09b05b3ad" x="174.021688" y="74.52441" style="fill-opacity: 0; stroke: #1f77b4"/>
     <use xlink:href="#mc09b05b3ad" x="175.055879" y="77.055577" style="fill-opacity: 0; stroke: #1f77b4"/>
     <use xlink:href="#mc09b05b3ad" x="176.304266" y="73.045789" style="fill-opacity: 0; stroke: #1f77b4"/>
     <use xlink:href="#mc09b05b3ad" x="176.921304" y="77.896893" style="fill-opacity: 0; stroke: #1f77b4"/>
     <use xlink:href="#mc09b05b3ad" x="177.962326" y="73.88891" style="fill-opacity: 0; stroke: #1f77b4"/>
     <use xlink:href="#mc09b05b3ad" x="179.409916" y="77.685661" style="fill-opacity: 0; stroke: #1f77b4"/>
     <use xlink:href="#mc09b05b3ad" x="179.612431" y="82.325533" style="fill-opacity: 0; stroke: #1f77b4"/>
     <use xlink:href="#mc09b05b3ad" x="179.619055" y="75.997614" style="fill-opacity: 0; stroke: #1f77b4"/>
     <use xlink:href="#mc09b05b3ad" x="181.69075" y="77.895087" style="fill-opacity: 0; stroke: #1f77b4"/>
     <use xlink:href="#mc09b05b3ad" x="182.099092" y="84.01358" style="fill-opacity: 0; stroke: #1f77b4"/>
     <use xlink:href="#mc09b05b3ad" x="183.553306" y="81.480607" style="fill-opacity: 0; stroke: #1f77b4"/>
     <use xlink:href="#mc09b05b3ad" x="183.960968" y="88.230989" style="fill-opacity: 0; stroke: #1f77b4"/>
     <use xlink:href="#mc09b05b3ad" x="185.417163" y="83.800543" style="fill-opacity: 0; stroke: #1f77b4"/>
     <use xlink:href="#mc09b05b3ad" x="185.829704" y="85.909247" style="fill-opacity: 0; stroke: #1f77b4"/>
     <use xlink:href="#mc09b05b3ad" x="186.448516" y="89.07411" style="fill-opacity: 0; stroke: #1f77b4"/>
     <use xlink:href="#mc09b05b3ad" x="188.735944" y="82.955617" style="fill-opacity: 0; stroke: #1f77b4"/>
     <use xlink:href="#mc09b05b3ad" x="189.977057" y="85.907442" style="fill-opacity: 0; stroke: #1f77b4"/>
     <use xlink:href="#mc09b05b3ad" x="190.180666" y="89.492962" style="fill-opacity: 0; stroke: #1f77b4"/>
     <use xlink:href="#mc09b05b3ad" x="190.800778" y="91.39224" style="fill-opacity: 0; stroke: #1f77b4"/>
     <use xlink:href="#mc09b05b3ad" x="192.253898" y="89.915425" style="fill-opacity: 0; stroke: #1f77b4"/>
     <use xlink:href="#mc09b05b3ad" x="192.456206" y="94.766528" style="fill-opacity: 0; stroke: #1f77b4"/>
     <use xlink:href="#mc09b05b3ad" x="193.910184" y="92.444787" style="fill-opacity: 0; stroke: #1f77b4"/>
     <use xlink:href="#mc09b05b3ad" x="195.153071" y="93.710371" style="fill-opacity: 0; stroke: #1f77b4"/>
     <use xlink:href="#mc09b05b3ad" x="195.564074" y="97.29589" style="fill-opacity: 0; stroke: #1f77b4"/>
     <use xlink:href="#mc09b05b3ad" x="196.806724" y="98.772706" style="fill-opacity: 0; stroke: #1f77b4"/>
     <use xlink:href="#mc09b05b3ad" x="198.255881" y="101.092642" style="fill-opacity: 0; stroke: #1f77b4"/>
     <use xlink:href="#mc09b05b3ad" x="198.676762" y="95.185381" style="fill-opacity: 0; stroke: #1f77b4"/>
     <use xlink:href="#mc09b05b3ad" x="199.087529" y="98.982132" style="fill-opacity: 0; stroke: #1f77b4"/>
     <use xlink:href="#mc09b05b3ad" x="200.535799" y="102.145189" style="fill-opacity: 0; stroke: #1f77b4"/>
     <use xlink:href="#mc09b05b3ad" x="201.570877" y="103.833235" style="fill-opacity: 0; stroke: #1f77b4"/>
     <use xlink:href="#mc09b05b3ad" x="201.982087" y="107.207524" style="fill-opacity: 0; stroke: #1f77b4"/>
     <use xlink:href="#mc09b05b3ad" x="202.601993" y="109.316228" style="fill-opacity: 0; stroke: #1f77b4"/>
     <use xlink:href="#mc09b05b3ad" x="203.639911" y="108.261876" style="fill-opacity: 0; stroke: #1f77b4"/>
     <use xlink:href="#mc09b05b3ad" x="204.882797" y="109.52746" style="fill-opacity: 0; stroke: #1f77b4"/>
     <use xlink:href="#mc09b05b3ad" x="206.124797" y="111.636164" style="fill-opacity: 0; stroke: #1f77b4"/>
     <use xlink:href="#mc09b05b3ad" x="206.744496" y="113.9561" style="fill-opacity: 0; stroke: #1f77b4"/>
     <use xlink:href="#mc09b05b3ad" x="206.954285" y="111.634359" style="fill-opacity: 0; stroke: #1f77b4"/>
     <use xlink:href="#mc09b05b3ad" x="209.027932" y="111.634359" style="fill-opacity: 0; stroke: #1f77b4"/>
     <use xlink:href="#mc09b05b3ad" x="209.228909" y="117.751046" style="fill-opacity: 0; stroke: #1f77b4"/>
     <use xlink:href="#mc09b05b3ad" x="209.231127" y="115.642342" style="fill-opacity: 0; stroke: #1f77b4"/>
     <use xlink:href="#mc09b05b3ad" x="210.47221" y="118.594167" style="fill-opacity: 0; stroke: #1f77b4"/>
     <use xlink:href="#mc09b05b3ad" x="210.675878" y="122.179687" style="fill-opacity: 0; stroke: #1f77b4"/>
     <use xlink:href="#mc09b05b3ad" x="212.538197" y="125.976438" style="fill-opacity: 0; stroke: #1f77b4"/>
     <use xlink:href="#mc09b05b3ad" x="213.162953" y="123.44527" style="fill-opacity: 0; stroke: #1f77b4"/>
     <use xlink:href="#mc09b05b3ad" x="214.195163" y="127.873911" style="fill-opacity: 0; stroke: #1f77b4"/>
     <use xlink:href="#mc09b05b3ad" x="214.607704" y="129.982615" style="fill-opacity: 0; stroke: #1f77b4"/>
     <use xlink:href="#mc09b05b3ad" x="215.019535" y="132.725014" style="fill-opacity: 0; stroke: #1f77b4"/>
     <use xlink:href="#mc09b05b3ad" x="216.6807" y="130.614504" style="fill-opacity: 0; stroke: #1f77b4"/>
     <use xlink:href="#mc09b05b3ad" x="217.50732" y="133.356903" style="fill-opacity: 0; stroke: #1f77b4"/>
     <use xlink:href="#mc09b05b3ad" x="218.126102" y="136.51996" style="fill-opacity: 0; stroke: #1f77b4"/>
     <use xlink:href="#mc09b05b3ad" x="219.989988" y="138.839896" style="fill-opacity: 0; stroke: #1f77b4"/>
     <use xlink:href="#mc09b05b3ad" x="220.40803" y="135.676839" style="fill-opacity: 0; stroke: #1f77b4"/>
     <use xlink:href="#mc09b05b3ad" x="221.232195" y="140.739175" style="fill-opacity: 0; stroke: #1f77b4"/>
     <use xlink:href="#mc09b05b3ad" x="221.849469" y="145.379047" style="fill-opacity: 0; stroke: #1f77b4"/>
     <use xlink:href="#mc09b05b3ad" x="223.091232" y="147.698983" style="fill-opacity: 0; stroke: #1f77b4"/>
     <use xlink:href="#mc09b05b3ad" x="223.917171" y="151.073271" style="fill-opacity: 0; stroke: #1f77b4"/>
     <use xlink:href="#mc09b05b3ad" x="224.739148" y="158.24431" style="fill-opacity: 0; stroke: #1f77b4"/>
     <use xlink:href="#mc09b05b3ad" x="225.157426" y="154.870022" style="fill-opacity: 0; stroke: #1f77b4"/>
     <use xlink:href="#mc09b05b3ad" x="225.561154" y="165.41535" style="fill-opacity: 0; stroke: #1f77b4"/>
     <use xlink:href="#mc09b05b3ad" x="227.223591" y="162.041062" style="fill-opacity: 0; stroke: #1f77b4"/>
     <use xlink:href="#mc09b05b3ad" x="227.634594" y="165.626581" style="fill-opacity: 0; stroke: #1f77b4"/>
     <use xlink:href="#mc09b05b3ad" x="228.254056" y="168.155943" style="fill-opacity: 0; stroke: #1f77b4"/>
     <use xlink:href="#mc09b05b3ad" x="229.288247" y="170.687111" style="fill-opacity: 0; stroke: #1f77b4"/>
     <use xlink:href="#mc09b05b3ad" x="230.529774" y="173.218279" style="fill-opacity: 0; stroke: #1f77b4"/>
     <use xlink:href="#mc09b05b3ad" x="231.148585" y="176.381335" style="fill-opacity: 0; stroke: #1f77b4"/>
     <use xlink:href="#mc09b05b3ad" x="232.596856" y="179.546197" style="fill-opacity: 0; stroke: #1f77b4"/>
     <use xlink:href="#mc09b05b3ad" x="233.838648" y="181.866133" style="fill-opacity: 0; stroke: #1f77b4"/>
     <use xlink:href="#mc09b05b3ad" x="234.671863" y="178.278808" style="fill-opacity: 0; stroke: #1f77b4"/>
     <use xlink:href="#mc09b05b3ad" x="236.325723" y="183.129912" style="fill-opacity: 0; stroke: #1f77b4"/>
     <use xlink:href="#mc09b05b3ad" x="238.192449" y="182.707449" style="fill-opacity: 0; stroke: #1f77b4"/>
     <use xlink:href="#mc09b05b3ad" x="239.020399" y="184.184264" style="fill-opacity: 0; stroke: #1f77b4"/>
     <use xlink:href="#mc09b05b3ad" x="239.639861" y="186.713626" style="fill-opacity: 0; stroke: #1f77b4"/>
     <use xlink:href="#mc09b05b3ad" x="241.712621" y="187.556747" style="fill-opacity: 0; stroke: #1f77b4"/>
     <use xlink:href="#mc09b05b3ad" x="242.332083" y="190.087914" style="fill-opacity: 0; stroke: #1f77b4"/>
     <use xlink:href="#mc09b05b3ad" x="244.612266" y="190.931035" style="fill-opacity: 0; stroke: #1f77b4"/>
     <use xlink:href="#mc09b05b3ad" x="245.438649" y="193.884666" style="fill-opacity: 0; stroke: #1f77b4"/>
     <use xlink:href="#mc09b05b3ad" x="247.51407" y="192.194813" style="fill-opacity: 0; stroke: #1f77b4"/>
     <use xlink:href="#mc09b05b3ad" x="248.339803" y="195.780333" style="fill-opacity: 0; stroke: #1f77b4"/>
     <use xlink:href="#mc09b05b3ad" x="249.585529" y="194.303518" style="fill-opacity: 0; stroke: #1f77b4"/>
     <use xlink:href="#mc09b05b3ad" x="250.831728" y="192.406045" style="fill-opacity: 0; stroke: #1f77b4"/>
     <use xlink:href="#mc09b05b3ad" x="251.448528" y="197.466575" style="fill-opacity: 0; stroke: #1f77b4"/>
     <use xlink:href="#mc09b05b3ad" x="251.652374" y="200.842307" style="fill-opacity: 0; stroke: #1f77b4"/>
     <use xlink:href="#mc09b05b3ad" x="253.930517" y="203.583442" style="fill-opacity: 0; stroke: #1f77b4"/>
     <use xlink:href="#mc09b05b3ad" x="254.141667" y="199.997562" style="fill-opacity: 0; stroke: #1f77b4"/>
     <use xlink:href="#mc09b05b3ad" x="257.041489" y="203.160438" style="fill-opacity: 0; stroke: #1f77b4"/>
     <use xlink:href="#mc09b05b3ad" x="257.245572" y="206.324217" style="fill-opacity: 0; stroke: #1f77b4"/>
     <use xlink:href="#mc09b05b3ad" x="258.072398" y="208.855204" style="fill-opacity: 0; stroke: #1f77b4"/>
     <use xlink:href="#mc09b05b3ad" x="259.11209" y="206.112624" style="fill-opacity: 0; stroke: #1f77b4"/>
     <use xlink:href="#mc09b05b3ad" x="261.390913" y="208.220967" style="fill-opacity: 0; stroke: #1f77b4"/>
     <use xlink:href="#mc09b05b3ad" x="261.801916" y="211.806668" style="fill-opacity: 0; stroke: #1f77b4"/>
     <use xlink:href="#mc09b05b3ad" x="263.669529" y="210.540362" style="fill-opacity: 0; stroke: #1f77b4"/>
     <use xlink:href="#mc09b05b3ad" x="263.874262" y="213.071529" style="fill-opacity: 0; stroke: #1f77b4"/>
     <use xlink:href="#mc09b05b3ad" x="266.158172" y="210.328408" style="fill-opacity: 0; stroke: #1f77b4"/>
     <use xlink:href="#mc09b05b3ad" x="267.191919" y="213.281136" style="fill-opacity: 0; stroke: #1f77b4"/>
     <use xlink:href="#mc09b05b3ad" x="268.645246" y="211.593089" style="fill-opacity: 0; stroke: #1f77b4"/>
     <use xlink:href="#mc09b05b3ad" x="269.678787" y="214.756687" style="fill-opacity: 0; stroke: #1f77b4"/>
     <use xlink:href="#mc09b05b3ad" x="271.34081" y="211.802876" style="fill-opacity: 0; stroke: #1f77b4"/>
     <use xlink:href="#mc09b05b3ad" x="271.543768" y="216.021549" style="fill-opacity: 0; stroke: #1f77b4"/>
     <use xlink:href="#mc09b05b3ad" x="273.619189" y="214.333322" style="fill-opacity: 0; stroke: #1f77b4"/>
     <use xlink:href="#mc09b05b3ad" x="275.693309" y="213.910498" style="fill-opacity: 0; stroke: #1f77b4"/>
     <use xlink:href="#mc09b05b3ad" x="280.669411" y="214.541484" style="fill-opacity: 0; stroke: #1f77b4"/>
    </g>
   </g>
   <g id="line2d_2">
    <path d="M 42.61024 213.963712 
L 45.807303 213.036136 
L 48.737943 211.968063 
L 51.668584 210.660354 
L 54.332803 209.237472 
L 56.997021 207.567524 
L 59.66124 205.627472 
L 62.325459 203.394978 
L 64.989678 200.848751 
L 67.653897 197.968812 
L 70.318115 194.736611 
L 72.982334 191.134881 
L 75.646553 187.147086 
L 78.310772 182.756235 
L 80.974991 177.942788 
L 83.639209 172.681345 
L 86.303428 166.935803 
L 88.967647 160.652921 
L 91.631866 153.754886 
L 94.029663 146.931626 
L 96.42746 139.422138 
L 98.825257 131.11609 
L 101.223053 121.922724 
L 103.62085 111.832864 
L 107.084335 96.107986 
L 110.281397 81.888567 
L 111.879929 75.759343 
L 113.212038 71.569651 
L 114.277726 68.983298 
L 115.076991 67.545025 
L 115.876257 66.554311 
L 116.675522 66.00496 
L 117.208366 65.870282 
L 117.74121 65.904233 
L 118.540476 66.227295 
L 119.606163 67.030826 
L 122.270382 69.373977 
L 123.069648 69.764379 
L 123.868913 69.887077 
L 124.668179 69.717425 
L 125.467444 69.26107 
L 126.26671 68.549242 
L 127.332398 67.288445 
L 128.930929 65.001751 
L 132.660835 59.538062 
L 134.79221 56.871583 
L 136.657163 54.88453 
L 138.522117 53.227746 
L 140.120648 52.071842 
L 141.719179 51.158836 
L 143.31771 50.485913 
L 144.916242 50.048469 
L 146.514773 49.840181 
L 148.113304 49.853091 
L 149.711836 50.07772 
L 151.310367 50.503212 
L 153.17532 51.237321 
L 155.040273 52.20744 
L 157.171648 53.576398 
L 159.569445 55.406512 
L 162.233664 57.740843 
L 165.430726 60.867622 
L 169.427055 65.120369 
L 175.288336 71.720826 
L 185.412367 83.47408 
L 190.740805 89.950254 
L 194.737133 95.139857 
L 198.200618 99.989448 
L 201.39768 104.834039 
L 204.594743 110.085709 
L 207.791805 115.774585 
L 210.988868 121.903561 
L 214.452352 129.007427 
L 218.715102 138.30019 
L 224.842805 152.284492 
L 231.769774 167.984115 
L 235.766103 176.486668 
L 238.963165 182.800074 
L 241.893806 188.120017 
L 244.558025 192.523808 
L 247.222243 196.490845 
L 249.62004 199.679184 
L 252.017837 202.507128 
L 254.415634 204.984049 
L 256.813431 207.125954 
L 259.211228 208.954238 
L 261.609025 210.494336 
L 264.006822 211.774352 
L 266.671041 212.927417 
L 269.335259 213.836397 
L 272.2659 214.601086 
L 275.462963 215.209174 
L 279.192869 215.691683 
L 283.722041 216.047388 
L 289.849744 216.28532 
L 299.440932 216.403594 
L 308.765697 216.42514 
L 308.765697 216.42514 
" clip-path="url(#p97237d7591)" style="fill: none; stroke: #d62728; stroke-width: 1.5; stroke-linecap: square"/>
   </g>
   <g id="line2d_3">
    <path d="M 42.61024 216.428665 
L 77.511506 216.322455 
L 82.839944 216.079923 
L 86.303428 215.712696 
L 88.967647 215.217362 
L 91.099022 214.615344 
L 92.963975 213.880543 
L 94.828928 212.892543 
L 96.42746 211.795267 
L 98.025991 210.421491 
L 99.624522 208.730552 
L 101.223053 206.691277 
L 102.821585 204.292828 
L 104.686538 201.076319 
L 107.8836 194.971316 
L 109.748554 191.638069 
L 111.080663 189.730063 
L 111.879929 188.889165 
L 112.679194 188.341089 
L 113.212038 188.162965 
L 113.744882 188.149861 
L 114.277726 188.312493 
L 114.810569 188.658856 
L 115.609835 189.532097 
L 116.409101 190.827379 
L 117.208366 192.521008 
L 118.274054 195.31235 
L 119.872585 200.256492 
L 122.270382 207.729252 
L 123.336069 210.466436 
L 124.401757 212.634667 
L 125.201023 213.868122 
L 126.000288 214.786707 
L 126.799554 215.432818 
L 127.865241 215.963893 
L 128.930929 216.236435 
L 130.52946 216.389164 
L 134.259367 216.428448 
L 308.765697 216.428666 
L 308.765697 216.428666 
" clip-path="url(#p97237d7591)" style="fill: none; stroke: #333333; stroke-width: 0.75; stroke-linecap: square"/>
   </g>
   <g id="line2d_4">
    <path d="M 42.61024 213.966467 
L 45.807303 213.041251 
L 48.737943 211.976764 
L 51.668584 210.674703 
L 54.332803 209.25954 
L 56.997021 207.600776 
L 59.66124 205.676672 
L 62.325459 203.466645 
L 64.989678 200.951801 
L 67.653897 198.1155 
L 70.318115 194.943961 
L 72.982334 191.426888 
L 75.646553 187.558113 
L 78.577194 182.894749 
L 81.507834 177.810042 
L 84.704897 171.800091 
L 88.168381 164.781476 
L 91.898288 156.701889 
L 96.42746 146.315835 
L 103.62085 129.133905 
L 109.748554 114.705428 
L 113.47846 106.458343 
L 116.675522 99.933595 
L 119.339741 94.996563 
L 121.737538 91.018242 
L 123.868913 87.902055 
L 125.733866 85.53198 
L 127.59882 83.520029 
L 129.197351 82.097049 
L 130.795882 80.965218 
L 132.394413 80.134944 
L 133.726523 79.679672 
L 135.058632 79.443791 
L 136.390742 79.430283 
L 137.722851 79.641113 
L 139.05496 80.07719 
L 140.38707 80.738342 
L 141.719179 81.623302 
L 143.31771 82.977256 
L 144.916242 84.643802 
L 146.514773 86.614458 
L 148.379726 89.283523 
L 150.244679 92.331207 
L 152.376054 96.246466 
L 154.773851 101.151801 
L 157.43807 107.144686 
L 160.635133 114.95059 
L 164.631461 125.376713 
L 178.75182 162.881587 
L 182.215305 171.127621 
L 185.145945 177.571503 
L 188.076586 183.46896 
L 190.740805 188.328685 
L 193.405024 192.700111 
L 195.802821 196.218642 
L 198.200618 199.352682 
L 200.598414 202.117455 
L 202.996211 204.533043 
L 205.394008 206.623236 
L 207.791805 208.414406 
L 210.189602 209.934457 
L 212.587399 211.211867 
L 215.251618 212.380933 
L 218.182259 213.405599 
L 221.379321 214.263852 
L 224.842805 214.948745 
L 228.839134 215.497505 
L 233.634728 215.913149 
L 239.762431 216.199993 
L 248.554353 216.365224 
L 266.404619 216.425642 
L 308.765697 216.428666 
L 308.765697 216.428666 
" clip-path="url(#p97237d7591)" style="fill: none; stroke: #333333; stroke-width: 0.75; stroke-linecap: square"/>
   </g>
   <g id="line2d_5">
    <path d="M 42.61024 216.425913 
L 66.854631 216.303614 
L 76.978662 216.034399 
L 84.172053 215.629017 
L 90.033335 215.082844 
L 95.09535 214.39179 
L 99.624522 213.549945 
L 103.62085 212.591576 
L 107.350757 211.481103 
L 110.814241 210.234945 
L 114.277726 208.754853 
L 117.474788 207.158014 
L 120.671851 205.31859 
L 123.868913 203.21678 
L 127.065976 200.834274 
L 130.263038 198.15502 
L 133.460101 195.166107 
L 136.657163 191.85874 
L 139.854226 188.229313 
L 143.31771 183.937322 
L 146.781195 179.284128 
L 150.511101 173.898631 
L 154.773851 167.332102 
L 160.102289 158.668503 
L 172.624117 138.099287 
L 176.087602 132.917746 
L 179.018242 128.903007 
L 181.682461 125.627661 
L 184.080258 123.041974 
L 186.211633 121.071155 
L 188.076586 119.625238 
L 189.941539 118.459592 
L 191.540071 117.696858 
L 193.138602 117.162686 
L 194.737133 116.865505 
L 196.335664 116.812256 
L 197.934196 117.008257 
L 199.532727 117.457069 
L 201.131258 118.160391 
L 202.72979 119.117961 
L 204.328321 120.327493 
L 206.193274 122.051134 
L 208.058227 124.101192 
L 209.92318 126.46332 
L 212.054555 129.521671 
L 214.452352 133.38034 
L 217.116571 138.122182 
L 220.313634 144.325742 
L 224.309962 152.628038 
L 236.298946 177.937386 
L 239.762431 184.526649 
L 242.693071 189.637326 
L 245.35729 193.863261 
L 248.021509 197.662782 
L 250.419306 200.709035 
L 252.817103 203.403498 
L 255.2149 205.756149 
L 257.612697 207.783646 
L 260.010494 209.507926 
L 262.40829 210.954769 
L 264.806087 212.152378 
L 267.470306 213.226389 
L 270.134525 214.0689 
L 273.065166 214.773911 
L 276.52865 215.36929 
L 280.524978 215.818375 
L 285.586994 216.142565 
L 292.513963 216.337973 
L 304.769369 216.420215 
L 308.765697 216.42514 
L 308.765697 216.42514 
" clip-path="url(#p97237d7591)" style="fill: none; stroke: #333333; stroke-width: 0.75; stroke-linecap: square"/>
   </g>
   <g id="line2d_6">
    <path d="M 42.61024 213.963712 
L 45.807303 213.036136 
L 48.737943 211.968063 
L 51.668584 210.660354 
L 54.332803 209.237472 
L 56.997021 207.567524 
L 59.66124 205.627472 
L 62.325459 203.394978 
L 64.989678 200.848751 
L 67.653897 197.968812 
L 70.318115 194.736611 
L 72.982334 191.134881 
L 75.646553 187.147086 
L 78.310772 182.756235 
L 80.974991 177.942788 
L 83.639209 172.681345 
L 86.303428 166.935803 
L 88.967647 160.652921 
L 91.631866 153.754886 
L 94.029663 146.931626 
L 96.42746 139.422138 
L 98.825257 131.11609 
L 101.223053 121.922724 
L 103.62085 111.832864 
L 107.084335 96.107986 
L 110.281397 81.888567 
L 111.879929 75.759343 
L 113.212038 71.569651 
L 114.277726 68.983298 
L 115.076991 67.545025 
L 115.876257 66.554311 
L 116.675522 66.00496 
L 117.208366 65.870282 
L 117.74121 65.904233 
L 118.540476 66.227295 
L 119.606163 67.030826 
L 122.270382 69.373977 
L 123.069648 69.764379 
L 123.868913 69.887077 
L 124.668179 69.717425 
L 125.467444 69.26107 
L 126.26671 68.549242 
L 127.332398 67.288445 
L 128.930929 65.001751 
L 132.660835 59.538062 
L 134.79221 56.871583 
L 136.657163 54.88453 
L 138.522117 53.227746 
L 140.120648 52.071842 
L 141.719179 51.158836 
L 143.31771 50.485913 
L 144.916242 50.048469 
L 146.514773 49.840181 
L 148.113304 49.853091 
L 149.711836 50.07772 
L 151.310367 50.503212 
L 153.17532 51.237321 
L 155.040273 52.20744 
L 157.171648 53.576398 
L 159.569445 55.406512 
L 162.233664 57.740843 
L 165.430726 60.867622 
L 169.427055 65.120369 
L 175.288336 71.720826 
L 185.412367 83.47408 
L 190.740805 89.950254 
L 194.737133 95.139857 
L 198.200618 99.989448 
L 201.39768 104.834039 
L 204.594743 110.085709 
L 207.791805 115.774585 
L 210.988868 121.903561 
L 214.452352 129.007427 
L 218.715102 138.30019 
L 224.842805 152.284492 
L 231.769774 167.984115 
L 235.766103 176.486668 
L 238.963165 182.800074 
L 241.893806 188.120017 
L 244.558025 192.523808 
L 247.222243 196.490845 
L 249.62004 199.679184 
L 252.017837 202.507128 
L 254.415634 204.984049 
L 256.813431 207.125954 
L 259.211228 208.954238 
L 261.609025 210.494336 
L 264.006822 211.774352 
L 266.671041 212.927417 
L 269.335259 213.836397 
L 272.2659 214.601086 
L 275.462963 215.209174 
L 279.192869 215.691683 
L 283.722041 216.047388 
L 289.849744 216.28532 
L 299.440932 216.403594 
L 308.765697 216.42514 
L 308.765697 216.42514 
" clip-path="url(#p97237d7591)" style="fill: none; stroke: #000000; stroke-width: 2; stroke-linecap: square"/>
   </g>
   <g id="patch_3">
    <path d="M 42.61024 216.428666 
L 42.61024 17.834923 
" style="fill: none; stroke: #000000; stroke-linejoin: miter; stroke-linecap: square"/>
   </g>
   <g id="patch_4">
    <path d="M 308.765697 216.428666 
L 308.765697 17.834923 
" style="fill: none; stroke: #000000; stroke-linejoin: miter; stroke-linecap: square"/>
   </g>
   <g id="patch_5">
    <path d="M 42.61024 216.428666 
L 308.765697 216.428666 
" style="fill: none; stroke: #000000; stroke-linejoin: miter; stroke-linecap: square"/>
   </g>
   <g id="patch_6">
    <path d="M 42.61024 17.834923 
L 308.765697 17.834923 
" style="fill: none; stroke: #000000; stroke-linejoin: miter; stroke-linecap: square"/>
   </g>
   <g id="matplotlib.axis_1">
    <g id="xtick_1">
     <g id="line2d_7">
      <defs>
       <path id="me2336b07de" d="M 0 0 
L 0 3.75 
" style="stroke: #000000; stroke-width: 1.25"/>
      </defs>
      <g>
       <use xlink:href="#me2336b07de" x="72.183069" y="216.428666" style="stroke: #000000; stroke-width: 1.25"/>
      </g>
     </g>
     <g id="text_1">
      <text style="font: 11px 'Arial'; text-anchor: middle" x="72.183069" y="231.55226" transform="rotate(-0 72.183069 231.55226)">400</text>
     </g>
    </g>
    <g id="xtick_2">
     <g id="line2d_8">
      <g>
       <use xlink:href="#me2336b07de" x="131.328726" y="216.428666" style="stroke: #000000; stroke-width: 1.25"/>
      </g>
     </g>
     <g id="text_2">
      <text style="font: 11px 'Arial'; text-anchor: middle" x="131.328726" y="231.55226" transform="rotate(-0 131.328726 231.55226)">600</text>
     </g>
    </g>
    <g id="xtick_3">
     <g id="line2d_9">
      <g>
       <use xlink:href="#me2336b07de" x="190.474383" y="216.428666" style="stroke: #000000; stroke-width: 1.25"/>
      </g>
     </g>
     <g id="text_3">
      <text style="font: 11px 'Arial'; text-anchor: middle" x="190.474383" y="231.55226" transform="rotate(-0 190.474383 231.55226)">800</text>
     </g>
    </g>
    <g id="xtick_4">
     <g id="line2d_10">
      <g>
       <use xlink:href="#me2336b07de" x="249.62004" y="216.428666" style="stroke: #000000; stroke-width: 1.25"/>
      </g>
     </g>
     <g id="text_4">
      <text style="font: 11px 'Arial'; text-anchor: middle" x="249.62004" y="231.55226" transform="rotate(-0 249.62004 231.55226)">1000</text>
     </g>
    </g>
    <g id="xtick_5">
     <g id="line2d_11">
      <g>
       <use xlink:href="#me2336b07de" x="308.765697" y="216.428666" style="stroke: #000000; stroke-width: 1.25"/>
      </g>
     </g>
     <g id="text_5">
      <text style="font: 11px 'Arial'; text-anchor: middle" x="308.765697" y="231.55226" transform="rotate(-0 308.765697 231.55226)">1200</text>
     </g>
    </g>
    <g id="text_6">
     <text style="font: 12px 'Arial'; text-anchor: middle" x="175.687969" y="246.474135" transform="rotate(-0 175.687969 246.474135)">Temperature (K)</text>
    </g>
   </g>
   <g id="matplotlib.axis_2">
    <g id="ytick_1">
     <g id="line2d_12">
      <defs>
       <path id="m5b5207190f" d="M 0 0 
L -3.75 0 
" style="stroke: #000000; stroke-width: 1.25"/>
      </defs>
      <g>
       <use xlink:href="#m5b5207190f" x="42.61024" y="216.428666" style="stroke: #000000; stroke-width: 1.25"/>
      </g>
     </g>
     <g id="line2d_13">
      <defs>
       <path id="m65a280ead6" d="M 0 0 
L 3.75 0 
" style="stroke: #000000; stroke-width: 1.25"/>
      </defs>
      <g>
       <use xlink:href="#m65a280ead6" x="308.765697" y="216.428666" style="stroke: #000000; stroke-width: 1.25"/>
      </g>
     </g>
     <g id="text_7">
      <!-- $\mathdefault{0.0}$ -->
      <g transform="translate(19.96024 220.365463)">
       <text>
        <tspan style="font: 11px 'Arial'" x="0 6.117676 9.173828" y="-0.09375">0.0</tspan>
       </text>
      </g>
     </g>
    </g>
    <g id="ytick_2">
     <g id="line2d_14">
      <g>
       <use xlink:href="#m5b5207190f" x="42.61024" y="180.320713" style="stroke: #000000; stroke-width: 1.25"/>
      </g>
     </g>
     <g id="line2d_15">
      <g>
       <use xlink:href="#m65a280ead6" x="308.765697" y="180.320713" style="stroke: #000000; stroke-width: 1.25"/>
      </g>
     </g>
     <g id="text_8">
      <!-- $\mathdefault{0.2}$ -->
      <g transform="translate(19.96024 184.25751)">
       <text>
        <tspan style="font: 11px 'Arial'" x="0 6.117676 9.173828" y="-0.09375">0.2</tspan>
       </text>
      </g>
     </g>
    </g>
    <g id="ytick_3">
     <g id="line2d_16">
      <g>
       <use xlink:href="#m5b5207190f" x="42.61024" y="144.21276" style="stroke: #000000; stroke-width: 1.25"/>
      </g>
     </g>
     <g id="line2d_17">
      <g>
       <use xlink:href="#m65a280ead6" x="308.765697" y="144.21276" style="stroke: #000000; stroke-width: 1.25"/>
      </g>
     </g>
     <g id="text_9">
      <!-- $\mathdefault{0.4}$ -->
      <g transform="translate(19.96024 148.149557)">
       <text>
        <tspan style="font: 11px 'Arial'" x="0 6.117676 9.173828" y="-0.09375">0.4</tspan>
       </text>
      </g>
     </g>
    </g>
    <g id="ytick_4">
     <g id="line2d_18">
      <g>
       <use xlink:href="#m5b5207190f" x="42.61024" y="108.104806" style="stroke: #000000; stroke-width: 1.25"/>
      </g>
     </g>
     <g id="line2d_19">
      <g>
       <use xlink:href="#m65a280ead6" x="308.765697" y="108.104806" style="stroke: #000000; stroke-width: 1.25"/>
      </g>
     </g>
     <g id="text_10">
      <!-- $\mathdefault{0.6}$ -->
      <g transform="translate(19.96024 112.041603)">
       <text>
        <tspan style="font: 11px 'Arial'" x="0 6.117676 9.173828" y="-0.09375">0.6</tspan>
       </text>
      </g>
     </g>
    </g>
    <g id="ytick_5">
     <g id="line2d_20">
      <g>
       <use xlink:href="#m5b5207190f" x="42.61024" y="71.996853" style="stroke: #000000; stroke-width: 1.25"/>
      </g>
     </g>
     <g id="line2d_21">
      <g>
       <use xlink:href="#m65a280ead6" x="308.765697" y="71.996853" style="stroke: #000000; stroke-width: 1.25"/>
      </g>
     </g>
     <g id="text_11">
      <!-- $\mathdefault{0.8}$ -->
      <g transform="translate(19.96024 75.93365)">
       <text>
        <tspan style="font: 11px 'Arial'" x="0 6.117676 9.173828" y="-0.09375">0.8</tspan>
       </text>
      </g>
     </g>
    </g>
    <g id="ytick_6">
     <g id="line2d_22">
      <g>
       <use xlink:href="#m5b5207190f" x="42.61024" y="35.8889" style="stroke: #000000; stroke-width: 1.25"/>
      </g>
     </g>
     <g id="line2d_23">
      <g>
       <use xlink:href="#m65a280ead6" x="308.765697" y="35.8889" style="stroke: #000000; stroke-width: 1.25"/>
      </g>
     </g>
     <g id="text_12">
      <!-- $\mathdefault{1.0}$ -->
      <g transform="translate(19.96024 39.825697)">
       <text>
        <tspan style="font: 11px 'Arial'" x="0 6.117676 9.173828" y="-0.09375">1.0</tspan>
       </text>
      </g>
     </g>
    </g>
    <g id="text_13">
     <!-- Desorption flux (m$^{\mathregular{-2}}$ s$^{\mathregular{-1}}$) -->
     <g transform="translate(13.32024 182.771795) rotate(-90)">
      <text>
       <tspan style="font: 12px 'Arial'" x="0 8.666016 15.339844 21.339844 28.013672 32.009766 38.683594 42.017578 44.683594 51.357422 58.03125 61.365234 64.699219 67.365234 74.039062 80.039062 83.373047 87.369141 107.657461 110.991445 127.283672" y="-0.7250000000000014">Desorption flux (m s)</tspan>
       <tspan style="font: 8.4px 'Arial'" x="97.550625 102.456094 117.176836 122.082305" y="-4.962500000000001">−2−1</tspan>
      </text>
     </g>
    </g>
    <g id="text_14">
     <!-- $\times\mathdefault{10^{17}}\mathdefault{}$ -->
     <g transform="translate(42.61024 14.834923)">
      <text>
       <tspan style="font: 11px 'STIXGeneral'" x="0" y="-0.799312500000001">×</tspan>
       <tspan style="font: 11px 'Arial'" x="7.039993 13.157669" y="-0.799312500000001">10</tspan>
       <tspan style="font: 7.7px 'Arial'" x="19.467003 23.749376" y="-8.465625">17</tspan>
      </text>
     </g>
    </g>
   </g>
   <g id="text_15">
    <!-- {\sffamily D\textsuperscript{+} → B Hammada (2012)} -->
    <g transform="translate(107.176082 11.834923) scale(0.12 -0.12)">
     <defs>
      <path id="NimbusSanL-Regu-44" d="M 570 0 
L 2368 0 
C 3546 0 4269 883 4269 2339 
C 4269 3788 3552 4672 2368 4672 
L 570 4672 
L 570 0 
z
M 1165 524 
L 1165 4147 
L 2266 4147 
C 3187 4147 3674 3525 3674 2332 
C 3674 1153 3187 524 2266 524 
L 1165 524 
z
" transform="scale(0.015625)"/>
      <path id="NimbusSanL-Regu-2b" d="M 3418 1728 
L 2093 1728 
L 2093 3052 
L 1645 3052 
L 1645 1728 
L 320 1728 
L 320 1279 
L 1645 1279 
L 1645 -64 
L 2093 -64 
L 2093 1279 
L 3418 1279 
L 3418 1728 
z
" transform="scale(0.015625)"/>
      <path id="SFSS3583-19" d="M 4032 3264 
C 4096 2818 4288 2405 4570 2057 
C 4666 1934 4781 1837 4890 1728 
L 486 1728 
C 410 1728 320 1715 320 1625 
C 320 1535 410 1523 486 1523 
L 4890 1523 
C 4781 1414 4666 1318 4570 1196 
C 4288 851 4096 441 4032 0 
L 4237 0 
C 4378 672 4762 1331 5402 1619 
L 5402 1631 
C 4787 1908 4371 2599 4237 3264 
L 4032 3264 
z
" transform="scale(0.015625)"/>
      <path id="NimbusSanL-Regu-42" d="M 506 0 
L 2611 0 
C 3053 0 3379 121 3629 390 
C 3859 632 3987 961 3987 1321 
C 3987 1878 3731 2214 3136 2444 
C 3558 2643 3782 2994 3782 3476 
C 3782 3821 3654 4127 3411 4345 
C 3168 4569 2848 4672 2400 4672 
L 506 4672 
L 506 0 
z
M 1101 2636 
L 1101 4147 
L 2253 4147 
C 2586 4147 2771 4101 2931 3977 
C 3098 3847 3187 3652 3187 3391 
C 3187 3138 3098 2936 2931 2806 
C 2771 2682 2586 2636 2253 2636 
L 1101 2636 
z
M 1101 524 
L 1101 2112 
L 2554 2112 
C 2842 2112 3034 2042 3174 1890 
C 3315 1745 3392 1542 3392 1315 
C 3392 1093 3315 891 3174 746 
C 3034 594 2842 524 2554 524 
L 1101 524 
z
" transform="scale(0.015625)"/>
      <path id="NimbusSanL-Regu-48" d="M 3526 2112 
L 3526 0 
L 4122 0 
L 4122 4672 
L 3526 4672 
L 3526 2636 
L 1126 2636 
L 1126 4672 
L 531 4672 
L 531 0 
L 1133 0 
L 1133 2112 
L 3526 2112 
z
" transform="scale(0.015625)"/>
      <path id="NimbusSanL-Regu-61" d="M 3424 332 
C 3366 320 3341 320 3309 320 
C 3123 320 3021 415 3021 581 
L 3021 2542 
C 3021 3135 2586 3456 1760 3456 
C 1274 3456 870 3315 646 3065 
C 493 2893 429 2702 416 2370 
L 954 2370 
C 998 2778 1242 2963 1741 2963 
C 2221 2963 2490 2784 2490 2466 
L 2490 2326 
C 2490 2103 2355 2007 1933 1956 
C 1178 1861 1062 1835 858 1753 
C 467 1593 269 1294 269 861 
C 269 256 691 -128 1370 -128 
C 1792 -128 2131 19 2509 364 
C 2547 25 2714 -128 3059 -128 
C 3168 -128 3251 -116 3424 -71 
L 3424 332 
z
M 2490 1071 
C 2490 893 2438 785 2278 638 
C 2061 441 1798 339 1485 339 
C 1069 339 826 536 826 874 
C 826 1224 1062 1402 1632 1485 
C 2195 1562 2310 1587 2490 1670 
L 2490 1071 
z
" transform="scale(0.015625)"/>
      <path id="NimbusSanL-Regu-6d" d="M 448 3328 
L 448 0 
L 986 0 
L 986 2089 
C 986 2597 1338 2988 1773 2988 
C 2170 2988 2394 2744 2394 2315 
L 2394 0 
L 2931 0 
L 2931 2109 
C 2931 2597 3283 2988 3718 2988 
C 4109 2988 4339 2738 4339 2315 
L 4339 0 
L 4877 0 
L 4877 2520 
C 4877 3123 4531 3456 3904 3456 
C 3456 3456 3187 3321 2874 2943 
C 2675 3302 2406 3456 1971 3456 
C 1523 3456 1229 3289 941 2886 
L 941 3328 
L 448 3328 
z
" transform="scale(0.015625)"/>
      <path id="NimbusSanL-Regu-64" d="M 3168 4672 
L 2637 4672 
L 2637 2937 
C 2413 3276 2054 3456 1606 3456 
C 736 3456 166 2759 166 1695 
C 166 568 723 -128 1626 -128 
C 2086 -128 2406 44 2694 460 
L 2694 19 
L 3168 19 
L 3168 4672 
z
M 1696 2956 
C 2272 2956 2637 2447 2637 1651 
C 2637 880 2266 371 1702 371 
C 1114 371 723 887 723 1663 
C 723 2440 1114 2956 1696 2956 
z
" transform="scale(0.015625)"/>
      <path id="NimbusSanL-Regu-28" d="M 1510 4672 
C 870 3833 467 2668 467 1663 
C 467 652 870 -513 1510 -1351 
L 1862 -1351 
C 1299 -436 986 639 986 1663 
C 986 2681 1299 3763 1862 4672 
L 1510 4672 
z
" transform="scale(0.015625)"/>
      <path id="NimbusSanL-Regu-32" d="M 3238 556 
L 851 556 
C 909 928 1114 1165 1670 1493 
L 2310 1839 
C 2944 2185 3270 2653 3270 3211 
C 3270 3589 3117 3942 2848 4185 
C 2579 4428 2246 4544 1818 4544 
C 1242 4544 813 4339 563 3955 
C 403 3711 333 3429 320 2967 
L 883 2967 
C 902 3275 941 3461 1018 3608 
C 1165 3884 1459 4051 1798 4051 
C 2310 4051 2694 3685 2694 3198 
C 2694 2839 2483 2531 2080 2300 
L 1491 1967 
C 544 1428 269 999 218 0 
L 3238 0 
L 3238 556 
z
" transform="scale(0.015625)"/>
      <path id="NimbusSanL-Regu-30" d="M 1760 4544 
C 1338 4544 954 4358 717 4044 
C 422 3649 275 3043 275 2207 
C 275 683 787 -128 1760 -128 
C 2720 -128 3245 683 3245 2169 
C 3245 3049 3104 3636 2803 4044 
C 2566 4364 2189 4544 1760 4544 
z
M 1760 4044 
C 2368 4044 2669 3432 2669 2220 
C 2669 938 2374 339 1747 339 
C 1152 339 851 964 851 2201 
C 851 3438 1152 4044 1760 4044 
z
" transform="scale(0.015625)"/>
      <path id="NimbusSanL-Regu-31" d="M 1658 3232 
L 1658 0 
L 2221 0 
L 2221 4537 
L 1850 4537 
C 1651 3840 1523 3744 653 3635 
L 653 3232 
L 1658 3232 
z
" transform="scale(0.015625)"/>
      <path id="NimbusSanL-Regu-29" d="M 595 -1351 
C 1235 -513 1638 652 1638 1657 
C 1638 2668 1235 3833 595 4672 
L 243 4672 
C 806 3756 1120 2681 1120 1657 
C 1120 639 806 -442 243 -1351 
L 595 -1351 
z
" transform="scale(0.015625)"/>
     </defs>
     <use xlink:href="#NimbusSanL-Regu-44" transform="scale(0.996264)"/>
     <use xlink:href="#NimbusSanL-Regu-2b" transform="translate(71.929985 36.163231) scale(0.737241)"/>
     <use xlink:href="#SFSS3583-19" transform="translate(143.177911 0) scale(0.996264)"/>
     <use xlink:href="#NimbusSanL-Regu-42" transform="translate(260.15362 0) scale(0.996264)"/>
     <use xlink:href="#NimbusSanL-Regu-48" transform="translate(354.298821 0) scale(0.996264)"/>
     <use xlink:href="#NimbusSanL-Regu-61" transform="translate(426.228806 0) scale(0.996264)"/>
     <use xlink:href="#NimbusSanL-Regu-6d" transform="translate(481.620483 0) scale(0.996264)"/>
     <use xlink:href="#NimbusSanL-Regu-6d" transform="translate(564.608913 0) scale(0.996264)"/>
     <use xlink:href="#NimbusSanL-Regu-61" transform="translate(647.597343 0) scale(0.996264)"/>
     <use xlink:href="#NimbusSanL-Regu-64" transform="translate(702.98902 0) scale(0.996264)"/>
     <use xlink:href="#NimbusSanL-Regu-61" transform="translate(758.380697 0) scale(0.996264)"/>
     <use xlink:href="#NimbusSanL-Regu-28" transform="translate(841.467544 0) scale(0.996264)"/>
     <use xlink:href="#NimbusSanL-Regu-32" transform="translate(874.642773 0) scale(0.996264)"/>
     <use xlink:href="#NimbusSanL-Regu-30" transform="translate(930.03445 0) scale(0.996264)"/>
     <use xlink:href="#NimbusSanL-Regu-31" transform="translate(985.426127 0) scale(0.996264)"/>
     <use xlink:href="#NimbusSanL-Regu-32" transform="translate(1040.817804 0) scale(0.996264)"/>
     <use xlink:href="#NimbusSanL-Regu-29" transform="translate(1096.209481 0) scale(0.996264)"/>
    </g>
   </g>
  </g>
 </g>
 <defs>
  <clipPath id="p97237d7591">
   <rect x="42.61024" y="17.834923" width="266.155458" height="198.593743"/>
  </clipPath>
 </defs>
</svg>
