<?xml version="1.0" encoding="utf-8" standalone="no"?>
<!DOCTYPE svg PUBLIC "-//W3C//DTD SVG 1.1//EN"
  "http://www.w3.org/Graphics/SVG/1.1/DTD/svg11.dtd">
<svg xmlns:xlink="http://www.w3.org/1999/xlink" width="324pt" height="252pt" viewBox="0 0 324 252" xmlns="http://www.w3.org/2000/svg" version="1.1">
 <metadata>
  <rdf:RDF xmlns:dc="http://purl.org/dc/elements/1.1/" xmlns:cc="http://creativecommons.org/ns#" xmlns:rdf="http://www.w3.org/1999/02/22-rdf-syntax-ns#">
   <cc:Work>
    <dc:type rdf:resource="http://purl.org/dc/dcmitype/StillImage"/>
    <dc:date>2024-12-06T11:07:04.677125</dc:date>
    <dc:format>image/svg+xml</dc:format>
    <dc:creator>
     <cc:Agent>
      <dc:title>Matplotlib v3.9.2, https://matplotlib.org/</dc:title>
     </cc:Agent>
    </dc:creator>
   </cc:Work>
  </rdf:RDF>
 </metadata>
 <defs>
  <style type="text/css">*{stroke-linejoin: round; stroke-linecap: butt}</style>
 </defs>
 <g id="figure_1">
  <g id="patch_1">
   <path d="M 0 252 
L 324 252 
L 324 0 
L 0 0 
z
" style="fill: #ffffff"/>
  </g>
  <g id="axes_1">
   <g id="patch_2">
    <path d="M 43.003987 216.404326 
L 320.99976 216.404326 
L 320.99976 17.735865 
L 43.003987 17.735865 
z
" style="fill: #ffffff"/>
   </g>
   <g id="PolyCollection_1">
    <path d="M 43.29563 216.363372 
L 43.29563 216.404326 
L 44.651744 216.404326 
L 46.008869 216.404326 
L 47.364983 216.404326 
L 48.722108 216.404326 
L 50.078222 216.404326 
L 51.435346 216.404326 
L 52.792977 216.404326 
L 54.148585 216.404326 
L 55.506215 216.404326 
L 56.86334 216.404326 
L 58.22097 216.404326 
L 59.578601 216.404326 
L 60.935726 216.404326 
L 62.293356 216.404326 
L 63.650481 216.404326 
L 65.008111 216.404326 
L 66.366752 216.404326 
L 67.724382 216.404326 
L 69.081507 216.404326 
L 70.440654 216.404326 
L 71.798284 216.404326 
L 73.156925 216.404326 
L 74.514555 216.404326 
L 75.873197 216.404326 
L 77.232343 216.404326 
L 78.589468 216.404326 
L 79.948615 216.404326 
L 81.307761 216.404326 
L 82.666402 216.404326 
L 84.025549 216.404326 
L 85.38419 216.404326 
L 86.743337 216.404326 
L 88.102483 216.404326 
L 89.462641 216.404326 
L 90.821787 216.404326 
L 92.180934 216.404326 
L 93.541092 216.404326 
L 94.900238 216.404326 
L 96.260396 216.404326 
L 97.619542 216.404326 
L 98.980205 216.404326 
L 100.338846 216.404326 
L 101.699509 216.404326 
L 103.060172 216.404326 
L 104.42033 216.404326 
L 105.780993 216.404326 
L 107.141656 216.404326 
L 108.501813 216.404326 
L 109.862476 216.404326 
L 111.222634 216.404326 
L 112.583297 216.404326 
L 113.943959 216.404326 
L 115.305633 216.404326 
L 116.666296 216.404326 
L 118.026959 216.404326 
L 119.388633 216.404326 
L 120.749296 216.404326 
L 122.111475 216.404326 
L 123.473655 216.404326 
L 124.833812 216.404326 
L 126.195991 216.404326 
L 127.558171 216.404326 
L 128.919844 216.404326 
L 130.282024 216.404326 
L 131.644203 216.404326 
L 133.005877 216.404326 
L 134.368056 216.404326 
L 135.730235 216.404326 
L 137.091909 216.404326 
L 138.455605 216.404326 
L 139.817784 216.404326 
L 141.179963 216.404326 
L 142.543154 216.404326 
L 143.905333 216.404326 
L 145.269029 216.404326 
L 146.632724 216.404326 
L 147.994398 216.404326 
L 149.358094 216.404326 
L 150.721789 216.404326 
L 152.085485 216.404326 
L 153.448675 216.404326 
L 154.810854 216.404326 
L 156.17455 216.404326 
L 157.539762 216.404326 
L 158.902952 216.404326 
L 160.266648 216.404326 
L 161.630343 216.404326 
L 162.994039 216.404326 
L 164.358746 216.404326 
L 165.722441 216.404326 
L 167.087653 216.404326 
L 168.451349 216.404326 
L 169.816561 216.404326 
L 171.181267 216.404326 
L 172.544963 216.404326 
L 173.910175 216.404326 
L 175.275387 216.404326 
L 176.640599 216.404326 
L 178.005305 216.404326 
L 179.370517 216.404326 
L 180.735729 216.404326 
L 182.100941 216.404326 
L 183.466153 216.404326 
L 184.83086 216.404326 
L 186.196072 216.404326 
L 187.5628 216.404326 
L 188.928012 216.404326 
L 190.29474 216.404326 
L 191.659447 216.404326 
L 193.026175 216.404326 
L 194.391387 216.404326 
L 195.758115 216.404326 
L 197.124844 216.404326 
L 198.491572 216.404326 
L 199.856784 216.404326 
L 201.223007 216.404326 
L 202.589735 216.404326 
L 203.956463 216.404326 
L 205.323192 216.404326 
L 206.691436 216.404326 
L 208.058165 216.404326 
L 209.424893 216.404326 
L 210.791116 216.404326 
L 212.159361 216.404326 
L 213.526089 216.404326 
L 214.894333 216.404326 
L 216.261062 216.404326 
L 217.629306 216.404326 
L 218.996035 216.404326 
L 220.364279 216.404326 
L 221.732524 216.404326 
L 223.100263 216.404326 
L 224.468508 216.404326 
L 225.836753 216.404326 
L 227.204997 216.404326 
L 228.573242 216.404326 
L 229.941486 216.404326 
L 231.309731 216.404326 
L 232.677976 216.404326 
L 234.04622 216.404326 
L 235.415981 216.404326 
L 236.784226 216.404326 
L 238.153987 216.404326 
L 239.521726 216.404326 
L 240.891487 216.404326 
L 242.259732 216.404326 
L 243.629493 216.404326 
L 244.999254 216.404326 
L 246.369015 216.404326 
L 247.73726 216.404326 
L 249.10702 216.404326 
L 250.476781 216.404326 
L 251.846542 216.404326 
L 253.216303 216.404326 
L 254.587581 216.404326 
L 255.957342 216.404326 
L 257.327103 216.404326 
L 258.696864 216.404326 
L 260.068141 216.404326 
L 261.437902 216.404326 
L 262.809179 216.404326 
L 264.17894 216.404326 
L 265.550218 216.404326 
L 266.919979 216.404326 
L 268.291256 216.404326 
L 269.662533 216.404326 
L 271.033811 216.404326 
L 272.405088 216.404326 
L 273.776365 216.404326 
L 275.147643 216.404326 
L 276.51892 216.404326 
L 277.890197 216.404326 
L 279.261475 216.404326 
L 280.632752 216.404326 
L 282.005546 216.404326 
L 283.376823 216.404326 
L 284.7481 216.404326 
L 286.120894 216.404326 
L 287.492171 216.404326 
L 288.864965 216.404326 
L 290.237759 216.404326 
L 291.609036 216.404326 
L 292.98183 216.404326 
L 294.354623 216.404326 
L 295.727417 216.404326 
L 297.100211 216.404326 
L 298.47351 216.404326 
L 299.846303 216.404326 
L 301.219097 216.404326 
L 302.591891 216.404326 
L 303.964684 216.404326 
L 305.337478 216.404326 
L 306.711788 216.404326 
L 308.084582 216.404326 
L 309.458892 216.404326 
L 310.831686 216.404326 
L 312.205996 216.404326 
L 313.578789 216.404326 
L 314.953605 216.404326 
L 316.327915 216.404326 
L 317.700708 216.404326 
L 319.075018 216.404326 
L 320.449328 216.404326 
L 320.449328 216.212546 
L 320.449328 216.212546 
L 319.075018 216.206393 
L 317.700708 216.19994 
L 316.327915 216.193174 
L 314.953605 216.186058 
L 313.578789 216.178575 
L 312.205996 216.170712 
L 310.831686 216.162422 
L 309.458892 216.153693 
L 308.084582 216.144473 
L 306.711788 216.134747 
L 305.337478 216.124453 
L 303.964684 216.113571 
L 302.591891 216.102043 
L 301.219097 216.089817 
L 299.846303 216.076835 
L 298.47351 216.063033 
L 297.100211 216.048337 
L 295.727417 216.032677 
L 294.354623 216.015964 
L 292.98183 215.998099 
L 291.609036 215.978976 
L 290.237759 215.958496 
L 288.864965 215.936479 
L 287.492171 215.912795 
L 286.120894 215.887299 
L 284.7481 215.859742 
L 283.376823 215.829962 
L 282.005546 215.797679 
L 280.632752 215.762565 
L 279.261475 215.724367 
L 277.890197 215.682669 
L 276.51892 215.637031 
L 275.147643 215.586944 
L 273.776365 215.531813 
L 272.405088 215.470941 
L 271.033811 215.403508 
L 269.662533 215.328543 
L 268.291256 215.24489 
L 266.919979 215.151165 
L 265.550218 215.045822 
L 264.17894 214.926606 
L 262.809179 214.791308 
L 261.437902 214.636585 
L 260.068141 214.458997 
L 258.696864 214.253407 
L 257.327103 214.014274 
L 255.957342 213.733726 
L 254.587581 213.401865 
L 253.216303 213.005263 
L 251.846542 212.527638 
L 250.476781 211.945595 
L 249.10702 211.227894 
L 247.73726 210.331539 
L 246.369015 209.198104 
L 244.999254 207.741205 
L 243.629493 205.844135 
L 242.259732 203.344054 
L 240.891487 200.031385 
L 239.521726 195.656369 
L 238.153987 190.071584 
L 236.784226 183.499309 
L 235.415981 177.134786 
L 234.04622 173.232806 
L 232.677976 173.658361 
L 231.309731 177.740465 
L 229.941486 182.8233 
L 228.573242 186.213788 
L 227.204997 185.130787 
L 225.836753 175.850841 
L 224.468508 171.626117 
L 223.100263 188.073612 
L 221.732524 199.256631 
L 220.364279 204.690293 
L 218.996035 207.662928 
L 217.629306 209.510582 
L 216.261062 210.771687 
L 214.894333 211.685828 
L 213.526089 212.379628 
L 212.159361 212.922017 
L 210.791116 213.35737 
L 209.424893 213.712589 
L 208.058165 214.007491 
L 206.691436 214.255362 
L 205.323192 214.466188 
L 203.956463 214.646792 
L 202.589735 214.802964 
L 201.223007 214.938992 
L 199.856784 215.058205 
L 198.491572 215.16326 
L 197.124844 215.256502 
L 195.758115 215.339562 
L 194.391387 215.413882 
L 193.026175 215.480583 
L 191.659447 215.540807 
L 190.29474 215.595235 
L 188.928012 215.644732 
L 187.5628 215.689764 
L 186.196072 215.730943 
L 184.83086 215.768617 
L 183.466153 215.803199 
L 182.100941 215.835042 
L 180.735729 215.864417 
L 179.370517 215.891574 
L 178.005305 215.916731 
L 176.640599 215.940071 
L 175.275387 215.961781 
L 173.910175 215.982002 
L 172.544963 216.000868 
L 171.181267 216.018478 
L 169.816561 216.034971 
L 168.451349 216.050434 
L 167.087653 216.06493 
L 165.722441 216.078568 
L 164.358746 216.091386 
L 162.994039 216.10347 
L 161.630343 216.11486 
L 160.266648 216.125615 
L 158.902952 216.135781 
L 157.539762 216.145398 
L 156.17455 216.15452 
L 154.810854 216.163159 
L 153.448675 216.171349 
L 152.085485 216.179134 
L 150.721789 216.186538 
L 149.358094 216.193583 
L 147.994398 216.200292 
L 146.632724 216.206676 
L 145.269029 216.212774 
L 143.905333 216.218594 
L 142.543154 216.224146 
L 141.179963 216.229457 
L 139.817784 216.234533 
L 138.455605 216.239392 
L 137.091909 216.24405 
L 135.730235 216.248506 
L 134.368056 216.252781 
L 133.005877 216.256883 
L 131.644203 216.260819 
L 130.282024 216.2646 
L 128.919844 216.268234 
L 127.558171 216.271727 
L 126.195991 216.275089 
L 124.833812 216.278324 
L 123.473655 216.281435 
L 122.111475 216.284436 
L 120.749296 216.287329 
L 119.388633 216.290115 
L 118.026959 216.292805 
L 116.666296 216.295399 
L 115.305633 216.297903 
L 113.943959 216.300324 
L 112.583297 216.302662 
L 111.222634 216.304921 
L 109.862476 216.307106 
L 108.501813 216.30922 
L 107.141656 216.311264 
L 105.780993 216.313245 
L 104.42033 216.315163 
L 103.060172 216.31702 
L 101.699509 216.318821 
L 100.338846 216.320566 
L 98.980205 216.322256 
L 97.619542 216.323898 
L 96.260396 216.325489 
L 94.900238 216.327035 
L 93.541092 216.328534 
L 92.180934 216.329992 
L 90.821787 216.331406 
L 89.462641 216.332781 
L 88.102483 216.334118 
L 86.743337 216.335417 
L 85.38419 216.336681 
L 84.025549 216.337909 
L 82.666402 216.339105 
L 81.307761 216.340268 
L 79.948615 216.341401 
L 78.589468 216.342504 
L 77.232343 216.343577 
L 75.873197 216.344624 
L 74.514555 216.345643 
L 73.156925 216.346636 
L 71.798284 216.347605 
L 70.440654 216.348548 
L 69.081507 216.34947 
L 67.724382 216.350367 
L 66.366752 216.351243 
L 65.008111 216.352098 
L 63.650481 216.352933 
L 62.293356 216.353747 
L 60.935726 216.354542 
L 59.578601 216.355318 
L 58.22097 216.356077 
L 56.86334 216.356818 
L 55.506215 216.357542 
L 54.148585 216.358249 
L 52.792977 216.35894 
L 51.435346 216.359617 
L 50.078222 216.360278 
L 48.722108 216.360924 
L 47.364983 216.361556 
L 46.008869 216.362174 
L 44.651744 216.36278 
L 43.29563 216.363372 
z
" clip-path="url(#p0970dd6697)" style="fill: #1f77b4; fill-opacity: 0.25"/>
   </g>
   <g id="PolyCollection_2">
    <path d="M 43.29563 215.587531 
L 43.29563 216.404326 
L 44.651744 216.404326 
L 46.008869 216.404326 
L 47.364983 216.404326 
L 48.722108 216.404326 
L 50.078222 216.404326 
L 51.435346 216.404326 
L 52.792977 216.404326 
L 54.148585 216.404326 
L 55.506215 216.404326 
L 56.86334 216.404326 
L 58.22097 216.404326 
L 59.578601 216.404326 
L 60.935726 216.404326 
L 62.293356 216.404326 
L 63.650481 216.404326 
L 65.008111 216.404326 
L 66.366752 216.404326 
L 67.724382 216.404326 
L 69.081507 216.404326 
L 70.440654 216.404326 
L 71.798284 216.404326 
L 73.156925 216.404326 
L 74.514555 216.404326 
L 75.873197 216.404326 
L 77.232343 216.404326 
L 78.589468 216.404326 
L 79.948615 216.404326 
L 81.307761 216.404326 
L 82.666402 216.404326 
L 84.025549 216.404326 
L 85.38419 216.404326 
L 86.743337 216.404326 
L 88.102483 216.404326 
L 89.462641 216.404326 
L 90.821787 216.404326 
L 92.180934 216.404326 
L 93.541092 216.404326 
L 94.900238 216.404326 
L 96.260396 216.404326 
L 97.619542 216.404326 
L 98.980205 216.404326 
L 100.338846 216.404326 
L 101.699509 216.404326 
L 103.060172 216.404326 
L 104.42033 216.404326 
L 105.780993 216.404326 
L 107.141656 216.404326 
L 108.501813 216.404326 
L 109.862476 216.404326 
L 111.222634 216.404326 
L 112.583297 216.404326 
L 113.943959 216.404326 
L 115.305633 216.404326 
L 116.666296 216.404326 
L 118.026959 216.404326 
L 119.388633 216.404326 
L 120.749296 216.404326 
L 122.111475 216.404326 
L 123.473655 216.404326 
L 124.833812 216.404326 
L 126.195991 216.404326 
L 127.558171 216.404326 
L 128.919844 216.404326 
L 130.282024 216.404326 
L 131.644203 216.404326 
L 133.005877 216.404326 
L 134.368056 216.404326 
L 135.730235 216.404326 
L 137.091909 216.404326 
L 138.455605 216.404326 
L 139.817784 216.404326 
L 141.179963 216.404326 
L 142.543154 216.404326 
L 143.905333 216.404326 
L 145.269029 216.404326 
L 146.632724 216.404326 
L 147.994398 216.404326 
L 149.358094 216.404326 
L 150.721789 216.404326 
L 152.085485 216.404326 
L 153.448675 216.404326 
L 154.810854 216.404326 
L 156.17455 216.404326 
L 157.539762 216.404326 
L 158.902952 216.404326 
L 160.266648 216.404326 
L 161.630343 216.404326 
L 162.994039 216.404326 
L 164.358746 216.404326 
L 165.722441 216.404326 
L 167.087653 216.404326 
L 168.451349 216.404326 
L 169.816561 216.404326 
L 171.181267 216.404326 
L 172.544963 216.404326 
L 173.910175 216.404326 
L 175.275387 216.404326 
L 176.640599 216.404326 
L 178.005305 216.404326 
L 179.370517 216.404326 
L 180.735729 216.404326 
L 182.100941 216.404326 
L 183.466153 216.404326 
L 184.83086 216.404326 
L 186.196072 216.404326 
L 187.5628 216.404326 
L 188.928012 216.404326 
L 190.29474 216.404326 
L 191.659447 216.404326 
L 193.026175 216.404326 
L 194.391387 216.404326 
L 195.758115 216.404326 
L 197.124844 216.404326 
L 198.491572 216.404326 
L 199.856784 216.404326 
L 201.223007 216.404326 
L 202.589735 216.404326 
L 203.956463 216.404326 
L 205.323192 216.404326 
L 206.691436 216.404326 
L 208.058165 216.404326 
L 209.424893 216.404326 
L 210.791116 216.404326 
L 212.159361 216.404326 
L 213.526089 216.404326 
L 214.894333 216.404326 
L 216.261062 216.404326 
L 217.629306 216.404326 
L 218.996035 216.404326 
L 220.364279 216.404326 
L 221.732524 216.404326 
L 223.100263 216.404326 
L 224.468508 216.404326 
L 225.836753 216.404326 
L 227.204997 216.404326 
L 228.573242 216.404326 
L 229.941486 216.404326 
L 231.309731 216.404326 
L 232.677976 216.404326 
L 234.04622 216.404326 
L 235.415981 216.404326 
L 236.784226 216.404326 
L 238.153987 216.404326 
L 239.521726 216.404326 
L 240.891487 216.404326 
L 242.259732 216.404326 
L 243.629493 216.404326 
L 244.999254 216.404326 
L 246.369015 216.404326 
L 247.73726 216.404326 
L 249.10702 216.404326 
L 250.476781 216.404326 
L 251.846542 216.404326 
L 253.216303 216.404326 
L 254.587581 216.404326 
L 255.957342 216.404326 
L 257.327103 216.404326 
L 258.696864 216.404326 
L 260.068141 216.404326 
L 261.437902 216.404326 
L 262.809179 216.404326 
L 264.17894 216.404326 
L 265.550218 216.404326 
L 266.919979 216.404326 
L 268.291256 216.404326 
L 269.662533 216.404326 
L 271.033811 216.404326 
L 272.405088 216.404326 
L 273.776365 216.404326 
L 275.147643 216.404326 
L 276.51892 216.404326 
L 277.890197 216.404326 
L 279.261475 216.404326 
L 280.632752 216.404326 
L 282.005546 216.404326 
L 283.376823 216.404326 
L 284.7481 216.404326 
L 286.120894 216.404326 
L 287.492171 216.404326 
L 288.864965 216.404326 
L 290.237759 216.404326 
L 291.609036 216.404326 
L 292.98183 216.404326 
L 294.354623 216.404326 
L 295.727417 216.404326 
L 297.100211 216.404326 
L 298.47351 216.404326 
L 299.846303 216.404326 
L 301.219097 216.404326 
L 302.591891 216.404326 
L 303.964684 216.404326 
L 305.337478 216.404326 
L 306.711788 216.404326 
L 308.084582 216.404326 
L 309.458892 216.404326 
L 310.831686 216.404326 
L 312.205996 216.404326 
L 313.578789 216.404326 
L 314.953605 216.404326 
L 316.327915 216.404326 
L 317.700708 216.404326 
L 319.075018 216.404326 
L 320.449328 216.404326 
L 320.449328 216.228852 
L 320.449328 216.228852 
L 319.075018 216.225652 
L 317.700708 216.222361 
L 316.327915 216.218979 
L 314.953605 216.215494 
L 313.578789 216.211905 
L 312.205996 216.208213 
L 310.831686 216.204406 
L 309.458892 216.200487 
L 308.084582 216.196442 
L 306.711788 216.192276 
L 305.337478 216.187972 
L 303.964684 216.183536 
L 302.591891 216.178956 
L 301.219097 216.174225 
L 299.846303 216.169338 
L 298.47351 216.164286 
L 297.100211 216.159059 
L 295.727417 216.153654 
L 294.354623 216.14806 
L 292.98183 216.142267 
L 291.609036 216.136266 
L 290.237759 216.130054 
L 288.864965 216.123604 
L 287.492171 216.116912 
L 286.120894 216.109974 
L 284.7481 216.10276 
L 283.376823 216.095271 
L 282.005546 216.087484 
L 280.632752 216.079374 
L 279.261475 216.07094 
L 277.890197 216.062154 
L 276.51892 216.052996 
L 275.147643 216.043443 
L 273.776365 216.033471 
L 272.405088 216.023054 
L 271.033811 216.012165 
L 269.662533 216.000772 
L 268.291256 215.988843 
L 266.919979 215.976342 
L 265.550218 215.963244 
L 264.17894 215.949479 
L 262.809179 215.93503 
L 261.437902 215.919815 
L 260.068141 215.903812 
L 258.696864 215.886925 
L 257.327103 215.869124 
L 255.957342 215.850317 
L 254.587581 215.830424 
L 253.216303 215.80933 
L 251.846542 215.786982 
L 250.476781 215.763246 
L 249.10702 215.737999 
L 247.73726 215.711102 
L 246.369015 215.682433 
L 244.999254 215.651754 
L 243.629493 215.618899 
L 242.259732 215.583645 
L 240.891487 215.545784 
L 239.521726 215.504942 
L 238.153987 215.460899 
L 236.784226 215.413145 
L 235.415981 215.361366 
L 234.04622 215.304941 
L 232.677976 215.243406 
L 231.309731 215.176013 
L 229.941486 215.101952 
L 228.573242 215.020263 
L 227.204997 214.929806 
L 225.836753 214.829214 
L 224.468508 214.716836 
L 223.100263 214.590669 
L 221.732524 214.448315 
L 220.364279 214.286646 
L 218.996035 214.101946 
L 217.629306 213.88975 
L 216.261062 213.643622 
L 214.894333 213.356514 
L 213.526089 213.018012 
L 212.159361 212.61624 
L 210.791116 212.133877 
L 209.424893 211.550924 
L 208.058165 210.839061 
L 206.691436 209.963997 
L 205.323192 208.883292 
L 203.956463 207.556048 
L 202.589735 205.949809 
L 201.223007 204.077114 
L 199.856784 202.050426 
L 198.491572 200.136345 
L 197.124844 198.723644 
L 195.758115 198.13452 
L 194.391387 198.358029 
L 193.026175 199.025806 
L 191.659447 199.646807 
L 190.29474 199.801068 
L 188.928012 199.156914 
L 187.5628 197.363757 
L 186.196072 193.890826 
L 184.83086 187.875125 
L 183.466153 178.094547 
L 182.100941 164.152842 
L 180.735729 151.075676 
L 179.370517 149.989092 
L 178.005305 159.823506 
L 176.640599 167.711178 
L 175.275387 165.387786 
L 173.910175 149.657764 
L 172.544963 147.039735 
L 171.181267 171.12183 
L 169.816561 187.208146 
L 168.451349 194.465041 
L 167.087653 197.228694 
L 165.722441 197.123261 
L 164.358746 194.079251 
L 162.994039 186.716965 
L 161.630343 174.291832 
L 160.266648 167.2565 
L 158.902952 176.409991 
L 157.539762 186.319687 
L 156.17455 190.158627 
L 154.810854 188.457631 
L 153.448675 180.008818 
L 152.085485 159.238824 
L 150.721789 126.134348 
L 149.358094 128.838109 
L 147.994398 148.447319 
L 146.632724 144.536278 
L 145.269029 117.565668 
L 143.905333 96.125859 
L 142.543154 123.771416 
L 141.179963 159.092543 
L 139.817784 179.342848 
L 138.455605 189.677704 
L 137.091909 194.765362 
L 135.730235 196.622394 
L 134.368056 195.66239 
L 133.005877 190.693071 
L 131.644203 177.052373 
L 130.282024 140.765073 
L 128.919844 89.231677 
L 127.558171 131.927197 
L 126.195991 172.588143 
L 124.833812 185.649535 
L 123.473655 180.455043 
L 122.111475 176.865847 
L 120.749296 193.893001 
L 119.388633 198.248493 
L 118.026959 197.316272 
L 116.666296 192.413887 
L 115.305633 181.560599 
L 113.943959 161.505595 
L 112.583297 142.187467 
L 111.222634 153.006897 
L 109.862476 175.144665 
L 108.501813 188.058253 
L 107.141656 192.522776 
L 105.780993 189.08827 
L 104.42033 177.8674 
L 103.060172 183.609446 
L 101.699509 196.991177 
L 100.338846 203.079296 
L 98.980205 205.543997 
L 97.619542 206.387098 
L 96.260396 206.2477 
L 94.900238 205.240683 
L 93.541092 203.161697 
L 92.180934 199.407916 
L 90.821787 192.640458 
L 89.462641 179.965098 
L 88.102483 156.525397 
L 86.743337 126.721568 
L 85.38419 127.116083 
L 84.025549 149.233996 
L 82.666402 154.658089 
L 81.307761 143.437788 
L 79.948615 157.677233 
L 78.589468 182.934699 
L 77.232343 196.332114 
L 75.873197 203.017849 
L 74.514555 206.72081 
L 73.156925 208.987279 
L 71.798284 210.486862 
L 70.440654 211.536128 
L 69.081507 212.304794 
L 67.724382 212.886267 
L 66.366752 213.339497 
L 65.008111 213.70105 
L 63.650481 213.994619 
L 62.293356 214.237018 
L 60.935726 214.440139 
L 59.578601 214.612297 
L 58.22097 214.759887 
L 56.86334 214.88756 
L 55.506215 214.998894 
L 54.148585 215.096786 
L 52.792977 215.183285 
L 51.435346 215.260414 
L 50.078222 215.329439 
L 48.722108 215.391505 
L 47.364983 215.447656 
L 46.008869 215.498596 
L 44.651744 215.54506 
L 43.29563 215.587531 
z
" clip-path="url(#p0970dd6697)" style="fill: #ff7f0e; fill-opacity: 0.25"/>
   </g>
   <g id="line2d_1">
    <path d="M 43.29563 216.404326 
L 50.078222 216.404326 
L 51.435346 211.186423 
L 52.792977 197.229402 
L 54.148585 185.25864 
L 55.506215 180.029183 
L 56.86334 180.428051 
L 58.22097 199.50112 
L 59.578601 216.404326 
L 66.366752 216.404326 
L 67.724382 205.646172 
L 69.081507 186.62317 
L 70.440654 197.718432 
L 71.798284 216.404326 
L 75.873197 216.404326 
L 77.232343 200.375666 
L 78.589468 166.843341 
L 79.948615 148.079768 
L 81.307761 148.947735 
L 82.666402 153.309168 
L 84.025549 137.183108 
L 85.38419 125.955021 
L 86.743337 134.558007 
L 89.462641 195.793372 
L 90.821787 215.14402 
L 92.180934 216.404326 
L 98.980205 216.404326 
L 100.338846 211.556362 
L 101.699509 190.650763 
L 103.060172 178.54615 
L 104.42033 181.918619 
L 105.780993 191.079362 
L 107.141656 195.676562 
L 108.501813 183.12306 
L 109.862476 161.31754 
L 111.222634 146.735045 
L 112.583297 150.203455 
L 113.943959 164.362695 
L 115.305633 186.140323 
L 116.666296 205.888936 
L 118.026959 212.726031 
L 119.388633 203.636914 
L 120.749296 184.736315 
L 122.111475 173.507086 
L 123.473655 182.789101 
L 124.833812 185.156943 
L 126.195991 150.087354 
L 127.558171 108.378966 
L 128.919844 105.492277 
L 131.644203 203.77859 
L 133.005877 216.404326 
L 134.368056 216.404326 
L 135.730235 211.753542 
L 137.091909 198.206102 
L 138.455605 192.137055 
L 139.817784 175.358131 
L 141.179963 137.354014 
L 142.543154 106.891026 
L 143.905333 104.300771 
L 145.269029 128.022628 
L 146.632724 147.094982 
L 147.994398 138.500583 
L 149.358094 125.623259 
L 150.721789 132.935483 
L 152.085485 175.634884 
L 153.448675 189.882908 
L 154.810854 192.515714 
L 156.17455 189.045111 
L 158.902952 170.624186 
L 160.266648 169.295742 
L 161.630343 179.215132 
L 162.994039 190.536362 
L 164.358746 195.793049 
L 167.087653 192.636651 
L 168.451349 192.430312 
L 169.816561 181.483474 
L 171.181267 159.465543 
L 172.544963 144.107418 
L 173.910175 153.05409 
L 175.275387 174.588304 
L 176.640599 166.041808 
L 178.005305 148.531514 
L 179.370517 150.442857 
L 180.735729 158.515134 
L 182.100941 165.240784 
L 183.466153 181.184716 
L 184.83086 195.186375 
L 186.196072 197.368782 
L 187.5628 194.291215 
L 188.928012 193.201721 
L 190.29474 196.680363 
L 191.659447 204.876536 
L 193.026175 210.032303 
L 195.758115 190.508525 
L 197.124844 200.99971 
L 198.491572 210.029691 
L 199.856784 216.404326 
L 209.424893 216.404326 
L 210.791116 215.097411 
L 212.159361 211.57762 
L 213.526089 208.48903 
L 214.894333 206.921734 
L 216.261062 207.944483 
L 217.629306 206.46642 
L 218.996035 206.142594 
L 220.364279 204.275052 
L 221.732524 192.751972 
L 223.100263 177.527717 
L 224.468508 169.590362 
L 225.836753 178.490488 
L 227.204997 185.544913 
L 228.573242 182.886904 
L 229.941486 175.60593 
L 231.309731 177.780373 
L 232.677976 175.262609 
L 234.04622 167.393927 
L 235.415981 181.354421 
L 236.784226 213.387208 
L 238.153987 216.404326 
L 287.492171 216.404326 
L 288.864965 168.447403 
L 290.097809 -1 
M 299.450809 -1 
L 299.846303 155.420319 
L 301.219097 216.404326 
L 303.964684 216.404326 
L 305.337478 210.547966 
L 306.711788 213.275389 
L 308.084582 216.404326 
L 314.953605 216.404326 
L 316.327915 206.286201 
L 317.700708 216.404326 
L 320.449328 216.404326 
L 320.449328 216.404326 
" clip-path="url(#p0970dd6697)" style="fill: none; stroke: #1f77b4; stroke-width: 1.5; stroke-linecap: square"/>
    <defs>
     <path id="m3afae8a3ad" d="M 0 1.5 
C 0.397805 1.5 0.77937 1.341951 1.06066 1.06066 
C 1.341951 0.77937 1.5 0.397805 1.5 0 
C 1.5 -0.397805 1.341951 -0.77937 1.06066 -1.06066 
C 0.77937 -1.341951 0.397805 -1.5 0 -1.5 
C -0.397805 -1.5 -0.77937 -1.341951 -1.06066 -1.06066 
C -1.341951 -0.77937 -1.5 -0.397805 -1.5 0 
C -1.5 0.397805 -1.341951 0.77937 -1.06066 1.06066 
C -0.77937 1.341951 -0.397805 1.5 0 1.5 
z
" style="stroke: #1f77b4"/>
    </defs>
    <g clip-path="url(#p0970dd6697)">
     <use xlink:href="#m3afae8a3ad" x="43.29563" y="216.404326" style="fill-opacity: 0; stroke: #1f77b4"/>
     <use xlink:href="#m3afae8a3ad" x="44.651744" y="216.404326" style="fill-opacity: 0; stroke: #1f77b4"/>
     <use xlink:href="#m3afae8a3ad" x="46.008869" y="216.404326" style="fill-opacity: 0; stroke: #1f77b4"/>
     <use xlink:href="#m3afae8a3ad" x="47.364983" y="216.404326" style="fill-opacity: 0; stroke: #1f77b4"/>
     <use xlink:href="#m3afae8a3ad" x="48.722108" y="216.404326" style="fill-opacity: 0; stroke: #1f77b4"/>
     <use xlink:href="#m3afae8a3ad" x="50.078222" y="216.404326" style="fill-opacity: 0; stroke: #1f77b4"/>
     <use xlink:href="#m3afae8a3ad" x="51.435346" y="211.186423" style="fill-opacity: 0; stroke: #1f77b4"/>
     <use xlink:href="#m3afae8a3ad" x="52.792977" y="197.229402" style="fill-opacity: 0; stroke: #1f77b4"/>
     <use xlink:href="#m3afae8a3ad" x="54.148585" y="185.25864" style="fill-opacity: 0; stroke: #1f77b4"/>
     <use xlink:href="#m3afae8a3ad" x="55.506215" y="180.029183" style="fill-opacity: 0; stroke: #1f77b4"/>
     <use xlink:href="#m3afae8a3ad" x="56.86334" y="180.428051" style="fill-opacity: 0; stroke: #1f77b4"/>
     <use xlink:href="#m3afae8a3ad" x="58.22097" y="199.50112" style="fill-opacity: 0; stroke: #1f77b4"/>
     <use xlink:href="#m3afae8a3ad" x="59.578601" y="216.404326" style="fill-opacity: 0; stroke: #1f77b4"/>
     <use xlink:href="#m3afae8a3ad" x="60.935726" y="216.404326" style="fill-opacity: 0; stroke: #1f77b4"/>
     <use xlink:href="#m3afae8a3ad" x="62.293356" y="216.404326" style="fill-opacity: 0; stroke: #1f77b4"/>
     <use xlink:href="#m3afae8a3ad" x="63.650481" y="216.404326" style="fill-opacity: 0; stroke: #1f77b4"/>
     <use xlink:href="#m3afae8a3ad" x="65.008111" y="216.404326" style="fill-opacity: 0; stroke: #1f77b4"/>
     <use xlink:href="#m3afae8a3ad" x="66.366752" y="216.404326" style="fill-opacity: 0; stroke: #1f77b4"/>
     <use xlink:href="#m3afae8a3ad" x="67.724382" y="205.646172" style="fill-opacity: 0; stroke: #1f77b4"/>
     <use xlink:href="#m3afae8a3ad" x="69.081507" y="186.62317" style="fill-opacity: 0; stroke: #1f77b4"/>
     <use xlink:href="#m3afae8a3ad" x="70.440654" y="197.718432" style="fill-opacity: 0; stroke: #1f77b4"/>
     <use xlink:href="#m3afae8a3ad" x="71.798284" y="216.404326" style="fill-opacity: 0; stroke: #1f77b4"/>
     <use xlink:href="#m3afae8a3ad" x="73.156925" y="216.404326" style="fill-opacity: 0; stroke: #1f77b4"/>
     <use xlink:href="#m3afae8a3ad" x="74.514555" y="216.404326" style="fill-opacity: 0; stroke: #1f77b4"/>
     <use xlink:href="#m3afae8a3ad" x="75.873197" y="216.404326" style="fill-opacity: 0; stroke: #1f77b4"/>
     <use xlink:href="#m3afae8a3ad" x="77.232343" y="200.375666" style="fill-opacity: 0; stroke: #1f77b4"/>
     <use xlink:href="#m3afae8a3ad" x="78.589468" y="166.843341" style="fill-opacity: 0; stroke: #1f77b4"/>
     <use xlink:href="#m3afae8a3ad" x="79.948615" y="148.079768" style="fill-opacity: 0; stroke: #1f77b4"/>
     <use xlink:href="#m3afae8a3ad" x="81.307761" y="148.947735" style="fill-opacity: 0; stroke: #1f77b4"/>
     <use xlink:href="#m3afae8a3ad" x="82.666402" y="153.309168" style="fill-opacity: 0; stroke: #1f77b4"/>
     <use xlink:href="#m3afae8a3ad" x="84.025549" y="137.183108" style="fill-opacity: 0; stroke: #1f77b4"/>
     <use xlink:href="#m3afae8a3ad" x="85.38419" y="125.955021" style="fill-opacity: 0; stroke: #1f77b4"/>
     <use xlink:href="#m3afae8a3ad" x="86.743337" y="134.558007" style="fill-opacity: 0; stroke: #1f77b4"/>
     <use xlink:href="#m3afae8a3ad" x="88.102483" y="165.790103" style="fill-opacity: 0; stroke: #1f77b4"/>
     <use xlink:href="#m3afae8a3ad" x="89.462641" y="195.793372" style="fill-opacity: 0; stroke: #1f77b4"/>
     <use xlink:href="#m3afae8a3ad" x="90.821787" y="215.14402" style="fill-opacity: 0; stroke: #1f77b4"/>
     <use xlink:href="#m3afae8a3ad" x="92.180934" y="216.404326" style="fill-opacity: 0; stroke: #1f77b4"/>
     <use xlink:href="#m3afae8a3ad" x="93.541092" y="216.404326" style="fill-opacity: 0; stroke: #1f77b4"/>
     <use xlink:href="#m3afae8a3ad" x="94.900238" y="216.404326" style="fill-opacity: 0; stroke: #1f77b4"/>
     <use xlink:href="#m3afae8a3ad" x="96.260396" y="216.404326" style="fill-opacity: 0; stroke: #1f77b4"/>
     <use xlink:href="#m3afae8a3ad" x="97.619542" y="216.404326" style="fill-opacity: 0; stroke: #1f77b4"/>
     <use xlink:href="#m3afae8a3ad" x="98.980205" y="216.404326" style="fill-opacity: 0; stroke: #1f77b4"/>
     <use xlink:href="#m3afae8a3ad" x="100.338846" y="211.556362" style="fill-opacity: 0; stroke: #1f77b4"/>
     <use xlink:href="#m3afae8a3ad" x="101.699509" y="190.650763" style="fill-opacity: 0; stroke: #1f77b4"/>
     <use xlink:href="#m3afae8a3ad" x="103.060172" y="178.54615" style="fill-opacity: 0; stroke: #1f77b4"/>
     <use xlink:href="#m3afae8a3ad" x="104.42033" y="181.918619" style="fill-opacity: 0; stroke: #1f77b4"/>
     <use xlink:href="#m3afae8a3ad" x="105.780993" y="191.079362" style="fill-opacity: 0; stroke: #1f77b4"/>
     <use xlink:href="#m3afae8a3ad" x="107.141656" y="195.676562" style="fill-opacity: 0; stroke: #1f77b4"/>
     <use xlink:href="#m3afae8a3ad" x="108.501813" y="183.12306" style="fill-opacity: 0; stroke: #1f77b4"/>
     <use xlink:href="#m3afae8a3ad" x="109.862476" y="161.31754" style="fill-opacity: 0; stroke: #1f77b4"/>
     <use xlink:href="#m3afae8a3ad" x="111.222634" y="146.735045" style="fill-opacity: 0; stroke: #1f77b4"/>
     <use xlink:href="#m3afae8a3ad" x="112.583297" y="150.203455" style="fill-opacity: 0; stroke: #1f77b4"/>
     <use xlink:href="#m3afae8a3ad" x="113.943959" y="164.362695" style="fill-opacity: 0; stroke: #1f77b4"/>
     <use xlink:href="#m3afae8a3ad" x="115.305633" y="186.140323" style="fill-opacity: 0; stroke: #1f77b4"/>
     <use xlink:href="#m3afae8a3ad" x="116.666296" y="205.888936" style="fill-opacity: 0; stroke: #1f77b4"/>
     <use xlink:href="#m3afae8a3ad" x="118.026959" y="212.726031" style="fill-opacity: 0; stroke: #1f77b4"/>
     <use xlink:href="#m3afae8a3ad" x="119.388633" y="203.636914" style="fill-opacity: 0; stroke: #1f77b4"/>
     <use xlink:href="#m3afae8a3ad" x="120.749296" y="184.736315" style="fill-opacity: 0; stroke: #1f77b4"/>
     <use xlink:href="#m3afae8a3ad" x="122.111475" y="173.507086" style="fill-opacity: 0; stroke: #1f77b4"/>
     <use xlink:href="#m3afae8a3ad" x="123.473655" y="182.789101" style="fill-opacity: 0; stroke: #1f77b4"/>
     <use xlink:href="#m3afae8a3ad" x="124.833812" y="185.156943" style="fill-opacity: 0; stroke: #1f77b4"/>
     <use xlink:href="#m3afae8a3ad" x="126.195991" y="150.087354" style="fill-opacity: 0; stroke: #1f77b4"/>
     <use xlink:href="#m3afae8a3ad" x="127.558171" y="108.378966" style="fill-opacity: 0; stroke: #1f77b4"/>
     <use xlink:href="#m3afae8a3ad" x="128.919844" y="105.492277" style="fill-opacity: 0; stroke: #1f77b4"/>
     <use xlink:href="#m3afae8a3ad" x="130.282024" y="152.980574" style="fill-opacity: 0; stroke: #1f77b4"/>
     <use xlink:href="#m3afae8a3ad" x="131.644203" y="203.77859" style="fill-opacity: 0; stroke: #1f77b4"/>
     <use xlink:href="#m3afae8a3ad" x="133.005877" y="216.404326" style="fill-opacity: 0; stroke: #1f77b4"/>
     <use xlink:href="#m3afae8a3ad" x="134.368056" y="216.404326" style="fill-opacity: 0; stroke: #1f77b4"/>
     <use xlink:href="#m3afae8a3ad" x="135.730235" y="211.753542" style="fill-opacity: 0; stroke: #1f77b4"/>
     <use xlink:href="#m3afae8a3ad" x="137.091909" y="198.206102" style="fill-opacity: 0; stroke: #1f77b4"/>
     <use xlink:href="#m3afae8a3ad" x="138.455605" y="192.137055" style="fill-opacity: 0; stroke: #1f77b4"/>
     <use xlink:href="#m3afae8a3ad" x="139.817784" y="175.358131" style="fill-opacity: 0; stroke: #1f77b4"/>
     <use xlink:href="#m3afae8a3ad" x="141.179963" y="137.354014" style="fill-opacity: 0; stroke: #1f77b4"/>
     <use xlink:href="#m3afae8a3ad" x="142.543154" y="106.891026" style="fill-opacity: 0; stroke: #1f77b4"/>
     <use xlink:href="#m3afae8a3ad" x="143.905333" y="104.300771" style="fill-opacity: 0; stroke: #1f77b4"/>
     <use xlink:href="#m3afae8a3ad" x="145.269029" y="128.022628" style="fill-opacity: 0; stroke: #1f77b4"/>
     <use xlink:href="#m3afae8a3ad" x="146.632724" y="147.094982" style="fill-opacity: 0; stroke: #1f77b4"/>
     <use xlink:href="#m3afae8a3ad" x="147.994398" y="138.500583" style="fill-opacity: 0; stroke: #1f77b4"/>
     <use xlink:href="#m3afae8a3ad" x="149.358094" y="125.623259" style="fill-opacity: 0; stroke: #1f77b4"/>
     <use xlink:href="#m3afae8a3ad" x="150.721789" y="132.935483" style="fill-opacity: 0; stroke: #1f77b4"/>
     <use xlink:href="#m3afae8a3ad" x="152.085485" y="175.634884" style="fill-opacity: 0; stroke: #1f77b4"/>
     <use xlink:href="#m3afae8a3ad" x="153.448675" y="189.882908" style="fill-opacity: 0; stroke: #1f77b4"/>
     <use xlink:href="#m3afae8a3ad" x="154.810854" y="192.515714" style="fill-opacity: 0; stroke: #1f77b4"/>
     <use xlink:href="#m3afae8a3ad" x="156.17455" y="189.045111" style="fill-opacity: 0; stroke: #1f77b4"/>
     <use xlink:href="#m3afae8a3ad" x="157.539762" y="179.747453" style="fill-opacity: 0; stroke: #1f77b4"/>
     <use xlink:href="#m3afae8a3ad" x="158.902952" y="170.624186" style="fill-opacity: 0; stroke: #1f77b4"/>
     <use xlink:href="#m3afae8a3ad" x="160.266648" y="169.295742" style="fill-opacity: 0; stroke: #1f77b4"/>
     <use xlink:href="#m3afae8a3ad" x="161.630343" y="179.215132" style="fill-opacity: 0; stroke: #1f77b4"/>
     <use xlink:href="#m3afae8a3ad" x="162.994039" y="190.536362" style="fill-opacity: 0; stroke: #1f77b4"/>
     <use xlink:href="#m3afae8a3ad" x="164.358746" y="195.793049" style="fill-opacity: 0; stroke: #1f77b4"/>
     <use xlink:href="#m3afae8a3ad" x="165.722441" y="194.173315" style="fill-opacity: 0; stroke: #1f77b4"/>
     <use xlink:href="#m3afae8a3ad" x="167.087653" y="192.636651" style="fill-opacity: 0; stroke: #1f77b4"/>
     <use xlink:href="#m3afae8a3ad" x="168.451349" y="192.430312" style="fill-opacity: 0; stroke: #1f77b4"/>
     <use xlink:href="#m3afae8a3ad" x="169.816561" y="181.483474" style="fill-opacity: 0; stroke: #1f77b4"/>
     <use xlink:href="#m3afae8a3ad" x="171.181267" y="159.465543" style="fill-opacity: 0; stroke: #1f77b4"/>
     <use xlink:href="#m3afae8a3ad" x="172.544963" y="144.107418" style="fill-opacity: 0; stroke: #1f77b4"/>
     <use xlink:href="#m3afae8a3ad" x="173.910175" y="153.05409" style="fill-opacity: 0; stroke: #1f77b4"/>
     <use xlink:href="#m3afae8a3ad" x="175.275387" y="174.588304" style="fill-opacity: 0; stroke: #1f77b4"/>
     <use xlink:href="#m3afae8a3ad" x="176.640599" y="166.041808" style="fill-opacity: 0; stroke: #1f77b4"/>
     <use xlink:href="#m3afae8a3ad" x="178.005305" y="148.531514" style="fill-opacity: 0; stroke: #1f77b4"/>
     <use xlink:href="#m3afae8a3ad" x="179.370517" y="150.442857" style="fill-opacity: 0; stroke: #1f77b4"/>
     <use xlink:href="#m3afae8a3ad" x="180.735729" y="158.515134" style="fill-opacity: 0; stroke: #1f77b4"/>
     <use xlink:href="#m3afae8a3ad" x="182.100941" y="165.240784" style="fill-opacity: 0; stroke: #1f77b4"/>
     <use xlink:href="#m3afae8a3ad" x="183.466153" y="181.184716" style="fill-opacity: 0; stroke: #1f77b4"/>
     <use xlink:href="#m3afae8a3ad" x="184.83086" y="195.186375" style="fill-opacity: 0; stroke: #1f77b4"/>
     <use xlink:href="#m3afae8a3ad" x="186.196072" y="197.368782" style="fill-opacity: 0; stroke: #1f77b4"/>
     <use xlink:href="#m3afae8a3ad" x="187.5628" y="194.291215" style="fill-opacity: 0; stroke: #1f77b4"/>
     <use xlink:href="#m3afae8a3ad" x="188.928012" y="193.201721" style="fill-opacity: 0; stroke: #1f77b4"/>
     <use xlink:href="#m3afae8a3ad" x="190.29474" y="196.680363" style="fill-opacity: 0; stroke: #1f77b4"/>
     <use xlink:href="#m3afae8a3ad" x="191.659447" y="204.876536" style="fill-opacity: 0; stroke: #1f77b4"/>
     <use xlink:href="#m3afae8a3ad" x="193.026175" y="210.032303" style="fill-opacity: 0; stroke: #1f77b4"/>
     <use xlink:href="#m3afae8a3ad" x="194.391387" y="200.188251" style="fill-opacity: 0; stroke: #1f77b4"/>
     <use xlink:href="#m3afae8a3ad" x="195.758115" y="190.508525" style="fill-opacity: 0; stroke: #1f77b4"/>
     <use xlink:href="#m3afae8a3ad" x="197.124844" y="200.99971" style="fill-opacity: 0; stroke: #1f77b4"/>
     <use xlink:href="#m3afae8a3ad" x="198.491572" y="210.029691" style="fill-opacity: 0; stroke: #1f77b4"/>
     <use xlink:href="#m3afae8a3ad" x="199.856784" y="216.404326" style="fill-opacity: 0; stroke: #1f77b4"/>
     <use xlink:href="#m3afae8a3ad" x="201.223007" y="216.404326" style="fill-opacity: 0; stroke: #1f77b4"/>
     <use xlink:href="#m3afae8a3ad" x="202.589735" y="216.404326" style="fill-opacity: 0; stroke: #1f77b4"/>
     <use xlink:href="#m3afae8a3ad" x="203.956463" y="216.404326" style="fill-opacity: 0; stroke: #1f77b4"/>
     <use xlink:href="#m3afae8a3ad" x="205.323192" y="216.404326" style="fill-opacity: 0; stroke: #1f77b4"/>
     <use xlink:href="#m3afae8a3ad" x="206.691436" y="216.404326" style="fill-opacity: 0; stroke: #1f77b4"/>
     <use xlink:href="#m3afae8a3ad" x="208.058165" y="216.404326" style="fill-opacity: 0; stroke: #1f77b4"/>
     <use xlink:href="#m3afae8a3ad" x="209.424893" y="216.404326" style="fill-opacity: 0; stroke: #1f77b4"/>
     <use xlink:href="#m3afae8a3ad" x="210.791116" y="215.097411" style="fill-opacity: 0; stroke: #1f77b4"/>
     <use xlink:href="#m3afae8a3ad" x="212.159361" y="211.57762" style="fill-opacity: 0; stroke: #1f77b4"/>
     <use xlink:href="#m3afae8a3ad" x="213.526089" y="208.48903" style="fill-opacity: 0; stroke: #1f77b4"/>
     <use xlink:href="#m3afae8a3ad" x="214.894333" y="206.921734" style="fill-opacity: 0; stroke: #1f77b4"/>
     <use xlink:href="#m3afae8a3ad" x="216.261062" y="207.944483" style="fill-opacity: 0; stroke: #1f77b4"/>
     <use xlink:href="#m3afae8a3ad" x="217.629306" y="206.46642" style="fill-opacity: 0; stroke: #1f77b4"/>
     <use xlink:href="#m3afae8a3ad" x="218.996035" y="206.142594" style="fill-opacity: 0; stroke: #1f77b4"/>
     <use xlink:href="#m3afae8a3ad" x="220.364279" y="204.275052" style="fill-opacity: 0; stroke: #1f77b4"/>
     <use xlink:href="#m3afae8a3ad" x="221.732524" y="192.751972" style="fill-opacity: 0; stroke: #1f77b4"/>
     <use xlink:href="#m3afae8a3ad" x="223.100263" y="177.527717" style="fill-opacity: 0; stroke: #1f77b4"/>
     <use xlink:href="#m3afae8a3ad" x="224.468508" y="169.590362" style="fill-opacity: 0; stroke: #1f77b4"/>
     <use xlink:href="#m3afae8a3ad" x="225.836753" y="178.490488" style="fill-opacity: 0; stroke: #1f77b4"/>
     <use xlink:href="#m3afae8a3ad" x="227.204997" y="185.544913" style="fill-opacity: 0; stroke: #1f77b4"/>
     <use xlink:href="#m3afae8a3ad" x="228.573242" y="182.886904" style="fill-opacity: 0; stroke: #1f77b4"/>
     <use xlink:href="#m3afae8a3ad" x="229.941486" y="175.60593" style="fill-opacity: 0; stroke: #1f77b4"/>
     <use xlink:href="#m3afae8a3ad" x="231.309731" y="177.780373" style="fill-opacity: 0; stroke: #1f77b4"/>
     <use xlink:href="#m3afae8a3ad" x="232.677976" y="175.262609" style="fill-opacity: 0; stroke: #1f77b4"/>
     <use xlink:href="#m3afae8a3ad" x="234.04622" y="167.393927" style="fill-opacity: 0; stroke: #1f77b4"/>
     <use xlink:href="#m3afae8a3ad" x="235.415981" y="181.354421" style="fill-opacity: 0; stroke: #1f77b4"/>
     <use xlink:href="#m3afae8a3ad" x="236.784226" y="213.387208" style="fill-opacity: 0; stroke: #1f77b4"/>
     <use xlink:href="#m3afae8a3ad" x="238.153987" y="216.404326" style="fill-opacity: 0; stroke: #1f77b4"/>
     <use xlink:href="#m3afae8a3ad" x="239.521726" y="216.404326" style="fill-opacity: 0; stroke: #1f77b4"/>
     <use xlink:href="#m3afae8a3ad" x="240.891487" y="216.404326" style="fill-opacity: 0; stroke: #1f77b4"/>
     <use xlink:href="#m3afae8a3ad" x="242.259732" y="216.404326" style="fill-opacity: 0; stroke: #1f77b4"/>
     <use xlink:href="#m3afae8a3ad" x="243.629493" y="216.404326" style="fill-opacity: 0; stroke: #1f77b4"/>
     <use xlink:href="#m3afae8a3ad" x="244.999254" y="216.404326" style="fill-opacity: 0; stroke: #1f77b4"/>
     <use xlink:href="#m3afae8a3ad" x="246.369015" y="216.404326" style="fill-opacity: 0; stroke: #1f77b4"/>
     <use xlink:href="#m3afae8a3ad" x="247.73726" y="216.404326" style="fill-opacity: 0; stroke: #1f77b4"/>
     <use xlink:href="#m3afae8a3ad" x="249.10702" y="216.404326" style="fill-opacity: 0; stroke: #1f77b4"/>
     <use xlink:href="#m3afae8a3ad" x="250.476781" y="216.404326" style="fill-opacity: 0; stroke: #1f77b4"/>
     <use xlink:href="#m3afae8a3ad" x="251.846542" y="216.404326" style="fill-opacity: 0; stroke: #1f77b4"/>
     <use xlink:href="#m3afae8a3ad" x="253.216303" y="216.404326" style="fill-opacity: 0; stroke: #1f77b4"/>
     <use xlink:href="#m3afae8a3ad" x="254.587581" y="216.404326" style="fill-opacity: 0; stroke: #1f77b4"/>
     <use xlink:href="#m3afae8a3ad" x="255.957342" y="216.404326" style="fill-opacity: 0; stroke: #1f77b4"/>
     <use xlink:href="#m3afae8a3ad" x="257.327103" y="216.404326" style="fill-opacity: 0; stroke: #1f77b4"/>
     <use xlink:href="#m3afae8a3ad" x="258.696864" y="216.404326" style="fill-opacity: 0; stroke: #1f77b4"/>
     <use xlink:href="#m3afae8a3ad" x="260.068141" y="216.404326" style="fill-opacity: 0; stroke: #1f77b4"/>
     <use xlink:href="#m3afae8a3ad" x="261.437902" y="216.404326" style="fill-opacity: 0; stroke: #1f77b4"/>
     <use xlink:href="#m3afae8a3ad" x="262.809179" y="216.404326" style="fill-opacity: 0; stroke: #1f77b4"/>
     <use xlink:href="#m3afae8a3ad" x="264.17894" y="216.404326" style="fill-opacity: 0; stroke: #1f77b4"/>
     <use xlink:href="#m3afae8a3ad" x="265.550218" y="216.404326" style="fill-opacity: 0; stroke: #1f77b4"/>
     <use xlink:href="#m3afae8a3ad" x="266.919979" y="216.404326" style="fill-opacity: 0; stroke: #1f77b4"/>
     <use xlink:href="#m3afae8a3ad" x="268.291256" y="216.404326" style="fill-opacity: 0; stroke: #1f77b4"/>
     <use xlink:href="#m3afae8a3ad" x="269.662533" y="216.404326" style="fill-opacity: 0; stroke: #1f77b4"/>
     <use xlink:href="#m3afae8a3ad" x="271.033811" y="216.404326" style="fill-opacity: 0; stroke: #1f77b4"/>
     <use xlink:href="#m3afae8a3ad" x="272.405088" y="216.404326" style="fill-opacity: 0; stroke: #1f77b4"/>
     <use xlink:href="#m3afae8a3ad" x="273.776365" y="216.404326" style="fill-opacity: 0; stroke: #1f77b4"/>
     <use xlink:href="#m3afae8a3ad" x="275.147643" y="216.404326" style="fill-opacity: 0; stroke: #1f77b4"/>
     <use xlink:href="#m3afae8a3ad" x="276.51892" y="216.404326" style="fill-opacity: 0; stroke: #1f77b4"/>
     <use xlink:href="#m3afae8a3ad" x="277.890197" y="216.404326" style="fill-opacity: 0; stroke: #1f77b4"/>
     <use xlink:href="#m3afae8a3ad" x="279.261475" y="216.404326" style="fill-opacity: 0; stroke: #1f77b4"/>
     <use xlink:href="#m3afae8a3ad" x="280.632752" y="216.404326" style="fill-opacity: 0; stroke: #1f77b4"/>
     <use xlink:href="#m3afae8a3ad" x="282.005546" y="216.404326" style="fill-opacity: 0; stroke: #1f77b4"/>
     <use xlink:href="#m3afae8a3ad" x="283.376823" y="216.404326" style="fill-opacity: 0; stroke: #1f77b4"/>
     <use xlink:href="#m3afae8a3ad" x="284.7481" y="216.404326" style="fill-opacity: 0; stroke: #1f77b4"/>
     <use xlink:href="#m3afae8a3ad" x="286.120894" y="216.404326" style="fill-opacity: 0; stroke: #1f77b4"/>
     <use xlink:href="#m3afae8a3ad" x="287.492171" y="216.404326" style="fill-opacity: 0; stroke: #1f77b4"/>
     <use xlink:href="#m3afae8a3ad" x="288.864965" y="168.447403" style="fill-opacity: 0; stroke: #1f77b4"/>
     <use xlink:href="#m3afae8a3ad" x="290.097809" y="-1" style="fill-opacity: 0; stroke: #1f77b4"/>
     <use xlink:href="#m3afae8a3ad" x="299.450809" y="-1" style="fill-opacity: 0; stroke: #1f77b4"/>
     <use xlink:href="#m3afae8a3ad" x="299.846303" y="155.420319" style="fill-opacity: 0; stroke: #1f77b4"/>
     <use xlink:href="#m3afae8a3ad" x="301.219097" y="216.404326" style="fill-opacity: 0; stroke: #1f77b4"/>
     <use xlink:href="#m3afae8a3ad" x="302.591891" y="216.404326" style="fill-opacity: 0; stroke: #1f77b4"/>
     <use xlink:href="#m3afae8a3ad" x="303.964684" y="216.404326" style="fill-opacity: 0; stroke: #1f77b4"/>
     <use xlink:href="#m3afae8a3ad" x="305.337478" y="210.547966" style="fill-opacity: 0; stroke: #1f77b4"/>
     <use xlink:href="#m3afae8a3ad" x="306.711788" y="213.275389" style="fill-opacity: 0; stroke: #1f77b4"/>
     <use xlink:href="#m3afae8a3ad" x="308.084582" y="216.404326" style="fill-opacity: 0; stroke: #1f77b4"/>
     <use xlink:href="#m3afae8a3ad" x="309.458892" y="216.404326" style="fill-opacity: 0; stroke: #1f77b4"/>
     <use xlink:href="#m3afae8a3ad" x="310.831686" y="216.404326" style="fill-opacity: 0; stroke: #1f77b4"/>
     <use xlink:href="#m3afae8a3ad" x="312.205996" y="216.404326" style="fill-opacity: 0; stroke: #1f77b4"/>
     <use xlink:href="#m3afae8a3ad" x="313.578789" y="216.404326" style="fill-opacity: 0; stroke: #1f77b4"/>
     <use xlink:href="#m3afae8a3ad" x="314.953605" y="216.404326" style="fill-opacity: 0; stroke: #1f77b4"/>
     <use xlink:href="#m3afae8a3ad" x="316.327915" y="206.286201" style="fill-opacity: 0; stroke: #1f77b4"/>
     <use xlink:href="#m3afae8a3ad" x="317.700708" y="216.404326" style="fill-opacity: 0; stroke: #1f77b4"/>
     <use xlink:href="#m3afae8a3ad" x="319.075018" y="216.404326" style="fill-opacity: 0; stroke: #1f77b4"/>
     <use xlink:href="#m3afae8a3ad" x="320.449328" y="216.404326" style="fill-opacity: 0; stroke: #1f77b4"/>
    </g>
   </g>
   <g id="line2d_2">
    <path d="M 43.29563 215.546577 
L 52.792977 215.137899 
L 58.22097 214.711638 
L 62.293356 214.186439 
L 65.008111 213.648822 
L 67.724382 212.832309 
L 69.081507 212.249938 
L 70.440654 211.480351 
L 71.798284 210.430141 
L 73.156925 208.929589 
L 74.514555 206.662128 
L 75.873197 202.958147 
L 77.232343 196.271365 
L 78.589468 182.872878 
L 79.948615 157.614308 
L 81.307761 143.373731 
L 82.666402 154.592869 
L 84.025549 149.16758 
L 85.38419 127.048438 
L 86.743337 126.652659 
L 88.102483 156.455189 
L 89.462641 179.893553 
L 90.821787 192.567538 
L 92.180934 199.333582 
L 93.541092 203.085905 
L 94.900238 205.163392 
L 96.260396 206.168863 
L 97.619542 206.30667 
L 98.980205 205.461928 
L 100.338846 202.995536 
L 101.699509 196.905672 
L 103.060172 183.52214 
L 104.42033 177.778237 
L 105.780993 188.997189 
L 107.141656 192.429714 
L 108.501813 187.963147 
L 109.862476 175.047445 
L 111.222634 152.907492 
L 112.583297 142.085803 
L 115.305633 181.454176 
L 116.666296 192.30496 
L 118.026959 197.204751 
L 119.388633 198.134281 
L 120.749296 193.776004 
L 122.111475 176.745957 
L 123.473655 180.332152 
L 124.833812 185.523533 
L 126.195991 172.458905 
L 128.919844 89.095585 
L 130.282024 140.625347 
L 131.644203 176.908866 
L 133.005877 190.545628 
L 134.368056 195.510845 
L 135.730235 196.466574 
L 137.091909 194.605086 
L 138.455605 189.51277 
L 139.817784 179.173056 
L 141.179963 158.917675 
L 142.543154 123.591237 
L 143.905333 95.940126 
L 145.269029 117.374115 
L 146.632724 144.338628 
L 147.994398 148.243285 
L 149.358094 128.627366 
L 150.721789 125.916561 
L 152.085485 159.013632 
L 153.448675 179.775841 
L 154.810854 188.216464 
L 156.17455 189.908821 
L 157.539762 186.060758 
L 160.266648 166.977789 
L 161.630343 174.002366 
L 162.994039 186.416109 
L 164.358746 193.76631 
L 165.722441 196.797503 
L 167.087653 196.889298 
L 168.451349 194.111149 
L 169.816561 186.838791 
L 171.181267 170.735982 
L 172.544963 146.636277 
L 173.910175 149.23544 
L 175.275387 164.945241 
L 176.640599 167.246923 
L 178.005305 159.33591 
L 179.370517 149.47634 
L 180.735729 150.535767 
L 183.466153 177.49342 
L 184.83086 187.239416 
L 186.196072 193.217444 
L 187.5628 196.649195 
L 188.928012 198.39732 
L 190.29474 198.991977 
L 191.659447 198.783289 
L 194.391387 197.367585 
L 195.758115 197.069756 
L 197.124844 197.57582 
L 198.491572 198.89528 
L 202.589735 204.348447 
L 203.956463 205.798514 
L 205.323192 206.945154 
L 206.691436 207.815033 
L 208.058165 208.442226 
L 209.424893 208.859188 
L 210.791116 209.086921 
L 212.159361 209.133932 
L 213.526089 208.993314 
L 214.894333 208.638016 
L 216.261062 208.010983 
L 217.629306 206.996006 
L 218.996035 205.360549 
L 220.364279 202.572612 
L 221.732524 197.300621 
L 223.100263 186.259955 
L 224.468508 169.938627 
L 225.836753 174.275729 
L 227.204997 183.656268 
L 228.573242 184.829726 
L 229.941486 181.520925 
L 231.309731 176.512152 
L 232.677976 172.497442 
L 234.04622 172.133421 
L 235.415981 176.091826 
L 238.153987 189.128156 
L 239.521726 194.756986 
L 240.891487 199.172842 
L 242.259732 202.523374 
L 243.629493 205.058708 
L 244.999254 206.988633 
L 246.369015 208.476211 
L 247.73726 209.638315 
L 249.10702 210.561567 
L 250.476781 211.304516 
L 253.216303 212.410267 
L 255.957342 213.179718 
L 258.696864 213.736006 
L 262.809179 214.322013 
L 268.291256 214.829408 
L 275.147643 215.226061 
L 286.120894 215.592947 
L 302.591891 215.876673 
L 320.449328 216.037072 
L 320.449328 216.037072 
" clip-path="url(#p0970dd6697)" style="fill: none; stroke: #ff0000; stroke-width: 1.5; stroke-linecap: square"/>
   </g>
   <g id="line2d_3">
    <path d="M 295.727417 216.404326 
L 295.727417 17.735865 
" clip-path="url(#p0970dd6697)" style="fill: none; stroke-dasharray: 3.7,1.6; stroke-dashoffset: 0; stroke: #808080"/>
   </g>
   <g id="patch_3">
    <path d="M 43.003987 216.404326 
L 43.003987 17.735865 
" style="fill: none; stroke: #000000; stroke-linejoin: miter; stroke-linecap: square"/>
   </g>
   <g id="patch_4">
    <path d="M 320.99976 216.404326 
L 320.99976 17.735865 
" style="fill: none; stroke: #000000; stroke-linejoin: miter; stroke-linecap: square"/>
   </g>
   <g id="patch_5">
    <path d="M 43.003987 216.404326 
L 320.99976 216.404326 
" style="fill: none; stroke: #000000; stroke-linejoin: miter; stroke-linecap: square"/>
   </g>
   <g id="patch_6">
    <path d="M 43.003987 17.735865 
L 320.99976 17.735865 
" style="fill: none; stroke: #000000; stroke-linejoin: miter; stroke-linecap: square"/>
   </g>
   <g id="matplotlib.axis_1">
    <g id="xtick_1">
     <g id="line2d_4">
      <defs>
       <path id="m2baa70c388" d="M 0 0 
L 0 3.75 
" style="stroke: #000000; stroke-width: 1.25"/>
      </defs>
      <g>
       <use xlink:href="#m2baa70c388" x="43.003987" y="216.404326" style="stroke: #000000; stroke-width: 1.25"/>
      </g>
     </g>
     <g id="text_1">
      <!-- $\mathdefault{429}$ -->
      <g transform="translate(33.818987 231.52792)">
       <text>
        <tspan style="font: 11px 'Arial'" x="0 6.117676 12.235352" y="-0.09375">429</tspan>
       </text>
      </g>
     </g>
    </g>
    <g id="xtick_2">
     <g id="line2d_5">
      <g>
       <use xlink:href="#m2baa70c388" x="93.548673" y="216.404326" style="stroke: #000000; stroke-width: 1.25"/>
      </g>
     </g>
     <g id="text_2">
      <!-- $\mathdefault{430}$ -->
      <g transform="translate(84.363673 231.52792)">
       <text>
        <tspan style="font: 11px 'Arial'" x="0 6.117676 12.235352" y="-0.09375">430</tspan>
       </text>
      </g>
     </g>
    </g>
    <g id="xtick_3">
     <g id="line2d_6">
      <g>
       <use xlink:href="#m2baa70c388" x="144.093359" y="216.404326" style="stroke: #000000; stroke-width: 1.25"/>
      </g>
     </g>
     <g id="text_3">
      <!-- $\mathdefault{431}$ -->
      <g transform="translate(134.908359 231.52792)">
       <text>
        <tspan style="font: 11px 'Arial'" x="0 6.117676 12.235352" y="-0.09375">431</tspan>
       </text>
      </g>
     </g>
    </g>
    <g id="xtick_4">
     <g id="line2d_7">
      <g>
       <use xlink:href="#m2baa70c388" x="194.638045" y="216.404326" style="stroke: #000000; stroke-width: 1.25"/>
      </g>
     </g>
     <g id="text_4">
      <!-- $\mathdefault{432}$ -->
      <g transform="translate(185.453045 231.52792)">
       <text>
        <tspan style="font: 11px 'Arial'" x="0 6.117676 12.235352" y="-0.09375">432</tspan>
       </text>
      </g>
     </g>
    </g>
    <g id="xtick_5">
     <g id="line2d_8">
      <g>
       <use xlink:href="#m2baa70c388" x="245.182731" y="216.404326" style="stroke: #000000; stroke-width: 1.25"/>
      </g>
     </g>
     <g id="text_5">
      <!-- $\mathdefault{433}$ -->
      <g transform="translate(235.997731 231.52792)">
       <text>
        <tspan style="font: 11px 'Arial'" x="0 6.117676 12.235352" y="-0.09375">433</tspan>
       </text>
      </g>
     </g>
    </g>
    <g id="xtick_6">
     <g id="line2d_9">
      <g>
       <use xlink:href="#m2baa70c388" x="295.727417" y="216.404326" style="stroke: #000000; stroke-width: 1.25"/>
      </g>
     </g>
     <g id="text_6">
      <!-- $\mathdefault{434}$ -->
      <g transform="translate(286.542417 231.52792)">
       <text>
        <tspan style="font: 11px 'Arial'" x="0 6.117676 12.235352" y="-0.09375">434</tspan>
       </text>
      </g>
     </g>
    </g>
    <g id="text_7">
     <!-- $\lambda$ {\sffamily (nm)} -->
     <g transform="translate(164.206736 246.411565) scale(0.12 -0.12)">
      <defs>
       <path id="StandardSymL-6c" d="M 480 3650 
C 525 4013 710 4224 998 4224 
C 1203 4224 1376 4064 1472 3778 
C 1517 3650 1574 3440 1632 3198 
L 154 19 
L 755 19 
L 1843 2301 
C 2048 1059 2150 607 2266 358 
C 2406 83 2611 -64 2848 -64 
C 3098 -64 3296 89 3405 371 
C 3475 543 3501 715 3507 1014 
L 3373 1014 
C 3322 683 3174 499 2944 499 
C 2752 499 2586 620 2483 843 
C 2400 1008 2355 1174 2266 1645 
L 2093 2466 
C 2086 2485 2080 2530 2067 2594 
C 1920 3415 1690 4192 1536 4422 
C 1395 4627 1203 4736 992 4736 
C 602 4736 397 4403 326 3650 
L 480 3650 
z
" transform="scale(0.015625)"/>
       <path id="NimbusSanL-Regu-28" d="M 1510 4672 
C 870 3833 467 2668 467 1663 
C 467 652 870 -513 1510 -1351 
L 1862 -1351 
C 1299 -436 986 639 986 1663 
C 986 2681 1299 3763 1862 4672 
L 1510 4672 
z
" transform="scale(0.015625)"/>
       <path id="NimbusSanL-Regu-6e" d="M 448 3328 
L 448 0 
L 986 0 
L 986 1835 
C 986 2539 1344 2988 1894 2988 
C 2317 2988 2586 2732 2586 2328 
L 2586 0 
L 3117 0 
L 3117 2539 
C 3117 3097 2701 3456 2054 3456 
C 1555 3456 1235 3263 941 2796 
L 941 3328 
L 448 3328 
z
" transform="scale(0.015625)"/>
       <path id="NimbusSanL-Regu-6d" d="M 448 3328 
L 448 0 
L 986 0 
L 986 2089 
C 986 2597 1338 2988 1773 2988 
C 2170 2988 2394 2744 2394 2315 
L 2394 0 
L 2931 0 
L 2931 2109 
C 2931 2597 3283 2988 3718 2988 
C 4109 2988 4339 2738 4339 2315 
L 4339 0 
L 4877 0 
L 4877 2520 
C 4877 3123 4531 3456 3904 3456 
C 3456 3456 3187 3321 2874 2943 
C 2675 3302 2406 3456 1971 3456 
C 1523 3456 1229 3289 941 2886 
L 941 3328 
L 448 3328 
z
" transform="scale(0.015625)"/>
       <path id="NimbusSanL-Regu-29" d="M 595 -1351 
C 1235 -513 1638 652 1638 1657 
C 1638 2668 1235 3833 595 4672 
L 243 4672 
C 806 3756 1120 2681 1120 1657 
C 1120 639 806 -442 243 -1351 
L 595 -1351 
z
" transform="scale(0.015625)"/>
      </defs>
      <use xlink:href="#StandardSymL-6c" transform="scale(0.996264)"/>
      <use xlink:href="#NimbusSanL-Regu-28" transform="translate(91.855235 0) scale(0.996264)"/>
      <use xlink:href="#NimbusSanL-Regu-6e" transform="translate(125.030464 0) scale(0.996264)"/>
      <use xlink:href="#NimbusSanL-Regu-6d" transform="translate(180.422141 0) scale(0.996264)"/>
      <use xlink:href="#NimbusSanL-Regu-29" transform="translate(263.410572 0) scale(0.996264)"/>
     </g>
    </g>
   </g>
   <g id="matplotlib.axis_2">
    <g id="ytick_1">
     <g id="line2d_10">
      <defs>
       <path id="mfd5842e082" d="M 0 0 
L -3.75 0 
" style="stroke: #000000; stroke-width: 1.25"/>
      </defs>
      <g>
       <use xlink:href="#mfd5842e082" x="43.003987" y="216.404326" style="stroke: #000000; stroke-width: 1.25"/>
      </g>
     </g>
     <g id="text_8">
      <!-- $\mathdefault{0.0}$ -->
      <g transform="translate(20.353987 220.341123)">
       <text>
        <tspan style="font: 11px 'Arial'" x="0 6.117676 9.173828" y="-0.09375">0.0</tspan>
       </text>
      </g>
     </g>
    </g>
    <g id="ytick_2">
     <g id="line2d_11">
      <g>
       <use xlink:href="#mfd5842e082" x="43.003987" y="175.685468" style="stroke: #000000; stroke-width: 1.25"/>
      </g>
     </g>
     <g id="text_9">
      <!-- $\mathdefault{0.5}$ -->
      <g transform="translate(20.353987 179.622264)">
       <text>
        <tspan style="font: 11px 'Arial'" x="0 6.117676 9.173828" y="-0.09375">0.5</tspan>
       </text>
      </g>
     </g>
    </g>
    <g id="ytick_3">
     <g id="line2d_12">
      <g>
       <use xlink:href="#mfd5842e082" x="43.003987" y="134.966609" style="stroke: #000000; stroke-width: 1.25"/>
      </g>
     </g>
     <g id="text_10">
      <!-- $\mathdefault{1.0}$ -->
      <g transform="translate(20.353987 138.903406)">
       <text>
        <tspan style="font: 11px 'Arial'" x="0 6.117676 9.173828" y="-0.09375">1.0</tspan>
       </text>
      </g>
     </g>
    </g>
    <g id="ytick_4">
     <g id="line2d_13">
      <g>
       <use xlink:href="#mfd5842e082" x="43.003987" y="94.247751" style="stroke: #000000; stroke-width: 1.25"/>
      </g>
     </g>
     <g id="text_11">
      <!-- $\mathdefault{1.5}$ -->
      <g transform="translate(20.353987 98.184548)">
       <text>
        <tspan style="font: 11px 'Arial'" x="0 6.117676 9.173828" y="-0.09375">1.5</tspan>
       </text>
      </g>
     </g>
    </g>
    <g id="ytick_5">
     <g id="line2d_14">
      <g>
       <use xlink:href="#mfd5842e082" x="43.003987" y="53.528893" style="stroke: #000000; stroke-width: 1.25"/>
      </g>
     </g>
     <g id="text_12">
      <!-- $\mathdefault{2.0}$ -->
      <g transform="translate(20.353987 57.46569)">
       <text>
        <tspan style="font: 11px 'Arial'" x="0 6.117676 9.173828" y="-0.09375">2.0</tspan>
       </text>
      </g>
     </g>
    </g>
    <g id="text_13">
     <!-- $B_{\lambda}$ {\sffamily (photons/cm\textsuperscript{2}/s/nm)} -->
     <g transform="translate(13.728305 177.714049) rotate(-90) scale(0.12 -0.12)">
      <defs>
       <path id="NimbusRomNo9L-ReguItal-42" d="M -51 0 
L 1754 0 
C 2758 0 3450 523 3450 1274 
C 3450 1510 3373 1732 3232 1872 
C 3104 2019 2976 2095 2643 2235 
C 3098 2344 3283 2420 3488 2598 
C 3667 2751 3763 2968 3763 3222 
C 3763 3827 3309 4160 2483 4160 
L 832 4160 
L 832 4057 
C 1229 4025 1325 3974 1325 3795 
C 1325 3700 1299 3541 1254 3388 
L 467 574 
C 352 204 307 166 -51 102 
L -51 0 
z
M 1523 2108 
C 1939 2108 2208 2083 2336 2032 
C 2598 1923 2758 1643 2758 1299 
C 2758 612 2285 192 1504 192 
C 1235 192 1094 287 1094 459 
C 1094 535 1171 841 1318 1350 
C 1402 1637 1440 1783 1523 2108 
z
M 2003 3789 
C 2042 3929 2118 3967 2368 3967 
C 2880 3967 3117 3751 3117 3280 
C 3117 2917 2963 2637 2688 2484 
C 2470 2356 2163 2312 1587 2312 
L 2003 3789 
z
" transform="scale(0.015625)"/>
       <path id="NimbusSanL-Regu-70" d="M 346 -1408 
L 883 -1408 
L 883 371 
C 1165 25 1478 -128 1914 -128 
C 2778 -128 3347 568 3347 1632 
C 3347 2752 2797 3456 1907 3456 
C 1453 3456 1088 3251 838 2854 
L 838 3359 
L 346 3359 
L 346 -1408 
z
M 1818 2956 
C 2406 2956 2790 2440 2790 1644 
C 2790 887 2400 371 1818 371 
C 1254 371 883 880 883 1663 
C 883 2447 1254 2956 1818 2956 
z
" transform="scale(0.015625)"/>
       <path id="NimbusSanL-Regu-68" d="M 448 4672 
L 448 0 
L 979 0 
L 979 1853 
C 979 2539 1338 2988 1888 2988 
C 2061 2988 2234 2930 2362 2834 
C 2515 2725 2579 2565 2579 2328 
L 2579 0 
L 3110 0 
L 3110 2539 
C 3110 3103 2707 3456 2054 3456 
C 1581 3456 1293 3308 979 2898 
L 979 4672 
L 448 4672 
z
" transform="scale(0.015625)"/>
       <path id="NimbusSanL-Regu-6f" d="M 1741 3456 
C 800 3456 230 2784 230 1663 
C 230 543 794 -128 1747 -128 
C 2688 -128 3264 543 3264 1638 
C 3264 2791 2707 3456 1741 3456 
z
M 1747 2963 
C 2349 2963 2707 2472 2707 1644 
C 2707 861 2336 364 1747 364 
C 1152 364 787 855 787 1663 
C 787 2466 1152 2963 1747 2963 
z
" transform="scale(0.015625)"/>
       <path id="NimbusSanL-Regu-74" d="M 1626 3328 
L 1075 3328 
L 1075 4249 
L 544 4249 
L 544 3328 
L 90 3328 
L 90 2892 
L 544 2892 
L 544 402 
C 544 64 774 -128 1190 -128 
C 1318 -128 1446 -116 1626 -84 
L 1626 364 
C 1555 345 1472 339 1370 339 
C 1139 339 1075 402 1075 634 
L 1075 2892 
L 1626 2892 
L 1626 3328 
z
" transform="scale(0.015625)"/>
       <path id="NimbusSanL-Regu-73" d="M 2803 2428 
C 2797 3084 2362 3456 1587 3456 
C 806 3456 301 3052 301 2434 
C 301 1912 570 1663 1363 1472 
L 1862 1351 
C 2234 1262 2381 1129 2381 887 
C 2381 574 2067 364 1600 364 
C 1312 364 1069 447 934 587 
C 851 683 813 778 781 1014 
L 218 1014 
C 243 243 678 -128 1555 -128 
C 2400 -128 2938 288 2938 931 
C 2938 1428 2656 1702 1990 1861 
L 1478 1982 
C 1043 2084 858 2224 858 2459 
C 858 2765 1133 2963 1568 2963 
C 1997 2963 2227 2778 2240 2428 
L 2803 2428 
z
" transform="scale(0.015625)"/>
       <path id="NimbusSanL-Regu-2f" d="M 1466 4672 
L -51 -128 
L 301 -128 
L 1818 4672 
L 1466 4672 
z
" transform="scale(0.015625)"/>
       <path id="NimbusSanL-Regu-63" d="M 3014 2237 
C 2989 2561 2918 2771 2790 2956 
C 2560 3270 2157 3456 1690 3456 
C 787 3456 198 2740 198 1632 
C 198 555 774 -128 1683 -128 
C 2483 -128 2989 352 3053 1167 
L 2515 1167 
C 2426 632 2150 364 1696 364 
C 1107 364 755 842 755 1632 
C 755 2466 1101 2963 1683 2963 
C 2131 2963 2413 2701 2477 2237 
L 3014 2237 
z
" transform="scale(0.015625)"/>
       <path id="NimbusSanL-Regu-32" d="M 3238 556 
L 851 556 
C 909 928 1114 1165 1670 1493 
L 2310 1839 
C 2944 2185 3270 2653 3270 3211 
C 3270 3589 3117 3942 2848 4185 
C 2579 4428 2246 4544 1818 4544 
C 1242 4544 813 4339 563 3955 
C 403 3711 333 3429 320 2967 
L 883 2967 
C 902 3275 941 3461 1018 3608 
C 1165 3884 1459 4051 1798 4051 
C 2310 4051 2694 3685 2694 3198 
C 2694 2839 2483 2531 2080 2300 
L 1491 1967 
C 544 1428 269 999 218 0 
L 3238 0 
L 3238 556 
z
" transform="scale(0.015625)"/>
      </defs>
      <use xlink:href="#NimbusRomNo9L-ReguItal-42" transform="scale(0.996264)"/>
      <use xlink:href="#StandardSymL-6c" transform="translate(60.871631 -20.616338) scale(0.737241)"/>
      <use xlink:href="#NimbusSanL-Regu-28" transform="translate(135.818713 0) scale(0.996264)"/>
      <use xlink:href="#NimbusSanL-Regu-70" transform="translate(168.993943 0) scale(0.996264)"/>
      <use xlink:href="#NimbusSanL-Regu-68" transform="translate(224.38562 0) scale(0.996264)"/>
      <use xlink:href="#NimbusSanL-Regu-6f" transform="translate(279.777297 0) scale(0.996264)"/>
      <use xlink:href="#NimbusSanL-Regu-74" transform="translate(335.168974 0) scale(0.996264)"/>
      <use xlink:href="#NimbusSanL-Regu-6f" transform="translate(362.864143 0) scale(0.996264)"/>
      <use xlink:href="#NimbusSanL-Regu-6e" transform="translate(418.25582 0) scale(0.996264)"/>
      <use xlink:href="#NimbusSanL-Regu-73" transform="translate(473.647497 0) scale(0.996264)"/>
      <use xlink:href="#NimbusSanL-Regu-2f" transform="translate(523.460698 0) scale(0.996264)"/>
      <use xlink:href="#NimbusSanL-Regu-63" transform="translate(551.155868 0) scale(0.996264)"/>
      <use xlink:href="#NimbusSanL-Regu-6d" transform="translate(600.969068 0) scale(0.996264)"/>
      <use xlink:href="#NimbusSanL-Regu-32" transform="translate(683.957498 36.163231) scale(0.737241)"/>
      <use xlink:href="#NimbusSanL-Regu-2f" transform="translate(725.445777 0) scale(0.996264)"/>
      <use xlink:href="#NimbusSanL-Regu-73" transform="translate(753.140947 0) scale(0.996264)"/>
      <use xlink:href="#NimbusSanL-Regu-2f" transform="translate(802.954147 0) scale(0.996264)"/>
      <use xlink:href="#NimbusSanL-Regu-6e" transform="translate(830.649317 0) scale(0.996264)"/>
      <use xlink:href="#NimbusSanL-Regu-6d" transform="translate(886.040994 0) scale(0.996264)"/>
      <use xlink:href="#NimbusSanL-Regu-29" transform="translate(969.029424 0) scale(0.996264)"/>
     </g>
    </g>
    <g id="text_14">
     <!-- $\times\mathdefault{10^{12}}\mathdefault{}$ -->
     <g transform="translate(43.003987 14.735865)">
      <text>
       <tspan style="font: 11px 'STIXGeneral'" x="0" y="-0.799312500000001"></tspan>
       <tspan style="font: 11px 'Arial'" x="7.039993 13.157669" y="-0.799312500000001">10</tspan>
       <tspan style="font: 7.7px 'Arial'" x="19.467003 23.749376" y="-8.465625">12</tspan>
      </text>
     </g>
    </g>
   </g>
   <g id="patch_7">
    <path d="M 217.800817 47.652918 
L 217.800817 67.40298 
L 294.609383 67.40298 
" style="fill: none; stroke: #000000; stroke-linecap: round"/>
    <path d="M 290.609383 65.40298 
L 294.609383 67.40298 
L 290.609383 69.40298 
" style="fill: none; stroke: #000000; stroke-linecap: round"/>
   </g>
   <g id="text_15">
    <g id="patch_8">
     <path d="M 184.100817 50.702711 
L 251.500817 50.702711 
Q 254.500817 50.702711 254.500817 47.702711 
L 254.500817 37.602711 
Q 254.500817 34.602711 251.500817 34.602711 
L 184.100817 34.602711 
Q 181.100817 34.602711 181.100817 37.602711 
L 181.100817 47.702711 
Q 181.100817 50.702711 184.100817 50.702711 
z
" style="fill: #f5deb3; stroke: #000000; stroke-linejoin: miter"/>
    </g>
    <!-- D$_{\gamma}$ (434.00) nm -->
    <g transform="translate(184.100817 44.902711)">
     <text>
      <tspan style="font: 10px 'Arial'" x="0 10.686517 13.464837 16.794915 22.356439 27.917962 33.479486 36.257806 41.81933 47.380853 50.710931 53.489251 59.050775" y="-0.71875">D(434.00)nm</tspan>
      <tspan style="font: italic 7px 'STIXGeneral'" x="7.375898" y="0.6031250000000004"></tspan>
     </text>
    </g>
   </g>
   <g id="text_16">
    <text style="font: 10px 'Arial'; text-anchor: middle" x="219.205805" y="109.638617" transform="rotate(-0 219.205805 109.638617)">Q-branch</text>
   </g>
   <g id="text_17">
    <text style="font: 10px 'Arial'; text-anchor: middle" x="126.569274" y="24.628966" transform="rotate(-0 126.569274 24.628966)">B-D + C-D</text>
   </g>
   <g id="text_18">
    <text style="font: 700 12px 'Arial'; text-anchor: middle" x="182.001874" y="11.735865" transform="rotate(-0 182.001874 11.735865)">HP boron rod (redeposit test) - 68 min</text>
   </g>
  </g>
 </g>
 <defs>
  <clipPath id="p0970dd6697">
   <rect x="43.003987" y="17.735865" width="277.995773" height="198.668461"/>
  </clipPath>
 </defs>
</svg>
