<?xml version="1.0" encoding="utf-8" standalone="no"?>
<!DOCTYPE svg PUBLIC "-//W3C//DTD SVG 1.1//EN"
  "http://www.w3.org/Graphics/SVG/1.1/DTD/svg11.dtd">
<svg xmlns:xlink="http://www.w3.org/1999/xlink" width="324pt" height="252pt" viewBox="0 0 324 252" xmlns="http://www.w3.org/2000/svg" version="1.1">
 <metadata>
  <rdf:RDF xmlns:dc="http://purl.org/dc/elements/1.1/" xmlns:cc="http://creativecommons.org/ns#" xmlns:rdf="http://www.w3.org/1999/02/22-rdf-syntax-ns#">
   <cc:Work>
    <dc:type rdf:resource="http://purl.org/dc/dcmitype/StillImage"/>
    <dc:date>2024-12-06T11:06:23.197827</dc:date>
    <dc:format>image/svg+xml</dc:format>
    <dc:creator>
     <cc:Agent>
      <dc:title>Matplotlib v3.9.2, https://matplotlib.org/</dc:title>
     </cc:Agent>
    </dc:creator>
   </cc:Work>
  </rdf:RDF>
 </metadata>
 <defs>
  <style type="text/css">*{stroke-linejoin: round; stroke-linecap: butt}</style>
 </defs>
 <g id="figure_1">
  <g id="patch_1">
   <path d="M 0 252 
L 324 252 
L 324 0 
L 0 0 
z
" style="fill: #ffffff"/>
  </g>
  <g id="axes_1">
   <g id="patch_2">
    <path d="M 43.003987 216.404326 
L 320.99976 216.404326 
L 320.99976 17.735865 
L 43.003987 17.735865 
z
" style="fill: #ffffff"/>
   </g>
   <g id="PolyCollection_1">
    <path d="M 43.312815 216.364706 
L 43.312815 216.404326 
L 44.668424 216.404326 
L 46.024538 216.404326 
L 47.381663 216.404326 
L 48.737776 216.404326 
L 50.094901 216.404326 
L 51.451015 216.404326 
L 52.80814 216.404326 
L 54.16577 216.404326 
L 55.521379 216.404326 
L 56.879009 216.404326 
L 58.236134 216.404326 
L 59.593764 216.404326 
L 60.951394 216.404326 
L 62.308519 216.404326 
L 63.666149 216.404326 
L 65.023274 216.404326 
L 66.380905 216.404326 
L 67.739546 216.404326 
L 69.097176 216.404326 
L 70.454301 216.404326 
L 71.813447 216.404326 
L 73.171078 216.404326 
L 74.529719 216.404326 
L 75.887349 216.404326 
L 77.24599 216.404326 
L 78.605137 216.404326 
L 79.962262 216.404326 
L 81.321408 216.404326 
L 82.680555 216.404326 
L 84.039196 216.404326 
L 85.398343 216.404326 
L 86.756984 216.404326 
L 88.11613 216.404326 
L 89.475277 216.404326 
L 90.835435 216.404326 
L 92.194581 216.404326 
L 93.553728 216.404326 
L 94.913885 216.404326 
L 96.273032 216.404326 
L 97.633189 216.404326 
L 98.992336 216.404326 
L 100.352999 216.404326 
L 101.71164 216.404326 
L 103.072303 216.404326 
L 104.432966 216.404326 
L 105.793123 216.404326 
L 107.153786 216.404326 
L 108.514449 216.404326 
L 109.874607 216.404326 
L 111.23527 216.404326 
L 112.595427 216.404326 
L 113.95609 216.404326 
L 115.316753 216.404326 
L 116.678427 216.404326 
L 118.03909 216.404326 
L 119.399753 216.404326 
L 120.761427 216.404326 
L 122.12209 216.404326 
L 123.484269 216.404326 
L 124.846448 216.404326 
L 126.206606 216.404326 
L 127.568785 216.404326 
L 128.930964 216.404326 
L 130.292638 216.404326 
L 131.654817 216.404326 
L 133.016997 216.404326 
L 134.378671 216.404326 
L 135.74085 216.404326 
L 137.103029 216.404326 
L 138.464703 216.404326 
L 139.828399 216.404326 
L 141.190578 216.404326 
L 142.552757 216.404326 
L 143.915947 216.404326 
L 145.278127 216.404326 
L 146.641822 216.404326 
L 148.005518 216.404326 
L 149.367192 216.404326 
L 150.730887 216.404326 
L 152.094583 216.404326 
L 153.458279 216.404326 
L 154.821469 216.404326 
L 156.183648 216.404326 
L 157.547344 216.404326 
L 158.912556 216.404326 
L 160.275746 216.404326 
L 161.639441 216.404326 
L 163.003137 216.404326 
L 164.366833 216.404326 
L 165.731539 216.404326 
L 167.095235 216.404326 
L 168.460447 216.404326 
L 169.824142 216.404326 
L 171.189354 216.404326 
L 172.554061 216.404326 
L 173.917757 216.404326 
L 175.282969 216.404326 
L 176.648181 216.404326 
L 178.013392 216.404326 
L 179.378099 216.404326 
L 180.743311 216.404326 
L 182.108523 216.404326 
L 183.473735 216.404326 
L 184.838947 216.404326 
L 186.203653 216.404326 
L 187.568865 216.404326 
L 188.935594 216.404326 
L 190.300806 216.404326 
L 191.667534 216.404326 
L 193.03224 216.404326 
L 194.398969 216.404326 
L 195.764181 216.404326 
L 197.130909 216.404326 
L 198.497637 216.404326 
L 199.864366 216.404326 
L 201.229578 216.404326 
L 202.5958 216.404326 
L 203.962529 216.404326 
L 205.329257 216.404326 
L 206.695985 216.404326 
L 208.06423 216.404326 
L 209.430958 216.404326 
L 210.797687 216.404326 
L 212.16391 216.404326 
L 213.532154 216.404326 
L 214.898882 216.404326 
L 216.267127 216.404326 
L 217.633855 216.404326 
L 219.0021 216.404326 
L 220.368828 216.404326 
L 221.737073 216.404326 
L 223.105318 216.404326 
L 224.473057 216.404326 
L 225.841302 216.404326 
L 227.209546 216.404326 
L 228.577791 216.404326 
L 229.946036 216.404326 
L 231.31428 216.404326 
L 232.682525 216.404326 
L 234.050769 216.404326 
L 235.419014 216.404326 
L 236.788775 216.404326 
L 238.15702 216.404326 
L 239.526781 216.404326 
L 240.89452 216.404326 
L 242.264281 216.404326 
L 243.632526 216.404326 
L 245.002287 216.404326 
L 246.372048 216.404326 
L 247.741809 216.404326 
L 249.110053 216.404326 
L 250.479814 216.404326 
L 251.849575 216.404326 
L 253.219336 216.404326 
L 254.589097 216.404326 
L 255.960374 216.404326 
L 257.330135 216.404326 
L 258.699896 216.404326 
L 260.069657 216.404326 
L 261.440935 216.404326 
L 262.810696 216.404326 
L 264.181973 216.404326 
L 265.551734 216.404326 
L 266.923011 216.404326 
L 268.292772 216.404326 
L 269.66405 216.404326 
L 271.035327 216.404326 
L 272.406604 216.404326 
L 273.777882 216.404326 
L 275.149159 216.404326 
L 276.520436 216.404326 
L 277.891714 216.404326 
L 279.262991 216.404326 
L 280.634268 216.404326 
L 282.005546 216.404326 
L 283.378339 216.404326 
L 284.749617 216.404326 
L 286.120894 216.404326 
L 287.493688 216.404326 
L 288.864965 216.404326 
L 290.237759 216.404326 
L 291.610552 216.404326 
L 292.98183 216.404326 
L 294.354623 216.404326 
L 295.727417 216.404326 
L 297.100211 216.404326 
L 298.473004 216.404326 
L 299.846303 216.404326 
L 301.219097 216.404326 
L 302.591891 216.404326 
L 303.964684 216.404326 
L 305.337478 216.404326 
L 306.710272 216.404326 
L 308.084582 216.404326 
L 309.457376 216.404326 
L 310.831686 216.404326 
L 312.204479 216.404326 
L 313.578789 216.404326 
L 314.951583 216.404326 
L 316.326398 216.404326 
L 317.700708 216.404326 
L 319.073502 216.404326 
L 320.447812 216.404326 
L 320.447812 216.243573 
L 320.447812 216.243573 
L 319.073502 216.23866 
L 317.700708 216.233526 
L 316.326398 216.228142 
L 314.951583 216.222498 
L 313.578789 216.216587 
L 312.204479 216.210376 
L 310.831686 216.203859 
L 309.457376 216.197001 
L 308.084582 216.189793 
L 306.710272 216.182193 
L 305.337478 216.174191 
L 303.964684 216.16575 
L 302.591891 216.156835 
L 301.219097 216.147411 
L 299.846303 216.137438 
L 298.473004 216.12687 
L 297.100211 216.115665 
L 295.727417 216.103767 
L 294.354623 216.091119 
L 292.98183 216.077655 
L 291.610552 216.06332 
L 290.237759 216.048002 
L 288.864965 216.031629 
L 287.493688 216.014121 
L 286.120894 215.995327 
L 284.749617 215.975166 
L 283.378339 215.953475 
L 282.005546 215.930069 
L 280.634268 215.904821 
L 279.262991 215.8775 
L 277.891714 215.847873 
L 276.520436 215.815673 
L 275.149159 215.780592 
L 273.777882 215.742274 
L 272.406604 215.70031 
L 271.035327 215.654218 
L 269.66405 215.603438 
L 268.292772 215.547309 
L 266.923011 215.485122 
L 265.551734 215.415809 
L 264.181973 215.338409 
L 262.810696 215.251405 
L 261.440935 215.153352 
L 260.069657 215.042021 
L 258.699896 214.915167 
L 257.330135 214.769557 
L 255.960374 214.601235 
L 254.589097 214.404886 
L 253.219336 214.174303 
L 251.849575 213.900465 
L 250.479814 213.571401 
L 249.110053 213.170442 
L 247.741809 212.674286 
L 246.372048 212.046232 
L 245.002287 211.231143 
L 243.632526 210.136816 
L 242.264281 208.600411 
L 240.89452 206.294444 
L 239.526781 202.512671 
L 238.15702 195.508456 
L 236.788775 181.71329 
L 235.419014 166.094008 
L 234.050769 173.134864 
L 232.682525 181.582738 
L 231.31428 182.266643 
L 229.946036 179.432606 
L 228.577791 176.743498 
L 227.209546 177.005845 
L 225.841302 180.892373 
L 224.473057 186.779497 
L 223.105318 192.721877 
L 221.737073 197.741303 
L 220.368828 201.657514 
L 219.0021 204.622624 
L 217.633855 206.862594 
L 216.267127 208.563021 
L 214.898882 209.872535 
L 213.532154 210.892841 
L 212.16391 211.700892 
L 210.797687 212.347902 
L 209.430958 212.8736 
L 208.06423 213.305569 
L 206.695985 213.664702 
L 205.329257 213.96555 
L 203.962529 214.220143 
L 202.5958 214.43736 
L 201.229578 214.624017 
L 199.864366 214.78547 
L 198.497637 214.926261 
L 197.130909 215.049605 
L 195.764181 215.158245 
L 194.398969 215.25431 
L 193.03224 215.339838 
L 191.667534 215.416115 
L 190.300806 215.484617 
L 188.935594 215.546205 
L 187.568865 215.601895 
L 186.203653 215.652303 
L 184.838947 215.698108 
L 183.473735 215.739882 
L 182.108523 215.778069 
L 180.743311 215.813066 
L 179.378099 215.845218 
L 178.013392 215.874814 
L 176.648181 215.902137 
L 175.282969 215.927403 
L 173.917757 215.950813 
L 172.554061 215.972522 
L 171.189354 215.992727 
L 169.824142 216.011555 
L 168.460447 216.029104 
L 167.095235 216.045522 
L 165.731539 216.060871 
L 164.366833 216.075267 
L 163.003137 216.088769 
L 161.639441 216.101457 
L 160.275746 216.113397 
L 158.912556 216.124641 
L 157.547344 216.135262 
L 156.183648 216.145279 
L 154.821469 216.154737 
L 153.458279 216.163693 
L 152.094583 216.17218 
L 150.730887 216.180226 
L 149.367192 216.187861 
L 148.005518 216.195102 
L 146.641822 216.201996 
L 145.278127 216.208556 
L 143.915947 216.214794 
L 142.552757 216.220744 
L 141.190578 216.226415 
L 139.828399 216.231826 
L 138.464703 216.237001 
L 137.103029 216.241938 
L 135.74085 216.246663 
L 134.378671 216.251184 
L 133.016997 216.255512 
L 131.654817 216.259661 
L 130.292638 216.263639 
L 128.930964 216.267454 
L 127.568785 216.271117 
L 126.206606 216.274635 
L 124.846448 216.27801 
L 123.484269 216.281261 
L 122.12209 216.284387 
L 120.761427 216.287393 
L 119.399753 216.290289 
L 118.03909 216.293077 
L 116.678427 216.295764 
L 115.316753 216.298357 
L 113.95609 216.300856 
L 112.595427 216.303268 
L 111.23527 216.305595 
L 109.874607 216.307844 
L 108.514449 216.310017 
L 107.153786 216.312117 
L 105.793123 216.314148 
L 104.432966 216.316112 
L 103.072303 216.318014 
L 101.71164 216.319854 
L 100.352999 216.321634 
L 98.992336 216.323361 
L 97.633189 216.325032 
L 96.273032 216.326653 
L 94.913885 216.328224 
L 93.553728 216.329749 
L 92.194581 216.331227 
L 90.835435 216.332662 
L 89.475277 216.334056 
L 88.11613 216.335409 
L 86.756984 216.336723 
L 85.398343 216.337999 
L 84.039196 216.33924 
L 82.680555 216.340447 
L 81.321408 216.34162 
L 79.962262 216.342761 
L 78.605137 216.34387 
L 77.24599 216.344951 
L 75.887349 216.346002 
L 74.529719 216.347026 
L 73.171078 216.348023 
L 71.813447 216.348994 
L 70.454301 216.34994 
L 69.097176 216.350862 
L 67.739546 216.35176 
L 66.380905 216.352637 
L 65.023274 216.353491 
L 63.666149 216.354325 
L 62.308519 216.355138 
L 60.951394 216.355931 
L 59.593764 216.356705 
L 58.236134 216.357461 
L 56.879009 216.358199 
L 55.521379 216.358919 
L 54.16577 216.359622 
L 52.80814 216.36031 
L 51.451015 216.360982 
L 50.094901 216.361638 
L 48.737776 216.36228 
L 47.381663 216.362907 
L 46.024538 216.36352 
L 44.668424 216.36412 
L 43.312815 216.364706 
z
" clip-path="url(#p8fb52dbaa0)" style="fill: #1f77b4; fill-opacity: 0.25"/>
   </g>
   <g id="PolyCollection_2">
    <path d="M 43.312815 215.56196 
L 43.312815 216.404326 
L 44.668424 216.404326 
L 46.024538 216.404326 
L 47.381663 216.404326 
L 48.737776 216.404326 
L 50.094901 216.404326 
L 51.451015 216.404326 
L 52.80814 216.404326 
L 54.16577 216.404326 
L 55.521379 216.404326 
L 56.879009 216.404326 
L 58.236134 216.404326 
L 59.593764 216.404326 
L 60.951394 216.404326 
L 62.308519 216.404326 
L 63.666149 216.404326 
L 65.023274 216.404326 
L 66.380905 216.404326 
L 67.739546 216.404326 
L 69.097176 216.404326 
L 70.454301 216.404326 
L 71.813447 216.404326 
L 73.171078 216.404326 
L 74.529719 216.404326 
L 75.887349 216.404326 
L 77.24599 216.404326 
L 78.605137 216.404326 
L 79.962262 216.404326 
L 81.321408 216.404326 
L 82.680555 216.404326 
L 84.039196 216.404326 
L 85.398343 216.404326 
L 86.756984 216.404326 
L 88.11613 216.404326 
L 89.475277 216.404326 
L 90.835435 216.404326 
L 92.194581 216.404326 
L 93.553728 216.404326 
L 94.913885 216.404326 
L 96.273032 216.404326 
L 97.633189 216.404326 
L 98.992336 216.404326 
L 100.352999 216.404326 
L 101.71164 216.404326 
L 103.072303 216.404326 
L 104.432966 216.404326 
L 105.793123 216.404326 
L 107.153786 216.404326 
L 108.514449 216.404326 
L 109.874607 216.404326 
L 111.23527 216.404326 
L 112.595427 216.404326 
L 113.95609 216.404326 
L 115.316753 216.404326 
L 116.678427 216.404326 
L 118.03909 216.404326 
L 119.399753 216.404326 
L 120.761427 216.404326 
L 122.12209 216.404326 
L 123.484269 216.404326 
L 124.846448 216.404326 
L 126.206606 216.404326 
L 127.568785 216.404326 
L 128.930964 216.404326 
L 130.292638 216.404326 
L 131.654817 216.404326 
L 133.016997 216.404326 
L 134.378671 216.404326 
L 135.74085 216.404326 
L 137.103029 216.404326 
L 138.464703 216.404326 
L 139.828399 216.404326 
L 141.190578 216.404326 
L 142.552757 216.404326 
L 143.915947 216.404326 
L 145.278127 216.404326 
L 146.641822 216.404326 
L 148.005518 216.404326 
L 149.367192 216.404326 
L 150.730887 216.404326 
L 152.094583 216.404326 
L 153.458279 216.404326 
L 154.821469 216.404326 
L 156.183648 216.404326 
L 157.547344 216.404326 
L 158.912556 216.404326 
L 160.275746 216.404326 
L 161.639441 216.404326 
L 163.003137 216.404326 
L 164.366833 216.404326 
L 165.731539 216.404326 
L 167.095235 216.404326 
L 168.460447 216.404326 
L 169.824142 216.404326 
L 171.189354 216.404326 
L 172.554061 216.404326 
L 173.917757 216.404326 
L 175.282969 216.404326 
L 176.648181 216.404326 
L 178.013392 216.404326 
L 179.378099 216.404326 
L 180.743311 216.404326 
L 182.108523 216.404326 
L 183.473735 216.404326 
L 184.838947 216.404326 
L 186.203653 216.404326 
L 187.568865 216.404326 
L 188.935594 216.404326 
L 190.300806 216.404326 
L 191.667534 216.404326 
L 193.03224 216.404326 
L 194.398969 216.404326 
L 195.764181 216.404326 
L 197.130909 216.404326 
L 198.497637 216.404326 
L 199.864366 216.404326 
L 201.229578 216.404326 
L 202.5958 216.404326 
L 203.962529 216.404326 
L 205.329257 216.404326 
L 206.695985 216.404326 
L 208.06423 216.404326 
L 209.430958 216.404326 
L 210.797687 216.404326 
L 212.16391 216.404326 
L 213.532154 216.404326 
L 214.898882 216.404326 
L 216.267127 216.404326 
L 217.633855 216.404326 
L 219.0021 216.404326 
L 220.368828 216.404326 
L 221.737073 216.404326 
L 223.105318 216.404326 
L 224.473057 216.404326 
L 225.841302 216.404326 
L 227.209546 216.404326 
L 228.577791 216.404326 
L 229.946036 216.404326 
L 231.31428 216.404326 
L 232.682525 216.404326 
L 234.050769 216.404326 
L 235.419014 216.404326 
L 236.788775 216.404326 
L 238.15702 216.404326 
L 239.526781 216.404326 
L 240.89452 216.404326 
L 242.264281 216.404326 
L 243.632526 216.404326 
L 245.002287 216.404326 
L 246.372048 216.404326 
L 247.741809 216.404326 
L 249.110053 216.404326 
L 250.479814 216.404326 
L 251.849575 216.404326 
L 253.219336 216.404326 
L 254.589097 216.404326 
L 255.960374 216.404326 
L 257.330135 216.404326 
L 258.699896 216.404326 
L 260.069657 216.404326 
L 261.440935 216.404326 
L 262.810696 216.404326 
L 264.181973 216.404326 
L 265.551734 216.404326 
L 266.923011 216.404326 
L 268.292772 216.404326 
L 269.66405 216.404326 
L 271.035327 216.404326 
L 272.406604 216.404326 
L 273.777882 216.404326 
L 275.149159 216.404326 
L 276.520436 216.404326 
L 277.891714 216.404326 
L 279.262991 216.404326 
L 280.634268 216.404326 
L 282.005546 216.404326 
L 283.378339 216.404326 
L 284.749617 216.404326 
L 286.120894 216.404326 
L 287.493688 216.404326 
L 288.864965 216.404326 
L 290.237759 216.404326 
L 291.610552 216.404326 
L 292.98183 216.404326 
L 294.354623 216.404326 
L 295.727417 216.404326 
L 297.100211 216.404326 
L 298.473004 216.404326 
L 299.846303 216.404326 
L 301.219097 216.404326 
L 302.591891 216.404326 
L 303.964684 216.404326 
L 305.337478 216.404326 
L 306.710272 216.404326 
L 308.084582 216.404326 
L 309.457376 216.404326 
L 310.831686 216.404326 
L 312.204479 216.404326 
L 313.578789 216.404326 
L 314.951583 216.404326 
L 316.326398 216.404326 
L 317.700708 216.404326 
L 319.073502 216.404326 
L 320.447812 216.404326 
L 320.447812 216.258947 
L 320.447812 216.258947 
L 319.073502 216.256532 
L 317.700708 216.254057 
L 316.326398 216.251515 
L 314.951583 216.248905 
L 313.578789 216.246228 
L 312.204479 216.243477 
L 310.831686 216.240654 
L 309.457376 216.237751 
L 308.084582 216.23477 
L 306.710272 216.231702 
L 305.337478 216.22855 
L 303.964684 216.225309 
L 302.591891 216.221973 
L 301.219097 216.21854 
L 299.846303 216.215005 
L 298.473004 216.211363 
L 297.100211 216.207612 
L 295.727417 216.203747 
L 294.354623 216.199761 
L 292.98183 216.19565 
L 291.610552 216.191414 
L 290.237759 216.187037 
L 288.864965 216.182517 
L 287.493688 216.177853 
L 286.120894 216.173029 
L 284.749617 216.168047 
L 283.378339 216.162894 
L 282.005546 216.157557 
L 280.634268 216.152038 
L 279.262991 216.146322 
L 277.891714 216.1404 
L 276.520436 216.13426 
L 275.149159 216.127891 
L 273.777882 216.121282 
L 272.406604 216.114419 
L 271.035327 216.107289 
L 269.66405 216.099876 
L 268.292772 216.092165 
L 266.923011 216.084148 
L 265.551734 216.075789 
L 264.181973 216.067086 
L 262.810696 216.057998 
L 261.440935 216.048523 
L 260.069657 216.038614 
L 258.699896 216.028267 
L 257.330135 216.017441 
L 255.960374 216.006104 
L 254.589097 215.994208 
L 253.219336 215.981741 
L 251.849575 215.968648 
L 250.479814 215.954883 
L 249.110053 215.940397 
L 247.741809 215.925151 
L 246.372048 215.90905 
L 245.002287 215.892044 
L 243.632526 215.874056 
L 242.264281 215.855024 
L 240.89452 215.834813 
L 239.526781 215.813372 
L 238.15702 215.790518 
L 236.788775 215.766177 
L 235.419014 215.740145 
L 234.050769 215.712306 
L 232.682525 215.682437 
L 231.31428 215.650311 
L 229.946036 215.615668 
L 228.577791 215.578203 
L 227.209546 215.53756 
L 225.841302 215.493318 
L 224.473057 215.444977 
L 223.105318 215.391957 
L 221.737073 215.333492 
L 220.368828 215.268708 
L 219.0021 215.196583 
L 217.633855 215.115565 
L 216.267127 215.024059 
L 214.898882 214.919546 
L 213.532154 214.799188 
L 212.16391 214.658529 
L 210.797687 214.492094 
L 209.430958 214.291154 
L 208.06423 214.043026 
L 206.695985 213.727205 
L 205.329257 213.310745 
L 203.962529 212.733025 
L 202.5958 211.876048 
L 201.229578 210.483969 
L 199.864366 207.934633 
L 198.497637 202.641432 
L 197.130909 193.022326 
L 195.764181 191.084034 
L 194.398969 197.028434 
L 193.03224 196.607315 
L 191.667534 191.132442 
L 190.300806 191.787001 
L 188.935594 197.988512 
L 187.568865 200.851421 
L 186.203653 200.431558 
L 184.838947 197.225756 
L 183.473735 190.297043 
L 182.108523 177.149177 
L 180.743311 156.974058 
L 179.378099 146.29084 
L 178.013392 156.964677 
L 176.648181 164.431993 
L 175.282969 158.313083 
L 173.917757 143.120688 
L 172.554061 142.391015 
L 171.189354 162.465427 
L 169.824142 180.129003 
L 168.460447 190.001291 
L 167.095235 194.731137 
L 165.731539 196.111466 
L 164.366833 194.536731 
L 163.003137 189.171418 
L 161.639441 179.016539 
L 160.275746 170.565348 
L 158.912556 176.23682 
L 157.547344 185.627179 
L 156.183648 189.804225 
L 154.821469 188.522164 
L 153.458279 180.302805 
L 152.094583 158.141087 
L 150.730887 127.710449 
L 149.367192 142.532694 
L 148.005518 150.645091 
L 146.641822 136.436467 
L 145.278127 110.286039 
L 143.915947 100.937583 
L 142.552757 125.151828 
L 141.190578 154.177352 
L 139.828399 173.150925 
L 138.464703 183.788558 
L 137.103029 189.164632 
L 135.74085 190.879547 
L 134.378671 189.084949 
L 133.016997 182.193727 
L 131.654817 165.027581 
L 130.292638 126.316651 
L 128.930964 83.902155 
L 127.568785 118.568023 
L 126.206606 159.64633 
L 124.846448 174.332686 
L 123.484269 162.444127 
L 122.12209 172.826199 
L 120.761427 190.142817 
L 119.399753 193.146752 
L 118.03909 190.876736 
L 116.678427 183.915218 
L 115.316753 170.147775 
L 113.95609 148.391297 
L 112.595427 132.44033 
L 111.23527 144.52348 
L 109.874607 166.668979 
L 108.514449 181.053038 
L 107.153786 187.178188 
L 105.793123 186.407017 
L 104.432966 181.377361 
L 103.072303 184.597131 
L 101.71164 194.319305 
L 100.352999 200.576601 
L 98.992336 203.694708 
L 97.633189 205.075537 
L 96.273032 205.365003 
L 94.913885 204.727685 
L 93.553728 202.997671 
L 92.194581 199.599048 
L 90.835435 193.135857 
L 89.475277 180.305827 
L 88.11613 154.482368 
L 86.756984 118.254987 
L 85.398343 121.78082 
L 84.039196 149.309925 
L 82.680555 152.726493 
L 81.321408 133.7574 
L 79.962262 152.420427 
L 78.605137 182.524966 
L 77.24599 196.705707 
L 75.887349 203.395684 
L 74.529719 207.012486 
L 73.171078 209.203221 
L 71.813447 210.641658 
L 70.454301 211.647086 
L 69.097176 212.381109 
L 67.739546 212.937756 
L 66.380905 213.372329 
L 65.023274 213.719178 
L 63.666149 214.001639 
L 62.308519 214.23569 
L 60.951394 214.432253 
L 59.593764 214.599501 
L 58.236134 214.743284 
L 56.879009 214.868023 
L 55.521379 214.977234 
L 54.16577 215.073393 
L 52.80814 215.158884 
L 51.451015 215.235203 
L 50.094901 215.303687 
L 48.737776 215.365538 
L 47.381663 215.421569 
L 46.024538 215.472615 
L 44.668424 215.519227 
L 43.312815 215.56196 
z
" clip-path="url(#p8fb52dbaa0)" style="fill: #ff7f0e; fill-opacity: 0.25"/>
   </g>
   <g id="line2d_1">
    <path d="M 43.312815 201.647155 
L 44.668424 210.953613 
L 46.024538 210.403192 
L 47.381663 211.189791 
L 48.737776 216.404326 
L 51.451015 216.404326 
L 52.80814 206.286299 
L 55.521379 176.007417 
L 56.879009 176.695402 
L 58.236134 184.609681 
L 59.593764 197.603535 
L 60.951394 213.66125 
L 62.308519 216.404326 
L 66.380905 216.404326 
L 67.739546 214.847462 
L 69.097176 199.738126 
L 70.454301 192.86544 
L 71.813447 201.46932 
L 73.171078 216.404326 
L 75.887349 216.404326 
L 77.24599 208.466355 
L 79.962262 148.604634 
L 81.321408 136.62769 
L 82.680555 151.346346 
L 84.039196 142.040128 
L 85.398343 125.298556 
L 86.756984 118.383383 
L 89.475277 181.418672 
L 90.835435 197.662271 
L 92.194581 211.29071 
L 93.553728 216.194397 
L 94.913885 216.404326 
L 96.273032 213.143294 
L 97.633189 204.57973 
L 98.992336 202.301288 
L 100.352999 203.207045 
L 103.072303 182.88927 
L 104.432966 183.552858 
L 105.793123 184.93535 
L 107.153786 185.717263 
L 108.514449 180.026865 
L 109.874607 163.811761 
L 111.23527 143.19557 
L 112.595427 135.972636 
L 113.95609 147.952708 
L 115.316753 161.935184 
L 118.03909 202.020998 
L 119.399753 206.5537 
L 120.761427 190.858088 
L 122.12209 169.699542 
L 123.484269 164.882974 
L 124.846448 168.101549 
L 126.206606 152.937244 
L 127.568785 115.334537 
L 128.930964 91.137906 
L 130.292638 112.278076 
L 131.654817 167.950516 
L 133.016997 207.43396 
L 134.378671 216.404326 
L 135.74085 216.404326 
L 137.103029 208.769758 
L 138.464703 191.727373 
L 139.828399 172.863367 
L 141.190578 145.588009 
L 142.552757 113.847736 
L 143.915947 109.806366 
L 145.278127 112.625291 
L 146.641822 128.564209 
L 148.005518 147.081644 
L 149.367192 142.801924 
L 150.730887 129.441009 
L 152.094583 151.938978 
L 153.458279 187.287652 
L 154.821469 199.130258 
L 156.183648 192.977101 
L 157.547344 180.652926 
L 158.912556 172.243107 
L 160.275746 173.801033 
L 161.639441 178.910305 
L 163.003137 187.093304 
L 164.366833 191.029757 
L 165.731539 195.978124 
L 167.095235 194.088237 
L 168.460447 188.420082 
L 169.824142 178.446757 
L 171.189354 161.657785 
L 172.554061 143.277799 
L 173.917757 140.419723 
L 175.282969 159.601257 
L 176.648181 166.685258 
L 178.013392 152.999047 
L 179.378099 147.095729 
L 180.743311 156.572884 
L 182.108523 177.443383 
L 183.473735 187.557992 
L 184.838947 196.633727 
L 186.203653 201.911766 
L 187.568865 201.9452 
L 188.935594 195.12244 
L 190.300806 190.811585 
L 191.667534 190.887732 
L 193.03224 194.706611 
L 194.398969 195.651029 
L 195.764181 190.017183 
L 197.130909 191.489529 
L 198.497637 202.213721 
L 199.864366 205.729918 
L 201.229578 212.985056 
L 202.5958 215.569128 
L 203.962529 216.404326 
L 205.329257 216.073853 
L 206.695985 216.404326 
L 210.797687 216.308302 
L 214.898882 205.302755 
L 216.267127 204.926423 
L 217.633855 205.432701 
L 219.0021 204.876292 
L 220.368828 205.743416 
L 221.737073 202.184693 
L 223.105318 189.391863 
L 224.473057 177.717318 
L 225.841302 176.434259 
L 227.209546 180.961005 
L 228.577791 182.239481 
L 229.946036 178.017747 
L 231.31428 174.324107 
L 232.682525 176.849395 
L 234.050769 174.471708 
L 235.419014 167.024087 
L 236.788775 174.625364 
L 238.15702 201.300391 
L 239.526781 211.835269 
L 240.89452 216.404326 
L 246.372048 216.404326 
L 247.741809 212.372889 
L 249.110053 215.811442 
L 250.479814 212.801583 
L 251.849575 216.404326 
L 288.864965 216.404326 
L 290.237759 74.740323 
L 290.583035 -1 
M 300.226016 -1 
L 301.219097 216.404326 
L 305.337478 216.404326 
L 306.710272 202.445985 
L 309.457376 216.404326 
L 316.326398 216.404326 
L 317.700708 201.243084 
L 319.073502 216.404326 
L 320.447812 216.404326 
L 320.447812 216.404326 
" clip-path="url(#p8fb52dbaa0)" style="fill: none; stroke: #1f77b4; stroke-width: 1.5; stroke-linecap: square"/>
    <defs>
     <path id="me227fd3eb3" d="M 0 1.5 
C 0.397805 1.5 0.77937 1.341951 1.06066 1.06066 
C 1.341951 0.77937 1.5 0.397805 1.5 0 
C 1.5 -0.397805 1.341951 -0.77937 1.06066 -1.06066 
C 0.77937 -1.341951 0.397805 -1.5 0 -1.5 
C -0.397805 -1.5 -0.77937 -1.341951 -1.06066 -1.06066 
C -1.341951 -0.77937 -1.5 -0.397805 -1.5 0 
C -1.5 0.397805 -1.341951 0.77937 -1.06066 1.06066 
C -0.77937 1.341951 -0.397805 1.5 0 1.5 
z
" style="stroke: #1f77b4"/>
    </defs>
    <g clip-path="url(#p8fb52dbaa0)">
     <use xlink:href="#me227fd3eb3" x="43.312815" y="201.647155" style="fill-opacity: 0; stroke: #1f77b4"/>
     <use xlink:href="#me227fd3eb3" x="44.668424" y="210.953613" style="fill-opacity: 0; stroke: #1f77b4"/>
     <use xlink:href="#me227fd3eb3" x="46.024538" y="210.403192" style="fill-opacity: 0; stroke: #1f77b4"/>
     <use xlink:href="#me227fd3eb3" x="47.381663" y="211.189791" style="fill-opacity: 0; stroke: #1f77b4"/>
     <use xlink:href="#me227fd3eb3" x="48.737776" y="216.404326" style="fill-opacity: 0; stroke: #1f77b4"/>
     <use xlink:href="#me227fd3eb3" x="50.094901" y="216.404326" style="fill-opacity: 0; stroke: #1f77b4"/>
     <use xlink:href="#me227fd3eb3" x="51.451015" y="216.404326" style="fill-opacity: 0; stroke: #1f77b4"/>
     <use xlink:href="#me227fd3eb3" x="52.80814" y="206.286299" style="fill-opacity: 0; stroke: #1f77b4"/>
     <use xlink:href="#me227fd3eb3" x="54.16577" y="190.706696" style="fill-opacity: 0; stroke: #1f77b4"/>
     <use xlink:href="#me227fd3eb3" x="55.521379" y="176.007417" style="fill-opacity: 0; stroke: #1f77b4"/>
     <use xlink:href="#me227fd3eb3" x="56.879009" y="176.695402" style="fill-opacity: 0; stroke: #1f77b4"/>
     <use xlink:href="#me227fd3eb3" x="58.236134" y="184.609681" style="fill-opacity: 0; stroke: #1f77b4"/>
     <use xlink:href="#me227fd3eb3" x="59.593764" y="197.603535" style="fill-opacity: 0; stroke: #1f77b4"/>
     <use xlink:href="#me227fd3eb3" x="60.951394" y="213.66125" style="fill-opacity: 0; stroke: #1f77b4"/>
     <use xlink:href="#me227fd3eb3" x="62.308519" y="216.404326" style="fill-opacity: 0; stroke: #1f77b4"/>
     <use xlink:href="#me227fd3eb3" x="63.666149" y="216.404326" style="fill-opacity: 0; stroke: #1f77b4"/>
     <use xlink:href="#me227fd3eb3" x="65.023274" y="216.404326" style="fill-opacity: 0; stroke: #1f77b4"/>
     <use xlink:href="#me227fd3eb3" x="66.380905" y="216.404326" style="fill-opacity: 0; stroke: #1f77b4"/>
     <use xlink:href="#me227fd3eb3" x="67.739546" y="214.847462" style="fill-opacity: 0; stroke: #1f77b4"/>
     <use xlink:href="#me227fd3eb3" x="69.097176" y="199.738126" style="fill-opacity: 0; stroke: #1f77b4"/>
     <use xlink:href="#me227fd3eb3" x="70.454301" y="192.86544" style="fill-opacity: 0; stroke: #1f77b4"/>
     <use xlink:href="#me227fd3eb3" x="71.813447" y="201.46932" style="fill-opacity: 0; stroke: #1f77b4"/>
     <use xlink:href="#me227fd3eb3" x="73.171078" y="216.404326" style="fill-opacity: 0; stroke: #1f77b4"/>
     <use xlink:href="#me227fd3eb3" x="74.529719" y="216.404326" style="fill-opacity: 0; stroke: #1f77b4"/>
     <use xlink:href="#me227fd3eb3" x="75.887349" y="216.404326" style="fill-opacity: 0; stroke: #1f77b4"/>
     <use xlink:href="#me227fd3eb3" x="77.24599" y="208.466355" style="fill-opacity: 0; stroke: #1f77b4"/>
     <use xlink:href="#me227fd3eb3" x="78.605137" y="179.30124" style="fill-opacity: 0; stroke: #1f77b4"/>
     <use xlink:href="#me227fd3eb3" x="79.962262" y="148.604634" style="fill-opacity: 0; stroke: #1f77b4"/>
     <use xlink:href="#me227fd3eb3" x="81.321408" y="136.62769" style="fill-opacity: 0; stroke: #1f77b4"/>
     <use xlink:href="#me227fd3eb3" x="82.680555" y="151.346346" style="fill-opacity: 0; stroke: #1f77b4"/>
     <use xlink:href="#me227fd3eb3" x="84.039196" y="142.040128" style="fill-opacity: 0; stroke: #1f77b4"/>
     <use xlink:href="#me227fd3eb3" x="85.398343" y="125.298556" style="fill-opacity: 0; stroke: #1f77b4"/>
     <use xlink:href="#me227fd3eb3" x="86.756984" y="118.383383" style="fill-opacity: 0; stroke: #1f77b4"/>
     <use xlink:href="#me227fd3eb3" x="88.11613" y="150.989031" style="fill-opacity: 0; stroke: #1f77b4"/>
     <use xlink:href="#me227fd3eb3" x="89.475277" y="181.418672" style="fill-opacity: 0; stroke: #1f77b4"/>
     <use xlink:href="#me227fd3eb3" x="90.835435" y="197.662271" style="fill-opacity: 0; stroke: #1f77b4"/>
     <use xlink:href="#me227fd3eb3" x="92.194581" y="211.29071" style="fill-opacity: 0; stroke: #1f77b4"/>
     <use xlink:href="#me227fd3eb3" x="93.553728" y="216.194397" style="fill-opacity: 0; stroke: #1f77b4"/>
     <use xlink:href="#me227fd3eb3" x="94.913885" y="216.404326" style="fill-opacity: 0; stroke: #1f77b4"/>
     <use xlink:href="#me227fd3eb3" x="96.273032" y="213.143294" style="fill-opacity: 0; stroke: #1f77b4"/>
     <use xlink:href="#me227fd3eb3" x="97.633189" y="204.57973" style="fill-opacity: 0; stroke: #1f77b4"/>
     <use xlink:href="#me227fd3eb3" x="98.992336" y="202.301288" style="fill-opacity: 0; stroke: #1f77b4"/>
     <use xlink:href="#me227fd3eb3" x="100.352999" y="203.207045" style="fill-opacity: 0; stroke: #1f77b4"/>
     <use xlink:href="#me227fd3eb3" x="101.71164" y="192.942065" style="fill-opacity: 0; stroke: #1f77b4"/>
     <use xlink:href="#me227fd3eb3" x="103.072303" y="182.88927" style="fill-opacity: 0; stroke: #1f77b4"/>
     <use xlink:href="#me227fd3eb3" x="104.432966" y="183.552858" style="fill-opacity: 0; stroke: #1f77b4"/>
     <use xlink:href="#me227fd3eb3" x="105.793123" y="184.93535" style="fill-opacity: 0; stroke: #1f77b4"/>
     <use xlink:href="#me227fd3eb3" x="107.153786" y="185.717263" style="fill-opacity: 0; stroke: #1f77b4"/>
     <use xlink:href="#me227fd3eb3" x="108.514449" y="180.026865" style="fill-opacity: 0; stroke: #1f77b4"/>
     <use xlink:href="#me227fd3eb3" x="109.874607" y="163.811761" style="fill-opacity: 0; stroke: #1f77b4"/>
     <use xlink:href="#me227fd3eb3" x="111.23527" y="143.19557" style="fill-opacity: 0; stroke: #1f77b4"/>
     <use xlink:href="#me227fd3eb3" x="112.595427" y="135.972636" style="fill-opacity: 0; stroke: #1f77b4"/>
     <use xlink:href="#me227fd3eb3" x="113.95609" y="147.952708" style="fill-opacity: 0; stroke: #1f77b4"/>
     <use xlink:href="#me227fd3eb3" x="115.316753" y="161.935184" style="fill-opacity: 0; stroke: #1f77b4"/>
     <use xlink:href="#me227fd3eb3" x="116.678427" y="181.87614" style="fill-opacity: 0; stroke: #1f77b4"/>
     <use xlink:href="#me227fd3eb3" x="118.03909" y="202.020998" style="fill-opacity: 0; stroke: #1f77b4"/>
     <use xlink:href="#me227fd3eb3" x="119.399753" y="206.5537" style="fill-opacity: 0; stroke: #1f77b4"/>
     <use xlink:href="#me227fd3eb3" x="120.761427" y="190.858088" style="fill-opacity: 0; stroke: #1f77b4"/>
     <use xlink:href="#me227fd3eb3" x="122.12209" y="169.699542" style="fill-opacity: 0; stroke: #1f77b4"/>
     <use xlink:href="#me227fd3eb3" x="123.484269" y="164.882974" style="fill-opacity: 0; stroke: #1f77b4"/>
     <use xlink:href="#me227fd3eb3" x="124.846448" y="168.101549" style="fill-opacity: 0; stroke: #1f77b4"/>
     <use xlink:href="#me227fd3eb3" x="126.206606" y="152.937244" style="fill-opacity: 0; stroke: #1f77b4"/>
     <use xlink:href="#me227fd3eb3" x="127.568785" y="115.334537" style="fill-opacity: 0; stroke: #1f77b4"/>
     <use xlink:href="#me227fd3eb3" x="128.930964" y="91.137906" style="fill-opacity: 0; stroke: #1f77b4"/>
     <use xlink:href="#me227fd3eb3" x="130.292638" y="112.278076" style="fill-opacity: 0; stroke: #1f77b4"/>
     <use xlink:href="#me227fd3eb3" x="131.654817" y="167.950516" style="fill-opacity: 0; stroke: #1f77b4"/>
     <use xlink:href="#me227fd3eb3" x="133.016997" y="207.43396" style="fill-opacity: 0; stroke: #1f77b4"/>
     <use xlink:href="#me227fd3eb3" x="134.378671" y="216.404326" style="fill-opacity: 0; stroke: #1f77b4"/>
     <use xlink:href="#me227fd3eb3" x="135.74085" y="216.404326" style="fill-opacity: 0; stroke: #1f77b4"/>
     <use xlink:href="#me227fd3eb3" x="137.103029" y="208.769758" style="fill-opacity: 0; stroke: #1f77b4"/>
     <use xlink:href="#me227fd3eb3" x="138.464703" y="191.727373" style="fill-opacity: 0; stroke: #1f77b4"/>
     <use xlink:href="#me227fd3eb3" x="139.828399" y="172.863367" style="fill-opacity: 0; stroke: #1f77b4"/>
     <use xlink:href="#me227fd3eb3" x="141.190578" y="145.588009" style="fill-opacity: 0; stroke: #1f77b4"/>
     <use xlink:href="#me227fd3eb3" x="142.552757" y="113.847736" style="fill-opacity: 0; stroke: #1f77b4"/>
     <use xlink:href="#me227fd3eb3" x="143.915947" y="109.806366" style="fill-opacity: 0; stroke: #1f77b4"/>
     <use xlink:href="#me227fd3eb3" x="145.278127" y="112.625291" style="fill-opacity: 0; stroke: #1f77b4"/>
     <use xlink:href="#me227fd3eb3" x="146.641822" y="128.564209" style="fill-opacity: 0; stroke: #1f77b4"/>
     <use xlink:href="#me227fd3eb3" x="148.005518" y="147.081644" style="fill-opacity: 0; stroke: #1f77b4"/>
     <use xlink:href="#me227fd3eb3" x="149.367192" y="142.801924" style="fill-opacity: 0; stroke: #1f77b4"/>
     <use xlink:href="#me227fd3eb3" x="150.730887" y="129.441009" style="fill-opacity: 0; stroke: #1f77b4"/>
     <use xlink:href="#me227fd3eb3" x="152.094583" y="151.938978" style="fill-opacity: 0; stroke: #1f77b4"/>
     <use xlink:href="#me227fd3eb3" x="153.458279" y="187.287652" style="fill-opacity: 0; stroke: #1f77b4"/>
     <use xlink:href="#me227fd3eb3" x="154.821469" y="199.130258" style="fill-opacity: 0; stroke: #1f77b4"/>
     <use xlink:href="#me227fd3eb3" x="156.183648" y="192.977101" style="fill-opacity: 0; stroke: #1f77b4"/>
     <use xlink:href="#me227fd3eb3" x="157.547344" y="180.652926" style="fill-opacity: 0; stroke: #1f77b4"/>
     <use xlink:href="#me227fd3eb3" x="158.912556" y="172.243107" style="fill-opacity: 0; stroke: #1f77b4"/>
     <use xlink:href="#me227fd3eb3" x="160.275746" y="173.801033" style="fill-opacity: 0; stroke: #1f77b4"/>
     <use xlink:href="#me227fd3eb3" x="161.639441" y="178.910305" style="fill-opacity: 0; stroke: #1f77b4"/>
     <use xlink:href="#me227fd3eb3" x="163.003137" y="187.093304" style="fill-opacity: 0; stroke: #1f77b4"/>
     <use xlink:href="#me227fd3eb3" x="164.366833" y="191.029757" style="fill-opacity: 0; stroke: #1f77b4"/>
     <use xlink:href="#me227fd3eb3" x="165.731539" y="195.978124" style="fill-opacity: 0; stroke: #1f77b4"/>
     <use xlink:href="#me227fd3eb3" x="167.095235" y="194.088237" style="fill-opacity: 0; stroke: #1f77b4"/>
     <use xlink:href="#me227fd3eb3" x="168.460447" y="188.420082" style="fill-opacity: 0; stroke: #1f77b4"/>
     <use xlink:href="#me227fd3eb3" x="169.824142" y="178.446757" style="fill-opacity: 0; stroke: #1f77b4"/>
     <use xlink:href="#me227fd3eb3" x="171.189354" y="161.657785" style="fill-opacity: 0; stroke: #1f77b4"/>
     <use xlink:href="#me227fd3eb3" x="172.554061" y="143.277799" style="fill-opacity: 0; stroke: #1f77b4"/>
     <use xlink:href="#me227fd3eb3" x="173.917757" y="140.419723" style="fill-opacity: 0; stroke: #1f77b4"/>
     <use xlink:href="#me227fd3eb3" x="175.282969" y="159.601257" style="fill-opacity: 0; stroke: #1f77b4"/>
     <use xlink:href="#me227fd3eb3" x="176.648181" y="166.685258" style="fill-opacity: 0; stroke: #1f77b4"/>
     <use xlink:href="#me227fd3eb3" x="178.013392" y="152.999047" style="fill-opacity: 0; stroke: #1f77b4"/>
     <use xlink:href="#me227fd3eb3" x="179.378099" y="147.095729" style="fill-opacity: 0; stroke: #1f77b4"/>
     <use xlink:href="#me227fd3eb3" x="180.743311" y="156.572884" style="fill-opacity: 0; stroke: #1f77b4"/>
     <use xlink:href="#me227fd3eb3" x="182.108523" y="177.443383" style="fill-opacity: 0; stroke: #1f77b4"/>
     <use xlink:href="#me227fd3eb3" x="183.473735" y="187.557992" style="fill-opacity: 0; stroke: #1f77b4"/>
     <use xlink:href="#me227fd3eb3" x="184.838947" y="196.633727" style="fill-opacity: 0; stroke: #1f77b4"/>
     <use xlink:href="#me227fd3eb3" x="186.203653" y="201.911766" style="fill-opacity: 0; stroke: #1f77b4"/>
     <use xlink:href="#me227fd3eb3" x="187.568865" y="201.9452" style="fill-opacity: 0; stroke: #1f77b4"/>
     <use xlink:href="#me227fd3eb3" x="188.935594" y="195.12244" style="fill-opacity: 0; stroke: #1f77b4"/>
     <use xlink:href="#me227fd3eb3" x="190.300806" y="190.811585" style="fill-opacity: 0; stroke: #1f77b4"/>
     <use xlink:href="#me227fd3eb3" x="191.667534" y="190.887732" style="fill-opacity: 0; stroke: #1f77b4"/>
     <use xlink:href="#me227fd3eb3" x="193.03224" y="194.706611" style="fill-opacity: 0; stroke: #1f77b4"/>
     <use xlink:href="#me227fd3eb3" x="194.398969" y="195.651029" style="fill-opacity: 0; stroke: #1f77b4"/>
     <use xlink:href="#me227fd3eb3" x="195.764181" y="190.017183" style="fill-opacity: 0; stroke: #1f77b4"/>
     <use xlink:href="#me227fd3eb3" x="197.130909" y="191.489529" style="fill-opacity: 0; stroke: #1f77b4"/>
     <use xlink:href="#me227fd3eb3" x="198.497637" y="202.213721" style="fill-opacity: 0; stroke: #1f77b4"/>
     <use xlink:href="#me227fd3eb3" x="199.864366" y="205.729918" style="fill-opacity: 0; stroke: #1f77b4"/>
     <use xlink:href="#me227fd3eb3" x="201.229578" y="212.985056" style="fill-opacity: 0; stroke: #1f77b4"/>
     <use xlink:href="#me227fd3eb3" x="202.5958" y="215.569128" style="fill-opacity: 0; stroke: #1f77b4"/>
     <use xlink:href="#me227fd3eb3" x="203.962529" y="216.404326" style="fill-opacity: 0; stroke: #1f77b4"/>
     <use xlink:href="#me227fd3eb3" x="205.329257" y="216.073853" style="fill-opacity: 0; stroke: #1f77b4"/>
     <use xlink:href="#me227fd3eb3" x="206.695985" y="216.404326" style="fill-opacity: 0; stroke: #1f77b4"/>
     <use xlink:href="#me227fd3eb3" x="208.06423" y="216.404326" style="fill-opacity: 0; stroke: #1f77b4"/>
     <use xlink:href="#me227fd3eb3" x="209.430958" y="216.404326" style="fill-opacity: 0; stroke: #1f77b4"/>
     <use xlink:href="#me227fd3eb3" x="210.797687" y="216.308302" style="fill-opacity: 0; stroke: #1f77b4"/>
     <use xlink:href="#me227fd3eb3" x="212.16391" y="212.599117" style="fill-opacity: 0; stroke: #1f77b4"/>
     <use xlink:href="#me227fd3eb3" x="213.532154" y="208.740826" style="fill-opacity: 0; stroke: #1f77b4"/>
     <use xlink:href="#me227fd3eb3" x="214.898882" y="205.302755" style="fill-opacity: 0; stroke: #1f77b4"/>
     <use xlink:href="#me227fd3eb3" x="216.267127" y="204.926423" style="fill-opacity: 0; stroke: #1f77b4"/>
     <use xlink:href="#me227fd3eb3" x="217.633855" y="205.432701" style="fill-opacity: 0; stroke: #1f77b4"/>
     <use xlink:href="#me227fd3eb3" x="219.0021" y="204.876292" style="fill-opacity: 0; stroke: #1f77b4"/>
     <use xlink:href="#me227fd3eb3" x="220.368828" y="205.743416" style="fill-opacity: 0; stroke: #1f77b4"/>
     <use xlink:href="#me227fd3eb3" x="221.737073" y="202.184693" style="fill-opacity: 0; stroke: #1f77b4"/>
     <use xlink:href="#me227fd3eb3" x="223.105318" y="189.391863" style="fill-opacity: 0; stroke: #1f77b4"/>
     <use xlink:href="#me227fd3eb3" x="224.473057" y="177.717318" style="fill-opacity: 0; stroke: #1f77b4"/>
     <use xlink:href="#me227fd3eb3" x="225.841302" y="176.434259" style="fill-opacity: 0; stroke: #1f77b4"/>
     <use xlink:href="#me227fd3eb3" x="227.209546" y="180.961005" style="fill-opacity: 0; stroke: #1f77b4"/>
     <use xlink:href="#me227fd3eb3" x="228.577791" y="182.239481" style="fill-opacity: 0; stroke: #1f77b4"/>
     <use xlink:href="#me227fd3eb3" x="229.946036" y="178.017747" style="fill-opacity: 0; stroke: #1f77b4"/>
     <use xlink:href="#me227fd3eb3" x="231.31428" y="174.324107" style="fill-opacity: 0; stroke: #1f77b4"/>
     <use xlink:href="#me227fd3eb3" x="232.682525" y="176.849395" style="fill-opacity: 0; stroke: #1f77b4"/>
     <use xlink:href="#me227fd3eb3" x="234.050769" y="174.471708" style="fill-opacity: 0; stroke: #1f77b4"/>
     <use xlink:href="#me227fd3eb3" x="235.419014" y="167.024087" style="fill-opacity: 0; stroke: #1f77b4"/>
     <use xlink:href="#me227fd3eb3" x="236.788775" y="174.625364" style="fill-opacity: 0; stroke: #1f77b4"/>
     <use xlink:href="#me227fd3eb3" x="238.15702" y="201.300391" style="fill-opacity: 0; stroke: #1f77b4"/>
     <use xlink:href="#me227fd3eb3" x="239.526781" y="211.835269" style="fill-opacity: 0; stroke: #1f77b4"/>
     <use xlink:href="#me227fd3eb3" x="240.89452" y="216.404326" style="fill-opacity: 0; stroke: #1f77b4"/>
     <use xlink:href="#me227fd3eb3" x="242.264281" y="216.404326" style="fill-opacity: 0; stroke: #1f77b4"/>
     <use xlink:href="#me227fd3eb3" x="243.632526" y="216.404326" style="fill-opacity: 0; stroke: #1f77b4"/>
     <use xlink:href="#me227fd3eb3" x="245.002287" y="216.404326" style="fill-opacity: 0; stroke: #1f77b4"/>
     <use xlink:href="#me227fd3eb3" x="246.372048" y="216.404326" style="fill-opacity: 0; stroke: #1f77b4"/>
     <use xlink:href="#me227fd3eb3" x="247.741809" y="212.372889" style="fill-opacity: 0; stroke: #1f77b4"/>
     <use xlink:href="#me227fd3eb3" x="249.110053" y="215.811442" style="fill-opacity: 0; stroke: #1f77b4"/>
     <use xlink:href="#me227fd3eb3" x="250.479814" y="212.801583" style="fill-opacity: 0; stroke: #1f77b4"/>
     <use xlink:href="#me227fd3eb3" x="251.849575" y="216.404326" style="fill-opacity: 0; stroke: #1f77b4"/>
     <use xlink:href="#me227fd3eb3" x="253.219336" y="216.404326" style="fill-opacity: 0; stroke: #1f77b4"/>
     <use xlink:href="#me227fd3eb3" x="254.589097" y="216.404326" style="fill-opacity: 0; stroke: #1f77b4"/>
     <use xlink:href="#me227fd3eb3" x="255.960374" y="216.404326" style="fill-opacity: 0; stroke: #1f77b4"/>
     <use xlink:href="#me227fd3eb3" x="257.330135" y="216.404326" style="fill-opacity: 0; stroke: #1f77b4"/>
     <use xlink:href="#me227fd3eb3" x="258.699896" y="216.404326" style="fill-opacity: 0; stroke: #1f77b4"/>
     <use xlink:href="#me227fd3eb3" x="260.069657" y="216.404326" style="fill-opacity: 0; stroke: #1f77b4"/>
     <use xlink:href="#me227fd3eb3" x="261.440935" y="216.404326" style="fill-opacity: 0; stroke: #1f77b4"/>
     <use xlink:href="#me227fd3eb3" x="262.810696" y="216.404326" style="fill-opacity: 0; stroke: #1f77b4"/>
     <use xlink:href="#me227fd3eb3" x="264.181973" y="216.404326" style="fill-opacity: 0; stroke: #1f77b4"/>
     <use xlink:href="#me227fd3eb3" x="265.551734" y="216.404326" style="fill-opacity: 0; stroke: #1f77b4"/>
     <use xlink:href="#me227fd3eb3" x="266.923011" y="216.404326" style="fill-opacity: 0; stroke: #1f77b4"/>
     <use xlink:href="#me227fd3eb3" x="268.292772" y="216.404326" style="fill-opacity: 0; stroke: #1f77b4"/>
     <use xlink:href="#me227fd3eb3" x="269.66405" y="216.404326" style="fill-opacity: 0; stroke: #1f77b4"/>
     <use xlink:href="#me227fd3eb3" x="271.035327" y="216.404326" style="fill-opacity: 0; stroke: #1f77b4"/>
     <use xlink:href="#me227fd3eb3" x="272.406604" y="216.404326" style="fill-opacity: 0; stroke: #1f77b4"/>
     <use xlink:href="#me227fd3eb3" x="273.777882" y="216.404326" style="fill-opacity: 0; stroke: #1f77b4"/>
     <use xlink:href="#me227fd3eb3" x="275.149159" y="216.404326" style="fill-opacity: 0; stroke: #1f77b4"/>
     <use xlink:href="#me227fd3eb3" x="276.520436" y="216.404326" style="fill-opacity: 0; stroke: #1f77b4"/>
     <use xlink:href="#me227fd3eb3" x="277.891714" y="216.404326" style="fill-opacity: 0; stroke: #1f77b4"/>
     <use xlink:href="#me227fd3eb3" x="279.262991" y="216.404326" style="fill-opacity: 0; stroke: #1f77b4"/>
     <use xlink:href="#me227fd3eb3" x="280.634268" y="216.404326" style="fill-opacity: 0; stroke: #1f77b4"/>
     <use xlink:href="#me227fd3eb3" x="282.005546" y="216.404326" style="fill-opacity: 0; stroke: #1f77b4"/>
     <use xlink:href="#me227fd3eb3" x="283.378339" y="216.404326" style="fill-opacity: 0; stroke: #1f77b4"/>
     <use xlink:href="#me227fd3eb3" x="284.749617" y="216.404326" style="fill-opacity: 0; stroke: #1f77b4"/>
     <use xlink:href="#me227fd3eb3" x="286.120894" y="216.404326" style="fill-opacity: 0; stroke: #1f77b4"/>
     <use xlink:href="#me227fd3eb3" x="287.493688" y="216.404326" style="fill-opacity: 0; stroke: #1f77b4"/>
     <use xlink:href="#me227fd3eb3" x="288.864965" y="216.404326" style="fill-opacity: 0; stroke: #1f77b4"/>
     <use xlink:href="#me227fd3eb3" x="290.237759" y="74.740323" style="fill-opacity: 0; stroke: #1f77b4"/>
     <use xlink:href="#me227fd3eb3" x="290.583035" y="-1" style="fill-opacity: 0; stroke: #1f77b4"/>
     <use xlink:href="#me227fd3eb3" x="300.226016" y="-1" style="fill-opacity: 0; stroke: #1f77b4"/>
     <use xlink:href="#me227fd3eb3" x="301.219097" y="216.404326" style="fill-opacity: 0; stroke: #1f77b4"/>
     <use xlink:href="#me227fd3eb3" x="302.591891" y="216.404326" style="fill-opacity: 0; stroke: #1f77b4"/>
     <use xlink:href="#me227fd3eb3" x="303.964684" y="216.404326" style="fill-opacity: 0; stroke: #1f77b4"/>
     <use xlink:href="#me227fd3eb3" x="305.337478" y="216.404326" style="fill-opacity: 0; stroke: #1f77b4"/>
     <use xlink:href="#me227fd3eb3" x="306.710272" y="202.445985" style="fill-opacity: 0; stroke: #1f77b4"/>
     <use xlink:href="#me227fd3eb3" x="308.084582" y="209.286698" style="fill-opacity: 0; stroke: #1f77b4"/>
     <use xlink:href="#me227fd3eb3" x="309.457376" y="216.404326" style="fill-opacity: 0; stroke: #1f77b4"/>
     <use xlink:href="#me227fd3eb3" x="310.831686" y="216.404326" style="fill-opacity: 0; stroke: #1f77b4"/>
     <use xlink:href="#me227fd3eb3" x="312.204479" y="216.404326" style="fill-opacity: 0; stroke: #1f77b4"/>
     <use xlink:href="#me227fd3eb3" x="313.578789" y="216.404326" style="fill-opacity: 0; stroke: #1f77b4"/>
     <use xlink:href="#me227fd3eb3" x="314.951583" y="216.404326" style="fill-opacity: 0; stroke: #1f77b4"/>
     <use xlink:href="#me227fd3eb3" x="316.326398" y="216.404326" style="fill-opacity: 0; stroke: #1f77b4"/>
     <use xlink:href="#me227fd3eb3" x="317.700708" y="201.243084" style="fill-opacity: 0; stroke: #1f77b4"/>
     <use xlink:href="#me227fd3eb3" x="319.073502" y="216.404326" style="fill-opacity: 0; stroke: #1f77b4"/>
     <use xlink:href="#me227fd3eb3" x="320.447812" y="216.404326" style="fill-opacity: 0; stroke: #1f77b4"/>
    </g>
   </g>
   <g id="line2d_2">
    <path d="M 43.312815 215.52234 
L 52.80814 215.114869 
L 58.236134 214.696419 
L 62.308519 214.186501 
L 65.023274 213.668343 
L 67.739546 212.885191 
L 69.097176 212.327645 
L 70.454301 211.592701 
L 71.813447 210.586326 
L 73.171078 209.146918 
L 74.529719 206.955186 
L 75.887349 203.33736 
L 77.24599 196.646332 
L 78.605137 182.46451 
L 79.962262 152.358863 
L 81.321408 133.694694 
L 82.680555 152.662614 
L 84.039196 149.24484 
L 85.398343 121.714493 
L 86.756984 118.187384 
L 88.11613 154.413451 
L 89.475277 180.235558 
L 90.835435 193.064193 
L 92.194581 199.525949 
L 93.553728 202.923094 
L 94.913885 204.651584 
L 96.273032 205.28733 
L 97.633189 204.996243 
L 98.992336 203.613742 
L 100.352999 200.493909 
L 101.71164 194.234834 
L 103.072303 184.510819 
L 104.432966 181.289147 
L 105.793123 186.31684 
L 107.153786 187.08598 
L 108.514449 180.958729 
L 109.874607 166.572498 
L 111.23527 144.424749 
L 112.595427 132.339272 
L 113.95609 148.287827 
L 115.316753 170.041806 
L 116.678427 183.806656 
L 118.03909 190.765487 
L 119.399753 193.032716 
L 120.761427 190.025884 
L 122.12209 172.70626 
L 123.484269 162.321062 
L 124.846448 174.206371 
L 126.206606 159.516639 
L 127.568785 118.434814 
L 128.930964 83.765283 
L 130.292638 126.175964 
L 131.654817 164.882917 
L 133.016997 182.044914 
L 134.378671 188.931807 
L 135.74085 190.721884 
L 137.103029 189.002245 
L 138.464703 183.621233 
L 139.828399 172.978425 
L 141.190578 153.99944 
L 142.552757 124.968246 
L 143.915947 100.748052 
L 145.278127 110.090269 
L 146.641822 136.234138 
L 148.005518 150.435868 
L 149.367192 142.316229 
L 150.730887 127.486349 
L 152.094583 157.908941 
L 153.458279 180.062173 
L 154.821469 188.272575 
L 156.183648 189.545178 
L 157.547344 185.358115 
L 158.912556 175.957135 
L 160.275746 170.274419 
L 161.639441 178.713671 
L 163.003137 188.855861 
L 164.366833 194.207672 
L 165.731539 195.768011 
L 167.095235 194.372333 
L 168.460447 189.626068 
L 169.824142 179.736232 
L 171.189354 162.053828 
L 172.554061 141.959211 
L 173.917757 142.667176 
L 175.282969 157.83616 
L 176.648181 163.929803 
L 178.013392 156.435166 
L 179.378099 145.731732 
L 180.743311 156.382798 
L 182.108523 176.52292 
L 183.473735 189.632599 
L 184.838947 196.519538 
L 186.203653 199.679535 
L 187.568865 200.04899 
L 188.935594 197.130392 
L 190.300806 190.867293 
L 191.667534 190.144231 
L 193.03224 195.542827 
L 194.398969 195.878418 
L 195.764181 189.837953 
L 197.130909 191.667605 
L 198.497637 201.163368 
L 199.864366 206.315777 
L 201.229578 208.70366 
L 202.5958 209.909082 
L 203.962529 210.548842 
L 205.329257 210.871969 
L 206.695985 210.987581 
L 208.06423 210.944268 
L 209.430958 210.760428 
L 210.797687 210.43567 
L 212.16391 209.955095 
L 213.532154 209.287703 
L 214.898882 208.387756 
L 216.267127 207.182754 
L 217.633855 205.573834 
L 219.0021 203.414881 
L 220.368828 200.521896 
L 221.737073 196.670469 
L 223.105318 191.709509 
L 225.841302 179.981365 
L 227.209546 176.139079 
L 228.577791 175.917375 
L 231.31428 181.512628 
L 232.682525 180.860849 
L 234.050769 172.442844 
L 235.419014 165.429827 
L 236.788775 181.075142 
L 238.15702 194.894648 
L 239.526781 201.921717 
L 240.89452 205.724931 
L 242.264281 208.051109 
L 243.632526 209.606546 
L 245.002287 210.718861 
L 246.372048 211.550957 
L 247.741809 212.195111 
L 250.479814 213.121958 
L 253.219336 213.751718 
L 257.330135 214.382672 
L 262.810696 214.905077 
L 269.66405 215.298988 
L 279.262991 215.619497 
L 294.354623 215.886554 
L 320.447812 216.098194 
L 320.447812 216.098194 
" clip-path="url(#p8fb52dbaa0)" style="fill: none; stroke: #ff0000; stroke-width: 1.5; stroke-linecap: square"/>
   </g>
   <g id="line2d_3">
    <path d="M 295.727417 216.404326 
L 295.727417 17.735865 
" clip-path="url(#p8fb52dbaa0)" style="fill: none; stroke-dasharray: 3.7,1.6; stroke-dashoffset: 0; stroke: #808080"/>
   </g>
   <g id="patch_3">
    <path d="M 43.003987 216.404326 
L 43.003987 17.735865 
" style="fill: none; stroke: #000000; stroke-linejoin: miter; stroke-linecap: square"/>
   </g>
   <g id="patch_4">
    <path d="M 320.99976 216.404326 
L 320.99976 17.735865 
" style="fill: none; stroke: #000000; stroke-linejoin: miter; stroke-linecap: square"/>
   </g>
   <g id="patch_5">
    <path d="M 43.003987 216.404326 
L 320.99976 216.404326 
" style="fill: none; stroke: #000000; stroke-linejoin: miter; stroke-linecap: square"/>
   </g>
   <g id="patch_6">
    <path d="M 43.003987 17.735865 
L 320.99976 17.735865 
" style="fill: none; stroke: #000000; stroke-linejoin: miter; stroke-linecap: square"/>
   </g>
   <g id="matplotlib.axis_1">
    <g id="xtick_1">
     <g id="line2d_4">
      <defs>
       <path id="m1c2b46b99e" d="M 0 0 
L 0 3.75 
" style="stroke: #000000; stroke-width: 1.25"/>
      </defs>
      <g>
       <use xlink:href="#m1c2b46b99e" x="43.003987" y="216.404326" style="stroke: #000000; stroke-width: 1.25"/>
      </g>
     </g>
     <g id="text_1">
      <!-- $\mathdefault{429}$ -->
      <g transform="translate(33.818987 231.52792)">
       <text>
        <tspan style="font: 11px 'Arial'" x="0 6.117676 12.235352" y="-0.09375">429</tspan>
       </text>
      </g>
     </g>
    </g>
    <g id="xtick_2">
     <g id="line2d_5">
      <g>
       <use xlink:href="#m1c2b46b99e" x="93.548673" y="216.404326" style="stroke: #000000; stroke-width: 1.25"/>
      </g>
     </g>
     <g id="text_2">
      <!-- $\mathdefault{430}$ -->
      <g transform="translate(84.363673 231.52792)">
       <text>
        <tspan style="font: 11px 'Arial'" x="0 6.117676 12.235352" y="-0.09375">430</tspan>
       </text>
      </g>
     </g>
    </g>
    <g id="xtick_3">
     <g id="line2d_6">
      <g>
       <use xlink:href="#m1c2b46b99e" x="144.093359" y="216.404326" style="stroke: #000000; stroke-width: 1.25"/>
      </g>
     </g>
     <g id="text_3">
      <!-- $\mathdefault{431}$ -->
      <g transform="translate(134.908359 231.52792)">
       <text>
        <tspan style="font: 11px 'Arial'" x="0 6.117676 12.235352" y="-0.09375">431</tspan>
       </text>
      </g>
     </g>
    </g>
    <g id="xtick_4">
     <g id="line2d_7">
      <g>
       <use xlink:href="#m1c2b46b99e" x="194.638045" y="216.404326" style="stroke: #000000; stroke-width: 1.25"/>
      </g>
     </g>
     <g id="text_4">
      <!-- $\mathdefault{432}$ -->
      <g transform="translate(185.453045 231.52792)">
       <text>
        <tspan style="font: 11px 'Arial'" x="0 6.117676 12.235352" y="-0.09375">432</tspan>
       </text>
      </g>
     </g>
    </g>
    <g id="xtick_5">
     <g id="line2d_8">
      <g>
       <use xlink:href="#m1c2b46b99e" x="245.182731" y="216.404326" style="stroke: #000000; stroke-width: 1.25"/>
      </g>
     </g>
     <g id="text_5">
      <!-- $\mathdefault{433}$ -->
      <g transform="translate(235.997731 231.52792)">
       <text>
        <tspan style="font: 11px 'Arial'" x="0 6.117676 12.235352" y="-0.09375">433</tspan>
       </text>
      </g>
     </g>
    </g>
    <g id="xtick_6">
     <g id="line2d_9">
      <g>
       <use xlink:href="#m1c2b46b99e" x="295.727417" y="216.404326" style="stroke: #000000; stroke-width: 1.25"/>
      </g>
     </g>
     <g id="text_6">
      <!-- $\mathdefault{434}$ -->
      <g transform="translate(286.542417 231.52792)">
       <text>
        <tspan style="font: 11px 'Arial'" x="0 6.117676 12.235352" y="-0.09375">434</tspan>
       </text>
      </g>
     </g>
    </g>
    <g id="text_7">
     <!-- $\lambda$ {\sffamily (nm)} -->
     <g transform="translate(164.206736 246.411565) scale(0.12 -0.12)">
      <defs>
       <path id="StandardSymL-6c" d="M 480 3650 
C 525 4013 710 4224 998 4224 
C 1203 4224 1376 4064 1472 3778 
C 1517 3650 1574 3440 1632 3198 
L 154 19 
L 755 19 
L 1843 2301 
C 2048 1059 2150 607 2266 358 
C 2406 83 2611 -64 2848 -64 
C 3098 -64 3296 89 3405 371 
C 3475 543 3501 715 3507 1014 
L 3373 1014 
C 3322 683 3174 499 2944 499 
C 2752 499 2586 620 2483 843 
C 2400 1008 2355 1174 2266 1645 
L 2093 2466 
C 2086 2485 2080 2530 2067 2594 
C 1920 3415 1690 4192 1536 4422 
C 1395 4627 1203 4736 992 4736 
C 602 4736 397 4403 326 3650 
L 480 3650 
z
" transform="scale(0.015625)"/>
       <path id="NimbusSanL-Regu-28" d="M 1510 4672 
C 870 3833 467 2668 467 1663 
C 467 652 870 -513 1510 -1351 
L 1862 -1351 
C 1299 -436 986 639 986 1663 
C 986 2681 1299 3763 1862 4672 
L 1510 4672 
z
" transform="scale(0.015625)"/>
       <path id="NimbusSanL-Regu-6e" d="M 448 3328 
L 448 0 
L 986 0 
L 986 1835 
C 986 2539 1344 2988 1894 2988 
C 2317 2988 2586 2732 2586 2328 
L 2586 0 
L 3117 0 
L 3117 2539 
C 3117 3097 2701 3456 2054 3456 
C 1555 3456 1235 3263 941 2796 
L 941 3328 
L 448 3328 
z
" transform="scale(0.015625)"/>
       <path id="NimbusSanL-Regu-6d" d="M 448 3328 
L 448 0 
L 986 0 
L 986 2089 
C 986 2597 1338 2988 1773 2988 
C 2170 2988 2394 2744 2394 2315 
L 2394 0 
L 2931 0 
L 2931 2109 
C 2931 2597 3283 2988 3718 2988 
C 4109 2988 4339 2738 4339 2315 
L 4339 0 
L 4877 0 
L 4877 2520 
C 4877 3123 4531 3456 3904 3456 
C 3456 3456 3187 3321 2874 2943 
C 2675 3302 2406 3456 1971 3456 
C 1523 3456 1229 3289 941 2886 
L 941 3328 
L 448 3328 
z
" transform="scale(0.015625)"/>
       <path id="NimbusSanL-Regu-29" d="M 595 -1351 
C 1235 -513 1638 652 1638 1657 
C 1638 2668 1235 3833 595 4672 
L 243 4672 
C 806 3756 1120 2681 1120 1657 
C 1120 639 806 -442 243 -1351 
L 595 -1351 
z
" transform="scale(0.015625)"/>
      </defs>
      <use xlink:href="#StandardSymL-6c" transform="scale(0.996264)"/>
      <use xlink:href="#NimbusSanL-Regu-28" transform="translate(91.855235 0) scale(0.996264)"/>
      <use xlink:href="#NimbusSanL-Regu-6e" transform="translate(125.030464 0) scale(0.996264)"/>
      <use xlink:href="#NimbusSanL-Regu-6d" transform="translate(180.422141 0) scale(0.996264)"/>
      <use xlink:href="#NimbusSanL-Regu-29" transform="translate(263.410572 0) scale(0.996264)"/>
     </g>
    </g>
   </g>
   <g id="matplotlib.axis_2">
    <g id="ytick_1">
     <g id="line2d_10">
      <defs>
       <path id="m2730d9e97e" d="M 0 0 
L -3.75 0 
" style="stroke: #000000; stroke-width: 1.25"/>
      </defs>
      <g>
       <use xlink:href="#m2730d9e97e" x="43.003987" y="216.404326" style="stroke: #000000; stroke-width: 1.25"/>
      </g>
     </g>
     <g id="text_8">
      <!-- $\mathdefault{0.0}$ -->
      <g transform="translate(20.353987 220.341123)">
       <text>
        <tspan style="font: 11px 'Arial'" x="0 6.117676 9.173828" y="-0.09375">0.0</tspan>
       </text>
      </g>
     </g>
    </g>
    <g id="ytick_2">
     <g id="line2d_11">
      <g>
       <use xlink:href="#m2730d9e97e" x="43.003987" y="184.538118" style="stroke: #000000; stroke-width: 1.25"/>
      </g>
     </g>
     <g id="text_9">
      <!-- $\mathdefault{0.5}$ -->
      <g transform="translate(20.353987 188.474915)">
       <text>
        <tspan style="font: 11px 'Arial'" x="0 6.117676 9.173828" y="-0.09375">0.5</tspan>
       </text>
      </g>
     </g>
    </g>
    <g id="ytick_3">
     <g id="line2d_12">
      <g>
       <use xlink:href="#m2730d9e97e" x="43.003987" y="152.671911" style="stroke: #000000; stroke-width: 1.25"/>
      </g>
     </g>
     <g id="text_10">
      <!-- $\mathdefault{1.0}$ -->
      <g transform="translate(20.353987 156.608708)">
       <text>
        <tspan style="font: 11px 'Arial'" x="0 6.117676 9.173828" y="-0.09375">1.0</tspan>
       </text>
      </g>
     </g>
    </g>
    <g id="ytick_4">
     <g id="line2d_13">
      <g>
       <use xlink:href="#m2730d9e97e" x="43.003987" y="120.805703" style="stroke: #000000; stroke-width: 1.25"/>
      </g>
     </g>
     <g id="text_11">
      <!-- $\mathdefault{1.5}$ -->
      <g transform="translate(20.353987 124.7425)">
       <text>
        <tspan style="font: 11px 'Arial'" x="0 6.117676 9.173828" y="-0.09375">1.5</tspan>
       </text>
      </g>
     </g>
    </g>
    <g id="ytick_5">
     <g id="line2d_14">
      <g>
       <use xlink:href="#m2730d9e97e" x="43.003987" y="88.939496" style="stroke: #000000; stroke-width: 1.25"/>
      </g>
     </g>
     <g id="text_12">
      <!-- $\mathdefault{2.0}$ -->
      <g transform="translate(20.353987 92.876292)">
       <text>
        <tspan style="font: 11px 'Arial'" x="0 6.117676 9.173828" y="-0.09375">2.0</tspan>
       </text>
      </g>
     </g>
    </g>
    <g id="ytick_6">
     <g id="line2d_15">
      <g>
       <use xlink:href="#m2730d9e97e" x="43.003987" y="57.073288" style="stroke: #000000; stroke-width: 1.25"/>
      </g>
     </g>
     <g id="text_13">
      <!-- $\mathdefault{2.5}$ -->
      <g transform="translate(20.353987 61.010085)">
       <text>
        <tspan style="font: 11px 'Arial'" x="0 6.117676 9.173828" y="-0.09375">2.5</tspan>
       </text>
      </g>
     </g>
    </g>
    <g id="ytick_7">
     <g id="line2d_16">
      <g>
       <use xlink:href="#m2730d9e97e" x="43.003987" y="25.20708" style="stroke: #000000; stroke-width: 1.25"/>
      </g>
     </g>
     <g id="text_14">
      <!-- $\mathdefault{3.0}$ -->
      <g transform="translate(20.353987 29.143877)">
       <text>
        <tspan style="font: 11px 'Arial'" x="0 6.117676 9.173828" y="-0.09375">3.0</tspan>
       </text>
      </g>
     </g>
    </g>
    <g id="text_15">
     <!-- $B_{\lambda}$ {\sffamily (photons/cm\textsuperscript{2}/s/nm)} -->
     <g transform="translate(13.728305 177.714049) rotate(-90) scale(0.12 -0.12)">
      <defs>
       <path id="NimbusRomNo9L-ReguItal-42" d="M -51 0 
L 1754 0 
C 2758 0 3450 523 3450 1274 
C 3450 1510 3373 1732 3232 1872 
C 3104 2019 2976 2095 2643 2235 
C 3098 2344 3283 2420 3488 2598 
C 3667 2751 3763 2968 3763 3222 
C 3763 3827 3309 4160 2483 4160 
L 832 4160 
L 832 4057 
C 1229 4025 1325 3974 1325 3795 
C 1325 3700 1299 3541 1254 3388 
L 467 574 
C 352 204 307 166 -51 102 
L -51 0 
z
M 1523 2108 
C 1939 2108 2208 2083 2336 2032 
C 2598 1923 2758 1643 2758 1299 
C 2758 612 2285 192 1504 192 
C 1235 192 1094 287 1094 459 
C 1094 535 1171 841 1318 1350 
C 1402 1637 1440 1783 1523 2108 
z
M 2003 3789 
C 2042 3929 2118 3967 2368 3967 
C 2880 3967 3117 3751 3117 3280 
C 3117 2917 2963 2637 2688 2484 
C 2470 2356 2163 2312 1587 2312 
L 2003 3789 
z
" transform="scale(0.015625)"/>
       <path id="NimbusSanL-Regu-70" d="M 346 -1408 
L 883 -1408 
L 883 371 
C 1165 25 1478 -128 1914 -128 
C 2778 -128 3347 568 3347 1632 
C 3347 2752 2797 3456 1907 3456 
C 1453 3456 1088 3251 838 2854 
L 838 3359 
L 346 3359 
L 346 -1408 
z
M 1818 2956 
C 2406 2956 2790 2440 2790 1644 
C 2790 887 2400 371 1818 371 
C 1254 371 883 880 883 1663 
C 883 2447 1254 2956 1818 2956 
z
" transform="scale(0.015625)"/>
       <path id="NimbusSanL-Regu-68" d="M 448 4672 
L 448 0 
L 979 0 
L 979 1853 
C 979 2539 1338 2988 1888 2988 
C 2061 2988 2234 2930 2362 2834 
C 2515 2725 2579 2565 2579 2328 
L 2579 0 
L 3110 0 
L 3110 2539 
C 3110 3103 2707 3456 2054 3456 
C 1581 3456 1293 3308 979 2898 
L 979 4672 
L 448 4672 
z
" transform="scale(0.015625)"/>
       <path id="NimbusSanL-Regu-6f" d="M 1741 3456 
C 800 3456 230 2784 230 1663 
C 230 543 794 -128 1747 -128 
C 2688 -128 3264 543 3264 1638 
C 3264 2791 2707 3456 1741 3456 
z
M 1747 2963 
C 2349 2963 2707 2472 2707 1644 
C 2707 861 2336 364 1747 364 
C 1152 364 787 855 787 1663 
C 787 2466 1152 2963 1747 2963 
z
" transform="scale(0.015625)"/>
       <path id="NimbusSanL-Regu-74" d="M 1626 3328 
L 1075 3328 
L 1075 4249 
L 544 4249 
L 544 3328 
L 90 3328 
L 90 2892 
L 544 2892 
L 544 402 
C 544 64 774 -128 1190 -128 
C 1318 -128 1446 -116 1626 -84 
L 1626 364 
C 1555 345 1472 339 1370 339 
C 1139 339 1075 402 1075 634 
L 1075 2892 
L 1626 2892 
L 1626 3328 
z
" transform="scale(0.015625)"/>
       <path id="NimbusSanL-Regu-73" d="M 2803 2428 
C 2797 3084 2362 3456 1587 3456 
C 806 3456 301 3052 301 2434 
C 301 1912 570 1663 1363 1472 
L 1862 1351 
C 2234 1262 2381 1129 2381 887 
C 2381 574 2067 364 1600 364 
C 1312 364 1069 447 934 587 
C 851 683 813 778 781 1014 
L 218 1014 
C 243 243 678 -128 1555 -128 
C 2400 -128 2938 288 2938 931 
C 2938 1428 2656 1702 1990 1861 
L 1478 1982 
C 1043 2084 858 2224 858 2459 
C 858 2765 1133 2963 1568 2963 
C 1997 2963 2227 2778 2240 2428 
L 2803 2428 
z
" transform="scale(0.015625)"/>
       <path id="NimbusSanL-Regu-2f" d="M 1466 4672 
L -51 -128 
L 301 -128 
L 1818 4672 
L 1466 4672 
z
" transform="scale(0.015625)"/>
       <path id="NimbusSanL-Regu-63" d="M 3014 2237 
C 2989 2561 2918 2771 2790 2956 
C 2560 3270 2157 3456 1690 3456 
C 787 3456 198 2740 198 1632 
C 198 555 774 -128 1683 -128 
C 2483 -128 2989 352 3053 1167 
L 2515 1167 
C 2426 632 2150 364 1696 364 
C 1107 364 755 842 755 1632 
C 755 2466 1101 2963 1683 2963 
C 2131 2963 2413 2701 2477 2237 
L 3014 2237 
z
" transform="scale(0.015625)"/>
       <path id="NimbusSanL-Regu-32" d="M 3238 556 
L 851 556 
C 909 928 1114 1165 1670 1493 
L 2310 1839 
C 2944 2185 3270 2653 3270 3211 
C 3270 3589 3117 3942 2848 4185 
C 2579 4428 2246 4544 1818 4544 
C 1242 4544 813 4339 563 3955 
C 403 3711 333 3429 320 2967 
L 883 2967 
C 902 3275 941 3461 1018 3608 
C 1165 3884 1459 4051 1798 4051 
C 2310 4051 2694 3685 2694 3198 
C 2694 2839 2483 2531 2080 2300 
L 1491 1967 
C 544 1428 269 999 218 0 
L 3238 0 
L 3238 556 
z
" transform="scale(0.015625)"/>
      </defs>
      <use xlink:href="#NimbusRomNo9L-ReguItal-42" transform="scale(0.996264)"/>
      <use xlink:href="#StandardSymL-6c" transform="translate(60.871631 -20.616338) scale(0.737241)"/>
      <use xlink:href="#NimbusSanL-Regu-28" transform="translate(135.818713 0) scale(0.996264)"/>
      <use xlink:href="#NimbusSanL-Regu-70" transform="translate(168.993943 0) scale(0.996264)"/>
      <use xlink:href="#NimbusSanL-Regu-68" transform="translate(224.38562 0) scale(0.996264)"/>
      <use xlink:href="#NimbusSanL-Regu-6f" transform="translate(279.777297 0) scale(0.996264)"/>
      <use xlink:href="#NimbusSanL-Regu-74" transform="translate(335.168974 0) scale(0.996264)"/>
      <use xlink:href="#NimbusSanL-Regu-6f" transform="translate(362.864143 0) scale(0.996264)"/>
      <use xlink:href="#NimbusSanL-Regu-6e" transform="translate(418.25582 0) scale(0.996264)"/>
      <use xlink:href="#NimbusSanL-Regu-73" transform="translate(473.647497 0) scale(0.996264)"/>
      <use xlink:href="#NimbusSanL-Regu-2f" transform="translate(523.460698 0) scale(0.996264)"/>
      <use xlink:href="#NimbusSanL-Regu-63" transform="translate(551.155868 0) scale(0.996264)"/>
      <use xlink:href="#NimbusSanL-Regu-6d" transform="translate(600.969068 0) scale(0.996264)"/>
      <use xlink:href="#NimbusSanL-Regu-32" transform="translate(683.957498 36.163231) scale(0.737241)"/>
      <use xlink:href="#NimbusSanL-Regu-2f" transform="translate(725.445777 0) scale(0.996264)"/>
      <use xlink:href="#NimbusSanL-Regu-73" transform="translate(753.140947 0) scale(0.996264)"/>
      <use xlink:href="#NimbusSanL-Regu-2f" transform="translate(802.954147 0) scale(0.996264)"/>
      <use xlink:href="#NimbusSanL-Regu-6e" transform="translate(830.649317 0) scale(0.996264)"/>
      <use xlink:href="#NimbusSanL-Regu-6d" transform="translate(886.040994 0) scale(0.996264)"/>
      <use xlink:href="#NimbusSanL-Regu-29" transform="translate(969.029424 0) scale(0.996264)"/>
     </g>
    </g>
    <g id="text_16">
     <!-- $\times\mathdefault{10^{12}}\mathdefault{}$ -->
     <g transform="translate(43.003987 14.735865)">
      <text>
       <tspan style="font: 11px 'STIXGeneral'" x="0" y="-0.799312500000001"></tspan>
       <tspan style="font: 11px 'Arial'" x="7.039993 13.157669" y="-0.799312500000001">10</tspan>
       <tspan style="font: 7.7px 'Arial'" x="19.467003 23.749376" y="-8.465625">12</tspan>
      </text>
     </g>
    </g>
   </g>
   <g id="patch_7">
    <path d="M 217.800817 47.652918 
L 217.800817 67.40298 
L 294.609383 67.40298 
" style="fill: none; stroke: #000000; stroke-linecap: round"/>
    <path d="M 290.609383 65.40298 
L 294.609383 67.40298 
L 290.609383 69.40298 
" style="fill: none; stroke: #000000; stroke-linecap: round"/>
   </g>
   <g id="text_17">
    <g id="patch_8">
     <path d="M 184.100817 50.702711 
L 251.500817 50.702711 
Q 254.500817 50.702711 254.500817 47.702711 
L 254.500817 37.602711 
Q 254.500817 34.602711 251.500817 34.602711 
L 184.100817 34.602711 
Q 181.100817 34.602711 181.100817 37.602711 
L 181.100817 47.702711 
Q 181.100817 50.702711 184.100817 50.702711 
z
" style="fill: #f5deb3; stroke: #000000; stroke-linejoin: miter"/>
    </g>
    <!-- D$_{\gamma}$ (434.00) nm -->
    <g transform="translate(184.100817 44.902711)">
     <text>
      <tspan style="font: 10px 'Arial'" x="0 10.686517 13.464837 16.794915 22.356439 27.917962 33.479486 36.257806 41.81933 47.380853 50.710931 53.489251 59.050775" y="-0.71875">D(434.00)nm</tspan>
      <tspan style="font: italic 7px 'STIXGeneral'" x="7.375898" y="0.6031250000000004"></tspan>
     </text>
    </g>
   </g>
   <g id="text_18">
    <text style="font: 10px 'Arial'; text-anchor: middle" x="221.504769" y="104.106508" transform="rotate(-0 221.504769 104.106508)">Q-branch</text>
   </g>
   <g id="text_19">
    <text style="font: 10px 'Arial'; text-anchor: middle" x="130.812519" y="18.657901" transform="rotate(-0 130.812519 18.657901)">B-D + C-D</text>
   </g>
   <g id="text_20">
    <text style="font: 700 12px 'Arial'; text-anchor: middle" x="182.001874" y="11.735865" transform="rotate(-0 182.001874 11.735865)">HP boron rod (redeposit test) - 37 min</text>
   </g>
  </g>
 </g>
 <defs>
  <clipPath id="p8fb52dbaa0">
   <rect x="43.003987" y="17.735865" width="277.995773" height="198.668461"/>
  </clipPath>
 </defs>
</svg>
