<?xml version="1.0" encoding="utf-8" standalone="no"?>
<!DOCTYPE svg PUBLIC "-//W3C//DTD SVG 1.1//EN"
  "http://www.w3.org/Graphics/SVG/1.1/DTD/svg11.dtd">
<svg xmlns:xlink="http://www.w3.org/1999/xlink" width="324pt" height="252pt" viewBox="0 0 324 252" xmlns="http://www.w3.org/2000/svg" version="1.1">
 <metadata>
  <rdf:RDF xmlns:dc="http://purl.org/dc/elements/1.1/" xmlns:cc="http://creativecommons.org/ns#" xmlns:rdf="http://www.w3.org/1999/02/22-rdf-syntax-ns#">
   <cc:Work>
    <dc:type rdf:resource="http://purl.org/dc/dcmitype/StillImage"/>
    <dc:date>2024-12-06T11:05:10.169903</dc:date>
    <dc:format>image/svg+xml</dc:format>
    <dc:creator>
     <cc:Agent>
      <dc:title>Matplotlib v3.9.2, https://matplotlib.org/</dc:title>
     </cc:Agent>
    </dc:creator>
   </cc:Work>
  </rdf:RDF>
 </metadata>
 <defs>
  <style type="text/css">*{stroke-linejoin: round; stroke-linecap: butt}</style>
 </defs>
 <g id="figure_1">
  <g id="patch_1">
   <path d="M 0 252 
L 324 252 
L 324 0 
L 0 0 
z
" style="fill: #ffffff"/>
  </g>
  <g id="axes_1">
   <g id="patch_2">
    <path d="M 43.003987 216.404326 
L 320.99976 216.404326 
L 320.99976 17.735865 
L 43.003987 17.735865 
z
" style="fill: #ffffff"/>
   </g>
   <g id="PolyCollection_1">
    <path d="M 43.29563 216.276355 
L 43.29563 216.404326 
L 44.651744 216.404326 
L 46.008869 216.404326 
L 47.364983 216.404326 
L 48.722108 216.404326 
L 50.078222 216.404326 
L 51.435346 216.404326 
L 52.792977 216.404326 
L 54.148585 216.404326 
L 55.506215 216.404326 
L 56.86334 216.404326 
L 58.22097 216.404326 
L 59.578601 216.404326 
L 60.935726 216.404326 
L 62.293356 216.404326 
L 63.650481 216.404326 
L 65.008111 216.404326 
L 66.366752 216.404326 
L 67.724382 216.404326 
L 69.081507 216.404326 
L 70.440654 216.404326 
L 71.798284 216.404326 
L 73.156925 216.404326 
L 74.514555 216.404326 
L 75.873197 216.404326 
L 77.232343 216.404326 
L 78.589468 216.404326 
L 79.948615 216.404326 
L 81.307761 216.404326 
L 82.666402 216.404326 
L 84.025549 216.404326 
L 85.38419 216.404326 
L 86.743337 216.404326 
L 88.102483 216.404326 
L 89.462641 216.404326 
L 90.821787 216.404326 
L 92.180934 216.404326 
L 93.541092 216.404326 
L 94.900238 216.404326 
L 96.260396 216.404326 
L 97.619542 216.404326 
L 98.980205 216.404326 
L 100.338846 216.404326 
L 101.699509 216.404326 
L 103.060172 216.404326 
L 104.42033 216.404326 
L 105.780993 216.404326 
L 107.141656 216.404326 
L 108.501813 216.404326 
L 109.862476 216.404326 
L 111.222634 216.404326 
L 112.583297 216.404326 
L 113.943959 216.404326 
L 115.305633 216.404326 
L 116.666296 216.404326 
L 118.026959 216.404326 
L 119.388633 216.404326 
L 120.749296 216.404326 
L 122.111475 216.404326 
L 123.473655 216.404326 
L 124.833812 216.404326 
L 126.195991 216.404326 
L 127.558171 216.404326 
L 128.919844 216.404326 
L 130.282024 216.404326 
L 131.644203 216.404326 
L 133.005877 216.404326 
L 134.368056 216.404326 
L 135.730235 216.404326 
L 137.091909 216.404326 
L 138.455605 216.404326 
L 139.817784 216.404326 
L 141.179963 216.404326 
L 142.543154 216.404326 
L 143.905333 216.404326 
L 145.269029 216.404326 
L 146.632724 216.404326 
L 147.994398 216.404326 
L 149.358094 216.404326 
L 150.721789 216.404326 
L 152.085485 216.404326 
L 153.448675 216.404326 
L 154.810854 216.404326 
L 156.17455 216.404326 
L 157.539762 216.404326 
L 158.902952 216.404326 
L 160.266648 216.404326 
L 161.630343 216.404326 
L 162.994039 216.404326 
L 164.358746 216.404326 
L 165.722441 216.404326 
L 167.087653 216.404326 
L 168.451349 216.404326 
L 169.816561 216.404326 
L 171.181267 216.404326 
L 172.544963 216.404326 
L 173.910175 216.404326 
L 175.275387 216.404326 
L 176.640599 216.404326 
L 178.005305 216.404326 
L 179.370517 216.404326 
L 180.735729 216.404326 
L 182.100941 216.404326 
L 183.466153 216.404326 
L 184.83086 216.404326 
L 186.196072 216.404326 
L 187.5628 216.404326 
L 188.928012 216.404326 
L 190.29474 216.404326 
L 191.659447 216.404326 
L 193.026175 216.404326 
L 194.391387 216.404326 
L 195.758115 216.404326 
L 197.124844 216.404326 
L 198.491572 216.404326 
L 199.856784 216.404326 
L 201.223007 216.404326 
L 202.589735 216.404326 
L 203.956463 216.404326 
L 205.323192 216.404326 
L 206.691436 216.404326 
L 208.058165 216.404326 
L 209.424893 216.404326 
L 210.791116 216.404326 
L 212.159361 216.404326 
L 213.526089 216.404326 
L 214.894333 216.404326 
L 216.261062 216.404326 
L 217.629306 216.404326 
L 218.996035 216.404326 
L 220.364279 216.404326 
L 221.732524 216.404326 
L 223.100263 216.404326 
L 224.468508 216.404326 
L 225.836753 216.404326 
L 227.204997 216.404326 
L 228.573242 216.404326 
L 229.941486 216.404326 
L 231.309731 216.404326 
L 232.677976 216.404326 
L 234.04622 216.404326 
L 235.415981 216.404326 
L 236.784226 216.404326 
L 238.153987 216.404326 
L 239.521726 216.404326 
L 240.891487 216.404326 
L 242.259732 216.404326 
L 243.629493 216.404326 
L 244.999254 216.404326 
L 246.369015 216.404326 
L 247.73726 216.404326 
L 249.10702 216.404326 
L 250.476781 216.404326 
L 251.846542 216.404326 
L 253.216303 216.404326 
L 254.587581 216.404326 
L 255.957342 216.404326 
L 257.327103 216.404326 
L 258.696864 216.404326 
L 260.068141 216.404326 
L 261.437902 216.404326 
L 262.809179 216.404326 
L 264.17894 216.404326 
L 265.550218 216.404326 
L 266.919979 216.404326 
L 268.291256 216.404326 
L 269.662533 216.404326 
L 271.033811 216.404326 
L 272.405088 216.404326 
L 273.776365 216.404326 
L 275.147643 216.404326 
L 276.51892 216.404326 
L 277.890197 216.404326 
L 279.261475 216.404326 
L 280.632752 216.404326 
L 282.005546 216.404326 
L 283.376823 216.404326 
L 284.7481 216.404326 
L 286.120894 216.404326 
L 287.492171 216.404326 
L 288.864965 216.404326 
L 290.237759 216.404326 
L 291.609036 216.404326 
L 292.98183 216.404326 
L 294.354623 216.404326 
L 295.727417 216.404326 
L 297.100211 216.404326 
L 298.47351 216.404326 
L 299.846303 216.404326 
L 301.219097 216.404326 
L 302.591891 216.404326 
L 303.964684 216.404326 
L 305.337478 216.404326 
L 306.711788 216.404326 
L 308.084582 216.404326 
L 309.458892 216.404326 
L 310.831686 216.404326 
L 312.205996 216.404326 
L 313.578789 216.404326 
L 314.953605 216.404326 
L 316.327915 216.404326 
L 317.700708 216.404326 
L 319.075018 216.404326 
L 320.449328 216.404326 
L 320.449328 215.736952 
L 320.449328 215.736952 
L 319.075018 215.71412 
L 317.700708 215.690073 
L 316.327915 215.664748 
L 314.953605 215.637991 
L 313.578789 215.609708 
L 312.205996 215.579835 
L 310.831686 215.548162 
L 309.458892 215.514614 
L 308.084582 215.478953 
L 306.711788 215.441076 
L 305.337478 215.400696 
L 303.964684 215.357676 
L 302.591891 215.311716 
L 301.219097 215.26253 
L 299.846303 215.20979 
L 298.47351 215.153125 
L 297.100211 215.092087 
L 295.727417 215.026233 
L 294.354623 214.954977 
L 292.98183 214.877664 
L 291.609036 214.793527 
L 290.237759 214.701769 
L 288.864965 214.601116 
L 287.492171 214.490381 
L 286.120894 214.368153 
L 284.7481 214.232267 
L 283.376823 214.080682 
L 282.005546 213.910325 
L 280.632752 213.717245 
L 279.261475 213.497048 
L 277.890197 213.243192 
L 276.51892 212.947149 
L 275.147643 212.597181 
L 273.776365 212.17669 
L 272.405088 211.661512 
L 271.033811 211.015275 
L 269.662533 210.181221 
L 268.291256 209.067383 
L 266.919979 207.519376 
L 265.550218 205.275678 
L 264.17894 201.892895 
L 262.809179 196.806106 
L 261.437902 190.08751 
L 260.068141 184.913419 
L 258.696864 185.933167 
L 257.327103 190.647895 
L 255.957342 194.221517 
L 254.587581 195.333931 
L 253.216303 193.944676 
L 251.846542 189.568483 
L 250.476781 180.748882 
L 249.10702 166.697314 
L 247.73726 157.050425 
L 246.369015 164.581759 
L 244.999254 175.553588 
L 243.629493 181.164492 
L 242.259732 182.472306 
L 240.891487 181.120679 
L 239.521726 178.029152 
L 238.153987 173.792346 
L 236.784226 168.990356 
L 235.415981 164.429883 
L 234.04622 161.101589 
L 232.677976 159.946659 
L 231.309731 161.392553 
L 229.941486 165.131581 
L 228.573242 170.321649 
L 227.204997 176.034433 
L 225.836753 181.579309 
L 224.468508 186.579475 
L 223.100263 190.899931 
L 221.732524 194.545067 
L 220.364279 197.587508 
L 218.996035 200.115625 
L 217.629306 202.21533 
L 216.261062 203.96879 
L 214.894333 205.436902 
L 213.526089 206.675828 
L 212.159361 207.725339 
L 210.791116 208.621855 
L 209.424893 209.390356 
L 208.058165 210.054282 
L 206.691436 210.630871 
L 205.323192 211.134826 
L 203.956463 211.576558 
L 202.589735 211.966076 
L 201.223007 212.31111 
L 199.856784 212.617942 
L 198.491572 212.891815 
L 197.124844 213.137648 
L 195.758115 213.358841 
L 194.391387 213.558536 
L 193.026175 213.739206 
L 191.659447 213.90352 
L 190.29474 214.052999 
L 188.928012 214.189751 
L 187.5628 214.314853 
L 186.196072 214.429829 
L 184.83086 214.535507 
L 183.466153 214.632927 
L 182.100941 214.722989 
L 180.735729 214.80638 
L 179.370517 214.88374 
L 178.005305 214.955633 
L 176.640599 215.022537 
L 175.275387 215.084946 
L 173.910175 215.143231 
L 172.544963 215.197746 
L 171.181267 215.248754 
L 169.816561 215.296634 
L 168.451349 215.341621 
L 167.087653 215.38388 
L 165.722441 215.423714 
L 164.358746 215.461222 
L 162.994039 215.496647 
L 161.630343 215.530091 
L 160.266648 215.561722 
L 158.902952 215.591668 
L 157.539762 215.620036 
L 156.17455 215.646985 
L 154.810854 215.67254 
L 153.448675 215.696799 
L 152.085485 215.719888 
L 150.721789 215.741873 
L 149.358094 215.762816 
L 147.994398 215.782782 
L 146.632724 215.801802 
L 145.269029 215.819989 
L 143.905333 215.837365 
L 142.543154 215.853959 
L 141.179963 215.869847 
L 139.817784 215.885046 
L 138.455605 215.899605 
L 137.091909 215.913576 
L 135.730235 215.926955 
L 134.368056 215.939799 
L 133.005877 215.952131 
L 131.644203 215.963974 
L 130.282024 215.975363 
L 128.919844 215.986315 
L 127.558171 215.996848 
L 126.195991 216.006993 
L 124.833812 216.016763 
L 123.473655 216.026163 
L 122.111475 216.035239 
L 120.749296 216.043991 
L 119.388633 216.052427 
L 118.026959 216.060575 
L 116.666296 216.068438 
L 115.305633 216.076035 
L 113.943959 216.083381 
L 112.583297 216.090479 
L 111.222634 216.097343 
L 109.862476 216.103983 
L 108.501813 216.110411 
L 107.141656 216.116633 
L 105.780993 216.122662 
L 104.42033 216.128503 
L 103.060172 216.134162 
L 101.699509 216.13965 
L 100.338846 216.144973 
L 98.980205 216.15013 
L 97.619542 216.155141 
L 96.260396 216.16 
L 94.900238 216.164722 
L 93.541092 216.169305 
L 92.180934 216.173761 
L 90.821787 216.178088 
L 89.462641 216.182294 
L 88.102483 216.186387 
L 86.743337 216.190365 
L 85.38419 216.194235 
L 84.025549 216.198 
L 82.666402 216.201665 
L 81.307761 216.205233 
L 79.948615 216.208708 
L 78.589468 216.212093 
L 77.232343 216.215386 
L 75.873197 216.2186 
L 74.514555 216.221731 
L 73.156925 216.224782 
L 71.798284 216.227759 
L 70.440654 216.23066 
L 69.081507 216.233493 
L 67.724382 216.236254 
L 66.366752 216.238949 
L 65.008111 216.241582 
L 63.650481 216.24415 
L 62.293356 216.246658 
L 60.935726 216.249107 
L 59.578601 216.251499 
L 58.22097 216.253837 
L 56.86334 216.256122 
L 55.506215 216.258355 
L 54.148585 216.260538 
L 52.792977 216.262669 
L 51.435346 216.264756 
L 50.078222 216.266797 
L 48.722108 216.268792 
L 47.364983 216.270745 
L 46.008869 216.272655 
L 44.651744 216.274525 
L 43.29563 216.276355 
z
" clip-path="url(#p22ae930e5e)" style="fill: #1f77b4; fill-opacity: 0.25"/>
   </g>
   <g id="PolyCollection_2">
    <path d="M 43.29563 214.268812 
L 43.29563 216.404326 
L 44.651744 216.404326 
L 46.008869 216.404326 
L 47.364983 216.404326 
L 48.722108 216.404326 
L 50.078222 216.404326 
L 51.435346 216.404326 
L 52.792977 216.404326 
L 54.148585 216.404326 
L 55.506215 216.404326 
L 56.86334 216.404326 
L 58.22097 216.404326 
L 59.578601 216.404326 
L 60.935726 216.404326 
L 62.293356 216.404326 
L 63.650481 216.404326 
L 65.008111 216.404326 
L 66.366752 216.404326 
L 67.724382 216.404326 
L 69.081507 216.404326 
L 70.440654 216.404326 
L 71.798284 216.404326 
L 73.156925 216.404326 
L 74.514555 216.404326 
L 75.873197 216.404326 
L 77.232343 216.404326 
L 78.589468 216.404326 
L 79.948615 216.404326 
L 81.307761 216.404326 
L 82.666402 216.404326 
L 84.025549 216.404326 
L 85.38419 216.404326 
L 86.743337 216.404326 
L 88.102483 216.404326 
L 89.462641 216.404326 
L 90.821787 216.404326 
L 92.180934 216.404326 
L 93.541092 216.404326 
L 94.900238 216.404326 
L 96.260396 216.404326 
L 97.619542 216.404326 
L 98.980205 216.404326 
L 100.338846 216.404326 
L 101.699509 216.404326 
L 103.060172 216.404326 
L 104.42033 216.404326 
L 105.780993 216.404326 
L 107.141656 216.404326 
L 108.501813 216.404326 
L 109.862476 216.404326 
L 111.222634 216.404326 
L 112.583297 216.404326 
L 113.943959 216.404326 
L 115.305633 216.404326 
L 116.666296 216.404326 
L 118.026959 216.404326 
L 119.388633 216.404326 
L 120.749296 216.404326 
L 122.111475 216.404326 
L 123.473655 216.404326 
L 124.833812 216.404326 
L 126.195991 216.404326 
L 127.558171 216.404326 
L 128.919844 216.404326 
L 130.282024 216.404326 
L 131.644203 216.404326 
L 133.005877 216.404326 
L 134.368056 216.404326 
L 135.730235 216.404326 
L 137.091909 216.404326 
L 138.455605 216.404326 
L 139.817784 216.404326 
L 141.179963 216.404326 
L 142.543154 216.404326 
L 143.905333 216.404326 
L 145.269029 216.404326 
L 146.632724 216.404326 
L 147.994398 216.404326 
L 149.358094 216.404326 
L 150.721789 216.404326 
L 152.085485 216.404326 
L 153.448675 216.404326 
L 154.810854 216.404326 
L 156.17455 216.404326 
L 157.539762 216.404326 
L 158.902952 216.404326 
L 160.266648 216.404326 
L 161.630343 216.404326 
L 162.994039 216.404326 
L 164.358746 216.404326 
L 165.722441 216.404326 
L 167.087653 216.404326 
L 168.451349 216.404326 
L 169.816561 216.404326 
L 171.181267 216.404326 
L 172.544963 216.404326 
L 173.910175 216.404326 
L 175.275387 216.404326 
L 176.640599 216.404326 
L 178.005305 216.404326 
L 179.370517 216.404326 
L 180.735729 216.404326 
L 182.100941 216.404326 
L 183.466153 216.404326 
L 184.83086 216.404326 
L 186.196072 216.404326 
L 187.5628 216.404326 
L 188.928012 216.404326 
L 190.29474 216.404326 
L 191.659447 216.404326 
L 193.026175 216.404326 
L 194.391387 216.404326 
L 195.758115 216.404326 
L 197.124844 216.404326 
L 198.491572 216.404326 
L 199.856784 216.404326 
L 201.223007 216.404326 
L 202.589735 216.404326 
L 203.956463 216.404326 
L 205.323192 216.404326 
L 206.691436 216.404326 
L 208.058165 216.404326 
L 209.424893 216.404326 
L 210.791116 216.404326 
L 212.159361 216.404326 
L 213.526089 216.404326 
L 214.894333 216.404326 
L 216.261062 216.404326 
L 217.629306 216.404326 
L 218.996035 216.404326 
L 220.364279 216.404326 
L 221.732524 216.404326 
L 223.100263 216.404326 
L 224.468508 216.404326 
L 225.836753 216.404326 
L 227.204997 216.404326 
L 228.573242 216.404326 
L 229.941486 216.404326 
L 231.309731 216.404326 
L 232.677976 216.404326 
L 234.04622 216.404326 
L 235.415981 216.404326 
L 236.784226 216.404326 
L 238.153987 216.404326 
L 239.521726 216.404326 
L 240.891487 216.404326 
L 242.259732 216.404326 
L 243.629493 216.404326 
L 244.999254 216.404326 
L 246.369015 216.404326 
L 247.73726 216.404326 
L 249.10702 216.404326 
L 250.476781 216.404326 
L 251.846542 216.404326 
L 253.216303 216.404326 
L 254.587581 216.404326 
L 255.957342 216.404326 
L 257.327103 216.404326 
L 258.696864 216.404326 
L 260.068141 216.404326 
L 261.437902 216.404326 
L 262.809179 216.404326 
L 264.17894 216.404326 
L 265.550218 216.404326 
L 266.919979 216.404326 
L 268.291256 216.404326 
L 269.662533 216.404326 
L 271.033811 216.404326 
L 272.405088 216.404326 
L 273.776365 216.404326 
L 275.147643 216.404326 
L 276.51892 216.404326 
L 277.890197 216.404326 
L 279.261475 216.404326 
L 280.632752 216.404326 
L 282.005546 216.404326 
L 283.376823 216.404326 
L 284.7481 216.404326 
L 286.120894 216.404326 
L 287.492171 216.404326 
L 288.864965 216.404326 
L 290.237759 216.404326 
L 291.609036 216.404326 
L 292.98183 216.404326 
L 294.354623 216.404326 
L 295.727417 216.404326 
L 297.100211 216.404326 
L 298.47351 216.404326 
L 299.846303 216.404326 
L 301.219097 216.404326 
L 302.591891 216.404326 
L 303.964684 216.404326 
L 305.337478 216.404326 
L 306.711788 216.404326 
L 308.084582 216.404326 
L 309.458892 216.404326 
L 310.831686 216.404326 
L 312.205996 216.404326 
L 313.578789 216.404326 
L 314.953605 216.404326 
L 316.327915 216.404326 
L 317.700708 216.404326 
L 319.075018 216.404326 
L 320.449328 216.404326 
L 320.449328 215.864458 
L 320.449328 215.864458 
L 319.075018 215.85472 
L 317.700708 215.84471 
L 316.327915 215.83443 
L 314.953605 215.823847 
L 313.578789 215.812956 
L 312.205996 215.801765 
L 310.831686 215.790235 
L 309.458892 215.778376 
L 308.084582 215.766149 
L 306.711788 215.753566 
L 305.337478 215.740585 
L 303.964684 215.727218 
L 302.591891 215.713434 
L 301.219097 215.699215 
L 299.846303 215.684543 
L 298.47351 215.669398 
L 297.100211 215.653752 
L 295.727417 215.637595 
L 294.354623 215.6209 
L 292.98183 215.603639 
L 291.609036 215.585789 
L 290.237759 215.567341 
L 288.864965 215.548226 
L 287.492171 215.528432 
L 286.120894 215.50795 
L 284.7481 215.4867 
L 283.376823 215.46469 
L 282.005546 215.44186 
L 280.632752 215.41814 
L 279.261475 215.393537 
L 277.890197 215.367978 
L 276.51892 215.341413 
L 275.147643 215.313787 
L 273.776365 215.285043 
L 272.405088 215.255116 
L 271.033811 215.223943 
L 269.662533 215.19145 
L 268.291256 215.157562 
L 266.919979 215.122196 
L 265.550218 215.085306 
L 264.17894 215.046715 
L 262.809179 215.006407 
L 261.437902 214.964181 
L 260.068141 214.920012 
L 258.696864 214.873674 
L 257.327103 214.825129 
L 255.957342 214.774178 
L 254.587581 214.720656 
L 253.216303 214.664322 
L 251.846542 214.605108 
L 250.476781 214.542741 
L 249.10702 214.476993 
L 247.73726 214.407611 
L 246.369015 214.334406 
L 244.999254 214.256913 
L 243.629493 214.174883 
L 242.259732 214.08795 
L 240.891487 213.995821 
L 239.521726 213.897851 
L 238.153987 213.793809 
L 236.784226 213.682849 
L 235.415981 213.564655 
L 234.04622 213.438302 
L 232.677976 213.303328 
L 231.309731 213.158774 
L 229.941486 213.003719 
L 228.573242 212.837128 
L 227.204997 212.657841 
L 225.836753 212.464553 
L 224.468508 212.25579 
L 223.100263 212.029887 
L 221.732524 211.785052 
L 220.364279 211.51896 
L 218.996035 211.229261 
L 217.629306 210.913538 
L 216.261062 210.567913 
L 214.894333 210.18952 
L 213.526089 209.773343 
L 212.159361 209.315514 
L 210.791116 208.809493 
L 209.424893 208.250267 
L 208.058165 207.629574 
L 206.691436 206.939178 
L 205.323192 206.168463 
L 203.956463 205.307949 
L 202.589735 204.34399 
L 201.223007 203.261861 
L 199.856784 202.045141 
L 198.491572 200.67502 
L 197.124844 199.125775 
L 195.758115 197.369687 
L 194.391387 195.36461 
L 193.026175 193.036193 
L 191.659447 190.186407 
L 190.29474 186.129929 
L 188.928012 176.51316 
L 187.5628 3.77274 
L 186.196072 148.631668 
L 184.83086 173.871427 
L 183.466153 175.46595 
L 182.100941 174.998727 
L 180.735729 174.33532 
L 179.370517 173.76727 
L 178.005305 173.068198 
L 176.640599 171.432971 
L 175.275387 166.980254 
L 173.910175 157.995134 
L 172.544963 156.7525 
L 171.181267 169.483981 
L 169.816561 179.00009 
L 168.451349 184.202261 
L 167.087653 187.121482 
L 165.722441 188.593094 
L 164.358746 188.638985 
L 162.994039 186.467931 
L 161.630343 179.965566 
L 160.266648 170.664861 
L 158.902952 175.303964 
L 157.539762 182.813507 
L 156.17455 184.45452 
L 154.810854 181.687026 
L 153.448675 174.506238 
L 152.085485 161.744257 
L 150.721789 145.743933 
L 149.358094 139.459744 
L 147.994398 145.930523 
L 146.632724 149.823132 
L 145.269029 145.113134 
L 143.905333 136.247981 
L 142.543154 135.034902 
L 141.179963 146.287925 
L 139.817784 160.379004 
L 138.455605 170.372474 
L 137.091909 175.503798 
L 135.730235 176.433052 
L 134.368056 173.271606 
L 133.005877 165.096188 
L 131.644203 150.068755 
L 130.282024 127.991747 
L 128.919844 109.841921 
L 127.558171 115.333496 
L 126.195991 137.177036 
L 124.833812 156.146565 
L 123.473655 167.554047 
L 122.111475 173.108626 
L 120.749296 174.531241 
L 119.388633 172.737736 
L 118.026959 168.089828 
L 116.666296 160.878567 
L 115.305633 152.026242 
L 113.943959 143.95509 
L 112.583297 140.313056 
L 111.222634 143.083461 
L 109.862476 150.318272 
L 108.501813 158.23009 
L 107.141656 164.085184 
L 105.780993 166.633435 
L 104.42033 165.443099 
L 103.060172 161.103394 
L 101.699509 156.883243 
L 100.338846 158.304683 
L 98.980205 165.993768 
L 97.619542 174.902408 
L 96.260396 181.591644 
L 94.900238 185.471252 
L 93.541092 186.722936 
L 92.180934 185.244735 
L 90.821787 180.135786 
L 89.462641 169.076602 
L 88.102483 148.375266 
L 86.743337 122.772045 
L 85.38419 121.118961 
L 84.025549 137.341644 
L 82.666402 144.676746 
L 81.307761 145.223946 
L 79.948615 150.396339 
L 78.589468 163.075185 
L 77.232343 176.58025 
L 75.873197 186.933407 
L 74.514555 194.061935 
L 73.156925 198.913747 
L 71.798284 202.293235 
L 70.440654 204.716598 
L 69.081507 206.511988 
L 67.724382 207.876666 
L 66.366752 208.942263 
L 65.008111 209.792798 
L 63.650481 210.483585 
L 62.293356 211.0542 
L 60.935726 211.532713 
L 59.578601 211.938764 
L 58.22097 212.287426 
L 56.86334 212.589639 
L 55.506215 212.853795 
L 54.148585 213.086667 
L 52.792977 213.293027 
L 51.435346 213.477598 
L 50.078222 213.643304 
L 48.722108 213.792796 
L 47.364983 213.9285 
L 46.008869 214.052034 
L 44.651744 214.165102 
L 43.29563 214.268812 
z
" clip-path="url(#p22ae930e5e)" style="fill: #ff7f0e; fill-opacity: 0.25"/>
   </g>
   <g id="line2d_1">
    <path d="M 43.29563 185.362416 
L 44.651744 183.801269 
L 46.008869 182.656519 
L 47.364983 182.875579 
L 50.078222 185.190816 
L 51.435346 184.22098 
L 52.792977 180.743677 
L 54.148585 174.903672 
L 55.506215 171.836048 
L 56.86334 172.342618 
L 58.22097 179.586575 
L 59.578601 185.706853 
L 60.935726 188.647235 
L 62.293356 182.508247 
L 63.650481 178.828468 
L 66.366752 176.939583 
L 67.724382 173.421847 
L 69.081507 171.451275 
L 70.440654 176.822283 
L 71.798284 186.245199 
L 73.156925 193.768596 
L 74.514555 192.059694 
L 75.873197 185.691238 
L 77.232343 175.557101 
L 78.589468 159.006043 
L 79.948615 146.114546 
L 81.307761 145.966319 
L 82.666402 144.241515 
L 84.025549 133.143799 
L 85.38419 118.312146 
L 86.743337 127.407644 
L 88.102483 155.731909 
L 89.462641 173.160436 
L 90.821787 181.039029 
L 92.180934 184.880366 
L 93.541092 185.913426 
L 94.900238 180.929607 
L 98.980205 168.218137 
L 100.338846 157.074032 
L 101.699509 155.018898 
L 103.060172 158.062669 
L 104.42033 167.200061 
L 105.780993 171.717752 
L 107.141656 168.653708 
L 108.501813 156.926277 
L 109.862476 143.911255 
L 111.222634 136.288347 
L 112.583297 140.773258 
L 115.305633 156.694597 
L 116.666296 165.544749 
L 118.026959 170.49502 
L 119.388633 171.539709 
L 120.749296 167.050359 
L 122.111475 161.897493 
L 123.473655 159.624936 
L 124.833812 154.58557 
L 127.558171 114.422204 
L 128.919844 107.119316 
L 130.282024 130.43541 
L 131.644203 158.580723 
L 133.005877 174.111411 
L 134.368056 177.549081 
L 135.730235 175.563825 
L 137.091909 171.900191 
L 138.455605 167.879502 
L 139.817784 156.6978 
L 141.179963 140.079446 
L 142.543154 135.219909 
L 143.905333 138.564541 
L 145.269029 145.291779 
L 146.632724 147.430213 
L 147.994398 141.70588 
L 149.358094 143.668207 
L 150.721789 144.407649 
L 153.448675 180.219503 
L 154.810854 187.012047 
L 156.17455 183.499523 
L 158.902952 172.637387 
L 160.266648 172.2255 
L 161.630343 178.861543 
L 162.994039 186.291602 
L 164.358746 189.096488 
L 165.722441 189.742025 
L 167.087653 188.824651 
L 168.451349 185.009882 
L 169.816561 176.385175 
L 171.181267 163.007593 
L 172.544963 154.415744 
L 173.910175 159.354509 
L 175.275387 168.392482 
L 176.640599 170.7985 
L 178.005305 167.807876 
L 179.370517 163.422291 
L 180.735729 165.440905 
L 182.100941 172.659272 
L 183.466153 181.934653 
L 184.83086 188.940981 
L 186.196072 102.400872 
L 187.5628 124.52706 
L 188.928012 178.358997 
L 190.29474 188.035577 
L 193.026175 190.837071 
L 195.758115 185.793155 
L 197.124844 187.790919 
L 199.856784 194.909011 
L 201.223007 197.092627 
L 202.589735 199.581265 
L 203.956463 201.359517 
L 205.323192 202.773848 
L 206.691436 203.334747 
L 208.058165 202.900745 
L 209.424893 203.458233 
L 210.791116 202.773174 
L 212.159361 202.649929 
L 213.526089 202.274043 
L 214.894333 202.086264 
L 216.261062 201.244572 
L 217.629306 199.595177 
L 218.996035 198.386503 
L 220.364279 195.985283 
L 223.100263 182.750479 
L 224.468508 177.492715 
L 225.836753 175.491876 
L 227.204997 170.716778 
L 228.573242 162.647012 
L 229.941486 156.789581 
L 231.309731 159.523243 
L 232.677976 159.443516 
L 235.415981 164.351053 
L 236.784226 168.517377 
L 238.153987 170.84034 
L 239.521726 171.530101 
L 240.891487 175.950502 
L 242.259732 181.970383 
L 243.629493 174.755266 
L 244.999254 170.665885 
L 246.369015 161.40765 
L 247.73726 157.757457 
L 249.10702 159.904917 
L 250.476781 189.942379 
L 251.846542 193.905495 
L 253.216303 195.91118 
L 254.587581 189.727022 
L 255.957342 186.398962 
L 257.327103 186.83639 
L 258.696864 188.077376 
L 260.068141 186.034113 
L 261.437902 181.174131 
L 262.809179 216.404326 
L 265.550218 207.95162 
L 266.919979 207.297871 
L 268.291256 205.704911 
L 269.662533 205.918918 
L 271.033811 210.030902 
L 272.405088 213.300742 
L 273.776365 216.093542 
L 275.147643 216.404326 
L 276.51892 214.163855 
L 277.890197 209.733794 
L 280.632752 216.404326 
L 283.376823 216.404326 
L 284.7481 204.458075 
L 286.120894 185.530053 
L 287.492171 159.884962 
L 288.864965 111.274317 
L 290.189288 -1 
M 300.25235 -1 
L 301.219097 102.970506 
L 302.591891 142.119779 
L 303.964684 157.471624 
L 308.084582 182.001599 
L 309.458892 188.768745 
L 310.831686 197.92827 
L 312.205996 205.759353 
L 313.578789 202.54029 
L 314.953605 191.87031 
L 316.327915 188.452235 
L 317.700708 196.866213 
L 319.075018 204.159653 
L 320.449328 202.531011 
L 320.449328 202.531011 
" clip-path="url(#p22ae930e5e)" style="fill: none; stroke: #1f77b4; stroke-width: 1.5; stroke-linecap: square"/>
    <defs>
     <path id="m63d372ed4f" d="M 0 1.5 
C 0.397805 1.5 0.77937 1.341951 1.06066 1.06066 
C 1.341951 0.77937 1.5 0.397805 1.5 0 
C 1.5 -0.397805 1.341951 -0.77937 1.06066 -1.06066 
C 0.77937 -1.341951 0.397805 -1.5 0 -1.5 
C -0.397805 -1.5 -0.77937 -1.341951 -1.06066 -1.06066 
C -1.341951 -0.77937 -1.5 -0.397805 -1.5 0 
C -1.5 0.397805 -1.341951 0.77937 -1.06066 1.06066 
C -0.77937 1.341951 -0.397805 1.5 0 1.5 
z
" style="stroke: #1f77b4"/>
    </defs>
    <g clip-path="url(#p22ae930e5e)">
     <use xlink:href="#m63d372ed4f" x="43.29563" y="185.362416" style="fill-opacity: 0; stroke: #1f77b4"/>
     <use xlink:href="#m63d372ed4f" x="44.651744" y="183.801269" style="fill-opacity: 0; stroke: #1f77b4"/>
     <use xlink:href="#m63d372ed4f" x="46.008869" y="182.656519" style="fill-opacity: 0; stroke: #1f77b4"/>
     <use xlink:href="#m63d372ed4f" x="47.364983" y="182.875579" style="fill-opacity: 0; stroke: #1f77b4"/>
     <use xlink:href="#m63d372ed4f" x="48.722108" y="184.033993" style="fill-opacity: 0; stroke: #1f77b4"/>
     <use xlink:href="#m63d372ed4f" x="50.078222" y="185.190816" style="fill-opacity: 0; stroke: #1f77b4"/>
     <use xlink:href="#m63d372ed4f" x="51.435346" y="184.22098" style="fill-opacity: 0; stroke: #1f77b4"/>
     <use xlink:href="#m63d372ed4f" x="52.792977" y="180.743677" style="fill-opacity: 0; stroke: #1f77b4"/>
     <use xlink:href="#m63d372ed4f" x="54.148585" y="174.903672" style="fill-opacity: 0; stroke: #1f77b4"/>
     <use xlink:href="#m63d372ed4f" x="55.506215" y="171.836048" style="fill-opacity: 0; stroke: #1f77b4"/>
     <use xlink:href="#m63d372ed4f" x="56.86334" y="172.342618" style="fill-opacity: 0; stroke: #1f77b4"/>
     <use xlink:href="#m63d372ed4f" x="58.22097" y="179.586575" style="fill-opacity: 0; stroke: #1f77b4"/>
     <use xlink:href="#m63d372ed4f" x="59.578601" y="185.706853" style="fill-opacity: 0; stroke: #1f77b4"/>
     <use xlink:href="#m63d372ed4f" x="60.935726" y="188.647235" style="fill-opacity: 0; stroke: #1f77b4"/>
     <use xlink:href="#m63d372ed4f" x="62.293356" y="182.508247" style="fill-opacity: 0; stroke: #1f77b4"/>
     <use xlink:href="#m63d372ed4f" x="63.650481" y="178.828468" style="fill-opacity: 0; stroke: #1f77b4"/>
     <use xlink:href="#m63d372ed4f" x="65.008111" y="177.942559" style="fill-opacity: 0; stroke: #1f77b4"/>
     <use xlink:href="#m63d372ed4f" x="66.366752" y="176.939583" style="fill-opacity: 0; stroke: #1f77b4"/>
     <use xlink:href="#m63d372ed4f" x="67.724382" y="173.421847" style="fill-opacity: 0; stroke: #1f77b4"/>
     <use xlink:href="#m63d372ed4f" x="69.081507" y="171.451275" style="fill-opacity: 0; stroke: #1f77b4"/>
     <use xlink:href="#m63d372ed4f" x="70.440654" y="176.822283" style="fill-opacity: 0; stroke: #1f77b4"/>
     <use xlink:href="#m63d372ed4f" x="71.798284" y="186.245199" style="fill-opacity: 0; stroke: #1f77b4"/>
     <use xlink:href="#m63d372ed4f" x="73.156925" y="193.768596" style="fill-opacity: 0; stroke: #1f77b4"/>
     <use xlink:href="#m63d372ed4f" x="74.514555" y="192.059694" style="fill-opacity: 0; stroke: #1f77b4"/>
     <use xlink:href="#m63d372ed4f" x="75.873197" y="185.691238" style="fill-opacity: 0; stroke: #1f77b4"/>
     <use xlink:href="#m63d372ed4f" x="77.232343" y="175.557101" style="fill-opacity: 0; stroke: #1f77b4"/>
     <use xlink:href="#m63d372ed4f" x="78.589468" y="159.006043" style="fill-opacity: 0; stroke: #1f77b4"/>
     <use xlink:href="#m63d372ed4f" x="79.948615" y="146.114546" style="fill-opacity: 0; stroke: #1f77b4"/>
     <use xlink:href="#m63d372ed4f" x="81.307761" y="145.966319" style="fill-opacity: 0; stroke: #1f77b4"/>
     <use xlink:href="#m63d372ed4f" x="82.666402" y="144.241515" style="fill-opacity: 0; stroke: #1f77b4"/>
     <use xlink:href="#m63d372ed4f" x="84.025549" y="133.143799" style="fill-opacity: 0; stroke: #1f77b4"/>
     <use xlink:href="#m63d372ed4f" x="85.38419" y="118.312146" style="fill-opacity: 0; stroke: #1f77b4"/>
     <use xlink:href="#m63d372ed4f" x="86.743337" y="127.407644" style="fill-opacity: 0; stroke: #1f77b4"/>
     <use xlink:href="#m63d372ed4f" x="88.102483" y="155.731909" style="fill-opacity: 0; stroke: #1f77b4"/>
     <use xlink:href="#m63d372ed4f" x="89.462641" y="173.160436" style="fill-opacity: 0; stroke: #1f77b4"/>
     <use xlink:href="#m63d372ed4f" x="90.821787" y="181.039029" style="fill-opacity: 0; stroke: #1f77b4"/>
     <use xlink:href="#m63d372ed4f" x="92.180934" y="184.880366" style="fill-opacity: 0; stroke: #1f77b4"/>
     <use xlink:href="#m63d372ed4f" x="93.541092" y="185.913426" style="fill-opacity: 0; stroke: #1f77b4"/>
     <use xlink:href="#m63d372ed4f" x="94.900238" y="180.929607" style="fill-opacity: 0; stroke: #1f77b4"/>
     <use xlink:href="#m63d372ed4f" x="96.260396" y="176.733242" style="fill-opacity: 0; stroke: #1f77b4"/>
     <use xlink:href="#m63d372ed4f" x="97.619542" y="172.835448" style="fill-opacity: 0; stroke: #1f77b4"/>
     <use xlink:href="#m63d372ed4f" x="98.980205" y="168.218137" style="fill-opacity: 0; stroke: #1f77b4"/>
     <use xlink:href="#m63d372ed4f" x="100.338846" y="157.074032" style="fill-opacity: 0; stroke: #1f77b4"/>
     <use xlink:href="#m63d372ed4f" x="101.699509" y="155.018898" style="fill-opacity: 0; stroke: #1f77b4"/>
     <use xlink:href="#m63d372ed4f" x="103.060172" y="158.062669" style="fill-opacity: 0; stroke: #1f77b4"/>
     <use xlink:href="#m63d372ed4f" x="104.42033" y="167.200061" style="fill-opacity: 0; stroke: #1f77b4"/>
     <use xlink:href="#m63d372ed4f" x="105.780993" y="171.717752" style="fill-opacity: 0; stroke: #1f77b4"/>
     <use xlink:href="#m63d372ed4f" x="107.141656" y="168.653708" style="fill-opacity: 0; stroke: #1f77b4"/>
     <use xlink:href="#m63d372ed4f" x="108.501813" y="156.926277" style="fill-opacity: 0; stroke: #1f77b4"/>
     <use xlink:href="#m63d372ed4f" x="109.862476" y="143.911255" style="fill-opacity: 0; stroke: #1f77b4"/>
     <use xlink:href="#m63d372ed4f" x="111.222634" y="136.288347" style="fill-opacity: 0; stroke: #1f77b4"/>
     <use xlink:href="#m63d372ed4f" x="112.583297" y="140.773258" style="fill-opacity: 0; stroke: #1f77b4"/>
     <use xlink:href="#m63d372ed4f" x="113.943959" y="148.708843" style="fill-opacity: 0; stroke: #1f77b4"/>
     <use xlink:href="#m63d372ed4f" x="115.305633" y="156.694597" style="fill-opacity: 0; stroke: #1f77b4"/>
     <use xlink:href="#m63d372ed4f" x="116.666296" y="165.544749" style="fill-opacity: 0; stroke: #1f77b4"/>
     <use xlink:href="#m63d372ed4f" x="118.026959" y="170.49502" style="fill-opacity: 0; stroke: #1f77b4"/>
     <use xlink:href="#m63d372ed4f" x="119.388633" y="171.539709" style="fill-opacity: 0; stroke: #1f77b4"/>
     <use xlink:href="#m63d372ed4f" x="120.749296" y="167.050359" style="fill-opacity: 0; stroke: #1f77b4"/>
     <use xlink:href="#m63d372ed4f" x="122.111475" y="161.897493" style="fill-opacity: 0; stroke: #1f77b4"/>
     <use xlink:href="#m63d372ed4f" x="123.473655" y="159.624936" style="fill-opacity: 0; stroke: #1f77b4"/>
     <use xlink:href="#m63d372ed4f" x="124.833812" y="154.58557" style="fill-opacity: 0; stroke: #1f77b4"/>
     <use xlink:href="#m63d372ed4f" x="126.195991" y="134.623897" style="fill-opacity: 0; stroke: #1f77b4"/>
     <use xlink:href="#m63d372ed4f" x="127.558171" y="114.422204" style="fill-opacity: 0; stroke: #1f77b4"/>
     <use xlink:href="#m63d372ed4f" x="128.919844" y="107.119316" style="fill-opacity: 0; stroke: #1f77b4"/>
     <use xlink:href="#m63d372ed4f" x="130.282024" y="130.43541" style="fill-opacity: 0; stroke: #1f77b4"/>
     <use xlink:href="#m63d372ed4f" x="131.644203" y="158.580723" style="fill-opacity: 0; stroke: #1f77b4"/>
     <use xlink:href="#m63d372ed4f" x="133.005877" y="174.111411" style="fill-opacity: 0; stroke: #1f77b4"/>
     <use xlink:href="#m63d372ed4f" x="134.368056" y="177.549081" style="fill-opacity: 0; stroke: #1f77b4"/>
     <use xlink:href="#m63d372ed4f" x="135.730235" y="175.563825" style="fill-opacity: 0; stroke: #1f77b4"/>
     <use xlink:href="#m63d372ed4f" x="137.091909" y="171.900191" style="fill-opacity: 0; stroke: #1f77b4"/>
     <use xlink:href="#m63d372ed4f" x="138.455605" y="167.879502" style="fill-opacity: 0; stroke: #1f77b4"/>
     <use xlink:href="#m63d372ed4f" x="139.817784" y="156.6978" style="fill-opacity: 0; stroke: #1f77b4"/>
     <use xlink:href="#m63d372ed4f" x="141.179963" y="140.079446" style="fill-opacity: 0; stroke: #1f77b4"/>
     <use xlink:href="#m63d372ed4f" x="142.543154" y="135.219909" style="fill-opacity: 0; stroke: #1f77b4"/>
     <use xlink:href="#m63d372ed4f" x="143.905333" y="138.564541" style="fill-opacity: 0; stroke: #1f77b4"/>
     <use xlink:href="#m63d372ed4f" x="145.269029" y="145.291779" style="fill-opacity: 0; stroke: #1f77b4"/>
     <use xlink:href="#m63d372ed4f" x="146.632724" y="147.430213" style="fill-opacity: 0; stroke: #1f77b4"/>
     <use xlink:href="#m63d372ed4f" x="147.994398" y="141.70588" style="fill-opacity: 0; stroke: #1f77b4"/>
     <use xlink:href="#m63d372ed4f" x="149.358094" y="143.668207" style="fill-opacity: 0; stroke: #1f77b4"/>
     <use xlink:href="#m63d372ed4f" x="150.721789" y="144.407649" style="fill-opacity: 0; stroke: #1f77b4"/>
     <use xlink:href="#m63d372ed4f" x="152.085485" y="162.530008" style="fill-opacity: 0; stroke: #1f77b4"/>
     <use xlink:href="#m63d372ed4f" x="153.448675" y="180.219503" style="fill-opacity: 0; stroke: #1f77b4"/>
     <use xlink:href="#m63d372ed4f" x="154.810854" y="187.012047" style="fill-opacity: 0; stroke: #1f77b4"/>
     <use xlink:href="#m63d372ed4f" x="156.17455" y="183.499523" style="fill-opacity: 0; stroke: #1f77b4"/>
     <use xlink:href="#m63d372ed4f" x="157.539762" y="177.867386" style="fill-opacity: 0; stroke: #1f77b4"/>
     <use xlink:href="#m63d372ed4f" x="158.902952" y="172.637387" style="fill-opacity: 0; stroke: #1f77b4"/>
     <use xlink:href="#m63d372ed4f" x="160.266648" y="172.2255" style="fill-opacity: 0; stroke: #1f77b4"/>
     <use xlink:href="#m63d372ed4f" x="161.630343" y="178.861543" style="fill-opacity: 0; stroke: #1f77b4"/>
     <use xlink:href="#m63d372ed4f" x="162.994039" y="186.291602" style="fill-opacity: 0; stroke: #1f77b4"/>
     <use xlink:href="#m63d372ed4f" x="164.358746" y="189.096488" style="fill-opacity: 0; stroke: #1f77b4"/>
     <use xlink:href="#m63d372ed4f" x="165.722441" y="189.742025" style="fill-opacity: 0; stroke: #1f77b4"/>
     <use xlink:href="#m63d372ed4f" x="167.087653" y="188.824651" style="fill-opacity: 0; stroke: #1f77b4"/>
     <use xlink:href="#m63d372ed4f" x="168.451349" y="185.009882" style="fill-opacity: 0; stroke: #1f77b4"/>
     <use xlink:href="#m63d372ed4f" x="169.816561" y="176.385175" style="fill-opacity: 0; stroke: #1f77b4"/>
     <use xlink:href="#m63d372ed4f" x="171.181267" y="163.007593" style="fill-opacity: 0; stroke: #1f77b4"/>
     <use xlink:href="#m63d372ed4f" x="172.544963" y="154.415744" style="fill-opacity: 0; stroke: #1f77b4"/>
     <use xlink:href="#m63d372ed4f" x="173.910175" y="159.354509" style="fill-opacity: 0; stroke: #1f77b4"/>
     <use xlink:href="#m63d372ed4f" x="175.275387" y="168.392482" style="fill-opacity: 0; stroke: #1f77b4"/>
     <use xlink:href="#m63d372ed4f" x="176.640599" y="170.7985" style="fill-opacity: 0; stroke: #1f77b4"/>
     <use xlink:href="#m63d372ed4f" x="178.005305" y="167.807876" style="fill-opacity: 0; stroke: #1f77b4"/>
     <use xlink:href="#m63d372ed4f" x="179.370517" y="163.422291" style="fill-opacity: 0; stroke: #1f77b4"/>
     <use xlink:href="#m63d372ed4f" x="180.735729" y="165.440905" style="fill-opacity: 0; stroke: #1f77b4"/>
     <use xlink:href="#m63d372ed4f" x="182.100941" y="172.659272" style="fill-opacity: 0; stroke: #1f77b4"/>
     <use xlink:href="#m63d372ed4f" x="183.466153" y="181.934653" style="fill-opacity: 0; stroke: #1f77b4"/>
     <use xlink:href="#m63d372ed4f" x="184.83086" y="188.940981" style="fill-opacity: 0; stroke: #1f77b4"/>
     <use xlink:href="#m63d372ed4f" x="186.196072" y="102.400872" style="fill-opacity: 0; stroke: #1f77b4"/>
     <use xlink:href="#m63d372ed4f" x="187.5628" y="124.52706" style="fill-opacity: 0; stroke: #1f77b4"/>
     <use xlink:href="#m63d372ed4f" x="188.928012" y="178.358997" style="fill-opacity: 0; stroke: #1f77b4"/>
     <use xlink:href="#m63d372ed4f" x="190.29474" y="188.035577" style="fill-opacity: 0; stroke: #1f77b4"/>
     <use xlink:href="#m63d372ed4f" x="191.659447" y="189.43151" style="fill-opacity: 0; stroke: #1f77b4"/>
     <use xlink:href="#m63d372ed4f" x="193.026175" y="190.837071" style="fill-opacity: 0; stroke: #1f77b4"/>
     <use xlink:href="#m63d372ed4f" x="194.391387" y="188.423824" style="fill-opacity: 0; stroke: #1f77b4"/>
     <use xlink:href="#m63d372ed4f" x="195.758115" y="185.793155" style="fill-opacity: 0; stroke: #1f77b4"/>
     <use xlink:href="#m63d372ed4f" x="197.124844" y="187.790919" style="fill-opacity: 0; stroke: #1f77b4"/>
     <use xlink:href="#m63d372ed4f" x="198.491572" y="191.370182" style="fill-opacity: 0; stroke: #1f77b4"/>
     <use xlink:href="#m63d372ed4f" x="199.856784" y="194.909011" style="fill-opacity: 0; stroke: #1f77b4"/>
     <use xlink:href="#m63d372ed4f" x="201.223007" y="197.092627" style="fill-opacity: 0; stroke: #1f77b4"/>
     <use xlink:href="#m63d372ed4f" x="202.589735" y="199.581265" style="fill-opacity: 0; stroke: #1f77b4"/>
     <use xlink:href="#m63d372ed4f" x="203.956463" y="201.359517" style="fill-opacity: 0; stroke: #1f77b4"/>
     <use xlink:href="#m63d372ed4f" x="205.323192" y="202.773848" style="fill-opacity: 0; stroke: #1f77b4"/>
     <use xlink:href="#m63d372ed4f" x="206.691436" y="203.334747" style="fill-opacity: 0; stroke: #1f77b4"/>
     <use xlink:href="#m63d372ed4f" x="208.058165" y="202.900745" style="fill-opacity: 0; stroke: #1f77b4"/>
     <use xlink:href="#m63d372ed4f" x="209.424893" y="203.458233" style="fill-opacity: 0; stroke: #1f77b4"/>
     <use xlink:href="#m63d372ed4f" x="210.791116" y="202.773174" style="fill-opacity: 0; stroke: #1f77b4"/>
     <use xlink:href="#m63d372ed4f" x="212.159361" y="202.649929" style="fill-opacity: 0; stroke: #1f77b4"/>
     <use xlink:href="#m63d372ed4f" x="213.526089" y="202.274043" style="fill-opacity: 0; stroke: #1f77b4"/>
     <use xlink:href="#m63d372ed4f" x="214.894333" y="202.086264" style="fill-opacity: 0; stroke: #1f77b4"/>
     <use xlink:href="#m63d372ed4f" x="216.261062" y="201.244572" style="fill-opacity: 0; stroke: #1f77b4"/>
     <use xlink:href="#m63d372ed4f" x="217.629306" y="199.595177" style="fill-opacity: 0; stroke: #1f77b4"/>
     <use xlink:href="#m63d372ed4f" x="218.996035" y="198.386503" style="fill-opacity: 0; stroke: #1f77b4"/>
     <use xlink:href="#m63d372ed4f" x="220.364279" y="195.985283" style="fill-opacity: 0; stroke: #1f77b4"/>
     <use xlink:href="#m63d372ed4f" x="221.732524" y="189.624633" style="fill-opacity: 0; stroke: #1f77b4"/>
     <use xlink:href="#m63d372ed4f" x="223.100263" y="182.750479" style="fill-opacity: 0; stroke: #1f77b4"/>
     <use xlink:href="#m63d372ed4f" x="224.468508" y="177.492715" style="fill-opacity: 0; stroke: #1f77b4"/>
     <use xlink:href="#m63d372ed4f" x="225.836753" y="175.491876" style="fill-opacity: 0; stroke: #1f77b4"/>
     <use xlink:href="#m63d372ed4f" x="227.204997" y="170.716778" style="fill-opacity: 0; stroke: #1f77b4"/>
     <use xlink:href="#m63d372ed4f" x="228.573242" y="162.647012" style="fill-opacity: 0; stroke: #1f77b4"/>
     <use xlink:href="#m63d372ed4f" x="229.941486" y="156.789581" style="fill-opacity: 0; stroke: #1f77b4"/>
     <use xlink:href="#m63d372ed4f" x="231.309731" y="159.523243" style="fill-opacity: 0; stroke: #1f77b4"/>
     <use xlink:href="#m63d372ed4f" x="232.677976" y="159.443516" style="fill-opacity: 0; stroke: #1f77b4"/>
     <use xlink:href="#m63d372ed4f" x="234.04622" y="161.905495" style="fill-opacity: 0; stroke: #1f77b4"/>
     <use xlink:href="#m63d372ed4f" x="235.415981" y="164.351053" style="fill-opacity: 0; stroke: #1f77b4"/>
     <use xlink:href="#m63d372ed4f" x="236.784226" y="168.517377" style="fill-opacity: 0; stroke: #1f77b4"/>
     <use xlink:href="#m63d372ed4f" x="238.153987" y="170.84034" style="fill-opacity: 0; stroke: #1f77b4"/>
     <use xlink:href="#m63d372ed4f" x="239.521726" y="171.530101" style="fill-opacity: 0; stroke: #1f77b4"/>
     <use xlink:href="#m63d372ed4f" x="240.891487" y="175.950502" style="fill-opacity: 0; stroke: #1f77b4"/>
     <use xlink:href="#m63d372ed4f" x="242.259732" y="181.970383" style="fill-opacity: 0; stroke: #1f77b4"/>
     <use xlink:href="#m63d372ed4f" x="243.629493" y="174.755266" style="fill-opacity: 0; stroke: #1f77b4"/>
     <use xlink:href="#m63d372ed4f" x="244.999254" y="170.665885" style="fill-opacity: 0; stroke: #1f77b4"/>
     <use xlink:href="#m63d372ed4f" x="246.369015" y="161.40765" style="fill-opacity: 0; stroke: #1f77b4"/>
     <use xlink:href="#m63d372ed4f" x="247.73726" y="157.757457" style="fill-opacity: 0; stroke: #1f77b4"/>
     <use xlink:href="#m63d372ed4f" x="249.10702" y="159.904917" style="fill-opacity: 0; stroke: #1f77b4"/>
     <use xlink:href="#m63d372ed4f" x="250.476781" y="189.942379" style="fill-opacity: 0; stroke: #1f77b4"/>
     <use xlink:href="#m63d372ed4f" x="251.846542" y="193.905495" style="fill-opacity: 0; stroke: #1f77b4"/>
     <use xlink:href="#m63d372ed4f" x="253.216303" y="195.91118" style="fill-opacity: 0; stroke: #1f77b4"/>
     <use xlink:href="#m63d372ed4f" x="254.587581" y="189.727022" style="fill-opacity: 0; stroke: #1f77b4"/>
     <use xlink:href="#m63d372ed4f" x="255.957342" y="186.398962" style="fill-opacity: 0; stroke: #1f77b4"/>
     <use xlink:href="#m63d372ed4f" x="257.327103" y="186.83639" style="fill-opacity: 0; stroke: #1f77b4"/>
     <use xlink:href="#m63d372ed4f" x="258.696864" y="188.077376" style="fill-opacity: 0; stroke: #1f77b4"/>
     <use xlink:href="#m63d372ed4f" x="260.068141" y="186.034113" style="fill-opacity: 0; stroke: #1f77b4"/>
     <use xlink:href="#m63d372ed4f" x="261.437902" y="181.174131" style="fill-opacity: 0; stroke: #1f77b4"/>
     <use xlink:href="#m63d372ed4f" x="262.809179" y="216.404326" style="fill-opacity: 0; stroke: #1f77b4"/>
     <use xlink:href="#m63d372ed4f" x="264.17894" y="212.255846" style="fill-opacity: 0; stroke: #1f77b4"/>
     <use xlink:href="#m63d372ed4f" x="265.550218" y="207.95162" style="fill-opacity: 0; stroke: #1f77b4"/>
     <use xlink:href="#m63d372ed4f" x="266.919979" y="207.297871" style="fill-opacity: 0; stroke: #1f77b4"/>
     <use xlink:href="#m63d372ed4f" x="268.291256" y="205.704911" style="fill-opacity: 0; stroke: #1f77b4"/>
     <use xlink:href="#m63d372ed4f" x="269.662533" y="205.918918" style="fill-opacity: 0; stroke: #1f77b4"/>
     <use xlink:href="#m63d372ed4f" x="271.033811" y="210.030902" style="fill-opacity: 0; stroke: #1f77b4"/>
     <use xlink:href="#m63d372ed4f" x="272.405088" y="213.300742" style="fill-opacity: 0; stroke: #1f77b4"/>
     <use xlink:href="#m63d372ed4f" x="273.776365" y="216.093542" style="fill-opacity: 0; stroke: #1f77b4"/>
     <use xlink:href="#m63d372ed4f" x="275.147643" y="216.404326" style="fill-opacity: 0; stroke: #1f77b4"/>
     <use xlink:href="#m63d372ed4f" x="276.51892" y="214.163855" style="fill-opacity: 0; stroke: #1f77b4"/>
     <use xlink:href="#m63d372ed4f" x="277.890197" y="209.733794" style="fill-opacity: 0; stroke: #1f77b4"/>
     <use xlink:href="#m63d372ed4f" x="279.261475" y="213.09496" style="fill-opacity: 0; stroke: #1f77b4"/>
     <use xlink:href="#m63d372ed4f" x="280.632752" y="216.404326" style="fill-opacity: 0; stroke: #1f77b4"/>
     <use xlink:href="#m63d372ed4f" x="282.005546" y="216.404326" style="fill-opacity: 0; stroke: #1f77b4"/>
     <use xlink:href="#m63d372ed4f" x="283.376823" y="216.404326" style="fill-opacity: 0; stroke: #1f77b4"/>
     <use xlink:href="#m63d372ed4f" x="284.7481" y="204.458075" style="fill-opacity: 0; stroke: #1f77b4"/>
     <use xlink:href="#m63d372ed4f" x="286.120894" y="185.530053" style="fill-opacity: 0; stroke: #1f77b4"/>
     <use xlink:href="#m63d372ed4f" x="287.492171" y="159.884962" style="fill-opacity: 0; stroke: #1f77b4"/>
     <use xlink:href="#m63d372ed4f" x="288.864965" y="111.274317" style="fill-opacity: 0; stroke: #1f77b4"/>
     <use xlink:href="#m63d372ed4f" x="290.189288" y="-1" style="fill-opacity: 0; stroke: #1f77b4"/>
     <use xlink:href="#m63d372ed4f" x="300.25235" y="-1" style="fill-opacity: 0; stroke: #1f77b4"/>
     <use xlink:href="#m63d372ed4f" x="301.219097" y="102.970506" style="fill-opacity: 0; stroke: #1f77b4"/>
     <use xlink:href="#m63d372ed4f" x="302.591891" y="142.119779" style="fill-opacity: 0; stroke: #1f77b4"/>
     <use xlink:href="#m63d372ed4f" x="303.964684" y="157.471624" style="fill-opacity: 0; stroke: #1f77b4"/>
     <use xlink:href="#m63d372ed4f" x="305.337478" y="165.498961" style="fill-opacity: 0; stroke: #1f77b4"/>
     <use xlink:href="#m63d372ed4f" x="306.711788" y="173.973465" style="fill-opacity: 0; stroke: #1f77b4"/>
     <use xlink:href="#m63d372ed4f" x="308.084582" y="182.001599" style="fill-opacity: 0; stroke: #1f77b4"/>
     <use xlink:href="#m63d372ed4f" x="309.458892" y="188.768745" style="fill-opacity: 0; stroke: #1f77b4"/>
     <use xlink:href="#m63d372ed4f" x="310.831686" y="197.92827" style="fill-opacity: 0; stroke: #1f77b4"/>
     <use xlink:href="#m63d372ed4f" x="312.205996" y="205.759353" style="fill-opacity: 0; stroke: #1f77b4"/>
     <use xlink:href="#m63d372ed4f" x="313.578789" y="202.54029" style="fill-opacity: 0; stroke: #1f77b4"/>
     <use xlink:href="#m63d372ed4f" x="314.953605" y="191.87031" style="fill-opacity: 0; stroke: #1f77b4"/>
     <use xlink:href="#m63d372ed4f" x="316.327915" y="188.452235" style="fill-opacity: 0; stroke: #1f77b4"/>
     <use xlink:href="#m63d372ed4f" x="317.700708" y="196.866213" style="fill-opacity: 0; stroke: #1f77b4"/>
     <use xlink:href="#m63d372ed4f" x="319.075018" y="204.159653" style="fill-opacity: 0; stroke: #1f77b4"/>
     <use xlink:href="#m63d372ed4f" x="320.449328" y="202.531011" style="fill-opacity: 0; stroke: #1f77b4"/>
    </g>
   </g>
   <g id="line2d_2">
    <path d="M 43.29563 214.140841 
L 50.078222 213.505775 
L 54.148585 212.942879 
L 58.22097 212.136938 
L 60.935726 211.377494 
L 63.650481 210.32341 
L 65.008111 209.630054 
L 66.366752 208.776887 
L 67.724382 207.708594 
L 69.081507 206.341156 
L 70.440654 204.542932 
L 71.798284 202.116668 
L 73.156925 198.734203 
L 74.514555 193.879341 
L 75.873197 186.747681 
L 77.232343 176.391311 
L 79.948615 150.200721 
L 81.307761 145.024852 
L 82.666402 144.474085 
L 84.025549 137.135318 
L 85.38419 120.90887 
L 86.743337 122.558084 
L 88.102483 148.157327 
L 89.462641 168.85457 
L 90.821787 179.909547 
L 92.180934 185.01417 
L 93.541092 186.487915 
L 94.900238 185.231648 
L 96.260396 181.347318 
L 97.619542 174.653223 
L 98.980205 165.739571 
L 100.338846 158.045331 
L 101.699509 156.618568 
L 104.42033 165.167276 
L 105.780993 166.35177 
L 107.141656 163.797491 
L 108.501813 157.936175 
L 109.862476 150.017929 
L 111.222634 142.776478 
L 112.583297 139.999209 
L 113.943959 143.634145 
L 115.305633 151.69795 
L 116.666296 160.542679 
L 118.026959 167.746078 
L 119.388633 172.385837 
L 120.749296 174.170907 
L 122.111475 172.739538 
L 123.473655 167.175884 
L 124.833812 155.759002 
L 126.195991 136.779703 
L 127.558171 114.926019 
L 128.919844 109.42391 
L 130.282024 127.562783 
L 131.644203 149.628404 
L 133.005877 164.643993 
L 134.368056 172.807079 
L 135.730235 175.955681 
L 137.091909 175.013048 
L 138.455605 169.867753 
L 139.817784 159.859723 
L 141.179963 145.753446 
L 142.543154 134.484535 
L 143.905333 135.68102 
L 145.269029 144.528797 
L 146.632724 149.220608 
L 147.994398 145.308978 
L 149.358094 138.818234 
L 150.721789 145.081481 
L 152.085485 161.059819 
L 153.448675 173.79871 
L 154.810854 180.955241 
L 156.17455 183.697179 
L 157.539762 182.029218 
L 158.902952 174.491306 
L 160.266648 169.822257 
L 161.630343 179.091332 
L 162.994039 185.560252 
L 164.358746 187.695882 
L 165.722441 187.612482 
L 167.087653 186.101035 
L 168.451349 183.139556 
L 169.816561 177.892399 
L 171.181267 168.328409 
L 172.544963 155.54592 
L 173.910175 156.73404 
L 175.275387 165.660874 
L 176.640599 170.051182 
L 178.005305 171.619505 
L 179.370517 172.246685 
L 183.466153 173.694551 
L 184.83086 172.002608 
L 186.196072 146.657171 
L 187.5628 1.683267 
L 188.928012 174.298585 
L 190.29474 183.778601 
L 191.659447 187.685601 
L 193.026175 190.371074 
L 194.391387 192.518821 
L 195.758115 194.324202 
L 197.124844 195.859097 
L 198.491572 197.162509 
L 199.856784 198.258757 
L 201.223007 199.168646 
L 202.589735 199.90574 
L 203.956463 200.480181 
L 205.323192 200.898962 
L 206.691436 201.165723 
L 208.058165 201.27953 
L 209.424893 201.236297 
L 210.791116 201.027022 
L 212.159361 200.636527 
L 213.526089 200.044845 
L 214.894333 199.222096 
L 216.261062 198.132377 
L 217.629306 196.724542 
L 218.996035 194.94056 
L 220.364279 192.702143 
L 221.732524 189.925792 
L 223.100263 186.525492 
L 224.468508 182.430939 
L 225.836753 177.639536 
L 229.941486 161.730974 
L 231.309731 158.147002 
L 232.677976 156.845662 
L 234.04622 158.135564 
L 235.415981 161.590212 
L 239.521726 175.522677 
L 240.891487 178.712174 
L 242.259732 180.15593 
L 243.629493 178.935048 
L 244.999254 173.406175 
L 246.369015 162.511839 
L 247.73726 155.053711 
L 249.10702 164.769981 
L 250.476781 178.887298 
L 251.846542 187.769265 
L 253.216303 192.204672 
L 254.587581 193.650262 
L 255.957342 192.591369 
L 257.327103 189.068698 
L 258.696864 184.402514 
L 260.068141 183.429105 
L 261.437902 188.647365 
L 262.809179 195.408187 
L 264.17894 200.535284 
L 265.550218 203.956658 
L 266.919979 206.237246 
L 268.291256 207.820619 
L 269.662533 208.968346 
L 271.033811 209.834891 
L 272.405088 210.512303 
L 275.147643 211.506642 
L 277.890197 212.206844 
L 282.005546 212.947859 
L 287.492171 213.614487 
L 294.354623 214.171551 
L 303.964684 214.680568 
L 316.327915 215.094853 
L 320.449328 215.197084 
L 320.449328 215.197084 
" clip-path="url(#p22ae930e5e)" style="fill: none; stroke: #ff0000; stroke-width: 1.5; stroke-linecap: square"/>
   </g>
   <g id="line2d_3">
    <path d="M 295.727417 216.404326 
L 295.727417 17.735865 
" clip-path="url(#p22ae930e5e)" style="fill: none; stroke-dasharray: 3.7,1.6; stroke-dashoffset: 0; stroke: #808080"/>
   </g>
   <g id="patch_3">
    <path d="M 43.003987 216.404326 
L 43.003987 17.735865 
" style="fill: none; stroke: #000000; stroke-linejoin: miter; stroke-linecap: square"/>
   </g>
   <g id="patch_4">
    <path d="M 320.99976 216.404326 
L 320.99976 17.735865 
" style="fill: none; stroke: #000000; stroke-linejoin: miter; stroke-linecap: square"/>
   </g>
   <g id="patch_5">
    <path d="M 43.003987 216.404326 
L 320.99976 216.404326 
" style="fill: none; stroke: #000000; stroke-linejoin: miter; stroke-linecap: square"/>
   </g>
   <g id="patch_6">
    <path d="M 43.003987 17.735865 
L 320.99976 17.735865 
" style="fill: none; stroke: #000000; stroke-linejoin: miter; stroke-linecap: square"/>
   </g>
   <g id="matplotlib.axis_1">
    <g id="xtick_1">
     <g id="line2d_4">
      <defs>
       <path id="m075a4f489e" d="M 0 0 
L 0 3.75 
" style="stroke: #000000; stroke-width: 1.25"/>
      </defs>
      <g>
       <use xlink:href="#m075a4f489e" x="43.003987" y="216.404326" style="stroke: #000000; stroke-width: 1.25"/>
      </g>
     </g>
     <g id="text_1">
      <!-- $\mathdefault{429}$ -->
      <g transform="translate(33.818987 231.52792)">
       <text>
        <tspan style="font: 11px 'Arial'" x="0 6.117676 12.235352" y="-0.09375">429</tspan>
       </text>
      </g>
     </g>
    </g>
    <g id="xtick_2">
     <g id="line2d_5">
      <g>
       <use xlink:href="#m075a4f489e" x="93.548673" y="216.404326" style="stroke: #000000; stroke-width: 1.25"/>
      </g>
     </g>
     <g id="text_2">
      <!-- $\mathdefault{430}$ -->
      <g transform="translate(84.363673 231.52792)">
       <text>
        <tspan style="font: 11px 'Arial'" x="0 6.117676 12.235352" y="-0.09375">430</tspan>
       </text>
      </g>
     </g>
    </g>
    <g id="xtick_3">
     <g id="line2d_6">
      <g>
       <use xlink:href="#m075a4f489e" x="144.093359" y="216.404326" style="stroke: #000000; stroke-width: 1.25"/>
      </g>
     </g>
     <g id="text_3">
      <!-- $\mathdefault{431}$ -->
      <g transform="translate(134.908359 231.52792)">
       <text>
        <tspan style="font: 11px 'Arial'" x="0 6.117676 12.235352" y="-0.09375">431</tspan>
       </text>
      </g>
     </g>
    </g>
    <g id="xtick_4">
     <g id="line2d_7">
      <g>
       <use xlink:href="#m075a4f489e" x="194.638045" y="216.404326" style="stroke: #000000; stroke-width: 1.25"/>
      </g>
     </g>
     <g id="text_4">
      <!-- $\mathdefault{432}$ -->
      <g transform="translate(185.453045 231.52792)">
       <text>
        <tspan style="font: 11px 'Arial'" x="0 6.117676 12.235352" y="-0.09375">432</tspan>
       </text>
      </g>
     </g>
    </g>
    <g id="xtick_5">
     <g id="line2d_8">
      <g>
       <use xlink:href="#m075a4f489e" x="245.182731" y="216.404326" style="stroke: #000000; stroke-width: 1.25"/>
      </g>
     </g>
     <g id="text_5">
      <!-- $\mathdefault{433}$ -->
      <g transform="translate(235.997731 231.52792)">
       <text>
        <tspan style="font: 11px 'Arial'" x="0 6.117676 12.235352" y="-0.09375">433</tspan>
       </text>
      </g>
     </g>
    </g>
    <g id="xtick_6">
     <g id="line2d_9">
      <g>
       <use xlink:href="#m075a4f489e" x="295.727417" y="216.404326" style="stroke: #000000; stroke-width: 1.25"/>
      </g>
     </g>
     <g id="text_6">
      <!-- $\mathdefault{434}$ -->
      <g transform="translate(286.542417 231.52792)">
       <text>
        <tspan style="font: 11px 'Arial'" x="0 6.117676 12.235352" y="-0.09375">434</tspan>
       </text>
      </g>
     </g>
    </g>
    <g id="text_7">
     <!-- $\lambda$ {\sffamily (nm)} -->
     <g transform="translate(164.206736 246.411565) scale(0.12 -0.12)">
      <defs>
       <path id="StandardSymL-6c" d="M 480 3650 
C 525 4013 710 4224 998 4224 
C 1203 4224 1376 4064 1472 3778 
C 1517 3650 1574 3440 1632 3198 
L 154 19 
L 755 19 
L 1843 2301 
C 2048 1059 2150 607 2266 358 
C 2406 83 2611 -64 2848 -64 
C 3098 -64 3296 89 3405 371 
C 3475 543 3501 715 3507 1014 
L 3373 1014 
C 3322 683 3174 499 2944 499 
C 2752 499 2586 620 2483 843 
C 2400 1008 2355 1174 2266 1645 
L 2093 2466 
C 2086 2485 2080 2530 2067 2594 
C 1920 3415 1690 4192 1536 4422 
C 1395 4627 1203 4736 992 4736 
C 602 4736 397 4403 326 3650 
L 480 3650 
z
" transform="scale(0.015625)"/>
       <path id="NimbusSanL-Regu-28" d="M 1510 4672 
C 870 3833 467 2668 467 1663 
C 467 652 870 -513 1510 -1351 
L 1862 -1351 
C 1299 -436 986 639 986 1663 
C 986 2681 1299 3763 1862 4672 
L 1510 4672 
z
" transform="scale(0.015625)"/>
       <path id="NimbusSanL-Regu-6e" d="M 448 3328 
L 448 0 
L 986 0 
L 986 1835 
C 986 2539 1344 2988 1894 2988 
C 2317 2988 2586 2732 2586 2328 
L 2586 0 
L 3117 0 
L 3117 2539 
C 3117 3097 2701 3456 2054 3456 
C 1555 3456 1235 3263 941 2796 
L 941 3328 
L 448 3328 
z
" transform="scale(0.015625)"/>
       <path id="NimbusSanL-Regu-6d" d="M 448 3328 
L 448 0 
L 986 0 
L 986 2089 
C 986 2597 1338 2988 1773 2988 
C 2170 2988 2394 2744 2394 2315 
L 2394 0 
L 2931 0 
L 2931 2109 
C 2931 2597 3283 2988 3718 2988 
C 4109 2988 4339 2738 4339 2315 
L 4339 0 
L 4877 0 
L 4877 2520 
C 4877 3123 4531 3456 3904 3456 
C 3456 3456 3187 3321 2874 2943 
C 2675 3302 2406 3456 1971 3456 
C 1523 3456 1229 3289 941 2886 
L 941 3328 
L 448 3328 
z
" transform="scale(0.015625)"/>
       <path id="NimbusSanL-Regu-29" d="M 595 -1351 
C 1235 -513 1638 652 1638 1657 
C 1638 2668 1235 3833 595 4672 
L 243 4672 
C 806 3756 1120 2681 1120 1657 
C 1120 639 806 -442 243 -1351 
L 595 -1351 
z
" transform="scale(0.015625)"/>
      </defs>
      <use xlink:href="#StandardSymL-6c" transform="scale(0.996264)"/>
      <use xlink:href="#NimbusSanL-Regu-28" transform="translate(91.855235 0) scale(0.996264)"/>
      <use xlink:href="#NimbusSanL-Regu-6e" transform="translate(125.030464 0) scale(0.996264)"/>
      <use xlink:href="#NimbusSanL-Regu-6d" transform="translate(180.422141 0) scale(0.996264)"/>
      <use xlink:href="#NimbusSanL-Regu-29" transform="translate(263.410572 0) scale(0.996264)"/>
     </g>
    </g>
   </g>
   <g id="matplotlib.axis_2">
    <g id="ytick_1">
     <g id="line2d_10">
      <defs>
       <path id="m14a115dd47" d="M 0 0 
L -3.75 0 
" style="stroke: #000000; stroke-width: 1.25"/>
      </defs>
      <g>
       <use xlink:href="#m14a115dd47" x="43.003987" y="216.404326" style="stroke: #000000; stroke-width: 1.25"/>
      </g>
     </g>
     <g id="text_8">
      <!-- $\mathdefault{0.0}$ -->
      <g transform="translate(20.353987 220.341123)">
       <text>
        <tspan style="font: 11px 'Arial'" x="0 6.117676 9.173828" y="-0.09375">0.0</tspan>
       </text>
      </g>
     </g>
    </g>
    <g id="ytick_2">
     <g id="line2d_11">
      <g>
       <use xlink:href="#m14a115dd47" x="43.003987" y="189.551063" style="stroke: #000000; stroke-width: 1.25"/>
      </g>
     </g>
     <g id="text_9">
      <!-- $\mathdefault{0.2}$ -->
      <g transform="translate(20.353987 193.48786)">
       <text>
        <tspan style="font: 11px 'Arial'" x="0 6.117676 9.173828" y="-0.09375">0.2</tspan>
       </text>
      </g>
     </g>
    </g>
    <g id="ytick_3">
     <g id="line2d_12">
      <g>
       <use xlink:href="#m14a115dd47" x="43.003987" y="162.697801" style="stroke: #000000; stroke-width: 1.25"/>
      </g>
     </g>
     <g id="text_10">
      <!-- $\mathdefault{0.4}$ -->
      <g transform="translate(20.353987 166.634598)">
       <text>
        <tspan style="font: 11px 'Arial'" x="0 6.117676 9.173828" y="-0.09375">0.4</tspan>
       </text>
      </g>
     </g>
    </g>
    <g id="ytick_4">
     <g id="line2d_13">
      <g>
       <use xlink:href="#m14a115dd47" x="43.003987" y="135.844538" style="stroke: #000000; stroke-width: 1.25"/>
      </g>
     </g>
     <g id="text_11">
      <!-- $\mathdefault{0.6}$ -->
      <g transform="translate(20.353987 139.781335)">
       <text>
        <tspan style="font: 11px 'Arial'" x="0 6.117676 9.173828" y="-0.09375">0.6</tspan>
       </text>
      </g>
     </g>
    </g>
    <g id="ytick_5">
     <g id="line2d_14">
      <g>
       <use xlink:href="#m14a115dd47" x="43.003987" y="108.991276" style="stroke: #000000; stroke-width: 1.25"/>
      </g>
     </g>
     <g id="text_12">
      <!-- $\mathdefault{0.8}$ -->
      <g transform="translate(20.353987 112.928072)">
       <text>
        <tspan style="font: 11px 'Arial'" x="0 6.117676 9.173828" y="-0.09375">0.8</tspan>
       </text>
      </g>
     </g>
    </g>
    <g id="ytick_6">
     <g id="line2d_15">
      <g>
       <use xlink:href="#m14a115dd47" x="43.003987" y="82.138013" style="stroke: #000000; stroke-width: 1.25"/>
      </g>
     </g>
     <g id="text_13">
      <!-- $\mathdefault{1.0}$ -->
      <g transform="translate(20.353987 86.07481)">
       <text>
        <tspan style="font: 11px 'Arial'" x="0 6.117676 9.173828" y="-0.09375">1.0</tspan>
       </text>
      </g>
     </g>
    </g>
    <g id="ytick_7">
     <g id="line2d_16">
      <g>
       <use xlink:href="#m14a115dd47" x="43.003987" y="55.28475" style="stroke: #000000; stroke-width: 1.25"/>
      </g>
     </g>
     <g id="text_14">
      <!-- $\mathdefault{1.2}$ -->
      <g transform="translate(20.353987 59.221547)">
       <text>
        <tspan style="font: 11px 'Arial'" x="0 6.117676 9.173828" y="-0.09375">1.2</tspan>
       </text>
      </g>
     </g>
    </g>
    <g id="ytick_8">
     <g id="line2d_17">
      <g>
       <use xlink:href="#m14a115dd47" x="43.003987" y="28.431488" style="stroke: #000000; stroke-width: 1.25"/>
      </g>
     </g>
     <g id="text_15">
      <!-- $\mathdefault{1.4}$ -->
      <g transform="translate(20.353987 32.368285)">
       <text>
        <tspan style="font: 11px 'Arial'" x="0 6.117676 9.173828" y="-0.09375">1.4</tspan>
       </text>
      </g>
     </g>
    </g>
    <g id="text_16">
     <!-- $B_{\lambda}$ {\sffamily (photons/cm\textsuperscript{2}/s/nm)} -->
     <g transform="translate(13.728305 177.714049) rotate(-90) scale(0.12 -0.12)">
      <defs>
       <path id="NimbusRomNo9L-ReguItal-42" d="M -51 0 
L 1754 0 
C 2758 0 3450 523 3450 1274 
C 3450 1510 3373 1732 3232 1872 
C 3104 2019 2976 2095 2643 2235 
C 3098 2344 3283 2420 3488 2598 
C 3667 2751 3763 2968 3763 3222 
C 3763 3827 3309 4160 2483 4160 
L 832 4160 
L 832 4057 
C 1229 4025 1325 3974 1325 3795 
C 1325 3700 1299 3541 1254 3388 
L 467 574 
C 352 204 307 166 -51 102 
L -51 0 
z
M 1523 2108 
C 1939 2108 2208 2083 2336 2032 
C 2598 1923 2758 1643 2758 1299 
C 2758 612 2285 192 1504 192 
C 1235 192 1094 287 1094 459 
C 1094 535 1171 841 1318 1350 
C 1402 1637 1440 1783 1523 2108 
z
M 2003 3789 
C 2042 3929 2118 3967 2368 3967 
C 2880 3967 3117 3751 3117 3280 
C 3117 2917 2963 2637 2688 2484 
C 2470 2356 2163 2312 1587 2312 
L 2003 3789 
z
" transform="scale(0.015625)"/>
       <path id="NimbusSanL-Regu-70" d="M 346 -1408 
L 883 -1408 
L 883 371 
C 1165 25 1478 -128 1914 -128 
C 2778 -128 3347 568 3347 1632 
C 3347 2752 2797 3456 1907 3456 
C 1453 3456 1088 3251 838 2854 
L 838 3359 
L 346 3359 
L 346 -1408 
z
M 1818 2956 
C 2406 2956 2790 2440 2790 1644 
C 2790 887 2400 371 1818 371 
C 1254 371 883 880 883 1663 
C 883 2447 1254 2956 1818 2956 
z
" transform="scale(0.015625)"/>
       <path id="NimbusSanL-Regu-68" d="M 448 4672 
L 448 0 
L 979 0 
L 979 1853 
C 979 2539 1338 2988 1888 2988 
C 2061 2988 2234 2930 2362 2834 
C 2515 2725 2579 2565 2579 2328 
L 2579 0 
L 3110 0 
L 3110 2539 
C 3110 3103 2707 3456 2054 3456 
C 1581 3456 1293 3308 979 2898 
L 979 4672 
L 448 4672 
z
" transform="scale(0.015625)"/>
       <path id="NimbusSanL-Regu-6f" d="M 1741 3456 
C 800 3456 230 2784 230 1663 
C 230 543 794 -128 1747 -128 
C 2688 -128 3264 543 3264 1638 
C 3264 2791 2707 3456 1741 3456 
z
M 1747 2963 
C 2349 2963 2707 2472 2707 1644 
C 2707 861 2336 364 1747 364 
C 1152 364 787 855 787 1663 
C 787 2466 1152 2963 1747 2963 
z
" transform="scale(0.015625)"/>
       <path id="NimbusSanL-Regu-74" d="M 1626 3328 
L 1075 3328 
L 1075 4249 
L 544 4249 
L 544 3328 
L 90 3328 
L 90 2892 
L 544 2892 
L 544 402 
C 544 64 774 -128 1190 -128 
C 1318 -128 1446 -116 1626 -84 
L 1626 364 
C 1555 345 1472 339 1370 339 
C 1139 339 1075 402 1075 634 
L 1075 2892 
L 1626 2892 
L 1626 3328 
z
" transform="scale(0.015625)"/>
       <path id="NimbusSanL-Regu-73" d="M 2803 2428 
C 2797 3084 2362 3456 1587 3456 
C 806 3456 301 3052 301 2434 
C 301 1912 570 1663 1363 1472 
L 1862 1351 
C 2234 1262 2381 1129 2381 887 
C 2381 574 2067 364 1600 364 
C 1312 364 1069 447 934 587 
C 851 683 813 778 781 1014 
L 218 1014 
C 243 243 678 -128 1555 -128 
C 2400 -128 2938 288 2938 931 
C 2938 1428 2656 1702 1990 1861 
L 1478 1982 
C 1043 2084 858 2224 858 2459 
C 858 2765 1133 2963 1568 2963 
C 1997 2963 2227 2778 2240 2428 
L 2803 2428 
z
" transform="scale(0.015625)"/>
       <path id="NimbusSanL-Regu-2f" d="M 1466 4672 
L -51 -128 
L 301 -128 
L 1818 4672 
L 1466 4672 
z
" transform="scale(0.015625)"/>
       <path id="NimbusSanL-Regu-63" d="M 3014 2237 
C 2989 2561 2918 2771 2790 2956 
C 2560 3270 2157 3456 1690 3456 
C 787 3456 198 2740 198 1632 
C 198 555 774 -128 1683 -128 
C 2483 -128 2989 352 3053 1167 
L 2515 1167 
C 2426 632 2150 364 1696 364 
C 1107 364 755 842 755 1632 
C 755 2466 1101 2963 1683 2963 
C 2131 2963 2413 2701 2477 2237 
L 3014 2237 
z
" transform="scale(0.015625)"/>
       <path id="NimbusSanL-Regu-32" d="M 3238 556 
L 851 556 
C 909 928 1114 1165 1670 1493 
L 2310 1839 
C 2944 2185 3270 2653 3270 3211 
C 3270 3589 3117 3942 2848 4185 
C 2579 4428 2246 4544 1818 4544 
C 1242 4544 813 4339 563 3955 
C 403 3711 333 3429 320 2967 
L 883 2967 
C 902 3275 941 3461 1018 3608 
C 1165 3884 1459 4051 1798 4051 
C 2310 4051 2694 3685 2694 3198 
C 2694 2839 2483 2531 2080 2300 
L 1491 1967 
C 544 1428 269 999 218 0 
L 3238 0 
L 3238 556 
z
" transform="scale(0.015625)"/>
      </defs>
      <use xlink:href="#NimbusRomNo9L-ReguItal-42" transform="scale(0.996264)"/>
      <use xlink:href="#StandardSymL-6c" transform="translate(60.871631 -20.616338) scale(0.737241)"/>
      <use xlink:href="#NimbusSanL-Regu-28" transform="translate(135.818713 0) scale(0.996264)"/>
      <use xlink:href="#NimbusSanL-Regu-70" transform="translate(168.993943 0) scale(0.996264)"/>
      <use xlink:href="#NimbusSanL-Regu-68" transform="translate(224.38562 0) scale(0.996264)"/>
      <use xlink:href="#NimbusSanL-Regu-6f" transform="translate(279.777297 0) scale(0.996264)"/>
      <use xlink:href="#NimbusSanL-Regu-74" transform="translate(335.168974 0) scale(0.996264)"/>
      <use xlink:href="#NimbusSanL-Regu-6f" transform="translate(362.864143 0) scale(0.996264)"/>
      <use xlink:href="#NimbusSanL-Regu-6e" transform="translate(418.25582 0) scale(0.996264)"/>
      <use xlink:href="#NimbusSanL-Regu-73" transform="translate(473.647497 0) scale(0.996264)"/>
      <use xlink:href="#NimbusSanL-Regu-2f" transform="translate(523.460698 0) scale(0.996264)"/>
      <use xlink:href="#NimbusSanL-Regu-63" transform="translate(551.155868 0) scale(0.996264)"/>
      <use xlink:href="#NimbusSanL-Regu-6d" transform="translate(600.969068 0) scale(0.996264)"/>
      <use xlink:href="#NimbusSanL-Regu-32" transform="translate(683.957498 36.163231) scale(0.737241)"/>
      <use xlink:href="#NimbusSanL-Regu-2f" transform="translate(725.445777 0) scale(0.996264)"/>
      <use xlink:href="#NimbusSanL-Regu-73" transform="translate(753.140947 0) scale(0.996264)"/>
      <use xlink:href="#NimbusSanL-Regu-2f" transform="translate(802.954147 0) scale(0.996264)"/>
      <use xlink:href="#NimbusSanL-Regu-6e" transform="translate(830.649317 0) scale(0.996264)"/>
      <use xlink:href="#NimbusSanL-Regu-6d" transform="translate(886.040994 0) scale(0.996264)"/>
      <use xlink:href="#NimbusSanL-Regu-29" transform="translate(969.029424 0) scale(0.996264)"/>
     </g>
    </g>
    <g id="text_17">
     <!-- $\times\mathdefault{10^{13}}\mathdefault{}$ -->
     <g transform="translate(43.003987 14.735865)">
      <text>
       <tspan style="font: 11px 'STIXGeneral'" x="0" y="-0.799312500000001"></tspan>
       <tspan style="font: 11px 'Arial'" x="7.039993 13.157669" y="-0.799312500000001">10</tspan>
       <tspan style="font: 7.7px 'Arial'" x="19.467003 23.749376" y="-8.465625">13</tspan>
      </text>
     </g>
    </g>
   </g>
   <g id="patch_7">
    <path d="M 217.800817 47.652918 
L 217.800817 67.40298 
L 294.609383 67.40298 
" style="fill: none; stroke: #000000; stroke-linecap: round"/>
    <path d="M 290.609383 65.40298 
L 294.609383 67.40298 
L 290.609383 69.40298 
" style="fill: none; stroke: #000000; stroke-linecap: round"/>
   </g>
   <g id="text_18">
    <g id="patch_8">
     <path d="M 184.100817 50.702711 
L 251.500817 50.702711 
Q 254.500817 50.702711 254.500817 47.702711 
L 254.500817 37.602711 
Q 254.500817 34.602711 251.500817 34.602711 
L 184.100817 34.602711 
Q 181.100817 34.602711 181.100817 37.602711 
L 181.100817 47.702711 
Q 181.100817 50.702711 184.100817 50.702711 
z
" style="fill: #f5deb3; stroke: #000000; stroke-linejoin: miter"/>
    </g>
    <!-- D$_{\gamma}$ (434.00) nm -->
    <g transform="translate(184.100817 44.902711)">
     <text>
      <tspan style="font: 10px 'Arial'" x="0 10.686517 13.464837 16.794915 22.356439 27.917962 33.479486 36.257806 41.81933 47.380853 50.710931 53.489251 59.050775" y="-0.71875">D(434.00)nm</tspan>
      <tspan style="font: italic 7px 'STIXGeneral'" x="7.375898" y="0.6031250000000004"></tspan>
     </text>
    </g>
   </g>
   <g id="text_19">
    <text style="font: 10px 'Arial'; text-anchor: middle" x="236.720161" y="95.062925" transform="rotate(-0 236.720161 95.062925)">Q-branch</text>
   </g>
   <g id="text_20">
    <text style="font: 10px 'Arial'; text-anchor: middle" x="126.559461" y="47.267898" transform="rotate(-0 126.559461 47.267898)">B-D + C-D</text>
   </g>
   <g id="text_21">
    <text style="font: 700 12px 'Arial'; text-anchor: middle" x="182.001874" y="11.735865" transform="rotate(-0 182.001874 11.735865)">HP boron rod (redeposit test) - 7 min</text>
   </g>
  </g>
 </g>
 <defs>
  <clipPath id="p22ae930e5e">
   <rect x="43.003987" y="17.735865" width="277.995773" height="198.668461"/>
  </clipPath>
 </defs>
</svg>
