<?xml version="1.0" encoding="utf-8" standalone="no"?>
<!DOCTYPE svg PUBLIC "-//W3C//DTD SVG 1.1//EN"
  "http://www.w3.org/Graphics/SVG/1.1/DTD/svg11.dtd">
<svg xmlns:xlink="http://www.w3.org/1999/xlink" width="324pt" height="252pt" viewBox="0 0 324 252" xmlns="http://www.w3.org/2000/svg" version="1.1">
 <metadata>
  <rdf:RDF xmlns:dc="http://purl.org/dc/elements/1.1/" xmlns:cc="http://creativecommons.org/ns#" xmlns:rdf="http://www.w3.org/1999/02/22-rdf-syntax-ns#">
   <cc:Work>
    <dc:type rdf:resource="http://purl.org/dc/dcmitype/StillImage"/>
    <dc:date>2024-12-06T11:05:58.870442</dc:date>
    <dc:format>image/svg+xml</dc:format>
    <dc:creator>
     <cc:Agent>
      <dc:title>Matplotlib v3.9.2, https://matplotlib.org/</dc:title>
     </cc:Agent>
    </dc:creator>
   </cc:Work>
  </rdf:RDF>
 </metadata>
 <defs>
  <style type="text/css">*{stroke-linejoin: round; stroke-linecap: butt}</style>
 </defs>
 <g id="figure_1">
  <g id="patch_1">
   <path d="M 0 252 
L 324 252 
L 324 0 
L 0 0 
z
" style="fill: #ffffff"/>
  </g>
  <g id="axes_1">
   <g id="patch_2">
    <path d="M 33.763987 216.404326 
L 320.99976 216.404326 
L 320.99976 17.735865 
L 33.763987 17.735865 
z
" style="fill: #ffffff"/>
   </g>
   <g id="PolyCollection_1">
    <path d="M 34.08308 216.331872 
L 34.08308 216.404326 
L 35.483746 216.404326 
L 36.884935 216.404326 
L 38.287167 216.404326 
L 39.688356 216.404326 
L 41.090588 216.404326 
L 42.491777 216.404326 
L 43.89401 216.404326 
L 45.296765 216.404326 
L 46.697431 216.404326 
L 48.100186 216.404326 
L 49.502419 216.404326 
L 50.905174 216.404326 
L 52.307929 216.404326 
L 53.710162 216.404326 
L 55.112917 216.404326 
L 56.515149 216.404326 
L 57.917905 216.404326 
L 59.321704 216.404326 
L 60.724459 216.404326 
L 62.126692 216.404326 
L 63.531014 216.404326 
L 64.933769 216.404326 
L 66.337568 216.404326 
L 67.740323 216.404326 
L 69.144123 216.404326 
L 70.548445 216.404326 
L 71.950678 216.404326 
L 73.354999 216.404326 
L 74.759321 216.404326 
L 76.163121 216.404326 
L 77.567443 216.404326 
L 78.971242 216.404326 
L 80.375564 216.404326 
L 81.779886 216.404326 
L 83.185252 216.404326 
L 84.589574 216.404326 
L 85.993896 216.404326 
L 87.399262 216.404326 
L 88.803584 216.404326 
L 90.20895 216.404326 
L 91.613272 216.404326 
L 93.01916 216.404326 
L 94.42296 216.404326 
L 95.828849 216.404326 
L 97.234737 216.404326 
L 98.640103 216.404326 
L 100.045992 216.404326 
L 101.451881 216.404326 
L 102.857247 216.404326 
L 104.263135 216.404326 
L 105.668502 216.404326 
L 107.07439 216.404326 
L 108.480279 216.404326 
L 109.887212 216.404326 
L 111.2931 216.404326 
L 112.698989 216.404326 
L 114.105922 216.404326 
L 115.51181 216.404326 
L 116.919266 216.404326 
L 118.326721 216.404326 
L 119.732087 216.404326 
L 121.139543 216.404326 
L 122.546998 216.404326 
L 123.953931 216.404326 
L 125.361386 216.404326 
L 126.768842 216.404326 
L 128.175775 216.404326 
L 129.58323 216.404326 
L 130.990685 216.404326 
L 132.397618 216.404326 
L 133.80664 216.404326 
L 135.214095 216.404326 
L 136.621551 216.404326 
L 138.030051 216.404326 
L 139.437506 216.404326 
L 140.846528 216.404326 
L 142.25555 216.404326 
L 143.662483 216.404326 
L 145.071505 216.404326 
L 146.480527 216.404326 
L 147.889549 216.404326 
L 149.298049 216.404326 
L 150.705504 216.404326 
L 152.114526 216.404326 
L 153.525115 216.404326 
L 154.933615 216.404326 
L 156.342637 216.404326 
L 157.751659 216.404326 
L 159.160681 216.404326 
L 160.570747 216.404326 
L 161.979769 216.404326 
L 163.390358 216.404326 
L 164.79938 216.404326 
L 166.209969 216.404326 
L 167.620035 216.404326 
L 169.029057 216.404326 
L 170.439646 216.404326 
L 171.850235 216.404326 
L 173.260824 216.404326 
L 174.67089 216.404326 
L 176.081479 216.404326 
L 177.492068 216.404326 
L 178.902657 216.404326 
L 180.313245 216.404326 
L 181.723312 216.404326 
L 183.133901 216.404326 
L 184.546056 216.404326 
L 185.956645 216.404326 
L 187.3688 216.404326 
L 188.778867 216.404326 
L 190.191022 216.404326 
L 191.601611 216.404326 
L 193.013767 216.404326 
L 194.425922 216.404326 
L 195.838078 216.404326 
L 197.248666 216.404326 
L 198.6603 216.404326 
L 200.072455 216.404326 
L 201.484611 216.404326 
L 202.896766 216.404326 
L 204.310488 216.404326 
L 205.722644 216.404326 
L 207.134799 216.404326 
L 208.546433 216.404326 
L 209.960155 216.404326 
L 211.37231 216.404326 
L 212.786033 216.404326 
L 214.198188 216.404326 
L 215.611911 216.404326 
L 217.024066 216.404326 
L 218.437788 216.404326 
L 219.851511 216.404326 
L 221.264711 216.404326 
L 222.678433 216.404326 
L 224.092155 216.404326 
L 225.505877 216.404326 
L 226.9196 216.404326 
L 228.333322 216.404326 
L 229.747044 216.404326 
L 231.160766 216.404326 
L 232.574488 216.404326 
L 233.989777 216.404326 
L 235.4035 216.404326 
L 236.818789 216.404326 
L 238.231989 216.404326 
L 239.647278 216.404326 
L 241.061 216.404326 
L 242.476289 216.404326 
L 243.891578 216.404326 
L 245.306867 216.404326 
L 246.720589 216.404326 
L 248.135878 216.404326 
L 249.551167 216.404326 
L 250.966456 216.404326 
L 252.381745 216.404326 
L 253.798601 216.404326 
L 255.21389 216.404326 
L 256.629179 216.404326 
L 258.044468 216.404326 
L 259.461324 216.404326 
L 260.876613 216.404326 
L 262.293468 216.404326 
L 263.708757 216.404326 
L 265.125613 216.404326 
L 266.540902 216.404326 
L 267.957758 216.404326 
L 269.374613 216.404326 
L 270.791469 216.404326 
L 272.208325 216.404326 
L 273.625181 216.404326 
L 275.042036 216.404326 
L 276.458892 216.404326 
L 277.875748 216.404326 
L 279.292604 216.404326 
L 280.709459 216.404326 
L 282.127882 216.404326 
L 283.544737 216.404326 
L 284.961593 216.404326 
L 286.380016 216.404326 
L 287.796871 216.404326 
L 289.215294 216.404326 
L 290.633716 216.404326 
L 292.050572 216.404326 
L 293.468995 216.404326 
L 294.887417 216.404326 
L 296.305839 216.404326 
L 297.724262 216.404326 
L 299.143207 216.404326 
L 300.561629 216.404326 
L 301.980052 216.404326 
L 303.398474 216.404326 
L 304.816897 216.404326 
L 306.235319 216.404326 
L 307.655308 216.404326 
L 309.073731 216.404326 
L 310.49372 216.404326 
L 311.912142 216.404326 
L 313.332132 216.404326 
L 314.750554 216.404326 
L 316.171066 216.404326 
L 317.591055 216.404326 
L 319.009477 216.404326 
L 320.429466 216.404326 
L 320.429466 216.078823 
L 320.429466 216.078823 
L 319.009477 216.068421 
L 317.591055 216.05752 
L 316.171066 216.046064 
L 314.750554 216.034021 
L 313.332132 216.021375 
L 311.912142 216.008049 
L 310.49372 215.994024 
L 309.073731 215.979218 
L 307.655308 215.963605 
L 306.235319 215.947088 
L 304.816897 215.929634 
L 303.398474 215.911149 
L 301.980052 215.891549 
L 300.561629 215.87074 
L 299.143207 215.84862 
L 297.724262 215.825065 
L 296.305839 215.799964 
L 294.887417 215.773166 
L 293.468995 215.744511 
L 292.050572 215.713817 
L 290.633716 215.680921 
L 289.215294 215.645518 
L 287.796871 215.607383 
L 286.380016 215.566263 
L 284.961593 215.521726 
L 283.544737 215.473475 
L 282.127882 215.421007 
L 280.709459 215.363725 
L 279.292604 215.301133 
L 277.875748 215.232433 
L 276.458892 215.156751 
L 275.042036 215.073035 
L 273.625181 214.980013 
L 272.208325 214.876123 
L 270.791469 214.759433 
L 269.374613 214.62751 
L 267.957758 214.477248 
L 266.540902 214.304609 
L 265.125613 214.104474 
L 263.708757 213.869124 
L 262.293468 213.58894 
L 260.876613 213.248671 
L 259.461324 212.827247 
L 258.044468 212.289698 
L 256.629179 211.58172 
L 255.21389 210.607393 
L 253.798601 209.19358 
L 252.381745 207.00983 
L 250.966456 203.454974 
L 249.551167 197.734631 
L 248.135878 190.905955 
L 246.720589 189.486854 
L 245.306867 194.443872 
L 243.891578 198.8408 
L 242.476289 200.756769 
L 241.061 200.742446 
L 239.647278 199.134256 
L 238.231989 195.612947 
L 236.818789 188.778593 
L 235.4035 175.99714 
L 233.989777 165.924411 
L 232.574488 170.812229 
L 231.160766 172.135584 
L 229.747044 168.845815 
L 228.333322 164.70726 
L 226.9196 162.666404 
L 225.505877 164.392136 
L 224.092155 169.549891 
L 222.678433 176.420134 
L 221.264711 183.338637 
L 219.851511 189.405825 
L 218.437788 194.377058 
L 217.024066 198.324635 
L 215.611911 201.424143 
L 214.198188 203.864918 
L 212.786033 205.794922 
L 211.37231 207.338381 
L 209.960155 208.582534 
L 208.546433 209.598128 
L 207.134799 210.433431 
L 205.722644 211.128445 
L 204.310488 211.711742 
L 202.896766 212.205919 
L 201.484611 212.626942 
L 200.072455 212.988678 
L 198.6603 213.301563 
L 197.248666 213.573785 
L 195.838078 213.81192 
L 194.425922 214.021733 
L 193.013767 214.207291 
L 191.601611 214.372156 
L 190.191022 214.519112 
L 188.778867 214.650924 
L 187.3688 214.769292 
L 185.956645 214.876278 
L 184.546056 214.973043 
L 183.133901 215.061031 
L 181.723312 215.141093 
L 180.313245 215.214205 
L 178.902657 215.281191 
L 177.492068 215.342693 
L 176.081479 215.399292 
L 174.67089 215.451492 
L 173.260824 215.499721 
L 171.850235 215.544401 
L 170.439646 215.585857 
L 169.029057 215.62439 
L 167.620035 215.660231 
L 166.209969 215.693684 
L 164.79938 215.724945 
L 163.390358 215.754158 
L 161.979769 215.781558 
L 160.570747 215.807236 
L 159.160681 215.831376 
L 157.751659 215.854066 
L 156.342637 215.875436 
L 154.933615 215.895585 
L 153.525115 215.914598 
L 152.114526 215.932592 
L 150.705504 215.949593 
L 149.298049 215.965675 
L 147.889549 215.98093 
L 146.480527 215.995408 
L 145.071505 216.009156 
L 143.662483 216.022223 
L 142.25555 216.034634 
L 140.846528 216.046467 
L 139.437506 216.057741 
L 138.030051 216.06848 
L 136.621551 216.078734 
L 135.214095 216.088518 
L 133.80664 216.097869 
L 132.397618 216.106819 
L 130.990685 216.115371 
L 129.58323 216.123562 
L 128.175775 216.13141 
L 126.768842 216.138931 
L 125.361386 216.146147 
L 123.953931 216.153073 
L 122.546998 216.159722 
L 121.139543 216.166113 
L 119.732087 216.172256 
L 118.326721 216.178156 
L 116.919266 216.183842 
L 115.51181 216.189317 
L 114.105922 216.194584 
L 112.698989 216.199663 
L 111.2931 216.204557 
L 109.887212 216.209278 
L 108.480279 216.213836 
L 107.07439 216.218233 
L 105.668502 216.222479 
L 104.263135 216.226581 
L 102.857247 216.230546 
L 101.451881 216.234379 
L 100.045992 216.238088 
L 98.640103 216.241677 
L 97.234737 216.245149 
L 95.828849 216.248513 
L 94.42296 216.251771 
L 93.01916 216.254923 
L 91.613272 216.257983 
L 90.20895 216.260947 
L 88.803584 216.263824 
L 87.399262 216.266613 
L 85.993896 216.269321 
L 84.589574 216.271949 
L 83.185252 216.274501 
L 81.779886 216.276981 
L 80.375564 216.279389 
L 78.971242 216.28173 
L 77.567443 216.284004 
L 76.163121 216.286217 
L 74.759321 216.288368 
L 73.354999 216.290462 
L 71.950678 216.292499 
L 70.548445 216.29448 
L 69.144123 216.296411 
L 67.740323 216.298291 
L 66.337568 216.300121 
L 64.933769 216.301905 
L 63.531014 216.303642 
L 62.126692 216.305338 
L 60.724459 216.306989 
L 59.321704 216.308599 
L 57.917905 216.310171 
L 56.515149 216.311703 
L 55.112917 216.313198 
L 53.710162 216.314657 
L 52.307929 216.316081 
L 50.905174 216.317472 
L 49.502419 216.31883 
L 48.100186 216.320156 
L 46.697431 216.321452 
L 45.296765 216.322716 
L 43.89401 216.323954 
L 42.491777 216.325163 
L 41.090588 216.326344 
L 39.688356 216.327499 
L 38.287167 216.328629 
L 36.884935 216.329734 
L 35.483746 216.330815 
L 34.08308 216.331872 
z
" clip-path="url(#p7918b74dbf)" style="fill: #1f77b4; fill-opacity: 0.25"/>
   </g>
   <g id="PolyCollection_2">
    <path d="M 34.08308 214.972746 
L 34.08308 216.404326 
L 35.483746 216.404326 
L 36.884935 216.404326 
L 38.287167 216.404326 
L 39.688356 216.404326 
L 41.090588 216.404326 
L 42.491777 216.404326 
L 43.89401 216.404326 
L 45.296765 216.404326 
L 46.697431 216.404326 
L 48.100186 216.404326 
L 49.502419 216.404326 
L 50.905174 216.404326 
L 52.307929 216.404326 
L 53.710162 216.404326 
L 55.112917 216.404326 
L 56.515149 216.404326 
L 57.917905 216.404326 
L 59.321704 216.404326 
L 60.724459 216.404326 
L 62.126692 216.404326 
L 63.531014 216.404326 
L 64.933769 216.404326 
L 66.337568 216.404326 
L 67.740323 216.404326 
L 69.144123 216.404326 
L 70.548445 216.404326 
L 71.950678 216.404326 
L 73.354999 216.404326 
L 74.759321 216.404326 
L 76.163121 216.404326 
L 77.567443 216.404326 
L 78.971242 216.404326 
L 80.375564 216.404326 
L 81.779886 216.404326 
L 83.185252 216.404326 
L 84.589574 216.404326 
L 85.993896 216.404326 
L 87.399262 216.404326 
L 88.803584 216.404326 
L 90.20895 216.404326 
L 91.613272 216.404326 
L 93.01916 216.404326 
L 94.42296 216.404326 
L 95.828849 216.404326 
L 97.234737 216.404326 
L 98.640103 216.404326 
L 100.045992 216.404326 
L 101.451881 216.404326 
L 102.857247 216.404326 
L 104.263135 216.404326 
L 105.668502 216.404326 
L 107.07439 216.404326 
L 108.480279 216.404326 
L 109.887212 216.404326 
L 111.2931 216.404326 
L 112.698989 216.404326 
L 114.105922 216.404326 
L 115.51181 216.404326 
L 116.919266 216.404326 
L 118.326721 216.404326 
L 119.732087 216.404326 
L 121.139543 216.404326 
L 122.546998 216.404326 
L 123.953931 216.404326 
L 125.361386 216.404326 
L 126.768842 216.404326 
L 128.175775 216.404326 
L 129.58323 216.404326 
L 130.990685 216.404326 
L 132.397618 216.404326 
L 133.80664 216.404326 
L 135.214095 216.404326 
L 136.621551 216.404326 
L 138.030051 216.404326 
L 139.437506 216.404326 
L 140.846528 216.404326 
L 142.25555 216.404326 
L 143.662483 216.404326 
L 145.071505 216.404326 
L 146.480527 216.404326 
L 147.889549 216.404326 
L 149.298049 216.404326 
L 150.705504 216.404326 
L 152.114526 216.404326 
L 153.525115 216.404326 
L 154.933615 216.404326 
L 156.342637 216.404326 
L 157.751659 216.404326 
L 159.160681 216.404326 
L 160.570747 216.404326 
L 161.979769 216.404326 
L 163.390358 216.404326 
L 164.79938 216.404326 
L 166.209969 216.404326 
L 167.620035 216.404326 
L 169.029057 216.404326 
L 170.439646 216.404326 
L 171.850235 216.404326 
L 173.260824 216.404326 
L 174.67089 216.404326 
L 176.081479 216.404326 
L 177.492068 216.404326 
L 178.902657 216.404326 
L 180.313245 216.404326 
L 181.723312 216.404326 
L 183.133901 216.404326 
L 184.546056 216.404326 
L 185.956645 216.404326 
L 187.3688 216.404326 
L 188.778867 216.404326 
L 190.191022 216.404326 
L 191.601611 216.404326 
L 193.013767 216.404326 
L 194.425922 216.404326 
L 195.838078 216.404326 
L 197.248666 216.404326 
L 198.6603 216.404326 
L 200.072455 216.404326 
L 201.484611 216.404326 
L 202.896766 216.404326 
L 204.310488 216.404326 
L 205.722644 216.404326 
L 207.134799 216.404326 
L 208.546433 216.404326 
L 209.960155 216.404326 
L 211.37231 216.404326 
L 212.786033 216.404326 
L 214.198188 216.404326 
L 215.611911 216.404326 
L 217.024066 216.404326 
L 218.437788 216.404326 
L 219.851511 216.404326 
L 221.264711 216.404326 
L 222.678433 216.404326 
L 224.092155 216.404326 
L 225.505877 216.404326 
L 226.9196 216.404326 
L 228.333322 216.404326 
L 229.747044 216.404326 
L 231.160766 216.404326 
L 232.574488 216.404326 
L 233.989777 216.404326 
L 235.4035 216.404326 
L 236.818789 216.404326 
L 238.231989 216.404326 
L 239.647278 216.404326 
L 241.061 216.404326 
L 242.476289 216.404326 
L 243.891578 216.404326 
L 245.306867 216.404326 
L 246.720589 216.404326 
L 248.135878 216.404326 
L 249.551167 216.404326 
L 250.966456 216.404326 
L 252.381745 216.404326 
L 253.798601 216.404326 
L 255.21389 216.404326 
L 256.629179 216.404326 
L 258.044468 216.404326 
L 259.461324 216.404326 
L 260.876613 216.404326 
L 262.293468 216.404326 
L 263.708757 216.404326 
L 265.125613 216.404326 
L 266.540902 216.404326 
L 267.957758 216.404326 
L 269.374613 216.404326 
L 270.791469 216.404326 
L 272.208325 216.404326 
L 273.625181 216.404326 
L 275.042036 216.404326 
L 276.458892 216.404326 
L 277.875748 216.404326 
L 279.292604 216.404326 
L 280.709459 216.404326 
L 282.127882 216.404326 
L 283.544737 216.404326 
L 284.961593 216.404326 
L 286.380016 216.404326 
L 287.796871 216.404326 
L 289.215294 216.404326 
L 290.633716 216.404326 
L 292.050572 216.404326 
L 293.468995 216.404326 
L 294.887417 216.404326 
L 296.305839 216.404326 
L 297.724262 216.404326 
L 299.143207 216.404326 
L 300.561629 216.404326 
L 301.980052 216.404326 
L 303.398474 216.404326 
L 304.816897 216.404326 
L 306.235319 216.404326 
L 307.655308 216.404326 
L 309.073731 216.404326 
L 310.49372 216.404326 
L 311.912142 216.404326 
L 313.332132 216.404326 
L 314.750554 216.404326 
L 316.171066 216.404326 
L 317.591055 216.404326 
L 319.009477 216.404326 
L 320.429466 216.404326 
L 320.429466 216.065958 
L 320.429466 216.065958 
L 319.009477 216.059984 
L 317.591055 216.053853 
L 316.171066 216.047545 
L 314.750554 216.04106 
L 313.332132 216.034402 
L 311.912142 216.027547 
L 310.49372 216.020503 
L 309.073731 216.013247 
L 307.655308 216.005786 
L 306.235319 215.998096 
L 304.816897 215.990184 
L 303.398474 215.982033 
L 301.980052 215.973633 
L 300.561629 215.964973 
L 299.143207 215.956042 
L 297.724262 215.946825 
L 296.305839 215.937317 
L 294.887417 215.927501 
L 293.468995 215.917364 
L 292.050572 215.906891 
L 290.633716 215.89608 
L 289.215294 215.884889 
L 287.796871 215.873313 
L 286.380016 215.861349 
L 284.961593 215.84895 
L 283.544737 215.836123 
L 282.127882 215.822832 
L 280.709459 215.80904 
L 279.292604 215.794753 
L 277.875748 215.779929 
L 276.458892 215.76454 
L 275.042036 215.748557 
L 273.625181 215.731948 
L 272.208325 215.714679 
L 270.791469 215.696714 
L 269.374613 215.678015 
L 267.957758 215.658539 
L 266.540902 215.638242 
L 265.125613 215.617101 
L 263.708757 215.595017 
L 262.293468 215.571984 
L 260.876613 215.54789 
L 259.461324 215.522727 
L 258.044468 215.496367 
L 256.629179 215.468795 
L 255.21389 215.439901 
L 253.798601 215.409598 
L 252.381745 215.377753 
L 250.966456 215.344334 
L 249.551167 215.309193 
L 248.135878 215.272208 
L 246.720589 215.233243 
L 245.306867 215.192199 
L 243.891578 215.148824 
L 242.476289 215.102985 
L 241.061 215.054488 
L 239.647278 215.003177 
L 238.231989 214.948703 
L 236.818789 214.890947 
L 235.4035 214.829449 
L 233.989777 214.764045 
L 232.574488 214.694233 
L 231.160766 214.619768 
L 229.747044 214.54013 
L 228.333322 214.454819 
L 226.9196 214.363273 
L 225.505877 214.264859 
L 224.092155 214.158861 
L 222.678433 214.044465 
L 221.264711 213.920749 
L 219.851511 213.786708 
L 218.437788 213.641035 
L 217.024066 213.482388 
L 215.611911 213.309365 
L 214.198188 213.119726 
L 212.786033 212.911737 
L 211.37231 212.682416 
L 209.960155 212.429318 
L 208.546433 212.148394 
L 207.134799 211.836266 
L 205.722644 211.487506 
L 204.310488 211.096355 
L 202.896766 210.655238 
L 201.484611 210.15659 
L 200.072455 209.589574 
L 198.6603 208.941508 
L 197.248666 208.197108 
L 195.838078 207.337629 
L 194.425922 206.337631 
L 193.013767 205.16844 
L 191.601611 203.79335 
L 190.191022 202.168898 
L 188.778867 200.235844 
L 187.3688 197.932607 
L 185.956645 195.174847 
L 184.546056 191.885941 
L 183.133901 187.981433 
L 181.723312 183.426672 
L 180.313245 178.259875 
L 178.902657 172.675126 
L 177.492068 167.106715 
L 176.081479 162.228164 
L 174.67089 158.773963 
L 173.260824 157.107671 
L 171.850235 156.58355 
L 170.439646 154.415556 
L 169.029057 143.143191 
L 167.620035 136.391576 
L 166.209969 161.664368 
L 164.79938 175.906417 
L 163.390358 182.819342 
L 161.979769 186.644667 
L 160.570747 188.487856 
L 159.160681 188.283383 
L 157.751659 184.875255 
L 156.342637 175.896374 
L 154.933615 166.521708 
L 153.525115 174.077695 
L 152.114526 183.021218 
L 150.705504 185.353804 
L 149.298049 182.391489 
L 147.889549 173.223541 
L 146.480527 153.895598 
L 145.071505 126.145722 
L 143.662483 122.422496 
L 142.25555 136.274876 
L 140.846528 134.290442 
L 139.437506 115.795625 
L 138.030051 101.142129 
L 136.621551 116.746573 
L 135.214095 145.012389 
L 133.80664 165.311093 
L 132.397618 176.707115 
L 130.990685 182.146464 
L 129.58323 183.357307 
L 128.175775 180.531104 
L 126.768842 172.194718 
L 125.361386 154.269247 
L 123.953931 120.564756 
L 122.546998 83.82845 
L 121.139543 97.375992 
L 119.732087 137.850266 
L 118.326721 164.018295 
L 116.919266 177.119676 
L 115.51181 182.97215 
L 114.105922 184.491923 
L 112.698989 182.700546 
L 111.2931 177.557668 
L 109.887212 168.40692 
L 108.480279 154.8629 
L 107.07439 139.672402 
L 105.668502 131.823481 
L 104.263135 138.460675 
L 102.857247 153.084764 
L 101.451881 166.066689 
L 100.045992 173.723619 
L 98.640103 175.072193 
L 97.234737 168.647429 
L 95.828849 157.607946 
L 94.42296 162.397307 
L 93.01916 178.422095 
L 91.613272 188.865806 
L 90.20895 193.936807 
L 88.803584 195.934148 
L 87.399262 195.875904 
L 85.993896 193.924573 
L 84.589574 189.588825 
L 83.185252 181.5481 
L 81.779886 167.219338 
L 80.375564 143.372388 
L 78.971242 114.583635 
L 77.567443 107.99327 
L 76.163121 129.70098 
L 74.759321 146.774203 
L 73.354999 141.03491 
L 71.950678 141.392695 
L 70.548445 173.634347 
L 69.144123 191.085333 
L 67.740323 199.158275 
L 66.337568 203.54133 
L 64.933769 206.252077 
L 63.531014 208.078404 
L 62.126692 209.387905 
L 60.724459 210.366525 
L 59.321704 211.12428 
L 57.917905 211.726842 
L 56.515149 212.215639 
L 55.112917 212.619453 
L 53.710162 212.958354 
L 52.307929 213.24624 
L 50.905174 213.493713 
L 49.502419 213.708446 
L 48.100186 213.896314 
L 46.697431 214.062065 
L 45.296765 214.209039 
L 43.89401 214.34056 
L 42.491777 214.458681 
L 41.090588 214.565268 
L 39.688356 214.662035 
L 38.287167 214.750126 
L 36.884935 214.830748 
L 35.483746 214.904686 
L 34.08308 214.972746 
z
" clip-path="url(#p7918b74dbf)" style="fill: #ff7f0e; fill-opacity: 0.25"/>
   </g>
   <g id="line2d_1">
    <path d="M 34.08308 186.760902 
L 35.483746 194.913107 
L 36.884935 197.625423 
L 38.287167 197.495367 
L 39.688356 196.721403 
L 41.090588 199.07761 
L 42.491777 199.751181 
L 43.89401 194.678472 
L 45.296765 184.802131 
L 46.697431 176.142685 
L 48.100186 175.952754 
L 49.502419 176.855127 
L 50.905174 186.650255 
L 52.307929 198.426469 
L 53.710162 204.808683 
L 55.112917 199.699295 
L 56.515149 191.204383 
L 57.917905 184.113745 
L 59.321704 185.384445 
L 60.724459 181.899954 
L 62.126692 175.781237 
L 63.531014 179.290285 
L 64.933769 195.856278 
L 66.337568 207.932327 
L 67.740323 207.148764 
L 69.144123 197.501395 
L 70.548445 177.181517 
L 71.950678 149.215366 
L 73.354999 138.192794 
L 74.759321 146.151685 
L 76.163121 130.459696 
L 77.567443 116.104186 
L 78.971242 110.566405 
L 80.375564 130.061904 
L 81.779886 162.476632 
L 83.185252 178.827087 
L 84.589574 189.750603 
L 85.993896 196.640544 
L 87.399262 199.723055 
L 88.803584 196.223065 
L 90.20895 194.309835 
L 93.01916 183.276762 
L 94.42296 164.462031 
L 95.828849 158.335031 
L 97.234737 164.026946 
L 98.640103 173.21165 
L 100.045992 174.235558 
L 101.451881 170.696515 
L 102.857247 158.359508 
L 104.263135 141.498593 
L 105.668502 130.048107 
L 107.07439 136.452591 
L 108.480279 149.961667 
L 109.887212 167.470093 
L 111.2931 182.46607 
L 112.698989 185.803849 
L 114.105922 181.578603 
L 116.919266 159.291891 
L 118.326721 155.458826 
L 119.732087 148.501964 
L 122.546998 83.357481 
L 123.953931 97.194061 
L 125.361386 146.003819 
L 126.768842 180.833949 
L 128.175775 196.325894 
L 129.58323 195.158362 
L 130.990685 189.503792 
L 132.397618 181.834204 
L 133.80664 168.234587 
L 135.214095 146.101911 
L 136.621551 116.254203 
L 138.030051 109.086958 
L 139.437506 111.305983 
L 140.846528 122.920727 
L 142.25555 135.492046 
L 143.662483 127.573039 
L 145.071505 123.265993 
L 146.480527 138.508099 
L 147.889549 173.636643 
L 149.298049 187.368879 
L 150.705504 187.586418 
L 153.525115 173.867926 
L 154.933615 168.991982 
L 156.342637 170.194432 
L 157.751659 181.791439 
L 159.160681 188.490625 
L 160.570747 190.505225 
L 161.979769 187.678941 
L 163.390358 184.193273 
L 164.79938 176.312727 
L 166.209969 163.072917 
L 167.620035 143.526022 
L 169.029057 136.279985 
L 170.439646 151.406572 
L 171.850235 162.598407 
L 173.260824 158.481711 
L 174.67089 151.072848 
L 176.081479 150.964063 
L 177.492068 162.381249 
L 178.902657 171.97963 
L 180.313245 183.132615 
L 181.723312 190.862258 
L 183.133901 194.804684 
L 184.546056 191.225689 
L 185.956645 190.763397 
L 187.3688 192.778847 
L 188.778867 196.339161 
L 190.191022 194.954434 
L 191.601611 189.711246 
L 193.013767 186.618745 
L 194.425922 195.384655 
L 195.838078 198.742431 
L 197.248666 202.602335 
L 198.6603 207.547352 
L 200.072455 209.186151 
L 201.484611 206.392305 
L 202.896766 205.894682 
L 204.310488 208.161363 
L 208.546433 207.269252 
L 211.37231 203.940289 
L 212.786033 203.315258 
L 214.198188 202.956052 
L 215.611911 200.255002 
L 217.024066 199.00495 
L 218.437788 196.673635 
L 219.851511 185.554167 
L 221.264711 175.495985 
L 222.678433 172.399426 
L 224.092155 172.29792 
L 225.505877 167.413149 
L 226.9196 161.73833 
L 228.333322 158.679775 
L 229.747044 166.497998 
L 231.160766 168.347853 
L 232.574488 167.729718 
L 233.989777 166.968707 
L 235.4035 169.212083 
L 236.818789 183.059288 
L 238.231989 191.64755 
L 239.647278 207.681878 
L 241.061 216.404326 
L 242.476289 206.050048 
L 243.891578 194.517325 
L 245.306867 188.862243 
L 246.720589 193.813056 
L 248.135878 186.803904 
L 249.551167 212.244445 
L 250.966456 216.404326 
L 253.798601 216.404326 
L 255.21389 211.979605 
L 256.629179 216.404326 
L 259.461324 216.404326 
L 260.876613 212.606063 
L 262.293468 216.404326 
L 266.540902 216.404326 
L 267.957758 214.600827 
L 269.374613 213.040381 
L 270.791469 216.404326 
L 286.380016 216.404326 
L 287.796871 188.463669 
L 289.215294 89.627241 
L 289.800913 -1 
M 300.095145 -1 
L 300.561629 122.855362 
L 301.980052 216.404326 
L 303.398474 216.404326 
L 304.816897 202.386347 
L 306.235319 187.073579 
L 307.655308 193.2142 
L 309.073731 203.953417 
L 310.49372 213.279024 
L 311.912142 216.404326 
L 314.750554 216.404326 
L 316.171066 207.647996 
L 317.591055 195.560548 
L 319.009477 213.090239 
L 320.429466 216.404326 
L 320.429466 216.404326 
" clip-path="url(#p7918b74dbf)" style="fill: none; stroke: #1f77b4; stroke-width: 1.5; stroke-linecap: square"/>
    <defs>
     <path id="m74e0ee6f04" d="M 0 1.5 
C 0.397805 1.5 0.77937 1.341951 1.06066 1.06066 
C 1.341951 0.77937 1.5 0.397805 1.5 0 
C 1.5 -0.397805 1.341951 -0.77937 1.06066 -1.06066 
C 0.77937 -1.341951 0.397805 -1.5 0 -1.5 
C -0.397805 -1.5 -0.77937 -1.341951 -1.06066 -1.06066 
C -1.341951 -0.77937 -1.5 -0.397805 -1.5 0 
C -1.5 0.397805 -1.341951 0.77937 -1.06066 1.06066 
C -0.77937 1.341951 -0.397805 1.5 0 1.5 
z
" style="stroke: #1f77b4"/>
    </defs>
    <g clip-path="url(#p7918b74dbf)">
     <use xlink:href="#m74e0ee6f04" x="34.08308" y="186.760902" style="fill-opacity: 0; stroke: #1f77b4"/>
     <use xlink:href="#m74e0ee6f04" x="35.483746" y="194.913107" style="fill-opacity: 0; stroke: #1f77b4"/>
     <use xlink:href="#m74e0ee6f04" x="36.884935" y="197.625423" style="fill-opacity: 0; stroke: #1f77b4"/>
     <use xlink:href="#m74e0ee6f04" x="38.287167" y="197.495367" style="fill-opacity: 0; stroke: #1f77b4"/>
     <use xlink:href="#m74e0ee6f04" x="39.688356" y="196.721403" style="fill-opacity: 0; stroke: #1f77b4"/>
     <use xlink:href="#m74e0ee6f04" x="41.090588" y="199.07761" style="fill-opacity: 0; stroke: #1f77b4"/>
     <use xlink:href="#m74e0ee6f04" x="42.491777" y="199.751181" style="fill-opacity: 0; stroke: #1f77b4"/>
     <use xlink:href="#m74e0ee6f04" x="43.89401" y="194.678472" style="fill-opacity: 0; stroke: #1f77b4"/>
     <use xlink:href="#m74e0ee6f04" x="45.296765" y="184.802131" style="fill-opacity: 0; stroke: #1f77b4"/>
     <use xlink:href="#m74e0ee6f04" x="46.697431" y="176.142685" style="fill-opacity: 0; stroke: #1f77b4"/>
     <use xlink:href="#m74e0ee6f04" x="48.100186" y="175.952754" style="fill-opacity: 0; stroke: #1f77b4"/>
     <use xlink:href="#m74e0ee6f04" x="49.502419" y="176.855127" style="fill-opacity: 0; stroke: #1f77b4"/>
     <use xlink:href="#m74e0ee6f04" x="50.905174" y="186.650255" style="fill-opacity: 0; stroke: #1f77b4"/>
     <use xlink:href="#m74e0ee6f04" x="52.307929" y="198.426469" style="fill-opacity: 0; stroke: #1f77b4"/>
     <use xlink:href="#m74e0ee6f04" x="53.710162" y="204.808683" style="fill-opacity: 0; stroke: #1f77b4"/>
     <use xlink:href="#m74e0ee6f04" x="55.112917" y="199.699295" style="fill-opacity: 0; stroke: #1f77b4"/>
     <use xlink:href="#m74e0ee6f04" x="56.515149" y="191.204383" style="fill-opacity: 0; stroke: #1f77b4"/>
     <use xlink:href="#m74e0ee6f04" x="57.917905" y="184.113745" style="fill-opacity: 0; stroke: #1f77b4"/>
     <use xlink:href="#m74e0ee6f04" x="59.321704" y="185.384445" style="fill-opacity: 0; stroke: #1f77b4"/>
     <use xlink:href="#m74e0ee6f04" x="60.724459" y="181.899954" style="fill-opacity: 0; stroke: #1f77b4"/>
     <use xlink:href="#m74e0ee6f04" x="62.126692" y="175.781237" style="fill-opacity: 0; stroke: #1f77b4"/>
     <use xlink:href="#m74e0ee6f04" x="63.531014" y="179.290285" style="fill-opacity: 0; stroke: #1f77b4"/>
     <use xlink:href="#m74e0ee6f04" x="64.933769" y="195.856278" style="fill-opacity: 0; stroke: #1f77b4"/>
     <use xlink:href="#m74e0ee6f04" x="66.337568" y="207.932327" style="fill-opacity: 0; stroke: #1f77b4"/>
     <use xlink:href="#m74e0ee6f04" x="67.740323" y="207.148764" style="fill-opacity: 0; stroke: #1f77b4"/>
     <use xlink:href="#m74e0ee6f04" x="69.144123" y="197.501395" style="fill-opacity: 0; stroke: #1f77b4"/>
     <use xlink:href="#m74e0ee6f04" x="70.548445" y="177.181517" style="fill-opacity: 0; stroke: #1f77b4"/>
     <use xlink:href="#m74e0ee6f04" x="71.950678" y="149.215366" style="fill-opacity: 0; stroke: #1f77b4"/>
     <use xlink:href="#m74e0ee6f04" x="73.354999" y="138.192794" style="fill-opacity: 0; stroke: #1f77b4"/>
     <use xlink:href="#m74e0ee6f04" x="74.759321" y="146.151685" style="fill-opacity: 0; stroke: #1f77b4"/>
     <use xlink:href="#m74e0ee6f04" x="76.163121" y="130.459696" style="fill-opacity: 0; stroke: #1f77b4"/>
     <use xlink:href="#m74e0ee6f04" x="77.567443" y="116.104186" style="fill-opacity: 0; stroke: #1f77b4"/>
     <use xlink:href="#m74e0ee6f04" x="78.971242" y="110.566405" style="fill-opacity: 0; stroke: #1f77b4"/>
     <use xlink:href="#m74e0ee6f04" x="80.375564" y="130.061904" style="fill-opacity: 0; stroke: #1f77b4"/>
     <use xlink:href="#m74e0ee6f04" x="81.779886" y="162.476632" style="fill-opacity: 0; stroke: #1f77b4"/>
     <use xlink:href="#m74e0ee6f04" x="83.185252" y="178.827087" style="fill-opacity: 0; stroke: #1f77b4"/>
     <use xlink:href="#m74e0ee6f04" x="84.589574" y="189.750603" style="fill-opacity: 0; stroke: #1f77b4"/>
     <use xlink:href="#m74e0ee6f04" x="85.993896" y="196.640544" style="fill-opacity: 0; stroke: #1f77b4"/>
     <use xlink:href="#m74e0ee6f04" x="87.399262" y="199.723055" style="fill-opacity: 0; stroke: #1f77b4"/>
     <use xlink:href="#m74e0ee6f04" x="88.803584" y="196.223065" style="fill-opacity: 0; stroke: #1f77b4"/>
     <use xlink:href="#m74e0ee6f04" x="90.20895" y="194.309835" style="fill-opacity: 0; stroke: #1f77b4"/>
     <use xlink:href="#m74e0ee6f04" x="91.613272" y="188.707147" style="fill-opacity: 0; stroke: #1f77b4"/>
     <use xlink:href="#m74e0ee6f04" x="93.01916" y="183.276762" style="fill-opacity: 0; stroke: #1f77b4"/>
     <use xlink:href="#m74e0ee6f04" x="94.42296" y="164.462031" style="fill-opacity: 0; stroke: #1f77b4"/>
     <use xlink:href="#m74e0ee6f04" x="95.828849" y="158.335031" style="fill-opacity: 0; stroke: #1f77b4"/>
     <use xlink:href="#m74e0ee6f04" x="97.234737" y="164.026946" style="fill-opacity: 0; stroke: #1f77b4"/>
     <use xlink:href="#m74e0ee6f04" x="98.640103" y="173.21165" style="fill-opacity: 0; stroke: #1f77b4"/>
     <use xlink:href="#m74e0ee6f04" x="100.045992" y="174.235558" style="fill-opacity: 0; stroke: #1f77b4"/>
     <use xlink:href="#m74e0ee6f04" x="101.451881" y="170.696515" style="fill-opacity: 0; stroke: #1f77b4"/>
     <use xlink:href="#m74e0ee6f04" x="102.857247" y="158.359508" style="fill-opacity: 0; stroke: #1f77b4"/>
     <use xlink:href="#m74e0ee6f04" x="104.263135" y="141.498593" style="fill-opacity: 0; stroke: #1f77b4"/>
     <use xlink:href="#m74e0ee6f04" x="105.668502" y="130.048107" style="fill-opacity: 0; stroke: #1f77b4"/>
     <use xlink:href="#m74e0ee6f04" x="107.07439" y="136.452591" style="fill-opacity: 0; stroke: #1f77b4"/>
     <use xlink:href="#m74e0ee6f04" x="108.480279" y="149.961667" style="fill-opacity: 0; stroke: #1f77b4"/>
     <use xlink:href="#m74e0ee6f04" x="109.887212" y="167.470093" style="fill-opacity: 0; stroke: #1f77b4"/>
     <use xlink:href="#m74e0ee6f04" x="111.2931" y="182.46607" style="fill-opacity: 0; stroke: #1f77b4"/>
     <use xlink:href="#m74e0ee6f04" x="112.698989" y="185.803849" style="fill-opacity: 0; stroke: #1f77b4"/>
     <use xlink:href="#m74e0ee6f04" x="114.105922" y="181.578603" style="fill-opacity: 0; stroke: #1f77b4"/>
     <use xlink:href="#m74e0ee6f04" x="115.51181" y="170.638253" style="fill-opacity: 0; stroke: #1f77b4"/>
     <use xlink:href="#m74e0ee6f04" x="116.919266" y="159.291891" style="fill-opacity: 0; stroke: #1f77b4"/>
     <use xlink:href="#m74e0ee6f04" x="118.326721" y="155.458826" style="fill-opacity: 0; stroke: #1f77b4"/>
     <use xlink:href="#m74e0ee6f04" x="119.732087" y="148.501964" style="fill-opacity: 0; stroke: #1f77b4"/>
     <use xlink:href="#m74e0ee6f04" x="121.139543" y="115.300733" style="fill-opacity: 0; stroke: #1f77b4"/>
     <use xlink:href="#m74e0ee6f04" x="122.546998" y="83.357481" style="fill-opacity: 0; stroke: #1f77b4"/>
     <use xlink:href="#m74e0ee6f04" x="123.953931" y="97.194061" style="fill-opacity: 0; stroke: #1f77b4"/>
     <use xlink:href="#m74e0ee6f04" x="125.361386" y="146.003819" style="fill-opacity: 0; stroke: #1f77b4"/>
     <use xlink:href="#m74e0ee6f04" x="126.768842" y="180.833949" style="fill-opacity: 0; stroke: #1f77b4"/>
     <use xlink:href="#m74e0ee6f04" x="128.175775" y="196.325894" style="fill-opacity: 0; stroke: #1f77b4"/>
     <use xlink:href="#m74e0ee6f04" x="129.58323" y="195.158362" style="fill-opacity: 0; stroke: #1f77b4"/>
     <use xlink:href="#m74e0ee6f04" x="130.990685" y="189.503792" style="fill-opacity: 0; stroke: #1f77b4"/>
     <use xlink:href="#m74e0ee6f04" x="132.397618" y="181.834204" style="fill-opacity: 0; stroke: #1f77b4"/>
     <use xlink:href="#m74e0ee6f04" x="133.80664" y="168.234587" style="fill-opacity: 0; stroke: #1f77b4"/>
     <use xlink:href="#m74e0ee6f04" x="135.214095" y="146.101911" style="fill-opacity: 0; stroke: #1f77b4"/>
     <use xlink:href="#m74e0ee6f04" x="136.621551" y="116.254203" style="fill-opacity: 0; stroke: #1f77b4"/>
     <use xlink:href="#m74e0ee6f04" x="138.030051" y="109.086958" style="fill-opacity: 0; stroke: #1f77b4"/>
     <use xlink:href="#m74e0ee6f04" x="139.437506" y="111.305983" style="fill-opacity: 0; stroke: #1f77b4"/>
     <use xlink:href="#m74e0ee6f04" x="140.846528" y="122.920727" style="fill-opacity: 0; stroke: #1f77b4"/>
     <use xlink:href="#m74e0ee6f04" x="142.25555" y="135.492046" style="fill-opacity: 0; stroke: #1f77b4"/>
     <use xlink:href="#m74e0ee6f04" x="143.662483" y="127.573039" style="fill-opacity: 0; stroke: #1f77b4"/>
     <use xlink:href="#m74e0ee6f04" x="145.071505" y="123.265993" style="fill-opacity: 0; stroke: #1f77b4"/>
     <use xlink:href="#m74e0ee6f04" x="146.480527" y="138.508099" style="fill-opacity: 0; stroke: #1f77b4"/>
     <use xlink:href="#m74e0ee6f04" x="147.889549" y="173.636643" style="fill-opacity: 0; stroke: #1f77b4"/>
     <use xlink:href="#m74e0ee6f04" x="149.298049" y="187.368879" style="fill-opacity: 0; stroke: #1f77b4"/>
     <use xlink:href="#m74e0ee6f04" x="150.705504" y="187.586418" style="fill-opacity: 0; stroke: #1f77b4"/>
     <use xlink:href="#m74e0ee6f04" x="152.114526" y="180.458293" style="fill-opacity: 0; stroke: #1f77b4"/>
     <use xlink:href="#m74e0ee6f04" x="153.525115" y="173.867926" style="fill-opacity: 0; stroke: #1f77b4"/>
     <use xlink:href="#m74e0ee6f04" x="154.933615" y="168.991982" style="fill-opacity: 0; stroke: #1f77b4"/>
     <use xlink:href="#m74e0ee6f04" x="156.342637" y="170.194432" style="fill-opacity: 0; stroke: #1f77b4"/>
     <use xlink:href="#m74e0ee6f04" x="157.751659" y="181.791439" style="fill-opacity: 0; stroke: #1f77b4"/>
     <use xlink:href="#m74e0ee6f04" x="159.160681" y="188.490625" style="fill-opacity: 0; stroke: #1f77b4"/>
     <use xlink:href="#m74e0ee6f04" x="160.570747" y="190.505225" style="fill-opacity: 0; stroke: #1f77b4"/>
     <use xlink:href="#m74e0ee6f04" x="161.979769" y="187.678941" style="fill-opacity: 0; stroke: #1f77b4"/>
     <use xlink:href="#m74e0ee6f04" x="163.390358" y="184.193273" style="fill-opacity: 0; stroke: #1f77b4"/>
     <use xlink:href="#m74e0ee6f04" x="164.79938" y="176.312727" style="fill-opacity: 0; stroke: #1f77b4"/>
     <use xlink:href="#m74e0ee6f04" x="166.209969" y="163.072917" style="fill-opacity: 0; stroke: #1f77b4"/>
     <use xlink:href="#m74e0ee6f04" x="167.620035" y="143.526022" style="fill-opacity: 0; stroke: #1f77b4"/>
     <use xlink:href="#m74e0ee6f04" x="169.029057" y="136.279985" style="fill-opacity: 0; stroke: #1f77b4"/>
     <use xlink:href="#m74e0ee6f04" x="170.439646" y="151.406572" style="fill-opacity: 0; stroke: #1f77b4"/>
     <use xlink:href="#m74e0ee6f04" x="171.850235" y="162.598407" style="fill-opacity: 0; stroke: #1f77b4"/>
     <use xlink:href="#m74e0ee6f04" x="173.260824" y="158.481711" style="fill-opacity: 0; stroke: #1f77b4"/>
     <use xlink:href="#m74e0ee6f04" x="174.67089" y="151.072848" style="fill-opacity: 0; stroke: #1f77b4"/>
     <use xlink:href="#m74e0ee6f04" x="176.081479" y="150.964063" style="fill-opacity: 0; stroke: #1f77b4"/>
     <use xlink:href="#m74e0ee6f04" x="177.492068" y="162.381249" style="fill-opacity: 0; stroke: #1f77b4"/>
     <use xlink:href="#m74e0ee6f04" x="178.902657" y="171.97963" style="fill-opacity: 0; stroke: #1f77b4"/>
     <use xlink:href="#m74e0ee6f04" x="180.313245" y="183.132615" style="fill-opacity: 0; stroke: #1f77b4"/>
     <use xlink:href="#m74e0ee6f04" x="181.723312" y="190.862258" style="fill-opacity: 0; stroke: #1f77b4"/>
     <use xlink:href="#m74e0ee6f04" x="183.133901" y="194.804684" style="fill-opacity: 0; stroke: #1f77b4"/>
     <use xlink:href="#m74e0ee6f04" x="184.546056" y="191.225689" style="fill-opacity: 0; stroke: #1f77b4"/>
     <use xlink:href="#m74e0ee6f04" x="185.956645" y="190.763397" style="fill-opacity: 0; stroke: #1f77b4"/>
     <use xlink:href="#m74e0ee6f04" x="187.3688" y="192.778847" style="fill-opacity: 0; stroke: #1f77b4"/>
     <use xlink:href="#m74e0ee6f04" x="188.778867" y="196.339161" style="fill-opacity: 0; stroke: #1f77b4"/>
     <use xlink:href="#m74e0ee6f04" x="190.191022" y="194.954434" style="fill-opacity: 0; stroke: #1f77b4"/>
     <use xlink:href="#m74e0ee6f04" x="191.601611" y="189.711246" style="fill-opacity: 0; stroke: #1f77b4"/>
     <use xlink:href="#m74e0ee6f04" x="193.013767" y="186.618745" style="fill-opacity: 0; stroke: #1f77b4"/>
     <use xlink:href="#m74e0ee6f04" x="194.425922" y="195.384655" style="fill-opacity: 0; stroke: #1f77b4"/>
     <use xlink:href="#m74e0ee6f04" x="195.838078" y="198.742431" style="fill-opacity: 0; stroke: #1f77b4"/>
     <use xlink:href="#m74e0ee6f04" x="197.248666" y="202.602335" style="fill-opacity: 0; stroke: #1f77b4"/>
     <use xlink:href="#m74e0ee6f04" x="198.6603" y="207.547352" style="fill-opacity: 0; stroke: #1f77b4"/>
     <use xlink:href="#m74e0ee6f04" x="200.072455" y="209.186151" style="fill-opacity: 0; stroke: #1f77b4"/>
     <use xlink:href="#m74e0ee6f04" x="201.484611" y="206.392305" style="fill-opacity: 0; stroke: #1f77b4"/>
     <use xlink:href="#m74e0ee6f04" x="202.896766" y="205.894682" style="fill-opacity: 0; stroke: #1f77b4"/>
     <use xlink:href="#m74e0ee6f04" x="204.310488" y="208.161363" style="fill-opacity: 0; stroke: #1f77b4"/>
     <use xlink:href="#m74e0ee6f04" x="205.722644" y="207.901338" style="fill-opacity: 0; stroke: #1f77b4"/>
     <use xlink:href="#m74e0ee6f04" x="207.134799" y="207.745998" style="fill-opacity: 0; stroke: #1f77b4"/>
     <use xlink:href="#m74e0ee6f04" x="208.546433" y="207.269252" style="fill-opacity: 0; stroke: #1f77b4"/>
     <use xlink:href="#m74e0ee6f04" x="209.960155" y="205.630983" style="fill-opacity: 0; stroke: #1f77b4"/>
     <use xlink:href="#m74e0ee6f04" x="211.37231" y="203.940289" style="fill-opacity: 0; stroke: #1f77b4"/>
     <use xlink:href="#m74e0ee6f04" x="212.786033" y="203.315258" style="fill-opacity: 0; stroke: #1f77b4"/>
     <use xlink:href="#m74e0ee6f04" x="214.198188" y="202.956052" style="fill-opacity: 0; stroke: #1f77b4"/>
     <use xlink:href="#m74e0ee6f04" x="215.611911" y="200.255002" style="fill-opacity: 0; stroke: #1f77b4"/>
     <use xlink:href="#m74e0ee6f04" x="217.024066" y="199.00495" style="fill-opacity: 0; stroke: #1f77b4"/>
     <use xlink:href="#m74e0ee6f04" x="218.437788" y="196.673635" style="fill-opacity: 0; stroke: #1f77b4"/>
     <use xlink:href="#m74e0ee6f04" x="219.851511" y="185.554167" style="fill-opacity: 0; stroke: #1f77b4"/>
     <use xlink:href="#m74e0ee6f04" x="221.264711" y="175.495985" style="fill-opacity: 0; stroke: #1f77b4"/>
     <use xlink:href="#m74e0ee6f04" x="222.678433" y="172.399426" style="fill-opacity: 0; stroke: #1f77b4"/>
     <use xlink:href="#m74e0ee6f04" x="224.092155" y="172.29792" style="fill-opacity: 0; stroke: #1f77b4"/>
     <use xlink:href="#m74e0ee6f04" x="225.505877" y="167.413149" style="fill-opacity: 0; stroke: #1f77b4"/>
     <use xlink:href="#m74e0ee6f04" x="226.9196" y="161.73833" style="fill-opacity: 0; stroke: #1f77b4"/>
     <use xlink:href="#m74e0ee6f04" x="228.333322" y="158.679775" style="fill-opacity: 0; stroke: #1f77b4"/>
     <use xlink:href="#m74e0ee6f04" x="229.747044" y="166.497998" style="fill-opacity: 0; stroke: #1f77b4"/>
     <use xlink:href="#m74e0ee6f04" x="231.160766" y="168.347853" style="fill-opacity: 0; stroke: #1f77b4"/>
     <use xlink:href="#m74e0ee6f04" x="232.574488" y="167.729718" style="fill-opacity: 0; stroke: #1f77b4"/>
     <use xlink:href="#m74e0ee6f04" x="233.989777" y="166.968707" style="fill-opacity: 0; stroke: #1f77b4"/>
     <use xlink:href="#m74e0ee6f04" x="235.4035" y="169.212083" style="fill-opacity: 0; stroke: #1f77b4"/>
     <use xlink:href="#m74e0ee6f04" x="236.818789" y="183.059288" style="fill-opacity: 0; stroke: #1f77b4"/>
     <use xlink:href="#m74e0ee6f04" x="238.231989" y="191.64755" style="fill-opacity: 0; stroke: #1f77b4"/>
     <use xlink:href="#m74e0ee6f04" x="239.647278" y="207.681878" style="fill-opacity: 0; stroke: #1f77b4"/>
     <use xlink:href="#m74e0ee6f04" x="241.061" y="216.404326" style="fill-opacity: 0; stroke: #1f77b4"/>
     <use xlink:href="#m74e0ee6f04" x="242.476289" y="206.050048" style="fill-opacity: 0; stroke: #1f77b4"/>
     <use xlink:href="#m74e0ee6f04" x="243.891578" y="194.517325" style="fill-opacity: 0; stroke: #1f77b4"/>
     <use xlink:href="#m74e0ee6f04" x="245.306867" y="188.862243" style="fill-opacity: 0; stroke: #1f77b4"/>
     <use xlink:href="#m74e0ee6f04" x="246.720589" y="193.813056" style="fill-opacity: 0; stroke: #1f77b4"/>
     <use xlink:href="#m74e0ee6f04" x="248.135878" y="186.803904" style="fill-opacity: 0; stroke: #1f77b4"/>
     <use xlink:href="#m74e0ee6f04" x="249.551167" y="212.244445" style="fill-opacity: 0; stroke: #1f77b4"/>
     <use xlink:href="#m74e0ee6f04" x="250.966456" y="216.404326" style="fill-opacity: 0; stroke: #1f77b4"/>
     <use xlink:href="#m74e0ee6f04" x="252.381745" y="216.404326" style="fill-opacity: 0; stroke: #1f77b4"/>
     <use xlink:href="#m74e0ee6f04" x="253.798601" y="216.404326" style="fill-opacity: 0; stroke: #1f77b4"/>
     <use xlink:href="#m74e0ee6f04" x="255.21389" y="211.979605" style="fill-opacity: 0; stroke: #1f77b4"/>
     <use xlink:href="#m74e0ee6f04" x="256.629179" y="216.404326" style="fill-opacity: 0; stroke: #1f77b4"/>
     <use xlink:href="#m74e0ee6f04" x="258.044468" y="216.404326" style="fill-opacity: 0; stroke: #1f77b4"/>
     <use xlink:href="#m74e0ee6f04" x="259.461324" y="216.404326" style="fill-opacity: 0; stroke: #1f77b4"/>
     <use xlink:href="#m74e0ee6f04" x="260.876613" y="212.606063" style="fill-opacity: 0; stroke: #1f77b4"/>
     <use xlink:href="#m74e0ee6f04" x="262.293468" y="216.404326" style="fill-opacity: 0; stroke: #1f77b4"/>
     <use xlink:href="#m74e0ee6f04" x="263.708757" y="216.404326" style="fill-opacity: 0; stroke: #1f77b4"/>
     <use xlink:href="#m74e0ee6f04" x="265.125613" y="216.404326" style="fill-opacity: 0; stroke: #1f77b4"/>
     <use xlink:href="#m74e0ee6f04" x="266.540902" y="216.404326" style="fill-opacity: 0; stroke: #1f77b4"/>
     <use xlink:href="#m74e0ee6f04" x="267.957758" y="214.600827" style="fill-opacity: 0; stroke: #1f77b4"/>
     <use xlink:href="#m74e0ee6f04" x="269.374613" y="213.040381" style="fill-opacity: 0; stroke: #1f77b4"/>
     <use xlink:href="#m74e0ee6f04" x="270.791469" y="216.404326" style="fill-opacity: 0; stroke: #1f77b4"/>
     <use xlink:href="#m74e0ee6f04" x="272.208325" y="216.404326" style="fill-opacity: 0; stroke: #1f77b4"/>
     <use xlink:href="#m74e0ee6f04" x="273.625181" y="216.404326" style="fill-opacity: 0; stroke: #1f77b4"/>
     <use xlink:href="#m74e0ee6f04" x="275.042036" y="216.404326" style="fill-opacity: 0; stroke: #1f77b4"/>
     <use xlink:href="#m74e0ee6f04" x="276.458892" y="216.404326" style="fill-opacity: 0; stroke: #1f77b4"/>
     <use xlink:href="#m74e0ee6f04" x="277.875748" y="216.404326" style="fill-opacity: 0; stroke: #1f77b4"/>
     <use xlink:href="#m74e0ee6f04" x="279.292604" y="216.404326" style="fill-opacity: 0; stroke: #1f77b4"/>
     <use xlink:href="#m74e0ee6f04" x="280.709459" y="216.404326" style="fill-opacity: 0; stroke: #1f77b4"/>
     <use xlink:href="#m74e0ee6f04" x="282.127882" y="216.404326" style="fill-opacity: 0; stroke: #1f77b4"/>
     <use xlink:href="#m74e0ee6f04" x="283.544737" y="216.404326" style="fill-opacity: 0; stroke: #1f77b4"/>
     <use xlink:href="#m74e0ee6f04" x="284.961593" y="216.404326" style="fill-opacity: 0; stroke: #1f77b4"/>
     <use xlink:href="#m74e0ee6f04" x="286.380016" y="216.404326" style="fill-opacity: 0; stroke: #1f77b4"/>
     <use xlink:href="#m74e0ee6f04" x="287.796871" y="188.463669" style="fill-opacity: 0; stroke: #1f77b4"/>
     <use xlink:href="#m74e0ee6f04" x="289.215294" y="89.627241" style="fill-opacity: 0; stroke: #1f77b4"/>
     <use xlink:href="#m74e0ee6f04" x="289.800913" y="-1" style="fill-opacity: 0; stroke: #1f77b4"/>
     <use xlink:href="#m74e0ee6f04" x="300.095145" y="-1" style="fill-opacity: 0; stroke: #1f77b4"/>
     <use xlink:href="#m74e0ee6f04" x="300.561629" y="122.855362" style="fill-opacity: 0; stroke: #1f77b4"/>
     <use xlink:href="#m74e0ee6f04" x="301.980052" y="216.404326" style="fill-opacity: 0; stroke: #1f77b4"/>
     <use xlink:href="#m74e0ee6f04" x="303.398474" y="216.404326" style="fill-opacity: 0; stroke: #1f77b4"/>
     <use xlink:href="#m74e0ee6f04" x="304.816897" y="202.386347" style="fill-opacity: 0; stroke: #1f77b4"/>
     <use xlink:href="#m74e0ee6f04" x="306.235319" y="187.073579" style="fill-opacity: 0; stroke: #1f77b4"/>
     <use xlink:href="#m74e0ee6f04" x="307.655308" y="193.2142" style="fill-opacity: 0; stroke: #1f77b4"/>
     <use xlink:href="#m74e0ee6f04" x="309.073731" y="203.953417" style="fill-opacity: 0; stroke: #1f77b4"/>
     <use xlink:href="#m74e0ee6f04" x="310.49372" y="213.279024" style="fill-opacity: 0; stroke: #1f77b4"/>
     <use xlink:href="#m74e0ee6f04" x="311.912142" y="216.404326" style="fill-opacity: 0; stroke: #1f77b4"/>
     <use xlink:href="#m74e0ee6f04" x="313.332132" y="216.404326" style="fill-opacity: 0; stroke: #1f77b4"/>
     <use xlink:href="#m74e0ee6f04" x="314.750554" y="216.404326" style="fill-opacity: 0; stroke: #1f77b4"/>
     <use xlink:href="#m74e0ee6f04" x="316.171066" y="207.647996" style="fill-opacity: 0; stroke: #1f77b4"/>
     <use xlink:href="#m74e0ee6f04" x="317.591055" y="195.560548" style="fill-opacity: 0; stroke: #1f77b4"/>
     <use xlink:href="#m74e0ee6f04" x="319.009477" y="213.090239" style="fill-opacity: 0; stroke: #1f77b4"/>
     <use xlink:href="#m74e0ee6f04" x="320.429466" y="216.404326" style="fill-opacity: 0; stroke: #1f77b4"/>
    </g>
   </g>
   <g id="line2d_2">
    <path d="M 34.08308 214.900292 
L 42.491777 214.379517 
L 48.100186 213.812144 
L 52.307929 213.157994 
L 55.112917 212.528325 
L 57.917905 211.632687 
L 59.321704 211.028553 
L 60.724459 210.269188 
L 62.126692 209.288917 
L 63.531014 207.977721 
L 64.933769 206.149656 
L 66.337568 203.437125 
L 67.740323 199.05224 
L 69.144123 190.977418 
L 70.548445 173.524501 
L 71.950678 141.280868 
L 73.354999 140.921046 
L 74.759321 146.658245 
L 76.163121 129.582871 
L 77.567443 107.872948 
L 78.971242 114.461039 
L 80.375564 143.247451 
L 81.779886 167.091993 
L 83.185252 181.418275 
L 84.589574 189.456448 
L 85.993896 193.789568 
L 87.399262 195.738191 
L 88.803584 195.793646 
L 90.20895 193.793428 
L 91.613272 188.719463 
L 93.01916 178.272692 
L 94.42296 162.244752 
L 95.828849 157.452133 
L 97.234737 168.488252 
L 98.640103 174.909544 
L 100.045992 173.557381 
L 101.451881 165.896742 
L 102.857247 152.910984 
L 104.263135 138.28293 
L 105.668502 131.641634 
L 107.07439 139.486309 
L 108.480279 154.67241 
L 109.887212 168.211872 
L 111.2931 177.3579 
L 112.698989 182.495883 
L 114.105922 184.282181 
L 115.51181 182.75714 
L 116.919266 176.899193 
L 118.326721 163.792125 
L 119.732087 137.618196 
L 121.139543 97.137779 
L 122.546998 83.583846 
L 123.953931 120.313504 
L 125.361386 154.011069 
L 126.768842 171.929323 
L 128.175775 180.258189 
L 129.58323 183.076544 
L 130.990685 181.857509 
L 132.397618 176.409609 
L 133.80664 165.004636 
L 135.214095 144.696582 
L 136.621551 116.420981 
L 138.030051 100.806283 
L 139.437506 115.449041 
L 140.846528 133.932584 
L 142.25555 135.905184 
L 143.662483 122.040393 
L 145.071505 125.750552 
L 146.480527 153.48668 
L 147.889549 172.800145 
L 149.298049 181.952838 
L 150.705504 184.899072 
L 152.114526 182.549484 
L 153.525115 173.587967 
L 154.933615 166.012967 
L 157.751659 184.324995 
L 159.160681 187.710433 
L 160.570747 187.890766 
L 161.979769 186.021899 
L 163.390358 182.169174 
L 164.79938 175.227036 
L 166.209969 160.953726 
L 167.620035 135.647481 
L 169.029057 142.363256 
L 170.439646 153.597087 
L 171.850235 155.723625 
L 173.260824 156.203066 
L 174.67089 157.82113 
L 176.081479 161.223129 
L 177.492068 166.045082 
L 181.723312 182.163439 
L 183.133901 186.638138 
L 184.546056 190.454659 
L 185.956645 193.646799 
L 187.3688 196.297573 
L 188.778867 198.482442 
L 190.191022 200.283684 
L 191.601611 201.761179 
L 193.013767 202.971406 
L 194.425922 203.955039 
L 195.838078 204.745224 
L 197.248666 205.366567 
L 198.6603 205.838746 
L 200.072455 206.173926 
L 201.484611 206.379206 
L 202.896766 206.456831 
L 204.310488 206.403771 
L 205.722644 206.211625 
L 207.134799 205.865371 
L 208.546433 205.342197 
L 209.960155 204.607526 
L 211.37231 203.616471 
L 212.786033 202.302333 
L 214.198188 200.580318 
L 215.611911 198.329182 
L 217.024066 195.402697 
L 218.437788 191.613767 
L 219.851511 186.788207 
L 221.264711 180.85506 
L 224.092155 167.304425 
L 225.505877 162.252669 
L 226.9196 160.625351 
L 228.333322 162.757753 
L 229.747044 166.981619 
L 231.160766 170.351027 
L 232.574488 169.102136 
L 233.989777 164.284131 
L 235.4035 174.422263 
L 236.818789 187.265214 
L 238.231989 194.157324 
L 239.647278 197.733108 
L 241.061 199.392607 
L 242.476289 199.455428 
L 243.891578 197.585298 
L 245.306867 193.231746 
L 246.720589 188.315771 
L 248.135878 189.773837 
L 249.551167 196.639498 
L 250.966456 202.394982 
L 252.381745 205.983257 
L 253.798601 208.198851 
L 255.21389 209.642968 
L 256.629179 210.646189 
L 258.044468 211.381739 
L 260.876613 212.392236 
L 263.708757 213.059815 
L 267.957758 213.731461 
L 273.625181 214.307634 
L 280.709459 214.76844 
L 290.633716 215.172675 
L 304.816897 215.515493 
L 320.429466 215.740456 
L 320.429466 215.740456 
" clip-path="url(#p7918b74dbf)" style="fill: none; stroke: #ff0000; stroke-width: 1.5; stroke-linecap: square"/>
   </g>
   <g id="line2d_3">
    <path d="M 294.887417 216.404326 
L 294.887417 17.735865 
" clip-path="url(#p7918b74dbf)" style="fill: none; stroke-dasharray: 3.7,1.6; stroke-dashoffset: 0; stroke: #808080"/>
   </g>
   <g id="patch_3">
    <path d="M 33.763987 216.404326 
L 33.763987 17.735865 
" style="fill: none; stroke: #000000; stroke-linejoin: miter; stroke-linecap: square"/>
   </g>
   <g id="patch_4">
    <path d="M 320.99976 216.404326 
L 320.99976 17.735865 
" style="fill: none; stroke: #000000; stroke-linejoin: miter; stroke-linecap: square"/>
   </g>
   <g id="patch_5">
    <path d="M 33.763987 216.404326 
L 320.99976 216.404326 
" style="fill: none; stroke: #000000; stroke-linejoin: miter; stroke-linecap: square"/>
   </g>
   <g id="patch_6">
    <path d="M 33.763987 17.735865 
L 320.99976 17.735865 
" style="fill: none; stroke: #000000; stroke-linejoin: miter; stroke-linecap: square"/>
   </g>
   <g id="matplotlib.axis_1">
    <g id="xtick_1">
     <g id="line2d_4">
      <defs>
       <path id="m11bab64395" d="M 0 0 
L 0 3.75 
" style="stroke: #000000; stroke-width: 1.25"/>
      </defs>
      <g>
       <use xlink:href="#m11bab64395" x="33.763987" y="216.404326" style="stroke: #000000; stroke-width: 1.25"/>
      </g>
     </g>
     <g id="text_1">
      <!-- $\mathdefault{429}$ -->
      <g transform="translate(24.578987 231.52792)">
       <text>
        <tspan style="font: 11px 'Arial'" x="0 6.117676 12.235352" y="-0.09375">429</tspan>
       </text>
      </g>
     </g>
    </g>
    <g id="xtick_2">
     <g id="line2d_5">
      <g>
       <use xlink:href="#m11bab64395" x="85.988673" y="216.404326" style="stroke: #000000; stroke-width: 1.25"/>
      </g>
     </g>
     <g id="text_2">
      <!-- $\mathdefault{430}$ -->
      <g transform="translate(76.803673 231.52792)">
       <text>
        <tspan style="font: 11px 'Arial'" x="0 6.117676 12.235352" y="-0.09375">430</tspan>
       </text>
      </g>
     </g>
    </g>
    <g id="xtick_3">
     <g id="line2d_6">
      <g>
       <use xlink:href="#m11bab64395" x="138.213359" y="216.404326" style="stroke: #000000; stroke-width: 1.25"/>
      </g>
     </g>
     <g id="text_3">
      <!-- $\mathdefault{431}$ -->
      <g transform="translate(129.028359 231.52792)">
       <text>
        <tspan style="font: 11px 'Arial'" x="0 6.117676 12.235352" y="-0.09375">431</tspan>
       </text>
      </g>
     </g>
    </g>
    <g id="xtick_4">
     <g id="line2d_7">
      <g>
       <use xlink:href="#m11bab64395" x="190.438045" y="216.404326" style="stroke: #000000; stroke-width: 1.25"/>
      </g>
     </g>
     <g id="text_4">
      <!-- $\mathdefault{432}$ -->
      <g transform="translate(181.253045 231.52792)">
       <text>
        <tspan style="font: 11px 'Arial'" x="0 6.117676 12.235352" y="-0.09375">432</tspan>
       </text>
      </g>
     </g>
    </g>
    <g id="xtick_5">
     <g id="line2d_8">
      <g>
       <use xlink:href="#m11bab64395" x="242.662731" y="216.404326" style="stroke: #000000; stroke-width: 1.25"/>
      </g>
     </g>
     <g id="text_5">
      <!-- $\mathdefault{433}$ -->
      <g transform="translate(233.477731 231.52792)">
       <text>
        <tspan style="font: 11px 'Arial'" x="0 6.117676 12.235352" y="-0.09375">433</tspan>
       </text>
      </g>
     </g>
    </g>
    <g id="xtick_6">
     <g id="line2d_9">
      <g>
       <use xlink:href="#m11bab64395" x="294.887417" y="216.404326" style="stroke: #000000; stroke-width: 1.25"/>
      </g>
     </g>
     <g id="text_6">
      <!-- $\mathdefault{434}$ -->
      <g transform="translate(285.702417 231.52792)">
       <text>
        <tspan style="font: 11px 'Arial'" x="0 6.117676 12.235352" y="-0.09375">434</tspan>
       </text>
      </g>
     </g>
    </g>
    <g id="text_7">
     <!-- $\lambda$ {\sffamily (nm)} -->
     <g transform="translate(159.586736 246.411565) scale(0.12 -0.12)">
      <defs>
       <path id="StandardSymL-6c" d="M 480 3650 
C 525 4013 710 4224 998 4224 
C 1203 4224 1376 4064 1472 3778 
C 1517 3650 1574 3440 1632 3198 
L 154 19 
L 755 19 
L 1843 2301 
C 2048 1059 2150 607 2266 358 
C 2406 83 2611 -64 2848 -64 
C 3098 -64 3296 89 3405 371 
C 3475 543 3501 715 3507 1014 
L 3373 1014 
C 3322 683 3174 499 2944 499 
C 2752 499 2586 620 2483 843 
C 2400 1008 2355 1174 2266 1645 
L 2093 2466 
C 2086 2485 2080 2530 2067 2594 
C 1920 3415 1690 4192 1536 4422 
C 1395 4627 1203 4736 992 4736 
C 602 4736 397 4403 326 3650 
L 480 3650 
z
" transform="scale(0.015625)"/>
       <path id="NimbusSanL-Regu-28" d="M 1510 4672 
C 870 3833 467 2668 467 1663 
C 467 652 870 -513 1510 -1351 
L 1862 -1351 
C 1299 -436 986 639 986 1663 
C 986 2681 1299 3763 1862 4672 
L 1510 4672 
z
" transform="scale(0.015625)"/>
       <path id="NimbusSanL-Regu-6e" d="M 448 3328 
L 448 0 
L 986 0 
L 986 1835 
C 986 2539 1344 2988 1894 2988 
C 2317 2988 2586 2732 2586 2328 
L 2586 0 
L 3117 0 
L 3117 2539 
C 3117 3097 2701 3456 2054 3456 
C 1555 3456 1235 3263 941 2796 
L 941 3328 
L 448 3328 
z
" transform="scale(0.015625)"/>
       <path id="NimbusSanL-Regu-6d" d="M 448 3328 
L 448 0 
L 986 0 
L 986 2089 
C 986 2597 1338 2988 1773 2988 
C 2170 2988 2394 2744 2394 2315 
L 2394 0 
L 2931 0 
L 2931 2109 
C 2931 2597 3283 2988 3718 2988 
C 4109 2988 4339 2738 4339 2315 
L 4339 0 
L 4877 0 
L 4877 2520 
C 4877 3123 4531 3456 3904 3456 
C 3456 3456 3187 3321 2874 2943 
C 2675 3302 2406 3456 1971 3456 
C 1523 3456 1229 3289 941 2886 
L 941 3328 
L 448 3328 
z
" transform="scale(0.015625)"/>
       <path id="NimbusSanL-Regu-29" d="M 595 -1351 
C 1235 -513 1638 652 1638 1657 
C 1638 2668 1235 3833 595 4672 
L 243 4672 
C 806 3756 1120 2681 1120 1657 
C 1120 639 806 -442 243 -1351 
L 595 -1351 
z
" transform="scale(0.015625)"/>
      </defs>
      <use xlink:href="#StandardSymL-6c" transform="scale(0.996264)"/>
      <use xlink:href="#NimbusSanL-Regu-28" transform="translate(91.855235 0) scale(0.996264)"/>
      <use xlink:href="#NimbusSanL-Regu-6e" transform="translate(125.030464 0) scale(0.996264)"/>
      <use xlink:href="#NimbusSanL-Regu-6d" transform="translate(180.422141 0) scale(0.996264)"/>
      <use xlink:href="#NimbusSanL-Regu-29" transform="translate(263.410572 0) scale(0.996264)"/>
     </g>
    </g>
   </g>
   <g id="matplotlib.axis_2">
    <g id="ytick_1">
     <g id="line2d_10">
      <defs>
       <path id="m54d738d7d9" d="M 0 0 
L -3.75 0 
" style="stroke: #000000; stroke-width: 1.25"/>
      </defs>
      <g>
       <use xlink:href="#m54d738d7d9" x="33.763987" y="216.404326" style="stroke: #000000; stroke-width: 1.25"/>
      </g>
     </g>
     <g id="text_8">
      <!-- $\mathdefault{0}$ -->
      <g transform="translate(20.353987 220.341123)">
       <text>
        <tspan style="font: 11px 'Arial'" x="0" y="-0.09375">0</tspan>
       </text>
      </g>
     </g>
    </g>
    <g id="ytick_2">
     <g id="line2d_11">
      <g>
       <use xlink:href="#m54d738d7d9" x="33.763987" y="178.292669" style="stroke: #000000; stroke-width: 1.25"/>
      </g>
     </g>
     <g id="text_9">
      <!-- $\mathdefault{1}$ -->
      <g transform="translate(20.353987 182.229466)">
       <text>
        <tspan style="font: 11px 'Arial'" x="0" y="-0.09375">1</tspan>
       </text>
      </g>
     </g>
    </g>
    <g id="ytick_3">
     <g id="line2d_12">
      <g>
       <use xlink:href="#m54d738d7d9" x="33.763987" y="140.181013" style="stroke: #000000; stroke-width: 1.25"/>
      </g>
     </g>
     <g id="text_10">
      <!-- $\mathdefault{2}$ -->
      <g transform="translate(20.353987 144.11781)">
       <text>
        <tspan style="font: 11px 'Arial'" x="0" y="-0.09375">2</tspan>
       </text>
      </g>
     </g>
    </g>
    <g id="ytick_4">
     <g id="line2d_13">
      <g>
       <use xlink:href="#m54d738d7d9" x="33.763987" y="102.069357" style="stroke: #000000; stroke-width: 1.25"/>
      </g>
     </g>
     <g id="text_11">
      <!-- $\mathdefault{3}$ -->
      <g transform="translate(20.353987 106.006153)">
       <text>
        <tspan style="font: 11px 'Arial'" x="0" y="-0.09375">3</tspan>
       </text>
      </g>
     </g>
    </g>
    <g id="ytick_5">
     <g id="line2d_14">
      <g>
       <use xlink:href="#m54d738d7d9" x="33.763987" y="63.9577" style="stroke: #000000; stroke-width: 1.25"/>
      </g>
     </g>
     <g id="text_12">
      <!-- $\mathdefault{4}$ -->
      <g transform="translate(20.353987 67.894497)">
       <text>
        <tspan style="font: 11px 'Arial'" x="0" y="-0.125">4</tspan>
       </text>
      </g>
     </g>
    </g>
    <g id="ytick_6">
     <g id="line2d_15">
      <g>
       <use xlink:href="#m54d738d7d9" x="33.763987" y="25.846044" style="stroke: #000000; stroke-width: 1.25"/>
      </g>
     </g>
     <g id="text_13">
      <!-- $\mathdefault{5}$ -->
      <g transform="translate(20.353987 29.782841)">
       <text>
        <tspan style="font: 11px 'Arial'" x="0" y="-0.234375">5</tspan>
       </text>
      </g>
     </g>
    </g>
    <g id="text_14">
     <!-- $B_{\lambda}$ {\sffamily (photons/cm\textsuperscript{2}/s/nm)} -->
     <g transform="translate(13.728305 177.714049) rotate(-90) scale(0.12 -0.12)">
      <defs>
       <path id="NimbusRomNo9L-ReguItal-42" d="M -51 0 
L 1754 0 
C 2758 0 3450 523 3450 1274 
C 3450 1510 3373 1732 3232 1872 
C 3104 2019 2976 2095 2643 2235 
C 3098 2344 3283 2420 3488 2598 
C 3667 2751 3763 2968 3763 3222 
C 3763 3827 3309 4160 2483 4160 
L 832 4160 
L 832 4057 
C 1229 4025 1325 3974 1325 3795 
C 1325 3700 1299 3541 1254 3388 
L 467 574 
C 352 204 307 166 -51 102 
L -51 0 
z
M 1523 2108 
C 1939 2108 2208 2083 2336 2032 
C 2598 1923 2758 1643 2758 1299 
C 2758 612 2285 192 1504 192 
C 1235 192 1094 287 1094 459 
C 1094 535 1171 841 1318 1350 
C 1402 1637 1440 1783 1523 2108 
z
M 2003 3789 
C 2042 3929 2118 3967 2368 3967 
C 2880 3967 3117 3751 3117 3280 
C 3117 2917 2963 2637 2688 2484 
C 2470 2356 2163 2312 1587 2312 
L 2003 3789 
z
" transform="scale(0.015625)"/>
       <path id="NimbusSanL-Regu-70" d="M 346 -1408 
L 883 -1408 
L 883 371 
C 1165 25 1478 -128 1914 -128 
C 2778 -128 3347 568 3347 1632 
C 3347 2752 2797 3456 1907 3456 
C 1453 3456 1088 3251 838 2854 
L 838 3359 
L 346 3359 
L 346 -1408 
z
M 1818 2956 
C 2406 2956 2790 2440 2790 1644 
C 2790 887 2400 371 1818 371 
C 1254 371 883 880 883 1663 
C 883 2447 1254 2956 1818 2956 
z
" transform="scale(0.015625)"/>
       <path id="NimbusSanL-Regu-68" d="M 448 4672 
L 448 0 
L 979 0 
L 979 1853 
C 979 2539 1338 2988 1888 2988 
C 2061 2988 2234 2930 2362 2834 
C 2515 2725 2579 2565 2579 2328 
L 2579 0 
L 3110 0 
L 3110 2539 
C 3110 3103 2707 3456 2054 3456 
C 1581 3456 1293 3308 979 2898 
L 979 4672 
L 448 4672 
z
" transform="scale(0.015625)"/>
       <path id="NimbusSanL-Regu-6f" d="M 1741 3456 
C 800 3456 230 2784 230 1663 
C 230 543 794 -128 1747 -128 
C 2688 -128 3264 543 3264 1638 
C 3264 2791 2707 3456 1741 3456 
z
M 1747 2963 
C 2349 2963 2707 2472 2707 1644 
C 2707 861 2336 364 1747 364 
C 1152 364 787 855 787 1663 
C 787 2466 1152 2963 1747 2963 
z
" transform="scale(0.015625)"/>
       <path id="NimbusSanL-Regu-74" d="M 1626 3328 
L 1075 3328 
L 1075 4249 
L 544 4249 
L 544 3328 
L 90 3328 
L 90 2892 
L 544 2892 
L 544 402 
C 544 64 774 -128 1190 -128 
C 1318 -128 1446 -116 1626 -84 
L 1626 364 
C 1555 345 1472 339 1370 339 
C 1139 339 1075 402 1075 634 
L 1075 2892 
L 1626 2892 
L 1626 3328 
z
" transform="scale(0.015625)"/>
       <path id="NimbusSanL-Regu-73" d="M 2803 2428 
C 2797 3084 2362 3456 1587 3456 
C 806 3456 301 3052 301 2434 
C 301 1912 570 1663 1363 1472 
L 1862 1351 
C 2234 1262 2381 1129 2381 887 
C 2381 574 2067 364 1600 364 
C 1312 364 1069 447 934 587 
C 851 683 813 778 781 1014 
L 218 1014 
C 243 243 678 -128 1555 -128 
C 2400 -128 2938 288 2938 931 
C 2938 1428 2656 1702 1990 1861 
L 1478 1982 
C 1043 2084 858 2224 858 2459 
C 858 2765 1133 2963 1568 2963 
C 1997 2963 2227 2778 2240 2428 
L 2803 2428 
z
" transform="scale(0.015625)"/>
       <path id="NimbusSanL-Regu-2f" d="M 1466 4672 
L -51 -128 
L 301 -128 
L 1818 4672 
L 1466 4672 
z
" transform="scale(0.015625)"/>
       <path id="NimbusSanL-Regu-63" d="M 3014 2237 
C 2989 2561 2918 2771 2790 2956 
C 2560 3270 2157 3456 1690 3456 
C 787 3456 198 2740 198 1632 
C 198 555 774 -128 1683 -128 
C 2483 -128 2989 352 3053 1167 
L 2515 1167 
C 2426 632 2150 364 1696 364 
C 1107 364 755 842 755 1632 
C 755 2466 1101 2963 1683 2963 
C 2131 2963 2413 2701 2477 2237 
L 3014 2237 
z
" transform="scale(0.015625)"/>
       <path id="NimbusSanL-Regu-32" d="M 3238 556 
L 851 556 
C 909 928 1114 1165 1670 1493 
L 2310 1839 
C 2944 2185 3270 2653 3270 3211 
C 3270 3589 3117 3942 2848 4185 
C 2579 4428 2246 4544 1818 4544 
C 1242 4544 813 4339 563 3955 
C 403 3711 333 3429 320 2967 
L 883 2967 
C 902 3275 941 3461 1018 3608 
C 1165 3884 1459 4051 1798 4051 
C 2310 4051 2694 3685 2694 3198 
C 2694 2839 2483 2531 2080 2300 
L 1491 1967 
C 544 1428 269 999 218 0 
L 3238 0 
L 3238 556 
z
" transform="scale(0.015625)"/>
      </defs>
      <use xlink:href="#NimbusRomNo9L-ReguItal-42" transform="scale(0.996264)"/>
      <use xlink:href="#StandardSymL-6c" transform="translate(60.871631 -20.616338) scale(0.737241)"/>
      <use xlink:href="#NimbusSanL-Regu-28" transform="translate(135.818713 0) scale(0.996264)"/>
      <use xlink:href="#NimbusSanL-Regu-70" transform="translate(168.993943 0) scale(0.996264)"/>
      <use xlink:href="#NimbusSanL-Regu-68" transform="translate(224.38562 0) scale(0.996264)"/>
      <use xlink:href="#NimbusSanL-Regu-6f" transform="translate(279.777297 0) scale(0.996264)"/>
      <use xlink:href="#NimbusSanL-Regu-74" transform="translate(335.168974 0) scale(0.996264)"/>
      <use xlink:href="#NimbusSanL-Regu-6f" transform="translate(362.864143 0) scale(0.996264)"/>
      <use xlink:href="#NimbusSanL-Regu-6e" transform="translate(418.25582 0) scale(0.996264)"/>
      <use xlink:href="#NimbusSanL-Regu-73" transform="translate(473.647497 0) scale(0.996264)"/>
      <use xlink:href="#NimbusSanL-Regu-2f" transform="translate(523.460698 0) scale(0.996264)"/>
      <use xlink:href="#NimbusSanL-Regu-63" transform="translate(551.155868 0) scale(0.996264)"/>
      <use xlink:href="#NimbusSanL-Regu-6d" transform="translate(600.969068 0) scale(0.996264)"/>
      <use xlink:href="#NimbusSanL-Regu-32" transform="translate(683.957498 36.163231) scale(0.737241)"/>
      <use xlink:href="#NimbusSanL-Regu-2f" transform="translate(725.445777 0) scale(0.996264)"/>
      <use xlink:href="#NimbusSanL-Regu-73" transform="translate(753.140947 0) scale(0.996264)"/>
      <use xlink:href="#NimbusSanL-Regu-2f" transform="translate(802.954147 0) scale(0.996264)"/>
      <use xlink:href="#NimbusSanL-Regu-6e" transform="translate(830.649317 0) scale(0.996264)"/>
      <use xlink:href="#NimbusSanL-Regu-6d" transform="translate(886.040994 0) scale(0.996264)"/>
      <use xlink:href="#NimbusSanL-Regu-29" transform="translate(969.029424 0) scale(0.996264)"/>
     </g>
    </g>
    <g id="text_15">
     <!-- $\times\mathdefault{10^{12}}\mathdefault{}$ -->
     <g transform="translate(33.763987 14.735865)">
      <text>
       <tspan style="font: 11px 'STIXGeneral'" x="0" y="-0.799312500000001"></tspan>
       <tspan style="font: 11px 'Arial'" x="7.039993 13.157669" y="-0.799312500000001">10</tspan>
       <tspan style="font: 7.7px 'Arial'" x="19.467003 23.749376" y="-8.465625">12</tspan>
      </text>
     </g>
    </g>
   </g>
   <g id="patch_7">
    <path d="M 215.490817 47.652918 
L 215.490817 67.40298 
L 293.769383 67.40298 
" style="fill: none; stroke: #000000; stroke-linecap: round"/>
    <path d="M 289.769383 65.40298 
L 293.769383 67.40298 
L 289.769383 69.40298 
" style="fill: none; stroke: #000000; stroke-linecap: round"/>
   </g>
   <g id="text_16">
    <g id="patch_8">
     <path d="M 181.790817 50.702711 
L 249.190817 50.702711 
Q 252.190817 50.702711 252.190817 47.702711 
L 252.190817 37.602711 
Q 252.190817 34.602711 249.190817 34.602711 
L 181.790817 34.602711 
Q 178.790817 34.602711 178.790817 37.602711 
L 178.790817 47.702711 
Q 178.790817 50.702711 181.790817 50.702711 
z
" style="fill: #f5deb3; stroke: #000000; stroke-linejoin: miter"/>
    </g>
    <!-- D$_{\gamma}$ (434.00) nm -->
    <g transform="translate(181.790817 44.902711)">
     <text>
      <tspan style="font: 10px 'Arial'" x="0 10.686517 13.464837 16.794915 22.356439 27.917962 33.479486 36.257806 41.81933 47.380853 50.710931 53.489251 59.050775" y="-0.71875">D(434.00)nm</tspan>
      <tspan style="font: italic 7px 'STIXGeneral'" x="7.375898" y="0.6031250000000004"></tspan>
     </text>
    </g>
   </g>
   <g id="text_17">
    <text style="font: 10px 'Arial'; text-anchor: middle" x="226.05444" y="100.678904" transform="rotate(-0 226.05444 100.678904)">Q-branch</text>
   </g>
   <g id="text_18">
    <text style="font: 10px 'Arial'; text-anchor: middle" x="115.245996" y="18.567888" transform="rotate(-0 115.245996 18.567888)">B-D + C-D</text>
   </g>
   <g id="text_19">
    <text style="font: 700 12px 'Arial'; text-anchor: middle" x="177.381874" y="11.735865" transform="rotate(-0 177.381874 11.735865)">HP boron rod (redeposit test) - 21 min</text>
   </g>
  </g>
 </g>
 <defs>
  <clipPath id="p7918b74dbf">
   <rect x="33.763987" y="17.735865" width="287.235773" height="198.668461"/>
  </clipPath>
 </defs>
</svg>
