<?xml version="1.0" encoding="utf-8" standalone="no"?>
<!DOCTYPE svg PUBLIC "-//W3C//DTD SVG 1.1//EN"
  "http://www.w3.org/Graphics/SVG/1.1/DTD/svg11.dtd">
<svg xmlns:xlink="http://www.w3.org/1999/xlink" width="324pt" height="252pt" viewBox="0 0 324 252" xmlns="http://www.w3.org/2000/svg" version="1.1">
 <metadata>
  <rdf:RDF xmlns:dc="http://purl.org/dc/elements/1.1/" xmlns:cc="http://creativecommons.org/ns#" xmlns:rdf="http://www.w3.org/1999/02/22-rdf-syntax-ns#">
   <cc:Work>
    <dc:type rdf:resource="http://purl.org/dc/dcmitype/StillImage"/>
    <dc:date>2024-12-06T11:06:52.051212</dc:date>
    <dc:format>image/svg+xml</dc:format>
    <dc:creator>
     <cc:Agent>
      <dc:title>Matplotlib v3.9.2, https://matplotlib.org/</dc:title>
     </cc:Agent>
    </dc:creator>
   </cc:Work>
  </rdf:RDF>
 </metadata>
 <defs>
  <style type="text/css">*{stroke-linejoin: round; stroke-linecap: butt}</style>
 </defs>
 <g id="figure_1">
  <g id="patch_1">
   <path d="M 0 252 
L 324 252 
L 324 0 
L 0 0 
z
" style="fill: #ffffff"/>
  </g>
  <g id="axes_1">
   <g id="patch_2">
    <path d="M 43.003987 216.404326 
L 320.99976 216.404326 
L 320.99976 17.735865 
L 43.003987 17.735865 
z
" style="fill: #ffffff"/>
   </g>
   <g id="PolyCollection_1">
    <path d="M 43.29563 216.369435 
L 43.29563 216.404326 
L 44.651744 216.404326 
L 46.008869 216.404326 
L 47.364983 216.404326 
L 48.722108 216.404326 
L 50.078222 216.404326 
L 51.435346 216.404326 
L 52.792977 216.404326 
L 54.148585 216.404326 
L 55.506215 216.404326 
L 56.86334 216.404326 
L 58.22097 216.404326 
L 59.578601 216.404326 
L 60.935726 216.404326 
L 62.293356 216.404326 
L 63.650481 216.404326 
L 65.008111 216.404326 
L 66.366752 216.404326 
L 67.724382 216.404326 
L 69.081507 216.404326 
L 70.440654 216.404326 
L 71.798284 216.404326 
L 73.156925 216.404326 
L 74.514555 216.404326 
L 75.873197 216.404326 
L 77.232343 216.404326 
L 78.589468 216.404326 
L 79.948615 216.404326 
L 81.307761 216.404326 
L 82.666402 216.404326 
L 84.025549 216.404326 
L 85.38419 216.404326 
L 86.743337 216.404326 
L 88.102483 216.404326 
L 89.462641 216.404326 
L 90.821787 216.404326 
L 92.180934 216.404326 
L 93.541092 216.404326 
L 94.900238 216.404326 
L 96.260396 216.404326 
L 97.619542 216.404326 
L 98.980205 216.404326 
L 100.338846 216.404326 
L 101.699509 216.404326 
L 103.060172 216.404326 
L 104.42033 216.404326 
L 105.780993 216.404326 
L 107.141656 216.404326 
L 108.501813 216.404326 
L 109.862476 216.404326 
L 111.222634 216.404326 
L 112.583297 216.404326 
L 113.943959 216.404326 
L 115.305633 216.404326 
L 116.666296 216.404326 
L 118.026959 216.404326 
L 119.388633 216.404326 
L 120.749296 216.404326 
L 122.111475 216.404326 
L 123.473655 216.404326 
L 124.833812 216.404326 
L 126.195991 216.404326 
L 127.558171 216.404326 
L 128.919844 216.404326 
L 130.282024 216.404326 
L 131.644203 216.404326 
L 133.005877 216.404326 
L 134.368056 216.404326 
L 135.730235 216.404326 
L 137.091909 216.404326 
L 138.455605 216.404326 
L 139.817784 216.404326 
L 141.179963 216.404326 
L 142.543154 216.404326 
L 143.905333 216.404326 
L 145.269029 216.404326 
L 146.632724 216.404326 
L 147.994398 216.404326 
L 149.358094 216.404326 
L 150.721789 216.404326 
L 152.085485 216.404326 
L 153.448675 216.404326 
L 154.810854 216.404326 
L 156.17455 216.404326 
L 157.539762 216.404326 
L 158.902952 216.404326 
L 160.266648 216.404326 
L 161.630343 216.404326 
L 162.994039 216.404326 
L 164.358746 216.404326 
L 165.722441 216.404326 
L 167.087653 216.404326 
L 168.451349 216.404326 
L 169.816561 216.404326 
L 171.181267 216.404326 
L 172.544963 216.404326 
L 173.910175 216.404326 
L 175.275387 216.404326 
L 176.640599 216.404326 
L 178.005305 216.404326 
L 179.370517 216.404326 
L 180.735729 216.404326 
L 182.100941 216.404326 
L 183.466153 216.404326 
L 184.83086 216.404326 
L 186.196072 216.404326 
L 187.5628 216.404326 
L 188.928012 216.404326 
L 190.29474 216.404326 
L 191.659447 216.404326 
L 193.026175 216.404326 
L 194.391387 216.404326 
L 195.758115 216.404326 
L 197.124844 216.404326 
L 198.491572 216.404326 
L 199.856784 216.404326 
L 201.223007 216.404326 
L 202.589735 216.404326 
L 203.956463 216.404326 
L 205.323192 216.404326 
L 206.691436 216.404326 
L 208.058165 216.404326 
L 209.424893 216.404326 
L 210.791116 216.404326 
L 212.159361 216.404326 
L 213.526089 216.404326 
L 214.894333 216.404326 
L 216.261062 216.404326 
L 217.629306 216.404326 
L 218.996035 216.404326 
L 220.364279 216.404326 
L 221.732524 216.404326 
L 223.100263 216.404326 
L 224.468508 216.404326 
L 225.836753 216.404326 
L 227.204997 216.404326 
L 228.573242 216.404326 
L 229.941486 216.404326 
L 231.309731 216.404326 
L 232.677976 216.404326 
L 234.04622 216.404326 
L 235.415981 216.404326 
L 236.784226 216.404326 
L 238.153987 216.404326 
L 239.521726 216.404326 
L 240.891487 216.404326 
L 242.259732 216.404326 
L 243.629493 216.404326 
L 244.999254 216.404326 
L 246.369015 216.404326 
L 247.73726 216.404326 
L 249.10702 216.404326 
L 250.476781 216.404326 
L 251.846542 216.404326 
L 253.216303 216.404326 
L 254.587581 216.404326 
L 255.957342 216.404326 
L 257.327103 216.404326 
L 258.696864 216.404326 
L 260.068141 216.404326 
L 261.437902 216.404326 
L 262.809179 216.404326 
L 264.17894 216.404326 
L 265.550218 216.404326 
L 266.919979 216.404326 
L 268.291256 216.404326 
L 269.662533 216.404326 
L 271.033811 216.404326 
L 272.405088 216.404326 
L 273.776365 216.404326 
L 275.147643 216.404326 
L 276.51892 216.404326 
L 277.890197 216.404326 
L 279.261475 216.404326 
L 280.632752 216.404326 
L 282.005546 216.404326 
L 283.376823 216.404326 
L 284.7481 216.404326 
L 286.120894 216.404326 
L 287.492171 216.404326 
L 288.864965 216.404326 
L 290.237759 216.404326 
L 291.609036 216.404326 
L 292.98183 216.404326 
L 294.354623 216.404326 
L 295.727417 216.404326 
L 297.100211 216.404326 
L 298.47351 216.404326 
L 299.846303 216.404326 
L 301.219097 216.404326 
L 302.591891 216.404326 
L 303.964684 216.404326 
L 305.337478 216.404326 
L 306.711788 216.404326 
L 308.084582 216.404326 
L 309.458892 216.404326 
L 310.831686 216.404326 
L 312.205996 216.404326 
L 313.578789 216.404326 
L 314.953605 216.404326 
L 316.327915 216.404326 
L 317.700708 216.404326 
L 319.075018 216.404326 
L 320.449328 216.404326 
L 320.449328 216.249015 
L 320.449328 216.249015 
L 319.075018 216.244118 
L 317.700708 216.238985 
L 316.327915 216.233607 
L 314.953605 216.227957 
L 313.578789 216.22202 
L 312.205996 216.215787 
L 310.831686 216.209222 
L 309.458892 216.202316 
L 308.084582 216.195028 
L 306.711788 216.187349 
L 305.337478 216.179229 
L 303.964684 216.170656 
L 302.591891 216.161584 
L 301.219097 216.151973 
L 299.846303 216.141781 
L 298.47351 216.13096 
L 297.100211 216.119452 
L 295.727417 216.107207 
L 294.354623 216.094156 
L 292.98183 216.080227 
L 291.609036 216.06534 
L 290.237759 216.049423 
L 288.864965 216.03234 
L 287.492171 216.013996 
L 286.120894 215.994286 
L 284.7481 215.973022 
L 283.376823 215.950091 
L 282.005546 215.925285 
L 280.632752 215.898364 
L 279.261475 215.869147 
L 277.890197 215.837332 
L 276.51892 215.802601 
L 275.147643 215.764589 
L 273.776365 215.722869 
L 272.405088 215.676947 
L 271.033811 215.626239 
L 269.662533 215.570061 
L 268.291256 215.507601 
L 266.919979 215.43789 
L 265.550218 215.359861 
L 264.17894 215.271942 
L 262.809179 215.17263 
L 261.437902 215.059623 
L 260.068141 214.930607 
L 258.696864 214.782096 
L 257.327103 214.610403 
L 255.957342 214.410277 
L 254.587581 214.175176 
L 253.216303 213.896261 
L 251.846542 213.562945 
L 250.476781 213.160001 
L 249.10702 212.667183 
L 247.73726 212.056613 
L 246.369015 211.290215 
L 244.999254 210.310761 
L 243.629493 209.038563 
L 242.259732 207.355621 
L 240.891487 205.090853 
L 239.521726 201.986471 
L 238.153987 197.705969 
L 236.784226 191.850893 
L 235.415981 184.303228 
L 234.04622 175.987955 
L 232.677976 169.88372 
L 231.309731 169.432818 
L 229.941486 174.246621 
L 228.573242 180.109397 
L 227.204997 182.674997 
L 225.836753 178.222109 
L 224.468508 173.863 
L 223.100263 187.077285 
L 221.732524 198.427321 
L 220.364279 204.234159 
L 218.996035 207.435855 
L 217.629306 209.420443 
L 216.261062 210.765837 
L 214.894333 211.732562 
L 213.526089 212.459231 
L 212.159361 213.021745 
L 210.791116 213.4689 
L 209.424893 213.830373 
L 208.058165 214.127838 
L 206.691436 214.375806 
L 205.323192 214.585091 
L 203.956463 214.763087 
L 202.589735 214.915975 
L 201.223007 215.048314 
L 199.856784 215.16362 
L 198.491572 215.264684 
L 197.124844 215.35393 
L 195.758115 215.433055 
L 194.391387 215.503541 
L 193.026175 215.566539 
L 191.659447 215.623199 
L 190.29474 215.674219 
L 188.928012 215.720456 
L 187.5628 215.762386 
L 186.196072 215.800612 
L 184.83086 215.835482 
L 183.466153 215.867402 
L 182.100941 215.896717 
L 180.735729 215.923695 
L 179.370517 215.948576 
L 178.005305 215.971574 
L 176.640599 215.992865 
L 175.275387 216.01263 
L 173.910175 216.031003 
L 172.544963 216.048114 
L 171.181267 216.064057 
L 169.816561 216.078963 
L 168.451349 216.092916 
L 167.087653 216.105977 
L 165.722441 216.118245 
L 164.358746 216.12976 
L 162.994039 216.140601 
L 161.630343 216.150805 
L 160.266648 216.160428 
L 158.902952 216.169514 
L 157.539762 216.178098 
L 156.17455 216.186231 
L 154.810854 216.193926 
L 153.448675 216.201212 
L 152.085485 216.208131 
L 150.721789 216.214706 
L 149.358094 216.220955 
L 147.994398 216.2269 
L 146.632724 216.232553 
L 145.269029 216.237947 
L 143.905333 216.243091 
L 142.543154 216.247995 
L 141.179963 216.252683 
L 139.817784 216.257159 
L 138.455605 216.26144 
L 137.091909 216.265541 
L 135.730235 216.269463 
L 134.368056 216.273222 
L 133.005877 216.276826 
L 131.644203 216.280282 
L 130.282024 216.283601 
L 128.919844 216.286788 
L 127.558171 216.28985 
L 126.195991 216.292794 
L 124.833812 216.295627 
L 123.473655 216.298349 
L 122.111475 216.300974 
L 120.749296 216.303502 
L 119.388633 216.305936 
L 118.026959 216.308285 
L 116.666296 216.310549 
L 115.305633 216.312734 
L 113.943959 216.314845 
L 112.583297 216.316883 
L 111.222634 216.318851 
L 109.862476 216.320754 
L 108.501813 216.322594 
L 107.141656 216.324373 
L 105.780993 216.326095 
L 104.42033 216.327763 
L 103.060172 216.329377 
L 101.699509 216.330941 
L 100.338846 216.332457 
L 98.980205 216.333924 
L 97.619542 216.335348 
L 96.260396 216.336729 
L 94.900238 216.338069 
L 93.541092 216.339369 
L 92.180934 216.340632 
L 90.821787 216.341857 
L 89.462641 216.343048 
L 88.102483 216.344206 
L 86.743337 216.34533 
L 85.38419 216.346423 
L 84.025549 216.347486 
L 82.666402 216.34852 
L 81.307761 216.349525 
L 79.948615 216.350504 
L 78.589468 216.351458 
L 77.232343 216.352384 
L 75.873197 216.353288 
L 74.514555 216.354168 
L 73.156925 216.355025 
L 71.798284 216.355861 
L 70.440654 216.356675 
L 69.081507 216.35747 
L 67.724382 216.358243 
L 66.366752 216.358998 
L 65.008111 216.359736 
L 63.650481 216.360454 
L 62.293356 216.361156 
L 60.935726 216.361841 
L 59.578601 216.362509 
L 58.22097 216.363162 
L 56.86334 216.3638 
L 55.506215 216.364423 
L 54.148585 216.365032 
L 52.792977 216.365626 
L 51.435346 216.366208 
L 50.078222 216.366776 
L 48.722108 216.367332 
L 47.364983 216.367875 
L 46.008869 216.368406 
L 44.651744 216.368927 
L 43.29563 216.369435 
z
" clip-path="url(#pa36585ff4c)" style="fill: #1f77b4; fill-opacity: 0.25"/>
   </g>
   <g id="PolyCollection_2">
    <path d="M 43.29563 215.600604 
L 43.29563 216.404326 
L 44.651744 216.404326 
L 46.008869 216.404326 
L 47.364983 216.404326 
L 48.722108 216.404326 
L 50.078222 216.404326 
L 51.435346 216.404326 
L 52.792977 216.404326 
L 54.148585 216.404326 
L 55.506215 216.404326 
L 56.86334 216.404326 
L 58.22097 216.404326 
L 59.578601 216.404326 
L 60.935726 216.404326 
L 62.293356 216.404326 
L 63.650481 216.404326 
L 65.008111 216.404326 
L 66.366752 216.404326 
L 67.724382 216.404326 
L 69.081507 216.404326 
L 70.440654 216.404326 
L 71.798284 216.404326 
L 73.156925 216.404326 
L 74.514555 216.404326 
L 75.873197 216.404326 
L 77.232343 216.404326 
L 78.589468 216.404326 
L 79.948615 216.404326 
L 81.307761 216.404326 
L 82.666402 216.404326 
L 84.025549 216.404326 
L 85.38419 216.404326 
L 86.743337 216.404326 
L 88.102483 216.404326 
L 89.462641 216.404326 
L 90.821787 216.404326 
L 92.180934 216.404326 
L 93.541092 216.404326 
L 94.900238 216.404326 
L 96.260396 216.404326 
L 97.619542 216.404326 
L 98.980205 216.404326 
L 100.338846 216.404326 
L 101.699509 216.404326 
L 103.060172 216.404326 
L 104.42033 216.404326 
L 105.780993 216.404326 
L 107.141656 216.404326 
L 108.501813 216.404326 
L 109.862476 216.404326 
L 111.222634 216.404326 
L 112.583297 216.404326 
L 113.943959 216.404326 
L 115.305633 216.404326 
L 116.666296 216.404326 
L 118.026959 216.404326 
L 119.388633 216.404326 
L 120.749296 216.404326 
L 122.111475 216.404326 
L 123.473655 216.404326 
L 124.833812 216.404326 
L 126.195991 216.404326 
L 127.558171 216.404326 
L 128.919844 216.404326 
L 130.282024 216.404326 
L 131.644203 216.404326 
L 133.005877 216.404326 
L 134.368056 216.404326 
L 135.730235 216.404326 
L 137.091909 216.404326 
L 138.455605 216.404326 
L 139.817784 216.404326 
L 141.179963 216.404326 
L 142.543154 216.404326 
L 143.905333 216.404326 
L 145.269029 216.404326 
L 146.632724 216.404326 
L 147.994398 216.404326 
L 149.358094 216.404326 
L 150.721789 216.404326 
L 152.085485 216.404326 
L 153.448675 216.404326 
L 154.810854 216.404326 
L 156.17455 216.404326 
L 157.539762 216.404326 
L 158.902952 216.404326 
L 160.266648 216.404326 
L 161.630343 216.404326 
L 162.994039 216.404326 
L 164.358746 216.404326 
L 165.722441 216.404326 
L 167.087653 216.404326 
L 168.451349 216.404326 
L 169.816561 216.404326 
L 171.181267 216.404326 
L 172.544963 216.404326 
L 173.910175 216.404326 
L 175.275387 216.404326 
L 176.640599 216.404326 
L 178.005305 216.404326 
L 179.370517 216.404326 
L 180.735729 216.404326 
L 182.100941 216.404326 
L 183.466153 216.404326 
L 184.83086 216.404326 
L 186.196072 216.404326 
L 187.5628 216.404326 
L 188.928012 216.404326 
L 190.29474 216.404326 
L 191.659447 216.404326 
L 193.026175 216.404326 
L 194.391387 216.404326 
L 195.758115 216.404326 
L 197.124844 216.404326 
L 198.491572 216.404326 
L 199.856784 216.404326 
L 201.223007 216.404326 
L 202.589735 216.404326 
L 203.956463 216.404326 
L 205.323192 216.404326 
L 206.691436 216.404326 
L 208.058165 216.404326 
L 209.424893 216.404326 
L 210.791116 216.404326 
L 212.159361 216.404326 
L 213.526089 216.404326 
L 214.894333 216.404326 
L 216.261062 216.404326 
L 217.629306 216.404326 
L 218.996035 216.404326 
L 220.364279 216.404326 
L 221.732524 216.404326 
L 223.100263 216.404326 
L 224.468508 216.404326 
L 225.836753 216.404326 
L 227.204997 216.404326 
L 228.573242 216.404326 
L 229.941486 216.404326 
L 231.309731 216.404326 
L 232.677976 216.404326 
L 234.04622 216.404326 
L 235.415981 216.404326 
L 236.784226 216.404326 
L 238.153987 216.404326 
L 239.521726 216.404326 
L 240.891487 216.404326 
L 242.259732 216.404326 
L 243.629493 216.404326 
L 244.999254 216.404326 
L 246.369015 216.404326 
L 247.73726 216.404326 
L 249.10702 216.404326 
L 250.476781 216.404326 
L 251.846542 216.404326 
L 253.216303 216.404326 
L 254.587581 216.404326 
L 255.957342 216.404326 
L 257.327103 216.404326 
L 258.696864 216.404326 
L 260.068141 216.404326 
L 261.437902 216.404326 
L 262.809179 216.404326 
L 264.17894 216.404326 
L 265.550218 216.404326 
L 266.919979 216.404326 
L 268.291256 216.404326 
L 269.662533 216.404326 
L 271.033811 216.404326 
L 272.405088 216.404326 
L 273.776365 216.404326 
L 275.147643 216.404326 
L 276.51892 216.404326 
L 277.890197 216.404326 
L 279.261475 216.404326 
L 280.632752 216.404326 
L 282.005546 216.404326 
L 283.376823 216.404326 
L 284.7481 216.404326 
L 286.120894 216.404326 
L 287.492171 216.404326 
L 288.864965 216.404326 
L 290.237759 216.404326 
L 291.609036 216.404326 
L 292.98183 216.404326 
L 294.354623 216.404326 
L 295.727417 216.404326 
L 297.100211 216.404326 
L 298.47351 216.404326 
L 299.846303 216.404326 
L 301.219097 216.404326 
L 302.591891 216.404326 
L 303.964684 216.404326 
L 305.337478 216.404326 
L 306.711788 216.404326 
L 308.084582 216.404326 
L 309.458892 216.404326 
L 310.831686 216.404326 
L 312.205996 216.404326 
L 313.578789 216.404326 
L 314.953605 216.404326 
L 316.327915 216.404326 
L 317.700708 216.404326 
L 319.075018 216.404326 
L 320.449328 216.404326 
L 320.449328 216.267539 
L 320.449328 216.267539 
L 319.075018 216.26524 
L 317.700708 216.262881 
L 316.327915 216.260462 
L 314.953605 216.257976 
L 313.578789 216.255423 
L 312.205996 216.252803 
L 310.831686 216.250108 
L 309.458892 216.247342 
L 308.084582 216.244495 
L 306.711788 216.24157 
L 305.337478 216.238559 
L 303.964684 216.235463 
L 302.591891 216.232277 
L 301.219097 216.228997 
L 299.846303 216.225618 
L 298.47351 216.222138 
L 297.100211 216.218549 
L 295.727417 216.214851 
L 294.354623 216.211037 
L 292.98183 216.207103 
L 291.609036 216.203042 
L 290.237759 216.198854 
L 288.864965 216.194524 
L 287.492171 216.190049 
L 286.120894 216.185429 
L 284.7481 216.180647 
L 283.376823 216.175704 
L 282.005546 216.170589 
L 280.632752 216.165286 
L 279.261475 216.159798 
L 277.890197 216.154111 
L 276.51892 216.148213 
L 275.147643 216.142094 
L 273.776365 216.135742 
L 272.405088 216.129145 
L 271.033811 216.122289 
L 269.662533 216.11516 
L 268.291256 216.107743 
L 266.919979 216.100021 
L 265.550218 216.091987 
L 264.17894 216.083602 
L 262.809179 216.074865 
L 261.437902 216.065735 
L 260.068141 216.056208 
L 258.696864 216.046237 
L 257.327103 216.035817 
L 255.957342 216.024906 
L 254.587581 216.013471 
L 253.216303 216.001463 
L 251.846542 215.988869 
L 250.476781 215.975635 
L 249.10702 215.961712 
L 247.73726 215.947051 
L 246.369015 215.931611 
L 244.999254 215.915298 
L 243.629493 215.898058 
L 242.259732 215.879818 
L 240.891487 215.860513 
L 239.521726 215.840009 
L 238.153987 215.818256 
L 236.784226 215.795071 
L 235.415981 215.770384 
L 234.04622 215.743993 
L 232.677976 215.71579 
L 231.309731 215.685559 
L 229.941486 215.653083 
L 228.573242 215.618118 
L 227.204997 215.58038 
L 225.836753 215.539542 
L 224.468508 215.495224 
L 223.100263 215.446978 
L 221.732524 215.394299 
L 220.364279 215.336521 
L 218.996035 215.272911 
L 217.629306 215.202638 
L 216.261062 215.124423 
L 214.894333 215.037046 
L 213.526089 214.93854 
L 212.159361 214.826834 
L 210.791116 214.698639 
L 209.424893 214.550142 
L 208.058165 214.375208 
L 206.691436 214.165101 
L 205.323192 213.905586 
L 203.956463 213.573381 
L 202.589735 213.123055 
L 201.223007 212.456921 
L 199.856784 211.323996 
L 198.491572 208.91604 
L 197.124844 202.126216 
L 195.758115 192.556957 
L 194.391387 202.316077 
L 193.026175 205.920307 
L 191.659447 204.410345 
L 190.29474 190.658219 
L 188.928012 196.565877 
L 187.5628 200.045789 
L 186.196072 196.868466 
L 184.83086 190.540139 
L 183.466153 180.545362 
L 182.100941 166.961359 
L 180.735729 154.916835 
L 179.370517 153.684184 
L 178.005305 160.773908 
L 176.640599 164.374619 
L 175.275387 156.768695 
L 173.910175 139.415328 
L 172.544963 142.750021 
L 171.181267 167.386631 
L 169.816561 184.410025 
L 168.451349 192.916186 
L 167.087653 196.693347 
L 165.722441 197.446281 
L 164.358746 195.22587 
L 162.994039 188.454683 
L 161.630343 174.846411 
L 160.266648 165.233294 
L 158.902952 176.353688 
L 157.539762 187.199085 
L 156.17455 190.649614 
L 154.810854 188.432986 
L 153.448675 180.135982 
L 152.085485 162.69623 
L 150.721789 137.686909 
L 149.358094 132.204275 
L 147.994398 148.16403 
L 146.632724 152.341888 
L 145.269029 133.943375 
L 143.905333 104.016974 
L 142.543154 121.579979 
L 141.179963 159.449662 
L 139.817784 180.653193 
L 138.455605 190.709982 
L 137.091909 195.24991 
L 135.730235 196.501219 
L 134.368056 194.857612 
L 133.005877 189.069851 
L 131.644203 174.688326 
L 130.282024 139.877017 
L 128.919844 88.931439 
L 127.558171 118.106666 
L 126.195991 163.605368 
L 124.833812 181.51261 
L 123.473655 178.67135 
L 122.111475 182.324625 
L 120.749296 195.69978 
L 119.388633 198.202885 
L 118.026959 196.716218 
L 116.666296 191.728369 
L 115.305633 181.369508 
L 113.943959 162.734555 
L 112.583297 142.331477 
L 111.222634 146.893138 
L 109.862476 168.363191 
L 108.501813 183.185197 
L 107.141656 189.203634 
L 105.780993 187.293249 
L 104.42033 175.249897 
L 103.060172 168.353421 
L 101.699509 185.515384 
L 100.338846 197.325477 
L 98.980205 202.40758 
L 97.619542 204.488322 
L 96.260396 205.00941 
L 94.900238 204.392654 
L 93.541092 202.550807 
L 92.180934 198.907655 
L 90.821787 192.048185 
L 89.462641 178.746246 
L 88.102483 153.227595 
L 86.743337 120.675741 
L 85.38419 124.934608 
L 84.025549 150.839204 
L 82.666402 156.422399 
L 81.307761 138.058017 
L 79.948615 149.053857 
L 78.589468 180.486305 
L 77.232343 195.859995 
L 75.873197 203.009216 
L 74.514555 206.81687 
L 73.156925 209.097524 
L 71.798284 210.587951 
L 70.440654 211.623336 
L 69.081507 212.378686 
L 67.724382 212.948776 
L 66.366752 213.39264 
L 65.008111 213.746599 
L 63.650481 214.034045 
L 62.293356 214.271504 
L 60.935726 214.470621 
L 59.578601 214.639524 
L 58.22097 214.784453 
L 56.86334 214.909939 
L 55.506215 215.01947 
L 54.148585 215.115862 
L 52.792977 215.201112 
L 51.435346 215.277192 
L 50.078222 215.345332 
L 48.722108 215.406648 
L 47.364983 215.46216 
L 46.008869 215.512552 
L 44.651744 215.558543 
L 43.29563 215.600604 
z
" clip-path="url(#pa36585ff4c)" style="fill: #ff7f0e; fill-opacity: 0.25"/>
   </g>
   <g id="line2d_1">
    <path d="M 43.29563 216.404326 
L 44.651744 216.404326 
L 46.008869 214.755104 
L 47.364983 214.526748 
L 48.722108 216.404326 
L 50.078222 216.404326 
L 51.435346 210.438838 
L 54.148585 184.535178 
L 55.506215 179.110269 
L 56.86334 179.135975 
L 58.22097 194.54388 
L 59.578601 216.142697 
L 60.935726 216.404326 
L 66.366752 216.404326 
L 69.081507 184.923334 
L 70.440654 193.932915 
L 71.798284 216.404326 
L 75.873197 216.404326 
L 77.232343 202.716289 
L 79.948615 142.485091 
L 81.307761 143.519162 
L 82.666402 155.544948 
L 84.025549 141.459613 
L 85.38419 125.872912 
L 86.743337 122.545235 
L 88.102483 155.360591 
L 89.462641 191.168364 
L 90.821787 213.683036 
L 92.180934 216.404326 
L 98.980205 216.404326 
L 100.338846 202.872037 
L 101.699509 176.382149 
L 103.060172 169.645107 
L 104.42033 176.565817 
L 105.780993 186.535649 
L 107.141656 191.784978 
L 108.501813 180.190517 
L 109.862476 160.154385 
L 111.222634 146.204298 
L 112.583297 146.807569 
L 113.943959 160.347763 
L 116.666296 202.640103 
L 118.026959 211.565335 
L 119.388633 205.417721 
L 120.749296 190.111858 
L 122.111475 178.404554 
L 123.473655 180.600544 
L 124.833812 180.736575 
L 126.195991 151.539451 
L 127.558171 108.41503 
L 128.919844 97.732161 
L 130.282024 137.214153 
L 131.644203 191.456392 
L 133.005877 216.404326 
L 134.368056 216.404326 
L 135.730235 208.924094 
L 137.091909 200.716959 
L 138.455605 195.904423 
L 139.817784 182.855763 
L 141.179963 144.826967 
L 142.543154 113.32403 
L 143.905333 112.42552 
L 145.269029 134.248638 
L 146.632724 148.613687 
L 147.994398 144.173005 
L 149.358094 135.347828 
L 150.721789 136.628003 
L 152.085485 166.316898 
L 153.448675 186.295965 
L 154.810854 192.959452 
L 156.17455 193.05464 
L 157.539762 184.628408 
L 158.902952 170.998288 
L 160.266648 166.954821 
L 161.630343 176.433616 
L 162.994039 190.655469 
L 164.358746 196.856753 
L 165.722441 193.976799 
L 167.087653 189.828568 
L 168.451349 190.143585 
L 169.816561 183.776676 
L 171.181267 162.899587 
L 172.544963 139.589811 
L 173.910175 139.757378 
L 175.275387 162.646109 
L 176.640599 164.098482 
L 178.005305 154.670641 
L 179.370517 154.942746 
L 180.735729 158.970281 
L 182.100941 163.872076 
L 184.83086 196.345609 
L 186.196072 201.824098 
L 187.5628 198.614873 
L 188.928012 192.728649 
L 190.29474 194.88886 
L 191.659447 202.133675 
L 193.026175 206.008182 
L 194.391387 199.412038 
L 195.758115 191.92288 
L 197.124844 202.190388 
L 198.491572 209.923921 
L 199.856784 216.404326 
L 209.424893 216.404326 
L 210.791116 215.169222 
L 212.159361 212.217749 
L 213.526089 208.091524 
L 214.894333 206.217934 
L 216.261062 208.668904 
L 217.629306 208.211332 
L 218.996035 207.916843 
L 220.364279 206.500268 
L 221.732524 195.860971 
L 223.100263 181.475088 
L 224.468508 173.443751 
L 225.836753 178.205502 
L 227.204997 181.82343 
L 228.573242 177.394885 
L 229.941486 168.869557 
L 231.309731 172.777724 
L 232.677976 174.101919 
L 234.04622 169.112355 
L 235.415981 179.811646 
L 236.784226 202.803387 
L 238.153987 211.886685 
L 239.521726 216.404326 
L 247.73726 216.404326 
L 249.10702 214.866983 
L 250.476781 216.404326 
L 287.492171 216.404326 
L 288.864965 179.077445 
L 290.237759 37.081277 
L 290.412451 -1 
M 299.680822 -1 
L 299.846303 70.705786 
L 301.219097 216.404326 
L 303.964684 216.404326 
L 305.337478 198.769266 
L 306.711788 207.02123 
L 308.084582 216.404326 
L 314.953605 216.404326 
L 316.327915 208.280063 
L 317.700708 216.404326 
L 320.449328 216.404326 
L 320.449328 216.404326 
" clip-path="url(#pa36585ff4c)" style="fill: none; stroke: #1f77b4; stroke-width: 1.5; stroke-linecap: square"/>
    <defs>
     <path id="m3e6229a0bb" d="M 0 1.5 
C 0.397805 1.5 0.77937 1.341951 1.06066 1.06066 
C 1.341951 0.77937 1.5 0.397805 1.5 0 
C 1.5 -0.397805 1.341951 -0.77937 1.06066 -1.06066 
C 0.77937 -1.341951 0.397805 -1.5 0 -1.5 
C -0.397805 -1.5 -0.77937 -1.341951 -1.06066 -1.06066 
C -1.341951 -0.77937 -1.5 -0.397805 -1.5 0 
C -1.5 0.397805 -1.341951 0.77937 -1.06066 1.06066 
C -0.77937 1.341951 -0.397805 1.5 0 1.5 
z
" style="stroke: #1f77b4"/>
    </defs>
    <g clip-path="url(#pa36585ff4c)">
     <use xlink:href="#m3e6229a0bb" x="43.29563" y="216.404326" style="fill-opacity: 0; stroke: #1f77b4"/>
     <use xlink:href="#m3e6229a0bb" x="44.651744" y="216.404326" style="fill-opacity: 0; stroke: #1f77b4"/>
     <use xlink:href="#m3e6229a0bb" x="46.008869" y="214.755104" style="fill-opacity: 0; stroke: #1f77b4"/>
     <use xlink:href="#m3e6229a0bb" x="47.364983" y="214.526748" style="fill-opacity: 0; stroke: #1f77b4"/>
     <use xlink:href="#m3e6229a0bb" x="48.722108" y="216.404326" style="fill-opacity: 0; stroke: #1f77b4"/>
     <use xlink:href="#m3e6229a0bb" x="50.078222" y="216.404326" style="fill-opacity: 0; stroke: #1f77b4"/>
     <use xlink:href="#m3e6229a0bb" x="51.435346" y="210.438838" style="fill-opacity: 0; stroke: #1f77b4"/>
     <use xlink:href="#m3e6229a0bb" x="52.792977" y="197.152024" style="fill-opacity: 0; stroke: #1f77b4"/>
     <use xlink:href="#m3e6229a0bb" x="54.148585" y="184.535178" style="fill-opacity: 0; stroke: #1f77b4"/>
     <use xlink:href="#m3e6229a0bb" x="55.506215" y="179.110269" style="fill-opacity: 0; stroke: #1f77b4"/>
     <use xlink:href="#m3e6229a0bb" x="56.86334" y="179.135975" style="fill-opacity: 0; stroke: #1f77b4"/>
     <use xlink:href="#m3e6229a0bb" x="58.22097" y="194.54388" style="fill-opacity: 0; stroke: #1f77b4"/>
     <use xlink:href="#m3e6229a0bb" x="59.578601" y="216.142697" style="fill-opacity: 0; stroke: #1f77b4"/>
     <use xlink:href="#m3e6229a0bb" x="60.935726" y="216.404326" style="fill-opacity: 0; stroke: #1f77b4"/>
     <use xlink:href="#m3e6229a0bb" x="62.293356" y="216.404326" style="fill-opacity: 0; stroke: #1f77b4"/>
     <use xlink:href="#m3e6229a0bb" x="63.650481" y="216.404326" style="fill-opacity: 0; stroke: #1f77b4"/>
     <use xlink:href="#m3e6229a0bb" x="65.008111" y="216.404326" style="fill-opacity: 0; stroke: #1f77b4"/>
     <use xlink:href="#m3e6229a0bb" x="66.366752" y="216.404326" style="fill-opacity: 0; stroke: #1f77b4"/>
     <use xlink:href="#m3e6229a0bb" x="67.724382" y="201.270231" style="fill-opacity: 0; stroke: #1f77b4"/>
     <use xlink:href="#m3e6229a0bb" x="69.081507" y="184.923334" style="fill-opacity: 0; stroke: #1f77b4"/>
     <use xlink:href="#m3e6229a0bb" x="70.440654" y="193.932915" style="fill-opacity: 0; stroke: #1f77b4"/>
     <use xlink:href="#m3e6229a0bb" x="71.798284" y="216.404326" style="fill-opacity: 0; stroke: #1f77b4"/>
     <use xlink:href="#m3e6229a0bb" x="73.156925" y="216.404326" style="fill-opacity: 0; stroke: #1f77b4"/>
     <use xlink:href="#m3e6229a0bb" x="74.514555" y="216.404326" style="fill-opacity: 0; stroke: #1f77b4"/>
     <use xlink:href="#m3e6229a0bb" x="75.873197" y="216.404326" style="fill-opacity: 0; stroke: #1f77b4"/>
     <use xlink:href="#m3e6229a0bb" x="77.232343" y="202.716289" style="fill-opacity: 0; stroke: #1f77b4"/>
     <use xlink:href="#m3e6229a0bb" x="78.589468" y="171.623097" style="fill-opacity: 0; stroke: #1f77b4"/>
     <use xlink:href="#m3e6229a0bb" x="79.948615" y="142.485091" style="fill-opacity: 0; stroke: #1f77b4"/>
     <use xlink:href="#m3e6229a0bb" x="81.307761" y="143.519162" style="fill-opacity: 0; stroke: #1f77b4"/>
     <use xlink:href="#m3e6229a0bb" x="82.666402" y="155.544948" style="fill-opacity: 0; stroke: #1f77b4"/>
     <use xlink:href="#m3e6229a0bb" x="84.025549" y="141.459613" style="fill-opacity: 0; stroke: #1f77b4"/>
     <use xlink:href="#m3e6229a0bb" x="85.38419" y="125.872912" style="fill-opacity: 0; stroke: #1f77b4"/>
     <use xlink:href="#m3e6229a0bb" x="86.743337" y="122.545235" style="fill-opacity: 0; stroke: #1f77b4"/>
     <use xlink:href="#m3e6229a0bb" x="88.102483" y="155.360591" style="fill-opacity: 0; stroke: #1f77b4"/>
     <use xlink:href="#m3e6229a0bb" x="89.462641" y="191.168364" style="fill-opacity: 0; stroke: #1f77b4"/>
     <use xlink:href="#m3e6229a0bb" x="90.821787" y="213.683036" style="fill-opacity: 0; stroke: #1f77b4"/>
     <use xlink:href="#m3e6229a0bb" x="92.180934" y="216.404326" style="fill-opacity: 0; stroke: #1f77b4"/>
     <use xlink:href="#m3e6229a0bb" x="93.541092" y="216.404326" style="fill-opacity: 0; stroke: #1f77b4"/>
     <use xlink:href="#m3e6229a0bb" x="94.900238" y="216.404326" style="fill-opacity: 0; stroke: #1f77b4"/>
     <use xlink:href="#m3e6229a0bb" x="96.260396" y="216.404326" style="fill-opacity: 0; stroke: #1f77b4"/>
     <use xlink:href="#m3e6229a0bb" x="97.619542" y="216.404326" style="fill-opacity: 0; stroke: #1f77b4"/>
     <use xlink:href="#m3e6229a0bb" x="98.980205" y="216.404326" style="fill-opacity: 0; stroke: #1f77b4"/>
     <use xlink:href="#m3e6229a0bb" x="100.338846" y="202.872037" style="fill-opacity: 0; stroke: #1f77b4"/>
     <use xlink:href="#m3e6229a0bb" x="101.699509" y="176.382149" style="fill-opacity: 0; stroke: #1f77b4"/>
     <use xlink:href="#m3e6229a0bb" x="103.060172" y="169.645107" style="fill-opacity: 0; stroke: #1f77b4"/>
     <use xlink:href="#m3e6229a0bb" x="104.42033" y="176.565817" style="fill-opacity: 0; stroke: #1f77b4"/>
     <use xlink:href="#m3e6229a0bb" x="105.780993" y="186.535649" style="fill-opacity: 0; stroke: #1f77b4"/>
     <use xlink:href="#m3e6229a0bb" x="107.141656" y="191.784978" style="fill-opacity: 0; stroke: #1f77b4"/>
     <use xlink:href="#m3e6229a0bb" x="108.501813" y="180.190517" style="fill-opacity: 0; stroke: #1f77b4"/>
     <use xlink:href="#m3e6229a0bb" x="109.862476" y="160.154385" style="fill-opacity: 0; stroke: #1f77b4"/>
     <use xlink:href="#m3e6229a0bb" x="111.222634" y="146.204298" style="fill-opacity: 0; stroke: #1f77b4"/>
     <use xlink:href="#m3e6229a0bb" x="112.583297" y="146.807569" style="fill-opacity: 0; stroke: #1f77b4"/>
     <use xlink:href="#m3e6229a0bb" x="113.943959" y="160.347763" style="fill-opacity: 0; stroke: #1f77b4"/>
     <use xlink:href="#m3e6229a0bb" x="115.305633" y="182.158428" style="fill-opacity: 0; stroke: #1f77b4"/>
     <use xlink:href="#m3e6229a0bb" x="116.666296" y="202.640103" style="fill-opacity: 0; stroke: #1f77b4"/>
     <use xlink:href="#m3e6229a0bb" x="118.026959" y="211.565335" style="fill-opacity: 0; stroke: #1f77b4"/>
     <use xlink:href="#m3e6229a0bb" x="119.388633" y="205.417721" style="fill-opacity: 0; stroke: #1f77b4"/>
     <use xlink:href="#m3e6229a0bb" x="120.749296" y="190.111858" style="fill-opacity: 0; stroke: #1f77b4"/>
     <use xlink:href="#m3e6229a0bb" x="122.111475" y="178.404554" style="fill-opacity: 0; stroke: #1f77b4"/>
     <use xlink:href="#m3e6229a0bb" x="123.473655" y="180.600544" style="fill-opacity: 0; stroke: #1f77b4"/>
     <use xlink:href="#m3e6229a0bb" x="124.833812" y="180.736575" style="fill-opacity: 0; stroke: #1f77b4"/>
     <use xlink:href="#m3e6229a0bb" x="126.195991" y="151.539451" style="fill-opacity: 0; stroke: #1f77b4"/>
     <use xlink:href="#m3e6229a0bb" x="127.558171" y="108.41503" style="fill-opacity: 0; stroke: #1f77b4"/>
     <use xlink:href="#m3e6229a0bb" x="128.919844" y="97.732161" style="fill-opacity: 0; stroke: #1f77b4"/>
     <use xlink:href="#m3e6229a0bb" x="130.282024" y="137.214153" style="fill-opacity: 0; stroke: #1f77b4"/>
     <use xlink:href="#m3e6229a0bb" x="131.644203" y="191.456392" style="fill-opacity: 0; stroke: #1f77b4"/>
     <use xlink:href="#m3e6229a0bb" x="133.005877" y="216.404326" style="fill-opacity: 0; stroke: #1f77b4"/>
     <use xlink:href="#m3e6229a0bb" x="134.368056" y="216.404326" style="fill-opacity: 0; stroke: #1f77b4"/>
     <use xlink:href="#m3e6229a0bb" x="135.730235" y="208.924094" style="fill-opacity: 0; stroke: #1f77b4"/>
     <use xlink:href="#m3e6229a0bb" x="137.091909" y="200.716959" style="fill-opacity: 0; stroke: #1f77b4"/>
     <use xlink:href="#m3e6229a0bb" x="138.455605" y="195.904423" style="fill-opacity: 0; stroke: #1f77b4"/>
     <use xlink:href="#m3e6229a0bb" x="139.817784" y="182.855763" style="fill-opacity: 0; stroke: #1f77b4"/>
     <use xlink:href="#m3e6229a0bb" x="141.179963" y="144.826967" style="fill-opacity: 0; stroke: #1f77b4"/>
     <use xlink:href="#m3e6229a0bb" x="142.543154" y="113.32403" style="fill-opacity: 0; stroke: #1f77b4"/>
     <use xlink:href="#m3e6229a0bb" x="143.905333" y="112.42552" style="fill-opacity: 0; stroke: #1f77b4"/>
     <use xlink:href="#m3e6229a0bb" x="145.269029" y="134.248638" style="fill-opacity: 0; stroke: #1f77b4"/>
     <use xlink:href="#m3e6229a0bb" x="146.632724" y="148.613687" style="fill-opacity: 0; stroke: #1f77b4"/>
     <use xlink:href="#m3e6229a0bb" x="147.994398" y="144.173005" style="fill-opacity: 0; stroke: #1f77b4"/>
     <use xlink:href="#m3e6229a0bb" x="149.358094" y="135.347828" style="fill-opacity: 0; stroke: #1f77b4"/>
     <use xlink:href="#m3e6229a0bb" x="150.721789" y="136.628003" style="fill-opacity: 0; stroke: #1f77b4"/>
     <use xlink:href="#m3e6229a0bb" x="152.085485" y="166.316898" style="fill-opacity: 0; stroke: #1f77b4"/>
     <use xlink:href="#m3e6229a0bb" x="153.448675" y="186.295965" style="fill-opacity: 0; stroke: #1f77b4"/>
     <use xlink:href="#m3e6229a0bb" x="154.810854" y="192.959452" style="fill-opacity: 0; stroke: #1f77b4"/>
     <use xlink:href="#m3e6229a0bb" x="156.17455" y="193.05464" style="fill-opacity: 0; stroke: #1f77b4"/>
     <use xlink:href="#m3e6229a0bb" x="157.539762" y="184.628408" style="fill-opacity: 0; stroke: #1f77b4"/>
     <use xlink:href="#m3e6229a0bb" x="158.902952" y="170.998288" style="fill-opacity: 0; stroke: #1f77b4"/>
     <use xlink:href="#m3e6229a0bb" x="160.266648" y="166.954821" style="fill-opacity: 0; stroke: #1f77b4"/>
     <use xlink:href="#m3e6229a0bb" x="161.630343" y="176.433616" style="fill-opacity: 0; stroke: #1f77b4"/>
     <use xlink:href="#m3e6229a0bb" x="162.994039" y="190.655469" style="fill-opacity: 0; stroke: #1f77b4"/>
     <use xlink:href="#m3e6229a0bb" x="164.358746" y="196.856753" style="fill-opacity: 0; stroke: #1f77b4"/>
     <use xlink:href="#m3e6229a0bb" x="165.722441" y="193.976799" style="fill-opacity: 0; stroke: #1f77b4"/>
     <use xlink:href="#m3e6229a0bb" x="167.087653" y="189.828568" style="fill-opacity: 0; stroke: #1f77b4"/>
     <use xlink:href="#m3e6229a0bb" x="168.451349" y="190.143585" style="fill-opacity: 0; stroke: #1f77b4"/>
     <use xlink:href="#m3e6229a0bb" x="169.816561" y="183.776676" style="fill-opacity: 0; stroke: #1f77b4"/>
     <use xlink:href="#m3e6229a0bb" x="171.181267" y="162.899587" style="fill-opacity: 0; stroke: #1f77b4"/>
     <use xlink:href="#m3e6229a0bb" x="172.544963" y="139.589811" style="fill-opacity: 0; stroke: #1f77b4"/>
     <use xlink:href="#m3e6229a0bb" x="173.910175" y="139.757378" style="fill-opacity: 0; stroke: #1f77b4"/>
     <use xlink:href="#m3e6229a0bb" x="175.275387" y="162.646109" style="fill-opacity: 0; stroke: #1f77b4"/>
     <use xlink:href="#m3e6229a0bb" x="176.640599" y="164.098482" style="fill-opacity: 0; stroke: #1f77b4"/>
     <use xlink:href="#m3e6229a0bb" x="178.005305" y="154.670641" style="fill-opacity: 0; stroke: #1f77b4"/>
     <use xlink:href="#m3e6229a0bb" x="179.370517" y="154.942746" style="fill-opacity: 0; stroke: #1f77b4"/>
     <use xlink:href="#m3e6229a0bb" x="180.735729" y="158.970281" style="fill-opacity: 0; stroke: #1f77b4"/>
     <use xlink:href="#m3e6229a0bb" x="182.100941" y="163.872076" style="fill-opacity: 0; stroke: #1f77b4"/>
     <use xlink:href="#m3e6229a0bb" x="183.466153" y="179.534077" style="fill-opacity: 0; stroke: #1f77b4"/>
     <use xlink:href="#m3e6229a0bb" x="184.83086" y="196.345609" style="fill-opacity: 0; stroke: #1f77b4"/>
     <use xlink:href="#m3e6229a0bb" x="186.196072" y="201.824098" style="fill-opacity: 0; stroke: #1f77b4"/>
     <use xlink:href="#m3e6229a0bb" x="187.5628" y="198.614873" style="fill-opacity: 0; stroke: #1f77b4"/>
     <use xlink:href="#m3e6229a0bb" x="188.928012" y="192.728649" style="fill-opacity: 0; stroke: #1f77b4"/>
     <use xlink:href="#m3e6229a0bb" x="190.29474" y="194.88886" style="fill-opacity: 0; stroke: #1f77b4"/>
     <use xlink:href="#m3e6229a0bb" x="191.659447" y="202.133675" style="fill-opacity: 0; stroke: #1f77b4"/>
     <use xlink:href="#m3e6229a0bb" x="193.026175" y="206.008182" style="fill-opacity: 0; stroke: #1f77b4"/>
     <use xlink:href="#m3e6229a0bb" x="194.391387" y="199.412038" style="fill-opacity: 0; stroke: #1f77b4"/>
     <use xlink:href="#m3e6229a0bb" x="195.758115" y="191.92288" style="fill-opacity: 0; stroke: #1f77b4"/>
     <use xlink:href="#m3e6229a0bb" x="197.124844" y="202.190388" style="fill-opacity: 0; stroke: #1f77b4"/>
     <use xlink:href="#m3e6229a0bb" x="198.491572" y="209.923921" style="fill-opacity: 0; stroke: #1f77b4"/>
     <use xlink:href="#m3e6229a0bb" x="199.856784" y="216.404326" style="fill-opacity: 0; stroke: #1f77b4"/>
     <use xlink:href="#m3e6229a0bb" x="201.223007" y="216.404326" style="fill-opacity: 0; stroke: #1f77b4"/>
     <use xlink:href="#m3e6229a0bb" x="202.589735" y="216.404326" style="fill-opacity: 0; stroke: #1f77b4"/>
     <use xlink:href="#m3e6229a0bb" x="203.956463" y="216.404326" style="fill-opacity: 0; stroke: #1f77b4"/>
     <use xlink:href="#m3e6229a0bb" x="205.323192" y="216.404326" style="fill-opacity: 0; stroke: #1f77b4"/>
     <use xlink:href="#m3e6229a0bb" x="206.691436" y="216.404326" style="fill-opacity: 0; stroke: #1f77b4"/>
     <use xlink:href="#m3e6229a0bb" x="208.058165" y="216.404326" style="fill-opacity: 0; stroke: #1f77b4"/>
     <use xlink:href="#m3e6229a0bb" x="209.424893" y="216.404326" style="fill-opacity: 0; stroke: #1f77b4"/>
     <use xlink:href="#m3e6229a0bb" x="210.791116" y="215.169222" style="fill-opacity: 0; stroke: #1f77b4"/>
     <use xlink:href="#m3e6229a0bb" x="212.159361" y="212.217749" style="fill-opacity: 0; stroke: #1f77b4"/>
     <use xlink:href="#m3e6229a0bb" x="213.526089" y="208.091524" style="fill-opacity: 0; stroke: #1f77b4"/>
     <use xlink:href="#m3e6229a0bb" x="214.894333" y="206.217934" style="fill-opacity: 0; stroke: #1f77b4"/>
     <use xlink:href="#m3e6229a0bb" x="216.261062" y="208.668904" style="fill-opacity: 0; stroke: #1f77b4"/>
     <use xlink:href="#m3e6229a0bb" x="217.629306" y="208.211332" style="fill-opacity: 0; stroke: #1f77b4"/>
     <use xlink:href="#m3e6229a0bb" x="218.996035" y="207.916843" style="fill-opacity: 0; stroke: #1f77b4"/>
     <use xlink:href="#m3e6229a0bb" x="220.364279" y="206.500268" style="fill-opacity: 0; stroke: #1f77b4"/>
     <use xlink:href="#m3e6229a0bb" x="221.732524" y="195.860971" style="fill-opacity: 0; stroke: #1f77b4"/>
     <use xlink:href="#m3e6229a0bb" x="223.100263" y="181.475088" style="fill-opacity: 0; stroke: #1f77b4"/>
     <use xlink:href="#m3e6229a0bb" x="224.468508" y="173.443751" style="fill-opacity: 0; stroke: #1f77b4"/>
     <use xlink:href="#m3e6229a0bb" x="225.836753" y="178.205502" style="fill-opacity: 0; stroke: #1f77b4"/>
     <use xlink:href="#m3e6229a0bb" x="227.204997" y="181.82343" style="fill-opacity: 0; stroke: #1f77b4"/>
     <use xlink:href="#m3e6229a0bb" x="228.573242" y="177.394885" style="fill-opacity: 0; stroke: #1f77b4"/>
     <use xlink:href="#m3e6229a0bb" x="229.941486" y="168.869557" style="fill-opacity: 0; stroke: #1f77b4"/>
     <use xlink:href="#m3e6229a0bb" x="231.309731" y="172.777724" style="fill-opacity: 0; stroke: #1f77b4"/>
     <use xlink:href="#m3e6229a0bb" x="232.677976" y="174.101919" style="fill-opacity: 0; stroke: #1f77b4"/>
     <use xlink:href="#m3e6229a0bb" x="234.04622" y="169.112355" style="fill-opacity: 0; stroke: #1f77b4"/>
     <use xlink:href="#m3e6229a0bb" x="235.415981" y="179.811646" style="fill-opacity: 0; stroke: #1f77b4"/>
     <use xlink:href="#m3e6229a0bb" x="236.784226" y="202.803387" style="fill-opacity: 0; stroke: #1f77b4"/>
     <use xlink:href="#m3e6229a0bb" x="238.153987" y="211.886685" style="fill-opacity: 0; stroke: #1f77b4"/>
     <use xlink:href="#m3e6229a0bb" x="239.521726" y="216.404326" style="fill-opacity: 0; stroke: #1f77b4"/>
     <use xlink:href="#m3e6229a0bb" x="240.891487" y="216.404326" style="fill-opacity: 0; stroke: #1f77b4"/>
     <use xlink:href="#m3e6229a0bb" x="242.259732" y="216.404326" style="fill-opacity: 0; stroke: #1f77b4"/>
     <use xlink:href="#m3e6229a0bb" x="243.629493" y="216.404326" style="fill-opacity: 0; stroke: #1f77b4"/>
     <use xlink:href="#m3e6229a0bb" x="244.999254" y="216.404326" style="fill-opacity: 0; stroke: #1f77b4"/>
     <use xlink:href="#m3e6229a0bb" x="246.369015" y="216.404326" style="fill-opacity: 0; stroke: #1f77b4"/>
     <use xlink:href="#m3e6229a0bb" x="247.73726" y="216.404326" style="fill-opacity: 0; stroke: #1f77b4"/>
     <use xlink:href="#m3e6229a0bb" x="249.10702" y="214.866983" style="fill-opacity: 0; stroke: #1f77b4"/>
     <use xlink:href="#m3e6229a0bb" x="250.476781" y="216.404326" style="fill-opacity: 0; stroke: #1f77b4"/>
     <use xlink:href="#m3e6229a0bb" x="251.846542" y="216.404326" style="fill-opacity: 0; stroke: #1f77b4"/>
     <use xlink:href="#m3e6229a0bb" x="253.216303" y="216.404326" style="fill-opacity: 0; stroke: #1f77b4"/>
     <use xlink:href="#m3e6229a0bb" x="254.587581" y="216.404326" style="fill-opacity: 0; stroke: #1f77b4"/>
     <use xlink:href="#m3e6229a0bb" x="255.957342" y="216.404326" style="fill-opacity: 0; stroke: #1f77b4"/>
     <use xlink:href="#m3e6229a0bb" x="257.327103" y="216.404326" style="fill-opacity: 0; stroke: #1f77b4"/>
     <use xlink:href="#m3e6229a0bb" x="258.696864" y="216.404326" style="fill-opacity: 0; stroke: #1f77b4"/>
     <use xlink:href="#m3e6229a0bb" x="260.068141" y="216.404326" style="fill-opacity: 0; stroke: #1f77b4"/>
     <use xlink:href="#m3e6229a0bb" x="261.437902" y="216.404326" style="fill-opacity: 0; stroke: #1f77b4"/>
     <use xlink:href="#m3e6229a0bb" x="262.809179" y="216.404326" style="fill-opacity: 0; stroke: #1f77b4"/>
     <use xlink:href="#m3e6229a0bb" x="264.17894" y="216.404326" style="fill-opacity: 0; stroke: #1f77b4"/>
     <use xlink:href="#m3e6229a0bb" x="265.550218" y="216.404326" style="fill-opacity: 0; stroke: #1f77b4"/>
     <use xlink:href="#m3e6229a0bb" x="266.919979" y="216.404326" style="fill-opacity: 0; stroke: #1f77b4"/>
     <use xlink:href="#m3e6229a0bb" x="268.291256" y="216.404326" style="fill-opacity: 0; stroke: #1f77b4"/>
     <use xlink:href="#m3e6229a0bb" x="269.662533" y="216.404326" style="fill-opacity: 0; stroke: #1f77b4"/>
     <use xlink:href="#m3e6229a0bb" x="271.033811" y="216.404326" style="fill-opacity: 0; stroke: #1f77b4"/>
     <use xlink:href="#m3e6229a0bb" x="272.405088" y="216.404326" style="fill-opacity: 0; stroke: #1f77b4"/>
     <use xlink:href="#m3e6229a0bb" x="273.776365" y="216.404326" style="fill-opacity: 0; stroke: #1f77b4"/>
     <use xlink:href="#m3e6229a0bb" x="275.147643" y="216.404326" style="fill-opacity: 0; stroke: #1f77b4"/>
     <use xlink:href="#m3e6229a0bb" x="276.51892" y="216.404326" style="fill-opacity: 0; stroke: #1f77b4"/>
     <use xlink:href="#m3e6229a0bb" x="277.890197" y="216.404326" style="fill-opacity: 0; stroke: #1f77b4"/>
     <use xlink:href="#m3e6229a0bb" x="279.261475" y="216.404326" style="fill-opacity: 0; stroke: #1f77b4"/>
     <use xlink:href="#m3e6229a0bb" x="280.632752" y="216.404326" style="fill-opacity: 0; stroke: #1f77b4"/>
     <use xlink:href="#m3e6229a0bb" x="282.005546" y="216.404326" style="fill-opacity: 0; stroke: #1f77b4"/>
     <use xlink:href="#m3e6229a0bb" x="283.376823" y="216.404326" style="fill-opacity: 0; stroke: #1f77b4"/>
     <use xlink:href="#m3e6229a0bb" x="284.7481" y="216.404326" style="fill-opacity: 0; stroke: #1f77b4"/>
     <use xlink:href="#m3e6229a0bb" x="286.120894" y="216.404326" style="fill-opacity: 0; stroke: #1f77b4"/>
     <use xlink:href="#m3e6229a0bb" x="287.492171" y="216.404326" style="fill-opacity: 0; stroke: #1f77b4"/>
     <use xlink:href="#m3e6229a0bb" x="288.864965" y="179.077445" style="fill-opacity: 0; stroke: #1f77b4"/>
     <use xlink:href="#m3e6229a0bb" x="290.237759" y="37.081277" style="fill-opacity: 0; stroke: #1f77b4"/>
     <use xlink:href="#m3e6229a0bb" x="290.412451" y="-1" style="fill-opacity: 0; stroke: #1f77b4"/>
     <use xlink:href="#m3e6229a0bb" x="299.680822" y="-1" style="fill-opacity: 0; stroke: #1f77b4"/>
     <use xlink:href="#m3e6229a0bb" x="299.846303" y="70.705786" style="fill-opacity: 0; stroke: #1f77b4"/>
     <use xlink:href="#m3e6229a0bb" x="301.219097" y="216.404326" style="fill-opacity: 0; stroke: #1f77b4"/>
     <use xlink:href="#m3e6229a0bb" x="302.591891" y="216.404326" style="fill-opacity: 0; stroke: #1f77b4"/>
     <use xlink:href="#m3e6229a0bb" x="303.964684" y="216.404326" style="fill-opacity: 0; stroke: #1f77b4"/>
     <use xlink:href="#m3e6229a0bb" x="305.337478" y="198.769266" style="fill-opacity: 0; stroke: #1f77b4"/>
     <use xlink:href="#m3e6229a0bb" x="306.711788" y="207.02123" style="fill-opacity: 0; stroke: #1f77b4"/>
     <use xlink:href="#m3e6229a0bb" x="308.084582" y="216.404326" style="fill-opacity: 0; stroke: #1f77b4"/>
     <use xlink:href="#m3e6229a0bb" x="309.458892" y="216.404326" style="fill-opacity: 0; stroke: #1f77b4"/>
     <use xlink:href="#m3e6229a0bb" x="310.831686" y="216.404326" style="fill-opacity: 0; stroke: #1f77b4"/>
     <use xlink:href="#m3e6229a0bb" x="312.205996" y="216.404326" style="fill-opacity: 0; stroke: #1f77b4"/>
     <use xlink:href="#m3e6229a0bb" x="313.578789" y="216.404326" style="fill-opacity: 0; stroke: #1f77b4"/>
     <use xlink:href="#m3e6229a0bb" x="314.953605" y="216.404326" style="fill-opacity: 0; stroke: #1f77b4"/>
     <use xlink:href="#m3e6229a0bb" x="316.327915" y="208.280063" style="fill-opacity: 0; stroke: #1f77b4"/>
     <use xlink:href="#m3e6229a0bb" x="317.700708" y="216.404326" style="fill-opacity: 0; stroke: #1f77b4"/>
     <use xlink:href="#m3e6229a0bb" x="319.075018" y="216.404326" style="fill-opacity: 0; stroke: #1f77b4"/>
     <use xlink:href="#m3e6229a0bb" x="320.449328" y="216.404326" style="fill-opacity: 0; stroke: #1f77b4"/>
    </g>
   </g>
   <g id="line2d_2">
    <path d="M 43.29563 215.565713 
L 52.792977 215.162412 
L 58.22097 214.743289 
L 62.293356 214.228334 
L 65.008111 213.702009 
L 67.724382 212.902694 
L 69.081507 212.331829 
L 70.440654 211.575685 
L 71.798284 210.539486 
L 73.156925 209.048223 
L 74.514555 206.766713 
L 75.873197 202.958178 
L 77.232343 195.808053 
L 78.589468 180.433437 
L 79.948615 149.000035 
L 81.307761 138.003216 
L 82.666402 156.366593 
L 84.025549 150.782364 
L 85.38419 124.876705 
L 86.743337 120.616746 
L 88.102483 153.167475 
L 89.462641 178.684968 
L 90.821787 191.985716 
L 92.180934 198.843961 
L 93.541092 202.48585 
L 94.900238 204.326398 
L 96.260396 204.941813 
L 97.619542 204.419344 
L 98.980205 202.337178 
L 100.338846 197.253608 
L 101.699509 185.441999 
L 103.060172 168.278472 
L 104.42033 175.173334 
L 105.780993 187.215018 
L 107.141656 189.123681 
L 108.501813 183.103465 
L 109.862476 168.279619 
L 111.222634 146.807663 
L 112.583297 142.244034 
L 113.943959 162.645074 
L 115.305633 181.277917 
L 116.666296 191.634592 
L 118.026959 196.620177 
L 119.388633 198.104496 
L 120.749296 195.598957 
L 122.111475 182.221273 
L 123.473655 178.565373 
L 124.833812 181.403911 
L 126.195991 163.493837 
L 127.558171 117.99219 
L 128.919844 88.813901 
L 130.282024 139.756292 
L 131.644203 174.564282 
L 133.005877 188.942351 
L 134.368056 194.726508 
L 135.730235 196.366356 
L 137.091909 195.111125 
L 138.455605 190.567096 
L 139.817784 180.506026 
L 141.179963 159.298019 
L 142.543154 121.423649 
L 143.905333 103.855739 
L 145.269029 133.776997 
L 146.632724 152.170114 
L 147.994398 147.986604 
L 149.358094 132.020903 
L 150.721789 137.497288 
L 152.085485 162.500036 
L 153.448675 179.932868 
L 154.810854 188.222585 
L 156.17455 190.43152 
L 157.539762 186.972857 
L 160.266648 164.989397 
L 161.630343 174.59289 
L 162.994039 188.190958 
L 164.358746 194.951305 
L 165.722441 197.160201 
L 167.087653 196.394998 
L 168.451349 192.604777 
L 169.816561 184.084662 
L 171.181267 167.046362 
L 172.544963 142.393808 
L 173.910175 139.042006 
L 175.275387 156.376999 
L 176.640599 163.963159 
L 178.005305 160.341155 
L 179.370517 153.228435 
L 180.735729 154.436204 
L 182.100941 166.453751 
L 183.466153 180.008438 
L 184.83086 189.971295 
L 186.196072 196.264751 
L 187.5628 199.40385 
L 188.928012 195.882007 
L 190.29474 189.928112 
L 191.659447 203.629219 
L 193.026175 205.08252 
L 194.391387 201.415292 
L 195.758115 191.585686 
L 197.124844 201.07582 
L 198.491572 207.776398 
L 199.856784 210.08329 
L 201.223007 211.100909 
L 202.589735 211.634704 
L 203.956463 211.932142 
L 206.691436 212.136582 
L 209.424893 211.976189 
L 212.159361 211.444254 
L 213.526089 210.993446 
L 214.894333 210.365282 
L 216.261062 209.485934 
L 217.629306 208.218755 
L 218.996035 206.30444 
L 220.364279 203.166354 
L 221.732524 197.417294 
L 223.100263 186.119937 
L 224.468508 172.953898 
L 227.204997 181.851051 
L 228.573242 179.323189 
L 229.941486 173.495378 
L 231.309731 168.714051 
L 232.677976 169.195185 
L 234.04622 175.327622 
L 235.415981 183.669286 
L 236.784226 191.241639 
L 238.153987 197.119899 
L 239.521726 201.422154 
L 240.891487 204.54704 
L 242.259732 206.831113 
L 243.629493 208.532295 
L 244.999254 209.821733 
L 246.369015 210.8175 
L 247.73726 211.599338 
L 250.476781 212.73131 
L 253.216303 213.493398 
L 255.957342 214.030857 
L 260.068141 214.582489 
L 265.550218 215.047522 
L 273.776365 215.454285 
L 284.7481 215.749343 
L 302.591891 215.989535 
L 320.449328 216.112229 
L 320.449328 216.112229 
" clip-path="url(#pa36585ff4c)" style="fill: none; stroke: #ff0000; stroke-width: 1.5; stroke-linecap: square"/>
   </g>
   <g id="line2d_3">
    <path d="M 295.727417 216.404326 
L 295.727417 17.735865 
" clip-path="url(#pa36585ff4c)" style="fill: none; stroke-dasharray: 3.7,1.6; stroke-dashoffset: 0; stroke: #808080"/>
   </g>
   <g id="patch_3">
    <path d="M 43.003987 216.404326 
L 43.003987 17.735865 
" style="fill: none; stroke: #000000; stroke-linejoin: miter; stroke-linecap: square"/>
   </g>
   <g id="patch_4">
    <path d="M 320.99976 216.404326 
L 320.99976 17.735865 
" style="fill: none; stroke: #000000; stroke-linejoin: miter; stroke-linecap: square"/>
   </g>
   <g id="patch_5">
    <path d="M 43.003987 216.404326 
L 320.99976 216.404326 
" style="fill: none; stroke: #000000; stroke-linejoin: miter; stroke-linecap: square"/>
   </g>
   <g id="patch_6">
    <path d="M 43.003987 17.735865 
L 320.99976 17.735865 
" style="fill: none; stroke: #000000; stroke-linejoin: miter; stroke-linecap: square"/>
   </g>
   <g id="matplotlib.axis_1">
    <g id="xtick_1">
     <g id="line2d_4">
      <defs>
       <path id="mda239e4b04" d="M 0 0 
L 0 3.75 
" style="stroke: #000000; stroke-width: 1.25"/>
      </defs>
      <g>
       <use xlink:href="#mda239e4b04" x="43.003987" y="216.404326" style="stroke: #000000; stroke-width: 1.25"/>
      </g>
     </g>
     <g id="text_1">
      <!-- $\mathdefault{429}$ -->
      <g transform="translate(33.818987 231.52792)">
       <text>
        <tspan style="font: 11px 'Arial'" x="0 6.117676 12.235352" y="-0.09375">429</tspan>
       </text>
      </g>
     </g>
    </g>
    <g id="xtick_2">
     <g id="line2d_5">
      <g>
       <use xlink:href="#mda239e4b04" x="93.548673" y="216.404326" style="stroke: #000000; stroke-width: 1.25"/>
      </g>
     </g>
     <g id="text_2">
      <!-- $\mathdefault{430}$ -->
      <g transform="translate(84.363673 231.52792)">
       <text>
        <tspan style="font: 11px 'Arial'" x="0 6.117676 12.235352" y="-0.09375">430</tspan>
       </text>
      </g>
     </g>
    </g>
    <g id="xtick_3">
     <g id="line2d_6">
      <g>
       <use xlink:href="#mda239e4b04" x="144.093359" y="216.404326" style="stroke: #000000; stroke-width: 1.25"/>
      </g>
     </g>
     <g id="text_3">
      <!-- $\mathdefault{431}$ -->
      <g transform="translate(134.908359 231.52792)">
       <text>
        <tspan style="font: 11px 'Arial'" x="0 6.117676 12.235352" y="-0.09375">431</tspan>
       </text>
      </g>
     </g>
    </g>
    <g id="xtick_4">
     <g id="line2d_7">
      <g>
       <use xlink:href="#mda239e4b04" x="194.638045" y="216.404326" style="stroke: #000000; stroke-width: 1.25"/>
      </g>
     </g>
     <g id="text_4">
      <!-- $\mathdefault{432}$ -->
      <g transform="translate(185.453045 231.52792)">
       <text>
        <tspan style="font: 11px 'Arial'" x="0 6.117676 12.235352" y="-0.09375">432</tspan>
       </text>
      </g>
     </g>
    </g>
    <g id="xtick_5">
     <g id="line2d_8">
      <g>
       <use xlink:href="#mda239e4b04" x="245.182731" y="216.404326" style="stroke: #000000; stroke-width: 1.25"/>
      </g>
     </g>
     <g id="text_5">
      <!-- $\mathdefault{433}$ -->
      <g transform="translate(235.997731 231.52792)">
       <text>
        <tspan style="font: 11px 'Arial'" x="0 6.117676 12.235352" y="-0.09375">433</tspan>
       </text>
      </g>
     </g>
    </g>
    <g id="xtick_6">
     <g id="line2d_9">
      <g>
       <use xlink:href="#mda239e4b04" x="295.727417" y="216.404326" style="stroke: #000000; stroke-width: 1.25"/>
      </g>
     </g>
     <g id="text_6">
      <!-- $\mathdefault{434}$ -->
      <g transform="translate(286.542417 231.52792)">
       <text>
        <tspan style="font: 11px 'Arial'" x="0 6.117676 12.235352" y="-0.09375">434</tspan>
       </text>
      </g>
     </g>
    </g>
    <g id="text_7">
     <!-- $\lambda$ {\sffamily (nm)} -->
     <g transform="translate(164.206736 246.411565) scale(0.12 -0.12)">
      <defs>
       <path id="StandardSymL-6c" d="M 480 3650 
C 525 4013 710 4224 998 4224 
C 1203 4224 1376 4064 1472 3778 
C 1517 3650 1574 3440 1632 3198 
L 154 19 
L 755 19 
L 1843 2301 
C 2048 1059 2150 607 2266 358 
C 2406 83 2611 -64 2848 -64 
C 3098 -64 3296 89 3405 371 
C 3475 543 3501 715 3507 1014 
L 3373 1014 
C 3322 683 3174 499 2944 499 
C 2752 499 2586 620 2483 843 
C 2400 1008 2355 1174 2266 1645 
L 2093 2466 
C 2086 2485 2080 2530 2067 2594 
C 1920 3415 1690 4192 1536 4422 
C 1395 4627 1203 4736 992 4736 
C 602 4736 397 4403 326 3650 
L 480 3650 
z
" transform="scale(0.015625)"/>
       <path id="NimbusSanL-Regu-28" d="M 1510 4672 
C 870 3833 467 2668 467 1663 
C 467 652 870 -513 1510 -1351 
L 1862 -1351 
C 1299 -436 986 639 986 1663 
C 986 2681 1299 3763 1862 4672 
L 1510 4672 
z
" transform="scale(0.015625)"/>
       <path id="NimbusSanL-Regu-6e" d="M 448 3328 
L 448 0 
L 986 0 
L 986 1835 
C 986 2539 1344 2988 1894 2988 
C 2317 2988 2586 2732 2586 2328 
L 2586 0 
L 3117 0 
L 3117 2539 
C 3117 3097 2701 3456 2054 3456 
C 1555 3456 1235 3263 941 2796 
L 941 3328 
L 448 3328 
z
" transform="scale(0.015625)"/>
       <path id="NimbusSanL-Regu-6d" d="M 448 3328 
L 448 0 
L 986 0 
L 986 2089 
C 986 2597 1338 2988 1773 2988 
C 2170 2988 2394 2744 2394 2315 
L 2394 0 
L 2931 0 
L 2931 2109 
C 2931 2597 3283 2988 3718 2988 
C 4109 2988 4339 2738 4339 2315 
L 4339 0 
L 4877 0 
L 4877 2520 
C 4877 3123 4531 3456 3904 3456 
C 3456 3456 3187 3321 2874 2943 
C 2675 3302 2406 3456 1971 3456 
C 1523 3456 1229 3289 941 2886 
L 941 3328 
L 448 3328 
z
" transform="scale(0.015625)"/>
       <path id="NimbusSanL-Regu-29" d="M 595 -1351 
C 1235 -513 1638 652 1638 1657 
C 1638 2668 1235 3833 595 4672 
L 243 4672 
C 806 3756 1120 2681 1120 1657 
C 1120 639 806 -442 243 -1351 
L 595 -1351 
z
" transform="scale(0.015625)"/>
      </defs>
      <use xlink:href="#StandardSymL-6c" transform="scale(0.996264)"/>
      <use xlink:href="#NimbusSanL-Regu-28" transform="translate(91.855235 0) scale(0.996264)"/>
      <use xlink:href="#NimbusSanL-Regu-6e" transform="translate(125.030464 0) scale(0.996264)"/>
      <use xlink:href="#NimbusSanL-Regu-6d" transform="translate(180.422141 0) scale(0.996264)"/>
      <use xlink:href="#NimbusSanL-Regu-29" transform="translate(263.410572 0) scale(0.996264)"/>
     </g>
    </g>
   </g>
   <g id="matplotlib.axis_2">
    <g id="ytick_1">
     <g id="line2d_10">
      <defs>
       <path id="mb806ffdaba" d="M 0 0 
L -3.75 0 
" style="stroke: #000000; stroke-width: 1.25"/>
      </defs>
      <g>
       <use xlink:href="#mb806ffdaba" x="43.003987" y="216.404326" style="stroke: #000000; stroke-width: 1.25"/>
      </g>
     </g>
     <g id="text_8">
      <!-- $\mathdefault{0.0}$ -->
      <g transform="translate(20.353987 220.341123)">
       <text>
        <tspan style="font: 11px 'Arial'" x="0 6.117676 9.173828" y="-0.09375">0.0</tspan>
       </text>
      </g>
     </g>
    </g>
    <g id="ytick_2">
     <g id="line2d_11">
      <g>
       <use xlink:href="#mb806ffdaba" x="43.003987" y="181.209153" style="stroke: #000000; stroke-width: 1.25"/>
      </g>
     </g>
     <g id="text_9">
      <!-- $\mathdefault{0.5}$ -->
      <g transform="translate(20.353987 185.14595)">
       <text>
        <tspan style="font: 11px 'Arial'" x="0 6.117676 9.173828" y="-0.09375">0.5</tspan>
       </text>
      </g>
     </g>
    </g>
    <g id="ytick_3">
     <g id="line2d_12">
      <g>
       <use xlink:href="#mb806ffdaba" x="43.003987" y="146.01398" style="stroke: #000000; stroke-width: 1.25"/>
      </g>
     </g>
     <g id="text_10">
      <!-- $\mathdefault{1.0}$ -->
      <g transform="translate(20.353987 149.950777)">
       <text>
        <tspan style="font: 11px 'Arial'" x="0 6.117676 9.173828" y="-0.09375">1.0</tspan>
       </text>
      </g>
     </g>
    </g>
    <g id="ytick_4">
     <g id="line2d_13">
      <g>
       <use xlink:href="#mb806ffdaba" x="43.003987" y="110.818807" style="stroke: #000000; stroke-width: 1.25"/>
      </g>
     </g>
     <g id="text_11">
      <!-- $\mathdefault{1.5}$ -->
      <g transform="translate(20.353987 114.755604)">
       <text>
        <tspan style="font: 11px 'Arial'" x="0 6.117676 9.173828" y="-0.09375">1.5</tspan>
       </text>
      </g>
     </g>
    </g>
    <g id="ytick_5">
     <g id="line2d_14">
      <g>
       <use xlink:href="#mb806ffdaba" x="43.003987" y="75.623634" style="stroke: #000000; stroke-width: 1.25"/>
      </g>
     </g>
     <g id="text_12">
      <!-- $\mathdefault{2.0}$ -->
      <g transform="translate(20.353987 79.56043)">
       <text>
        <tspan style="font: 11px 'Arial'" x="0 6.117676 9.173828" y="-0.09375">2.0</tspan>
       </text>
      </g>
     </g>
    </g>
    <g id="ytick_6">
     <g id="line2d_15">
      <g>
       <use xlink:href="#mb806ffdaba" x="43.003987" y="40.428461" style="stroke: #000000; stroke-width: 1.25"/>
      </g>
     </g>
     <g id="text_13">
      <!-- $\mathdefault{2.5}$ -->
      <g transform="translate(20.353987 44.365257)">
       <text>
        <tspan style="font: 11px 'Arial'" x="0 6.117676 9.173828" y="-0.09375">2.5</tspan>
       </text>
      </g>
     </g>
    </g>
    <g id="text_14">
     <!-- $B_{\lambda}$ {\sffamily (photons/cm\textsuperscript{2}/s/nm)} -->
     <g transform="translate(13.728305 177.714049) rotate(-90) scale(0.12 -0.12)">
      <defs>
       <path id="NimbusRomNo9L-ReguItal-42" d="M -51 0 
L 1754 0 
C 2758 0 3450 523 3450 1274 
C 3450 1510 3373 1732 3232 1872 
C 3104 2019 2976 2095 2643 2235 
C 3098 2344 3283 2420 3488 2598 
C 3667 2751 3763 2968 3763 3222 
C 3763 3827 3309 4160 2483 4160 
L 832 4160 
L 832 4057 
C 1229 4025 1325 3974 1325 3795 
C 1325 3700 1299 3541 1254 3388 
L 467 574 
C 352 204 307 166 -51 102 
L -51 0 
z
M 1523 2108 
C 1939 2108 2208 2083 2336 2032 
C 2598 1923 2758 1643 2758 1299 
C 2758 612 2285 192 1504 192 
C 1235 192 1094 287 1094 459 
C 1094 535 1171 841 1318 1350 
C 1402 1637 1440 1783 1523 2108 
z
M 2003 3789 
C 2042 3929 2118 3967 2368 3967 
C 2880 3967 3117 3751 3117 3280 
C 3117 2917 2963 2637 2688 2484 
C 2470 2356 2163 2312 1587 2312 
L 2003 3789 
z
" transform="scale(0.015625)"/>
       <path id="NimbusSanL-Regu-70" d="M 346 -1408 
L 883 -1408 
L 883 371 
C 1165 25 1478 -128 1914 -128 
C 2778 -128 3347 568 3347 1632 
C 3347 2752 2797 3456 1907 3456 
C 1453 3456 1088 3251 838 2854 
L 838 3359 
L 346 3359 
L 346 -1408 
z
M 1818 2956 
C 2406 2956 2790 2440 2790 1644 
C 2790 887 2400 371 1818 371 
C 1254 371 883 880 883 1663 
C 883 2447 1254 2956 1818 2956 
z
" transform="scale(0.015625)"/>
       <path id="NimbusSanL-Regu-68" d="M 448 4672 
L 448 0 
L 979 0 
L 979 1853 
C 979 2539 1338 2988 1888 2988 
C 2061 2988 2234 2930 2362 2834 
C 2515 2725 2579 2565 2579 2328 
L 2579 0 
L 3110 0 
L 3110 2539 
C 3110 3103 2707 3456 2054 3456 
C 1581 3456 1293 3308 979 2898 
L 979 4672 
L 448 4672 
z
" transform="scale(0.015625)"/>
       <path id="NimbusSanL-Regu-6f" d="M 1741 3456 
C 800 3456 230 2784 230 1663 
C 230 543 794 -128 1747 -128 
C 2688 -128 3264 543 3264 1638 
C 3264 2791 2707 3456 1741 3456 
z
M 1747 2963 
C 2349 2963 2707 2472 2707 1644 
C 2707 861 2336 364 1747 364 
C 1152 364 787 855 787 1663 
C 787 2466 1152 2963 1747 2963 
z
" transform="scale(0.015625)"/>
       <path id="NimbusSanL-Regu-74" d="M 1626 3328 
L 1075 3328 
L 1075 4249 
L 544 4249 
L 544 3328 
L 90 3328 
L 90 2892 
L 544 2892 
L 544 402 
C 544 64 774 -128 1190 -128 
C 1318 -128 1446 -116 1626 -84 
L 1626 364 
C 1555 345 1472 339 1370 339 
C 1139 339 1075 402 1075 634 
L 1075 2892 
L 1626 2892 
L 1626 3328 
z
" transform="scale(0.015625)"/>
       <path id="NimbusSanL-Regu-73" d="M 2803 2428 
C 2797 3084 2362 3456 1587 3456 
C 806 3456 301 3052 301 2434 
C 301 1912 570 1663 1363 1472 
L 1862 1351 
C 2234 1262 2381 1129 2381 887 
C 2381 574 2067 364 1600 364 
C 1312 364 1069 447 934 587 
C 851 683 813 778 781 1014 
L 218 1014 
C 243 243 678 -128 1555 -128 
C 2400 -128 2938 288 2938 931 
C 2938 1428 2656 1702 1990 1861 
L 1478 1982 
C 1043 2084 858 2224 858 2459 
C 858 2765 1133 2963 1568 2963 
C 1997 2963 2227 2778 2240 2428 
L 2803 2428 
z
" transform="scale(0.015625)"/>
       <path id="NimbusSanL-Regu-2f" d="M 1466 4672 
L -51 -128 
L 301 -128 
L 1818 4672 
L 1466 4672 
z
" transform="scale(0.015625)"/>
       <path id="NimbusSanL-Regu-63" d="M 3014 2237 
C 2989 2561 2918 2771 2790 2956 
C 2560 3270 2157 3456 1690 3456 
C 787 3456 198 2740 198 1632 
C 198 555 774 -128 1683 -128 
C 2483 -128 2989 352 3053 1167 
L 2515 1167 
C 2426 632 2150 364 1696 364 
C 1107 364 755 842 755 1632 
C 755 2466 1101 2963 1683 2963 
C 2131 2963 2413 2701 2477 2237 
L 3014 2237 
z
" transform="scale(0.015625)"/>
       <path id="NimbusSanL-Regu-32" d="M 3238 556 
L 851 556 
C 909 928 1114 1165 1670 1493 
L 2310 1839 
C 2944 2185 3270 2653 3270 3211 
C 3270 3589 3117 3942 2848 4185 
C 2579 4428 2246 4544 1818 4544 
C 1242 4544 813 4339 563 3955 
C 403 3711 333 3429 320 2967 
L 883 2967 
C 902 3275 941 3461 1018 3608 
C 1165 3884 1459 4051 1798 4051 
C 2310 4051 2694 3685 2694 3198 
C 2694 2839 2483 2531 2080 2300 
L 1491 1967 
C 544 1428 269 999 218 0 
L 3238 0 
L 3238 556 
z
" transform="scale(0.015625)"/>
      </defs>
      <use xlink:href="#NimbusRomNo9L-ReguItal-42" transform="scale(0.996264)"/>
      <use xlink:href="#StandardSymL-6c" transform="translate(60.871631 -20.616338) scale(0.737241)"/>
      <use xlink:href="#NimbusSanL-Regu-28" transform="translate(135.818713 0) scale(0.996264)"/>
      <use xlink:href="#NimbusSanL-Regu-70" transform="translate(168.993943 0) scale(0.996264)"/>
      <use xlink:href="#NimbusSanL-Regu-68" transform="translate(224.38562 0) scale(0.996264)"/>
      <use xlink:href="#NimbusSanL-Regu-6f" transform="translate(279.777297 0) scale(0.996264)"/>
      <use xlink:href="#NimbusSanL-Regu-74" transform="translate(335.168974 0) scale(0.996264)"/>
      <use xlink:href="#NimbusSanL-Regu-6f" transform="translate(362.864143 0) scale(0.996264)"/>
      <use xlink:href="#NimbusSanL-Regu-6e" transform="translate(418.25582 0) scale(0.996264)"/>
      <use xlink:href="#NimbusSanL-Regu-73" transform="translate(473.647497 0) scale(0.996264)"/>
      <use xlink:href="#NimbusSanL-Regu-2f" transform="translate(523.460698 0) scale(0.996264)"/>
      <use xlink:href="#NimbusSanL-Regu-63" transform="translate(551.155868 0) scale(0.996264)"/>
      <use xlink:href="#NimbusSanL-Regu-6d" transform="translate(600.969068 0) scale(0.996264)"/>
      <use xlink:href="#NimbusSanL-Regu-32" transform="translate(683.957498 36.163231) scale(0.737241)"/>
      <use xlink:href="#NimbusSanL-Regu-2f" transform="translate(725.445777 0) scale(0.996264)"/>
      <use xlink:href="#NimbusSanL-Regu-73" transform="translate(753.140947 0) scale(0.996264)"/>
      <use xlink:href="#NimbusSanL-Regu-2f" transform="translate(802.954147 0) scale(0.996264)"/>
      <use xlink:href="#NimbusSanL-Regu-6e" transform="translate(830.649317 0) scale(0.996264)"/>
      <use xlink:href="#NimbusSanL-Regu-6d" transform="translate(886.040994 0) scale(0.996264)"/>
      <use xlink:href="#NimbusSanL-Regu-29" transform="translate(969.029424 0) scale(0.996264)"/>
     </g>
    </g>
    <g id="text_15">
     <!-- $\times\mathdefault{10^{12}}\mathdefault{}$ -->
     <g transform="translate(43.003987 14.735865)">
      <text>
       <tspan style="font: 11px 'STIXGeneral'" x="0" y="-0.799312500000001"></tspan>
       <tspan style="font: 11px 'Arial'" x="7.039993 13.157669" y="-0.799312500000001">10</tspan>
       <tspan style="font: 7.7px 'Arial'" x="19.467003 23.749376" y="-8.465625">12</tspan>
      </text>
     </g>
    </g>
   </g>
   <g id="patch_7">
    <path d="M 217.800817 47.652918 
L 217.800817 67.40298 
L 294.609383 67.40298 
" style="fill: none; stroke: #000000; stroke-linecap: round"/>
    <path d="M 290.609383 65.40298 
L 294.609383 67.40298 
L 290.609383 69.40298 
" style="fill: none; stroke: #000000; stroke-linecap: round"/>
   </g>
   <g id="text_16">
    <g id="patch_8">
     <path d="M 184.100817 50.702711 
L 251.500817 50.702711 
Q 254.500817 50.702711 254.500817 47.702711 
L 254.500817 37.602711 
Q 254.500817 34.602711 251.500817 34.602711 
L 184.100817 34.602711 
Q 181.100817 34.602711 181.100817 37.602711 
L 181.100817 47.702711 
Q 181.100817 50.702711 184.100817 50.702711 
z
" style="fill: #f5deb3; stroke: #000000; stroke-linejoin: miter"/>
    </g>
    <!-- D$_{\gamma}$ (434.00) nm -->
    <g transform="translate(184.100817 44.902711)">
     <text>
      <tspan style="font: 10px 'Arial'" x="0 10.686517 13.464837 16.794915 22.356439 27.917962 33.479486 36.257806 41.81933 47.380853 50.710931 53.489251 59.050775" y="-0.71875">D(434.00)nm</tspan>
      <tspan style="font: italic 7px 'STIXGeneral'" x="7.375898" y="0.6031250000000004"></tspan>
     </text>
    </g>
   </g>
   <g id="text_17">
    <text style="font: 10px 'Arial'; text-anchor: middle" x="218.300749" y="107.445318" transform="rotate(-0 218.300749 107.445318)">Q-branch</text>
   </g>
   <g id="text_18">
    <text style="font: 10px 'Arial'; text-anchor: middle" x="130.536056" y="24.403233" transform="rotate(-0 130.536056 24.403233)">B-D + C-D</text>
   </g>
   <g id="text_19">
    <text style="font: 700 12px 'Arial'; text-anchor: middle" x="182.001874" y="11.735865" transform="rotate(-0 182.001874 11.735865)">HP boron rod (redeposit test) - 51 min</text>
   </g>
  </g>
 </g>
 <defs>
  <clipPath id="pa36585ff4c">
   <rect x="43.003987" y="17.735865" width="277.995773" height="198.668461"/>
  </clipPath>
 </defs>
</svg>
