<?xml version="1.0" encoding="utf-8" standalone="no"?>
<!DOCTYPE svg PUBLIC "-//W3C//DTD SVG 1.1//EN"
  "http://www.w3.org/Graphics/SVG/1.1/DTD/svg11.dtd">
<svg xmlns:xlink="http://www.w3.org/1999/xlink" width="324pt" height="252pt" viewBox="0 0 324 252" xmlns="http://www.w3.org/2000/svg" version="1.1">
 <metadata>
  <rdf:RDF xmlns:dc="http://purl.org/dc/elements/1.1/" xmlns:cc="http://creativecommons.org/ns#" xmlns:rdf="http://www.w3.org/1999/02/22-rdf-syntax-ns#">
   <cc:Work>
    <dc:type rdf:resource="http://purl.org/dc/dcmitype/StillImage"/>
    <dc:date>2024-12-06T11:05:25.938435</dc:date>
    <dc:format>image/svg+xml</dc:format>
    <dc:creator>
     <cc:Agent>
      <dc:title>Matplotlib v3.9.2, https://matplotlib.org/</dc:title>
     </cc:Agent>
    </dc:creator>
   </cc:Work>
  </rdf:RDF>
 </metadata>
 <defs>
  <style type="text/css">*{stroke-linejoin: round; stroke-linecap: butt}</style>
 </defs>
 <g id="figure_1">
  <g id="patch_1">
   <path d="M 0 252 
L 324 252 
L 324 0 
L 0 0 
z
" style="fill: #ffffff"/>
  </g>
  <g id="axes_1">
   <g id="patch_2">
    <path d="M 43.003987 216.404326 
L 320.99976 216.404326 
L 320.99976 17.735865 
L 43.003987 17.735865 
z
" style="fill: #ffffff"/>
   </g>
   <g id="PolyCollection_1">
    <path d="M 43.312815 216.336057 
L 43.312815 216.404326 
L 44.668424 216.404326 
L 46.024538 216.404326 
L 47.381663 216.404326 
L 48.737776 216.404326 
L 50.094901 216.404326 
L 51.451015 216.404326 
L 52.80814 216.404326 
L 54.16577 216.404326 
L 55.521379 216.404326 
L 56.879009 216.404326 
L 58.236134 216.404326 
L 59.593764 216.404326 
L 60.951394 216.404326 
L 62.308519 216.404326 
L 63.666149 216.404326 
L 65.023274 216.404326 
L 66.380905 216.404326 
L 67.739546 216.404326 
L 69.097176 216.404326 
L 70.454301 216.404326 
L 71.813447 216.404326 
L 73.171078 216.404326 
L 74.529719 216.404326 
L 75.887349 216.404326 
L 77.24599 216.404326 
L 78.605137 216.404326 
L 79.962262 216.404326 
L 81.321408 216.404326 
L 82.680555 216.404326 
L 84.039196 216.404326 
L 85.398343 216.404326 
L 86.756984 216.404326 
L 88.11613 216.404326 
L 89.475277 216.404326 
L 90.835435 216.404326 
L 92.194581 216.404326 
L 93.553728 216.404326 
L 94.913885 216.404326 
L 96.273032 216.404326 
L 97.633189 216.404326 
L 98.992336 216.404326 
L 100.352999 216.404326 
L 101.71164 216.404326 
L 103.072303 216.404326 
L 104.432966 216.404326 
L 105.793123 216.404326 
L 107.153786 216.404326 
L 108.514449 216.404326 
L 109.874607 216.404326 
L 111.23527 216.404326 
L 112.595427 216.404326 
L 113.95609 216.404326 
L 115.316753 216.404326 
L 116.678427 216.404326 
L 118.03909 216.404326 
L 119.399753 216.404326 
L 120.761427 216.404326 
L 122.12209 216.404326 
L 123.484269 216.404326 
L 124.846448 216.404326 
L 126.206606 216.404326 
L 127.568785 216.404326 
L 128.930964 216.404326 
L 130.292638 216.404326 
L 131.654817 216.404326 
L 133.016997 216.404326 
L 134.378671 216.404326 
L 135.74085 216.404326 
L 137.103029 216.404326 
L 138.464703 216.404326 
L 139.828399 216.404326 
L 141.190578 216.404326 
L 142.552757 216.404326 
L 143.915947 216.404326 
L 145.278127 216.404326 
L 146.641822 216.404326 
L 148.005518 216.404326 
L 149.367192 216.404326 
L 150.730887 216.404326 
L 152.094583 216.404326 
L 153.458279 216.404326 
L 154.821469 216.404326 
L 156.183648 216.404326 
L 157.547344 216.404326 
L 158.912556 216.404326 
L 160.275746 216.404326 
L 161.639441 216.404326 
L 163.003137 216.404326 
L 164.366833 216.404326 
L 165.731539 216.404326 
L 167.095235 216.404326 
L 168.460447 216.404326 
L 169.824142 216.404326 
L 171.189354 216.404326 
L 172.554061 216.404326 
L 173.917757 216.404326 
L 175.282969 216.404326 
L 176.648181 216.404326 
L 178.013392 216.404326 
L 179.378099 216.404326 
L 180.743311 216.404326 
L 182.108523 216.404326 
L 183.473735 216.404326 
L 184.838947 216.404326 
L 186.203653 216.404326 
L 187.568865 216.404326 
L 188.935594 216.404326 
L 190.300806 216.404326 
L 191.667534 216.404326 
L 193.03224 216.404326 
L 194.398969 216.404326 
L 195.764181 216.404326 
L 197.130909 216.404326 
L 198.497637 216.404326 
L 199.864366 216.404326 
L 201.229578 216.404326 
L 202.5958 216.404326 
L 203.962529 216.404326 
L 205.329257 216.404326 
L 206.695985 216.404326 
L 208.06423 216.404326 
L 209.430958 216.404326 
L 210.797687 216.404326 
L 212.16391 216.404326 
L 213.532154 216.404326 
L 214.898882 216.404326 
L 216.267127 216.404326 
L 217.633855 216.404326 
L 219.0021 216.404326 
L 220.368828 216.404326 
L 221.737073 216.404326 
L 223.105318 216.404326 
L 224.473057 216.404326 
L 225.841302 216.404326 
L 227.209546 216.404326 
L 228.577791 216.404326 
L 229.946036 216.404326 
L 231.31428 216.404326 
L 232.682525 216.404326 
L 234.050769 216.404326 
L 235.419014 216.404326 
L 236.788775 216.404326 
L 238.15702 216.404326 
L 239.526781 216.404326 
L 240.89452 216.404326 
L 242.264281 216.404326 
L 243.632526 216.404326 
L 245.002287 216.404326 
L 246.372048 216.404326 
L 247.741809 216.404326 
L 249.110053 216.404326 
L 250.479814 216.404326 
L 251.849575 216.404326 
L 253.219336 216.404326 
L 254.589097 216.404326 
L 255.960374 216.404326 
L 257.330135 216.404326 
L 258.699896 216.404326 
L 260.069657 216.404326 
L 261.440935 216.404326 
L 262.810696 216.404326 
L 264.181973 216.404326 
L 265.551734 216.404326 
L 266.923011 216.404326 
L 268.292772 216.404326 
L 269.66405 216.404326 
L 271.035327 216.404326 
L 272.406604 216.404326 
L 273.777882 216.404326 
L 275.149159 216.404326 
L 276.520436 216.404326 
L 277.891714 216.404326 
L 279.262991 216.404326 
L 280.634268 216.404326 
L 282.005546 216.404326 
L 283.378339 216.404326 
L 284.749617 216.404326 
L 286.120894 216.404326 
L 287.493688 216.404326 
L 288.864965 216.404326 
L 290.237759 216.404326 
L 291.610552 216.404326 
L 292.98183 216.404326 
L 294.354623 216.404326 
L 295.727417 216.404326 
L 297.100211 216.404326 
L 298.473004 216.404326 
L 299.846303 216.404326 
L 301.219097 216.404326 
L 302.591891 216.404326 
L 303.964684 216.404326 
L 305.337478 216.404326 
L 306.710272 216.404326 
L 308.084582 216.404326 
L 309.457376 216.404326 
L 310.831686 216.404326 
L 312.204479 216.404326 
L 313.578789 216.404326 
L 314.951583 216.404326 
L 316.326398 216.404326 
L 317.700708 216.404326 
L 319.073502 216.404326 
L 320.447812 216.404326 
L 320.447812 216.044804 
L 320.447812 216.044804 
L 319.073502 216.032499 
L 317.700708 216.019554 
L 316.326398 216.005891 
L 314.951583 215.991466 
L 313.578789 215.976248 
L 312.204479 215.960135 
L 310.831686 215.943089 
L 309.457376 215.924996 
L 308.084582 215.905806 
L 306.710272 215.885381 
L 305.337478 215.863656 
L 303.964684 215.840488 
L 302.591891 215.81574 
L 301.219097 215.789256 
L 299.846303 215.760862 
L 298.473004 215.730346 
L 297.100211 215.697502 
L 295.727417 215.662057 
L 294.354623 215.623706 
L 292.98183 215.582097 
L 291.610552 215.536868 
L 290.237759 215.48743 
L 288.864965 215.433251 
L 287.493688 215.373702 
L 286.120894 215.307806 
L 284.749617 215.234671 
L 283.378339 215.152941 
L 282.005546 215.060887 
L 280.634268 214.956633 
L 279.262991 214.837372 
L 277.891714 214.699497 
L 276.520436 214.53809 
L 275.149159 214.346277 
L 273.777882 214.114151 
L 272.406604 213.826958 
L 271.035327 213.461896 
L 269.66405 212.982266 
L 268.292772 212.326505 
L 266.923011 211.388833 
L 265.551734 209.979631 
L 264.181973 207.802456 
L 262.810696 204.598014 
L 261.440935 201.186273 
L 260.069657 200.399171 
L 258.699896 202.636109 
L 257.330135 204.931319 
L 255.960374 205.997972 
L 254.589097 205.823584 
L 253.219336 204.353492 
L 251.849575 201.052988 
L 250.479814 194.901507 
L 249.110053 187.262402 
L 247.741809 187.18392 
L 246.372048 193.419467 
L 245.002287 197.531738 
L 243.632526 198.906563 
L 242.264281 198.620718 
L 240.89452 197.320074 
L 239.526781 195.364541 
L 238.15702 193.035348 
L 236.788775 190.683047 
L 235.419014 188.746104 
L 234.050769 187.696698 
L 232.682525 187.848463 
L 231.31428 189.206797 
L 229.946036 191.472019 
L 228.577791 194.2078 
L 227.209546 197.02475 
L 225.841302 199.668385 
L 224.473057 202.015719 
L 223.105318 204.033126 
L 221.737073 205.738032 
L 220.368828 207.166411 
L 219.0021 208.359021 
L 217.633855 209.358207 
L 216.267127 210.196323 
L 214.898882 210.904199 
L 213.532154 211.503943 
L 212.16391 212.016095 
L 210.797687 212.454831 
L 209.430958 212.833536 
L 208.06423 213.162089 
L 206.695985 213.448934 
L 205.329257 213.700069 
L 203.962529 213.921254 
L 202.5958 214.116943 
L 201.229578 214.290756 
L 199.864366 214.445715 
L 198.497637 214.584647 
L 197.130909 214.709512 
L 195.764181 214.822117 
L 194.398969 214.923885 
L 193.03224 215.016343 
L 191.667534 215.100368 
L 190.300806 215.177164 
L 188.935594 215.247352 
L 187.568865 215.3118 
L 186.203653 215.370984 
L 184.838947 215.425497 
L 183.473735 215.475851 
L 182.108523 215.522438 
L 180.743311 215.565623 
L 179.378099 215.605726 
L 178.013392 215.64302 
L 176.648181 215.677784 
L 175.282969 215.710228 
L 173.917757 215.740555 
L 172.554061 215.768913 
L 171.189354 215.795515 
L 169.824142 215.820496 
L 168.460447 215.843948 
L 167.095235 215.866042 
L 165.731539 215.886836 
L 164.366833 215.906464 
L 163.003137 215.924985 
L 161.639441 215.942493 
L 160.275746 215.959061 
L 158.912556 215.974749 
L 157.547344 215.989645 
L 156.183648 216.003765 
L 154.821469 216.017162 
L 153.458279 216.029909 
L 152.094583 216.042041 
L 150.730887 216.053593 
L 149.367192 216.064602 
L 148.005518 216.075086 
L 146.641822 216.085107 
L 145.278127 216.094678 
L 143.915947 216.103815 
L 142.552757 216.11256 
L 141.190578 216.120923 
L 139.828399 216.128932 
L 138.464703 216.136615 
L 137.103029 216.14397 
L 135.74085 216.151028 
L 134.378671 216.157804 
L 133.016997 216.164309 
L 131.654817 216.170562 
L 130.292638 216.176575 
L 128.930964 216.182356 
L 127.568785 216.187922 
L 126.206606 216.193281 
L 124.846448 216.198436 
L 123.484269 216.203411 
L 122.12209 216.208209 
L 120.761427 216.212832 
L 119.399753 216.217296 
L 118.03909 216.221603 
L 116.678427 216.225763 
L 115.316753 216.229785 
L 113.95609 216.233671 
L 112.595427 216.237428 
L 111.23527 216.24106 
L 109.874607 216.244577 
L 108.514449 216.24798 
L 107.153786 216.251277 
L 105.793123 216.254471 
L 104.432966 216.257564 
L 103.072303 216.260564 
L 101.71164 216.263473 
L 100.352999 216.26629 
L 98.992336 216.269028 
L 97.633189 216.271682 
L 96.273032 216.27426 
L 94.913885 216.276762 
L 93.553728 216.279195 
L 92.194581 216.281557 
L 90.835435 216.283852 
L 89.475277 216.286086 
L 88.11613 216.288256 
L 86.756984 216.290367 
L 85.398343 216.29242 
L 84.039196 216.294419 
L 82.680555 216.296365 
L 81.321408 216.298259 
L 79.962262 216.300104 
L 78.605137 216.301899 
L 77.24599 216.303651 
L 75.887349 216.305357 
L 74.529719 216.307019 
L 73.171078 216.308641 
L 71.813447 216.310221 
L 70.454301 216.311764 
L 69.097176 216.313268 
L 67.739546 216.314735 
L 66.380905 216.316168 
L 65.023274 216.317567 
L 63.666149 216.318931 
L 62.308519 216.320265 
L 60.951394 216.321566 
L 59.593764 216.322839 
L 58.236134 216.324082 
L 56.879009 216.325296 
L 55.521379 216.326484 
L 54.16577 216.327643 
L 52.80814 216.328778 
L 51.451015 216.329888 
L 50.094901 216.330973 
L 48.737776 216.332034 
L 47.381663 216.333073 
L 46.024538 216.33409 
L 44.668424 216.335084 
L 43.312815 216.336057 
z
" clip-path="url(#p888a43b77d)" style="fill: #1f77b4; fill-opacity: 0.25"/>
   </g>
   <g id="PolyCollection_2">
    <path d="M 43.312815 215.312992 
L 43.312815 216.404326 
L 44.668424 216.404326 
L 46.024538 216.404326 
L 47.381663 216.404326 
L 48.737776 216.404326 
L 50.094901 216.404326 
L 51.451015 216.404326 
L 52.80814 216.404326 
L 54.16577 216.404326 
L 55.521379 216.404326 
L 56.879009 216.404326 
L 58.236134 216.404326 
L 59.593764 216.404326 
L 60.951394 216.404326 
L 62.308519 216.404326 
L 63.666149 216.404326 
L 65.023274 216.404326 
L 66.380905 216.404326 
L 67.739546 216.404326 
L 69.097176 216.404326 
L 70.454301 216.404326 
L 71.813447 216.404326 
L 73.171078 216.404326 
L 74.529719 216.404326 
L 75.887349 216.404326 
L 77.24599 216.404326 
L 78.605137 216.404326 
L 79.962262 216.404326 
L 81.321408 216.404326 
L 82.680555 216.404326 
L 84.039196 216.404326 
L 85.398343 216.404326 
L 86.756984 216.404326 
L 88.11613 216.404326 
L 89.475277 216.404326 
L 90.835435 216.404326 
L 92.194581 216.404326 
L 93.553728 216.404326 
L 94.913885 216.404326 
L 96.273032 216.404326 
L 97.633189 216.404326 
L 98.992336 216.404326 
L 100.352999 216.404326 
L 101.71164 216.404326 
L 103.072303 216.404326 
L 104.432966 216.404326 
L 105.793123 216.404326 
L 107.153786 216.404326 
L 108.514449 216.404326 
L 109.874607 216.404326 
L 111.23527 216.404326 
L 112.595427 216.404326 
L 113.95609 216.404326 
L 115.316753 216.404326 
L 116.678427 216.404326 
L 118.03909 216.404326 
L 119.399753 216.404326 
L 120.761427 216.404326 
L 122.12209 216.404326 
L 123.484269 216.404326 
L 124.846448 216.404326 
L 126.206606 216.404326 
L 127.568785 216.404326 
L 128.930964 216.404326 
L 130.292638 216.404326 
L 131.654817 216.404326 
L 133.016997 216.404326 
L 134.378671 216.404326 
L 135.74085 216.404326 
L 137.103029 216.404326 
L 138.464703 216.404326 
L 139.828399 216.404326 
L 141.190578 216.404326 
L 142.552757 216.404326 
L 143.915947 216.404326 
L 145.278127 216.404326 
L 146.641822 216.404326 
L 148.005518 216.404326 
L 149.367192 216.404326 
L 150.730887 216.404326 
L 152.094583 216.404326 
L 153.458279 216.404326 
L 154.821469 216.404326 
L 156.183648 216.404326 
L 157.547344 216.404326 
L 158.912556 216.404326 
L 160.275746 216.404326 
L 161.639441 216.404326 
L 163.003137 216.404326 
L 164.366833 216.404326 
L 165.731539 216.404326 
L 167.095235 216.404326 
L 168.460447 216.404326 
L 169.824142 216.404326 
L 171.189354 216.404326 
L 172.554061 216.404326 
L 173.917757 216.404326 
L 175.282969 216.404326 
L 176.648181 216.404326 
L 178.013392 216.404326 
L 179.378099 216.404326 
L 180.743311 216.404326 
L 182.108523 216.404326 
L 183.473735 216.404326 
L 184.838947 216.404326 
L 186.203653 216.404326 
L 187.568865 216.404326 
L 188.935594 216.404326 
L 190.300806 216.404326 
L 191.667534 216.404326 
L 193.03224 216.404326 
L 194.398969 216.404326 
L 195.764181 216.404326 
L 197.130909 216.404326 
L 198.497637 216.404326 
L 199.864366 216.404326 
L 201.229578 216.404326 
L 202.5958 216.404326 
L 203.962529 216.404326 
L 205.329257 216.404326 
L 206.695985 216.404326 
L 208.06423 216.404326 
L 209.430958 216.404326 
L 210.797687 216.404326 
L 212.16391 216.404326 
L 213.532154 216.404326 
L 214.898882 216.404326 
L 216.267127 216.404326 
L 217.633855 216.404326 
L 219.0021 216.404326 
L 220.368828 216.404326 
L 221.737073 216.404326 
L 223.105318 216.404326 
L 224.473057 216.404326 
L 225.841302 216.404326 
L 227.209546 216.404326 
L 228.577791 216.404326 
L 229.946036 216.404326 
L 231.31428 216.404326 
L 232.682525 216.404326 
L 234.050769 216.404326 
L 235.419014 216.404326 
L 236.788775 216.404326 
L 238.15702 216.404326 
L 239.526781 216.404326 
L 240.89452 216.404326 
L 242.264281 216.404326 
L 243.632526 216.404326 
L 245.002287 216.404326 
L 246.372048 216.404326 
L 247.741809 216.404326 
L 249.110053 216.404326 
L 250.479814 216.404326 
L 251.849575 216.404326 
L 253.219336 216.404326 
L 254.589097 216.404326 
L 255.960374 216.404326 
L 257.330135 216.404326 
L 258.699896 216.404326 
L 260.069657 216.404326 
L 261.440935 216.404326 
L 262.810696 216.404326 
L 264.181973 216.404326 
L 265.551734 216.404326 
L 266.923011 216.404326 
L 268.292772 216.404326 
L 269.66405 216.404326 
L 271.035327 216.404326 
L 272.406604 216.404326 
L 273.777882 216.404326 
L 275.149159 216.404326 
L 276.520436 216.404326 
L 277.891714 216.404326 
L 279.262991 216.404326 
L 280.634268 216.404326 
L 282.005546 216.404326 
L 283.378339 216.404326 
L 284.749617 216.404326 
L 286.120894 216.404326 
L 287.493688 216.404326 
L 288.864965 216.404326 
L 290.237759 216.404326 
L 291.610552 216.404326 
L 292.98183 216.404326 
L 294.354623 216.404326 
L 295.727417 216.404326 
L 297.100211 216.404326 
L 298.473004 216.404326 
L 299.846303 216.404326 
L 301.219097 216.404326 
L 302.591891 216.404326 
L 303.964684 216.404326 
L 305.337478 216.404326 
L 306.710272 216.404326 
L 308.084582 216.404326 
L 309.457376 216.404326 
L 310.831686 216.404326 
L 312.204479 216.404326 
L 313.578789 216.404326 
L 314.951583 216.404326 
L 316.326398 216.404326 
L 317.700708 216.404326 
L 319.073502 216.404326 
L 320.447812 216.404326 
L 320.447812 216.075971 
L 320.447812 216.075971 
L 319.073502 216.070038 
L 317.700708 216.063947 
L 316.326398 216.057678 
L 314.951583 216.05123 
L 313.578789 216.044608 
L 312.204479 216.037787 
L 310.831686 216.030776 
L 309.457376 216.02355 
L 308.084582 216.016118 
L 306.710272 216.008454 
L 305.337478 216.000567 
L 303.964684 215.992438 
L 302.591891 215.984057 
L 301.219097 215.975414 
L 299.846303 215.966498 
L 298.473004 215.957293 
L 297.100211 215.947793 
L 295.727417 215.937983 
L 294.354623 215.927849 
L 292.98183 215.917375 
L 291.610552 215.906559 
L 290.237759 215.89536 
L 288.864965 215.883773 
L 287.493688 215.871793 
L 286.120894 215.859374 
L 284.749617 215.846524 
L 283.378339 215.833205 
L 282.005546 215.819381 
L 280.634268 215.805057 
L 279.262991 215.790192 
L 277.891714 215.774758 
L 276.520436 215.758725 
L 275.149159 215.742062 
L 273.777882 215.724735 
L 272.406604 215.706708 
L 271.035327 215.687942 
L 269.66405 215.668397 
L 268.292772 215.648028 
L 266.923011 215.626813 
L 265.551734 215.604652 
L 264.181973 215.581542 
L 262.810696 215.557372 
L 261.440935 215.532133 
L 260.069657 215.505701 
L 258.699896 215.478063 
L 257.330135 215.44911 
L 255.960374 215.418758 
L 254.589097 215.386878 
L 253.219336 215.353442 
L 251.849575 215.318307 
L 250.479814 215.281355 
L 249.110053 215.24246 
L 247.741809 215.201528 
L 246.372048 215.158318 
L 245.002287 215.112709 
L 243.632526 215.064519 
L 242.264281 215.013609 
L 240.89452 214.95965 
L 239.526781 214.902545 
L 238.15702 214.841862 
L 236.788775 214.77747 
L 235.419014 214.708906 
L 234.050769 214.635971 
L 232.682525 214.558202 
L 231.31428 214.475169 
L 229.946036 214.38639 
L 228.577791 214.291333 
L 227.209546 214.189401 
L 225.841302 214.079929 
L 224.473057 213.962172 
L 223.105318 213.835341 
L 221.737073 213.698405 
L 220.368828 213.550348 
L 219.0021 213.390162 
L 217.633855 213.216144 
L 216.267127 213.027154 
L 214.898882 212.821043 
L 213.532154 212.596307 
L 212.16391 212.350214 
L 210.797687 212.080877 
L 209.430958 211.784955 
L 208.06423 211.459266 
L 206.695985 211.099665 
L 205.329257 210.702723 
L 203.962529 210.263289 
L 202.5958 209.776002 
L 201.229578 209.235097 
L 199.864366 208.634299 
L 198.497637 207.965348 
L 197.130909 207.221372 
L 195.764181 206.394769 
L 194.398969 205.479414 
L 193.03224 204.467272 
L 191.667534 203.357379 
L 190.300806 202.146789 
L 188.935594 200.845022 
L 187.568865 199.464243 
L 186.203653 198.033565 
L 184.838947 196.590527 
L 183.473735 195.183881 
L 182.108523 193.869004 
L 180.743311 192.689785 
L 179.378099 191.643475 
L 178.013392 190.591046 
L 176.648181 188.95757 
L 175.282969 184.569283 
L 173.917757 175.857176 
L 172.554061 184.075272 
L 171.189354 191.230953 
L 169.824142 194.40544 
L 168.460447 196.34703 
L 167.095235 197.798308 
L 165.731539 198.953561 
L 164.366833 199.866538 
L 163.003137 200.537789 
L 161.639441 200.944756 
L 160.275746 201.040497 
L 158.912556 200.745007 
L 157.547344 199.923073 
L 156.183648 198.354651 
L 154.821469 195.686033 
L 153.458279 191.405721 
L 152.094583 185.107185 
L 150.730887 177.677995 
L 149.367192 172.982602 
L 148.005518 174.244525 
L 146.641822 177.884781 
L 145.278127 178.52185 
L 143.915947 174.715499 
L 142.552757 173.060916 
L 141.190578 180.576841 
L 139.828399 189.377181 
L 138.464703 194.674489 
L 137.103029 197.001031 
L 135.74085 197.139544 
L 134.378671 195.132579 
L 133.016997 190.165439 
L 131.654817 180.318584 
L 130.292638 164.107333 
L 128.930964 151.453284 
L 127.568785 160.526506 
L 126.206606 177.036713 
L 124.846448 187.563911 
L 123.484269 192.75092 
L 122.12209 194.692765 
L 120.761427 194.500695 
L 119.399753 192.598764 
L 118.03909 189.111291 
L 116.678427 184.238198 
L 115.316753 178.822664 
L 113.95609 174.844211 
L 112.595427 174.498206 
L 111.23527 177.916274 
L 109.874607 182.975974 
L 108.514449 187.54746 
L 107.153786 190.620418 
L 105.793123 191.922208 
L 104.432966 191.480863 
L 103.072303 189.688003 
L 101.71164 187.858097 
L 100.352999 188.091382 
L 98.992336 191.0101 
L 97.633189 194.914041 
L 96.273032 198.167995 
L 94.913885 200.200612 
L 93.553728 200.928459 
L 92.194581 200.180956 
L 90.835435 197.315817 
L 89.475277 190.625003 
L 88.11613 177.024323 
L 86.756984 160.731053 
L 85.398343 164.787037 
L 84.039196 175.375449 
L 82.680555 176.382197 
L 81.321408 173.452629 
L 79.962262 178.083545 
L 78.605137 188.738974 
L 77.24599 197.48041 
L 75.887349 203.007533 
L 74.529719 206.418234 
L 73.171078 208.610478 
L 71.813447 210.089277 
L 70.454301 211.135899 
L 69.097176 211.904667 
L 67.739546 212.489701 
L 66.380905 212.947657 
L 65.023274 213.314143 
L 63.666149 213.613499 
L 62.308519 213.862415 
L 60.951394 214.072295 
L 59.593764 214.251659 
L 58.236134 214.406596 
L 56.879009 214.541695 
L 55.521379 214.660604 
L 54.16577 214.765876 
L 52.80814 214.859995 
L 51.451015 214.944493 
L 50.094901 215.020751 
L 48.737776 215.090018 
L 47.381663 215.153126 
L 46.024538 215.210947 
L 44.668424 215.264044 
L 43.312815 215.312992 
z
" clip-path="url(#p888a43b77d)" style="fill: #ff7f0e; fill-opacity: 0.25"/>
   </g>
   <g id="line2d_1">
    <path d="M 43.312815 197.254413 
L 44.668424 197.261078 
L 46.024538 196.601041 
L 47.381663 197.711286 
L 48.737776 200.450376 
L 50.094901 201.418177 
L 51.451015 200.618104 
L 52.80814 199.185318 
L 54.16577 195.391726 
L 55.521379 193.263722 
L 56.879009 194.941423 
L 58.236134 194.252889 
L 59.593764 196.522688 
L 60.951394 200.018878 
L 62.308519 202.769256 
L 65.023274 199.034573 
L 66.380905 199.194889 
L 67.739546 198.844299 
L 69.097176 195.354252 
L 70.454301 197.714731 
L 71.813447 201.265013 
L 73.171078 203.664655 
L 74.529719 205.284299 
L 75.887349 203.656724 
L 77.24599 200.668744 
L 78.605137 193.723163 
L 79.962262 181.839284 
L 81.321408 173.624036 
L 82.680555 174.78259 
L 84.039196 177.502318 
L 85.398343 169.84454 
L 86.756984 159.006188 
L 88.11613 169.78923 
L 89.475277 185.93037 
L 90.835435 196.953396 
L 92.194581 199.442455 
L 93.553728 199.034759 
L 94.913885 196.421336 
L 96.273032 194.796102 
L 97.633189 197.117295 
L 98.992336 195.684189 
L 100.352999 191.522299 
L 101.71164 185.886948 
L 103.072303 184.827665 
L 104.432966 189.004283 
L 105.793123 195.605446 
L 107.153786 196.617564 
L 108.514449 191.5964 
L 109.874607 183.64191 
L 111.23527 177.284763 
L 112.595427 172.412551 
L 113.95609 174.465775 
L 115.316753 179.900575 
L 120.761427 193.393922 
L 122.12209 192.569354 
L 123.484269 189.188022 
L 124.846448 187.638815 
L 126.206606 183.81062 
L 128.930964 152.869914 
L 130.292638 155.537361 
L 131.654817 174.72646 
L 133.016997 187.056021 
L 134.378671 194.337275 
L 135.74085 198.882029 
L 137.103029 198.871947 
L 138.464703 196.259139 
L 139.828399 191.118233 
L 141.190578 183.312119 
L 142.552757 174.516191 
L 143.915947 174.09574 
L 145.278127 176.633526 
L 146.641822 176.17217 
L 148.005518 176.691865 
L 149.367192 173.662684 
L 150.730887 174.375894 
L 152.094583 178.234192 
L 153.458279 189.828689 
L 154.821469 200.091375 
L 156.183648 201.022149 
L 157.547344 197.764371 
L 158.912556 195.522579 
L 161.639441 193.687748 
L 163.003137 197.331221 
L 164.366833 200.179708 
L 167.095235 200.869089 
L 168.460447 200.725734 
L 169.824142 198.665597 
L 171.189354 193.505898 
L 172.554061 184.776121 
L 173.917757 177.046275 
L 175.282969 179.913267 
L 176.648181 188.086735 
L 178.013392 190.216002 
L 180.743311 185.166537 
L 182.108523 188.996743 
L 183.473735 193.698162 
L 184.838947 199.242473 
L 186.203653 202.69873 
L 187.568865 202.863362 
L 188.935594 200.879033 
L 190.300806 199.883847 
L 191.667534 199.957669 
L 193.03224 201.583577 
L 194.398969 202.870364 
L 197.130909 201.30715 
L 198.497637 201.479024 
L 199.864366 203.613759 
L 201.229578 206.770197 
L 202.5958 208.476021 
L 203.962529 207.375617 
L 205.329257 207.196332 
L 206.695985 208.417101 
L 208.06423 210.110045 
L 209.430958 210.852816 
L 210.797687 210.372644 
L 212.16391 209.65356 
L 213.532154 209.523594 
L 214.898882 209.16813 
L 216.267127 208.669549 
L 217.633855 208.047053 
L 220.368828 207.529329 
L 221.737073 205.787707 
L 223.105318 201.27244 
L 224.473057 196.209138 
L 225.841302 193.632946 
L 227.209546 194.872845 
L 228.577791 195.128471 
L 229.946036 190.230877 
L 231.31428 186.038898 
L 232.682525 188.202307 
L 234.050769 186.649207 
L 235.419014 187.40855 
L 236.788775 190.141959 
L 238.15702 190.548602 
L 239.526781 188.852779 
L 240.89452 192.807876 
L 242.264281 197.528919 
L 243.632526 200.911346 
L 245.002287 195.594722 
L 246.372048 191.671909 
L 247.741809 188.957336 
L 249.110053 186.937056 
L 250.479814 185.586248 
L 251.849575 201.159684 
L 254.589097 207.093891 
L 255.960374 205.614761 
L 257.330135 201.732441 
L 258.699896 200.781841 
L 260.069657 201.514022 
L 261.440935 201.438443 
L 262.810696 198.818713 
L 264.181973 214.589478 
L 265.551734 210.877004 
L 266.923011 210.741395 
L 268.292772 212.110904 
L 269.66405 211.414568 
L 271.035327 211.529226 
L 272.406604 214.937121 
L 273.777882 216.404326 
L 275.149159 216.404326 
L 276.520436 215.690209 
L 277.891714 215.259401 
L 279.262991 214.52833 
L 280.634268 214.799452 
L 282.005546 216.177119 
L 283.378339 216.404326 
L 284.749617 215.509051 
L 286.120894 209.987279 
L 287.493688 199.327471 
L 288.864965 176.754279 
L 290.237759 131.973993 
L 291.610552 42.464828 
L 291.910445 -1 
M 300.519465 -1 
L 301.219097 105.020382 
L 302.591891 170.957263 
L 303.964684 184.08603 
L 306.710272 186.350208 
L 308.084582 191.019372 
L 309.457376 197.448787 
L 312.204479 207.954069 
L 313.578789 210.825597 
L 314.951583 209.486888 
L 316.326398 204.111041 
L 317.700708 200.931844 
L 319.073502 205.556174 
L 320.447812 209.656436 
L 320.447812 209.656436 
" clip-path="url(#p888a43b77d)" style="fill: none; stroke: #1f77b4; stroke-width: 1.5; stroke-linecap: square"/>
    <defs>
     <path id="mfa1473df5f" d="M 0 1.5 
C 0.397805 1.5 0.77937 1.341951 1.06066 1.06066 
C 1.341951 0.77937 1.5 0.397805 1.5 0 
C 1.5 -0.397805 1.341951 -0.77937 1.06066 -1.06066 
C 0.77937 -1.341951 0.397805 -1.5 0 -1.5 
C -0.397805 -1.5 -0.77937 -1.341951 -1.06066 -1.06066 
C -1.341951 -0.77937 -1.5 -0.397805 -1.5 0 
C -1.5 0.397805 -1.341951 0.77937 -1.06066 1.06066 
C -0.77937 1.341951 -0.397805 1.5 0 1.5 
z
" style="stroke: #1f77b4"/>
    </defs>
    <g clip-path="url(#p888a43b77d)">
     <use xlink:href="#mfa1473df5f" x="43.312815" y="197.254413" style="fill-opacity: 0; stroke: #1f77b4"/>
     <use xlink:href="#mfa1473df5f" x="44.668424" y="197.261078" style="fill-opacity: 0; stroke: #1f77b4"/>
     <use xlink:href="#mfa1473df5f" x="46.024538" y="196.601041" style="fill-opacity: 0; stroke: #1f77b4"/>
     <use xlink:href="#mfa1473df5f" x="47.381663" y="197.711286" style="fill-opacity: 0; stroke: #1f77b4"/>
     <use xlink:href="#mfa1473df5f" x="48.737776" y="200.450376" style="fill-opacity: 0; stroke: #1f77b4"/>
     <use xlink:href="#mfa1473df5f" x="50.094901" y="201.418177" style="fill-opacity: 0; stroke: #1f77b4"/>
     <use xlink:href="#mfa1473df5f" x="51.451015" y="200.618104" style="fill-opacity: 0; stroke: #1f77b4"/>
     <use xlink:href="#mfa1473df5f" x="52.80814" y="199.185318" style="fill-opacity: 0; stroke: #1f77b4"/>
     <use xlink:href="#mfa1473df5f" x="54.16577" y="195.391726" style="fill-opacity: 0; stroke: #1f77b4"/>
     <use xlink:href="#mfa1473df5f" x="55.521379" y="193.263722" style="fill-opacity: 0; stroke: #1f77b4"/>
     <use xlink:href="#mfa1473df5f" x="56.879009" y="194.941423" style="fill-opacity: 0; stroke: #1f77b4"/>
     <use xlink:href="#mfa1473df5f" x="58.236134" y="194.252889" style="fill-opacity: 0; stroke: #1f77b4"/>
     <use xlink:href="#mfa1473df5f" x="59.593764" y="196.522688" style="fill-opacity: 0; stroke: #1f77b4"/>
     <use xlink:href="#mfa1473df5f" x="60.951394" y="200.018878" style="fill-opacity: 0; stroke: #1f77b4"/>
     <use xlink:href="#mfa1473df5f" x="62.308519" y="202.769256" style="fill-opacity: 0; stroke: #1f77b4"/>
     <use xlink:href="#mfa1473df5f" x="63.666149" y="200.91383" style="fill-opacity: 0; stroke: #1f77b4"/>
     <use xlink:href="#mfa1473df5f" x="65.023274" y="199.034573" style="fill-opacity: 0; stroke: #1f77b4"/>
     <use xlink:href="#mfa1473df5f" x="66.380905" y="199.194889" style="fill-opacity: 0; stroke: #1f77b4"/>
     <use xlink:href="#mfa1473df5f" x="67.739546" y="198.844299" style="fill-opacity: 0; stroke: #1f77b4"/>
     <use xlink:href="#mfa1473df5f" x="69.097176" y="195.354252" style="fill-opacity: 0; stroke: #1f77b4"/>
     <use xlink:href="#mfa1473df5f" x="70.454301" y="197.714731" style="fill-opacity: 0; stroke: #1f77b4"/>
     <use xlink:href="#mfa1473df5f" x="71.813447" y="201.265013" style="fill-opacity: 0; stroke: #1f77b4"/>
     <use xlink:href="#mfa1473df5f" x="73.171078" y="203.664655" style="fill-opacity: 0; stroke: #1f77b4"/>
     <use xlink:href="#mfa1473df5f" x="74.529719" y="205.284299" style="fill-opacity: 0; stroke: #1f77b4"/>
     <use xlink:href="#mfa1473df5f" x="75.887349" y="203.656724" style="fill-opacity: 0; stroke: #1f77b4"/>
     <use xlink:href="#mfa1473df5f" x="77.24599" y="200.668744" style="fill-opacity: 0; stroke: #1f77b4"/>
     <use xlink:href="#mfa1473df5f" x="78.605137" y="193.723163" style="fill-opacity: 0; stroke: #1f77b4"/>
     <use xlink:href="#mfa1473df5f" x="79.962262" y="181.839284" style="fill-opacity: 0; stroke: #1f77b4"/>
     <use xlink:href="#mfa1473df5f" x="81.321408" y="173.624036" style="fill-opacity: 0; stroke: #1f77b4"/>
     <use xlink:href="#mfa1473df5f" x="82.680555" y="174.78259" style="fill-opacity: 0; stroke: #1f77b4"/>
     <use xlink:href="#mfa1473df5f" x="84.039196" y="177.502318" style="fill-opacity: 0; stroke: #1f77b4"/>
     <use xlink:href="#mfa1473df5f" x="85.398343" y="169.84454" style="fill-opacity: 0; stroke: #1f77b4"/>
     <use xlink:href="#mfa1473df5f" x="86.756984" y="159.006188" style="fill-opacity: 0; stroke: #1f77b4"/>
     <use xlink:href="#mfa1473df5f" x="88.11613" y="169.78923" style="fill-opacity: 0; stroke: #1f77b4"/>
     <use xlink:href="#mfa1473df5f" x="89.475277" y="185.93037" style="fill-opacity: 0; stroke: #1f77b4"/>
     <use xlink:href="#mfa1473df5f" x="90.835435" y="196.953396" style="fill-opacity: 0; stroke: #1f77b4"/>
     <use xlink:href="#mfa1473df5f" x="92.194581" y="199.442455" style="fill-opacity: 0; stroke: #1f77b4"/>
     <use xlink:href="#mfa1473df5f" x="93.553728" y="199.034759" style="fill-opacity: 0; stroke: #1f77b4"/>
     <use xlink:href="#mfa1473df5f" x="94.913885" y="196.421336" style="fill-opacity: 0; stroke: #1f77b4"/>
     <use xlink:href="#mfa1473df5f" x="96.273032" y="194.796102" style="fill-opacity: 0; stroke: #1f77b4"/>
     <use xlink:href="#mfa1473df5f" x="97.633189" y="197.117295" style="fill-opacity: 0; stroke: #1f77b4"/>
     <use xlink:href="#mfa1473df5f" x="98.992336" y="195.684189" style="fill-opacity: 0; stroke: #1f77b4"/>
     <use xlink:href="#mfa1473df5f" x="100.352999" y="191.522299" style="fill-opacity: 0; stroke: #1f77b4"/>
     <use xlink:href="#mfa1473df5f" x="101.71164" y="185.886948" style="fill-opacity: 0; stroke: #1f77b4"/>
     <use xlink:href="#mfa1473df5f" x="103.072303" y="184.827665" style="fill-opacity: 0; stroke: #1f77b4"/>
     <use xlink:href="#mfa1473df5f" x="104.432966" y="189.004283" style="fill-opacity: 0; stroke: #1f77b4"/>
     <use xlink:href="#mfa1473df5f" x="105.793123" y="195.605446" style="fill-opacity: 0; stroke: #1f77b4"/>
     <use xlink:href="#mfa1473df5f" x="107.153786" y="196.617564" style="fill-opacity: 0; stroke: #1f77b4"/>
     <use xlink:href="#mfa1473df5f" x="108.514449" y="191.5964" style="fill-opacity: 0; stroke: #1f77b4"/>
     <use xlink:href="#mfa1473df5f" x="109.874607" y="183.64191" style="fill-opacity: 0; stroke: #1f77b4"/>
     <use xlink:href="#mfa1473df5f" x="111.23527" y="177.284763" style="fill-opacity: 0; stroke: #1f77b4"/>
     <use xlink:href="#mfa1473df5f" x="112.595427" y="172.412551" style="fill-opacity: 0; stroke: #1f77b4"/>
     <use xlink:href="#mfa1473df5f" x="113.95609" y="174.465775" style="fill-opacity: 0; stroke: #1f77b4"/>
     <use xlink:href="#mfa1473df5f" x="115.316753" y="179.900575" style="fill-opacity: 0; stroke: #1f77b4"/>
     <use xlink:href="#mfa1473df5f" x="116.678427" y="183.33836" style="fill-opacity: 0; stroke: #1f77b4"/>
     <use xlink:href="#mfa1473df5f" x="118.03909" y="186.691986" style="fill-opacity: 0; stroke: #1f77b4"/>
     <use xlink:href="#mfa1473df5f" x="119.399753" y="190.138626" style="fill-opacity: 0; stroke: #1f77b4"/>
     <use xlink:href="#mfa1473df5f" x="120.761427" y="193.393922" style="fill-opacity: 0; stroke: #1f77b4"/>
     <use xlink:href="#mfa1473df5f" x="122.12209" y="192.569354" style="fill-opacity: 0; stroke: #1f77b4"/>
     <use xlink:href="#mfa1473df5f" x="123.484269" y="189.188022" style="fill-opacity: 0; stroke: #1f77b4"/>
     <use xlink:href="#mfa1473df5f" x="124.846448" y="187.638815" style="fill-opacity: 0; stroke: #1f77b4"/>
     <use xlink:href="#mfa1473df5f" x="126.206606" y="183.81062" style="fill-opacity: 0; stroke: #1f77b4"/>
     <use xlink:href="#mfa1473df5f" x="127.568785" y="168.009001" style="fill-opacity: 0; stroke: #1f77b4"/>
     <use xlink:href="#mfa1473df5f" x="128.930964" y="152.869914" style="fill-opacity: 0; stroke: #1f77b4"/>
     <use xlink:href="#mfa1473df5f" x="130.292638" y="155.537361" style="fill-opacity: 0; stroke: #1f77b4"/>
     <use xlink:href="#mfa1473df5f" x="131.654817" y="174.72646" style="fill-opacity: 0; stroke: #1f77b4"/>
     <use xlink:href="#mfa1473df5f" x="133.016997" y="187.056021" style="fill-opacity: 0; stroke: #1f77b4"/>
     <use xlink:href="#mfa1473df5f" x="134.378671" y="194.337275" style="fill-opacity: 0; stroke: #1f77b4"/>
     <use xlink:href="#mfa1473df5f" x="135.74085" y="198.882029" style="fill-opacity: 0; stroke: #1f77b4"/>
     <use xlink:href="#mfa1473df5f" x="137.103029" y="198.871947" style="fill-opacity: 0; stroke: #1f77b4"/>
     <use xlink:href="#mfa1473df5f" x="138.464703" y="196.259139" style="fill-opacity: 0; stroke: #1f77b4"/>
     <use xlink:href="#mfa1473df5f" x="139.828399" y="191.118233" style="fill-opacity: 0; stroke: #1f77b4"/>
     <use xlink:href="#mfa1473df5f" x="141.190578" y="183.312119" style="fill-opacity: 0; stroke: #1f77b4"/>
     <use xlink:href="#mfa1473df5f" x="142.552757" y="174.516191" style="fill-opacity: 0; stroke: #1f77b4"/>
     <use xlink:href="#mfa1473df5f" x="143.915947" y="174.09574" style="fill-opacity: 0; stroke: #1f77b4"/>
     <use xlink:href="#mfa1473df5f" x="145.278127" y="176.633526" style="fill-opacity: 0; stroke: #1f77b4"/>
     <use xlink:href="#mfa1473df5f" x="146.641822" y="176.17217" style="fill-opacity: 0; stroke: #1f77b4"/>
     <use xlink:href="#mfa1473df5f" x="148.005518" y="176.691865" style="fill-opacity: 0; stroke: #1f77b4"/>
     <use xlink:href="#mfa1473df5f" x="149.367192" y="173.662684" style="fill-opacity: 0; stroke: #1f77b4"/>
     <use xlink:href="#mfa1473df5f" x="150.730887" y="174.375894" style="fill-opacity: 0; stroke: #1f77b4"/>
     <use xlink:href="#mfa1473df5f" x="152.094583" y="178.234192" style="fill-opacity: 0; stroke: #1f77b4"/>
     <use xlink:href="#mfa1473df5f" x="153.458279" y="189.828689" style="fill-opacity: 0; stroke: #1f77b4"/>
     <use xlink:href="#mfa1473df5f" x="154.821469" y="200.091375" style="fill-opacity: 0; stroke: #1f77b4"/>
     <use xlink:href="#mfa1473df5f" x="156.183648" y="201.022149" style="fill-opacity: 0; stroke: #1f77b4"/>
     <use xlink:href="#mfa1473df5f" x="157.547344" y="197.764371" style="fill-opacity: 0; stroke: #1f77b4"/>
     <use xlink:href="#mfa1473df5f" x="158.912556" y="195.522579" style="fill-opacity: 0; stroke: #1f77b4"/>
     <use xlink:href="#mfa1473df5f" x="160.275746" y="194.580709" style="fill-opacity: 0; stroke: #1f77b4"/>
     <use xlink:href="#mfa1473df5f" x="161.639441" y="193.687748" style="fill-opacity: 0; stroke: #1f77b4"/>
     <use xlink:href="#mfa1473df5f" x="163.003137" y="197.331221" style="fill-opacity: 0; stroke: #1f77b4"/>
     <use xlink:href="#mfa1473df5f" x="164.366833" y="200.179708" style="fill-opacity: 0; stroke: #1f77b4"/>
     <use xlink:href="#mfa1473df5f" x="165.731539" y="200.505788" style="fill-opacity: 0; stroke: #1f77b4"/>
     <use xlink:href="#mfa1473df5f" x="167.095235" y="200.869089" style="fill-opacity: 0; stroke: #1f77b4"/>
     <use xlink:href="#mfa1473df5f" x="168.460447" y="200.725734" style="fill-opacity: 0; stroke: #1f77b4"/>
     <use xlink:href="#mfa1473df5f" x="169.824142" y="198.665597" style="fill-opacity: 0; stroke: #1f77b4"/>
     <use xlink:href="#mfa1473df5f" x="171.189354" y="193.505898" style="fill-opacity: 0; stroke: #1f77b4"/>
     <use xlink:href="#mfa1473df5f" x="172.554061" y="184.776121" style="fill-opacity: 0; stroke: #1f77b4"/>
     <use xlink:href="#mfa1473df5f" x="173.917757" y="177.046275" style="fill-opacity: 0; stroke: #1f77b4"/>
     <use xlink:href="#mfa1473df5f" x="175.282969" y="179.913267" style="fill-opacity: 0; stroke: #1f77b4"/>
     <use xlink:href="#mfa1473df5f" x="176.648181" y="188.086735" style="fill-opacity: 0; stroke: #1f77b4"/>
     <use xlink:href="#mfa1473df5f" x="178.013392" y="190.216002" style="fill-opacity: 0; stroke: #1f77b4"/>
     <use xlink:href="#mfa1473df5f" x="179.378099" y="187.578575" style="fill-opacity: 0; stroke: #1f77b4"/>
     <use xlink:href="#mfa1473df5f" x="180.743311" y="185.166537" style="fill-opacity: 0; stroke: #1f77b4"/>
     <use xlink:href="#mfa1473df5f" x="182.108523" y="188.996743" style="fill-opacity: 0; stroke: #1f77b4"/>
     <use xlink:href="#mfa1473df5f" x="183.473735" y="193.698162" style="fill-opacity: 0; stroke: #1f77b4"/>
     <use xlink:href="#mfa1473df5f" x="184.838947" y="199.242473" style="fill-opacity: 0; stroke: #1f77b4"/>
     <use xlink:href="#mfa1473df5f" x="186.203653" y="202.69873" style="fill-opacity: 0; stroke: #1f77b4"/>
     <use xlink:href="#mfa1473df5f" x="187.568865" y="202.863362" style="fill-opacity: 0; stroke: #1f77b4"/>
     <use xlink:href="#mfa1473df5f" x="188.935594" y="200.879033" style="fill-opacity: 0; stroke: #1f77b4"/>
     <use xlink:href="#mfa1473df5f" x="190.300806" y="199.883847" style="fill-opacity: 0; stroke: #1f77b4"/>
     <use xlink:href="#mfa1473df5f" x="191.667534" y="199.957669" style="fill-opacity: 0; stroke: #1f77b4"/>
     <use xlink:href="#mfa1473df5f" x="193.03224" y="201.583577" style="fill-opacity: 0; stroke: #1f77b4"/>
     <use xlink:href="#mfa1473df5f" x="194.398969" y="202.870364" style="fill-opacity: 0; stroke: #1f77b4"/>
     <use xlink:href="#mfa1473df5f" x="195.764181" y="202.076562" style="fill-opacity: 0; stroke: #1f77b4"/>
     <use xlink:href="#mfa1473df5f" x="197.130909" y="201.30715" style="fill-opacity: 0; stroke: #1f77b4"/>
     <use xlink:href="#mfa1473df5f" x="198.497637" y="201.479024" style="fill-opacity: 0; stroke: #1f77b4"/>
     <use xlink:href="#mfa1473df5f" x="199.864366" y="203.613759" style="fill-opacity: 0; stroke: #1f77b4"/>
     <use xlink:href="#mfa1473df5f" x="201.229578" y="206.770197" style="fill-opacity: 0; stroke: #1f77b4"/>
     <use xlink:href="#mfa1473df5f" x="202.5958" y="208.476021" style="fill-opacity: 0; stroke: #1f77b4"/>
     <use xlink:href="#mfa1473df5f" x="203.962529" y="207.375617" style="fill-opacity: 0; stroke: #1f77b4"/>
     <use xlink:href="#mfa1473df5f" x="205.329257" y="207.196332" style="fill-opacity: 0; stroke: #1f77b4"/>
     <use xlink:href="#mfa1473df5f" x="206.695985" y="208.417101" style="fill-opacity: 0; stroke: #1f77b4"/>
     <use xlink:href="#mfa1473df5f" x="208.06423" y="210.110045" style="fill-opacity: 0; stroke: #1f77b4"/>
     <use xlink:href="#mfa1473df5f" x="209.430958" y="210.852816" style="fill-opacity: 0; stroke: #1f77b4"/>
     <use xlink:href="#mfa1473df5f" x="210.797687" y="210.372644" style="fill-opacity: 0; stroke: #1f77b4"/>
     <use xlink:href="#mfa1473df5f" x="212.16391" y="209.65356" style="fill-opacity: 0; stroke: #1f77b4"/>
     <use xlink:href="#mfa1473df5f" x="213.532154" y="209.523594" style="fill-opacity: 0; stroke: #1f77b4"/>
     <use xlink:href="#mfa1473df5f" x="214.898882" y="209.16813" style="fill-opacity: 0; stroke: #1f77b4"/>
     <use xlink:href="#mfa1473df5f" x="216.267127" y="208.669549" style="fill-opacity: 0; stroke: #1f77b4"/>
     <use xlink:href="#mfa1473df5f" x="217.633855" y="208.047053" style="fill-opacity: 0; stroke: #1f77b4"/>
     <use xlink:href="#mfa1473df5f" x="219.0021" y="207.756961" style="fill-opacity: 0; stroke: #1f77b4"/>
     <use xlink:href="#mfa1473df5f" x="220.368828" y="207.529329" style="fill-opacity: 0; stroke: #1f77b4"/>
     <use xlink:href="#mfa1473df5f" x="221.737073" y="205.787707" style="fill-opacity: 0; stroke: #1f77b4"/>
     <use xlink:href="#mfa1473df5f" x="223.105318" y="201.27244" style="fill-opacity: 0; stroke: #1f77b4"/>
     <use xlink:href="#mfa1473df5f" x="224.473057" y="196.209138" style="fill-opacity: 0; stroke: #1f77b4"/>
     <use xlink:href="#mfa1473df5f" x="225.841302" y="193.632946" style="fill-opacity: 0; stroke: #1f77b4"/>
     <use xlink:href="#mfa1473df5f" x="227.209546" y="194.872845" style="fill-opacity: 0; stroke: #1f77b4"/>
     <use xlink:href="#mfa1473df5f" x="228.577791" y="195.128471" style="fill-opacity: 0; stroke: #1f77b4"/>
     <use xlink:href="#mfa1473df5f" x="229.946036" y="190.230877" style="fill-opacity: 0; stroke: #1f77b4"/>
     <use xlink:href="#mfa1473df5f" x="231.31428" y="186.038898" style="fill-opacity: 0; stroke: #1f77b4"/>
     <use xlink:href="#mfa1473df5f" x="232.682525" y="188.202307" style="fill-opacity: 0; stroke: #1f77b4"/>
     <use xlink:href="#mfa1473df5f" x="234.050769" y="186.649207" style="fill-opacity: 0; stroke: #1f77b4"/>
     <use xlink:href="#mfa1473df5f" x="235.419014" y="187.40855" style="fill-opacity: 0; stroke: #1f77b4"/>
     <use xlink:href="#mfa1473df5f" x="236.788775" y="190.141959" style="fill-opacity: 0; stroke: #1f77b4"/>
     <use xlink:href="#mfa1473df5f" x="238.15702" y="190.548602" style="fill-opacity: 0; stroke: #1f77b4"/>
     <use xlink:href="#mfa1473df5f" x="239.526781" y="188.852779" style="fill-opacity: 0; stroke: #1f77b4"/>
     <use xlink:href="#mfa1473df5f" x="240.89452" y="192.807876" style="fill-opacity: 0; stroke: #1f77b4"/>
     <use xlink:href="#mfa1473df5f" x="242.264281" y="197.528919" style="fill-opacity: 0; stroke: #1f77b4"/>
     <use xlink:href="#mfa1473df5f" x="243.632526" y="200.911346" style="fill-opacity: 0; stroke: #1f77b4"/>
     <use xlink:href="#mfa1473df5f" x="245.002287" y="195.594722" style="fill-opacity: 0; stroke: #1f77b4"/>
     <use xlink:href="#mfa1473df5f" x="246.372048" y="191.671909" style="fill-opacity: 0; stroke: #1f77b4"/>
     <use xlink:href="#mfa1473df5f" x="247.741809" y="188.957336" style="fill-opacity: 0; stroke: #1f77b4"/>
     <use xlink:href="#mfa1473df5f" x="249.110053" y="186.937056" style="fill-opacity: 0; stroke: #1f77b4"/>
     <use xlink:href="#mfa1473df5f" x="250.479814" y="185.586248" style="fill-opacity: 0; stroke: #1f77b4"/>
     <use xlink:href="#mfa1473df5f" x="251.849575" y="201.159684" style="fill-opacity: 0; stroke: #1f77b4"/>
     <use xlink:href="#mfa1473df5f" x="253.219336" y="204.244323" style="fill-opacity: 0; stroke: #1f77b4"/>
     <use xlink:href="#mfa1473df5f" x="254.589097" y="207.093891" style="fill-opacity: 0; stroke: #1f77b4"/>
     <use xlink:href="#mfa1473df5f" x="255.960374" y="205.614761" style="fill-opacity: 0; stroke: #1f77b4"/>
     <use xlink:href="#mfa1473df5f" x="257.330135" y="201.732441" style="fill-opacity: 0; stroke: #1f77b4"/>
     <use xlink:href="#mfa1473df5f" x="258.699896" y="200.781841" style="fill-opacity: 0; stroke: #1f77b4"/>
     <use xlink:href="#mfa1473df5f" x="260.069657" y="201.514022" style="fill-opacity: 0; stroke: #1f77b4"/>
     <use xlink:href="#mfa1473df5f" x="261.440935" y="201.438443" style="fill-opacity: 0; stroke: #1f77b4"/>
     <use xlink:href="#mfa1473df5f" x="262.810696" y="198.818713" style="fill-opacity: 0; stroke: #1f77b4"/>
     <use xlink:href="#mfa1473df5f" x="264.181973" y="214.589478" style="fill-opacity: 0; stroke: #1f77b4"/>
     <use xlink:href="#mfa1473df5f" x="265.551734" y="210.877004" style="fill-opacity: 0; stroke: #1f77b4"/>
     <use xlink:href="#mfa1473df5f" x="266.923011" y="210.741395" style="fill-opacity: 0; stroke: #1f77b4"/>
     <use xlink:href="#mfa1473df5f" x="268.292772" y="212.110904" style="fill-opacity: 0; stroke: #1f77b4"/>
     <use xlink:href="#mfa1473df5f" x="269.66405" y="211.414568" style="fill-opacity: 0; stroke: #1f77b4"/>
     <use xlink:href="#mfa1473df5f" x="271.035327" y="211.529226" style="fill-opacity: 0; stroke: #1f77b4"/>
     <use xlink:href="#mfa1473df5f" x="272.406604" y="214.937121" style="fill-opacity: 0; stroke: #1f77b4"/>
     <use xlink:href="#mfa1473df5f" x="273.777882" y="216.404326" style="fill-opacity: 0; stroke: #1f77b4"/>
     <use xlink:href="#mfa1473df5f" x="275.149159" y="216.404326" style="fill-opacity: 0; stroke: #1f77b4"/>
     <use xlink:href="#mfa1473df5f" x="276.520436" y="215.690209" style="fill-opacity: 0; stroke: #1f77b4"/>
     <use xlink:href="#mfa1473df5f" x="277.891714" y="215.259401" style="fill-opacity: 0; stroke: #1f77b4"/>
     <use xlink:href="#mfa1473df5f" x="279.262991" y="214.52833" style="fill-opacity: 0; stroke: #1f77b4"/>
     <use xlink:href="#mfa1473df5f" x="280.634268" y="214.799452" style="fill-opacity: 0; stroke: #1f77b4"/>
     <use xlink:href="#mfa1473df5f" x="282.005546" y="216.177119" style="fill-opacity: 0; stroke: #1f77b4"/>
     <use xlink:href="#mfa1473df5f" x="283.378339" y="216.404326" style="fill-opacity: 0; stroke: #1f77b4"/>
     <use xlink:href="#mfa1473df5f" x="284.749617" y="215.509051" style="fill-opacity: 0; stroke: #1f77b4"/>
     <use xlink:href="#mfa1473df5f" x="286.120894" y="209.987279" style="fill-opacity: 0; stroke: #1f77b4"/>
     <use xlink:href="#mfa1473df5f" x="287.493688" y="199.327471" style="fill-opacity: 0; stroke: #1f77b4"/>
     <use xlink:href="#mfa1473df5f" x="288.864965" y="176.754279" style="fill-opacity: 0; stroke: #1f77b4"/>
     <use xlink:href="#mfa1473df5f" x="290.237759" y="131.973993" style="fill-opacity: 0; stroke: #1f77b4"/>
     <use xlink:href="#mfa1473df5f" x="291.610552" y="42.464828" style="fill-opacity: 0; stroke: #1f77b4"/>
     <use xlink:href="#mfa1473df5f" x="291.910445" y="-1" style="fill-opacity: 0; stroke: #1f77b4"/>
     <use xlink:href="#mfa1473df5f" x="300.519465" y="-1" style="fill-opacity: 0; stroke: #1f77b4"/>
     <use xlink:href="#mfa1473df5f" x="301.219097" y="105.020382" style="fill-opacity: 0; stroke: #1f77b4"/>
     <use xlink:href="#mfa1473df5f" x="302.591891" y="170.957263" style="fill-opacity: 0; stroke: #1f77b4"/>
     <use xlink:href="#mfa1473df5f" x="303.964684" y="184.08603" style="fill-opacity: 0; stroke: #1f77b4"/>
     <use xlink:href="#mfa1473df5f" x="305.337478" y="185.21684" style="fill-opacity: 0; stroke: #1f77b4"/>
     <use xlink:href="#mfa1473df5f" x="306.710272" y="186.350208" style="fill-opacity: 0; stroke: #1f77b4"/>
     <use xlink:href="#mfa1473df5f" x="308.084582" y="191.019372" style="fill-opacity: 0; stroke: #1f77b4"/>
     <use xlink:href="#mfa1473df5f" x="309.457376" y="197.448787" style="fill-opacity: 0; stroke: #1f77b4"/>
     <use xlink:href="#mfa1473df5f" x="310.831686" y="202.833954" style="fill-opacity: 0; stroke: #1f77b4"/>
     <use xlink:href="#mfa1473df5f" x="312.204479" y="207.954069" style="fill-opacity: 0; stroke: #1f77b4"/>
     <use xlink:href="#mfa1473df5f" x="313.578789" y="210.825597" style="fill-opacity: 0; stroke: #1f77b4"/>
     <use xlink:href="#mfa1473df5f" x="314.951583" y="209.486888" style="fill-opacity: 0; stroke: #1f77b4"/>
     <use xlink:href="#mfa1473df5f" x="316.326398" y="204.111041" style="fill-opacity: 0; stroke: #1f77b4"/>
     <use xlink:href="#mfa1473df5f" x="317.700708" y="200.931844" style="fill-opacity: 0; stroke: #1f77b4"/>
     <use xlink:href="#mfa1473df5f" x="319.073502" y="205.556174" style="fill-opacity: 0; stroke: #1f77b4"/>
     <use xlink:href="#mfa1473df5f" x="320.447812" y="209.656436" style="fill-opacity: 0; stroke: #1f77b4"/>
    </g>
   </g>
   <g id="line2d_2">
    <path d="M 43.312815 215.244723 
L 52.80814 214.784447 
L 58.236134 214.326352 
L 62.308519 213.778354 
L 65.023274 213.227384 
L 67.739546 212.400111 
L 69.097176 211.813609 
L 70.454301 211.043337 
L 71.813447 209.995172 
L 73.171078 208.514793 
L 74.529719 206.320927 
L 75.887349 202.908564 
L 77.24599 197.379735 
L 78.605137 188.636547 
L 79.962262 177.979324 
L 81.321408 173.346563 
L 82.680555 176.274235 
L 84.039196 175.265543 
L 85.398343 164.675131 
L 86.756984 160.617094 
L 88.11613 176.908253 
L 89.475277 190.506763 
L 90.835435 197.195344 
L 92.194581 200.058187 
L 93.553728 200.803328 
L 94.913885 200.073048 
L 96.273032 198.03793 
L 97.633189 194.781396 
L 98.992336 190.874802 
L 100.352999 187.953346 
L 101.71164 187.717244 
L 104.432966 191.334102 
L 105.793123 191.772353 
L 107.153786 190.467369 
L 108.514449 187.391115 
L 109.874607 182.816225 
L 111.23527 177.753008 
L 112.595427 174.331308 
L 113.95609 174.673555 
L 115.316753 178.648124 
L 116.678427 184.059635 
L 118.03909 188.928568 
L 119.399753 192.411735 
L 120.761427 194.309201 
L 122.12209 194.496648 
L 123.484269 192.550006 
L 124.846448 187.358021 
L 126.206606 176.825667 
L 127.568785 160.310101 
L 128.930964 151.231314 
L 130.292638 163.879581 
L 131.654817 180.084821 
L 133.016997 189.925422 
L 134.378671 194.886057 
L 135.74085 196.886246 
L 137.103029 196.740675 
L 138.464703 194.406778 
L 139.828399 189.101787 
L 141.190578 180.293439 
L 142.552757 172.769151 
L 143.915947 174.414989 
L 145.278127 178.212203 
L 146.641822 177.565562 
L 148.005518 173.915285 
L 149.367192 172.642879 
L 150.730887 177.327263 
L 152.094583 184.744899 
L 153.458279 191.031303 
L 154.821469 195.298869 
L 156.183648 197.954091 
L 157.547344 199.508392 
L 158.912556 200.31543 
L 160.275746 200.595232 
L 161.639441 200.482924 
L 163.003137 200.058448 
L 164.366833 199.368676 
L 165.731539 198.436071 
L 167.095235 197.260024 
L 168.460447 195.786652 
L 169.824142 193.82161 
L 171.189354 190.622142 
L 172.554061 183.439859 
L 173.917757 175.193405 
L 175.282969 183.875185 
L 176.648181 188.231027 
L 178.013392 189.829739 
L 182.108523 192.987116 
L 184.838947 195.611698 
L 188.935594 199.688049 
L 191.667534 202.053421 
L 194.398969 203.998972 
L 197.130909 205.526558 
L 199.864366 206.675688 
L 202.5958 207.488619 
L 205.329257 207.998466 
L 208.06423 208.21703 
L 210.797687 208.131382 
L 213.532154 207.695925 
L 214.898882 207.320916 
L 216.267127 206.819152 
L 217.633855 206.170024 
L 219.0021 205.344857 
L 220.368828 204.312433 
L 221.737073 203.032111 
L 223.105318 201.464141 
L 224.473057 199.573565 
L 225.841302 197.343988 
L 228.577791 192.094807 
L 229.946036 189.454083 
L 231.31428 187.27764 
L 232.682525 186.00234 
L 234.050769 185.928343 
L 235.419014 187.050684 
L 236.788775 189.056191 
L 239.526781 193.86276 
L 240.89452 195.875398 
L 242.264281 197.230001 
L 243.632526 197.566756 
L 245.002287 196.240121 
L 246.372048 192.173459 
L 247.741809 185.981122 
L 249.110053 186.100536 
L 250.479814 193.778537 
L 251.849575 199.966969 
L 253.219336 203.302608 
L 254.589097 204.806137 
L 255.960374 205.012403 
L 257.330135 203.976103 
L 260.069657 199.500546 
L 261.440935 200.31408 
L 264.181973 206.979671 
L 265.551734 209.179957 
L 266.923011 210.611319 
L 268.292772 211.570208 
L 269.66405 212.246338 
L 272.406604 213.12934 
L 275.149159 213.684013 
L 279.262991 214.223239 
L 284.749617 214.676868 
L 292.98183 215.095146 
L 305.337478 215.459897 
L 320.447812 215.71645 
L 320.447812 215.71645 
" clip-path="url(#p888a43b77d)" style="fill: none; stroke: #ff0000; stroke-width: 1.5; stroke-linecap: square"/>
   </g>
   <g id="line2d_3">
    <path d="M 295.727417 216.404326 
L 295.727417 17.735865 
" clip-path="url(#p888a43b77d)" style="fill: none; stroke-dasharray: 3.7,1.6; stroke-dashoffset: 0; stroke: #808080"/>
   </g>
   <g id="patch_3">
    <path d="M 43.003987 216.404326 
L 43.003987 17.735865 
" style="fill: none; stroke: #000000; stroke-linejoin: miter; stroke-linecap: square"/>
   </g>
   <g id="patch_4">
    <path d="M 320.99976 216.404326 
L 320.99976 17.735865 
" style="fill: none; stroke: #000000; stroke-linejoin: miter; stroke-linecap: square"/>
   </g>
   <g id="patch_5">
    <path d="M 43.003987 216.404326 
L 320.99976 216.404326 
" style="fill: none; stroke: #000000; stroke-linejoin: miter; stroke-linecap: square"/>
   </g>
   <g id="patch_6">
    <path d="M 43.003987 17.735865 
L 320.99976 17.735865 
" style="fill: none; stroke: #000000; stroke-linejoin: miter; stroke-linecap: square"/>
   </g>
   <g id="matplotlib.axis_1">
    <g id="xtick_1">
     <g id="line2d_4">
      <defs>
       <path id="m6ba92e066b" d="M 0 0 
L 0 3.75 
" style="stroke: #000000; stroke-width: 1.25"/>
      </defs>
      <g>
       <use xlink:href="#m6ba92e066b" x="43.003987" y="216.404326" style="stroke: #000000; stroke-width: 1.25"/>
      </g>
     </g>
     <g id="text_1">
      <!-- $\mathdefault{429}$ -->
      <g transform="translate(33.818987 231.52792)">
       <text>
        <tspan style="font: 11px 'Arial'" x="0 6.117676 12.235352" y="-0.09375">429</tspan>
       </text>
      </g>
     </g>
    </g>
    <g id="xtick_2">
     <g id="line2d_5">
      <g>
       <use xlink:href="#m6ba92e066b" x="93.548673" y="216.404326" style="stroke: #000000; stroke-width: 1.25"/>
      </g>
     </g>
     <g id="text_2">
      <!-- $\mathdefault{430}$ -->
      <g transform="translate(84.363673 231.52792)">
       <text>
        <tspan style="font: 11px 'Arial'" x="0 6.117676 12.235352" y="-0.09375">430</tspan>
       </text>
      </g>
     </g>
    </g>
    <g id="xtick_3">
     <g id="line2d_6">
      <g>
       <use xlink:href="#m6ba92e066b" x="144.093359" y="216.404326" style="stroke: #000000; stroke-width: 1.25"/>
      </g>
     </g>
     <g id="text_3">
      <!-- $\mathdefault{431}$ -->
      <g transform="translate(134.908359 231.52792)">
       <text>
        <tspan style="font: 11px 'Arial'" x="0 6.117676 12.235352" y="-0.09375">431</tspan>
       </text>
      </g>
     </g>
    </g>
    <g id="xtick_4">
     <g id="line2d_7">
      <g>
       <use xlink:href="#m6ba92e066b" x="194.638045" y="216.404326" style="stroke: #000000; stroke-width: 1.25"/>
      </g>
     </g>
     <g id="text_4">
      <!-- $\mathdefault{432}$ -->
      <g transform="translate(185.453045 231.52792)">
       <text>
        <tspan style="font: 11px 'Arial'" x="0 6.117676 12.235352" y="-0.09375">432</tspan>
       </text>
      </g>
     </g>
    </g>
    <g id="xtick_5">
     <g id="line2d_8">
      <g>
       <use xlink:href="#m6ba92e066b" x="245.182731" y="216.404326" style="stroke: #000000; stroke-width: 1.25"/>
      </g>
     </g>
     <g id="text_5">
      <!-- $\mathdefault{433}$ -->
      <g transform="translate(235.997731 231.52792)">
       <text>
        <tspan style="font: 11px 'Arial'" x="0 6.117676 12.235352" y="-0.09375">433</tspan>
       </text>
      </g>
     </g>
    </g>
    <g id="xtick_6">
     <g id="line2d_9">
      <g>
       <use xlink:href="#m6ba92e066b" x="295.727417" y="216.404326" style="stroke: #000000; stroke-width: 1.25"/>
      </g>
     </g>
     <g id="text_6">
      <!-- $\mathdefault{434}$ -->
      <g transform="translate(286.542417 231.52792)">
       <text>
        <tspan style="font: 11px 'Arial'" x="0 6.117676 12.235352" y="-0.09375">434</tspan>
       </text>
      </g>
     </g>
    </g>
    <g id="text_7">
     <!-- $\lambda$ {\sffamily (nm)} -->
     <g transform="translate(164.206736 246.411565) scale(0.12 -0.12)">
      <defs>
       <path id="StandardSymL-6c" d="M 480 3650 
C 525 4013 710 4224 998 4224 
C 1203 4224 1376 4064 1472 3778 
C 1517 3650 1574 3440 1632 3198 
L 154 19 
L 755 19 
L 1843 2301 
C 2048 1059 2150 607 2266 358 
C 2406 83 2611 -64 2848 -64 
C 3098 -64 3296 89 3405 371 
C 3475 543 3501 715 3507 1014 
L 3373 1014 
C 3322 683 3174 499 2944 499 
C 2752 499 2586 620 2483 843 
C 2400 1008 2355 1174 2266 1645 
L 2093 2466 
C 2086 2485 2080 2530 2067 2594 
C 1920 3415 1690 4192 1536 4422 
C 1395 4627 1203 4736 992 4736 
C 602 4736 397 4403 326 3650 
L 480 3650 
z
" transform="scale(0.015625)"/>
       <path id="NimbusSanL-Regu-28" d="M 1510 4672 
C 870 3833 467 2668 467 1663 
C 467 652 870 -513 1510 -1351 
L 1862 -1351 
C 1299 -436 986 639 986 1663 
C 986 2681 1299 3763 1862 4672 
L 1510 4672 
z
" transform="scale(0.015625)"/>
       <path id="NimbusSanL-Regu-6e" d="M 448 3328 
L 448 0 
L 986 0 
L 986 1835 
C 986 2539 1344 2988 1894 2988 
C 2317 2988 2586 2732 2586 2328 
L 2586 0 
L 3117 0 
L 3117 2539 
C 3117 3097 2701 3456 2054 3456 
C 1555 3456 1235 3263 941 2796 
L 941 3328 
L 448 3328 
z
" transform="scale(0.015625)"/>
       <path id="NimbusSanL-Regu-6d" d="M 448 3328 
L 448 0 
L 986 0 
L 986 2089 
C 986 2597 1338 2988 1773 2988 
C 2170 2988 2394 2744 2394 2315 
L 2394 0 
L 2931 0 
L 2931 2109 
C 2931 2597 3283 2988 3718 2988 
C 4109 2988 4339 2738 4339 2315 
L 4339 0 
L 4877 0 
L 4877 2520 
C 4877 3123 4531 3456 3904 3456 
C 3456 3456 3187 3321 2874 2943 
C 2675 3302 2406 3456 1971 3456 
C 1523 3456 1229 3289 941 2886 
L 941 3328 
L 448 3328 
z
" transform="scale(0.015625)"/>
       <path id="NimbusSanL-Regu-29" d="M 595 -1351 
C 1235 -513 1638 652 1638 1657 
C 1638 2668 1235 3833 595 4672 
L 243 4672 
C 806 3756 1120 2681 1120 1657 
C 1120 639 806 -442 243 -1351 
L 595 -1351 
z
" transform="scale(0.015625)"/>
      </defs>
      <use xlink:href="#StandardSymL-6c" transform="scale(0.996264)"/>
      <use xlink:href="#NimbusSanL-Regu-28" transform="translate(91.855235 0) scale(0.996264)"/>
      <use xlink:href="#NimbusSanL-Regu-6e" transform="translate(125.030464 0) scale(0.996264)"/>
      <use xlink:href="#NimbusSanL-Regu-6d" transform="translate(180.422141 0) scale(0.996264)"/>
      <use xlink:href="#NimbusSanL-Regu-29" transform="translate(263.410572 0) scale(0.996264)"/>
     </g>
    </g>
   </g>
   <g id="matplotlib.axis_2">
    <g id="ytick_1">
     <g id="line2d_10">
      <defs>
       <path id="m0da652f458" d="M 0 0 
L -3.75 0 
" style="stroke: #000000; stroke-width: 1.25"/>
      </defs>
      <g>
       <use xlink:href="#m0da652f458" x="43.003987" y="216.404326" style="stroke: #000000; stroke-width: 1.25"/>
      </g>
     </g>
     <g id="text_8">
      <!-- $\mathdefault{0.0}$ -->
      <g transform="translate(20.353987 220.341123)">
       <text>
        <tspan style="font: 11px 'Arial'" x="0 6.117676 9.173828" y="-0.09375">0.0</tspan>
       </text>
      </g>
     </g>
    </g>
    <g id="ytick_2">
     <g id="line2d_11">
      <g>
       <use xlink:href="#m0da652f458" x="43.003987" y="175.098749" style="stroke: #000000; stroke-width: 1.25"/>
      </g>
     </g>
     <g id="text_9">
      <!-- $\mathdefault{0.5}$ -->
      <g transform="translate(20.353987 179.035546)">
       <text>
        <tspan style="font: 11px 'Arial'" x="0 6.117676 9.173828" y="-0.09375">0.5</tspan>
       </text>
      </g>
     </g>
    </g>
    <g id="ytick_3">
     <g id="line2d_12">
      <g>
       <use xlink:href="#m0da652f458" x="43.003987" y="133.793173" style="stroke: #000000; stroke-width: 1.25"/>
      </g>
     </g>
     <g id="text_10">
      <!-- $\mathdefault{1.0}$ -->
      <g transform="translate(20.353987 137.72997)">
       <text>
        <tspan style="font: 11px 'Arial'" x="0 6.117676 9.173828" y="-0.09375">1.0</tspan>
       </text>
      </g>
     </g>
    </g>
    <g id="ytick_4">
     <g id="line2d_13">
      <g>
       <use xlink:href="#m0da652f458" x="43.003987" y="92.487596" style="stroke: #000000; stroke-width: 1.25"/>
      </g>
     </g>
     <g id="text_11">
      <!-- $\mathdefault{1.5}$ -->
      <g transform="translate(20.353987 96.424393)">
       <text>
        <tspan style="font: 11px 'Arial'" x="0 6.117676 9.173828" y="-0.09375">1.5</tspan>
       </text>
      </g>
     </g>
    </g>
    <g id="ytick_5">
     <g id="line2d_14">
      <g>
       <use xlink:href="#m0da652f458" x="43.003987" y="51.18202" style="stroke: #000000; stroke-width: 1.25"/>
      </g>
     </g>
     <g id="text_12">
      <!-- $\mathdefault{2.0}$ -->
      <g transform="translate(20.353987 55.118816)">
       <text>
        <tspan style="font: 11px 'Arial'" x="0 6.117676 9.173828" y="-0.09375">2.0</tspan>
       </text>
      </g>
     </g>
    </g>
    <g id="text_13">
     <!-- $B_{\lambda}$ {\sffamily (photons/cm\textsuperscript{2}/s/nm)} -->
     <g transform="translate(13.728305 177.714049) rotate(-90) scale(0.12 -0.12)">
      <defs>
       <path id="NimbusRomNo9L-ReguItal-42" d="M -51 0 
L 1754 0 
C 2758 0 3450 523 3450 1274 
C 3450 1510 3373 1732 3232 1872 
C 3104 2019 2976 2095 2643 2235 
C 3098 2344 3283 2420 3488 2598 
C 3667 2751 3763 2968 3763 3222 
C 3763 3827 3309 4160 2483 4160 
L 832 4160 
L 832 4057 
C 1229 4025 1325 3974 1325 3795 
C 1325 3700 1299 3541 1254 3388 
L 467 574 
C 352 204 307 166 -51 102 
L -51 0 
z
M 1523 2108 
C 1939 2108 2208 2083 2336 2032 
C 2598 1923 2758 1643 2758 1299 
C 2758 612 2285 192 1504 192 
C 1235 192 1094 287 1094 459 
C 1094 535 1171 841 1318 1350 
C 1402 1637 1440 1783 1523 2108 
z
M 2003 3789 
C 2042 3929 2118 3967 2368 3967 
C 2880 3967 3117 3751 3117 3280 
C 3117 2917 2963 2637 2688 2484 
C 2470 2356 2163 2312 1587 2312 
L 2003 3789 
z
" transform="scale(0.015625)"/>
       <path id="NimbusSanL-Regu-70" d="M 346 -1408 
L 883 -1408 
L 883 371 
C 1165 25 1478 -128 1914 -128 
C 2778 -128 3347 568 3347 1632 
C 3347 2752 2797 3456 1907 3456 
C 1453 3456 1088 3251 838 2854 
L 838 3359 
L 346 3359 
L 346 -1408 
z
M 1818 2956 
C 2406 2956 2790 2440 2790 1644 
C 2790 887 2400 371 1818 371 
C 1254 371 883 880 883 1663 
C 883 2447 1254 2956 1818 2956 
z
" transform="scale(0.015625)"/>
       <path id="NimbusSanL-Regu-68" d="M 448 4672 
L 448 0 
L 979 0 
L 979 1853 
C 979 2539 1338 2988 1888 2988 
C 2061 2988 2234 2930 2362 2834 
C 2515 2725 2579 2565 2579 2328 
L 2579 0 
L 3110 0 
L 3110 2539 
C 3110 3103 2707 3456 2054 3456 
C 1581 3456 1293 3308 979 2898 
L 979 4672 
L 448 4672 
z
" transform="scale(0.015625)"/>
       <path id="NimbusSanL-Regu-6f" d="M 1741 3456 
C 800 3456 230 2784 230 1663 
C 230 543 794 -128 1747 -128 
C 2688 -128 3264 543 3264 1638 
C 3264 2791 2707 3456 1741 3456 
z
M 1747 2963 
C 2349 2963 2707 2472 2707 1644 
C 2707 861 2336 364 1747 364 
C 1152 364 787 855 787 1663 
C 787 2466 1152 2963 1747 2963 
z
" transform="scale(0.015625)"/>
       <path id="NimbusSanL-Regu-74" d="M 1626 3328 
L 1075 3328 
L 1075 4249 
L 544 4249 
L 544 3328 
L 90 3328 
L 90 2892 
L 544 2892 
L 544 402 
C 544 64 774 -128 1190 -128 
C 1318 -128 1446 -116 1626 -84 
L 1626 364 
C 1555 345 1472 339 1370 339 
C 1139 339 1075 402 1075 634 
L 1075 2892 
L 1626 2892 
L 1626 3328 
z
" transform="scale(0.015625)"/>
       <path id="NimbusSanL-Regu-73" d="M 2803 2428 
C 2797 3084 2362 3456 1587 3456 
C 806 3456 301 3052 301 2434 
C 301 1912 570 1663 1363 1472 
L 1862 1351 
C 2234 1262 2381 1129 2381 887 
C 2381 574 2067 364 1600 364 
C 1312 364 1069 447 934 587 
C 851 683 813 778 781 1014 
L 218 1014 
C 243 243 678 -128 1555 -128 
C 2400 -128 2938 288 2938 931 
C 2938 1428 2656 1702 1990 1861 
L 1478 1982 
C 1043 2084 858 2224 858 2459 
C 858 2765 1133 2963 1568 2963 
C 1997 2963 2227 2778 2240 2428 
L 2803 2428 
z
" transform="scale(0.015625)"/>
       <path id="NimbusSanL-Regu-2f" d="M 1466 4672 
L -51 -128 
L 301 -128 
L 1818 4672 
L 1466 4672 
z
" transform="scale(0.015625)"/>
       <path id="NimbusSanL-Regu-63" d="M 3014 2237 
C 2989 2561 2918 2771 2790 2956 
C 2560 3270 2157 3456 1690 3456 
C 787 3456 198 2740 198 1632 
C 198 555 774 -128 1683 -128 
C 2483 -128 2989 352 3053 1167 
L 2515 1167 
C 2426 632 2150 364 1696 364 
C 1107 364 755 842 755 1632 
C 755 2466 1101 2963 1683 2963 
C 2131 2963 2413 2701 2477 2237 
L 3014 2237 
z
" transform="scale(0.015625)"/>
       <path id="NimbusSanL-Regu-32" d="M 3238 556 
L 851 556 
C 909 928 1114 1165 1670 1493 
L 2310 1839 
C 2944 2185 3270 2653 3270 3211 
C 3270 3589 3117 3942 2848 4185 
C 2579 4428 2246 4544 1818 4544 
C 1242 4544 813 4339 563 3955 
C 403 3711 333 3429 320 2967 
L 883 2967 
C 902 3275 941 3461 1018 3608 
C 1165 3884 1459 4051 1798 4051 
C 2310 4051 2694 3685 2694 3198 
C 2694 2839 2483 2531 2080 2300 
L 1491 1967 
C 544 1428 269 999 218 0 
L 3238 0 
L 3238 556 
z
" transform="scale(0.015625)"/>
      </defs>
      <use xlink:href="#NimbusRomNo9L-ReguItal-42" transform="scale(0.996264)"/>
      <use xlink:href="#StandardSymL-6c" transform="translate(60.871631 -20.616338) scale(0.737241)"/>
      <use xlink:href="#NimbusSanL-Regu-28" transform="translate(135.818713 0) scale(0.996264)"/>
      <use xlink:href="#NimbusSanL-Regu-70" transform="translate(168.993943 0) scale(0.996264)"/>
      <use xlink:href="#NimbusSanL-Regu-68" transform="translate(224.38562 0) scale(0.996264)"/>
      <use xlink:href="#NimbusSanL-Regu-6f" transform="translate(279.777297 0) scale(0.996264)"/>
      <use xlink:href="#NimbusSanL-Regu-74" transform="translate(335.168974 0) scale(0.996264)"/>
      <use xlink:href="#NimbusSanL-Regu-6f" transform="translate(362.864143 0) scale(0.996264)"/>
      <use xlink:href="#NimbusSanL-Regu-6e" transform="translate(418.25582 0) scale(0.996264)"/>
      <use xlink:href="#NimbusSanL-Regu-73" transform="translate(473.647497 0) scale(0.996264)"/>
      <use xlink:href="#NimbusSanL-Regu-2f" transform="translate(523.460698 0) scale(0.996264)"/>
      <use xlink:href="#NimbusSanL-Regu-63" transform="translate(551.155868 0) scale(0.996264)"/>
      <use xlink:href="#NimbusSanL-Regu-6d" transform="translate(600.969068 0) scale(0.996264)"/>
      <use xlink:href="#NimbusSanL-Regu-32" transform="translate(683.957498 36.163231) scale(0.737241)"/>
      <use xlink:href="#NimbusSanL-Regu-2f" transform="translate(725.445777 0) scale(0.996264)"/>
      <use xlink:href="#NimbusSanL-Regu-73" transform="translate(753.140947 0) scale(0.996264)"/>
      <use xlink:href="#NimbusSanL-Regu-2f" transform="translate(802.954147 0) scale(0.996264)"/>
      <use xlink:href="#NimbusSanL-Regu-6e" transform="translate(830.649317 0) scale(0.996264)"/>
      <use xlink:href="#NimbusSanL-Regu-6d" transform="translate(886.040994 0) scale(0.996264)"/>
      <use xlink:href="#NimbusSanL-Regu-29" transform="translate(969.029424 0) scale(0.996264)"/>
     </g>
    </g>
    <g id="text_14">
     <!-- $\times\mathdefault{10^{13}}\mathdefault{}$ -->
     <g transform="translate(43.003987 14.735865)">
      <text>
       <tspan style="font: 11px 'STIXGeneral'" x="0" y="-0.799312500000001"></tspan>
       <tspan style="font: 11px 'Arial'" x="7.039993 13.157669" y="-0.799312500000001">10</tspan>
       <tspan style="font: 7.7px 'Arial'" x="19.467003 23.749376" y="-8.465625">13</tspan>
      </text>
     </g>
    </g>
   </g>
   <g id="patch_7">
    <path d="M 217.800817 47.652918 
L 217.800817 67.40298 
L 294.609383 67.40298 
" style="fill: none; stroke: #000000; stroke-linecap: round"/>
    <path d="M 290.609383 65.40298 
L 294.609383 67.40298 
L 290.609383 69.40298 
" style="fill: none; stroke: #000000; stroke-linecap: round"/>
   </g>
   <g id="text_15">
    <g id="patch_8">
     <path d="M 184.100817 50.702711 
L 251.500817 50.702711 
Q 254.500817 50.702711 254.500817 47.702711 
L 254.500817 37.602711 
Q 254.500817 34.602711 251.500817 34.602711 
L 184.100817 34.602711 
Q 181.100817 34.602711 181.100817 37.602711 
L 181.100817 47.702711 
Q 181.100817 50.702711 184.100817 50.702711 
z
" style="fill: #f5deb3; stroke: #000000; stroke-linejoin: miter"/>
    </g>
    <!-- D$_{\gamma}$ (434.00) nm -->
    <g transform="translate(184.100817 44.902711)">
     <text>
      <tspan style="font: 10px 'Arial'" x="0 10.686517 13.464837 16.794915 22.356439 27.917962 33.479486 36.257806 41.81933 47.380853 50.710931 53.489251 59.050775" y="-0.71875">D(434.00)nm</tspan>
      <tspan style="font: italic 7px 'STIXGeneral'" x="7.375898" y="0.6031250000000004"></tspan>
     </text>
    </g>
   </g>
   <g id="text_16">
    <text style="font: 10px 'Arial'; text-anchor: middle" x="237.514461" y="125.19642" transform="rotate(-0 237.514461 125.19642)">Q-branch</text>
   </g>
   <g id="text_17">
    <text style="font: 10px 'Arial'; text-anchor: middle" x="122.349582" y="92.968503" transform="rotate(-0 122.349582 92.968503)">B-D + C-D</text>
   </g>
   <g id="text_18">
    <text style="font: 700 12px 'Arial'; text-anchor: middle" x="182.001874" y="11.735865" transform="rotate(-0 182.001874 11.735865)">HP boron rod (redeposit test) - 10 min</text>
   </g>
  </g>
 </g>
 <defs>
  <clipPath id="p888a43b77d">
   <rect x="43.003987" y="17.735865" width="277.995773" height="198.668461"/>
  </clipPath>
 </defs>
</svg>
