<?xml version="1.0" encoding="utf-8" standalone="no"?>
<!DOCTYPE svg PUBLIC "-//W3C//DTD SVG 1.1//EN"
  "http://www.w3.org/Graphics/SVG/1.1/DTD/svg11.dtd">
<svg xmlns:xlink="http://www.w3.org/1999/xlink" width="324pt" height="252pt" viewBox="0 0 324 252" xmlns="http://www.w3.org/2000/svg" version="1.1">
 <metadata>
  <rdf:RDF xmlns:dc="http://purl.org/dc/elements/1.1/" xmlns:cc="http://creativecommons.org/ns#" xmlns:rdf="http://www.w3.org/1999/02/22-rdf-syntax-ns#">
   <cc:Work>
    <dc:type rdf:resource="http://purl.org/dc/dcmitype/StillImage"/>
    <dc:date>2024-12-06T11:06:38.233640</dc:date>
    <dc:format>image/svg+xml</dc:format>
    <dc:creator>
     <cc:Agent>
      <dc:title>Matplotlib v3.9.2, https://matplotlib.org/</dc:title>
     </cc:Agent>
    </dc:creator>
   </cc:Work>
  </rdf:RDF>
 </metadata>
 <defs>
  <style type="text/css">*{stroke-linejoin: round; stroke-linecap: butt}</style>
 </defs>
 <g id="figure_1">
  <g id="patch_1">
   <path d="M 0 252 
L 324 252 
L 324 0 
L 0 0 
z
" style="fill: #ffffff"/>
  </g>
  <g id="axes_1">
   <g id="patch_2">
    <path d="M 43.003987 216.404326 
L 320.99976 216.404326 
L 320.99976 17.735865 
L 43.003987 17.735865 
z
" style="fill: #ffffff"/>
   </g>
   <g id="PolyCollection_1">
    <path d="M 43.29563 216.3646 
L 43.29563 216.404326 
L 44.651744 216.404326 
L 46.008869 216.404326 
L 47.364983 216.404326 
L 48.722108 216.404326 
L 50.078222 216.404326 
L 51.435346 216.404326 
L 52.792977 216.404326 
L 54.148585 216.404326 
L 55.506215 216.404326 
L 56.86334 216.404326 
L 58.22097 216.404326 
L 59.578601 216.404326 
L 60.935726 216.404326 
L 62.293356 216.404326 
L 63.650481 216.404326 
L 65.008111 216.404326 
L 66.366752 216.404326 
L 67.724382 216.404326 
L 69.081507 216.404326 
L 70.440654 216.404326 
L 71.798284 216.404326 
L 73.156925 216.404326 
L 74.514555 216.404326 
L 75.873197 216.404326 
L 77.232343 216.404326 
L 78.589468 216.404326 
L 79.948615 216.404326 
L 81.307761 216.404326 
L 82.666402 216.404326 
L 84.025549 216.404326 
L 85.38419 216.404326 
L 86.743337 216.404326 
L 88.102483 216.404326 
L 89.462641 216.404326 
L 90.821787 216.404326 
L 92.180934 216.404326 
L 93.541092 216.404326 
L 94.900238 216.404326 
L 96.260396 216.404326 
L 97.619542 216.404326 
L 98.980205 216.404326 
L 100.338846 216.404326 
L 101.699509 216.404326 
L 103.060172 216.404326 
L 104.42033 216.404326 
L 105.780993 216.404326 
L 107.141656 216.404326 
L 108.501813 216.404326 
L 109.862476 216.404326 
L 111.222634 216.404326 
L 112.583297 216.404326 
L 113.943959 216.404326 
L 115.305633 216.404326 
L 116.666296 216.404326 
L 118.026959 216.404326 
L 119.388633 216.404326 
L 120.749296 216.404326 
L 122.111475 216.404326 
L 123.473655 216.404326 
L 124.833812 216.404326 
L 126.195991 216.404326 
L 127.558171 216.404326 
L 128.919844 216.404326 
L 130.282024 216.404326 
L 131.644203 216.404326 
L 133.005877 216.404326 
L 134.368056 216.404326 
L 135.730235 216.404326 
L 137.091909 216.404326 
L 138.455605 216.404326 
L 139.817784 216.404326 
L 141.179963 216.404326 
L 142.543154 216.404326 
L 143.905333 216.404326 
L 145.269029 216.404326 
L 146.632724 216.404326 
L 147.994398 216.404326 
L 149.358094 216.404326 
L 150.721789 216.404326 
L 152.085485 216.404326 
L 153.448675 216.404326 
L 154.810854 216.404326 
L 156.17455 216.404326 
L 157.539762 216.404326 
L 158.902952 216.404326 
L 160.266648 216.404326 
L 161.630343 216.404326 
L 162.994039 216.404326 
L 164.358746 216.404326 
L 165.722441 216.404326 
L 167.087653 216.404326 
L 168.451349 216.404326 
L 169.816561 216.404326 
L 171.181267 216.404326 
L 172.544963 216.404326 
L 173.910175 216.404326 
L 175.275387 216.404326 
L 176.640599 216.404326 
L 178.005305 216.404326 
L 179.370517 216.404326 
L 180.735729 216.404326 
L 182.100941 216.404326 
L 183.466153 216.404326 
L 184.83086 216.404326 
L 186.196072 216.404326 
L 187.5628 216.404326 
L 188.928012 216.404326 
L 190.29474 216.404326 
L 191.659447 216.404326 
L 193.026175 216.404326 
L 194.391387 216.404326 
L 195.758115 216.404326 
L 197.124844 216.404326 
L 198.491572 216.404326 
L 199.856784 216.404326 
L 201.223007 216.404326 
L 202.589735 216.404326 
L 203.956463 216.404326 
L 205.323192 216.404326 
L 206.691436 216.404326 
L 208.058165 216.404326 
L 209.424893 216.404326 
L 210.791116 216.404326 
L 212.159361 216.404326 
L 213.526089 216.404326 
L 214.894333 216.404326 
L 216.261062 216.404326 
L 217.629306 216.404326 
L 218.996035 216.404326 
L 220.364279 216.404326 
L 221.732524 216.404326 
L 223.100263 216.404326 
L 224.468508 216.404326 
L 225.836753 216.404326 
L 227.204997 216.404326 
L 228.573242 216.404326 
L 229.941486 216.404326 
L 231.309731 216.404326 
L 232.677976 216.404326 
L 234.04622 216.404326 
L 235.415981 216.404326 
L 236.784226 216.404326 
L 238.153987 216.404326 
L 239.521726 216.404326 
L 240.891487 216.404326 
L 242.259732 216.404326 
L 243.629493 216.404326 
L 244.999254 216.404326 
L 246.369015 216.404326 
L 247.73726 216.404326 
L 249.10702 216.404326 
L 250.476781 216.404326 
L 251.846542 216.404326 
L 253.216303 216.404326 
L 254.587581 216.404326 
L 255.957342 216.404326 
L 257.327103 216.404326 
L 258.696864 216.404326 
L 260.068141 216.404326 
L 261.437902 216.404326 
L 262.809179 216.404326 
L 264.17894 216.404326 
L 265.550218 216.404326 
L 266.919979 216.404326 
L 268.291256 216.404326 
L 269.662533 216.404326 
L 271.033811 216.404326 
L 272.405088 216.404326 
L 273.776365 216.404326 
L 275.147643 216.404326 
L 276.51892 216.404326 
L 277.890197 216.404326 
L 279.261475 216.404326 
L 280.632752 216.404326 
L 282.005546 216.404326 
L 283.376823 216.404326 
L 284.7481 216.404326 
L 286.120894 216.404326 
L 287.492171 216.404326 
L 288.864965 216.404326 
L 290.237759 216.404326 
L 291.609036 216.404326 
L 292.98183 216.404326 
L 294.354623 216.404326 
L 295.727417 216.404326 
L 297.100211 216.404326 
L 298.47351 216.404326 
L 299.846303 216.404326 
L 301.219097 216.404326 
L 302.591891 216.404326 
L 303.964684 216.404326 
L 305.337478 216.404326 
L 306.711788 216.404326 
L 308.084582 216.404326 
L 309.458892 216.404326 
L 310.831686 216.404326 
L 312.205996 216.404326 
L 313.578789 216.404326 
L 314.953605 216.404326 
L 316.327915 216.404326 
L 317.700708 216.404326 
L 319.075018 216.404326 
L 320.449328 216.404326 
L 320.449328 216.227227 
L 320.449328 216.227227 
L 319.075018 216.221642 
L 317.700708 216.215789 
L 316.327915 216.209658 
L 314.953605 216.203215 
L 313.578789 216.196444 
L 312.205996 216.189337 
L 310.831686 216.181851 
L 309.458892 216.173977 
L 308.084582 216.165668 
L 306.711788 216.156912 
L 305.337478 216.147655 
L 303.964684 216.13788 
L 302.591891 216.127537 
L 301.219097 216.116581 
L 299.846303 216.104961 
L 298.47351 216.092625 
L 297.100211 216.079506 
L 295.727417 216.065548 
L 294.354623 216.050673 
L 292.98183 216.034797 
L 291.609036 216.01783 
L 290.237759 215.999691 
L 288.864965 215.980224 
L 287.492171 215.959321 
L 286.120894 215.936863 
L 284.7481 215.912638 
L 283.376823 215.886515 
L 282.005546 215.85826 
L 280.632752 215.8276 
L 279.261475 215.794329 
L 277.890197 215.758105 
L 276.51892 215.718568 
L 275.147643 215.675304 
L 273.776365 215.62783 
L 272.405088 215.575586 
L 271.033811 215.517913 
L 269.662533 215.454038 
L 268.291256 215.383044 
L 266.919979 215.303839 
L 265.550218 215.215222 
L 264.17894 215.115423 
L 262.809179 215.002757 
L 261.437902 214.874641 
L 260.068141 214.728489 
L 258.696864 214.560404 
L 257.327103 214.366286 
L 255.957342 214.140307 
L 254.587581 213.87523 
L 253.216303 213.561316 
L 251.846542 213.186986 
L 250.476781 212.735659 
L 249.10702 212.185471 
L 247.73726 211.506607 
L 246.369015 210.658889 
L 244.999254 209.582702 
L 243.629493 208.196971 
L 242.259732 206.384902 
L 240.891487 203.98409 
L 239.521726 200.762811 
L 238.153987 196.450375 
L 236.784226 190.786077 
L 235.415981 183.864289 
L 234.04622 176.702667 
L 232.677976 171.729015 
L 231.309731 171.317587 
L 229.941486 175.010743 
L 228.573242 179.536908 
L 227.204997 180.969807 
L 225.836753 175.314585 
L 224.468508 170.313186 
L 223.100263 184.532194 
L 221.732524 196.758751 
L 220.364279 203.032573 
L 218.996035 206.50378 
L 217.629306 208.66386 
L 216.261062 210.134171 
L 214.894333 211.194781 
L 213.526089 211.994877 
L 212.159361 212.616214 
L 210.791116 213.111526 
L 209.424893 213.512924 
L 208.058165 213.843962 
L 206.691436 214.120445 
L 205.323192 214.354189 
L 203.956463 214.553282 
L 202.589735 214.724518 
L 201.223007 214.872913 
L 199.856784 215.002343 
L 198.491572 215.115894 
L 197.124844 215.216251 
L 195.758115 215.305295 
L 194.391387 215.384672 
L 193.026175 215.455662 
L 191.659447 215.519547 
L 190.29474 215.577101 
L 188.928012 215.629287 
L 187.5628 215.676632 
L 186.196072 215.719812 
L 184.83086 215.759216 
L 183.466153 215.795299 
L 182.100941 215.82845 
L 180.735729 215.858965 
L 179.370517 215.887117 
L 178.005305 215.913145 
L 176.640599 215.937248 
L 175.275387 215.959627 
L 173.910175 215.980436 
L 172.544963 215.999819 
L 171.181267 216.017882 
L 169.816561 216.034774 
L 168.451349 216.050589 
L 167.087653 216.065394 
L 165.722441 216.079304 
L 164.358746 216.092361 
L 162.994039 216.104655 
L 161.630343 216.116229 
L 160.266648 216.127145 
L 158.902952 216.137453 
L 157.539762 216.147193 
L 156.17455 216.156422 
L 154.810854 216.165154 
L 153.448675 216.173424 
L 152.085485 216.181279 
L 150.721789 216.188741 
L 149.358094 216.195836 
L 147.994398 216.202586 
L 146.632724 216.209005 
L 145.269029 216.21513 
L 143.905333 216.220973 
L 142.543154 216.226542 
L 141.179963 216.231866 
L 139.817784 216.236951 
L 138.455605 216.241813 
L 137.091909 216.246473 
L 135.730235 216.250928 
L 134.368056 216.255199 
L 133.005877 216.259294 
L 131.644203 216.263221 
L 130.282024 216.266992 
L 128.919844 216.270614 
L 127.558171 216.274094 
L 126.195991 216.27744 
L 124.833812 216.28066 
L 123.473655 216.283753 
L 122.111475 216.286737 
L 120.749296 216.289611 
L 119.388633 216.292378 
L 118.026959 216.295048 
L 116.666296 216.297622 
L 115.305633 216.300106 
L 113.943959 216.302506 
L 112.583297 216.304822 
L 111.222634 216.307061 
L 109.862476 216.309223 
L 108.501813 216.311316 
L 107.141656 216.313339 
L 105.780993 216.315297 
L 104.42033 216.317194 
L 103.060172 216.319029 
L 101.699509 216.320808 
L 100.338846 216.322531 
L 98.980205 216.3242 
L 97.619542 216.32582 
L 96.260396 216.32739 
L 94.900238 216.328915 
L 93.541092 216.330393 
L 92.180934 216.331829 
L 90.821787 216.333223 
L 89.462641 216.334578 
L 88.102483 216.335895 
L 86.743337 216.337173 
L 85.38419 216.338417 
L 84.025549 216.339626 
L 82.666402 216.340802 
L 81.307761 216.341946 
L 79.948615 216.34306 
L 78.589468 216.344144 
L 77.232343 216.345198 
L 75.873197 216.346227 
L 74.514555 216.347228 
L 73.156925 216.348203 
L 71.798284 216.349154 
L 70.440654 216.35008 
L 69.081507 216.350984 
L 67.724382 216.351864 
L 66.366752 216.352724 
L 65.008111 216.353562 
L 63.650481 216.35438 
L 62.293356 216.355178 
L 60.935726 216.355958 
L 59.578601 216.356718 
L 58.22097 216.357461 
L 56.86334 216.358187 
L 55.506215 216.358896 
L 54.148585 216.359589 
L 52.792977 216.360265 
L 51.435346 216.360927 
L 50.078222 216.361574 
L 48.722108 216.362206 
L 47.364983 216.362825 
L 46.008869 216.363429 
L 44.651744 216.364021 
L 43.29563 216.3646 
z
" clip-path="url(#p08533c9daf)" style="fill: #1f77b4; fill-opacity: 0.25"/>
   </g>
   <g id="PolyCollection_2">
    <path d="M 43.29563 215.548103 
L 43.29563 216.404326 
L 44.651744 216.404326 
L 46.008869 216.404326 
L 47.364983 216.404326 
L 48.722108 216.404326 
L 50.078222 216.404326 
L 51.435346 216.404326 
L 52.792977 216.404326 
L 54.148585 216.404326 
L 55.506215 216.404326 
L 56.86334 216.404326 
L 58.22097 216.404326 
L 59.578601 216.404326 
L 60.935726 216.404326 
L 62.293356 216.404326 
L 63.650481 216.404326 
L 65.008111 216.404326 
L 66.366752 216.404326 
L 67.724382 216.404326 
L 69.081507 216.404326 
L 70.440654 216.404326 
L 71.798284 216.404326 
L 73.156925 216.404326 
L 74.514555 216.404326 
L 75.873197 216.404326 
L 77.232343 216.404326 
L 78.589468 216.404326 
L 79.948615 216.404326 
L 81.307761 216.404326 
L 82.666402 216.404326 
L 84.025549 216.404326 
L 85.38419 216.404326 
L 86.743337 216.404326 
L 88.102483 216.404326 
L 89.462641 216.404326 
L 90.821787 216.404326 
L 92.180934 216.404326 
L 93.541092 216.404326 
L 94.900238 216.404326 
L 96.260396 216.404326 
L 97.619542 216.404326 
L 98.980205 216.404326 
L 100.338846 216.404326 
L 101.699509 216.404326 
L 103.060172 216.404326 
L 104.42033 216.404326 
L 105.780993 216.404326 
L 107.141656 216.404326 
L 108.501813 216.404326 
L 109.862476 216.404326 
L 111.222634 216.404326 
L 112.583297 216.404326 
L 113.943959 216.404326 
L 115.305633 216.404326 
L 116.666296 216.404326 
L 118.026959 216.404326 
L 119.388633 216.404326 
L 120.749296 216.404326 
L 122.111475 216.404326 
L 123.473655 216.404326 
L 124.833812 216.404326 
L 126.195991 216.404326 
L 127.558171 216.404326 
L 128.919844 216.404326 
L 130.282024 216.404326 
L 131.644203 216.404326 
L 133.005877 216.404326 
L 134.368056 216.404326 
L 135.730235 216.404326 
L 137.091909 216.404326 
L 138.455605 216.404326 
L 139.817784 216.404326 
L 141.179963 216.404326 
L 142.543154 216.404326 
L 143.905333 216.404326 
L 145.269029 216.404326 
L 146.632724 216.404326 
L 147.994398 216.404326 
L 149.358094 216.404326 
L 150.721789 216.404326 
L 152.085485 216.404326 
L 153.448675 216.404326 
L 154.810854 216.404326 
L 156.17455 216.404326 
L 157.539762 216.404326 
L 158.902952 216.404326 
L 160.266648 216.404326 
L 161.630343 216.404326 
L 162.994039 216.404326 
L 164.358746 216.404326 
L 165.722441 216.404326 
L 167.087653 216.404326 
L 168.451349 216.404326 
L 169.816561 216.404326 
L 171.181267 216.404326 
L 172.544963 216.404326 
L 173.910175 216.404326 
L 175.275387 216.404326 
L 176.640599 216.404326 
L 178.005305 216.404326 
L 179.370517 216.404326 
L 180.735729 216.404326 
L 182.100941 216.404326 
L 183.466153 216.404326 
L 184.83086 216.404326 
L 186.196072 216.404326 
L 187.5628 216.404326 
L 188.928012 216.404326 
L 190.29474 216.404326 
L 191.659447 216.404326 
L 193.026175 216.404326 
L 194.391387 216.404326 
L 195.758115 216.404326 
L 197.124844 216.404326 
L 198.491572 216.404326 
L 199.856784 216.404326 
L 201.223007 216.404326 
L 202.589735 216.404326 
L 203.956463 216.404326 
L 205.323192 216.404326 
L 206.691436 216.404326 
L 208.058165 216.404326 
L 209.424893 216.404326 
L 210.791116 216.404326 
L 212.159361 216.404326 
L 213.526089 216.404326 
L 214.894333 216.404326 
L 216.261062 216.404326 
L 217.629306 216.404326 
L 218.996035 216.404326 
L 220.364279 216.404326 
L 221.732524 216.404326 
L 223.100263 216.404326 
L 224.468508 216.404326 
L 225.836753 216.404326 
L 227.204997 216.404326 
L 228.573242 216.404326 
L 229.941486 216.404326 
L 231.309731 216.404326 
L 232.677976 216.404326 
L 234.04622 216.404326 
L 235.415981 216.404326 
L 236.784226 216.404326 
L 238.153987 216.404326 
L 239.521726 216.404326 
L 240.891487 216.404326 
L 242.259732 216.404326 
L 243.629493 216.404326 
L 244.999254 216.404326 
L 246.369015 216.404326 
L 247.73726 216.404326 
L 249.10702 216.404326 
L 250.476781 216.404326 
L 251.846542 216.404326 
L 253.216303 216.404326 
L 254.587581 216.404326 
L 255.957342 216.404326 
L 257.327103 216.404326 
L 258.696864 216.404326 
L 260.068141 216.404326 
L 261.437902 216.404326 
L 262.809179 216.404326 
L 264.17894 216.404326 
L 265.550218 216.404326 
L 266.919979 216.404326 
L 268.291256 216.404326 
L 269.662533 216.404326 
L 271.033811 216.404326 
L 272.405088 216.404326 
L 273.776365 216.404326 
L 275.147643 216.404326 
L 276.51892 216.404326 
L 277.890197 216.404326 
L 279.261475 216.404326 
L 280.632752 216.404326 
L 282.005546 216.404326 
L 283.376823 216.404326 
L 284.7481 216.404326 
L 286.120894 216.404326 
L 287.492171 216.404326 
L 288.864965 216.404326 
L 290.237759 216.404326 
L 291.609036 216.404326 
L 292.98183 216.404326 
L 294.354623 216.404326 
L 295.727417 216.404326 
L 297.100211 216.404326 
L 298.47351 216.404326 
L 299.846303 216.404326 
L 301.219097 216.404326 
L 302.591891 216.404326 
L 303.964684 216.404326 
L 305.337478 216.404326 
L 306.711788 216.404326 
L 308.084582 216.404326 
L 309.458892 216.404326 
L 310.831686 216.404326 
L 312.205996 216.404326 
L 313.578789 216.404326 
L 314.953605 216.404326 
L 316.327915 216.404326 
L 317.700708 216.404326 
L 319.075018 216.404326 
L 320.449328 216.404326 
L 320.449328 216.269376 
L 320.449328 216.269376 
L 319.075018 216.267123 
L 317.700708 216.264811 
L 316.327915 216.262441 
L 314.953605 216.260006 
L 313.578789 216.257504 
L 312.205996 216.254939 
L 310.831686 216.2523 
L 309.458892 216.249592 
L 308.084582 216.246805 
L 306.711788 216.243943 
L 305.337478 216.240996 
L 303.964684 216.237967 
L 302.591891 216.234851 
L 301.219097 216.231643 
L 299.846303 216.228339 
L 298.47351 216.224936 
L 297.100211 216.221429 
L 295.727417 216.217815 
L 294.354623 216.214088 
L 292.98183 216.210244 
L 291.609036 216.206278 
L 290.237759 216.202188 
L 288.864965 216.19796 
L 287.492171 216.193592 
L 286.120894 216.189084 
L 284.7481 216.184417 
L 283.376823 216.179595 
L 282.005546 216.174606 
L 280.632752 216.169435 
L 279.261475 216.164085 
L 277.890197 216.158541 
L 276.51892 216.152794 
L 275.147643 216.146832 
L 273.776365 216.140645 
L 272.405088 216.134221 
L 271.033811 216.127546 
L 269.662533 216.120607 
L 268.291256 216.11339 
L 266.919979 216.105877 
L 265.550218 216.098062 
L 264.17894 216.089909 
L 262.809179 216.081415 
L 261.437902 216.072541 
L 260.068141 216.063283 
L 258.696864 216.053597 
L 257.327103 216.043476 
L 255.957342 216.032881 
L 254.587581 216.02178 
L 253.216303 216.010125 
L 251.846542 215.997905 
L 250.476781 215.985065 
L 249.10702 215.971561 
L 247.73726 215.957343 
L 246.369015 215.942373 
L 244.999254 215.926558 
L 243.629493 215.909849 
L 242.259732 215.892171 
L 240.891487 215.873464 
L 239.521726 215.853596 
L 238.153987 215.832517 
L 236.784226 215.810052 
L 235.415981 215.786129 
L 234.04622 215.760552 
L 232.677976 215.733213 
L 231.309731 215.703898 
L 229.941486 215.672395 
L 228.573242 215.638459 
L 227.204997 215.601807 
L 225.836753 215.562109 
L 224.468508 215.51898 
L 223.100263 215.471965 
L 221.732524 215.420543 
L 220.364279 215.364026 
L 218.996035 215.301642 
L 217.629306 215.232501 
L 216.261062 215.155241 
L 214.894333 215.068503 
L 213.526089 214.970116 
L 212.159361 214.857685 
L 210.791116 214.727406 
L 209.424893 214.574649 
L 208.058165 214.391904 
L 206.691436 214.16809 
L 205.323192 213.884741 
L 203.956463 213.510711 
L 202.589735 212.984642 
L 201.223007 212.174238 
L 199.856784 210.747105 
L 198.491572 207.707436 
L 197.124844 199.94782 
L 195.758115 190.559941 
L 194.391387 199.843126 
L 193.026175 204.846764 
L 191.659447 203.739862 
L 190.29474 188.954815 
L 188.928012 197.159217 
L 187.5628 201.731078 
L 186.196072 199.641609 
L 184.83086 194.59719 
L 183.466153 185.943496 
L 182.100941 172.464669 
L 180.735729 156.751941 
L 179.370517 150.695858 
L 178.005305 157.674522 
L 176.640599 163.289153 
L 175.275387 158.924689 
L 173.910175 147.447096 
L 172.544963 148.759107 
L 171.181267 166.77825 
L 169.816561 182.269729 
L 168.451349 190.954901 
L 167.087653 194.973885 
L 165.722441 195.720735 
L 164.358746 193.18477 
L 162.994039 185.992569 
L 161.630343 173.796375 
L 160.266648 168.882815 
L 158.902952 179.080579 
L 157.539762 187.798175 
L 156.17455 190.346782 
L 154.810854 187.440186 
L 153.448675 177.706153 
L 152.085485 156.730592 
L 150.721789 128.826334 
L 149.358094 132.013082 
L 147.994398 152.23817 
L 146.632724 155.343217 
L 145.269029 135.852088 
L 143.905333 101.632741 
L 142.543154 112.181446 
L 141.179963 152.769901 
L 139.817784 177.162994 
L 138.455605 188.844289 
L 137.091909 194.194742 
L 135.730235 195.88285 
L 134.368056 194.492589 
L 133.005877 188.852201 
L 131.644203 174.589516 
L 130.282024 140.845546 
L 128.919844 98.141107 
L 127.558171 128.672995 
L 126.195991 167.302081 
L 124.833812 181.354983 
L 123.473655 177.346232 
L 122.111475 179.366388 
L 120.749296 193.794165 
L 119.388633 198.368751 
L 118.026959 198.262493 
L 116.666296 194.713411 
L 115.305633 186.225728 
L 113.943959 169.135691 
L 112.583297 145.760725 
L 111.222634 146.330886 
L 109.862476 169.356099 
L 108.501813 185.141337 
L 107.141656 191.486649 
L 105.780993 190.313276 
L 104.42033 179.851305 
L 103.060172 171.740329 
L 101.699509 186.767971 
L 100.338846 197.90142 
L 98.980205 202.549165 
L 97.619542 204.267212 
L 96.260396 204.430667 
L 94.900238 203.401552 
L 93.541092 201.023826 
L 92.180934 196.624432 
L 90.821787 188.679569 
L 89.462641 174.088476 
L 88.102483 148.918594 
L 86.743337 122.72022 
L 85.38419 128.68998 
L 84.025549 150.641941 
L 82.666402 156.859744 
L 81.307761 142.681665 
L 79.948615 145.817868 
L 78.589468 175.151441 
L 77.232343 192.5102 
L 75.873197 200.906778 
L 74.514555 205.393041 
L 73.156925 208.06921 
L 71.798284 209.809316 
L 70.440654 211.012478 
L 69.081507 211.886544 
L 67.724382 212.543739 
L 66.366752 213.053643 
L 65.008111 213.45894 
L 63.650481 213.787061 
L 62.293356 214.057315 
L 60.935726 214.283283 
L 59.578601 214.474429 
L 58.22097 214.637999 
L 56.86334 214.779252 
L 55.506215 214.902227 
L 54.148585 215.01018 
L 52.792977 215.10542 
L 51.435346 215.190215 
L 50.078222 215.265984 
L 48.722108 215.334011 
L 47.364983 215.395463 
L 46.008869 215.451129 
L 44.651744 215.501829 
L 43.29563 215.548103 
z
" clip-path="url(#p08533c9daf)" style="fill: #ff7f0e; fill-opacity: 0.25"/>
   </g>
   <g id="line2d_1">
    <path d="M 43.29563 216.404326 
L 48.722108 216.404326 
L 50.078222 215.938822 
L 51.435346 206.603109 
L 54.148585 177.096669 
L 55.506215 175.429111 
L 56.86334 181.154311 
L 58.22097 196.739207 
L 59.578601 216.380291 
L 65.008111 216.404326 
L 66.366752 207.086215 
L 67.724382 187.456339 
L 69.081507 176.827834 
L 70.440654 186.338802 
L 71.798284 216.404326 
L 74.514555 216.404326 
L 75.873197 211.665305 
L 77.232343 196.64131 
L 78.589468 165.611532 
L 79.948615 141.978477 
L 81.307761 146.791346 
L 82.666402 157.816474 
L 84.025549 138.7328 
L 85.38419 130.674681 
L 86.743337 126.87618 
L 88.102483 145.201891 
L 89.462641 179.287082 
L 90.821787 206.169473 
L 92.180934 216.404326 
L 94.900238 216.404326 
L 96.260396 212.476767 
L 97.619542 214.813158 
L 98.980205 216.404326 
L 100.338846 200.449999 
L 101.699509 179.327398 
L 103.060172 173.47546 
L 104.42033 180.395921 
L 105.780993 189.572429 
L 107.141656 194.0232 
L 108.501813 184.231518 
L 109.862476 161.826107 
L 111.222634 143.522459 
L 112.583297 151.854699 
L 113.943959 170.541832 
L 115.305633 182.209501 
L 116.666296 197.647377 
L 118.026959 208.570233 
L 119.388633 202.293798 
L 120.749296 187.33939 
L 122.111475 176.71279 
L 123.473655 179.354788 
L 124.833812 179.010482 
L 126.195991 157.768427 
L 127.558171 119.305246 
L 128.919844 104.854393 
L 130.282024 140.030924 
L 131.644203 190.293983 
L 133.005877 216.404326 
L 134.368056 216.404326 
L 135.730235 210.02746 
L 137.091909 202.423048 
L 138.455605 197.43612 
L 139.817784 179.090552 
L 141.179963 135.17102 
L 142.543154 105.733969 
L 143.905333 111.479968 
L 145.269029 134.941616 
L 146.632724 154.998815 
L 147.994398 145.74327 
L 149.358094 132.776098 
L 150.721789 129.107777 
L 152.085485 162.327469 
L 153.448675 183.082415 
L 154.810854 190.591645 
L 156.17455 191.794033 
L 157.539762 186.720829 
L 158.902952 173.844575 
L 160.266648 169.354664 
L 161.630343 175.967341 
L 162.994039 187.913215 
L 164.358746 193.410619 
L 165.722441 192.348143 
L 167.087653 191.468934 
L 168.451349 189.010145 
L 169.816561 181.677616 
L 171.181267 162.337547 
L 172.544963 146.112316 
L 173.910175 148.376167 
L 175.275387 162.331265 
L 176.640599 161.109249 
L 178.005305 152.822256 
L 179.370517 153.320563 
L 180.735729 159.95087 
L 182.100941 168.494757 
L 184.83086 202.509341 
L 186.196072 206.40913 
L 187.5628 200.389799 
L 188.928012 192.686003 
L 190.29474 193.580623 
L 191.659447 199.886657 
L 193.026175 204.290926 
L 195.758115 189.708301 
L 197.124844 201.070598 
L 198.491572 209.992898 
L 199.856784 216.404326 
L 209.424893 216.404326 
L 212.159361 210.314017 
L 213.526089 207.841583 
L 214.894333 204.556469 
L 216.261062 205.026628 
L 217.629306 205.799569 
L 218.996035 207.154519 
L 220.364279 206.539578 
L 221.732524 194.680874 
L 223.100263 178.174232 
L 224.468508 169.926125 
L 225.836753 175.831141 
L 227.204997 180.22547 
L 228.573242 176.617731 
L 229.941486 169.004306 
L 231.309731 177.858773 
L 232.677976 175.060484 
L 234.04622 167.628133 
L 235.415981 178.715822 
L 236.784226 203.924218 
L 238.153987 214.661036 
L 239.521726 216.404326 
L 287.492171 216.404326 
L 288.864965 170.951622 
L 290.237759 29.809289 
L 290.383932 -1 
M 299.749408 -1 
L 299.846303 41.549304 
L 301.219097 216.404326 
L 303.964684 216.404326 
L 305.337478 193.964827 
L 306.711788 193.761054 
L 308.084582 211.519701 
L 309.458892 216.404326 
L 314.953605 216.404326 
L 316.327915 206.36401 
L 317.700708 216.404326 
L 320.449328 216.404326 
L 320.449328 216.404326 
" clip-path="url(#p08533c9daf)" style="fill: none; stroke: #1f77b4; stroke-width: 1.5; stroke-linecap: square"/>
    <defs>
     <path id="m8cda2fc0d2" d="M 0 1.5 
C 0.397805 1.5 0.77937 1.341951 1.06066 1.06066 
C 1.341951 0.77937 1.5 0.397805 1.5 0 
C 1.5 -0.397805 1.341951 -0.77937 1.06066 -1.06066 
C 0.77937 -1.341951 0.397805 -1.5 0 -1.5 
C -0.397805 -1.5 -0.77937 -1.341951 -1.06066 -1.06066 
C -1.341951 -0.77937 -1.5 -0.397805 -1.5 0 
C -1.5 0.397805 -1.341951 0.77937 -1.06066 1.06066 
C -0.77937 1.341951 -0.397805 1.5 0 1.5 
z
" style="stroke: #1f77b4"/>
    </defs>
    <g clip-path="url(#p08533c9daf)">
     <use xlink:href="#m8cda2fc0d2" x="43.29563" y="216.404326" style="fill-opacity: 0; stroke: #1f77b4"/>
     <use xlink:href="#m8cda2fc0d2" x="44.651744" y="216.404326" style="fill-opacity: 0; stroke: #1f77b4"/>
     <use xlink:href="#m8cda2fc0d2" x="46.008869" y="216.404326" style="fill-opacity: 0; stroke: #1f77b4"/>
     <use xlink:href="#m8cda2fc0d2" x="47.364983" y="216.404326" style="fill-opacity: 0; stroke: #1f77b4"/>
     <use xlink:href="#m8cda2fc0d2" x="48.722108" y="216.404326" style="fill-opacity: 0; stroke: #1f77b4"/>
     <use xlink:href="#m8cda2fc0d2" x="50.078222" y="215.938822" style="fill-opacity: 0; stroke: #1f77b4"/>
     <use xlink:href="#m8cda2fc0d2" x="51.435346" y="206.603109" style="fill-opacity: 0; stroke: #1f77b4"/>
     <use xlink:href="#m8cda2fc0d2" x="52.792977" y="192.158738" style="fill-opacity: 0; stroke: #1f77b4"/>
     <use xlink:href="#m8cda2fc0d2" x="54.148585" y="177.096669" style="fill-opacity: 0; stroke: #1f77b4"/>
     <use xlink:href="#m8cda2fc0d2" x="55.506215" y="175.429111" style="fill-opacity: 0; stroke: #1f77b4"/>
     <use xlink:href="#m8cda2fc0d2" x="56.86334" y="181.154311" style="fill-opacity: 0; stroke: #1f77b4"/>
     <use xlink:href="#m8cda2fc0d2" x="58.22097" y="196.739207" style="fill-opacity: 0; stroke: #1f77b4"/>
     <use xlink:href="#m8cda2fc0d2" x="59.578601" y="216.380291" style="fill-opacity: 0; stroke: #1f77b4"/>
     <use xlink:href="#m8cda2fc0d2" x="60.935726" y="216.404326" style="fill-opacity: 0; stroke: #1f77b4"/>
     <use xlink:href="#m8cda2fc0d2" x="62.293356" y="216.404326" style="fill-opacity: 0; stroke: #1f77b4"/>
     <use xlink:href="#m8cda2fc0d2" x="63.650481" y="216.404326" style="fill-opacity: 0; stroke: #1f77b4"/>
     <use xlink:href="#m8cda2fc0d2" x="65.008111" y="216.404326" style="fill-opacity: 0; stroke: #1f77b4"/>
     <use xlink:href="#m8cda2fc0d2" x="66.366752" y="207.086215" style="fill-opacity: 0; stroke: #1f77b4"/>
     <use xlink:href="#m8cda2fc0d2" x="67.724382" y="187.456339" style="fill-opacity: 0; stroke: #1f77b4"/>
     <use xlink:href="#m8cda2fc0d2" x="69.081507" y="176.827834" style="fill-opacity: 0; stroke: #1f77b4"/>
     <use xlink:href="#m8cda2fc0d2" x="70.440654" y="186.338802" style="fill-opacity: 0; stroke: #1f77b4"/>
     <use xlink:href="#m8cda2fc0d2" x="71.798284" y="216.404326" style="fill-opacity: 0; stroke: #1f77b4"/>
     <use xlink:href="#m8cda2fc0d2" x="73.156925" y="216.404326" style="fill-opacity: 0; stroke: #1f77b4"/>
     <use xlink:href="#m8cda2fc0d2" x="74.514555" y="216.404326" style="fill-opacity: 0; stroke: #1f77b4"/>
     <use xlink:href="#m8cda2fc0d2" x="75.873197" y="211.665305" style="fill-opacity: 0; stroke: #1f77b4"/>
     <use xlink:href="#m8cda2fc0d2" x="77.232343" y="196.64131" style="fill-opacity: 0; stroke: #1f77b4"/>
     <use xlink:href="#m8cda2fc0d2" x="78.589468" y="165.611532" style="fill-opacity: 0; stroke: #1f77b4"/>
     <use xlink:href="#m8cda2fc0d2" x="79.948615" y="141.978477" style="fill-opacity: 0; stroke: #1f77b4"/>
     <use xlink:href="#m8cda2fc0d2" x="81.307761" y="146.791346" style="fill-opacity: 0; stroke: #1f77b4"/>
     <use xlink:href="#m8cda2fc0d2" x="82.666402" y="157.816474" style="fill-opacity: 0; stroke: #1f77b4"/>
     <use xlink:href="#m8cda2fc0d2" x="84.025549" y="138.7328" style="fill-opacity: 0; stroke: #1f77b4"/>
     <use xlink:href="#m8cda2fc0d2" x="85.38419" y="130.674681" style="fill-opacity: 0; stroke: #1f77b4"/>
     <use xlink:href="#m8cda2fc0d2" x="86.743337" y="126.87618" style="fill-opacity: 0; stroke: #1f77b4"/>
     <use xlink:href="#m8cda2fc0d2" x="88.102483" y="145.201891" style="fill-opacity: 0; stroke: #1f77b4"/>
     <use xlink:href="#m8cda2fc0d2" x="89.462641" y="179.287082" style="fill-opacity: 0; stroke: #1f77b4"/>
     <use xlink:href="#m8cda2fc0d2" x="90.821787" y="206.169473" style="fill-opacity: 0; stroke: #1f77b4"/>
     <use xlink:href="#m8cda2fc0d2" x="92.180934" y="216.404326" style="fill-opacity: 0; stroke: #1f77b4"/>
     <use xlink:href="#m8cda2fc0d2" x="93.541092" y="216.404326" style="fill-opacity: 0; stroke: #1f77b4"/>
     <use xlink:href="#m8cda2fc0d2" x="94.900238" y="216.404326" style="fill-opacity: 0; stroke: #1f77b4"/>
     <use xlink:href="#m8cda2fc0d2" x="96.260396" y="212.476767" style="fill-opacity: 0; stroke: #1f77b4"/>
     <use xlink:href="#m8cda2fc0d2" x="97.619542" y="214.813158" style="fill-opacity: 0; stroke: #1f77b4"/>
     <use xlink:href="#m8cda2fc0d2" x="98.980205" y="216.404326" style="fill-opacity: 0; stroke: #1f77b4"/>
     <use xlink:href="#m8cda2fc0d2" x="100.338846" y="200.449999" style="fill-opacity: 0; stroke: #1f77b4"/>
     <use xlink:href="#m8cda2fc0d2" x="101.699509" y="179.327398" style="fill-opacity: 0; stroke: #1f77b4"/>
     <use xlink:href="#m8cda2fc0d2" x="103.060172" y="173.47546" style="fill-opacity: 0; stroke: #1f77b4"/>
     <use xlink:href="#m8cda2fc0d2" x="104.42033" y="180.395921" style="fill-opacity: 0; stroke: #1f77b4"/>
     <use xlink:href="#m8cda2fc0d2" x="105.780993" y="189.572429" style="fill-opacity: 0; stroke: #1f77b4"/>
     <use xlink:href="#m8cda2fc0d2" x="107.141656" y="194.0232" style="fill-opacity: 0; stroke: #1f77b4"/>
     <use xlink:href="#m8cda2fc0d2" x="108.501813" y="184.231518" style="fill-opacity: 0; stroke: #1f77b4"/>
     <use xlink:href="#m8cda2fc0d2" x="109.862476" y="161.826107" style="fill-opacity: 0; stroke: #1f77b4"/>
     <use xlink:href="#m8cda2fc0d2" x="111.222634" y="143.522459" style="fill-opacity: 0; stroke: #1f77b4"/>
     <use xlink:href="#m8cda2fc0d2" x="112.583297" y="151.854699" style="fill-opacity: 0; stroke: #1f77b4"/>
     <use xlink:href="#m8cda2fc0d2" x="113.943959" y="170.541832" style="fill-opacity: 0; stroke: #1f77b4"/>
     <use xlink:href="#m8cda2fc0d2" x="115.305633" y="182.209501" style="fill-opacity: 0; stroke: #1f77b4"/>
     <use xlink:href="#m8cda2fc0d2" x="116.666296" y="197.647377" style="fill-opacity: 0; stroke: #1f77b4"/>
     <use xlink:href="#m8cda2fc0d2" x="118.026959" y="208.570233" style="fill-opacity: 0; stroke: #1f77b4"/>
     <use xlink:href="#m8cda2fc0d2" x="119.388633" y="202.293798" style="fill-opacity: 0; stroke: #1f77b4"/>
     <use xlink:href="#m8cda2fc0d2" x="120.749296" y="187.33939" style="fill-opacity: 0; stroke: #1f77b4"/>
     <use xlink:href="#m8cda2fc0d2" x="122.111475" y="176.71279" style="fill-opacity: 0; stroke: #1f77b4"/>
     <use xlink:href="#m8cda2fc0d2" x="123.473655" y="179.354788" style="fill-opacity: 0; stroke: #1f77b4"/>
     <use xlink:href="#m8cda2fc0d2" x="124.833812" y="179.010482" style="fill-opacity: 0; stroke: #1f77b4"/>
     <use xlink:href="#m8cda2fc0d2" x="126.195991" y="157.768427" style="fill-opacity: 0; stroke: #1f77b4"/>
     <use xlink:href="#m8cda2fc0d2" x="127.558171" y="119.305246" style="fill-opacity: 0; stroke: #1f77b4"/>
     <use xlink:href="#m8cda2fc0d2" x="128.919844" y="104.854393" style="fill-opacity: 0; stroke: #1f77b4"/>
     <use xlink:href="#m8cda2fc0d2" x="130.282024" y="140.030924" style="fill-opacity: 0; stroke: #1f77b4"/>
     <use xlink:href="#m8cda2fc0d2" x="131.644203" y="190.293983" style="fill-opacity: 0; stroke: #1f77b4"/>
     <use xlink:href="#m8cda2fc0d2" x="133.005877" y="216.404326" style="fill-opacity: 0; stroke: #1f77b4"/>
     <use xlink:href="#m8cda2fc0d2" x="134.368056" y="216.404326" style="fill-opacity: 0; stroke: #1f77b4"/>
     <use xlink:href="#m8cda2fc0d2" x="135.730235" y="210.02746" style="fill-opacity: 0; stroke: #1f77b4"/>
     <use xlink:href="#m8cda2fc0d2" x="137.091909" y="202.423048" style="fill-opacity: 0; stroke: #1f77b4"/>
     <use xlink:href="#m8cda2fc0d2" x="138.455605" y="197.43612" style="fill-opacity: 0; stroke: #1f77b4"/>
     <use xlink:href="#m8cda2fc0d2" x="139.817784" y="179.090552" style="fill-opacity: 0; stroke: #1f77b4"/>
     <use xlink:href="#m8cda2fc0d2" x="141.179963" y="135.17102" style="fill-opacity: 0; stroke: #1f77b4"/>
     <use xlink:href="#m8cda2fc0d2" x="142.543154" y="105.733969" style="fill-opacity: 0; stroke: #1f77b4"/>
     <use xlink:href="#m8cda2fc0d2" x="143.905333" y="111.479968" style="fill-opacity: 0; stroke: #1f77b4"/>
     <use xlink:href="#m8cda2fc0d2" x="145.269029" y="134.941616" style="fill-opacity: 0; stroke: #1f77b4"/>
     <use xlink:href="#m8cda2fc0d2" x="146.632724" y="154.998815" style="fill-opacity: 0; stroke: #1f77b4"/>
     <use xlink:href="#m8cda2fc0d2" x="147.994398" y="145.74327" style="fill-opacity: 0; stroke: #1f77b4"/>
     <use xlink:href="#m8cda2fc0d2" x="149.358094" y="132.776098" style="fill-opacity: 0; stroke: #1f77b4"/>
     <use xlink:href="#m8cda2fc0d2" x="150.721789" y="129.107777" style="fill-opacity: 0; stroke: #1f77b4"/>
     <use xlink:href="#m8cda2fc0d2" x="152.085485" y="162.327469" style="fill-opacity: 0; stroke: #1f77b4"/>
     <use xlink:href="#m8cda2fc0d2" x="153.448675" y="183.082415" style="fill-opacity: 0; stroke: #1f77b4"/>
     <use xlink:href="#m8cda2fc0d2" x="154.810854" y="190.591645" style="fill-opacity: 0; stroke: #1f77b4"/>
     <use xlink:href="#m8cda2fc0d2" x="156.17455" y="191.794033" style="fill-opacity: 0; stroke: #1f77b4"/>
     <use xlink:href="#m8cda2fc0d2" x="157.539762" y="186.720829" style="fill-opacity: 0; stroke: #1f77b4"/>
     <use xlink:href="#m8cda2fc0d2" x="158.902952" y="173.844575" style="fill-opacity: 0; stroke: #1f77b4"/>
     <use xlink:href="#m8cda2fc0d2" x="160.266648" y="169.354664" style="fill-opacity: 0; stroke: #1f77b4"/>
     <use xlink:href="#m8cda2fc0d2" x="161.630343" y="175.967341" style="fill-opacity: 0; stroke: #1f77b4"/>
     <use xlink:href="#m8cda2fc0d2" x="162.994039" y="187.913215" style="fill-opacity: 0; stroke: #1f77b4"/>
     <use xlink:href="#m8cda2fc0d2" x="164.358746" y="193.410619" style="fill-opacity: 0; stroke: #1f77b4"/>
     <use xlink:href="#m8cda2fc0d2" x="165.722441" y="192.348143" style="fill-opacity: 0; stroke: #1f77b4"/>
     <use xlink:href="#m8cda2fc0d2" x="167.087653" y="191.468934" style="fill-opacity: 0; stroke: #1f77b4"/>
     <use xlink:href="#m8cda2fc0d2" x="168.451349" y="189.010145" style="fill-opacity: 0; stroke: #1f77b4"/>
     <use xlink:href="#m8cda2fc0d2" x="169.816561" y="181.677616" style="fill-opacity: 0; stroke: #1f77b4"/>
     <use xlink:href="#m8cda2fc0d2" x="171.181267" y="162.337547" style="fill-opacity: 0; stroke: #1f77b4"/>
     <use xlink:href="#m8cda2fc0d2" x="172.544963" y="146.112316" style="fill-opacity: 0; stroke: #1f77b4"/>
     <use xlink:href="#m8cda2fc0d2" x="173.910175" y="148.376167" style="fill-opacity: 0; stroke: #1f77b4"/>
     <use xlink:href="#m8cda2fc0d2" x="175.275387" y="162.331265" style="fill-opacity: 0; stroke: #1f77b4"/>
     <use xlink:href="#m8cda2fc0d2" x="176.640599" y="161.109249" style="fill-opacity: 0; stroke: #1f77b4"/>
     <use xlink:href="#m8cda2fc0d2" x="178.005305" y="152.822256" style="fill-opacity: 0; stroke: #1f77b4"/>
     <use xlink:href="#m8cda2fc0d2" x="179.370517" y="153.320563" style="fill-opacity: 0; stroke: #1f77b4"/>
     <use xlink:href="#m8cda2fc0d2" x="180.735729" y="159.95087" style="fill-opacity: 0; stroke: #1f77b4"/>
     <use xlink:href="#m8cda2fc0d2" x="182.100941" y="168.494757" style="fill-opacity: 0; stroke: #1f77b4"/>
     <use xlink:href="#m8cda2fc0d2" x="183.466153" y="185.402991" style="fill-opacity: 0; stroke: #1f77b4"/>
     <use xlink:href="#m8cda2fc0d2" x="184.83086" y="202.509341" style="fill-opacity: 0; stroke: #1f77b4"/>
     <use xlink:href="#m8cda2fc0d2" x="186.196072" y="206.40913" style="fill-opacity: 0; stroke: #1f77b4"/>
     <use xlink:href="#m8cda2fc0d2" x="187.5628" y="200.389799" style="fill-opacity: 0; stroke: #1f77b4"/>
     <use xlink:href="#m8cda2fc0d2" x="188.928012" y="192.686003" style="fill-opacity: 0; stroke: #1f77b4"/>
     <use xlink:href="#m8cda2fc0d2" x="190.29474" y="193.580623" style="fill-opacity: 0; stroke: #1f77b4"/>
     <use xlink:href="#m8cda2fc0d2" x="191.659447" y="199.886657" style="fill-opacity: 0; stroke: #1f77b4"/>
     <use xlink:href="#m8cda2fc0d2" x="193.026175" y="204.290926" style="fill-opacity: 0; stroke: #1f77b4"/>
     <use xlink:href="#m8cda2fc0d2" x="194.391387" y="197.012799" style="fill-opacity: 0; stroke: #1f77b4"/>
     <use xlink:href="#m8cda2fc0d2" x="195.758115" y="189.708301" style="fill-opacity: 0; stroke: #1f77b4"/>
     <use xlink:href="#m8cda2fc0d2" x="197.124844" y="201.070598" style="fill-opacity: 0; stroke: #1f77b4"/>
     <use xlink:href="#m8cda2fc0d2" x="198.491572" y="209.992898" style="fill-opacity: 0; stroke: #1f77b4"/>
     <use xlink:href="#m8cda2fc0d2" x="199.856784" y="216.404326" style="fill-opacity: 0; stroke: #1f77b4"/>
     <use xlink:href="#m8cda2fc0d2" x="201.223007" y="216.404326" style="fill-opacity: 0; stroke: #1f77b4"/>
     <use xlink:href="#m8cda2fc0d2" x="202.589735" y="216.404326" style="fill-opacity: 0; stroke: #1f77b4"/>
     <use xlink:href="#m8cda2fc0d2" x="203.956463" y="216.404326" style="fill-opacity: 0; stroke: #1f77b4"/>
     <use xlink:href="#m8cda2fc0d2" x="205.323192" y="216.404326" style="fill-opacity: 0; stroke: #1f77b4"/>
     <use xlink:href="#m8cda2fc0d2" x="206.691436" y="216.404326" style="fill-opacity: 0; stroke: #1f77b4"/>
     <use xlink:href="#m8cda2fc0d2" x="208.058165" y="216.404326" style="fill-opacity: 0; stroke: #1f77b4"/>
     <use xlink:href="#m8cda2fc0d2" x="209.424893" y="216.404326" style="fill-opacity: 0; stroke: #1f77b4"/>
     <use xlink:href="#m8cda2fc0d2" x="210.791116" y="213.434706" style="fill-opacity: 0; stroke: #1f77b4"/>
     <use xlink:href="#m8cda2fc0d2" x="212.159361" y="210.314017" style="fill-opacity: 0; stroke: #1f77b4"/>
     <use xlink:href="#m8cda2fc0d2" x="213.526089" y="207.841583" style="fill-opacity: 0; stroke: #1f77b4"/>
     <use xlink:href="#m8cda2fc0d2" x="214.894333" y="204.556469" style="fill-opacity: 0; stroke: #1f77b4"/>
     <use xlink:href="#m8cda2fc0d2" x="216.261062" y="205.026628" style="fill-opacity: 0; stroke: #1f77b4"/>
     <use xlink:href="#m8cda2fc0d2" x="217.629306" y="205.799569" style="fill-opacity: 0; stroke: #1f77b4"/>
     <use xlink:href="#m8cda2fc0d2" x="218.996035" y="207.154519" style="fill-opacity: 0; stroke: #1f77b4"/>
     <use xlink:href="#m8cda2fc0d2" x="220.364279" y="206.539578" style="fill-opacity: 0; stroke: #1f77b4"/>
     <use xlink:href="#m8cda2fc0d2" x="221.732524" y="194.680874" style="fill-opacity: 0; stroke: #1f77b4"/>
     <use xlink:href="#m8cda2fc0d2" x="223.100263" y="178.174232" style="fill-opacity: 0; stroke: #1f77b4"/>
     <use xlink:href="#m8cda2fc0d2" x="224.468508" y="169.926125" style="fill-opacity: 0; stroke: #1f77b4"/>
     <use xlink:href="#m8cda2fc0d2" x="225.836753" y="175.831141" style="fill-opacity: 0; stroke: #1f77b4"/>
     <use xlink:href="#m8cda2fc0d2" x="227.204997" y="180.22547" style="fill-opacity: 0; stroke: #1f77b4"/>
     <use xlink:href="#m8cda2fc0d2" x="228.573242" y="176.617731" style="fill-opacity: 0; stroke: #1f77b4"/>
     <use xlink:href="#m8cda2fc0d2" x="229.941486" y="169.004306" style="fill-opacity: 0; stroke: #1f77b4"/>
     <use xlink:href="#m8cda2fc0d2" x="231.309731" y="177.858773" style="fill-opacity: 0; stroke: #1f77b4"/>
     <use xlink:href="#m8cda2fc0d2" x="232.677976" y="175.060484" style="fill-opacity: 0; stroke: #1f77b4"/>
     <use xlink:href="#m8cda2fc0d2" x="234.04622" y="167.628133" style="fill-opacity: 0; stroke: #1f77b4"/>
     <use xlink:href="#m8cda2fc0d2" x="235.415981" y="178.715822" style="fill-opacity: 0; stroke: #1f77b4"/>
     <use xlink:href="#m8cda2fc0d2" x="236.784226" y="203.924218" style="fill-opacity: 0; stroke: #1f77b4"/>
     <use xlink:href="#m8cda2fc0d2" x="238.153987" y="214.661036" style="fill-opacity: 0; stroke: #1f77b4"/>
     <use xlink:href="#m8cda2fc0d2" x="239.521726" y="216.404326" style="fill-opacity: 0; stroke: #1f77b4"/>
     <use xlink:href="#m8cda2fc0d2" x="240.891487" y="216.404326" style="fill-opacity: 0; stroke: #1f77b4"/>
     <use xlink:href="#m8cda2fc0d2" x="242.259732" y="216.404326" style="fill-opacity: 0; stroke: #1f77b4"/>
     <use xlink:href="#m8cda2fc0d2" x="243.629493" y="216.404326" style="fill-opacity: 0; stroke: #1f77b4"/>
     <use xlink:href="#m8cda2fc0d2" x="244.999254" y="216.404326" style="fill-opacity: 0; stroke: #1f77b4"/>
     <use xlink:href="#m8cda2fc0d2" x="246.369015" y="216.404326" style="fill-opacity: 0; stroke: #1f77b4"/>
     <use xlink:href="#m8cda2fc0d2" x="247.73726" y="216.404326" style="fill-opacity: 0; stroke: #1f77b4"/>
     <use xlink:href="#m8cda2fc0d2" x="249.10702" y="216.404326" style="fill-opacity: 0; stroke: #1f77b4"/>
     <use xlink:href="#m8cda2fc0d2" x="250.476781" y="216.404326" style="fill-opacity: 0; stroke: #1f77b4"/>
     <use xlink:href="#m8cda2fc0d2" x="251.846542" y="216.404326" style="fill-opacity: 0; stroke: #1f77b4"/>
     <use xlink:href="#m8cda2fc0d2" x="253.216303" y="216.404326" style="fill-opacity: 0; stroke: #1f77b4"/>
     <use xlink:href="#m8cda2fc0d2" x="254.587581" y="216.404326" style="fill-opacity: 0; stroke: #1f77b4"/>
     <use xlink:href="#m8cda2fc0d2" x="255.957342" y="216.404326" style="fill-opacity: 0; stroke: #1f77b4"/>
     <use xlink:href="#m8cda2fc0d2" x="257.327103" y="216.404326" style="fill-opacity: 0; stroke: #1f77b4"/>
     <use xlink:href="#m8cda2fc0d2" x="258.696864" y="216.404326" style="fill-opacity: 0; stroke: #1f77b4"/>
     <use xlink:href="#m8cda2fc0d2" x="260.068141" y="216.404326" style="fill-opacity: 0; stroke: #1f77b4"/>
     <use xlink:href="#m8cda2fc0d2" x="261.437902" y="216.404326" style="fill-opacity: 0; stroke: #1f77b4"/>
     <use xlink:href="#m8cda2fc0d2" x="262.809179" y="216.404326" style="fill-opacity: 0; stroke: #1f77b4"/>
     <use xlink:href="#m8cda2fc0d2" x="264.17894" y="216.404326" style="fill-opacity: 0; stroke: #1f77b4"/>
     <use xlink:href="#m8cda2fc0d2" x="265.550218" y="216.404326" style="fill-opacity: 0; stroke: #1f77b4"/>
     <use xlink:href="#m8cda2fc0d2" x="266.919979" y="216.404326" style="fill-opacity: 0; stroke: #1f77b4"/>
     <use xlink:href="#m8cda2fc0d2" x="268.291256" y="216.404326" style="fill-opacity: 0; stroke: #1f77b4"/>
     <use xlink:href="#m8cda2fc0d2" x="269.662533" y="216.404326" style="fill-opacity: 0; stroke: #1f77b4"/>
     <use xlink:href="#m8cda2fc0d2" x="271.033811" y="216.404326" style="fill-opacity: 0; stroke: #1f77b4"/>
     <use xlink:href="#m8cda2fc0d2" x="272.405088" y="216.404326" style="fill-opacity: 0; stroke: #1f77b4"/>
     <use xlink:href="#m8cda2fc0d2" x="273.776365" y="216.404326" style="fill-opacity: 0; stroke: #1f77b4"/>
     <use xlink:href="#m8cda2fc0d2" x="275.147643" y="216.404326" style="fill-opacity: 0; stroke: #1f77b4"/>
     <use xlink:href="#m8cda2fc0d2" x="276.51892" y="216.404326" style="fill-opacity: 0; stroke: #1f77b4"/>
     <use xlink:href="#m8cda2fc0d2" x="277.890197" y="216.404326" style="fill-opacity: 0; stroke: #1f77b4"/>
     <use xlink:href="#m8cda2fc0d2" x="279.261475" y="216.404326" style="fill-opacity: 0; stroke: #1f77b4"/>
     <use xlink:href="#m8cda2fc0d2" x="280.632752" y="216.404326" style="fill-opacity: 0; stroke: #1f77b4"/>
     <use xlink:href="#m8cda2fc0d2" x="282.005546" y="216.404326" style="fill-opacity: 0; stroke: #1f77b4"/>
     <use xlink:href="#m8cda2fc0d2" x="283.376823" y="216.404326" style="fill-opacity: 0; stroke: #1f77b4"/>
     <use xlink:href="#m8cda2fc0d2" x="284.7481" y="216.404326" style="fill-opacity: 0; stroke: #1f77b4"/>
     <use xlink:href="#m8cda2fc0d2" x="286.120894" y="216.404326" style="fill-opacity: 0; stroke: #1f77b4"/>
     <use xlink:href="#m8cda2fc0d2" x="287.492171" y="216.404326" style="fill-opacity: 0; stroke: #1f77b4"/>
     <use xlink:href="#m8cda2fc0d2" x="288.864965" y="170.951622" style="fill-opacity: 0; stroke: #1f77b4"/>
     <use xlink:href="#m8cda2fc0d2" x="290.237759" y="29.809289" style="fill-opacity: 0; stroke: #1f77b4"/>
     <use xlink:href="#m8cda2fc0d2" x="290.383932" y="-1" style="fill-opacity: 0; stroke: #1f77b4"/>
     <use xlink:href="#m8cda2fc0d2" x="299.749408" y="-1" style="fill-opacity: 0; stroke: #1f77b4"/>
     <use xlink:href="#m8cda2fc0d2" x="299.846303" y="41.549304" style="fill-opacity: 0; stroke: #1f77b4"/>
     <use xlink:href="#m8cda2fc0d2" x="301.219097" y="216.404326" style="fill-opacity: 0; stroke: #1f77b4"/>
     <use xlink:href="#m8cda2fc0d2" x="302.591891" y="216.404326" style="fill-opacity: 0; stroke: #1f77b4"/>
     <use xlink:href="#m8cda2fc0d2" x="303.964684" y="216.404326" style="fill-opacity: 0; stroke: #1f77b4"/>
     <use xlink:href="#m8cda2fc0d2" x="305.337478" y="193.964827" style="fill-opacity: 0; stroke: #1f77b4"/>
     <use xlink:href="#m8cda2fc0d2" x="306.711788" y="193.761054" style="fill-opacity: 0; stroke: #1f77b4"/>
     <use xlink:href="#m8cda2fc0d2" x="308.084582" y="211.519701" style="fill-opacity: 0; stroke: #1f77b4"/>
     <use xlink:href="#m8cda2fc0d2" x="309.458892" y="216.404326" style="fill-opacity: 0; stroke: #1f77b4"/>
     <use xlink:href="#m8cda2fc0d2" x="310.831686" y="216.404326" style="fill-opacity: 0; stroke: #1f77b4"/>
     <use xlink:href="#m8cda2fc0d2" x="312.205996" y="216.404326" style="fill-opacity: 0; stroke: #1f77b4"/>
     <use xlink:href="#m8cda2fc0d2" x="313.578789" y="216.404326" style="fill-opacity: 0; stroke: #1f77b4"/>
     <use xlink:href="#m8cda2fc0d2" x="314.953605" y="216.404326" style="fill-opacity: 0; stroke: #1f77b4"/>
     <use xlink:href="#m8cda2fc0d2" x="316.327915" y="206.36401" style="fill-opacity: 0; stroke: #1f77b4"/>
     <use xlink:href="#m8cda2fc0d2" x="317.700708" y="216.404326" style="fill-opacity: 0; stroke: #1f77b4"/>
     <use xlink:href="#m8cda2fc0d2" x="319.075018" y="216.404326" style="fill-opacity: 0; stroke: #1f77b4"/>
     <use xlink:href="#m8cda2fc0d2" x="320.449328" y="216.404326" style="fill-opacity: 0; stroke: #1f77b4"/>
    </g>
   </g>
   <g id="line2d_2">
    <path d="M 43.29563 215.508377 
L 51.435346 215.146816 
L 56.86334 214.733113 
L 60.935726 214.234914 
L 63.650481 213.737115 
L 66.366752 213.00204 
L 67.724382 212.491278 
L 69.081507 211.833203 
L 70.440654 210.958232 
L 71.798284 209.754144 
L 73.156925 208.013087 
L 74.514555 205.335943 
L 75.873197 200.848679 
L 77.232343 192.451072 
L 78.589468 175.091259 
L 79.948615 145.756602 
L 81.307761 142.619285 
L 82.666402 156.79622 
L 84.025549 150.577241 
L 85.38419 128.624071 
L 86.743337 122.653068 
L 89.462641 174.018728 
L 90.821787 188.608467 
L 92.180934 196.551935 
L 93.541092 200.949893 
L 94.900238 203.32614 
L 96.260396 204.353731 
L 97.619542 204.188706 
L 98.980205 202.469039 
L 100.338846 197.819626 
L 101.699509 186.684453 
L 103.060172 171.655032 
L 104.42033 179.764172 
L 105.780993 190.224247 
L 107.141656 191.395662 
L 108.501813 185.048327 
L 109.862476 169.260996 
L 111.222634 146.233621 
L 112.583297 145.661222 
L 113.943959 169.033871 
L 115.305633 186.121508 
L 116.666296 194.606708 
L 118.026959 198.153216 
L 119.388633 198.256803 
L 120.749296 193.679451 
L 122.111475 179.248799 
L 123.473655 177.225659 
L 124.833812 181.231317 
L 126.195991 167.175196 
L 127.558171 128.542763 
L 128.919844 98.007396 
L 130.282024 140.708212 
L 131.644203 174.448411 
L 133.005877 188.707169 
L 134.368056 194.343462 
L 135.730235 195.729452 
L 137.091909 194.036889 
L 138.455605 188.681777 
L 139.817784 176.995618 
L 141.179963 152.597441 
L 142.543154 112.003663 
L 143.905333 101.449387 
L 145.269029 135.662893 
L 146.632724 155.147895 
L 147.994398 152.036431 
L 149.358094 131.804592 
L 150.721789 128.61075 
L 152.085485 156.507545 
L 153.448675 177.475252 
L 154.810854 187.201015 
L 156.17455 190.098878 
L 157.539762 187.541042 
L 158.902952 178.813706 
L 160.266648 168.605635 
L 161.630343 173.508278 
L 162.994039 185.692899 
L 164.358746 192.872804 
L 165.722441 195.395713 
L 167.087653 194.634953 
L 168.451349 190.601164 
L 169.816561 181.900178 
L 171.181267 166.391806 
L 172.544963 148.3546 
L 173.910175 147.023207 
L 175.275387 158.479991 
L 176.640599 162.822075 
L 178.005305 157.183341 
L 179.370517 150.178649 
L 180.735729 156.20658 
L 182.100941 171.888792 
L 183.466153 185.334469 
L 184.83086 193.95208 
L 186.196072 198.957095 
L 187.5628 201.003384 
L 188.928012 196.384178 
L 190.29474 188.12759 
L 191.659447 202.855083 
L 193.026175 203.898101 
L 194.391387 198.823473 
L 195.758115 189.460911 
L 197.124844 198.759745 
L 198.491572 206.419004 
L 199.856784 209.345123 
L 201.223007 210.642825 
L 202.589735 211.304834 
L 203.956463 211.659668 
L 205.323192 211.834604 
L 208.058165 211.83154 
L 210.791116 211.434607 
L 212.159361 211.069574 
L 213.526089 210.560667 
L 214.894333 209.858958 
L 216.261062 208.885086 
L 217.629306 207.492035 
L 218.996035 205.401096 
L 220.364279 201.992273 
L 221.732524 195.774969 
L 223.100263 183.599833 
L 224.468508 169.42784 
L 225.836753 174.472368 
L 227.204997 180.167288 
L 228.573242 178.771042 
L 229.941486 174.278813 
L 231.309731 170.617159 
L 232.677976 171.057902 
L 234.04622 176.058893 
L 236.784226 190.191803 
L 238.153987 195.878566 
L 239.521726 200.212081 
L 240.891487 203.453228 
L 242.259732 205.872746 
L 243.629493 207.702494 
L 244.999254 209.104935 
L 246.369015 210.196936 
L 247.73726 211.059624 
L 249.10702 211.752706 
L 251.846542 212.780565 
L 254.587581 213.492684 
L 258.696864 214.209674 
L 262.809179 214.679846 
L 268.291256 215.092108 
L 276.51892 215.467036 
L 288.864965 215.773858 
L 309.458892 216.019243 
L 320.449328 216.092277 
L 320.449328 216.092277 
" clip-path="url(#p08533c9daf)" style="fill: none; stroke: #ff0000; stroke-width: 1.5; stroke-linecap: square"/>
   </g>
   <g id="line2d_3">
    <path d="M 295.727417 216.404326 
L 295.727417 17.735865 
" clip-path="url(#p08533c9daf)" style="fill: none; stroke-dasharray: 3.7,1.6; stroke-dashoffset: 0; stroke: #808080"/>
   </g>
   <g id="patch_3">
    <path d="M 43.003987 216.404326 
L 43.003987 17.735865 
" style="fill: none; stroke: #000000; stroke-linejoin: miter; stroke-linecap: square"/>
   </g>
   <g id="patch_4">
    <path d="M 320.99976 216.404326 
L 320.99976 17.735865 
" style="fill: none; stroke: #000000; stroke-linejoin: miter; stroke-linecap: square"/>
   </g>
   <g id="patch_5">
    <path d="M 43.003987 216.404326 
L 320.99976 216.404326 
" style="fill: none; stroke: #000000; stroke-linejoin: miter; stroke-linecap: square"/>
   </g>
   <g id="patch_6">
    <path d="M 43.003987 17.735865 
L 320.99976 17.735865 
" style="fill: none; stroke: #000000; stroke-linejoin: miter; stroke-linecap: square"/>
   </g>
   <g id="matplotlib.axis_1">
    <g id="xtick_1">
     <g id="line2d_4">
      <defs>
       <path id="m86472308a3" d="M 0 0 
L 0 3.75 
" style="stroke: #000000; stroke-width: 1.25"/>
      </defs>
      <g>
       <use xlink:href="#m86472308a3" x="43.003987" y="216.404326" style="stroke: #000000; stroke-width: 1.25"/>
      </g>
     </g>
     <g id="text_1">
      <!-- $\mathdefault{429}$ -->
      <g transform="translate(33.818987 231.52792)">
       <text>
        <tspan style="font: 11px 'Arial'" x="0 6.117676 12.235352" y="-0.09375">429</tspan>
       </text>
      </g>
     </g>
    </g>
    <g id="xtick_2">
     <g id="line2d_5">
      <g>
       <use xlink:href="#m86472308a3" x="93.548673" y="216.404326" style="stroke: #000000; stroke-width: 1.25"/>
      </g>
     </g>
     <g id="text_2">
      <!-- $\mathdefault{430}$ -->
      <g transform="translate(84.363673 231.52792)">
       <text>
        <tspan style="font: 11px 'Arial'" x="0 6.117676 12.235352" y="-0.09375">430</tspan>
       </text>
      </g>
     </g>
    </g>
    <g id="xtick_3">
     <g id="line2d_6">
      <g>
       <use xlink:href="#m86472308a3" x="144.093359" y="216.404326" style="stroke: #000000; stroke-width: 1.25"/>
      </g>
     </g>
     <g id="text_3">
      <!-- $\mathdefault{431}$ -->
      <g transform="translate(134.908359 231.52792)">
       <text>
        <tspan style="font: 11px 'Arial'" x="0 6.117676 12.235352" y="-0.09375">431</tspan>
       </text>
      </g>
     </g>
    </g>
    <g id="xtick_4">
     <g id="line2d_7">
      <g>
       <use xlink:href="#m86472308a3" x="194.638045" y="216.404326" style="stroke: #000000; stroke-width: 1.25"/>
      </g>
     </g>
     <g id="text_4">
      <!-- $\mathdefault{432}$ -->
      <g transform="translate(185.453045 231.52792)">
       <text>
        <tspan style="font: 11px 'Arial'" x="0 6.117676 12.235352" y="-0.09375">432</tspan>
       </text>
      </g>
     </g>
    </g>
    <g id="xtick_5">
     <g id="line2d_8">
      <g>
       <use xlink:href="#m86472308a3" x="245.182731" y="216.404326" style="stroke: #000000; stroke-width: 1.25"/>
      </g>
     </g>
     <g id="text_5">
      <!-- $\mathdefault{433}$ -->
      <g transform="translate(235.997731 231.52792)">
       <text>
        <tspan style="font: 11px 'Arial'" x="0 6.117676 12.235352" y="-0.09375">433</tspan>
       </text>
      </g>
     </g>
    </g>
    <g id="xtick_6">
     <g id="line2d_9">
      <g>
       <use xlink:href="#m86472308a3" x="295.727417" y="216.404326" style="stroke: #000000; stroke-width: 1.25"/>
      </g>
     </g>
     <g id="text_6">
      <!-- $\mathdefault{434}$ -->
      <g transform="translate(286.542417 231.52792)">
       <text>
        <tspan style="font: 11px 'Arial'" x="0 6.117676 12.235352" y="-0.09375">434</tspan>
       </text>
      </g>
     </g>
    </g>
    <g id="text_7">
     <!-- $\lambda$ {\sffamily (nm)} -->
     <g transform="translate(164.206736 246.411565) scale(0.12 -0.12)">
      <defs>
       <path id="StandardSymL-6c" d="M 480 3650 
C 525 4013 710 4224 998 4224 
C 1203 4224 1376 4064 1472 3778 
C 1517 3650 1574 3440 1632 3198 
L 154 19 
L 755 19 
L 1843 2301 
C 2048 1059 2150 607 2266 358 
C 2406 83 2611 -64 2848 -64 
C 3098 -64 3296 89 3405 371 
C 3475 543 3501 715 3507 1014 
L 3373 1014 
C 3322 683 3174 499 2944 499 
C 2752 499 2586 620 2483 843 
C 2400 1008 2355 1174 2266 1645 
L 2093 2466 
C 2086 2485 2080 2530 2067 2594 
C 1920 3415 1690 4192 1536 4422 
C 1395 4627 1203 4736 992 4736 
C 602 4736 397 4403 326 3650 
L 480 3650 
z
" transform="scale(0.015625)"/>
       <path id="NimbusSanL-Regu-28" d="M 1510 4672 
C 870 3833 467 2668 467 1663 
C 467 652 870 -513 1510 -1351 
L 1862 -1351 
C 1299 -436 986 639 986 1663 
C 986 2681 1299 3763 1862 4672 
L 1510 4672 
z
" transform="scale(0.015625)"/>
       <path id="NimbusSanL-Regu-6e" d="M 448 3328 
L 448 0 
L 986 0 
L 986 1835 
C 986 2539 1344 2988 1894 2988 
C 2317 2988 2586 2732 2586 2328 
L 2586 0 
L 3117 0 
L 3117 2539 
C 3117 3097 2701 3456 2054 3456 
C 1555 3456 1235 3263 941 2796 
L 941 3328 
L 448 3328 
z
" transform="scale(0.015625)"/>
       <path id="NimbusSanL-Regu-6d" d="M 448 3328 
L 448 0 
L 986 0 
L 986 2089 
C 986 2597 1338 2988 1773 2988 
C 2170 2988 2394 2744 2394 2315 
L 2394 0 
L 2931 0 
L 2931 2109 
C 2931 2597 3283 2988 3718 2988 
C 4109 2988 4339 2738 4339 2315 
L 4339 0 
L 4877 0 
L 4877 2520 
C 4877 3123 4531 3456 3904 3456 
C 3456 3456 3187 3321 2874 2943 
C 2675 3302 2406 3456 1971 3456 
C 1523 3456 1229 3289 941 2886 
L 941 3328 
L 448 3328 
z
" transform="scale(0.015625)"/>
       <path id="NimbusSanL-Regu-29" d="M 595 -1351 
C 1235 -513 1638 652 1638 1657 
C 1638 2668 1235 3833 595 4672 
L 243 4672 
C 806 3756 1120 2681 1120 1657 
C 1120 639 806 -442 243 -1351 
L 595 -1351 
z
" transform="scale(0.015625)"/>
      </defs>
      <use xlink:href="#StandardSymL-6c" transform="scale(0.996264)"/>
      <use xlink:href="#NimbusSanL-Regu-28" transform="translate(91.855235 0) scale(0.996264)"/>
      <use xlink:href="#NimbusSanL-Regu-6e" transform="translate(125.030464 0) scale(0.996264)"/>
      <use xlink:href="#NimbusSanL-Regu-6d" transform="translate(180.422141 0) scale(0.996264)"/>
      <use xlink:href="#NimbusSanL-Regu-29" transform="translate(263.410572 0) scale(0.996264)"/>
     </g>
    </g>
   </g>
   <g id="matplotlib.axis_2">
    <g id="ytick_1">
     <g id="line2d_10">
      <defs>
       <path id="meff334bb92" d="M 0 0 
L -3.75 0 
" style="stroke: #000000; stroke-width: 1.25"/>
      </defs>
      <g>
       <use xlink:href="#meff334bb92" x="43.003987" y="216.404326" style="stroke: #000000; stroke-width: 1.25"/>
      </g>
     </g>
     <g id="text_8">
      <!-- $\mathdefault{0.0}$ -->
      <g transform="translate(20.353987 220.341123)">
       <text>
        <tspan style="font: 11px 'Arial'" x="0 6.117676 9.173828" y="-0.09375">0.0</tspan>
       </text>
      </g>
     </g>
    </g>
    <g id="ytick_2">
     <g id="line2d_11">
      <g>
       <use xlink:href="#meff334bb92" x="43.003987" y="182.00946" style="stroke: #000000; stroke-width: 1.25"/>
      </g>
     </g>
     <g id="text_9">
      <!-- $\mathdefault{0.5}$ -->
      <g transform="translate(20.353987 185.946256)">
       <text>
        <tspan style="font: 11px 'Arial'" x="0 6.117676 9.173828" y="-0.09375">0.5</tspan>
       </text>
      </g>
     </g>
    </g>
    <g id="ytick_3">
     <g id="line2d_12">
      <g>
       <use xlink:href="#meff334bb92" x="43.003987" y="147.614593" style="stroke: #000000; stroke-width: 1.25"/>
      </g>
     </g>
     <g id="text_10">
      <!-- $\mathdefault{1.0}$ -->
      <g transform="translate(20.353987 151.55139)">
       <text>
        <tspan style="font: 11px 'Arial'" x="0 6.117676 9.173828" y="-0.09375">1.0</tspan>
       </text>
      </g>
     </g>
    </g>
    <g id="ytick_4">
     <g id="line2d_13">
      <g>
       <use xlink:href="#meff334bb92" x="43.003987" y="113.219727" style="stroke: #000000; stroke-width: 1.25"/>
      </g>
     </g>
     <g id="text_11">
      <!-- $\mathdefault{1.5}$ -->
      <g transform="translate(20.353987 117.156524)">
       <text>
        <tspan style="font: 11px 'Arial'" x="0 6.117676 9.173828" y="-0.09375">1.5</tspan>
       </text>
      </g>
     </g>
    </g>
    <g id="ytick_5">
     <g id="line2d_14">
      <g>
       <use xlink:href="#meff334bb92" x="43.003987" y="78.824861" style="stroke: #000000; stroke-width: 1.25"/>
      </g>
     </g>
     <g id="text_12">
      <!-- $\mathdefault{2.0}$ -->
      <g transform="translate(20.353987 82.761657)">
       <text>
        <tspan style="font: 11px 'Arial'" x="0 6.117676 9.173828" y="-0.09375">2.0</tspan>
       </text>
      </g>
     </g>
    </g>
    <g id="ytick_6">
     <g id="line2d_15">
      <g>
       <use xlink:href="#meff334bb92" x="43.003987" y="44.429994" style="stroke: #000000; stroke-width: 1.25"/>
      </g>
     </g>
     <g id="text_13">
      <!-- $\mathdefault{2.5}$ -->
      <g transform="translate(20.353987 48.366791)">
       <text>
        <tspan style="font: 11px 'Arial'" x="0 6.117676 9.173828" y="-0.09375">2.5</tspan>
       </text>
      </g>
     </g>
    </g>
    <g id="text_14">
     <!-- $B_{\lambda}$ {\sffamily (photons/cm\textsuperscript{2}/s/nm)} -->
     <g transform="translate(13.728305 177.714049) rotate(-90) scale(0.12 -0.12)">
      <defs>
       <path id="NimbusRomNo9L-ReguItal-42" d="M -51 0 
L 1754 0 
C 2758 0 3450 523 3450 1274 
C 3450 1510 3373 1732 3232 1872 
C 3104 2019 2976 2095 2643 2235 
C 3098 2344 3283 2420 3488 2598 
C 3667 2751 3763 2968 3763 3222 
C 3763 3827 3309 4160 2483 4160 
L 832 4160 
L 832 4057 
C 1229 4025 1325 3974 1325 3795 
C 1325 3700 1299 3541 1254 3388 
L 467 574 
C 352 204 307 166 -51 102 
L -51 0 
z
M 1523 2108 
C 1939 2108 2208 2083 2336 2032 
C 2598 1923 2758 1643 2758 1299 
C 2758 612 2285 192 1504 192 
C 1235 192 1094 287 1094 459 
C 1094 535 1171 841 1318 1350 
C 1402 1637 1440 1783 1523 2108 
z
M 2003 3789 
C 2042 3929 2118 3967 2368 3967 
C 2880 3967 3117 3751 3117 3280 
C 3117 2917 2963 2637 2688 2484 
C 2470 2356 2163 2312 1587 2312 
L 2003 3789 
z
" transform="scale(0.015625)"/>
       <path id="NimbusSanL-Regu-70" d="M 346 -1408 
L 883 -1408 
L 883 371 
C 1165 25 1478 -128 1914 -128 
C 2778 -128 3347 568 3347 1632 
C 3347 2752 2797 3456 1907 3456 
C 1453 3456 1088 3251 838 2854 
L 838 3359 
L 346 3359 
L 346 -1408 
z
M 1818 2956 
C 2406 2956 2790 2440 2790 1644 
C 2790 887 2400 371 1818 371 
C 1254 371 883 880 883 1663 
C 883 2447 1254 2956 1818 2956 
z
" transform="scale(0.015625)"/>
       <path id="NimbusSanL-Regu-68" d="M 448 4672 
L 448 0 
L 979 0 
L 979 1853 
C 979 2539 1338 2988 1888 2988 
C 2061 2988 2234 2930 2362 2834 
C 2515 2725 2579 2565 2579 2328 
L 2579 0 
L 3110 0 
L 3110 2539 
C 3110 3103 2707 3456 2054 3456 
C 1581 3456 1293 3308 979 2898 
L 979 4672 
L 448 4672 
z
" transform="scale(0.015625)"/>
       <path id="NimbusSanL-Regu-6f" d="M 1741 3456 
C 800 3456 230 2784 230 1663 
C 230 543 794 -128 1747 -128 
C 2688 -128 3264 543 3264 1638 
C 3264 2791 2707 3456 1741 3456 
z
M 1747 2963 
C 2349 2963 2707 2472 2707 1644 
C 2707 861 2336 364 1747 364 
C 1152 364 787 855 787 1663 
C 787 2466 1152 2963 1747 2963 
z
" transform="scale(0.015625)"/>
       <path id="NimbusSanL-Regu-74" d="M 1626 3328 
L 1075 3328 
L 1075 4249 
L 544 4249 
L 544 3328 
L 90 3328 
L 90 2892 
L 544 2892 
L 544 402 
C 544 64 774 -128 1190 -128 
C 1318 -128 1446 -116 1626 -84 
L 1626 364 
C 1555 345 1472 339 1370 339 
C 1139 339 1075 402 1075 634 
L 1075 2892 
L 1626 2892 
L 1626 3328 
z
" transform="scale(0.015625)"/>
       <path id="NimbusSanL-Regu-73" d="M 2803 2428 
C 2797 3084 2362 3456 1587 3456 
C 806 3456 301 3052 301 2434 
C 301 1912 570 1663 1363 1472 
L 1862 1351 
C 2234 1262 2381 1129 2381 887 
C 2381 574 2067 364 1600 364 
C 1312 364 1069 447 934 587 
C 851 683 813 778 781 1014 
L 218 1014 
C 243 243 678 -128 1555 -128 
C 2400 -128 2938 288 2938 931 
C 2938 1428 2656 1702 1990 1861 
L 1478 1982 
C 1043 2084 858 2224 858 2459 
C 858 2765 1133 2963 1568 2963 
C 1997 2963 2227 2778 2240 2428 
L 2803 2428 
z
" transform="scale(0.015625)"/>
       <path id="NimbusSanL-Regu-2f" d="M 1466 4672 
L -51 -128 
L 301 -128 
L 1818 4672 
L 1466 4672 
z
" transform="scale(0.015625)"/>
       <path id="NimbusSanL-Regu-63" d="M 3014 2237 
C 2989 2561 2918 2771 2790 2956 
C 2560 3270 2157 3456 1690 3456 
C 787 3456 198 2740 198 1632 
C 198 555 774 -128 1683 -128 
C 2483 -128 2989 352 3053 1167 
L 2515 1167 
C 2426 632 2150 364 1696 364 
C 1107 364 755 842 755 1632 
C 755 2466 1101 2963 1683 2963 
C 2131 2963 2413 2701 2477 2237 
L 3014 2237 
z
" transform="scale(0.015625)"/>
       <path id="NimbusSanL-Regu-32" d="M 3238 556 
L 851 556 
C 909 928 1114 1165 1670 1493 
L 2310 1839 
C 2944 2185 3270 2653 3270 3211 
C 3270 3589 3117 3942 2848 4185 
C 2579 4428 2246 4544 1818 4544 
C 1242 4544 813 4339 563 3955 
C 403 3711 333 3429 320 2967 
L 883 2967 
C 902 3275 941 3461 1018 3608 
C 1165 3884 1459 4051 1798 4051 
C 2310 4051 2694 3685 2694 3198 
C 2694 2839 2483 2531 2080 2300 
L 1491 1967 
C 544 1428 269 999 218 0 
L 3238 0 
L 3238 556 
z
" transform="scale(0.015625)"/>
      </defs>
      <use xlink:href="#NimbusRomNo9L-ReguItal-42" transform="scale(0.996264)"/>
      <use xlink:href="#StandardSymL-6c" transform="translate(60.871631 -20.616338) scale(0.737241)"/>
      <use xlink:href="#NimbusSanL-Regu-28" transform="translate(135.818713 0) scale(0.996264)"/>
      <use xlink:href="#NimbusSanL-Regu-70" transform="translate(168.993943 0) scale(0.996264)"/>
      <use xlink:href="#NimbusSanL-Regu-68" transform="translate(224.38562 0) scale(0.996264)"/>
      <use xlink:href="#NimbusSanL-Regu-6f" transform="translate(279.777297 0) scale(0.996264)"/>
      <use xlink:href="#NimbusSanL-Regu-74" transform="translate(335.168974 0) scale(0.996264)"/>
      <use xlink:href="#NimbusSanL-Regu-6f" transform="translate(362.864143 0) scale(0.996264)"/>
      <use xlink:href="#NimbusSanL-Regu-6e" transform="translate(418.25582 0) scale(0.996264)"/>
      <use xlink:href="#NimbusSanL-Regu-73" transform="translate(473.647497 0) scale(0.996264)"/>
      <use xlink:href="#NimbusSanL-Regu-2f" transform="translate(523.460698 0) scale(0.996264)"/>
      <use xlink:href="#NimbusSanL-Regu-63" transform="translate(551.155868 0) scale(0.996264)"/>
      <use xlink:href="#NimbusSanL-Regu-6d" transform="translate(600.969068 0) scale(0.996264)"/>
      <use xlink:href="#NimbusSanL-Regu-32" transform="translate(683.957498 36.163231) scale(0.737241)"/>
      <use xlink:href="#NimbusSanL-Regu-2f" transform="translate(725.445777 0) scale(0.996264)"/>
      <use xlink:href="#NimbusSanL-Regu-73" transform="translate(753.140947 0) scale(0.996264)"/>
      <use xlink:href="#NimbusSanL-Regu-2f" transform="translate(802.954147 0) scale(0.996264)"/>
      <use xlink:href="#NimbusSanL-Regu-6e" transform="translate(830.649317 0) scale(0.996264)"/>
      <use xlink:href="#NimbusSanL-Regu-6d" transform="translate(886.040994 0) scale(0.996264)"/>
      <use xlink:href="#NimbusSanL-Regu-29" transform="translate(969.029424 0) scale(0.996264)"/>
     </g>
    </g>
    <g id="text_15">
     <!-- $\times\mathdefault{10^{12}}\mathdefault{}$ -->
     <g transform="translate(43.003987 14.735865)">
      <text>
       <tspan style="font: 11px 'STIXGeneral'" x="0" y="-0.799312500000001"></tspan>
       <tspan style="font: 11px 'Arial'" x="7.039993 13.157669" y="-0.799312500000001">10</tspan>
       <tspan style="font: 7.7px 'Arial'" x="19.467003 23.749376" y="-8.465625">12</tspan>
      </text>
     </g>
    </g>
   </g>
   <g id="patch_7">
    <path d="M 217.800817 47.652918 
L 217.800817 67.40298 
L 294.609383 67.40298 
" style="fill: none; stroke: #000000; stroke-linecap: round"/>
    <path d="M 290.609383 65.40298 
L 294.609383 67.40298 
L 290.609383 69.40298 
" style="fill: none; stroke: #000000; stroke-linecap: round"/>
   </g>
   <g id="text_16">
    <g id="patch_8">
     <path d="M 184.100817 50.702711 
L 251.500817 50.702711 
Q 254.500817 50.702711 254.500817 47.702711 
L 254.500817 37.602711 
Q 254.500817 34.602711 251.500817 34.602711 
L 184.100817 34.602711 
Q 181.100817 34.602711 181.100817 37.602711 
L 181.100817 47.702711 
Q 181.100817 50.702711 184.100817 50.702711 
z
" style="fill: #f5deb3; stroke: #000000; stroke-linejoin: miter"/>
    </g>
    <!-- D$_{\gamma}$ (434.00) nm -->
    <g transform="translate(184.100817 44.902711)">
     <text>
      <tspan style="font: 10px 'Arial'" x="0 10.686517 13.464837 16.794915 22.356439 27.917962 33.479486 36.257806 41.81933 47.380853 50.710931 53.489251 59.050775" y="-0.71875">D(434.00)nm</tspan>
      <tspan style="font: italic 7px 'STIXGeneral'" x="7.375898" y="0.6031250000000004"></tspan>
     </text>
    </g>
   </g>
   <g id="text_17">
    <text style="font: 10px 'Arial'; text-anchor: middle" x="218.324273" y="108.325686" transform="rotate(-0 218.324273 108.325686)">Q-branch</text>
   </g>
   <g id="text_18">
    <text style="font: 10px 'Arial'; text-anchor: middle" x="130.499522" y="34.440215" transform="rotate(-0 130.499522 34.440215)">B-D + C-D</text>
   </g>
   <g id="text_19">
    <text style="font: 700 12px 'Arial'; text-anchor: middle" x="182.001874" y="11.735865" transform="rotate(-0 182.001874 11.735865)">HP boron rod (redeposit test) - 45 min</text>
   </g>
  </g>
 </g>
 <defs>
  <clipPath id="p08533c9daf">
   <rect x="43.003987" y="17.735865" width="277.995773" height="198.668461"/>
  </clipPath>
 </defs>
</svg>
