<?xml version="1.0" encoding="utf-8" standalone="no"?>
<!DOCTYPE svg PUBLIC "-//W3C//DTD SVG 1.1//EN"
  "http://www.w3.org/Graphics/SVG/1.1/DTD/svg11.dtd">
<svg xmlns:xlink="http://www.w3.org/1999/xlink" width="324pt" height="252pt" viewBox="0 0 324 252" xmlns="http://www.w3.org/2000/svg" version="1.1">
 <metadata>
  <rdf:RDF xmlns:dc="http://purl.org/dc/elements/1.1/" xmlns:cc="http://creativecommons.org/ns#" xmlns:rdf="http://www.w3.org/1999/02/22-rdf-syntax-ns#">
   <cc:Work>
    <dc:type rdf:resource="http://purl.org/dc/dcmitype/StillImage"/>
    <dc:date>2024-12-06T11:06:14.391944</dc:date>
    <dc:format>image/svg+xml</dc:format>
    <dc:creator>
     <cc:Agent>
      <dc:title>Matplotlib v3.9.2, https://matplotlib.org/</dc:title>
     </cc:Agent>
    </dc:creator>
   </cc:Work>
  </rdf:RDF>
 </metadata>
 <defs>
  <style type="text/css">*{stroke-linejoin: round; stroke-linecap: butt}</style>
 </defs>
 <g id="figure_1">
  <g id="patch_1">
   <path d="M 0 252 
L 324 252 
L 324 0 
L 0 0 
z
" style="fill: #ffffff"/>
  </g>
  <g id="axes_1">
   <g id="patch_2">
    <path d="M 43.003987 216.404326 
L 320.99976 216.404326 
L 320.99976 17.735865 
L 43.003987 17.735865 
z
" style="fill: #ffffff"/>
   </g>
   <g id="PolyCollection_1">
    <path d="M 43.312815 216.364347 
L 43.312815 216.404326 
L 44.668424 216.404326 
L 46.024538 216.404326 
L 47.381663 216.404326 
L 48.737776 216.404326 
L 50.094901 216.404326 
L 51.451015 216.404326 
L 52.80814 216.404326 
L 54.16577 216.404326 
L 55.521379 216.404326 
L 56.879009 216.404326 
L 58.236134 216.404326 
L 59.593764 216.404326 
L 60.951394 216.404326 
L 62.308519 216.404326 
L 63.666149 216.404326 
L 65.023274 216.404326 
L 66.380905 216.404326 
L 67.739546 216.404326 
L 69.097176 216.404326 
L 70.454301 216.404326 
L 71.813447 216.404326 
L 73.171078 216.404326 
L 74.529719 216.404326 
L 75.887349 216.404326 
L 77.24599 216.404326 
L 78.605137 216.404326 
L 79.962262 216.404326 
L 81.321408 216.404326 
L 82.680555 216.404326 
L 84.039196 216.404326 
L 85.398343 216.404326 
L 86.756984 216.404326 
L 88.11613 216.404326 
L 89.475277 216.404326 
L 90.835435 216.404326 
L 92.194581 216.404326 
L 93.553728 216.404326 
L 94.913885 216.404326 
L 96.273032 216.404326 
L 97.633189 216.404326 
L 98.992336 216.404326 
L 100.352999 216.404326 
L 101.71164 216.404326 
L 103.072303 216.404326 
L 104.432966 216.404326 
L 105.793123 216.404326 
L 107.153786 216.404326 
L 108.514449 216.404326 
L 109.874607 216.404326 
L 111.23527 216.404326 
L 112.595427 216.404326 
L 113.95609 216.404326 
L 115.316753 216.404326 
L 116.678427 216.404326 
L 118.03909 216.404326 
L 119.399753 216.404326 
L 120.761427 216.404326 
L 122.12209 216.404326 
L 123.484269 216.404326 
L 124.846448 216.404326 
L 126.206606 216.404326 
L 127.568785 216.404326 
L 128.930964 216.404326 
L 130.292638 216.404326 
L 131.654817 216.404326 
L 133.016997 216.404326 
L 134.378671 216.404326 
L 135.74085 216.404326 
L 137.103029 216.404326 
L 138.464703 216.404326 
L 139.828399 216.404326 
L 141.190578 216.404326 
L 142.552757 216.404326 
L 143.915947 216.404326 
L 145.278127 216.404326 
L 146.641822 216.404326 
L 148.005518 216.404326 
L 149.367192 216.404326 
L 150.730887 216.404326 
L 152.094583 216.404326 
L 153.458279 216.404326 
L 154.821469 216.404326 
L 156.183648 216.404326 
L 157.547344 216.404326 
L 158.912556 216.404326 
L 160.275746 216.404326 
L 161.639441 216.404326 
L 163.003137 216.404326 
L 164.366833 216.404326 
L 165.731539 216.404326 
L 167.095235 216.404326 
L 168.460447 216.404326 
L 169.824142 216.404326 
L 171.189354 216.404326 
L 172.554061 216.404326 
L 173.917757 216.404326 
L 175.282969 216.404326 
L 176.648181 216.404326 
L 178.013392 216.404326 
L 179.378099 216.404326 
L 180.743311 216.404326 
L 182.108523 216.404326 
L 183.473735 216.404326 
L 184.838947 216.404326 
L 186.203653 216.404326 
L 187.568865 216.404326 
L 188.935594 216.404326 
L 190.300806 216.404326 
L 191.667534 216.404326 
L 193.03224 216.404326 
L 194.398969 216.404326 
L 195.764181 216.404326 
L 197.130909 216.404326 
L 198.497637 216.404326 
L 199.864366 216.404326 
L 201.229578 216.404326 
L 202.5958 216.404326 
L 203.962529 216.404326 
L 205.329257 216.404326 
L 206.695985 216.404326 
L 208.06423 216.404326 
L 209.430958 216.404326 
L 210.797687 216.404326 
L 212.16391 216.404326 
L 213.532154 216.404326 
L 214.898882 216.404326 
L 216.267127 216.404326 
L 217.633855 216.404326 
L 219.0021 216.404326 
L 220.368828 216.404326 
L 221.737073 216.404326 
L 223.105318 216.404326 
L 224.473057 216.404326 
L 225.841302 216.404326 
L 227.209546 216.404326 
L 228.577791 216.404326 
L 229.946036 216.404326 
L 231.31428 216.404326 
L 232.682525 216.404326 
L 234.050769 216.404326 
L 235.419014 216.404326 
L 236.788775 216.404326 
L 238.15702 216.404326 
L 239.526781 216.404326 
L 240.89452 216.404326 
L 242.264281 216.404326 
L 243.632526 216.404326 
L 245.002287 216.404326 
L 246.372048 216.404326 
L 247.741809 216.404326 
L 249.110053 216.404326 
L 250.479814 216.404326 
L 251.849575 216.404326 
L 253.219336 216.404326 
L 254.589097 216.404326 
L 255.960374 216.404326 
L 257.330135 216.404326 
L 258.699896 216.404326 
L 260.069657 216.404326 
L 261.440935 216.404326 
L 262.810696 216.404326 
L 264.181973 216.404326 
L 265.551734 216.404326 
L 266.923011 216.404326 
L 268.292772 216.404326 
L 269.66405 216.404326 
L 271.035327 216.404326 
L 272.406604 216.404326 
L 273.777882 216.404326 
L 275.149159 216.404326 
L 276.520436 216.404326 
L 277.891714 216.404326 
L 279.262991 216.404326 
L 280.634268 216.404326 
L 282.005546 216.404326 
L 283.378339 216.404326 
L 284.749617 216.404326 
L 286.120894 216.404326 
L 287.493688 216.404326 
L 288.864965 216.404326 
L 290.237759 216.404326 
L 291.610552 216.404326 
L 292.98183 216.404326 
L 294.354623 216.404326 
L 295.727417 216.404326 
L 297.100211 216.404326 
L 298.473004 216.404326 
L 299.846303 216.404326 
L 301.219097 216.404326 
L 302.591891 216.404326 
L 303.964684 216.404326 
L 305.337478 216.404326 
L 306.710272 216.404326 
L 308.084582 216.404326 
L 309.457376 216.404326 
L 310.831686 216.404326 
L 312.204479 216.404326 
L 313.578789 216.404326 
L 314.951583 216.404326 
L 316.326398 216.404326 
L 317.700708 216.404326 
L 319.073502 216.404326 
L 320.447812 216.404326 
L 320.447812 216.225669 
L 320.447812 216.225669 
L 319.073502 216.220024 
L 317.700708 216.214113 
L 316.326398 216.207906 
L 314.951583 216.201389 
L 313.578789 216.194552 
L 312.204479 216.187355 
L 310.831686 216.179791 
L 309.457376 216.171815 
L 308.084582 216.163416 
L 306.710272 216.154544 
L 305.337478 216.145184 
L 303.964684 216.135288 
L 302.591891 216.124814 
L 301.219097 216.113717 
L 299.846303 216.101947 
L 298.473004 216.089442 
L 297.100211 216.076151 
L 295.727417 216.062001 
L 294.354623 216.046917 
L 292.98183 216.030814 
L 291.610552 216.013619 
L 290.237759 215.995189 
L 288.864965 215.975425 
L 287.493688 215.95422 
L 286.120894 215.931379 
L 284.749617 215.906784 
L 283.378339 215.880224 
L 282.005546 215.851449 
L 280.634268 215.820278 
L 279.262991 215.7864 
L 277.891714 215.749493 
L 276.520436 215.709186 
L 275.149159 215.66505 
L 273.777882 215.616586 
L 272.406604 215.563209 
L 271.035327 215.504238 
L 269.66405 215.438864 
L 268.292772 215.366131 
L 266.923011 215.284993 
L 265.551734 215.193901 
L 264.181973 215.091406 
L 262.810696 214.97527 
L 261.440935 214.843287 
L 260.069657 214.692117 
L 258.699896 214.518297 
L 257.330135 214.316898 
L 255.960374 214.081849 
L 254.589097 213.805016 
L 253.219336 213.476849 
L 251.849575 213.083694 
L 250.479814 212.607695 
L 249.110053 212.024674 
L 247.741809 211.302296 
L 246.372048 210.392673 
L 245.002287 209.231025 
L 243.632526 207.723765 
L 242.264281 205.739226 
L 240.89452 203.083266 
L 239.526781 199.508388 
L 238.15702 194.709509 
L 236.788775 188.516085 
L 235.419014 181.286968 
L 234.050769 174.668489 
L 232.682525 171.375728 
L 231.31428 172.726354 
L 229.946036 176.640624 
L 228.577791 179.549429 
L 227.209546 178.77541 
L 225.841302 174.992247 
L 224.473057 176.871752 
L 223.105318 186.946005 
L 221.737073 196.16022 
L 220.368828 202.049412 
L 219.0021 205.69901 
L 217.633855 208.076534 
L 216.267127 209.708875 
L 214.898882 210.885882 
L 213.532154 211.765049 
L 212.16391 212.443212 
L 210.797687 212.977734 
L 209.430958 213.408301 
L 208.06423 213.760744 
L 206.695985 214.053583 
L 205.329257 214.299282 
L 203.962529 214.507837 
L 202.5958 214.686486 
L 201.229578 214.840708 
L 199.864366 214.97477 
L 198.497637 215.092281 
L 197.130909 215.195771 
L 195.764181 215.287404 
L 194.398969 215.368851 
L 193.03224 215.441735 
L 191.667534 215.507058 
L 190.300806 215.566006 
L 188.935594 215.619252 
L 187.568865 215.667616 
L 186.203653 215.711584 
L 184.838947 215.751705 
L 183.473735 215.788443 
L 182.108523 215.822156 
L 180.743311 215.853169 
L 179.378099 215.881764 
L 178.013392 215.908176 
L 176.648181 215.93264 
L 175.282969 215.955336 
L 173.917757 215.97643 
L 172.554061 215.996049 
L 171.189354 216.01436 
L 169.824142 216.031471 
L 168.460447 216.047461 
L 167.095235 216.06246 
L 165.731539 216.076516 
L 164.366833 216.089732 
L 163.003137 216.102154 
L 161.639441 216.113855 
L 160.275746 216.124888 
L 158.912556 216.135301 
L 157.547344 216.145156 
L 156.183648 216.154468 
L 154.821469 216.163278 
L 153.458279 216.171636 
L 152.094583 216.179569 
L 150.730887 216.187103 
L 149.367192 216.194264 
L 148.005518 216.201067 
L 146.641822 216.207554 
L 145.278127 216.213735 
L 143.915947 216.219623 
L 142.552757 216.225246 
L 141.190578 216.230612 
L 139.828399 216.235741 
L 138.464703 216.24065 
L 137.103029 216.245342 
L 135.74085 216.249837 
L 134.378671 216.254143 
L 133.016997 216.25827 
L 131.654817 216.262231 
L 130.292638 216.266033 
L 128.930964 216.269683 
L 127.568785 216.273191 
L 126.206606 216.276565 
L 124.846448 216.279804 
L 123.484269 216.282927 
L 122.12209 216.285934 
L 120.761427 216.288827 
L 119.399753 216.291617 
L 118.03909 216.294306 
L 116.678427 216.296899 
L 115.316753 216.299404 
L 113.95609 216.30182 
L 112.595427 216.304154 
L 111.23527 216.306408 
L 109.874607 216.308588 
L 108.514449 216.310695 
L 107.153786 216.312734 
L 105.793123 216.314706 
L 104.432966 216.316616 
L 103.072303 216.318465 
L 101.71164 216.320257 
L 100.352999 216.32199 
L 98.992336 216.323673 
L 97.633189 216.325303 
L 96.273032 216.326886 
L 94.913885 216.32842 
L 93.553728 216.32991 
L 92.194581 216.331355 
L 90.835435 216.332759 
L 89.475277 216.334124 
L 88.11613 216.335449 
L 86.756984 216.336737 
L 85.398343 216.337988 
L 84.039196 216.339206 
L 82.680555 216.34039 
L 81.321408 216.341542 
L 79.962262 216.342664 
L 78.605137 216.343754 
L 77.24599 216.344817 
L 75.887349 216.345852 
L 74.529719 216.346859 
L 73.171078 216.347842 
L 71.813447 216.348798 
L 70.454301 216.349732 
L 69.097176 216.350641 
L 67.739546 216.351528 
L 66.380905 216.352393 
L 65.023274 216.353237 
L 63.666149 216.35406 
L 62.308519 216.354864 
L 60.951394 216.355648 
L 59.593764 216.356414 
L 58.236134 216.357162 
L 56.879009 216.357893 
L 55.521379 216.358606 
L 54.16577 216.359303 
L 52.80814 216.359985 
L 51.451015 216.360651 
L 50.094901 216.361301 
L 48.737776 216.361938 
L 47.381663 216.36256 
L 46.024538 216.363169 
L 44.668424 216.363765 
L 43.312815 216.364347 
z
" clip-path="url(#p65fa55f7df)" style="fill: #1f77b4; fill-opacity: 0.25"/>
   </g>
   <g id="PolyCollection_2">
    <path d="M 43.312815 215.506195 
L 43.312815 216.404326 
L 44.668424 216.404326 
L 46.024538 216.404326 
L 47.381663 216.404326 
L 48.737776 216.404326 
L 50.094901 216.404326 
L 51.451015 216.404326 
L 52.80814 216.404326 
L 54.16577 216.404326 
L 55.521379 216.404326 
L 56.879009 216.404326 
L 58.236134 216.404326 
L 59.593764 216.404326 
L 60.951394 216.404326 
L 62.308519 216.404326 
L 63.666149 216.404326 
L 65.023274 216.404326 
L 66.380905 216.404326 
L 67.739546 216.404326 
L 69.097176 216.404326 
L 70.454301 216.404326 
L 71.813447 216.404326 
L 73.171078 216.404326 
L 74.529719 216.404326 
L 75.887349 216.404326 
L 77.24599 216.404326 
L 78.605137 216.404326 
L 79.962262 216.404326 
L 81.321408 216.404326 
L 82.680555 216.404326 
L 84.039196 216.404326 
L 85.398343 216.404326 
L 86.756984 216.404326 
L 88.11613 216.404326 
L 89.475277 216.404326 
L 90.835435 216.404326 
L 92.194581 216.404326 
L 93.553728 216.404326 
L 94.913885 216.404326 
L 96.273032 216.404326 
L 97.633189 216.404326 
L 98.992336 216.404326 
L 100.352999 216.404326 
L 101.71164 216.404326 
L 103.072303 216.404326 
L 104.432966 216.404326 
L 105.793123 216.404326 
L 107.153786 216.404326 
L 108.514449 216.404326 
L 109.874607 216.404326 
L 111.23527 216.404326 
L 112.595427 216.404326 
L 113.95609 216.404326 
L 115.316753 216.404326 
L 116.678427 216.404326 
L 118.03909 216.404326 
L 119.399753 216.404326 
L 120.761427 216.404326 
L 122.12209 216.404326 
L 123.484269 216.404326 
L 124.846448 216.404326 
L 126.206606 216.404326 
L 127.568785 216.404326 
L 128.930964 216.404326 
L 130.292638 216.404326 
L 131.654817 216.404326 
L 133.016997 216.404326 
L 134.378671 216.404326 
L 135.74085 216.404326 
L 137.103029 216.404326 
L 138.464703 216.404326 
L 139.828399 216.404326 
L 141.190578 216.404326 
L 142.552757 216.404326 
L 143.915947 216.404326 
L 145.278127 216.404326 
L 146.641822 216.404326 
L 148.005518 216.404326 
L 149.367192 216.404326 
L 150.730887 216.404326 
L 152.094583 216.404326 
L 153.458279 216.404326 
L 154.821469 216.404326 
L 156.183648 216.404326 
L 157.547344 216.404326 
L 158.912556 216.404326 
L 160.275746 216.404326 
L 161.639441 216.404326 
L 163.003137 216.404326 
L 164.366833 216.404326 
L 165.731539 216.404326 
L 167.095235 216.404326 
L 168.460447 216.404326 
L 169.824142 216.404326 
L 171.189354 216.404326 
L 172.554061 216.404326 
L 173.917757 216.404326 
L 175.282969 216.404326 
L 176.648181 216.404326 
L 178.013392 216.404326 
L 179.378099 216.404326 
L 180.743311 216.404326 
L 182.108523 216.404326 
L 183.473735 216.404326 
L 184.838947 216.404326 
L 186.203653 216.404326 
L 187.568865 216.404326 
L 188.935594 216.404326 
L 190.300806 216.404326 
L 191.667534 216.404326 
L 193.03224 216.404326 
L 194.398969 216.404326 
L 195.764181 216.404326 
L 197.130909 216.404326 
L 198.497637 216.404326 
L 199.864366 216.404326 
L 201.229578 216.404326 
L 202.5958 216.404326 
L 203.962529 216.404326 
L 205.329257 216.404326 
L 206.695985 216.404326 
L 208.06423 216.404326 
L 209.430958 216.404326 
L 210.797687 216.404326 
L 212.16391 216.404326 
L 213.532154 216.404326 
L 214.898882 216.404326 
L 216.267127 216.404326 
L 217.633855 216.404326 
L 219.0021 216.404326 
L 220.368828 216.404326 
L 221.737073 216.404326 
L 223.105318 216.404326 
L 224.473057 216.404326 
L 225.841302 216.404326 
L 227.209546 216.404326 
L 228.577791 216.404326 
L 229.946036 216.404326 
L 231.31428 216.404326 
L 232.682525 216.404326 
L 234.050769 216.404326 
L 235.419014 216.404326 
L 236.788775 216.404326 
L 238.15702 216.404326 
L 239.526781 216.404326 
L 240.89452 216.404326 
L 242.264281 216.404326 
L 243.632526 216.404326 
L 245.002287 216.404326 
L 246.372048 216.404326 
L 247.741809 216.404326 
L 249.110053 216.404326 
L 250.479814 216.404326 
L 251.849575 216.404326 
L 253.219336 216.404326 
L 254.589097 216.404326 
L 255.960374 216.404326 
L 257.330135 216.404326 
L 258.699896 216.404326 
L 260.069657 216.404326 
L 261.440935 216.404326 
L 262.810696 216.404326 
L 264.181973 216.404326 
L 265.551734 216.404326 
L 266.923011 216.404326 
L 268.292772 216.404326 
L 269.66405 216.404326 
L 271.035327 216.404326 
L 272.406604 216.404326 
L 273.777882 216.404326 
L 275.149159 216.404326 
L 276.520436 216.404326 
L 277.891714 216.404326 
L 279.262991 216.404326 
L 280.634268 216.404326 
L 282.005546 216.404326 
L 283.378339 216.404326 
L 284.749617 216.404326 
L 286.120894 216.404326 
L 287.493688 216.404326 
L 288.864965 216.404326 
L 290.237759 216.404326 
L 291.610552 216.404326 
L 292.98183 216.404326 
L 294.354623 216.404326 
L 295.727417 216.404326 
L 297.100211 216.404326 
L 298.473004 216.404326 
L 299.846303 216.404326 
L 301.219097 216.404326 
L 302.591891 216.404326 
L 303.964684 216.404326 
L 305.337478 216.404326 
L 306.710272 216.404326 
L 308.084582 216.404326 
L 309.457376 216.404326 
L 310.831686 216.404326 
L 312.204479 216.404326 
L 313.578789 216.404326 
L 314.951583 216.404326 
L 316.326398 216.404326 
L 317.700708 216.404326 
L 319.073502 216.404326 
L 320.447812 216.404326 
L 320.447812 216.252554 
L 320.447812 216.252554 
L 319.073502 216.250063 
L 317.700708 216.247512 
L 316.326398 216.244891 
L 314.951583 216.242202 
L 313.578789 216.239446 
L 312.204479 216.236613 
L 310.831686 216.233708 
L 309.457376 216.230721 
L 308.084582 216.227656 
L 306.710272 216.224502 
L 305.337478 216.221264 
L 303.964684 216.217935 
L 302.591891 216.214511 
L 301.219097 216.210988 
L 299.846303 216.207362 
L 298.473004 216.203629 
L 297.100211 216.199785 
L 295.727417 216.195826 
L 294.354623 216.191746 
L 292.98183 216.187541 
L 291.610552 216.183209 
L 290.237759 216.178735 
L 288.864965 216.174119 
L 287.493688 216.169358 
L 286.120894 216.164436 
L 284.749617 216.159357 
L 283.378339 216.154107 
L 282.005546 216.148672 
L 280.634268 216.143056 
L 279.262991 216.137243 
L 277.891714 216.131225 
L 276.520436 216.12499 
L 275.149159 216.118528 
L 273.777882 216.111827 
L 272.406604 216.104874 
L 271.035327 216.097656 
L 269.66405 216.090159 
L 268.292772 216.082366 
L 266.923011 216.074272 
L 265.551734 216.06584 
L 264.181973 216.05707 
L 262.810696 216.047921 
L 261.440935 216.038392 
L 260.069657 216.028438 
L 258.699896 216.018054 
L 257.330135 216.007202 
L 255.960374 215.995852 
L 254.589097 215.983956 
L 253.219336 215.971505 
L 251.849575 215.958447 
L 250.479814 215.944738 
L 249.110053 215.93033 
L 247.741809 215.915189 
L 246.372048 215.899224 
L 245.002287 215.882388 
L 243.632526 215.86461 
L 242.264281 215.845834 
L 240.89452 215.82593 
L 239.526781 215.804855 
L 238.15702 215.782436 
L 236.788775 215.758607 
L 235.419014 215.733178 
L 234.050769 215.706046 
L 232.682525 215.677003 
L 231.31428 215.645844 
L 229.946036 215.612329 
L 228.577791 215.576182 
L 227.209546 215.53708 
L 225.841302 215.49464 
L 224.473057 215.44841 
L 223.105318 215.397866 
L 221.737073 215.342314 
L 220.368828 215.280966 
L 219.0021 215.2129 
L 217.633855 215.136707 
L 216.267127 215.050945 
L 214.898882 214.953316 
L 213.532154 214.841224 
L 212.16391 214.710559 
L 210.797687 214.556217 
L 209.430958 214.369962 
L 208.06423 214.139616 
L 206.695985 213.845088 
L 205.329257 213.453114 
L 203.962529 212.900484 
L 202.5958 212.058529 
L 201.229578 210.631721 
L 199.864366 207.845566 
L 198.497637 201.567542 
L 197.130909 190.611884 
L 195.764181 193.297592 
L 194.398969 201.290087 
L 193.03224 202.879034 
L 191.667534 199.506573 
L 190.300806 194.665087 
L 188.935594 197.908693 
L 187.568865 201.279989 
L 186.203653 201.047295 
L 184.838947 197.763195 
L 183.473735 190.457092 
L 182.108523 176.336291 
L 180.743311 156.293536 
L 179.378099 152.383657 
L 178.013392 165.496925 
L 176.648181 170.952247 
L 175.282969 165.220694 
L 173.917757 153.238954 
L 172.554061 150.037924 
L 171.189354 163.152763 
L 169.824142 178.375423 
L 168.460447 188.262487 
L 167.095235 193.488871 
L 165.731539 195.414239 
L 164.366833 194.461639 
L 163.003137 189.856965 
L 161.639441 179.739981 
L 160.275746 166.89956 
L 158.912556 168.640086 
L 157.547344 180.421349 
L 156.183648 186.917599 
L 154.821469 187.030682 
L 153.458279 180.353079 
L 152.094583 161.680589 
L 150.730887 133.721812 
L 149.367192 141.837924 
L 148.005518 148.06717 
L 146.641822 136.38317 
L 145.278127 119.723478 
L 143.915947 118.785592 
L 142.552757 137.743116 
L 141.190578 159.174114 
L 139.828399 174.24324 
L 138.464703 183.24553 
L 137.103029 187.906092 
L 135.74085 189.24178 
L 134.378671 187.238583 
L 133.016997 180.544295 
L 131.654817 165.468391 
L 130.292638 136.26223 
L 128.930964 105.621985 
L 127.568785 121.576204 
L 126.206606 156.51508 
L 124.846448 177.652785 
L 123.484269 188.196302 
L 122.12209 193.170673 
L 120.761427 194.932549 
L 119.399753 194.303818 
L 118.03909 191.216196 
L 116.678427 184.887066 
L 115.316753 174.06545 
L 113.95609 159.199463 
L 112.595427 148.586056 
L 111.23527 153.897915 
L 109.874607 168.536414 
L 108.514449 180.556061 
L 107.153786 186.888321 
L 105.793123 187.782645 
L 104.432966 185.743921 
L 103.072303 189.240088 
L 101.71164 196.510292 
L 100.352999 201.320332 
L 98.992336 203.799304 
L 97.633189 204.870466 
L 96.273032 204.97407 
L 94.913885 204.188687 
L 93.553728 202.304701 
L 92.194581 198.727411 
L 90.835435 192.115524 
L 89.475277 179.649157 
L 88.11613 157.404129 
L 86.756984 133.40631 
L 85.398343 138.844634 
L 84.039196 156.621263 
L 82.680555 157.579887 
L 81.321408 144.324324 
L 79.962262 157.864352 
L 78.605137 182.768212 
L 77.24599 196.185705 
L 75.887349 202.882561 
L 74.529719 206.586174 
L 73.171078 208.852392 
L 71.813447 210.348064 
L 70.454301 211.396594 
L 69.097176 212.163569 
L 67.739546 212.746035 
L 66.380905 213.201292 
L 65.023274 213.565015 
L 63.666149 213.861489 
L 62.308519 214.10736 
L 60.951394 214.314019 
L 59.593764 214.489993 
L 58.236134 214.64139 
L 56.879009 214.772831 
L 55.521379 214.887988 
L 54.16577 214.989451 
L 52.80814 215.079716 
L 51.451015 215.160347 
L 50.094901 215.232744 
L 48.737776 215.298166 
L 47.381663 215.357465 
L 46.024538 215.411518 
L 44.668424 215.460901 
L 43.312815 215.506195 
z
" clip-path="url(#p65fa55f7df)" style="fill: #ff7f0e; fill-opacity: 0.25"/>
   </g>
   <g id="line2d_1">
    <path d="M 43.312815 200.365073 
L 44.668424 206.262164 
L 46.024538 205.136636 
L 47.381663 204.494984 
L 48.737776 208.493476 
L 50.094901 213.745121 
L 51.451015 211.274933 
L 52.80814 204.408552 
L 54.16577 193.412666 
L 55.521379 184.835168 
L 56.879009 182.428499 
L 58.236134 183.486764 
L 59.593764 195.484071 
L 60.951394 211.196376 
L 62.308519 216.404326 
L 63.666149 216.404326 
L 65.023274 213.096662 
L 66.380905 211.749538 
L 67.739546 208.717418 
L 69.097176 196.935377 
L 70.454301 189.879385 
L 71.813447 197.203049 
L 73.171078 216.404326 
L 75.887349 216.404326 
L 77.24599 205.073652 
L 79.962262 154.897217 
L 81.321408 147.030508 
L 82.680555 156.061387 
L 84.039196 151.79915 
L 86.756984 133.029111 
L 88.11613 155.008485 
L 89.475277 181.73641 
L 93.553728 212.163374 
L 94.913885 216.404326 
L 96.273032 209.728392 
L 97.633189 201.124296 
L 98.992336 199.496985 
L 100.352999 204.639053 
L 101.71164 196.121546 
L 103.072303 188.410656 
L 104.432966 186.394728 
L 105.793123 187.132729 
L 107.153786 186.599784 
L 108.514449 180.556015 
L 109.874607 168.222646 
L 111.23527 153.819453 
L 112.595427 148.503293 
L 115.316753 171.336244 
L 116.678427 184.281416 
L 118.03909 199.392806 
L 119.399753 205.927884 
L 120.761427 194.634779 
L 122.12209 175.639452 
L 123.484269 168.133525 
L 124.846448 169.991221 
L 126.206606 158.963995 
L 127.568785 126.870678 
L 128.930964 105.890211 
L 130.292638 124.327943 
L 131.654817 169.873801 
L 133.016997 204.601987 
L 134.378671 216.404326 
L 135.74085 213.386104 
L 137.103029 203.652352 
L 138.464703 190.456622 
L 139.828399 174.111816 
L 142.552757 126.795223 
L 143.915947 127.722077 
L 145.278127 122.991387 
L 146.641822 129.839122 
L 148.005518 143.530385 
L 149.367192 143.235382 
L 150.730887 134.824735 
L 152.094583 155.158333 
L 153.458279 188.107654 
L 154.821469 195.750594 
L 156.183648 188.435233 
L 157.547344 175.229393 
L 158.912556 167.460621 
L 160.275746 169.397937 
L 161.639441 177.495031 
L 163.003137 189.618653 
L 164.366833 194.284881 
L 165.731539 193.619049 
L 167.095235 189.422814 
L 168.460447 183.982717 
L 169.824142 177.299863 
L 171.189354 166.735428 
L 172.554061 150.201962 
L 173.917757 147.824933 
L 175.282969 167.42533 
L 176.648181 176.567982 
L 178.013392 162.284007 
L 179.378099 150.470424 
L 180.743311 157.977071 
L 182.108523 176.05808 
L 184.838947 195.62299 
L 186.203653 202.882483 
L 187.568865 202.089647 
L 188.935594 195.542406 
L 190.300806 194.646024 
L 191.667534 197.931839 
L 193.03224 202.166276 
L 194.398969 200.452635 
L 195.764181 191.778045 
L 197.130909 189.900794 
L 199.864366 208.388346 
L 201.229578 211.37959 
L 202.5958 211.898142 
L 203.962529 215.387718 
L 205.329257 215.232275 
L 206.695985 216.404326 
L 209.430958 216.404326 
L 210.797687 214.050749 
L 212.16391 210.855151 
L 213.532154 208.23985 
L 214.898882 206.394275 
L 216.267127 205.259858 
L 217.633855 206.058759 
L 219.0021 205.16613 
L 220.368828 202.360427 
L 221.737073 196.858979 
L 223.105318 184.924015 
L 224.473057 175.452212 
L 225.841302 174.456575 
L 227.209546 178.280577 
L 228.577791 179.415913 
L 229.946036 173.433538 
L 231.31428 169.08358 
L 232.682525 176.690159 
L 234.050769 176.787025 
L 235.419014 174.48754 
L 236.788775 179.689507 
L 238.15702 197.693651 
L 239.526781 209.345373 
L 240.89452 216.404326 
L 249.110053 216.404326 
L 250.479814 213.329335 
L 251.849575 216.404326 
L 287.493688 216.404326 
L 288.864965 200.098365 
L 290.237759 82.983147 
L 290.662721 -1 
M 300.350006 -1 
L 301.219097 197.3197 
L 302.591891 216.404326 
L 305.337478 216.404326 
L 306.710272 203.636373 
L 308.084582 207.606703 
L 309.457376 212.853371 
L 310.831686 216.404326 
L 316.326398 216.404326 
L 317.700708 198.743871 
L 319.073502 216.404326 
L 320.447812 216.404326 
L 320.447812 216.404326 
" clip-path="url(#p65fa55f7df)" style="fill: none; stroke: #1f77b4; stroke-width: 1.5; stroke-linecap: square"/>
    <defs>
     <path id="m04818e4c88" d="M 0 1.5 
C 0.397805 1.5 0.77937 1.341951 1.06066 1.06066 
C 1.341951 0.77937 1.5 0.397805 1.5 0 
C 1.5 -0.397805 1.341951 -0.77937 1.06066 -1.06066 
C 0.77937 -1.341951 0.397805 -1.5 0 -1.5 
C -0.397805 -1.5 -0.77937 -1.341951 -1.06066 -1.06066 
C -1.341951 -0.77937 -1.5 -0.397805 -1.5 0 
C -1.5 0.397805 -1.341951 0.77937 -1.06066 1.06066 
C -0.77937 1.341951 -0.397805 1.5 0 1.5 
z
" style="stroke: #1f77b4"/>
    </defs>
    <g clip-path="url(#p65fa55f7df)">
     <use xlink:href="#m04818e4c88" x="43.312815" y="200.365073" style="fill-opacity: 0; stroke: #1f77b4"/>
     <use xlink:href="#m04818e4c88" x="44.668424" y="206.262164" style="fill-opacity: 0; stroke: #1f77b4"/>
     <use xlink:href="#m04818e4c88" x="46.024538" y="205.136636" style="fill-opacity: 0; stroke: #1f77b4"/>
     <use xlink:href="#m04818e4c88" x="47.381663" y="204.494984" style="fill-opacity: 0; stroke: #1f77b4"/>
     <use xlink:href="#m04818e4c88" x="48.737776" y="208.493476" style="fill-opacity: 0; stroke: #1f77b4"/>
     <use xlink:href="#m04818e4c88" x="50.094901" y="213.745121" style="fill-opacity: 0; stroke: #1f77b4"/>
     <use xlink:href="#m04818e4c88" x="51.451015" y="211.274933" style="fill-opacity: 0; stroke: #1f77b4"/>
     <use xlink:href="#m04818e4c88" x="52.80814" y="204.408552" style="fill-opacity: 0; stroke: #1f77b4"/>
     <use xlink:href="#m04818e4c88" x="54.16577" y="193.412666" style="fill-opacity: 0; stroke: #1f77b4"/>
     <use xlink:href="#m04818e4c88" x="55.521379" y="184.835168" style="fill-opacity: 0; stroke: #1f77b4"/>
     <use xlink:href="#m04818e4c88" x="56.879009" y="182.428499" style="fill-opacity: 0; stroke: #1f77b4"/>
     <use xlink:href="#m04818e4c88" x="58.236134" y="183.486764" style="fill-opacity: 0; stroke: #1f77b4"/>
     <use xlink:href="#m04818e4c88" x="59.593764" y="195.484071" style="fill-opacity: 0; stroke: #1f77b4"/>
     <use xlink:href="#m04818e4c88" x="60.951394" y="211.196376" style="fill-opacity: 0; stroke: #1f77b4"/>
     <use xlink:href="#m04818e4c88" x="62.308519" y="216.404326" style="fill-opacity: 0; stroke: #1f77b4"/>
     <use xlink:href="#m04818e4c88" x="63.666149" y="216.404326" style="fill-opacity: 0; stroke: #1f77b4"/>
     <use xlink:href="#m04818e4c88" x="65.023274" y="213.096662" style="fill-opacity: 0; stroke: #1f77b4"/>
     <use xlink:href="#m04818e4c88" x="66.380905" y="211.749538" style="fill-opacity: 0; stroke: #1f77b4"/>
     <use xlink:href="#m04818e4c88" x="67.739546" y="208.717418" style="fill-opacity: 0; stroke: #1f77b4"/>
     <use xlink:href="#m04818e4c88" x="69.097176" y="196.935377" style="fill-opacity: 0; stroke: #1f77b4"/>
     <use xlink:href="#m04818e4c88" x="70.454301" y="189.879385" style="fill-opacity: 0; stroke: #1f77b4"/>
     <use xlink:href="#m04818e4c88" x="71.813447" y="197.203049" style="fill-opacity: 0; stroke: #1f77b4"/>
     <use xlink:href="#m04818e4c88" x="73.171078" y="216.404326" style="fill-opacity: 0; stroke: #1f77b4"/>
     <use xlink:href="#m04818e4c88" x="74.529719" y="216.404326" style="fill-opacity: 0; stroke: #1f77b4"/>
     <use xlink:href="#m04818e4c88" x="75.887349" y="216.404326" style="fill-opacity: 0; stroke: #1f77b4"/>
     <use xlink:href="#m04818e4c88" x="77.24599" y="205.073652" style="fill-opacity: 0; stroke: #1f77b4"/>
     <use xlink:href="#m04818e4c88" x="78.605137" y="180.386655" style="fill-opacity: 0; stroke: #1f77b4"/>
     <use xlink:href="#m04818e4c88" x="79.962262" y="154.897217" style="fill-opacity: 0; stroke: #1f77b4"/>
     <use xlink:href="#m04818e4c88" x="81.321408" y="147.030508" style="fill-opacity: 0; stroke: #1f77b4"/>
     <use xlink:href="#m04818e4c88" x="82.680555" y="156.061387" style="fill-opacity: 0; stroke: #1f77b4"/>
     <use xlink:href="#m04818e4c88" x="84.039196" y="151.79915" style="fill-opacity: 0; stroke: #1f77b4"/>
     <use xlink:href="#m04818e4c88" x="85.398343" y="142.097375" style="fill-opacity: 0; stroke: #1f77b4"/>
     <use xlink:href="#m04818e4c88" x="86.756984" y="133.029111" style="fill-opacity: 0; stroke: #1f77b4"/>
     <use xlink:href="#m04818e4c88" x="88.11613" y="155.008485" style="fill-opacity: 0; stroke: #1f77b4"/>
     <use xlink:href="#m04818e4c88" x="89.475277" y="181.73641" style="fill-opacity: 0; stroke: #1f77b4"/>
     <use xlink:href="#m04818e4c88" x="90.835435" y="192.102309" style="fill-opacity: 0; stroke: #1f77b4"/>
     <use xlink:href="#m04818e4c88" x="92.194581" y="203.266546" style="fill-opacity: 0; stroke: #1f77b4"/>
     <use xlink:href="#m04818e4c88" x="93.553728" y="212.163374" style="fill-opacity: 0; stroke: #1f77b4"/>
     <use xlink:href="#m04818e4c88" x="94.913885" y="216.404326" style="fill-opacity: 0; stroke: #1f77b4"/>
     <use xlink:href="#m04818e4c88" x="96.273032" y="209.728392" style="fill-opacity: 0; stroke: #1f77b4"/>
     <use xlink:href="#m04818e4c88" x="97.633189" y="201.124296" style="fill-opacity: 0; stroke: #1f77b4"/>
     <use xlink:href="#m04818e4c88" x="98.992336" y="199.496985" style="fill-opacity: 0; stroke: #1f77b4"/>
     <use xlink:href="#m04818e4c88" x="100.352999" y="204.639053" style="fill-opacity: 0; stroke: #1f77b4"/>
     <use xlink:href="#m04818e4c88" x="101.71164" y="196.121546" style="fill-opacity: 0; stroke: #1f77b4"/>
     <use xlink:href="#m04818e4c88" x="103.072303" y="188.410656" style="fill-opacity: 0; stroke: #1f77b4"/>
     <use xlink:href="#m04818e4c88" x="104.432966" y="186.394728" style="fill-opacity: 0; stroke: #1f77b4"/>
     <use xlink:href="#m04818e4c88" x="105.793123" y="187.132729" style="fill-opacity: 0; stroke: #1f77b4"/>
     <use xlink:href="#m04818e4c88" x="107.153786" y="186.599784" style="fill-opacity: 0; stroke: #1f77b4"/>
     <use xlink:href="#m04818e4c88" x="108.514449" y="180.556015" style="fill-opacity: 0; stroke: #1f77b4"/>
     <use xlink:href="#m04818e4c88" x="109.874607" y="168.222646" style="fill-opacity: 0; stroke: #1f77b4"/>
     <use xlink:href="#m04818e4c88" x="111.23527" y="153.819453" style="fill-opacity: 0; stroke: #1f77b4"/>
     <use xlink:href="#m04818e4c88" x="112.595427" y="148.503293" style="fill-opacity: 0; stroke: #1f77b4"/>
     <use xlink:href="#m04818e4c88" x="113.95609" y="159.641571" style="fill-opacity: 0; stroke: #1f77b4"/>
     <use xlink:href="#m04818e4c88" x="115.316753" y="171.336244" style="fill-opacity: 0; stroke: #1f77b4"/>
     <use xlink:href="#m04818e4c88" x="116.678427" y="184.281416" style="fill-opacity: 0; stroke: #1f77b4"/>
     <use xlink:href="#m04818e4c88" x="118.03909" y="199.392806" style="fill-opacity: 0; stroke: #1f77b4"/>
     <use xlink:href="#m04818e4c88" x="119.399753" y="205.927884" style="fill-opacity: 0; stroke: #1f77b4"/>
     <use xlink:href="#m04818e4c88" x="120.761427" y="194.634779" style="fill-opacity: 0; stroke: #1f77b4"/>
     <use xlink:href="#m04818e4c88" x="122.12209" y="175.639452" style="fill-opacity: 0; stroke: #1f77b4"/>
     <use xlink:href="#m04818e4c88" x="123.484269" y="168.133525" style="fill-opacity: 0; stroke: #1f77b4"/>
     <use xlink:href="#m04818e4c88" x="124.846448" y="169.991221" style="fill-opacity: 0; stroke: #1f77b4"/>
     <use xlink:href="#m04818e4c88" x="126.206606" y="158.963995" style="fill-opacity: 0; stroke: #1f77b4"/>
     <use xlink:href="#m04818e4c88" x="127.568785" y="126.870678" style="fill-opacity: 0; stroke: #1f77b4"/>
     <use xlink:href="#m04818e4c88" x="128.930964" y="105.890211" style="fill-opacity: 0; stroke: #1f77b4"/>
     <use xlink:href="#m04818e4c88" x="130.292638" y="124.327943" style="fill-opacity: 0; stroke: #1f77b4"/>
     <use xlink:href="#m04818e4c88" x="131.654817" y="169.873801" style="fill-opacity: 0; stroke: #1f77b4"/>
     <use xlink:href="#m04818e4c88" x="133.016997" y="204.601987" style="fill-opacity: 0; stroke: #1f77b4"/>
     <use xlink:href="#m04818e4c88" x="134.378671" y="216.404326" style="fill-opacity: 0; stroke: #1f77b4"/>
     <use xlink:href="#m04818e4c88" x="135.74085" y="213.386104" style="fill-opacity: 0; stroke: #1f77b4"/>
     <use xlink:href="#m04818e4c88" x="137.103029" y="203.652352" style="fill-opacity: 0; stroke: #1f77b4"/>
     <use xlink:href="#m04818e4c88" x="138.464703" y="190.456622" style="fill-opacity: 0; stroke: #1f77b4"/>
     <use xlink:href="#m04818e4c88" x="139.828399" y="174.111816" style="fill-opacity: 0; stroke: #1f77b4"/>
     <use xlink:href="#m04818e4c88" x="141.190578" y="150.16335" style="fill-opacity: 0; stroke: #1f77b4"/>
     <use xlink:href="#m04818e4c88" x="142.552757" y="126.795223" style="fill-opacity: 0; stroke: #1f77b4"/>
     <use xlink:href="#m04818e4c88" x="143.915947" y="127.722077" style="fill-opacity: 0; stroke: #1f77b4"/>
     <use xlink:href="#m04818e4c88" x="145.278127" y="122.991387" style="fill-opacity: 0; stroke: #1f77b4"/>
     <use xlink:href="#m04818e4c88" x="146.641822" y="129.839122" style="fill-opacity: 0; stroke: #1f77b4"/>
     <use xlink:href="#m04818e4c88" x="148.005518" y="143.530385" style="fill-opacity: 0; stroke: #1f77b4"/>
     <use xlink:href="#m04818e4c88" x="149.367192" y="143.235382" style="fill-opacity: 0; stroke: #1f77b4"/>
     <use xlink:href="#m04818e4c88" x="150.730887" y="134.824735" style="fill-opacity: 0; stroke: #1f77b4"/>
     <use xlink:href="#m04818e4c88" x="152.094583" y="155.158333" style="fill-opacity: 0; stroke: #1f77b4"/>
     <use xlink:href="#m04818e4c88" x="153.458279" y="188.107654" style="fill-opacity: 0; stroke: #1f77b4"/>
     <use xlink:href="#m04818e4c88" x="154.821469" y="195.750594" style="fill-opacity: 0; stroke: #1f77b4"/>
     <use xlink:href="#m04818e4c88" x="156.183648" y="188.435233" style="fill-opacity: 0; stroke: #1f77b4"/>
     <use xlink:href="#m04818e4c88" x="157.547344" y="175.229393" style="fill-opacity: 0; stroke: #1f77b4"/>
     <use xlink:href="#m04818e4c88" x="158.912556" y="167.460621" style="fill-opacity: 0; stroke: #1f77b4"/>
     <use xlink:href="#m04818e4c88" x="160.275746" y="169.397937" style="fill-opacity: 0; stroke: #1f77b4"/>
     <use xlink:href="#m04818e4c88" x="161.639441" y="177.495031" style="fill-opacity: 0; stroke: #1f77b4"/>
     <use xlink:href="#m04818e4c88" x="163.003137" y="189.618653" style="fill-opacity: 0; stroke: #1f77b4"/>
     <use xlink:href="#m04818e4c88" x="164.366833" y="194.284881" style="fill-opacity: 0; stroke: #1f77b4"/>
     <use xlink:href="#m04818e4c88" x="165.731539" y="193.619049" style="fill-opacity: 0; stroke: #1f77b4"/>
     <use xlink:href="#m04818e4c88" x="167.095235" y="189.422814" style="fill-opacity: 0; stroke: #1f77b4"/>
     <use xlink:href="#m04818e4c88" x="168.460447" y="183.982717" style="fill-opacity: 0; stroke: #1f77b4"/>
     <use xlink:href="#m04818e4c88" x="169.824142" y="177.299863" style="fill-opacity: 0; stroke: #1f77b4"/>
     <use xlink:href="#m04818e4c88" x="171.189354" y="166.735428" style="fill-opacity: 0; stroke: #1f77b4"/>
     <use xlink:href="#m04818e4c88" x="172.554061" y="150.201962" style="fill-opacity: 0; stroke: #1f77b4"/>
     <use xlink:href="#m04818e4c88" x="173.917757" y="147.824933" style="fill-opacity: 0; stroke: #1f77b4"/>
     <use xlink:href="#m04818e4c88" x="175.282969" y="167.42533" style="fill-opacity: 0; stroke: #1f77b4"/>
     <use xlink:href="#m04818e4c88" x="176.648181" y="176.567982" style="fill-opacity: 0; stroke: #1f77b4"/>
     <use xlink:href="#m04818e4c88" x="178.013392" y="162.284007" style="fill-opacity: 0; stroke: #1f77b4"/>
     <use xlink:href="#m04818e4c88" x="179.378099" y="150.470424" style="fill-opacity: 0; stroke: #1f77b4"/>
     <use xlink:href="#m04818e4c88" x="180.743311" y="157.977071" style="fill-opacity: 0; stroke: #1f77b4"/>
     <use xlink:href="#m04818e4c88" x="182.108523" y="176.05808" style="fill-opacity: 0; stroke: #1f77b4"/>
     <use xlink:href="#m04818e4c88" x="183.473735" y="186.209347" style="fill-opacity: 0; stroke: #1f77b4"/>
     <use xlink:href="#m04818e4c88" x="184.838947" y="195.62299" style="fill-opacity: 0; stroke: #1f77b4"/>
     <use xlink:href="#m04818e4c88" x="186.203653" y="202.882483" style="fill-opacity: 0; stroke: #1f77b4"/>
     <use xlink:href="#m04818e4c88" x="187.568865" y="202.089647" style="fill-opacity: 0; stroke: #1f77b4"/>
     <use xlink:href="#m04818e4c88" x="188.935594" y="195.542406" style="fill-opacity: 0; stroke: #1f77b4"/>
     <use xlink:href="#m04818e4c88" x="190.300806" y="194.646024" style="fill-opacity: 0; stroke: #1f77b4"/>
     <use xlink:href="#m04818e4c88" x="191.667534" y="197.931839" style="fill-opacity: 0; stroke: #1f77b4"/>
     <use xlink:href="#m04818e4c88" x="193.03224" y="202.166276" style="fill-opacity: 0; stroke: #1f77b4"/>
     <use xlink:href="#m04818e4c88" x="194.398969" y="200.452635" style="fill-opacity: 0; stroke: #1f77b4"/>
     <use xlink:href="#m04818e4c88" x="195.764181" y="191.778045" style="fill-opacity: 0; stroke: #1f77b4"/>
     <use xlink:href="#m04818e4c88" x="197.130909" y="189.900794" style="fill-opacity: 0; stroke: #1f77b4"/>
     <use xlink:href="#m04818e4c88" x="198.497637" y="199.039592" style="fill-opacity: 0; stroke: #1f77b4"/>
     <use xlink:href="#m04818e4c88" x="199.864366" y="208.388346" style="fill-opacity: 0; stroke: #1f77b4"/>
     <use xlink:href="#m04818e4c88" x="201.229578" y="211.37959" style="fill-opacity: 0; stroke: #1f77b4"/>
     <use xlink:href="#m04818e4c88" x="202.5958" y="211.898142" style="fill-opacity: 0; stroke: #1f77b4"/>
     <use xlink:href="#m04818e4c88" x="203.962529" y="215.387718" style="fill-opacity: 0; stroke: #1f77b4"/>
     <use xlink:href="#m04818e4c88" x="205.329257" y="215.232275" style="fill-opacity: 0; stroke: #1f77b4"/>
     <use xlink:href="#m04818e4c88" x="206.695985" y="216.404326" style="fill-opacity: 0; stroke: #1f77b4"/>
     <use xlink:href="#m04818e4c88" x="208.06423" y="216.404326" style="fill-opacity: 0; stroke: #1f77b4"/>
     <use xlink:href="#m04818e4c88" x="209.430958" y="216.404326" style="fill-opacity: 0; stroke: #1f77b4"/>
     <use xlink:href="#m04818e4c88" x="210.797687" y="214.050749" style="fill-opacity: 0; stroke: #1f77b4"/>
     <use xlink:href="#m04818e4c88" x="212.16391" y="210.855151" style="fill-opacity: 0; stroke: #1f77b4"/>
     <use xlink:href="#m04818e4c88" x="213.532154" y="208.23985" style="fill-opacity: 0; stroke: #1f77b4"/>
     <use xlink:href="#m04818e4c88" x="214.898882" y="206.394275" style="fill-opacity: 0; stroke: #1f77b4"/>
     <use xlink:href="#m04818e4c88" x="216.267127" y="205.259858" style="fill-opacity: 0; stroke: #1f77b4"/>
     <use xlink:href="#m04818e4c88" x="217.633855" y="206.058759" style="fill-opacity: 0; stroke: #1f77b4"/>
     <use xlink:href="#m04818e4c88" x="219.0021" y="205.16613" style="fill-opacity: 0; stroke: #1f77b4"/>
     <use xlink:href="#m04818e4c88" x="220.368828" y="202.360427" style="fill-opacity: 0; stroke: #1f77b4"/>
     <use xlink:href="#m04818e4c88" x="221.737073" y="196.858979" style="fill-opacity: 0; stroke: #1f77b4"/>
     <use xlink:href="#m04818e4c88" x="223.105318" y="184.924015" style="fill-opacity: 0; stroke: #1f77b4"/>
     <use xlink:href="#m04818e4c88" x="224.473057" y="175.452212" style="fill-opacity: 0; stroke: #1f77b4"/>
     <use xlink:href="#m04818e4c88" x="225.841302" y="174.456575" style="fill-opacity: 0; stroke: #1f77b4"/>
     <use xlink:href="#m04818e4c88" x="227.209546" y="178.280577" style="fill-opacity: 0; stroke: #1f77b4"/>
     <use xlink:href="#m04818e4c88" x="228.577791" y="179.415913" style="fill-opacity: 0; stroke: #1f77b4"/>
     <use xlink:href="#m04818e4c88" x="229.946036" y="173.433538" style="fill-opacity: 0; stroke: #1f77b4"/>
     <use xlink:href="#m04818e4c88" x="231.31428" y="169.08358" style="fill-opacity: 0; stroke: #1f77b4"/>
     <use xlink:href="#m04818e4c88" x="232.682525" y="176.690159" style="fill-opacity: 0; stroke: #1f77b4"/>
     <use xlink:href="#m04818e4c88" x="234.050769" y="176.787025" style="fill-opacity: 0; stroke: #1f77b4"/>
     <use xlink:href="#m04818e4c88" x="235.419014" y="174.48754" style="fill-opacity: 0; stroke: #1f77b4"/>
     <use xlink:href="#m04818e4c88" x="236.788775" y="179.689507" style="fill-opacity: 0; stroke: #1f77b4"/>
     <use xlink:href="#m04818e4c88" x="238.15702" y="197.693651" style="fill-opacity: 0; stroke: #1f77b4"/>
     <use xlink:href="#m04818e4c88" x="239.526781" y="209.345373" style="fill-opacity: 0; stroke: #1f77b4"/>
     <use xlink:href="#m04818e4c88" x="240.89452" y="216.404326" style="fill-opacity: 0; stroke: #1f77b4"/>
     <use xlink:href="#m04818e4c88" x="242.264281" y="216.404326" style="fill-opacity: 0; stroke: #1f77b4"/>
     <use xlink:href="#m04818e4c88" x="243.632526" y="216.404326" style="fill-opacity: 0; stroke: #1f77b4"/>
     <use xlink:href="#m04818e4c88" x="245.002287" y="216.404326" style="fill-opacity: 0; stroke: #1f77b4"/>
     <use xlink:href="#m04818e4c88" x="246.372048" y="216.404326" style="fill-opacity: 0; stroke: #1f77b4"/>
     <use xlink:href="#m04818e4c88" x="247.741809" y="216.404326" style="fill-opacity: 0; stroke: #1f77b4"/>
     <use xlink:href="#m04818e4c88" x="249.110053" y="216.404326" style="fill-opacity: 0; stroke: #1f77b4"/>
     <use xlink:href="#m04818e4c88" x="250.479814" y="213.329335" style="fill-opacity: 0; stroke: #1f77b4"/>
     <use xlink:href="#m04818e4c88" x="251.849575" y="216.404326" style="fill-opacity: 0; stroke: #1f77b4"/>
     <use xlink:href="#m04818e4c88" x="253.219336" y="216.404326" style="fill-opacity: 0; stroke: #1f77b4"/>
     <use xlink:href="#m04818e4c88" x="254.589097" y="216.404326" style="fill-opacity: 0; stroke: #1f77b4"/>
     <use xlink:href="#m04818e4c88" x="255.960374" y="216.404326" style="fill-opacity: 0; stroke: #1f77b4"/>
     <use xlink:href="#m04818e4c88" x="257.330135" y="216.404326" style="fill-opacity: 0; stroke: #1f77b4"/>
     <use xlink:href="#m04818e4c88" x="258.699896" y="216.404326" style="fill-opacity: 0; stroke: #1f77b4"/>
     <use xlink:href="#m04818e4c88" x="260.069657" y="216.404326" style="fill-opacity: 0; stroke: #1f77b4"/>
     <use xlink:href="#m04818e4c88" x="261.440935" y="216.404326" style="fill-opacity: 0; stroke: #1f77b4"/>
     <use xlink:href="#m04818e4c88" x="262.810696" y="216.404326" style="fill-opacity: 0; stroke: #1f77b4"/>
     <use xlink:href="#m04818e4c88" x="264.181973" y="216.404326" style="fill-opacity: 0; stroke: #1f77b4"/>
     <use xlink:href="#m04818e4c88" x="265.551734" y="216.404326" style="fill-opacity: 0; stroke: #1f77b4"/>
     <use xlink:href="#m04818e4c88" x="266.923011" y="216.404326" style="fill-opacity: 0; stroke: #1f77b4"/>
     <use xlink:href="#m04818e4c88" x="268.292772" y="216.404326" style="fill-opacity: 0; stroke: #1f77b4"/>
     <use xlink:href="#m04818e4c88" x="269.66405" y="216.404326" style="fill-opacity: 0; stroke: #1f77b4"/>
     <use xlink:href="#m04818e4c88" x="271.035327" y="216.404326" style="fill-opacity: 0; stroke: #1f77b4"/>
     <use xlink:href="#m04818e4c88" x="272.406604" y="216.404326" style="fill-opacity: 0; stroke: #1f77b4"/>
     <use xlink:href="#m04818e4c88" x="273.777882" y="216.404326" style="fill-opacity: 0; stroke: #1f77b4"/>
     <use xlink:href="#m04818e4c88" x="275.149159" y="216.404326" style="fill-opacity: 0; stroke: #1f77b4"/>
     <use xlink:href="#m04818e4c88" x="276.520436" y="216.404326" style="fill-opacity: 0; stroke: #1f77b4"/>
     <use xlink:href="#m04818e4c88" x="277.891714" y="216.404326" style="fill-opacity: 0; stroke: #1f77b4"/>
     <use xlink:href="#m04818e4c88" x="279.262991" y="216.404326" style="fill-opacity: 0; stroke: #1f77b4"/>
     <use xlink:href="#m04818e4c88" x="280.634268" y="216.404326" style="fill-opacity: 0; stroke: #1f77b4"/>
     <use xlink:href="#m04818e4c88" x="282.005546" y="216.404326" style="fill-opacity: 0; stroke: #1f77b4"/>
     <use xlink:href="#m04818e4c88" x="283.378339" y="216.404326" style="fill-opacity: 0; stroke: #1f77b4"/>
     <use xlink:href="#m04818e4c88" x="284.749617" y="216.404326" style="fill-opacity: 0; stroke: #1f77b4"/>
     <use xlink:href="#m04818e4c88" x="286.120894" y="216.404326" style="fill-opacity: 0; stroke: #1f77b4"/>
     <use xlink:href="#m04818e4c88" x="287.493688" y="216.404326" style="fill-opacity: 0; stroke: #1f77b4"/>
     <use xlink:href="#m04818e4c88" x="288.864965" y="200.098365" style="fill-opacity: 0; stroke: #1f77b4"/>
     <use xlink:href="#m04818e4c88" x="290.237759" y="82.983147" style="fill-opacity: 0; stroke: #1f77b4"/>
     <use xlink:href="#m04818e4c88" x="290.662721" y="-1" style="fill-opacity: 0; stroke: #1f77b4"/>
     <use xlink:href="#m04818e4c88" x="300.350006" y="-1" style="fill-opacity: 0; stroke: #1f77b4"/>
     <use xlink:href="#m04818e4c88" x="301.219097" y="197.3197" style="fill-opacity: 0; stroke: #1f77b4"/>
     <use xlink:href="#m04818e4c88" x="302.591891" y="216.404326" style="fill-opacity: 0; stroke: #1f77b4"/>
     <use xlink:href="#m04818e4c88" x="303.964684" y="216.404326" style="fill-opacity: 0; stroke: #1f77b4"/>
     <use xlink:href="#m04818e4c88" x="305.337478" y="216.404326" style="fill-opacity: 0; stroke: #1f77b4"/>
     <use xlink:href="#m04818e4c88" x="306.710272" y="203.636373" style="fill-opacity: 0; stroke: #1f77b4"/>
     <use xlink:href="#m04818e4c88" x="308.084582" y="207.606703" style="fill-opacity: 0; stroke: #1f77b4"/>
     <use xlink:href="#m04818e4c88" x="309.457376" y="212.853371" style="fill-opacity: 0; stroke: #1f77b4"/>
     <use xlink:href="#m04818e4c88" x="310.831686" y="216.404326" style="fill-opacity: 0; stroke: #1f77b4"/>
     <use xlink:href="#m04818e4c88" x="312.204479" y="216.404326" style="fill-opacity: 0; stroke: #1f77b4"/>
     <use xlink:href="#m04818e4c88" x="313.578789" y="216.404326" style="fill-opacity: 0; stroke: #1f77b4"/>
     <use xlink:href="#m04818e4c88" x="314.951583" y="216.404326" style="fill-opacity: 0; stroke: #1f77b4"/>
     <use xlink:href="#m04818e4c88" x="316.326398" y="216.404326" style="fill-opacity: 0; stroke: #1f77b4"/>
     <use xlink:href="#m04818e4c88" x="317.700708" y="198.743871" style="fill-opacity: 0; stroke: #1f77b4"/>
     <use xlink:href="#m04818e4c88" x="319.073502" y="216.404326" style="fill-opacity: 0; stroke: #1f77b4"/>
     <use xlink:href="#m04818e4c88" x="320.447812" y="216.404326" style="fill-opacity: 0; stroke: #1f77b4"/>
    </g>
   </g>
   <g id="line2d_2">
    <path d="M 43.312815 215.466217 
L 52.80814 215.035375 
L 58.236134 214.594226 
L 62.308519 214.057898 
L 65.023274 213.513926 
L 67.739546 212.693237 
L 69.097176 212.109884 
L 70.454301 211.342001 
L 71.813447 210.292536 
L 73.171078 208.795908 
L 74.529719 206.528708 
L 75.887349 202.824087 
L 77.24599 196.126197 
L 78.605137 182.70764 
L 79.962262 157.80269 
L 81.321408 144.26154 
L 82.680555 157.515951 
L 84.039196 156.556143 
L 85.398343 138.778296 
L 86.756984 133.338721 
L 89.475277 179.578955 
L 90.835435 192.043958 
L 92.194581 198.65444 
L 93.553728 202.230285 
L 94.913885 204.112781 
L 96.273032 204.89663 
L 97.633189 204.791443 
L 98.992336 203.718652 
L 100.352999 201.237997 
L 101.71164 196.426223 
L 103.072303 189.154228 
L 104.432966 185.656211 
L 105.793123 187.693025 
L 107.153786 186.796729 
L 108.514449 180.462429 
L 109.874607 168.440676 
L 111.23527 153.799997 
L 112.595427 148.485884 
L 113.95609 159.096957 
L 115.316753 173.960528 
L 116.678427 184.77964 
L 118.03909 191.106176 
L 119.399753 194.19111 
L 120.761427 194.817051 
L 122.12209 193.052281 
L 123.484269 188.074904 
L 124.846448 177.528264 
L 126.206606 156.387318 
L 127.568785 121.44507 
L 128.930964 105.487342 
L 131.654817 165.326296 
L 133.016997 180.398239 
L 134.378671 187.0884 
L 135.74085 189.08729 
L 137.103029 187.747109 
L 138.464703 183.081854 
L 139.828399 174.074655 
L 141.190578 159.000401 
L 142.552757 137.564036 
L 143.915947 118.600889 
L 145.278127 119.532887 
L 146.641822 136.186398 
L 148.005518 147.863911 
L 149.367192 141.627862 
L 150.730887 133.504589 
L 152.094583 161.455832 
L 153.458279 180.120389 
L 154.821469 186.789634 
L 156.183648 186.667741 
L 157.547344 180.162179 
L 158.912556 168.371061 
L 160.275746 166.620123 
L 161.639441 179.44951 
L 163.003137 189.554794 
L 164.366833 194.147045 
L 165.731539 195.086429 
L 167.095235 193.147004 
L 168.460447 187.905622 
L 169.824142 178.002567 
L 171.189354 162.762797 
L 172.554061 149.629647 
L 173.917757 152.811058 
L 175.282969 164.771704 
L 176.648181 170.480562 
L 178.013392 165.000775 
L 179.378099 151.861095 
L 180.743311 155.742379 
L 182.108523 175.754122 
L 183.473735 189.841209 
L 184.838947 197.110574 
L 186.203653 200.354554 
L 187.568865 200.54328 
L 190.300806 193.826768 
L 191.667534 198.609306 
L 193.03224 201.916443 
L 194.398969 200.254613 
L 195.764181 192.18067 
L 197.130909 189.40333 
L 198.497637 200.255498 
L 199.864366 206.416011 
L 201.229578 209.068104 
L 202.5958 210.34069 
L 203.962529 211.003995 
L 205.329257 211.348071 
L 206.695985 211.494345 
L 208.06423 211.496035 
L 209.430958 211.373938 
L 210.797687 211.129625 
L 212.16391 210.749445 
L 213.532154 210.201948 
L 214.898882 209.434872 
L 216.267127 208.355494 
L 217.633855 206.808915 
L 219.0021 204.507584 
L 220.368828 200.926052 
L 221.737073 195.098208 
L 223.105318 185.939546 
L 224.473057 175.915836 
L 225.841302 174.082562 
L 227.209546 177.908164 
L 228.577791 178.721286 
L 229.946036 175.848628 
L 231.31428 171.967872 
L 232.682525 170.648405 
L 234.050769 173.970209 
L 235.419014 180.61582 
L 236.788775 187.870367 
L 238.15702 194.087619 
L 239.526781 198.908917 
L 240.89452 202.504871 
L 242.264281 205.180734 
L 243.632526 207.184049 
L 245.002287 208.709087 
L 246.372048 209.887571 
L 247.741809 210.813159 
L 249.110053 211.550678 
L 251.849575 212.637815 
L 254.589097 213.384646 
L 257.330135 213.919774 
L 261.440935 214.477353 
L 266.923011 214.954939 
L 273.777882 215.324086 
L 284.749617 215.661815 
L 301.219097 215.920379 
L 320.447812 216.073898 
L 320.447812 216.073898 
" clip-path="url(#p65fa55f7df)" style="fill: none; stroke: #ff0000; stroke-width: 1.5; stroke-linecap: square"/>
   </g>
   <g id="line2d_3">
    <path d="M 295.727417 216.404326 
L 295.727417 17.735865 
" clip-path="url(#p65fa55f7df)" style="fill: none; stroke-dasharray: 3.7,1.6; stroke-dashoffset: 0; stroke: #808080"/>
   </g>
   <g id="patch_3">
    <path d="M 43.003987 216.404326 
L 43.003987 17.735865 
" style="fill: none; stroke: #000000; stroke-linejoin: miter; stroke-linecap: square"/>
   </g>
   <g id="patch_4">
    <path d="M 320.99976 216.404326 
L 320.99976 17.735865 
" style="fill: none; stroke: #000000; stroke-linejoin: miter; stroke-linecap: square"/>
   </g>
   <g id="patch_5">
    <path d="M 43.003987 216.404326 
L 320.99976 216.404326 
" style="fill: none; stroke: #000000; stroke-linejoin: miter; stroke-linecap: square"/>
   </g>
   <g id="patch_6">
    <path d="M 43.003987 17.735865 
L 320.99976 17.735865 
" style="fill: none; stroke: #000000; stroke-linejoin: miter; stroke-linecap: square"/>
   </g>
   <g id="matplotlib.axis_1">
    <g id="xtick_1">
     <g id="line2d_4">
      <defs>
       <path id="m76200e3554" d="M 0 0 
L 0 3.75 
" style="stroke: #000000; stroke-width: 1.25"/>
      </defs>
      <g>
       <use xlink:href="#m76200e3554" x="43.003987" y="216.404326" style="stroke: #000000; stroke-width: 1.25"/>
      </g>
     </g>
     <g id="text_1">
      <!-- $\mathdefault{429}$ -->
      <g transform="translate(33.818987 231.52792)">
       <text>
        <tspan style="font: 11px 'Arial'" x="0 6.117676 12.235352" y="-0.09375">429</tspan>
       </text>
      </g>
     </g>
    </g>
    <g id="xtick_2">
     <g id="line2d_5">
      <g>
       <use xlink:href="#m76200e3554" x="93.548673" y="216.404326" style="stroke: #000000; stroke-width: 1.25"/>
      </g>
     </g>
     <g id="text_2">
      <!-- $\mathdefault{430}$ -->
      <g transform="translate(84.363673 231.52792)">
       <text>
        <tspan style="font: 11px 'Arial'" x="0 6.117676 12.235352" y="-0.09375">430</tspan>
       </text>
      </g>
     </g>
    </g>
    <g id="xtick_3">
     <g id="line2d_6">
      <g>
       <use xlink:href="#m76200e3554" x="144.093359" y="216.404326" style="stroke: #000000; stroke-width: 1.25"/>
      </g>
     </g>
     <g id="text_3">
      <!-- $\mathdefault{431}$ -->
      <g transform="translate(134.908359 231.52792)">
       <text>
        <tspan style="font: 11px 'Arial'" x="0 6.117676 12.235352" y="-0.09375">431</tspan>
       </text>
      </g>
     </g>
    </g>
    <g id="xtick_4">
     <g id="line2d_7">
      <g>
       <use xlink:href="#m76200e3554" x="194.638045" y="216.404326" style="stroke: #000000; stroke-width: 1.25"/>
      </g>
     </g>
     <g id="text_4">
      <!-- $\mathdefault{432}$ -->
      <g transform="translate(185.453045 231.52792)">
       <text>
        <tspan style="font: 11px 'Arial'" x="0 6.117676 12.235352" y="-0.09375">432</tspan>
       </text>
      </g>
     </g>
    </g>
    <g id="xtick_5">
     <g id="line2d_8">
      <g>
       <use xlink:href="#m76200e3554" x="245.182731" y="216.404326" style="stroke: #000000; stroke-width: 1.25"/>
      </g>
     </g>
     <g id="text_5">
      <!-- $\mathdefault{433}$ -->
      <g transform="translate(235.997731 231.52792)">
       <text>
        <tspan style="font: 11px 'Arial'" x="0 6.117676 12.235352" y="-0.09375">433</tspan>
       </text>
      </g>
     </g>
    </g>
    <g id="xtick_6">
     <g id="line2d_9">
      <g>
       <use xlink:href="#m76200e3554" x="295.727417" y="216.404326" style="stroke: #000000; stroke-width: 1.25"/>
      </g>
     </g>
     <g id="text_6">
      <!-- $\mathdefault{434}$ -->
      <g transform="translate(286.542417 231.52792)">
       <text>
        <tspan style="font: 11px 'Arial'" x="0 6.117676 12.235352" y="-0.09375">434</tspan>
       </text>
      </g>
     </g>
    </g>
    <g id="text_7">
     <!-- $\lambda$ {\sffamily (nm)} -->
     <g transform="translate(164.206736 246.411565) scale(0.12 -0.12)">
      <defs>
       <path id="StandardSymL-6c" d="M 480 3650 
C 525 4013 710 4224 998 4224 
C 1203 4224 1376 4064 1472 3778 
C 1517 3650 1574 3440 1632 3198 
L 154 19 
L 755 19 
L 1843 2301 
C 2048 1059 2150 607 2266 358 
C 2406 83 2611 -64 2848 -64 
C 3098 -64 3296 89 3405 371 
C 3475 543 3501 715 3507 1014 
L 3373 1014 
C 3322 683 3174 499 2944 499 
C 2752 499 2586 620 2483 843 
C 2400 1008 2355 1174 2266 1645 
L 2093 2466 
C 2086 2485 2080 2530 2067 2594 
C 1920 3415 1690 4192 1536 4422 
C 1395 4627 1203 4736 992 4736 
C 602 4736 397 4403 326 3650 
L 480 3650 
z
" transform="scale(0.015625)"/>
       <path id="NimbusSanL-Regu-28" d="M 1510 4672 
C 870 3833 467 2668 467 1663 
C 467 652 870 -513 1510 -1351 
L 1862 -1351 
C 1299 -436 986 639 986 1663 
C 986 2681 1299 3763 1862 4672 
L 1510 4672 
z
" transform="scale(0.015625)"/>
       <path id="NimbusSanL-Regu-6e" d="M 448 3328 
L 448 0 
L 986 0 
L 986 1835 
C 986 2539 1344 2988 1894 2988 
C 2317 2988 2586 2732 2586 2328 
L 2586 0 
L 3117 0 
L 3117 2539 
C 3117 3097 2701 3456 2054 3456 
C 1555 3456 1235 3263 941 2796 
L 941 3328 
L 448 3328 
z
" transform="scale(0.015625)"/>
       <path id="NimbusSanL-Regu-6d" d="M 448 3328 
L 448 0 
L 986 0 
L 986 2089 
C 986 2597 1338 2988 1773 2988 
C 2170 2988 2394 2744 2394 2315 
L 2394 0 
L 2931 0 
L 2931 2109 
C 2931 2597 3283 2988 3718 2988 
C 4109 2988 4339 2738 4339 2315 
L 4339 0 
L 4877 0 
L 4877 2520 
C 4877 3123 4531 3456 3904 3456 
C 3456 3456 3187 3321 2874 2943 
C 2675 3302 2406 3456 1971 3456 
C 1523 3456 1229 3289 941 2886 
L 941 3328 
L 448 3328 
z
" transform="scale(0.015625)"/>
       <path id="NimbusSanL-Regu-29" d="M 595 -1351 
C 1235 -513 1638 652 1638 1657 
C 1638 2668 1235 3833 595 4672 
L 243 4672 
C 806 3756 1120 2681 1120 1657 
C 1120 639 806 -442 243 -1351 
L 595 -1351 
z
" transform="scale(0.015625)"/>
      </defs>
      <use xlink:href="#StandardSymL-6c" transform="scale(0.996264)"/>
      <use xlink:href="#NimbusSanL-Regu-28" transform="translate(91.855235 0) scale(0.996264)"/>
      <use xlink:href="#NimbusSanL-Regu-6e" transform="translate(125.030464 0) scale(0.996264)"/>
      <use xlink:href="#NimbusSanL-Regu-6d" transform="translate(180.422141 0) scale(0.996264)"/>
      <use xlink:href="#NimbusSanL-Regu-29" transform="translate(263.410572 0) scale(0.996264)"/>
     </g>
    </g>
   </g>
   <g id="matplotlib.axis_2">
    <g id="ytick_1">
     <g id="line2d_10">
      <defs>
       <path id="mc60d15c3eb" d="M 0 0 
L -3.75 0 
" style="stroke: #000000; stroke-width: 1.25"/>
      </defs>
      <g>
       <use xlink:href="#mc60d15c3eb" x="43.003987" y="216.404326" style="stroke: #000000; stroke-width: 1.25"/>
      </g>
     </g>
     <g id="text_8">
      <!-- $\mathdefault{0.0}$ -->
      <g transform="translate(20.353987 220.341123)">
       <text>
        <tspan style="font: 11px 'Arial'" x="0 6.117676 9.173828" y="-0.09375">0.0</tspan>
       </text>
      </g>
     </g>
    </g>
    <g id="ytick_2">
     <g id="line2d_11">
      <g>
       <use xlink:href="#mc60d15c3eb" x="43.003987" y="190.614986" style="stroke: #000000; stroke-width: 1.25"/>
      </g>
     </g>
     <g id="text_9">
      <!-- $\mathdefault{0.5}$ -->
      <g transform="translate(20.353987 194.551783)">
       <text>
        <tspan style="font: 11px 'Arial'" x="0 6.117676 9.173828" y="-0.09375">0.5</tspan>
       </text>
      </g>
     </g>
    </g>
    <g id="ytick_3">
     <g id="line2d_12">
      <g>
       <use xlink:href="#mc60d15c3eb" x="43.003987" y="164.825646" style="stroke: #000000; stroke-width: 1.25"/>
      </g>
     </g>
     <g id="text_10">
      <!-- $\mathdefault{1.0}$ -->
      <g transform="translate(20.353987 168.762442)">
       <text>
        <tspan style="font: 11px 'Arial'" x="0 6.117676 9.173828" y="-0.09375">1.0</tspan>
       </text>
      </g>
     </g>
    </g>
    <g id="ytick_4">
     <g id="line2d_13">
      <g>
       <use xlink:href="#mc60d15c3eb" x="43.003987" y="139.036305" style="stroke: #000000; stroke-width: 1.25"/>
      </g>
     </g>
     <g id="text_11">
      <!-- $\mathdefault{1.5}$ -->
      <g transform="translate(20.353987 142.973102)">
       <text>
        <tspan style="font: 11px 'Arial'" x="0 6.117676 9.173828" y="-0.09375">1.5</tspan>
       </text>
      </g>
     </g>
    </g>
    <g id="ytick_5">
     <g id="line2d_14">
      <g>
       <use xlink:href="#mc60d15c3eb" x="43.003987" y="113.246965" style="stroke: #000000; stroke-width: 1.25"/>
      </g>
     </g>
     <g id="text_12">
      <!-- $\mathdefault{2.0}$ -->
      <g transform="translate(20.353987 117.183762)">
       <text>
        <tspan style="font: 11px 'Arial'" x="0 6.117676 9.173828" y="-0.09375">2.0</tspan>
       </text>
      </g>
     </g>
    </g>
    <g id="ytick_6">
     <g id="line2d_15">
      <g>
       <use xlink:href="#mc60d15c3eb" x="43.003987" y="87.457625" style="stroke: #000000; stroke-width: 1.25"/>
      </g>
     </g>
     <g id="text_13">
      <!-- $\mathdefault{2.5}$ -->
      <g transform="translate(20.353987 91.394422)">
       <text>
        <tspan style="font: 11px 'Arial'" x="0 6.117676 9.173828" y="-0.09375">2.5</tspan>
       </text>
      </g>
     </g>
    </g>
    <g id="ytick_7">
     <g id="line2d_16">
      <g>
       <use xlink:href="#mc60d15c3eb" x="43.003987" y="61.668285" style="stroke: #000000; stroke-width: 1.25"/>
      </g>
     </g>
     <g id="text_14">
      <!-- $\mathdefault{3.0}$ -->
      <g transform="translate(20.353987 65.605082)">
       <text>
        <tspan style="font: 11px 'Arial'" x="0 6.117676 9.173828" y="-0.09375">3.0</tspan>
       </text>
      </g>
     </g>
    </g>
    <g id="ytick_8">
     <g id="line2d_17">
      <g>
       <use xlink:href="#mc60d15c3eb" x="43.003987" y="35.878945" style="stroke: #000000; stroke-width: 1.25"/>
      </g>
     </g>
     <g id="text_15">
      <!-- $\mathdefault{3.5}$ -->
      <g transform="translate(20.353987 39.815742)">
       <text>
        <tspan style="font: 11px 'Arial'" x="0 6.117676 9.173828" y="-0.09375">3.5</tspan>
       </text>
      </g>
     </g>
    </g>
    <g id="text_16">
     <!-- $B_{\lambda}$ {\sffamily (photons/cm\textsuperscript{2}/s/nm)} -->
     <g transform="translate(13.728305 177.714049) rotate(-90) scale(0.12 -0.12)">
      <defs>
       <path id="NimbusRomNo9L-ReguItal-42" d="M -51 0 
L 1754 0 
C 2758 0 3450 523 3450 1274 
C 3450 1510 3373 1732 3232 1872 
C 3104 2019 2976 2095 2643 2235 
C 3098 2344 3283 2420 3488 2598 
C 3667 2751 3763 2968 3763 3222 
C 3763 3827 3309 4160 2483 4160 
L 832 4160 
L 832 4057 
C 1229 4025 1325 3974 1325 3795 
C 1325 3700 1299 3541 1254 3388 
L 467 574 
C 352 204 307 166 -51 102 
L -51 0 
z
M 1523 2108 
C 1939 2108 2208 2083 2336 2032 
C 2598 1923 2758 1643 2758 1299 
C 2758 612 2285 192 1504 192 
C 1235 192 1094 287 1094 459 
C 1094 535 1171 841 1318 1350 
C 1402 1637 1440 1783 1523 2108 
z
M 2003 3789 
C 2042 3929 2118 3967 2368 3967 
C 2880 3967 3117 3751 3117 3280 
C 3117 2917 2963 2637 2688 2484 
C 2470 2356 2163 2312 1587 2312 
L 2003 3789 
z
" transform="scale(0.015625)"/>
       <path id="NimbusSanL-Regu-70" d="M 346 -1408 
L 883 -1408 
L 883 371 
C 1165 25 1478 -128 1914 -128 
C 2778 -128 3347 568 3347 1632 
C 3347 2752 2797 3456 1907 3456 
C 1453 3456 1088 3251 838 2854 
L 838 3359 
L 346 3359 
L 346 -1408 
z
M 1818 2956 
C 2406 2956 2790 2440 2790 1644 
C 2790 887 2400 371 1818 371 
C 1254 371 883 880 883 1663 
C 883 2447 1254 2956 1818 2956 
z
" transform="scale(0.015625)"/>
       <path id="NimbusSanL-Regu-68" d="M 448 4672 
L 448 0 
L 979 0 
L 979 1853 
C 979 2539 1338 2988 1888 2988 
C 2061 2988 2234 2930 2362 2834 
C 2515 2725 2579 2565 2579 2328 
L 2579 0 
L 3110 0 
L 3110 2539 
C 3110 3103 2707 3456 2054 3456 
C 1581 3456 1293 3308 979 2898 
L 979 4672 
L 448 4672 
z
" transform="scale(0.015625)"/>
       <path id="NimbusSanL-Regu-6f" d="M 1741 3456 
C 800 3456 230 2784 230 1663 
C 230 543 794 -128 1747 -128 
C 2688 -128 3264 543 3264 1638 
C 3264 2791 2707 3456 1741 3456 
z
M 1747 2963 
C 2349 2963 2707 2472 2707 1644 
C 2707 861 2336 364 1747 364 
C 1152 364 787 855 787 1663 
C 787 2466 1152 2963 1747 2963 
z
" transform="scale(0.015625)"/>
       <path id="NimbusSanL-Regu-74" d="M 1626 3328 
L 1075 3328 
L 1075 4249 
L 544 4249 
L 544 3328 
L 90 3328 
L 90 2892 
L 544 2892 
L 544 402 
C 544 64 774 -128 1190 -128 
C 1318 -128 1446 -116 1626 -84 
L 1626 364 
C 1555 345 1472 339 1370 339 
C 1139 339 1075 402 1075 634 
L 1075 2892 
L 1626 2892 
L 1626 3328 
z
" transform="scale(0.015625)"/>
       <path id="NimbusSanL-Regu-73" d="M 2803 2428 
C 2797 3084 2362 3456 1587 3456 
C 806 3456 301 3052 301 2434 
C 301 1912 570 1663 1363 1472 
L 1862 1351 
C 2234 1262 2381 1129 2381 887 
C 2381 574 2067 364 1600 364 
C 1312 364 1069 447 934 587 
C 851 683 813 778 781 1014 
L 218 1014 
C 243 243 678 -128 1555 -128 
C 2400 -128 2938 288 2938 931 
C 2938 1428 2656 1702 1990 1861 
L 1478 1982 
C 1043 2084 858 2224 858 2459 
C 858 2765 1133 2963 1568 2963 
C 1997 2963 2227 2778 2240 2428 
L 2803 2428 
z
" transform="scale(0.015625)"/>
       <path id="NimbusSanL-Regu-2f" d="M 1466 4672 
L -51 -128 
L 301 -128 
L 1818 4672 
L 1466 4672 
z
" transform="scale(0.015625)"/>
       <path id="NimbusSanL-Regu-63" d="M 3014 2237 
C 2989 2561 2918 2771 2790 2956 
C 2560 3270 2157 3456 1690 3456 
C 787 3456 198 2740 198 1632 
C 198 555 774 -128 1683 -128 
C 2483 -128 2989 352 3053 1167 
L 2515 1167 
C 2426 632 2150 364 1696 364 
C 1107 364 755 842 755 1632 
C 755 2466 1101 2963 1683 2963 
C 2131 2963 2413 2701 2477 2237 
L 3014 2237 
z
" transform="scale(0.015625)"/>
       <path id="NimbusSanL-Regu-32" d="M 3238 556 
L 851 556 
C 909 928 1114 1165 1670 1493 
L 2310 1839 
C 2944 2185 3270 2653 3270 3211 
C 3270 3589 3117 3942 2848 4185 
C 2579 4428 2246 4544 1818 4544 
C 1242 4544 813 4339 563 3955 
C 403 3711 333 3429 320 2967 
L 883 2967 
C 902 3275 941 3461 1018 3608 
C 1165 3884 1459 4051 1798 4051 
C 2310 4051 2694 3685 2694 3198 
C 2694 2839 2483 2531 2080 2300 
L 1491 1967 
C 544 1428 269 999 218 0 
L 3238 0 
L 3238 556 
z
" transform="scale(0.015625)"/>
      </defs>
      <use xlink:href="#NimbusRomNo9L-ReguItal-42" transform="scale(0.996264)"/>
      <use xlink:href="#StandardSymL-6c" transform="translate(60.871631 -20.616338) scale(0.737241)"/>
      <use xlink:href="#NimbusSanL-Regu-28" transform="translate(135.818713 0) scale(0.996264)"/>
      <use xlink:href="#NimbusSanL-Regu-70" transform="translate(168.993943 0) scale(0.996264)"/>
      <use xlink:href="#NimbusSanL-Regu-68" transform="translate(224.38562 0) scale(0.996264)"/>
      <use xlink:href="#NimbusSanL-Regu-6f" transform="translate(279.777297 0) scale(0.996264)"/>
      <use xlink:href="#NimbusSanL-Regu-74" transform="translate(335.168974 0) scale(0.996264)"/>
      <use xlink:href="#NimbusSanL-Regu-6f" transform="translate(362.864143 0) scale(0.996264)"/>
      <use xlink:href="#NimbusSanL-Regu-6e" transform="translate(418.25582 0) scale(0.996264)"/>
      <use xlink:href="#NimbusSanL-Regu-73" transform="translate(473.647497 0) scale(0.996264)"/>
      <use xlink:href="#NimbusSanL-Regu-2f" transform="translate(523.460698 0) scale(0.996264)"/>
      <use xlink:href="#NimbusSanL-Regu-63" transform="translate(551.155868 0) scale(0.996264)"/>
      <use xlink:href="#NimbusSanL-Regu-6d" transform="translate(600.969068 0) scale(0.996264)"/>
      <use xlink:href="#NimbusSanL-Regu-32" transform="translate(683.957498 36.163231) scale(0.737241)"/>
      <use xlink:href="#NimbusSanL-Regu-2f" transform="translate(725.445777 0) scale(0.996264)"/>
      <use xlink:href="#NimbusSanL-Regu-73" transform="translate(753.140947 0) scale(0.996264)"/>
      <use xlink:href="#NimbusSanL-Regu-2f" transform="translate(802.954147 0) scale(0.996264)"/>
      <use xlink:href="#NimbusSanL-Regu-6e" transform="translate(830.649317 0) scale(0.996264)"/>
      <use xlink:href="#NimbusSanL-Regu-6d" transform="translate(886.040994 0) scale(0.996264)"/>
      <use xlink:href="#NimbusSanL-Regu-29" transform="translate(969.029424 0) scale(0.996264)"/>
     </g>
    </g>
    <g id="text_17">
     <!-- $\times\mathdefault{10^{12}}\mathdefault{}$ -->
     <g transform="translate(43.003987 14.735865)">
      <text>
       <tspan style="font: 11px 'STIXGeneral'" x="0" y="-0.799312500000001"></tspan>
       <tspan style="font: 11px 'Arial'" x="7.039993 13.157669" y="-0.799312500000001">10</tspan>
       <tspan style="font: 7.7px 'Arial'" x="19.467003 23.749376" y="-8.465625">12</tspan>
      </text>
     </g>
    </g>
   </g>
   <g id="patch_7">
    <path d="M 217.800817 47.652918 
L 217.800817 67.40298 
L 294.609383 67.40298 
" style="fill: none; stroke: #000000; stroke-linecap: round"/>
    <path d="M 290.609383 65.40298 
L 294.609383 67.40298 
L 290.609383 69.40298 
" style="fill: none; stroke: #000000; stroke-linecap: round"/>
   </g>
   <g id="text_18">
    <g id="patch_8">
     <path d="M 184.100817 50.702711 
L 251.500817 50.702711 
Q 254.500817 50.702711 254.500817 47.702711 
L 254.500817 37.602711 
Q 254.500817 34.602711 251.500817 34.602711 
L 184.100817 34.602711 
Q 181.100817 34.602711 181.100817 37.602711 
L 181.100817 47.702711 
Q 181.100817 50.702711 184.100817 50.702711 
z
" style="fill: #f5deb3; stroke: #000000; stroke-linejoin: miter"/>
    </g>
    <!-- D$_{\gamma}$ (434.00) nm -->
    <g transform="translate(184.100817 44.902711)">
     <text>
      <tspan style="font: 10px 'Arial'" x="0 10.686517 13.464837 16.794915 22.356439 27.917962 33.479486 36.257806 41.81933 47.380853 50.710931 53.489251 59.050775" y="-0.71875">D(434.00)nm</tspan>
      <tspan style="font: italic 7px 'STIXGeneral'" x="7.375898" y="0.6031250000000004"></tspan>
     </text>
    </g>
   </g>
   <g id="text_19">
    <text style="font: 10px 'Arial'; text-anchor: middle" x="218.851426" y="109.388228" transform="rotate(-0 218.851426 109.388228)">Q-branch</text>
   </g>
   <g id="text_20">
    <text style="font: 10px 'Arial'; text-anchor: middle" x="132.236483" y="42.545828" transform="rotate(-0 132.236483 42.545828)">B-D + C-D</text>
   </g>
   <g id="text_21">
    <text style="font: 700 12px 'Arial'; text-anchor: middle" x="182.001874" y="11.735865" transform="rotate(-0 182.001874 11.735865)">HP boron rod (redeposit test) - 31 min</text>
   </g>
  </g>
 </g>
 <defs>
  <clipPath id="p65fa55f7df">
   <rect x="43.003987" y="17.735865" width="277.995773" height="198.668461"/>
  </clipPath>
 </defs>
</svg>
