<?xml version="1.0" encoding="utf-8" standalone="no"?>
<!DOCTYPE svg PUBLIC "-//W3C//DTD SVG 1.1//EN"
  "http://www.w3.org/Graphics/SVG/1.1/DTD/svg11.dtd">
<svg xmlns:xlink="http://www.w3.org/1999/xlink" width="324pt" height="252pt" viewBox="0 0 324 252" xmlns="http://www.w3.org/2000/svg" version="1.1">
 <metadata>
  <rdf:RDF xmlns:dc="http://purl.org/dc/elements/1.1/" xmlns:cc="http://creativecommons.org/ns#" xmlns:rdf="http://www.w3.org/1999/02/22-rdf-syntax-ns#">
   <cc:Work>
    <dc:type rdf:resource="http://purl.org/dc/dcmitype/StillImage"/>
    <dc:date>2024-12-06T11:07:11.175350</dc:date>
    <dc:format>image/svg+xml</dc:format>
    <dc:creator>
     <cc:Agent>
      <dc:title>Matplotlib v3.9.2, https://matplotlib.org/</dc:title>
     </cc:Agent>
    </dc:creator>
   </cc:Work>
  </rdf:RDF>
 </metadata>
 <defs>
  <style type="text/css">*{stroke-linejoin: round; stroke-linecap: butt}</style>
 </defs>
 <g id="figure_1">
  <g id="patch_1">
   <path d="M 0 252 
L 324 252 
L 324 0 
L 0 0 
z
" style="fill: #ffffff"/>
  </g>
  <g id="axes_1">
   <g id="patch_2">
    <path d="M 43.003987 216.404326 
L 320.99976 216.404326 
L 320.99976 17.735865 
L 43.003987 17.735865 
z
" style="fill: #ffffff"/>
   </g>
   <g id="PolyCollection_1">
    <path d="M 43.29563 216.345651 
L 43.29563 216.404326 
L 44.651744 216.404326 
L 46.008869 216.404326 
L 47.364983 216.404326 
L 48.722108 216.404326 
L 50.078222 216.404326 
L 51.435346 216.404326 
L 52.792977 216.404326 
L 54.148585 216.404326 
L 55.506215 216.404326 
L 56.86334 216.404326 
L 58.22097 216.404326 
L 59.578601 216.404326 
L 60.935726 216.404326 
L 62.293356 216.404326 
L 63.650481 216.404326 
L 65.008111 216.404326 
L 66.366752 216.404326 
L 67.724382 216.404326 
L 69.081507 216.404326 
L 70.440654 216.404326 
L 71.798284 216.404326 
L 73.156925 216.404326 
L 74.514555 216.404326 
L 75.873197 216.404326 
L 77.232343 216.404326 
L 78.589468 216.404326 
L 79.948615 216.404326 
L 81.307761 216.404326 
L 82.666402 216.404326 
L 84.025549 216.404326 
L 85.38419 216.404326 
L 86.743337 216.404326 
L 88.102483 216.404326 
L 89.462641 216.404326 
L 90.821787 216.404326 
L 92.180934 216.404326 
L 93.541092 216.404326 
L 94.900238 216.404326 
L 96.260396 216.404326 
L 97.619542 216.404326 
L 98.980205 216.404326 
L 100.338846 216.404326 
L 101.699509 216.404326 
L 103.060172 216.404326 
L 104.42033 216.404326 
L 105.780993 216.404326 
L 107.141656 216.404326 
L 108.501813 216.404326 
L 109.862476 216.404326 
L 111.222634 216.404326 
L 112.583297 216.404326 
L 113.943959 216.404326 
L 115.305633 216.404326 
L 116.666296 216.404326 
L 118.026959 216.404326 
L 119.388633 216.404326 
L 120.749296 216.404326 
L 122.111475 216.404326 
L 123.473655 216.404326 
L 124.833812 216.404326 
L 126.195991 216.404326 
L 127.558171 216.404326 
L 128.919844 216.404326 
L 130.282024 216.404326 
L 131.644203 216.404326 
L 133.005877 216.404326 
L 134.368056 216.404326 
L 135.730235 216.404326 
L 137.091909 216.404326 
L 138.455605 216.404326 
L 139.817784 216.404326 
L 141.179963 216.404326 
L 142.543154 216.404326 
L 143.905333 216.404326 
L 145.269029 216.404326 
L 146.632724 216.404326 
L 147.994398 216.404326 
L 149.358094 216.404326 
L 150.721789 216.404326 
L 152.085485 216.404326 
L 153.448675 216.404326 
L 154.810854 216.404326 
L 156.17455 216.404326 
L 157.539762 216.404326 
L 158.902952 216.404326 
L 160.266648 216.404326 
L 161.630343 216.404326 
L 162.994039 216.404326 
L 164.358746 216.404326 
L 165.722441 216.404326 
L 167.087653 216.404326 
L 168.451349 216.404326 
L 169.816561 216.404326 
L 171.181267 216.404326 
L 172.544963 216.404326 
L 173.910175 216.404326 
L 175.275387 216.404326 
L 176.640599 216.404326 
L 178.005305 216.404326 
L 179.370517 216.404326 
L 180.735729 216.404326 
L 182.100941 216.404326 
L 183.466153 216.404326 
L 184.83086 216.404326 
L 186.196072 216.404326 
L 187.5628 216.404326 
L 188.928012 216.404326 
L 190.29474 216.404326 
L 191.659447 216.404326 
L 193.026175 216.404326 
L 194.391387 216.404326 
L 195.758115 216.404326 
L 197.124844 216.404326 
L 198.491572 216.404326 
L 199.856784 216.404326 
L 201.223007 216.404326 
L 202.589735 216.404326 
L 203.956463 216.404326 
L 205.323192 216.404326 
L 206.691436 216.404326 
L 208.058165 216.404326 
L 209.424893 216.404326 
L 210.791116 216.404326 
L 212.159361 216.404326 
L 213.526089 216.404326 
L 214.894333 216.404326 
L 216.261062 216.404326 
L 217.629306 216.404326 
L 218.996035 216.404326 
L 220.364279 216.404326 
L 221.732524 216.404326 
L 223.100263 216.404326 
L 224.468508 216.404326 
L 225.836753 216.404326 
L 227.204997 216.404326 
L 228.573242 216.404326 
L 229.941486 216.404326 
L 231.309731 216.404326 
L 232.677976 216.404326 
L 234.04622 216.404326 
L 235.415981 216.404326 
L 236.784226 216.404326 
L 238.153987 216.404326 
L 239.521726 216.404326 
L 240.891487 216.404326 
L 242.259732 216.404326 
L 243.629493 216.404326 
L 244.999254 216.404326 
L 246.369015 216.404326 
L 247.73726 216.404326 
L 249.10702 216.404326 
L 250.476781 216.404326 
L 251.846542 216.404326 
L 253.216303 216.404326 
L 254.587581 216.404326 
L 255.957342 216.404326 
L 257.327103 216.404326 
L 258.696864 216.404326 
L 260.068141 216.404326 
L 261.437902 216.404326 
L 262.809179 216.404326 
L 264.17894 216.404326 
L 265.550218 216.404326 
L 266.919979 216.404326 
L 268.291256 216.404326 
L 269.662533 216.404326 
L 271.033811 216.404326 
L 272.405088 216.404326 
L 273.776365 216.404326 
L 275.147643 216.404326 
L 276.51892 216.404326 
L 277.890197 216.404326 
L 279.261475 216.404326 
L 280.632752 216.404326 
L 282.005546 216.404326 
L 283.376823 216.404326 
L 284.7481 216.404326 
L 286.120894 216.404326 
L 287.492171 216.404326 
L 288.864965 216.404326 
L 290.237759 216.404326 
L 291.609036 216.404326 
L 292.98183 216.404326 
L 294.354623 216.404326 
L 295.727417 216.404326 
L 297.100211 216.404326 
L 298.47351 216.404326 
L 299.846303 216.404326 
L 301.219097 216.404326 
L 302.591891 216.404326 
L 303.964684 216.404326 
L 305.337478 216.404326 
L 306.711788 216.404326 
L 308.084582 216.404326 
L 309.458892 216.404326 
L 310.831686 216.404326 
L 312.205996 216.404326 
L 313.578789 216.404326 
L 314.953605 216.404326 
L 316.327915 216.404326 
L 317.700708 216.404326 
L 319.075018 216.404326 
L 320.449328 216.404326 
L 320.449328 216.138729 
L 320.449328 216.138729 
L 319.075018 216.130326 
L 317.700708 216.121519 
L 316.327915 216.112291 
L 314.953605 216.102595 
L 313.578789 216.092404 
L 312.205996 216.081705 
L 310.831686 216.070435 
L 309.458892 216.058578 
L 308.084582 216.046066 
L 306.711788 216.032879 
L 305.337478 216.018936 
L 303.964684 216.004212 
L 302.591891 215.98863 
L 301.219097 215.972122 
L 299.846303 215.954614 
L 298.47351 215.936024 
L 297.100211 215.916252 
L 295.727417 215.895214 
L 294.354623 215.872791 
L 292.98183 215.848858 
L 291.609036 215.823278 
L 290.237759 215.795928 
L 288.864965 215.766576 
L 287.492171 215.735057 
L 286.120894 215.701192 
L 284.7481 215.664661 
L 283.376823 215.625268 
L 282.005546 215.58266 
L 280.632752 215.536427 
L 279.261475 215.486261 
L 277.890197 215.431646 
L 276.51892 215.372045 
L 275.147643 215.306835 
L 273.776365 215.235296 
L 272.405088 215.15659 
L 271.033811 215.069736 
L 269.662533 214.973581 
L 268.291256 214.866763 
L 266.919979 214.747666 
L 265.550218 214.614515 
L 264.17894 214.464699 
L 262.809179 214.295751 
L 261.437902 214.103887 
L 260.068141 213.885359 
L 258.696864 213.634519 
L 257.327103 213.345504 
L 255.957342 213.010001 
L 254.587581 212.617808 
L 253.216303 212.155326 
L 251.846542 211.606722 
L 250.476781 210.949573 
L 249.10702 210.155002 
L 247.73726 209.184689 
L 246.369015 207.988923 
L 244.999254 206.496542 
L 243.629493 204.617226 
L 242.259732 202.230935 
L 240.891487 199.190907 
L 239.521726 195.321242 
L 238.153987 190.494132 
L 236.784226 184.718434 
L 235.415981 178.445754 
L 234.04622 172.794472 
L 232.677976 169.462732 
L 231.309731 169.659089 
L 229.941486 172.954697 
L 228.573242 177.379633 
L 227.204997 180.118758 
L 225.836753 176.228478 
L 224.468508 165.638606 
L 223.100263 182.477689 
L 221.732524 195.696341 
L 220.364279 201.621284 
L 218.996035 204.910573 
L 217.629306 207.058247 
L 216.261062 208.599408 
L 214.894333 209.764167 
L 213.526089 210.677538 
L 212.159361 211.409727 
L 210.791116 212.008818 
L 209.424893 212.504898 
L 208.058165 212.921452 
L 206.691436 213.27468 
L 205.323192 213.577197 
L 203.956463 213.837749 
L 202.589735 214.064013 
L 201.223007 214.261752 
L 199.856784 214.435501 
L 198.491572 214.588933 
L 197.124844 214.725329 
L 195.758115 214.846983 
L 194.391387 214.955938 
L 193.026175 215.053795 
L 191.659447 215.142195 
L 190.29474 215.222115 
L 188.928012 215.29481 
L 187.5628 215.360958 
L 186.196072 215.421447 
L 184.83086 215.476786 
L 183.466153 215.527577 
L 182.100941 215.574339 
L 180.735729 215.617469 
L 179.370517 215.657333 
L 178.005305 215.694251 
L 176.640599 215.728495 
L 175.275387 215.760338 
L 173.910175 215.789989 
L 172.544963 215.817643 
L 171.181267 215.843448 
L 169.816561 215.867609 
L 168.451349 215.890254 
L 167.087653 215.911475 
L 165.722441 215.931433 
L 164.358746 215.950186 
L 162.994039 215.967859 
L 161.630343 215.984511 
L 160.266648 216.000229 
L 158.902952 216.015083 
L 157.539762 216.029129 
L 156.17455 216.042448 
L 154.810854 216.055058 
L 153.448675 216.067009 
L 152.085485 216.078366 
L 150.721789 216.089163 
L 149.358094 216.099434 
L 147.994398 216.109211 
L 146.632724 216.118512 
L 145.269029 216.127394 
L 143.905333 216.135869 
L 142.543154 216.143953 
L 141.179963 216.151683 
L 139.817784 216.159068 
L 138.455605 216.166135 
L 137.091909 216.172909 
L 135.730235 216.179389 
L 134.368056 216.185602 
L 133.005877 216.191562 
L 131.644203 216.19728 
L 130.282024 216.202773 
L 128.919844 216.20805 
L 127.558171 216.213121 
L 126.195991 216.218 
L 124.833812 216.222695 
L 123.473655 216.227208 
L 122.111475 216.231561 
L 120.749296 216.235756 
L 119.388633 216.239796 
L 118.026959 216.243696 
L 116.666296 216.247455 
L 115.305633 216.251084 
L 113.943959 216.254592 
L 112.583297 216.257978 
L 111.222634 216.26125 
L 109.862476 216.264413 
L 108.501813 216.267473 
L 107.141656 216.270433 
L 105.780993 216.2733 
L 104.42033 216.276075 
L 103.060172 216.278762 
L 101.699509 216.281366 
L 100.338846 216.28389 
L 98.980205 216.286334 
L 97.619542 216.288708 
L 96.260396 216.291008 
L 94.900238 216.293242 
L 93.541092 216.295409 
L 92.180934 216.297515 
L 90.821787 216.299559 
L 89.462641 216.301544 
L 88.102483 216.303476 
L 86.743337 216.305352 
L 85.38419 216.307176 
L 84.025549 216.308949 
L 82.666402 216.310676 
L 81.307761 216.312355 
L 79.948615 216.31399 
L 78.589468 216.315581 
L 77.232343 216.317129 
L 75.873197 216.318639 
L 74.514555 216.320109 
L 73.156925 216.321541 
L 71.798284 216.322938 
L 70.440654 216.324299 
L 69.081507 216.325627 
L 67.724382 216.326921 
L 66.366752 216.328183 
L 65.008111 216.329416 
L 63.650481 216.330618 
L 62.293356 216.331791 
L 60.935726 216.332937 
L 59.578601 216.334055 
L 58.22097 216.335148 
L 56.86334 216.336216 
L 55.506215 216.337258 
L 54.148585 216.338277 
L 52.792977 216.339272 
L 51.435346 216.340246 
L 50.078222 216.341198 
L 48.722108 216.342128 
L 47.364983 216.343038 
L 46.008869 216.343928 
L 44.651744 216.344799 
L 43.29563 216.345651 
z
" clip-path="url(#p03e5d76ab2)" style="fill: #1f77b4; fill-opacity: 0.25"/>
   </g>
   <g id="PolyCollection_2">
    <path d="M 43.29563 215.570877 
L 43.29563 216.404326 
L 44.651744 216.404326 
L 46.008869 216.404326 
L 47.364983 216.404326 
L 48.722108 216.404326 
L 50.078222 216.404326 
L 51.435346 216.404326 
L 52.792977 216.404326 
L 54.148585 216.404326 
L 55.506215 216.404326 
L 56.86334 216.404326 
L 58.22097 216.404326 
L 59.578601 216.404326 
L 60.935726 216.404326 
L 62.293356 216.404326 
L 63.650481 216.404326 
L 65.008111 216.404326 
L 66.366752 216.404326 
L 67.724382 216.404326 
L 69.081507 216.404326 
L 70.440654 216.404326 
L 71.798284 216.404326 
L 73.156925 216.404326 
L 74.514555 216.404326 
L 75.873197 216.404326 
L 77.232343 216.404326 
L 78.589468 216.404326 
L 79.948615 216.404326 
L 81.307761 216.404326 
L 82.666402 216.404326 
L 84.025549 216.404326 
L 85.38419 216.404326 
L 86.743337 216.404326 
L 88.102483 216.404326 
L 89.462641 216.404326 
L 90.821787 216.404326 
L 92.180934 216.404326 
L 93.541092 216.404326 
L 94.900238 216.404326 
L 96.260396 216.404326 
L 97.619542 216.404326 
L 98.980205 216.404326 
L 100.338846 216.404326 
L 101.699509 216.404326 
L 103.060172 216.404326 
L 104.42033 216.404326 
L 105.780993 216.404326 
L 107.141656 216.404326 
L 108.501813 216.404326 
L 109.862476 216.404326 
L 111.222634 216.404326 
L 112.583297 216.404326 
L 113.943959 216.404326 
L 115.305633 216.404326 
L 116.666296 216.404326 
L 118.026959 216.404326 
L 119.388633 216.404326 
L 120.749296 216.404326 
L 122.111475 216.404326 
L 123.473655 216.404326 
L 124.833812 216.404326 
L 126.195991 216.404326 
L 127.558171 216.404326 
L 128.919844 216.404326 
L 130.282024 216.404326 
L 131.644203 216.404326 
L 133.005877 216.404326 
L 134.368056 216.404326 
L 135.730235 216.404326 
L 137.091909 216.404326 
L 138.455605 216.404326 
L 139.817784 216.404326 
L 141.179963 216.404326 
L 142.543154 216.404326 
L 143.905333 216.404326 
L 145.269029 216.404326 
L 146.632724 216.404326 
L 147.994398 216.404326 
L 149.358094 216.404326 
L 150.721789 216.404326 
L 152.085485 216.404326 
L 153.448675 216.404326 
L 154.810854 216.404326 
L 156.17455 216.404326 
L 157.539762 216.404326 
L 158.902952 216.404326 
L 160.266648 216.404326 
L 161.630343 216.404326 
L 162.994039 216.404326 
L 164.358746 216.404326 
L 165.722441 216.404326 
L 167.087653 216.404326 
L 168.451349 216.404326 
L 169.816561 216.404326 
L 171.181267 216.404326 
L 172.544963 216.404326 
L 173.910175 216.404326 
L 175.275387 216.404326 
L 176.640599 216.404326 
L 178.005305 216.404326 
L 179.370517 216.404326 
L 180.735729 216.404326 
L 182.100941 216.404326 
L 183.466153 216.404326 
L 184.83086 216.404326 
L 186.196072 216.404326 
L 187.5628 216.404326 
L 188.928012 216.404326 
L 190.29474 216.404326 
L 191.659447 216.404326 
L 193.026175 216.404326 
L 194.391387 216.404326 
L 195.758115 216.404326 
L 197.124844 216.404326 
L 198.491572 216.404326 
L 199.856784 216.404326 
L 201.223007 216.404326 
L 202.589735 216.404326 
L 203.956463 216.404326 
L 205.323192 216.404326 
L 206.691436 216.404326 
L 208.058165 216.404326 
L 209.424893 216.404326 
L 210.791116 216.404326 
L 212.159361 216.404326 
L 213.526089 216.404326 
L 214.894333 216.404326 
L 216.261062 216.404326 
L 217.629306 216.404326 
L 218.996035 216.404326 
L 220.364279 216.404326 
L 221.732524 216.404326 
L 223.100263 216.404326 
L 224.468508 216.404326 
L 225.836753 216.404326 
L 227.204997 216.404326 
L 228.573242 216.404326 
L 229.941486 216.404326 
L 231.309731 216.404326 
L 232.677976 216.404326 
L 234.04622 216.404326 
L 235.415981 216.404326 
L 236.784226 216.404326 
L 238.153987 216.404326 
L 239.521726 216.404326 
L 240.891487 216.404326 
L 242.259732 216.404326 
L 243.629493 216.404326 
L 244.999254 216.404326 
L 246.369015 216.404326 
L 247.73726 216.404326 
L 249.10702 216.404326 
L 250.476781 216.404326 
L 251.846542 216.404326 
L 253.216303 216.404326 
L 254.587581 216.404326 
L 255.957342 216.404326 
L 257.327103 216.404326 
L 258.696864 216.404326 
L 260.068141 216.404326 
L 261.437902 216.404326 
L 262.809179 216.404326 
L 264.17894 216.404326 
L 265.550218 216.404326 
L 266.919979 216.404326 
L 268.291256 216.404326 
L 269.662533 216.404326 
L 271.033811 216.404326 
L 272.405088 216.404326 
L 273.776365 216.404326 
L 275.147643 216.404326 
L 276.51892 216.404326 
L 277.890197 216.404326 
L 279.261475 216.404326 
L 280.632752 216.404326 
L 282.005546 216.404326 
L 283.376823 216.404326 
L 284.7481 216.404326 
L 286.120894 216.404326 
L 287.492171 216.404326 
L 288.864965 216.404326 
L 290.237759 216.404326 
L 291.609036 216.404326 
L 292.98183 216.404326 
L 294.354623 216.404326 
L 295.727417 216.404326 
L 297.100211 216.404326 
L 298.47351 216.404326 
L 299.846303 216.404326 
L 301.219097 216.404326 
L 302.591891 216.404326 
L 303.964684 216.404326 
L 305.337478 216.404326 
L 306.711788 216.404326 
L 308.084582 216.404326 
L 309.458892 216.404326 
L 310.831686 216.404326 
L 312.205996 216.404326 
L 313.578789 216.404326 
L 314.953605 216.404326 
L 316.327915 216.404326 
L 317.700708 216.404326 
L 319.075018 216.404326 
L 320.449328 216.404326 
L 320.449328 216.280618 
L 320.449328 216.280618 
L 319.075018 216.278576 
L 317.700708 216.276481 
L 316.327915 216.274333 
L 314.953605 216.272127 
L 313.578789 216.269862 
L 312.205996 216.26754 
L 310.831686 216.265152 
L 309.458892 216.262702 
L 308.084582 216.260182 
L 306.711788 216.257595 
L 305.337478 216.254931 
L 303.964684 216.252195 
L 302.591891 216.249381 
L 301.219097 216.246485 
L 299.846303 216.243504 
L 298.47351 216.240434 
L 297.100211 216.237271 
L 295.727417 216.234014 
L 294.354623 216.230656 
L 292.98183 216.227195 
L 291.609036 216.223624 
L 290.237759 216.219944 
L 288.864965 216.216141 
L 287.492171 216.212215 
L 286.120894 216.208163 
L 284.7481 216.203972 
L 283.376823 216.199643 
L 282.005546 216.195167 
L 280.632752 216.190529 
L 279.261475 216.185734 
L 277.890197 216.180768 
L 276.51892 216.175622 
L 275.147643 216.170287 
L 273.776365 216.164754 
L 272.405088 216.159012 
L 271.033811 216.15305 
L 269.662533 216.146856 
L 268.291256 216.140417 
L 266.919979 216.13372 
L 265.550218 216.126757 
L 264.17894 216.119498 
L 262.809179 216.111942 
L 261.437902 216.104054 
L 260.068141 216.095831 
L 258.696864 216.087233 
L 257.327103 216.078258 
L 255.957342 216.06887 
L 254.587581 216.059042 
L 253.216303 216.048734 
L 251.846542 216.037936 
L 250.476781 216.026601 
L 249.10702 216.014691 
L 247.73726 216.002165 
L 246.369015 215.988991 
L 244.999254 215.975089 
L 243.629493 215.960418 
L 242.259732 215.944915 
L 240.891487 215.928531 
L 239.521726 215.911154 
L 238.153987 215.892743 
L 236.784226 215.87315 
L 235.415981 215.852318 
L 234.04622 215.830082 
L 232.677976 215.806355 
L 231.309731 215.78096 
L 229.941486 215.753722 
L 228.573242 215.724442 
L 227.204997 215.692889 
L 225.836753 215.658798 
L 224.468508 215.621857 
L 223.100263 215.581705 
L 221.732524 215.537928 
L 220.364279 215.489984 
L 218.996035 215.437274 
L 217.629306 215.379121 
L 216.261062 215.314479 
L 214.894333 215.242353 
L 213.526089 215.161136 
L 212.159361 215.069144 
L 210.791116 214.963707 
L 209.424893 214.841769 
L 208.058165 214.698457 
L 206.691436 214.526987 
L 205.323192 214.316631 
L 203.956463 214.050723 
L 202.589735 213.698727 
L 201.223007 213.20101 
L 199.856784 212.423474 
L 198.491572 211.004316 
L 197.124844 207.716243 
L 195.758115 198.595154 
L 194.391387 195.071754 
L 193.026175 203.38567 
L 191.659447 203.61104 
L 190.29474 196.910811 
L 188.928012 195.515779 
L 187.5628 200.693428 
L 186.196072 200.114835 
L 184.83086 195.630211 
L 183.466153 186.929147 
L 182.100941 174.164881 
L 180.735729 165.586754 
L 179.370517 169.462739 
L 178.005305 174.317695 
L 176.640599 171.045698 
L 175.275387 158.985728 
L 173.910175 148.710783 
L 172.544963 157.793047 
L 171.181267 175.371496 
L 169.816561 187.807404 
L 168.451349 194.654649 
L 167.087653 197.850746 
L 165.722441 198.375157 
L 164.358746 195.964813 
L 162.994039 188.4374 
L 161.630343 170.931111 
L 160.266648 155.120815 
L 158.902952 171.781974 
L 157.539762 186.144893 
L 156.17455 190.235589 
L 154.810854 187.904253 
L 153.448675 179.264918 
L 152.085485 161.402777 
L 150.721789 135.312765 
L 149.358094 127.158948 
L 147.994398 144.700752 
L 146.632724 153.975613 
L 145.269029 141.12808 
L 143.905333 102.803496 
L 142.543154 97.718171 
L 141.179963 144.866402 
L 139.817784 174.575169 
L 138.455605 188.122667 
L 137.091909 194.209471 
L 135.730235 196.337398 
L 134.368056 195.429864 
L 133.005877 190.648904 
L 131.644203 178.361399 
L 130.282024 148.843449 
L 128.919844 102.926501 
L 127.558171 121.99574 
L 126.195991 164.883944 
L 124.833812 184.13916 
L 123.473655 188.541879 
L 122.111475 179.228243 
L 120.749296 187.688518 
L 119.388633 197.218163 
L 118.026959 198.450663 
L 116.666296 195.426244 
L 115.305633 187.296474 
L 113.943959 170.595944 
L 112.583297 148.815884 
L 111.222634 152.422975 
L 109.862476 174.521008 
L 108.501813 188.518804 
L 107.141656 193.962557 
L 105.780993 192.53493 
L 104.42033 180.185006 
L 103.060172 158.04031 
L 101.699509 176.511009 
L 100.338846 195.065986 
L 98.980205 202.056365 
L 97.619542 204.671999 
L 96.260396 205.375977 
L 94.900238 204.868504 
L 93.541092 203.174086 
L 92.180934 199.814751 
L 90.821787 193.529912 
L 89.462641 181.308133 
L 88.102483 156.79723 
L 86.743337 119.255847 
L 85.38419 115.061824 
L 84.025549 143.403522 
L 82.666402 153.602364 
L 81.307761 147.447832 
L 79.948615 153.982481 
L 78.589468 175.598184 
L 77.232343 191.086549 
L 75.873197 199.659294 
L 74.514555 204.517141 
L 73.156925 207.476806 
L 71.798284 209.409103 
L 70.440654 210.740422 
L 69.081507 211.701012 
L 67.724382 212.417472 
L 66.366752 212.968774 
L 65.008111 213.403462 
L 63.650481 213.75271 
L 62.293356 214.038336 
L 60.935726 214.2756 
L 59.578601 214.475097 
L 58.22097 214.644872 
L 56.86334 214.790742 
L 55.506215 214.917145 
L 54.148585 215.027633 
L 52.792977 215.124725 
L 51.435346 215.210854 
L 50.078222 215.287557 
L 48.722108 215.356208 
L 47.364983 215.418044 
L 46.008869 215.473909 
L 44.651744 215.524662 
L 43.29563 215.570877 
z
" clip-path="url(#p03e5d76ab2)" style="fill: #ff7f0e; fill-opacity: 0.25"/>
   </g>
   <g id="line2d_1">
    <path d="M 43.29563 216.404326 
L 48.722108 216.404326 
L 50.078222 215.407102 
L 51.435346 207.839254 
L 52.792977 197.542297 
L 54.148585 185.313062 
L 55.506215 181.491244 
L 56.86334 182.978876 
L 59.578601 216.404326 
L 66.366752 216.404326 
L 67.724382 202.815612 
L 69.081507 179.722321 
L 70.440654 188.372622 
L 71.798284 216.404326 
L 75.873197 216.404326 
L 77.232343 211.265659 
L 78.589468 188.039394 
L 79.948615 156.55543 
L 81.307761 151.068503 
L 82.666402 149.298983 
L 84.025549 150.410098 
L 85.38419 123.118547 
L 86.743337 116.291507 
L 88.102483 132.035583 
L 90.821787 208.010638 
L 92.180934 216.404326 
L 100.338846 216.404326 
L 101.699509 181.562014 
L 103.060172 163.262967 
L 104.42033 167.611492 
L 107.141656 204.880436 
L 108.501813 200.704045 
L 109.862476 176.497624 
L 111.222634 156.036611 
L 112.583297 150.298987 
L 113.943959 160.073771 
L 115.305633 174.541782 
L 116.666296 196.325071 
L 118.026959 210.668265 
L 119.388633 204.579957 
L 120.749296 189.046714 
L 122.111475 179.297553 
L 123.473655 184.150426 
L 124.833812 189.823808 
L 126.195991 178.183091 
L 127.558171 134.673497 
L 128.919844 105.078666 
L 130.282024 121.929218 
L 131.644203 174.756852 
L 133.005877 216.104283 
L 134.368056 216.404326 
L 135.730235 211.217859 
L 137.091909 201.385204 
L 138.455605 201.154959 
L 139.817784 194.582001 
L 142.543154 110.386745 
L 143.905333 96.338521 
L 146.632724 148.893502 
L 147.994398 149.482017 
L 149.358094 134.54148 
L 150.721789 127.756106 
L 153.448675 171.624087 
L 154.810854 185.206219 
L 156.17455 193.588875 
L 157.539762 194.243869 
L 160.266648 158.10974 
L 161.630343 163.12274 
L 162.994039 180.700001 
L 164.358746 193.705836 
L 165.722441 192.61617 
L 167.087653 190.623766 
L 168.451349 196.62339 
L 169.816561 200.442215 
L 171.181267 184.194857 
L 172.544963 159.525799 
L 173.910175 147.775506 
L 175.275387 157.867378 
L 176.640599 165.909319 
L 178.005305 164.479193 
L 179.370517 171.39719 
L 180.735729 171.615316 
L 182.100941 164.342185 
L 183.466153 176.443013 
L 184.83086 197.80316 
L 186.196072 204.300466 
L 187.5628 200.26093 
L 188.928012 195.288848 
L 190.29474 193.69928 
L 191.659447 199.518082 
L 193.026175 201.522427 
L 194.391387 198.604384 
L 195.758115 192.173441 
L 197.124844 203.695386 
L 198.491572 213.232137 
L 199.856784 216.404326 
L 209.424893 216.404326 
L 210.791116 215.636714 
L 212.159361 213.832113 
L 213.526089 211.618867 
L 214.894333 208.650128 
L 216.261062 209.125267 
L 217.629306 208.068804 
L 218.996035 209.131859 
L 220.364279 210.810644 
L 221.732524 202.124017 
L 224.468508 169.546674 
L 225.836753 170.360743 
L 227.204997 179.686803 
L 228.573242 177.240548 
L 229.941486 168.325042 
L 231.309731 173.784118 
L 232.677976 173.564586 
L 234.04622 165.788235 
L 235.415981 175.649516 
L 236.784226 210.60428 
L 238.153987 216.404326 
L 287.492171 216.404326 
L 288.864965 214.90576 
L 290.237759 110.28683 
L 291.206262 -1 
M 300.445519 -1 
L 301.219097 216.404326 
L 303.964684 216.404326 
L 305.337478 203.980742 
L 306.711788 201.018932 
L 308.084582 216.404326 
L 314.953605 216.404326 
L 316.327915 208.094944 
L 317.700708 216.404326 
L 320.449328 216.404326 
L 320.449328 216.404326 
" clip-path="url(#p03e5d76ab2)" style="fill: none; stroke: #1f77b4; stroke-width: 1.5; stroke-linecap: square"/>
    <defs>
     <path id="m54ce7b1704" d="M 0 1.5 
C 0.397805 1.5 0.77937 1.341951 1.06066 1.06066 
C 1.341951 0.77937 1.5 0.397805 1.5 0 
C 1.5 -0.397805 1.341951 -0.77937 1.06066 -1.06066 
C 0.77937 -1.341951 0.397805 -1.5 0 -1.5 
C -0.397805 -1.5 -0.77937 -1.341951 -1.06066 -1.06066 
C -1.341951 -0.77937 -1.5 -0.397805 -1.5 0 
C -1.5 0.397805 -1.341951 0.77937 -1.06066 1.06066 
C -0.77937 1.341951 -0.397805 1.5 0 1.5 
z
" style="stroke: #1f77b4"/>
    </defs>
    <g clip-path="url(#p03e5d76ab2)">
     <use xlink:href="#m54ce7b1704" x="43.29563" y="216.404326" style="fill-opacity: 0; stroke: #1f77b4"/>
     <use xlink:href="#m54ce7b1704" x="44.651744" y="216.404326" style="fill-opacity: 0; stroke: #1f77b4"/>
     <use xlink:href="#m54ce7b1704" x="46.008869" y="216.404326" style="fill-opacity: 0; stroke: #1f77b4"/>
     <use xlink:href="#m54ce7b1704" x="47.364983" y="216.404326" style="fill-opacity: 0; stroke: #1f77b4"/>
     <use xlink:href="#m54ce7b1704" x="48.722108" y="216.404326" style="fill-opacity: 0; stroke: #1f77b4"/>
     <use xlink:href="#m54ce7b1704" x="50.078222" y="215.407102" style="fill-opacity: 0; stroke: #1f77b4"/>
     <use xlink:href="#m54ce7b1704" x="51.435346" y="207.839254" style="fill-opacity: 0; stroke: #1f77b4"/>
     <use xlink:href="#m54ce7b1704" x="52.792977" y="197.542297" style="fill-opacity: 0; stroke: #1f77b4"/>
     <use xlink:href="#m54ce7b1704" x="54.148585" y="185.313062" style="fill-opacity: 0; stroke: #1f77b4"/>
     <use xlink:href="#m54ce7b1704" x="55.506215" y="181.491244" style="fill-opacity: 0; stroke: #1f77b4"/>
     <use xlink:href="#m54ce7b1704" x="56.86334" y="182.978876" style="fill-opacity: 0; stroke: #1f77b4"/>
     <use xlink:href="#m54ce7b1704" x="58.22097" y="199.668154" style="fill-opacity: 0; stroke: #1f77b4"/>
     <use xlink:href="#m54ce7b1704" x="59.578601" y="216.404326" style="fill-opacity: 0; stroke: #1f77b4"/>
     <use xlink:href="#m54ce7b1704" x="60.935726" y="216.404326" style="fill-opacity: 0; stroke: #1f77b4"/>
     <use xlink:href="#m54ce7b1704" x="62.293356" y="216.404326" style="fill-opacity: 0; stroke: #1f77b4"/>
     <use xlink:href="#m54ce7b1704" x="63.650481" y="216.404326" style="fill-opacity: 0; stroke: #1f77b4"/>
     <use xlink:href="#m54ce7b1704" x="65.008111" y="216.404326" style="fill-opacity: 0; stroke: #1f77b4"/>
     <use xlink:href="#m54ce7b1704" x="66.366752" y="216.404326" style="fill-opacity: 0; stroke: #1f77b4"/>
     <use xlink:href="#m54ce7b1704" x="67.724382" y="202.815612" style="fill-opacity: 0; stroke: #1f77b4"/>
     <use xlink:href="#m54ce7b1704" x="69.081507" y="179.722321" style="fill-opacity: 0; stroke: #1f77b4"/>
     <use xlink:href="#m54ce7b1704" x="70.440654" y="188.372622" style="fill-opacity: 0; stroke: #1f77b4"/>
     <use xlink:href="#m54ce7b1704" x="71.798284" y="216.404326" style="fill-opacity: 0; stroke: #1f77b4"/>
     <use xlink:href="#m54ce7b1704" x="73.156925" y="216.404326" style="fill-opacity: 0; stroke: #1f77b4"/>
     <use xlink:href="#m54ce7b1704" x="74.514555" y="216.404326" style="fill-opacity: 0; stroke: #1f77b4"/>
     <use xlink:href="#m54ce7b1704" x="75.873197" y="216.404326" style="fill-opacity: 0; stroke: #1f77b4"/>
     <use xlink:href="#m54ce7b1704" x="77.232343" y="211.265659" style="fill-opacity: 0; stroke: #1f77b4"/>
     <use xlink:href="#m54ce7b1704" x="78.589468" y="188.039394" style="fill-opacity: 0; stroke: #1f77b4"/>
     <use xlink:href="#m54ce7b1704" x="79.948615" y="156.55543" style="fill-opacity: 0; stroke: #1f77b4"/>
     <use xlink:href="#m54ce7b1704" x="81.307761" y="151.068503" style="fill-opacity: 0; stroke: #1f77b4"/>
     <use xlink:href="#m54ce7b1704" x="82.666402" y="149.298983" style="fill-opacity: 0; stroke: #1f77b4"/>
     <use xlink:href="#m54ce7b1704" x="84.025549" y="150.410098" style="fill-opacity: 0; stroke: #1f77b4"/>
     <use xlink:href="#m54ce7b1704" x="85.38419" y="123.118547" style="fill-opacity: 0; stroke: #1f77b4"/>
     <use xlink:href="#m54ce7b1704" x="86.743337" y="116.291507" style="fill-opacity: 0; stroke: #1f77b4"/>
     <use xlink:href="#m54ce7b1704" x="88.102483" y="132.035583" style="fill-opacity: 0; stroke: #1f77b4"/>
     <use xlink:href="#m54ce7b1704" x="89.462641" y="171.240469" style="fill-opacity: 0; stroke: #1f77b4"/>
     <use xlink:href="#m54ce7b1704" x="90.821787" y="208.010638" style="fill-opacity: 0; stroke: #1f77b4"/>
     <use xlink:href="#m54ce7b1704" x="92.180934" y="216.404326" style="fill-opacity: 0; stroke: #1f77b4"/>
     <use xlink:href="#m54ce7b1704" x="93.541092" y="216.404326" style="fill-opacity: 0; stroke: #1f77b4"/>
     <use xlink:href="#m54ce7b1704" x="94.900238" y="216.404326" style="fill-opacity: 0; stroke: #1f77b4"/>
     <use xlink:href="#m54ce7b1704" x="96.260396" y="216.404326" style="fill-opacity: 0; stroke: #1f77b4"/>
     <use xlink:href="#m54ce7b1704" x="97.619542" y="216.404326" style="fill-opacity: 0; stroke: #1f77b4"/>
     <use xlink:href="#m54ce7b1704" x="98.980205" y="216.404326" style="fill-opacity: 0; stroke: #1f77b4"/>
     <use xlink:href="#m54ce7b1704" x="100.338846" y="216.404326" style="fill-opacity: 0; stroke: #1f77b4"/>
     <use xlink:href="#m54ce7b1704" x="101.699509" y="181.562014" style="fill-opacity: 0; stroke: #1f77b4"/>
     <use xlink:href="#m54ce7b1704" x="103.060172" y="163.262967" style="fill-opacity: 0; stroke: #1f77b4"/>
     <use xlink:href="#m54ce7b1704" x="104.42033" y="167.611492" style="fill-opacity: 0; stroke: #1f77b4"/>
     <use xlink:href="#m54ce7b1704" x="105.780993" y="186.514638" style="fill-opacity: 0; stroke: #1f77b4"/>
     <use xlink:href="#m54ce7b1704" x="107.141656" y="204.880436" style="fill-opacity: 0; stroke: #1f77b4"/>
     <use xlink:href="#m54ce7b1704" x="108.501813" y="200.704045" style="fill-opacity: 0; stroke: #1f77b4"/>
     <use xlink:href="#m54ce7b1704" x="109.862476" y="176.497624" style="fill-opacity: 0; stroke: #1f77b4"/>
     <use xlink:href="#m54ce7b1704" x="111.222634" y="156.036611" style="fill-opacity: 0; stroke: #1f77b4"/>
     <use xlink:href="#m54ce7b1704" x="112.583297" y="150.298987" style="fill-opacity: 0; stroke: #1f77b4"/>
     <use xlink:href="#m54ce7b1704" x="113.943959" y="160.073771" style="fill-opacity: 0; stroke: #1f77b4"/>
     <use xlink:href="#m54ce7b1704" x="115.305633" y="174.541782" style="fill-opacity: 0; stroke: #1f77b4"/>
     <use xlink:href="#m54ce7b1704" x="116.666296" y="196.325071" style="fill-opacity: 0; stroke: #1f77b4"/>
     <use xlink:href="#m54ce7b1704" x="118.026959" y="210.668265" style="fill-opacity: 0; stroke: #1f77b4"/>
     <use xlink:href="#m54ce7b1704" x="119.388633" y="204.579957" style="fill-opacity: 0; stroke: #1f77b4"/>
     <use xlink:href="#m54ce7b1704" x="120.749296" y="189.046714" style="fill-opacity: 0; stroke: #1f77b4"/>
     <use xlink:href="#m54ce7b1704" x="122.111475" y="179.297553" style="fill-opacity: 0; stroke: #1f77b4"/>
     <use xlink:href="#m54ce7b1704" x="123.473655" y="184.150426" style="fill-opacity: 0; stroke: #1f77b4"/>
     <use xlink:href="#m54ce7b1704" x="124.833812" y="189.823808" style="fill-opacity: 0; stroke: #1f77b4"/>
     <use xlink:href="#m54ce7b1704" x="126.195991" y="178.183091" style="fill-opacity: 0; stroke: #1f77b4"/>
     <use xlink:href="#m54ce7b1704" x="127.558171" y="134.673497" style="fill-opacity: 0; stroke: #1f77b4"/>
     <use xlink:href="#m54ce7b1704" x="128.919844" y="105.078666" style="fill-opacity: 0; stroke: #1f77b4"/>
     <use xlink:href="#m54ce7b1704" x="130.282024" y="121.929218" style="fill-opacity: 0; stroke: #1f77b4"/>
     <use xlink:href="#m54ce7b1704" x="131.644203" y="174.756852" style="fill-opacity: 0; stroke: #1f77b4"/>
     <use xlink:href="#m54ce7b1704" x="133.005877" y="216.104283" style="fill-opacity: 0; stroke: #1f77b4"/>
     <use xlink:href="#m54ce7b1704" x="134.368056" y="216.404326" style="fill-opacity: 0; stroke: #1f77b4"/>
     <use xlink:href="#m54ce7b1704" x="135.730235" y="211.217859" style="fill-opacity: 0; stroke: #1f77b4"/>
     <use xlink:href="#m54ce7b1704" x="137.091909" y="201.385204" style="fill-opacity: 0; stroke: #1f77b4"/>
     <use xlink:href="#m54ce7b1704" x="138.455605" y="201.154959" style="fill-opacity: 0; stroke: #1f77b4"/>
     <use xlink:href="#m54ce7b1704" x="139.817784" y="194.582001" style="fill-opacity: 0; stroke: #1f77b4"/>
     <use xlink:href="#m54ce7b1704" x="141.179963" y="153.987929" style="fill-opacity: 0; stroke: #1f77b4"/>
     <use xlink:href="#m54ce7b1704" x="142.543154" y="110.386745" style="fill-opacity: 0; stroke: #1f77b4"/>
     <use xlink:href="#m54ce7b1704" x="143.905333" y="96.338521" style="fill-opacity: 0; stroke: #1f77b4"/>
     <use xlink:href="#m54ce7b1704" x="145.269029" y="122.176608" style="fill-opacity: 0; stroke: #1f77b4"/>
     <use xlink:href="#m54ce7b1704" x="146.632724" y="148.893502" style="fill-opacity: 0; stroke: #1f77b4"/>
     <use xlink:href="#m54ce7b1704" x="147.994398" y="149.482017" style="fill-opacity: 0; stroke: #1f77b4"/>
     <use xlink:href="#m54ce7b1704" x="149.358094" y="134.54148" style="fill-opacity: 0; stroke: #1f77b4"/>
     <use xlink:href="#m54ce7b1704" x="150.721789" y="127.756106" style="fill-opacity: 0; stroke: #1f77b4"/>
     <use xlink:href="#m54ce7b1704" x="152.085485" y="149.108775" style="fill-opacity: 0; stroke: #1f77b4"/>
     <use xlink:href="#m54ce7b1704" x="153.448675" y="171.624087" style="fill-opacity: 0; stroke: #1f77b4"/>
     <use xlink:href="#m54ce7b1704" x="154.810854" y="185.206219" style="fill-opacity: 0; stroke: #1f77b4"/>
     <use xlink:href="#m54ce7b1704" x="156.17455" y="193.588875" style="fill-opacity: 0; stroke: #1f77b4"/>
     <use xlink:href="#m54ce7b1704" x="157.539762" y="194.243869" style="fill-opacity: 0; stroke: #1f77b4"/>
     <use xlink:href="#m54ce7b1704" x="158.902952" y="176.113209" style="fill-opacity: 0; stroke: #1f77b4"/>
     <use xlink:href="#m54ce7b1704" x="160.266648" y="158.10974" style="fill-opacity: 0; stroke: #1f77b4"/>
     <use xlink:href="#m54ce7b1704" x="161.630343" y="163.12274" style="fill-opacity: 0; stroke: #1f77b4"/>
     <use xlink:href="#m54ce7b1704" x="162.994039" y="180.700001" style="fill-opacity: 0; stroke: #1f77b4"/>
     <use xlink:href="#m54ce7b1704" x="164.358746" y="193.705836" style="fill-opacity: 0; stroke: #1f77b4"/>
     <use xlink:href="#m54ce7b1704" x="165.722441" y="192.61617" style="fill-opacity: 0; stroke: #1f77b4"/>
     <use xlink:href="#m54ce7b1704" x="167.087653" y="190.623766" style="fill-opacity: 0; stroke: #1f77b4"/>
     <use xlink:href="#m54ce7b1704" x="168.451349" y="196.62339" style="fill-opacity: 0; stroke: #1f77b4"/>
     <use xlink:href="#m54ce7b1704" x="169.816561" y="200.442215" style="fill-opacity: 0; stroke: #1f77b4"/>
     <use xlink:href="#m54ce7b1704" x="171.181267" y="184.194857" style="fill-opacity: 0; stroke: #1f77b4"/>
     <use xlink:href="#m54ce7b1704" x="172.544963" y="159.525799" style="fill-opacity: 0; stroke: #1f77b4"/>
     <use xlink:href="#m54ce7b1704" x="173.910175" y="147.775506" style="fill-opacity: 0; stroke: #1f77b4"/>
     <use xlink:href="#m54ce7b1704" x="175.275387" y="157.867378" style="fill-opacity: 0; stroke: #1f77b4"/>
     <use xlink:href="#m54ce7b1704" x="176.640599" y="165.909319" style="fill-opacity: 0; stroke: #1f77b4"/>
     <use xlink:href="#m54ce7b1704" x="178.005305" y="164.479193" style="fill-opacity: 0; stroke: #1f77b4"/>
     <use xlink:href="#m54ce7b1704" x="179.370517" y="171.39719" style="fill-opacity: 0; stroke: #1f77b4"/>
     <use xlink:href="#m54ce7b1704" x="180.735729" y="171.615316" style="fill-opacity: 0; stroke: #1f77b4"/>
     <use xlink:href="#m54ce7b1704" x="182.100941" y="164.342185" style="fill-opacity: 0; stroke: #1f77b4"/>
     <use xlink:href="#m54ce7b1704" x="183.466153" y="176.443013" style="fill-opacity: 0; stroke: #1f77b4"/>
     <use xlink:href="#m54ce7b1704" x="184.83086" y="197.80316" style="fill-opacity: 0; stroke: #1f77b4"/>
     <use xlink:href="#m54ce7b1704" x="186.196072" y="204.300466" style="fill-opacity: 0; stroke: #1f77b4"/>
     <use xlink:href="#m54ce7b1704" x="187.5628" y="200.26093" style="fill-opacity: 0; stroke: #1f77b4"/>
     <use xlink:href="#m54ce7b1704" x="188.928012" y="195.288848" style="fill-opacity: 0; stroke: #1f77b4"/>
     <use xlink:href="#m54ce7b1704" x="190.29474" y="193.69928" style="fill-opacity: 0; stroke: #1f77b4"/>
     <use xlink:href="#m54ce7b1704" x="191.659447" y="199.518082" style="fill-opacity: 0; stroke: #1f77b4"/>
     <use xlink:href="#m54ce7b1704" x="193.026175" y="201.522427" style="fill-opacity: 0; stroke: #1f77b4"/>
     <use xlink:href="#m54ce7b1704" x="194.391387" y="198.604384" style="fill-opacity: 0; stroke: #1f77b4"/>
     <use xlink:href="#m54ce7b1704" x="195.758115" y="192.173441" style="fill-opacity: 0; stroke: #1f77b4"/>
     <use xlink:href="#m54ce7b1704" x="197.124844" y="203.695386" style="fill-opacity: 0; stroke: #1f77b4"/>
     <use xlink:href="#m54ce7b1704" x="198.491572" y="213.232137" style="fill-opacity: 0; stroke: #1f77b4"/>
     <use xlink:href="#m54ce7b1704" x="199.856784" y="216.404326" style="fill-opacity: 0; stroke: #1f77b4"/>
     <use xlink:href="#m54ce7b1704" x="201.223007" y="216.404326" style="fill-opacity: 0; stroke: #1f77b4"/>
     <use xlink:href="#m54ce7b1704" x="202.589735" y="216.404326" style="fill-opacity: 0; stroke: #1f77b4"/>
     <use xlink:href="#m54ce7b1704" x="203.956463" y="216.404326" style="fill-opacity: 0; stroke: #1f77b4"/>
     <use xlink:href="#m54ce7b1704" x="205.323192" y="216.404326" style="fill-opacity: 0; stroke: #1f77b4"/>
     <use xlink:href="#m54ce7b1704" x="206.691436" y="216.404326" style="fill-opacity: 0; stroke: #1f77b4"/>
     <use xlink:href="#m54ce7b1704" x="208.058165" y="216.404326" style="fill-opacity: 0; stroke: #1f77b4"/>
     <use xlink:href="#m54ce7b1704" x="209.424893" y="216.404326" style="fill-opacity: 0; stroke: #1f77b4"/>
     <use xlink:href="#m54ce7b1704" x="210.791116" y="215.636714" style="fill-opacity: 0; stroke: #1f77b4"/>
     <use xlink:href="#m54ce7b1704" x="212.159361" y="213.832113" style="fill-opacity: 0; stroke: #1f77b4"/>
     <use xlink:href="#m54ce7b1704" x="213.526089" y="211.618867" style="fill-opacity: 0; stroke: #1f77b4"/>
     <use xlink:href="#m54ce7b1704" x="214.894333" y="208.650128" style="fill-opacity: 0; stroke: #1f77b4"/>
     <use xlink:href="#m54ce7b1704" x="216.261062" y="209.125267" style="fill-opacity: 0; stroke: #1f77b4"/>
     <use xlink:href="#m54ce7b1704" x="217.629306" y="208.068804" style="fill-opacity: 0; stroke: #1f77b4"/>
     <use xlink:href="#m54ce7b1704" x="218.996035" y="209.131859" style="fill-opacity: 0; stroke: #1f77b4"/>
     <use xlink:href="#m54ce7b1704" x="220.364279" y="210.810644" style="fill-opacity: 0; stroke: #1f77b4"/>
     <use xlink:href="#m54ce7b1704" x="221.732524" y="202.124017" style="fill-opacity: 0; stroke: #1f77b4"/>
     <use xlink:href="#m54ce7b1704" x="223.100263" y="186.153433" style="fill-opacity: 0; stroke: #1f77b4"/>
     <use xlink:href="#m54ce7b1704" x="224.468508" y="169.546674" style="fill-opacity: 0; stroke: #1f77b4"/>
     <use xlink:href="#m54ce7b1704" x="225.836753" y="170.360743" style="fill-opacity: 0; stroke: #1f77b4"/>
     <use xlink:href="#m54ce7b1704" x="227.204997" y="179.686803" style="fill-opacity: 0; stroke: #1f77b4"/>
     <use xlink:href="#m54ce7b1704" x="228.573242" y="177.240548" style="fill-opacity: 0; stroke: #1f77b4"/>
     <use xlink:href="#m54ce7b1704" x="229.941486" y="168.325042" style="fill-opacity: 0; stroke: #1f77b4"/>
     <use xlink:href="#m54ce7b1704" x="231.309731" y="173.784118" style="fill-opacity: 0; stroke: #1f77b4"/>
     <use xlink:href="#m54ce7b1704" x="232.677976" y="173.564586" style="fill-opacity: 0; stroke: #1f77b4"/>
     <use xlink:href="#m54ce7b1704" x="234.04622" y="165.788235" style="fill-opacity: 0; stroke: #1f77b4"/>
     <use xlink:href="#m54ce7b1704" x="235.415981" y="175.649516" style="fill-opacity: 0; stroke: #1f77b4"/>
     <use xlink:href="#m54ce7b1704" x="236.784226" y="210.60428" style="fill-opacity: 0; stroke: #1f77b4"/>
     <use xlink:href="#m54ce7b1704" x="238.153987" y="216.404326" style="fill-opacity: 0; stroke: #1f77b4"/>
     <use xlink:href="#m54ce7b1704" x="239.521726" y="216.404326" style="fill-opacity: 0; stroke: #1f77b4"/>
     <use xlink:href="#m54ce7b1704" x="240.891487" y="216.404326" style="fill-opacity: 0; stroke: #1f77b4"/>
     <use xlink:href="#m54ce7b1704" x="242.259732" y="216.404326" style="fill-opacity: 0; stroke: #1f77b4"/>
     <use xlink:href="#m54ce7b1704" x="243.629493" y="216.404326" style="fill-opacity: 0; stroke: #1f77b4"/>
     <use xlink:href="#m54ce7b1704" x="244.999254" y="216.404326" style="fill-opacity: 0; stroke: #1f77b4"/>
     <use xlink:href="#m54ce7b1704" x="246.369015" y="216.404326" style="fill-opacity: 0; stroke: #1f77b4"/>
     <use xlink:href="#m54ce7b1704" x="247.73726" y="216.404326" style="fill-opacity: 0; stroke: #1f77b4"/>
     <use xlink:href="#m54ce7b1704" x="249.10702" y="216.404326" style="fill-opacity: 0; stroke: #1f77b4"/>
     <use xlink:href="#m54ce7b1704" x="250.476781" y="216.404326" style="fill-opacity: 0; stroke: #1f77b4"/>
     <use xlink:href="#m54ce7b1704" x="251.846542" y="216.404326" style="fill-opacity: 0; stroke: #1f77b4"/>
     <use xlink:href="#m54ce7b1704" x="253.216303" y="216.404326" style="fill-opacity: 0; stroke: #1f77b4"/>
     <use xlink:href="#m54ce7b1704" x="254.587581" y="216.404326" style="fill-opacity: 0; stroke: #1f77b4"/>
     <use xlink:href="#m54ce7b1704" x="255.957342" y="216.404326" style="fill-opacity: 0; stroke: #1f77b4"/>
     <use xlink:href="#m54ce7b1704" x="257.327103" y="216.404326" style="fill-opacity: 0; stroke: #1f77b4"/>
     <use xlink:href="#m54ce7b1704" x="258.696864" y="216.404326" style="fill-opacity: 0; stroke: #1f77b4"/>
     <use xlink:href="#m54ce7b1704" x="260.068141" y="216.404326" style="fill-opacity: 0; stroke: #1f77b4"/>
     <use xlink:href="#m54ce7b1704" x="261.437902" y="216.404326" style="fill-opacity: 0; stroke: #1f77b4"/>
     <use xlink:href="#m54ce7b1704" x="262.809179" y="216.404326" style="fill-opacity: 0; stroke: #1f77b4"/>
     <use xlink:href="#m54ce7b1704" x="264.17894" y="216.404326" style="fill-opacity: 0; stroke: #1f77b4"/>
     <use xlink:href="#m54ce7b1704" x="265.550218" y="216.404326" style="fill-opacity: 0; stroke: #1f77b4"/>
     <use xlink:href="#m54ce7b1704" x="266.919979" y="216.404326" style="fill-opacity: 0; stroke: #1f77b4"/>
     <use xlink:href="#m54ce7b1704" x="268.291256" y="216.404326" style="fill-opacity: 0; stroke: #1f77b4"/>
     <use xlink:href="#m54ce7b1704" x="269.662533" y="216.404326" style="fill-opacity: 0; stroke: #1f77b4"/>
     <use xlink:href="#m54ce7b1704" x="271.033811" y="216.404326" style="fill-opacity: 0; stroke: #1f77b4"/>
     <use xlink:href="#m54ce7b1704" x="272.405088" y="216.404326" style="fill-opacity: 0; stroke: #1f77b4"/>
     <use xlink:href="#m54ce7b1704" x="273.776365" y="216.404326" style="fill-opacity: 0; stroke: #1f77b4"/>
     <use xlink:href="#m54ce7b1704" x="275.147643" y="216.404326" style="fill-opacity: 0; stroke: #1f77b4"/>
     <use xlink:href="#m54ce7b1704" x="276.51892" y="216.404326" style="fill-opacity: 0; stroke: #1f77b4"/>
     <use xlink:href="#m54ce7b1704" x="277.890197" y="216.404326" style="fill-opacity: 0; stroke: #1f77b4"/>
     <use xlink:href="#m54ce7b1704" x="279.261475" y="216.404326" style="fill-opacity: 0; stroke: #1f77b4"/>
     <use xlink:href="#m54ce7b1704" x="280.632752" y="216.404326" style="fill-opacity: 0; stroke: #1f77b4"/>
     <use xlink:href="#m54ce7b1704" x="282.005546" y="216.404326" style="fill-opacity: 0; stroke: #1f77b4"/>
     <use xlink:href="#m54ce7b1704" x="283.376823" y="216.404326" style="fill-opacity: 0; stroke: #1f77b4"/>
     <use xlink:href="#m54ce7b1704" x="284.7481" y="216.404326" style="fill-opacity: 0; stroke: #1f77b4"/>
     <use xlink:href="#m54ce7b1704" x="286.120894" y="216.404326" style="fill-opacity: 0; stroke: #1f77b4"/>
     <use xlink:href="#m54ce7b1704" x="287.492171" y="216.404326" style="fill-opacity: 0; stroke: #1f77b4"/>
     <use xlink:href="#m54ce7b1704" x="288.864965" y="214.90576" style="fill-opacity: 0; stroke: #1f77b4"/>
     <use xlink:href="#m54ce7b1704" x="290.237759" y="110.28683" style="fill-opacity: 0; stroke: #1f77b4"/>
     <use xlink:href="#m54ce7b1704" x="291.206262" y="-1" style="fill-opacity: 0; stroke: #1f77b4"/>
     <use xlink:href="#m54ce7b1704" x="300.445519" y="-1" style="fill-opacity: 0; stroke: #1f77b4"/>
     <use xlink:href="#m54ce7b1704" x="301.219097" y="216.404326" style="fill-opacity: 0; stroke: #1f77b4"/>
     <use xlink:href="#m54ce7b1704" x="302.591891" y="216.404326" style="fill-opacity: 0; stroke: #1f77b4"/>
     <use xlink:href="#m54ce7b1704" x="303.964684" y="216.404326" style="fill-opacity: 0; stroke: #1f77b4"/>
     <use xlink:href="#m54ce7b1704" x="305.337478" y="203.980742" style="fill-opacity: 0; stroke: #1f77b4"/>
     <use xlink:href="#m54ce7b1704" x="306.711788" y="201.018932" style="fill-opacity: 0; stroke: #1f77b4"/>
     <use xlink:href="#m54ce7b1704" x="308.084582" y="216.404326" style="fill-opacity: 0; stroke: #1f77b4"/>
     <use xlink:href="#m54ce7b1704" x="309.458892" y="216.404326" style="fill-opacity: 0; stroke: #1f77b4"/>
     <use xlink:href="#m54ce7b1704" x="310.831686" y="216.404326" style="fill-opacity: 0; stroke: #1f77b4"/>
     <use xlink:href="#m54ce7b1704" x="312.205996" y="216.404326" style="fill-opacity: 0; stroke: #1f77b4"/>
     <use xlink:href="#m54ce7b1704" x="313.578789" y="216.404326" style="fill-opacity: 0; stroke: #1f77b4"/>
     <use xlink:href="#m54ce7b1704" x="314.953605" y="216.404326" style="fill-opacity: 0; stroke: #1f77b4"/>
     <use xlink:href="#m54ce7b1704" x="316.327915" y="208.094944" style="fill-opacity: 0; stroke: #1f77b4"/>
     <use xlink:href="#m54ce7b1704" x="317.700708" y="216.404326" style="fill-opacity: 0; stroke: #1f77b4"/>
     <use xlink:href="#m54ce7b1704" x="319.075018" y="216.404326" style="fill-opacity: 0; stroke: #1f77b4"/>
     <use xlink:href="#m54ce7b1704" x="320.449328" y="216.404326" style="fill-opacity: 0; stroke: #1f77b4"/>
    </g>
   </g>
   <g id="line2d_2">
    <path d="M 43.29563 215.512202 
L 51.435346 215.146774 
L 56.86334 214.722632 
L 60.935726 214.204211 
L 63.650481 213.679002 
L 66.366752 212.892632 
L 67.724382 212.340067 
L 69.081507 211.622314 
L 70.440654 210.660395 
L 71.798284 209.327715 
L 73.156925 207.394021 
L 74.514555 204.432924 
L 75.873197 199.573607 
L 77.232343 190.999352 
L 78.589468 175.509439 
L 79.948615 153.892145 
L 81.307761 147.355861 
L 82.666402 153.508714 
L 84.025549 143.308145 
L 85.38419 114.964674 
L 86.743337 119.156873 
L 88.102483 156.69638 
L 89.462641 181.205352 
L 90.821787 193.425144 
L 92.180934 199.70794 
L 93.541092 203.065169 
L 94.900238 204.75742 
L 96.260396 205.26266 
L 97.619542 204.556381 
L 98.980205 201.938373 
L 100.338846 194.94555 
L 103.060172 157.914746 
L 104.42033 180.056755 
L 105.780993 192.403904 
L 107.141656 193.828665 
L 108.501813 188.381952 
L 109.862476 174.381095 
L 111.222634 152.2799 
L 112.583297 148.669536 
L 113.943959 170.44621 
L 115.305633 187.143233 
L 116.666296 195.269373 
L 118.026959 198.290033 
L 119.388633 197.053633 
L 120.749296 187.519949 
L 122.111475 179.055478 
L 123.473655 188.364761 
L 124.833812 183.957529 
L 126.195991 164.697619 
L 127.558171 121.804535 
L 128.919844 102.730226 
L 130.282024 148.641896 
L 131.644203 178.154353 
L 133.005877 190.43614 
L 134.368056 195.21114 
L 135.730235 196.11246 
L 137.091909 193.978054 
L 138.455605 187.884476 
L 139.817784 174.329912 
L 141.179963 144.613759 
L 142.543154 97.457798 
L 143.905333 102.53504 
L 145.269029 140.851148 
L 146.632724 153.689799 
L 147.994398 144.405637 
L 149.358094 126.854055 
L 150.721789 134.997602 
L 152.085485 161.076816 
L 153.448675 178.927602 
L 154.810854 187.554986 
L 156.17455 189.873711 
L 157.539762 185.769696 
L 158.902952 171.392731 
L 160.266648 154.716718 
L 161.630343 170.511296 
L 162.994039 188.000933 
L 164.358746 195.510673 
L 165.722441 197.902264 
L 167.087653 197.357895 
L 168.451349 194.140576 
L 169.816561 187.270688 
L 171.181267 174.810619 
L 172.544963 157.206364 
L 173.910175 148.096446 
L 175.275387 158.34174 
L 176.640599 170.369867 
L 178.005305 173.607621 
L 179.370517 168.715746 
L 180.735729 164.799897 
L 182.100941 173.334894 
L 183.466153 186.052398 
L 184.83086 194.702671 
L 186.196072 199.131957 
L 187.5628 199.65006 
L 188.928012 194.406264 
L 190.29474 195.7286 
L 191.659447 202.348909 
L 193.026175 202.035139 
L 194.391387 193.623367 
L 195.758115 197.037811 
L 197.124844 206.037246 
L 198.491572 209.188923 
L 199.856784 210.454649 
L 201.223007 211.058436 
L 202.589735 211.358414 
L 203.956463 211.484147 
L 206.691436 211.397341 
L 209.424893 210.942342 
L 210.791116 210.568199 
L 212.159361 210.074544 
L 213.526089 209.434348 
L 214.894333 208.602195 
L 216.261062 207.509562 
L 217.629306 206.033042 
L 218.996035 203.943521 
L 220.364279 200.706942 
L 221.732524 194.829943 
L 223.100263 181.655068 
L 224.468508 164.856137 
L 225.836753 175.48295 
L 227.204997 179.407322 
L 228.573242 176.69975 
L 229.941486 172.304093 
L 231.309731 169.035723 
L 232.677976 168.864761 
L 234.04622 172.220228 
L 235.415981 177.893746 
L 238.153987 189.982549 
L 239.521726 194.82807 
L 240.891487 198.715112 
L 242.259732 201.771524 
L 243.629493 204.173318 
L 244.999254 206.067306 
L 246.369015 207.573588 
L 247.73726 208.782528 
L 249.10702 209.765367 
L 250.476781 210.571848 
L 253.216303 211.799734 
L 255.957342 212.674545 
L 258.696864 213.317427 
L 262.809179 214.003367 
L 268.291256 214.602854 
L 275.147643 215.072796 
L 284.7481 215.464307 
L 298.47351 215.772132 
L 320.449328 216.015022 
L 320.449328 216.015022 
" clip-path="url(#p03e5d76ab2)" style="fill: none; stroke: #ff0000; stroke-width: 1.5; stroke-linecap: square"/>
   </g>
   <g id="line2d_3">
    <path d="M 295.727417 216.404326 
L 295.727417 17.735865 
" clip-path="url(#p03e5d76ab2)" style="fill: none; stroke-dasharray: 3.7,1.6; stroke-dashoffset: 0; stroke: #808080"/>
   </g>
   <g id="patch_3">
    <path d="M 43.003987 216.404326 
L 43.003987 17.735865 
" style="fill: none; stroke: #000000; stroke-linejoin: miter; stroke-linecap: square"/>
   </g>
   <g id="patch_4">
    <path d="M 320.99976 216.404326 
L 320.99976 17.735865 
" style="fill: none; stroke: #000000; stroke-linejoin: miter; stroke-linecap: square"/>
   </g>
   <g id="patch_5">
    <path d="M 43.003987 216.404326 
L 320.99976 216.404326 
" style="fill: none; stroke: #000000; stroke-linejoin: miter; stroke-linecap: square"/>
   </g>
   <g id="patch_6">
    <path d="M 43.003987 17.735865 
L 320.99976 17.735865 
" style="fill: none; stroke: #000000; stroke-linejoin: miter; stroke-linecap: square"/>
   </g>
   <g id="matplotlib.axis_1">
    <g id="xtick_1">
     <g id="line2d_4">
      <defs>
       <path id="m5be421516b" d="M 0 0 
L 0 3.75 
" style="stroke: #000000; stroke-width: 1.25"/>
      </defs>
      <g>
       <use xlink:href="#m5be421516b" x="43.003987" y="216.404326" style="stroke: #000000; stroke-width: 1.25"/>
      </g>
     </g>
     <g id="text_1">
      <!-- $\mathdefault{429}$ -->
      <g transform="translate(33.818987 231.52792)">
       <text>
        <tspan style="font: 11px 'Arial'" x="0 6.117676 12.235352" y="-0.09375">429</tspan>
       </text>
      </g>
     </g>
    </g>
    <g id="xtick_2">
     <g id="line2d_5">
      <g>
       <use xlink:href="#m5be421516b" x="93.548673" y="216.404326" style="stroke: #000000; stroke-width: 1.25"/>
      </g>
     </g>
     <g id="text_2">
      <!-- $\mathdefault{430}$ -->
      <g transform="translate(84.363673 231.52792)">
       <text>
        <tspan style="font: 11px 'Arial'" x="0 6.117676 12.235352" y="-0.09375">430</tspan>
       </text>
      </g>
     </g>
    </g>
    <g id="xtick_3">
     <g id="line2d_6">
      <g>
       <use xlink:href="#m5be421516b" x="144.093359" y="216.404326" style="stroke: #000000; stroke-width: 1.25"/>
      </g>
     </g>
     <g id="text_3">
      <!-- $\mathdefault{431}$ -->
      <g transform="translate(134.908359 231.52792)">
       <text>
        <tspan style="font: 11px 'Arial'" x="0 6.117676 12.235352" y="-0.09375">431</tspan>
       </text>
      </g>
     </g>
    </g>
    <g id="xtick_4">
     <g id="line2d_7">
      <g>
       <use xlink:href="#m5be421516b" x="194.638045" y="216.404326" style="stroke: #000000; stroke-width: 1.25"/>
      </g>
     </g>
     <g id="text_4">
      <!-- $\mathdefault{432}$ -->
      <g transform="translate(185.453045 231.52792)">
       <text>
        <tspan style="font: 11px 'Arial'" x="0 6.117676 12.235352" y="-0.09375">432</tspan>
       </text>
      </g>
     </g>
    </g>
    <g id="xtick_5">
     <g id="line2d_8">
      <g>
       <use xlink:href="#m5be421516b" x="245.182731" y="216.404326" style="stroke: #000000; stroke-width: 1.25"/>
      </g>
     </g>
     <g id="text_5">
      <!-- $\mathdefault{433}$ -->
      <g transform="translate(235.997731 231.52792)">
       <text>
        <tspan style="font: 11px 'Arial'" x="0 6.117676 12.235352" y="-0.09375">433</tspan>
       </text>
      </g>
     </g>
    </g>
    <g id="xtick_6">
     <g id="line2d_9">
      <g>
       <use xlink:href="#m5be421516b" x="295.727417" y="216.404326" style="stroke: #000000; stroke-width: 1.25"/>
      </g>
     </g>
     <g id="text_6">
      <!-- $\mathdefault{434}$ -->
      <g transform="translate(286.542417 231.52792)">
       <text>
        <tspan style="font: 11px 'Arial'" x="0 6.117676 12.235352" y="-0.09375">434</tspan>
       </text>
      </g>
     </g>
    </g>
    <g id="text_7">
     <!-- $\lambda$ {\sffamily (nm)} -->
     <g transform="translate(164.206736 246.411565) scale(0.12 -0.12)">
      <defs>
       <path id="StandardSymL-6c" d="M 480 3650 
C 525 4013 710 4224 998 4224 
C 1203 4224 1376 4064 1472 3778 
C 1517 3650 1574 3440 1632 3198 
L 154 19 
L 755 19 
L 1843 2301 
C 2048 1059 2150 607 2266 358 
C 2406 83 2611 -64 2848 -64 
C 3098 -64 3296 89 3405 371 
C 3475 543 3501 715 3507 1014 
L 3373 1014 
C 3322 683 3174 499 2944 499 
C 2752 499 2586 620 2483 843 
C 2400 1008 2355 1174 2266 1645 
L 2093 2466 
C 2086 2485 2080 2530 2067 2594 
C 1920 3415 1690 4192 1536 4422 
C 1395 4627 1203 4736 992 4736 
C 602 4736 397 4403 326 3650 
L 480 3650 
z
" transform="scale(0.015625)"/>
       <path id="NimbusSanL-Regu-28" d="M 1510 4672 
C 870 3833 467 2668 467 1663 
C 467 652 870 -513 1510 -1351 
L 1862 -1351 
C 1299 -436 986 639 986 1663 
C 986 2681 1299 3763 1862 4672 
L 1510 4672 
z
" transform="scale(0.015625)"/>
       <path id="NimbusSanL-Regu-6e" d="M 448 3328 
L 448 0 
L 986 0 
L 986 1835 
C 986 2539 1344 2988 1894 2988 
C 2317 2988 2586 2732 2586 2328 
L 2586 0 
L 3117 0 
L 3117 2539 
C 3117 3097 2701 3456 2054 3456 
C 1555 3456 1235 3263 941 2796 
L 941 3328 
L 448 3328 
z
" transform="scale(0.015625)"/>
       <path id="NimbusSanL-Regu-6d" d="M 448 3328 
L 448 0 
L 986 0 
L 986 2089 
C 986 2597 1338 2988 1773 2988 
C 2170 2988 2394 2744 2394 2315 
L 2394 0 
L 2931 0 
L 2931 2109 
C 2931 2597 3283 2988 3718 2988 
C 4109 2988 4339 2738 4339 2315 
L 4339 0 
L 4877 0 
L 4877 2520 
C 4877 3123 4531 3456 3904 3456 
C 3456 3456 3187 3321 2874 2943 
C 2675 3302 2406 3456 1971 3456 
C 1523 3456 1229 3289 941 2886 
L 941 3328 
L 448 3328 
z
" transform="scale(0.015625)"/>
       <path id="NimbusSanL-Regu-29" d="M 595 -1351 
C 1235 -513 1638 652 1638 1657 
C 1638 2668 1235 3833 595 4672 
L 243 4672 
C 806 3756 1120 2681 1120 1657 
C 1120 639 806 -442 243 -1351 
L 595 -1351 
z
" transform="scale(0.015625)"/>
      </defs>
      <use xlink:href="#StandardSymL-6c" transform="scale(0.996264)"/>
      <use xlink:href="#NimbusSanL-Regu-28" transform="translate(91.855235 0) scale(0.996264)"/>
      <use xlink:href="#NimbusSanL-Regu-6e" transform="translate(125.030464 0) scale(0.996264)"/>
      <use xlink:href="#NimbusSanL-Regu-6d" transform="translate(180.422141 0) scale(0.996264)"/>
      <use xlink:href="#NimbusSanL-Regu-29" transform="translate(263.410572 0) scale(0.996264)"/>
     </g>
    </g>
   </g>
   <g id="matplotlib.axis_2">
    <g id="ytick_1">
     <g id="line2d_10">
      <defs>
       <path id="m0e25b59d3e" d="M 0 0 
L -3.75 0 
" style="stroke: #000000; stroke-width: 1.25"/>
      </defs>
      <g>
       <use xlink:href="#m0e25b59d3e" x="43.003987" y="216.404326" style="stroke: #000000; stroke-width: 1.25"/>
      </g>
     </g>
     <g id="text_8">
      <!-- $\mathdefault{0.0}$ -->
      <g transform="translate(20.353987 220.341123)">
       <text>
        <tspan style="font: 11px 'Arial'" x="0 6.117676 9.173828" y="-0.09375">0.0</tspan>
       </text>
      </g>
     </g>
    </g>
    <g id="ytick_2">
     <g id="line2d_11">
      <g>
       <use xlink:href="#m0e25b59d3e" x="43.003987" y="172.844979" style="stroke: #000000; stroke-width: 1.25"/>
      </g>
     </g>
     <g id="text_9">
      <!-- $\mathdefault{0.5}$ -->
      <g transform="translate(20.353987 176.781776)">
       <text>
        <tspan style="font: 11px 'Arial'" x="0 6.117676 9.173828" y="-0.09375">0.5</tspan>
       </text>
      </g>
     </g>
    </g>
    <g id="ytick_3">
     <g id="line2d_12">
      <g>
       <use xlink:href="#m0e25b59d3e" x="43.003987" y="129.285633" style="stroke: #000000; stroke-width: 1.25"/>
      </g>
     </g>
     <g id="text_10">
      <!-- $\mathdefault{1.0}$ -->
      <g transform="translate(20.353987 133.222429)">
       <text>
        <tspan style="font: 11px 'Arial'" x="0 6.117676 9.173828" y="-0.09375">1.0</tspan>
       </text>
      </g>
     </g>
    </g>
    <g id="ytick_4">
     <g id="line2d_13">
      <g>
       <use xlink:href="#m0e25b59d3e" x="43.003987" y="85.726286" style="stroke: #000000; stroke-width: 1.25"/>
      </g>
     </g>
     <g id="text_11">
      <!-- $\mathdefault{1.5}$ -->
      <g transform="translate(20.353987 89.663083)">
       <text>
        <tspan style="font: 11px 'Arial'" x="0 6.117676 9.173828" y="-0.09375">1.5</tspan>
       </text>
      </g>
     </g>
    </g>
    <g id="ytick_5">
     <g id="line2d_14">
      <g>
       <use xlink:href="#m0e25b59d3e" x="43.003987" y="42.166939" style="stroke: #000000; stroke-width: 1.25"/>
      </g>
     </g>
     <g id="text_12">
      <!-- $\mathdefault{2.0}$ -->
      <g transform="translate(20.353987 46.103736)">
       <text>
        <tspan style="font: 11px 'Arial'" x="0 6.117676 9.173828" y="-0.09375">2.0</tspan>
       </text>
      </g>
     </g>
    </g>
    <g id="text_13">
     <!-- $B_{\lambda}$ {\sffamily (photons/cm\textsuperscript{2}/s/nm)} -->
     <g transform="translate(13.728305 177.714049) rotate(-90) scale(0.12 -0.12)">
      <defs>
       <path id="NimbusRomNo9L-ReguItal-42" d="M -51 0 
L 1754 0 
C 2758 0 3450 523 3450 1274 
C 3450 1510 3373 1732 3232 1872 
C 3104 2019 2976 2095 2643 2235 
C 3098 2344 3283 2420 3488 2598 
C 3667 2751 3763 2968 3763 3222 
C 3763 3827 3309 4160 2483 4160 
L 832 4160 
L 832 4057 
C 1229 4025 1325 3974 1325 3795 
C 1325 3700 1299 3541 1254 3388 
L 467 574 
C 352 204 307 166 -51 102 
L -51 0 
z
M 1523 2108 
C 1939 2108 2208 2083 2336 2032 
C 2598 1923 2758 1643 2758 1299 
C 2758 612 2285 192 1504 192 
C 1235 192 1094 287 1094 459 
C 1094 535 1171 841 1318 1350 
C 1402 1637 1440 1783 1523 2108 
z
M 2003 3789 
C 2042 3929 2118 3967 2368 3967 
C 2880 3967 3117 3751 3117 3280 
C 3117 2917 2963 2637 2688 2484 
C 2470 2356 2163 2312 1587 2312 
L 2003 3789 
z
" transform="scale(0.015625)"/>
       <path id="NimbusSanL-Regu-70" d="M 346 -1408 
L 883 -1408 
L 883 371 
C 1165 25 1478 -128 1914 -128 
C 2778 -128 3347 568 3347 1632 
C 3347 2752 2797 3456 1907 3456 
C 1453 3456 1088 3251 838 2854 
L 838 3359 
L 346 3359 
L 346 -1408 
z
M 1818 2956 
C 2406 2956 2790 2440 2790 1644 
C 2790 887 2400 371 1818 371 
C 1254 371 883 880 883 1663 
C 883 2447 1254 2956 1818 2956 
z
" transform="scale(0.015625)"/>
       <path id="NimbusSanL-Regu-68" d="M 448 4672 
L 448 0 
L 979 0 
L 979 1853 
C 979 2539 1338 2988 1888 2988 
C 2061 2988 2234 2930 2362 2834 
C 2515 2725 2579 2565 2579 2328 
L 2579 0 
L 3110 0 
L 3110 2539 
C 3110 3103 2707 3456 2054 3456 
C 1581 3456 1293 3308 979 2898 
L 979 4672 
L 448 4672 
z
" transform="scale(0.015625)"/>
       <path id="NimbusSanL-Regu-6f" d="M 1741 3456 
C 800 3456 230 2784 230 1663 
C 230 543 794 -128 1747 -128 
C 2688 -128 3264 543 3264 1638 
C 3264 2791 2707 3456 1741 3456 
z
M 1747 2963 
C 2349 2963 2707 2472 2707 1644 
C 2707 861 2336 364 1747 364 
C 1152 364 787 855 787 1663 
C 787 2466 1152 2963 1747 2963 
z
" transform="scale(0.015625)"/>
       <path id="NimbusSanL-Regu-74" d="M 1626 3328 
L 1075 3328 
L 1075 4249 
L 544 4249 
L 544 3328 
L 90 3328 
L 90 2892 
L 544 2892 
L 544 402 
C 544 64 774 -128 1190 -128 
C 1318 -128 1446 -116 1626 -84 
L 1626 364 
C 1555 345 1472 339 1370 339 
C 1139 339 1075 402 1075 634 
L 1075 2892 
L 1626 2892 
L 1626 3328 
z
" transform="scale(0.015625)"/>
       <path id="NimbusSanL-Regu-73" d="M 2803 2428 
C 2797 3084 2362 3456 1587 3456 
C 806 3456 301 3052 301 2434 
C 301 1912 570 1663 1363 1472 
L 1862 1351 
C 2234 1262 2381 1129 2381 887 
C 2381 574 2067 364 1600 364 
C 1312 364 1069 447 934 587 
C 851 683 813 778 781 1014 
L 218 1014 
C 243 243 678 -128 1555 -128 
C 2400 -128 2938 288 2938 931 
C 2938 1428 2656 1702 1990 1861 
L 1478 1982 
C 1043 2084 858 2224 858 2459 
C 858 2765 1133 2963 1568 2963 
C 1997 2963 2227 2778 2240 2428 
L 2803 2428 
z
" transform="scale(0.015625)"/>
       <path id="NimbusSanL-Regu-2f" d="M 1466 4672 
L -51 -128 
L 301 -128 
L 1818 4672 
L 1466 4672 
z
" transform="scale(0.015625)"/>
       <path id="NimbusSanL-Regu-63" d="M 3014 2237 
C 2989 2561 2918 2771 2790 2956 
C 2560 3270 2157 3456 1690 3456 
C 787 3456 198 2740 198 1632 
C 198 555 774 -128 1683 -128 
C 2483 -128 2989 352 3053 1167 
L 2515 1167 
C 2426 632 2150 364 1696 364 
C 1107 364 755 842 755 1632 
C 755 2466 1101 2963 1683 2963 
C 2131 2963 2413 2701 2477 2237 
L 3014 2237 
z
" transform="scale(0.015625)"/>
       <path id="NimbusSanL-Regu-32" d="M 3238 556 
L 851 556 
C 909 928 1114 1165 1670 1493 
L 2310 1839 
C 2944 2185 3270 2653 3270 3211 
C 3270 3589 3117 3942 2848 4185 
C 2579 4428 2246 4544 1818 4544 
C 1242 4544 813 4339 563 3955 
C 403 3711 333 3429 320 2967 
L 883 2967 
C 902 3275 941 3461 1018 3608 
C 1165 3884 1459 4051 1798 4051 
C 2310 4051 2694 3685 2694 3198 
C 2694 2839 2483 2531 2080 2300 
L 1491 1967 
C 544 1428 269 999 218 0 
L 3238 0 
L 3238 556 
z
" transform="scale(0.015625)"/>
      </defs>
      <use xlink:href="#NimbusRomNo9L-ReguItal-42" transform="scale(0.996264)"/>
      <use xlink:href="#StandardSymL-6c" transform="translate(60.871631 -20.616338) scale(0.737241)"/>
      <use xlink:href="#NimbusSanL-Regu-28" transform="translate(135.818713 0) scale(0.996264)"/>
      <use xlink:href="#NimbusSanL-Regu-70" transform="translate(168.993943 0) scale(0.996264)"/>
      <use xlink:href="#NimbusSanL-Regu-68" transform="translate(224.38562 0) scale(0.996264)"/>
      <use xlink:href="#NimbusSanL-Regu-6f" transform="translate(279.777297 0) scale(0.996264)"/>
      <use xlink:href="#NimbusSanL-Regu-74" transform="translate(335.168974 0) scale(0.996264)"/>
      <use xlink:href="#NimbusSanL-Regu-6f" transform="translate(362.864143 0) scale(0.996264)"/>
      <use xlink:href="#NimbusSanL-Regu-6e" transform="translate(418.25582 0) scale(0.996264)"/>
      <use xlink:href="#NimbusSanL-Regu-73" transform="translate(473.647497 0) scale(0.996264)"/>
      <use xlink:href="#NimbusSanL-Regu-2f" transform="translate(523.460698 0) scale(0.996264)"/>
      <use xlink:href="#NimbusSanL-Regu-63" transform="translate(551.155868 0) scale(0.996264)"/>
      <use xlink:href="#NimbusSanL-Regu-6d" transform="translate(600.969068 0) scale(0.996264)"/>
      <use xlink:href="#NimbusSanL-Regu-32" transform="translate(683.957498 36.163231) scale(0.737241)"/>
      <use xlink:href="#NimbusSanL-Regu-2f" transform="translate(725.445777 0) scale(0.996264)"/>
      <use xlink:href="#NimbusSanL-Regu-73" transform="translate(753.140947 0) scale(0.996264)"/>
      <use xlink:href="#NimbusSanL-Regu-2f" transform="translate(802.954147 0) scale(0.996264)"/>
      <use xlink:href="#NimbusSanL-Regu-6e" transform="translate(830.649317 0) scale(0.996264)"/>
      <use xlink:href="#NimbusSanL-Regu-6d" transform="translate(886.040994 0) scale(0.996264)"/>
      <use xlink:href="#NimbusSanL-Regu-29" transform="translate(969.029424 0) scale(0.996264)"/>
     </g>
    </g>
    <g id="text_14">
     <!-- $\times\mathdefault{10^{12}}\mathdefault{}$ -->
     <g transform="translate(43.003987 14.735865)">
      <text>
       <tspan style="font: 11px 'STIXGeneral'" x="0" y="-0.799312500000001"></tspan>
       <tspan style="font: 11px 'Arial'" x="7.039993 13.157669" y="-0.799312500000001">10</tspan>
       <tspan style="font: 7.7px 'Arial'" x="19.467003 23.749376" y="-8.465625">12</tspan>
      </text>
     </g>
    </g>
   </g>
   <g id="patch_7">
    <path d="M 217.800817 47.652918 
L 217.800817 67.40298 
L 294.609383 67.40298 
" style="fill: none; stroke: #000000; stroke-linecap: round"/>
    <path d="M 290.609383 65.40298 
L 294.609383 67.40298 
L 290.609383 69.40298 
" style="fill: none; stroke: #000000; stroke-linecap: round"/>
   </g>
   <g id="text_15">
    <g id="patch_8">
     <path d="M 184.100817 50.702711 
L 251.500817 50.702711 
Q 254.500817 50.702711 254.500817 47.702711 
L 254.500817 37.602711 
Q 254.500817 34.602711 251.500817 34.602711 
L 184.100817 34.602711 
Q 181.100817 34.602711 181.100817 37.602711 
L 181.100817 47.702711 
Q 181.100817 50.702711 184.100817 50.702711 
z
" style="fill: #f5deb3; stroke: #000000; stroke-linejoin: miter"/>
    </g>
    <!-- D$_{\gamma}$ (434.00) nm -->
    <g transform="translate(184.100817 44.902711)">
     <text>
      <tspan style="font: 10px 'Arial'" x="0 10.686517 13.464837 16.794915 22.356439 27.917962 33.479486 36.257806 41.81933 47.380853 50.710931 53.489251 59.050775" y="-0.71875">D(434.00)nm</tspan>
      <tspan style="font: italic 7px 'STIXGeneral'" x="7.375898" y="0.6031250000000004"></tspan>
     </text>
    </g>
   </g>
   <g id="text_16">
    <text style="font: 10px 'Arial'; text-anchor: middle" x="218.30019" y="103.651106" transform="rotate(-0 218.30019 103.651106)">Q-branch</text>
   </g>
   <g id="text_17">
    <text style="font: 10px 'Arial'; text-anchor: middle" x="130.323535" y="39.829924" transform="rotate(-0 130.323535 39.829924)">B-D + C-D</text>
   </g>
   <g id="text_18">
    <text style="font: 700 12px 'Arial'; text-anchor: middle" x="182.001874" y="11.735865" transform="rotate(-0 182.001874 11.735865)">HP boron rod (redeposit test) - 82 min</text>
   </g>
  </g>
 </g>
 <defs>
  <clipPath id="p03e5d76ab2">
   <rect x="43.003987" y="17.735865" width="277.995773" height="198.668461"/>
  </clipPath>
 </defs>
</svg>
