<?xml version="1.0" encoding="utf-8" standalone="no"?>
<!DOCTYPE svg PUBLIC "-//W3C//DTD SVG 1.1//EN"
  "http://www.w3.org/Graphics/SVG/1.1/DTD/svg11.dtd">
<svg xmlns:xlink="http://www.w3.org/1999/xlink" width="324pt" height="252pt" viewBox="0 0 324 252" xmlns="http://www.w3.org/2000/svg" version="1.1">
 <metadata>
  <rdf:RDF xmlns:dc="http://purl.org/dc/elements/1.1/" xmlns:cc="http://creativecommons.org/ns#" xmlns:rdf="http://www.w3.org/1999/02/22-rdf-syntax-ns#">
   <cc:Work>
    <dc:type rdf:resource="http://purl.org/dc/dcmitype/StillImage"/>
    <dc:date>2024-12-06T11:05:17.544383</dc:date>
    <dc:format>image/svg+xml</dc:format>
    <dc:creator>
     <cc:Agent>
      <dc:title>Matplotlib v3.9.2, https://matplotlib.org/</dc:title>
     </cc:Agent>
    </dc:creator>
   </cc:Work>
  </rdf:RDF>
 </metadata>
 <defs>
  <style type="text/css">*{stroke-linejoin: round; stroke-linecap: butt}</style>
 </defs>
 <g id="figure_1">
  <g id="patch_1">
   <path d="M 0 252 
L 324 252 
L 324 0 
L 0 0 
z
" style="fill: #ffffff"/>
  </g>
  <g id="axes_1">
   <g id="patch_2">
    <path d="M 43.003987 216.404326 
L 320.99976 216.404326 
L 320.99976 17.735865 
L 43.003987 17.735865 
z
" style="fill: #ffffff"/>
   </g>
   <g id="PolyCollection_1">
    <path d="M 43.29563 216.205125 
L 43.29563 216.404326 
L 44.651744 216.404326 
L 46.008869 216.404326 
L 47.364983 216.404326 
L 48.722108 216.404326 
L 50.078222 216.404326 
L 51.435346 216.404326 
L 52.792977 216.404326 
L 54.148585 216.404326 
L 55.506215 216.404326 
L 56.86334 216.404326 
L 58.22097 216.404326 
L 59.578601 216.404326 
L 60.935726 216.404326 
L 62.293356 216.404326 
L 63.650481 216.404326 
L 65.008111 216.404326 
L 66.366752 216.404326 
L 67.724382 216.404326 
L 69.081507 216.404326 
L 70.440654 216.404326 
L 71.798284 216.404326 
L 73.156925 216.404326 
L 74.514555 216.404326 
L 75.873197 216.404326 
L 77.232343 216.404326 
L 78.589468 216.404326 
L 79.948615 216.404326 
L 81.307761 216.404326 
L 82.666402 216.404326 
L 84.025549 216.404326 
L 85.38419 216.404326 
L 86.743337 216.404326 
L 88.102483 216.404326 
L 89.462641 216.404326 
L 90.821787 216.404326 
L 92.180934 216.404326 
L 93.541092 216.404326 
L 94.900238 216.404326 
L 96.260396 216.404326 
L 97.619542 216.404326 
L 98.980205 216.404326 
L 100.338846 216.404326 
L 101.699509 216.404326 
L 103.060172 216.404326 
L 104.42033 216.404326 
L 105.780993 216.404326 
L 107.141656 216.404326 
L 108.501813 216.404326 
L 109.862476 216.404326 
L 111.222634 216.404326 
L 112.583297 216.404326 
L 113.943959 216.404326 
L 115.305633 216.404326 
L 116.666296 216.404326 
L 118.026959 216.404326 
L 119.388633 216.404326 
L 120.749296 216.404326 
L 122.111475 216.404326 
L 123.473655 216.404326 
L 124.833812 216.404326 
L 126.195991 216.404326 
L 127.558171 216.404326 
L 128.919844 216.404326 
L 130.282024 216.404326 
L 131.644203 216.404326 
L 133.005877 216.404326 
L 134.368056 216.404326 
L 135.730235 216.404326 
L 137.091909 216.404326 
L 138.455605 216.404326 
L 139.817784 216.404326 
L 141.179963 216.404326 
L 142.543154 216.404326 
L 143.905333 216.404326 
L 145.269029 216.404326 
L 146.632724 216.404326 
L 147.994398 216.404326 
L 149.358094 216.404326 
L 150.721789 216.404326 
L 152.085485 216.404326 
L 153.448675 216.404326 
L 154.810854 216.404326 
L 156.17455 216.404326 
L 157.539762 216.404326 
L 158.902952 216.404326 
L 160.266648 216.404326 
L 161.630343 216.404326 
L 162.994039 216.404326 
L 164.358746 216.404326 
L 165.722441 216.404326 
L 167.087653 216.404326 
L 168.451349 216.404326 
L 169.816561 216.404326 
L 171.181267 216.404326 
L 172.544963 216.404326 
L 173.910175 216.404326 
L 175.275387 216.404326 
L 176.640599 216.404326 
L 178.005305 216.404326 
L 179.370517 216.404326 
L 180.735729 216.404326 
L 182.100941 216.404326 
L 183.466153 216.404326 
L 184.83086 216.404326 
L 186.196072 216.404326 
L 187.5628 216.404326 
L 188.928012 216.404326 
L 190.29474 216.404326 
L 191.659447 216.404326 
L 193.026175 216.404326 
L 194.391387 216.404326 
L 195.758115 216.404326 
L 197.124844 216.404326 
L 198.491572 216.404326 
L 199.856784 216.404326 
L 201.223007 216.404326 
L 202.589735 216.404326 
L 203.956463 216.404326 
L 205.323192 216.404326 
L 206.691436 216.404326 
L 208.058165 216.404326 
L 209.424893 216.404326 
L 210.791116 216.404326 
L 212.159361 216.404326 
L 213.526089 216.404326 
L 214.894333 216.404326 
L 216.261062 216.404326 
L 217.629306 216.404326 
L 218.996035 216.404326 
L 220.364279 216.404326 
L 221.732524 216.404326 
L 223.100263 216.404326 
L 224.468508 216.404326 
L 225.836753 216.404326 
L 227.204997 216.404326 
L 228.573242 216.404326 
L 229.941486 216.404326 
L 231.309731 216.404326 
L 232.677976 216.404326 
L 234.04622 216.404326 
L 235.415981 216.404326 
L 236.784226 216.404326 
L 238.153987 216.404326 
L 239.521726 216.404326 
L 240.891487 216.404326 
L 242.259732 216.404326 
L 243.629493 216.404326 
L 244.999254 216.404326 
L 246.369015 216.404326 
L 247.73726 216.404326 
L 249.10702 216.404326 
L 250.476781 216.404326 
L 251.846542 216.404326 
L 253.216303 216.404326 
L 254.587581 216.404326 
L 255.957342 216.404326 
L 257.327103 216.404326 
L 258.696864 216.404326 
L 260.068141 216.404326 
L 261.437902 216.404326 
L 262.809179 216.404326 
L 264.17894 216.404326 
L 265.550218 216.404326 
L 266.919979 216.404326 
L 268.291256 216.404326 
L 269.662533 216.404326 
L 271.033811 216.404326 
L 272.405088 216.404326 
L 273.776365 216.404326 
L 275.147643 216.404326 
L 276.51892 216.404326 
L 277.890197 216.404326 
L 279.261475 216.404326 
L 280.632752 216.404326 
L 282.005546 216.404326 
L 283.376823 216.404326 
L 284.7481 216.404326 
L 286.120894 216.404326 
L 287.492171 216.404326 
L 288.864965 216.404326 
L 290.237759 216.404326 
L 291.609036 216.404326 
L 292.98183 216.404326 
L 294.354623 216.404326 
L 295.727417 216.404326 
L 297.100211 216.404326 
L 298.47351 216.404326 
L 299.846303 216.404326 
L 301.219097 216.404326 
L 302.591891 216.404326 
L 303.964684 216.404326 
L 305.337478 216.404326 
L 306.711788 216.404326 
L 308.084582 216.404326 
L 309.458892 216.404326 
L 310.831686 216.404326 
L 312.205996 216.404326 
L 313.578789 216.404326 
L 314.953605 216.404326 
L 316.327915 216.404326 
L 317.700708 216.404326 
L 319.075018 216.404326 
L 320.449328 216.404326 
L 320.449328 215.328029 
L 320.449328 215.328029 
L 319.075018 215.290687 
L 317.700708 215.251327 
L 316.327915 215.209845 
L 314.953605 215.165983 
L 313.578789 215.119585 
L 312.205996 215.070537 
L 310.831686 215.018493 
L 309.458892 214.963318 
L 308.084582 214.904615 
L 306.711788 214.842207 
L 305.337478 214.775613 
L 303.964684 214.704594 
L 302.591891 214.628647 
L 301.219097 214.547283 
L 299.846303 214.459948 
L 298.47351 214.366012 
L 297.100211 214.264713 
L 295.727417 214.155296 
L 294.354623 214.036768 
L 292.98183 213.908014 
L 291.609036 213.767733 
L 290.237759 213.614569 
L 288.864965 213.446366 
L 287.492171 213.261112 
L 286.120894 213.056422 
L 284.7481 212.828646 
L 283.376823 212.574356 
L 282.005546 212.288407 
L 280.632752 211.964214 
L 279.261475 211.594506 
L 277.890197 211.16851 
L 276.51892 210.672301 
L 275.147643 210.086876 
L 273.776365 209.385641 
L 272.405088 208.530287 
L 271.033811 207.463813 
L 269.662533 206.098236 
L 268.291256 204.292172 
L 266.919979 201.808505 
L 265.550218 198.238241 
L 264.17894 192.837474 
L 262.809179 184.380468 
L 261.437902 171.468228 
L 260.068141 156.251194 
L 258.696864 150.47856 
L 257.327103 159.319485 
L 255.957342 169.974897 
L 254.587581 175.460313 
L 253.216303 175.646472 
L 251.846542 170.909174 
L 250.476781 160.644315 
L 249.10702 144.480394 
L 247.73726 127.941248 
L 246.369015 125.271039 
L 244.999254 136.98625 
L 243.629493 148.8398 
L 242.259732 154.98807 
L 240.891487 156.098639 
L 239.521726 153.713746 
L 238.153987 149.099634 
L 236.784226 143.419627 
L 235.415981 138.033273 
L 234.04622 134.4261 
L 232.677976 133.85753 
L 231.309731 136.781156 
L 229.941486 142.655797 
L 228.573242 150.301138 
L 227.204997 158.493841 
L 225.836753 166.353502 
L 224.468508 173.412261 
L 223.100263 179.51133 
L 221.732524 184.667962 
L 220.364279 188.9857 
L 218.996035 192.586631 
L 217.629306 195.588662 
L 216.261062 198.105004 
L 214.894333 200.219405 
L 213.526089 202.009788 
L 212.159361 203.531289 
L 210.791116 204.834875 
L 209.424893 205.955439 
L 208.058165 206.926046 
L 206.691436 207.771026 
L 205.323192 208.511246 
L 203.956463 209.161459 
L 202.589735 209.735963 
L 201.223007 210.245817 
L 199.856784 210.700021 
L 198.491572 211.106114 
L 197.124844 211.471204 
L 195.758115 211.800192 
L 194.391387 212.097625 
L 193.026175 212.367083 
L 191.659447 212.612459 
L 190.29474 212.83595 
L 188.928012 213.040651 
L 187.5628 213.228119 
L 186.196072 213.400594 
L 184.83086 213.559279 
L 183.466153 213.705707 
L 182.100941 213.841199 
L 180.735729 213.966765 
L 179.370517 214.083349 
L 178.005305 214.191783 
L 176.640599 214.29277 
L 175.275387 214.387044 
L 173.910175 214.475152 
L 172.544963 214.557618 
L 171.181267 214.63483 
L 169.816561 214.707356 
L 168.451349 214.775541 
L 167.087653 214.839631 
L 165.722441 214.900079 
L 164.358746 214.95703 
L 162.994039 215.010847 
L 161.630343 215.061681 
L 160.266648 215.109784 
L 158.902952 215.155347 
L 157.539762 215.198532 
L 156.17455 215.239573 
L 154.810854 215.278512 
L 153.448675 215.31549 
L 152.085485 215.350701 
L 150.721789 215.384242 
L 149.358094 215.416207 
L 147.994398 215.446692 
L 146.632724 215.475744 
L 145.269029 215.503535 
L 143.905333 215.530095 
L 142.543154 215.55547 
L 141.179963 215.579772 
L 139.817784 215.603029 
L 138.455605 215.625315 
L 137.091909 215.646706 
L 135.730235 215.667198 
L 134.368056 215.686877 
L 133.005877 215.705777 
L 131.644203 215.723933 
L 130.282024 215.741396 
L 128.919844 215.758195 
L 127.558171 215.774357 
L 126.195991 215.789926 
L 124.833812 215.804924 
L 123.473655 215.819358 
L 122.111475 215.833297 
L 120.749296 215.846743 
L 119.388633 215.859706 
L 118.026959 215.87223 
L 116.666296 215.884318 
L 115.305633 215.895999 
L 113.943959 215.907298 
L 112.583297 215.918216 
L 111.222634 215.928779 
L 109.862476 215.938997 
L 108.501813 215.948892 
L 107.141656 215.958472 
L 105.780993 215.967755 
L 104.42033 215.976751 
L 103.060172 215.985469 
L 101.699509 215.993926 
L 100.338846 216.002129 
L 98.980205 216.010076 
L 97.619542 216.017802 
L 96.260396 216.025294 
L 94.900238 216.032576 
L 93.541092 216.039645 
L 92.180934 216.046518 
L 90.821787 216.053195 
L 89.462641 216.059686 
L 88.102483 216.066003 
L 86.743337 216.072143 
L 85.38419 216.078118 
L 84.025549 216.08393 
L 82.666402 216.089591 
L 81.307761 216.095101 
L 79.948615 216.100469 
L 78.589468 216.105699 
L 77.232343 216.110787 
L 75.873197 216.115753 
L 74.514555 216.120593 
L 73.156925 216.125308 
L 71.798284 216.12991 
L 70.440654 216.134396 
L 69.081507 216.138778 
L 67.724382 216.143047 
L 66.366752 216.147216 
L 65.008111 216.151288 
L 63.650481 216.155262 
L 62.293356 216.159141 
L 60.935726 216.162932 
L 59.578601 216.166634 
L 58.22097 216.170252 
L 56.86334 216.173789 
L 55.506215 216.177245 
L 54.148585 216.180625 
L 52.792977 216.183925 
L 51.435346 216.187157 
L 50.078222 216.190318 
L 48.722108 216.193408 
L 47.364983 216.196433 
L 46.008869 216.199392 
L 44.651744 216.20229 
L 43.29563 216.205125 
z
" clip-path="url(#pb43086dc2f)" style="fill: #1f77b4; fill-opacity: 0.25"/>
   </g>
   <g id="PolyCollection_2">
    <path d="M 43.29563 210.641061 
L 43.29563 216.404326 
L 44.651744 216.404326 
L 46.008869 216.404326 
L 47.364983 216.404326 
L 48.722108 216.404326 
L 50.078222 216.404326 
L 51.435346 216.404326 
L 52.792977 216.404326 
L 54.148585 216.404326 
L 55.506215 216.404326 
L 56.86334 216.404326 
L 58.22097 216.404326 
L 59.578601 216.404326 
L 60.935726 216.404326 
L 62.293356 216.404326 
L 63.650481 216.404326 
L 65.008111 216.404326 
L 66.366752 216.404326 
L 67.724382 216.404326 
L 69.081507 216.404326 
L 70.440654 216.404326 
L 71.798284 216.404326 
L 73.156925 216.404326 
L 74.514555 216.404326 
L 75.873197 216.404326 
L 77.232343 216.404326 
L 78.589468 216.404326 
L 79.948615 216.404326 
L 81.307761 216.404326 
L 82.666402 216.404326 
L 84.025549 216.404326 
L 85.38419 216.404326 
L 86.743337 216.404326 
L 88.102483 216.404326 
L 89.462641 216.404326 
L 90.821787 216.404326 
L 92.180934 216.404326 
L 93.541092 216.404326 
L 94.900238 216.404326 
L 96.260396 216.404326 
L 97.619542 216.404326 
L 98.980205 216.404326 
L 100.338846 216.404326 
L 101.699509 216.404326 
L 103.060172 216.404326 
L 104.42033 216.404326 
L 105.780993 216.404326 
L 107.141656 216.404326 
L 108.501813 216.404326 
L 109.862476 216.404326 
L 111.222634 216.404326 
L 112.583297 216.404326 
L 113.943959 216.404326 
L 115.305633 216.404326 
L 116.666296 216.404326 
L 118.026959 216.404326 
L 119.388633 216.404326 
L 120.749296 216.404326 
L 122.111475 216.404326 
L 123.473655 216.404326 
L 124.833812 216.404326 
L 126.195991 216.404326 
L 127.558171 216.404326 
L 128.919844 216.404326 
L 130.282024 216.404326 
L 131.644203 216.404326 
L 133.005877 216.404326 
L 134.368056 216.404326 
L 135.730235 216.404326 
L 137.091909 216.404326 
L 138.455605 216.404326 
L 139.817784 216.404326 
L 141.179963 216.404326 
L 142.543154 216.404326 
L 143.905333 216.404326 
L 145.269029 216.404326 
L 146.632724 216.404326 
L 147.994398 216.404326 
L 149.358094 216.404326 
L 150.721789 216.404326 
L 152.085485 216.404326 
L 153.448675 216.404326 
L 154.810854 216.404326 
L 156.17455 216.404326 
L 157.539762 216.404326 
L 158.902952 216.404326 
L 160.266648 216.404326 
L 161.630343 216.404326 
L 162.994039 216.404326 
L 164.358746 216.404326 
L 165.722441 216.404326 
L 167.087653 216.404326 
L 168.451349 216.404326 
L 169.816561 216.404326 
L 171.181267 216.404326 
L 172.544963 216.404326 
L 173.910175 216.404326 
L 175.275387 216.404326 
L 176.640599 216.404326 
L 178.005305 216.404326 
L 179.370517 216.404326 
L 180.735729 216.404326 
L 182.100941 216.404326 
L 183.466153 216.404326 
L 184.83086 216.404326 
L 186.196072 216.404326 
L 187.5628 216.404326 
L 188.928012 216.404326 
L 190.29474 216.404326 
L 191.659447 216.404326 
L 193.026175 216.404326 
L 194.391387 216.404326 
L 195.758115 216.404326 
L 197.124844 216.404326 
L 198.491572 216.404326 
L 199.856784 216.404326 
L 201.223007 216.404326 
L 202.589735 216.404326 
L 203.956463 216.404326 
L 205.323192 216.404326 
L 206.691436 216.404326 
L 208.058165 216.404326 
L 209.424893 216.404326 
L 210.791116 216.404326 
L 212.159361 216.404326 
L 213.526089 216.404326 
L 214.894333 216.404326 
L 216.261062 216.404326 
L 217.629306 216.404326 
L 218.996035 216.404326 
L 220.364279 216.404326 
L 221.732524 216.404326 
L 223.100263 216.404326 
L 224.468508 216.404326 
L 225.836753 216.404326 
L 227.204997 216.404326 
L 228.573242 216.404326 
L 229.941486 216.404326 
L 231.309731 216.404326 
L 232.677976 216.404326 
L 234.04622 216.404326 
L 235.415981 216.404326 
L 236.784226 216.404326 
L 238.153987 216.404326 
L 239.521726 216.404326 
L 240.891487 216.404326 
L 242.259732 216.404326 
L 243.629493 216.404326 
L 244.999254 216.404326 
L 246.369015 216.404326 
L 247.73726 216.404326 
L 249.10702 216.404326 
L 250.476781 216.404326 
L 251.846542 216.404326 
L 253.216303 216.404326 
L 254.587581 216.404326 
L 255.957342 216.404326 
L 257.327103 216.404326 
L 258.696864 216.404326 
L 260.068141 216.404326 
L 261.437902 216.404326 
L 262.809179 216.404326 
L 264.17894 216.404326 
L 265.550218 216.404326 
L 266.919979 216.404326 
L 268.291256 216.404326 
L 269.662533 216.404326 
L 271.033811 216.404326 
L 272.405088 216.404326 
L 273.776365 216.404326 
L 275.147643 216.404326 
L 276.51892 216.404326 
L 277.890197 216.404326 
L 279.261475 216.404326 
L 280.632752 216.404326 
L 282.005546 216.404326 
L 283.376823 216.404326 
L 284.7481 216.404326 
L 286.120894 216.404326 
L 287.492171 216.404326 
L 288.864965 216.404326 
L 290.237759 216.404326 
L 291.609036 216.404326 
L 292.98183 216.404326 
L 294.354623 216.404326 
L 295.727417 216.404326 
L 297.100211 216.404326 
L 298.47351 216.404326 
L 299.846303 216.404326 
L 301.219097 216.404326 
L 302.591891 216.404326 
L 303.964684 216.404326 
L 305.337478 216.404326 
L 306.711788 216.404326 
L 308.084582 216.404326 
L 309.458892 216.404326 
L 310.831686 216.404326 
L 312.205996 216.404326 
L 313.578789 216.404326 
L 314.953605 216.404326 
L 316.327915 216.404326 
L 317.700708 216.404326 
L 319.075018 216.404326 
L 320.449328 216.404326 
L 320.449328 215.654879 
L 320.449328 215.654879 
L 319.075018 215.643121 
L 317.700708 215.631072 
L 316.327915 215.618738 
L 314.953605 215.606079 
L 313.578789 215.593095 
L 312.205996 215.579798 
L 310.831686 215.566141 
L 309.458892 215.552143 
L 308.084582 215.537759 
L 306.711788 215.523007 
L 305.337478 215.50784 
L 303.964684 215.492277 
L 302.591891 215.476285 
L 301.219097 215.459847 
L 299.846303 215.442945 
L 298.47351 215.425561 
L 297.100211 215.407668 
L 295.727417 215.38926 
L 294.354623 215.370308 
L 292.98183 215.350788 
L 291.609036 215.330676 
L 290.237759 215.309971 
L 288.864965 215.288598 
L 287.492171 215.266552 
L 286.120894 215.243827 
L 284.7481 215.220341 
L 283.376823 215.196111 
L 282.005546 215.171076 
L 280.632752 215.145165 
L 279.261475 215.118397 
L 277.890197 215.090697 
L 276.51892 215.062019 
L 275.147643 215.032312 
L 273.776365 215.001522 
L 272.405088 214.96959 
L 271.033811 214.936454 
L 269.662533 214.902047 
L 268.291256 214.866296 
L 266.919979 214.829123 
L 265.550218 214.790487 
L 264.17894 214.750212 
L 262.809179 214.708288 
L 261.437902 214.664515 
L 260.068141 214.618872 
L 258.696864 214.571131 
L 257.327103 214.521258 
L 255.957342 214.46905 
L 254.587581 214.414339 
L 253.216303 214.356876 
L 251.846542 214.296586 
L 250.476781 214.23318 
L 249.10702 214.166411 
L 247.73726 214.096002 
L 246.369015 214.021726 
L 244.999254 213.943073 
L 243.629493 213.859734 
L 242.259732 213.77127 
L 240.891487 213.67729 
L 239.521726 213.57702 
L 238.153987 213.470079 
L 236.784226 213.35541 
L 235.415981 213.232453 
L 234.04622 213.099945 
L 232.677976 212.957029 
L 231.309731 212.802214 
L 229.941486 212.633912 
L 228.573242 212.450233 
L 227.204997 212.248924 
L 225.836753 212.027268 
L 224.468508 211.781967 
L 223.100263 211.508988 
L 221.732524 211.20347 
L 220.364279 210.858979 
L 218.996035 210.467808 
L 217.629306 210.02055 
L 216.261062 209.503444 
L 214.894333 208.901065 
L 213.526089 208.19026 
L 212.159361 207.343663 
L 210.791116 206.320523 
L 209.424893 205.071221 
L 208.058165 203.523097 
L 206.691436 201.581971 
L 205.323192 199.12232 
L 203.956463 196.003591 
L 202.589735 192.085326 
L 201.223007 187.333472 
L 199.856784 182.028203 
L 198.491572 177.031293 
L 197.124844 173.733584 
L 195.758115 173.221534 
L 194.391387 175.159996 
L 193.026175 177.918361 
L 191.659447 179.48312 
L 190.29474 177.040535 
L 188.928012 160.766093 
L 187.5628 37.190343 
L 186.196072 -45.067296 
L 184.83086 152.019876 
L 183.466153 171.916697 
L 182.100941 169.621992 
L 180.735729 158.766416 
L 179.370517 156.694455 
L 178.005305 164.843654 
L 176.640599 167.011463 
L 175.275387 162.128738 
L 173.910175 154.843904 
L 172.544963 153.373712 
L 171.181267 160.456688 
L 169.816561 169.451261 
L 168.451349 175.752151 
L 167.087653 178.851222 
L 165.722441 179.209617 
L 164.358746 176.88123 
L 162.994039 171.314912 
L 161.630343 162.950601 
L 160.266648 158.425497 
L 158.902952 161.918823 
L 157.539762 165.440161 
L 156.17455 165.775213 
L 154.810854 163.645073 
L 153.448675 159.851866 
L 152.085485 154.854087 
L 150.721789 148.976595 
L 149.358094 142.55975 
L 147.994398 136.046844 
L 146.632724 130.022112 
L 145.269029 125.119416 
L 143.905333 121.927999 
L 142.543154 120.75771 
L 141.179963 121.502445 
L 139.817784 123.645638 
L 138.455605 126.387007 
L 137.091909 128.79497 
L 135.730235 129.859972 
L 134.368056 128.435385 
L 133.005877 123.026234 
L 131.644203 111.766434 
L 130.282024 93.95669 
L 128.919844 76.373704 
L 127.558171 75.328681 
L 126.195991 91.78945 
L 124.833812 109.37735 
L 123.473655 120.289695 
L 122.111475 124.859222 
L 120.749296 124.841308 
L 119.388633 121.732232 
L 118.026959 116.795509 
L 116.666296 111.360441 
L 115.305633 106.887418 
L 113.943959 104.745263 
L 112.583297 105.730751 
L 111.222634 109.688184 
L 109.862476 115.604156 
L 108.501813 122.083683 
L 107.141656 127.792885 
L 105.780993 131.675873 
L 104.42033 132.949958 
L 103.060172 131.217559 
L 101.699509 127.058319 
L 100.338846 123.157138 
L 98.980205 123.813869 
L 97.619542 130.526751 
L 96.260396 139.905513 
L 94.900238 148.02196 
L 93.541092 153.04385 
L 92.180934 154.4127 
L 90.821787 151.513432 
L 89.462641 142.822051 
L 88.102483 125.906634 
L 86.743337 104.123678 
L 85.38419 98.210707 
L 84.025549 107.833507 
L 82.666402 113.861798 
L 81.307761 115.78449 
L 79.948615 118.83784 
L 78.589468 125.915118 
L 77.232343 136.453108 
L 75.873197 148.212438 
L 74.514555 159.243708 
L 73.156925 168.653133 
L 71.798284 176.320601 
L 70.440654 182.440047 
L 69.081507 187.31485 
L 67.724382 191.20609 
L 66.366752 194.345805 
L 65.008111 196.906762 
L 63.650481 199.015894 
L 62.293356 200.77296 
L 60.935726 202.253282 
L 59.578601 203.511846 
L 58.22097 204.592495 
L 56.86334 205.527848 
L 55.506215 206.343447 
L 54.148585 207.06022 
L 52.792977 207.693114 
L 51.435346 208.256968 
L 50.078222 208.761097 
L 48.722108 209.21396 
L 47.364983 209.623272 
L 46.008869 209.994249 
L 44.651744 210.332317 
L 43.29563 210.641061 
z
" clip-path="url(#pb43086dc2f)" style="fill: #ff7f0e; fill-opacity: 0.25"/>
   </g>
   <g id="line2d_1">
    <path d="M 43.29563 152.899368 
L 44.651744 153.911241 
L 46.008869 152.089026 
L 47.364983 149.115942 
L 48.722108 148.471571 
L 50.078222 149.377046 
L 51.435346 149.580199 
L 52.792977 148.664729 
L 54.148585 145.016422 
L 55.506215 140.665621 
L 56.86334 135.565563 
L 58.22097 139.62443 
L 59.578601 147.161013 
L 60.935726 155.723422 
L 63.650481 145.826492 
L 65.008111 144.204588 
L 66.366752 147.357718 
L 67.724382 146.183552 
L 69.081507 143.491971 
L 70.440654 148.239176 
L 71.798284 156.627136 
L 73.156925 163.255732 
L 74.514555 158.65587 
L 77.232343 141.175623 
L 78.589468 126.608754 
L 79.948615 116.382618 
L 81.307761 116.369668 
L 82.666402 115.225794 
L 84.025549 109.672576 
L 85.38419 97.904658 
L 86.743337 101.271799 
L 88.102483 124.015599 
L 89.462641 138.672272 
L 90.821787 148.395783 
L 92.180934 154.690851 
L 93.541092 154.988261 
L 94.900238 147.895247 
L 96.260396 138.472015 
L 97.619542 130.513503 
L 98.980205 128.761968 
L 100.338846 121.800622 
L 101.699509 124.509009 
L 103.060172 125.371969 
L 104.42033 131.900732 
L 105.780993 135.728875 
L 107.141656 136.480498 
L 108.501813 127.506821 
L 111.222634 100.837035 
L 112.583297 99.189952 
L 113.943959 104.003772 
L 115.305633 110.678416 
L 116.666296 117.915723 
L 118.026959 119.349715 
L 119.388633 121.383941 
L 120.749296 120.079994 
L 122.111475 116.507941 
L 123.473655 113.811372 
L 124.833812 111.611113 
L 127.558171 81.5417 
L 128.919844 69.611164 
L 130.282024 86.199351 
L 131.644203 110.655913 
L 133.005877 128.167447 
L 134.368056 132.241791 
L 135.730235 128.137947 
L 137.091909 124.604222 
L 138.455605 126.94486 
L 139.817784 126.187313 
L 141.179963 114.414065 
L 142.543154 112.858618 
L 143.905333 119.78626 
L 145.269029 132.927706 
L 146.632724 138.242458 
L 147.994398 132.818232 
L 149.358094 137.421288 
L 150.721789 138.098448 
L 152.085485 147.6376 
L 153.448675 159.450184 
L 154.810854 167.829424 
L 156.17455 167.603467 
L 157.539762 164.549539 
L 158.902952 159.533607 
L 160.266648 157.085699 
L 161.630343 161.439254 
L 162.994039 169.275515 
L 164.358746 173.188536 
L 165.722441 175.389161 
L 167.087653 177.290727 
L 168.451349 176.191565 
L 169.816561 170.082665 
L 171.181267 159.766767 
L 172.544963 151.052994 
L 173.910175 152.831353 
L 175.275387 160.508209 
L 176.640599 163.059013 
L 178.005305 160.957345 
L 179.370517 156.941805 
L 180.735729 156.472814 
L 182.100941 159.948789 
L 183.466153 167.241471 
L 184.83086 175.351865 
L 186.196072 21.207386 
L 186.782022 -1 
M 187.802806 -1 
L 188.928012 137.731733 
L 190.29474 174.062745 
L 191.659447 174.249726 
L 193.026175 175.362358 
L 194.391387 173.432905 
L 195.758115 169.23809 
L 197.124844 168.698399 
L 198.491572 170.829118 
L 201.223007 179.318851 
L 202.589735 182.782924 
L 203.956463 187.394947 
L 205.323192 193.469704 
L 206.691436 195.585749 
L 208.058165 194.623185 
L 209.424893 194.25922 
L 210.791116 193.230084 
L 212.159361 193.683495 
L 213.526089 193.862006 
L 214.894333 194.248828 
L 217.629306 192.595816 
L 218.996035 191.115902 
L 220.364279 187.088978 
L 223.100263 172.215199 
L 224.468508 166.78023 
L 225.836753 163.919195 
L 227.204997 157.251952 
L 228.573242 144.722107 
L 229.941486 135.630236 
L 231.309731 136.003704 
L 232.677976 132.880218 
L 234.04622 133.310849 
L 235.415981 133.346104 
L 236.784226 138.498207 
L 238.153987 145.84559 
L 239.521726 149.884345 
L 240.891487 153.38476 
L 242.259732 153.370022 
L 243.629493 138.193399 
L 244.999254 137.186219 
L 246.369015 131.262134 
L 247.73726 123.677247 
L 249.10702 124.407267 
L 250.476781 170.854872 
L 251.846542 173.266451 
L 253.216303 175.088874 
L 255.957342 163.338572 
L 257.327103 158.079776 
L 258.696864 154.426376 
L 260.068141 154.326947 
L 261.437902 154.952651 
L 262.809179 214.415943 
L 264.17894 207.390575 
L 265.550218 202.050172 
L 266.919979 199.767549 
L 268.291256 197.135736 
L 269.662533 198.185228 
L 271.033811 203.498831 
L 272.405088 206.718742 
L 273.776365 209.015686 
L 275.147643 208.829576 
L 276.51892 206.270056 
L 277.890197 199.823347 
L 279.261475 200.439159 
L 280.632752 207.234353 
L 282.005546 212.960578 
L 283.376823 208.746182 
L 284.7481 194.27749 
L 286.120894 176.605595 
L 287.492171 153.789513 
L 288.864965 111.051965 
L 290.310781 -1 
M 302.699345 -1 
L 303.964684 58.34969 
L 305.337478 112.668525 
L 306.711788 144.308144 
L 308.084582 160.893309 
L 310.831686 178.733081 
L 312.205996 187.372351 
L 313.578789 184.435666 
L 314.953605 174.750811 
L 316.327915 172.412752 
L 319.075018 189.747587 
L 320.449328 189.690227 
L 320.449328 189.690227 
" clip-path="url(#pb43086dc2f)" style="fill: none; stroke: #1f77b4; stroke-width: 1.5; stroke-linecap: square"/>
    <defs>
     <path id="me2bc25c432" d="M 0 1.5 
C 0.397805 1.5 0.77937 1.341951 1.06066 1.06066 
C 1.341951 0.77937 1.5 0.397805 1.5 0 
C 1.5 -0.397805 1.341951 -0.77937 1.06066 -1.06066 
C 0.77937 -1.341951 0.397805 -1.5 0 -1.5 
C -0.397805 -1.5 -0.77937 -1.341951 -1.06066 -1.06066 
C -1.341951 -0.77937 -1.5 -0.397805 -1.5 0 
C -1.5 0.397805 -1.341951 0.77937 -1.06066 1.06066 
C -0.77937 1.341951 -0.397805 1.5 0 1.5 
z
" style="stroke: #1f77b4"/>
    </defs>
    <g clip-path="url(#pb43086dc2f)">
     <use xlink:href="#me2bc25c432" x="43.29563" y="152.899368" style="fill-opacity: 0; stroke: #1f77b4"/>
     <use xlink:href="#me2bc25c432" x="44.651744" y="153.911241" style="fill-opacity: 0; stroke: #1f77b4"/>
     <use xlink:href="#me2bc25c432" x="46.008869" y="152.089026" style="fill-opacity: 0; stroke: #1f77b4"/>
     <use xlink:href="#me2bc25c432" x="47.364983" y="149.115942" style="fill-opacity: 0; stroke: #1f77b4"/>
     <use xlink:href="#me2bc25c432" x="48.722108" y="148.471571" style="fill-opacity: 0; stroke: #1f77b4"/>
     <use xlink:href="#me2bc25c432" x="50.078222" y="149.377046" style="fill-opacity: 0; stroke: #1f77b4"/>
     <use xlink:href="#me2bc25c432" x="51.435346" y="149.580199" style="fill-opacity: 0; stroke: #1f77b4"/>
     <use xlink:href="#me2bc25c432" x="52.792977" y="148.664729" style="fill-opacity: 0; stroke: #1f77b4"/>
     <use xlink:href="#me2bc25c432" x="54.148585" y="145.016422" style="fill-opacity: 0; stroke: #1f77b4"/>
     <use xlink:href="#me2bc25c432" x="55.506215" y="140.665621" style="fill-opacity: 0; stroke: #1f77b4"/>
     <use xlink:href="#me2bc25c432" x="56.86334" y="135.565563" style="fill-opacity: 0; stroke: #1f77b4"/>
     <use xlink:href="#me2bc25c432" x="58.22097" y="139.62443" style="fill-opacity: 0; stroke: #1f77b4"/>
     <use xlink:href="#me2bc25c432" x="59.578601" y="147.161013" style="fill-opacity: 0; stroke: #1f77b4"/>
     <use xlink:href="#me2bc25c432" x="60.935726" y="155.723422" style="fill-opacity: 0; stroke: #1f77b4"/>
     <use xlink:href="#me2bc25c432" x="62.293356" y="150.947816" style="fill-opacity: 0; stroke: #1f77b4"/>
     <use xlink:href="#me2bc25c432" x="63.650481" y="145.826492" style="fill-opacity: 0; stroke: #1f77b4"/>
     <use xlink:href="#me2bc25c432" x="65.008111" y="144.204588" style="fill-opacity: 0; stroke: #1f77b4"/>
     <use xlink:href="#me2bc25c432" x="66.366752" y="147.357718" style="fill-opacity: 0; stroke: #1f77b4"/>
     <use xlink:href="#me2bc25c432" x="67.724382" y="146.183552" style="fill-opacity: 0; stroke: #1f77b4"/>
     <use xlink:href="#me2bc25c432" x="69.081507" y="143.491971" style="fill-opacity: 0; stroke: #1f77b4"/>
     <use xlink:href="#me2bc25c432" x="70.440654" y="148.239176" style="fill-opacity: 0; stroke: #1f77b4"/>
     <use xlink:href="#me2bc25c432" x="71.798284" y="156.627136" style="fill-opacity: 0; stroke: #1f77b4"/>
     <use xlink:href="#me2bc25c432" x="73.156925" y="163.255732" style="fill-opacity: 0; stroke: #1f77b4"/>
     <use xlink:href="#me2bc25c432" x="74.514555" y="158.65587" style="fill-opacity: 0; stroke: #1f77b4"/>
     <use xlink:href="#me2bc25c432" x="75.873197" y="150.081066" style="fill-opacity: 0; stroke: #1f77b4"/>
     <use xlink:href="#me2bc25c432" x="77.232343" y="141.175623" style="fill-opacity: 0; stroke: #1f77b4"/>
     <use xlink:href="#me2bc25c432" x="78.589468" y="126.608754" style="fill-opacity: 0; stroke: #1f77b4"/>
     <use xlink:href="#me2bc25c432" x="79.948615" y="116.382618" style="fill-opacity: 0; stroke: #1f77b4"/>
     <use xlink:href="#me2bc25c432" x="81.307761" y="116.369668" style="fill-opacity: 0; stroke: #1f77b4"/>
     <use xlink:href="#me2bc25c432" x="82.666402" y="115.225794" style="fill-opacity: 0; stroke: #1f77b4"/>
     <use xlink:href="#me2bc25c432" x="84.025549" y="109.672576" style="fill-opacity: 0; stroke: #1f77b4"/>
     <use xlink:href="#me2bc25c432" x="85.38419" y="97.904658" style="fill-opacity: 0; stroke: #1f77b4"/>
     <use xlink:href="#me2bc25c432" x="86.743337" y="101.271799" style="fill-opacity: 0; stroke: #1f77b4"/>
     <use xlink:href="#me2bc25c432" x="88.102483" y="124.015599" style="fill-opacity: 0; stroke: #1f77b4"/>
     <use xlink:href="#me2bc25c432" x="89.462641" y="138.672272" style="fill-opacity: 0; stroke: #1f77b4"/>
     <use xlink:href="#me2bc25c432" x="90.821787" y="148.395783" style="fill-opacity: 0; stroke: #1f77b4"/>
     <use xlink:href="#me2bc25c432" x="92.180934" y="154.690851" style="fill-opacity: 0; stroke: #1f77b4"/>
     <use xlink:href="#me2bc25c432" x="93.541092" y="154.988261" style="fill-opacity: 0; stroke: #1f77b4"/>
     <use xlink:href="#me2bc25c432" x="94.900238" y="147.895247" style="fill-opacity: 0; stroke: #1f77b4"/>
     <use xlink:href="#me2bc25c432" x="96.260396" y="138.472015" style="fill-opacity: 0; stroke: #1f77b4"/>
     <use xlink:href="#me2bc25c432" x="97.619542" y="130.513503" style="fill-opacity: 0; stroke: #1f77b4"/>
     <use xlink:href="#me2bc25c432" x="98.980205" y="128.761968" style="fill-opacity: 0; stroke: #1f77b4"/>
     <use xlink:href="#me2bc25c432" x="100.338846" y="121.800622" style="fill-opacity: 0; stroke: #1f77b4"/>
     <use xlink:href="#me2bc25c432" x="101.699509" y="124.509009" style="fill-opacity: 0; stroke: #1f77b4"/>
     <use xlink:href="#me2bc25c432" x="103.060172" y="125.371969" style="fill-opacity: 0; stroke: #1f77b4"/>
     <use xlink:href="#me2bc25c432" x="104.42033" y="131.900732" style="fill-opacity: 0; stroke: #1f77b4"/>
     <use xlink:href="#me2bc25c432" x="105.780993" y="135.728875" style="fill-opacity: 0; stroke: #1f77b4"/>
     <use xlink:href="#me2bc25c432" x="107.141656" y="136.480498" style="fill-opacity: 0; stroke: #1f77b4"/>
     <use xlink:href="#me2bc25c432" x="108.501813" y="127.506821" style="fill-opacity: 0; stroke: #1f77b4"/>
     <use xlink:href="#me2bc25c432" x="109.862476" y="113.893201" style="fill-opacity: 0; stroke: #1f77b4"/>
     <use xlink:href="#me2bc25c432" x="111.222634" y="100.837035" style="fill-opacity: 0; stroke: #1f77b4"/>
     <use xlink:href="#me2bc25c432" x="112.583297" y="99.189952" style="fill-opacity: 0; stroke: #1f77b4"/>
     <use xlink:href="#me2bc25c432" x="113.943959" y="104.003772" style="fill-opacity: 0; stroke: #1f77b4"/>
     <use xlink:href="#me2bc25c432" x="115.305633" y="110.678416" style="fill-opacity: 0; stroke: #1f77b4"/>
     <use xlink:href="#me2bc25c432" x="116.666296" y="117.915723" style="fill-opacity: 0; stroke: #1f77b4"/>
     <use xlink:href="#me2bc25c432" x="118.026959" y="119.349715" style="fill-opacity: 0; stroke: #1f77b4"/>
     <use xlink:href="#me2bc25c432" x="119.388633" y="121.383941" style="fill-opacity: 0; stroke: #1f77b4"/>
     <use xlink:href="#me2bc25c432" x="120.749296" y="120.079994" style="fill-opacity: 0; stroke: #1f77b4"/>
     <use xlink:href="#me2bc25c432" x="122.111475" y="116.507941" style="fill-opacity: 0; stroke: #1f77b4"/>
     <use xlink:href="#me2bc25c432" x="123.473655" y="113.811372" style="fill-opacity: 0; stroke: #1f77b4"/>
     <use xlink:href="#me2bc25c432" x="124.833812" y="111.611113" style="fill-opacity: 0; stroke: #1f77b4"/>
     <use xlink:href="#me2bc25c432" x="126.195991" y="97.138525" style="fill-opacity: 0; stroke: #1f77b4"/>
     <use xlink:href="#me2bc25c432" x="127.558171" y="81.5417" style="fill-opacity: 0; stroke: #1f77b4"/>
     <use xlink:href="#me2bc25c432" x="128.919844" y="69.611164" style="fill-opacity: 0; stroke: #1f77b4"/>
     <use xlink:href="#me2bc25c432" x="130.282024" y="86.199351" style="fill-opacity: 0; stroke: #1f77b4"/>
     <use xlink:href="#me2bc25c432" x="131.644203" y="110.655913" style="fill-opacity: 0; stroke: #1f77b4"/>
     <use xlink:href="#me2bc25c432" x="133.005877" y="128.167447" style="fill-opacity: 0; stroke: #1f77b4"/>
     <use xlink:href="#me2bc25c432" x="134.368056" y="132.241791" style="fill-opacity: 0; stroke: #1f77b4"/>
     <use xlink:href="#me2bc25c432" x="135.730235" y="128.137947" style="fill-opacity: 0; stroke: #1f77b4"/>
     <use xlink:href="#me2bc25c432" x="137.091909" y="124.604222" style="fill-opacity: 0; stroke: #1f77b4"/>
     <use xlink:href="#me2bc25c432" x="138.455605" y="126.94486" style="fill-opacity: 0; stroke: #1f77b4"/>
     <use xlink:href="#me2bc25c432" x="139.817784" y="126.187313" style="fill-opacity: 0; stroke: #1f77b4"/>
     <use xlink:href="#me2bc25c432" x="141.179963" y="114.414065" style="fill-opacity: 0; stroke: #1f77b4"/>
     <use xlink:href="#me2bc25c432" x="142.543154" y="112.858618" style="fill-opacity: 0; stroke: #1f77b4"/>
     <use xlink:href="#me2bc25c432" x="143.905333" y="119.78626" style="fill-opacity: 0; stroke: #1f77b4"/>
     <use xlink:href="#me2bc25c432" x="145.269029" y="132.927706" style="fill-opacity: 0; stroke: #1f77b4"/>
     <use xlink:href="#me2bc25c432" x="146.632724" y="138.242458" style="fill-opacity: 0; stroke: #1f77b4"/>
     <use xlink:href="#me2bc25c432" x="147.994398" y="132.818232" style="fill-opacity: 0; stroke: #1f77b4"/>
     <use xlink:href="#me2bc25c432" x="149.358094" y="137.421288" style="fill-opacity: 0; stroke: #1f77b4"/>
     <use xlink:href="#me2bc25c432" x="150.721789" y="138.098448" style="fill-opacity: 0; stroke: #1f77b4"/>
     <use xlink:href="#me2bc25c432" x="152.085485" y="147.6376" style="fill-opacity: 0; stroke: #1f77b4"/>
     <use xlink:href="#me2bc25c432" x="153.448675" y="159.450184" style="fill-opacity: 0; stroke: #1f77b4"/>
     <use xlink:href="#me2bc25c432" x="154.810854" y="167.829424" style="fill-opacity: 0; stroke: #1f77b4"/>
     <use xlink:href="#me2bc25c432" x="156.17455" y="167.603467" style="fill-opacity: 0; stroke: #1f77b4"/>
     <use xlink:href="#me2bc25c432" x="157.539762" y="164.549539" style="fill-opacity: 0; stroke: #1f77b4"/>
     <use xlink:href="#me2bc25c432" x="158.902952" y="159.533607" style="fill-opacity: 0; stroke: #1f77b4"/>
     <use xlink:href="#me2bc25c432" x="160.266648" y="157.085699" style="fill-opacity: 0; stroke: #1f77b4"/>
     <use xlink:href="#me2bc25c432" x="161.630343" y="161.439254" style="fill-opacity: 0; stroke: #1f77b4"/>
     <use xlink:href="#me2bc25c432" x="162.994039" y="169.275515" style="fill-opacity: 0; stroke: #1f77b4"/>
     <use xlink:href="#me2bc25c432" x="164.358746" y="173.188536" style="fill-opacity: 0; stroke: #1f77b4"/>
     <use xlink:href="#me2bc25c432" x="165.722441" y="175.389161" style="fill-opacity: 0; stroke: #1f77b4"/>
     <use xlink:href="#me2bc25c432" x="167.087653" y="177.290727" style="fill-opacity: 0; stroke: #1f77b4"/>
     <use xlink:href="#me2bc25c432" x="168.451349" y="176.191565" style="fill-opacity: 0; stroke: #1f77b4"/>
     <use xlink:href="#me2bc25c432" x="169.816561" y="170.082665" style="fill-opacity: 0; stroke: #1f77b4"/>
     <use xlink:href="#me2bc25c432" x="171.181267" y="159.766767" style="fill-opacity: 0; stroke: #1f77b4"/>
     <use xlink:href="#me2bc25c432" x="172.544963" y="151.052994" style="fill-opacity: 0; stroke: #1f77b4"/>
     <use xlink:href="#me2bc25c432" x="173.910175" y="152.831353" style="fill-opacity: 0; stroke: #1f77b4"/>
     <use xlink:href="#me2bc25c432" x="175.275387" y="160.508209" style="fill-opacity: 0; stroke: #1f77b4"/>
     <use xlink:href="#me2bc25c432" x="176.640599" y="163.059013" style="fill-opacity: 0; stroke: #1f77b4"/>
     <use xlink:href="#me2bc25c432" x="178.005305" y="160.957345" style="fill-opacity: 0; stroke: #1f77b4"/>
     <use xlink:href="#me2bc25c432" x="179.370517" y="156.941805" style="fill-opacity: 0; stroke: #1f77b4"/>
     <use xlink:href="#me2bc25c432" x="180.735729" y="156.472814" style="fill-opacity: 0; stroke: #1f77b4"/>
     <use xlink:href="#me2bc25c432" x="182.100941" y="159.948789" style="fill-opacity: 0; stroke: #1f77b4"/>
     <use xlink:href="#me2bc25c432" x="183.466153" y="167.241471" style="fill-opacity: 0; stroke: #1f77b4"/>
     <use xlink:href="#me2bc25c432" x="184.83086" y="175.351865" style="fill-opacity: 0; stroke: #1f77b4"/>
     <use xlink:href="#me2bc25c432" x="186.196072" y="21.207386" style="fill-opacity: 0; stroke: #1f77b4"/>
     <use xlink:href="#me2bc25c432" x="186.782022" y="-1" style="fill-opacity: 0; stroke: #1f77b4"/>
     <use xlink:href="#me2bc25c432" x="187.802806" y="-1" style="fill-opacity: 0; stroke: #1f77b4"/>
     <use xlink:href="#me2bc25c432" x="188.928012" y="137.731733" style="fill-opacity: 0; stroke: #1f77b4"/>
     <use xlink:href="#me2bc25c432" x="190.29474" y="174.062745" style="fill-opacity: 0; stroke: #1f77b4"/>
     <use xlink:href="#me2bc25c432" x="191.659447" y="174.249726" style="fill-opacity: 0; stroke: #1f77b4"/>
     <use xlink:href="#me2bc25c432" x="193.026175" y="175.362358" style="fill-opacity: 0; stroke: #1f77b4"/>
     <use xlink:href="#me2bc25c432" x="194.391387" y="173.432905" style="fill-opacity: 0; stroke: #1f77b4"/>
     <use xlink:href="#me2bc25c432" x="195.758115" y="169.23809" style="fill-opacity: 0; stroke: #1f77b4"/>
     <use xlink:href="#me2bc25c432" x="197.124844" y="168.698399" style="fill-opacity: 0; stroke: #1f77b4"/>
     <use xlink:href="#me2bc25c432" x="198.491572" y="170.829118" style="fill-opacity: 0; stroke: #1f77b4"/>
     <use xlink:href="#me2bc25c432" x="199.856784" y="175.24423" style="fill-opacity: 0; stroke: #1f77b4"/>
     <use xlink:href="#me2bc25c432" x="201.223007" y="179.318851" style="fill-opacity: 0; stroke: #1f77b4"/>
     <use xlink:href="#me2bc25c432" x="202.589735" y="182.782924" style="fill-opacity: 0; stroke: #1f77b4"/>
     <use xlink:href="#me2bc25c432" x="203.956463" y="187.394947" style="fill-opacity: 0; stroke: #1f77b4"/>
     <use xlink:href="#me2bc25c432" x="205.323192" y="193.469704" style="fill-opacity: 0; stroke: #1f77b4"/>
     <use xlink:href="#me2bc25c432" x="206.691436" y="195.585749" style="fill-opacity: 0; stroke: #1f77b4"/>
     <use xlink:href="#me2bc25c432" x="208.058165" y="194.623185" style="fill-opacity: 0; stroke: #1f77b4"/>
     <use xlink:href="#me2bc25c432" x="209.424893" y="194.25922" style="fill-opacity: 0; stroke: #1f77b4"/>
     <use xlink:href="#me2bc25c432" x="210.791116" y="193.230084" style="fill-opacity: 0; stroke: #1f77b4"/>
     <use xlink:href="#me2bc25c432" x="212.159361" y="193.683495" style="fill-opacity: 0; stroke: #1f77b4"/>
     <use xlink:href="#me2bc25c432" x="213.526089" y="193.862006" style="fill-opacity: 0; stroke: #1f77b4"/>
     <use xlink:href="#me2bc25c432" x="214.894333" y="194.248828" style="fill-opacity: 0; stroke: #1f77b4"/>
     <use xlink:href="#me2bc25c432" x="216.261062" y="193.470079" style="fill-opacity: 0; stroke: #1f77b4"/>
     <use xlink:href="#me2bc25c432" x="217.629306" y="192.595816" style="fill-opacity: 0; stroke: #1f77b4"/>
     <use xlink:href="#me2bc25c432" x="218.996035" y="191.115902" style="fill-opacity: 0; stroke: #1f77b4"/>
     <use xlink:href="#me2bc25c432" x="220.364279" y="187.088978" style="fill-opacity: 0; stroke: #1f77b4"/>
     <use xlink:href="#me2bc25c432" x="221.732524" y="179.490684" style="fill-opacity: 0; stroke: #1f77b4"/>
     <use xlink:href="#me2bc25c432" x="223.100263" y="172.215199" style="fill-opacity: 0; stroke: #1f77b4"/>
     <use xlink:href="#me2bc25c432" x="224.468508" y="166.78023" style="fill-opacity: 0; stroke: #1f77b4"/>
     <use xlink:href="#me2bc25c432" x="225.836753" y="163.919195" style="fill-opacity: 0; stroke: #1f77b4"/>
     <use xlink:href="#me2bc25c432" x="227.204997" y="157.251952" style="fill-opacity: 0; stroke: #1f77b4"/>
     <use xlink:href="#me2bc25c432" x="228.573242" y="144.722107" style="fill-opacity: 0; stroke: #1f77b4"/>
     <use xlink:href="#me2bc25c432" x="229.941486" y="135.630236" style="fill-opacity: 0; stroke: #1f77b4"/>
     <use xlink:href="#me2bc25c432" x="231.309731" y="136.003704" style="fill-opacity: 0; stroke: #1f77b4"/>
     <use xlink:href="#me2bc25c432" x="232.677976" y="132.880218" style="fill-opacity: 0; stroke: #1f77b4"/>
     <use xlink:href="#me2bc25c432" x="234.04622" y="133.310849" style="fill-opacity: 0; stroke: #1f77b4"/>
     <use xlink:href="#me2bc25c432" x="235.415981" y="133.346104" style="fill-opacity: 0; stroke: #1f77b4"/>
     <use xlink:href="#me2bc25c432" x="236.784226" y="138.498207" style="fill-opacity: 0; stroke: #1f77b4"/>
     <use xlink:href="#me2bc25c432" x="238.153987" y="145.84559" style="fill-opacity: 0; stroke: #1f77b4"/>
     <use xlink:href="#me2bc25c432" x="239.521726" y="149.884345" style="fill-opacity: 0; stroke: #1f77b4"/>
     <use xlink:href="#me2bc25c432" x="240.891487" y="153.38476" style="fill-opacity: 0; stroke: #1f77b4"/>
     <use xlink:href="#me2bc25c432" x="242.259732" y="153.370022" style="fill-opacity: 0; stroke: #1f77b4"/>
     <use xlink:href="#me2bc25c432" x="243.629493" y="138.193399" style="fill-opacity: 0; stroke: #1f77b4"/>
     <use xlink:href="#me2bc25c432" x="244.999254" y="137.186219" style="fill-opacity: 0; stroke: #1f77b4"/>
     <use xlink:href="#me2bc25c432" x="246.369015" y="131.262134" style="fill-opacity: 0; stroke: #1f77b4"/>
     <use xlink:href="#me2bc25c432" x="247.73726" y="123.677247" style="fill-opacity: 0; stroke: #1f77b4"/>
     <use xlink:href="#me2bc25c432" x="249.10702" y="124.407267" style="fill-opacity: 0; stroke: #1f77b4"/>
     <use xlink:href="#me2bc25c432" x="250.476781" y="170.854872" style="fill-opacity: 0; stroke: #1f77b4"/>
     <use xlink:href="#me2bc25c432" x="251.846542" y="173.266451" style="fill-opacity: 0; stroke: #1f77b4"/>
     <use xlink:href="#me2bc25c432" x="253.216303" y="175.088874" style="fill-opacity: 0; stroke: #1f77b4"/>
     <use xlink:href="#me2bc25c432" x="254.587581" y="169.248988" style="fill-opacity: 0; stroke: #1f77b4"/>
     <use xlink:href="#me2bc25c432" x="255.957342" y="163.338572" style="fill-opacity: 0; stroke: #1f77b4"/>
     <use xlink:href="#me2bc25c432" x="257.327103" y="158.079776" style="fill-opacity: 0; stroke: #1f77b4"/>
     <use xlink:href="#me2bc25c432" x="258.696864" y="154.426376" style="fill-opacity: 0; stroke: #1f77b4"/>
     <use xlink:href="#me2bc25c432" x="260.068141" y="154.326947" style="fill-opacity: 0; stroke: #1f77b4"/>
     <use xlink:href="#me2bc25c432" x="261.437902" y="154.952651" style="fill-opacity: 0; stroke: #1f77b4"/>
     <use xlink:href="#me2bc25c432" x="262.809179" y="214.415943" style="fill-opacity: 0; stroke: #1f77b4"/>
     <use xlink:href="#me2bc25c432" x="264.17894" y="207.390575" style="fill-opacity: 0; stroke: #1f77b4"/>
     <use xlink:href="#me2bc25c432" x="265.550218" y="202.050172" style="fill-opacity: 0; stroke: #1f77b4"/>
     <use xlink:href="#me2bc25c432" x="266.919979" y="199.767549" style="fill-opacity: 0; stroke: #1f77b4"/>
     <use xlink:href="#me2bc25c432" x="268.291256" y="197.135736" style="fill-opacity: 0; stroke: #1f77b4"/>
     <use xlink:href="#me2bc25c432" x="269.662533" y="198.185228" style="fill-opacity: 0; stroke: #1f77b4"/>
     <use xlink:href="#me2bc25c432" x="271.033811" y="203.498831" style="fill-opacity: 0; stroke: #1f77b4"/>
     <use xlink:href="#me2bc25c432" x="272.405088" y="206.718742" style="fill-opacity: 0; stroke: #1f77b4"/>
     <use xlink:href="#me2bc25c432" x="273.776365" y="209.015686" style="fill-opacity: 0; stroke: #1f77b4"/>
     <use xlink:href="#me2bc25c432" x="275.147643" y="208.829576" style="fill-opacity: 0; stroke: #1f77b4"/>
     <use xlink:href="#me2bc25c432" x="276.51892" y="206.270056" style="fill-opacity: 0; stroke: #1f77b4"/>
     <use xlink:href="#me2bc25c432" x="277.890197" y="199.823347" style="fill-opacity: 0; stroke: #1f77b4"/>
     <use xlink:href="#me2bc25c432" x="279.261475" y="200.439159" style="fill-opacity: 0; stroke: #1f77b4"/>
     <use xlink:href="#me2bc25c432" x="280.632752" y="207.234353" style="fill-opacity: 0; stroke: #1f77b4"/>
     <use xlink:href="#me2bc25c432" x="282.005546" y="212.960578" style="fill-opacity: 0; stroke: #1f77b4"/>
     <use xlink:href="#me2bc25c432" x="283.376823" y="208.746182" style="fill-opacity: 0; stroke: #1f77b4"/>
     <use xlink:href="#me2bc25c432" x="284.7481" y="194.27749" style="fill-opacity: 0; stroke: #1f77b4"/>
     <use xlink:href="#me2bc25c432" x="286.120894" y="176.605595" style="fill-opacity: 0; stroke: #1f77b4"/>
     <use xlink:href="#me2bc25c432" x="287.492171" y="153.789513" style="fill-opacity: 0; stroke: #1f77b4"/>
     <use xlink:href="#me2bc25c432" x="288.864965" y="111.051965" style="fill-opacity: 0; stroke: #1f77b4"/>
     <use xlink:href="#me2bc25c432" x="290.237759" y="12.14448" style="fill-opacity: 0; stroke: #1f77b4"/>
     <use xlink:href="#me2bc25c432" x="290.310781" y="-1" style="fill-opacity: 0; stroke: #1f77b4"/>
     <use xlink:href="#me2bc25c432" x="302.699345" y="-1" style="fill-opacity: 0; stroke: #1f77b4"/>
     <use xlink:href="#me2bc25c432" x="303.964684" y="58.34969" style="fill-opacity: 0; stroke: #1f77b4"/>
     <use xlink:href="#me2bc25c432" x="305.337478" y="112.668525" style="fill-opacity: 0; stroke: #1f77b4"/>
     <use xlink:href="#me2bc25c432" x="306.711788" y="144.308144" style="fill-opacity: 0; stroke: #1f77b4"/>
     <use xlink:href="#me2bc25c432" x="308.084582" y="160.893309" style="fill-opacity: 0; stroke: #1f77b4"/>
     <use xlink:href="#me2bc25c432" x="309.458892" y="169.482995" style="fill-opacity: 0; stroke: #1f77b4"/>
     <use xlink:href="#me2bc25c432" x="310.831686" y="178.733081" style="fill-opacity: 0; stroke: #1f77b4"/>
     <use xlink:href="#me2bc25c432" x="312.205996" y="187.372351" style="fill-opacity: 0; stroke: #1f77b4"/>
     <use xlink:href="#me2bc25c432" x="313.578789" y="184.435666" style="fill-opacity: 0; stroke: #1f77b4"/>
     <use xlink:href="#me2bc25c432" x="314.953605" y="174.750811" style="fill-opacity: 0; stroke: #1f77b4"/>
     <use xlink:href="#me2bc25c432" x="316.327915" y="172.412752" style="fill-opacity: 0; stroke: #1f77b4"/>
     <use xlink:href="#me2bc25c432" x="317.700708" y="181.193659" style="fill-opacity: 0; stroke: #1f77b4"/>
     <use xlink:href="#me2bc25c432" x="319.075018" y="189.747587" style="fill-opacity: 0; stroke: #1f77b4"/>
     <use xlink:href="#me2bc25c432" x="320.449328" y="189.690227" style="fill-opacity: 0; stroke: #1f77b4"/>
    </g>
   </g>
   <g id="line2d_2">
    <path d="M 43.29563 210.441859 
L 47.364983 209.415379 
L 50.078222 208.547089 
L 52.792977 207.472714 
L 55.506215 206.116366 
L 58.22097 204.358421 
L 59.578601 203.274154 
L 60.935726 202.011888 
L 62.293356 200.527775 
L 63.650481 198.766829 
L 65.008111 196.653724 
L 66.366752 194.088695 
L 67.724382 190.944811 
L 69.081507 187.049302 
L 70.440654 182.170117 
L 71.798284 176.046185 
L 73.156925 168.374115 
L 74.514555 158.959975 
L 78.589468 125.616491 
L 79.948615 118.533984 
L 81.307761 115.475265 
L 82.666402 113.547063 
L 84.025549 107.513111 
L 85.38419 97.884499 
L 86.743337 103.791495 
L 88.102483 125.568311 
L 89.462641 142.47741 
L 90.821787 151.1623 
L 92.180934 154.054892 
L 93.541092 152.679169 
L 94.900238 147.65021 
L 96.260396 139.526481 
L 97.619542 130.140227 
L 98.980205 123.419619 
L 100.338846 122.754941 
L 103.060172 130.798702 
L 104.42033 132.522383 
L 105.780993 131.239302 
L 107.141656 127.347031 
L 108.501813 121.628249 
L 109.862476 115.138827 
L 111.222634 109.212637 
L 112.583297 105.244641 
L 113.943959 104.248235 
L 115.305633 106.37909 
L 116.666296 110.840434 
L 118.026959 116.263413 
L 119.388633 121.187612 
L 120.749296 124.283726 
L 122.111475 124.288193 
L 123.473655 119.704727 
L 124.833812 108.777948 
L 127.558171 74.698713 
L 128.919844 75.727573 
L 131.644203 111.086041 
L 133.005877 122.327685 
L 134.368056 127.717936 
L 135.730235 129.122844 
L 137.091909 128.03735 
L 138.455605 125.607996 
L 139.817784 122.844341 
L 141.179963 120.677892 
L 142.543154 119.908854 
L 143.905333 121.053769 
L 145.269029 124.218625 
L 146.632724 129.093531 
L 149.358094 141.571631 
L 150.721789 147.956512 
L 152.085485 153.800462 
L 153.448675 158.76303 
L 154.810854 162.519259 
L 156.17455 164.61046 
L 157.539762 164.234367 
L 160.266648 157.130955 
L 161.630343 161.607956 
L 162.994039 169.921433 
L 164.358746 175.433934 
L 165.722441 177.70537 
L 167.087653 177.286527 
L 168.451349 174.123366 
L 169.816561 167.754291 
L 171.181267 158.687193 
L 172.544963 151.527004 
L 173.910175 152.91473 
L 175.275387 160.111457 
L 176.640599 164.899908 
L 178.005305 162.631111 
L 179.370517 154.373478 
L 180.735729 156.328855 
L 182.100941 167.058865 
L 183.466153 169.218078 
L 184.83086 149.174829 
L 185.870276 -1 
M 186.97981 -1 
L 187.5628 34.014136 
L 188.928012 157.402418 
L 190.29474 173.47216 
L 191.659447 175.691253 
L 193.026175 173.881119 
L 194.391387 170.853295 
L 195.758115 168.6174 
L 197.124844 168.800462 
L 198.491572 171.733081 
L 202.589735 185.416964 
L 203.956463 188.760725 
L 205.323192 191.22924 
L 206.691436 192.948671 
L 208.058165 194.044816 
L 209.424893 194.622335 
L 210.791116 194.751072 
L 212.159361 194.470627 
L 213.526089 193.795723 
L 214.894333 192.716144 
L 216.261062 191.204122 
L 217.629306 189.204886 
L 218.996035 186.650114 
L 220.364279 183.440353 
L 221.732524 179.467106 
L 223.100263 174.615993 
L 224.468508 168.789902 
L 225.836753 161.976443 
L 229.941486 138.885383 
L 231.309731 133.179044 
L 232.677976 130.410233 
L 234.04622 131.12172 
L 235.415981 134.8614 
L 238.153987 146.165387 
L 239.521726 150.88644 
L 240.891487 153.371603 
L 242.259732 152.355014 
L 243.629493 146.295208 
L 246.369015 122.888439 
L 247.73726 125.632924 
L 250.476781 158.47317 
L 251.846542 168.801433 
L 253.216303 173.599023 
L 254.587581 173.470326 
L 255.957342 168.039622 
L 257.327103 157.436418 
L 258.696864 148.645365 
L 260.068141 154.46574 
L 261.437902 169.728417 
L 262.809179 182.68443 
L 264.17894 191.183361 
L 265.550218 196.624402 
L 266.919979 200.233302 
L 268.291256 202.754141 
L 269.662533 204.595957 
L 271.033811 205.995941 
L 272.405088 207.095552 
L 273.776365 207.982837 
L 276.51892 209.329994 
L 279.261475 210.308577 
L 282.005546 211.055157 
L 286.120894 211.895923 
L 291.609036 212.694084 
L 298.47351 213.387247 
L 306.711788 213.960888 
L 317.700708 214.478073 
L 320.449328 214.578583 
L 320.449328 214.578583 
" clip-path="url(#pb43086dc2f)" style="fill: none; stroke: #ff0000; stroke-width: 1.5; stroke-linecap: square"/>
   </g>
   <g id="line2d_3">
    <path d="M 295.727417 216.404326 
L 295.727417 17.735865 
" clip-path="url(#pb43086dc2f)" style="fill: none; stroke-dasharray: 3.7,1.6; stroke-dashoffset: 0; stroke: #808080"/>
   </g>
   <g id="patch_3">
    <path d="M 43.003987 216.404326 
L 43.003987 17.735865 
" style="fill: none; stroke: #000000; stroke-linejoin: miter; stroke-linecap: square"/>
   </g>
   <g id="patch_4">
    <path d="M 320.99976 216.404326 
L 320.99976 17.735865 
" style="fill: none; stroke: #000000; stroke-linejoin: miter; stroke-linecap: square"/>
   </g>
   <g id="patch_5">
    <path d="M 43.003987 216.404326 
L 320.99976 216.404326 
" style="fill: none; stroke: #000000; stroke-linejoin: miter; stroke-linecap: square"/>
   </g>
   <g id="patch_6">
    <path d="M 43.003987 17.735865 
L 320.99976 17.735865 
" style="fill: none; stroke: #000000; stroke-linejoin: miter; stroke-linecap: square"/>
   </g>
   <g id="matplotlib.axis_1">
    <g id="xtick_1">
     <g id="line2d_4">
      <defs>
       <path id="m258740ab4b" d="M 0 0 
L 0 3.75 
" style="stroke: #000000; stroke-width: 1.25"/>
      </defs>
      <g>
       <use xlink:href="#m258740ab4b" x="43.003987" y="216.404326" style="stroke: #000000; stroke-width: 1.25"/>
      </g>
     </g>
     <g id="text_1">
      <!-- $\mathdefault{429}$ -->
      <g transform="translate(33.818987 231.52792)">
       <text>
        <tspan style="font: 11px 'Arial'" x="0 6.117676 12.235352" y="-0.09375">429</tspan>
       </text>
      </g>
     </g>
    </g>
    <g id="xtick_2">
     <g id="line2d_5">
      <g>
       <use xlink:href="#m258740ab4b" x="93.548673" y="216.404326" style="stroke: #000000; stroke-width: 1.25"/>
      </g>
     </g>
     <g id="text_2">
      <!-- $\mathdefault{430}$ -->
      <g transform="translate(84.363673 231.52792)">
       <text>
        <tspan style="font: 11px 'Arial'" x="0 6.117676 12.235352" y="-0.09375">430</tspan>
       </text>
      </g>
     </g>
    </g>
    <g id="xtick_3">
     <g id="line2d_6">
      <g>
       <use xlink:href="#m258740ab4b" x="144.093359" y="216.404326" style="stroke: #000000; stroke-width: 1.25"/>
      </g>
     </g>
     <g id="text_3">
      <!-- $\mathdefault{431}$ -->
      <g transform="translate(134.908359 231.52792)">
       <text>
        <tspan style="font: 11px 'Arial'" x="0 6.117676 12.235352" y="-0.09375">431</tspan>
       </text>
      </g>
     </g>
    </g>
    <g id="xtick_4">
     <g id="line2d_7">
      <g>
       <use xlink:href="#m258740ab4b" x="194.638045" y="216.404326" style="stroke: #000000; stroke-width: 1.25"/>
      </g>
     </g>
     <g id="text_4">
      <!-- $\mathdefault{432}$ -->
      <g transform="translate(185.453045 231.52792)">
       <text>
        <tspan style="font: 11px 'Arial'" x="0 6.117676 12.235352" y="-0.09375">432</tspan>
       </text>
      </g>
     </g>
    </g>
    <g id="xtick_5">
     <g id="line2d_8">
      <g>
       <use xlink:href="#m258740ab4b" x="245.182731" y="216.404326" style="stroke: #000000; stroke-width: 1.25"/>
      </g>
     </g>
     <g id="text_5">
      <!-- $\mathdefault{433}$ -->
      <g transform="translate(235.997731 231.52792)">
       <text>
        <tspan style="font: 11px 'Arial'" x="0 6.117676 12.235352" y="-0.09375">433</tspan>
       </text>
      </g>
     </g>
    </g>
    <g id="xtick_6">
     <g id="line2d_9">
      <g>
       <use xlink:href="#m258740ab4b" x="295.727417" y="216.404326" style="stroke: #000000; stroke-width: 1.25"/>
      </g>
     </g>
     <g id="text_6">
      <!-- $\mathdefault{434}$ -->
      <g transform="translate(286.542417 231.52792)">
       <text>
        <tspan style="font: 11px 'Arial'" x="0 6.117676 12.235352" y="-0.09375">434</tspan>
       </text>
      </g>
     </g>
    </g>
    <g id="text_7">
     <!-- $\lambda$ {\sffamily (nm)} -->
     <g transform="translate(164.206736 246.411565) scale(0.12 -0.12)">
      <defs>
       <path id="StandardSymL-6c" d="M 480 3650 
C 525 4013 710 4224 998 4224 
C 1203 4224 1376 4064 1472 3778 
C 1517 3650 1574 3440 1632 3198 
L 154 19 
L 755 19 
L 1843 2301 
C 2048 1059 2150 607 2266 358 
C 2406 83 2611 -64 2848 -64 
C 3098 -64 3296 89 3405 371 
C 3475 543 3501 715 3507 1014 
L 3373 1014 
C 3322 683 3174 499 2944 499 
C 2752 499 2586 620 2483 843 
C 2400 1008 2355 1174 2266 1645 
L 2093 2466 
C 2086 2485 2080 2530 2067 2594 
C 1920 3415 1690 4192 1536 4422 
C 1395 4627 1203 4736 992 4736 
C 602 4736 397 4403 326 3650 
L 480 3650 
z
" transform="scale(0.015625)"/>
       <path id="NimbusSanL-Regu-28" d="M 1510 4672 
C 870 3833 467 2668 467 1663 
C 467 652 870 -513 1510 -1351 
L 1862 -1351 
C 1299 -436 986 639 986 1663 
C 986 2681 1299 3763 1862 4672 
L 1510 4672 
z
" transform="scale(0.015625)"/>
       <path id="NimbusSanL-Regu-6e" d="M 448 3328 
L 448 0 
L 986 0 
L 986 1835 
C 986 2539 1344 2988 1894 2988 
C 2317 2988 2586 2732 2586 2328 
L 2586 0 
L 3117 0 
L 3117 2539 
C 3117 3097 2701 3456 2054 3456 
C 1555 3456 1235 3263 941 2796 
L 941 3328 
L 448 3328 
z
" transform="scale(0.015625)"/>
       <path id="NimbusSanL-Regu-6d" d="M 448 3328 
L 448 0 
L 986 0 
L 986 2089 
C 986 2597 1338 2988 1773 2988 
C 2170 2988 2394 2744 2394 2315 
L 2394 0 
L 2931 0 
L 2931 2109 
C 2931 2597 3283 2988 3718 2988 
C 4109 2988 4339 2738 4339 2315 
L 4339 0 
L 4877 0 
L 4877 2520 
C 4877 3123 4531 3456 3904 3456 
C 3456 3456 3187 3321 2874 2943 
C 2675 3302 2406 3456 1971 3456 
C 1523 3456 1229 3289 941 2886 
L 941 3328 
L 448 3328 
z
" transform="scale(0.015625)"/>
       <path id="NimbusSanL-Regu-29" d="M 595 -1351 
C 1235 -513 1638 652 1638 1657 
C 1638 2668 1235 3833 595 4672 
L 243 4672 
C 806 3756 1120 2681 1120 1657 
C 1120 639 806 -442 243 -1351 
L 595 -1351 
z
" transform="scale(0.015625)"/>
      </defs>
      <use xlink:href="#StandardSymL-6c" transform="scale(0.996264)"/>
      <use xlink:href="#NimbusSanL-Regu-28" transform="translate(91.855235 0) scale(0.996264)"/>
      <use xlink:href="#NimbusSanL-Regu-6e" transform="translate(125.030464 0) scale(0.996264)"/>
      <use xlink:href="#NimbusSanL-Regu-6d" transform="translate(180.422141 0) scale(0.996264)"/>
      <use xlink:href="#NimbusSanL-Regu-29" transform="translate(263.410572 0) scale(0.996264)"/>
     </g>
    </g>
   </g>
   <g id="matplotlib.axis_2">
    <g id="ytick_1">
     <g id="line2d_10">
      <defs>
       <path id="m3f3a439b34" d="M 0 0 
L -3.75 0 
" style="stroke: #000000; stroke-width: 1.25"/>
      </defs>
      <g>
       <use xlink:href="#m3f3a439b34" x="43.003987" y="216.404326" style="stroke: #000000; stroke-width: 1.25"/>
      </g>
     </g>
     <g id="text_8">
      <!-- $\mathdefault{0.0}$ -->
      <g transform="translate(20.353987 220.341123)">
       <text>
        <tspan style="font: 11px 'Arial'" x="0 6.117676 9.173828" y="-0.09375">0.0</tspan>
       </text>
      </g>
     </g>
    </g>
    <g id="ytick_2">
     <g id="line2d_11">
      <g>
       <use xlink:href="#m3f3a439b34" x="43.003987" y="190.141911" style="stroke: #000000; stroke-width: 1.25"/>
      </g>
     </g>
     <g id="text_9">
      <!-- $\mathdefault{0.2}$ -->
      <g transform="translate(20.353987 194.078708)">
       <text>
        <tspan style="font: 11px 'Arial'" x="0 6.117676 9.173828" y="-0.09375">0.2</tspan>
       </text>
      </g>
     </g>
    </g>
    <g id="ytick_3">
     <g id="line2d_12">
      <g>
       <use xlink:href="#m3f3a439b34" x="43.003987" y="163.879497" style="stroke: #000000; stroke-width: 1.25"/>
      </g>
     </g>
     <g id="text_10">
      <!-- $\mathdefault{0.4}$ -->
      <g transform="translate(20.353987 167.816294)">
       <text>
        <tspan style="font: 11px 'Arial'" x="0 6.117676 9.173828" y="-0.09375">0.4</tspan>
       </text>
      </g>
     </g>
    </g>
    <g id="ytick_4">
     <g id="line2d_13">
      <g>
       <use xlink:href="#m3f3a439b34" x="43.003987" y="137.617083" style="stroke: #000000; stroke-width: 1.25"/>
      </g>
     </g>
     <g id="text_11">
      <!-- $\mathdefault{0.6}$ -->
      <g transform="translate(20.353987 141.553879)">
       <text>
        <tspan style="font: 11px 'Arial'" x="0 6.117676 9.173828" y="-0.09375">0.6</tspan>
       </text>
      </g>
     </g>
    </g>
    <g id="ytick_5">
     <g id="line2d_14">
      <g>
       <use xlink:href="#m3f3a439b34" x="43.003987" y="111.354668" style="stroke: #000000; stroke-width: 1.25"/>
      </g>
     </g>
     <g id="text_12">
      <!-- $\mathdefault{0.8}$ -->
      <g transform="translate(20.353987 115.291465)">
       <text>
        <tspan style="font: 11px 'Arial'" x="0 6.117676 9.173828" y="-0.09375">0.8</tspan>
       </text>
      </g>
     </g>
    </g>
    <g id="ytick_6">
     <g id="line2d_15">
      <g>
       <use xlink:href="#m3f3a439b34" x="43.003987" y="85.092254" style="stroke: #000000; stroke-width: 1.25"/>
      </g>
     </g>
     <g id="text_13">
      <!-- $\mathdefault{1.0}$ -->
      <g transform="translate(20.353987 89.029051)">
       <text>
        <tspan style="font: 11px 'Arial'" x="0 6.117676 9.173828" y="-0.09375">1.0</tspan>
       </text>
      </g>
     </g>
    </g>
    <g id="ytick_7">
     <g id="line2d_16">
      <g>
       <use xlink:href="#m3f3a439b34" x="43.003987" y="58.829839" style="stroke: #000000; stroke-width: 1.25"/>
      </g>
     </g>
     <g id="text_14">
      <!-- $\mathdefault{1.2}$ -->
      <g transform="translate(20.353987 62.766636)">
       <text>
        <tspan style="font: 11px 'Arial'" x="0 6.117676 9.173828" y="-0.09375">1.2</tspan>
       </text>
      </g>
     </g>
    </g>
    <g id="ytick_8">
     <g id="line2d_17">
      <g>
       <use xlink:href="#m3f3a439b34" x="43.003987" y="32.567425" style="stroke: #000000; stroke-width: 1.25"/>
      </g>
     </g>
     <g id="text_15">
      <!-- $\mathdefault{1.4}$ -->
      <g transform="translate(20.353987 36.504222)">
       <text>
        <tspan style="font: 11px 'Arial'" x="0 6.117676 9.173828" y="-0.09375">1.4</tspan>
       </text>
      </g>
     </g>
    </g>
    <g id="text_16">
     <!-- $B_{\lambda}$ {\sffamily (photons/cm\textsuperscript{2}/s/nm)} -->
     <g transform="translate(13.728305 177.714049) rotate(-90) scale(0.12 -0.12)">
      <defs>
       <path id="NimbusRomNo9L-ReguItal-42" d="M -51 0 
L 1754 0 
C 2758 0 3450 523 3450 1274 
C 3450 1510 3373 1732 3232 1872 
C 3104 2019 2976 2095 2643 2235 
C 3098 2344 3283 2420 3488 2598 
C 3667 2751 3763 2968 3763 3222 
C 3763 3827 3309 4160 2483 4160 
L 832 4160 
L 832 4057 
C 1229 4025 1325 3974 1325 3795 
C 1325 3700 1299 3541 1254 3388 
L 467 574 
C 352 204 307 166 -51 102 
L -51 0 
z
M 1523 2108 
C 1939 2108 2208 2083 2336 2032 
C 2598 1923 2758 1643 2758 1299 
C 2758 612 2285 192 1504 192 
C 1235 192 1094 287 1094 459 
C 1094 535 1171 841 1318 1350 
C 1402 1637 1440 1783 1523 2108 
z
M 2003 3789 
C 2042 3929 2118 3967 2368 3967 
C 2880 3967 3117 3751 3117 3280 
C 3117 2917 2963 2637 2688 2484 
C 2470 2356 2163 2312 1587 2312 
L 2003 3789 
z
" transform="scale(0.015625)"/>
       <path id="NimbusSanL-Regu-70" d="M 346 -1408 
L 883 -1408 
L 883 371 
C 1165 25 1478 -128 1914 -128 
C 2778 -128 3347 568 3347 1632 
C 3347 2752 2797 3456 1907 3456 
C 1453 3456 1088 3251 838 2854 
L 838 3359 
L 346 3359 
L 346 -1408 
z
M 1818 2956 
C 2406 2956 2790 2440 2790 1644 
C 2790 887 2400 371 1818 371 
C 1254 371 883 880 883 1663 
C 883 2447 1254 2956 1818 2956 
z
" transform="scale(0.015625)"/>
       <path id="NimbusSanL-Regu-68" d="M 448 4672 
L 448 0 
L 979 0 
L 979 1853 
C 979 2539 1338 2988 1888 2988 
C 2061 2988 2234 2930 2362 2834 
C 2515 2725 2579 2565 2579 2328 
L 2579 0 
L 3110 0 
L 3110 2539 
C 3110 3103 2707 3456 2054 3456 
C 1581 3456 1293 3308 979 2898 
L 979 4672 
L 448 4672 
z
" transform="scale(0.015625)"/>
       <path id="NimbusSanL-Regu-6f" d="M 1741 3456 
C 800 3456 230 2784 230 1663 
C 230 543 794 -128 1747 -128 
C 2688 -128 3264 543 3264 1638 
C 3264 2791 2707 3456 1741 3456 
z
M 1747 2963 
C 2349 2963 2707 2472 2707 1644 
C 2707 861 2336 364 1747 364 
C 1152 364 787 855 787 1663 
C 787 2466 1152 2963 1747 2963 
z
" transform="scale(0.015625)"/>
       <path id="NimbusSanL-Regu-74" d="M 1626 3328 
L 1075 3328 
L 1075 4249 
L 544 4249 
L 544 3328 
L 90 3328 
L 90 2892 
L 544 2892 
L 544 402 
C 544 64 774 -128 1190 -128 
C 1318 -128 1446 -116 1626 -84 
L 1626 364 
C 1555 345 1472 339 1370 339 
C 1139 339 1075 402 1075 634 
L 1075 2892 
L 1626 2892 
L 1626 3328 
z
" transform="scale(0.015625)"/>
       <path id="NimbusSanL-Regu-73" d="M 2803 2428 
C 2797 3084 2362 3456 1587 3456 
C 806 3456 301 3052 301 2434 
C 301 1912 570 1663 1363 1472 
L 1862 1351 
C 2234 1262 2381 1129 2381 887 
C 2381 574 2067 364 1600 364 
C 1312 364 1069 447 934 587 
C 851 683 813 778 781 1014 
L 218 1014 
C 243 243 678 -128 1555 -128 
C 2400 -128 2938 288 2938 931 
C 2938 1428 2656 1702 1990 1861 
L 1478 1982 
C 1043 2084 858 2224 858 2459 
C 858 2765 1133 2963 1568 2963 
C 1997 2963 2227 2778 2240 2428 
L 2803 2428 
z
" transform="scale(0.015625)"/>
       <path id="NimbusSanL-Regu-2f" d="M 1466 4672 
L -51 -128 
L 301 -128 
L 1818 4672 
L 1466 4672 
z
" transform="scale(0.015625)"/>
       <path id="NimbusSanL-Regu-63" d="M 3014 2237 
C 2989 2561 2918 2771 2790 2956 
C 2560 3270 2157 3456 1690 3456 
C 787 3456 198 2740 198 1632 
C 198 555 774 -128 1683 -128 
C 2483 -128 2989 352 3053 1167 
L 2515 1167 
C 2426 632 2150 364 1696 364 
C 1107 364 755 842 755 1632 
C 755 2466 1101 2963 1683 2963 
C 2131 2963 2413 2701 2477 2237 
L 3014 2237 
z
" transform="scale(0.015625)"/>
       <path id="NimbusSanL-Regu-32" d="M 3238 556 
L 851 556 
C 909 928 1114 1165 1670 1493 
L 2310 1839 
C 2944 2185 3270 2653 3270 3211 
C 3270 3589 3117 3942 2848 4185 
C 2579 4428 2246 4544 1818 4544 
C 1242 4544 813 4339 563 3955 
C 403 3711 333 3429 320 2967 
L 883 2967 
C 902 3275 941 3461 1018 3608 
C 1165 3884 1459 4051 1798 4051 
C 2310 4051 2694 3685 2694 3198 
C 2694 2839 2483 2531 2080 2300 
L 1491 1967 
C 544 1428 269 999 218 0 
L 3238 0 
L 3238 556 
z
" transform="scale(0.015625)"/>
      </defs>
      <use xlink:href="#NimbusRomNo9L-ReguItal-42" transform="scale(0.996264)"/>
      <use xlink:href="#StandardSymL-6c" transform="translate(60.871631 -20.616338) scale(0.737241)"/>
      <use xlink:href="#NimbusSanL-Regu-28" transform="translate(135.818713 0) scale(0.996264)"/>
      <use xlink:href="#NimbusSanL-Regu-70" transform="translate(168.993943 0) scale(0.996264)"/>
      <use xlink:href="#NimbusSanL-Regu-68" transform="translate(224.38562 0) scale(0.996264)"/>
      <use xlink:href="#NimbusSanL-Regu-6f" transform="translate(279.777297 0) scale(0.996264)"/>
      <use xlink:href="#NimbusSanL-Regu-74" transform="translate(335.168974 0) scale(0.996264)"/>
      <use xlink:href="#NimbusSanL-Regu-6f" transform="translate(362.864143 0) scale(0.996264)"/>
      <use xlink:href="#NimbusSanL-Regu-6e" transform="translate(418.25582 0) scale(0.996264)"/>
      <use xlink:href="#NimbusSanL-Regu-73" transform="translate(473.647497 0) scale(0.996264)"/>
      <use xlink:href="#NimbusSanL-Regu-2f" transform="translate(523.460698 0) scale(0.996264)"/>
      <use xlink:href="#NimbusSanL-Regu-63" transform="translate(551.155868 0) scale(0.996264)"/>
      <use xlink:href="#NimbusSanL-Regu-6d" transform="translate(600.969068 0) scale(0.996264)"/>
      <use xlink:href="#NimbusSanL-Regu-32" transform="translate(683.957498 36.163231) scale(0.737241)"/>
      <use xlink:href="#NimbusSanL-Regu-2f" transform="translate(725.445777 0) scale(0.996264)"/>
      <use xlink:href="#NimbusSanL-Regu-73" transform="translate(753.140947 0) scale(0.996264)"/>
      <use xlink:href="#NimbusSanL-Regu-2f" transform="translate(802.954147 0) scale(0.996264)"/>
      <use xlink:href="#NimbusSanL-Regu-6e" transform="translate(830.649317 0) scale(0.996264)"/>
      <use xlink:href="#NimbusSanL-Regu-6d" transform="translate(886.040994 0) scale(0.996264)"/>
      <use xlink:href="#NimbusSanL-Regu-29" transform="translate(969.029424 0) scale(0.996264)"/>
     </g>
    </g>
    <g id="text_17">
     <!-- $\times\mathdefault{10^{13}}\mathdefault{}$ -->
     <g transform="translate(43.003987 14.735865)">
      <text>
       <tspan style="font: 11px 'STIXGeneral'" x="0" y="-0.799312500000001"></tspan>
       <tspan style="font: 11px 'Arial'" x="7.039993 13.157669" y="-0.799312500000001">10</tspan>
       <tspan style="font: 7.7px 'Arial'" x="19.467003 23.749376" y="-8.465625">13</tspan>
      </text>
     </g>
    </g>
   </g>
   <g id="patch_7">
    <path d="M 217.800817 47.652918 
L 217.800817 67.40298 
L 294.609383 67.40298 
" style="fill: none; stroke: #000000; stroke-linecap: round"/>
    <path d="M 290.609383 65.40298 
L 294.609383 67.40298 
L 290.609383 69.40298 
" style="fill: none; stroke: #000000; stroke-linecap: round"/>
   </g>
   <g id="text_18">
    <g id="patch_8">
     <path d="M 184.100817 50.702711 
L 251.500817 50.702711 
Q 254.500817 50.702711 254.500817 47.702711 
L 254.500817 37.602711 
Q 254.500817 34.602711 251.500817 34.602711 
L 184.100817 34.602711 
Q 181.100817 34.602711 181.100817 37.602711 
L 181.100817 47.702711 
Q 181.100817 50.702711 184.100817 50.702711 
z
" style="fill: #f5deb3; stroke: #000000; stroke-linejoin: miter"/>
    </g>
    <!-- D$_{\gamma}$ (434.00) nm -->
    <g transform="translate(184.100817 44.902711)">
     <text>
      <tspan style="font: 10px 'Arial'" x="0 10.686517 13.464837 16.794915 22.356439 27.917962 33.479486 36.257806 41.81933 47.380853 50.710931 53.489251 59.050775" y="-0.71875">D(434.00)nm</tspan>
      <tspan style="font: italic 7px 'STIXGeneral'" x="7.375898" y="0.6031250000000004"></tspan>
     </text>
    </g>
   </g>
   <g id="text_19">
    <text style="font: 10px 'Arial'; text-anchor: middle" x="236.305625" y="63.283539" transform="rotate(-0 236.305625 63.283539)">Q-branch</text>
   </g>
   <g id="text_20">
    <text style="font: 10px 'Arial'; text-anchor: middle" x="130.664439" y="10.480989" transform="rotate(-0 130.664439 10.480989)">B-D + C-D</text>
   </g>
   <g id="text_21">
    <text style="font: 700 12px 'Arial'; text-anchor: middle" x="182.001874" y="11.735865" transform="rotate(-0 182.001874 11.735865)">HP boron rod (redeposit test) - 1 min</text>
   </g>
  </g>
 </g>
 <defs>
  <clipPath id="pb43086dc2f">
   <rect x="43.003987" y="17.735865" width="277.995773" height="198.668461"/>
  </clipPath>
 </defs>
</svg>
