<?xml version="1.0" encoding="utf-8" standalone="no"?>
<!DOCTYPE svg PUBLIC "-//W3C//DTD SVG 1.1//EN"
  "http://www.w3.org/Graphics/SVG/1.1/DTD/svg11.dtd">
<svg xmlns:xlink="http://www.w3.org/1999/xlink" width="324pt" height="252pt" viewBox="0 0 324 252" xmlns="http://www.w3.org/2000/svg" version="1.1">
 <metadata>
  <rdf:RDF xmlns:dc="http://purl.org/dc/elements/1.1/" xmlns:cc="http://creativecommons.org/ns#" xmlns:rdf="http://www.w3.org/1999/02/22-rdf-syntax-ns#">
   <cc:Work>
    <dc:type rdf:resource="http://purl.org/dc/dcmitype/StillImage"/>
    <dc:date>2024-12-06T11:06:06.143053</dc:date>
    <dc:format>image/svg+xml</dc:format>
    <dc:creator>
     <cc:Agent>
      <dc:title>Matplotlib v3.9.2, https://matplotlib.org/</dc:title>
     </cc:Agent>
    </dc:creator>
   </cc:Work>
  </rdf:RDF>
 </metadata>
 <defs>
  <style type="text/css">*{stroke-linejoin: round; stroke-linecap: butt}</style>
 </defs>
 <g id="figure_1">
  <g id="patch_1">
   <path d="M 0 252 
L 324 252 
L 324 0 
L 0 0 
z
" style="fill: #ffffff"/>
  </g>
  <g id="axes_1">
   <g id="patch_2">
    <path d="M 43.003987 216.404326 
L 320.99976 216.404326 
L 320.99976 17.735865 
L 43.003987 17.735865 
z
" style="fill: #ffffff"/>
   </g>
   <g id="PolyCollection_1">
    <path d="M 43.312815 216.298499 
L 43.312815 216.404326 
L 44.668424 216.404326 
L 46.024538 216.404326 
L 47.381663 216.404326 
L 48.737776 216.404326 
L 50.094901 216.404326 
L 51.451015 216.404326 
L 52.80814 216.404326 
L 54.16577 216.404326 
L 55.521379 216.404326 
L 56.879009 216.404326 
L 58.236134 216.404326 
L 59.593764 216.404326 
L 60.951394 216.404326 
L 62.308519 216.404326 
L 63.666149 216.404326 
L 65.023274 216.404326 
L 66.380905 216.404326 
L 67.739546 216.404326 
L 69.097176 216.404326 
L 70.454301 216.404326 
L 71.813447 216.404326 
L 73.171078 216.404326 
L 74.529719 216.404326 
L 75.887349 216.404326 
L 77.24599 216.404326 
L 78.605137 216.404326 
L 79.962262 216.404326 
L 81.321408 216.404326 
L 82.680555 216.404326 
L 84.039196 216.404326 
L 85.398343 216.404326 
L 86.756984 216.404326 
L 88.11613 216.404326 
L 89.475277 216.404326 
L 90.835435 216.404326 
L 92.194581 216.404326 
L 93.553728 216.404326 
L 94.913885 216.404326 
L 96.273032 216.404326 
L 97.633189 216.404326 
L 98.992336 216.404326 
L 100.352999 216.404326 
L 101.71164 216.404326 
L 103.072303 216.404326 
L 104.432966 216.404326 
L 105.793123 216.404326 
L 107.153786 216.404326 
L 108.514449 216.404326 
L 109.874607 216.404326 
L 111.23527 216.404326 
L 112.595427 216.404326 
L 113.95609 216.404326 
L 115.316753 216.404326 
L 116.678427 216.404326 
L 118.03909 216.404326 
L 119.399753 216.404326 
L 120.761427 216.404326 
L 122.12209 216.404326 
L 123.484269 216.404326 
L 124.846448 216.404326 
L 126.206606 216.404326 
L 127.568785 216.404326 
L 128.930964 216.404326 
L 130.292638 216.404326 
L 131.654817 216.404326 
L 133.016997 216.404326 
L 134.378671 216.404326 
L 135.74085 216.404326 
L 137.103029 216.404326 
L 138.464703 216.404326 
L 139.828399 216.404326 
L 141.190578 216.404326 
L 142.552757 216.404326 
L 143.915947 216.404326 
L 145.278127 216.404326 
L 146.641822 216.404326 
L 148.005518 216.404326 
L 149.367192 216.404326 
L 150.730887 216.404326 
L 152.094583 216.404326 
L 153.458279 216.404326 
L 154.821469 216.404326 
L 156.183648 216.404326 
L 157.547344 216.404326 
L 158.912556 216.404326 
L 160.275746 216.404326 
L 161.639441 216.404326 
L 163.003137 216.404326 
L 164.366833 216.404326 
L 165.731539 216.404326 
L 167.095235 216.404326 
L 168.460447 216.404326 
L 169.824142 216.404326 
L 171.189354 216.404326 
L 172.554061 216.404326 
L 173.917757 216.404326 
L 175.282969 216.404326 
L 176.648181 216.404326 
L 178.013392 216.404326 
L 179.378099 216.404326 
L 180.743311 216.404326 
L 182.108523 216.404326 
L 183.473735 216.404326 
L 184.838947 216.404326 
L 186.203653 216.404326 
L 187.568865 216.404326 
L 188.935594 216.404326 
L 190.300806 216.404326 
L 191.667534 216.404326 
L 193.03224 216.404326 
L 194.398969 216.404326 
L 195.764181 216.404326 
L 197.130909 216.404326 
L 198.497637 216.404326 
L 199.864366 216.404326 
L 201.229578 216.404326 
L 202.5958 216.404326 
L 203.962529 216.404326 
L 205.329257 216.404326 
L 206.695985 216.404326 
L 208.06423 216.404326 
L 209.430958 216.404326 
L 210.797687 216.404326 
L 212.16391 216.404326 
L 213.532154 216.404326 
L 214.898882 216.404326 
L 216.267127 216.404326 
L 217.633855 216.404326 
L 219.0021 216.404326 
L 220.368828 216.404326 
L 221.737073 216.404326 
L 223.105318 216.404326 
L 224.473057 216.404326 
L 225.841302 216.404326 
L 227.209546 216.404326 
L 228.577791 216.404326 
L 229.946036 216.404326 
L 231.31428 216.404326 
L 232.682525 216.404326 
L 234.050769 216.404326 
L 235.419014 216.404326 
L 236.788775 216.404326 
L 238.15702 216.404326 
L 239.526781 216.404326 
L 240.89452 216.404326 
L 242.264281 216.404326 
L 243.632526 216.404326 
L 245.002287 216.404326 
L 246.372048 216.404326 
L 247.741809 216.404326 
L 249.110053 216.404326 
L 250.479814 216.404326 
L 251.849575 216.404326 
L 253.219336 216.404326 
L 254.589097 216.404326 
L 255.960374 216.404326 
L 257.330135 216.404326 
L 258.699896 216.404326 
L 260.069657 216.404326 
L 261.440935 216.404326 
L 262.810696 216.404326 
L 264.181973 216.404326 
L 265.551734 216.404326 
L 266.923011 216.404326 
L 268.292772 216.404326 
L 269.66405 216.404326 
L 271.035327 216.404326 
L 272.406604 216.404326 
L 273.777882 216.404326 
L 275.149159 216.404326 
L 276.520436 216.404326 
L 277.891714 216.404326 
L 279.262991 216.404326 
L 280.634268 216.404326 
L 282.005546 216.404326 
L 283.378339 216.404326 
L 284.749617 216.404326 
L 286.120894 216.404326 
L 287.493688 216.404326 
L 288.864965 216.404326 
L 290.237759 216.404326 
L 291.610552 216.404326 
L 292.98183 216.404326 
L 294.354623 216.404326 
L 295.727417 216.404326 
L 297.100211 216.404326 
L 298.473004 216.404326 
L 299.846303 216.404326 
L 301.219097 216.404326 
L 302.591891 216.404326 
L 303.964684 216.404326 
L 305.337478 216.404326 
L 306.710272 216.404326 
L 308.084582 216.404326 
L 309.457376 216.404326 
L 310.831686 216.404326 
L 312.204479 216.404326 
L 313.578789 216.404326 
L 314.951583 216.404326 
L 316.326398 216.404326 
L 317.700708 216.404326 
L 319.073502 216.404326 
L 320.447812 216.404326 
L 320.447812 215.906643 
L 320.447812 215.906643 
L 319.073502 215.89076 
L 317.700708 215.874127 
L 316.326398 215.856657 
L 314.951583 215.838305 
L 313.578789 215.819048 
L 312.204479 215.798774 
L 310.831686 215.777457 
L 309.457376 215.754974 
L 308.084582 215.731293 
L 306.710272 215.706272 
L 305.337478 215.679866 
L 303.964684 215.651943 
L 302.591891 215.622383 
L 301.219097 215.591058 
L 299.846303 215.557824 
L 298.473004 215.522512 
L 297.100211 215.484974 
L 295.727417 215.445005 
L 294.354623 215.402393 
L 292.98183 215.356901 
L 291.610552 215.308322 
L 290.237759 215.256255 
L 288.864965 215.200423 
L 287.493688 215.140528 
L 286.120894 215.076023 
L 284.749617 215.006588 
L 283.378339 214.931627 
L 282.005546 214.850453 
L 280.634268 214.762571 
L 279.262991 214.667123 
L 277.891714 214.56323 
L 276.520436 214.449883 
L 275.149159 214.325918 
L 273.777882 214.189994 
L 272.406604 214.040553 
L 271.035327 213.875783 
L 269.66405 213.693563 
L 268.292772 213.491406 
L 266.923011 213.266642 
L 265.551734 213.0153 
L 264.181973 212.733812 
L 262.810696 212.416616 
L 261.440935 212.058488 
L 260.069657 211.651471 
L 258.699896 211.187791 
L 257.330135 210.656463 
L 255.960374 210.044567 
L 254.589097 209.335399 
L 253.219336 208.510996 
L 251.849575 207.546611 
L 250.479814 206.412756 
L 249.110053 205.073481 
L 247.741809 203.487503 
L 246.372048 201.600853 
L 245.002287 199.359038 
L 243.632526 196.705743 
L 242.264281 193.600541 
L 240.89452 190.028638 
L 239.526781 186.067748 
L 238.15702 181.905212 
L 236.788775 177.929151 
L 235.419014 174.67897 
L 234.050769 172.751348 
L 232.682525 172.53002 
L 231.31428 173.9761 
L 229.946036 176.5688 
L 228.577791 179.34012 
L 227.209546 180.40195 
L 225.841302 174.943079 
L 224.473057 177.088614 
L 223.105318 190.452041 
L 221.737073 196.583297 
L 220.368828 200.078014 
L 219.0021 202.529211 
L 217.633855 204.418845 
L 216.267127 205.935949 
L 214.898882 207.185414 
L 213.532154 208.227567 
L 212.16391 209.108301 
L 210.797687 209.857276 
L 209.430958 210.500265 
L 208.06423 211.055751 
L 206.695985 211.539063 
L 205.329257 211.960995 
L 203.962529 212.331689 
L 202.5958 212.658935 
L 201.229578 212.949025 
L 199.864366 213.207179 
L 198.497637 213.438244 
L 197.130909 213.645584 
L 195.764181 213.832286 
L 194.398969 214.000779 
L 193.03224 214.15365 
L 191.667534 214.292396 
L 190.300806 214.419047 
L 188.935594 214.534657 
L 187.568865 214.640688 
L 186.203653 214.737946 
L 184.838947 214.827429 
L 183.473735 214.909997 
L 182.108523 214.986307 
L 180.743311 215.056972 
L 179.378099 215.12253 
L 178.013392 215.183435 
L 176.648181 215.240155 
L 175.282969 215.293042 
L 173.917757 215.342433 
L 172.554061 215.388575 
L 171.189354 215.431825 
L 169.824142 215.472403 
L 168.460447 215.510468 
L 167.095235 215.546301 
L 165.731539 215.579996 
L 164.366833 215.611779 
L 163.003137 215.641747 
L 161.639441 215.670056 
L 160.275746 215.696824 
L 158.912556 215.722153 
L 157.547344 215.746187 
L 156.183648 215.768953 
L 154.821469 215.79054 
L 153.458279 215.811065 
L 152.094583 215.830588 
L 150.730887 215.849167 
L 149.367192 215.866861 
L 148.005518 215.883702 
L 146.641822 215.899789 
L 145.278127 215.915144 
L 143.915947 215.929796 
L 142.552757 215.943811 
L 141.190578 215.957207 
L 139.828399 215.970028 
L 138.464703 215.98232 
L 137.103029 215.994083 
L 135.74085 216.005366 
L 134.378671 216.016191 
L 133.016997 216.026578 
L 131.654817 216.036559 
L 130.292638 216.046151 
L 128.930964 216.05537 
L 127.568785 216.064241 
L 126.206606 216.072779 
L 124.846448 216.080989 
L 123.484269 216.088909 
L 122.12209 216.096543 
L 120.761427 216.103895 
L 119.399753 216.110993 
L 118.03909 216.117837 
L 116.678427 216.124446 
L 115.316753 216.130833 
L 113.95609 216.137 
L 112.595427 216.142961 
L 111.23527 216.148724 
L 109.874607 216.1543 
L 108.514449 216.159694 
L 107.153786 216.164917 
L 105.793123 216.169976 
L 104.432966 216.174874 
L 103.072303 216.179622 
L 101.71164 216.184224 
L 100.352999 216.18868 
L 98.992336 216.193009 
L 97.633189 216.197205 
L 96.273032 216.201279 
L 94.913885 216.205232 
L 93.553728 216.209074 
L 92.194581 216.212803 
L 90.835435 216.216426 
L 89.475277 216.21995 
L 88.11613 216.223374 
L 86.756984 216.226703 
L 85.398343 216.22994 
L 84.039196 216.233091 
L 82.680555 216.236156 
L 81.321408 216.23914 
L 79.962262 216.242046 
L 78.605137 216.244872 
L 77.24599 216.247629 
L 75.887349 216.250314 
L 74.529719 216.252929 
L 73.171078 216.255479 
L 71.813447 216.257964 
L 70.454301 216.26039 
L 69.097176 216.262753 
L 67.739546 216.265059 
L 66.380905 216.267311 
L 65.023274 216.269507 
L 63.666149 216.27165 
L 62.308519 216.273743 
L 60.951394 216.275786 
L 59.593764 216.277783 
L 58.236134 216.279733 
L 56.879009 216.281638 
L 55.521379 216.2835 
L 54.16577 216.285318 
L 52.80814 216.287097 
L 51.451015 216.288836 
L 50.094901 216.290536 
L 48.737776 216.2922 
L 47.381663 216.293826 
L 46.024538 216.295418 
L 44.668424 216.296975 
L 43.312815 216.298499 
z
" clip-path="url(#p95b14f0b37)" style="fill: #1f77b4; fill-opacity: 0.25"/>
   </g>
   <g id="PolyCollection_2">
    <path d="M 43.312815 215.408454 
L 43.312815 216.404326 
L 44.668424 216.404326 
L 46.024538 216.404326 
L 47.381663 216.404326 
L 48.737776 216.404326 
L 50.094901 216.404326 
L 51.451015 216.404326 
L 52.80814 216.404326 
L 54.16577 216.404326 
L 55.521379 216.404326 
L 56.879009 216.404326 
L 58.236134 216.404326 
L 59.593764 216.404326 
L 60.951394 216.404326 
L 62.308519 216.404326 
L 63.666149 216.404326 
L 65.023274 216.404326 
L 66.380905 216.404326 
L 67.739546 216.404326 
L 69.097176 216.404326 
L 70.454301 216.404326 
L 71.813447 216.404326 
L 73.171078 216.404326 
L 74.529719 216.404326 
L 75.887349 216.404326 
L 77.24599 216.404326 
L 78.605137 216.404326 
L 79.962262 216.404326 
L 81.321408 216.404326 
L 82.680555 216.404326 
L 84.039196 216.404326 
L 85.398343 216.404326 
L 86.756984 216.404326 
L 88.11613 216.404326 
L 89.475277 216.404326 
L 90.835435 216.404326 
L 92.194581 216.404326 
L 93.553728 216.404326 
L 94.913885 216.404326 
L 96.273032 216.404326 
L 97.633189 216.404326 
L 98.992336 216.404326 
L 100.352999 216.404326 
L 101.71164 216.404326 
L 103.072303 216.404326 
L 104.432966 216.404326 
L 105.793123 216.404326 
L 107.153786 216.404326 
L 108.514449 216.404326 
L 109.874607 216.404326 
L 111.23527 216.404326 
L 112.595427 216.404326 
L 113.95609 216.404326 
L 115.316753 216.404326 
L 116.678427 216.404326 
L 118.03909 216.404326 
L 119.399753 216.404326 
L 120.761427 216.404326 
L 122.12209 216.404326 
L 123.484269 216.404326 
L 124.846448 216.404326 
L 126.206606 216.404326 
L 127.568785 216.404326 
L 128.930964 216.404326 
L 130.292638 216.404326 
L 131.654817 216.404326 
L 133.016997 216.404326 
L 134.378671 216.404326 
L 135.74085 216.404326 
L 137.103029 216.404326 
L 138.464703 216.404326 
L 139.828399 216.404326 
L 141.190578 216.404326 
L 142.552757 216.404326 
L 143.915947 216.404326 
L 145.278127 216.404326 
L 146.641822 216.404326 
L 148.005518 216.404326 
L 149.367192 216.404326 
L 150.730887 216.404326 
L 152.094583 216.404326 
L 153.458279 216.404326 
L 154.821469 216.404326 
L 156.183648 216.404326 
L 157.547344 216.404326 
L 158.912556 216.404326 
L 160.275746 216.404326 
L 161.639441 216.404326 
L 163.003137 216.404326 
L 164.366833 216.404326 
L 165.731539 216.404326 
L 167.095235 216.404326 
L 168.460447 216.404326 
L 169.824142 216.404326 
L 171.189354 216.404326 
L 172.554061 216.404326 
L 173.917757 216.404326 
L 175.282969 216.404326 
L 176.648181 216.404326 
L 178.013392 216.404326 
L 179.378099 216.404326 
L 180.743311 216.404326 
L 182.108523 216.404326 
L 183.473735 216.404326 
L 184.838947 216.404326 
L 186.203653 216.404326 
L 187.568865 216.404326 
L 188.935594 216.404326 
L 190.300806 216.404326 
L 191.667534 216.404326 
L 193.03224 216.404326 
L 194.398969 216.404326 
L 195.764181 216.404326 
L 197.130909 216.404326 
L 198.497637 216.404326 
L 199.864366 216.404326 
L 201.229578 216.404326 
L 202.5958 216.404326 
L 203.962529 216.404326 
L 205.329257 216.404326 
L 206.695985 216.404326 
L 208.06423 216.404326 
L 209.430958 216.404326 
L 210.797687 216.404326 
L 212.16391 216.404326 
L 213.532154 216.404326 
L 214.898882 216.404326 
L 216.267127 216.404326 
L 217.633855 216.404326 
L 219.0021 216.404326 
L 220.368828 216.404326 
L 221.737073 216.404326 
L 223.105318 216.404326 
L 224.473057 216.404326 
L 225.841302 216.404326 
L 227.209546 216.404326 
L 228.577791 216.404326 
L 229.946036 216.404326 
L 231.31428 216.404326 
L 232.682525 216.404326 
L 234.050769 216.404326 
L 235.419014 216.404326 
L 236.788775 216.404326 
L 238.15702 216.404326 
L 239.526781 216.404326 
L 240.89452 216.404326 
L 242.264281 216.404326 
L 243.632526 216.404326 
L 245.002287 216.404326 
L 246.372048 216.404326 
L 247.741809 216.404326 
L 249.110053 216.404326 
L 250.479814 216.404326 
L 251.849575 216.404326 
L 253.219336 216.404326 
L 254.589097 216.404326 
L 255.960374 216.404326 
L 257.330135 216.404326 
L 258.699896 216.404326 
L 260.069657 216.404326 
L 261.440935 216.404326 
L 262.810696 216.404326 
L 264.181973 216.404326 
L 265.551734 216.404326 
L 266.923011 216.404326 
L 268.292772 216.404326 
L 269.66405 216.404326 
L 271.035327 216.404326 
L 272.406604 216.404326 
L 273.777882 216.404326 
L 275.149159 216.404326 
L 276.520436 216.404326 
L 277.891714 216.404326 
L 279.262991 216.404326 
L 280.634268 216.404326 
L 282.005546 216.404326 
L 283.378339 216.404326 
L 284.749617 216.404326 
L 286.120894 216.404326 
L 287.493688 216.404326 
L 288.864965 216.404326 
L 290.237759 216.404326 
L 291.610552 216.404326 
L 292.98183 216.404326 
L 294.354623 216.404326 
L 295.727417 216.404326 
L 297.100211 216.404326 
L 298.473004 216.404326 
L 299.846303 216.404326 
L 301.219097 216.404326 
L 302.591891 216.404326 
L 303.964684 216.404326 
L 305.337478 216.404326 
L 306.710272 216.404326 
L 308.084582 216.404326 
L 309.457376 216.404326 
L 310.831686 216.404326 
L 312.204479 216.404326 
L 313.578789 216.404326 
L 314.951583 216.404326 
L 316.326398 216.404326 
L 317.700708 216.404326 
L 319.073502 216.404326 
L 320.447812 216.404326 
L 320.447812 216.244458 
L 320.447812 216.244458 
L 319.073502 216.241853 
L 317.700708 216.239184 
L 316.326398 216.236443 
L 314.951583 216.23363 
L 313.578789 216.230748 
L 312.204479 216.227786 
L 310.831686 216.224748 
L 309.457376 216.221625 
L 308.084582 216.218421 
L 306.710272 216.215125 
L 305.337478 216.21174 
L 303.964684 216.20826 
L 302.591891 216.204682 
L 301.219097 216.201001 
L 299.846303 216.197212 
L 298.473004 216.193311 
L 297.100211 216.189296 
L 295.727417 216.185159 
L 294.354623 216.180897 
L 292.98183 216.176504 
L 291.610552 216.171979 
L 290.237759 216.167306 
L 288.864965 216.162484 
L 287.493688 216.157512 
L 286.120894 216.152371 
L 284.749617 216.147066 
L 283.378339 216.141583 
L 282.005546 216.135906 
L 280.634268 216.130041 
L 279.262991 216.12397 
L 277.891714 216.117684 
L 276.520436 216.111171 
L 275.149159 216.104421 
L 273.777882 216.097421 
L 272.406604 216.090158 
L 271.035327 216.082617 
L 269.66405 216.074783 
L 268.292772 216.06664 
L 266.923011 216.058181 
L 265.551734 216.049367 
L 264.181973 216.040198 
L 262.810696 216.030632 
L 261.440935 216.020666 
L 260.069657 216.010253 
L 258.699896 215.999388 
L 257.330135 215.98803 
L 255.960374 215.976147 
L 254.589097 215.963688 
L 253.219336 215.950643 
L 251.849575 215.936956 
L 250.479814 215.92258 
L 249.110053 215.907465 
L 247.741809 215.891572 
L 246.372048 215.874804 
L 245.002287 215.85711 
L 243.632526 215.838413 
L 242.264281 215.818651 
L 240.89452 215.797686 
L 239.526781 215.775466 
L 238.15702 215.751806 
L 236.788775 215.726632 
L 235.419014 215.699736 
L 234.050769 215.671002 
L 232.682525 215.640203 
L 231.31428 215.60711 
L 229.946036 215.571456 
L 228.577791 215.532935 
L 227.209546 215.491182 
L 225.841302 215.445769 
L 224.473057 215.396185 
L 223.105318 215.341837 
L 221.737073 215.281938 
L 220.368828 215.215588 
L 219.0021 215.141728 
L 217.633855 215.058747 
L 216.267127 214.964969 
L 214.898882 214.857742 
L 213.532154 214.734031 
L 212.16391 214.589042 
L 210.797687 214.416754 
L 209.430958 214.207445 
L 208.06423 213.94661 
L 206.695985 213.610138 
L 205.329257 213.15759 
L 203.962529 212.51105 
L 202.5958 211.508498 
L 201.229578 209.766922 
L 199.864366 206.24833 
L 198.497637 198.137289 
L 197.130909 186.595227 
L 195.764181 193.346005 
L 194.398969 200.542705 
L 193.03224 200.831995 
L 191.667534 195.716991 
L 190.300806 188.083458 
L 188.935594 190.860002 
L 187.568865 196.682241 
L 186.203653 197.778324 
L 184.838947 194.722833 
L 183.473735 186.981971 
L 182.108523 172.863267 
L 180.743311 156.92935 
L 179.378099 157.191307 
L 178.013392 167.566013 
L 176.648181 169.897998 
L 175.282969 159.971037 
L 173.917757 142.852117 
L 172.554061 144.086202 
L 171.189354 165.331066 
L 169.824142 182.225661 
L 168.460447 191.287997 
L 167.095235 195.481477 
L 165.731539 196.500241 
L 164.366833 194.600596 
L 163.003137 188.708995 
L 161.639441 177.460965 
L 160.275746 168.618719 
L 158.912556 175.696536 
L 157.547344 184.909349 
L 156.183648 187.941115 
L 154.821469 185.233163 
L 153.458279 175.901056 
L 152.094583 156.573569 
L 150.730887 130.912386 
L 149.367192 129.116013 
L 148.005518 143.800103 
L 146.641822 144.605353 
L 145.278127 129.19056 
L 143.915947 114.549635 
L 142.552757 127.808516 
L 141.190578 153.886479 
L 139.828399 172.30094 
L 138.464703 182.300381 
L 137.103029 186.781682 
L 135.74085 187.33419 
L 134.378671 184.044786 
L 133.016997 175.402767 
L 131.654817 157.511457 
L 130.292638 125.353248 
L 128.930964 93.702727 
L 127.568785 108.575031 
L 126.206606 145.426099 
L 124.846448 169.539744 
L 123.484269 182.031133 
L 122.12209 187.979578 
L 120.761427 190.029588 
L 119.399753 189.154413 
L 118.03909 185.333415 
L 116.678427 177.86136 
L 115.316753 165.976204 
L 113.95609 151.632996 
L 112.595427 143.852217 
L 111.23527 150.588178 
L 109.874607 164.451238 
L 108.514449 175.797656 
L 107.153786 181.966167 
L 105.793123 182.908005 
L 104.432966 178.601887 
L 103.072303 171.967011 
L 101.71164 173.54534 
L 100.352999 183.705136 
L 98.992336 192.470527 
L 97.633189 197.577195 
L 96.273032 200.103325 
L 94.913885 200.855634 
L 93.553728 200.059641 
L 92.194581 197.372492 
L 90.835435 191.600639 
L 89.475277 179.773324 
L 88.11613 155.949823 
L 86.756984 121.945778 
L 85.398343 122.366495 
L 84.039196 147.545772 
L 82.680555 151.353337 
L 81.321408 134.054818 
L 79.962262 147.651296 
L 78.605137 178.018971 
L 77.24599 193.864995 
L 75.887349 201.514093 
L 74.529719 205.656549 
L 73.171078 208.158618 
L 71.813447 209.79653 
L 70.454301 210.938935 
L 69.097176 211.772019 
L 67.739546 212.403644 
L 66.380905 212.896992 
L 65.023274 213.291158 
L 63.666149 213.612615 
L 62.308519 213.879436 
L 60.951394 214.103952 
L 59.593764 214.295371 
L 58.236134 214.460278 
L 56.879009 214.603648 
L 55.521379 214.729434 
L 54.16577 214.840415 
L 52.80814 214.939283 
L 51.451015 215.027715 
L 50.094901 215.107216 
L 48.737776 215.179145 
L 47.381663 215.244416 
L 46.024538 215.303976 
L 44.668424 215.358447 
L 43.312815 215.408454 
z
" clip-path="url(#p95b14f0b37)" style="fill: #ff7f0e; fill-opacity: 0.25"/>
   </g>
   <g id="line2d_1">
    <path d="M 43.312815 197.692425 
L 44.668424 209.033927 
L 46.024538 204.928578 
L 47.381663 196.617631 
L 48.737776 197.492561 
L 50.094901 204.023044 
L 51.451015 200.843798 
L 55.521379 178.965165 
L 56.879009 177.383146 
L 58.236134 178.308477 
L 59.593764 190.58218 
L 60.951394 205.885016 
L 62.308519 213.091279 
L 63.666149 204.128192 
L 65.023274 203.53857 
L 66.380905 205.854756 
L 67.739546 202.869879 
L 69.097176 191.059723 
L 70.454301 186.074664 
L 71.813447 196.514084 
L 73.171078 216.404326 
L 75.887349 216.404326 
L 77.24599 205.21822 
L 78.605137 180.444941 
L 79.962262 150.430031 
L 81.321408 134.457363 
L 82.680555 149.069697 
L 84.039196 143.298792 
L 85.398343 129.233151 
L 86.756984 120.256025 
L 88.11613 142.265455 
L 89.475277 178.633941 
L 90.835435 194.033643 
L 92.194581 202.506817 
L 93.553728 208.722817 
L 94.913885 212.098848 
L 97.633189 194.490725 
L 98.992336 190.944266 
L 100.352999 185.181725 
L 101.71164 173.325156 
L 103.072303 175.295837 
L 104.432966 173.047022 
L 107.153786 185.5775 
L 108.514449 182.27926 
L 109.874607 164.829615 
L 111.23527 150.709904 
L 112.595427 143.423446 
L 113.95609 150.729039 
L 116.678427 175.213389 
L 118.03909 189.747171 
L 119.399753 194.793156 
L 120.761427 186.945947 
L 122.12209 173.271916 
L 123.484269 164.528194 
L 124.846448 165.300326 
L 126.206606 154.189243 
L 127.568785 117.969785 
L 128.930964 96.528076 
L 130.292638 105.564735 
L 131.654817 150.461827 
L 133.016997 191.533502 
L 134.378671 211.92433 
L 135.74085 209.454185 
L 137.103029 195.087559 
L 139.828399 174.186014 
L 142.552757 125.721485 
L 143.915947 122.954193 
L 145.278127 122.078232 
L 146.641822 138.438663 
L 148.005518 142.961841 
L 149.367192 133.162757 
L 150.730887 128.542993 
L 152.094583 146.133562 
L 153.458279 175.903057 
L 154.821469 190.909841 
L 157.547344 181.026546 
L 158.912556 176.412389 
L 160.275746 170.711364 
L 161.639441 171.823454 
L 163.003137 185.86107 
L 164.366833 195.304533 
L 165.731539 197.663842 
L 167.095235 195.824607 
L 168.460447 191.069947 
L 169.824142 182.077568 
L 171.189354 167.161938 
L 172.554061 147.185542 
L 173.917757 139.581228 
L 176.648181 169.969337 
L 178.013392 164.360477 
L 179.378099 157.685875 
L 180.743311 157.026225 
L 182.108523 164.592107 
L 184.838947 197.024111 
L 186.203653 202.108604 
L 187.568865 196.240135 
L 188.935594 185.929027 
L 190.300806 188.248624 
L 191.667534 190.90234 
L 193.03224 196.217267 
L 194.398969 199.197835 
L 195.764181 192.193769 
L 197.130909 184.021801 
L 198.497637 192.140912 
L 199.864366 202.681621 
L 201.229578 205.477115 
L 202.5958 208.994033 
L 203.962529 209.73679 
L 205.329257 208.027237 
L 206.695985 209.006447 
L 208.06423 212.809355 
L 209.430958 210.437311 
L 210.797687 209.074297 
L 212.16391 208.885226 
L 213.532154 206.935082 
L 214.898882 206.376716 
L 216.267127 206.020798 
L 217.633855 205.12557 
L 219.0021 203.109006 
L 220.368828 203.164377 
L 221.737073 200.223391 
L 223.105318 189.891487 
L 224.473057 178.301375 
L 225.841302 173.007168 
L 227.209546 177.786652 
L 228.577791 179.181597 
L 229.946036 173.142677 
L 231.31428 168.875218 
L 232.682525 174.166677 
L 234.050769 174.87471 
L 235.419014 171.538247 
L 236.788775 173.598274 
L 238.15702 185.860099 
L 239.526781 185.44177 
L 240.89452 195.21822 
L 242.264281 216.404326 
L 245.002287 216.404326 
L 246.372048 214.67005 
L 247.741809 199.385081 
L 249.110053 198.52021 
L 250.479814 188.572994 
L 251.849575 212.464335 
L 253.219336 216.404326 
L 287.493688 216.404326 
L 288.864965 191.899047 
L 290.237759 82.25822 
L 290.742491 -1 
M 300.697015 -1 
L 301.219097 135.161522 
L 302.591891 216.404326 
L 303.964684 216.404326 
L 305.337478 196.219502 
L 306.710272 184.452097 
L 308.084582 187.052207 
L 309.457376 203.590506 
L 310.831686 216.404326 
L 314.951583 216.404326 
L 316.326398 211.389674 
L 317.700708 195.392667 
L 319.073502 214.35914 
L 320.447812 216.404326 
L 320.447812 216.404326 
" clip-path="url(#p95b14f0b37)" style="fill: none; stroke: #1f77b4; stroke-width: 1.5; stroke-linecap: square"/>
    <defs>
     <path id="m297746da88" d="M 0 1.5 
C 0.397805 1.5 0.77937 1.341951 1.06066 1.06066 
C 1.341951 0.77937 1.5 0.397805 1.5 0 
C 1.5 -0.397805 1.341951 -0.77937 1.06066 -1.06066 
C 0.77937 -1.341951 0.397805 -1.5 0 -1.5 
C -0.397805 -1.5 -0.77937 -1.341951 -1.06066 -1.06066 
C -1.341951 -0.77937 -1.5 -0.397805 -1.5 0 
C -1.5 0.397805 -1.341951 0.77937 -1.06066 1.06066 
C -0.77937 1.341951 -0.397805 1.5 0 1.5 
z
" style="stroke: #1f77b4"/>
    </defs>
    <g clip-path="url(#p95b14f0b37)">
     <use xlink:href="#m297746da88" x="43.312815" y="197.692425" style="fill-opacity: 0; stroke: #1f77b4"/>
     <use xlink:href="#m297746da88" x="44.668424" y="209.033927" style="fill-opacity: 0; stroke: #1f77b4"/>
     <use xlink:href="#m297746da88" x="46.024538" y="204.928578" style="fill-opacity: 0; stroke: #1f77b4"/>
     <use xlink:href="#m297746da88" x="47.381663" y="196.617631" style="fill-opacity: 0; stroke: #1f77b4"/>
     <use xlink:href="#m297746da88" x="48.737776" y="197.492561" style="fill-opacity: 0; stroke: #1f77b4"/>
     <use xlink:href="#m297746da88" x="50.094901" y="204.023044" style="fill-opacity: 0; stroke: #1f77b4"/>
     <use xlink:href="#m297746da88" x="51.451015" y="200.843798" style="fill-opacity: 0; stroke: #1f77b4"/>
     <use xlink:href="#m297746da88" x="52.80814" y="193.405378" style="fill-opacity: 0; stroke: #1f77b4"/>
     <use xlink:href="#m297746da88" x="54.16577" y="186.307451" style="fill-opacity: 0; stroke: #1f77b4"/>
     <use xlink:href="#m297746da88" x="55.521379" y="178.965165" style="fill-opacity: 0; stroke: #1f77b4"/>
     <use xlink:href="#m297746da88" x="56.879009" y="177.383146" style="fill-opacity: 0; stroke: #1f77b4"/>
     <use xlink:href="#m297746da88" x="58.236134" y="178.308477" style="fill-opacity: 0; stroke: #1f77b4"/>
     <use xlink:href="#m297746da88" x="59.593764" y="190.58218" style="fill-opacity: 0; stroke: #1f77b4"/>
     <use xlink:href="#m297746da88" x="60.951394" y="205.885016" style="fill-opacity: 0; stroke: #1f77b4"/>
     <use xlink:href="#m297746da88" x="62.308519" y="213.091279" style="fill-opacity: 0; stroke: #1f77b4"/>
     <use xlink:href="#m297746da88" x="63.666149" y="204.128192" style="fill-opacity: 0; stroke: #1f77b4"/>
     <use xlink:href="#m297746da88" x="65.023274" y="203.53857" style="fill-opacity: 0; stroke: #1f77b4"/>
     <use xlink:href="#m297746da88" x="66.380905" y="205.854756" style="fill-opacity: 0; stroke: #1f77b4"/>
     <use xlink:href="#m297746da88" x="67.739546" y="202.869879" style="fill-opacity: 0; stroke: #1f77b4"/>
     <use xlink:href="#m297746da88" x="69.097176" y="191.059723" style="fill-opacity: 0; stroke: #1f77b4"/>
     <use xlink:href="#m297746da88" x="70.454301" y="186.074664" style="fill-opacity: 0; stroke: #1f77b4"/>
     <use xlink:href="#m297746da88" x="71.813447" y="196.514084" style="fill-opacity: 0; stroke: #1f77b4"/>
     <use xlink:href="#m297746da88" x="73.171078" y="216.404326" style="fill-opacity: 0; stroke: #1f77b4"/>
     <use xlink:href="#m297746da88" x="74.529719" y="216.404326" style="fill-opacity: 0; stroke: #1f77b4"/>
     <use xlink:href="#m297746da88" x="75.887349" y="216.404326" style="fill-opacity: 0; stroke: #1f77b4"/>
     <use xlink:href="#m297746da88" x="77.24599" y="205.21822" style="fill-opacity: 0; stroke: #1f77b4"/>
     <use xlink:href="#m297746da88" x="78.605137" y="180.444941" style="fill-opacity: 0; stroke: #1f77b4"/>
     <use xlink:href="#m297746da88" x="79.962262" y="150.430031" style="fill-opacity: 0; stroke: #1f77b4"/>
     <use xlink:href="#m297746da88" x="81.321408" y="134.457363" style="fill-opacity: 0; stroke: #1f77b4"/>
     <use xlink:href="#m297746da88" x="82.680555" y="149.069697" style="fill-opacity: 0; stroke: #1f77b4"/>
     <use xlink:href="#m297746da88" x="84.039196" y="143.298792" style="fill-opacity: 0; stroke: #1f77b4"/>
     <use xlink:href="#m297746da88" x="85.398343" y="129.233151" style="fill-opacity: 0; stroke: #1f77b4"/>
     <use xlink:href="#m297746da88" x="86.756984" y="120.256025" style="fill-opacity: 0; stroke: #1f77b4"/>
     <use xlink:href="#m297746da88" x="88.11613" y="142.265455" style="fill-opacity: 0; stroke: #1f77b4"/>
     <use xlink:href="#m297746da88" x="89.475277" y="178.633941" style="fill-opacity: 0; stroke: #1f77b4"/>
     <use xlink:href="#m297746da88" x="90.835435" y="194.033643" style="fill-opacity: 0; stroke: #1f77b4"/>
     <use xlink:href="#m297746da88" x="92.194581" y="202.506817" style="fill-opacity: 0; stroke: #1f77b4"/>
     <use xlink:href="#m297746da88" x="93.553728" y="208.722817" style="fill-opacity: 0; stroke: #1f77b4"/>
     <use xlink:href="#m297746da88" x="94.913885" y="212.098848" style="fill-opacity: 0; stroke: #1f77b4"/>
     <use xlink:href="#m297746da88" x="96.273032" y="203.594943" style="fill-opacity: 0; stroke: #1f77b4"/>
     <use xlink:href="#m297746da88" x="97.633189" y="194.490725" style="fill-opacity: 0; stroke: #1f77b4"/>
     <use xlink:href="#m297746da88" x="98.992336" y="190.944266" style="fill-opacity: 0; stroke: #1f77b4"/>
     <use xlink:href="#m297746da88" x="100.352999" y="185.181725" style="fill-opacity: 0; stroke: #1f77b4"/>
     <use xlink:href="#m297746da88" x="101.71164" y="173.325156" style="fill-opacity: 0; stroke: #1f77b4"/>
     <use xlink:href="#m297746da88" x="103.072303" y="175.295837" style="fill-opacity: 0; stroke: #1f77b4"/>
     <use xlink:href="#m297746da88" x="104.432966" y="173.047022" style="fill-opacity: 0; stroke: #1f77b4"/>
     <use xlink:href="#m297746da88" x="105.793123" y="179.47374" style="fill-opacity: 0; stroke: #1f77b4"/>
     <use xlink:href="#m297746da88" x="107.153786" y="185.5775" style="fill-opacity: 0; stroke: #1f77b4"/>
     <use xlink:href="#m297746da88" x="108.514449" y="182.27926" style="fill-opacity: 0; stroke: #1f77b4"/>
     <use xlink:href="#m297746da88" x="109.874607" y="164.829615" style="fill-opacity: 0; stroke: #1f77b4"/>
     <use xlink:href="#m297746da88" x="111.23527" y="150.709904" style="fill-opacity: 0; stroke: #1f77b4"/>
     <use xlink:href="#m297746da88" x="112.595427" y="143.423446" style="fill-opacity: 0; stroke: #1f77b4"/>
     <use xlink:href="#m297746da88" x="113.95609" y="150.729039" style="fill-opacity: 0; stroke: #1f77b4"/>
     <use xlink:href="#m297746da88" x="115.316753" y="162.491399" style="fill-opacity: 0; stroke: #1f77b4"/>
     <use xlink:href="#m297746da88" x="116.678427" y="175.213389" style="fill-opacity: 0; stroke: #1f77b4"/>
     <use xlink:href="#m297746da88" x="118.03909" y="189.747171" style="fill-opacity: 0; stroke: #1f77b4"/>
     <use xlink:href="#m297746da88" x="119.399753" y="194.793156" style="fill-opacity: 0; stroke: #1f77b4"/>
     <use xlink:href="#m297746da88" x="120.761427" y="186.945947" style="fill-opacity: 0; stroke: #1f77b4"/>
     <use xlink:href="#m297746da88" x="122.12209" y="173.271916" style="fill-opacity: 0; stroke: #1f77b4"/>
     <use xlink:href="#m297746da88" x="123.484269" y="164.528194" style="fill-opacity: 0; stroke: #1f77b4"/>
     <use xlink:href="#m297746da88" x="124.846448" y="165.300326" style="fill-opacity: 0; stroke: #1f77b4"/>
     <use xlink:href="#m297746da88" x="126.206606" y="154.189243" style="fill-opacity: 0; stroke: #1f77b4"/>
     <use xlink:href="#m297746da88" x="127.568785" y="117.969785" style="fill-opacity: 0; stroke: #1f77b4"/>
     <use xlink:href="#m297746da88" x="128.930964" y="96.528076" style="fill-opacity: 0; stroke: #1f77b4"/>
     <use xlink:href="#m297746da88" x="130.292638" y="105.564735" style="fill-opacity: 0; stroke: #1f77b4"/>
     <use xlink:href="#m297746da88" x="131.654817" y="150.461827" style="fill-opacity: 0; stroke: #1f77b4"/>
     <use xlink:href="#m297746da88" x="133.016997" y="191.533502" style="fill-opacity: 0; stroke: #1f77b4"/>
     <use xlink:href="#m297746da88" x="134.378671" y="211.92433" style="fill-opacity: 0; stroke: #1f77b4"/>
     <use xlink:href="#m297746da88" x="135.74085" y="209.454185" style="fill-opacity: 0; stroke: #1f77b4"/>
     <use xlink:href="#m297746da88" x="137.103029" y="195.087559" style="fill-opacity: 0; stroke: #1f77b4"/>
     <use xlink:href="#m297746da88" x="138.464703" y="184.709693" style="fill-opacity: 0; stroke: #1f77b4"/>
     <use xlink:href="#m297746da88" x="139.828399" y="174.186014" style="fill-opacity: 0; stroke: #1f77b4"/>
     <use xlink:href="#m297746da88" x="141.190578" y="150.66327" style="fill-opacity: 0; stroke: #1f77b4"/>
     <use xlink:href="#m297746da88" x="142.552757" y="125.721485" style="fill-opacity: 0; stroke: #1f77b4"/>
     <use xlink:href="#m297746da88" x="143.915947" y="122.954193" style="fill-opacity: 0; stroke: #1f77b4"/>
     <use xlink:href="#m297746da88" x="145.278127" y="122.078232" style="fill-opacity: 0; stroke: #1f77b4"/>
     <use xlink:href="#m297746da88" x="146.641822" y="138.438663" style="fill-opacity: 0; stroke: #1f77b4"/>
     <use xlink:href="#m297746da88" x="148.005518" y="142.961841" style="fill-opacity: 0; stroke: #1f77b4"/>
     <use xlink:href="#m297746da88" x="149.367192" y="133.162757" style="fill-opacity: 0; stroke: #1f77b4"/>
     <use xlink:href="#m297746da88" x="150.730887" y="128.542993" style="fill-opacity: 0; stroke: #1f77b4"/>
     <use xlink:href="#m297746da88" x="152.094583" y="146.133562" style="fill-opacity: 0; stroke: #1f77b4"/>
     <use xlink:href="#m297746da88" x="153.458279" y="175.903057" style="fill-opacity: 0; stroke: #1f77b4"/>
     <use xlink:href="#m297746da88" x="154.821469" y="190.909841" style="fill-opacity: 0; stroke: #1f77b4"/>
     <use xlink:href="#m297746da88" x="156.183648" y="185.821082" style="fill-opacity: 0; stroke: #1f77b4"/>
     <use xlink:href="#m297746da88" x="157.547344" y="181.026546" style="fill-opacity: 0; stroke: #1f77b4"/>
     <use xlink:href="#m297746da88" x="158.912556" y="176.412389" style="fill-opacity: 0; stroke: #1f77b4"/>
     <use xlink:href="#m297746da88" x="160.275746" y="170.711364" style="fill-opacity: 0; stroke: #1f77b4"/>
     <use xlink:href="#m297746da88" x="161.639441" y="171.823454" style="fill-opacity: 0; stroke: #1f77b4"/>
     <use xlink:href="#m297746da88" x="163.003137" y="185.86107" style="fill-opacity: 0; stroke: #1f77b4"/>
     <use xlink:href="#m297746da88" x="164.366833" y="195.304533" style="fill-opacity: 0; stroke: #1f77b4"/>
     <use xlink:href="#m297746da88" x="165.731539" y="197.663842" style="fill-opacity: 0; stroke: #1f77b4"/>
     <use xlink:href="#m297746da88" x="167.095235" y="195.824607" style="fill-opacity: 0; stroke: #1f77b4"/>
     <use xlink:href="#m297746da88" x="168.460447" y="191.069947" style="fill-opacity: 0; stroke: #1f77b4"/>
     <use xlink:href="#m297746da88" x="169.824142" y="182.077568" style="fill-opacity: 0; stroke: #1f77b4"/>
     <use xlink:href="#m297746da88" x="171.189354" y="167.161938" style="fill-opacity: 0; stroke: #1f77b4"/>
     <use xlink:href="#m297746da88" x="172.554061" y="147.185542" style="fill-opacity: 0; stroke: #1f77b4"/>
     <use xlink:href="#m297746da88" x="173.917757" y="139.581228" style="fill-opacity: 0; stroke: #1f77b4"/>
     <use xlink:href="#m297746da88" x="175.282969" y="155.35051" style="fill-opacity: 0; stroke: #1f77b4"/>
     <use xlink:href="#m297746da88" x="176.648181" y="169.969337" style="fill-opacity: 0; stroke: #1f77b4"/>
     <use xlink:href="#m297746da88" x="178.013392" y="164.360477" style="fill-opacity: 0; stroke: #1f77b4"/>
     <use xlink:href="#m297746da88" x="179.378099" y="157.685875" style="fill-opacity: 0; stroke: #1f77b4"/>
     <use xlink:href="#m297746da88" x="180.743311" y="157.026225" style="fill-opacity: 0; stroke: #1f77b4"/>
     <use xlink:href="#m297746da88" x="182.108523" y="164.592107" style="fill-opacity: 0; stroke: #1f77b4"/>
     <use xlink:href="#m297746da88" x="183.473735" y="180.58003" style="fill-opacity: 0; stroke: #1f77b4"/>
     <use xlink:href="#m297746da88" x="184.838947" y="197.024111" style="fill-opacity: 0; stroke: #1f77b4"/>
     <use xlink:href="#m297746da88" x="186.203653" y="202.108604" style="fill-opacity: 0; stroke: #1f77b4"/>
     <use xlink:href="#m297746da88" x="187.568865" y="196.240135" style="fill-opacity: 0; stroke: #1f77b4"/>
     <use xlink:href="#m297746da88" x="188.935594" y="185.929027" style="fill-opacity: 0; stroke: #1f77b4"/>
     <use xlink:href="#m297746da88" x="190.300806" y="188.248624" style="fill-opacity: 0; stroke: #1f77b4"/>
     <use xlink:href="#m297746da88" x="191.667534" y="190.90234" style="fill-opacity: 0; stroke: #1f77b4"/>
     <use xlink:href="#m297746da88" x="193.03224" y="196.217267" style="fill-opacity: 0; stroke: #1f77b4"/>
     <use xlink:href="#m297746da88" x="194.398969" y="199.197835" style="fill-opacity: 0; stroke: #1f77b4"/>
     <use xlink:href="#m297746da88" x="195.764181" y="192.193769" style="fill-opacity: 0; stroke: #1f77b4"/>
     <use xlink:href="#m297746da88" x="197.130909" y="184.021801" style="fill-opacity: 0; stroke: #1f77b4"/>
     <use xlink:href="#m297746da88" x="198.497637" y="192.140912" style="fill-opacity: 0; stroke: #1f77b4"/>
     <use xlink:href="#m297746da88" x="199.864366" y="202.681621" style="fill-opacity: 0; stroke: #1f77b4"/>
     <use xlink:href="#m297746da88" x="201.229578" y="205.477115" style="fill-opacity: 0; stroke: #1f77b4"/>
     <use xlink:href="#m297746da88" x="202.5958" y="208.994033" style="fill-opacity: 0; stroke: #1f77b4"/>
     <use xlink:href="#m297746da88" x="203.962529" y="209.73679" style="fill-opacity: 0; stroke: #1f77b4"/>
     <use xlink:href="#m297746da88" x="205.329257" y="208.027237" style="fill-opacity: 0; stroke: #1f77b4"/>
     <use xlink:href="#m297746da88" x="206.695985" y="209.006447" style="fill-opacity: 0; stroke: #1f77b4"/>
     <use xlink:href="#m297746da88" x="208.06423" y="212.809355" style="fill-opacity: 0; stroke: #1f77b4"/>
     <use xlink:href="#m297746da88" x="209.430958" y="210.437311" style="fill-opacity: 0; stroke: #1f77b4"/>
     <use xlink:href="#m297746da88" x="210.797687" y="209.074297" style="fill-opacity: 0; stroke: #1f77b4"/>
     <use xlink:href="#m297746da88" x="212.16391" y="208.885226" style="fill-opacity: 0; stroke: #1f77b4"/>
     <use xlink:href="#m297746da88" x="213.532154" y="206.935082" style="fill-opacity: 0; stroke: #1f77b4"/>
     <use xlink:href="#m297746da88" x="214.898882" y="206.376716" style="fill-opacity: 0; stroke: #1f77b4"/>
     <use xlink:href="#m297746da88" x="216.267127" y="206.020798" style="fill-opacity: 0; stroke: #1f77b4"/>
     <use xlink:href="#m297746da88" x="217.633855" y="205.12557" style="fill-opacity: 0; stroke: #1f77b4"/>
     <use xlink:href="#m297746da88" x="219.0021" y="203.109006" style="fill-opacity: 0; stroke: #1f77b4"/>
     <use xlink:href="#m297746da88" x="220.368828" y="203.164377" style="fill-opacity: 0; stroke: #1f77b4"/>
     <use xlink:href="#m297746da88" x="221.737073" y="200.223391" style="fill-opacity: 0; stroke: #1f77b4"/>
     <use xlink:href="#m297746da88" x="223.105318" y="189.891487" style="fill-opacity: 0; stroke: #1f77b4"/>
     <use xlink:href="#m297746da88" x="224.473057" y="178.301375" style="fill-opacity: 0; stroke: #1f77b4"/>
     <use xlink:href="#m297746da88" x="225.841302" y="173.007168" style="fill-opacity: 0; stroke: #1f77b4"/>
     <use xlink:href="#m297746da88" x="227.209546" y="177.786652" style="fill-opacity: 0; stroke: #1f77b4"/>
     <use xlink:href="#m297746da88" x="228.577791" y="179.181597" style="fill-opacity: 0; stroke: #1f77b4"/>
     <use xlink:href="#m297746da88" x="229.946036" y="173.142677" style="fill-opacity: 0; stroke: #1f77b4"/>
     <use xlink:href="#m297746da88" x="231.31428" y="168.875218" style="fill-opacity: 0; stroke: #1f77b4"/>
     <use xlink:href="#m297746da88" x="232.682525" y="174.166677" style="fill-opacity: 0; stroke: #1f77b4"/>
     <use xlink:href="#m297746da88" x="234.050769" y="174.87471" style="fill-opacity: 0; stroke: #1f77b4"/>
     <use xlink:href="#m297746da88" x="235.419014" y="171.538247" style="fill-opacity: 0; stroke: #1f77b4"/>
     <use xlink:href="#m297746da88" x="236.788775" y="173.598274" style="fill-opacity: 0; stroke: #1f77b4"/>
     <use xlink:href="#m297746da88" x="238.15702" y="185.860099" style="fill-opacity: 0; stroke: #1f77b4"/>
     <use xlink:href="#m297746da88" x="239.526781" y="185.44177" style="fill-opacity: 0; stroke: #1f77b4"/>
     <use xlink:href="#m297746da88" x="240.89452" y="195.21822" style="fill-opacity: 0; stroke: #1f77b4"/>
     <use xlink:href="#m297746da88" x="242.264281" y="216.404326" style="fill-opacity: 0; stroke: #1f77b4"/>
     <use xlink:href="#m297746da88" x="243.632526" y="216.404326" style="fill-opacity: 0; stroke: #1f77b4"/>
     <use xlink:href="#m297746da88" x="245.002287" y="216.404326" style="fill-opacity: 0; stroke: #1f77b4"/>
     <use xlink:href="#m297746da88" x="246.372048" y="214.67005" style="fill-opacity: 0; stroke: #1f77b4"/>
     <use xlink:href="#m297746da88" x="247.741809" y="199.385081" style="fill-opacity: 0; stroke: #1f77b4"/>
     <use xlink:href="#m297746da88" x="249.110053" y="198.52021" style="fill-opacity: 0; stroke: #1f77b4"/>
     <use xlink:href="#m297746da88" x="250.479814" y="188.572994" style="fill-opacity: 0; stroke: #1f77b4"/>
     <use xlink:href="#m297746da88" x="251.849575" y="212.464335" style="fill-opacity: 0; stroke: #1f77b4"/>
     <use xlink:href="#m297746da88" x="253.219336" y="216.404326" style="fill-opacity: 0; stroke: #1f77b4"/>
     <use xlink:href="#m297746da88" x="254.589097" y="216.404326" style="fill-opacity: 0; stroke: #1f77b4"/>
     <use xlink:href="#m297746da88" x="255.960374" y="216.404326" style="fill-opacity: 0; stroke: #1f77b4"/>
     <use xlink:href="#m297746da88" x="257.330135" y="216.404326" style="fill-opacity: 0; stroke: #1f77b4"/>
     <use xlink:href="#m297746da88" x="258.699896" y="216.404326" style="fill-opacity: 0; stroke: #1f77b4"/>
     <use xlink:href="#m297746da88" x="260.069657" y="216.404326" style="fill-opacity: 0; stroke: #1f77b4"/>
     <use xlink:href="#m297746da88" x="261.440935" y="216.404326" style="fill-opacity: 0; stroke: #1f77b4"/>
     <use xlink:href="#m297746da88" x="262.810696" y="216.404326" style="fill-opacity: 0; stroke: #1f77b4"/>
     <use xlink:href="#m297746da88" x="264.181973" y="216.404326" style="fill-opacity: 0; stroke: #1f77b4"/>
     <use xlink:href="#m297746da88" x="265.551734" y="216.404326" style="fill-opacity: 0; stroke: #1f77b4"/>
     <use xlink:href="#m297746da88" x="266.923011" y="216.404326" style="fill-opacity: 0; stroke: #1f77b4"/>
     <use xlink:href="#m297746da88" x="268.292772" y="216.404326" style="fill-opacity: 0; stroke: #1f77b4"/>
     <use xlink:href="#m297746da88" x="269.66405" y="216.404326" style="fill-opacity: 0; stroke: #1f77b4"/>
     <use xlink:href="#m297746da88" x="271.035327" y="216.404326" style="fill-opacity: 0; stroke: #1f77b4"/>
     <use xlink:href="#m297746da88" x="272.406604" y="216.404326" style="fill-opacity: 0; stroke: #1f77b4"/>
     <use xlink:href="#m297746da88" x="273.777882" y="216.404326" style="fill-opacity: 0; stroke: #1f77b4"/>
     <use xlink:href="#m297746da88" x="275.149159" y="216.404326" style="fill-opacity: 0; stroke: #1f77b4"/>
     <use xlink:href="#m297746da88" x="276.520436" y="216.404326" style="fill-opacity: 0; stroke: #1f77b4"/>
     <use xlink:href="#m297746da88" x="277.891714" y="216.404326" style="fill-opacity: 0; stroke: #1f77b4"/>
     <use xlink:href="#m297746da88" x="279.262991" y="216.404326" style="fill-opacity: 0; stroke: #1f77b4"/>
     <use xlink:href="#m297746da88" x="280.634268" y="216.404326" style="fill-opacity: 0; stroke: #1f77b4"/>
     <use xlink:href="#m297746da88" x="282.005546" y="216.404326" style="fill-opacity: 0; stroke: #1f77b4"/>
     <use xlink:href="#m297746da88" x="283.378339" y="216.404326" style="fill-opacity: 0; stroke: #1f77b4"/>
     <use xlink:href="#m297746da88" x="284.749617" y="216.404326" style="fill-opacity: 0; stroke: #1f77b4"/>
     <use xlink:href="#m297746da88" x="286.120894" y="216.404326" style="fill-opacity: 0; stroke: #1f77b4"/>
     <use xlink:href="#m297746da88" x="287.493688" y="216.404326" style="fill-opacity: 0; stroke: #1f77b4"/>
     <use xlink:href="#m297746da88" x="288.864965" y="191.899047" style="fill-opacity: 0; stroke: #1f77b4"/>
     <use xlink:href="#m297746da88" x="290.237759" y="82.25822" style="fill-opacity: 0; stroke: #1f77b4"/>
     <use xlink:href="#m297746da88" x="290.742491" y="-1" style="fill-opacity: 0; stroke: #1f77b4"/>
     <use xlink:href="#m297746da88" x="300.697015" y="-1" style="fill-opacity: 0; stroke: #1f77b4"/>
     <use xlink:href="#m297746da88" x="301.219097" y="135.161522" style="fill-opacity: 0; stroke: #1f77b4"/>
     <use xlink:href="#m297746da88" x="302.591891" y="216.404326" style="fill-opacity: 0; stroke: #1f77b4"/>
     <use xlink:href="#m297746da88" x="303.964684" y="216.404326" style="fill-opacity: 0; stroke: #1f77b4"/>
     <use xlink:href="#m297746da88" x="305.337478" y="196.219502" style="fill-opacity: 0; stroke: #1f77b4"/>
     <use xlink:href="#m297746da88" x="306.710272" y="184.452097" style="fill-opacity: 0; stroke: #1f77b4"/>
     <use xlink:href="#m297746da88" x="308.084582" y="187.052207" style="fill-opacity: 0; stroke: #1f77b4"/>
     <use xlink:href="#m297746da88" x="309.457376" y="203.590506" style="fill-opacity: 0; stroke: #1f77b4"/>
     <use xlink:href="#m297746da88" x="310.831686" y="216.404326" style="fill-opacity: 0; stroke: #1f77b4"/>
     <use xlink:href="#m297746da88" x="312.204479" y="216.404326" style="fill-opacity: 0; stroke: #1f77b4"/>
     <use xlink:href="#m297746da88" x="313.578789" y="216.404326" style="fill-opacity: 0; stroke: #1f77b4"/>
     <use xlink:href="#m297746da88" x="314.951583" y="216.404326" style="fill-opacity: 0; stroke: #1f77b4"/>
     <use xlink:href="#m297746da88" x="316.326398" y="211.389674" style="fill-opacity: 0; stroke: #1f77b4"/>
     <use xlink:href="#m297746da88" x="317.700708" y="195.392667" style="fill-opacity: 0; stroke: #1f77b4"/>
     <use xlink:href="#m297746da88" x="319.073502" y="214.35914" style="fill-opacity: 0; stroke: #1f77b4"/>
     <use xlink:href="#m297746da88" x="320.447812" y="216.404326" style="fill-opacity: 0; stroke: #1f77b4"/>
    </g>
   </g>
   <g id="line2d_2">
    <path d="M 43.312815 215.302627 
L 51.451015 214.912226 
L 56.879009 214.48096 
L 60.951394 213.975412 
L 63.666149 213.479939 
L 66.380905 212.759977 
L 67.739546 212.264377 
L 69.097176 211.630446 
L 70.454301 210.794999 
L 71.813447 209.650168 
L 73.171078 208.009771 
L 74.529719 205.505152 
L 75.887349 201.360081 
L 77.24599 193.708298 
L 78.605137 177.859517 
L 79.962262 147.489016 
L 81.321408 133.889632 
L 82.680555 151.185167 
L 84.039196 147.374537 
L 85.398343 122.192109 
L 86.756984 121.768155 
L 88.11613 155.768871 
L 89.475277 179.588948 
L 90.835435 191.412739 
L 92.194581 197.180969 
L 93.553728 199.864389 
L 94.913885 200.65654 
L 96.273032 199.900278 
L 97.633189 197.370074 
L 98.992336 192.25921 
L 100.352999 183.489491 
L 101.71164 173.325239 
L 103.072303 171.742306 
L 104.432966 178.372435 
L 105.793123 182.673655 
L 107.153786 181.726758 
L 108.514449 175.553024 
L 109.874607 164.201212 
L 111.23527 150.332575 
L 112.595427 143.590852 
L 113.95609 151.36567 
L 115.316753 165.702711 
L 116.678427 177.58148 
L 118.03909 185.046927 
L 119.399753 188.86108 
L 120.761427 189.729157 
L 122.12209 187.671794 
L 123.484269 181.715716 
L 124.846448 169.216407 
L 126.206606 145.094553 
L 127.568785 108.234946 
L 128.930964 93.353771 
L 131.654817 157.143691 
L 133.016997 175.02502 
L 134.378671 183.656651 
L 135.74085 186.93523 
L 137.103029 186.371438 
L 138.464703 181.878375 
L 139.828399 171.866642 
L 141.190578 153.43936 
L 142.552757 127.348001 
L 143.915947 114.075105 
L 146.641822 144.100817 
L 148.005518 143.279479 
L 149.367192 128.578549 
L 150.730887 130.357227 
L 152.094583 155.999831 
L 153.458279 175.307795 
L 154.821469 184.619377 
L 156.183648 187.305743 
L 157.547344 184.25121 
L 158.912556 175.014363 
L 160.275746 167.911218 
L 161.639441 176.726695 
L 163.003137 187.946416 
L 164.366833 193.808049 
L 165.731539 195.675912 
L 167.095235 194.623452 
L 168.460447 190.39414 
L 169.824142 181.293739 
L 171.189354 164.358566 
L 172.554061 143.070451 
L 173.917757 141.790224 
L 175.282969 158.859754 
L 176.648181 168.733827 
L 178.013392 166.345122 
L 179.378099 155.909511 
L 180.743311 155.581997 
L 182.108523 171.445248 
L 183.473735 185.487642 
L 184.838947 193.145937 
L 186.203653 196.111944 
L 187.568865 194.918603 
L 188.935594 188.990333 
L 190.300806 186.098179 
L 191.667534 193.605061 
L 193.03224 198.581319 
L 194.398969 198.139158 
L 197.130909 183.836485 
L 198.497637 195.171207 
L 199.864366 203.051183 
L 201.229578 206.311621 
L 202.5958 207.763107 
L 203.962529 208.438413 
L 205.329257 208.714259 
L 206.695985 208.744876 
L 208.06423 208.598035 
L 209.430958 208.303384 
L 210.797687 207.869704 
L 212.16391 207.293018 
L 213.532154 206.557272 
L 214.898882 205.63883 
L 216.267127 204.496592 
L 217.633855 203.073266 
L 219.0021 201.266613 
L 220.368828 198.889276 
L 221.737073 195.460909 
L 223.105318 189.389552 
L 224.473057 176.080473 
L 225.841302 173.984522 
L 227.209546 179.488805 
L 228.577791 178.468729 
L 231.31428 173.178883 
L 232.682525 171.765897 
L 234.050769 172.018024 
L 235.419014 173.97438 
L 236.788775 177.251458 
L 242.264281 193.014866 
L 243.632526 196.13983 
L 245.002287 198.811821 
L 246.372048 201.071332 
L 247.741809 202.974749 
L 249.110053 204.57662 
L 250.479814 205.931011 
L 251.849575 207.079241 
L 253.219336 208.057313 
L 255.960374 209.616388 
L 258.699896 210.782853 
L 261.440935 211.674828 
L 264.181973 212.369684 
L 268.292772 213.153721 
L 273.777882 213.88309 
L 280.634268 214.488286 
L 288.864965 214.958581 
L 299.846303 215.350711 
L 316.326398 215.688774 
L 320.447812 215.746775 
L 320.447812 215.746775 
" clip-path="url(#p95b14f0b37)" style="fill: none; stroke: #ff0000; stroke-width: 1.5; stroke-linecap: square"/>
   </g>
   <g id="line2d_3">
    <path d="M 295.727417 216.404326 
L 295.727417 17.735865 
" clip-path="url(#p95b14f0b37)" style="fill: none; stroke-dasharray: 3.7,1.6; stroke-dashoffset: 0; stroke: #808080"/>
   </g>
   <g id="patch_3">
    <path d="M 43.003987 216.404326 
L 43.003987 17.735865 
" style="fill: none; stroke: #000000; stroke-linejoin: miter; stroke-linecap: square"/>
   </g>
   <g id="patch_4">
    <path d="M 320.99976 216.404326 
L 320.99976 17.735865 
" style="fill: none; stroke: #000000; stroke-linejoin: miter; stroke-linecap: square"/>
   </g>
   <g id="patch_5">
    <path d="M 43.003987 216.404326 
L 320.99976 216.404326 
" style="fill: none; stroke: #000000; stroke-linejoin: miter; stroke-linecap: square"/>
   </g>
   <g id="patch_6">
    <path d="M 43.003987 17.735865 
L 320.99976 17.735865 
" style="fill: none; stroke: #000000; stroke-linejoin: miter; stroke-linecap: square"/>
   </g>
   <g id="matplotlib.axis_1">
    <g id="xtick_1">
     <g id="line2d_4">
      <defs>
       <path id="mbb57727488" d="M 0 0 
L 0 3.75 
" style="stroke: #000000; stroke-width: 1.25"/>
      </defs>
      <g>
       <use xlink:href="#mbb57727488" x="43.003987" y="216.404326" style="stroke: #000000; stroke-width: 1.25"/>
      </g>
     </g>
     <g id="text_1">
      <!-- $\mathdefault{429}$ -->
      <g transform="translate(33.818987 231.52792)">
       <text>
        <tspan style="font: 11px 'Arial'" x="0 6.117676 12.235352" y="-0.09375">429</tspan>
       </text>
      </g>
     </g>
    </g>
    <g id="xtick_2">
     <g id="line2d_5">
      <g>
       <use xlink:href="#mbb57727488" x="93.548673" y="216.404326" style="stroke: #000000; stroke-width: 1.25"/>
      </g>
     </g>
     <g id="text_2">
      <!-- $\mathdefault{430}$ -->
      <g transform="translate(84.363673 231.52792)">
       <text>
        <tspan style="font: 11px 'Arial'" x="0 6.117676 12.235352" y="-0.09375">430</tspan>
       </text>
      </g>
     </g>
    </g>
    <g id="xtick_3">
     <g id="line2d_6">
      <g>
       <use xlink:href="#mbb57727488" x="144.093359" y="216.404326" style="stroke: #000000; stroke-width: 1.25"/>
      </g>
     </g>
     <g id="text_3">
      <!-- $\mathdefault{431}$ -->
      <g transform="translate(134.908359 231.52792)">
       <text>
        <tspan style="font: 11px 'Arial'" x="0 6.117676 12.235352" y="-0.09375">431</tspan>
       </text>
      </g>
     </g>
    </g>
    <g id="xtick_4">
     <g id="line2d_7">
      <g>
       <use xlink:href="#mbb57727488" x="194.638045" y="216.404326" style="stroke: #000000; stroke-width: 1.25"/>
      </g>
     </g>
     <g id="text_4">
      <!-- $\mathdefault{432}$ -->
      <g transform="translate(185.453045 231.52792)">
       <text>
        <tspan style="font: 11px 'Arial'" x="0 6.117676 12.235352" y="-0.09375">432</tspan>
       </text>
      </g>
     </g>
    </g>
    <g id="xtick_5">
     <g id="line2d_8">
      <g>
       <use xlink:href="#mbb57727488" x="245.182731" y="216.404326" style="stroke: #000000; stroke-width: 1.25"/>
      </g>
     </g>
     <g id="text_5">
      <!-- $\mathdefault{433}$ -->
      <g transform="translate(235.997731 231.52792)">
       <text>
        <tspan style="font: 11px 'Arial'" x="0 6.117676 12.235352" y="-0.09375">433</tspan>
       </text>
      </g>
     </g>
    </g>
    <g id="xtick_6">
     <g id="line2d_9">
      <g>
       <use xlink:href="#mbb57727488" x="295.727417" y="216.404326" style="stroke: #000000; stroke-width: 1.25"/>
      </g>
     </g>
     <g id="text_6">
      <!-- $\mathdefault{434}$ -->
      <g transform="translate(286.542417 231.52792)">
       <text>
        <tspan style="font: 11px 'Arial'" x="0 6.117676 12.235352" y="-0.09375">434</tspan>
       </text>
      </g>
     </g>
    </g>
    <g id="text_7">
     <!-- $\lambda$ {\sffamily (nm)} -->
     <g transform="translate(164.206736 246.411565) scale(0.12 -0.12)">
      <defs>
       <path id="StandardSymL-6c" d="M 480 3650 
C 525 4013 710 4224 998 4224 
C 1203 4224 1376 4064 1472 3778 
C 1517 3650 1574 3440 1632 3198 
L 154 19 
L 755 19 
L 1843 2301 
C 2048 1059 2150 607 2266 358 
C 2406 83 2611 -64 2848 -64 
C 3098 -64 3296 89 3405 371 
C 3475 543 3501 715 3507 1014 
L 3373 1014 
C 3322 683 3174 499 2944 499 
C 2752 499 2586 620 2483 843 
C 2400 1008 2355 1174 2266 1645 
L 2093 2466 
C 2086 2485 2080 2530 2067 2594 
C 1920 3415 1690 4192 1536 4422 
C 1395 4627 1203 4736 992 4736 
C 602 4736 397 4403 326 3650 
L 480 3650 
z
" transform="scale(0.015625)"/>
       <path id="NimbusSanL-Regu-28" d="M 1510 4672 
C 870 3833 467 2668 467 1663 
C 467 652 870 -513 1510 -1351 
L 1862 -1351 
C 1299 -436 986 639 986 1663 
C 986 2681 1299 3763 1862 4672 
L 1510 4672 
z
" transform="scale(0.015625)"/>
       <path id="NimbusSanL-Regu-6e" d="M 448 3328 
L 448 0 
L 986 0 
L 986 1835 
C 986 2539 1344 2988 1894 2988 
C 2317 2988 2586 2732 2586 2328 
L 2586 0 
L 3117 0 
L 3117 2539 
C 3117 3097 2701 3456 2054 3456 
C 1555 3456 1235 3263 941 2796 
L 941 3328 
L 448 3328 
z
" transform="scale(0.015625)"/>
       <path id="NimbusSanL-Regu-6d" d="M 448 3328 
L 448 0 
L 986 0 
L 986 2089 
C 986 2597 1338 2988 1773 2988 
C 2170 2988 2394 2744 2394 2315 
L 2394 0 
L 2931 0 
L 2931 2109 
C 2931 2597 3283 2988 3718 2988 
C 4109 2988 4339 2738 4339 2315 
L 4339 0 
L 4877 0 
L 4877 2520 
C 4877 3123 4531 3456 3904 3456 
C 3456 3456 3187 3321 2874 2943 
C 2675 3302 2406 3456 1971 3456 
C 1523 3456 1229 3289 941 2886 
L 941 3328 
L 448 3328 
z
" transform="scale(0.015625)"/>
       <path id="NimbusSanL-Regu-29" d="M 595 -1351 
C 1235 -513 1638 652 1638 1657 
C 1638 2668 1235 3833 595 4672 
L 243 4672 
C 806 3756 1120 2681 1120 1657 
C 1120 639 806 -442 243 -1351 
L 595 -1351 
z
" transform="scale(0.015625)"/>
      </defs>
      <use xlink:href="#StandardSymL-6c" transform="scale(0.996264)"/>
      <use xlink:href="#NimbusSanL-Regu-28" transform="translate(91.855235 0) scale(0.996264)"/>
      <use xlink:href="#NimbusSanL-Regu-6e" transform="translate(125.030464 0) scale(0.996264)"/>
      <use xlink:href="#NimbusSanL-Regu-6d" transform="translate(180.422141 0) scale(0.996264)"/>
      <use xlink:href="#NimbusSanL-Regu-29" transform="translate(263.410572 0) scale(0.996264)"/>
     </g>
    </g>
   </g>
   <g id="matplotlib.axis_2">
    <g id="ytick_1">
     <g id="line2d_10">
      <defs>
       <path id="mb4eebbd2a9" d="M 0 0 
L -3.75 0 
" style="stroke: #000000; stroke-width: 1.25"/>
      </defs>
      <g>
       <use xlink:href="#mb4eebbd2a9" x="43.003987" y="216.404326" style="stroke: #000000; stroke-width: 1.25"/>
      </g>
     </g>
     <g id="text_8">
      <!-- $\mathdefault{0.0}$ -->
      <g transform="translate(20.353987 220.341123)">
       <text>
        <tspan style="font: 11px 'Arial'" x="0 6.117676 9.173828" y="-0.09375">0.0</tspan>
       </text>
      </g>
     </g>
    </g>
    <g id="ytick_2">
     <g id="line2d_11">
      <g>
       <use xlink:href="#mb4eebbd2a9" x="43.003987" y="194.20699" style="stroke: #000000; stroke-width: 1.25"/>
      </g>
     </g>
     <g id="text_9">
      <!-- $\mathdefault{0.5}$ -->
      <g transform="translate(20.353987 198.143786)">
       <text>
        <tspan style="font: 11px 'Arial'" x="0 6.117676 9.173828" y="-0.09375">0.5</tspan>
       </text>
      </g>
     </g>
    </g>
    <g id="ytick_3">
     <g id="line2d_12">
      <g>
       <use xlink:href="#mb4eebbd2a9" x="43.003987" y="172.009653" style="stroke: #000000; stroke-width: 1.25"/>
      </g>
     </g>
     <g id="text_10">
      <!-- $\mathdefault{1.0}$ -->
      <g transform="translate(20.353987 175.94645)">
       <text>
        <tspan style="font: 11px 'Arial'" x="0 6.117676 9.173828" y="-0.09375">1.0</tspan>
       </text>
      </g>
     </g>
    </g>
    <g id="ytick_4">
     <g id="line2d_13">
      <g>
       <use xlink:href="#mb4eebbd2a9" x="43.003987" y="149.812317" style="stroke: #000000; stroke-width: 1.25"/>
      </g>
     </g>
     <g id="text_11">
      <!-- $\mathdefault{1.5}$ -->
      <g transform="translate(20.353987 153.749114)">
       <text>
        <tspan style="font: 11px 'Arial'" x="0 6.117676 9.173828" y="-0.09375">1.5</tspan>
       </text>
      </g>
     </g>
    </g>
    <g id="ytick_5">
     <g id="line2d_14">
      <g>
       <use xlink:href="#mb4eebbd2a9" x="43.003987" y="127.614981" style="stroke: #000000; stroke-width: 1.25"/>
      </g>
     </g>
     <g id="text_12">
      <!-- $\mathdefault{2.0}$ -->
      <g transform="translate(20.353987 131.551777)">
       <text>
        <tspan style="font: 11px 'Arial'" x="0 6.117676 9.173828" y="-0.09375">2.0</tspan>
       </text>
      </g>
     </g>
    </g>
    <g id="ytick_6">
     <g id="line2d_15">
      <g>
       <use xlink:href="#mb4eebbd2a9" x="43.003987" y="105.417644" style="stroke: #000000; stroke-width: 1.25"/>
      </g>
     </g>
     <g id="text_13">
      <!-- $\mathdefault{2.5}$ -->
      <g transform="translate(20.353987 109.354441)">
       <text>
        <tspan style="font: 11px 'Arial'" x="0 6.117676 9.173828" y="-0.09375">2.5</tspan>
       </text>
      </g>
     </g>
    </g>
    <g id="ytick_7">
     <g id="line2d_16">
      <g>
       <use xlink:href="#mb4eebbd2a9" x="43.003987" y="83.220308" style="stroke: #000000; stroke-width: 1.25"/>
      </g>
     </g>
     <g id="text_14">
      <!-- $\mathdefault{3.0}$ -->
      <g transform="translate(20.353987 87.157105)">
       <text>
        <tspan style="font: 11px 'Arial'" x="0 6.117676 9.173828" y="-0.09375">3.0</tspan>
       </text>
      </g>
     </g>
    </g>
    <g id="ytick_8">
     <g id="line2d_17">
      <g>
       <use xlink:href="#mb4eebbd2a9" x="43.003987" y="61.022972" style="stroke: #000000; stroke-width: 1.25"/>
      </g>
     </g>
     <g id="text_15">
      <!-- $\mathdefault{3.5}$ -->
      <g transform="translate(20.353987 64.959768)">
       <text>
        <tspan style="font: 11px 'Arial'" x="0 6.117676 9.173828" y="-0.09375">3.5</tspan>
       </text>
      </g>
     </g>
    </g>
    <g id="ytick_9">
     <g id="line2d_18">
      <g>
       <use xlink:href="#mb4eebbd2a9" x="43.003987" y="38.825635" style="stroke: #000000; stroke-width: 1.25"/>
      </g>
     </g>
     <g id="text_16">
      <!-- $\mathdefault{4.0}$ -->
      <g transform="translate(20.353987 42.762432)">
       <text>
        <tspan style="font: 11px 'Arial'" x="0 6.117676 9.173828" y="-0.09375">4.0</tspan>
       </text>
      </g>
     </g>
    </g>
    <g id="text_17">
     <!-- $B_{\lambda}$ {\sffamily (photons/cm\textsuperscript{2}/s/nm)} -->
     <g transform="translate(13.728305 177.714049) rotate(-90) scale(0.12 -0.12)">
      <defs>
       <path id="NimbusRomNo9L-ReguItal-42" d="M -51 0 
L 1754 0 
C 2758 0 3450 523 3450 1274 
C 3450 1510 3373 1732 3232 1872 
C 3104 2019 2976 2095 2643 2235 
C 3098 2344 3283 2420 3488 2598 
C 3667 2751 3763 2968 3763 3222 
C 3763 3827 3309 4160 2483 4160 
L 832 4160 
L 832 4057 
C 1229 4025 1325 3974 1325 3795 
C 1325 3700 1299 3541 1254 3388 
L 467 574 
C 352 204 307 166 -51 102 
L -51 0 
z
M 1523 2108 
C 1939 2108 2208 2083 2336 2032 
C 2598 1923 2758 1643 2758 1299 
C 2758 612 2285 192 1504 192 
C 1235 192 1094 287 1094 459 
C 1094 535 1171 841 1318 1350 
C 1402 1637 1440 1783 1523 2108 
z
M 2003 3789 
C 2042 3929 2118 3967 2368 3967 
C 2880 3967 3117 3751 3117 3280 
C 3117 2917 2963 2637 2688 2484 
C 2470 2356 2163 2312 1587 2312 
L 2003 3789 
z
" transform="scale(0.015625)"/>
       <path id="NimbusSanL-Regu-70" d="M 346 -1408 
L 883 -1408 
L 883 371 
C 1165 25 1478 -128 1914 -128 
C 2778 -128 3347 568 3347 1632 
C 3347 2752 2797 3456 1907 3456 
C 1453 3456 1088 3251 838 2854 
L 838 3359 
L 346 3359 
L 346 -1408 
z
M 1818 2956 
C 2406 2956 2790 2440 2790 1644 
C 2790 887 2400 371 1818 371 
C 1254 371 883 880 883 1663 
C 883 2447 1254 2956 1818 2956 
z
" transform="scale(0.015625)"/>
       <path id="NimbusSanL-Regu-68" d="M 448 4672 
L 448 0 
L 979 0 
L 979 1853 
C 979 2539 1338 2988 1888 2988 
C 2061 2988 2234 2930 2362 2834 
C 2515 2725 2579 2565 2579 2328 
L 2579 0 
L 3110 0 
L 3110 2539 
C 3110 3103 2707 3456 2054 3456 
C 1581 3456 1293 3308 979 2898 
L 979 4672 
L 448 4672 
z
" transform="scale(0.015625)"/>
       <path id="NimbusSanL-Regu-6f" d="M 1741 3456 
C 800 3456 230 2784 230 1663 
C 230 543 794 -128 1747 -128 
C 2688 -128 3264 543 3264 1638 
C 3264 2791 2707 3456 1741 3456 
z
M 1747 2963 
C 2349 2963 2707 2472 2707 1644 
C 2707 861 2336 364 1747 364 
C 1152 364 787 855 787 1663 
C 787 2466 1152 2963 1747 2963 
z
" transform="scale(0.015625)"/>
       <path id="NimbusSanL-Regu-74" d="M 1626 3328 
L 1075 3328 
L 1075 4249 
L 544 4249 
L 544 3328 
L 90 3328 
L 90 2892 
L 544 2892 
L 544 402 
C 544 64 774 -128 1190 -128 
C 1318 -128 1446 -116 1626 -84 
L 1626 364 
C 1555 345 1472 339 1370 339 
C 1139 339 1075 402 1075 634 
L 1075 2892 
L 1626 2892 
L 1626 3328 
z
" transform="scale(0.015625)"/>
       <path id="NimbusSanL-Regu-73" d="M 2803 2428 
C 2797 3084 2362 3456 1587 3456 
C 806 3456 301 3052 301 2434 
C 301 1912 570 1663 1363 1472 
L 1862 1351 
C 2234 1262 2381 1129 2381 887 
C 2381 574 2067 364 1600 364 
C 1312 364 1069 447 934 587 
C 851 683 813 778 781 1014 
L 218 1014 
C 243 243 678 -128 1555 -128 
C 2400 -128 2938 288 2938 931 
C 2938 1428 2656 1702 1990 1861 
L 1478 1982 
C 1043 2084 858 2224 858 2459 
C 858 2765 1133 2963 1568 2963 
C 1997 2963 2227 2778 2240 2428 
L 2803 2428 
z
" transform="scale(0.015625)"/>
       <path id="NimbusSanL-Regu-2f" d="M 1466 4672 
L -51 -128 
L 301 -128 
L 1818 4672 
L 1466 4672 
z
" transform="scale(0.015625)"/>
       <path id="NimbusSanL-Regu-63" d="M 3014 2237 
C 2989 2561 2918 2771 2790 2956 
C 2560 3270 2157 3456 1690 3456 
C 787 3456 198 2740 198 1632 
C 198 555 774 -128 1683 -128 
C 2483 -128 2989 352 3053 1167 
L 2515 1167 
C 2426 632 2150 364 1696 364 
C 1107 364 755 842 755 1632 
C 755 2466 1101 2963 1683 2963 
C 2131 2963 2413 2701 2477 2237 
L 3014 2237 
z
" transform="scale(0.015625)"/>
       <path id="NimbusSanL-Regu-32" d="M 3238 556 
L 851 556 
C 909 928 1114 1165 1670 1493 
L 2310 1839 
C 2944 2185 3270 2653 3270 3211 
C 3270 3589 3117 3942 2848 4185 
C 2579 4428 2246 4544 1818 4544 
C 1242 4544 813 4339 563 3955 
C 403 3711 333 3429 320 2967 
L 883 2967 
C 902 3275 941 3461 1018 3608 
C 1165 3884 1459 4051 1798 4051 
C 2310 4051 2694 3685 2694 3198 
C 2694 2839 2483 2531 2080 2300 
L 1491 1967 
C 544 1428 269 999 218 0 
L 3238 0 
L 3238 556 
z
" transform="scale(0.015625)"/>
      </defs>
      <use xlink:href="#NimbusRomNo9L-ReguItal-42" transform="scale(0.996264)"/>
      <use xlink:href="#StandardSymL-6c" transform="translate(60.871631 -20.616338) scale(0.737241)"/>
      <use xlink:href="#NimbusSanL-Regu-28" transform="translate(135.818713 0) scale(0.996264)"/>
      <use xlink:href="#NimbusSanL-Regu-70" transform="translate(168.993943 0) scale(0.996264)"/>
      <use xlink:href="#NimbusSanL-Regu-68" transform="translate(224.38562 0) scale(0.996264)"/>
      <use xlink:href="#NimbusSanL-Regu-6f" transform="translate(279.777297 0) scale(0.996264)"/>
      <use xlink:href="#NimbusSanL-Regu-74" transform="translate(335.168974 0) scale(0.996264)"/>
      <use xlink:href="#NimbusSanL-Regu-6f" transform="translate(362.864143 0) scale(0.996264)"/>
      <use xlink:href="#NimbusSanL-Regu-6e" transform="translate(418.25582 0) scale(0.996264)"/>
      <use xlink:href="#NimbusSanL-Regu-73" transform="translate(473.647497 0) scale(0.996264)"/>
      <use xlink:href="#NimbusSanL-Regu-2f" transform="translate(523.460698 0) scale(0.996264)"/>
      <use xlink:href="#NimbusSanL-Regu-63" transform="translate(551.155868 0) scale(0.996264)"/>
      <use xlink:href="#NimbusSanL-Regu-6d" transform="translate(600.969068 0) scale(0.996264)"/>
      <use xlink:href="#NimbusSanL-Regu-32" transform="translate(683.957498 36.163231) scale(0.737241)"/>
      <use xlink:href="#NimbusSanL-Regu-2f" transform="translate(725.445777 0) scale(0.996264)"/>
      <use xlink:href="#NimbusSanL-Regu-73" transform="translate(753.140947 0) scale(0.996264)"/>
      <use xlink:href="#NimbusSanL-Regu-2f" transform="translate(802.954147 0) scale(0.996264)"/>
      <use xlink:href="#NimbusSanL-Regu-6e" transform="translate(830.649317 0) scale(0.996264)"/>
      <use xlink:href="#NimbusSanL-Regu-6d" transform="translate(886.040994 0) scale(0.996264)"/>
      <use xlink:href="#NimbusSanL-Regu-29" transform="translate(969.029424 0) scale(0.996264)"/>
     </g>
    </g>
    <g id="text_18">
     <!-- $\times\mathdefault{10^{12}}\mathdefault{}$ -->
     <g transform="translate(43.003987 14.735865)">
      <text>
       <tspan style="font: 11px 'STIXGeneral'" x="0" y="-0.799312500000001"></tspan>
       <tspan style="font: 11px 'Arial'" x="7.039993 13.157669" y="-0.799312500000001">10</tspan>
       <tspan style="font: 7.7px 'Arial'" x="19.467003 23.749376" y="-8.465625">12</tspan>
      </text>
     </g>
    </g>
   </g>
   <g id="patch_7">
    <path d="M 217.800817 47.652918 
L 217.800817 67.40298 
L 294.609383 67.40298 
" style="fill: none; stroke: #000000; stroke-linecap: round"/>
    <path d="M 290.609383 65.40298 
L 294.609383 67.40298 
L 290.609383 69.40298 
" style="fill: none; stroke: #000000; stroke-linecap: round"/>
   </g>
   <g id="text_19">
    <g id="patch_8">
     <path d="M 184.100817 50.702711 
L 251.500817 50.702711 
Q 254.500817 50.702711 254.500817 47.702711 
L 254.500817 37.602711 
Q 254.500817 34.602711 251.500817 34.602711 
L 184.100817 34.602711 
Q 181.100817 34.602711 181.100817 37.602711 
L 181.100817 47.702711 
Q 181.100817 50.702711 184.100817 50.702711 
z
" style="fill: #f5deb3; stroke: #000000; stroke-linejoin: miter"/>
    </g>
    <!-- D$_{\gamma}$ (434.00) nm -->
    <g transform="translate(184.100817 44.902711)">
     <text>
      <tspan style="font: 10px 'Arial'" x="0 10.686517 13.464837 16.794915 22.356439 27.917962 33.479486 36.257806 41.81933 47.380853 50.710931 53.489251 59.050775" y="-0.71875">D(434.00)nm</tspan>
      <tspan style="font: italic 7px 'STIXGeneral'" x="7.375898" y="0.6031250000000004"></tspan>
     </text>
    </g>
   </g>
   <g id="text_20">
    <text style="font: 10px 'Arial'; text-anchor: middle" x="219.202728" y="110.54252" transform="rotate(-0 219.202728 110.54252)">Q-branch</text>
   </g>
   <g id="text_21">
    <text style="font: 10px 'Arial'; text-anchor: middle" x="132.097305" y="29.434034" transform="rotate(-0 132.097305 29.434034)">B-D + C-D</text>
   </g>
   <g id="text_22">
    <text style="font: 700 12px 'Arial'; text-anchor: middle" x="182.001874" y="11.735865" transform="rotate(-0 182.001874 11.735865)">HP boron rod (redeposit test) - 25 min</text>
   </g>
  </g>
 </g>
 <defs>
  <clipPath id="p95b14f0b37">
   <rect x="43.003987" y="17.735865" width="277.995773" height="198.668461"/>
  </clipPath>
 </defs>
</svg>
