<?xml version="1.0" encoding="utf-8" standalone="no"?>
<!DOCTYPE svg PUBLIC "-//W3C//DTD SVG 1.1//EN"
  "http://www.w3.org/Graphics/SVG/1.1/DTD/svg11.dtd">
<svg xmlns:xlink="http://www.w3.org/1999/xlink" width="324pt" height="252pt" viewBox="0 0 324 252" xmlns="http://www.w3.org/2000/svg" version="1.1">
 <metadata>
  <rdf:RDF xmlns:dc="http://purl.org/dc/elements/1.1/" xmlns:cc="http://creativecommons.org/ns#" xmlns:rdf="http://www.w3.org/1999/02/22-rdf-syntax-ns#">
   <cc:Work>
    <dc:type rdf:resource="http://purl.org/dc/dcmitype/StillImage"/>
    <dc:date>2024-12-06T11:05:43.678137</dc:date>
    <dc:format>image/svg+xml</dc:format>
    <dc:creator>
     <cc:Agent>
      <dc:title>Matplotlib v3.9.2, https://matplotlib.org/</dc:title>
     </cc:Agent>
    </dc:creator>
   </cc:Work>
  </rdf:RDF>
 </metadata>
 <defs>
  <style type="text/css">*{stroke-linejoin: round; stroke-linecap: butt}</style>
 </defs>
 <g id="figure_1">
  <g id="patch_1">
   <path d="M 0 252 
L 324 252 
L 324 0 
L 0 0 
z
" style="fill: #ffffff"/>
  </g>
  <g id="axes_1">
   <g id="patch_2">
    <path d="M 33.763987 216.404326 
L 320.99976 216.404326 
L 320.99976 17.735865 
L 33.763987 17.735865 
z
" style="fill: #ffffff"/>
   </g>
   <g id="PolyCollection_1">
    <path d="M 34.08308 216.30854 
L 34.08308 216.404326 
L 35.483746 216.404326 
L 36.884935 216.404326 
L 38.287167 216.404326 
L 39.688356 216.404326 
L 41.090588 216.404326 
L 42.491777 216.404326 
L 43.89401 216.404326 
L 45.296765 216.404326 
L 46.697431 216.404326 
L 48.100186 216.404326 
L 49.502419 216.404326 
L 50.905174 216.404326 
L 52.307929 216.404326 
L 53.710162 216.404326 
L 55.112917 216.404326 
L 56.515149 216.404326 
L 57.917905 216.404326 
L 59.321704 216.404326 
L 60.724459 216.404326 
L 62.126692 216.404326 
L 63.531014 216.404326 
L 64.933769 216.404326 
L 66.337568 216.404326 
L 67.740323 216.404326 
L 69.144123 216.404326 
L 70.548445 216.404326 
L 71.950678 216.404326 
L 73.354999 216.404326 
L 74.759321 216.404326 
L 76.163121 216.404326 
L 77.567443 216.404326 
L 78.971242 216.404326 
L 80.375564 216.404326 
L 81.779886 216.404326 
L 83.185252 216.404326 
L 84.589574 216.404326 
L 85.993896 216.404326 
L 87.399262 216.404326 
L 88.803584 216.404326 
L 90.20895 216.404326 
L 91.613272 216.404326 
L 93.01916 216.404326 
L 94.42296 216.404326 
L 95.828849 216.404326 
L 97.234737 216.404326 
L 98.640103 216.404326 
L 100.045992 216.404326 
L 101.451881 216.404326 
L 102.857247 216.404326 
L 104.263135 216.404326 
L 105.668502 216.404326 
L 107.07439 216.404326 
L 108.480279 216.404326 
L 109.887212 216.404326 
L 111.2931 216.404326 
L 112.698989 216.404326 
L 114.105922 216.404326 
L 115.51181 216.404326 
L 116.919266 216.404326 
L 118.326721 216.404326 
L 119.732087 216.404326 
L 121.139543 216.404326 
L 122.546998 216.404326 
L 123.953931 216.404326 
L 125.361386 216.404326 
L 126.768842 216.404326 
L 128.175775 216.404326 
L 129.58323 216.404326 
L 130.990685 216.404326 
L 132.397618 216.404326 
L 133.80664 216.404326 
L 135.214095 216.404326 
L 136.621551 216.404326 
L 138.030051 216.404326 
L 139.437506 216.404326 
L 140.846528 216.404326 
L 142.25555 216.404326 
L 143.662483 216.404326 
L 145.071505 216.404326 
L 146.480527 216.404326 
L 147.889549 216.404326 
L 149.298049 216.404326 
L 150.705504 216.404326 
L 152.114526 216.404326 
L 153.525115 216.404326 
L 154.933615 216.404326 
L 156.342637 216.404326 
L 157.751659 216.404326 
L 159.160681 216.404326 
L 160.570747 216.404326 
L 161.979769 216.404326 
L 163.390358 216.404326 
L 164.79938 216.404326 
L 166.209969 216.404326 
L 167.620035 216.404326 
L 169.029057 216.404326 
L 170.439646 216.404326 
L 171.850235 216.404326 
L 173.260824 216.404326 
L 174.67089 216.404326 
L 176.081479 216.404326 
L 177.492068 216.404326 
L 178.902657 216.404326 
L 180.313245 216.404326 
L 181.723312 216.404326 
L 183.133901 216.404326 
L 184.546056 216.404326 
L 185.956645 216.404326 
L 187.3688 216.404326 
L 188.778867 216.404326 
L 190.191022 216.404326 
L 191.601611 216.404326 
L 193.013767 216.404326 
L 194.425922 216.404326 
L 195.838078 216.404326 
L 197.248666 216.404326 
L 198.6603 216.404326 
L 200.072455 216.404326 
L 201.484611 216.404326 
L 202.896766 216.404326 
L 204.310488 216.404326 
L 205.722644 216.404326 
L 207.134799 216.404326 
L 208.546433 216.404326 
L 209.960155 216.404326 
L 211.37231 216.404326 
L 212.786033 216.404326 
L 214.198188 216.404326 
L 215.611911 216.404326 
L 217.024066 216.404326 
L 218.437788 216.404326 
L 219.851511 216.404326 
L 221.264711 216.404326 
L 222.678433 216.404326 
L 224.092155 216.404326 
L 225.505877 216.404326 
L 226.9196 216.404326 
L 228.333322 216.404326 
L 229.747044 216.404326 
L 231.160766 216.404326 
L 232.574488 216.404326 
L 233.989777 216.404326 
L 235.4035 216.404326 
L 236.818789 216.404326 
L 238.231989 216.404326 
L 239.647278 216.404326 
L 241.061 216.404326 
L 242.476289 216.404326 
L 243.891578 216.404326 
L 245.306867 216.404326 
L 246.720589 216.404326 
L 248.135878 216.404326 
L 249.551167 216.404326 
L 250.966456 216.404326 
L 252.381745 216.404326 
L 253.798601 216.404326 
L 255.21389 216.404326 
L 256.629179 216.404326 
L 258.044468 216.404326 
L 259.461324 216.404326 
L 260.876613 216.404326 
L 262.293468 216.404326 
L 263.708757 216.404326 
L 265.125613 216.404326 
L 266.540902 216.404326 
L 267.957758 216.404326 
L 269.374613 216.404326 
L 270.791469 216.404326 
L 272.208325 216.404326 
L 273.625181 216.404326 
L 275.042036 216.404326 
L 276.458892 216.404326 
L 277.875748 216.404326 
L 279.292604 216.404326 
L 280.709459 216.404326 
L 282.127882 216.404326 
L 283.544737 216.404326 
L 284.961593 216.404326 
L 286.380016 216.404326 
L 287.796871 216.404326 
L 289.215294 216.404326 
L 290.633716 216.404326 
L 292.050572 216.404326 
L 293.468995 216.404326 
L 294.887417 216.404326 
L 296.305839 216.404326 
L 297.724262 216.404326 
L 299.143207 216.404326 
L 300.561629 216.404326 
L 301.980052 216.404326 
L 303.398474 216.404326 
L 304.816897 216.404326 
L 306.235319 216.404326 
L 307.655308 216.404326 
L 309.073731 216.404326 
L 310.49372 216.404326 
L 311.912142 216.404326 
L 313.332132 216.404326 
L 314.750554 216.404326 
L 316.171066 216.404326 
L 317.591055 216.404326 
L 319.009477 216.404326 
L 320.429466 216.404326 
L 320.429466 215.846975 
L 320.429466 215.846975 
L 319.009477 215.827159 
L 317.591055 215.806279 
L 316.171066 215.784207 
L 314.750554 215.760867 
L 313.332132 215.736206 
L 311.912142 215.710052 
L 310.49372 215.682344 
L 309.073731 215.652888 
L 307.655308 215.621603 
L 306.235319 215.588257 
L 304.816897 215.552744 
L 303.398474 215.514826 
L 301.980052 215.474278 
L 300.561629 215.430848 
L 299.143207 215.384252 
L 297.724262 215.334153 
L 296.305839 215.280224 
L 294.887417 215.222037 
L 293.468995 215.159126 
L 292.050572 215.090957 
L 290.633716 215.017001 
L 289.215294 214.936392 
L 287.796871 214.848392 
L 286.380016 214.752164 
L 284.961593 214.646391 
L 283.544737 214.530011 
L 282.127882 214.401388 
L 280.709459 214.258543 
L 279.292604 214.099631 
L 277.875748 213.921904 
L 276.458892 213.722221 
L 275.042036 213.496752 
L 273.625181 213.240793 
L 272.208325 212.948514 
L 270.791469 212.612626 
L 269.374613 212.22393 
L 267.957758 211.7707 
L 266.540902 211.237827 
L 265.125613 210.606402 
L 263.708757 209.849168 
L 262.293468 208.933487 
L 260.876613 207.811285 
L 259.461324 206.423131 
L 258.044468 204.682639 
L 256.629179 202.483613 
L 255.21389 199.685214 
L 253.798601 196.130064 
L 252.381745 191.685846 
L 250.966456 186.3983 
L 249.551167 180.713279 
L 248.135878 175.735575 
L 246.720589 172.958458 
L 245.306867 173.170005 
L 243.891578 175.621221 
L 242.476289 178.654537 
L 241.061 180.827692 
L 239.647278 181.264757 
L 238.231989 179.419266 
L 236.818789 174.880684 
L 235.4035 167.668222 
L 233.989777 159.518428 
L 232.574488 154.474463 
L 231.160766 154.755771 
L 229.747044 157.253276 
L 228.333322 158.699714 
L 226.9196 159.341442 
L 225.505877 161.513163 
L 224.092155 166.728098 
L 222.678433 174.139382 
L 221.264711 181.840085 
L 219.851511 188.564094 
L 218.437788 193.957115 
L 217.024066 198.131814 
L 215.611911 201.333721 
L 214.198188 203.807229 
L 212.786033 205.734749 
L 211.37231 207.260177 
L 209.960155 208.481254 
L 208.546433 209.4739 
L 207.134799 210.288799 
L 205.722644 210.966769 
L 204.310488 211.536491 
L 202.896766 212.020304 
L 201.484611 212.433806 
L 200.072455 212.790429 
L 198.6603 213.100209 
L 197.248666 213.370969 
L 195.838078 213.608975 
L 194.425922 213.819726 
L 193.013767 214.007068 
L 191.601611 214.174381 
L 190.191022 214.324294 
L 188.778867 214.459456 
L 187.3688 214.581457 
L 185.956645 214.692288 
L 184.546056 214.793035 
L 183.133901 214.885096 
L 181.723312 214.969273 
L 180.313245 215.046507 
L 178.902657 215.117601 
L 177.492068 215.183173 
L 176.081479 215.243787 
L 174.67089 215.299934 
L 173.260824 215.35203 
L 171.850235 215.400495 
L 170.439646 215.445644 
L 169.029057 215.487777 
L 167.620035 215.527117 
L 166.209969 215.563974 
L 164.79938 215.598543 
L 163.390358 215.630963 
L 161.979769 215.661477 
L 160.570747 215.690171 
L 159.160681 215.717237 
L 157.751659 215.742759 
L 156.342637 215.766871 
L 154.933615 215.789677 
L 153.525115 215.811261 
L 152.114526 215.831748 
L 150.705504 215.851161 
L 149.298049 215.869575 
L 147.889549 215.88709 
L 146.480527 215.903758 
L 145.071505 215.919626 
L 143.662483 215.934746 
L 142.25555 215.949144 
L 140.846528 215.962904 
L 139.437506 215.976045 
L 138.030051 215.988591 
L 136.621551 216.000598 
L 135.214095 216.012081 
L 133.80664 216.023078 
L 132.397618 216.033627 
L 130.990685 216.043727 
L 129.58323 216.053421 
L 128.175775 216.062727 
L 126.768842 216.071663 
L 125.361386 216.080253 
L 123.953931 216.088513 
L 122.546998 216.096457 
L 121.139543 216.104106 
L 119.732087 216.111472 
L 118.326721 216.118559 
L 116.919266 216.1254 
L 115.51181 216.131997 
L 114.105922 216.138355 
L 112.698989 216.144496 
L 111.2931 216.150422 
L 109.887212 216.156146 
L 108.480279 216.161683 
L 107.07439 216.167031 
L 105.668502 216.172204 
L 104.263135 216.177206 
L 102.857247 216.18205 
L 101.451881 216.186739 
L 100.045992 216.191281 
L 98.640103 216.195683 
L 97.234737 216.199947 
L 95.828849 216.204083 
L 94.42296 216.208094 
L 93.01916 216.21198 
L 91.613272 216.215756 
L 90.20895 216.219418 
L 88.803584 216.222977 
L 87.399262 216.226431 
L 85.993896 216.22979 
L 84.589574 216.233051 
L 83.185252 216.236222 
L 81.779886 216.239307 
L 80.375564 216.242306 
L 78.971242 216.245224 
L 77.567443 216.248062 
L 76.163121 216.250825 
L 74.759321 216.253515 
L 73.354999 216.256136 
L 71.950678 216.258689 
L 70.548445 216.261172 
L 69.144123 216.263596 
L 67.740323 216.265958 
L 66.337568 216.268259 
L 64.933769 216.270504 
L 63.531014 216.272693 
L 62.126692 216.27483 
L 60.724459 216.276913 
L 59.321704 216.278947 
L 57.917905 216.280933 
L 56.515149 216.282872 
L 55.112917 216.284764 
L 53.710162 216.286613 
L 52.307929 216.288418 
L 50.905174 216.290183 
L 49.502419 216.291908 
L 48.100186 216.293593 
L 46.697431 216.295241 
L 45.296765 216.296851 
L 43.89401 216.298427 
L 42.491777 216.299968 
L 41.090588 216.301474 
L 39.688356 216.302949 
L 38.287167 216.304392 
L 36.884935 216.305805 
L 35.483746 216.307187 
L 34.08308 216.30854 
z
" clip-path="url(#p776226e2cf)" style="fill: #1f77b4; fill-opacity: 0.25"/>
   </g>
   <g id="PolyCollection_2">
    <path d="M 34.08308 214.516452 
L 34.08308 216.404326 
L 35.483746 216.404326 
L 36.884935 216.404326 
L 38.287167 216.404326 
L 39.688356 216.404326 
L 41.090588 216.404326 
L 42.491777 216.404326 
L 43.89401 216.404326 
L 45.296765 216.404326 
L 46.697431 216.404326 
L 48.100186 216.404326 
L 49.502419 216.404326 
L 50.905174 216.404326 
L 52.307929 216.404326 
L 53.710162 216.404326 
L 55.112917 216.404326 
L 56.515149 216.404326 
L 57.917905 216.404326 
L 59.321704 216.404326 
L 60.724459 216.404326 
L 62.126692 216.404326 
L 63.531014 216.404326 
L 64.933769 216.404326 
L 66.337568 216.404326 
L 67.740323 216.404326 
L 69.144123 216.404326 
L 70.548445 216.404326 
L 71.950678 216.404326 
L 73.354999 216.404326 
L 74.759321 216.404326 
L 76.163121 216.404326 
L 77.567443 216.404326 
L 78.971242 216.404326 
L 80.375564 216.404326 
L 81.779886 216.404326 
L 83.185252 216.404326 
L 84.589574 216.404326 
L 85.993896 216.404326 
L 87.399262 216.404326 
L 88.803584 216.404326 
L 90.20895 216.404326 
L 91.613272 216.404326 
L 93.01916 216.404326 
L 94.42296 216.404326 
L 95.828849 216.404326 
L 97.234737 216.404326 
L 98.640103 216.404326 
L 100.045992 216.404326 
L 101.451881 216.404326 
L 102.857247 216.404326 
L 104.263135 216.404326 
L 105.668502 216.404326 
L 107.07439 216.404326 
L 108.480279 216.404326 
L 109.887212 216.404326 
L 111.2931 216.404326 
L 112.698989 216.404326 
L 114.105922 216.404326 
L 115.51181 216.404326 
L 116.919266 216.404326 
L 118.326721 216.404326 
L 119.732087 216.404326 
L 121.139543 216.404326 
L 122.546998 216.404326 
L 123.953931 216.404326 
L 125.361386 216.404326 
L 126.768842 216.404326 
L 128.175775 216.404326 
L 129.58323 216.404326 
L 130.990685 216.404326 
L 132.397618 216.404326 
L 133.80664 216.404326 
L 135.214095 216.404326 
L 136.621551 216.404326 
L 138.030051 216.404326 
L 139.437506 216.404326 
L 140.846528 216.404326 
L 142.25555 216.404326 
L 143.662483 216.404326 
L 145.071505 216.404326 
L 146.480527 216.404326 
L 147.889549 216.404326 
L 149.298049 216.404326 
L 150.705504 216.404326 
L 152.114526 216.404326 
L 153.525115 216.404326 
L 154.933615 216.404326 
L 156.342637 216.404326 
L 157.751659 216.404326 
L 159.160681 216.404326 
L 160.570747 216.404326 
L 161.979769 216.404326 
L 163.390358 216.404326 
L 164.79938 216.404326 
L 166.209969 216.404326 
L 167.620035 216.404326 
L 169.029057 216.404326 
L 170.439646 216.404326 
L 171.850235 216.404326 
L 173.260824 216.404326 
L 174.67089 216.404326 
L 176.081479 216.404326 
L 177.492068 216.404326 
L 178.902657 216.404326 
L 180.313245 216.404326 
L 181.723312 216.404326 
L 183.133901 216.404326 
L 184.546056 216.404326 
L 185.956645 216.404326 
L 187.3688 216.404326 
L 188.778867 216.404326 
L 190.191022 216.404326 
L 191.601611 216.404326 
L 193.013767 216.404326 
L 194.425922 216.404326 
L 195.838078 216.404326 
L 197.248666 216.404326 
L 198.6603 216.404326 
L 200.072455 216.404326 
L 201.484611 216.404326 
L 202.896766 216.404326 
L 204.310488 216.404326 
L 205.722644 216.404326 
L 207.134799 216.404326 
L 208.546433 216.404326 
L 209.960155 216.404326 
L 211.37231 216.404326 
L 212.786033 216.404326 
L 214.198188 216.404326 
L 215.611911 216.404326 
L 217.024066 216.404326 
L 218.437788 216.404326 
L 219.851511 216.404326 
L 221.264711 216.404326 
L 222.678433 216.404326 
L 224.092155 216.404326 
L 225.505877 216.404326 
L 226.9196 216.404326 
L 228.333322 216.404326 
L 229.747044 216.404326 
L 231.160766 216.404326 
L 232.574488 216.404326 
L 233.989777 216.404326 
L 235.4035 216.404326 
L 236.818789 216.404326 
L 238.231989 216.404326 
L 239.647278 216.404326 
L 241.061 216.404326 
L 242.476289 216.404326 
L 243.891578 216.404326 
L 245.306867 216.404326 
L 246.720589 216.404326 
L 248.135878 216.404326 
L 249.551167 216.404326 
L 250.966456 216.404326 
L 252.381745 216.404326 
L 253.798601 216.404326 
L 255.21389 216.404326 
L 256.629179 216.404326 
L 258.044468 216.404326 
L 259.461324 216.404326 
L 260.876613 216.404326 
L 262.293468 216.404326 
L 263.708757 216.404326 
L 265.125613 216.404326 
L 266.540902 216.404326 
L 267.957758 216.404326 
L 269.374613 216.404326 
L 270.791469 216.404326 
L 272.208325 216.404326 
L 273.625181 216.404326 
L 275.042036 216.404326 
L 276.458892 216.404326 
L 277.875748 216.404326 
L 279.292604 216.404326 
L 280.709459 216.404326 
L 282.127882 216.404326 
L 283.544737 216.404326 
L 284.961593 216.404326 
L 286.380016 216.404326 
L 287.796871 216.404326 
L 289.215294 216.404326 
L 290.633716 216.404326 
L 292.050572 216.404326 
L 293.468995 216.404326 
L 294.887417 216.404326 
L 296.305839 216.404326 
L 297.724262 216.404326 
L 299.143207 216.404326 
L 300.561629 216.404326 
L 301.980052 216.404326 
L 303.398474 216.404326 
L 304.816897 216.404326 
L 306.235319 216.404326 
L 307.655308 216.404326 
L 309.073731 216.404326 
L 310.49372 216.404326 
L 311.912142 216.404326 
L 313.332132 216.404326 
L 314.750554 216.404326 
L 316.171066 216.404326 
L 317.591055 216.404326 
L 319.009477 216.404326 
L 320.429466 216.404326 
L 320.429466 215.85014 
L 320.429466 215.85014 
L 319.009477 215.840094 
L 317.591055 215.82978 
L 316.171066 215.819164 
L 314.750554 215.808242 
L 313.332132 215.797022 
L 311.912142 215.785464 
L 310.49372 215.773581 
L 309.073731 215.761332 
L 307.655308 215.748731 
L 306.235319 215.735734 
L 304.816897 215.722355 
L 303.398474 215.708562 
L 301.980052 215.694339 
L 300.561629 215.679668 
L 299.143207 215.664528 
L 297.724262 215.648894 
L 296.305839 215.632756 
L 294.887417 215.616085 
L 293.468995 215.598857 
L 292.050572 215.581048 
L 290.633716 215.562649 
L 289.215294 215.543594 
L 287.796871 215.523871 
L 286.380016 215.503472 
L 284.961593 215.482317 
L 283.544737 215.460418 
L 282.127882 215.437713 
L 280.709459 215.414135 
L 279.292604 215.389694 
L 277.875748 215.364317 
L 276.458892 215.337956 
L 275.042036 215.310559 
L 273.625181 215.28207 
L 272.208325 215.25243 
L 270.791469 215.221574 
L 269.374613 215.189435 
L 267.957758 215.155939 
L 266.540902 215.121009 
L 265.125613 215.084601 
L 263.708757 215.046545 
L 262.293468 215.006827 
L 260.876613 214.965256 
L 259.461324 214.92181 
L 258.044468 214.876272 
L 256.629179 214.828611 
L 255.21389 214.778636 
L 253.798601 214.726193 
L 252.381745 214.671054 
L 250.966456 214.613157 
L 249.551167 214.552249 
L 248.135878 214.488112 
L 246.720589 214.420515 
L 245.306867 214.349282 
L 243.891578 214.273977 
L 242.476289 214.194369 
L 241.061 214.110124 
L 239.647278 214.020973 
L 238.231989 213.926313 
L 236.818789 213.825945 
L 235.4035 213.719076 
L 233.989777 213.605432 
L 232.574488 213.484154 
L 231.160766 213.354834 
L 229.747044 213.216594 
L 228.333322 213.068594 
L 226.9196 212.909898 
L 225.505877 212.739456 
L 224.092155 212.556086 
L 222.678433 212.35846 
L 221.264711 212.145078 
L 219.851511 211.914328 
L 218.437788 211.664115 
L 217.024066 211.392328 
L 215.611911 211.096808 
L 214.198188 210.774043 
L 212.786033 210.421481 
L 211.37231 210.034575 
L 209.960155 209.609854 
L 208.546433 209.141368 
L 207.134799 208.624571 
L 205.722644 208.051886 
L 204.310488 207.415712 
L 202.896766 206.706172 
L 201.484611 205.914314 
L 200.072455 205.027178 
L 198.6603 204.030612 
L 197.248666 202.90873 
L 195.838078 201.643508 
L 194.425922 200.2114 
L 193.013767 198.590244 
L 191.601611 196.754709 
L 190.191022 194.681199 
L 188.778867 192.340522 
L 187.3688 189.719457 
L 185.956645 186.801697 
L 184.546056 183.605429 
L 183.133901 180.164736 
L 181.723312 176.570782 
L 180.313245 172.956061 
L 178.902657 169.502272 
L 177.492068 166.420724 
L 176.081479 163.887699 
L 174.67089 161.935789 
L 173.260824 160.249464 
L 171.850235 157.668492 
L 170.439646 150.78804 
L 169.029057 135.637657 
L 167.620035 141.241189 
L 166.209969 160.86096 
L 164.79938 171.105491 
L 163.390358 176.543105 
L 161.979769 179.727879 
L 160.570747 181.295798 
L 159.160681 181.023556 
L 157.751659 177.794936 
L 156.342637 169.648365 
L 154.933615 160.689756 
L 153.525115 166.170331 
L 152.114526 175.166111 
L 150.705504 178.117817 
L 149.298049 175.561366 
L 147.889549 167.001344 
L 146.480527 150.435825 
L 145.071505 130.584979 
L 143.662483 128.182676 
L 142.25555 137.140314 
L 140.846528 135.918496 
L 139.437506 122.113415 
L 138.030051 108.421341 
L 136.621551 115.966223 
L 135.214095 138.89617 
L 133.80664 158.625424 
L 132.397618 170.744064 
L 130.990685 176.913941 
L 129.58323 178.664355 
L 128.175775 176.233653 
L 126.768842 168.273964 
L 125.361386 150.992293 
L 123.953931 118.780939 
L 122.546998 83.402058 
L 121.139543 94.326122 
L 119.732087 132.7955 
L 118.326721 158.545158 
L 116.919266 171.432971 
L 115.51181 176.957366 
L 114.105922 178.043855 
L 112.698989 175.832399 
L 111.2931 170.565645 
L 109.887212 162.161755 
L 108.480279 150.994855 
L 107.07439 139.331558 
L 105.668502 132.140879 
L 104.263135 133.836965 
L 102.857247 142.901642 
L 101.451881 153.744159 
L 100.045992 162.223329 
L 98.640103 166.7061 
L 97.234737 166.814149 
L 95.828849 163.338992 
L 94.42296 160.302771 
L 93.01916 163.678906 
L 91.613272 172.429928 
L 90.20895 180.815911 
L 88.803584 186.433105 
L 87.399262 189.29881 
L 85.993896 189.698812 
L 84.589574 187.382669 
L 83.185252 181.090774 
L 81.779886 167.594389 
L 80.375564 141.052376 
L 78.971242 106.066786 
L 77.567443 107.472816 
L 76.163121 134.326777 
L 74.759321 144.025123 
L 73.354999 138.133627 
L 71.950678 141.716674 
L 70.548445 162.954675 
L 69.144123 181.326486 
L 67.740323 192.326319 
L 66.337568 198.771931 
L 64.933769 202.77357 
L 63.531014 205.415182 
L 62.126692 207.260254 
L 60.724459 208.604694 
L 59.321704 209.622926 
L 57.917905 210.417751 
L 56.515149 211.052834 
L 55.112917 211.571183 
L 53.710162 212.002067 
L 52.307929 212.365379 
L 50.905174 212.675926 
L 49.502419 212.944255 
L 48.100186 213.178307 
L 46.697431 213.384383 
L 45.296765 213.566891 
L 43.89401 213.730115 
L 42.491777 213.876702 
L 41.090588 214.009029 
L 39.688356 214.129257 
L 38.287167 214.238818 
L 36.884935 214.339219 
L 35.483746 214.431432 
L 34.08308 214.516452 
z
" clip-path="url(#p776226e2cf)" style="fill: #ff7f0e; fill-opacity: 0.25"/>
   </g>
   <g id="line2d_1">
    <path d="M 34.08308 178.92691 
L 35.483746 179.528244 
L 36.884935 180.502113 
L 38.287167 184.353104 
L 39.688356 188.722634 
L 41.090588 191.175443 
L 42.491777 192.086507 
L 43.89401 188.637402 
L 46.697431 169.316395 
L 48.100186 167.747434 
L 49.502419 167.659216 
L 50.905174 176.471994 
L 52.307929 188.320689 
L 53.710162 193.108196 
L 56.515149 182.744383 
L 59.321704 175.178425 
L 60.724459 167.816816 
L 62.126692 169.001795 
L 63.531014 177.172505 
L 66.337568 199.506524 
L 67.740323 196.651557 
L 69.144123 186.089626 
L 70.548445 171.757749 
L 71.950678 149.904451 
L 73.354999 135.992257 
L 74.759321 143.401205 
L 76.163121 139.844585 
L 78.971242 99.899158 
L 80.375564 123.520312 
L 81.779886 162.45834 
L 83.185252 177.71607 
L 84.589574 182.718955 
L 85.993896 185.93918 
L 87.399262 187.02996 
L 88.803584 183.478204 
L 90.20895 181.679155 
L 91.613272 177.518269 
L 93.01916 171.991063 
L 94.42296 158.823815 
L 95.828849 158.107753 
L 98.640103 170.78596 
L 100.045992 169.86376 
L 101.451881 161.211671 
L 102.857247 142.938601 
L 104.263135 132.802611 
L 105.668502 131.755564 
L 107.07439 139.751808 
L 108.480279 145.184253 
L 109.887212 153.553307 
L 111.2931 169.91895 
L 112.698989 179.689873 
L 114.105922 178.238944 
L 115.51181 170.438078 
L 118.326721 158.626622 
L 119.732087 145.231979 
L 121.139543 111.568984 
L 122.546998 85.686011 
L 123.953931 93.140866 
L 125.361386 136.205413 
L 126.768842 170.518022 
L 128.175775 186.649022 
L 129.58323 185.806035 
L 132.397618 173.164806 
L 133.80664 164.00249 
L 135.214095 144.919425 
L 136.621551 119.404996 
L 138.030051 114.021035 
L 139.437506 114.341299 
L 140.846528 127.328299 
L 142.25555 136.688106 
L 143.662483 131.568593 
L 145.071505 129.347145 
L 146.480527 136.375729 
L 147.889549 160.660144 
L 149.298049 176.535152 
L 150.705504 181.37891 
L 152.114526 174.692177 
L 153.525115 166.108535 
L 154.933615 163.448698 
L 156.342637 163.474348 
L 157.751659 172.037877 
L 159.160681 179.264487 
L 160.570747 182.553136 
L 161.979769 183.407783 
L 163.390358 179.967512 
L 164.79938 176.864193 
L 166.209969 167.3353 
L 167.620035 146.679377 
L 169.029057 133.192227 
L 170.439646 143.054027 
L 171.850235 158.294478 
L 173.260824 157.381704 
L 174.67089 150.588921 
L 176.081479 150.471679 
L 177.492068 159.379523 
L 180.313245 181.840179 
L 181.723312 187.682082 
L 183.133901 187.485064 
L 184.546056 183.958979 
L 185.956645 181.938751 
L 187.3688 182.7258 
L 188.778867 186.457565 
L 190.191022 188.344089 
L 191.601611 184.20982 
L 193.013767 181.006924 
L 195.838078 194.04933 
L 197.248666 197.507001 
L 198.6603 201.510735 
L 200.072455 203.565636 
L 201.484611 204.411201 
L 202.896766 205.00109 
L 204.310488 204.274404 
L 205.722644 203.787934 
L 207.134799 204.504181 
L 208.546433 203.468423 
L 209.960155 202.237242 
L 211.37231 200.724007 
L 212.786033 200.062577 
L 214.198188 199.793962 
L 215.611911 197.84384 
L 217.024066 197.341 
L 218.437788 196.394074 
L 219.851511 187.187542 
L 221.264711 175.380407 
L 222.678433 168.602747 
L 224.092155 167.286951 
L 225.505877 163.007443 
L 226.9196 156.644344 
L 228.333322 153.128768 
L 229.747044 154.753784 
L 231.160766 152.998785 
L 232.574488 151.996965 
L 233.989777 151.79869 
L 235.4035 165.981574 
L 236.818789 167.083613 
L 238.231989 167.702422 
L 239.647278 175.330375 
L 241.061 192.871959 
L 242.476289 184.56138 
L 243.891578 178.752761 
L 245.306867 169.056466 
L 246.720589 160.667639 
L 248.135878 156.964591 
L 249.551167 189.297823 
L 252.381745 201.576109 
L 253.798601 193.173408 
L 255.21389 187.935942 
L 256.629179 190.683767 
L 258.044468 196.849764 
L 259.461324 194.880245 
L 260.876613 187.714664 
L 262.293468 216.404326 
L 263.708757 216.404326 
L 265.125613 213.768992 
L 266.540902 210.187039 
L 267.957758 207.696372 
L 269.374613 208.037849 
L 270.791469 216.404326 
L 284.961593 216.404326 
L 286.380016 207.062243 
L 287.796871 174.091702 
L 289.215294 99.982034 
L 289.99497 -1 
M 300.46983 -1 
L 300.561629 26.12163 
L 301.980052 145.372973 
L 303.398474 161.204623 
L 304.816897 159.409637 
L 306.235319 162.27211 
L 307.655308 174.027558 
L 309.073731 182.080949 
L 310.49372 190.872558 
L 311.912142 211.420822 
L 313.332132 216.404326 
L 314.750554 212.555807 
L 316.171066 187.604275 
L 317.591055 172.833152 
L 319.009477 181.608781 
L 320.429466 192.56641 
L 320.429466 192.56641 
" clip-path="url(#p776226e2cf)" style="fill: none; stroke: #1f77b4; stroke-width: 1.5; stroke-linecap: square"/>
    <defs>
     <path id="ma73abbc308" d="M 0 1.5 
C 0.397805 1.5 0.77937 1.341951 1.06066 1.06066 
C 1.341951 0.77937 1.5 0.397805 1.5 0 
C 1.5 -0.397805 1.341951 -0.77937 1.06066 -1.06066 
C 0.77937 -1.341951 0.397805 -1.5 0 -1.5 
C -0.397805 -1.5 -0.77937 -1.341951 -1.06066 -1.06066 
C -1.341951 -0.77937 -1.5 -0.397805 -1.5 0 
C -1.5 0.397805 -1.341951 0.77937 -1.06066 1.06066 
C -0.77937 1.341951 -0.397805 1.5 0 1.5 
z
" style="stroke: #1f77b4"/>
    </defs>
    <g clip-path="url(#p776226e2cf)">
     <use xlink:href="#ma73abbc308" x="34.08308" y="178.92691" style="fill-opacity: 0; stroke: #1f77b4"/>
     <use xlink:href="#ma73abbc308" x="35.483746" y="179.528244" style="fill-opacity: 0; stroke: #1f77b4"/>
     <use xlink:href="#ma73abbc308" x="36.884935" y="180.502113" style="fill-opacity: 0; stroke: #1f77b4"/>
     <use xlink:href="#ma73abbc308" x="38.287167" y="184.353104" style="fill-opacity: 0; stroke: #1f77b4"/>
     <use xlink:href="#ma73abbc308" x="39.688356" y="188.722634" style="fill-opacity: 0; stroke: #1f77b4"/>
     <use xlink:href="#ma73abbc308" x="41.090588" y="191.175443" style="fill-opacity: 0; stroke: #1f77b4"/>
     <use xlink:href="#ma73abbc308" x="42.491777" y="192.086507" style="fill-opacity: 0; stroke: #1f77b4"/>
     <use xlink:href="#ma73abbc308" x="43.89401" y="188.637402" style="fill-opacity: 0; stroke: #1f77b4"/>
     <use xlink:href="#ma73abbc308" x="45.296765" y="179.052848" style="fill-opacity: 0; stroke: #1f77b4"/>
     <use xlink:href="#ma73abbc308" x="46.697431" y="169.316395" style="fill-opacity: 0; stroke: #1f77b4"/>
     <use xlink:href="#ma73abbc308" x="48.100186" y="167.747434" style="fill-opacity: 0; stroke: #1f77b4"/>
     <use xlink:href="#ma73abbc308" x="49.502419" y="167.659216" style="fill-opacity: 0; stroke: #1f77b4"/>
     <use xlink:href="#ma73abbc308" x="50.905174" y="176.471994" style="fill-opacity: 0; stroke: #1f77b4"/>
     <use xlink:href="#ma73abbc308" x="52.307929" y="188.320689" style="fill-opacity: 0; stroke: #1f77b4"/>
     <use xlink:href="#ma73abbc308" x="53.710162" y="193.108196" style="fill-opacity: 0; stroke: #1f77b4"/>
     <use xlink:href="#ma73abbc308" x="55.112917" y="187.755136" style="fill-opacity: 0; stroke: #1f77b4"/>
     <use xlink:href="#ma73abbc308" x="56.515149" y="182.744383" style="fill-opacity: 0; stroke: #1f77b4"/>
     <use xlink:href="#ma73abbc308" x="57.917905" y="178.989965" style="fill-opacity: 0; stroke: #1f77b4"/>
     <use xlink:href="#ma73abbc308" x="59.321704" y="175.178425" style="fill-opacity: 0; stroke: #1f77b4"/>
     <use xlink:href="#ma73abbc308" x="60.724459" y="167.816816" style="fill-opacity: 0; stroke: #1f77b4"/>
     <use xlink:href="#ma73abbc308" x="62.126692" y="169.001795" style="fill-opacity: 0; stroke: #1f77b4"/>
     <use xlink:href="#ma73abbc308" x="63.531014" y="177.172505" style="fill-opacity: 0; stroke: #1f77b4"/>
     <use xlink:href="#ma73abbc308" x="64.933769" y="188.212836" style="fill-opacity: 0; stroke: #1f77b4"/>
     <use xlink:href="#ma73abbc308" x="66.337568" y="199.506524" style="fill-opacity: 0; stroke: #1f77b4"/>
     <use xlink:href="#ma73abbc308" x="67.740323" y="196.651557" style="fill-opacity: 0; stroke: #1f77b4"/>
     <use xlink:href="#ma73abbc308" x="69.144123" y="186.089626" style="fill-opacity: 0; stroke: #1f77b4"/>
     <use xlink:href="#ma73abbc308" x="70.548445" y="171.757749" style="fill-opacity: 0; stroke: #1f77b4"/>
     <use xlink:href="#ma73abbc308" x="71.950678" y="149.904451" style="fill-opacity: 0; stroke: #1f77b4"/>
     <use xlink:href="#ma73abbc308" x="73.354999" y="135.992257" style="fill-opacity: 0; stroke: #1f77b4"/>
     <use xlink:href="#ma73abbc308" x="74.759321" y="143.401205" style="fill-opacity: 0; stroke: #1f77b4"/>
     <use xlink:href="#ma73abbc308" x="76.163121" y="139.844585" style="fill-opacity: 0; stroke: #1f77b4"/>
     <use xlink:href="#ma73abbc308" x="77.567443" y="119.909795" style="fill-opacity: 0; stroke: #1f77b4"/>
     <use xlink:href="#ma73abbc308" x="78.971242" y="99.899158" style="fill-opacity: 0; stroke: #1f77b4"/>
     <use xlink:href="#ma73abbc308" x="80.375564" y="123.520312" style="fill-opacity: 0; stroke: #1f77b4"/>
     <use xlink:href="#ma73abbc308" x="81.779886" y="162.45834" style="fill-opacity: 0; stroke: #1f77b4"/>
     <use xlink:href="#ma73abbc308" x="83.185252" y="177.71607" style="fill-opacity: 0; stroke: #1f77b4"/>
     <use xlink:href="#ma73abbc308" x="84.589574" y="182.718955" style="fill-opacity: 0; stroke: #1f77b4"/>
     <use xlink:href="#ma73abbc308" x="85.993896" y="185.93918" style="fill-opacity: 0; stroke: #1f77b4"/>
     <use xlink:href="#ma73abbc308" x="87.399262" y="187.02996" style="fill-opacity: 0; stroke: #1f77b4"/>
     <use xlink:href="#ma73abbc308" x="88.803584" y="183.478204" style="fill-opacity: 0; stroke: #1f77b4"/>
     <use xlink:href="#ma73abbc308" x="90.20895" y="181.679155" style="fill-opacity: 0; stroke: #1f77b4"/>
     <use xlink:href="#ma73abbc308" x="91.613272" y="177.518269" style="fill-opacity: 0; stroke: #1f77b4"/>
     <use xlink:href="#ma73abbc308" x="93.01916" y="171.991063" style="fill-opacity: 0; stroke: #1f77b4"/>
     <use xlink:href="#ma73abbc308" x="94.42296" y="158.823815" style="fill-opacity: 0; stroke: #1f77b4"/>
     <use xlink:href="#ma73abbc308" x="95.828849" y="158.107753" style="fill-opacity: 0; stroke: #1f77b4"/>
     <use xlink:href="#ma73abbc308" x="97.234737" y="164.246159" style="fill-opacity: 0; stroke: #1f77b4"/>
     <use xlink:href="#ma73abbc308" x="98.640103" y="170.78596" style="fill-opacity: 0; stroke: #1f77b4"/>
     <use xlink:href="#ma73abbc308" x="100.045992" y="169.86376" style="fill-opacity: 0; stroke: #1f77b4"/>
     <use xlink:href="#ma73abbc308" x="101.451881" y="161.211671" style="fill-opacity: 0; stroke: #1f77b4"/>
     <use xlink:href="#ma73abbc308" x="102.857247" y="142.938601" style="fill-opacity: 0; stroke: #1f77b4"/>
     <use xlink:href="#ma73abbc308" x="104.263135" y="132.802611" style="fill-opacity: 0; stroke: #1f77b4"/>
     <use xlink:href="#ma73abbc308" x="105.668502" y="131.755564" style="fill-opacity: 0; stroke: #1f77b4"/>
     <use xlink:href="#ma73abbc308" x="107.07439" y="139.751808" style="fill-opacity: 0; stroke: #1f77b4"/>
     <use xlink:href="#ma73abbc308" x="108.480279" y="145.184253" style="fill-opacity: 0; stroke: #1f77b4"/>
     <use xlink:href="#ma73abbc308" x="109.887212" y="153.553307" style="fill-opacity: 0; stroke: #1f77b4"/>
     <use xlink:href="#ma73abbc308" x="111.2931" y="169.91895" style="fill-opacity: 0; stroke: #1f77b4"/>
     <use xlink:href="#ma73abbc308" x="112.698989" y="179.689873" style="fill-opacity: 0; stroke: #1f77b4"/>
     <use xlink:href="#ma73abbc308" x="114.105922" y="178.238944" style="fill-opacity: 0; stroke: #1f77b4"/>
     <use xlink:href="#ma73abbc308" x="115.51181" y="170.438078" style="fill-opacity: 0; stroke: #1f77b4"/>
     <use xlink:href="#ma73abbc308" x="116.919266" y="164.529786" style="fill-opacity: 0; stroke: #1f77b4"/>
     <use xlink:href="#ma73abbc308" x="118.326721" y="158.626622" style="fill-opacity: 0; stroke: #1f77b4"/>
     <use xlink:href="#ma73abbc308" x="119.732087" y="145.231979" style="fill-opacity: 0; stroke: #1f77b4"/>
     <use xlink:href="#ma73abbc308" x="121.139543" y="111.568984" style="fill-opacity: 0; stroke: #1f77b4"/>
     <use xlink:href="#ma73abbc308" x="122.546998" y="85.686011" style="fill-opacity: 0; stroke: #1f77b4"/>
     <use xlink:href="#ma73abbc308" x="123.953931" y="93.140866" style="fill-opacity: 0; stroke: #1f77b4"/>
     <use xlink:href="#ma73abbc308" x="125.361386" y="136.205413" style="fill-opacity: 0; stroke: #1f77b4"/>
     <use xlink:href="#ma73abbc308" x="126.768842" y="170.518022" style="fill-opacity: 0; stroke: #1f77b4"/>
     <use xlink:href="#ma73abbc308" x="128.175775" y="186.649022" style="fill-opacity: 0; stroke: #1f77b4"/>
     <use xlink:href="#ma73abbc308" x="129.58323" y="185.806035" style="fill-opacity: 0; stroke: #1f77b4"/>
     <use xlink:href="#ma73abbc308" x="130.990685" y="179.640305" style="fill-opacity: 0; stroke: #1f77b4"/>
     <use xlink:href="#ma73abbc308" x="132.397618" y="173.164806" style="fill-opacity: 0; stroke: #1f77b4"/>
     <use xlink:href="#ma73abbc308" x="133.80664" y="164.00249" style="fill-opacity: 0; stroke: #1f77b4"/>
     <use xlink:href="#ma73abbc308" x="135.214095" y="144.919425" style="fill-opacity: 0; stroke: #1f77b4"/>
     <use xlink:href="#ma73abbc308" x="136.621551" y="119.404996" style="fill-opacity: 0; stroke: #1f77b4"/>
     <use xlink:href="#ma73abbc308" x="138.030051" y="114.021035" style="fill-opacity: 0; stroke: #1f77b4"/>
     <use xlink:href="#ma73abbc308" x="139.437506" y="114.341299" style="fill-opacity: 0; stroke: #1f77b4"/>
     <use xlink:href="#ma73abbc308" x="140.846528" y="127.328299" style="fill-opacity: 0; stroke: #1f77b4"/>
     <use xlink:href="#ma73abbc308" x="142.25555" y="136.688106" style="fill-opacity: 0; stroke: #1f77b4"/>
     <use xlink:href="#ma73abbc308" x="143.662483" y="131.568593" style="fill-opacity: 0; stroke: #1f77b4"/>
     <use xlink:href="#ma73abbc308" x="145.071505" y="129.347145" style="fill-opacity: 0; stroke: #1f77b4"/>
     <use xlink:href="#ma73abbc308" x="146.480527" y="136.375729" style="fill-opacity: 0; stroke: #1f77b4"/>
     <use xlink:href="#ma73abbc308" x="147.889549" y="160.660144" style="fill-opacity: 0; stroke: #1f77b4"/>
     <use xlink:href="#ma73abbc308" x="149.298049" y="176.535152" style="fill-opacity: 0; stroke: #1f77b4"/>
     <use xlink:href="#ma73abbc308" x="150.705504" y="181.37891" style="fill-opacity: 0; stroke: #1f77b4"/>
     <use xlink:href="#ma73abbc308" x="152.114526" y="174.692177" style="fill-opacity: 0; stroke: #1f77b4"/>
     <use xlink:href="#ma73abbc308" x="153.525115" y="166.108535" style="fill-opacity: 0; stroke: #1f77b4"/>
     <use xlink:href="#ma73abbc308" x="154.933615" y="163.448698" style="fill-opacity: 0; stroke: #1f77b4"/>
     <use xlink:href="#ma73abbc308" x="156.342637" y="163.474348" style="fill-opacity: 0; stroke: #1f77b4"/>
     <use xlink:href="#ma73abbc308" x="157.751659" y="172.037877" style="fill-opacity: 0; stroke: #1f77b4"/>
     <use xlink:href="#ma73abbc308" x="159.160681" y="179.264487" style="fill-opacity: 0; stroke: #1f77b4"/>
     <use xlink:href="#ma73abbc308" x="160.570747" y="182.553136" style="fill-opacity: 0; stroke: #1f77b4"/>
     <use xlink:href="#ma73abbc308" x="161.979769" y="183.407783" style="fill-opacity: 0; stroke: #1f77b4"/>
     <use xlink:href="#ma73abbc308" x="163.390358" y="179.967512" style="fill-opacity: 0; stroke: #1f77b4"/>
     <use xlink:href="#ma73abbc308" x="164.79938" y="176.864193" style="fill-opacity: 0; stroke: #1f77b4"/>
     <use xlink:href="#ma73abbc308" x="166.209969" y="167.3353" style="fill-opacity: 0; stroke: #1f77b4"/>
     <use xlink:href="#ma73abbc308" x="167.620035" y="146.679377" style="fill-opacity: 0; stroke: #1f77b4"/>
     <use xlink:href="#ma73abbc308" x="169.029057" y="133.192227" style="fill-opacity: 0; stroke: #1f77b4"/>
     <use xlink:href="#ma73abbc308" x="170.439646" y="143.054027" style="fill-opacity: 0; stroke: #1f77b4"/>
     <use xlink:href="#ma73abbc308" x="171.850235" y="158.294478" style="fill-opacity: 0; stroke: #1f77b4"/>
     <use xlink:href="#ma73abbc308" x="173.260824" y="157.381704" style="fill-opacity: 0; stroke: #1f77b4"/>
     <use xlink:href="#ma73abbc308" x="174.67089" y="150.588921" style="fill-opacity: 0; stroke: #1f77b4"/>
     <use xlink:href="#ma73abbc308" x="176.081479" y="150.471679" style="fill-opacity: 0; stroke: #1f77b4"/>
     <use xlink:href="#ma73abbc308" x="177.492068" y="159.379523" style="fill-opacity: 0; stroke: #1f77b4"/>
     <use xlink:href="#ma73abbc308" x="178.902657" y="170.692719" style="fill-opacity: 0; stroke: #1f77b4"/>
     <use xlink:href="#ma73abbc308" x="180.313245" y="181.840179" style="fill-opacity: 0; stroke: #1f77b4"/>
     <use xlink:href="#ma73abbc308" x="181.723312" y="187.682082" style="fill-opacity: 0; stroke: #1f77b4"/>
     <use xlink:href="#ma73abbc308" x="183.133901" y="187.485064" style="fill-opacity: 0; stroke: #1f77b4"/>
     <use xlink:href="#ma73abbc308" x="184.546056" y="183.958979" style="fill-opacity: 0; stroke: #1f77b4"/>
     <use xlink:href="#ma73abbc308" x="185.956645" y="181.938751" style="fill-opacity: 0; stroke: #1f77b4"/>
     <use xlink:href="#ma73abbc308" x="187.3688" y="182.7258" style="fill-opacity: 0; stroke: #1f77b4"/>
     <use xlink:href="#ma73abbc308" x="188.778867" y="186.457565" style="fill-opacity: 0; stroke: #1f77b4"/>
     <use xlink:href="#ma73abbc308" x="190.191022" y="188.344089" style="fill-opacity: 0; stroke: #1f77b4"/>
     <use xlink:href="#ma73abbc308" x="191.601611" y="184.20982" style="fill-opacity: 0; stroke: #1f77b4"/>
     <use xlink:href="#ma73abbc308" x="193.013767" y="181.006924" style="fill-opacity: 0; stroke: #1f77b4"/>
     <use xlink:href="#ma73abbc308" x="194.425922" y="187.665492" style="fill-opacity: 0; stroke: #1f77b4"/>
     <use xlink:href="#ma73abbc308" x="195.838078" y="194.04933" style="fill-opacity: 0; stroke: #1f77b4"/>
     <use xlink:href="#ma73abbc308" x="197.248666" y="197.507001" style="fill-opacity: 0; stroke: #1f77b4"/>
     <use xlink:href="#ma73abbc308" x="198.6603" y="201.510735" style="fill-opacity: 0; stroke: #1f77b4"/>
     <use xlink:href="#ma73abbc308" x="200.072455" y="203.565636" style="fill-opacity: 0; stroke: #1f77b4"/>
     <use xlink:href="#ma73abbc308" x="201.484611" y="204.411201" style="fill-opacity: 0; stroke: #1f77b4"/>
     <use xlink:href="#ma73abbc308" x="202.896766" y="205.00109" style="fill-opacity: 0; stroke: #1f77b4"/>
     <use xlink:href="#ma73abbc308" x="204.310488" y="204.274404" style="fill-opacity: 0; stroke: #1f77b4"/>
     <use xlink:href="#ma73abbc308" x="205.722644" y="203.787934" style="fill-opacity: 0; stroke: #1f77b4"/>
     <use xlink:href="#ma73abbc308" x="207.134799" y="204.504181" style="fill-opacity: 0; stroke: #1f77b4"/>
     <use xlink:href="#ma73abbc308" x="208.546433" y="203.468423" style="fill-opacity: 0; stroke: #1f77b4"/>
     <use xlink:href="#ma73abbc308" x="209.960155" y="202.237242" style="fill-opacity: 0; stroke: #1f77b4"/>
     <use xlink:href="#ma73abbc308" x="211.37231" y="200.724007" style="fill-opacity: 0; stroke: #1f77b4"/>
     <use xlink:href="#ma73abbc308" x="212.786033" y="200.062577" style="fill-opacity: 0; stroke: #1f77b4"/>
     <use xlink:href="#ma73abbc308" x="214.198188" y="199.793962" style="fill-opacity: 0; stroke: #1f77b4"/>
     <use xlink:href="#ma73abbc308" x="215.611911" y="197.84384" style="fill-opacity: 0; stroke: #1f77b4"/>
     <use xlink:href="#ma73abbc308" x="217.024066" y="197.341" style="fill-opacity: 0; stroke: #1f77b4"/>
     <use xlink:href="#ma73abbc308" x="218.437788" y="196.394074" style="fill-opacity: 0; stroke: #1f77b4"/>
     <use xlink:href="#ma73abbc308" x="219.851511" y="187.187542" style="fill-opacity: 0; stroke: #1f77b4"/>
     <use xlink:href="#ma73abbc308" x="221.264711" y="175.380407" style="fill-opacity: 0; stroke: #1f77b4"/>
     <use xlink:href="#ma73abbc308" x="222.678433" y="168.602747" style="fill-opacity: 0; stroke: #1f77b4"/>
     <use xlink:href="#ma73abbc308" x="224.092155" y="167.286951" style="fill-opacity: 0; stroke: #1f77b4"/>
     <use xlink:href="#ma73abbc308" x="225.505877" y="163.007443" style="fill-opacity: 0; stroke: #1f77b4"/>
     <use xlink:href="#ma73abbc308" x="226.9196" y="156.644344" style="fill-opacity: 0; stroke: #1f77b4"/>
     <use xlink:href="#ma73abbc308" x="228.333322" y="153.128768" style="fill-opacity: 0; stroke: #1f77b4"/>
     <use xlink:href="#ma73abbc308" x="229.747044" y="154.753784" style="fill-opacity: 0; stroke: #1f77b4"/>
     <use xlink:href="#ma73abbc308" x="231.160766" y="152.998785" style="fill-opacity: 0; stroke: #1f77b4"/>
     <use xlink:href="#ma73abbc308" x="232.574488" y="151.996965" style="fill-opacity: 0; stroke: #1f77b4"/>
     <use xlink:href="#ma73abbc308" x="233.989777" y="151.79869" style="fill-opacity: 0; stroke: #1f77b4"/>
     <use xlink:href="#ma73abbc308" x="235.4035" y="165.981574" style="fill-opacity: 0; stroke: #1f77b4"/>
     <use xlink:href="#ma73abbc308" x="236.818789" y="167.083613" style="fill-opacity: 0; stroke: #1f77b4"/>
     <use xlink:href="#ma73abbc308" x="238.231989" y="167.702422" style="fill-opacity: 0; stroke: #1f77b4"/>
     <use xlink:href="#ma73abbc308" x="239.647278" y="175.330375" style="fill-opacity: 0; stroke: #1f77b4"/>
     <use xlink:href="#ma73abbc308" x="241.061" y="192.871959" style="fill-opacity: 0; stroke: #1f77b4"/>
     <use xlink:href="#ma73abbc308" x="242.476289" y="184.56138" style="fill-opacity: 0; stroke: #1f77b4"/>
     <use xlink:href="#ma73abbc308" x="243.891578" y="178.752761" style="fill-opacity: 0; stroke: #1f77b4"/>
     <use xlink:href="#ma73abbc308" x="245.306867" y="169.056466" style="fill-opacity: 0; stroke: #1f77b4"/>
     <use xlink:href="#ma73abbc308" x="246.720589" y="160.667639" style="fill-opacity: 0; stroke: #1f77b4"/>
     <use xlink:href="#ma73abbc308" x="248.135878" y="156.964591" style="fill-opacity: 0; stroke: #1f77b4"/>
     <use xlink:href="#ma73abbc308" x="249.551167" y="189.297823" style="fill-opacity: 0; stroke: #1f77b4"/>
     <use xlink:href="#ma73abbc308" x="250.966456" y="195.26519" style="fill-opacity: 0; stroke: #1f77b4"/>
     <use xlink:href="#ma73abbc308" x="252.381745" y="201.576109" style="fill-opacity: 0; stroke: #1f77b4"/>
     <use xlink:href="#ma73abbc308" x="253.798601" y="193.173408" style="fill-opacity: 0; stroke: #1f77b4"/>
     <use xlink:href="#ma73abbc308" x="255.21389" y="187.935942" style="fill-opacity: 0; stroke: #1f77b4"/>
     <use xlink:href="#ma73abbc308" x="256.629179" y="190.683767" style="fill-opacity: 0; stroke: #1f77b4"/>
     <use xlink:href="#ma73abbc308" x="258.044468" y="196.849764" style="fill-opacity: 0; stroke: #1f77b4"/>
     <use xlink:href="#ma73abbc308" x="259.461324" y="194.880245" style="fill-opacity: 0; stroke: #1f77b4"/>
     <use xlink:href="#ma73abbc308" x="260.876613" y="187.714664" style="fill-opacity: 0; stroke: #1f77b4"/>
     <use xlink:href="#ma73abbc308" x="262.293468" y="216.404326" style="fill-opacity: 0; stroke: #1f77b4"/>
     <use xlink:href="#ma73abbc308" x="263.708757" y="216.404326" style="fill-opacity: 0; stroke: #1f77b4"/>
     <use xlink:href="#ma73abbc308" x="265.125613" y="213.768992" style="fill-opacity: 0; stroke: #1f77b4"/>
     <use xlink:href="#ma73abbc308" x="266.540902" y="210.187039" style="fill-opacity: 0; stroke: #1f77b4"/>
     <use xlink:href="#ma73abbc308" x="267.957758" y="207.696372" style="fill-opacity: 0; stroke: #1f77b4"/>
     <use xlink:href="#ma73abbc308" x="269.374613" y="208.037849" style="fill-opacity: 0; stroke: #1f77b4"/>
     <use xlink:href="#ma73abbc308" x="270.791469" y="216.404326" style="fill-opacity: 0; stroke: #1f77b4"/>
     <use xlink:href="#ma73abbc308" x="272.208325" y="216.404326" style="fill-opacity: 0; stroke: #1f77b4"/>
     <use xlink:href="#ma73abbc308" x="273.625181" y="216.404326" style="fill-opacity: 0; stroke: #1f77b4"/>
     <use xlink:href="#ma73abbc308" x="275.042036" y="216.404326" style="fill-opacity: 0; stroke: #1f77b4"/>
     <use xlink:href="#ma73abbc308" x="276.458892" y="216.404326" style="fill-opacity: 0; stroke: #1f77b4"/>
     <use xlink:href="#ma73abbc308" x="277.875748" y="216.404326" style="fill-opacity: 0; stroke: #1f77b4"/>
     <use xlink:href="#ma73abbc308" x="279.292604" y="216.404326" style="fill-opacity: 0; stroke: #1f77b4"/>
     <use xlink:href="#ma73abbc308" x="280.709459" y="216.404326" style="fill-opacity: 0; stroke: #1f77b4"/>
     <use xlink:href="#ma73abbc308" x="282.127882" y="216.404326" style="fill-opacity: 0; stroke: #1f77b4"/>
     <use xlink:href="#ma73abbc308" x="283.544737" y="216.404326" style="fill-opacity: 0; stroke: #1f77b4"/>
     <use xlink:href="#ma73abbc308" x="284.961593" y="216.404326" style="fill-opacity: 0; stroke: #1f77b4"/>
     <use xlink:href="#ma73abbc308" x="286.380016" y="207.062243" style="fill-opacity: 0; stroke: #1f77b4"/>
     <use xlink:href="#ma73abbc308" x="287.796871" y="174.091702" style="fill-opacity: 0; stroke: #1f77b4"/>
     <use xlink:href="#ma73abbc308" x="289.215294" y="99.982034" style="fill-opacity: 0; stroke: #1f77b4"/>
     <use xlink:href="#ma73abbc308" x="289.99497" y="-1" style="fill-opacity: 0; stroke: #1f77b4"/>
     <use xlink:href="#ma73abbc308" x="300.46983" y="-1" style="fill-opacity: 0; stroke: #1f77b4"/>
     <use xlink:href="#ma73abbc308" x="300.561629" y="26.12163" style="fill-opacity: 0; stroke: #1f77b4"/>
     <use xlink:href="#ma73abbc308" x="301.980052" y="145.372973" style="fill-opacity: 0; stroke: #1f77b4"/>
     <use xlink:href="#ma73abbc308" x="303.398474" y="161.204623" style="fill-opacity: 0; stroke: #1f77b4"/>
     <use xlink:href="#ma73abbc308" x="304.816897" y="159.409637" style="fill-opacity: 0; stroke: #1f77b4"/>
     <use xlink:href="#ma73abbc308" x="306.235319" y="162.27211" style="fill-opacity: 0; stroke: #1f77b4"/>
     <use xlink:href="#ma73abbc308" x="307.655308" y="174.027558" style="fill-opacity: 0; stroke: #1f77b4"/>
     <use xlink:href="#ma73abbc308" x="309.073731" y="182.080949" style="fill-opacity: 0; stroke: #1f77b4"/>
     <use xlink:href="#ma73abbc308" x="310.49372" y="190.872558" style="fill-opacity: 0; stroke: #1f77b4"/>
     <use xlink:href="#ma73abbc308" x="311.912142" y="211.420822" style="fill-opacity: 0; stroke: #1f77b4"/>
     <use xlink:href="#ma73abbc308" x="313.332132" y="216.404326" style="fill-opacity: 0; stroke: #1f77b4"/>
     <use xlink:href="#ma73abbc308" x="314.750554" y="212.555807" style="fill-opacity: 0; stroke: #1f77b4"/>
     <use xlink:href="#ma73abbc308" x="316.171066" y="187.604275" style="fill-opacity: 0; stroke: #1f77b4"/>
     <use xlink:href="#ma73abbc308" x="317.591055" y="172.833152" style="fill-opacity: 0; stroke: #1f77b4"/>
     <use xlink:href="#ma73abbc308" x="319.009477" y="181.608781" style="fill-opacity: 0; stroke: #1f77b4"/>
     <use xlink:href="#ma73abbc308" x="320.429466" y="192.56641" style="fill-opacity: 0; stroke: #1f77b4"/>
    </g>
   </g>
   <g id="line2d_2">
    <path d="M 34.08308 214.420666 
L 41.090588 213.906178 
L 46.697431 213.275299 
L 50.905174 212.561783 
L 53.710162 211.884354 
L 56.515149 210.93138 
L 57.917905 210.294359 
L 59.321704 209.497547 
L 60.724459 208.477282 
L 62.126692 207.130758 
L 63.531014 205.283549 
L 64.933769 202.639748 
L 66.337568 198.635863 
L 67.740323 192.187951 
L 69.144123 181.185756 
L 70.548445 162.811521 
L 71.950678 141.571037 
L 73.354999 137.985437 
L 74.759321 143.874312 
L 76.163121 134.173277 
L 77.567443 107.316552 
L 78.971242 105.907684 
L 80.375564 140.890356 
L 81.779886 167.42937 
L 83.185252 180.92267 
L 84.589574 187.211394 
L 85.993896 189.524276 
L 87.399262 189.120915 
L 88.803584 186.251757 
L 90.20895 180.631003 
L 93.01916 163.48656 
L 94.42296 160.106539 
L 95.828849 163.138749 
L 97.234737 166.60977 
L 98.640103 166.497457 
L 100.045992 162.010285 
L 101.451881 153.526572 
L 102.857247 142.679366 
L 104.263135 133.609845 
L 105.668502 131.908756 
L 107.07439 139.094263 
L 109.887212 161.913576 
L 111.2931 170.311742 
L 112.698989 175.57257 
L 114.105922 177.777885 
L 115.51181 176.685037 
L 116.919266 171.154045 
L 118.326721 158.259391 
L 119.732087 132.502646 
L 121.139543 94.025902 
L 122.546998 83.094189 
L 123.953931 118.465127 
L 125.361386 150.66822 
L 126.768842 167.941301 
L 128.175775 175.892054 
L 129.58323 178.313451 
L 130.990685 176.553343 
L 132.397618 170.373366 
L 133.80664 158.244176 
L 135.214095 138.503925 
L 136.621551 115.562495 
L 138.030051 108.005606 
L 140.846528 135.477074 
L 142.25555 136.685132 
L 143.662483 127.713096 
L 145.071505 130.100279 
L 146.480527 149.935257 
L 147.889549 166.484108 
L 149.298049 175.026615 
L 150.705504 177.564652 
L 152.114526 174.593533 
L 153.525115 165.577266 
L 154.933615 160.075107 
L 156.342637 169.01091 
L 157.751659 177.133369 
L 159.160681 180.336466 
L 160.570747 180.581643 
L 161.979769 178.985031 
L 163.390358 175.769742 
L 164.79938 170.299708 
L 166.209969 160.020608 
L 167.620035 140.36398 
L 169.029057 134.721108 
L 170.439646 149.829358 
L 171.850235 156.664661 
L 173.260824 159.197169 
L 174.67089 160.831397 
L 176.081479 162.72716 
L 177.492068 165.199572 
L 178.902657 168.215548 
L 185.956645 185.089659 
L 187.3688 187.896588 
L 188.778867 190.395652 
L 190.191022 192.601167 
L 191.601611 194.524764 
L 193.013767 196.192987 
L 194.425922 197.626801 
L 195.838078 198.848157 
L 197.248666 199.875373 
L 198.6603 200.726495 
L 200.072455 201.413282 
L 201.484611 201.943794 
L 202.896766 202.32215 
L 204.310488 202.547877 
L 205.722644 202.614329 
L 207.134799 202.509044 
L 208.546433 202.210942 
L 209.960155 201.686782 
L 211.37231 200.890426 
L 212.786033 199.751904 
L 214.198188 198.176947 
L 215.611911 196.026203 
L 217.024066 193.119816 
L 218.437788 189.216904 
L 219.851511 184.074096 
L 221.264711 177.580837 
L 224.092155 162.879858 
L 225.505877 157.848293 
L 226.9196 155.847014 
L 228.333322 155.363982 
L 229.747044 154.065544 
L 231.160766 151.70628 
L 232.574488 151.55429 
L 233.989777 156.719534 
L 235.4035 164.982972 
L 236.818789 172.302302 
L 238.231989 176.941253 
L 239.647278 178.881404 
L 241.061 178.53349 
L 242.476289 176.444581 
L 243.891578 173.490872 
L 245.306867 171.114962 
L 246.720589 170.974648 
L 248.135878 173.819361 
L 249.551167 178.861202 
L 252.381745 189.952573 
L 253.798601 194.451931 
L 255.21389 198.059525 
L 256.629179 200.907898 
L 258.044468 203.154585 
L 259.461324 204.940616 
L 260.876613 206.372215 
L 262.293468 207.535988 
L 263.708757 208.491387 
L 266.540902 209.95451 
L 269.374613 211.009039 
L 272.208325 211.796617 
L 276.458892 212.655852 
L 280.709459 213.268353 
L 286.380016 213.85131 
L 293.468995 214.353658 
L 303.398474 214.819062 
L 317.591055 215.231733 
L 320.429466 215.292789 
L 320.429466 215.292789 
" clip-path="url(#p776226e2cf)" style="fill: none; stroke: #ff0000; stroke-width: 1.5; stroke-linecap: square"/>
   </g>
   <g id="line2d_3">
    <path d="M 294.887417 216.404326 
L 294.887417 17.735865 
" clip-path="url(#p776226e2cf)" style="fill: none; stroke-dasharray: 3.7,1.6; stroke-dashoffset: 0; stroke: #808080"/>
   </g>
   <g id="patch_3">
    <path d="M 33.763987 216.404326 
L 33.763987 17.735865 
" style="fill: none; stroke: #000000; stroke-linejoin: miter; stroke-linecap: square"/>
   </g>
   <g id="patch_4">
    <path d="M 320.99976 216.404326 
L 320.99976 17.735865 
" style="fill: none; stroke: #000000; stroke-linejoin: miter; stroke-linecap: square"/>
   </g>
   <g id="patch_5">
    <path d="M 33.763987 216.404326 
L 320.99976 216.404326 
" style="fill: none; stroke: #000000; stroke-linejoin: miter; stroke-linecap: square"/>
   </g>
   <g id="patch_6">
    <path d="M 33.763987 17.735865 
L 320.99976 17.735865 
" style="fill: none; stroke: #000000; stroke-linejoin: miter; stroke-linecap: square"/>
   </g>
   <g id="matplotlib.axis_1">
    <g id="xtick_1">
     <g id="line2d_4">
      <defs>
       <path id="mda068de53d" d="M 0 0 
L 0 3.75 
" style="stroke: #000000; stroke-width: 1.25"/>
      </defs>
      <g>
       <use xlink:href="#mda068de53d" x="33.763987" y="216.404326" style="stroke: #000000; stroke-width: 1.25"/>
      </g>
     </g>
     <g id="text_1">
      <!-- $\mathdefault{429}$ -->
      <g transform="translate(24.578987 231.52792)">
       <text>
        <tspan style="font: 11px 'Arial'" x="0 6.117676 12.235352" y="-0.09375">429</tspan>
       </text>
      </g>
     </g>
    </g>
    <g id="xtick_2">
     <g id="line2d_5">
      <g>
       <use xlink:href="#mda068de53d" x="85.988673" y="216.404326" style="stroke: #000000; stroke-width: 1.25"/>
      </g>
     </g>
     <g id="text_2">
      <!-- $\mathdefault{430}$ -->
      <g transform="translate(76.803673 231.52792)">
       <text>
        <tspan style="font: 11px 'Arial'" x="0 6.117676 12.235352" y="-0.09375">430</tspan>
       </text>
      </g>
     </g>
    </g>
    <g id="xtick_3">
     <g id="line2d_6">
      <g>
       <use xlink:href="#mda068de53d" x="138.213359" y="216.404326" style="stroke: #000000; stroke-width: 1.25"/>
      </g>
     </g>
     <g id="text_3">
      <!-- $\mathdefault{431}$ -->
      <g transform="translate(129.028359 231.52792)">
       <text>
        <tspan style="font: 11px 'Arial'" x="0 6.117676 12.235352" y="-0.09375">431</tspan>
       </text>
      </g>
     </g>
    </g>
    <g id="xtick_4">
     <g id="line2d_7">
      <g>
       <use xlink:href="#mda068de53d" x="190.438045" y="216.404326" style="stroke: #000000; stroke-width: 1.25"/>
      </g>
     </g>
     <g id="text_4">
      <!-- $\mathdefault{432}$ -->
      <g transform="translate(181.253045 231.52792)">
       <text>
        <tspan style="font: 11px 'Arial'" x="0 6.117676 12.235352" y="-0.09375">432</tspan>
       </text>
      </g>
     </g>
    </g>
    <g id="xtick_5">
     <g id="line2d_8">
      <g>
       <use xlink:href="#mda068de53d" x="242.662731" y="216.404326" style="stroke: #000000; stroke-width: 1.25"/>
      </g>
     </g>
     <g id="text_5">
      <!-- $\mathdefault{433}$ -->
      <g transform="translate(233.477731 231.52792)">
       <text>
        <tspan style="font: 11px 'Arial'" x="0 6.117676 12.235352" y="-0.09375">433</tspan>
       </text>
      </g>
     </g>
    </g>
    <g id="xtick_6">
     <g id="line2d_9">
      <g>
       <use xlink:href="#mda068de53d" x="294.887417" y="216.404326" style="stroke: #000000; stroke-width: 1.25"/>
      </g>
     </g>
     <g id="text_6">
      <!-- $\mathdefault{434}$ -->
      <g transform="translate(285.702417 231.52792)">
       <text>
        <tspan style="font: 11px 'Arial'" x="0 6.117676 12.235352" y="-0.09375">434</tspan>
       </text>
      </g>
     </g>
    </g>
    <g id="text_7">
     <!-- $\lambda$ {\sffamily (nm)} -->
     <g transform="translate(159.586736 246.411565) scale(0.12 -0.12)">
      <defs>
       <path id="StandardSymL-6c" d="M 480 3650 
C 525 4013 710 4224 998 4224 
C 1203 4224 1376 4064 1472 3778 
C 1517 3650 1574 3440 1632 3198 
L 154 19 
L 755 19 
L 1843 2301 
C 2048 1059 2150 607 2266 358 
C 2406 83 2611 -64 2848 -64 
C 3098 -64 3296 89 3405 371 
C 3475 543 3501 715 3507 1014 
L 3373 1014 
C 3322 683 3174 499 2944 499 
C 2752 499 2586 620 2483 843 
C 2400 1008 2355 1174 2266 1645 
L 2093 2466 
C 2086 2485 2080 2530 2067 2594 
C 1920 3415 1690 4192 1536 4422 
C 1395 4627 1203 4736 992 4736 
C 602 4736 397 4403 326 3650 
L 480 3650 
z
" transform="scale(0.015625)"/>
       <path id="NimbusSanL-Regu-28" d="M 1510 4672 
C 870 3833 467 2668 467 1663 
C 467 652 870 -513 1510 -1351 
L 1862 -1351 
C 1299 -436 986 639 986 1663 
C 986 2681 1299 3763 1862 4672 
L 1510 4672 
z
" transform="scale(0.015625)"/>
       <path id="NimbusSanL-Regu-6e" d="M 448 3328 
L 448 0 
L 986 0 
L 986 1835 
C 986 2539 1344 2988 1894 2988 
C 2317 2988 2586 2732 2586 2328 
L 2586 0 
L 3117 0 
L 3117 2539 
C 3117 3097 2701 3456 2054 3456 
C 1555 3456 1235 3263 941 2796 
L 941 3328 
L 448 3328 
z
" transform="scale(0.015625)"/>
       <path id="NimbusSanL-Regu-6d" d="M 448 3328 
L 448 0 
L 986 0 
L 986 2089 
C 986 2597 1338 2988 1773 2988 
C 2170 2988 2394 2744 2394 2315 
L 2394 0 
L 2931 0 
L 2931 2109 
C 2931 2597 3283 2988 3718 2988 
C 4109 2988 4339 2738 4339 2315 
L 4339 0 
L 4877 0 
L 4877 2520 
C 4877 3123 4531 3456 3904 3456 
C 3456 3456 3187 3321 2874 2943 
C 2675 3302 2406 3456 1971 3456 
C 1523 3456 1229 3289 941 2886 
L 941 3328 
L 448 3328 
z
" transform="scale(0.015625)"/>
       <path id="NimbusSanL-Regu-29" d="M 595 -1351 
C 1235 -513 1638 652 1638 1657 
C 1638 2668 1235 3833 595 4672 
L 243 4672 
C 806 3756 1120 2681 1120 1657 
C 1120 639 806 -442 243 -1351 
L 595 -1351 
z
" transform="scale(0.015625)"/>
      </defs>
      <use xlink:href="#StandardSymL-6c" transform="scale(0.996264)"/>
      <use xlink:href="#NimbusSanL-Regu-28" transform="translate(91.855235 0) scale(0.996264)"/>
      <use xlink:href="#NimbusSanL-Regu-6e" transform="translate(125.030464 0) scale(0.996264)"/>
      <use xlink:href="#NimbusSanL-Regu-6d" transform="translate(180.422141 0) scale(0.996264)"/>
      <use xlink:href="#NimbusSanL-Regu-29" transform="translate(263.410572 0) scale(0.996264)"/>
     </g>
    </g>
   </g>
   <g id="matplotlib.axis_2">
    <g id="ytick_1">
     <g id="line2d_10">
      <defs>
       <path id="ma327e49721" d="M 0 0 
L -3.75 0 
" style="stroke: #000000; stroke-width: 1.25"/>
      </defs>
      <g>
       <use xlink:href="#ma327e49721" x="33.763987" y="216.404326" style="stroke: #000000; stroke-width: 1.25"/>
      </g>
     </g>
     <g id="text_8">
      <!-- $\mathdefault{0}$ -->
      <g transform="translate(20.353987 220.341123)">
       <text>
        <tspan style="font: 11px 'Arial'" x="0" y="-0.09375">0</tspan>
       </text>
      </g>
     </g>
    </g>
    <g id="ytick_2">
     <g id="line2d_11">
      <g>
       <use xlink:href="#ma327e49721" x="33.763987" y="191.386974" style="stroke: #000000; stroke-width: 1.25"/>
      </g>
     </g>
     <g id="text_9">
      <!-- $\mathdefault{1}$ -->
      <g transform="translate(20.353987 195.323771)">
       <text>
        <tspan style="font: 11px 'Arial'" x="0" y="-0.09375">1</tspan>
       </text>
      </g>
     </g>
    </g>
    <g id="ytick_3">
     <g id="line2d_12">
      <g>
       <use xlink:href="#ma327e49721" x="33.763987" y="166.369622" style="stroke: #000000; stroke-width: 1.25"/>
      </g>
     </g>
     <g id="text_10">
      <!-- $\mathdefault{2}$ -->
      <g transform="translate(20.353987 170.306419)">
       <text>
        <tspan style="font: 11px 'Arial'" x="0" y="-0.09375">2</tspan>
       </text>
      </g>
     </g>
    </g>
    <g id="ytick_4">
     <g id="line2d_13">
      <g>
       <use xlink:href="#ma327e49721" x="33.763987" y="141.35227" style="stroke: #000000; stroke-width: 1.25"/>
      </g>
     </g>
     <g id="text_11">
      <!-- $\mathdefault{3}$ -->
      <g transform="translate(20.353987 145.289067)">
       <text>
        <tspan style="font: 11px 'Arial'" x="0" y="-0.09375">3</tspan>
       </text>
      </g>
     </g>
    </g>
    <g id="ytick_5">
     <g id="line2d_14">
      <g>
       <use xlink:href="#ma327e49721" x="33.763987" y="116.334919" style="stroke: #000000; stroke-width: 1.25"/>
      </g>
     </g>
     <g id="text_12">
      <!-- $\mathdefault{4}$ -->
      <g transform="translate(20.353987 120.271716)">
       <text>
        <tspan style="font: 11px 'Arial'" x="0" y="-0.125">4</tspan>
       </text>
      </g>
     </g>
    </g>
    <g id="ytick_6">
     <g id="line2d_15">
      <g>
       <use xlink:href="#ma327e49721" x="33.763987" y="91.317567" style="stroke: #000000; stroke-width: 1.25"/>
      </g>
     </g>
     <g id="text_13">
      <!-- $\mathdefault{5}$ -->
      <g transform="translate(20.353987 95.254364)">
       <text>
        <tspan style="font: 11px 'Arial'" x="0" y="-0.234375">5</tspan>
       </text>
      </g>
     </g>
    </g>
    <g id="ytick_7">
     <g id="line2d_16">
      <g>
       <use xlink:href="#ma327e49721" x="33.763987" y="66.300215" style="stroke: #000000; stroke-width: 1.25"/>
      </g>
     </g>
     <g id="text_14">
      <!-- $\mathdefault{6}$ -->
      <g transform="translate(20.353987 70.237012)">
       <text>
        <tspan style="font: 11px 'Arial'" x="0" y="-0.09375">6</tspan>
       </text>
      </g>
     </g>
    </g>
    <g id="ytick_8">
     <g id="line2d_17">
      <g>
       <use xlink:href="#ma327e49721" x="33.763987" y="41.282863" style="stroke: #000000; stroke-width: 1.25"/>
      </g>
     </g>
     <g id="text_15">
      <!-- $\mathdefault{7}$ -->
      <g transform="translate(20.353987 45.21966)">
       <text>
        <tspan style="font: 11px 'Arial'" x="0" y="-0.234375">7</tspan>
       </text>
      </g>
     </g>
    </g>
    <g id="text_16">
     <!-- $B_{\lambda}$ {\sffamily (photons/cm\textsuperscript{2}/s/nm)} -->
     <g transform="translate(13.728305 177.714049) rotate(-90) scale(0.12 -0.12)">
      <defs>
       <path id="NimbusRomNo9L-ReguItal-42" d="M -51 0 
L 1754 0 
C 2758 0 3450 523 3450 1274 
C 3450 1510 3373 1732 3232 1872 
C 3104 2019 2976 2095 2643 2235 
C 3098 2344 3283 2420 3488 2598 
C 3667 2751 3763 2968 3763 3222 
C 3763 3827 3309 4160 2483 4160 
L 832 4160 
L 832 4057 
C 1229 4025 1325 3974 1325 3795 
C 1325 3700 1299 3541 1254 3388 
L 467 574 
C 352 204 307 166 -51 102 
L -51 0 
z
M 1523 2108 
C 1939 2108 2208 2083 2336 2032 
C 2598 1923 2758 1643 2758 1299 
C 2758 612 2285 192 1504 192 
C 1235 192 1094 287 1094 459 
C 1094 535 1171 841 1318 1350 
C 1402 1637 1440 1783 1523 2108 
z
M 2003 3789 
C 2042 3929 2118 3967 2368 3967 
C 2880 3967 3117 3751 3117 3280 
C 3117 2917 2963 2637 2688 2484 
C 2470 2356 2163 2312 1587 2312 
L 2003 3789 
z
" transform="scale(0.015625)"/>
       <path id="NimbusSanL-Regu-70" d="M 346 -1408 
L 883 -1408 
L 883 371 
C 1165 25 1478 -128 1914 -128 
C 2778 -128 3347 568 3347 1632 
C 3347 2752 2797 3456 1907 3456 
C 1453 3456 1088 3251 838 2854 
L 838 3359 
L 346 3359 
L 346 -1408 
z
M 1818 2956 
C 2406 2956 2790 2440 2790 1644 
C 2790 887 2400 371 1818 371 
C 1254 371 883 880 883 1663 
C 883 2447 1254 2956 1818 2956 
z
" transform="scale(0.015625)"/>
       <path id="NimbusSanL-Regu-68" d="M 448 4672 
L 448 0 
L 979 0 
L 979 1853 
C 979 2539 1338 2988 1888 2988 
C 2061 2988 2234 2930 2362 2834 
C 2515 2725 2579 2565 2579 2328 
L 2579 0 
L 3110 0 
L 3110 2539 
C 3110 3103 2707 3456 2054 3456 
C 1581 3456 1293 3308 979 2898 
L 979 4672 
L 448 4672 
z
" transform="scale(0.015625)"/>
       <path id="NimbusSanL-Regu-6f" d="M 1741 3456 
C 800 3456 230 2784 230 1663 
C 230 543 794 -128 1747 -128 
C 2688 -128 3264 543 3264 1638 
C 3264 2791 2707 3456 1741 3456 
z
M 1747 2963 
C 2349 2963 2707 2472 2707 1644 
C 2707 861 2336 364 1747 364 
C 1152 364 787 855 787 1663 
C 787 2466 1152 2963 1747 2963 
z
" transform="scale(0.015625)"/>
       <path id="NimbusSanL-Regu-74" d="M 1626 3328 
L 1075 3328 
L 1075 4249 
L 544 4249 
L 544 3328 
L 90 3328 
L 90 2892 
L 544 2892 
L 544 402 
C 544 64 774 -128 1190 -128 
C 1318 -128 1446 -116 1626 -84 
L 1626 364 
C 1555 345 1472 339 1370 339 
C 1139 339 1075 402 1075 634 
L 1075 2892 
L 1626 2892 
L 1626 3328 
z
" transform="scale(0.015625)"/>
       <path id="NimbusSanL-Regu-73" d="M 2803 2428 
C 2797 3084 2362 3456 1587 3456 
C 806 3456 301 3052 301 2434 
C 301 1912 570 1663 1363 1472 
L 1862 1351 
C 2234 1262 2381 1129 2381 887 
C 2381 574 2067 364 1600 364 
C 1312 364 1069 447 934 587 
C 851 683 813 778 781 1014 
L 218 1014 
C 243 243 678 -128 1555 -128 
C 2400 -128 2938 288 2938 931 
C 2938 1428 2656 1702 1990 1861 
L 1478 1982 
C 1043 2084 858 2224 858 2459 
C 858 2765 1133 2963 1568 2963 
C 1997 2963 2227 2778 2240 2428 
L 2803 2428 
z
" transform="scale(0.015625)"/>
       <path id="NimbusSanL-Regu-2f" d="M 1466 4672 
L -51 -128 
L 301 -128 
L 1818 4672 
L 1466 4672 
z
" transform="scale(0.015625)"/>
       <path id="NimbusSanL-Regu-63" d="M 3014 2237 
C 2989 2561 2918 2771 2790 2956 
C 2560 3270 2157 3456 1690 3456 
C 787 3456 198 2740 198 1632 
C 198 555 774 -128 1683 -128 
C 2483 -128 2989 352 3053 1167 
L 2515 1167 
C 2426 632 2150 364 1696 364 
C 1107 364 755 842 755 1632 
C 755 2466 1101 2963 1683 2963 
C 2131 2963 2413 2701 2477 2237 
L 3014 2237 
z
" transform="scale(0.015625)"/>
       <path id="NimbusSanL-Regu-32" d="M 3238 556 
L 851 556 
C 909 928 1114 1165 1670 1493 
L 2310 1839 
C 2944 2185 3270 2653 3270 3211 
C 3270 3589 3117 3942 2848 4185 
C 2579 4428 2246 4544 1818 4544 
C 1242 4544 813 4339 563 3955 
C 403 3711 333 3429 320 2967 
L 883 2967 
C 902 3275 941 3461 1018 3608 
C 1165 3884 1459 4051 1798 4051 
C 2310 4051 2694 3685 2694 3198 
C 2694 2839 2483 2531 2080 2300 
L 1491 1967 
C 544 1428 269 999 218 0 
L 3238 0 
L 3238 556 
z
" transform="scale(0.015625)"/>
      </defs>
      <use xlink:href="#NimbusRomNo9L-ReguItal-42" transform="scale(0.996264)"/>
      <use xlink:href="#StandardSymL-6c" transform="translate(60.871631 -20.616338) scale(0.737241)"/>
      <use xlink:href="#NimbusSanL-Regu-28" transform="translate(135.818713 0) scale(0.996264)"/>
      <use xlink:href="#NimbusSanL-Regu-70" transform="translate(168.993943 0) scale(0.996264)"/>
      <use xlink:href="#NimbusSanL-Regu-68" transform="translate(224.38562 0) scale(0.996264)"/>
      <use xlink:href="#NimbusSanL-Regu-6f" transform="translate(279.777297 0) scale(0.996264)"/>
      <use xlink:href="#NimbusSanL-Regu-74" transform="translate(335.168974 0) scale(0.996264)"/>
      <use xlink:href="#NimbusSanL-Regu-6f" transform="translate(362.864143 0) scale(0.996264)"/>
      <use xlink:href="#NimbusSanL-Regu-6e" transform="translate(418.25582 0) scale(0.996264)"/>
      <use xlink:href="#NimbusSanL-Regu-73" transform="translate(473.647497 0) scale(0.996264)"/>
      <use xlink:href="#NimbusSanL-Regu-2f" transform="translate(523.460698 0) scale(0.996264)"/>
      <use xlink:href="#NimbusSanL-Regu-63" transform="translate(551.155868 0) scale(0.996264)"/>
      <use xlink:href="#NimbusSanL-Regu-6d" transform="translate(600.969068 0) scale(0.996264)"/>
      <use xlink:href="#NimbusSanL-Regu-32" transform="translate(683.957498 36.163231) scale(0.737241)"/>
      <use xlink:href="#NimbusSanL-Regu-2f" transform="translate(725.445777 0) scale(0.996264)"/>
      <use xlink:href="#NimbusSanL-Regu-73" transform="translate(753.140947 0) scale(0.996264)"/>
      <use xlink:href="#NimbusSanL-Regu-2f" transform="translate(802.954147 0) scale(0.996264)"/>
      <use xlink:href="#NimbusSanL-Regu-6e" transform="translate(830.649317 0) scale(0.996264)"/>
      <use xlink:href="#NimbusSanL-Regu-6d" transform="translate(886.040994 0) scale(0.996264)"/>
      <use xlink:href="#NimbusSanL-Regu-29" transform="translate(969.029424 0) scale(0.996264)"/>
     </g>
    </g>
    <g id="text_17">
     <!-- $\times\mathdefault{10^{12}}\mathdefault{}$ -->
     <g transform="translate(33.763987 14.735865)">
      <text>
       <tspan style="font: 11px 'STIXGeneral'" x="0" y="-0.799312500000001"></tspan>
       <tspan style="font: 11px 'Arial'" x="7.039993 13.157669" y="-0.799312500000001">10</tspan>
       <tspan style="font: 7.7px 'Arial'" x="19.467003 23.749376" y="-8.465625">12</tspan>
      </text>
     </g>
    </g>
   </g>
   <g id="patch_7">
    <path d="M 215.490817 47.652918 
L 215.490817 67.40298 
L 293.769383 67.40298 
" style="fill: none; stroke: #000000; stroke-linecap: round"/>
    <path d="M 289.769383 65.40298 
L 293.769383 67.40298 
L 289.769383 69.40298 
" style="fill: none; stroke: #000000; stroke-linecap: round"/>
   </g>
   <g id="text_18">
    <g id="patch_8">
     <path d="M 181.790817 50.702711 
L 249.190817 50.702711 
Q 252.190817 50.702711 252.190817 47.702711 
L 252.190817 37.602711 
Q 252.190817 34.602711 249.190817 34.602711 
L 181.790817 34.602711 
Q 178.790817 34.602711 178.790817 37.602711 
L 178.790817 47.702711 
Q 178.790817 50.702711 181.790817 50.702711 
z
" style="fill: #f5deb3; stroke: #000000; stroke-linejoin: miter"/>
    </g>
    <!-- D$_{\gamma}$ (434.00) nm -->
    <g transform="translate(181.790817 44.902711)">
     <text>
      <tspan style="font: 10px 'Arial'" x="0 10.686517 13.464837 16.794915 22.356439 27.917962 33.479486 36.257806 41.81933 47.380853 50.710931 53.489251 59.050775" y="-0.71875">D(434.00)nm</tspan>
      <tspan style="font: italic 7px 'STIXGeneral'" x="7.375898" y="0.6031250000000004"></tspan>
     </text>
    </g>
   </g>
   <g id="text_19">
    <text style="font: 10px 'Arial'; text-anchor: middle" x="224.962699" y="92.486963" transform="rotate(-0 224.962699 92.486963)">Q-branch</text>
   </g>
   <g id="text_20">
    <text style="font: 10px 'Arial'; text-anchor: middle" x="115.175724" y="18.09845" transform="rotate(-0 115.175724 18.09845)">B-D + C-D</text>
   </g>
   <g id="text_21">
    <text style="font: 700 12px 'Arial'; text-anchor: middle" x="177.381874" y="11.735865" transform="rotate(-0 177.381874 11.735865)">HP boron rod (redeposit test) - 16 min</text>
   </g>
  </g>
 </g>
 <defs>
  <clipPath id="p776226e2cf">
   <rect x="33.763987" y="17.735865" width="287.235773" height="198.668461"/>
  </clipPath>
 </defs>
</svg>
