<?xml version="1.0" encoding="utf-8" standalone="no"?>
<!DOCTYPE svg PUBLIC "-//W3C//DTD SVG 1.1//EN"
  "http://www.w3.org/Graphics/SVG/1.1/DTD/svg11.dtd">
<svg xmlns:xlink="http://www.w3.org/1999/xlink" width="324pt" height="252pt" viewBox="0 0 324 252" xmlns="http://www.w3.org/2000/svg" version="1.1">
 <metadata>
  <rdf:RDF xmlns:dc="http://purl.org/dc/elements/1.1/" xmlns:cc="http://creativecommons.org/ns#" xmlns:rdf="http://www.w3.org/1999/02/22-rdf-syntax-ns#">
   <cc:Work>
    <dc:type rdf:resource="http://purl.org/dc/dcmitype/StillImage"/>
    <dc:date>2025-08-15T11:59:28.030269</dc:date>
    <dc:format>image/svg+xml</dc:format>
    <dc:creator>
     <cc:Agent>
      <dc:title>Matplotlib v3.10.1, https://matplotlib.org/</dc:title>
     </cc:Agent>
    </dc:creator>
   </cc:Work>
  </rdf:RDF>
 </metadata>
 <defs>
  <style type="text/css">*{stroke-linejoin: round; stroke-linecap: butt}</style>
 </defs>
 <g id="figure_1">
  <g id="patch_1">
   <path d="M 0 252 
L 324 252 
L 324 0 
L 0 0 
z
" style="fill: #ffffff"/>
  </g>
  <g id="axes_1">
   <g id="patch_2">
    <path d="M 52.748677 216.428666 
L 310.296244 216.428666 
L 310.296244 17.834923 
L 52.748677 17.834923 
z
" style="fill: #ffffff"/>
   </g>
   <g id="line2d_1">
    <path d="M 52.920376 213.357108 
L 54.638219 184.777376 
L 56.356062 159.813246 
L 58.073905 138.078933 
L 59.791748 119.231511 
L 61.509592 102.96575 
L 63.227435 89.009635 
L 64.945278 77.12046 
L 66.319552 68.950835 
L 67.693827 61.864551 
L 69.068101 55.769821 
L 70.442376 50.582602 
L 71.81665 46.225898 
L 73.190925 42.629128 
L 74.565199 39.727556 
L 75.939474 37.461776 
L 76.97018 36.146701 
L 78.000886 35.137138 
L 79.031591 34.413052 
L 80.062297 33.955632 
L 81.093003 33.74722 
L 82.123709 33.771229 
L 83.154415 34.012083 
L 84.185121 34.455145 
L 85.559395 35.336792 
L 86.93367 36.523237 
L 88.307944 37.986549 
L 90.025787 40.166039 
L 91.743631 42.692254 
L 93.805042 46.123411 
L 96.210023 50.597526 
L 98.958572 56.224135 
L 102.050689 63.073502 
L 105.829944 72.00202 
L 110.639905 83.955284 
L 118.885552 105.151416 
L 129.536179 132.389904 
L 136.063983 148.466823 
L 141.90465 162.272554 
L 147.401748 174.699455 
L 152.555277 185.819902 
L 157.708807 196.414414 
L 162.862336 206.480545 
L 167.672297 215.4033 
L 172.482258 223.87865 
L 177.292219 231.918066 
L 182.102179 239.535124 
L 186.91214 246.744826 
L 191.314563 253 
L 191.314563 253 
" clip-path="url(#p72bdf12b7d)" style="fill: none; stroke: #0000ff; stroke-width: 1.5; stroke-linecap: square"/>
   </g>
   <g id="line2d_2">
    <path d="M 52.920376 214.287684 
L 54.981788 190.259709 
L 57.043199 169.073476 
L 59.104611 150.399799 
L 61.166023 133.951039 
L 63.227435 119.475326 
L 65.288846 106.751647 
L 67.350258 95.585685 
L 69.41167 85.806272 
L 71.473082 77.262358 
L 73.534493 69.820419 
L 75.252337 64.374881 
L 76.97018 59.551019 
L 78.688023 55.293363 
L 80.405866 51.551621 
L 82.123709 48.280154 
L 83.841552 45.437506 
L 85.559395 42.985984 
L 87.277238 40.891294 
L 88.995082 39.122203 
L 90.712925 37.650244 
L 92.430768 36.449453 
L 94.148611 35.496133 
L 95.866454 34.768638 
L 97.584297 34.247183 
L 99.645709 33.868044 
L 101.707121 33.731255 
L 103.768533 33.811288 
L 106.173513 34.14816 
L 108.578493 34.71633 
L 111.327042 35.611945 
L 114.075591 36.734014 
L 117.167709 38.225906 
L 120.603395 40.121052 
L 124.726219 42.660695 
L 129.536179 45.903922 
L 135.376846 50.128822 
L 143.278925 56.146076 
L 173.856532 79.717789 
L 182.789317 86.191168 
L 191.378532 92.142959 
L 199.624179 97.590127 
L 207.869826 102.77172 
L 216.115473 107.689763 
L 224.36112 112.350481 
L 232.606767 116.762801 
L 241.195983 121.106235 
L 249.785199 125.204591 
L 258.717983 129.221325 
L 267.994336 133.143524 
L 277.270689 136.828323 
L 286.89061 140.415828 
L 296.8541 143.898253 
L 307.161159 147.269492 
L 318.155355 150.62635 
L 325 152.600318 
L 325 152.600318 
" clip-path="url(#p72bdf12b7d)" style="fill: none; stroke-dasharray: 5.55,2.4; stroke-dashoffset: 0; stroke: #ff0000; stroke-width: 1.5"/>
   </g>
   <g id="line2d_3">
    <path d="M 97.481662 53.139349 
" clip-path="url(#p72bdf12b7d)" style="fill: none; stroke: #1f77b4; stroke-width: 1.5; stroke-linecap: square"/>
    <defs>
     <path id="m09bbcc6a8e" d="M 0 4 
C 1.060812 4 2.078319 3.578535 2.828427 2.828427 
C 3.578535 2.078319 4 1.060812 4 0 
C 4 -1.060812 3.578535 -2.078319 2.828427 -2.828427 
C 2.078319 -3.578535 1.060812 -4 0 -4 
C -1.060812 -4 -2.078319 -3.578535 -2.828427 -2.828427 
C -3.578535 -2.078319 -4 -1.060812 -4 0 
C -4 1.060812 -3.578535 2.078319 -2.828427 2.828427 
C -2.078319 3.578535 -1.060812 4 0 4 
z
" style="stroke: #0000ff; stroke-width: 0.65"/>
    </defs>
    <g clip-path="url(#p72bdf12b7d)">
     <use xlink:href="#m09bbcc6a8e" x="97.481662" y="53.139349" style="stroke: #0000ff; stroke-width: 0.65"/>
    </g>
   </g>
   <g id="line2d_4">
    <path d="M 81.009302 33.755257 
" clip-path="url(#p72bdf12b7d)" style="fill: none; stroke: #ff7f0e; stroke-width: 1.5; stroke-linecap: square"/>
    <defs>
     <path id="m0c22033b41" d="M -4 4 
L 4 4 
L 4 -4 
L -4 -4 
z
" style="stroke: #0000ff; stroke-width: 0.65; stroke-linejoin: miter"/>
    </defs>
    <g clip-path="url(#p72bdf12b7d)">
     <use xlink:href="#m0c22033b41" x="81.009302" y="33.755257" style="stroke: #0000ff; stroke-width: 0.65; stroke-linejoin: miter"/>
    </g>
   </g>
   <g id="line2d_5">
    <path d="M 291.124774 141.923722 
" clip-path="url(#p72bdf12b7d)" style="fill: none; stroke: #2ca02c; stroke-width: 1.5; stroke-linecap: square"/>
    <defs>
     <path id="m6b711bca06" d="M 0 4 
C 1.060812 4 2.078319 3.578535 2.828427 2.828427 
C 3.578535 2.078319 4 1.060812 4 0 
C 4 -1.060812 3.578535 -2.078319 2.828427 -2.828427 
C 2.078319 -3.578535 1.060812 -4 0 -4 
C -1.060812 -4 -2.078319 -3.578535 -2.828427 -2.828427 
C -3.578535 -2.078319 -4 -1.060812 -4 0 
C -4 1.060812 -3.578535 2.078319 -2.828427 2.828427 
C -2.078319 3.578535 -1.060812 4 0 4 
z
" style="stroke: #ff0000; stroke-width: 0.65"/>
    </defs>
    <g clip-path="url(#p72bdf12b7d)">
     <use xlink:href="#m6b711bca06" x="291.124774" y="141.923722" style="stroke: #ff0000; stroke-width: 0.65"/>
    </g>
   </g>
   <g id="line2d_6">
    <path d="M 101.93536 33.729882 
" clip-path="url(#p72bdf12b7d)" style="fill: none; stroke: #d62728; stroke-width: 1.5; stroke-linecap: square"/>
    <defs>
     <path id="mb8fddf03ee" d="M -4 4 
L 4 4 
L 4 -4 
L -4 -4 
z
" style="stroke: #ff0000; stroke-width: 0.65; stroke-linejoin: miter"/>
    </defs>
    <g clip-path="url(#p72bdf12b7d)">
     <use xlink:href="#mb8fddf03ee" x="101.93536" y="33.729882" style="stroke: #ff0000; stroke-width: 0.65; stroke-linejoin: miter"/>
    </g>
   </g>
   <g id="patch_3">
    <path d="M 52.748677 216.428666 
L 52.748677 17.834923 
" style="fill: none; stroke: #000000; stroke-linejoin: miter; stroke-linecap: square"/>
   </g>
   <g id="patch_4">
    <path d="M 310.296244 216.428666 
L 310.296244 17.834923 
" style="fill: none; stroke: #000000; stroke-linejoin: miter; stroke-linecap: square"/>
   </g>
   <g id="patch_5">
    <path d="M 52.748677 216.428666 
L 310.296244 216.428666 
" style="fill: none; stroke: #000000; stroke-linejoin: miter; stroke-linecap: square"/>
   </g>
   <g id="patch_6">
    <path d="M 52.748677 17.834923 
L 310.296244 17.834923 
" style="fill: none; stroke: #000000; stroke-linejoin: miter; stroke-linecap: square"/>
   </g>
   <g id="matplotlib.axis_1">
    <g id="xtick_1">
     <g id="line2d_7">
      <defs>
       <path id="me7f65e58de" d="M 0 0 
L 0 3.75 
" style="stroke: #000000; stroke-width: 1.25"/>
      </defs>
      <g>
       <use xlink:href="#me7f65e58de" x="52.748677" y="216.428666" style="stroke: #000000; stroke-width: 1.25"/>
      </g>
     </g>
     <g id="text_1">
      <text style="font-size: 11px; font-family: 'Arial'; text-anchor: middle" x="52.748677" y="231.55226" transform="rotate(-0 52.748677 231.55226)">0.0</text>
     </g>
    </g>
    <g id="xtick_2">
     <g id="line2d_8">
      <g>
       <use xlink:href="#me7f65e58de" x="95.673272" y="216.428666" style="stroke: #000000; stroke-width: 1.25"/>
      </g>
     </g>
     <g id="text_2">
      <text style="font-size: 11px; font-family: 'Arial'; text-anchor: middle" x="95.673272" y="231.55226" transform="rotate(-0 95.673272 231.55226)">2.5</text>
     </g>
    </g>
    <g id="xtick_3">
     <g id="line2d_9">
      <g>
       <use xlink:href="#me7f65e58de" x="138.597866" y="216.428666" style="stroke: #000000; stroke-width: 1.25"/>
      </g>
     </g>
     <g id="text_3">
      <text style="font-size: 11px; font-family: 'Arial'; text-anchor: middle" x="138.597866" y="231.55226" transform="rotate(-0 138.597866 231.55226)">5.0</text>
     </g>
    </g>
    <g id="xtick_4">
     <g id="line2d_10">
      <g>
       <use xlink:href="#me7f65e58de" x="181.522461" y="216.428666" style="stroke: #000000; stroke-width: 1.25"/>
      </g>
     </g>
     <g id="text_4">
      <text style="font-size: 11px; font-family: 'Arial'; text-anchor: middle" x="181.522461" y="231.55226" transform="rotate(-0 181.522461 231.55226)">7.5</text>
     </g>
    </g>
    <g id="xtick_5">
     <g id="line2d_11">
      <g>
       <use xlink:href="#me7f65e58de" x="224.447055" y="216.428666" style="stroke: #000000; stroke-width: 1.25"/>
      </g>
     </g>
     <g id="text_5">
      <text style="font-size: 11px; font-family: 'Arial'; text-anchor: middle" x="224.447055" y="231.55226" transform="rotate(-0 224.447055 231.55226)">10.0</text>
     </g>
    </g>
    <g id="xtick_6">
     <g id="line2d_12">
      <g>
       <use xlink:href="#me7f65e58de" x="267.37165" y="216.428666" style="stroke: #000000; stroke-width: 1.25"/>
      </g>
     </g>
     <g id="text_6">
      <text style="font-size: 11px; font-family: 'Arial'; text-anchor: middle" x="267.37165" y="231.55226" transform="rotate(-0 267.37165 231.55226)">12.5</text>
     </g>
    </g>
    <g id="xtick_7">
     <g id="line2d_13">
      <g>
       <use xlink:href="#me7f65e58de" x="310.296244" y="216.428666" style="stroke: #000000; stroke-width: 1.25"/>
      </g>
     </g>
     <g id="text_7">
      <text style="font-size: 11px; font-family: 'Arial'; text-anchor: middle" x="310.296244" y="231.55226" transform="rotate(-0 310.296244 231.55226)">15.0</text>
     </g>
    </g>
    <g id="text_8">
     <text style="font-size: 12px; font-family: 'Arial'; text-anchor: middle" x="181.522461" y="246.474135" transform="rotate(-0 181.522461 246.474135)">Sputtered atom energy (eV)</text>
    </g>
   </g>
   <g id="matplotlib.axis_2">
    <g id="ytick_1">
     <g id="line2d_14">
      <defs>
       <path id="mcf58961382" d="M 0 0 
L -3.75 0 
" style="stroke: #000000; stroke-width: 1.25"/>
      </defs>
      <g>
       <use xlink:href="#mcf58961382" x="52.748677" y="216.428666" style="stroke: #000000; stroke-width: 1.25"/>
      </g>
     </g>
     <g id="text_9">
      <text style="font-size: 11px; font-family: 'Arial'; text-anchor: end" x="45.498677" y="220.365463" transform="rotate(-0 45.498677 220.365463)">0.000</text>
     </g>
    </g>
    <g id="ytick_2">
     <g id="line2d_15">
      <g>
       <use xlink:href="#mcf58961382" x="52.748677" y="193.610112" style="stroke: #000000; stroke-width: 1.25"/>
      </g>
     </g>
     <g id="text_10">
      <text style="font-size: 11px; font-family: 'Arial'; text-anchor: end" x="45.498677" y="197.546909" transform="rotate(-0 45.498677 197.546909)">0.025</text>
     </g>
    </g>
    <g id="ytick_3">
     <g id="line2d_16">
      <g>
       <use xlink:href="#mcf58961382" x="52.748677" y="170.791557" style="stroke: #000000; stroke-width: 1.25"/>
      </g>
     </g>
     <g id="text_11">
      <text style="font-size: 11px; font-family: 'Arial'; text-anchor: end" x="45.498677" y="174.728354" transform="rotate(-0 45.498677 174.728354)">0.050</text>
     </g>
    </g>
    <g id="ytick_4">
     <g id="line2d_17">
      <g>
       <use xlink:href="#mcf58961382" x="52.748677" y="147.973003" style="stroke: #000000; stroke-width: 1.25"/>
      </g>
     </g>
     <g id="text_12">
      <text style="font-size: 11px; font-family: 'Arial'; text-anchor: end" x="45.498677" y="151.909799" transform="rotate(-0 45.498677 151.909799)">0.075</text>
     </g>
    </g>
    <g id="ytick_5">
     <g id="line2d_18">
      <g>
       <use xlink:href="#mcf58961382" x="52.748677" y="125.154448" style="stroke: #000000; stroke-width: 1.25"/>
      </g>
     </g>
     <g id="text_13">
      <text style="font-size: 11px; font-family: 'Arial'; text-anchor: end" x="45.498677" y="129.091245" transform="rotate(-0 45.498677 129.091245)">0.100</text>
     </g>
    </g>
    <g id="ytick_6">
     <g id="line2d_19">
      <g>
       <use xlink:href="#mcf58961382" x="52.748677" y="102.335893" style="stroke: #000000; stroke-width: 1.25"/>
      </g>
     </g>
     <g id="text_14">
      <text style="font-size: 11px; font-family: 'Arial'; text-anchor: end" x="45.498677" y="106.27269" transform="rotate(-0 45.498677 106.27269)">0.125</text>
     </g>
    </g>
    <g id="ytick_7">
     <g id="line2d_20">
      <g>
       <use xlink:href="#mcf58961382" x="52.748677" y="79.517339" style="stroke: #000000; stroke-width: 1.25"/>
      </g>
     </g>
     <g id="text_15">
      <text style="font-size: 11px; font-family: 'Arial'; text-anchor: end" x="45.498677" y="83.454136" transform="rotate(-0 45.498677 83.454136)">0.150</text>
     </g>
    </g>
    <g id="ytick_8">
     <g id="line2d_21">
      <g>
       <use xlink:href="#mcf58961382" x="52.748677" y="56.698784" style="stroke: #000000; stroke-width: 1.25"/>
      </g>
     </g>
     <g id="text_16">
      <text style="font-size: 11px; font-family: 'Arial'; text-anchor: end" x="45.498677" y="60.635581" transform="rotate(-0 45.498677 60.635581)">0.175</text>
     </g>
    </g>
    <g id="ytick_9">
     <g id="line2d_22">
      <g>
       <use xlink:href="#mcf58961382" x="52.748677" y="33.88023" style="stroke: #000000; stroke-width: 1.25"/>
      </g>
     </g>
     <g id="text_17">
      <text style="font-size: 11px; font-family: 'Arial'; text-anchor: end" x="45.498677" y="37.817027" transform="rotate(-0 45.498677 37.817027)">0.200</text>
     </g>
    </g>
    <g id="text_18">
     <text style="font-size: 12px; font-family: 'Arial'; text-anchor: middle" x="11.589615" y="117.131795" transform="rotate(-90 11.589615 117.131795)">Normalized Yield</text>
    </g>
   </g>
   <g id="text_19">
    <!-- {\sffamily D\textsuperscript{+} → B Sputtering (E\textsubscript{inc} = 50 eV)} -->
    <g transform="translate(94.138907 11.834923) scale(0.12 -0.12)">
     <defs>
      <path id="NimbusSanL-Regu-44" d="M 570 0 
L 2368 0 
C 3546 0 4269 883 4269 2339 
C 4269 3788 3552 4672 2368 4672 
L 570 4672 
L 570 0 
z
M 1165 524 
L 1165 4147 
L 2266 4147 
C 3187 4147 3674 3525 3674 2332 
C 3674 1153 3187 524 2266 524 
L 1165 524 
z
" transform="scale(0.015625)"/>
      <path id="NimbusSanL-Regu-2b" d="M 3418 1728 
L 2093 1728 
L 2093 3052 
L 1645 3052 
L 1645 1728 
L 320 1728 
L 320 1279 
L 1645 1279 
L 1645 -64 
L 2093 -64 
L 2093 1279 
L 3418 1279 
L 3418 1728 
z
" transform="scale(0.015625)"/>
      <path id="SFSS3583-19" d="M 4032 3264 
C 4096 2818 4288 2405 4570 2057 
C 4666 1934 4781 1837 4890 1728 
L 486 1728 
C 410 1728 320 1715 320 1625 
C 320 1535 410 1523 486 1523 
L 4890 1523 
C 4781 1414 4666 1318 4570 1196 
C 4288 851 4096 441 4032 0 
L 4237 0 
C 4378 672 4762 1331 5402 1619 
L 5402 1631 
C 4787 1908 4371 2599 4237 3264 
L 4032 3264 
z
" transform="scale(0.015625)"/>
      <path id="NimbusSanL-Regu-42" d="M 506 0 
L 2611 0 
C 3053 0 3379 121 3629 390 
C 3859 632 3987 961 3987 1321 
C 3987 1878 3731 2214 3136 2444 
C 3558 2643 3782 2994 3782 3476 
C 3782 3821 3654 4127 3411 4345 
C 3168 4569 2848 4672 2400 4672 
L 506 4672 
L 506 0 
z
M 1101 2636 
L 1101 4147 
L 2253 4147 
C 2586 4147 2771 4101 2931 3977 
C 3098 3847 3187 3652 3187 3391 
C 3187 3138 3098 2936 2931 2806 
C 2771 2682 2586 2636 2253 2636 
L 1101 2636 
z
M 1101 524 
L 1101 2112 
L 2554 2112 
C 2842 2112 3034 2042 3174 1890 
C 3315 1745 3392 1542 3392 1315 
C 3392 1093 3315 891 3174 746 
C 3034 594 2842 524 2554 524 
L 1101 524 
z
" transform="scale(0.015625)"/>
      <path id="NimbusSanL-Regu-53" d="M 3814 3295 
C 3808 4204 3181 4736 2106 4736 
C 1082 4736 448 4211 448 3372 
C 448 2806 749 2450 1363 2291 
L 2522 1986 
C 3110 1833 3379 1598 3379 1236 
C 3379 988 3245 733 3046 593 
C 2861 466 2566 396 2189 396 
C 1683 396 1338 517 1114 784 
C 941 988 864 1210 870 1496 
L 307 1496 
C 314 1070 397 790 582 536 
C 902 102 1440 -128 2150 -128 
C 2707 -128 3162 0 3462 230 
C 3776 479 3974 892 3974 1293 
C 3974 1865 3616 2284 2982 2456 
L 1811 2768 
C 1248 2920 1043 3098 1043 3454 
C 1043 3925 1459 4236 2086 4236 
C 2829 4236 3245 3899 3251 3295 
L 3814 3295 
z
" transform="scale(0.015625)"/>
      <path id="NimbusSanL-Regu-70" d="M 346 -1408 
L 883 -1408 
L 883 371 
C 1165 25 1478 -128 1914 -128 
C 2778 -128 3347 568 3347 1632 
C 3347 2752 2797 3456 1907 3456 
C 1453 3456 1088 3251 838 2854 
L 838 3359 
L 346 3359 
L 346 -1408 
z
M 1818 2956 
C 2406 2956 2790 2440 2790 1644 
C 2790 887 2400 371 1818 371 
C 1254 371 883 880 883 1663 
C 883 2447 1254 2956 1818 2956 
z
" transform="scale(0.015625)"/>
      <path id="NimbusSanL-Regu-75" d="M 3085 19 
L 3085 3328 
L 2554 3328 
L 2554 1454 
C 2554 780 2195 339 1638 339 
C 1216 339 947 591 947 988 
L 947 3328 
L 416 3328 
L 416 780 
C 416 230 832 -128 1485 -128 
C 1978 -128 2291 44 2605 484 
L 2605 19 
L 3085 19 
z
" transform="scale(0.015625)"/>
      <path id="NimbusSanL-Regu-74" d="M 1626 3328 
L 1075 3328 
L 1075 4249 
L 544 4249 
L 544 3328 
L 90 3328 
L 90 2892 
L 544 2892 
L 544 402 
C 544 64 774 -128 1190 -128 
C 1318 -128 1446 -116 1626 -84 
L 1626 364 
C 1555 345 1472 339 1370 339 
C 1139 339 1075 402 1075 634 
L 1075 2892 
L 1626 2892 
L 1626 3328 
z
" transform="scale(0.015625)"/>
      <path id="NimbusSanL-Regu-65" d="M 3283 1484 
C 3283 1998 3245 2311 3149 2565 
C 2931 3123 2419 3456 1792 3456 
C 858 3456 256 2734 256 1619 
C 256 545 838 -128 1779 -128 
C 2547 -128 3078 307 3213 1018 
L 2675 1018 
C 2528 588 2227 364 1798 364 
C 1459 364 1171 514 992 787 
C 864 974 819 1161 813 1484 
L 3283 1484 
z
M 826 1920 
C 870 2552 1248 2963 1786 2963 
C 2310 2963 2714 2519 2714 1959 
C 2714 1946 2714 1933 2707 1920 
L 826 1920 
z
" transform="scale(0.015625)"/>
      <path id="NimbusSanL-Regu-72" d="M 442 3328 
L 442 0 
L 979 0 
L 979 1727 
C 979 2203 1101 2514 1357 2698 
C 1523 2819 1683 2857 2054 2863 
L 2054 3404 
C 1965 3449 1920 3456 1850 3456 
C 1504 3456 1242 3251 934 2750 
L 934 3328 
L 442 3328 
z
" transform="scale(0.015625)"/>
      <path id="NimbusSanL-Regu-69" d="M 960 3358 
L 429 3358 
L 429 0 
L 960 0 
L 960 3358 
z
M 960 4672 
L 422 4672 
L 422 3999 
L 960 3999 
L 960 4672 
z
" transform="scale(0.015625)"/>
      <path id="NimbusSanL-Regu-6e" d="M 448 3328 
L 448 0 
L 986 0 
L 986 1835 
C 986 2539 1344 2988 1894 2988 
C 2317 2988 2586 2732 2586 2328 
L 2586 0 
L 3117 0 
L 3117 2539 
C 3117 3097 2701 3456 2054 3456 
C 1555 3456 1235 3263 941 2796 
L 941 3328 
L 448 3328 
z
" transform="scale(0.015625)"/>
      <path id="NimbusSanL-Regu-67" d="M 2637 3359 
L 2637 2873 
C 2368 3270 2042 3456 1613 3456 
C 762 3456 186 2714 186 1632 
C 186 1084 333 638 608 320 
C 858 38 1216 -128 1568 -128 
C 1990 -128 2285 51 2586 473 
L 2586 300 
C 2586 -155 2528 -441 2394 -634 
C 2253 -841 1978 -960 1651 -960 
C 1408 -960 1190 -894 1043 -774 
C 922 -674 870 -581 838 -375 
L 294 -375 
C 352 -1031 845 -1408 1632 -1408 
C 2131 -1408 2560 -1248 2778 -980 
C 3034 -661 3130 -222 3130 568 
L 3130 3359 
L 2637 3359 
z
M 1670 2963 
C 2246 2963 2586 2479 2586 1644 
C 2586 848 2240 364 1677 364 
C 1094 364 742 855 742 1663 
C 742 2466 1101 2963 1670 2963 
z
" transform="scale(0.015625)"/>
      <path id="NimbusSanL-Regu-28" d="M 1510 4672 
C 870 3833 467 2668 467 1663 
C 467 652 870 -513 1510 -1351 
L 1862 -1351 
C 1299 -436 986 639 986 1663 
C 986 2681 1299 3763 1862 4672 
L 1510 4672 
z
" transform="scale(0.015625)"/>
      <path id="NimbusSanL-Regu-45" d="M 1171 2112 
L 3712 2112 
L 3712 2636 
L 1171 2636 
L 1171 4147 
L 3808 4147 
L 3808 4672 
L 576 4672 
L 576 0 
L 3923 0 
L 3923 524 
L 1171 524 
L 1171 2112 
z
" transform="scale(0.015625)"/>
      <path id="NimbusSanL-Regu-63" d="M 3014 2237 
C 2989 2561 2918 2771 2790 2956 
C 2560 3270 2157 3456 1690 3456 
C 787 3456 198 2740 198 1632 
C 198 555 774 -128 1683 -128 
C 2483 -128 2989 352 3053 1167 
L 2515 1167 
C 2426 632 2150 364 1696 364 
C 1107 364 755 842 755 1632 
C 755 2466 1101 2963 1683 2963 
C 2131 2963 2413 2701 2477 2237 
L 3014 2237 
z
" transform="scale(0.015625)"/>
      <path id="NimbusSanL-Regu-3d" d="M 3418 2240 
L 320 2240 
L 320 1792 
L 3418 1792 
L 3418 2240 
z
M 3418 1152 
L 320 1152 
L 320 704 
L 3418 704 
L 3418 1152 
z
" transform="scale(0.015625)"/>
      <path id="NimbusSanL-Regu-35" d="M 3046 4544 
L 704 4544 
L 365 2076 
L 883 2076 
C 1146 2387 1363 2496 1715 2496 
C 2323 2496 2707 2082 2707 1414 
C 2707 765 2330 371 1715 371 
C 1222 371 922 619 787 1128 
L 224 1128 
C 301 759 365 581 499 415 
C 755 70 1216 -128 1728 -128 
C 2643 -128 3283 536 3283 1490 
C 3283 2381 2688 2995 1818 2995 
C 1498 2995 1242 2912 979 2720 
L 1158 3987 
L 3046 3987 
L 3046 4544 
z
" transform="scale(0.015625)"/>
      <path id="NimbusSanL-Regu-30" d="M 1760 4544 
C 1338 4544 954 4358 717 4044 
C 422 3649 275 3043 275 2207 
C 275 683 787 -128 1760 -128 
C 2720 -128 3245 683 3245 2169 
C 3245 3049 3104 3636 2803 4044 
C 2566 4364 2189 4544 1760 4544 
z
M 1760 4044 
C 2368 4044 2669 3432 2669 2220 
C 2669 938 2374 339 1747 339 
C 1152 339 851 964 851 2201 
C 851 3438 1152 4044 1760 4044 
z
" transform="scale(0.015625)"/>
      <path id="NimbusSanL-Regu-56" d="M 2509 0 
L 4128 4672 
L 3494 4672 
L 2202 717 
L 832 4672 
L 192 4672 
L 1869 0 
L 2509 0 
z
" transform="scale(0.015625)"/>
      <path id="NimbusSanL-Regu-29" d="M 595 -1351 
C 1235 -513 1638 652 1638 1657 
C 1638 2668 1235 3833 595 4672 
L 243 4672 
C 806 3756 1120 2681 1120 1657 
C 1120 639 806 -442 243 -1351 
L 595 -1351 
z
" transform="scale(0.015625)"/>
     </defs>
     <use xlink:href="#NimbusSanL-Regu-44" transform="scale(0.996264)"/>
     <use xlink:href="#NimbusSanL-Regu-2b" transform="translate(71.929985 36.163231) scale(0.737241)"/>
     <use xlink:href="#SFSS3583-19" transform="translate(143.177911 0) scale(0.996264)"/>
     <use xlink:href="#NimbusSanL-Regu-42" transform="translate(260.15362 0) scale(0.996264)"/>
     <use xlink:href="#NimbusSanL-Regu-53" transform="translate(354.298821 0) scale(0.996264)"/>
     <use xlink:href="#NimbusSanL-Regu-70" transform="translate(420.748852 0) scale(0.996264)"/>
     <use xlink:href="#NimbusSanL-Regu-75" transform="translate(476.140529 0) scale(0.996264)"/>
     <use xlink:href="#NimbusSanL-Regu-74" transform="translate(531.532206 0) scale(0.996264)"/>
     <use xlink:href="#NimbusSanL-Regu-74" transform="translate(559.227375 0) scale(0.996264)"/>
     <use xlink:href="#NimbusSanL-Regu-65" transform="translate(586.922545 0) scale(0.996264)"/>
     <use xlink:href="#NimbusSanL-Regu-72" transform="translate(642.314222 0) scale(0.996264)"/>
     <use xlink:href="#NimbusSanL-Regu-69" transform="translate(676.982829 0) scale(0.996264)"/>
     <use xlink:href="#NimbusSanL-Regu-6e" transform="translate(699.099614 0) scale(0.996264)"/>
     <use xlink:href="#NimbusSanL-Regu-67" transform="translate(754.491291 0) scale(0.996264)"/>
     <use xlink:href="#NimbusSanL-Regu-28" transform="translate(837.578137 0) scale(0.996264)"/>
     <use xlink:href="#NimbusSanL-Regu-45" transform="translate(870.753367 0) scale(0.996264)"/>
     <use xlink:href="#NimbusSanL-Regu-69" transform="translate(937.203398 -18.994095) scale(0.737241)"/>
     <use xlink:href="#NimbusSanL-Regu-6e" transform="translate(953.569941 -18.994095) scale(0.737241)"/>
     <use xlink:href="#NimbusSanL-Regu-63" transform="translate(994.560088 -18.994095) scale(0.737241)"/>
     <use xlink:href="#NimbusSanL-Regu-3d" transform="translate(1059.615431 0) scale(0.996264)"/>
     <use xlink:href="#NimbusSanL-Regu-35" transform="translate(1145.492094 0) scale(0.996264)"/>
     <use xlink:href="#NimbusSanL-Regu-30" transform="translate(1200.883771 0) scale(0.996264)"/>
     <use xlink:href="#NimbusSanL-Regu-65" transform="translate(1283.970617 0) scale(0.996264)"/>
     <use xlink:href="#NimbusSanL-Regu-56" transform="translate(1339.362294 0) scale(0.996264)"/>
     <use xlink:href="#NimbusSanL-Regu-29" transform="translate(1405.812325 0) scale(0.996264)"/>
    </g>
   </g>
   <g id="legend_1">
    <g id="patch_7">
     <path d="M 233.054057 51.125548 
L 306.296244 51.125548 
Q 308.296244 51.125548 308.296244 49.125548 
L 308.296244 21.834923 
Q 308.296244 19.834923 306.296244 19.834923 
L 233.054057 19.834923 
Q 231.054057 19.834923 231.054057 21.834923 
L 231.054057 49.125548 
Q 231.054057 51.125548 233.054057 51.125548 
z
" style="fill: #ffffff; opacity: 0.8; stroke: #cccccc; stroke-linejoin: miter"/>
    </g>
    <g id="line2d_23">
     <path d="M 235.054057 27.492736 
L 245.054057 27.492736 
L 255.054057 27.492736 
" style="fill: none; stroke: #0000ff; stroke-width: 1.5; stroke-linecap: square"/>
    </g>
    <g id="text_20">
     <text style="font-size: 10px; font-family: 'Arial'; text-anchor: start" x="257.054057" y="30.992736" transform="rotate(-0 257.054057 30.992736)">Ono 2004</text>
    </g>
    <g id="line2d_24">
     <path d="M 235.054057 41.638048 
L 245.054057 41.638048 
L 255.054057 41.638048 
" style="fill: none; stroke-dasharray: 5.55,2.4; stroke-dashoffset: 0; stroke: #ff0000; stroke-width: 1.5"/>
    </g>
    <g id="text_21">
     <text style="font-size: 10px; font-family: 'Arial'; text-anchor: start" x="257.054057" y="45.138048" transform="rotate(-0 257.054057 45.138048)">Thompson</text>
    </g>
   </g>
  </g>
 </g>
 <defs>
  <clipPath id="p72bdf12b7d">
   <rect x="52.748677" y="17.834923" width="257.547567" height="198.593743"/>
  </clipPath>
 </defs>
</svg>
