<?xml version="1.0" encoding="utf-8" standalone="no"?>
<!DOCTYPE svg PUBLIC "-//W3C//DTD SVG 1.1//EN"
  "http://www.w3.org/Graphics/SVG/1.1/DTD/svg11.dtd">
<svg xmlns:xlink="http://www.w3.org/1999/xlink" width="286.542319pt" height="356.609531pt" viewBox="0 0 286.542319 356.609531" xmlns="http://www.w3.org/2000/svg" version="1.1">
 <metadata>
  <rdf:RDF xmlns:dc="http://purl.org/dc/elements/1.1/" xmlns:cc="http://creativecommons.org/ns#" xmlns:rdf="http://www.w3.org/1999/02/22-rdf-syntax-ns#">
   <cc:Work>
    <dc:type rdf:resource="http://purl.org/dc/dcmitype/StillImage"/>
    <dc:date>2025-11-03T11:49:08.999801</dc:date>
    <dc:format>image/svg+xml</dc:format>
    <dc:creator>
     <cc:Agent>
      <dc:title>Matplotlib v3.10.1, https://matplotlib.org/</dc:title>
     </cc:Agent>
    </dc:creator>
   </cc:Work>
  </rdf:RDF>
 </metadata>
 <defs>
  <style type="text/css">*{stroke-linejoin: round; stroke-linecap: butt}</style>
 </defs>
 <g id="figure_1">
  <g id="patch_1">
   <path d="M 0 356.609531 
L 286.542319 356.609531 
L 286.542319 0 
L 0 0 
z
" style="fill: #ffffff"/>
  </g>
  <g id="axes_1">
   <g id="patch_2">
    <path d="M 42.067319 113.019062 
L 272.467319 113.019062 
L 272.467319 11.019062 
L 42.067319 11.019062 
z
" style="fill: #ffffff"/>
   </g>
   <g id="line2d_1">
    <path d="M 42.067319 98.607196 
L 47.712119 98.921966 
L 49.440119 98.78502 
L 51.052919 98.432426 
L 55.891319 97.139366 
L 57.043319 97.185485 
L 58.310519 97.458429 
L 60.038519 98.08183 
L 62.572919 98.980354 
L 63.955319 99.228317 
L 65.568119 99.271118 
L 68.563319 99.288621 
L 69.945719 99.562215 
L 71.673719 100.150337 
L 74.553719 101.157222 
L 75.936119 101.37233 
L 77.203319 101.336464 
L 78.700919 101.047405 
L 82.387319 100.209599 
L 83.884919 100.182961 
L 85.612919 100.402013 
L 89.990519 101.095211 
L 91.603319 101.034323 
L 95.980919 100.712581 
L 97.824119 100.949908 
L 99.897719 101.180889 
L 100.934519 101.082404 
L 101.856119 100.795418 
L 102.777719 100.293596 
L 103.814519 99.47501 
L 105.081719 98.173727 
L 107.270519 95.528232 
L 110.726519 91.052485 
L 111.993719 89.004282 
L 113.030519 86.904746 
L 114.067319 84.255306 
L 115.104119 80.921085 
L 116.256119 76.340156 
L 117.638519 69.773716 
L 121.440119 50.94981 
L 122.476919 47.250031 
L 123.283319 45.195491 
L 123.859319 44.246352 
L 124.320119 43.831673 
L 124.665719 43.735972 
L 125.011319 43.834695 
L 125.356919 44.136294 
L 125.817719 44.867343 
L 126.393719 46.330861 
L 126.969719 48.422151 
L 127.660919 51.759627 
L 128.467319 56.731772 
L 129.504119 64.54582 
L 131.692919 83.378854 
L 133.075319 94.199395 
L 134.112119 100.705327 
L 135.033719 105.117192 
L 135.840119 107.955576 
L 136.646519 109.963667 
L 137.337719 111.145696 
L 138.028919 111.942919 
L 138.835319 112.518621 
L 139.756919 112.868371 
L 140.908919 113.047983 
L 142.982519 113.09824 
L 174.777719 112.982679 
L 180.652919 113.10055 
L 182.726519 113.331142 
L 184.339319 113.724795 
L 186.528119 114.285294 
L 187.104119 114.213318 
L 187.680119 113.8959 
L 188.140919 113.385397 
L 188.601719 112.570758 
L 189.177719 111.008673 
L 189.753719 108.702177 
L 190.329719 105.51381 
L 191.020919 100.377734 
L 191.827319 92.486621 
L 192.748919 81.133555 
L 194.246519 59.242946 
L 195.859319 36.199574 
L 196.780919 25.862794 
L 197.472119 20.167962 
L 198.048119 16.920726 
L 198.508919 15.323286 
L 198.854519 14.699624 
L 199.084919 14.549965 
L 199.315319 14.606918 
L 199.660919 15.06563 
L 200.006519 15.950272 
L 200.467319 17.744483 
L 201.043319 20.873021 
L 201.849719 26.628508 
L 203.001719 36.802334 
L 206.572919 69.971249 
L 207.724919 78.030157 
L 208.761719 83.673467 
L 209.683319 87.482354 
L 210.604919 90.305613 
L 211.411319 92.111865 
L 212.217719 93.435074 
L 213.139319 94.516953 
L 214.176119 95.383847 
L 216.019319 96.556781 
L 218.553719 98.239861 
L 221.433719 100.176756 
L 222.816119 100.837653 
L 224.083319 101.208301 
L 225.350519 101.349151 
L 226.732919 101.269377 
L 228.921719 100.864033 
L 230.995319 100.568058 
L 232.953719 100.543548 
L 237.100919 100.593884 
L 239.404919 100.309045 
L 242.054519 100.022653 
L 247.929719 99.633578 
L 250.233719 99.411856 
L 251.616119 99.504382 
L 252.998519 99.832996 
L 254.956919 100.573061 
L 257.376119 101.44088 
L 258.873719 101.745293 
L 260.256119 101.81396 
L 261.753719 101.652519 
L 263.827319 101.158405 
L 266.476919 100.56335 
L 269.241719 100.21661 
L 272.467319 99.849958 
L 272.467319 99.849958 
" clip-path="url(#pe48abea091)" style="fill: none; stroke: #1f77b4; stroke-width: 1.25; stroke-linecap: square"/>
   </g>
   <g id="line2d_2">
    <path d="M 124.665719 113.019062 
L 124.665719 11.019062 
" clip-path="url(#pe48abea091)" style="fill: none; stroke-dasharray: 3.7,1.6; stroke-dashoffset: 0; stroke: #d62728"/>
   </g>
   <g id="line2d_3">
    <path d="M 199.084919 113.019062 
L 199.084919 11.019062 
" clip-path="url(#pe48abea091)" style="fill: none; stroke-dasharray: 3.7,1.6; stroke-dashoffset: 0; stroke: #d62728"/>
   </g>
   <g id="patch_3">
    <path d="M 42.067319 113.019062 
L 42.067319 11.019062 
" style="fill: none; stroke: #000000; stroke-linejoin: miter; stroke-linecap: square"/>
   </g>
   <g id="patch_4">
    <path d="M 272.467319 113.019062 
L 272.467319 11.019062 
" style="fill: none; stroke: #000000; stroke-linejoin: miter; stroke-linecap: square"/>
   </g>
   <g id="patch_5">
    <path d="M 42.067319 113.019062 
L 272.467319 113.019062 
" style="fill: none; stroke: #000000; stroke-linejoin: miter; stroke-linecap: square"/>
   </g>
   <g id="patch_6">
    <path d="M 42.067319 11.019062 
L 272.467319 11.019062 
" style="fill: none; stroke: #000000; stroke-linejoin: miter; stroke-linecap: square"/>
   </g>
   <g id="matplotlib.axis_1">
    <g id="xtick_1">
     <g id="line2d_4">
      <defs>
       <path id="m2947f511fb" d="M 0 0 
L 0 4 
" style="stroke: #000000; stroke-width: 1.35"/>
      </defs>
      <g>
       <use xlink:href="#m2947f511fb" x="42.067319" y="113.019062" style="stroke: #000000; stroke-width: 1.35"/>
      </g>
     </g>
    </g>
    <g id="xtick_2">
     <g id="line2d_5">
      <g>
       <use xlink:href="#m2947f511fb" x="99.667319" y="113.019062" style="stroke: #000000; stroke-width: 1.35"/>
      </g>
     </g>
    </g>
    <g id="xtick_3">
     <g id="line2d_6">
      <g>
       <use xlink:href="#m2947f511fb" x="157.267319" y="113.019062" style="stroke: #000000; stroke-width: 1.35"/>
      </g>
     </g>
    </g>
    <g id="xtick_4">
     <g id="line2d_7">
      <g>
       <use xlink:href="#m2947f511fb" x="214.867319" y="113.019062" style="stroke: #000000; stroke-width: 1.35"/>
      </g>
     </g>
    </g>
    <g id="xtick_5">
     <g id="line2d_8">
      <g>
       <use xlink:href="#m2947f511fb" x="272.467319" y="113.019062" style="stroke: #000000; stroke-width: 1.35"/>
      </g>
     </g>
    </g>
    <g id="xtick_6">
     <g id="line2d_9">
      <defs>
       <path id="mc6ef2b314c" d="M 0 0 
L 0 2.5 
" style="stroke: #000000; stroke-width: 0.75"/>
      </defs>
      <g>
       <use xlink:href="#mc6ef2b314c" x="53.587319" y="113.019062" style="stroke: #000000; stroke-width: 0.75"/>
      </g>
     </g>
    </g>
    <g id="xtick_7">
     <g id="line2d_10">
      <g>
       <use xlink:href="#mc6ef2b314c" x="65.107319" y="113.019062" style="stroke: #000000; stroke-width: 0.75"/>
      </g>
     </g>
    </g>
    <g id="xtick_8">
     <g id="line2d_11">
      <g>
       <use xlink:href="#mc6ef2b314c" x="76.627319" y="113.019062" style="stroke: #000000; stroke-width: 0.75"/>
      </g>
     </g>
    </g>
    <g id="xtick_9">
     <g id="line2d_12">
      <g>
       <use xlink:href="#mc6ef2b314c" x="88.147319" y="113.019062" style="stroke: #000000; stroke-width: 0.75"/>
      </g>
     </g>
    </g>
    <g id="xtick_10">
     <g id="line2d_13">
      <g>
       <use xlink:href="#mc6ef2b314c" x="111.187319" y="113.019062" style="stroke: #000000; stroke-width: 0.75"/>
      </g>
     </g>
    </g>
    <g id="xtick_11">
     <g id="line2d_14">
      <g>
       <use xlink:href="#mc6ef2b314c" x="122.707319" y="113.019062" style="stroke: #000000; stroke-width: 0.75"/>
      </g>
     </g>
    </g>
    <g id="xtick_12">
     <g id="line2d_15">
      <g>
       <use xlink:href="#mc6ef2b314c" x="134.227319" y="113.019062" style="stroke: #000000; stroke-width: 0.75"/>
      </g>
     </g>
    </g>
    <g id="xtick_13">
     <g id="line2d_16">
      <g>
       <use xlink:href="#mc6ef2b314c" x="145.747319" y="113.019062" style="stroke: #000000; stroke-width: 0.75"/>
      </g>
     </g>
    </g>
    <g id="xtick_14">
     <g id="line2d_17">
      <g>
       <use xlink:href="#mc6ef2b314c" x="168.787319" y="113.019062" style="stroke: #000000; stroke-width: 0.75"/>
      </g>
     </g>
    </g>
    <g id="xtick_15">
     <g id="line2d_18">
      <g>
       <use xlink:href="#mc6ef2b314c" x="180.307319" y="113.019062" style="stroke: #000000; stroke-width: 0.75"/>
      </g>
     </g>
    </g>
    <g id="xtick_16">
     <g id="line2d_19">
      <g>
       <use xlink:href="#mc6ef2b314c" x="191.827319" y="113.019062" style="stroke: #000000; stroke-width: 0.75"/>
      </g>
     </g>
    </g>
    <g id="xtick_17">
     <g id="line2d_20">
      <g>
       <use xlink:href="#mc6ef2b314c" x="203.347319" y="113.019062" style="stroke: #000000; stroke-width: 0.75"/>
      </g>
     </g>
    </g>
    <g id="xtick_18">
     <g id="line2d_21">
      <g>
       <use xlink:href="#mc6ef2b314c" x="226.387319" y="113.019062" style="stroke: #000000; stroke-width: 0.75"/>
      </g>
     </g>
    </g>
    <g id="xtick_19">
     <g id="line2d_22">
      <g>
       <use xlink:href="#mc6ef2b314c" x="237.907319" y="113.019062" style="stroke: #000000; stroke-width: 0.75"/>
      </g>
     </g>
    </g>
    <g id="xtick_20">
     <g id="line2d_23">
      <g>
       <use xlink:href="#mc6ef2b314c" x="249.427319" y="113.019062" style="stroke: #000000; stroke-width: 0.75"/>
      </g>
     </g>
    </g>
    <g id="xtick_21">
     <g id="line2d_24">
      <g>
       <use xlink:href="#mc6ef2b314c" x="260.947319" y="113.019062" style="stroke: #000000; stroke-width: 0.75"/>
      </g>
     </g>
    </g>
   </g>
   <g id="matplotlib.axis_2">
    <g id="ytick_1">
     <g id="line2d_25">
      <defs>
       <path id="m84d63692ba" d="M 0 0 
L -4 0 
" style="stroke: #000000; stroke-width: 1.35"/>
      </defs>
      <g>
       <use xlink:href="#m84d63692ba" x="42.067319" y="113.019062" style="stroke: #000000; stroke-width: 1.35"/>
      </g>
     </g>
     <g id="text_1">
      <text style="font-size: 11px; font-family: 'Times New Roman'; text-anchor: end" x="34.567319" y="116.838125" transform="rotate(-0 34.567319 116.838125)">0</text>
     </g>
    </g>
    <g id="ytick_2">
     <g id="line2d_26">
      <g>
       <use xlink:href="#m84d63692ba" x="42.067319" y="87.519062" style="stroke: #000000; stroke-width: 1.35"/>
      </g>
     </g>
     <g id="text_2">
      <text style="font-size: 11px; font-family: 'Times New Roman'; text-anchor: end" x="34.567319" y="91.338125" transform="rotate(-0 34.567319 91.338125)">20</text>
     </g>
    </g>
    <g id="ytick_3">
     <g id="line2d_27">
      <g>
       <use xlink:href="#m84d63692ba" x="42.067319" y="62.019062" style="stroke: #000000; stroke-width: 1.35"/>
      </g>
     </g>
     <g id="text_3">
      <text style="font-size: 11px; font-family: 'Times New Roman'; text-anchor: end" x="34.567319" y="65.838125" transform="rotate(-0 34.567319 65.838125)">40</text>
     </g>
    </g>
    <g id="ytick_4">
     <g id="line2d_28">
      <g>
       <use xlink:href="#m84d63692ba" x="42.067319" y="36.519062" style="stroke: #000000; stroke-width: 1.35"/>
      </g>
     </g>
     <g id="text_4">
      <text style="font-size: 11px; font-family: 'Times New Roman'; text-anchor: end" x="34.567319" y="40.338125" transform="rotate(-0 34.567319 40.338125)">60</text>
     </g>
    </g>
    <g id="ytick_5">
     <g id="line2d_29">
      <g>
       <use xlink:href="#m84d63692ba" x="42.067319" y="11.019062" style="stroke: #000000; stroke-width: 1.35"/>
      </g>
     </g>
     <g id="text_5">
      <text style="font-size: 11px; font-family: 'Times New Roman'; text-anchor: end" x="34.567319" y="14.838125" transform="rotate(-0 34.567319 14.838125)">80</text>
     </g>
    </g>
    <g id="ytick_6">
     <g id="line2d_30">
      <defs>
       <path id="m605fdcf3e9" d="M 0 0 
L -2.5 0 
" style="stroke: #000000; stroke-width: 0.75"/>
      </defs>
      <g>
       <use xlink:href="#m605fdcf3e9" x="42.067319" y="106.644062" style="stroke: #000000; stroke-width: 0.75"/>
      </g>
     </g>
    </g>
    <g id="ytick_7">
     <g id="line2d_31">
      <g>
       <use xlink:href="#m605fdcf3e9" x="42.067319" y="100.269062" style="stroke: #000000; stroke-width: 0.75"/>
      </g>
     </g>
    </g>
    <g id="ytick_8">
     <g id="line2d_32">
      <g>
       <use xlink:href="#m605fdcf3e9" x="42.067319" y="93.894062" style="stroke: #000000; stroke-width: 0.75"/>
      </g>
     </g>
    </g>
    <g id="ytick_9">
     <g id="line2d_33">
      <g>
       <use xlink:href="#m605fdcf3e9" x="42.067319" y="81.144062" style="stroke: #000000; stroke-width: 0.75"/>
      </g>
     </g>
    </g>
    <g id="ytick_10">
     <g id="line2d_34">
      <g>
       <use xlink:href="#m605fdcf3e9" x="42.067319" y="74.769062" style="stroke: #000000; stroke-width: 0.75"/>
      </g>
     </g>
    </g>
    <g id="ytick_11">
     <g id="line2d_35">
      <g>
       <use xlink:href="#m605fdcf3e9" x="42.067319" y="68.394062" style="stroke: #000000; stroke-width: 0.75"/>
      </g>
     </g>
    </g>
    <g id="ytick_12">
     <g id="line2d_36">
      <g>
       <use xlink:href="#m605fdcf3e9" x="42.067319" y="55.644062" style="stroke: #000000; stroke-width: 0.75"/>
      </g>
     </g>
    </g>
    <g id="ytick_13">
     <g id="line2d_37">
      <g>
       <use xlink:href="#m605fdcf3e9" x="42.067319" y="49.269062" style="stroke: #000000; stroke-width: 0.75"/>
      </g>
     </g>
    </g>
    <g id="ytick_14">
     <g id="line2d_38">
      <g>
       <use xlink:href="#m605fdcf3e9" x="42.067319" y="42.894062" style="stroke: #000000; stroke-width: 0.75"/>
      </g>
     </g>
    </g>
    <g id="ytick_15">
     <g id="line2d_39">
      <g>
       <use xlink:href="#m605fdcf3e9" x="42.067319" y="30.144062" style="stroke: #000000; stroke-width: 0.75"/>
      </g>
     </g>
    </g>
    <g id="ytick_16">
     <g id="line2d_40">
      <g>
       <use xlink:href="#m605fdcf3e9" x="42.067319" y="23.769062" style="stroke: #000000; stroke-width: 0.75"/>
      </g>
     </g>
    </g>
    <g id="ytick_17">
     <g id="line2d_41">
      <g>
       <use xlink:href="#m605fdcf3e9" x="42.067319" y="17.394062" style="stroke: #000000; stroke-width: 0.75"/>
      </g>
     </g>
    </g>
    <g id="text_6">
     <!-- $\Gamma_{\mathrm{B}}$ ($\times 10^{20}$ atoms/s) -->
     <g transform="translate(16.979124 109.454127) rotate(-90) scale(0.12 -0.12)">
      <defs>
       <path id="StandardSymL-47" d="M 1389 4032 
L 2835 4032 
C 3398 4032 3648 3815 3731 3260 
L 3898 3260 
L 3834 4294 
L 154 4294 
L 154 4128 
L 173 4128 
C 384 4128 557 4051 646 3929 
C 717 3821 736 3719 736 3387 
L 736 906 
C 736 574 717 472 646 364 
C 557 242 384 166 173 166 
L 154 166 
L 154 0 
L 2080 0 
L 2080 166 
L 2016 166 
C 1779 166 1568 242 1478 364 
C 1408 466 1389 568 1389 906 
L 1389 4032 
z
" transform="scale(0.015625)"/>
       <path id="NimbusRomNo9L-Regu-42" d="M 109 4224 
L 109 4102 
C 646 4070 723 4000 723 3528 
L 723 695 
C 723 223 640 140 109 121 
L 109 0 
L 2246 0 
C 2746 0 3200 134 3437 351 
C 3667 555 3795 842 3795 1148 
C 3795 1429 3680 1684 3482 1869 
C 3290 2041 3117 2118 2701 2220 
C 3034 2303 3168 2367 3322 2500 
C 3482 2641 3578 2877 3578 3138 
C 3578 3853 3008 4224 1901 4224 
L 109 4224 
z
M 1376 2080 
C 1997 2080 2291 2048 2522 1952 
C 2886 1799 3059 1544 3059 1142 
C 3059 798 2925 549 2669 402 
C 2464 287 2202 236 1779 236 
C 1466 236 1376 294 1376 498 
L 1376 2080 
z
M 1376 2335 
L 1376 3795 
C 1376 3929 1421 3987 1517 3987 
L 1798 3987 
C 2534 3987 2925 3680 2925 3113 
C 2925 2615 2586 2335 1984 2335 
L 1376 2335 
z
" transform="scale(0.015625)"/>
       <path id="NimbusRomNo9L-Regu-28" d="M 1888 4352 
C 1414 4044 1222 3878 986 3583 
C 531 3027 307 2387 307 1638 
C 307 825 544 198 1107 -455 
C 1370 -762 1536 -903 1869 -1108 
L 1946 -1006 
C 1434 -602 1254 -378 1082 102 
C 928 530 858 1017 858 1657 
C 858 2329 941 2854 1114 3251 
C 1293 3647 1485 3878 1946 4249 
L 1888 4352 
z
" transform="scale(0.015625)"/>
       <path id="CMSY10-2" d="M 2490 1775 
L 1210 3046 
C 1133 3123 1120 3136 1069 3136 
C 1005 3136 941 3078 941 3008 
C 941 2963 954 2950 1024 2880 
L 2304 1596 
L 1024 313 
C 954 243 941 230 941 185 
C 941 115 1005 57 1069 57 
C 1120 57 1133 70 1210 147 
L 2483 1418 
L 3808 95 
C 3821 89 3866 57 3904 57 
C 3981 57 4032 115 4032 185 
C 4032 198 4032 223 4013 255 
C 4006 268 2989 1271 2669 1596 
L 3840 2765 
C 3872 2803 3968 2886 4000 2925 
C 4006 2937 4032 2963 4032 3008 
C 4032 3078 3981 3136 3904 3136 
C 3853 3136 3827 3110 3757 3040 
L 2490 1775 
z
" transform="scale(0.015625)"/>
       <path id="NimbusRomNo9L-Regu-31" d="M 1862 4352 
L 710 3776 
L 710 3686 
C 787 3718 858 3743 883 3756 
C 998 3801 1107 3826 1171 3826 
C 1306 3826 1363 3731 1363 3525 
L 1363 599 
C 1363 386 1312 238 1210 179 
C 1114 121 1024 102 755 96 
L 755 0 
L 2522 0 
L 2522 96 
C 2016 102 1914 167 1914 477 
L 1914 4339 
L 1862 4352 
z
" transform="scale(0.015625)"/>
       <path id="NimbusRomNo9L-Regu-30" d="M 1626 4352 
C 1274 4352 1005 4243 768 4019 
C 397 3661 154 2924 154 2176 
C 154 1478 365 729 666 371 
C 902 89 1229 -64 1600 -64 
C 1926 -64 2202 44 2432 268 
C 2803 620 3046 1363 3046 2137 
C 3046 3449 2464 4352 1626 4352 
z
M 1606 4185 
C 2144 4185 2432 3462 2432 2124 
C 2432 787 2150 102 1600 102 
C 1050 102 768 787 768 2118 
C 768 3475 1056 4185 1606 4185 
z
" transform="scale(0.015625)"/>
       <path id="NimbusRomNo9L-Regu-32" d="M 3040 879 
L 2957 912 
C 2720 544 2637 486 2349 486 
L 819 486 
L 1894 1621 
C 2464 2221 2714 2711 2714 3214 
C 2714 3858 2195 4352 1530 4352 
C 1178 4352 845 4211 608 3955 
C 403 3736 307 3530 198 3072 
L 333 3039 
C 589 3671 819 3878 1261 3878 
C 1798 3878 2163 3510 2163 2969 
C 2163 2466 1869 1866 1331 1292 
L 192 76 
L 192 0 
L 2688 0 
L 3040 879 
z
" transform="scale(0.015625)"/>
       <path id="NimbusRomNo9L-Regu-61" d="M 2829 422 
C 2720 332 2643 300 2547 300 
C 2400 300 2355 390 2355 672 
L 2355 1920 
C 2355 2252 2323 2438 2227 2592 
C 2086 2822 1811 2944 1434 2944 
C 832 2944 358 2630 358 2227 
C 358 2080 486 1952 634 1952 
C 787 1952 922 2080 922 2220 
C 922 2246 915 2278 909 2323 
C 896 2380 890 2432 890 2476 
C 890 2649 1094 2790 1350 2790 
C 1664 2790 1837 2604 1837 2259 
L 1837 1868 
C 851 1472 742 1420 467 1177 
C 326 1049 237 832 237 620 
C 237 217 518 -64 909 -64 
C 1190 -64 1453 70 1843 403 
C 1875 70 1990 -64 2253 -64 
C 2470 -64 2605 12 2829 256 
L 2829 422 
z
M 1837 787 
C 1837 588 1805 531 1670 454 
C 1517 364 1338 307 1203 307 
C 979 307 800 524 800 800 
L 800 825 
C 800 1203 1062 1433 1837 1715 
L 1837 787 
z
" transform="scale(0.015625)"/>
       <path id="NimbusRomNo9L-Regu-74" d="M 1632 2880 
L 986 2880 
L 986 3622 
C 986 3686 979 3705 941 3705 
C 896 3648 858 3590 813 3526 
C 570 3174 294 2867 192 2841 
C 122 2796 83 2751 83 2719 
C 83 2700 90 2687 109 2675 
L 448 2675 
L 448 748 
C 448 211 640 -64 1018 -64 
C 1331 -64 1574 89 1786 422 
L 1702 492 
C 1568 332 1459 268 1318 268 
C 1082 268 986 441 986 844 
L 986 2675 
L 1632 2675 
L 1632 2880 
z
" transform="scale(0.015625)"/>
       <path id="NimbusRomNo9L-Regu-6f" d="M 1600 2944 
C 768 2944 186 2329 186 1446 
C 186 582 781 -64 1587 -64 
C 2394 -64 3008 614 3008 1497 
C 3008 2336 2419 2944 1600 2944 
z
M 1517 2764 
C 2054 2764 2432 2150 2432 1273 
C 2432 550 2144 115 1664 115 
C 1414 115 1178 268 1043 524 
C 864 857 762 1305 762 1760 
C 762 2368 1062 2764 1517 2764 
z
" transform="scale(0.015625)"/>
       <path id="NimbusRomNo9L-Regu-6d" d="M 122 2547 
C 205 2566 256 2572 326 2572 
C 493 2572 550 2470 550 2163 
L 550 544 
C 550 198 461 102 102 96 
L 102 0 
L 1523 0 
L 1523 96 
C 1184 108 1088 179 1088 428 
L 1088 2233 
C 1088 2246 1139 2310 1184 2355 
C 1344 2502 1619 2611 1843 2611 
C 2125 2611 2266 2387 2266 1939 
L 2266 550 
C 2266 192 2195 121 1830 96 
L 1830 0 
L 3264 0 
L 3264 96 
C 2899 102 2803 211 2803 608 
L 2803 2220 
C 2995 2496 3206 2611 3501 2611 
C 3866 2611 3981 2438 3981 1907 
L 3981 556 
C 3981 192 3930 140 3558 96 
L 3558 0 
L 4960 0 
L 4960 96 
L 4794 108 
C 4602 121 4518 236 4518 486 
L 4518 1804 
C 4518 2560 4269 2944 3776 2944 
C 3405 2944 3078 2777 2733 2406 
C 2618 2771 2400 2944 2054 2944 
C 1773 2944 1594 2854 1062 2451 
L 1062 2931 
L 1018 2944 
C 691 2822 474 2751 122 2655 
L 122 2547 
z
" transform="scale(0.015625)"/>
       <path id="NimbusRomNo9L-Regu-73" d="M 2016 2009 
L 1990 2880 
L 1920 2880 
L 1907 2867 
C 1850 2822 1843 2815 1818 2815 
C 1779 2815 1715 2828 1645 2860 
C 1504 2918 1363 2944 1197 2944 
C 691 2944 326 2617 326 2155 
C 326 1796 531 1539 1075 1231 
L 1446 1019 
C 1670 891 1779 737 1779 538 
C 1779 256 1574 76 1248 76 
C 1030 76 832 160 710 301 
C 576 461 518 609 435 974 
L 333 974 
L 333 -26 
L 416 -26 
C 461 38 486 51 563 51 
C 621 51 710 38 858 0 
C 1037 -39 1210 -64 1325 -64 
C 1818 -64 2227 307 2227 756 
C 2227 1077 2074 1289 1690 1520 
L 998 1930 
C 819 2033 723 2193 723 2366 
C 723 2623 922 2803 1216 2803 
C 1581 2803 1773 2585 1920 2014 
L 2016 2009 
z
" transform="scale(0.015625)"/>
       <path id="NimbusRomNo9L-Regu-2f" d="M 1837 4352 
L 1408 4352 
L -58 -64 
L 378 -64 
L 1837 4352 
z
" transform="scale(0.015625)"/>
       <path id="NimbusRomNo9L-Regu-29" d="M 243 -1108 
C 717 -801 909 -634 1146 -340 
C 1600 217 1824 857 1824 1606 
C 1824 2425 1587 3046 1024 3699 
C 762 4006 595 4147 262 4352 
L 186 4249 
C 698 3846 870 3622 1050 3142 
C 1203 2713 1274 2227 1274 1587 
C 1274 921 1190 390 1018 -1 
C 838 -404 646 -634 186 -1006 
L 243 -1108 
z
" transform="scale(0.015625)"/>
      </defs>
      <use xlink:href="#StandardSymL-47" transform="scale(0.996264)"/>
      <use xlink:href="#NimbusRomNo9L-Regu-42" transform="translate(60.073735 -15.050129) scale(0.737241)"/>
      <use xlink:href="#NimbusRomNo9L-Regu-28" transform="translate(134.651855 0) scale(0.996264)"/>
      <use xlink:href="#CMSY10-2" transform="translate(167.827085 0) scale(0.996264)"/>
      <use xlink:href="#NimbusRomNo9L-Regu-31" transform="translate(245.235792 0) scale(0.996264)"/>
      <use xlink:href="#NimbusRomNo9L-Regu-30" transform="translate(295.048992 0) scale(0.996264)"/>
      <use xlink:href="#NimbusRomNo9L-Regu-32" transform="translate(344.862193 36.163231) scale(0.737241)"/>
      <use xlink:href="#NimbusRomNo9L-Regu-30" transform="translate(381.724235 36.163231) scale(0.737241)"/>
      <use xlink:href="#NimbusRomNo9L-Regu-61" transform="translate(443.991009 0) scale(0.996264)"/>
      <use xlink:href="#NimbusRomNo9L-Regu-74" transform="translate(488.224578 0) scale(0.996264)"/>
      <use xlink:href="#NimbusRomNo9L-Regu-6f" transform="translate(515.919747 0) scale(0.996264)"/>
      <use xlink:href="#NimbusRomNo9L-Regu-6d" transform="translate(565.732948 0) scale(0.996264)"/>
      <use xlink:href="#NimbusRomNo9L-Regu-73" transform="translate(643.241318 0) scale(0.996264)"/>
      <use xlink:href="#NimbusRomNo9L-Regu-2f" transform="translate(681.995024 0) scale(0.996264)"/>
      <use xlink:href="#NimbusRomNo9L-Regu-73" transform="translate(709.690194 0) scale(0.996264)"/>
      <use xlink:href="#NimbusRomNo9L-Regu-29" transform="translate(748.4439 0) scale(0.996264)"/>
     </g>
    </g>
   </g>
   <g id="legend_1">
    <g id="patch_7">
     <path d="M 46.467319 32.072031 
L 139.327944 32.072031 
Q 141.527944 32.072031 141.527944 29.872031 
L 141.527944 15.419062 
Q 141.527944 13.219062 139.327944 13.219062 
L 46.467319 13.219062 
Q 44.267319 13.219062 44.267319 15.419062 
L 44.267319 29.872031 
Q 44.267319 32.072031 46.467319 32.072031 
z
" style="fill: #ffffff; opacity: 0.8; stroke: #cccccc; stroke-linejoin: miter"/>
    </g>
    <g id="line2d_42">
     <path d="M 48.667319 21.469062 
L 59.667319 21.469062 
L 70.667319 21.469062 
" style="fill: none; stroke: #1f77b4; stroke-width: 1.25; stroke-linecap: square"/>
    </g>
    <g id="text_7">
     <text style="font-size: 11px; font-family: 'Times New Roman'; text-anchor: start" x="72.867319" y="25.319062" transform="rotate(-0 72.867319 25.319062)">Pebbles + dust</text>
    </g>
   </g>
  </g>
  <g id="axes_2">
   <g id="patch_8">
    <path d="M 42.067319 215.019062 
L 272.467319 215.019062 
L 272.467319 113.019062 
L 42.067319 113.019062 
z
" style="fill: #ffffff"/>
   </g>
   <g id="line2d_43">
    <path d="M 42.067434 214.493205 
L 49.580478 214.51517 
L 55.841347 214.373267 
L 63.354391 214.548953 
L 68.363086 214.403046 
L 73.371782 214.551825 
L 88.397869 214.556245 
L 92.154391 214.603157 
L 94.658738 214.4421 
L 98.41526 214.495122 
L 104.67613 214.618536 
L 107.180478 214.392519 
L 115.945695 213.032389 
L 117.197869 212.209607 
L 118.450043 210.310903 
L 119.702217 207.65387 
L 120.954391 204.385821 
L 122.206564 201.505767 
L 123.458738 199.291967 
L 124.710912 194.601283 
L 125.963086 184.0802 
L 128.467434 147.210183 
L 129.719608 142.677043 
L 130.971782 152.367309 
L 133.47613 186.134914 
L 134.728304 200.371466 
L 135.980478 209.493684 
L 137.232651 213.827958 
L 138.484825 215.131462 
L 139.736999 215.156616 
L 142.241347 214.823125 
L 145.997869 214.937162 
L 152.258738 214.98203 
L 179.806564 214.999641 
L 183.563086 214.954704 
L 184.81526 215.079561 
L 186.067434 215.433388 
L 187.319608 215.907365 
L 188.571782 215.735448 
L 189.823956 212.992215 
L 191.07613 204.886361 
L 192.328304 190.217027 
L 193.580478 173.751306 
L 194.832651 166.211075 
L 196.084825 169.749909 
L 197.336999 174.559098 
L 198.589173 176.222824 
L 199.841347 176.852883 
L 201.093521 184.522836 
L 202.345695 196.059445 
L 203.597869 204.713707 
L 204.850043 209.362893 
L 206.102217 211.425894 
L 207.354391 212.319883 
L 208.606564 212.765226 
L 209.858738 213.008083 
L 211.110912 212.835137 
L 212.363086 212.438399 
L 213.61526 212.496619 
L 217.371782 213.719603 
L 219.87613 214.062335 
L 226.136999 214.322323 
L 228.641347 213.996509 
L 232.397869 214.050867 
L 236.154391 214.293411 
L 239.910912 214.0132 
L 249.928304 213.898095 
L 252.432651 213.943401 
L 254.936999 214.125415 
L 259.945695 214.134146 
L 261.197869 214.340368 
L 262.450043 214.37874 
L 271.21526 213.763391 
L 271.21526 213.763391 
" clip-path="url(#p3df9313c54)" style="fill: none; stroke: #ff7f0e; stroke-width: 1.25; stroke-linecap: square"/>
   </g>
   <g id="line2d_44">
    <path d="M 124.665719 215.019062 
L 124.665719 113.019062 
" clip-path="url(#p3df9313c54)" style="fill: none; stroke-dasharray: 3.7,1.6; stroke-dashoffset: 0; stroke: #d62728"/>
   </g>
   <g id="line2d_45">
    <path d="M 199.084919 215.019062 
L 199.084919 113.019062 
" clip-path="url(#p3df9313c54)" style="fill: none; stroke-dasharray: 3.7,1.6; stroke-dashoffset: 0; stroke: #d62728"/>
   </g>
   <g id="line2d_46">
    <path d="M 42.067319 216.355471 
L 49.454894 215.688701 
L 54.533852 215.48127 
L 60.536257 215.4798 
L 75.77313 215.53769 
L 79.928641 215.159213 
L 85.007599 214.44415 
L 88.239664 214.054165 
L 90.548281 214.01868 
L 92.856898 214.220076 
L 97.474132 214.917064 
L 101.629643 215.454849 
L 104.399984 215.58082 
L 106.708601 215.484964 
L 108.555495 215.221948 
L 109.940666 214.833778 
L 111.325836 214.211643 
L 112.711006 213.292455 
L 114.096177 212.002884 
L 115.019623 210.891203 
L 116.404794 208.77457 
L 117.789964 206.035973 
L 119.175134 202.617658 
L 120.560305 198.501694 
L 121.945475 193.677518 
L 123.330645 188.136993 
L 125.177539 179.775737 
L 130.718221 153.733111 
L 132.565114 146.548142 
L 133.950285 141.970793 
L 135.335455 138.195992 
L 136.258902 136.167615 
L 137.182349 134.550694 
L 138.105796 133.360387 
L 139.029243 132.611849 
L 139.95269 132.320235 
L 140.414413 132.349969 
L 141.33786 132.755502 
L 142.261307 133.600968 
L 143.184754 134.847663 
L 144.108201 136.455042 
L 145.493371 139.453709 
L 146.878541 143.036874 
L 148.725435 148.487422 
L 155.651287 169.890878 
L 157.498181 174.686998 
L 159.345074 178.825074 
L 161.191968 182.303432 
L 163.038862 185.183443 
L 164.885756 187.538961 
L 166.73265 189.481736 
L 169.041267 191.510037 
L 171.811607 193.606847 
L 174.581948 195.441455 
L 177.352289 197.040294 
L 179.199183 197.905753 
L 181.046076 198.518323 
L 182.431247 198.751483 
L 183.816417 198.72794 
L 184.739864 198.540662 
L 185.663311 198.195833 
L 186.586758 197.676113 
L 187.510205 196.965026 
L 188.433652 196.051693 
L 189.818822 194.296517 
L 191.203992 192.072835 
L 192.589163 189.375009 
L 193.974333 186.228178 
L 195.821227 181.494276 
L 201.823631 165.356343 
L 203.208802 162.505767 
L 204.132249 161.010661 
L 205.055696 159.881149 
L 205.979142 159.121666 
L 206.902589 158.722869 
L 207.826036 158.675067 
L 208.749483 158.968567 
L 209.67293 159.593013 
L 210.596377 160.528428 
L 211.519824 161.742798 
L 212.904994 164.001366 
L 214.751888 167.619656 
L 217.522229 173.74403 
L 222.601187 185.130975 
L 224.909804 189.725282 
L 226.756698 192.977735 
L 228.603591 195.780239 
L 230.450485 198.135743 
L 232.297379 200.107959 
L 234.144273 201.757244 
L 235.991167 203.116798 
L 237.83806 204.203168 
L 239.684954 205.040031 
L 241.993571 205.826487 
L 245.687359 206.787804 
L 250.304593 207.764307 
L 253.998381 208.344204 
L 256.768722 208.55529 
L 262.309403 208.657111 
L 268.773531 208.724665 
L 272.467319 208.62753 
L 272.467319 208.62753 
" clip-path="url(#p3df9313c54)" style="fill: none; stroke: #9467bd; stroke-width: 1.25; stroke-linecap: square"/>
   </g>
   <g id="patch_9">
    <path d="M 42.067319 215.019062 
L 42.067319 113.019062 
" style="fill: none; stroke: #000000; stroke-linejoin: miter; stroke-linecap: square"/>
   </g>
   <g id="patch_10">
    <path d="M 272.467319 215.019062 
L 272.467319 113.019062 
" style="fill: none; stroke: #000000; stroke-linejoin: miter; stroke-linecap: square"/>
   </g>
   <g id="patch_11">
    <path d="M 42.067319 215.019062 
L 272.467319 215.019062 
" style="fill: none; stroke: #000000; stroke-linejoin: miter; stroke-linecap: square"/>
   </g>
   <g id="patch_12">
    <path d="M 42.067319 113.019062 
L 272.467319 113.019062 
" style="fill: none; stroke: #000000; stroke-linejoin: miter; stroke-linecap: square"/>
   </g>
   <g id="matplotlib.axis_3">
    <g id="xtick_22">
     <g id="line2d_47">
      <g>
       <use xlink:href="#m2947f511fb" x="42.067319" y="215.019062" style="stroke: #000000; stroke-width: 1.35"/>
      </g>
     </g>
    </g>
    <g id="xtick_23">
     <g id="line2d_48">
      <g>
       <use xlink:href="#m2947f511fb" x="99.667319" y="215.019062" style="stroke: #000000; stroke-width: 1.35"/>
      </g>
     </g>
    </g>
    <g id="xtick_24">
     <g id="line2d_49">
      <g>
       <use xlink:href="#m2947f511fb" x="157.267319" y="215.019062" style="stroke: #000000; stroke-width: 1.35"/>
      </g>
     </g>
    </g>
    <g id="xtick_25">
     <g id="line2d_50">
      <g>
       <use xlink:href="#m2947f511fb" x="214.867319" y="215.019062" style="stroke: #000000; stroke-width: 1.35"/>
      </g>
     </g>
    </g>
    <g id="xtick_26">
     <g id="line2d_51">
      <g>
       <use xlink:href="#m2947f511fb" x="272.467319" y="215.019062" style="stroke: #000000; stroke-width: 1.35"/>
      </g>
     </g>
    </g>
    <g id="xtick_27">
     <g id="line2d_52">
      <g>
       <use xlink:href="#mc6ef2b314c" x="53.587319" y="215.019062" style="stroke: #000000; stroke-width: 0.75"/>
      </g>
     </g>
    </g>
    <g id="xtick_28">
     <g id="line2d_53">
      <g>
       <use xlink:href="#mc6ef2b314c" x="65.107319" y="215.019062" style="stroke: #000000; stroke-width: 0.75"/>
      </g>
     </g>
    </g>
    <g id="xtick_29">
     <g id="line2d_54">
      <g>
       <use xlink:href="#mc6ef2b314c" x="76.627319" y="215.019062" style="stroke: #000000; stroke-width: 0.75"/>
      </g>
     </g>
    </g>
    <g id="xtick_30">
     <g id="line2d_55">
      <g>
       <use xlink:href="#mc6ef2b314c" x="88.147319" y="215.019062" style="stroke: #000000; stroke-width: 0.75"/>
      </g>
     </g>
    </g>
    <g id="xtick_31">
     <g id="line2d_56">
      <g>
       <use xlink:href="#mc6ef2b314c" x="111.187319" y="215.019062" style="stroke: #000000; stroke-width: 0.75"/>
      </g>
     </g>
    </g>
    <g id="xtick_32">
     <g id="line2d_57">
      <g>
       <use xlink:href="#mc6ef2b314c" x="122.707319" y="215.019062" style="stroke: #000000; stroke-width: 0.75"/>
      </g>
     </g>
    </g>
    <g id="xtick_33">
     <g id="line2d_58">
      <g>
       <use xlink:href="#mc6ef2b314c" x="134.227319" y="215.019062" style="stroke: #000000; stroke-width: 0.75"/>
      </g>
     </g>
    </g>
    <g id="xtick_34">
     <g id="line2d_59">
      <g>
       <use xlink:href="#mc6ef2b314c" x="145.747319" y="215.019062" style="stroke: #000000; stroke-width: 0.75"/>
      </g>
     </g>
    </g>
    <g id="xtick_35">
     <g id="line2d_60">
      <g>
       <use xlink:href="#mc6ef2b314c" x="168.787319" y="215.019062" style="stroke: #000000; stroke-width: 0.75"/>
      </g>
     </g>
    </g>
    <g id="xtick_36">
     <g id="line2d_61">
      <g>
       <use xlink:href="#mc6ef2b314c" x="180.307319" y="215.019062" style="stroke: #000000; stroke-width: 0.75"/>
      </g>
     </g>
    </g>
    <g id="xtick_37">
     <g id="line2d_62">
      <g>
       <use xlink:href="#mc6ef2b314c" x="191.827319" y="215.019062" style="stroke: #000000; stroke-width: 0.75"/>
      </g>
     </g>
    </g>
    <g id="xtick_38">
     <g id="line2d_63">
      <g>
       <use xlink:href="#mc6ef2b314c" x="203.347319" y="215.019062" style="stroke: #000000; stroke-width: 0.75"/>
      </g>
     </g>
    </g>
    <g id="xtick_39">
     <g id="line2d_64">
      <g>
       <use xlink:href="#mc6ef2b314c" x="226.387319" y="215.019062" style="stroke: #000000; stroke-width: 0.75"/>
      </g>
     </g>
    </g>
    <g id="xtick_40">
     <g id="line2d_65">
      <g>
       <use xlink:href="#mc6ef2b314c" x="237.907319" y="215.019062" style="stroke: #000000; stroke-width: 0.75"/>
      </g>
     </g>
    </g>
    <g id="xtick_41">
     <g id="line2d_66">
      <g>
       <use xlink:href="#mc6ef2b314c" x="249.427319" y="215.019062" style="stroke: #000000; stroke-width: 0.75"/>
      </g>
     </g>
    </g>
    <g id="xtick_42">
     <g id="line2d_67">
      <g>
       <use xlink:href="#mc6ef2b314c" x="260.947319" y="215.019062" style="stroke: #000000; stroke-width: 0.75"/>
      </g>
     </g>
    </g>
   </g>
   <g id="matplotlib.axis_4">
    <g id="ytick_18">
     <g id="line2d_68">
      <g>
       <use xlink:href="#m84d63692ba" x="42.067319" y="215.019062" style="stroke: #000000; stroke-width: 1.35"/>
      </g>
     </g>
     <g id="text_8">
      <text style="font-size: 11px; font-family: 'Times New Roman'; text-anchor: end" x="34.567319" y="218.838125" transform="rotate(-0 34.567319 218.838125)">0</text>
     </g>
    </g>
    <g id="ytick_19">
     <g id="line2d_69">
      <g>
       <use xlink:href="#m84d63692ba" x="42.067319" y="186.685729" style="stroke: #000000; stroke-width: 1.35"/>
      </g>
     </g>
     <g id="text_9">
      <text style="font-size: 11px; font-family: 'Times New Roman'; text-anchor: end" x="34.567319" y="190.504792" transform="rotate(-0 34.567319 190.504792)">1</text>
     </g>
    </g>
    <g id="ytick_20">
     <g id="line2d_70">
      <g>
       <use xlink:href="#m84d63692ba" x="42.067319" y="158.352396" style="stroke: #000000; stroke-width: 1.35"/>
      </g>
     </g>
     <g id="text_10">
      <text style="font-size: 11px; font-family: 'Times New Roman'; text-anchor: end" x="34.567319" y="162.171458" transform="rotate(-0 34.567319 162.171458)">2</text>
     </g>
    </g>
    <g id="ytick_21">
     <g id="line2d_71">
      <g>
       <use xlink:href="#m84d63692ba" x="42.067319" y="130.019062" style="stroke: #000000; stroke-width: 1.35"/>
      </g>
     </g>
     <g id="text_11">
      <text style="font-size: 11px; font-family: 'Times New Roman'; text-anchor: end" x="34.567319" y="133.838125" transform="rotate(-0 34.567319 133.838125)">3</text>
     </g>
    </g>
    <g id="ytick_22">
     <g id="line2d_72">
      <g>
       <use xlink:href="#m605fdcf3e9" x="42.067319" y="209.352396" style="stroke: #000000; stroke-width: 0.75"/>
      </g>
     </g>
    </g>
    <g id="ytick_23">
     <g id="line2d_73">
      <g>
       <use xlink:href="#m605fdcf3e9" x="42.067319" y="203.685729" style="stroke: #000000; stroke-width: 0.75"/>
      </g>
     </g>
    </g>
    <g id="ytick_24">
     <g id="line2d_74">
      <g>
       <use xlink:href="#m605fdcf3e9" x="42.067319" y="198.019062" style="stroke: #000000; stroke-width: 0.75"/>
      </g>
     </g>
    </g>
    <g id="ytick_25">
     <g id="line2d_75">
      <g>
       <use xlink:href="#m605fdcf3e9" x="42.067319" y="192.352396" style="stroke: #000000; stroke-width: 0.75"/>
      </g>
     </g>
    </g>
    <g id="ytick_26">
     <g id="line2d_76">
      <g>
       <use xlink:href="#m605fdcf3e9" x="42.067319" y="181.019062" style="stroke: #000000; stroke-width: 0.75"/>
      </g>
     </g>
    </g>
    <g id="ytick_27">
     <g id="line2d_77">
      <g>
       <use xlink:href="#m605fdcf3e9" x="42.067319" y="175.352396" style="stroke: #000000; stroke-width: 0.75"/>
      </g>
     </g>
    </g>
    <g id="ytick_28">
     <g id="line2d_78">
      <g>
       <use xlink:href="#m605fdcf3e9" x="42.067319" y="169.685729" style="stroke: #000000; stroke-width: 0.75"/>
      </g>
     </g>
    </g>
    <g id="ytick_29">
     <g id="line2d_79">
      <g>
       <use xlink:href="#m605fdcf3e9" x="42.067319" y="164.019062" style="stroke: #000000; stroke-width: 0.75"/>
      </g>
     </g>
    </g>
    <g id="ytick_30">
     <g id="line2d_80">
      <g>
       <use xlink:href="#m605fdcf3e9" x="42.067319" y="152.685729" style="stroke: #000000; stroke-width: 0.75"/>
      </g>
     </g>
    </g>
    <g id="ytick_31">
     <g id="line2d_81">
      <g>
       <use xlink:href="#m605fdcf3e9" x="42.067319" y="147.019062" style="stroke: #000000; stroke-width: 0.75"/>
      </g>
     </g>
    </g>
    <g id="ytick_32">
     <g id="line2d_82">
      <g>
       <use xlink:href="#m605fdcf3e9" x="42.067319" y="141.352396" style="stroke: #000000; stroke-width: 0.75"/>
      </g>
     </g>
    </g>
    <g id="ytick_33">
     <g id="line2d_83">
      <g>
       <use xlink:href="#m605fdcf3e9" x="42.067319" y="135.685729" style="stroke: #000000; stroke-width: 0.75"/>
      </g>
     </g>
    </g>
    <g id="ytick_34">
     <g id="line2d_84">
      <g>
       <use xlink:href="#m605fdcf3e9" x="42.067319" y="124.352396" style="stroke: #000000; stroke-width: 0.75"/>
      </g>
     </g>
    </g>
    <g id="ytick_35">
     <g id="line2d_85">
      <g>
       <use xlink:href="#m605fdcf3e9" x="42.067319" y="118.685729" style="stroke: #000000; stroke-width: 0.75"/>
      </g>
     </g>
    </g>
    <g id="ytick_36">
     <g id="line2d_86">
      <g>
       <use xlink:href="#m605fdcf3e9" x="42.067319" y="113.019062" style="stroke: #000000; stroke-width: 0.75"/>
      </g>
     </g>
    </g>
   </g>
   <g id="legend_2">
    <g id="patch_13">
     <path d="M 46.467319 161.081844 
L 233.735444 161.081844 
Q 235.935444 161.081844 235.935444 158.881844 
L 235.935444 117.419062 
Q 235.935444 115.219062 233.735444 115.219062 
L 46.467319 115.219062 
Q 44.267319 115.219062 44.267319 117.419062 
L 44.267319 158.881844 
Q 44.267319 161.081844 46.467319 161.081844 
z
" style="fill: #ffffff; opacity: 0.8; stroke: #cccccc; stroke-linejoin: miter"/>
    </g>
    <g id="line2d_87">
     <path d="M 48.667319 130.343031 
L 59.667319 130.343031 
L 70.667319 130.343031 
" style="fill: none; stroke: #ff7f0e; stroke-width: 1.25; stroke-linecap: square"/>
    </g>
    <g id="text_12">
     <text style="font-size: 11px; font-family: 'Times New Roman'" transform="translate(72.867319 127.257187)">Atomic B</text>
     <text style="font-size: 11px; font-family: 'Times New Roman'" transform="translate(72.867319 138.775906)">Local B-II</text>
    </g>
    <g id="line2d_88">
     <path d="M 48.667319 150.478875 
L 59.667319 150.478875 
L 70.667319 150.478875 
" style="fill: none; stroke: #9467bd; stroke-width: 1.25; stroke-linecap: square"/>
    </g>
    <g id="text_13">
     <text style="font-size: 11px; font-family: 'Times New Roman'; text-anchor: start" x="72.867319" y="154.328875" transform="rotate(-0 72.867319 154.328875)">OSP source (B-V CER + EDGE2D)</text>
    </g>
   </g>
  </g>
  <g id="axes_3">
   <g id="patch_14">
    <path d="M 42.067319 317.019062 
L 272.467319 317.019062 
L 272.467319 215.019062 
L 42.067319 215.019062 
z
" style="fill: #ffffff"/>
   </g>
   <g id="line2d_89">
    <path d="M 42.067434 298.564427 
L 45.267434 301.171878 
L 46.867434 301.275869 
L 48.467434 300.028908 
L 50.067434 299.33513 
L 51.667434 299.86436 
L 53.267434 302.372892 
L 54.867434 302.157685 
L 56.467434 300.487442 
L 59.667434 298.507234 
L 61.267434 297.84518 
L 62.867434 299.514518 
L 64.467434 300.672038 
L 66.067434 301.266326 
L 67.667434 300.48783 
L 69.267434 299.274339 
L 70.867434 300.012669 
L 72.467434 300.417677 
L 74.067434 301.107475 
L 75.667434 303.153487 
L 78.867434 303.291774 
L 80.467434 302.203357 
L 82.067434 298.977056 
L 83.667434 297.034826 
L 85.267434 295.663956 
L 86.867434 296.516531 
L 88.467434 298.838122 
L 90.067434 301.961333 
L 91.667434 303.415845 
L 93.267434 302.973134 
L 94.867434 301.803167 
L 98.067434 301.896406 
L 101.267434 301.418651 
L 104.467434 298.404282 
L 106.067434 299.385324 
L 107.667434 299.653103 
L 109.267434 299.167803 
L 110.867434 297.260457 
L 112.467434 295.114497 
L 114.067434 294.340748 
L 115.667434 296.204012 
L 117.267434 294.431763 
L 118.867434 283.842641 
L 120.467434 269.051826 
L 122.067434 250.577357 
L 123.667434 237.2808 
L 125.267434 225.439927 
L 126.867434 218.199429 
L 128.467434 231.60193 
L 131.667434 283.156981 
L 133.267434 302.145975 
L 134.867434 311.529474 
L 136.467434 315.039196 
L 138.067434 316.331378 
L 139.667434 316.843128 
L 141.267434 316.874768 
L 144.467434 316.75188 
L 147.667434 316.764123 
L 150.867434 316.758546 
L 154.067434 316.73358 
L 162.067434 316.418672 
L 165.267434 316.689095 
L 170.067434 316.65788 
L 173.267434 316.835632 
L 184.467434 316.651653 
L 186.067434 316.91375 
L 187.667434 316.501566 
L 189.267434 313.099762 
L 190.867434 302.512986 
L 192.467434 280.825955 
L 194.067434 254.376906 
L 195.667434 239.512822 
L 197.267434 233.545153 
L 198.867434 223.910128 
L 200.467434 224.195805 
L 202.067434 227.548266 
L 203.667434 244.400653 
L 205.267434 263.821233 
L 206.867434 276.816009 
L 208.467434 283.240569 
L 210.067434 280.911725 
L 211.667434 273.007026 
L 213.267434 270.197641 
L 214.867434 273.544635 
L 216.467434 279.138067 
L 218.067434 280.071292 
L 219.667434 282.263562 
L 222.867434 293.609285 
L 224.467434 294.405723 
L 226.067434 292.707606 
L 227.667434 292.880984 
L 229.267434 292.283494 
L 230.867434 294.643143 
L 232.467434 295.907207 
L 234.067434 298.144035 
L 235.667434 297.854182 
L 237.267434 294.665621 
L 238.867434 289.175433 
L 240.467434 285.931341 
L 242.067434 287.392257 
L 245.267434 295.278582 
L 246.867434 297.169033 
L 248.467434 297.639632 
L 250.067434 298.543653 
L 253.267434 302.759376 
L 254.867434 302.99373 
L 256.467434 301.044749 
L 258.067434 299.733545 
L 259.667434 300.677619 
L 261.267434 301.802931 
L 262.867434 302.656421 
L 264.467434 300.351675 
L 266.067434 294.381899 
L 267.667434 293.500333 
L 269.267434 294.880609 
L 270.867434 294.210507 
L 270.867434 294.210507 
" clip-path="url(#p1fa38bcf53)" style="fill: none; stroke: #8c564b; stroke-width: 1.25; stroke-linecap: square"/>
   </g>
   <g id="line2d_90">
    <path d="M 42.113468 309.866781 
L 47.388246 309.696347 
L 50.025634 309.385929 
L 52.204412 308.920338 
L 54.95654 308.075972 
L 60.231433 306.45648 
L 63.442172 305.420256 
L 65.964937 304.352791 
L 68.717065 303.221093 
L 70.781103 302.636996 
L 72.730518 302.306522 
L 78.464022 301.578266 
L 81.7895 300.569479 
L 84.656252 299.840645 
L 94.632572 297.88681 
L 96.69661 297.770482 
L 101.627516 297.645177 
L 103.57693 297.29238 
L 106.78767 296.41855 
L 110.227772 295.572012 
L 117.796066 293.856607 
L 119.974844 292.97847 
L 122.153506 291.858513 
L 124.676271 290.297779 
L 127.772386 288.366432 
L 128.804463 288.007648 
L 129.721801 287.936222 
L 130.524514 288.085135 
L 131.441852 288.47728 
L 132.703292 289.276316 
L 136.487382 291.837824 
L 137.97807 292.499763 
L 139.813782 293.048148 
L 146.006012 294.471657 
L 148.643401 294.907466 
L 151.510153 295.131565 
L 154.262281 295.133487 
L 160.225148 295.047479 
L 163.435887 295.392926 
L 167.793442 295.810068 
L 171.806895 295.900798 
L 179.604553 295.792524 
L 183.388642 295.548212 
L 185.56742 295.189619 
L 187.287471 294.684034 
L 189.466134 293.772149 
L 196.002466 290.939228 
L 200.359906 289.667989 
L 201.73597 289.417945 
L 203.112034 289.409364 
L 204.602722 289.626339 
L 206.7815 290.207135 
L 212.285641 291.72471 
L 214.92303 292.390186 
L 214.92303 292.390186 
" clip-path="url(#p1fa38bcf53)" style="fill: none; stroke: #2ca02c; stroke-width: 1.25; stroke-linecap: square"/>
   </g>
   <g id="line2d_91">
    <path d="M 124.665719 317.019062 
L 124.665719 215.019062 
" clip-path="url(#p1fa38bcf53)" style="fill: none; stroke-dasharray: 3.7,1.6; stroke-dashoffset: 0; stroke: #d62728"/>
   </g>
   <g id="line2d_92">
    <path d="M 199.084919 317.019062 
L 199.084919 215.019062 
" clip-path="url(#p1fa38bcf53)" style="fill: none; stroke-dasharray: 3.7,1.6; stroke-dashoffset: 0; stroke: #d62728"/>
   </g>
   <g id="patch_15">
    <path d="M 42.067319 317.019062 
L 42.067319 215.019062 
" style="fill: none; stroke: #000000; stroke-linejoin: miter; stroke-linecap: square"/>
   </g>
   <g id="patch_16">
    <path d="M 272.467319 317.019062 
L 272.467319 215.019062 
" style="fill: none; stroke: #000000; stroke-linejoin: miter; stroke-linecap: square"/>
   </g>
   <g id="patch_17">
    <path d="M 42.067319 317.019062 
L 272.467319 317.019062 
" style="fill: none; stroke: #000000; stroke-linejoin: miter; stroke-linecap: square"/>
   </g>
   <g id="patch_18">
    <path d="M 42.067319 215.019062 
L 272.467319 215.019062 
" style="fill: none; stroke: #000000; stroke-linejoin: miter; stroke-linecap: square"/>
   </g>
   <g id="matplotlib.axis_5">
    <g id="xtick_43">
     <g id="line2d_93">
      <g>
       <use xlink:href="#m2947f511fb" x="42.067319" y="317.019062" style="stroke: #000000; stroke-width: 1.35"/>
      </g>
     </g>
     <g id="text_14">
      <text style="font-size: 11px; font-family: 'Times New Roman'; text-anchor: middle" x="42.067319" y="332.157187" transform="rotate(-0 42.067319 332.157187)">1.5</text>
     </g>
    </g>
    <g id="xtick_44">
     <g id="line2d_94">
      <g>
       <use xlink:href="#m2947f511fb" x="99.667319" y="317.019062" style="stroke: #000000; stroke-width: 1.35"/>
      </g>
     </g>
     <g id="text_15">
      <text style="font-size: 11px; font-family: 'Times New Roman'; text-anchor: middle" x="99.667319" y="332.157187" transform="rotate(-0 99.667319 332.157187)">2.0</text>
     </g>
    </g>
    <g id="xtick_45">
     <g id="line2d_95">
      <g>
       <use xlink:href="#m2947f511fb" x="157.267319" y="317.019062" style="stroke: #000000; stroke-width: 1.35"/>
      </g>
     </g>
     <g id="text_16">
      <text style="font-size: 11px; font-family: 'Times New Roman'; text-anchor: middle" x="157.267319" y="332.157187" transform="rotate(-0 157.267319 332.157187)">2.5</text>
     </g>
    </g>
    <g id="xtick_46">
     <g id="line2d_96">
      <g>
       <use xlink:href="#m2947f511fb" x="214.867319" y="317.019062" style="stroke: #000000; stroke-width: 1.35"/>
      </g>
     </g>
     <g id="text_17">
      <text style="font-size: 11px; font-family: 'Times New Roman'; text-anchor: middle" x="214.867319" y="332.157187" transform="rotate(-0 214.867319 332.157187)">3.0</text>
     </g>
    </g>
    <g id="xtick_47">
     <g id="line2d_97">
      <g>
       <use xlink:href="#m2947f511fb" x="272.467319" y="317.019062" style="stroke: #000000; stroke-width: 1.35"/>
      </g>
     </g>
     <g id="text_18">
      <text style="font-size: 11px; font-family: 'Times New Roman'; text-anchor: middle" x="272.467319" y="332.157187" transform="rotate(-0 272.467319 332.157187)">3.5</text>
     </g>
    </g>
    <g id="xtick_48">
     <g id="line2d_98">
      <g>
       <use xlink:href="#mc6ef2b314c" x="53.587319" y="317.019062" style="stroke: #000000; stroke-width: 0.75"/>
      </g>
     </g>
    </g>
    <g id="xtick_49">
     <g id="line2d_99">
      <g>
       <use xlink:href="#mc6ef2b314c" x="65.107319" y="317.019062" style="stroke: #000000; stroke-width: 0.75"/>
      </g>
     </g>
    </g>
    <g id="xtick_50">
     <g id="line2d_100">
      <g>
       <use xlink:href="#mc6ef2b314c" x="76.627319" y="317.019062" style="stroke: #000000; stroke-width: 0.75"/>
      </g>
     </g>
    </g>
    <g id="xtick_51">
     <g id="line2d_101">
      <g>
       <use xlink:href="#mc6ef2b314c" x="88.147319" y="317.019062" style="stroke: #000000; stroke-width: 0.75"/>
      </g>
     </g>
    </g>
    <g id="xtick_52">
     <g id="line2d_102">
      <g>
       <use xlink:href="#mc6ef2b314c" x="111.187319" y="317.019062" style="stroke: #000000; stroke-width: 0.75"/>
      </g>
     </g>
    </g>
    <g id="xtick_53">
     <g id="line2d_103">
      <g>
       <use xlink:href="#mc6ef2b314c" x="122.707319" y="317.019062" style="stroke: #000000; stroke-width: 0.75"/>
      </g>
     </g>
    </g>
    <g id="xtick_54">
     <g id="line2d_104">
      <g>
       <use xlink:href="#mc6ef2b314c" x="134.227319" y="317.019062" style="stroke: #000000; stroke-width: 0.75"/>
      </g>
     </g>
    </g>
    <g id="xtick_55">
     <g id="line2d_105">
      <g>
       <use xlink:href="#mc6ef2b314c" x="145.747319" y="317.019062" style="stroke: #000000; stroke-width: 0.75"/>
      </g>
     </g>
    </g>
    <g id="xtick_56">
     <g id="line2d_106">
      <g>
       <use xlink:href="#mc6ef2b314c" x="168.787319" y="317.019062" style="stroke: #000000; stroke-width: 0.75"/>
      </g>
     </g>
    </g>
    <g id="xtick_57">
     <g id="line2d_107">
      <g>
       <use xlink:href="#mc6ef2b314c" x="180.307319" y="317.019062" style="stroke: #000000; stroke-width: 0.75"/>
      </g>
     </g>
    </g>
    <g id="xtick_58">
     <g id="line2d_108">
      <g>
       <use xlink:href="#mc6ef2b314c" x="191.827319" y="317.019062" style="stroke: #000000; stroke-width: 0.75"/>
      </g>
     </g>
    </g>
    <g id="xtick_59">
     <g id="line2d_109">
      <g>
       <use xlink:href="#mc6ef2b314c" x="203.347319" y="317.019062" style="stroke: #000000; stroke-width: 0.75"/>
      </g>
     </g>
    </g>
    <g id="xtick_60">
     <g id="line2d_110">
      <g>
       <use xlink:href="#mc6ef2b314c" x="226.387319" y="317.019062" style="stroke: #000000; stroke-width: 0.75"/>
      </g>
     </g>
    </g>
    <g id="xtick_61">
     <g id="line2d_111">
      <g>
       <use xlink:href="#mc6ef2b314c" x="237.907319" y="317.019062" style="stroke: #000000; stroke-width: 0.75"/>
      </g>
     </g>
    </g>
    <g id="xtick_62">
     <g id="line2d_112">
      <g>
       <use xlink:href="#mc6ef2b314c" x="249.427319" y="317.019062" style="stroke: #000000; stroke-width: 0.75"/>
      </g>
     </g>
    </g>
    <g id="xtick_63">
     <g id="line2d_113">
      <g>
       <use xlink:href="#mc6ef2b314c" x="260.947319" y="317.019062" style="stroke: #000000; stroke-width: 0.75"/>
      </g>
     </g>
    </g>
    <g id="text_19">
     <text style="font-size: 12px; font-family: 'Times New Roman'; text-anchor: middle" x="157.267319" y="346.842656" transform="rotate(-0 157.267319 346.842656)">Time (s)</text>
    </g>
   </g>
   <g id="matplotlib.axis_6">
    <g id="ytick_37">
     <g id="line2d_114">
      <g>
       <use xlink:href="#m84d63692ba" x="42.067319" y="317.019062" style="stroke: #000000; stroke-width: 1.35"/>
      </g>
     </g>
     <g id="text_20">
      <text style="font-size: 11px; font-family: 'Times New Roman'; text-anchor: end" x="34.567319" y="320.838125" transform="rotate(-0 34.567319 320.838125)">0</text>
     </g>
    </g>
    <g id="ytick_38">
     <g id="line2d_115">
      <g>
       <use xlink:href="#m84d63692ba" x="42.067319" y="287.876205" style="stroke: #000000; stroke-width: 1.35"/>
      </g>
     </g>
     <g id="text_21">
      <text style="font-size: 11px; font-family: 'Times New Roman'; text-anchor: end" x="34.567319" y="291.695268" transform="rotate(-0 34.567319 291.695268)">5</text>
     </g>
    </g>
    <g id="ytick_39">
     <g id="line2d_116">
      <g>
       <use xlink:href="#m84d63692ba" x="42.067319" y="258.733348" style="stroke: #000000; stroke-width: 1.35"/>
      </g>
     </g>
     <g id="text_22">
      <text style="font-size: 11px; font-family: 'Times New Roman'; text-anchor: end" x="34.567319" y="262.552411" transform="rotate(-0 34.567319 262.552411)">10</text>
     </g>
    </g>
    <g id="ytick_40">
     <g id="line2d_117">
      <g>
       <use xlink:href="#m84d63692ba" x="42.067319" y="229.590491" style="stroke: #000000; stroke-width: 1.35"/>
      </g>
     </g>
     <g id="text_23">
      <text style="font-size: 11px; font-family: 'Times New Roman'; text-anchor: end" x="34.567319" y="233.409554" transform="rotate(-0 34.567319 233.409554)">15</text>
     </g>
    </g>
    <g id="ytick_41">
     <g id="line2d_118">
      <g>
       <use xlink:href="#m605fdcf3e9" x="42.067319" y="302.447634" style="stroke: #000000; stroke-width: 0.75"/>
      </g>
     </g>
    </g>
    <g id="ytick_42">
     <g id="line2d_119">
      <g>
       <use xlink:href="#m605fdcf3e9" x="42.067319" y="273.304777" style="stroke: #000000; stroke-width: 0.75"/>
      </g>
     </g>
    </g>
    <g id="ytick_43">
     <g id="line2d_120">
      <g>
       <use xlink:href="#m605fdcf3e9" x="42.067319" y="244.16192" style="stroke: #000000; stroke-width: 0.75"/>
      </g>
     </g>
    </g>
    <g id="ytick_44">
     <g id="line2d_121">
      <g>
       <use xlink:href="#m605fdcf3e9" x="42.067319" y="215.019062" style="stroke: #000000; stroke-width: 0.75"/>
      </g>
     </g>
    </g>
    <g id="text_24">
     <!-- $\Gamma_{\mathrm{B}}$ ($\times 10^{15}$ atoms/s) -->
     <g transform="translate(16.979124 313.454127) rotate(-90) scale(0.12 -0.12)">
      <defs>
       <path id="NimbusRomNo9L-Regu-35" d="M 1158 3718 
L 2413 3718 
C 2515 3718 2541 3731 2560 3775 
L 2803 4345 
L 2746 4390 
C 2650 4256 2586 4224 2451 4224 
L 1114 4224 
L 416 2717 
C 410 2705 410 2698 410 2686 
C 410 2654 435 2635 486 2635 
C 691 2635 947 2591 1210 2508 
C 1946 2274 2285 1882 2285 1255 
C 2285 647 1894 172 1395 172 
C 1267 172 1158 217 966 356 
C 762 502 614 565 480 565 
C 294 565 205 489 205 331 
C 205 89 506 -64 986 -64 
C 1523 -64 1984 108 2304 432 
C 2598 717 2733 1078 2733 1559 
C 2733 2015 2611 2306 2291 2622 
C 2010 2901 1645 3047 890 3180 
L 1158 3718 
z
" transform="scale(0.015625)"/>
      </defs>
      <use xlink:href="#StandardSymL-47" transform="scale(0.996264)"/>
      <use xlink:href="#NimbusRomNo9L-Regu-42" transform="translate(60.073735 -15.050129) scale(0.737241)"/>
      <use xlink:href="#NimbusRomNo9L-Regu-28" transform="translate(134.651855 0) scale(0.996264)"/>
      <use xlink:href="#CMSY10-2" transform="translate(167.827085 0) scale(0.996264)"/>
      <use xlink:href="#NimbusRomNo9L-Regu-31" transform="translate(245.235792 0) scale(0.996264)"/>
      <use xlink:href="#NimbusRomNo9L-Regu-30" transform="translate(295.048992 0) scale(0.996264)"/>
      <use xlink:href="#NimbusRomNo9L-Regu-31" transform="translate(344.862193 36.163231) scale(0.737241)"/>
      <use xlink:href="#NimbusRomNo9L-Regu-35" transform="translate(381.724235 36.163231) scale(0.737241)"/>
      <use xlink:href="#NimbusRomNo9L-Regu-61" transform="translate(443.991009 0) scale(0.996264)"/>
      <use xlink:href="#NimbusRomNo9L-Regu-74" transform="translate(488.224578 0) scale(0.996264)"/>
      <use xlink:href="#NimbusRomNo9L-Regu-6f" transform="translate(515.919747 0) scale(0.996264)"/>
      <use xlink:href="#NimbusRomNo9L-Regu-6d" transform="translate(565.732948 0) scale(0.996264)"/>
      <use xlink:href="#NimbusRomNo9L-Regu-73" transform="translate(643.241318 0) scale(0.996264)"/>
      <use xlink:href="#NimbusRomNo9L-Regu-2f" transform="translate(681.995024 0) scale(0.996264)"/>
      <use xlink:href="#NimbusRomNo9L-Regu-73" transform="translate(709.690194 0) scale(0.996264)"/>
      <use xlink:href="#NimbusRomNo9L-Regu-29" transform="translate(748.4439 0) scale(0.996264)"/>
     </g>
    </g>
   </g>
   <g id="text_25">
    <text style="font-weight: 700; font-size: 10px; font-family: 'Times New Roman'; text-anchor: end" x="269.011319" y="312.33" transform="rotate(-0 269.011319 312.33)">Shot #203782</text>
   </g>
   <g id="legend_3">
    <g id="patch_19">
     <path d="M 46.467319 251.625 
L 128.826381 251.625 
Q 131.026381 251.625 131.026381 249.425 
L 131.026381 219.419062 
Q 131.026381 217.219062 128.826381 217.219062 
L 46.467319 217.219062 
Q 44.267319 217.219062 44.267319 219.419062 
L 44.267319 249.425 
Q 44.267319 251.625 46.467319 251.625 
z
" style="fill: #ffffff; opacity: 0.8; stroke: #cccccc; stroke-linejoin: miter"/>
    </g>
    <g id="line2d_122">
     <path d="M 48.667319 225.469062 
L 59.667319 225.469062 
L 70.667319 225.469062 
" style="fill: none; stroke: #8c564b; stroke-width: 1.25; stroke-linecap: square"/>
    </g>
    <g id="text_26">
     <text style="font-size: 11px; font-family: 'Times New Roman'; text-anchor: start" x="72.867319" y="229.319062" transform="rotate(-0 72.867319 229.319062)">Local BD</text>
    </g>
    <g id="line2d_123">
     <path d="M 48.667319 241.022031 
L 59.667319 241.022031 
L 70.667319 241.022031 
" style="fill: none; stroke: #2ca02c; stroke-width: 1.25; stroke-linecap: square"/>
    </g>
    <g id="text_27">
     <text style="font-size: 11px; font-family: 'Times New Roman'; text-anchor: start" x="72.867319" y="244.872031" transform="rotate(-0 72.867319 244.872031)">Evaporation</text>
    </g>
   </g>
  </g>
 </g>
 <defs>
  <clipPath id="pe48abea091">
   <rect x="42.067319" y="11.019062" width="230.4" height="102"/>
  </clipPath>
  <clipPath id="p3df9313c54">
   <rect x="42.067319" y="113.019062" width="230.4" height="102"/>
  </clipPath>
  <clipPath id="p1fa38bcf53">
   <rect x="42.067319" y="215.019062" width="230.4" height="102"/>
  </clipPath>
 </defs>
</svg>
