<?xml version="1.0" encoding="utf-8" standalone="no"?>
<!DOCTYPE svg PUBLIC "-//W3C//DTD SVG 1.1//EN"
  "http://www.w3.org/Graphics/SVG/1.1/DTD/svg11.dtd">
<svg xmlns:xlink="http://www.w3.org/1999/xlink" width="289.292319pt" height="448.409531pt" viewBox="0 0 289.292319 448.409531" xmlns="http://www.w3.org/2000/svg" version="1.1">
 <metadata>
  <rdf:RDF xmlns:dc="http://purl.org/dc/elements/1.1/" xmlns:cc="http://creativecommons.org/ns#" xmlns:rdf="http://www.w3.org/1999/02/22-rdf-syntax-ns#">
   <cc:Work>
    <dc:type rdf:resource="http://purl.org/dc/dcmitype/StillImage"/>
    <dc:date>2025-11-03T11:55:51.528389</dc:date>
    <dc:format>image/svg+xml</dc:format>
    <dc:creator>
     <cc:Agent>
      <dc:title>Matplotlib v3.10.1, https://matplotlib.org/</dc:title>
     </cc:Agent>
    </dc:creator>
   </cc:Work>
  </rdf:RDF>
 </metadata>
 <defs>
  <style type="text/css">*{stroke-linejoin: round; stroke-linecap: butt}</style>
 </defs>
 <g id="figure_1">
  <g id="patch_1">
   <path d="M 0 448.409531 
L 289.292319 448.409531 
L 289.292319 0 
L 0 0 
z
" style="fill: #ffffff"/>
  </g>
  <g id="axes_1">
   <g id="patch_2">
    <path d="M 44.817319 110.469062 
L 275.217319 110.469062 
L 275.217319 11.019062 
L 44.817319 11.019062 
z
" style="fill: #ffffff"/>
   </g>
   <g id="line2d_1">
    <path d="M 44.817319 96.417492 
L 50.462119 96.724394 
L 52.190119 96.590871 
L 53.802919 96.247092 
L 58.641319 94.986358 
L 59.908519 95.046676 
L 61.175719 95.331126 
L 63.134119 96.040289 
L 65.322919 96.781322 
L 66.705319 97.023086 
L 68.318119 97.064817 
L 71.313319 97.081882 
L 72.695719 97.348637 
L 74.423719 97.922055 
L 77.303719 98.903768 
L 78.686119 99.113498 
L 79.953319 99.078529 
L 81.450919 98.796696 
L 85.137319 97.979836 
L 86.634919 97.953863 
L 88.362919 98.167439 
L 92.740519 98.843307 
L 94.468519 98.772861 
L 98.500519 98.457594 
L 100.228519 98.646729 
L 102.647719 98.926843 
L 103.799719 98.806683 
L 104.836519 98.448745 
L 105.873319 97.82364 
L 107.025319 96.834135 
L 108.522919 95.210663 
L 112.209319 90.733775 
L 113.937319 88.374423 
L 115.089319 86.422444 
L 116.126119 84.213448 
L 117.162919 81.419976 
L 118.199719 77.927812 
L 119.351719 73.200082 
L 120.849319 65.997921 
L 123.844519 51.367927 
L 124.881319 47.428945 
L 125.687719 45.104069 
L 126.378919 43.731847 
L 126.954919 43.0831 
L 127.415719 42.918049 
L 127.761319 43.014304 
L 128.106919 43.308363 
L 128.567719 44.021136 
L 129.143719 45.448066 
L 129.719719 47.487074 
L 130.410919 50.741113 
L 131.217319 55.588954 
L 132.254119 63.207651 
L 134.442919 81.569859 
L 135.825319 92.119887 
L 136.862119 98.46317 
L 137.783719 102.764739 
L 138.590119 105.532163 
L 139.396519 107.490052 
L 140.087719 108.64253 
L 140.778919 109.419823 
L 141.585319 109.981132 
L 142.506919 110.322138 
L 143.658919 110.49726 
L 145.732519 110.546261 
L 177.758119 110.434139 
L 183.518119 110.555643 
L 185.591719 110.793813 
L 187.319719 111.226961 
L 189.162919 111.697625 
L 189.854119 111.633461 
L 190.430119 111.323979 
L 190.890919 110.826239 
L 191.351719 110.031965 
L 191.927719 108.508933 
L 192.503719 106.2601 
L 193.079719 103.151442 
L 193.770919 98.143767 
L 194.577319 90.449932 
L 195.498919 79.380693 
L 196.996519 58.037349 
L 198.609319 35.570062 
L 199.530919 25.491701 
L 200.222119 19.939239 
L 200.798119 16.773185 
L 201.258919 15.215681 
L 201.604519 14.60761 
L 201.834919 14.461693 
L 202.065319 14.517222 
L 202.410919 14.964466 
L 202.756519 15.826991 
L 203.217319 17.576347 
L 203.793319 20.626672 
L 204.599719 26.238272 
L 205.751719 36.157752 
L 209.322919 68.497444 
L 210.474919 76.35488 
L 211.511719 81.857106 
L 212.433319 85.570771 
L 213.354919 88.32345 
L 214.161319 90.084545 
L 214.967719 91.374674 
L 215.889319 92.429506 
L 216.926119 93.274728 
L 218.769319 94.418338 
L 221.303719 96.059341 
L 224.298919 98.010593 
L 225.681319 98.63441 
L 226.948519 98.97516 
L 228.215719 99.092832 
L 229.598119 98.997928 
L 232.247719 98.513358 
L 234.090919 98.308711 
L 236.164519 98.323378 
L 239.620519 98.369764 
L 241.809319 98.126722 
L 244.804519 97.797563 
L 250.679719 97.418215 
L 253.098919 97.201199 
L 254.481319 97.310282 
L 255.863719 97.648613 
L 258.052519 98.470865 
L 260.241319 99.210733 
L 261.738919 99.490612 
L 263.121319 99.54022 
L 264.618919 99.365869 
L 266.922919 98.816358 
L 269.457319 98.288375 
L 272.682919 97.914022 
L 275.217319 97.629186 
L 275.217319 97.629186 
" clip-path="url(#p6fa084ff36)" style="fill: none; stroke: #1f77b4; stroke-width: 1.25; stroke-linecap: square"/>
   </g>
   <g id="line2d_2">
    <path d="M 127.415719 110.469062 
L 127.415719 11.019062 
" clip-path="url(#p6fa084ff36)" style="fill: none; stroke-dasharray: 3.7,1.6; stroke-dashoffset: 0; stroke: #d62728"/>
   </g>
   <g id="line2d_3">
    <path d="M 201.834919 110.469062 
L 201.834919 11.019062 
" clip-path="url(#p6fa084ff36)" style="fill: none; stroke-dasharray: 3.7,1.6; stroke-dashoffset: 0; stroke: #d62728"/>
   </g>
   <g id="patch_3">
    <path d="M 44.817319 110.469062 
L 44.817319 11.019062 
" style="fill: none; stroke: #000000; stroke-linejoin: miter; stroke-linecap: square"/>
   </g>
   <g id="patch_4">
    <path d="M 275.217319 110.469062 
L 275.217319 11.019062 
" style="fill: none; stroke: #000000; stroke-linejoin: miter; stroke-linecap: square"/>
   </g>
   <g id="patch_5">
    <path d="M 44.817319 110.469062 
L 275.217319 110.469062 
" style="fill: none; stroke: #000000; stroke-linejoin: miter; stroke-linecap: square"/>
   </g>
   <g id="patch_6">
    <path d="M 44.817319 11.019062 
L 275.217319 11.019062 
" style="fill: none; stroke: #000000; stroke-linejoin: miter; stroke-linecap: square"/>
   </g>
   <g id="matplotlib.axis_1">
    <g id="xtick_1">
     <g id="line2d_4">
      <defs>
       <path id="m069058c964" d="M 0 0 
L 0 4 
" style="stroke: #000000; stroke-width: 1.35"/>
      </defs>
      <g>
       <use xlink:href="#m069058c964" x="44.817319" y="110.469062" style="stroke: #000000; stroke-width: 1.35"/>
      </g>
     </g>
    </g>
    <g id="xtick_2">
     <g id="line2d_5">
      <g>
       <use xlink:href="#m069058c964" x="102.417319" y="110.469062" style="stroke: #000000; stroke-width: 1.35"/>
      </g>
     </g>
    </g>
    <g id="xtick_3">
     <g id="line2d_6">
      <g>
       <use xlink:href="#m069058c964" x="160.017319" y="110.469062" style="stroke: #000000; stroke-width: 1.35"/>
      </g>
     </g>
    </g>
    <g id="xtick_4">
     <g id="line2d_7">
      <g>
       <use xlink:href="#m069058c964" x="217.617319" y="110.469062" style="stroke: #000000; stroke-width: 1.35"/>
      </g>
     </g>
    </g>
    <g id="xtick_5">
     <g id="line2d_8">
      <g>
       <use xlink:href="#m069058c964" x="275.217319" y="110.469062" style="stroke: #000000; stroke-width: 1.35"/>
      </g>
     </g>
    </g>
    <g id="xtick_6">
     <g id="line2d_9">
      <defs>
       <path id="m0bf86a2889" d="M 0 0 
L 0 2.5 
" style="stroke: #000000; stroke-width: 0.75"/>
      </defs>
      <g>
       <use xlink:href="#m0bf86a2889" x="56.337319" y="110.469062" style="stroke: #000000; stroke-width: 0.75"/>
      </g>
     </g>
    </g>
    <g id="xtick_7">
     <g id="line2d_10">
      <g>
       <use xlink:href="#m0bf86a2889" x="67.857319" y="110.469062" style="stroke: #000000; stroke-width: 0.75"/>
      </g>
     </g>
    </g>
    <g id="xtick_8">
     <g id="line2d_11">
      <g>
       <use xlink:href="#m0bf86a2889" x="79.377319" y="110.469062" style="stroke: #000000; stroke-width: 0.75"/>
      </g>
     </g>
    </g>
    <g id="xtick_9">
     <g id="line2d_12">
      <g>
       <use xlink:href="#m0bf86a2889" x="90.897319" y="110.469062" style="stroke: #000000; stroke-width: 0.75"/>
      </g>
     </g>
    </g>
    <g id="xtick_10">
     <g id="line2d_13">
      <g>
       <use xlink:href="#m0bf86a2889" x="113.937319" y="110.469062" style="stroke: #000000; stroke-width: 0.75"/>
      </g>
     </g>
    </g>
    <g id="xtick_11">
     <g id="line2d_14">
      <g>
       <use xlink:href="#m0bf86a2889" x="125.457319" y="110.469062" style="stroke: #000000; stroke-width: 0.75"/>
      </g>
     </g>
    </g>
    <g id="xtick_12">
     <g id="line2d_15">
      <g>
       <use xlink:href="#m0bf86a2889" x="136.977319" y="110.469062" style="stroke: #000000; stroke-width: 0.75"/>
      </g>
     </g>
    </g>
    <g id="xtick_13">
     <g id="line2d_16">
      <g>
       <use xlink:href="#m0bf86a2889" x="148.497319" y="110.469062" style="stroke: #000000; stroke-width: 0.75"/>
      </g>
     </g>
    </g>
    <g id="xtick_14">
     <g id="line2d_17">
      <g>
       <use xlink:href="#m0bf86a2889" x="171.537319" y="110.469062" style="stroke: #000000; stroke-width: 0.75"/>
      </g>
     </g>
    </g>
    <g id="xtick_15">
     <g id="line2d_18">
      <g>
       <use xlink:href="#m0bf86a2889" x="183.057319" y="110.469062" style="stroke: #000000; stroke-width: 0.75"/>
      </g>
     </g>
    </g>
    <g id="xtick_16">
     <g id="line2d_19">
      <g>
       <use xlink:href="#m0bf86a2889" x="194.577319" y="110.469062" style="stroke: #000000; stroke-width: 0.75"/>
      </g>
     </g>
    </g>
    <g id="xtick_17">
     <g id="line2d_20">
      <g>
       <use xlink:href="#m0bf86a2889" x="206.097319" y="110.469062" style="stroke: #000000; stroke-width: 0.75"/>
      </g>
     </g>
    </g>
    <g id="xtick_18">
     <g id="line2d_21">
      <g>
       <use xlink:href="#m0bf86a2889" x="229.137319" y="110.469062" style="stroke: #000000; stroke-width: 0.75"/>
      </g>
     </g>
    </g>
    <g id="xtick_19">
     <g id="line2d_22">
      <g>
       <use xlink:href="#m0bf86a2889" x="240.657319" y="110.469062" style="stroke: #000000; stroke-width: 0.75"/>
      </g>
     </g>
    </g>
    <g id="xtick_20">
     <g id="line2d_23">
      <g>
       <use xlink:href="#m0bf86a2889" x="252.177319" y="110.469062" style="stroke: #000000; stroke-width: 0.75"/>
      </g>
     </g>
    </g>
    <g id="xtick_21">
     <g id="line2d_24">
      <g>
       <use xlink:href="#m0bf86a2889" x="263.697319" y="110.469062" style="stroke: #000000; stroke-width: 0.75"/>
      </g>
     </g>
    </g>
   </g>
   <g id="matplotlib.axis_2">
    <g id="ytick_1">
     <g id="line2d_25">
      <defs>
       <path id="mc909eaaa45" d="M 0 0 
L -4 0 
" style="stroke: #000000; stroke-width: 1.35"/>
      </defs>
      <g>
       <use xlink:href="#mc909eaaa45" x="44.817319" y="110.469062" style="stroke: #000000; stroke-width: 1.35"/>
      </g>
     </g>
     <g id="text_1">
      <text style="font-size: 11px; font-family: 'Times New Roman'; text-anchor: end" x="37.317319" y="114.288125" transform="rotate(-0 37.317319 114.288125)">0</text>
     </g>
    </g>
    <g id="ytick_2">
     <g id="line2d_26">
      <g>
       <use xlink:href="#mc909eaaa45" x="44.817319" y="85.606562" style="stroke: #000000; stroke-width: 1.35"/>
      </g>
     </g>
     <g id="text_2">
      <text style="font-size: 11px; font-family: 'Times New Roman'; text-anchor: end" x="37.317319" y="89.425625" transform="rotate(-0 37.317319 89.425625)">20</text>
     </g>
    </g>
    <g id="ytick_3">
     <g id="line2d_27">
      <g>
       <use xlink:href="#mc909eaaa45" x="44.817319" y="60.744062" style="stroke: #000000; stroke-width: 1.35"/>
      </g>
     </g>
     <g id="text_3">
      <text style="font-size: 11px; font-family: 'Times New Roman'; text-anchor: end" x="37.317319" y="64.563125" transform="rotate(-0 37.317319 64.563125)">40</text>
     </g>
    </g>
    <g id="ytick_4">
     <g id="line2d_28">
      <g>
       <use xlink:href="#mc909eaaa45" x="44.817319" y="35.881562" style="stroke: #000000; stroke-width: 1.35"/>
      </g>
     </g>
     <g id="text_4">
      <text style="font-size: 11px; font-family: 'Times New Roman'; text-anchor: end" x="37.317319" y="39.700625" transform="rotate(-0 37.317319 39.700625)">60</text>
     </g>
    </g>
    <g id="ytick_5">
     <g id="line2d_29">
      <g>
       <use xlink:href="#mc909eaaa45" x="44.817319" y="11.019062" style="stroke: #000000; stroke-width: 1.35"/>
      </g>
     </g>
     <g id="text_5">
      <text style="font-size: 11px; font-family: 'Times New Roman'; text-anchor: end" x="37.317319" y="14.838125" transform="rotate(-0 37.317319 14.838125)">80</text>
     </g>
    </g>
    <g id="ytick_6">
     <g id="line2d_30">
      <defs>
       <path id="m4be2d7dfd1" d="M 0 0 
L -2.5 0 
" style="stroke: #000000; stroke-width: 0.75"/>
      </defs>
      <g>
       <use xlink:href="#m4be2d7dfd1" x="44.817319" y="104.253437" style="stroke: #000000; stroke-width: 0.75"/>
      </g>
     </g>
    </g>
    <g id="ytick_7">
     <g id="line2d_31">
      <g>
       <use xlink:href="#m4be2d7dfd1" x="44.817319" y="98.037812" style="stroke: #000000; stroke-width: 0.75"/>
      </g>
     </g>
    </g>
    <g id="ytick_8">
     <g id="line2d_32">
      <g>
       <use xlink:href="#m4be2d7dfd1" x="44.817319" y="91.822187" style="stroke: #000000; stroke-width: 0.75"/>
      </g>
     </g>
    </g>
    <g id="ytick_9">
     <g id="line2d_33">
      <g>
       <use xlink:href="#m4be2d7dfd1" x="44.817319" y="79.390937" style="stroke: #000000; stroke-width: 0.75"/>
      </g>
     </g>
    </g>
    <g id="ytick_10">
     <g id="line2d_34">
      <g>
       <use xlink:href="#m4be2d7dfd1" x="44.817319" y="73.175312" style="stroke: #000000; stroke-width: 0.75"/>
      </g>
     </g>
    </g>
    <g id="ytick_11">
     <g id="line2d_35">
      <g>
       <use xlink:href="#m4be2d7dfd1" x="44.817319" y="66.959687" style="stroke: #000000; stroke-width: 0.75"/>
      </g>
     </g>
    </g>
    <g id="ytick_12">
     <g id="line2d_36">
      <g>
       <use xlink:href="#m4be2d7dfd1" x="44.817319" y="54.528437" style="stroke: #000000; stroke-width: 0.75"/>
      </g>
     </g>
    </g>
    <g id="ytick_13">
     <g id="line2d_37">
      <g>
       <use xlink:href="#m4be2d7dfd1" x="44.817319" y="48.312812" style="stroke: #000000; stroke-width: 0.75"/>
      </g>
     </g>
    </g>
    <g id="ytick_14">
     <g id="line2d_38">
      <g>
       <use xlink:href="#m4be2d7dfd1" x="44.817319" y="42.097187" style="stroke: #000000; stroke-width: 0.75"/>
      </g>
     </g>
    </g>
    <g id="ytick_15">
     <g id="line2d_39">
      <g>
       <use xlink:href="#m4be2d7dfd1" x="44.817319" y="29.665937" style="stroke: #000000; stroke-width: 0.75"/>
      </g>
     </g>
    </g>
    <g id="ytick_16">
     <g id="line2d_40">
      <g>
       <use xlink:href="#m4be2d7dfd1" x="44.817319" y="23.450312" style="stroke: #000000; stroke-width: 0.75"/>
      </g>
     </g>
    </g>
    <g id="ytick_17">
     <g id="line2d_41">
      <g>
       <use xlink:href="#m4be2d7dfd1" x="44.817319" y="17.234687" style="stroke: #000000; stroke-width: 0.75"/>
      </g>
     </g>
    </g>
    <g id="text_6">
     <!-- $\Gamma_{\mathrm{B}}$ ($\times 10^{20}$ atoms/s) -->
     <g transform="translate(16.979124 108.179127) rotate(-90) scale(0.12 -0.12)">
      <defs>
       <path id="StandardSymL-47" d="M 1389 4032 
L 2835 4032 
C 3398 4032 3648 3815 3731 3260 
L 3898 3260 
L 3834 4294 
L 154 4294 
L 154 4128 
L 173 4128 
C 384 4128 557 4051 646 3929 
C 717 3821 736 3719 736 3387 
L 736 906 
C 736 574 717 472 646 364 
C 557 242 384 166 173 166 
L 154 166 
L 154 0 
L 2080 0 
L 2080 166 
L 2016 166 
C 1779 166 1568 242 1478 364 
C 1408 466 1389 568 1389 906 
L 1389 4032 
z
" transform="scale(0.015625)"/>
       <path id="NimbusRomNo9L-Regu-42" d="M 109 4224 
L 109 4102 
C 646 4070 723 4000 723 3528 
L 723 695 
C 723 223 640 140 109 121 
L 109 0 
L 2246 0 
C 2746 0 3200 134 3437 351 
C 3667 555 3795 842 3795 1148 
C 3795 1429 3680 1684 3482 1869 
C 3290 2041 3117 2118 2701 2220 
C 3034 2303 3168 2367 3322 2500 
C 3482 2641 3578 2877 3578 3138 
C 3578 3853 3008 4224 1901 4224 
L 109 4224 
z
M 1376 2080 
C 1997 2080 2291 2048 2522 1952 
C 2886 1799 3059 1544 3059 1142 
C 3059 798 2925 549 2669 402 
C 2464 287 2202 236 1779 236 
C 1466 236 1376 294 1376 498 
L 1376 2080 
z
M 1376 2335 
L 1376 3795 
C 1376 3929 1421 3987 1517 3987 
L 1798 3987 
C 2534 3987 2925 3680 2925 3113 
C 2925 2615 2586 2335 1984 2335 
L 1376 2335 
z
" transform="scale(0.015625)"/>
       <path id="NimbusRomNo9L-Regu-28" d="M 1888 4352 
C 1414 4044 1222 3878 986 3583 
C 531 3027 307 2387 307 1638 
C 307 825 544 198 1107 -455 
C 1370 -762 1536 -903 1869 -1108 
L 1946 -1006 
C 1434 -602 1254 -378 1082 102 
C 928 530 858 1017 858 1657 
C 858 2329 941 2854 1114 3251 
C 1293 3647 1485 3878 1946 4249 
L 1888 4352 
z
" transform="scale(0.015625)"/>
       <path id="CMSY10-2" d="M 2490 1775 
L 1210 3046 
C 1133 3123 1120 3136 1069 3136 
C 1005 3136 941 3078 941 3008 
C 941 2963 954 2950 1024 2880 
L 2304 1596 
L 1024 313 
C 954 243 941 230 941 185 
C 941 115 1005 57 1069 57 
C 1120 57 1133 70 1210 147 
L 2483 1418 
L 3808 95 
C 3821 89 3866 57 3904 57 
C 3981 57 4032 115 4032 185 
C 4032 198 4032 223 4013 255 
C 4006 268 2989 1271 2669 1596 
L 3840 2765 
C 3872 2803 3968 2886 4000 2925 
C 4006 2937 4032 2963 4032 3008 
C 4032 3078 3981 3136 3904 3136 
C 3853 3136 3827 3110 3757 3040 
L 2490 1775 
z
" transform="scale(0.015625)"/>
       <path id="NimbusRomNo9L-Regu-31" d="M 1862 4352 
L 710 3776 
L 710 3686 
C 787 3718 858 3743 883 3756 
C 998 3801 1107 3826 1171 3826 
C 1306 3826 1363 3731 1363 3525 
L 1363 599 
C 1363 386 1312 238 1210 179 
C 1114 121 1024 102 755 96 
L 755 0 
L 2522 0 
L 2522 96 
C 2016 102 1914 167 1914 477 
L 1914 4339 
L 1862 4352 
z
" transform="scale(0.015625)"/>
       <path id="NimbusRomNo9L-Regu-30" d="M 1626 4352 
C 1274 4352 1005 4243 768 4019 
C 397 3661 154 2924 154 2176 
C 154 1478 365 729 666 371 
C 902 89 1229 -64 1600 -64 
C 1926 -64 2202 44 2432 268 
C 2803 620 3046 1363 3046 2137 
C 3046 3449 2464 4352 1626 4352 
z
M 1606 4185 
C 2144 4185 2432 3462 2432 2124 
C 2432 787 2150 102 1600 102 
C 1050 102 768 787 768 2118 
C 768 3475 1056 4185 1606 4185 
z
" transform="scale(0.015625)"/>
       <path id="NimbusRomNo9L-Regu-32" d="M 3040 879 
L 2957 912 
C 2720 544 2637 486 2349 486 
L 819 486 
L 1894 1621 
C 2464 2221 2714 2711 2714 3214 
C 2714 3858 2195 4352 1530 4352 
C 1178 4352 845 4211 608 3955 
C 403 3736 307 3530 198 3072 
L 333 3039 
C 589 3671 819 3878 1261 3878 
C 1798 3878 2163 3510 2163 2969 
C 2163 2466 1869 1866 1331 1292 
L 192 76 
L 192 0 
L 2688 0 
L 3040 879 
z
" transform="scale(0.015625)"/>
       <path id="NimbusRomNo9L-Regu-61" d="M 2829 422 
C 2720 332 2643 300 2547 300 
C 2400 300 2355 390 2355 672 
L 2355 1920 
C 2355 2252 2323 2438 2227 2592 
C 2086 2822 1811 2944 1434 2944 
C 832 2944 358 2630 358 2227 
C 358 2080 486 1952 634 1952 
C 787 1952 922 2080 922 2220 
C 922 2246 915 2278 909 2323 
C 896 2380 890 2432 890 2476 
C 890 2649 1094 2790 1350 2790 
C 1664 2790 1837 2604 1837 2259 
L 1837 1868 
C 851 1472 742 1420 467 1177 
C 326 1049 237 832 237 620 
C 237 217 518 -64 909 -64 
C 1190 -64 1453 70 1843 403 
C 1875 70 1990 -64 2253 -64 
C 2470 -64 2605 12 2829 256 
L 2829 422 
z
M 1837 787 
C 1837 588 1805 531 1670 454 
C 1517 364 1338 307 1203 307 
C 979 307 800 524 800 800 
L 800 825 
C 800 1203 1062 1433 1837 1715 
L 1837 787 
z
" transform="scale(0.015625)"/>
       <path id="NimbusRomNo9L-Regu-74" d="M 1632 2880 
L 986 2880 
L 986 3622 
C 986 3686 979 3705 941 3705 
C 896 3648 858 3590 813 3526 
C 570 3174 294 2867 192 2841 
C 122 2796 83 2751 83 2719 
C 83 2700 90 2687 109 2675 
L 448 2675 
L 448 748 
C 448 211 640 -64 1018 -64 
C 1331 -64 1574 89 1786 422 
L 1702 492 
C 1568 332 1459 268 1318 268 
C 1082 268 986 441 986 844 
L 986 2675 
L 1632 2675 
L 1632 2880 
z
" transform="scale(0.015625)"/>
       <path id="NimbusRomNo9L-Regu-6f" d="M 1600 2944 
C 768 2944 186 2329 186 1446 
C 186 582 781 -64 1587 -64 
C 2394 -64 3008 614 3008 1497 
C 3008 2336 2419 2944 1600 2944 
z
M 1517 2764 
C 2054 2764 2432 2150 2432 1273 
C 2432 550 2144 115 1664 115 
C 1414 115 1178 268 1043 524 
C 864 857 762 1305 762 1760 
C 762 2368 1062 2764 1517 2764 
z
" transform="scale(0.015625)"/>
       <path id="NimbusRomNo9L-Regu-6d" d="M 122 2547 
C 205 2566 256 2572 326 2572 
C 493 2572 550 2470 550 2163 
L 550 544 
C 550 198 461 102 102 96 
L 102 0 
L 1523 0 
L 1523 96 
C 1184 108 1088 179 1088 428 
L 1088 2233 
C 1088 2246 1139 2310 1184 2355 
C 1344 2502 1619 2611 1843 2611 
C 2125 2611 2266 2387 2266 1939 
L 2266 550 
C 2266 192 2195 121 1830 96 
L 1830 0 
L 3264 0 
L 3264 96 
C 2899 102 2803 211 2803 608 
L 2803 2220 
C 2995 2496 3206 2611 3501 2611 
C 3866 2611 3981 2438 3981 1907 
L 3981 556 
C 3981 192 3930 140 3558 96 
L 3558 0 
L 4960 0 
L 4960 96 
L 4794 108 
C 4602 121 4518 236 4518 486 
L 4518 1804 
C 4518 2560 4269 2944 3776 2944 
C 3405 2944 3078 2777 2733 2406 
C 2618 2771 2400 2944 2054 2944 
C 1773 2944 1594 2854 1062 2451 
L 1062 2931 
L 1018 2944 
C 691 2822 474 2751 122 2655 
L 122 2547 
z
" transform="scale(0.015625)"/>
       <path id="NimbusRomNo9L-Regu-73" d="M 2016 2009 
L 1990 2880 
L 1920 2880 
L 1907 2867 
C 1850 2822 1843 2815 1818 2815 
C 1779 2815 1715 2828 1645 2860 
C 1504 2918 1363 2944 1197 2944 
C 691 2944 326 2617 326 2155 
C 326 1796 531 1539 1075 1231 
L 1446 1019 
C 1670 891 1779 737 1779 538 
C 1779 256 1574 76 1248 76 
C 1030 76 832 160 710 301 
C 576 461 518 609 435 974 
L 333 974 
L 333 -26 
L 416 -26 
C 461 38 486 51 563 51 
C 621 51 710 38 858 0 
C 1037 -39 1210 -64 1325 -64 
C 1818 -64 2227 307 2227 756 
C 2227 1077 2074 1289 1690 1520 
L 998 1930 
C 819 2033 723 2193 723 2366 
C 723 2623 922 2803 1216 2803 
C 1581 2803 1773 2585 1920 2014 
L 2016 2009 
z
" transform="scale(0.015625)"/>
       <path id="NimbusRomNo9L-Regu-2f" d="M 1837 4352 
L 1408 4352 
L -58 -64 
L 378 -64 
L 1837 4352 
z
" transform="scale(0.015625)"/>
       <path id="NimbusRomNo9L-Regu-29" d="M 243 -1108 
C 717 -801 909 -634 1146 -340 
C 1600 217 1824 857 1824 1606 
C 1824 2425 1587 3046 1024 3699 
C 762 4006 595 4147 262 4352 
L 186 4249 
C 698 3846 870 3622 1050 3142 
C 1203 2713 1274 2227 1274 1587 
C 1274 921 1190 390 1018 -1 
C 838 -404 646 -634 186 -1006 
L 243 -1108 
z
" transform="scale(0.015625)"/>
      </defs>
      <use xlink:href="#StandardSymL-47" transform="scale(0.996264)"/>
      <use xlink:href="#NimbusRomNo9L-Regu-42" transform="translate(60.073735 -15.050129) scale(0.737241)"/>
      <use xlink:href="#NimbusRomNo9L-Regu-28" transform="translate(134.651855 0) scale(0.996264)"/>
      <use xlink:href="#CMSY10-2" transform="translate(167.827085 0) scale(0.996264)"/>
      <use xlink:href="#NimbusRomNo9L-Regu-31" transform="translate(245.235792 0) scale(0.996264)"/>
      <use xlink:href="#NimbusRomNo9L-Regu-30" transform="translate(295.048992 0) scale(0.996264)"/>
      <use xlink:href="#NimbusRomNo9L-Regu-32" transform="translate(344.862193 36.163231) scale(0.737241)"/>
      <use xlink:href="#NimbusRomNo9L-Regu-30" transform="translate(381.724235 36.163231) scale(0.737241)"/>
      <use xlink:href="#NimbusRomNo9L-Regu-61" transform="translate(443.991009 0) scale(0.996264)"/>
      <use xlink:href="#NimbusRomNo9L-Regu-74" transform="translate(488.224578 0) scale(0.996264)"/>
      <use xlink:href="#NimbusRomNo9L-Regu-6f" transform="translate(515.919747 0) scale(0.996264)"/>
      <use xlink:href="#NimbusRomNo9L-Regu-6d" transform="translate(565.732948 0) scale(0.996264)"/>
      <use xlink:href="#NimbusRomNo9L-Regu-73" transform="translate(643.241318 0) scale(0.996264)"/>
      <use xlink:href="#NimbusRomNo9L-Regu-2f" transform="translate(681.995024 0) scale(0.996264)"/>
      <use xlink:href="#NimbusRomNo9L-Regu-73" transform="translate(709.690194 0) scale(0.996264)"/>
      <use xlink:href="#NimbusRomNo9L-Regu-29" transform="translate(748.4439 0) scale(0.996264)"/>
     </g>
    </g>
   </g>
   <g id="legend_1">
    <g id="patch_7">
     <path d="M 49.217319 32.072031 
L 142.077944 32.072031 
Q 144.277944 32.072031 144.277944 29.872031 
L 144.277944 15.419062 
Q 144.277944 13.219062 142.077944 13.219062 
L 49.217319 13.219062 
Q 47.017319 13.219062 47.017319 15.419062 
L 47.017319 29.872031 
Q 47.017319 32.072031 49.217319 32.072031 
z
" style="fill: #ffffff; opacity: 0.8; stroke: #cccccc; stroke-linejoin: miter"/>
    </g>
    <g id="line2d_42">
     <path d="M 51.417319 21.469062 
L 62.417319 21.469062 
L 73.417319 21.469062 
" style="fill: none; stroke: #1f77b4; stroke-width: 1.25; stroke-linecap: square"/>
    </g>
    <g id="text_7">
     <text style="font-size: 11px; font-family: 'Times New Roman'; text-anchor: start" x="75.617319" y="25.319062" transform="rotate(-0 75.617319 25.319062)">Pebbles + dust</text>
    </g>
   </g>
  </g>
  <g id="axes_2">
   <g id="patch_8">
    <path d="M 44.817319 209.919062 
L 275.217319 209.919062 
L 275.217319 110.469062 
L 44.817319 110.469062 
z
" style="fill: #ffffff"/>
   </g>
   <g id="line2d_43">
    <path d="M 44.817434 209.406352 
L 52.330478 209.427767 
L 58.591347 209.289412 
L 66.104391 209.460706 
L 71.113086 209.318446 
L 76.121782 209.463506 
L 92.400043 209.497348 
L 94.904391 209.513555 
L 97.408738 209.356524 
L 101.16526 209.408221 
L 107.42613 209.52855 
L 109.930478 209.308183 
L 118.695695 207.982056 
L 119.947869 207.179844 
L 121.200043 205.328607 
L 122.452217 202.738 
L 123.704391 199.551652 
L 124.956564 196.743599 
L 126.208738 194.585145 
L 127.460912 190.011727 
L 128.713086 179.753672 
L 131.217434 143.805405 
L 132.469608 139.385593 
L 133.721782 148.833602 
L 136.22613 181.757017 
L 137.478304 195.637656 
L 138.730478 204.531819 
L 139.982651 208.757736 
L 141.234825 210.028652 
L 142.486999 210.053177 
L 144.991347 209.728023 
L 148.747869 209.83921 
L 155.008738 209.882955 
L 182.556564 209.900126 
L 186.313086 209.856313 
L 187.56526 209.978048 
L 188.817434 210.32303 
L 190.069608 210.785157 
L 191.321782 210.617538 
L 192.573956 207.942887 
L 193.82613 200.039679 
L 195.078304 185.737078 
L 196.330478 169.683 
L 197.582651 162.331274 
L 198.834825 165.781638 
L 200.086999 170.470597 
L 201.339173 172.09273 
L 202.591347 172.707037 
L 203.843521 180.185242 
L 205.095695 191.433435 
L 206.347869 199.871341 
L 207.600043 204.404297 
L 208.852217 206.415723 
L 210.104391 207.287363 
L 211.356564 207.721572 
L 212.608738 207.958357 
L 213.860912 207.789735 
L 215.113086 207.402916 
L 216.36526 207.45968 
L 220.121782 208.65209 
L 222.62613 208.986253 
L 228.886999 209.239741 
L 231.391347 208.922073 
L 235.147869 208.975071 
L 238.904391 209.211552 
L 242.660912 208.938346 
L 252.678304 208.826119 
L 255.182651 208.870293 
L 257.686999 209.047756 
L 262.695695 209.056269 
L 263.947869 209.257336 
L 265.200043 209.294748 
L 273.96526 208.694783 
L 273.96526 208.694783 
" clip-path="url(#p1eb7e8ac74)" style="fill: none; stroke: #ff7f0e; stroke-width: 1.25; stroke-linecap: square"/>
   </g>
   <g id="line2d_44">
    <path d="M 127.415719 209.919062 
L 127.415719 110.469062 
" clip-path="url(#p1eb7e8ac74)" style="fill: none; stroke-dasharray: 3.7,1.6; stroke-dashoffset: 0; stroke: #d62728"/>
   </g>
   <g id="line2d_45">
    <path d="M 201.834919 209.919062 
L 201.834919 110.469062 
" clip-path="url(#p1eb7e8ac74)" style="fill: none; stroke-dasharray: 3.7,1.6; stroke-dashoffset: 0; stroke: #d62728"/>
   </g>
   <g id="line2d_46">
    <path d="M 44.817319 211.222061 
L 52.204894 210.57196 
L 57.283852 210.369714 
L 63.286257 210.368281 
L 78.52313 210.424724 
L 82.678641 210.055709 
L 87.757599 209.358522 
L 90.989664 208.978287 
L 93.298281 208.94369 
L 96.068621 209.197724 
L 106.226537 210.451701 
L 108.996878 210.408227 
L 110.843772 210.203005 
L 112.228942 209.886864 
L 113.614112 209.363178 
L 114.999283 208.570338 
L 116.384453 207.443064 
L 117.769623 205.894399 
L 119.154794 203.830682 
L 120.539964 201.16055 
L 121.925134 197.827693 
L 123.310305 193.814628 
L 124.695475 189.111056 
L 126.080645 183.709044 
L 127.927539 175.55682 
L 133.468221 150.16526 
L 135.315114 143.159915 
L 136.700285 138.697 
L 138.085455 135.016569 
L 139.008902 133.038901 
L 139.932349 131.462403 
L 140.855796 130.301854 
L 141.779243 129.572029 
L 142.70269 129.287706 
L 143.164413 129.316696 
L 144.08786 129.712091 
L 145.011307 130.536421 
L 145.934754 131.751948 
L 146.858201 133.319143 
L 148.243371 136.242842 
L 149.628541 139.736429 
L 151.475435 145.050713 
L 158.401287 165.919083 
L 160.248181 170.5953 
L 162.095074 174.629924 
L 163.941968 178.021322 
L 165.788862 180.829334 
L 167.635756 183.125964 
L 169.48265 185.020169 
L 171.791267 186.997762 
L 174.561607 189.042153 
L 177.331948 190.830895 
L 180.102289 192.389763 
L 181.949183 193.233586 
L 183.796076 193.830842 
L 185.181247 194.058173 
L 186.566417 194.035218 
L 187.951587 193.704779 
L 188.875034 193.285408 
L 189.798481 192.687298 
L 190.721928 191.895993 
L 192.107098 190.335427 
L 193.492269 188.320368 
L 194.877439 185.844002 
L 196.262609 182.915005 
L 198.109503 178.430082 
L 200.879844 170.993414 
L 203.650185 163.662395 
L 205.035355 160.501668 
L 206.420525 157.946477 
L 207.343972 156.664674 
L 208.267419 155.7448 
L 209.190866 155.18132 
L 210.114313 154.964783 
L 211.03776 155.085742 
L 211.961207 155.534744 
L 212.884654 156.298449 
L 213.8081 157.351061 
L 215.193271 159.392428 
L 216.578441 161.872362 
L 218.425335 165.635842 
L 222.119122 173.80712 
L 225.351187 180.778177 
L 227.659804 185.257627 
L 229.506698 188.428768 
L 231.353591 191.161209 
L 233.200485 193.457826 
L 235.047379 195.380737 
L 236.894273 196.988789 
L 238.741167 198.314355 
L 240.58806 199.373566 
L 242.434954 200.189507 
L 244.743571 200.956302 
L 248.437359 201.893586 
L 253.516317 202.929955 
L 256.748381 203.411076 
L 259.518722 203.616885 
L 265.521126 203.727287 
L 271.523531 203.782025 
L 275.217319 203.687318 
L 275.217319 203.687318 
" clip-path="url(#p1eb7e8ac74)" style="fill: none; stroke: #9467bd; stroke-width: 1.25; stroke-linecap: square"/>
   </g>
   <g id="patch_9">
    <path d="M 44.817319 209.919062 
L 44.817319 110.469062 
" style="fill: none; stroke: #000000; stroke-linejoin: miter; stroke-linecap: square"/>
   </g>
   <g id="patch_10">
    <path d="M 275.217319 209.919062 
L 275.217319 110.469062 
" style="fill: none; stroke: #000000; stroke-linejoin: miter; stroke-linecap: square"/>
   </g>
   <g id="patch_11">
    <path d="M 44.817319 209.919062 
L 275.217319 209.919062 
" style="fill: none; stroke: #000000; stroke-linejoin: miter; stroke-linecap: square"/>
   </g>
   <g id="patch_12">
    <path d="M 44.817319 110.469062 
L 275.217319 110.469062 
" style="fill: none; stroke: #000000; stroke-linejoin: miter; stroke-linecap: square"/>
   </g>
   <g id="matplotlib.axis_3">
    <g id="xtick_22">
     <g id="line2d_47">
      <g>
       <use xlink:href="#m069058c964" x="44.817319" y="209.919062" style="stroke: #000000; stroke-width: 1.35"/>
      </g>
     </g>
    </g>
    <g id="xtick_23">
     <g id="line2d_48">
      <g>
       <use xlink:href="#m069058c964" x="102.417319" y="209.919062" style="stroke: #000000; stroke-width: 1.35"/>
      </g>
     </g>
    </g>
    <g id="xtick_24">
     <g id="line2d_49">
      <g>
       <use xlink:href="#m069058c964" x="160.017319" y="209.919062" style="stroke: #000000; stroke-width: 1.35"/>
      </g>
     </g>
    </g>
    <g id="xtick_25">
     <g id="line2d_50">
      <g>
       <use xlink:href="#m069058c964" x="217.617319" y="209.919062" style="stroke: #000000; stroke-width: 1.35"/>
      </g>
     </g>
    </g>
    <g id="xtick_26">
     <g id="line2d_51">
      <g>
       <use xlink:href="#m069058c964" x="275.217319" y="209.919062" style="stroke: #000000; stroke-width: 1.35"/>
      </g>
     </g>
    </g>
    <g id="xtick_27">
     <g id="line2d_52">
      <g>
       <use xlink:href="#m0bf86a2889" x="56.337319" y="209.919062" style="stroke: #000000; stroke-width: 0.75"/>
      </g>
     </g>
    </g>
    <g id="xtick_28">
     <g id="line2d_53">
      <g>
       <use xlink:href="#m0bf86a2889" x="67.857319" y="209.919062" style="stroke: #000000; stroke-width: 0.75"/>
      </g>
     </g>
    </g>
    <g id="xtick_29">
     <g id="line2d_54">
      <g>
       <use xlink:href="#m0bf86a2889" x="79.377319" y="209.919062" style="stroke: #000000; stroke-width: 0.75"/>
      </g>
     </g>
    </g>
    <g id="xtick_30">
     <g id="line2d_55">
      <g>
       <use xlink:href="#m0bf86a2889" x="90.897319" y="209.919062" style="stroke: #000000; stroke-width: 0.75"/>
      </g>
     </g>
    </g>
    <g id="xtick_31">
     <g id="line2d_56">
      <g>
       <use xlink:href="#m0bf86a2889" x="113.937319" y="209.919062" style="stroke: #000000; stroke-width: 0.75"/>
      </g>
     </g>
    </g>
    <g id="xtick_32">
     <g id="line2d_57">
      <g>
       <use xlink:href="#m0bf86a2889" x="125.457319" y="209.919062" style="stroke: #000000; stroke-width: 0.75"/>
      </g>
     </g>
    </g>
    <g id="xtick_33">
     <g id="line2d_58">
      <g>
       <use xlink:href="#m0bf86a2889" x="136.977319" y="209.919062" style="stroke: #000000; stroke-width: 0.75"/>
      </g>
     </g>
    </g>
    <g id="xtick_34">
     <g id="line2d_59">
      <g>
       <use xlink:href="#m0bf86a2889" x="148.497319" y="209.919062" style="stroke: #000000; stroke-width: 0.75"/>
      </g>
     </g>
    </g>
    <g id="xtick_35">
     <g id="line2d_60">
      <g>
       <use xlink:href="#m0bf86a2889" x="171.537319" y="209.919062" style="stroke: #000000; stroke-width: 0.75"/>
      </g>
     </g>
    </g>
    <g id="xtick_36">
     <g id="line2d_61">
      <g>
       <use xlink:href="#m0bf86a2889" x="183.057319" y="209.919062" style="stroke: #000000; stroke-width: 0.75"/>
      </g>
     </g>
    </g>
    <g id="xtick_37">
     <g id="line2d_62">
      <g>
       <use xlink:href="#m0bf86a2889" x="194.577319" y="209.919062" style="stroke: #000000; stroke-width: 0.75"/>
      </g>
     </g>
    </g>
    <g id="xtick_38">
     <g id="line2d_63">
      <g>
       <use xlink:href="#m0bf86a2889" x="206.097319" y="209.919062" style="stroke: #000000; stroke-width: 0.75"/>
      </g>
     </g>
    </g>
    <g id="xtick_39">
     <g id="line2d_64">
      <g>
       <use xlink:href="#m0bf86a2889" x="229.137319" y="209.919062" style="stroke: #000000; stroke-width: 0.75"/>
      </g>
     </g>
    </g>
    <g id="xtick_40">
     <g id="line2d_65">
      <g>
       <use xlink:href="#m0bf86a2889" x="240.657319" y="209.919062" style="stroke: #000000; stroke-width: 0.75"/>
      </g>
     </g>
    </g>
    <g id="xtick_41">
     <g id="line2d_66">
      <g>
       <use xlink:href="#m0bf86a2889" x="252.177319" y="209.919062" style="stroke: #000000; stroke-width: 0.75"/>
      </g>
     </g>
    </g>
    <g id="xtick_42">
     <g id="line2d_67">
      <g>
       <use xlink:href="#m0bf86a2889" x="263.697319" y="209.919062" style="stroke: #000000; stroke-width: 0.75"/>
      </g>
     </g>
    </g>
   </g>
   <g id="matplotlib.axis_4">
    <g id="ytick_18">
     <g id="line2d_68">
      <g>
       <use xlink:href="#mc909eaaa45" x="44.817319" y="209.919062" style="stroke: #000000; stroke-width: 1.35"/>
      </g>
     </g>
     <g id="text_8">
      <text style="font-size: 11px; font-family: 'Times New Roman'; text-anchor: end" x="37.317319" y="213.738125" transform="rotate(-0 37.317319 213.738125)">0</text>
     </g>
    </g>
    <g id="ytick_19">
     <g id="line2d_69">
      <g>
       <use xlink:href="#mc909eaaa45" x="44.817319" y="182.294062" style="stroke: #000000; stroke-width: 1.35"/>
      </g>
     </g>
     <g id="text_9">
      <text style="font-size: 11px; font-family: 'Times New Roman'; text-anchor: end" x="37.317319" y="186.113125" transform="rotate(-0 37.317319 186.113125)">1</text>
     </g>
    </g>
    <g id="ytick_20">
     <g id="line2d_70">
      <g>
       <use xlink:href="#mc909eaaa45" x="44.817319" y="154.669062" style="stroke: #000000; stroke-width: 1.35"/>
      </g>
     </g>
     <g id="text_10">
      <text style="font-size: 11px; font-family: 'Times New Roman'; text-anchor: end" x="37.317319" y="158.488125" transform="rotate(-0 37.317319 158.488125)">2</text>
     </g>
    </g>
    <g id="ytick_21">
     <g id="line2d_71">
      <g>
       <use xlink:href="#mc909eaaa45" x="44.817319" y="127.044062" style="stroke: #000000; stroke-width: 1.35"/>
      </g>
     </g>
     <g id="text_11">
      <text style="font-size: 11px; font-family: 'Times New Roman'; text-anchor: end" x="37.317319" y="130.863125" transform="rotate(-0 37.317319 130.863125)">3</text>
     </g>
    </g>
    <g id="ytick_22">
     <g id="line2d_72">
      <g>
       <use xlink:href="#m4be2d7dfd1" x="44.817319" y="204.394062" style="stroke: #000000; stroke-width: 0.75"/>
      </g>
     </g>
    </g>
    <g id="ytick_23">
     <g id="line2d_73">
      <g>
       <use xlink:href="#m4be2d7dfd1" x="44.817319" y="198.869062" style="stroke: #000000; stroke-width: 0.75"/>
      </g>
     </g>
    </g>
    <g id="ytick_24">
     <g id="line2d_74">
      <g>
       <use xlink:href="#m4be2d7dfd1" x="44.817319" y="193.344062" style="stroke: #000000; stroke-width: 0.75"/>
      </g>
     </g>
    </g>
    <g id="ytick_25">
     <g id="line2d_75">
      <g>
       <use xlink:href="#m4be2d7dfd1" x="44.817319" y="187.819062" style="stroke: #000000; stroke-width: 0.75"/>
      </g>
     </g>
    </g>
    <g id="ytick_26">
     <g id="line2d_76">
      <g>
       <use xlink:href="#m4be2d7dfd1" x="44.817319" y="176.769062" style="stroke: #000000; stroke-width: 0.75"/>
      </g>
     </g>
    </g>
    <g id="ytick_27">
     <g id="line2d_77">
      <g>
       <use xlink:href="#m4be2d7dfd1" x="44.817319" y="171.244062" style="stroke: #000000; stroke-width: 0.75"/>
      </g>
     </g>
    </g>
    <g id="ytick_28">
     <g id="line2d_78">
      <g>
       <use xlink:href="#m4be2d7dfd1" x="44.817319" y="165.719062" style="stroke: #000000; stroke-width: 0.75"/>
      </g>
     </g>
    </g>
    <g id="ytick_29">
     <g id="line2d_79">
      <g>
       <use xlink:href="#m4be2d7dfd1" x="44.817319" y="160.194062" style="stroke: #000000; stroke-width: 0.75"/>
      </g>
     </g>
    </g>
    <g id="ytick_30">
     <g id="line2d_80">
      <g>
       <use xlink:href="#m4be2d7dfd1" x="44.817319" y="149.144062" style="stroke: #000000; stroke-width: 0.75"/>
      </g>
     </g>
    </g>
    <g id="ytick_31">
     <g id="line2d_81">
      <g>
       <use xlink:href="#m4be2d7dfd1" x="44.817319" y="143.619062" style="stroke: #000000; stroke-width: 0.75"/>
      </g>
     </g>
    </g>
    <g id="ytick_32">
     <g id="line2d_82">
      <g>
       <use xlink:href="#m4be2d7dfd1" x="44.817319" y="138.094062" style="stroke: #000000; stroke-width: 0.75"/>
      </g>
     </g>
    </g>
    <g id="ytick_33">
     <g id="line2d_83">
      <g>
       <use xlink:href="#m4be2d7dfd1" x="44.817319" y="132.569062" style="stroke: #000000; stroke-width: 0.75"/>
      </g>
     </g>
    </g>
    <g id="ytick_34">
     <g id="line2d_84">
      <g>
       <use xlink:href="#m4be2d7dfd1" x="44.817319" y="121.519062" style="stroke: #000000; stroke-width: 0.75"/>
      </g>
     </g>
    </g>
    <g id="ytick_35">
     <g id="line2d_85">
      <g>
       <use xlink:href="#m4be2d7dfd1" x="44.817319" y="115.994062" style="stroke: #000000; stroke-width: 0.75"/>
      </g>
     </g>
    </g>
    <g id="ytick_36">
     <g id="line2d_86">
      <g>
       <use xlink:href="#m4be2d7dfd1" x="44.817319" y="110.469062" style="stroke: #000000; stroke-width: 0.75"/>
      </g>
     </g>
    </g>
   </g>
   <g id="legend_2">
    <g id="patch_13">
     <path d="M 49.217319 158.531844 
L 236.485444 158.531844 
Q 238.685444 158.531844 238.685444 156.331844 
L 238.685444 114.869062 
Q 238.685444 112.669062 236.485444 112.669062 
L 49.217319 112.669062 
Q 47.017319 112.669062 47.017319 114.869062 
L 47.017319 156.331844 
Q 47.017319 158.531844 49.217319 158.531844 
z
" style="fill: #ffffff; opacity: 0.8; stroke: #cccccc; stroke-linejoin: miter"/>
    </g>
    <g id="line2d_87">
     <path d="M 51.417319 127.793031 
L 62.417319 127.793031 
L 73.417319 127.793031 
" style="fill: none; stroke: #ff7f0e; stroke-width: 1.25; stroke-linecap: square"/>
    </g>
    <g id="text_12">
     <text style="font-size: 11px; font-family: 'Times New Roman'" transform="translate(75.617319 124.707187)">Atomic B</text>
     <text style="font-size: 11px; font-family: 'Times New Roman'" transform="translate(75.617319 136.225906)">Local B-II</text>
    </g>
    <g id="line2d_88">
     <path d="M 51.417319 147.928875 
L 62.417319 147.928875 
L 73.417319 147.928875 
" style="fill: none; stroke: #9467bd; stroke-width: 1.25; stroke-linecap: square"/>
    </g>
    <g id="text_13">
     <text style="font-size: 11px; font-family: 'Times New Roman'; text-anchor: start" x="75.617319" y="151.778875" transform="rotate(-0 75.617319 151.778875)">OSP source (B-V CER + EDGE2D)</text>
    </g>
   </g>
  </g>
  <g id="axes_3">
   <g id="patch_14">
    <path d="M 44.817319 309.369062 
L 275.217319 309.369062 
L 275.217319 209.919062 
L 44.817319 209.919062 
z
" style="fill: #ffffff"/>
   </g>
   <g id="line2d_89">
    <path d="M 127.415719 309.369062 
L 127.415719 209.919062 
" clip-path="url(#pe077b56e3b)" style="fill: none; stroke-dasharray: 3.7,1.6; stroke-dashoffset: 0; stroke: #d62728"/>
   </g>
   <g id="line2d_90">
    <path d="M 201.834919 309.369062 
L 201.834919 209.919062 
" clip-path="url(#pe077b56e3b)" style="fill: none; stroke-dasharray: 3.7,1.6; stroke-dashoffset: 0; stroke: #d62728"/>
   </g>
   <g id="line2d_91">
    <path d="M 44.817319 283.409099 
L 49.896277 283.191048 
L 57.745575 282.718087 
L 60.515916 282.84913 
L 65.594874 283.378652 
L 71.597279 284.17159 
L 76.676237 284.863009 
L 79.446577 285.017413 
L 90.52794 285.335105 
L 95.606898 285.513985 
L 98.377239 285.39861 
L 100.224132 285.129155 
L 102.071026 284.603558 
L 103.456197 283.98597 
L 104.841367 283.145189 
L 106.226537 282.065668 
L 107.611708 280.74262 
L 108.996878 279.174535 
L 110.843772 276.694206 
L 112.690666 273.758379 
L 114.537559 270.384076 
L 117.3079 264.718456 
L 120.078241 259.081018 
L 121.463411 256.689044 
L 122.386858 255.386098 
L 123.310305 254.383383 
L 124.233752 253.732956 
L 125.157199 253.480579 
L 125.618922 253.517663 
L 126.080645 253.670452 
L 127.004092 254.339247 
L 127.927539 255.511146 
L 128.850986 257.194584 
L 129.774433 259.379242 
L 130.69788 262.033533 
L 132.08305 266.774187 
L 133.929944 274.093344 
L 138.085455 291.043691 
L 139.932349 297.376513 
L 141.317519 301.308041 
L 142.70269 304.472692 
L 144.08786 306.892898 
L 145.011307 308.128396 
L 145.934754 309.095389 
L 146.858201 309.826211 
L 147.781648 310.353802 
L 149.166818 310.833792 
L 150.551988 311.027393 
L 152.398882 310.98344 
L 154.707499 310.652061 
L 160.709904 309.65953 
L 163.480245 309.474568 
L 166.250585 309.541341 
L 168.559203 309.802112 
L 171.329543 310.356996 
L 177.793672 311.921745 
L 179.178842 311.941798 
L 180.102289 311.782474 
L 181.025736 311.436716 
L 181.949183 310.857609 
L 182.872629 309.994792 
L 183.796076 308.797482 
L 184.719523 307.214311 
L 185.64297 305.195273 
L 186.566417 302.694946 
L 187.489864 299.676575 
L 188.875034 294.133442 
L 190.260205 287.39453 
L 192.107098 276.871814 
L 196.724333 249.37046 
L 198.109503 242.993919 
L 199.03295 239.677668 
L 199.956397 237.220274 
L 200.879844 235.670213 
L 201.341567 235.238576 
L 201.803291 235.032759 
L 202.265014 235.046613 
L 202.726738 235.271754 
L 203.188461 235.698462 
L 204.111908 237.104999 
L 205.035355 239.151827 
L 206.420525 243.13444 
L 208.267419 249.435835 
L 211.499483 260.681625 
L 213.346377 266.26741 
L 214.731547 269.819424 
L 216.116718 272.7991 
L 217.501888 275.241886 
L 218.887058 277.208867 
L 220.272229 278.765914 
L 221.657399 279.97147 
L 223.042569 280.873208 
L 224.42774 281.51199 
L 225.81291 281.928072 
L 227.659804 282.206028 
L 229.506698 282.255048 
L 232.738762 282.061782 
L 242.896678 281.275083 
L 246.590465 281.268256 
L 251.669423 281.535288 
L 264.59768 282.400194 
L 268.753191 282.660554 
L 275.217319 283.3466 
L 275.217319 283.3466 
" clip-path="url(#pe077b56e3b)" style="fill: none; stroke: #e377c2; stroke-width: 1.25; stroke-linecap: square"/>
   </g>
   <g id="patch_15">
    <path d="M 44.817319 309.369062 
L 44.817319 209.919062 
" style="fill: none; stroke: #000000; stroke-linejoin: miter; stroke-linecap: square"/>
   </g>
   <g id="patch_16">
    <path d="M 275.217319 309.369062 
L 275.217319 209.919062 
" style="fill: none; stroke: #000000; stroke-linejoin: miter; stroke-linecap: square"/>
   </g>
   <g id="patch_17">
    <path d="M 44.817319 309.369062 
L 275.217319 309.369062 
" style="fill: none; stroke: #000000; stroke-linejoin: miter; stroke-linecap: square"/>
   </g>
   <g id="patch_18">
    <path d="M 44.817319 209.919062 
L 275.217319 209.919062 
" style="fill: none; stroke: #000000; stroke-linejoin: miter; stroke-linecap: square"/>
   </g>
   <g id="matplotlib.axis_5">
    <g id="xtick_43">
     <g id="line2d_92">
      <g>
       <use xlink:href="#m069058c964" x="44.817319" y="309.369062" style="stroke: #000000; stroke-width: 1.35"/>
      </g>
     </g>
    </g>
    <g id="xtick_44">
     <g id="line2d_93">
      <g>
       <use xlink:href="#m069058c964" x="102.417319" y="309.369062" style="stroke: #000000; stroke-width: 1.35"/>
      </g>
     </g>
    </g>
    <g id="xtick_45">
     <g id="line2d_94">
      <g>
       <use xlink:href="#m069058c964" x="160.017319" y="309.369062" style="stroke: #000000; stroke-width: 1.35"/>
      </g>
     </g>
    </g>
    <g id="xtick_46">
     <g id="line2d_95">
      <g>
       <use xlink:href="#m069058c964" x="217.617319" y="309.369062" style="stroke: #000000; stroke-width: 1.35"/>
      </g>
     </g>
    </g>
    <g id="xtick_47">
     <g id="line2d_96">
      <g>
       <use xlink:href="#m069058c964" x="275.217319" y="309.369062" style="stroke: #000000; stroke-width: 1.35"/>
      </g>
     </g>
    </g>
    <g id="xtick_48">
     <g id="line2d_97">
      <g>
       <use xlink:href="#m0bf86a2889" x="56.337319" y="309.369062" style="stroke: #000000; stroke-width: 0.75"/>
      </g>
     </g>
    </g>
    <g id="xtick_49">
     <g id="line2d_98">
      <g>
       <use xlink:href="#m0bf86a2889" x="67.857319" y="309.369062" style="stroke: #000000; stroke-width: 0.75"/>
      </g>
     </g>
    </g>
    <g id="xtick_50">
     <g id="line2d_99">
      <g>
       <use xlink:href="#m0bf86a2889" x="79.377319" y="309.369062" style="stroke: #000000; stroke-width: 0.75"/>
      </g>
     </g>
    </g>
    <g id="xtick_51">
     <g id="line2d_100">
      <g>
       <use xlink:href="#m0bf86a2889" x="90.897319" y="309.369062" style="stroke: #000000; stroke-width: 0.75"/>
      </g>
     </g>
    </g>
    <g id="xtick_52">
     <g id="line2d_101">
      <g>
       <use xlink:href="#m0bf86a2889" x="113.937319" y="309.369062" style="stroke: #000000; stroke-width: 0.75"/>
      </g>
     </g>
    </g>
    <g id="xtick_53">
     <g id="line2d_102">
      <g>
       <use xlink:href="#m0bf86a2889" x="125.457319" y="309.369062" style="stroke: #000000; stroke-width: 0.75"/>
      </g>
     </g>
    </g>
    <g id="xtick_54">
     <g id="line2d_103">
      <g>
       <use xlink:href="#m0bf86a2889" x="136.977319" y="309.369062" style="stroke: #000000; stroke-width: 0.75"/>
      </g>
     </g>
    </g>
    <g id="xtick_55">
     <g id="line2d_104">
      <g>
       <use xlink:href="#m0bf86a2889" x="148.497319" y="309.369062" style="stroke: #000000; stroke-width: 0.75"/>
      </g>
     </g>
    </g>
    <g id="xtick_56">
     <g id="line2d_105">
      <g>
       <use xlink:href="#m0bf86a2889" x="171.537319" y="309.369062" style="stroke: #000000; stroke-width: 0.75"/>
      </g>
     </g>
    </g>
    <g id="xtick_57">
     <g id="line2d_106">
      <g>
       <use xlink:href="#m0bf86a2889" x="183.057319" y="309.369062" style="stroke: #000000; stroke-width: 0.75"/>
      </g>
     </g>
    </g>
    <g id="xtick_58">
     <g id="line2d_107">
      <g>
       <use xlink:href="#m0bf86a2889" x="194.577319" y="309.369062" style="stroke: #000000; stroke-width: 0.75"/>
      </g>
     </g>
    </g>
    <g id="xtick_59">
     <g id="line2d_108">
      <g>
       <use xlink:href="#m0bf86a2889" x="206.097319" y="309.369062" style="stroke: #000000; stroke-width: 0.75"/>
      </g>
     </g>
    </g>
    <g id="xtick_60">
     <g id="line2d_109">
      <g>
       <use xlink:href="#m0bf86a2889" x="229.137319" y="309.369062" style="stroke: #000000; stroke-width: 0.75"/>
      </g>
     </g>
    </g>
    <g id="xtick_61">
     <g id="line2d_110">
      <g>
       <use xlink:href="#m0bf86a2889" x="240.657319" y="309.369062" style="stroke: #000000; stroke-width: 0.75"/>
      </g>
     </g>
    </g>
    <g id="xtick_62">
     <g id="line2d_111">
      <g>
       <use xlink:href="#m0bf86a2889" x="252.177319" y="309.369062" style="stroke: #000000; stroke-width: 0.75"/>
      </g>
     </g>
    </g>
    <g id="xtick_63">
     <g id="line2d_112">
      <g>
       <use xlink:href="#m0bf86a2889" x="263.697319" y="309.369062" style="stroke: #000000; stroke-width: 0.75"/>
      </g>
     </g>
    </g>
   </g>
   <g id="matplotlib.axis_6">
    <g id="ytick_37">
     <g id="line2d_113">
      <g>
       <use xlink:href="#mc909eaaa45" x="44.817319" y="309.369062" style="stroke: #000000; stroke-width: 1.35"/>
      </g>
     </g>
     <g id="text_14">
      <text style="font-size: 11px; font-family: 'Times New Roman'; text-anchor: end" x="37.317319" y="313.188125" transform="rotate(-0 37.317319 313.188125)">0.0</text>
     </g>
    </g>
    <g id="ytick_38">
     <g id="line2d_114">
      <g>
       <use xlink:href="#mc909eaaa45" x="44.817319" y="281.744062" style="stroke: #000000; stroke-width: 1.35"/>
      </g>
     </g>
     <g id="text_15">
      <text style="font-size: 11px; font-family: 'Times New Roman'; text-anchor: end" x="37.317319" y="285.563125" transform="rotate(-0 37.317319 285.563125)">0.5</text>
     </g>
    </g>
    <g id="ytick_39">
     <g id="line2d_115">
      <g>
       <use xlink:href="#mc909eaaa45" x="44.817319" y="254.119062" style="stroke: #000000; stroke-width: 1.35"/>
      </g>
     </g>
     <g id="text_16">
      <text style="font-size: 11px; font-family: 'Times New Roman'; text-anchor: end" x="37.317319" y="257.938125" transform="rotate(-0 37.317319 257.938125)">1.0</text>
     </g>
    </g>
    <g id="ytick_40">
     <g id="line2d_116">
      <g>
       <use xlink:href="#mc909eaaa45" x="44.817319" y="226.494062" style="stroke: #000000; stroke-width: 1.35"/>
      </g>
     </g>
     <g id="text_17">
      <text style="font-size: 11px; font-family: 'Times New Roman'; text-anchor: end" x="37.317319" y="230.313125" transform="rotate(-0 37.317319 230.313125)">1.5</text>
     </g>
    </g>
    <g id="ytick_41">
     <g id="line2d_117">
      <g>
       <use xlink:href="#m4be2d7dfd1" x="44.817319" y="303.844062" style="stroke: #000000; stroke-width: 0.75"/>
      </g>
     </g>
    </g>
    <g id="ytick_42">
     <g id="line2d_118">
      <g>
       <use xlink:href="#m4be2d7dfd1" x="44.817319" y="298.319062" style="stroke: #000000; stroke-width: 0.75"/>
      </g>
     </g>
    </g>
    <g id="ytick_43">
     <g id="line2d_119">
      <g>
       <use xlink:href="#m4be2d7dfd1" x="44.817319" y="292.794062" style="stroke: #000000; stroke-width: 0.75"/>
      </g>
     </g>
    </g>
    <g id="ytick_44">
     <g id="line2d_120">
      <g>
       <use xlink:href="#m4be2d7dfd1" x="44.817319" y="287.269062" style="stroke: #000000; stroke-width: 0.75"/>
      </g>
     </g>
    </g>
    <g id="ytick_45">
     <g id="line2d_121">
      <g>
       <use xlink:href="#m4be2d7dfd1" x="44.817319" y="276.219062" style="stroke: #000000; stroke-width: 0.75"/>
      </g>
     </g>
    </g>
    <g id="ytick_46">
     <g id="line2d_122">
      <g>
       <use xlink:href="#m4be2d7dfd1" x="44.817319" y="270.694062" style="stroke: #000000; stroke-width: 0.75"/>
      </g>
     </g>
    </g>
    <g id="ytick_47">
     <g id="line2d_123">
      <g>
       <use xlink:href="#m4be2d7dfd1" x="44.817319" y="265.169062" style="stroke: #000000; stroke-width: 0.75"/>
      </g>
     </g>
    </g>
    <g id="ytick_48">
     <g id="line2d_124">
      <g>
       <use xlink:href="#m4be2d7dfd1" x="44.817319" y="259.644062" style="stroke: #000000; stroke-width: 0.75"/>
      </g>
     </g>
    </g>
    <g id="ytick_49">
     <g id="line2d_125">
      <g>
       <use xlink:href="#m4be2d7dfd1" x="44.817319" y="248.594062" style="stroke: #000000; stroke-width: 0.75"/>
      </g>
     </g>
    </g>
    <g id="ytick_50">
     <g id="line2d_126">
      <g>
       <use xlink:href="#m4be2d7dfd1" x="44.817319" y="243.069062" style="stroke: #000000; stroke-width: 0.75"/>
      </g>
     </g>
    </g>
    <g id="ytick_51">
     <g id="line2d_127">
      <g>
       <use xlink:href="#m4be2d7dfd1" x="44.817319" y="237.544062" style="stroke: #000000; stroke-width: 0.75"/>
      </g>
     </g>
    </g>
    <g id="ytick_52">
     <g id="line2d_128">
      <g>
       <use xlink:href="#m4be2d7dfd1" x="44.817319" y="232.019062" style="stroke: #000000; stroke-width: 0.75"/>
      </g>
     </g>
    </g>
    <g id="ytick_53">
     <g id="line2d_129">
      <g>
       <use xlink:href="#m4be2d7dfd1" x="44.817319" y="220.969062" style="stroke: #000000; stroke-width: 0.75"/>
      </g>
     </g>
    </g>
    <g id="ytick_54">
     <g id="line2d_130">
      <g>
       <use xlink:href="#m4be2d7dfd1" x="44.817319" y="215.444062" style="stroke: #000000; stroke-width: 0.75"/>
      </g>
     </g>
    </g>
    <g id="ytick_55">
     <g id="line2d_131">
      <g>
       <use xlink:href="#m4be2d7dfd1" x="44.817319" y="209.919062" style="stroke: #000000; stroke-width: 0.75"/>
      </g>
     </g>
    </g>
    <g id="text_18">
     <!-- $\Gamma_{\mathrm{B}}$ ($\times 10^{18}$ atoms/s) -->
     <g transform="translate(16.979124 307.079127) rotate(-90) scale(0.12 -0.12)">
      <defs>
       <path id="NimbusRomNo9L-Regu-38" d="M 1856 2400 
C 2490 2739 2714 3008 2714 3443 
C 2714 3968 2253 4352 1613 4352 
C 915 4352 397 3923 397 3341 
C 397 2924 518 2739 1190 2150 
C 499 1625 358 1427 358 992 
C 358 371 864 -64 1587 -64 
C 2355 -64 2848 358 2848 1017 
C 2848 1510 2630 1824 1856 2400 
z
M 1741 1740 
C 2208 1408 2362 1177 2362 819 
C 2362 403 2074 115 1658 115 
C 1171 115 845 486 845 1043 
C 845 1452 986 1721 1357 2022 
L 1741 1740 
z
M 1670 2515 
C 1101 2886 870 3180 870 3539 
C 870 3910 1158 4172 1562 4172 
C 1997 4172 2272 3891 2272 3449 
C 2272 3084 2093 2796 1728 2553 
C 1696 2534 1696 2534 1670 2515 
z
" transform="scale(0.015625)"/>
      </defs>
      <use xlink:href="#StandardSymL-47" transform="scale(0.996264)"/>
      <use xlink:href="#NimbusRomNo9L-Regu-42" transform="translate(60.073735 -15.050129) scale(0.737241)"/>
      <use xlink:href="#NimbusRomNo9L-Regu-28" transform="translate(134.651855 0) scale(0.996264)"/>
      <use xlink:href="#CMSY10-2" transform="translate(167.827085 0) scale(0.996264)"/>
      <use xlink:href="#NimbusRomNo9L-Regu-31" transform="translate(245.235792 0) scale(0.996264)"/>
      <use xlink:href="#NimbusRomNo9L-Regu-30" transform="translate(295.048992 0) scale(0.996264)"/>
      <use xlink:href="#NimbusRomNo9L-Regu-31" transform="translate(344.862193 36.163231) scale(0.737241)"/>
      <use xlink:href="#NimbusRomNo9L-Regu-38" transform="translate(381.724235 36.163231) scale(0.737241)"/>
      <use xlink:href="#NimbusRomNo9L-Regu-61" transform="translate(443.991009 0) scale(0.996264)"/>
      <use xlink:href="#NimbusRomNo9L-Regu-74" transform="translate(488.224578 0) scale(0.996264)"/>
      <use xlink:href="#NimbusRomNo9L-Regu-6f" transform="translate(515.919747 0) scale(0.996264)"/>
      <use xlink:href="#NimbusRomNo9L-Regu-6d" transform="translate(565.732948 0) scale(0.996264)"/>
      <use xlink:href="#NimbusRomNo9L-Regu-73" transform="translate(643.241318 0) scale(0.996264)"/>
      <use xlink:href="#NimbusRomNo9L-Regu-2f" transform="translate(681.995024 0) scale(0.996264)"/>
      <use xlink:href="#NimbusRomNo9L-Regu-73" transform="translate(709.690194 0) scale(0.996264)"/>
      <use xlink:href="#NimbusRomNo9L-Regu-29" transform="translate(748.4439 0) scale(0.996264)"/>
     </g>
    </g>
   </g>
   <g id="legend_3">
    <g id="patch_19">
     <path d="M 49.217319 230.972031 
L 125.174038 230.972031 
Q 127.374038 230.972031 127.374038 228.772031 
L 127.374038 214.319062 
Q 127.374038 212.119062 125.174038 212.119062 
L 49.217319 212.119062 
Q 47.017319 212.119062 47.017319 214.319062 
L 47.017319 228.772031 
Q 47.017319 230.972031 49.217319 230.972031 
z
" style="fill: #ffffff; opacity: 0.8; stroke: #cccccc; stroke-linejoin: miter"/>
    </g>
    <g id="line2d_132">
     <path d="M 51.417319 220.369062 
L 62.417319 220.369062 
L 73.417319 220.369062 
" style="fill: none; stroke: #e377c2; stroke-width: 1.25; stroke-linecap: square"/>
    </g>
    <g id="text_19">
     <text style="font-size: 11px; font-family: 'Times New Roman'; text-anchor: start" x="75.617319" y="224.219062" transform="rotate(-0 75.617319 224.219062)">BI (Ysput)</text>
    </g>
   </g>
  </g>
  <g id="axes_4">
   <g id="patch_20">
    <path d="M 44.817319 408.819062 
L 275.217319 408.819062 
L 275.217319 309.369062 
L 44.817319 309.369062 
z
" style="fill: #ffffff"/>
   </g>
   <g id="line2d_133">
    <path d="M 44.817434 390.825793 
L 48.017434 393.368058 
L 49.617434 393.469449 
L 51.217434 392.253661 
L 52.817434 391.577228 
L 54.417434 392.093227 
L 56.017434 394.539047 
L 57.617434 394.329219 
L 59.217434 392.700733 
L 62.417434 390.77003 
L 64.017434 390.124527 
L 65.617434 391.752131 
L 67.217434 392.880713 
L 68.817434 393.460144 
L 70.417434 392.701111 
L 72.017434 391.517957 
L 73.617434 392.237828 
L 75.217434 392.632711 
L 76.817434 393.305265 
L 78.417434 395.300126 
L 81.617434 395.434956 
L 83.217434 394.37375 
L 84.817434 391.228106 
L 86.417434 389.334432 
L 88.017434 387.997834 
L 89.617434 388.829095 
L 91.217434 391.092645 
L 92.817434 394.137776 
L 94.417434 395.555925 
L 96.017434 395.124283 
L 97.617434 393.983564 
L 100.817434 394.074473 
L 104.017434 393.608661 
L 107.217434 390.669652 
L 108.817434 391.626167 
L 110.417434 391.887252 
L 112.017434 391.414085 
L 113.617434 389.554422 
L 115.217434 387.462111 
L 116.817434 386.707706 
L 118.417434 388.524388 
L 120.017434 386.796446 
L 121.617434 376.472052 
L 123.217434 362.051007 
L 124.817434 344.038399 
L 126.417434 331.074257 
L 128.017434 319.529405 
L 129.617434 312.46992 
L 131.217434 325.537358 
L 134.417434 375.803533 
L 136.017434 394.317802 
L 137.617434 403.466714 
L 139.217434 406.888692 
L 140.817434 408.14857 
L 142.417434 408.647527 
L 144.017434 408.678375 
L 147.217434 408.55856 
L 150.417434 408.570496 
L 153.617434 408.565059 
L 156.817434 408.540717 
L 164.817434 408.233682 
L 168.017434 408.497344 
L 172.817434 408.466909 
L 176.017434 408.640218 
L 187.217434 408.460838 
L 188.817434 408.716382 
L 190.417434 408.314504 
L 192.017434 404.997744 
L 193.617434 394.675637 
L 195.217434 373.530783 
L 196.817434 347.74296 
L 198.417434 333.250478 
L 200.017434 327.432001 
L 201.617434 318.037851 
L 203.217434 318.316386 
L 204.817434 321.585035 
L 206.417434 338.016114 
L 208.017434 356.951179 
L 209.617434 369.621085 
L 211.217434 375.885031 
L 212.817434 373.614408 
L 214.417434 365.907327 
L 216.017434 363.168176 
L 217.617434 366.431495 
L 219.217434 371.885092 
L 220.817434 372.794987 
L 222.417434 374.93245 
L 225.617434 385.99453 
L 227.217434 386.771057 
L 228.817434 385.115392 
L 230.417434 385.284436 
L 232.017434 384.701884 
L 233.617434 387.002541 
L 235.217434 388.235003 
L 236.817434 390.415911 
L 238.417434 390.133304 
L 240.017434 387.024457 
L 241.617434 381.671523 
L 243.217434 378.508534 
L 244.817434 379.932927 
L 248.017434 387.622094 
L 249.617434 389.465284 
L 251.217434 389.924118 
L 252.817434 390.805538 
L 256.017434 394.915868 
L 257.617434 395.144363 
L 259.217434 393.244107 
L 260.817434 391.965683 
L 262.417434 392.886155 
L 264.017434 393.983334 
L 265.617434 394.815487 
L 267.217434 392.56836 
L 268.817434 386.747828 
L 270.417434 385.888301 
L 272.017434 387.23407 
L 273.617434 386.580721 
L 273.617434 386.580721 
" clip-path="url(#p70bc5c4711)" style="fill: none; stroke: #8c564b; stroke-width: 1.25; stroke-linecap: square"/>
   </g>
   <g id="line2d_134">
    <path d="M 44.863468 401.845588 
L 50.252985 401.670632 
L 52.890374 401.358078 
L 55.183775 400.862496 
L 58.27989 399.915575 
L 63.096057 398.488397 
L 66.192172 397.510226 
L 68.829561 396.418688 
L 71.467065 395.366043 
L 73.531103 394.796547 
L 75.480518 394.474335 
L 81.214022 393.764286 
L 84.5395 392.780718 
L 87.406252 392.070106 
L 97.497311 390.152884 
L 99.56135 390.051313 
L 104.262892 389.943166 
L 106.212191 389.611451 
L 109.193682 388.827705 
L 112.863148 387.932169 
L 120.66069 386.196635 
L 122.839468 385.327739 
L 125.13287 384.1599 
L 127.655634 382.616674 
L 130.407762 380.936079 
L 131.439839 380.558568 
L 132.357177 380.458372 
L 133.274514 380.608483 
L 134.191852 380.990824 
L 135.567916 381.849282 
L 139.122758 384.208019 
L 140.613446 384.871112 
L 142.334418 385.390584 
L 147.265324 386.50999 
L 150.590687 387.156554 
L 153.228191 387.423315 
L 156.094943 387.501967 
L 164.007225 387.487254 
L 171.919506 388.190895 
L 177.194284 388.222913 
L 183.386514 388.08105 
L 186.711993 387.815354 
L 188.776031 387.426378 
L 190.496082 386.872968 
L 193.36295 385.647538 
L 198.752466 383.391224 
L 203.109906 382.151766 
L 204.48597 381.907973 
L 205.862034 381.899606 
L 207.352722 382.111157 
L 209.5315 382.677433 
L 215.15038 384.185231 
L 217.67303 384.805908 
L 217.67303 384.805908 
" clip-path="url(#p70bc5c4711)" style="fill: none; stroke: #2ca02c; stroke-width: 1.25; stroke-linecap: square"/>
   </g>
   <g id="line2d_135">
    <path d="M 127.415719 408.819062 
L 127.415719 309.369062 
" clip-path="url(#p70bc5c4711)" style="fill: none; stroke-dasharray: 3.7,1.6; stroke-dashoffset: 0; stroke: #d62728"/>
   </g>
   <g id="line2d_136">
    <path d="M 201.834919 408.819062 
L 201.834919 309.369062 
" clip-path="url(#p70bc5c4711)" style="fill: none; stroke-dasharray: 3.7,1.6; stroke-dashoffset: 0; stroke: #d62728"/>
   </g>
   <g id="patch_21">
    <path d="M 44.817319 408.819062 
L 44.817319 309.369062 
" style="fill: none; stroke: #000000; stroke-linejoin: miter; stroke-linecap: square"/>
   </g>
   <g id="patch_22">
    <path d="M 275.217319 408.819062 
L 275.217319 309.369062 
" style="fill: none; stroke: #000000; stroke-linejoin: miter; stroke-linecap: square"/>
   </g>
   <g id="patch_23">
    <path d="M 44.817319 408.819062 
L 275.217319 408.819062 
" style="fill: none; stroke: #000000; stroke-linejoin: miter; stroke-linecap: square"/>
   </g>
   <g id="patch_24">
    <path d="M 44.817319 309.369062 
L 275.217319 309.369062 
" style="fill: none; stroke: #000000; stroke-linejoin: miter; stroke-linecap: square"/>
   </g>
   <g id="matplotlib.axis_7">
    <g id="xtick_64">
     <g id="line2d_137">
      <g>
       <use xlink:href="#m069058c964" x="44.817319" y="408.819062" style="stroke: #000000; stroke-width: 1.35"/>
      </g>
     </g>
     <g id="text_20">
      <text style="font-size: 11px; font-family: 'Times New Roman'; text-anchor: middle" x="44.817319" y="423.957187" transform="rotate(-0 44.817319 423.957187)">1.5</text>
     </g>
    </g>
    <g id="xtick_65">
     <g id="line2d_138">
      <g>
       <use xlink:href="#m069058c964" x="102.417319" y="408.819062" style="stroke: #000000; stroke-width: 1.35"/>
      </g>
     </g>
     <g id="text_21">
      <text style="font-size: 11px; font-family: 'Times New Roman'; text-anchor: middle" x="102.417319" y="423.957187" transform="rotate(-0 102.417319 423.957187)">2.0</text>
     </g>
    </g>
    <g id="xtick_66">
     <g id="line2d_139">
      <g>
       <use xlink:href="#m069058c964" x="160.017319" y="408.819062" style="stroke: #000000; stroke-width: 1.35"/>
      </g>
     </g>
     <g id="text_22">
      <text style="font-size: 11px; font-family: 'Times New Roman'; text-anchor: middle" x="160.017319" y="423.957187" transform="rotate(-0 160.017319 423.957187)">2.5</text>
     </g>
    </g>
    <g id="xtick_67">
     <g id="line2d_140">
      <g>
       <use xlink:href="#m069058c964" x="217.617319" y="408.819062" style="stroke: #000000; stroke-width: 1.35"/>
      </g>
     </g>
     <g id="text_23">
      <text style="font-size: 11px; font-family: 'Times New Roman'; text-anchor: middle" x="217.617319" y="423.957187" transform="rotate(-0 217.617319 423.957187)">3.0</text>
     </g>
    </g>
    <g id="xtick_68">
     <g id="line2d_141">
      <g>
       <use xlink:href="#m069058c964" x="275.217319" y="408.819062" style="stroke: #000000; stroke-width: 1.35"/>
      </g>
     </g>
     <g id="text_24">
      <text style="font-size: 11px; font-family: 'Times New Roman'; text-anchor: middle" x="275.217319" y="423.957187" transform="rotate(-0 275.217319 423.957187)">3.5</text>
     </g>
    </g>
    <g id="xtick_69">
     <g id="line2d_142">
      <g>
       <use xlink:href="#m0bf86a2889" x="56.337319" y="408.819062" style="stroke: #000000; stroke-width: 0.75"/>
      </g>
     </g>
    </g>
    <g id="xtick_70">
     <g id="line2d_143">
      <g>
       <use xlink:href="#m0bf86a2889" x="67.857319" y="408.819062" style="stroke: #000000; stroke-width: 0.75"/>
      </g>
     </g>
    </g>
    <g id="xtick_71">
     <g id="line2d_144">
      <g>
       <use xlink:href="#m0bf86a2889" x="79.377319" y="408.819062" style="stroke: #000000; stroke-width: 0.75"/>
      </g>
     </g>
    </g>
    <g id="xtick_72">
     <g id="line2d_145">
      <g>
       <use xlink:href="#m0bf86a2889" x="90.897319" y="408.819062" style="stroke: #000000; stroke-width: 0.75"/>
      </g>
     </g>
    </g>
    <g id="xtick_73">
     <g id="line2d_146">
      <g>
       <use xlink:href="#m0bf86a2889" x="113.937319" y="408.819062" style="stroke: #000000; stroke-width: 0.75"/>
      </g>
     </g>
    </g>
    <g id="xtick_74">
     <g id="line2d_147">
      <g>
       <use xlink:href="#m0bf86a2889" x="125.457319" y="408.819062" style="stroke: #000000; stroke-width: 0.75"/>
      </g>
     </g>
    </g>
    <g id="xtick_75">
     <g id="line2d_148">
      <g>
       <use xlink:href="#m0bf86a2889" x="136.977319" y="408.819062" style="stroke: #000000; stroke-width: 0.75"/>
      </g>
     </g>
    </g>
    <g id="xtick_76">
     <g id="line2d_149">
      <g>
       <use xlink:href="#m0bf86a2889" x="148.497319" y="408.819062" style="stroke: #000000; stroke-width: 0.75"/>
      </g>
     </g>
    </g>
    <g id="xtick_77">
     <g id="line2d_150">
      <g>
       <use xlink:href="#m0bf86a2889" x="171.537319" y="408.819062" style="stroke: #000000; stroke-width: 0.75"/>
      </g>
     </g>
    </g>
    <g id="xtick_78">
     <g id="line2d_151">
      <g>
       <use xlink:href="#m0bf86a2889" x="183.057319" y="408.819062" style="stroke: #000000; stroke-width: 0.75"/>
      </g>
     </g>
    </g>
    <g id="xtick_79">
     <g id="line2d_152">
      <g>
       <use xlink:href="#m0bf86a2889" x="194.577319" y="408.819062" style="stroke: #000000; stroke-width: 0.75"/>
      </g>
     </g>
    </g>
    <g id="xtick_80">
     <g id="line2d_153">
      <g>
       <use xlink:href="#m0bf86a2889" x="206.097319" y="408.819062" style="stroke: #000000; stroke-width: 0.75"/>
      </g>
     </g>
    </g>
    <g id="xtick_81">
     <g id="line2d_154">
      <g>
       <use xlink:href="#m0bf86a2889" x="229.137319" y="408.819062" style="stroke: #000000; stroke-width: 0.75"/>
      </g>
     </g>
    </g>
    <g id="xtick_82">
     <g id="line2d_155">
      <g>
       <use xlink:href="#m0bf86a2889" x="240.657319" y="408.819062" style="stroke: #000000; stroke-width: 0.75"/>
      </g>
     </g>
    </g>
    <g id="xtick_83">
     <g id="line2d_156">
      <g>
       <use xlink:href="#m0bf86a2889" x="252.177319" y="408.819062" style="stroke: #000000; stroke-width: 0.75"/>
      </g>
     </g>
    </g>
    <g id="xtick_84">
     <g id="line2d_157">
      <g>
       <use xlink:href="#m0bf86a2889" x="263.697319" y="408.819062" style="stroke: #000000; stroke-width: 0.75"/>
      </g>
     </g>
    </g>
    <g id="text_25">
     <text style="font-size: 12px; font-family: 'Times New Roman'; text-anchor: middle" x="160.017319" y="438.642656" transform="rotate(-0 160.017319 438.642656)">Time (s)</text>
    </g>
   </g>
   <g id="matplotlib.axis_8">
    <g id="ytick_56">
     <g id="line2d_158">
      <g>
       <use xlink:href="#mc909eaaa45" x="44.817319" y="408.819062" style="stroke: #000000; stroke-width: 1.35"/>
      </g>
     </g>
     <g id="text_26">
      <text style="font-size: 11px; font-family: 'Times New Roman'; text-anchor: end" x="37.317319" y="412.638125" transform="rotate(-0 37.317319 412.638125)">0</text>
     </g>
    </g>
    <g id="ytick_57">
     <g id="line2d_159">
      <g>
       <use xlink:href="#mc909eaaa45" x="44.817319" y="380.404777" style="stroke: #000000; stroke-width: 1.35"/>
      </g>
     </g>
     <g id="text_27">
      <text style="font-size: 11px; font-family: 'Times New Roman'; text-anchor: end" x="37.317319" y="384.223839" transform="rotate(-0 37.317319 384.223839)">5</text>
     </g>
    </g>
    <g id="ytick_58">
     <g id="line2d_160">
      <g>
       <use xlink:href="#mc909eaaa45" x="44.817319" y="351.990491" style="stroke: #000000; stroke-width: 1.35"/>
      </g>
     </g>
     <g id="text_28">
      <text style="font-size: 11px; font-family: 'Times New Roman'; text-anchor: end" x="37.317319" y="355.809554" transform="rotate(-0 37.317319 355.809554)">10</text>
     </g>
    </g>
    <g id="ytick_59">
     <g id="line2d_161">
      <g>
       <use xlink:href="#mc909eaaa45" x="44.817319" y="323.576205" style="stroke: #000000; stroke-width: 1.35"/>
      </g>
     </g>
     <g id="text_29">
      <text style="font-size: 11px; font-family: 'Times New Roman'; text-anchor: end" x="37.317319" y="327.395268" transform="rotate(-0 37.317319 327.395268)">15</text>
     </g>
    </g>
    <g id="ytick_60">
     <g id="line2d_162">
      <g>
       <use xlink:href="#m4be2d7dfd1" x="44.817319" y="394.61192" style="stroke: #000000; stroke-width: 0.75"/>
      </g>
     </g>
    </g>
    <g id="ytick_61">
     <g id="line2d_163">
      <g>
       <use xlink:href="#m4be2d7dfd1" x="44.817319" y="366.197634" style="stroke: #000000; stroke-width: 0.75"/>
      </g>
     </g>
    </g>
    <g id="ytick_62">
     <g id="line2d_164">
      <g>
       <use xlink:href="#m4be2d7dfd1" x="44.817319" y="337.783348" style="stroke: #000000; stroke-width: 0.75"/>
      </g>
     </g>
    </g>
    <g id="ytick_63">
     <g id="line2d_165">
      <g>
       <use xlink:href="#m4be2d7dfd1" x="44.817319" y="309.369062" style="stroke: #000000; stroke-width: 0.75"/>
      </g>
     </g>
    </g>
    <g id="text_30">
     <!-- $\Gamma_{\mathrm{B}}$ ($\times 10^{15}$ atoms/s) -->
     <g transform="translate(16.979124 406.529127) rotate(-90) scale(0.12 -0.12)">
      <defs>
       <path id="NimbusRomNo9L-Regu-35" d="M 1158 3718 
L 2413 3718 
C 2515 3718 2541 3731 2560 3775 
L 2803 4345 
L 2746 4390 
C 2650 4256 2586 4224 2451 4224 
L 1114 4224 
L 416 2717 
C 410 2705 410 2698 410 2686 
C 410 2654 435 2635 486 2635 
C 691 2635 947 2591 1210 2508 
C 1946 2274 2285 1882 2285 1255 
C 2285 647 1894 172 1395 172 
C 1267 172 1158 217 966 356 
C 762 502 614 565 480 565 
C 294 565 205 489 205 331 
C 205 89 506 -64 986 -64 
C 1523 -64 1984 108 2304 432 
C 2598 717 2733 1078 2733 1559 
C 2733 2015 2611 2306 2291 2622 
C 2010 2901 1645 3047 890 3180 
L 1158 3718 
z
" transform="scale(0.015625)"/>
      </defs>
      <use xlink:href="#StandardSymL-47" transform="scale(0.996264)"/>
      <use xlink:href="#NimbusRomNo9L-Regu-42" transform="translate(60.073735 -15.050129) scale(0.737241)"/>
      <use xlink:href="#NimbusRomNo9L-Regu-28" transform="translate(134.651855 0) scale(0.996264)"/>
      <use xlink:href="#CMSY10-2" transform="translate(167.827085 0) scale(0.996264)"/>
      <use xlink:href="#NimbusRomNo9L-Regu-31" transform="translate(245.235792 0) scale(0.996264)"/>
      <use xlink:href="#NimbusRomNo9L-Regu-30" transform="translate(295.048992 0) scale(0.996264)"/>
      <use xlink:href="#NimbusRomNo9L-Regu-31" transform="translate(344.862193 36.163231) scale(0.737241)"/>
      <use xlink:href="#NimbusRomNo9L-Regu-35" transform="translate(381.724235 36.163231) scale(0.737241)"/>
      <use xlink:href="#NimbusRomNo9L-Regu-61" transform="translate(443.991009 0) scale(0.996264)"/>
      <use xlink:href="#NimbusRomNo9L-Regu-74" transform="translate(488.224578 0) scale(0.996264)"/>
      <use xlink:href="#NimbusRomNo9L-Regu-6f" transform="translate(515.919747 0) scale(0.996264)"/>
      <use xlink:href="#NimbusRomNo9L-Regu-6d" transform="translate(565.732948 0) scale(0.996264)"/>
      <use xlink:href="#NimbusRomNo9L-Regu-73" transform="translate(643.241318 0) scale(0.996264)"/>
      <use xlink:href="#NimbusRomNo9L-Regu-2f" transform="translate(681.995024 0) scale(0.996264)"/>
      <use xlink:href="#NimbusRomNo9L-Regu-73" transform="translate(709.690194 0) scale(0.996264)"/>
      <use xlink:href="#NimbusRomNo9L-Regu-29" transform="translate(748.4439 0) scale(0.996264)"/>
     </g>
    </g>
   </g>
   <g id="text_31">
    <text style="font-weight: 700; font-size: 10px; font-family: 'Times New Roman'; text-anchor: end" x="271.761319" y="404.19375" transform="rotate(-0 271.761319 404.19375)">Shot #203782</text>
   </g>
   <g id="legend_4">
    <g id="patch_25">
     <path d="M 49.217319 345.975 
L 131.576381 345.975 
Q 133.776381 345.975 133.776381 343.775 
L 133.776381 313.769062 
Q 133.776381 311.569062 131.576381 311.569062 
L 49.217319 311.569062 
Q 47.017319 311.569062 47.017319 313.769062 
L 47.017319 343.775 
Q 47.017319 345.975 49.217319 345.975 
z
" style="fill: #ffffff; opacity: 0.8; stroke: #cccccc; stroke-linejoin: miter"/>
    </g>
    <g id="line2d_166">
     <path d="M 51.417319 319.819062 
L 62.417319 319.819062 
L 73.417319 319.819062 
" style="fill: none; stroke: #8c564b; stroke-width: 1.25; stroke-linecap: square"/>
    </g>
    <g id="text_32">
     <text style="font-size: 11px; font-family: 'Times New Roman'; text-anchor: start" x="75.617319" y="323.669062" transform="rotate(-0 75.617319 323.669062)">Local BD</text>
    </g>
    <g id="line2d_167">
     <path d="M 51.417319 335.372031 
L 62.417319 335.372031 
L 73.417319 335.372031 
" style="fill: none; stroke: #2ca02c; stroke-width: 1.25; stroke-linecap: square"/>
    </g>
    <g id="text_33">
     <text style="font-size: 11px; font-family: 'Times New Roman'; text-anchor: start" x="75.617319" y="339.222031" transform="rotate(-0 75.617319 339.222031)">Evaporation</text>
    </g>
   </g>
  </g>
 </g>
 <defs>
  <clipPath id="p6fa084ff36">
   <rect x="44.817319" y="11.019062" width="230.4" height="99.45"/>
  </clipPath>
  <clipPath id="p1eb7e8ac74">
   <rect x="44.817319" y="110.469062" width="230.4" height="99.45"/>
  </clipPath>
  <clipPath id="pe077b56e3b">
   <rect x="44.817319" y="209.919062" width="230.4" height="99.45"/>
  </clipPath>
  <clipPath id="p70bc5c4711">
   <rect x="44.817319" y="309.369062" width="230.4" height="99.45"/>
  </clipPath>
 </defs>
</svg>
