<?xml version="1.0" encoding="utf-8" standalone="no"?>
<!DOCTYPE svg PUBLIC "-//W3C//DTD SVG 1.1//EN"
  "http://www.w3.org/Graphics/SVG/1.1/DTD/svg11.dtd">
<svg xmlns:xlink="http://www.w3.org/1999/xlink" width="296.39952pt" height="296.39952pt" viewBox="0 0 296.39952 296.39952" xmlns="http://www.w3.org/2000/svg" version="1.1">
 <metadata>
  <rdf:RDF xmlns:dc="http://purl.org/dc/elements/1.1/" xmlns:cc="http://creativecommons.org/ns#" xmlns:rdf="http://www.w3.org/1999/02/22-rdf-syntax-ns#">
   <cc:Work>
    <dc:type rdf:resource="http://purl.org/dc/dcmitype/StillImage"/>
    <dc:date>2025-10-31T14:12:02.947617</dc:date>
    <dc:format>image/svg+xml</dc:format>
    <dc:creator>
     <cc:Agent>
      <dc:title>Matplotlib v3.10.1, https://matplotlib.org/</dc:title>
     </cc:Agent>
    </dc:creator>
   </cc:Work>
  </rdf:RDF>
 </metadata>
 <defs>
  <style type="text/css">*{stroke-linejoin: round; stroke-linecap: butt}</style>
 </defs>
 <g id="figure_1">
  <g id="patch_1">
   <path d="M 0 296.39952 
L 296.39952 296.39952 
L 296.39952 0 
L 0 0 
z
" style="fill: #ffffff"/>
  </g>
  <g id="axes_1">
   <g id="patch_2">
    <path d="M 47.567319 254.755322 
L 283.69952 254.755322 
L 283.69952 11.019062 
L 47.567319 11.019062 
z
" style="fill: #ffffff"/>
   </g>
   <g id="LineCollection_1">
    <path d="M 240.36648 122.225774 
L 260.661129 122.225774 
" clip-path="url(#p02f974defd)" style="fill: none; stroke: #1f77b4; stroke-opacity: 0.35; stroke-width: 1.25"/>
    <path d="M 208.67867 65.94916 
L 225.637759 65.94916 
" clip-path="url(#p02f974defd)" style="fill: none; stroke: #1f77b4; stroke-opacity: 0.35; stroke-width: 1.25"/>
   </g>
   <g id="LineCollection_2">
    <path d="M 250.513805 123.882393 
L 250.513805 120.569154 
" clip-path="url(#p02f974defd)" style="fill: none; stroke: #1f77b4; stroke-opacity: 0.35; stroke-width: 1.25"/>
    <path d="M 217.158214 68.309237 
L 217.158214 63.589083 
" clip-path="url(#p02f974defd)" style="fill: none; stroke: #1f77b4; stroke-opacity: 0.35; stroke-width: 1.25"/>
   </g>
   <g id="line2d_1">
    <defs>
     <path id="mf70bb48a8c" d="M 0 2.75 
L 0 -2.75 
" style="stroke: #1f77b4; stroke-opacity: 0.35; stroke-width: 1.25"/>
    </defs>
    <g clip-path="url(#p02f974defd)">
     <use xlink:href="#mf70bb48a8c" x="240.36648" y="122.225774" style="fill: #1f77b4; fill-opacity: 0.35; stroke: #1f77b4; stroke-opacity: 0.35; stroke-width: 1.25"/>
     <use xlink:href="#mf70bb48a8c" x="208.67867" y="65.94916" style="fill: #1f77b4; fill-opacity: 0.35; stroke: #1f77b4; stroke-opacity: 0.35; stroke-width: 1.25"/>
    </g>
   </g>
   <g id="line2d_2">
    <g clip-path="url(#p02f974defd)">
     <use xlink:href="#mf70bb48a8c" x="260.661129" y="122.225774" style="fill: #1f77b4; fill-opacity: 0.35; stroke: #1f77b4; stroke-opacity: 0.35; stroke-width: 1.25"/>
     <use xlink:href="#mf70bb48a8c" x="225.637759" y="65.94916" style="fill: #1f77b4; fill-opacity: 0.35; stroke: #1f77b4; stroke-opacity: 0.35; stroke-width: 1.25"/>
    </g>
   </g>
   <g id="line2d_3">
    <defs>
     <path id="mb64dd84197" d="M 2.75 0 
L -2.75 -0 
" style="stroke: #1f77b4; stroke-opacity: 0.35; stroke-width: 1.25"/>
    </defs>
    <g clip-path="url(#p02f974defd)">
     <use xlink:href="#mb64dd84197" x="250.513805" y="123.882393" style="fill: #1f77b4; fill-opacity: 0.35; stroke: #1f77b4; stroke-opacity: 0.35; stroke-width: 1.25"/>
     <use xlink:href="#mb64dd84197" x="217.158214" y="68.309237" style="fill: #1f77b4; fill-opacity: 0.35; stroke: #1f77b4; stroke-opacity: 0.35; stroke-width: 1.25"/>
    </g>
   </g>
   <g id="line2d_4">
    <g clip-path="url(#p02f974defd)">
     <use xlink:href="#mb64dd84197" x="250.513805" y="120.569154" style="fill: #1f77b4; fill-opacity: 0.35; stroke: #1f77b4; stroke-opacity: 0.35; stroke-width: 1.25"/>
     <use xlink:href="#mb64dd84197" x="217.158214" y="63.589083" style="fill: #1f77b4; fill-opacity: 0.35; stroke: #1f77b4; stroke-opacity: 0.35; stroke-width: 1.25"/>
    </g>
   </g>
   <g id="LineCollection_3">
    <path d="M 217.527183 43.479073 
L 235.417695 43.479073 
" clip-path="url(#p02f974defd)" style="fill: none; stroke: #1f77b4; stroke-opacity: 0.35; stroke-width: 1.25"/>
    <path d="M 214.281335 55.380122 
L 231.830179 55.380122 
" clip-path="url(#p02f974defd)" style="fill: none; stroke: #1f77b4; stroke-opacity: 0.35; stroke-width: 1.25"/>
   </g>
   <g id="LineCollection_4">
    <path d="M 226.472439 46.120026 
L 226.472439 40.83812 
" clip-path="url(#p02f974defd)" style="fill: none; stroke: #1f77b4; stroke-opacity: 0.35; stroke-width: 1.25"/>
    <path d="M 223.055757 57.872312 
L 223.055757 52.887932 
" clip-path="url(#p02f974defd)" style="fill: none; stroke: #1f77b4; stroke-opacity: 0.35; stroke-width: 1.25"/>
   </g>
   <g id="line2d_5">
    <g clip-path="url(#p02f974defd)">
     <use xlink:href="#mf70bb48a8c" x="217.527183" y="43.479073" style="fill: #1f77b4; fill-opacity: 0.35; stroke: #1f77b4; stroke-opacity: 0.35; stroke-width: 1.25"/>
     <use xlink:href="#mf70bb48a8c" x="214.281335" y="55.380122" style="fill: #1f77b4; fill-opacity: 0.35; stroke: #1f77b4; stroke-opacity: 0.35; stroke-width: 1.25"/>
    </g>
   </g>
   <g id="line2d_6">
    <g clip-path="url(#p02f974defd)">
     <use xlink:href="#mf70bb48a8c" x="235.417695" y="43.479073" style="fill: #1f77b4; fill-opacity: 0.35; stroke: #1f77b4; stroke-opacity: 0.35; stroke-width: 1.25"/>
     <use xlink:href="#mf70bb48a8c" x="231.830179" y="55.380122" style="fill: #1f77b4; fill-opacity: 0.35; stroke: #1f77b4; stroke-opacity: 0.35; stroke-width: 1.25"/>
    </g>
   </g>
   <g id="line2d_7">
    <g clip-path="url(#p02f974defd)">
     <use xlink:href="#mb64dd84197" x="226.472439" y="46.120026" style="fill: #1f77b4; fill-opacity: 0.35; stroke: #1f77b4; stroke-opacity: 0.35; stroke-width: 1.25"/>
     <use xlink:href="#mb64dd84197" x="223.055757" y="57.872312" style="fill: #1f77b4; fill-opacity: 0.35; stroke: #1f77b4; stroke-opacity: 0.35; stroke-width: 1.25"/>
    </g>
   </g>
   <g id="line2d_8">
    <g clip-path="url(#p02f974defd)">
     <use xlink:href="#mb64dd84197" x="226.472439" y="40.83812" style="fill: #1f77b4; fill-opacity: 0.35; stroke: #1f77b4; stroke-opacity: 0.35; stroke-width: 1.25"/>
     <use xlink:href="#mb64dd84197" x="223.055757" y="52.887932" style="fill: #1f77b4; fill-opacity: 0.35; stroke: #1f77b4; stroke-opacity: 0.35; stroke-width: 1.25"/>
    </g>
   </g>
   <g id="LineCollection_5">
    <path d="M 169.263104 107.958837 
L 184.87788 107.958837 
" clip-path="url(#p02f974defd)" style="fill: none; stroke: #1f77b4; stroke-opacity: 0.35; stroke-width: 1.25"/>
   </g>
   <g id="LineCollection_6">
    <path d="M 177.070492 111.813361 
L 177.070492 104.104313 
" clip-path="url(#p02f974defd)" style="fill: none; stroke: #1f77b4; stroke-opacity: 0.35; stroke-width: 1.25"/>
   </g>
   <g id="line2d_9">
    <g clip-path="url(#p02f974defd)">
     <use xlink:href="#mf70bb48a8c" x="169.263104" y="107.958837" style="fill: #1f77b4; fill-opacity: 0.35; stroke: #1f77b4; stroke-opacity: 0.35; stroke-width: 1.25"/>
    </g>
   </g>
   <g id="line2d_10">
    <g clip-path="url(#p02f974defd)">
     <use xlink:href="#mf70bb48a8c" x="184.87788" y="107.958837" style="fill: #1f77b4; fill-opacity: 0.35; stroke: #1f77b4; stroke-opacity: 0.35; stroke-width: 1.25"/>
    </g>
   </g>
   <g id="line2d_11">
    <g clip-path="url(#p02f974defd)">
     <use xlink:href="#mb64dd84197" x="177.070492" y="111.813361" style="fill: #1f77b4; fill-opacity: 0.35; stroke: #1f77b4; stroke-opacity: 0.35; stroke-width: 1.25"/>
    </g>
   </g>
   <g id="line2d_12">
    <g clip-path="url(#p02f974defd)">
     <use xlink:href="#mb64dd84197" x="177.070492" y="104.104313" style="fill: #1f77b4; fill-opacity: 0.35; stroke: #1f77b4; stroke-opacity: 0.35; stroke-width: 1.25"/>
    </g>
   </g>
   <g id="LineCollection_7">
    <path d="M 62.009528 246.609096 
L 67.912833 246.609096 
" clip-path="url(#p02f974defd)" style="fill: none; stroke: #ff7f0e; stroke-opacity: 0.35; stroke-width: 1.25"/>
    <path d="M 87.698577 234.389758 
L 93.601882 234.389758 
" clip-path="url(#p02f974defd)" style="fill: none; stroke: #ff7f0e; stroke-opacity: 0.35; stroke-width: 1.25"/>
    <path d="M 112.448084 222.17042 
L 118.351389 222.17042 
" clip-path="url(#p02f974defd)" style="fill: none; stroke: #ff7f0e; stroke-opacity: 0.35; stroke-width: 1.25"/>
    <path d="M 136.37625 225.564681 
L 142.279555 225.564681 
" clip-path="url(#p02f974defd)" style="fill: none; stroke: #ff7f0e; stroke-opacity: 0.35; stroke-width: 1.25"/>
    <path d="M 159.180249 197.731744 
L 165.083554 197.731744 
" clip-path="url(#p02f974defd)" style="fill: none; stroke: #ff7f0e; stroke-opacity: 0.35; stroke-width: 1.25"/>
   </g>
   <g id="LineCollection_8">
    <path d="M 64.96118 250.449264 
L 64.96118 242.768929 
" clip-path="url(#p02f974defd)" style="fill: none; stroke: #ff7f0e; stroke-opacity: 0.35; stroke-width: 1.25"/>
    <path d="M 90.65023 254.755322 
L 90.65023 197.015407 
" clip-path="url(#p02f974defd)" style="fill: none; stroke: #ff7f0e; stroke-opacity: 0.35; stroke-width: 1.25"/>
    <path d="M 115.399736 254.755322 
L 115.399736 180.960145 
" clip-path="url(#p02f974defd)" style="fill: none; stroke: #ff7f0e; stroke-opacity: 0.35; stroke-width: 1.25"/>
    <path d="M 139.327902 252.79153 
L 139.327902 198.337831 
" clip-path="url(#p02f974defd)" style="fill: none; stroke: #ff7f0e; stroke-opacity: 0.35; stroke-width: 1.25"/>
    <path d="M 162.131902 239.21713 
L 162.131902 156.246357 
" clip-path="url(#p02f974defd)" style="fill: none; stroke: #ff7f0e; stroke-opacity: 0.35; stroke-width: 1.25"/>
   </g>
   <g id="line2d_13">
    <defs>
     <path id="m47433ae881" d="M 0 2.75 
L 0 -2.75 
" style="stroke: #ff7f0e; stroke-opacity: 0.35; stroke-width: 1.25"/>
    </defs>
    <g clip-path="url(#p02f974defd)">
     <use xlink:href="#m47433ae881" x="62.009528" y="246.609096" style="fill: #ff7f0e; fill-opacity: 0.35; stroke: #ff7f0e; stroke-opacity: 0.35; stroke-width: 1.25"/>
     <use xlink:href="#m47433ae881" x="87.698577" y="234.389758" style="fill: #ff7f0e; fill-opacity: 0.35; stroke: #ff7f0e; stroke-opacity: 0.35; stroke-width: 1.25"/>
     <use xlink:href="#m47433ae881" x="112.448084" y="222.17042" style="fill: #ff7f0e; fill-opacity: 0.35; stroke: #ff7f0e; stroke-opacity: 0.35; stroke-width: 1.25"/>
     <use xlink:href="#m47433ae881" x="136.37625" y="225.564681" style="fill: #ff7f0e; fill-opacity: 0.35; stroke: #ff7f0e; stroke-opacity: 0.35; stroke-width: 1.25"/>
     <use xlink:href="#m47433ae881" x="159.180249" y="197.731744" style="fill: #ff7f0e; fill-opacity: 0.35; stroke: #ff7f0e; stroke-opacity: 0.35; stroke-width: 1.25"/>
    </g>
   </g>
   <g id="line2d_14">
    <g clip-path="url(#p02f974defd)">
     <use xlink:href="#m47433ae881" x="67.912833" y="246.609096" style="fill: #ff7f0e; fill-opacity: 0.35; stroke: #ff7f0e; stroke-opacity: 0.35; stroke-width: 1.25"/>
     <use xlink:href="#m47433ae881" x="93.601882" y="234.389758" style="fill: #ff7f0e; fill-opacity: 0.35; stroke: #ff7f0e; stroke-opacity: 0.35; stroke-width: 1.25"/>
     <use xlink:href="#m47433ae881" x="118.351389" y="222.17042" style="fill: #ff7f0e; fill-opacity: 0.35; stroke: #ff7f0e; stroke-opacity: 0.35; stroke-width: 1.25"/>
     <use xlink:href="#m47433ae881" x="142.279555" y="225.564681" style="fill: #ff7f0e; fill-opacity: 0.35; stroke: #ff7f0e; stroke-opacity: 0.35; stroke-width: 1.25"/>
     <use xlink:href="#m47433ae881" x="165.083554" y="197.731744" style="fill: #ff7f0e; fill-opacity: 0.35; stroke: #ff7f0e; stroke-opacity: 0.35; stroke-width: 1.25"/>
    </g>
   </g>
   <g id="line2d_15">
    <defs>
     <path id="m42cdb40702" d="M 2.75 0 
L -2.75 -0 
" style="stroke: #ff7f0e; stroke-opacity: 0.35; stroke-width: 1.25"/>
    </defs>
    <g clip-path="url(#p02f974defd)">
     <use xlink:href="#m42cdb40702" x="64.96118" y="250.449264" style="fill: #ff7f0e; fill-opacity: 0.35; stroke: #ff7f0e; stroke-opacity: 0.35; stroke-width: 1.25"/>
     <use xlink:href="#m42cdb40702" x="90.65023" y="254.755322" style="fill: #ff7f0e; fill-opacity: 0.35; stroke: #ff7f0e; stroke-opacity: 0.35; stroke-width: 1.25"/>
     <use xlink:href="#m42cdb40702" x="115.399736" y="254.755322" style="fill: #ff7f0e; fill-opacity: 0.35; stroke: #ff7f0e; stroke-opacity: 0.35; stroke-width: 1.25"/>
     <use xlink:href="#m42cdb40702" x="139.327902" y="252.79153" style="fill: #ff7f0e; fill-opacity: 0.35; stroke: #ff7f0e; stroke-opacity: 0.35; stroke-width: 1.25"/>
     <use xlink:href="#m42cdb40702" x="162.131902" y="239.21713" style="fill: #ff7f0e; fill-opacity: 0.35; stroke: #ff7f0e; stroke-opacity: 0.35; stroke-width: 1.25"/>
    </g>
   </g>
   <g id="line2d_16">
    <g clip-path="url(#p02f974defd)">
     <use xlink:href="#m42cdb40702" x="64.96118" y="242.768929" style="fill: #ff7f0e; fill-opacity: 0.35; stroke: #ff7f0e; stroke-opacity: 0.35; stroke-width: 1.25"/>
     <use xlink:href="#m42cdb40702" x="90.65023" y="197.015407" style="fill: #ff7f0e; fill-opacity: 0.35; stroke: #ff7f0e; stroke-opacity: 0.35; stroke-width: 1.25"/>
     <use xlink:href="#m42cdb40702" x="115.399736" y="180.960145" style="fill: #ff7f0e; fill-opacity: 0.35; stroke: #ff7f0e; stroke-opacity: 0.35; stroke-width: 1.25"/>
     <use xlink:href="#m42cdb40702" x="139.327902" y="198.337831" style="fill: #ff7f0e; fill-opacity: 0.35; stroke: #ff7f0e; stroke-opacity: 0.35; stroke-width: 1.25"/>
     <use xlink:href="#m42cdb40702" x="162.131902" y="156.246357" style="fill: #ff7f0e; fill-opacity: 0.35; stroke: #ff7f0e; stroke-opacity: 0.35; stroke-width: 1.25"/>
    </g>
   </g>
   <g id="line2d_17">
    <defs>
     <path id="mf655d12d37" d="M 0 4.5 
C 1.193414 4.5 2.338109 4.025852 3.181981 3.181981 
C 4.025852 2.338109 4.5 1.193414 4.5 0 
C 4.5 -1.193414 4.025852 -2.338109 3.181981 -3.181981 
C 2.338109 -4.025852 1.193414 -4.5 0 -4.5 
C -1.193414 -4.5 -2.338109 -4.025852 -3.181981 -3.181981 
C -4.025852 -2.338109 -4.5 -1.193414 -4.5 0 
C -4.5 1.193414 -4.025852 2.338109 -3.181981 3.181981 
C -2.338109 4.025852 -1.193414 4.5 0 4.5 
z
" style="stroke: #1f77b4; stroke-width: 1.25"/>
    </defs>
    <g clip-path="url(#p02f974defd)">
     <use xlink:href="#mf655d12d37" x="250.513805" y="122.225774" style="fill-opacity: 0; stroke: #1f77b4; stroke-width: 1.25"/>
     <use xlink:href="#mf655d12d37" x="217.158214" y="65.94916" style="fill-opacity: 0; stroke: #1f77b4; stroke-width: 1.25"/>
    </g>
   </g>
   <g id="line2d_18">
    <g clip-path="url(#p02f974defd)">
     <use xlink:href="#mf655d12d37" x="226.472439" y="43.479073" style="fill-opacity: 0; stroke: #1f77b4; stroke-width: 1.25"/>
     <use xlink:href="#mf655d12d37" x="223.055757" y="55.380122" style="fill-opacity: 0; stroke: #1f77b4; stroke-width: 1.25"/>
    </g>
   </g>
   <g id="line2d_19">
    <g clip-path="url(#p02f974defd)">
     <use xlink:href="#mf655d12d37" x="177.070492" y="107.958837" style="fill-opacity: 0; stroke: #1f77b4; stroke-width: 1.25"/>
    </g>
   </g>
   <g id="line2d_20">
    <defs>
     <path id="ma232c74e93" d="M -4.5 4.5 
L 4.5 4.5 
L 4.5 -4.5 
L -4.5 -4.5 
z
" style="stroke: #ff7f0e; stroke-width: 1.25; stroke-linejoin: miter"/>
    </defs>
    <g clip-path="url(#p02f974defd)">
     <use xlink:href="#ma232c74e93" x="64.96118" y="246.609096" style="fill-opacity: 0; stroke: #ff7f0e; stroke-width: 1.25; stroke-linejoin: miter"/>
     <use xlink:href="#ma232c74e93" x="90.65023" y="234.389758" style="fill-opacity: 0; stroke: #ff7f0e; stroke-width: 1.25; stroke-linejoin: miter"/>
     <use xlink:href="#ma232c74e93" x="115.399736" y="222.17042" style="fill-opacity: 0; stroke: #ff7f0e; stroke-width: 1.25; stroke-linejoin: miter"/>
     <use xlink:href="#ma232c74e93" x="139.327902" y="225.564681" style="fill-opacity: 0; stroke: #ff7f0e; stroke-width: 1.25; stroke-linejoin: miter"/>
     <use xlink:href="#ma232c74e93" x="162.131902" y="197.731744" style="fill-opacity: 0; stroke: #ff7f0e; stroke-width: 1.25; stroke-linejoin: miter"/>
    </g>
   </g>
   <g id="patch_3">
    <path d="M 47.567319 254.755322 
L 47.567319 11.019062 
" style="fill: none; stroke: #000000; stroke-linejoin: miter; stroke-linecap: square"/>
   </g>
   <g id="patch_4">
    <path d="M 283.69952 254.755322 
L 283.69952 11.019062 
" style="fill: none; stroke: #000000; stroke-linejoin: miter; stroke-linecap: square"/>
   </g>
   <g id="patch_5">
    <path d="M 47.567319 254.755322 
L 283.69952 254.755322 
" style="fill: none; stroke: #000000; stroke-linejoin: miter; stroke-linecap: square"/>
   </g>
   <g id="patch_6">
    <path d="M 47.567319 11.019062 
L 283.69952 11.019062 
" style="fill: none; stroke: #000000; stroke-linejoin: miter; stroke-linecap: square"/>
   </g>
   <g id="matplotlib.axis_1">
    <g id="xtick_1">
     <g id="line2d_21">
      <defs>
       <path id="ma09ba2bff8" d="M 0 0 
L 0 4 
" style="stroke: #000000; stroke-width: 1.35"/>
      </defs>
      <g>
       <use xlink:href="#ma09ba2bff8" x="47.567319" y="254.755322" style="stroke: #000000; stroke-width: 1.35"/>
      </g>
     </g>
     <g id="text_1">
      <text style="font-size: 11px; font-family: 'Times New Roman'; text-anchor: middle" x="47.567319" y="269.893447" transform="rotate(-0 47.567319 269.893447)">0</text>
     </g>
    </g>
    <g id="xtick_2">
     <g id="line2d_22">
      <g>
       <use xlink:href="#ma09ba2bff8" x="77.083844" y="254.755322" style="stroke: #000000; stroke-width: 1.35"/>
      </g>
     </g>
     <g id="text_2">
      <text style="font-size: 11px; font-family: 'Times New Roman'; text-anchor: middle" x="77.083844" y="269.893447" transform="rotate(-0 77.083844 269.893447)">10</text>
     </g>
    </g>
    <g id="xtick_3">
     <g id="line2d_23">
      <g>
       <use xlink:href="#ma09ba2bff8" x="106.600369" y="254.755322" style="stroke: #000000; stroke-width: 1.35"/>
      </g>
     </g>
     <g id="text_3">
      <text style="font-size: 11px; font-family: 'Times New Roman'; text-anchor: middle" x="106.600369" y="269.893447" transform="rotate(-0 106.600369 269.893447)">20</text>
     </g>
    </g>
    <g id="xtick_4">
     <g id="line2d_24">
      <g>
       <use xlink:href="#ma09ba2bff8" x="136.116894" y="254.755322" style="stroke: #000000; stroke-width: 1.35"/>
      </g>
     </g>
     <g id="text_4">
      <text style="font-size: 11px; font-family: 'Times New Roman'; text-anchor: middle" x="136.116894" y="269.893447" transform="rotate(-0 136.116894 269.893447)">30</text>
     </g>
    </g>
    <g id="xtick_5">
     <g id="line2d_25">
      <g>
       <use xlink:href="#ma09ba2bff8" x="165.633419" y="254.755322" style="stroke: #000000; stroke-width: 1.35"/>
      </g>
     </g>
     <g id="text_5">
      <text style="font-size: 11px; font-family: 'Times New Roman'; text-anchor: middle" x="165.633419" y="269.893447" transform="rotate(-0 165.633419 269.893447)">40</text>
     </g>
    </g>
    <g id="xtick_6">
     <g id="line2d_26">
      <g>
       <use xlink:href="#ma09ba2bff8" x="195.149945" y="254.755322" style="stroke: #000000; stroke-width: 1.35"/>
      </g>
     </g>
     <g id="text_6">
      <text style="font-size: 11px; font-family: 'Times New Roman'; text-anchor: middle" x="195.149945" y="269.893447" transform="rotate(-0 195.149945 269.893447)">50</text>
     </g>
    </g>
    <g id="xtick_7">
     <g id="line2d_27">
      <g>
       <use xlink:href="#ma09ba2bff8" x="224.66647" y="254.755322" style="stroke: #000000; stroke-width: 1.35"/>
      </g>
     </g>
     <g id="text_7">
      <text style="font-size: 11px; font-family: 'Times New Roman'; text-anchor: middle" x="224.66647" y="269.893447" transform="rotate(-0 224.66647 269.893447)">60</text>
     </g>
    </g>
    <g id="xtick_8">
     <g id="line2d_28">
      <g>
       <use xlink:href="#ma09ba2bff8" x="254.182995" y="254.755322" style="stroke: #000000; stroke-width: 1.35"/>
      </g>
     </g>
     <g id="text_8">
      <text style="font-size: 11px; font-family: 'Times New Roman'; text-anchor: middle" x="254.182995" y="269.893447" transform="rotate(-0 254.182995 269.893447)">70</text>
     </g>
    </g>
    <g id="xtick_9">
     <g id="line2d_29">
      <g>
       <use xlink:href="#ma09ba2bff8" x="283.69952" y="254.755322" style="stroke: #000000; stroke-width: 1.35"/>
      </g>
     </g>
     <g id="text_9">
      <text style="font-size: 11px; font-family: 'Times New Roman'; text-anchor: middle" x="283.69952" y="269.893447" transform="rotate(-0 283.69952 269.893447)">80</text>
     </g>
    </g>
    <g id="xtick_10">
     <g id="line2d_30">
      <defs>
       <path id="m8cdfd10fd5" d="M 0 0 
L 0 2.5 
" style="stroke: #000000; stroke-width: 0.75"/>
      </defs>
      <g>
       <use xlink:href="#m8cdfd10fd5" x="62.325581" y="254.755322" style="stroke: #000000; stroke-width: 0.75"/>
      </g>
     </g>
    </g>
    <g id="xtick_11">
     <g id="line2d_31">
      <g>
       <use xlink:href="#m8cdfd10fd5" x="91.842107" y="254.755322" style="stroke: #000000; stroke-width: 0.75"/>
      </g>
     </g>
    </g>
    <g id="xtick_12">
     <g id="line2d_32">
      <g>
       <use xlink:href="#m8cdfd10fd5" x="121.358632" y="254.755322" style="stroke: #000000; stroke-width: 0.75"/>
      </g>
     </g>
    </g>
    <g id="xtick_13">
     <g id="line2d_33">
      <g>
       <use xlink:href="#m8cdfd10fd5" x="150.875157" y="254.755322" style="stroke: #000000; stroke-width: 0.75"/>
      </g>
     </g>
    </g>
    <g id="xtick_14">
     <g id="line2d_34">
      <g>
       <use xlink:href="#m8cdfd10fd5" x="180.391682" y="254.755322" style="stroke: #000000; stroke-width: 0.75"/>
      </g>
     </g>
    </g>
    <g id="xtick_15">
     <g id="line2d_35">
      <g>
       <use xlink:href="#m8cdfd10fd5" x="209.908207" y="254.755322" style="stroke: #000000; stroke-width: 0.75"/>
      </g>
     </g>
    </g>
    <g id="xtick_16">
     <g id="line2d_36">
      <g>
       <use xlink:href="#m8cdfd10fd5" x="239.424732" y="254.755322" style="stroke: #000000; stroke-width: 0.75"/>
      </g>
     </g>
    </g>
    <g id="xtick_17">
     <g id="line2d_37">
      <g>
       <use xlink:href="#m8cdfd10fd5" x="268.941257" y="254.755322" style="stroke: #000000; stroke-width: 0.75"/>
      </g>
     </g>
    </g>
    <g id="text_10">
     <!-- $q$ (MW/m\textsuperscript{2}) -->
     <g transform="translate(137.409524 286.611325) scale(0.12 -0.12)">
      <defs>
       <path id="NimbusRomNo9L-ReguItal-71" d="M 2502 -1216 
L 2394 -1216 
C 2157 -1216 2022 -1152 2029 -1031 
C 2029 -1012 2035 -986 2042 -960 
L 3091 2719 
L 2624 2719 
L 2528 2420 
C 2426 2713 2298 2816 2035 2816 
C 1190 2816 160 1643 160 676 
C 160 224 410 -64 813 -64 
C 1267 -64 1562 172 2131 981 
L 1562 -890 
C 1478 -1146 1376 -1197 960 -1229 
L 960 -1332 
L 2502 -1332 
L 2502 -1216 
z
M 2054 2675 
C 2266 2675 2432 2503 2432 2286 
C 2432 1758 1997 854 1562 491 
C 1395 351 1222 275 1069 275 
C 851 275 710 466 710 765 
C 710 1236 1043 1943 1459 2363 
C 1658 2560 1869 2675 2054 2675 
z
" transform="scale(0.015625)"/>
       <path id="NimbusRomNo9L-Regu-28" d="M 1888 4352 
C 1414 4044 1222 3878 986 3583 
C 531 3027 307 2387 307 1638 
C 307 825 544 198 1107 -455 
C 1370 -762 1536 -903 1869 -1108 
L 1946 -1006 
C 1434 -602 1254 -378 1082 102 
C 928 530 858 1017 858 1657 
C 858 2329 941 2854 1114 3251 
C 1293 3647 1485 3878 1946 4249 
L 1888 4352 
z
" transform="scale(0.015625)"/>
       <path id="NimbusRomNo9L-Regu-4d" d="M 4314 3656 
L 4314 765 
C 4314 236 4237 153 3731 121 
L 3731 0 
L 5523 0 
L 5523 121 
C 5056 153 4966 242 4966 695 
L 4966 3528 
C 4966 3981 5050 4064 5523 4102 
L 5523 4224 
L 4250 4224 
L 2835 1002 
L 1357 4224 
L 90 4224 
L 90 4102 
C 614 4070 698 3994 698 3528 
L 698 938 
C 698 281 608 159 77 121 
L 77 0 
L 1581 0 
L 1581 121 
C 1088 147 979 293 979 938 
L 979 3509 
L 2586 0 
L 2675 0 
L 4314 3656 
z
" transform="scale(0.015625)"/>
       <path id="NimbusRomNo9L-Regu-57" d="M 5965 4224 
L 4698 4224 
L 4698 4102 
C 5024 4070 5139 4000 5139 3828 
C 5139 3694 5101 3529 5037 3350 
L 4237 1191 
L 3392 3363 
C 3379 3395 3322 3535 3315 3554 
C 3258 3688 3219 3809 3219 3879 
C 3219 4032 3366 4095 3712 4102 
L 3712 4224 
L 2003 4224 
L 2003 4102 
C 2368 4095 2432 4038 2650 3529 
L 2861 3007 
L 2176 1210 
L 1254 3605 
C 1210 3720 1184 3828 1184 3898 
C 1184 4038 1274 4083 1600 4102 
L 1600 4224 
L 32 4224 
L 32 4102 
C 358 4070 454 3956 691 3357 
L 1926 -64 
L 2022 -64 
L 3008 2631 
L 4032 -64 
L 4128 -64 
C 4672 1599 4736 1777 5434 3650 
C 5555 3981 5626 4038 5965 4102 
L 5965 4224 
z
" transform="scale(0.015625)"/>
       <path id="NimbusRomNo9L-Regu-2f" d="M 1837 4352 
L 1408 4352 
L -58 -64 
L 378 -64 
L 1837 4352 
z
" transform="scale(0.015625)"/>
       <path id="NimbusRomNo9L-Regu-6d" d="M 122 2547 
C 205 2566 256 2572 326 2572 
C 493 2572 550 2470 550 2163 
L 550 544 
C 550 198 461 102 102 96 
L 102 0 
L 1523 0 
L 1523 96 
C 1184 108 1088 179 1088 428 
L 1088 2233 
C 1088 2246 1139 2310 1184 2355 
C 1344 2502 1619 2611 1843 2611 
C 2125 2611 2266 2387 2266 1939 
L 2266 550 
C 2266 192 2195 121 1830 96 
L 1830 0 
L 3264 0 
L 3264 96 
C 2899 102 2803 211 2803 608 
L 2803 2220 
C 2995 2496 3206 2611 3501 2611 
C 3866 2611 3981 2438 3981 1907 
L 3981 556 
C 3981 192 3930 140 3558 96 
L 3558 0 
L 4960 0 
L 4960 96 
L 4794 108 
C 4602 121 4518 236 4518 486 
L 4518 1804 
C 4518 2560 4269 2944 3776 2944 
C 3405 2944 3078 2777 2733 2406 
C 2618 2771 2400 2944 2054 2944 
C 1773 2944 1594 2854 1062 2451 
L 1062 2931 
L 1018 2944 
C 691 2822 474 2751 122 2655 
L 122 2547 
z
" transform="scale(0.015625)"/>
       <path id="NimbusRomNo9L-Regu-32" d="M 3040 879 
L 2957 912 
C 2720 544 2637 486 2349 486 
L 819 486 
L 1894 1621 
C 2464 2221 2714 2711 2714 3214 
C 2714 3858 2195 4352 1530 4352 
C 1178 4352 845 4211 608 3955 
C 403 3736 307 3530 198 3072 
L 333 3039 
C 589 3671 819 3878 1261 3878 
C 1798 3878 2163 3510 2163 2969 
C 2163 2466 1869 1866 1331 1292 
L 192 76 
L 192 0 
L 2688 0 
L 3040 879 
z
" transform="scale(0.015625)"/>
       <path id="NimbusRomNo9L-Regu-29" d="M 243 -1108 
C 717 -801 909 -634 1146 -340 
C 1600 217 1824 857 1824 1606 
C 1824 2425 1587 3046 1024 3699 
C 762 4006 595 4147 262 4352 
L 186 4249 
C 698 3846 870 3622 1050 3142 
C 1203 2713 1274 2227 1274 1587 
C 1274 921 1190 390 1018 -1 
C 838 -404 646 -634 186 -1006 
L 243 -1108 
z
" transform="scale(0.015625)"/>
      </defs>
      <use xlink:href="#NimbusRomNo9L-ReguItal-71" transform="scale(0.996264)"/>
      <use xlink:href="#NimbusRomNo9L-Regu-28" transform="translate(74.719801 0) scale(0.996264)"/>
      <use xlink:href="#NimbusRomNo9L-Regu-4d" transform="translate(107.89503 0) scale(0.996264)"/>
      <use xlink:href="#NimbusRomNo9L-Regu-57" transform="translate(196.461937 0) scale(0.996264)"/>
      <use xlink:href="#NimbusRomNo9L-Regu-2f" transform="translate(290.508706 0) scale(0.996264)"/>
      <use xlink:href="#NimbusRomNo9L-Regu-6d" transform="translate(318.203876 0) scale(0.996264)"/>
      <use xlink:href="#NimbusRomNo9L-Regu-32" transform="translate(395.712246 36.163231) scale(0.737241)"/>
      <use xlink:href="#NimbusRomNo9L-Regu-29" transform="translate(433.07242 0) scale(0.996264)"/>
     </g>
    </g>
   </g>
   <g id="matplotlib.axis_2">
    <g id="ytick_1">
     <g id="line2d_38">
      <defs>
       <path id="mc161c617ef" d="M 0 0 
L -4 0 
" style="stroke: #000000; stroke-width: 1.35"/>
      </defs>
      <g>
       <use xlink:href="#mc161c617ef" x="47.567319" y="254.755322" style="stroke: #000000; stroke-width: 1.35"/>
      </g>
     </g>
     <g id="text_11">
      <text style="font-size: 11px; font-family: 'Times New Roman'; text-anchor: end" x="40.067319" y="258.574384" transform="rotate(-0 40.067319 258.574384)">0</text>
     </g>
    </g>
    <g id="ytick_2">
     <g id="line2d_39">
      <g>
       <use xlink:href="#mc161c617ef" x="47.567319" y="206.00807" style="stroke: #000000; stroke-width: 1.35"/>
      </g>
     </g>
     <g id="text_12">
      <text style="font-size: 11px; font-family: 'Times New Roman'; text-anchor: end" x="40.067319" y="209.827133" transform="rotate(-0 40.067319 209.827133)">20</text>
     </g>
    </g>
    <g id="ytick_3">
     <g id="line2d_40">
      <g>
       <use xlink:href="#mc161c617ef" x="47.567319" y="157.260818" style="stroke: #000000; stroke-width: 1.35"/>
      </g>
     </g>
     <g id="text_13">
      <text style="font-size: 11px; font-family: 'Times New Roman'; text-anchor: end" x="40.067319" y="161.079881" transform="rotate(-0 40.067319 161.079881)">40</text>
     </g>
    </g>
    <g id="ytick_4">
     <g id="line2d_41">
      <g>
       <use xlink:href="#mc161c617ef" x="47.567319" y="108.513566" style="stroke: #000000; stroke-width: 1.35"/>
      </g>
     </g>
     <g id="text_14">
      <text style="font-size: 11px; font-family: 'Times New Roman'; text-anchor: end" x="40.067319" y="112.332629" transform="rotate(-0 40.067319 112.332629)">60</text>
     </g>
    </g>
    <g id="ytick_5">
     <g id="line2d_42">
      <g>
       <use xlink:href="#mc161c617ef" x="47.567319" y="59.766314" style="stroke: #000000; stroke-width: 1.35"/>
      </g>
     </g>
     <g id="text_15">
      <text style="font-size: 11px; font-family: 'Times New Roman'; text-anchor: end" x="40.067319" y="63.585377" transform="rotate(-0 40.067319 63.585377)">80</text>
     </g>
    </g>
    <g id="ytick_6">
     <g id="line2d_43">
      <g>
       <use xlink:href="#mc161c617ef" x="47.567319" y="11.019062" style="stroke: #000000; stroke-width: 1.35"/>
      </g>
     </g>
     <g id="text_16">
      <text style="font-size: 11px; font-family: 'Times New Roman'; text-anchor: end" x="40.067319" y="14.838125" transform="rotate(-0 40.067319 14.838125)">100</text>
     </g>
    </g>
    <g id="ytick_7">
     <g id="line2d_44">
      <defs>
       <path id="m894eddb3a2" d="M 0 0 
L -2.5 0 
" style="stroke: #000000; stroke-width: 0.75"/>
      </defs>
      <g>
       <use xlink:href="#m894eddb3a2" x="47.567319" y="242.568509" style="stroke: #000000; stroke-width: 0.75"/>
      </g>
     </g>
    </g>
    <g id="ytick_8">
     <g id="line2d_45">
      <g>
       <use xlink:href="#m894eddb3a2" x="47.567319" y="230.381696" style="stroke: #000000; stroke-width: 0.75"/>
      </g>
     </g>
    </g>
    <g id="ytick_9">
     <g id="line2d_46">
      <g>
       <use xlink:href="#m894eddb3a2" x="47.567319" y="218.194883" style="stroke: #000000; stroke-width: 0.75"/>
      </g>
     </g>
    </g>
    <g id="ytick_10">
     <g id="line2d_47">
      <g>
       <use xlink:href="#m894eddb3a2" x="47.567319" y="193.821257" style="stroke: #000000; stroke-width: 0.75"/>
      </g>
     </g>
    </g>
    <g id="ytick_11">
     <g id="line2d_48">
      <g>
       <use xlink:href="#m894eddb3a2" x="47.567319" y="181.634444" style="stroke: #000000; stroke-width: 0.75"/>
      </g>
     </g>
    </g>
    <g id="ytick_12">
     <g id="line2d_49">
      <g>
       <use xlink:href="#m894eddb3a2" x="47.567319" y="169.447631" style="stroke: #000000; stroke-width: 0.75"/>
      </g>
     </g>
    </g>
    <g id="ytick_13">
     <g id="line2d_50">
      <g>
       <use xlink:href="#m894eddb3a2" x="47.567319" y="145.074005" style="stroke: #000000; stroke-width: 0.75"/>
      </g>
     </g>
    </g>
    <g id="ytick_14">
     <g id="line2d_51">
      <g>
       <use xlink:href="#m894eddb3a2" x="47.567319" y="132.887192" style="stroke: #000000; stroke-width: 0.75"/>
      </g>
     </g>
    </g>
    <g id="ytick_15">
     <g id="line2d_52">
      <g>
       <use xlink:href="#m894eddb3a2" x="47.567319" y="120.700379" style="stroke: #000000; stroke-width: 0.75"/>
      </g>
     </g>
    </g>
    <g id="ytick_16">
     <g id="line2d_53">
      <g>
       <use xlink:href="#m894eddb3a2" x="47.567319" y="96.326753" style="stroke: #000000; stroke-width: 0.75"/>
      </g>
     </g>
    </g>
    <g id="ytick_17">
     <g id="line2d_54">
      <g>
       <use xlink:href="#m894eddb3a2" x="47.567319" y="84.13994" style="stroke: #000000; stroke-width: 0.75"/>
      </g>
     </g>
    </g>
    <g id="ytick_18">
     <g id="line2d_55">
      <g>
       <use xlink:href="#m894eddb3a2" x="47.567319" y="71.953127" style="stroke: #000000; stroke-width: 0.75"/>
      </g>
     </g>
    </g>
    <g id="ytick_19">
     <g id="line2d_56">
      <g>
       <use xlink:href="#m894eddb3a2" x="47.567319" y="47.579501" style="stroke: #000000; stroke-width: 0.75"/>
      </g>
     </g>
    </g>
    <g id="ytick_20">
     <g id="line2d_57">
      <g>
       <use xlink:href="#m894eddb3a2" x="47.567319" y="35.392688" style="stroke: #000000; stroke-width: 0.75"/>
      </g>
     </g>
    </g>
    <g id="ytick_21">
     <g id="line2d_58">
      <g>
       <use xlink:href="#m894eddb3a2" x="47.567319" y="23.205875" style="stroke: #000000; stroke-width: 0.75"/>
      </g>
     </g>
    </g>
    <g id="text_17">
     <!-- Total boron emission ($\times10^{20}$ atoms/s) -->
     <g transform="translate(16.979124 223.809281) rotate(-90) scale(0.12 -0.12)">
      <defs>
       <path id="NimbusRomNo9L-Regu-54" d="M 1626 3955 
L 1626 765 
C 1626 223 1555 153 1024 121 
L 1024 0 
L 2893 0 
L 2893 121 
C 2368 147 2278 230 2278 695 
L 2278 3955 
L 2624 3955 
C 3354 3955 3494 3840 3642 3138 
L 3795 3138 
L 3757 4224 
L 147 4224 
L 109 3138 
L 262 3138 
C 416 3834 563 3955 1280 3955 
L 1626 3955 
z
" transform="scale(0.015625)"/>
       <path id="NimbusRomNo9L-Regu-6f" d="M 1600 2944 
C 768 2944 186 2329 186 1446 
C 186 582 781 -64 1587 -64 
C 2394 -64 3008 614 3008 1497 
C 3008 2336 2419 2944 1600 2944 
z
M 1517 2764 
C 2054 2764 2432 2150 2432 1273 
C 2432 550 2144 115 1664 115 
C 1414 115 1178 268 1043 524 
C 864 857 762 1305 762 1760 
C 762 2368 1062 2764 1517 2764 
z
" transform="scale(0.015625)"/>
       <path id="NimbusRomNo9L-Regu-74" d="M 1632 2880 
L 986 2880 
L 986 3622 
C 986 3686 979 3705 941 3705 
C 896 3648 858 3590 813 3526 
C 570 3174 294 2867 192 2841 
C 122 2796 83 2751 83 2719 
C 83 2700 90 2687 109 2675 
L 448 2675 
L 448 748 
C 448 211 640 -64 1018 -64 
C 1331 -64 1574 89 1786 422 
L 1702 492 
C 1568 332 1459 268 1318 268 
C 1082 268 986 441 986 844 
L 986 2675 
L 1632 2675 
L 1632 2880 
z
" transform="scale(0.015625)"/>
       <path id="NimbusRomNo9L-Regu-61" d="M 2829 422 
C 2720 332 2643 300 2547 300 
C 2400 300 2355 390 2355 672 
L 2355 1920 
C 2355 2252 2323 2438 2227 2592 
C 2086 2822 1811 2944 1434 2944 
C 832 2944 358 2630 358 2227 
C 358 2080 486 1952 634 1952 
C 787 1952 922 2080 922 2220 
C 922 2246 915 2278 909 2323 
C 896 2380 890 2432 890 2476 
C 890 2649 1094 2790 1350 2790 
C 1664 2790 1837 2604 1837 2259 
L 1837 1868 
C 851 1472 742 1420 467 1177 
C 326 1049 237 832 237 620 
C 237 217 518 -64 909 -64 
C 1190 -64 1453 70 1843 403 
C 1875 70 1990 -64 2253 -64 
C 2470 -64 2605 12 2829 256 
L 2829 422 
z
M 1837 787 
C 1837 588 1805 531 1670 454 
C 1517 364 1338 307 1203 307 
C 979 307 800 524 800 800 
L 800 825 
C 800 1203 1062 1433 1837 1715 
L 1837 787 
z
" transform="scale(0.015625)"/>
       <path id="NimbusRomNo9L-Regu-6c" d="M 122 3987 
L 160 3987 
C 230 3993 307 4000 358 4000 
C 563 4000 627 3910 627 3609 
L 627 556 
C 627 211 538 128 134 96 
L 134 0 
L 1645 0 
L 1645 96 
C 1242 121 1165 185 1165 537 
L 1165 4358 
L 1139 4371 
C 806 4262 563 4198 122 4089 
L 122 3987 
z
" transform="scale(0.015625)"/>
       <path id="NimbusRomNo9L-Regu-62" d="M 979 4358 
L 947 4371 
C 678 4275 506 4224 205 4140 
L 19 4089 
L 19 3987 
C 58 3993 83 3993 128 3993 
C 384 3993 442 3936 442 3667 
L 442 345 
C 442 147 986 -64 1498 -64 
C 2342 -64 2995 639 2995 1555 
C 2995 2342 2509 2944 1869 2944 
C 1478 2944 1107 2713 979 2399 
L 979 4358 
z
M 979 2060 
C 979 2310 1280 2540 1613 2540 
C 2112 2540 2432 2041 2432 1260 
C 2432 550 2125 140 1600 140 
C 1267 140 979 287 979 447 
L 979 2060 
z
" transform="scale(0.015625)"/>
       <path id="NimbusRomNo9L-Regu-72" d="M 45 2496 
C 134 2515 192 2521 269 2521 
C 429 2521 486 2419 486 2137 
L 486 537 
C 486 217 442 172 32 96 
L 32 0 
L 1568 0 
L 1568 96 
C 1133 115 1024 211 1024 576 
L 1024 2016 
C 1024 2220 1299 2540 1472 2540 
C 1510 2540 1568 2508 1638 2444 
C 1741 2355 1811 2316 1894 2316 
C 2048 2316 2144 2425 2144 2604 
C 2144 2815 2010 2944 1792 2944 
C 1523 2944 1338 2796 1024 2342 
L 1024 2931 
L 992 2944 
C 653 2803 422 2720 45 2598 
L 45 2496 
z
" transform="scale(0.015625)"/>
       <path id="NimbusRomNo9L-Regu-6e" d="M 102 2547 
C 141 2566 205 2572 275 2572 
C 454 2572 512 2476 512 2163 
L 512 576 
C 512 211 442 121 115 96 
L 115 0 
L 1472 0 
L 1472 96 
C 1146 121 1050 198 1050 428 
L 1050 2227 
C 1357 2515 1498 2591 1709 2591 
C 2022 2591 2176 2393 2176 1971 
L 2176 633 
C 2176 230 2093 121 1773 96 
L 1773 0 
L 3104 0 
L 3104 96 
C 2790 128 2714 204 2714 518 
L 2714 1984 
C 2714 2585 2432 2944 1958 2944 
C 1664 2944 1466 2835 1030 2425 
L 1030 2931 
L 986 2944 
C 672 2828 454 2758 102 2655 
L 102 2547 
z
" transform="scale(0.015625)"/>
       <path id="NimbusRomNo9L-Regu-65" d="M 2611 1052 
C 2304 564 2029 377 1619 377 
C 1254 377 979 564 794 930 
C 678 1174 634 1386 621 1779 
L 2592 1779 
C 2541 2193 2477 2377 2317 2580 
C 2125 2809 1830 2944 1498 2944 
C 1178 2944 877 2828 634 2612 
C 333 2351 160 1900 160 1374 
C 160 486 621 -64 1357 -64 
C 1965 -64 2445 313 2714 1007 
L 2611 1052 
z
M 634 1984 
C 704 2478 922 2713 1312 2713 
C 1702 2713 1856 2535 1939 1984 
L 634 1984 
z
" transform="scale(0.015625)"/>
       <path id="NimbusRomNo9L-Regu-69" d="M 1120 2944 
L 128 2592 
L 128 2496 
L 179 2502 
C 256 2515 339 2521 397 2521 
C 550 2521 608 2419 608 2137 
L 608 652 
C 608 192 544 121 102 96 
L 102 0 
L 1619 0 
L 1619 96 
C 1197 128 1146 192 1146 652 
L 1146 2924 
L 1120 2944 
z
M 819 4352 
C 646 4352 499 4204 499 4025 
C 499 3846 640 3699 819 3699 
C 1005 3699 1152 3839 1152 4025 
C 1152 4204 1005 4352 819 4352 
z
" transform="scale(0.015625)"/>
       <path id="NimbusRomNo9L-Regu-73" d="M 2016 2009 
L 1990 2880 
L 1920 2880 
L 1907 2867 
C 1850 2822 1843 2815 1818 2815 
C 1779 2815 1715 2828 1645 2860 
C 1504 2918 1363 2944 1197 2944 
C 691 2944 326 2617 326 2155 
C 326 1796 531 1539 1075 1231 
L 1446 1019 
C 1670 891 1779 737 1779 538 
C 1779 256 1574 76 1248 76 
C 1030 76 832 160 710 301 
C 576 461 518 609 435 974 
L 333 974 
L 333 -26 
L 416 -26 
C 461 38 486 51 563 51 
C 621 51 710 38 858 0 
C 1037 -39 1210 -64 1325 -64 
C 1818 -64 2227 307 2227 756 
C 2227 1077 2074 1289 1690 1520 
L 998 1930 
C 819 2033 723 2193 723 2366 
C 723 2623 922 2803 1216 2803 
C 1581 2803 1773 2585 1920 2014 
L 2016 2009 
z
" transform="scale(0.015625)"/>
       <path id="CMSY10-2" d="M 2490 1775 
L 1210 3046 
C 1133 3123 1120 3136 1069 3136 
C 1005 3136 941 3078 941 3008 
C 941 2963 954 2950 1024 2880 
L 2304 1596 
L 1024 313 
C 954 243 941 230 941 185 
C 941 115 1005 57 1069 57 
C 1120 57 1133 70 1210 147 
L 2483 1418 
L 3808 95 
C 3821 89 3866 57 3904 57 
C 3981 57 4032 115 4032 185 
C 4032 198 4032 223 4013 255 
C 4006 268 2989 1271 2669 1596 
L 3840 2765 
C 3872 2803 3968 2886 4000 2925 
C 4006 2937 4032 2963 4032 3008 
C 4032 3078 3981 3136 3904 3136 
C 3853 3136 3827 3110 3757 3040 
L 2490 1775 
z
" transform="scale(0.015625)"/>
       <path id="NimbusRomNo9L-Regu-31" d="M 1862 4352 
L 710 3776 
L 710 3686 
C 787 3718 858 3743 883 3756 
C 998 3801 1107 3826 1171 3826 
C 1306 3826 1363 3731 1363 3525 
L 1363 599 
C 1363 386 1312 238 1210 179 
C 1114 121 1024 102 755 96 
L 755 0 
L 2522 0 
L 2522 96 
C 2016 102 1914 167 1914 477 
L 1914 4339 
L 1862 4352 
z
" transform="scale(0.015625)"/>
       <path id="NimbusRomNo9L-Regu-30" d="M 1626 4352 
C 1274 4352 1005 4243 768 4019 
C 397 3661 154 2924 154 2176 
C 154 1478 365 729 666 371 
C 902 89 1229 -64 1600 -64 
C 1926 -64 2202 44 2432 268 
C 2803 620 3046 1363 3046 2137 
C 3046 3449 2464 4352 1626 4352 
z
M 1606 4185 
C 2144 4185 2432 3462 2432 2124 
C 2432 787 2150 102 1600 102 
C 1050 102 768 787 768 2118 
C 768 3475 1056 4185 1606 4185 
z
" transform="scale(0.015625)"/>
      </defs>
      <use xlink:href="#NimbusRomNo9L-Regu-54" transform="scale(0.996264)"/>
      <use xlink:href="#NimbusRomNo9L-Regu-6f" transform="translate(52.902187 0) scale(0.996264)"/>
      <use xlink:href="#NimbusRomNo9L-Regu-74" transform="translate(102.715388 0) scale(0.996264)"/>
      <use xlink:href="#NimbusRomNo9L-Regu-61" transform="translate(130.410558 0) scale(0.996264)"/>
      <use xlink:href="#NimbusRomNo9L-Regu-6c" transform="translate(174.644126 0) scale(0.996264)"/>
      <use xlink:href="#NimbusRomNo9L-Regu-62" transform="translate(227.245896 0) scale(0.996264)"/>
      <use xlink:href="#NimbusRomNo9L-Regu-6f" transform="translate(277.059097 0) scale(0.996264)"/>
      <use xlink:href="#NimbusRomNo9L-Regu-72" transform="translate(326.872297 0) scale(0.996264)"/>
      <use xlink:href="#NimbusRomNo9L-Regu-6f" transform="translate(360.047527 0) scale(0.996264)"/>
      <use xlink:href="#NimbusRomNo9L-Regu-6e" transform="translate(409.860727 0) scale(0.996264)"/>
      <use xlink:href="#NimbusRomNo9L-Regu-65" transform="translate(484.580528 0) scale(0.996264)"/>
      <use xlink:href="#NimbusRomNo9L-Regu-6d" transform="translate(528.814097 0) scale(0.996264)"/>
      <use xlink:href="#NimbusRomNo9L-Regu-69" transform="translate(606.322467 0) scale(0.996264)"/>
      <use xlink:href="#NimbusRomNo9L-Regu-73" transform="translate(634.017636 0) scale(0.996264)"/>
      <use xlink:href="#NimbusRomNo9L-Regu-73" transform="translate(672.771343 0) scale(0.996264)"/>
      <use xlink:href="#NimbusRomNo9L-Regu-69" transform="translate(711.525049 0) scale(0.996264)"/>
      <use xlink:href="#NimbusRomNo9L-Regu-6f" transform="translate(739.220218 0) scale(0.996264)"/>
      <use xlink:href="#NimbusRomNo9L-Regu-6e" transform="translate(789.033419 0) scale(0.996264)"/>
      <use xlink:href="#NimbusRomNo9L-Regu-28" transform="translate(863.75322 0) scale(0.996264)"/>
      <use xlink:href="#CMSY10-2" transform="translate(896.928449 0) scale(0.996264)"/>
      <use xlink:href="#NimbusRomNo9L-Regu-31" transform="translate(974.337157 0) scale(0.996264)"/>
      <use xlink:href="#NimbusRomNo9L-Regu-30" transform="translate(1024.150357 0) scale(0.996264)"/>
      <use xlink:href="#NimbusRomNo9L-Regu-32" transform="translate(1073.963558 36.163231) scale(0.737241)"/>
      <use xlink:href="#NimbusRomNo9L-Regu-30" transform="translate(1110.8256 36.163231) scale(0.737241)"/>
      <use xlink:href="#NimbusRomNo9L-Regu-61" transform="translate(1173.092374 0) scale(0.996264)"/>
      <use xlink:href="#NimbusRomNo9L-Regu-74" transform="translate(1217.325943 0) scale(0.996264)"/>
      <use xlink:href="#NimbusRomNo9L-Regu-6f" transform="translate(1245.021112 0) scale(0.996264)"/>
      <use xlink:href="#NimbusRomNo9L-Regu-6d" transform="translate(1294.834313 0) scale(0.996264)"/>
      <use xlink:href="#NimbusRomNo9L-Regu-73" transform="translate(1372.342683 0) scale(0.996264)"/>
      <use xlink:href="#NimbusRomNo9L-Regu-2f" transform="translate(1411.096389 0) scale(0.996264)"/>
      <use xlink:href="#NimbusRomNo9L-Regu-73" transform="translate(1438.791559 0) scale(0.996264)"/>
      <use xlink:href="#NimbusRomNo9L-Regu-29" transform="translate(1477.545265 0) scale(0.996264)"/>
     </g>
    </g>
   </g>
   <g id="text_18">
    <text style="font-weight: 700; font-size: 9px; font-family: 'Arial'; text-anchor: start" x="250.513805" y="120.44968" transform="rotate(-0 250.513805 120.44968)">  203782</text>
   </g>
   <g id="text_19">
    <text style="font-weight: 700; font-size: 9px; font-family: 'Arial'; text-anchor: start" x="217.158214" y="64.173067" transform="rotate(-0 217.158214 64.173067)">  203782</text>
   </g>
   <g id="text_20">
    <text style="font-weight: 700; font-size: 9px; font-family: 'Arial'; text-anchor: start" x="226.472439" y="41.702979" transform="rotate(-0 226.472439 41.702979)">  203783</text>
   </g>
   <g id="text_21">
    <text style="font-weight: 700; font-size: 9px; font-family: 'Arial'; text-anchor: start" x="223.055757" y="53.604029" transform="rotate(-0 223.055757 53.604029)">  203783</text>
   </g>
   <g id="text_22">
    <text style="font-weight: 700; font-size: 9px; font-family: 'Arial'; text-anchor: start" x="177.070492" y="106.182743" transform="rotate(-0 177.070492 106.182743)">  203784</text>
   </g>
   <g id="legend_1">
    <g id="patch_7">
     <path d="M 51.567319 44.297187 
L 175.411069 44.297187 
Q 177.411069 44.297187 177.411069 42.297187 
L 177.411069 15.019062 
Q 177.411069 13.019062 175.411069 13.019062 
L 51.567319 13.019062 
Q 49.567319 13.019062 49.567319 15.019062 
L 49.567319 42.297187 
Q 49.567319 44.297187 51.567319 44.297187 
z
" style="fill: #ffffff; opacity: 0.8; stroke: #cccccc; stroke-linejoin: miter"/>
    </g>
    <g id="LineCollection_9">
     <path d="M 58.567319 20.519062 
L 68.567319 20.519062 
" style="fill: none; stroke: #1f77b4; stroke-opacity: 0.35; stroke-width: 1.25"/>
    </g>
    <g id="LineCollection_10">
     <path d="M 63.567319 25.519062 
L 63.567319 15.519062 
" style="fill: none; stroke: #1f77b4; stroke-opacity: 0.35; stroke-width: 1.25"/>
    </g>
    <g id="line2d_59">
     <g>
      <use xlink:href="#mf70bb48a8c" x="58.567319" y="20.519062" style="fill: #1f77b4; fill-opacity: 0.35; stroke: #1f77b4; stroke-opacity: 0.35; stroke-width: 1.25"/>
     </g>
    </g>
    <g id="line2d_60">
     <g>
      <use xlink:href="#mf70bb48a8c" x="68.567319" y="20.519062" style="fill: #1f77b4; fill-opacity: 0.35; stroke: #1f77b4; stroke-opacity: 0.35; stroke-width: 1.25"/>
     </g>
    </g>
    <g id="line2d_61">
     <g>
      <use xlink:href="#mb64dd84197" x="63.567319" y="25.519062" style="fill: #1f77b4; fill-opacity: 0.35; stroke: #1f77b4; stroke-opacity: 0.35; stroke-width: 1.25"/>
     </g>
    </g>
    <g id="line2d_62">
     <g>
      <use xlink:href="#mb64dd84197" x="63.567319" y="15.519062" style="fill: #1f77b4; fill-opacity: 0.35; stroke: #1f77b4; stroke-opacity: 0.35; stroke-width: 1.25"/>
     </g>
    </g>
    <g id="line2d_63"/>
    <g id="line2d_64">
     <g>
      <use xlink:href="#mf655d12d37" x="63.567319" y="20.519062" style="fill-opacity: 0; stroke: #1f77b4; stroke-width: 1.25"/>
     </g>
    </g>
    <g id="text_23">
     <text style="font-size: 10px; font-family: 'Times New Roman'; text-anchor: start" x="75.567319" y="24.019062" transform="rotate(-0 75.567319 24.019062)">Pebbles/dust (DIII-D)</text>
    </g>
    <g id="LineCollection_11">
     <path d="M 58.567319 34.658125 
L 68.567319 34.658125 
" style="fill: none; stroke: #ff7f0e; stroke-opacity: 0.35; stroke-width: 1.25"/>
    </g>
    <g id="LineCollection_12">
     <path d="M 63.567319 39.658125 
L 63.567319 29.658125 
" style="fill: none; stroke: #ff7f0e; stroke-opacity: 0.35; stroke-width: 1.25"/>
    </g>
    <g id="line2d_65">
     <g>
      <use xlink:href="#m47433ae881" x="58.567319" y="34.658125" style="fill: #ff7f0e; fill-opacity: 0.35; stroke: #ff7f0e; stroke-opacity: 0.35; stroke-width: 1.25"/>
     </g>
    </g>
    <g id="line2d_66">
     <g>
      <use xlink:href="#m47433ae881" x="68.567319" y="34.658125" style="fill: #ff7f0e; fill-opacity: 0.35; stroke: #ff7f0e; stroke-opacity: 0.35; stroke-width: 1.25"/>
     </g>
    </g>
    <g id="line2d_67">
     <g>
      <use xlink:href="#m42cdb40702" x="63.567319" y="39.658125" style="fill: #ff7f0e; fill-opacity: 0.35; stroke: #ff7f0e; stroke-opacity: 0.35; stroke-width: 1.25"/>
     </g>
    </g>
    <g id="line2d_68">
     <g>
      <use xlink:href="#m42cdb40702" x="63.567319" y="29.658125" style="fill: #ff7f0e; fill-opacity: 0.35; stroke: #ff7f0e; stroke-opacity: 0.35; stroke-width: 1.25"/>
     </g>
    </g>
    <g id="line2d_69"/>
    <g id="line2d_70">
     <g>
      <use xlink:href="#ma232c74e93" x="63.567319" y="34.658125" style="fill-opacity: 0; stroke: #ff7f0e; stroke-width: 1.25; stroke-linejoin: miter"/>
     </g>
    </g>
    <g id="text_24">
     <text style="font-size: 10px; font-family: 'Times New Roman'; text-anchor: start" x="75.567319" y="38.158125" transform="rotate(-0 75.567319 38.158125)">Pebble+dust (laser tests)</text>
    </g>
   </g>
  </g>
 </g>
 <defs>
  <clipPath id="p02f974defd">
   <rect x="47.567319" y="11.019062" width="236.132201" height="243.736259"/>
  </clipPath>
 </defs>
</svg>
