<?xml version="1.0" encoding="utf-8" standalone="no"?>
<!DOCTYPE svg PUBLIC "-//W3C//DTD SVG 1.1//EN"
  "http://www.w3.org/Graphics/SVG/1.1/DTD/svg11.dtd">
<svg xmlns:xlink="http://www.w3.org/1999/xlink" width="288pt" height="162pt" viewBox="0 0 288 162" xmlns="http://www.w3.org/2000/svg" version="1.1">
 <metadata>
  <rdf:RDF xmlns:dc="http://purl.org/dc/elements/1.1/" xmlns:cc="http://creativecommons.org/ns#" xmlns:rdf="http://www.w3.org/1999/02/22-rdf-syntax-ns#">
   <cc:Work>
    <dc:type rdf:resource="http://purl.org/dc/dcmitype/StillImage"/>
    <dc:date>2025-10-31T14:11:55.444299</dc:date>
    <dc:format>image/svg+xml</dc:format>
    <dc:creator>
     <cc:Agent>
      <dc:title>Matplotlib v3.10.1, https://matplotlib.org/</dc:title>
     </cc:Agent>
    </dc:creator>
   </cc:Work>
  </rdf:RDF>
 </metadata>
 <defs>
  <style type="text/css">*{stroke-linejoin: round; stroke-linecap: butt}</style>
 </defs>
 <g id="figure_1">
  <g id="patch_1">
   <path d="M 0 162 
L 288 162 
L 288 0 
L 0 0 
z
" style="fill: #ffffff"/>
  </g>
  <g id="axes_1">
   <g id="patch_2">
    <path d="M 40.701049 126.609291 
L 284.99976 126.609291 
L 284.99976 6.819303 
L 40.701049 6.819303 
z
" style="fill: #ffffff"/>
   </g>
   <g id="line2d_1">
    <path d="M 146.778121 126.609291 
L 146.778121 6.819303 
" clip-path="url(#p9509854a9f)" style="fill: none; stroke-dasharray: 3.7,1.6; stroke-dashoffset: 0; stroke: #d62728"/>
   </g>
   <g id="line2d_2">
    <path d="M 183.872952 126.609291 
L 183.872952 6.819303 
" clip-path="url(#p9509854a9f)" style="fill: none; stroke-dasharray: 3.7,1.6; stroke-dashoffset: 0; stroke: #d62728"/>
   </g>
   <g id="line2d_3">
    <path d="M 40.701049 126.535815 
L 53.623165 126.343318 
L 54.908948 126.224076 
L 62.237909 126.149914 
L 64.038005 125.565209 
L 65.066631 125.251233 
L 65.388077 124.879174 
L 65.645234 124.247935 
L 65.966679 122.758788 
L 66.352414 119.517975 
L 66.866727 112.735535 
L 68.023932 94.096091 
L 68.988269 77.823356 
L 69.374003 74.887729 
L 69.63116 74.306858 
L 69.759738 74.382232 
L 70.081184 75.10188 
L 70.466919 75.721755 
L 70.724075 76.13807 
L 71.10981 77.3694 
L 71.624123 79.634943 
L 72.074147 81.489795 
L 72.202725 81.514775 
L 72.331304 81.229207 
L 72.58846 79.884353 
L 73.231351 76.202425 
L 73.424219 75.958394 
L 73.552797 76.086659 
L 73.745665 76.706824 
L 74.06711 78.730088 
L 74.83858 83.978808 
L 75.738628 88.267061 
L 76.188652 91.717488 
L 76.767254 96.124929 
L 77.0887 97.293021 
L 77.345856 97.583028 
L 77.538723 97.463221 
L 78.760217 95.642302 
L 79.145952 94.810241 
L 79.338819 94.783761 
L 79.531687 95.100934 
L 79.853132 96.251664 
L 80.431734 98.250591 
L 80.75318 98.629988 
L 81.588939 99.038111 
L 82.103252 99.017528 
L 82.360409 99.50062 
L 83.067589 101.228432 
L 83.260456 101.229947 
L 83.581902 100.849066 
L 83.839059 100.677715 
L 83.967637 100.811672 
L 84.224793 101.597429 
L 84.610528 102.882833 
L 84.739106 102.911541 
L 84.931974 102.511134 
L 85.317709 101.644906 
L 85.446287 101.762276 
L 85.703444 102.511357 
L 86.153467 103.821729 
L 86.474913 104.161881 
L 87.246383 104.477409 
L 87.503539 104.163835 
L 88.21072 102.917937 
L 88.403587 103.054306 
L 88.660744 103.705721 
L 89.239346 105.398607 
L 89.432213 105.418974 
L 90.589418 104.203634 
L 91.8752 101.922821 
L 92.003779 101.964627 
L 92.196646 102.4015 
L 92.518092 104.072351 
L 93.032405 106.803644 
L 93.225272 106.959832 
L 93.41814 106.608878 
L 93.996742 105.20883 
L 94.89679 104.382007 
L 95.539681 103.216818 
L 96.053994 101.50212 
L 96.568307 99.9796 
L 96.825464 99.727118 
L 97.339777 99.702323 
L 97.789801 99.284735 
L 97.982668 99.5391 
L 98.882716 101.834045 
L 99.589897 103.51074 
L 99.654186 103.466461 
L 99.847053 102.941049 
L 100.297077 100.371966 
L 100.618523 99.136929 
L 100.81139 98.986305 
L 101.004257 99.233615 
L 101.325703 100.22349 
L 101.904305 103.052567 
L 102.354329 104.717233 
L 102.547197 104.923485 
L 102.675775 104.849626 
L 102.868642 104.420033 
L 103.575823 102.296119 
L 104.025847 101.96138 
L 104.218714 101.188428 
L 104.54016 98.639983 
L 105.118762 94.000323 
L 105.311629 93.603114 
L 105.440208 93.71423 
L 105.697364 94.622584 
L 106.147388 96.37954 
L 106.340256 96.579638 
L 106.533123 96.453718 
L 106.918858 96.166492 
L 107.111725 96.376642 
L 107.433171 97.327061 
L 108.461797 100.756235 
L 108.911821 101.972049 
L 109.426134 103.4382 
L 110.197604 104.235712 
L 110.711917 104.525794 
L 111.419097 104.941162 
L 111.547676 104.800731 
L 111.740543 104.186872 
L 112.126278 101.677994 
L 112.447723 100.16081 
L 112.640591 99.998989 
L 112.897747 100.233872 
L 113.41206 100.70899 
L 113.733506 100.951821 
L 113.990663 101.56341 
L 114.312108 103.069195 
L 114.762132 105.153164 
L 114.955 105.433105 
L 115.147867 105.340747 
L 115.469313 104.753753 
L 115.790758 104.308997 
L 115.919337 104.408278 
L 116.112204 104.969661 
L 116.43365 106.904237 
L 116.883674 109.575274 
L 117.076541 109.949728 
L 117.205119 109.892603 
L 117.397987 109.435992 
L 118.362324 106.446099 
L 118.683769 105.759308 
L 118.940926 104.507117 
L 119.712396 99.921351 
L 119.905263 99.808205 
L 120.09813 100.228571 
L 120.548154 102.313548 
L 120.998178 103.826061 
L 121.383913 104.384523 
L 121.833937 104.935688 
L 122.34825 105.55374 
L 122.605407 105.527765 
L 122.991141 105.148871 
L 123.505455 104.361644 
L 123.891189 103.851069 
L 124.019768 103.93383 
L 124.212635 104.407167 
L 125.176972 107.709739 
L 125.30555 107.657356 
L 125.498418 107.26861 
L 125.948442 105.481548 
L 126.205598 104.776305 
L 126.334176 104.732633 
L 126.527044 105.018628 
L 126.848489 105.46341 
L 127.041357 105.394612 
L 127.362803 104.984869 
L 127.684248 104.265784 
L 128.134272 102.554124 
L 128.648585 100.879387 
L 128.841453 100.750201 
L 128.970031 100.880613 
L 129.162898 101.441303 
L 129.420055 102.942725 
L 130.448681 110.169088 
L 130.577259 110.157429 
L 130.834416 109.691364 
L 131.28444 108.977476 
L 131.927331 108.25911 
L 132.313066 107.236197 
L 133.213114 104.377302 
L 133.341692 104.417866 
L 133.791716 104.924757 
L 133.920294 104.545075 
L 134.113162 102.95238 
L 134.434607 97.600052 
L 134.820342 91.412948 
L 135.01321 90.614963 
L 135.141788 91.09547 
L 135.398944 93.766161 
L 135.913257 98.96712 
L 136.170414 99.93608 
L 136.298992 99.968084 
L 136.49186 99.575436 
L 136.877594 97.971813 
L 137.584775 95.104405 
L 137.841931 94.871157 
L 138.034799 95.051841 
L 138.613401 95.864349 
L 138.806268 95.744823 
L 139.127714 95.162982 
L 139.44916 94.134403 
L 139.706316 92.543932 
L 140.15634 87.761974 
L 140.992099 76.783133 
L 141.763569 65.317752 
L 142.985062 51.111134 
L 143.17793 50.920241 
L 143.370797 51.264219 
L 143.820821 52.780703 
L 144.528001 55.431816 
L 144.65658 55.268812 
L 144.849447 54.479155 
L 145.170893 51.735529 
L 145.492338 46.89844 
L 146.778121 23.654433 
L 146.84241 23.658943 
L 146.970989 24.62147 
L 147.163856 28.417544 
L 147.549591 42.414126 
L 149.156819 108.614861 
L 149.606843 119.558077 
L 149.928289 123.254452 
L 150.185445 124.408383 
L 150.378313 124.64186 
L 150.635469 124.56144 
L 151.149782 124.323799 
L 151.471228 124.46745 
L 151.985541 125.017461 
L 152.8213 125.885979 
L 153.399902 126.178765 
L 154.29995 126.33537 
L 156.742937 126.476057 
L 174.679605 126.415395 
L 178.08693 126.133777 
L 178.536954 125.650876 
L 179.758447 124.083658 
L 180.079893 124.074294 
L 180.529917 124.151926 
L 180.722784 123.870454 
L 180.915651 123.095789 
L 181.172808 120.830058 
L 181.494254 115.125541 
L 181.879989 103.195689 
L 183.551506 42.177429 
L 183.808663 40.604838 
L 183.937241 40.641657 
L 184.130108 41.214878 
L 184.387265 42.737928 
L 184.644421 45.828183 
L 185.158734 56.291918 
L 185.544469 62.141941 
L 185.801626 63.41863 
L 185.865915 63.410219 
L 185.994493 63.051512 
L 186.25165 61.231298 
L 187.023119 53.951106 
L 187.087408 54.013134 
L 187.215987 54.611319 
L 187.473143 57.413954 
L 189.980419 91.250859 
L 190.430443 95.12596 
L 190.751889 96.281331 
L 191.137624 97.263954 
L 191.39478 98.866027 
L 192.230539 105.325698 
L 192.423407 105.632762 
L 192.616274 105.557891 
L 193.580611 104.502924 
L 194.030635 104.569605 
L 194.223502 104.227971 
L 194.480659 103.127777 
L 195.252128 99.084227 
L 195.380707 99.020089 
L 195.509285 99.199884 
L 195.766442 100.136047 
L 196.666489 103.965087 
L 197.052224 104.554635 
L 197.37367 105.059693 
L 197.695116 106.111236 
L 198.530874 109.232607 
L 199.045187 110.2201 
L 199.366633 110.466613 
L 199.62379 110.371684 
L 200.073814 110.043777 
L 200.266681 110.316145 
L 200.588127 111.477202 
L 200.973861 112.851378 
L 201.166729 112.953866 
L 201.295307 112.696988 
L 201.488174 111.775945 
L 201.873909 108.352353 
L 202.388222 103.975138 
L 202.709668 102.916184 
L 202.902535 102.879868 
L 203.095403 103.228294 
L 204.252607 106.19957 
L 204.574053 106.44582 
L 204.831209 106.361503 
L 205.152655 105.987693 
L 205.988414 104.710576 
L 206.181281 104.931427 
L 206.438438 105.849099 
L 207.402775 110.443706 
L 207.531353 110.252637 
L 207.78851 109.169543 
L 208.109955 106.680464 
L 208.817136 100.622023 
L 209.074292 99.965801 
L 209.202871 99.976148 
L 209.395738 100.426234 
L 209.717184 102.06411 
L 210.424364 107.266675 
L 210.938677 110.012185 
L 211.260123 110.976248 
L 211.388701 111.060226 
L 211.517279 110.888363 
L 211.710147 110.124941 
L 212.674484 104.993455 
L 212.867351 104.867869 
L 212.99593 105.019831 
L 213.188797 105.680417 
L 213.70311 107.663798 
L 213.831688 107.201925 
L 214.088845 104.681152 
L 214.603158 99.402018 
L 214.860314 98.57793 
L 214.988893 98.527648 
L 215.18176 98.784603 
L 215.438917 99.618753 
L 215.824651 101.751808 
L 216.853278 107.883364 
L 217.174723 108.745583 
L 217.496169 108.983863 
L 218.13906 109.132747 
L 218.396217 108.997702 
L 218.653373 108.584005 
L 219.296265 107.229644 
L 219.424843 107.352736 
L 219.61771 107.976606 
L 220.38918 111.782828 
L 220.453469 111.744437 
L 220.582047 111.405077 
L 220.839204 109.794435 
L 221.417806 105.94354 
L 221.546384 105.810449 
L 221.674963 105.954919 
L 222.253565 106.982187 
L 222.6393 107.1078 
L 223.153613 107.494305 
L 223.34648 107.314081 
L 224.053661 106.379548 
L 224.375106 106.255269 
L 224.632263 105.810375 
L 225.082287 104.908911 
L 225.210865 104.914042 
L 225.403732 105.251783 
L 226.175202 107.246833 
L 226.432359 107.241199 
L 226.818093 107.214405 
L 227.010961 107.397294 
L 227.268117 108.127723 
L 227.718141 109.473663 
L 227.84672 109.425942 
L 228.039587 108.963203 
L 228.361033 107.454295 
L 229.196791 102.981365 
L 229.389659 102.903187 
L 229.582526 103.240639 
L 232.796983 111.895578 
L 232.98985 111.704617 
L 233.568453 110.861774 
L 233.76132 111.057692 
L 234.018476 111.746956 
L 234.597079 113.539843 
L 234.789946 113.602603 
L 234.982813 113.277253 
L 235.818572 110.689623 
L 237.040066 106.897762 
L 237.168644 106.988371 
L 237.361511 107.481431 
L 238.068692 109.810529 
L 238.261559 109.771663 
L 239.033029 108.968311 
L 239.290185 109.022778 
L 239.483053 108.789611 
L 239.804499 107.82345 
L 240.254522 106.413298 
L 240.383101 106.334909 
L 240.511679 106.491625 
L 240.704546 107.229357 
L 241.090281 110.048718 
L 241.476016 112.179758 
L 241.733173 112.569647 
L 241.92604 112.454915 
L 242.311775 111.74874 
L 242.826088 110.368746 
L 244.047581 106.253324 
L 244.626184 104.024142 
L 244.819051 103.912177 
L 245.011918 104.146483 
L 245.269075 104.879451 
L 245.719099 107.086996 
L 246.297701 109.743857 
L 246.490569 109.899846 
L 246.619147 109.742207 
L 246.876303 108.878571 
L 247.519195 106.252086 
L 247.712062 106.176115 
L 247.84064 106.431778 
L 248.033508 107.3362 
L 248.419243 110.594167 
L 248.804977 113.219069 
L 248.997845 113.48387 
L 249.126423 113.256465 
L 249.38358 112.063945 
L 250.540784 105.339358 
L 250.797941 105.023195 
L 250.990808 105.115016 
L 251.376543 105.317839 
L 252.148012 105.182643 
L 252.34088 105.596038 
L 252.726615 107.206559 
L 253.04806 108.218087 
L 253.176638 108.288139 
L 253.305217 108.141674 
L 253.948108 106.894414 
L 254.398132 106.866921 
L 254.590999 106.398086 
L 255.041023 105.133958 
L 255.169602 105.316268 
L 255.362469 106.21481 
L 256.06965 110.450043 
L 256.198228 110.423626 
L 256.391095 109.797364 
L 256.712541 107.464269 
L 257.226854 103.712307 
L 257.48401 103.175568 
L 257.612589 103.264836 
L 257.805456 103.745997 
L 259.219817 108.496033 
L 259.348395 108.411284 
L 259.605552 107.751656 
L 260.055576 106.467438 
L 260.184154 106.447566 
L 260.377022 106.83583 
L 260.698467 108.403063 
L 261.405648 112.097472 
L 263.012876 118.015928 
L 263.205743 118.120594 
L 263.398611 117.979812 
L 263.720057 117.306702 
L 264.17008 116.327404 
L 264.362948 116.279023 
L 264.555815 116.488746 
L 265.327285 117.712483 
L 265.584441 117.687607 
L 265.841598 117.385679 
L 266.163044 116.574066 
L 266.548778 115.580147 
L 266.677357 115.592417 
L 266.805935 115.895026 
L 267.063092 117.411191 
L 267.770272 122.440524 
L 267.963139 122.624445 
L 268.220296 122.420124 
L 268.541742 122.241816 
L 268.798898 122.392288 
L 269.184633 122.963402 
L 270.727572 125.55407 
L 271.434753 126.0546 
L 272.077644 126.212803 
L 274.649209 126.483124 
L 278.31369 126.537936 
L 279.985208 126.552757 
L 284.29258 126.579894 
L 284.99976 126.563034 
L 284.99976 126.563034 
" clip-path="url(#p9509854a9f)" style="fill: none; stroke: #1f77b4; stroke-width: 1.25; stroke-linecap: square"/>
   </g>
   <g id="patch_3">
    <path d="M 40.701049 126.609291 
L 40.701049 6.819303 
" style="fill: none; stroke: #000000; stroke-linejoin: miter; stroke-linecap: square"/>
   </g>
   <g id="patch_4">
    <path d="M 284.99976 126.609291 
L 284.99976 6.819303 
" style="fill: none; stroke: #000000; stroke-linejoin: miter; stroke-linecap: square"/>
   </g>
   <g id="patch_5">
    <path d="M 40.701049 126.609291 
L 284.99976 126.609291 
" style="fill: none; stroke: #000000; stroke-linejoin: miter; stroke-linecap: square"/>
   </g>
   <g id="patch_6">
    <path d="M 40.701049 6.819303 
L 284.99976 6.819303 
" style="fill: none; stroke: #000000; stroke-linejoin: miter; stroke-linecap: square"/>
   </g>
   <g id="matplotlib.axis_1">
    <g id="xtick_1">
     <g id="line2d_4">
      <defs>
       <path id="m9c41338a83" d="M 0 0 
L 0 4 
" style="stroke: #000000; stroke-width: 1.35"/>
      </defs>
      <g>
       <use xlink:href="#m9c41338a83" x="66.416703" y="126.609291" style="stroke: #000000; stroke-width: 1.35"/>
      </g>
     </g>
     <g id="text_1">
      <text style="font-size: 11px; font-family: 'Times New Roman'; text-anchor: middle" x="66.416703" y="141.747416" transform="rotate(-0 66.416703 141.747416)">1</text>
     </g>
    </g>
    <g id="xtick_2">
     <g id="line2d_5">
      <g>
       <use xlink:href="#m9c41338a83" x="130.705838" y="126.609291" style="stroke: #000000; stroke-width: 1.35"/>
      </g>
     </g>
     <g id="text_2">
      <text style="font-size: 11px; font-family: 'Times New Roman'; text-anchor: middle" x="130.705838" y="141.747416" transform="rotate(-0 130.705838 141.747416)">2</text>
     </g>
    </g>
    <g id="xtick_3">
     <g id="line2d_6">
      <g>
       <use xlink:href="#m9c41338a83" x="194.994972" y="126.609291" style="stroke: #000000; stroke-width: 1.35"/>
      </g>
     </g>
     <g id="text_3">
      <text style="font-size: 11px; font-family: 'Times New Roman'; text-anchor: middle" x="194.994972" y="141.747416" transform="rotate(-0 194.994972 141.747416)">3</text>
     </g>
    </g>
    <g id="xtick_4">
     <g id="line2d_7">
      <g>
       <use xlink:href="#m9c41338a83" x="259.284106" y="126.609291" style="stroke: #000000; stroke-width: 1.35"/>
      </g>
     </g>
     <g id="text_4">
      <text style="font-size: 11px; font-family: 'Times New Roman'; text-anchor: middle" x="259.284106" y="141.747416" transform="rotate(-0 259.284106 141.747416)">4</text>
     </g>
    </g>
    <g id="xtick_5">
     <g id="line2d_8">
      <defs>
       <path id="mc0e01273d0" d="M 0 0 
L 0 2.5 
" style="stroke: #000000; stroke-width: 0.75"/>
      </defs>
      <g>
       <use xlink:href="#mc0e01273d0" x="40.701049" y="126.609291" style="stroke: #000000; stroke-width: 0.75"/>
      </g>
     </g>
    </g>
    <g id="xtick_6">
     <g id="line2d_9">
      <g>
       <use xlink:href="#mc0e01273d0" x="53.558876" y="126.609291" style="stroke: #000000; stroke-width: 0.75"/>
      </g>
     </g>
    </g>
    <g id="xtick_7">
     <g id="line2d_10">
      <g>
       <use xlink:href="#mc0e01273d0" x="79.27453" y="126.609291" style="stroke: #000000; stroke-width: 0.75"/>
      </g>
     </g>
    </g>
    <g id="xtick_8">
     <g id="line2d_11">
      <g>
       <use xlink:href="#mc0e01273d0" x="92.132357" y="126.609291" style="stroke: #000000; stroke-width: 0.75"/>
      </g>
     </g>
    </g>
    <g id="xtick_9">
     <g id="line2d_12">
      <g>
       <use xlink:href="#mc0e01273d0" x="104.990184" y="126.609291" style="stroke: #000000; stroke-width: 0.75"/>
      </g>
     </g>
    </g>
    <g id="xtick_10">
     <g id="line2d_13">
      <g>
       <use xlink:href="#mc0e01273d0" x="117.848011" y="126.609291" style="stroke: #000000; stroke-width: 0.75"/>
      </g>
     </g>
    </g>
    <g id="xtick_11">
     <g id="line2d_14">
      <g>
       <use xlink:href="#mc0e01273d0" x="143.563664" y="126.609291" style="stroke: #000000; stroke-width: 0.75"/>
      </g>
     </g>
    </g>
    <g id="xtick_12">
     <g id="line2d_15">
      <g>
       <use xlink:href="#mc0e01273d0" x="156.421491" y="126.609291" style="stroke: #000000; stroke-width: 0.75"/>
      </g>
     </g>
    </g>
    <g id="xtick_13">
     <g id="line2d_16">
      <g>
       <use xlink:href="#mc0e01273d0" x="169.279318" y="126.609291" style="stroke: #000000; stroke-width: 0.75"/>
      </g>
     </g>
    </g>
    <g id="xtick_14">
     <g id="line2d_17">
      <g>
       <use xlink:href="#mc0e01273d0" x="182.137145" y="126.609291" style="stroke: #000000; stroke-width: 0.75"/>
      </g>
     </g>
    </g>
    <g id="xtick_15">
     <g id="line2d_18">
      <g>
       <use xlink:href="#mc0e01273d0" x="207.852799" y="126.609291" style="stroke: #000000; stroke-width: 0.75"/>
      </g>
     </g>
    </g>
    <g id="xtick_16">
     <g id="line2d_19">
      <g>
       <use xlink:href="#mc0e01273d0" x="220.710626" y="126.609291" style="stroke: #000000; stroke-width: 0.75"/>
      </g>
     </g>
    </g>
    <g id="xtick_17">
     <g id="line2d_20">
      <g>
       <use xlink:href="#mc0e01273d0" x="233.568453" y="126.609291" style="stroke: #000000; stroke-width: 0.75"/>
      </g>
     </g>
    </g>
    <g id="xtick_18">
     <g id="line2d_21">
      <g>
       <use xlink:href="#mc0e01273d0" x="246.426279" y="126.609291" style="stroke: #000000; stroke-width: 0.75"/>
      </g>
     </g>
    </g>
    <g id="xtick_19">
     <g id="line2d_22">
      <g>
       <use xlink:href="#mc0e01273d0" x="272.141933" y="126.609291" style="stroke: #000000; stroke-width: 0.75"/>
      </g>
     </g>
    </g>
    <g id="xtick_20">
     <g id="line2d_23">
      <g>
       <use xlink:href="#mc0e01273d0" x="284.99976" y="126.609291" style="stroke: #000000; stroke-width: 0.75"/>
      </g>
     </g>
    </g>
    <g id="text_5">
     <text style="font-size: 12px; font-family: 'Times New Roman'; text-anchor: middle" x="162.850405" y="156.432885" transform="rotate(-0 162.850405 156.432885)">Time (s)</text>
    </g>
   </g>
   <g id="matplotlib.axis_2">
    <g id="ytick_1">
     <g id="line2d_24">
      <defs>
       <path id="md405789686" d="M 0 0 
L -4 0 
" style="stroke: #000000; stroke-width: 1.35"/>
      </defs>
      <g>
       <use xlink:href="#md405789686" x="40.701049" y="126.609291" style="stroke: #000000; stroke-width: 1.35"/>
      </g>
     </g>
     <g id="text_6">
      <text style="font-size: 11px; font-family: 'Times New Roman'; text-anchor: end" x="33.201049" y="130.428354" transform="rotate(-0 33.201049 130.428354)">0</text>
     </g>
    </g>
    <g id="ytick_2">
     <g id="line2d_25">
      <g>
       <use xlink:href="#md405789686" x="40.701049" y="96.661794" style="stroke: #000000; stroke-width: 1.35"/>
      </g>
     </g>
     <g id="text_7">
      <text style="font-size: 11px; font-family: 'Times New Roman'; text-anchor: end" x="33.201049" y="100.480857" transform="rotate(-0 33.201049 100.480857)">20</text>
     </g>
    </g>
    <g id="ytick_3">
     <g id="line2d_26">
      <g>
       <use xlink:href="#md405789686" x="40.701049" y="66.714297" style="stroke: #000000; stroke-width: 1.35"/>
      </g>
     </g>
     <g id="text_8">
      <text style="font-size: 11px; font-family: 'Times New Roman'; text-anchor: end" x="33.201049" y="70.533359" transform="rotate(-0 33.201049 70.533359)">40</text>
     </g>
    </g>
    <g id="ytick_4">
     <g id="line2d_27">
      <g>
       <use xlink:href="#md405789686" x="40.701049" y="36.7668" style="stroke: #000000; stroke-width: 1.35"/>
      </g>
     </g>
     <g id="text_9">
      <text style="font-size: 11px; font-family: 'Times New Roman'; text-anchor: end" x="33.201049" y="40.585862" transform="rotate(-0 33.201049 40.585862)">60</text>
     </g>
    </g>
    <g id="ytick_5">
     <g id="line2d_28">
      <g>
       <use xlink:href="#md405789686" x="40.701049" y="6.819303" style="stroke: #000000; stroke-width: 1.35"/>
      </g>
     </g>
     <g id="text_10">
      <text style="font-size: 11px; font-family: 'Times New Roman'; text-anchor: end" x="33.201049" y="10.638365" transform="rotate(-0 33.201049 10.638365)">80</text>
     </g>
    </g>
    <g id="ytick_6">
     <g id="line2d_29">
      <defs>
       <path id="mb7960ce4e3" d="M 0 0 
L -2.5 0 
" style="stroke: #000000; stroke-width: 0.75"/>
      </defs>
      <g>
       <use xlink:href="#mb7960ce4e3" x="40.701049" y="119.122417" style="stroke: #000000; stroke-width: 0.75"/>
      </g>
     </g>
    </g>
    <g id="ytick_7">
     <g id="line2d_30">
      <g>
       <use xlink:href="#mb7960ce4e3" x="40.701049" y="111.635543" style="stroke: #000000; stroke-width: 0.75"/>
      </g>
     </g>
    </g>
    <g id="ytick_8">
     <g id="line2d_31">
      <g>
       <use xlink:href="#mb7960ce4e3" x="40.701049" y="104.148668" style="stroke: #000000; stroke-width: 0.75"/>
      </g>
     </g>
    </g>
    <g id="ytick_9">
     <g id="line2d_32">
      <g>
       <use xlink:href="#mb7960ce4e3" x="40.701049" y="89.17492" style="stroke: #000000; stroke-width: 0.75"/>
      </g>
     </g>
    </g>
    <g id="ytick_10">
     <g id="line2d_33">
      <g>
       <use xlink:href="#mb7960ce4e3" x="40.701049" y="81.688045" style="stroke: #000000; stroke-width: 0.75"/>
      </g>
     </g>
    </g>
    <g id="ytick_11">
     <g id="line2d_34">
      <g>
       <use xlink:href="#mb7960ce4e3" x="40.701049" y="74.201171" style="stroke: #000000; stroke-width: 0.75"/>
      </g>
     </g>
    </g>
    <g id="ytick_12">
     <g id="line2d_35">
      <g>
       <use xlink:href="#mb7960ce4e3" x="40.701049" y="59.227423" style="stroke: #000000; stroke-width: 0.75"/>
      </g>
     </g>
    </g>
    <g id="ytick_13">
     <g id="line2d_36">
      <g>
       <use xlink:href="#mb7960ce4e3" x="40.701049" y="51.740548" style="stroke: #000000; stroke-width: 0.75"/>
      </g>
     </g>
    </g>
    <g id="ytick_14">
     <g id="line2d_37">
      <g>
       <use xlink:href="#mb7960ce4e3" x="40.701049" y="44.253674" style="stroke: #000000; stroke-width: 0.75"/>
      </g>
     </g>
    </g>
    <g id="ytick_15">
     <g id="line2d_38">
      <g>
       <use xlink:href="#mb7960ce4e3" x="40.701049" y="29.279925" style="stroke: #000000; stroke-width: 0.75"/>
      </g>
     </g>
    </g>
    <g id="ytick_16">
     <g id="line2d_39">
      <g>
       <use xlink:href="#mb7960ce4e3" x="40.701049" y="21.793051" style="stroke: #000000; stroke-width: 0.75"/>
      </g>
     </g>
    </g>
    <g id="ytick_17">
     <g id="line2d_40">
      <g>
       <use xlink:href="#mb7960ce4e3" x="40.701049" y="14.306177" style="stroke: #000000; stroke-width: 0.75"/>
      </g>
     </g>
    </g>
    <g id="text_11">
     <!-- $q_{\parallel}$ (MW/m\textsuperscript{2}) -->
     <g transform="translate(13.418934 97.428852) rotate(-90) scale(0.12 -0.12)">
      <defs>
       <path id="NimbusRomNo9L-ReguItal-71" d="M 2502 -1216 
L 2394 -1216 
C 2157 -1216 2022 -1152 2029 -1031 
C 2029 -1012 2035 -986 2042 -960 
L 3091 2719 
L 2624 2719 
L 2528 2420 
C 2426 2713 2298 2816 2035 2816 
C 1190 2816 160 1643 160 676 
C 160 224 410 -64 813 -64 
C 1267 -64 1562 172 2131 981 
L 1562 -890 
C 1478 -1146 1376 -1197 960 -1229 
L 960 -1332 
L 2502 -1332 
L 2502 -1216 
z
M 2054 2675 
C 2266 2675 2432 2503 2432 2286 
C 2432 1758 1997 854 1562 491 
C 1395 351 1222 275 1069 275 
C 851 275 710 466 710 765 
C 710 1236 1043 1943 1459 2363 
C 1658 2560 1869 2675 2054 2675 
z
" transform="scale(0.015625)"/>
       <path id="CMSY10-6b" d="M 1101 4582 
C 1101 4684 1101 4800 973 4800 
C 845 4800 845 4659 845 4563 
L 845 -1364 
C 845 -1466 845 -1600 973 -1600 
C 1101 -1600 1101 -1485 1101 -1383 
L 1101 4582 
z
M 2349 4563 
C 2349 4665 2349 4800 2221 4800 
C 2093 4800 2093 4684 2093 4582 
L 2093 -1383 
C 2093 -1485 2093 -1600 2221 -1600 
C 2349 -1600 2349 -1460 2349 -1364 
L 2349 4563 
z
" transform="scale(0.015625)"/>
       <path id="NimbusRomNo9L-Regu-28" d="M 1888 4352 
C 1414 4044 1222 3878 986 3583 
C 531 3027 307 2387 307 1638 
C 307 825 544 198 1107 -455 
C 1370 -762 1536 -903 1869 -1108 
L 1946 -1006 
C 1434 -602 1254 -378 1082 102 
C 928 530 858 1017 858 1657 
C 858 2329 941 2854 1114 3251 
C 1293 3647 1485 3878 1946 4249 
L 1888 4352 
z
" transform="scale(0.015625)"/>
       <path id="NimbusRomNo9L-Regu-4d" d="M 4314 3656 
L 4314 765 
C 4314 236 4237 153 3731 121 
L 3731 0 
L 5523 0 
L 5523 121 
C 5056 153 4966 242 4966 695 
L 4966 3528 
C 4966 3981 5050 4064 5523 4102 
L 5523 4224 
L 4250 4224 
L 2835 1002 
L 1357 4224 
L 90 4224 
L 90 4102 
C 614 4070 698 3994 698 3528 
L 698 938 
C 698 281 608 159 77 121 
L 77 0 
L 1581 0 
L 1581 121 
C 1088 147 979 293 979 938 
L 979 3509 
L 2586 0 
L 2675 0 
L 4314 3656 
z
" transform="scale(0.015625)"/>
       <path id="NimbusRomNo9L-Regu-57" d="M 5965 4224 
L 4698 4224 
L 4698 4102 
C 5024 4070 5139 4000 5139 3828 
C 5139 3694 5101 3529 5037 3350 
L 4237 1191 
L 3392 3363 
C 3379 3395 3322 3535 3315 3554 
C 3258 3688 3219 3809 3219 3879 
C 3219 4032 3366 4095 3712 4102 
L 3712 4224 
L 2003 4224 
L 2003 4102 
C 2368 4095 2432 4038 2650 3529 
L 2861 3007 
L 2176 1210 
L 1254 3605 
C 1210 3720 1184 3828 1184 3898 
C 1184 4038 1274 4083 1600 4102 
L 1600 4224 
L 32 4224 
L 32 4102 
C 358 4070 454 3956 691 3357 
L 1926 -64 
L 2022 -64 
L 3008 2631 
L 4032 -64 
L 4128 -64 
C 4672 1599 4736 1777 5434 3650 
C 5555 3981 5626 4038 5965 4102 
L 5965 4224 
z
" transform="scale(0.015625)"/>
       <path id="NimbusRomNo9L-Regu-2f" d="M 1837 4352 
L 1408 4352 
L -58 -64 
L 378 -64 
L 1837 4352 
z
" transform="scale(0.015625)"/>
       <path id="NimbusRomNo9L-Regu-6d" d="M 122 2547 
C 205 2566 256 2572 326 2572 
C 493 2572 550 2470 550 2163 
L 550 544 
C 550 198 461 102 102 96 
L 102 0 
L 1523 0 
L 1523 96 
C 1184 108 1088 179 1088 428 
L 1088 2233 
C 1088 2246 1139 2310 1184 2355 
C 1344 2502 1619 2611 1843 2611 
C 2125 2611 2266 2387 2266 1939 
L 2266 550 
C 2266 192 2195 121 1830 96 
L 1830 0 
L 3264 0 
L 3264 96 
C 2899 102 2803 211 2803 608 
L 2803 2220 
C 2995 2496 3206 2611 3501 2611 
C 3866 2611 3981 2438 3981 1907 
L 3981 556 
C 3981 192 3930 140 3558 96 
L 3558 0 
L 4960 0 
L 4960 96 
L 4794 108 
C 4602 121 4518 236 4518 486 
L 4518 1804 
C 4518 2560 4269 2944 3776 2944 
C 3405 2944 3078 2777 2733 2406 
C 2618 2771 2400 2944 2054 2944 
C 1773 2944 1594 2854 1062 2451 
L 1062 2931 
L 1018 2944 
C 691 2822 474 2751 122 2655 
L 122 2547 
z
" transform="scale(0.015625)"/>
       <path id="NimbusRomNo9L-Regu-32" d="M 3040 879 
L 2957 912 
C 2720 544 2637 486 2349 486 
L 819 486 
L 1894 1621 
C 2464 2221 2714 2711 2714 3214 
C 2714 3858 2195 4352 1530 4352 
C 1178 4352 845 4211 608 3955 
C 403 3736 307 3530 198 3072 
L 333 3039 
C 589 3671 819 3878 1261 3878 
C 1798 3878 2163 3510 2163 2969 
C 2163 2466 1869 1866 1331 1292 
L 192 76 
L 192 0 
L 2688 0 
L 3040 879 
z
" transform="scale(0.015625)"/>
       <path id="NimbusRomNo9L-Regu-29" d="M 243 -1108 
C 717 -801 909 -634 1146 -340 
C 1600 217 1824 857 1824 1606 
C 1824 2425 1587 3046 1024 3699 
C 762 4006 595 4147 262 4352 
L 186 4249 
C 698 3846 870 3622 1050 3142 
C 1203 2713 1274 2227 1274 1587 
C 1274 921 1190 390 1018 -1 
C 838 -404 646 -634 186 -1006 
L 243 -1108 
z
" transform="scale(0.015625)"/>
      </defs>
      <use xlink:href="#NimbusRomNo9L-ReguItal-71" transform="scale(0.996264)"/>
      <use xlink:href="#CMSY10-6b" transform="translate(49.8132 -20.43226) scale(0.737241)"/>
      <use xlink:href="#NimbusRomNo9L-Regu-28" transform="translate(112.079975 0) scale(0.996264)"/>
      <use xlink:href="#NimbusRomNo9L-Regu-4d" transform="translate(145.255204 0) scale(0.996264)"/>
      <use xlink:href="#NimbusRomNo9L-Regu-57" transform="translate(233.822111 0) scale(0.996264)"/>
      <use xlink:href="#NimbusRomNo9L-Regu-2f" transform="translate(327.86888 0) scale(0.996264)"/>
      <use xlink:href="#NimbusRomNo9L-Regu-6d" transform="translate(355.56405 0) scale(0.996264)"/>
      <use xlink:href="#NimbusRomNo9L-Regu-32" transform="translate(433.07242 36.163231) scale(0.737241)"/>
      <use xlink:href="#NimbusRomNo9L-Regu-29" transform="translate(470.432594 0) scale(0.996264)"/>
     </g>
    </g>
   </g>
   <g id="text_12">
    <text style="font-weight: 700; font-size: 11px; font-family: 'Times New Roman'; text-anchor: start" x="46.808517" y="17.098115" transform="rotate(-0 46.808517 17.098115)">#203782</text>
   </g>
  </g>
 </g>
 <defs>
  <clipPath id="p9509854a9f">
   <rect x="40.701049" y="6.819303" width="244.298711" height="119.789989"/>
  </clipPath>
 </defs>
</svg>
