<?xml version="1.0" encoding="utf-8" standalone="no"?>
<!DOCTYPE svg PUBLIC "-//W3C//DTD SVG 1.1//EN"
  "http://www.w3.org/Graphics/SVG/1.1/DTD/svg11.dtd">
<svg xmlns:xlink="http://www.w3.org/1999/xlink" width="324pt" height="252pt" viewBox="0 0 324 252" xmlns="http://www.w3.org/2000/svg" version="1.1">
 <metadata>
  <rdf:RDF xmlns:dc="http://purl.org/dc/elements/1.1/" xmlns:cc="http://creativecommons.org/ns#" xmlns:rdf="http://www.w3.org/1999/02/22-rdf-syntax-ns#">
   <cc:Work>
    <dc:type rdf:resource="http://purl.org/dc/dcmitype/StillImage"/>
    <dc:date>2024-12-06T11:00:30.533956</dc:date>
    <dc:format>image/svg+xml</dc:format>
    <dc:creator>
     <cc:Agent>
      <dc:title>Matplotlib v3.9.2, https://matplotlib.org/</dc:title>
     </cc:Agent>
    </dc:creator>
   </cc:Work>
  </rdf:RDF>
 </metadata>
 <defs>
  <style type="text/css">*{stroke-linejoin: round; stroke-linecap: butt}</style>
 </defs>
 <g id="figure_1">
  <g id="patch_1">
   <path d="M 0 252 
L 324 252 
L 324 0 
L 0 0 
z
" style="fill: #ffffff"/>
  </g>
  <g id="axes_1">
   <g id="patch_2">
    <path d="M 43.003987 216.404326 
L 320.99976 216.404326 
L 320.99976 17.62524 
L 43.003987 17.62524 
z
" style="fill: #ffffff"/>
   </g>
   <g id="PolyCollection_1">
    <path d="M 44.028023 216.34439 
L 44.028023 216.404326 
L 45.365435 216.404326 
L 46.704364 216.404326 
L 48.041776 216.404326 
L 49.380705 216.404326 
L 50.718117 216.404326 
L 52.057046 216.404326 
L 53.395469 216.404326 
L 54.734398 216.404326 
L 56.073327 216.404326 
L 57.412255 216.404326 
L 58.751184 216.404326 
L 60.090113 216.404326 
L 61.429042 216.404326 
L 62.76797 216.404326 
L 64.106899 216.404326 
L 65.445828 216.404326 
L 66.786273 216.404326 
L 68.125202 216.404326 
L 69.46413 216.404326 
L 70.804575 216.404326 
L 72.143504 216.404326 
L 73.483949 216.404326 
L 74.823889 216.404326 
L 76.162818 216.404326 
L 77.503263 216.404326 
L 78.843708 216.404326 
L 80.184153 216.404326 
L 81.524598 216.404326 
L 82.865043 216.404326 
L 84.205488 216.404326 
L 85.545933 216.404326 
L 86.886378 216.404326 
L 88.226823 216.404326 
L 89.567268 216.404326 
L 90.90923 216.404326 
L 92.249675 216.404326 
L 93.591636 216.404326 
L 94.932081 216.404326 
L 96.274043 216.404326 
L 97.614488 216.404326 
L 98.956449 216.404326 
L 100.296894 216.404326 
L 101.638856 216.404326 
L 102.980817 216.404326 
L 104.322779 216.404326 
L 105.66474 216.404326 
L 107.006701 216.404326 
L 108.348663 216.404326 
L 109.690624 216.404326 
L 111.032586 216.404326 
L 112.374547 216.404326 
L 113.71853 216.404326 
L 115.060492 216.404326 
L 116.402453 216.404326 
L 117.745931 216.404326 
L 119.087892 216.404326 
L 120.43137 216.404326 
L 121.773331 216.404326 
L 123.116809 216.404326 
L 124.460287 216.404326 
L 125.802248 216.404326 
L 127.145726 216.404326 
L 128.489204 216.404326 
L 129.832681 216.404326 
L 131.176159 216.404326 
L 132.519637 216.404326 
L 133.86362 216.404326 
L 135.207098 216.404326 
L 136.550576 216.404326 
L 137.89557 216.404326 
L 139.239048 216.404326 
L 140.582525 216.404326 
L 141.927519 216.404326 
L 143.270997 216.404326 
L 144.615991 216.404326 
L 145.959469 216.404326 
L 147.304969 216.404326 
L 148.649963 216.404326 
L 149.994957 216.404326 
L 151.338434 216.404326 
L 152.683429 216.404326 
L 154.028423 216.404326 
L 155.373417 216.404326 
L 156.718411 216.404326 
L 158.06391 216.404326 
L 159.408904 216.404326 
L 160.755415 216.404326 
L 162.100409 216.404326 
L 163.445403 216.404326 
L 164.791914 216.404326 
L 166.136908 216.404326 
L 167.482407 216.404326 
L 168.828918 216.404326 
L 170.175428 216.404326 
L 171.520422 216.404326 
L 172.866933 216.404326 
L 174.213443 216.404326 
L 175.560459 216.404326 
L 176.905453 216.404326 
L 178.251963 216.404326 
L 179.598474 216.404326 
L 180.944984 216.404326 
L 182.292 216.404326 
L 183.640027 216.404326 
L 184.986537 216.404326 
L 186.333048 216.404326 
L 187.679558 216.404326 
L 189.02809 216.404326 
L 190.374601 216.404326 
L 191.722628 216.404326 
L 193.069138 216.404326 
L 194.417165 216.404326 
L 195.764181 216.404326 
L 197.112208 216.404326 
L 198.460234 216.404326 
L 199.808261 216.404326 
L 201.156793 216.404326 
L 202.50482 216.404326 
L 203.852847 216.404326 
L 205.200874 216.404326 
L 206.5489 216.404326 
L 207.897433 216.404326 
L 209.245459 216.404326 
L 210.593486 216.404326 
L 211.943029 216.404326 
L 213.291561 216.404326 
L 214.639588 216.404326 
L 215.989131 216.404326 
L 217.338674 216.404326 
L 218.687207 216.404326 
L 220.03675 216.404326 
L 221.384777 216.404326 
L 222.734825 216.404326 
L 224.084368 216.404326 
L 225.433911 216.404326 
L 226.783455 216.404326 
L 228.133503 216.404326 
L 229.483046 216.404326 
L 230.832589 216.404326 
L 232.182638 216.404326 
L 233.532181 216.404326 
L 234.88324 216.404326 
L 236.232784 216.404326 
L 237.582832 216.404326 
L 238.933892 216.404326 
L 240.283435 216.404326 
L 241.635 216.404326 
L 242.986059 216.404326 
L 244.335602 216.404326 
L 245.687167 216.404326 
L 247.038227 216.404326 
L 248.389286 216.404326 
L 249.739335 216.404326 
L 251.090394 216.404326 
L 252.441453 216.404326 
L 253.793018 216.404326 
L 255.145594 216.404326 
L 256.496654 216.404326 
L 257.848218 216.404326 
L 259.199278 216.404326 
L 260.551854 216.404326 
L 261.903419 216.404326 
L 263.254478 216.404326 
L 264.607559 216.404326 
L 265.958619 216.404326 
L 267.311195 216.404326 
L 268.664276 216.404326 
L 270.015335 216.404326 
L 271.367911 216.404326 
L 272.720992 216.404326 
L 274.073568 216.404326 
L 275.426649 216.404326 
L 276.779225 216.404326 
L 278.131801 216.404326 
L 279.484882 216.404326 
L 280.837458 216.404326 
L 282.190539 216.404326 
L 283.544631 216.404326 
L 284.897207 216.404326 
L 286.251805 216.404326 
L 287.604381 216.404326 
L 288.957462 216.404326 
L 290.311554 216.404326 
L 291.666152 216.404326 
L 293.018727 216.404326 
L 294.372819 216.404326 
L 295.727417 216.404326 
L 297.081509 216.404326 
L 298.436107 216.404326 
L 299.790199 216.404326 
L 301.144796 216.404326 
L 302.498889 216.404326 
L 303.852981 216.404326 
L 305.207578 216.404326 
L 306.56167 216.404326 
L 307.917784 216.404326 
L 309.271877 216.404326 
L 310.626474 216.404326 
L 311.982083 216.404326 
L 313.33668 216.404326 
L 314.692289 216.404326 
L 316.046886 216.404326 
L 317.402495 216.404326 
L 318.758609 216.404326 
L 320.114217 216.404326 
L 320.114217 216.029754 
L 320.114217 216.029754 
L 318.758609 216.016294 
L 317.402495 216.002081 
L 316.046886 215.98707 
L 314.692289 215.971205 
L 313.33668 215.954393 
L 311.982083 215.936585 
L 310.626474 215.917669 
L 309.271877 215.89758 
L 307.917784 215.876211 
L 306.56167 215.853405 
L 305.207578 215.829101 
L 303.852981 215.803115 
L 302.498889 215.775305 
L 301.144796 215.745481 
L 299.790199 215.713428 
L 298.436107 215.678938 
L 297.081509 215.641723 
L 295.727417 215.601512 
L 294.372819 215.557931 
L 293.018727 215.510617 
L 291.666152 215.459158 
L 290.311554 215.402884 
L 288.957462 215.341271 
L 287.604381 215.27362 
L 286.251805 215.199052 
L 284.897207 215.116382 
L 283.544631 215.024616 
L 282.190539 214.922013 
L 280.837458 214.806913 
L 279.484882 214.677012 
L 278.131801 214.529353 
L 276.779225 214.360415 
L 275.426649 214.165463 
L 274.073568 213.938259 
L 272.720992 213.670745 
L 271.367911 213.351447 
L 270.015335 212.964773 
L 268.664276 212.488298 
L 267.311195 211.886403 
L 265.958619 211.106476 
L 264.607559 210.062299 
L 263.254478 208.600874 
L 261.903419 206.454607 
L 260.551854 203.102749 
L 259.199278 197.55043 
L 257.848218 188.277466 
L 256.496654 175.78013 
L 255.145594 170.679194 
L 253.793018 179.125255 
L 252.441453 188.245247 
L 251.090394 192.859915 
L 249.739335 193.975068 
L 248.389286 192.649155 
L 247.038227 189.281787 
L 245.687167 183.8988 
L 244.335602 176.519309 
L 242.986059 167.79574 
L 241.635 159.809739 
L 240.283435 156.064774 
L 238.933892 158.780981 
L 237.582832 166.377033 
L 236.232784 175.326086 
L 234.88324 183.213355 
L 233.532181 189.223635 
L 232.182638 193.298203 
L 230.832589 195.501285 
L 229.483046 195.561304 
L 228.133503 192.35747 
L 226.783455 183.031126 
L 225.433911 166.166593 
L 224.084368 164.283633 
L 222.734825 183.210404 
L 221.384777 196.457393 
L 220.03675 203.19298 
L 218.687207 206.834442 
L 217.338674 209.009952 
L 215.989131 210.430886 
L 214.639588 211.423506 
L 213.291561 212.153276 
L 211.943029 212.71257 
L 210.593486 213.15485 
L 209.245459 213.51264 
L 207.897433 213.808219 
L 206.5489 214.056453 
L 205.200874 214.267573 
L 203.852847 214.44923 
L 202.50482 214.60704 
L 201.156793 214.745271 
L 199.808261 214.86727 
L 198.460234 214.975547 
L 197.112208 215.072225 
L 195.764181 215.158985 
L 194.417165 215.23714 
L 193.069138 215.307943 
L 191.722628 215.372205 
L 190.374601 215.430864 
L 189.02809 215.484457 
L 187.679558 215.533695 
L 186.333048 215.578918 
L 184.986537 215.620623 
L 183.640027 215.659177 
L 182.292 215.694934 
L 180.944984 215.728103 
L 179.598474 215.758946 
L 178.251963 215.78769 
L 176.905453 215.814524 
L 175.560459 215.839589 
L 174.213443 215.863101 
L 172.866933 215.885147 
L 171.520422 215.905854 
L 170.175428 215.92531 
L 168.828918 215.943656 
L 167.482407 215.960955 
L 166.136908 215.977275 
L 164.791914 215.992696 
L 163.445403 216.007304 
L 162.100409 216.021125 
L 160.755415 216.034231 
L 159.408904 216.046683 
L 158.06391 216.058499 
L 156.718411 216.069738 
L 155.373417 216.08043 
L 154.028423 216.090613 
L 152.683429 216.100321 
L 151.338434 216.109581 
L 149.994957 216.118412 
L 148.649963 216.126859 
L 147.304969 216.134935 
L 145.959469 216.142664 
L 144.615991 216.150052 
L 143.270997 216.157137 
L 141.927519 216.163922 
L 140.582525 216.170436 
L 139.239048 216.176681 
L 137.89557 216.182678 
L 136.550576 216.188446 
L 135.207098 216.193985 
L 133.86362 216.199313 
L 132.519637 216.204441 
L 131.176159 216.209377 
L 129.832681 216.214131 
L 128.489204 216.218713 
L 127.145726 216.223131 
L 125.802248 216.227392 
L 124.460287 216.231499 
L 123.116809 216.235469 
L 121.773331 216.239303 
L 120.43137 216.243004 
L 119.087892 216.246585 
L 117.745931 216.250044 
L 116.402453 216.253393 
L 115.060492 216.256631 
L 113.71853 216.259765 
L 112.374547 216.262805 
L 111.032586 216.265745 
L 109.690624 216.268595 
L 108.348663 216.271357 
L 107.006701 216.274035 
L 105.66474 216.276633 
L 104.322779 216.279154 
L 102.980817 216.281601 
L 101.638856 216.283976 
L 100.296894 216.286283 
L 98.956449 216.288522 
L 97.614488 216.2907 
L 96.274043 216.292815 
L 94.932081 216.294873 
L 93.591636 216.296872 
L 92.249675 216.298819 
L 90.90923 216.300712 
L 89.567268 216.302556 
L 88.226823 216.304349 
L 86.886378 216.306095 
L 85.545933 216.307795 
L 84.205488 216.309452 
L 82.865043 216.311066 
L 81.524598 216.312639 
L 80.184153 216.314173 
L 78.843708 216.315669 
L 77.503263 216.317127 
L 76.162818 216.31855 
L 74.823889 216.319937 
L 73.483949 216.321291 
L 72.143504 216.322614 
L 70.804575 216.323903 
L 69.46413 216.325164 
L 68.125202 216.326393 
L 66.786273 216.327595 
L 65.445828 216.32877 
L 64.106899 216.329917 
L 62.76797 216.331038 
L 61.429042 216.332133 
L 60.090113 216.333205 
L 58.751184 216.334252 
L 57.412255 216.335277 
L 56.073327 216.336279 
L 54.734398 216.33726 
L 53.395469 216.338219 
L 52.057046 216.339158 
L 50.718117 216.340077 
L 49.380705 216.340976 
L 48.041776 216.341857 
L 46.704364 216.342719 
L 45.365435 216.343564 
L 44.028023 216.34439 
z
" clip-path="url(#pf8c0017e5a)" style="fill: #1f77b4; fill-opacity: 0.25"/>
   </g>
   <g id="PolyCollection_2">
    <path d="M 44.028023 214.89877 
L 44.028023 216.404326 
L 45.365435 216.404326 
L 46.704364 216.404326 
L 48.041776 216.404326 
L 49.380705 216.404326 
L 50.718117 216.404326 
L 52.057046 216.404326 
L 53.395469 216.404326 
L 54.734398 216.404326 
L 56.073327 216.404326 
L 57.412255 216.404326 
L 58.751184 216.404326 
L 60.090113 216.404326 
L 61.429042 216.404326 
L 62.76797 216.404326 
L 64.106899 216.404326 
L 65.445828 216.404326 
L 66.786273 216.404326 
L 68.125202 216.404326 
L 69.46413 216.404326 
L 70.804575 216.404326 
L 72.143504 216.404326 
L 73.483949 216.404326 
L 74.823889 216.404326 
L 76.162818 216.404326 
L 77.503263 216.404326 
L 78.843708 216.404326 
L 80.184153 216.404326 
L 81.524598 216.404326 
L 82.865043 216.404326 
L 84.205488 216.404326 
L 85.545933 216.404326 
L 86.886378 216.404326 
L 88.226823 216.404326 
L 89.567268 216.404326 
L 90.90923 216.404326 
L 92.249675 216.404326 
L 93.591636 216.404326 
L 94.932081 216.404326 
L 96.274043 216.404326 
L 97.614488 216.404326 
L 98.956449 216.404326 
L 100.296894 216.404326 
L 101.638856 216.404326 
L 102.980817 216.404326 
L 104.322779 216.404326 
L 105.66474 216.404326 
L 107.006701 216.404326 
L 108.348663 216.404326 
L 109.690624 216.404326 
L 111.032586 216.404326 
L 112.374547 216.404326 
L 113.71853 216.404326 
L 115.060492 216.404326 
L 116.402453 216.404326 
L 117.745931 216.404326 
L 119.087892 216.404326 
L 120.43137 216.404326 
L 121.773331 216.404326 
L 123.116809 216.404326 
L 124.460287 216.404326 
L 125.802248 216.404326 
L 127.145726 216.404326 
L 128.489204 216.404326 
L 129.832681 216.404326 
L 131.176159 216.404326 
L 132.519637 216.404326 
L 133.86362 216.404326 
L 135.207098 216.404326 
L 136.550576 216.404326 
L 137.89557 216.404326 
L 139.239048 216.404326 
L 140.582525 216.404326 
L 141.927519 216.404326 
L 143.270997 216.404326 
L 144.615991 216.404326 
L 145.959469 216.404326 
L 147.304969 216.404326 
L 148.649963 216.404326 
L 149.994957 216.404326 
L 151.338434 216.404326 
L 152.683429 216.404326 
L 154.028423 216.404326 
L 155.373417 216.404326 
L 156.718411 216.404326 
L 158.06391 216.404326 
L 159.408904 216.404326 
L 160.755415 216.404326 
L 162.100409 216.404326 
L 163.445403 216.404326 
L 164.791914 216.404326 
L 166.136908 216.404326 
L 167.482407 216.404326 
L 168.828918 216.404326 
L 170.175428 216.404326 
L 171.520422 216.404326 
L 172.866933 216.404326 
L 174.213443 216.404326 
L 175.560459 216.404326 
L 176.905453 216.404326 
L 178.251963 216.404326 
L 179.598474 216.404326 
L 180.944984 216.404326 
L 182.292 216.404326 
L 183.640027 216.404326 
L 184.986537 216.404326 
L 186.333048 216.404326 
L 187.679558 216.404326 
L 189.02809 216.404326 
L 190.374601 216.404326 
L 191.722628 216.404326 
L 193.069138 216.404326 
L 194.417165 216.404326 
L 195.764181 216.404326 
L 197.112208 216.404326 
L 198.460234 216.404326 
L 199.808261 216.404326 
L 201.156793 216.404326 
L 202.50482 216.404326 
L 203.852847 216.404326 
L 205.200874 216.404326 
L 206.5489 216.404326 
L 207.897433 216.404326 
L 209.245459 216.404326 
L 210.593486 216.404326 
L 211.943029 216.404326 
L 213.291561 216.404326 
L 214.639588 216.404326 
L 215.989131 216.404326 
L 217.338674 216.404326 
L 218.687207 216.404326 
L 220.03675 216.404326 
L 221.384777 216.404326 
L 222.734825 216.404326 
L 224.084368 216.404326 
L 225.433911 216.404326 
L 226.783455 216.404326 
L 228.133503 216.404326 
L 229.483046 216.404326 
L 230.832589 216.404326 
L 232.182638 216.404326 
L 233.532181 216.404326 
L 234.88324 216.404326 
L 236.232784 216.404326 
L 237.582832 216.404326 
L 238.933892 216.404326 
L 240.283435 216.404326 
L 241.635 216.404326 
L 242.986059 216.404326 
L 244.335602 216.404326 
L 245.687167 216.404326 
L 247.038227 216.404326 
L 248.389286 216.404326 
L 249.739335 216.404326 
L 251.090394 216.404326 
L 252.441453 216.404326 
L 253.793018 216.404326 
L 255.145594 216.404326 
L 256.496654 216.404326 
L 257.848218 216.404326 
L 259.199278 216.404326 
L 260.551854 216.404326 
L 261.903419 216.404326 
L 263.254478 216.404326 
L 264.607559 216.404326 
L 265.958619 216.404326 
L 267.311195 216.404326 
L 268.664276 216.404326 
L 270.015335 216.404326 
L 271.367911 216.404326 
L 272.720992 216.404326 
L 274.073568 216.404326 
L 275.426649 216.404326 
L 276.779225 216.404326 
L 278.131801 216.404326 
L 279.484882 216.404326 
L 280.837458 216.404326 
L 282.190539 216.404326 
L 283.544631 216.404326 
L 284.897207 216.404326 
L 286.251805 216.404326 
L 287.604381 216.404326 
L 288.957462 216.404326 
L 290.311554 216.404326 
L 291.666152 216.404326 
L 293.018727 216.404326 
L 294.372819 216.404326 
L 295.727417 216.404326 
L 297.081509 216.404326 
L 298.436107 216.404326 
L 299.790199 216.404326 
L 301.144796 216.404326 
L 302.498889 216.404326 
L 303.852981 216.404326 
L 305.207578 216.404326 
L 306.56167 216.404326 
L 307.917784 216.404326 
L 309.271877 216.404326 
L 310.626474 216.404326 
L 311.982083 216.404326 
L 313.33668 216.404326 
L 314.692289 216.404326 
L 316.046886 216.404326 
L 317.402495 216.404326 
L 318.758609 216.404326 
L 320.114217 216.404326 
L 320.114217 216.069279 
L 320.114217 216.069279 
L 318.758609 216.063417 
L 317.402495 216.057394 
L 316.046886 216.051208 
L 314.692289 216.044857 
L 313.33668 216.038324 
L 311.982083 216.031612 
L 310.626474 216.024704 
L 309.271877 216.017603 
L 307.917784 216.010299 
L 306.56167 216.00277 
L 305.207578 215.995029 
L 303.852981 215.987054 
L 302.498889 215.97884 
L 301.144796 215.970375 
L 299.790199 215.961646 
L 298.436107 215.952647 
L 297.081509 215.94336 
L 295.727417 215.933779 
L 294.372819 215.923886 
L 293.018727 215.913672 
L 291.666152 215.903132 
L 290.311554 215.892223 
L 288.957462 215.880948 
L 287.604381 215.869295 
L 286.251805 215.857242 
L 284.897207 215.844746 
L 283.544631 215.831825 
L 282.190539 215.818422 
L 280.837458 215.80454 
L 279.484882 215.790149 
L 278.131801 215.775212 
L 276.779225 215.759713 
L 275.426649 215.743617 
L 274.073568 215.726884 
L 272.720992 215.709495 
L 271.367911 215.691399 
L 270.015335 215.672571 
L 268.664276 215.652985 
L 267.311195 215.632546 
L 265.958619 215.611241 
L 264.607559 215.589038 
L 263.254478 215.565822 
L 261.903419 215.541604 
L 260.551854 215.516275 
L 259.199278 215.489755 
L 257.848218 215.462019 
L 256.496654 215.432946 
L 255.145594 215.402471 
L 253.793018 215.37045 
L 252.441453 215.336838 
L 251.090394 215.301515 
L 249.739335 215.264344 
L 248.389286 215.225222 
L 247.038227 215.183943 
L 245.687167 215.140377 
L 244.335602 215.09433 
L 242.986059 215.045698 
L 241.635 214.994145 
L 240.283435 214.939466 
L 238.933892 214.881511 
L 237.582832 214.819842 
L 236.232784 214.754255 
L 234.88324 214.684378 
L 233.532181 214.609707 
L 232.182638 214.529968 
L 230.832589 214.444554 
L 229.483046 214.352974 
L 228.133503 214.254573 
L 226.783455 214.148604 
L 225.433911 214.034346 
L 224.084368 213.910852 
L 222.734825 213.777086 
L 221.384777 213.631805 
L 220.03675 213.47394 
L 218.687207 213.301516 
L 217.338674 213.113032 
L 215.989131 212.906097 
L 214.639588 212.67838 
L 213.291561 212.427291 
L 211.943029 212.149083 
L 210.593486 211.839583 
L 209.245459 211.494606 
L 207.897433 211.10811 
L 206.5489 210.67305 
L 205.200874 210.181436 
L 203.852847 209.622997 
L 202.50482 208.985349 
L 201.156793 208.253239 
L 199.808261 207.407432 
L 198.460234 206.425018 
L 197.112208 205.276245 
L 195.764181 203.924113 
L 194.417165 202.323392 
L 193.069138 200.413295 
L 191.722628 198.124977 
L 190.374601 195.364306 
L 189.02809 192.032552 
L 187.679558 188.004995 
L 186.333048 183.185642 
L 184.986537 177.509705 
L 183.640027 171.045999 
L 182.292 164.107569 
L 180.944984 157.413159 
L 179.598474 152.061699 
L 178.251963 149.2597 
L 176.905453 149.743159 
L 175.560459 153.312856 
L 174.213443 158.98058 
L 172.866933 165.506062 
L 171.520422 171.918745 
L 170.175428 177.655945 
L 168.828918 182.509199 
L 167.482407 186.445943 
L 166.136908 189.52481 
L 164.791914 191.829009 
L 163.445403 193.42686 
L 162.100409 194.346062 
L 160.755415 194.57074 
L 159.408904 194.013154 
L 158.06391 192.487402 
L 156.718411 189.65116 
L 155.373417 184.933627 
L 154.028423 177.475301 
L 152.683429 166.399839 
L 151.338434 152.386275 
L 149.994957 140.92825 
L 148.649963 139.39315 
L 147.304969 144.493055 
L 145.959469 145.728377 
L 144.615991 139.054286 
L 143.270997 136.476161 
L 141.927519 151.427227 
L 140.582525 169.51279 
L 139.239048 181.199058 
L 137.89557 187.498974 
L 136.550576 190.253656 
L 135.207098 190.248869 
L 133.86362 187.256042 
L 132.519637 179.781478 
L 131.176159 164.507474 
L 129.832681 139.174624 
L 128.489204 123.313181 
L 127.145726 142.542418 
L 125.802248 167.063273 
L 124.460287 181.287064 
L 123.116809 188.26694 
L 121.773331 191.146191 
L 120.43137 191.385904 
L 119.087892 189.442146 
L 117.745931 185.190257 
L 116.402453 178.148103 
L 115.060492 168.036067 
L 113.71853 156.306185 
L 112.374547 148.355138 
L 111.032586 150.409838 
L 109.690624 160.72132 
L 108.348663 172.359246 
L 107.006701 181.395507 
L 105.66474 187.134157 
L 104.322779 189.642828 
L 102.980817 188.145965 
L 101.638856 179.811314 
L 100.296894 168.405374 
L 98.956449 178.397782 
L 97.614488 190.237704 
L 96.274043 195.006994 
L 94.932081 196.088052 
L 93.591636 194.99379 
L 92.249675 191.995622 
L 90.90923 186.754421 
L 89.567268 178.518267 
L 88.226823 166.633392 
L 86.886378 152.228843 
L 85.545933 141.453632 
L 84.205488 142.910504 
L 82.865043 155.544258 
L 81.524598 170.425859 
L 80.184153 182.414324 
L 78.843708 190.936465 
L 77.503263 196.831187 
L 76.162818 200.949563 
L 74.823889 203.890367 
L 73.483949 206.049343 
L 72.143504 207.673625 
L 70.804575 208.922291 
L 69.46413 209.90445 
L 68.125202 210.689499 
L 66.786273 211.328089 
L 65.445828 211.855635 
L 64.106899 212.29608 
L 62.76797 212.6685 
L 61.429042 212.986646 
L 60.090113 213.260944 
L 58.751184 213.499408 
L 57.412255 213.708285 
L 56.073327 213.892498 
L 54.734398 214.055973 
L 53.395469 214.201871 
L 52.057046 214.332715 
L 50.718117 214.450709 
L 49.380705 214.557427 
L 48.041776 214.654559 
L 46.704364 214.7431 
L 45.365435 214.824276 
L 44.028023 214.89877 
z
" clip-path="url(#pf8c0017e5a)" style="fill: #ff7f0e; fill-opacity: 0.25"/>
   </g>
   <g id="line2d_1">
    <path d="M 44.028023 216.404326 
L 45.365435 183.122903 
L 46.704364 197.042225 
L 48.041776 216.404326 
L 49.380705 216.404326 
L 50.718117 203.96201 
L 52.057046 193.182486 
L 53.395469 191.23076 
L 54.734398 189.510244 
L 56.073327 188.955921 
L 57.412255 189.046194 
L 58.751184 189.765804 
L 60.090113 189.368792 
L 61.429042 191.237864 
L 62.76797 190.522231 
L 64.106899 183.246944 
L 65.445828 177.58947 
L 66.786273 177.404451 
L 68.125202 176.275834 
L 69.46413 177.44813 
L 70.804575 183.26073 
L 72.143504 190.162283 
L 73.483949 193.078879 
L 74.823889 192.39213 
L 76.162818 193.39948 
L 77.503263 195.184335 
L 78.843708 192.040841 
L 80.184153 178.410374 
L 81.524598 162.968702 
L 82.865043 155.383243 
L 84.205488 151.556198 
L 85.545933 141.466139 
L 86.886378 137.112691 
L 88.226823 151.592954 
L 89.567268 173.940527 
L 90.90923 187.782169 
L 92.249675 192.559273 
L 93.591636 192.500095 
L 94.932081 193.271908 
L 96.274043 193.459677 
L 97.614488 188.898679 
L 98.956449 183.223911 
L 100.296894 171.163776 
L 101.638856 170.989244 
L 102.980817 182.525951 
L 104.322779 192.117806 
L 105.66474 191.441754 
L 107.006701 186.448538 
L 108.348663 177.857141 
L 109.690624 162.928945 
L 111.032586 150.127435 
L 112.374547 150.145917 
L 113.71853 152.333044 
L 116.402453 169.321627 
L 119.087892 195.099977 
L 120.43137 196.831313 
L 123.116809 172.929845 
L 124.460287 174.812492 
L 125.802248 170.288918 
L 127.145726 158.039761 
L 128.489204 133.810631 
L 129.832681 126.564636 
L 131.176159 138.005649 
L 132.519637 182.460251 
L 133.86362 201.827747 
L 135.207098 204.098879 
L 136.550576 186.979339 
L 137.89557 185.812541 
L 139.239048 187.81729 
L 140.582525 178.537208 
L 141.927519 153.709362 
L 143.270997 141.134956 
L 144.615991 140.587765 
L 145.959469 139.105823 
L 147.304969 140.382936 
L 148.649963 145.215952 
L 149.994957 141.596579 
L 151.338434 140.658162 
L 152.683429 156.52165 
L 154.028423 177.171763 
L 155.373417 186.259606 
L 158.06391 195.20842 
L 159.408904 186.440193 
L 160.755415 179.098772 
L 162.100409 179.486116 
L 163.445403 189.419974 
L 164.791914 193.756459 
L 166.136908 194.904959 
L 167.482407 192.490418 
L 168.828918 197.976432 
L 170.175428 196.638425 
L 171.520422 180.293104 
L 172.866933 153.174123 
L 174.213443 148.247786 
L 175.560459 154.365637 
L 176.905453 156.894276 
L 178.251963 155.641857 
L 179.598474 147.9589 
L 180.944984 143.077665 
L 182.292 153.936339 
L 184.986537 184.571489 
L 186.333048 190.675925 
L 187.679558 190.571713 
L 189.02809 190.581419 
L 190.374601 191.595705 
L 191.722628 192.029219 
L 193.069138 192.762913 
L 194.417165 194.953445 
L 195.764181 202.962525 
L 197.112208 206.329401 
L 198.460234 201.619053 
L 199.808261 196.454532 
L 201.156793 198.252987 
L 202.50482 200.893862 
L 203.852847 202.825544 
L 205.200874 202.8213 
L 206.5489 201.947851 
L 207.897433 201.360266 
L 209.245459 202.296613 
L 210.593486 203.57138 
L 211.943029 203.9263 
L 213.291561 201.690924 
L 214.639588 205.897649 
L 215.989131 214.634784 
L 217.338674 216.404326 
L 220.03675 196.68952 
L 221.384777 196.256682 
L 222.734825 189.459399 
L 224.084368 171.069417 
L 225.433911 159.268298 
L 226.783455 169.075219 
L 228.133503 190.47188 
L 229.483046 198.217386 
L 230.832589 190.98294 
L 232.182638 191.95413 
L 233.532181 201.59125 
L 234.88324 195.882711 
L 236.232784 166.76855 
L 237.582832 159.054124 
L 238.933892 164.654803 
L 240.283435 158.933978 
L 241.635 154.433733 
L 242.986059 162.932366 
L 244.335602 165.356683 
L 245.687167 188.25049 
L 247.038227 176.950808 
L 248.389286 191.093228 
L 249.739335 200.47739 
L 251.090394 196.480426 
L 252.441453 180.452419 
L 253.793018 181.743399 
L 256.496654 171.289211 
L 257.848218 171.430369 
L 259.199278 203.977322 
L 260.551854 205.230154 
L 261.903419 205.306533 
L 263.254478 205.205608 
L 264.607559 204.530081 
L 265.958619 203.065244 
L 267.311195 203.182925 
L 268.664276 211.79605 
L 270.015335 213.375611 
L 271.367911 207.918713 
L 272.720992 196.707046 
L 274.073568 186.67438 
L 275.426649 216.404326 
L 278.131801 216.404326 
L 279.484882 185.444155 
L 280.837458 190.044232 
L 282.190539 188.886266 
L 283.544631 182.881494 
L 284.897207 177.8494 
L 286.251805 174.689939 
L 287.604381 160.640839 
L 288.957462 135.789473 
L 290.311554 127.739094 
L 291.592561 -1 
M 301.082618 -1 
L 301.144796 15.911963 
L 302.498889 111.462794 
L 303.852981 146.342742 
L 305.207578 158.677374 
L 307.917784 185.283608 
L 309.271877 191.117025 
L 310.626474 190.719335 
L 311.982083 187.684125 
L 313.33668 194.037874 
L 314.692289 197.249725 
L 316.046886 187.969127 
L 317.402495 183.551844 
L 318.758609 190.573035 
L 320.114217 194.891969 
L 320.114217 194.891969 
" clip-path="url(#pf8c0017e5a)" style="fill: none; stroke: #1f77b4; stroke-width: 1.5; stroke-linecap: square"/>
    <defs>
     <path id="m496cf748ba" d="M 0 1.5 
C 0.397805 1.5 0.77937 1.341951 1.06066 1.06066 
C 1.341951 0.77937 1.5 0.397805 1.5 0 
C 1.5 -0.397805 1.341951 -0.77937 1.06066 -1.06066 
C 0.77937 -1.341951 0.397805 -1.5 0 -1.5 
C -0.397805 -1.5 -0.77937 -1.341951 -1.06066 -1.06066 
C -1.341951 -0.77937 -1.5 -0.397805 -1.5 0 
C -1.5 0.397805 -1.341951 0.77937 -1.06066 1.06066 
C -0.77937 1.341951 -0.397805 1.5 0 1.5 
z
" style="stroke: #1f77b4"/>
    </defs>
    <g clip-path="url(#pf8c0017e5a)">
     <use xlink:href="#m496cf748ba" x="44.028023" y="216.404326" style="fill-opacity: 0; stroke: #1f77b4"/>
     <use xlink:href="#m496cf748ba" x="45.365435" y="183.122903" style="fill-opacity: 0; stroke: #1f77b4"/>
     <use xlink:href="#m496cf748ba" x="46.704364" y="197.042225" style="fill-opacity: 0; stroke: #1f77b4"/>
     <use xlink:href="#m496cf748ba" x="48.041776" y="216.404326" style="fill-opacity: 0; stroke: #1f77b4"/>
     <use xlink:href="#m496cf748ba" x="49.380705" y="216.404326" style="fill-opacity: 0; stroke: #1f77b4"/>
     <use xlink:href="#m496cf748ba" x="50.718117" y="203.96201" style="fill-opacity: 0; stroke: #1f77b4"/>
     <use xlink:href="#m496cf748ba" x="52.057046" y="193.182486" style="fill-opacity: 0; stroke: #1f77b4"/>
     <use xlink:href="#m496cf748ba" x="53.395469" y="191.23076" style="fill-opacity: 0; stroke: #1f77b4"/>
     <use xlink:href="#m496cf748ba" x="54.734398" y="189.510244" style="fill-opacity: 0; stroke: #1f77b4"/>
     <use xlink:href="#m496cf748ba" x="56.073327" y="188.955921" style="fill-opacity: 0; stroke: #1f77b4"/>
     <use xlink:href="#m496cf748ba" x="57.412255" y="189.046194" style="fill-opacity: 0; stroke: #1f77b4"/>
     <use xlink:href="#m496cf748ba" x="58.751184" y="189.765804" style="fill-opacity: 0; stroke: #1f77b4"/>
     <use xlink:href="#m496cf748ba" x="60.090113" y="189.368792" style="fill-opacity: 0; stroke: #1f77b4"/>
     <use xlink:href="#m496cf748ba" x="61.429042" y="191.237864" style="fill-opacity: 0; stroke: #1f77b4"/>
     <use xlink:href="#m496cf748ba" x="62.76797" y="190.522231" style="fill-opacity: 0; stroke: #1f77b4"/>
     <use xlink:href="#m496cf748ba" x="64.106899" y="183.246944" style="fill-opacity: 0; stroke: #1f77b4"/>
     <use xlink:href="#m496cf748ba" x="65.445828" y="177.58947" style="fill-opacity: 0; stroke: #1f77b4"/>
     <use xlink:href="#m496cf748ba" x="66.786273" y="177.404451" style="fill-opacity: 0; stroke: #1f77b4"/>
     <use xlink:href="#m496cf748ba" x="68.125202" y="176.275834" style="fill-opacity: 0; stroke: #1f77b4"/>
     <use xlink:href="#m496cf748ba" x="69.46413" y="177.44813" style="fill-opacity: 0; stroke: #1f77b4"/>
     <use xlink:href="#m496cf748ba" x="70.804575" y="183.26073" style="fill-opacity: 0; stroke: #1f77b4"/>
     <use xlink:href="#m496cf748ba" x="72.143504" y="190.162283" style="fill-opacity: 0; stroke: #1f77b4"/>
     <use xlink:href="#m496cf748ba" x="73.483949" y="193.078879" style="fill-opacity: 0; stroke: #1f77b4"/>
     <use xlink:href="#m496cf748ba" x="74.823889" y="192.39213" style="fill-opacity: 0; stroke: #1f77b4"/>
     <use xlink:href="#m496cf748ba" x="76.162818" y="193.39948" style="fill-opacity: 0; stroke: #1f77b4"/>
     <use xlink:href="#m496cf748ba" x="77.503263" y="195.184335" style="fill-opacity: 0; stroke: #1f77b4"/>
     <use xlink:href="#m496cf748ba" x="78.843708" y="192.040841" style="fill-opacity: 0; stroke: #1f77b4"/>
     <use xlink:href="#m496cf748ba" x="80.184153" y="178.410374" style="fill-opacity: 0; stroke: #1f77b4"/>
     <use xlink:href="#m496cf748ba" x="81.524598" y="162.968702" style="fill-opacity: 0; stroke: #1f77b4"/>
     <use xlink:href="#m496cf748ba" x="82.865043" y="155.383243" style="fill-opacity: 0; stroke: #1f77b4"/>
     <use xlink:href="#m496cf748ba" x="84.205488" y="151.556198" style="fill-opacity: 0; stroke: #1f77b4"/>
     <use xlink:href="#m496cf748ba" x="85.545933" y="141.466139" style="fill-opacity: 0; stroke: #1f77b4"/>
     <use xlink:href="#m496cf748ba" x="86.886378" y="137.112691" style="fill-opacity: 0; stroke: #1f77b4"/>
     <use xlink:href="#m496cf748ba" x="88.226823" y="151.592954" style="fill-opacity: 0; stroke: #1f77b4"/>
     <use xlink:href="#m496cf748ba" x="89.567268" y="173.940527" style="fill-opacity: 0; stroke: #1f77b4"/>
     <use xlink:href="#m496cf748ba" x="90.90923" y="187.782169" style="fill-opacity: 0; stroke: #1f77b4"/>
     <use xlink:href="#m496cf748ba" x="92.249675" y="192.559273" style="fill-opacity: 0; stroke: #1f77b4"/>
     <use xlink:href="#m496cf748ba" x="93.591636" y="192.500095" style="fill-opacity: 0; stroke: #1f77b4"/>
     <use xlink:href="#m496cf748ba" x="94.932081" y="193.271908" style="fill-opacity: 0; stroke: #1f77b4"/>
     <use xlink:href="#m496cf748ba" x="96.274043" y="193.459677" style="fill-opacity: 0; stroke: #1f77b4"/>
     <use xlink:href="#m496cf748ba" x="97.614488" y="188.898679" style="fill-opacity: 0; stroke: #1f77b4"/>
     <use xlink:href="#m496cf748ba" x="98.956449" y="183.223911" style="fill-opacity: 0; stroke: #1f77b4"/>
     <use xlink:href="#m496cf748ba" x="100.296894" y="171.163776" style="fill-opacity: 0; stroke: #1f77b4"/>
     <use xlink:href="#m496cf748ba" x="101.638856" y="170.989244" style="fill-opacity: 0; stroke: #1f77b4"/>
     <use xlink:href="#m496cf748ba" x="102.980817" y="182.525951" style="fill-opacity: 0; stroke: #1f77b4"/>
     <use xlink:href="#m496cf748ba" x="104.322779" y="192.117806" style="fill-opacity: 0; stroke: #1f77b4"/>
     <use xlink:href="#m496cf748ba" x="105.66474" y="191.441754" style="fill-opacity: 0; stroke: #1f77b4"/>
     <use xlink:href="#m496cf748ba" x="107.006701" y="186.448538" style="fill-opacity: 0; stroke: #1f77b4"/>
     <use xlink:href="#m496cf748ba" x="108.348663" y="177.857141" style="fill-opacity: 0; stroke: #1f77b4"/>
     <use xlink:href="#m496cf748ba" x="109.690624" y="162.928945" style="fill-opacity: 0; stroke: #1f77b4"/>
     <use xlink:href="#m496cf748ba" x="111.032586" y="150.127435" style="fill-opacity: 0; stroke: #1f77b4"/>
     <use xlink:href="#m496cf748ba" x="112.374547" y="150.145917" style="fill-opacity: 0; stroke: #1f77b4"/>
     <use xlink:href="#m496cf748ba" x="113.71853" y="152.333044" style="fill-opacity: 0; stroke: #1f77b4"/>
     <use xlink:href="#m496cf748ba" x="115.060492" y="161.182045" style="fill-opacity: 0; stroke: #1f77b4"/>
     <use xlink:href="#m496cf748ba" x="116.402453" y="169.321627" style="fill-opacity: 0; stroke: #1f77b4"/>
     <use xlink:href="#m496cf748ba" x="117.745931" y="182.623503" style="fill-opacity: 0; stroke: #1f77b4"/>
     <use xlink:href="#m496cf748ba" x="119.087892" y="195.099977" style="fill-opacity: 0; stroke: #1f77b4"/>
     <use xlink:href="#m496cf748ba" x="120.43137" y="196.831313" style="fill-opacity: 0; stroke: #1f77b4"/>
     <use xlink:href="#m496cf748ba" x="121.773331" y="185.087397" style="fill-opacity: 0; stroke: #1f77b4"/>
     <use xlink:href="#m496cf748ba" x="123.116809" y="172.929845" style="fill-opacity: 0; stroke: #1f77b4"/>
     <use xlink:href="#m496cf748ba" x="124.460287" y="174.812492" style="fill-opacity: 0; stroke: #1f77b4"/>
     <use xlink:href="#m496cf748ba" x="125.802248" y="170.288918" style="fill-opacity: 0; stroke: #1f77b4"/>
     <use xlink:href="#m496cf748ba" x="127.145726" y="158.039761" style="fill-opacity: 0; stroke: #1f77b4"/>
     <use xlink:href="#m496cf748ba" x="128.489204" y="133.810631" style="fill-opacity: 0; stroke: #1f77b4"/>
     <use xlink:href="#m496cf748ba" x="129.832681" y="126.564636" style="fill-opacity: 0; stroke: #1f77b4"/>
     <use xlink:href="#m496cf748ba" x="131.176159" y="138.005649" style="fill-opacity: 0; stroke: #1f77b4"/>
     <use xlink:href="#m496cf748ba" x="132.519637" y="182.460251" style="fill-opacity: 0; stroke: #1f77b4"/>
     <use xlink:href="#m496cf748ba" x="133.86362" y="201.827747" style="fill-opacity: 0; stroke: #1f77b4"/>
     <use xlink:href="#m496cf748ba" x="135.207098" y="204.098879" style="fill-opacity: 0; stroke: #1f77b4"/>
     <use xlink:href="#m496cf748ba" x="136.550576" y="186.979339" style="fill-opacity: 0; stroke: #1f77b4"/>
     <use xlink:href="#m496cf748ba" x="137.89557" y="185.812541" style="fill-opacity: 0; stroke: #1f77b4"/>
     <use xlink:href="#m496cf748ba" x="139.239048" y="187.81729" style="fill-opacity: 0; stroke: #1f77b4"/>
     <use xlink:href="#m496cf748ba" x="140.582525" y="178.537208" style="fill-opacity: 0; stroke: #1f77b4"/>
     <use xlink:href="#m496cf748ba" x="141.927519" y="153.709362" style="fill-opacity: 0; stroke: #1f77b4"/>
     <use xlink:href="#m496cf748ba" x="143.270997" y="141.134956" style="fill-opacity: 0; stroke: #1f77b4"/>
     <use xlink:href="#m496cf748ba" x="144.615991" y="140.587765" style="fill-opacity: 0; stroke: #1f77b4"/>
     <use xlink:href="#m496cf748ba" x="145.959469" y="139.105823" style="fill-opacity: 0; stroke: #1f77b4"/>
     <use xlink:href="#m496cf748ba" x="147.304969" y="140.382936" style="fill-opacity: 0; stroke: #1f77b4"/>
     <use xlink:href="#m496cf748ba" x="148.649963" y="145.215952" style="fill-opacity: 0; stroke: #1f77b4"/>
     <use xlink:href="#m496cf748ba" x="149.994957" y="141.596579" style="fill-opacity: 0; stroke: #1f77b4"/>
     <use xlink:href="#m496cf748ba" x="151.338434" y="140.658162" style="fill-opacity: 0; stroke: #1f77b4"/>
     <use xlink:href="#m496cf748ba" x="152.683429" y="156.52165" style="fill-opacity: 0; stroke: #1f77b4"/>
     <use xlink:href="#m496cf748ba" x="154.028423" y="177.171763" style="fill-opacity: 0; stroke: #1f77b4"/>
     <use xlink:href="#m496cf748ba" x="155.373417" y="186.259606" style="fill-opacity: 0; stroke: #1f77b4"/>
     <use xlink:href="#m496cf748ba" x="156.718411" y="190.722539" style="fill-opacity: 0; stroke: #1f77b4"/>
     <use xlink:href="#m496cf748ba" x="158.06391" y="195.20842" style="fill-opacity: 0; stroke: #1f77b4"/>
     <use xlink:href="#m496cf748ba" x="159.408904" y="186.440193" style="fill-opacity: 0; stroke: #1f77b4"/>
     <use xlink:href="#m496cf748ba" x="160.755415" y="179.098772" style="fill-opacity: 0; stroke: #1f77b4"/>
     <use xlink:href="#m496cf748ba" x="162.100409" y="179.486116" style="fill-opacity: 0; stroke: #1f77b4"/>
     <use xlink:href="#m496cf748ba" x="163.445403" y="189.419974" style="fill-opacity: 0; stroke: #1f77b4"/>
     <use xlink:href="#m496cf748ba" x="164.791914" y="193.756459" style="fill-opacity: 0; stroke: #1f77b4"/>
     <use xlink:href="#m496cf748ba" x="166.136908" y="194.904959" style="fill-opacity: 0; stroke: #1f77b4"/>
     <use xlink:href="#m496cf748ba" x="167.482407" y="192.490418" style="fill-opacity: 0; stroke: #1f77b4"/>
     <use xlink:href="#m496cf748ba" x="168.828918" y="197.976432" style="fill-opacity: 0; stroke: #1f77b4"/>
     <use xlink:href="#m496cf748ba" x="170.175428" y="196.638425" style="fill-opacity: 0; stroke: #1f77b4"/>
     <use xlink:href="#m496cf748ba" x="171.520422" y="180.293104" style="fill-opacity: 0; stroke: #1f77b4"/>
     <use xlink:href="#m496cf748ba" x="172.866933" y="153.174123" style="fill-opacity: 0; stroke: #1f77b4"/>
     <use xlink:href="#m496cf748ba" x="174.213443" y="148.247786" style="fill-opacity: 0; stroke: #1f77b4"/>
     <use xlink:href="#m496cf748ba" x="175.560459" y="154.365637" style="fill-opacity: 0; stroke: #1f77b4"/>
     <use xlink:href="#m496cf748ba" x="176.905453" y="156.894276" style="fill-opacity: 0; stroke: #1f77b4"/>
     <use xlink:href="#m496cf748ba" x="178.251963" y="155.641857" style="fill-opacity: 0; stroke: #1f77b4"/>
     <use xlink:href="#m496cf748ba" x="179.598474" y="147.9589" style="fill-opacity: 0; stroke: #1f77b4"/>
     <use xlink:href="#m496cf748ba" x="180.944984" y="143.077665" style="fill-opacity: 0; stroke: #1f77b4"/>
     <use xlink:href="#m496cf748ba" x="182.292" y="153.936339" style="fill-opacity: 0; stroke: #1f77b4"/>
     <use xlink:href="#m496cf748ba" x="183.640027" y="169.832993" style="fill-opacity: 0; stroke: #1f77b4"/>
     <use xlink:href="#m496cf748ba" x="184.986537" y="184.571489" style="fill-opacity: 0; stroke: #1f77b4"/>
     <use xlink:href="#m496cf748ba" x="186.333048" y="190.675925" style="fill-opacity: 0; stroke: #1f77b4"/>
     <use xlink:href="#m496cf748ba" x="187.679558" y="190.571713" style="fill-opacity: 0; stroke: #1f77b4"/>
     <use xlink:href="#m496cf748ba" x="189.02809" y="190.581419" style="fill-opacity: 0; stroke: #1f77b4"/>
     <use xlink:href="#m496cf748ba" x="190.374601" y="191.595705" style="fill-opacity: 0; stroke: #1f77b4"/>
     <use xlink:href="#m496cf748ba" x="191.722628" y="192.029219" style="fill-opacity: 0; stroke: #1f77b4"/>
     <use xlink:href="#m496cf748ba" x="193.069138" y="192.762913" style="fill-opacity: 0; stroke: #1f77b4"/>
     <use xlink:href="#m496cf748ba" x="194.417165" y="194.953445" style="fill-opacity: 0; stroke: #1f77b4"/>
     <use xlink:href="#m496cf748ba" x="195.764181" y="202.962525" style="fill-opacity: 0; stroke: #1f77b4"/>
     <use xlink:href="#m496cf748ba" x="197.112208" y="206.329401" style="fill-opacity: 0; stroke: #1f77b4"/>
     <use xlink:href="#m496cf748ba" x="198.460234" y="201.619053" style="fill-opacity: 0; stroke: #1f77b4"/>
     <use xlink:href="#m496cf748ba" x="199.808261" y="196.454532" style="fill-opacity: 0; stroke: #1f77b4"/>
     <use xlink:href="#m496cf748ba" x="201.156793" y="198.252987" style="fill-opacity: 0; stroke: #1f77b4"/>
     <use xlink:href="#m496cf748ba" x="202.50482" y="200.893862" style="fill-opacity: 0; stroke: #1f77b4"/>
     <use xlink:href="#m496cf748ba" x="203.852847" y="202.825544" style="fill-opacity: 0; stroke: #1f77b4"/>
     <use xlink:href="#m496cf748ba" x="205.200874" y="202.8213" style="fill-opacity: 0; stroke: #1f77b4"/>
     <use xlink:href="#m496cf748ba" x="206.5489" y="201.947851" style="fill-opacity: 0; stroke: #1f77b4"/>
     <use xlink:href="#m496cf748ba" x="207.897433" y="201.360266" style="fill-opacity: 0; stroke: #1f77b4"/>
     <use xlink:href="#m496cf748ba" x="209.245459" y="202.296613" style="fill-opacity: 0; stroke: #1f77b4"/>
     <use xlink:href="#m496cf748ba" x="210.593486" y="203.57138" style="fill-opacity: 0; stroke: #1f77b4"/>
     <use xlink:href="#m496cf748ba" x="211.943029" y="203.9263" style="fill-opacity: 0; stroke: #1f77b4"/>
     <use xlink:href="#m496cf748ba" x="213.291561" y="201.690924" style="fill-opacity: 0; stroke: #1f77b4"/>
     <use xlink:href="#m496cf748ba" x="214.639588" y="205.897649" style="fill-opacity: 0; stroke: #1f77b4"/>
     <use xlink:href="#m496cf748ba" x="215.989131" y="214.634784" style="fill-opacity: 0; stroke: #1f77b4"/>
     <use xlink:href="#m496cf748ba" x="217.338674" y="216.404326" style="fill-opacity: 0; stroke: #1f77b4"/>
     <use xlink:href="#m496cf748ba" x="218.687207" y="206.553289" style="fill-opacity: 0; stroke: #1f77b4"/>
     <use xlink:href="#m496cf748ba" x="220.03675" y="196.68952" style="fill-opacity: 0; stroke: #1f77b4"/>
     <use xlink:href="#m496cf748ba" x="221.384777" y="196.256682" style="fill-opacity: 0; stroke: #1f77b4"/>
     <use xlink:href="#m496cf748ba" x="222.734825" y="189.459399" style="fill-opacity: 0; stroke: #1f77b4"/>
     <use xlink:href="#m496cf748ba" x="224.084368" y="171.069417" style="fill-opacity: 0; stroke: #1f77b4"/>
     <use xlink:href="#m496cf748ba" x="225.433911" y="159.268298" style="fill-opacity: 0; stroke: #1f77b4"/>
     <use xlink:href="#m496cf748ba" x="226.783455" y="169.075219" style="fill-opacity: 0; stroke: #1f77b4"/>
     <use xlink:href="#m496cf748ba" x="228.133503" y="190.47188" style="fill-opacity: 0; stroke: #1f77b4"/>
     <use xlink:href="#m496cf748ba" x="229.483046" y="198.217386" style="fill-opacity: 0; stroke: #1f77b4"/>
     <use xlink:href="#m496cf748ba" x="230.832589" y="190.98294" style="fill-opacity: 0; stroke: #1f77b4"/>
     <use xlink:href="#m496cf748ba" x="232.182638" y="191.95413" style="fill-opacity: 0; stroke: #1f77b4"/>
     <use xlink:href="#m496cf748ba" x="233.532181" y="201.59125" style="fill-opacity: 0; stroke: #1f77b4"/>
     <use xlink:href="#m496cf748ba" x="234.88324" y="195.882711" style="fill-opacity: 0; stroke: #1f77b4"/>
     <use xlink:href="#m496cf748ba" x="236.232784" y="166.76855" style="fill-opacity: 0; stroke: #1f77b4"/>
     <use xlink:href="#m496cf748ba" x="237.582832" y="159.054124" style="fill-opacity: 0; stroke: #1f77b4"/>
     <use xlink:href="#m496cf748ba" x="238.933892" y="164.654803" style="fill-opacity: 0; stroke: #1f77b4"/>
     <use xlink:href="#m496cf748ba" x="240.283435" y="158.933978" style="fill-opacity: 0; stroke: #1f77b4"/>
     <use xlink:href="#m496cf748ba" x="241.635" y="154.433733" style="fill-opacity: 0; stroke: #1f77b4"/>
     <use xlink:href="#m496cf748ba" x="242.986059" y="162.932366" style="fill-opacity: 0; stroke: #1f77b4"/>
     <use xlink:href="#m496cf748ba" x="244.335602" y="165.356683" style="fill-opacity: 0; stroke: #1f77b4"/>
     <use xlink:href="#m496cf748ba" x="245.687167" y="188.25049" style="fill-opacity: 0; stroke: #1f77b4"/>
     <use xlink:href="#m496cf748ba" x="247.038227" y="176.950808" style="fill-opacity: 0; stroke: #1f77b4"/>
     <use xlink:href="#m496cf748ba" x="248.389286" y="191.093228" style="fill-opacity: 0; stroke: #1f77b4"/>
     <use xlink:href="#m496cf748ba" x="249.739335" y="200.47739" style="fill-opacity: 0; stroke: #1f77b4"/>
     <use xlink:href="#m496cf748ba" x="251.090394" y="196.480426" style="fill-opacity: 0; stroke: #1f77b4"/>
     <use xlink:href="#m496cf748ba" x="252.441453" y="180.452419" style="fill-opacity: 0; stroke: #1f77b4"/>
     <use xlink:href="#m496cf748ba" x="253.793018" y="181.743399" style="fill-opacity: 0; stroke: #1f77b4"/>
     <use xlink:href="#m496cf748ba" x="255.145594" y="176.459723" style="fill-opacity: 0; stroke: #1f77b4"/>
     <use xlink:href="#m496cf748ba" x="256.496654" y="171.289211" style="fill-opacity: 0; stroke: #1f77b4"/>
     <use xlink:href="#m496cf748ba" x="257.848218" y="171.430369" style="fill-opacity: 0; stroke: #1f77b4"/>
     <use xlink:href="#m496cf748ba" x="259.199278" y="203.977322" style="fill-opacity: 0; stroke: #1f77b4"/>
     <use xlink:href="#m496cf748ba" x="260.551854" y="205.230154" style="fill-opacity: 0; stroke: #1f77b4"/>
     <use xlink:href="#m496cf748ba" x="261.903419" y="205.306533" style="fill-opacity: 0; stroke: #1f77b4"/>
     <use xlink:href="#m496cf748ba" x="263.254478" y="205.205608" style="fill-opacity: 0; stroke: #1f77b4"/>
     <use xlink:href="#m496cf748ba" x="264.607559" y="204.530081" style="fill-opacity: 0; stroke: #1f77b4"/>
     <use xlink:href="#m496cf748ba" x="265.958619" y="203.065244" style="fill-opacity: 0; stroke: #1f77b4"/>
     <use xlink:href="#m496cf748ba" x="267.311195" y="203.182925" style="fill-opacity: 0; stroke: #1f77b4"/>
     <use xlink:href="#m496cf748ba" x="268.664276" y="211.79605" style="fill-opacity: 0; stroke: #1f77b4"/>
     <use xlink:href="#m496cf748ba" x="270.015335" y="213.375611" style="fill-opacity: 0; stroke: #1f77b4"/>
     <use xlink:href="#m496cf748ba" x="271.367911" y="207.918713" style="fill-opacity: 0; stroke: #1f77b4"/>
     <use xlink:href="#m496cf748ba" x="272.720992" y="196.707046" style="fill-opacity: 0; stroke: #1f77b4"/>
     <use xlink:href="#m496cf748ba" x="274.073568" y="186.67438" style="fill-opacity: 0; stroke: #1f77b4"/>
     <use xlink:href="#m496cf748ba" x="275.426649" y="216.404326" style="fill-opacity: 0; stroke: #1f77b4"/>
     <use xlink:href="#m496cf748ba" x="276.779225" y="216.404326" style="fill-opacity: 0; stroke: #1f77b4"/>
     <use xlink:href="#m496cf748ba" x="278.131801" y="216.404326" style="fill-opacity: 0; stroke: #1f77b4"/>
     <use xlink:href="#m496cf748ba" x="279.484882" y="185.444155" style="fill-opacity: 0; stroke: #1f77b4"/>
     <use xlink:href="#m496cf748ba" x="280.837458" y="190.044232" style="fill-opacity: 0; stroke: #1f77b4"/>
     <use xlink:href="#m496cf748ba" x="282.190539" y="188.886266" style="fill-opacity: 0; stroke: #1f77b4"/>
     <use xlink:href="#m496cf748ba" x="283.544631" y="182.881494" style="fill-opacity: 0; stroke: #1f77b4"/>
     <use xlink:href="#m496cf748ba" x="284.897207" y="177.8494" style="fill-opacity: 0; stroke: #1f77b4"/>
     <use xlink:href="#m496cf748ba" x="286.251805" y="174.689939" style="fill-opacity: 0; stroke: #1f77b4"/>
     <use xlink:href="#m496cf748ba" x="287.604381" y="160.640839" style="fill-opacity: 0; stroke: #1f77b4"/>
     <use xlink:href="#m496cf748ba" x="288.957462" y="135.789473" style="fill-opacity: 0; stroke: #1f77b4"/>
     <use xlink:href="#m496cf748ba" x="290.311554" y="127.739094" style="fill-opacity: 0; stroke: #1f77b4"/>
     <use xlink:href="#m496cf748ba" x="291.592561" y="-1" style="fill-opacity: 0; stroke: #1f77b4"/>
     <use xlink:href="#m496cf748ba" x="301.082618" y="-1" style="fill-opacity: 0; stroke: #1f77b4"/>
     <use xlink:href="#m496cf748ba" x="301.144796" y="15.911963" style="fill-opacity: 0; stroke: #1f77b4"/>
     <use xlink:href="#m496cf748ba" x="302.498889" y="111.462794" style="fill-opacity: 0; stroke: #1f77b4"/>
     <use xlink:href="#m496cf748ba" x="303.852981" y="146.342742" style="fill-opacity: 0; stroke: #1f77b4"/>
     <use xlink:href="#m496cf748ba" x="305.207578" y="158.677374" style="fill-opacity: 0; stroke: #1f77b4"/>
     <use xlink:href="#m496cf748ba" x="306.56167" y="172.186568" style="fill-opacity: 0; stroke: #1f77b4"/>
     <use xlink:href="#m496cf748ba" x="307.917784" y="185.283608" style="fill-opacity: 0; stroke: #1f77b4"/>
     <use xlink:href="#m496cf748ba" x="309.271877" y="191.117025" style="fill-opacity: 0; stroke: #1f77b4"/>
     <use xlink:href="#m496cf748ba" x="310.626474" y="190.719335" style="fill-opacity: 0; stroke: #1f77b4"/>
     <use xlink:href="#m496cf748ba" x="311.982083" y="187.684125" style="fill-opacity: 0; stroke: #1f77b4"/>
     <use xlink:href="#m496cf748ba" x="313.33668" y="194.037874" style="fill-opacity: 0; stroke: #1f77b4"/>
     <use xlink:href="#m496cf748ba" x="314.692289" y="197.249725" style="fill-opacity: 0; stroke: #1f77b4"/>
     <use xlink:href="#m496cf748ba" x="316.046886" y="187.969127" style="fill-opacity: 0; stroke: #1f77b4"/>
     <use xlink:href="#m496cf748ba" x="317.402495" y="183.551844" style="fill-opacity: 0; stroke: #1f77b4"/>
     <use xlink:href="#m496cf748ba" x="318.758609" y="190.573035" style="fill-opacity: 0; stroke: #1f77b4"/>
     <use xlink:href="#m496cf748ba" x="320.114217" y="194.891969" style="fill-opacity: 0; stroke: #1f77b4"/>
    </g>
   </g>
   <g id="line2d_2">
    <path d="M 44.028023 212.645107 
L 46.704364 211.894758 
L 49.380705 210.848143 
L 50.718117 210.161351 
L 52.057046 209.320749 
L 53.395469 208.279106 
L 54.734398 206.968461 
L 56.073327 205.295615 
L 57.412255 203.131766 
L 58.751184 200.306731 
L 60.090113 196.620169 
L 61.429042 191.91095 
L 64.106899 180.444806 
L 65.445828 176.152266 
L 66.786273 175.255306 
L 68.125202 177.941097 
L 70.804575 186.919316 
L 72.143504 190.28645 
L 73.483949 192.28404 
L 74.823889 192.877231 
L 76.162818 192.01552 
L 77.503263 189.480439 
L 78.843708 184.803719 
L 80.184153 177.231176 
L 81.524598 165.993239 
L 82.865043 151.712713 
L 84.205488 139.566337 
L 85.545933 138.509204 
L 86.886378 149.615732 
L 88.226823 164.29753 
L 89.567268 176.416445 
L 90.90923 184.851951 
L 92.249675 190.263806 
L 93.591636 193.409365 
L 94.932081 194.631408 
L 96.274043 193.661993 
L 97.614488 188.990516 
L 98.956449 177.236881 
L 100.296894 167.320736 
L 101.638856 178.794492 
L 102.980817 187.189583 
L 104.322779 188.740482 
L 105.66474 186.280257 
L 107.006701 180.585152 
L 108.348663 171.588118 
L 109.690624 159.985598 
L 111.032586 149.706128 
L 112.374547 147.680411 
L 113.71853 155.657765 
L 115.060492 167.411473 
L 116.402453 177.545133 
L 117.745931 184.606936 
L 119.087892 188.876637 
L 120.43137 190.836568 
L 121.773331 190.611492 
L 123.116809 187.745498 
L 124.460287 180.777587 
L 125.802248 166.564554 
L 127.145726 142.053358 
L 128.489204 122.832743 
L 129.832681 138.701834 
L 131.176159 164.041415 
L 132.519637 179.321284 
L 133.86362 186.800894 
L 135.207098 189.79798 
L 136.550576 189.806275 
L 137.89557 187.054381 
L 139.239048 180.75655 
L 140.582525 169.071689 
L 141.927519 150.98687 
L 143.270997 136.035897 
L 144.615991 138.613473 
L 145.959469 145.286379 
L 147.304969 144.049236 
L 148.649963 138.946876 
L 149.994957 140.478883 
L 151.338434 151.933175 
L 152.683429 165.942348 
L 154.028423 177.012749 
L 155.373417 184.465333 
L 156.718411 189.176418 
L 158.06391 192.005483 
L 159.408904 193.523306 
L 160.755415 194.072166 
L 162.100409 193.83795 
L 163.445403 192.908349 
L 164.791914 191.299176 
L 166.136908 188.982708 
L 167.482407 185.890549 
L 168.828918 181.939419 
L 170.175428 177.070619 
L 171.520422 171.316655 
L 174.213443 158.340827 
L 175.560459 152.651998 
L 176.905453 149.059552 
L 178.251963 148.551495 
L 179.598474 151.326907 
L 180.944984 156.649606 
L 184.986537 176.644502 
L 186.333048 182.280547 
L 187.679558 187.056431 
L 189.02809 191.036449 
L 190.374601 194.316251 
L 191.722628 197.019854 
L 193.069138 199.245449 
L 194.417165 201.086236 
L 195.764181 202.610246 
L 197.112208 203.87702 
L 198.460234 204.930474 
L 199.808261 205.80593 
L 201.156793 206.531018 
L 203.852847 207.607181 
L 206.5489 208.266765 
L 209.245459 208.546687 
L 210.593486 208.534917 
L 211.943029 208.403153 
L 213.291561 208.123055 
L 214.639588 207.645335 
L 215.989131 206.881367 
L 217.338674 205.668279 
L 218.687207 203.682139 
L 220.03675 200.213965 
L 221.384777 193.637082 
L 222.734825 180.536195 
L 224.084368 161.743989 
L 225.433911 163.751221 
L 226.783455 180.730771 
L 228.133503 190.163825 
L 229.483046 193.466782 
L 230.832589 193.499047 
L 232.182638 191.382066 
L 233.532181 187.387908 
L 234.88324 181.452954 
L 236.232784 173.636201 
L 237.582832 164.75336 
L 238.933892 157.219586 
L 240.283435 154.561929 
L 241.635 158.362156 
L 242.986059 166.40028 
L 244.335602 175.173036 
L 245.687167 182.599118 
L 247.038227 188.026202 
L 248.389286 191.435369 
L 249.739335 192.800912 
L 251.090394 191.723427 
L 252.441453 187.144569 
L 255.145594 169.645091 
L 256.496654 174.776959 
L 257.848218 187.303814 
L 259.199278 196.604951 
L 260.551854 202.184218 
L 261.903419 205.561825 
L 263.254478 207.732721 
L 264.607559 209.217764 
L 265.958619 210.284538 
L 267.311195 211.086157 
L 268.664276 211.70887 
L 271.367911 212.611167 
L 274.073568 213.234172 
L 278.131801 213.874604 
L 283.544631 214.42774 
L 290.311554 214.867855 
L 299.790199 215.249644 
L 314.692289 215.593087 
L 320.114217 215.676845 
L 320.114217 215.676845 
" clip-path="url(#pf8c0017e5a)" style="fill: none; stroke: #ff0000; stroke-width: 1.5; stroke-linecap: square"/>
   </g>
   <g id="line2d_3">
    <path d="M 295.727417 216.404326 
L 295.727417 17.62524 
" clip-path="url(#pf8c0017e5a)" style="fill: none; stroke-dasharray: 3.7,1.6; stroke-dashoffset: 0; stroke: #808080"/>
   </g>
   <g id="patch_3">
    <path d="M 43.003987 216.404326 
L 43.003987 17.62524 
" style="fill: none; stroke: #000000; stroke-linejoin: miter; stroke-linecap: square"/>
   </g>
   <g id="patch_4">
    <path d="M 320.99976 216.404326 
L 320.99976 17.62524 
" style="fill: none; stroke: #000000; stroke-linejoin: miter; stroke-linecap: square"/>
   </g>
   <g id="patch_5">
    <path d="M 43.003987 216.404326 
L 320.99976 216.404326 
" style="fill: none; stroke: #000000; stroke-linejoin: miter; stroke-linecap: square"/>
   </g>
   <g id="patch_6">
    <path d="M 43.003987 17.62524 
L 320.99976 17.62524 
" style="fill: none; stroke: #000000; stroke-linejoin: miter; stroke-linecap: square"/>
   </g>
   <g id="matplotlib.axis_1">
    <g id="xtick_1">
     <g id="line2d_4">
      <defs>
       <path id="mc6dc8db19b" d="M 0 0 
L 0 3.75 
" style="stroke: #000000; stroke-width: 1.25"/>
      </defs>
      <g>
       <use xlink:href="#mc6dc8db19b" x="43.003987" y="216.404326" style="stroke: #000000; stroke-width: 1.25"/>
      </g>
     </g>
     <g id="text_1">
      <!-- $\mathdefault{429}$ -->
      <g transform="translate(33.818987 231.52792)">
       <text>
        <tspan style="font: 11px 'Arial'" x="0 6.117676 12.235352" y="-0.09375">429</tspan>
       </text>
      </g>
     </g>
    </g>
    <g id="xtick_2">
     <g id="line2d_5">
      <g>
       <use xlink:href="#mc6dc8db19b" x="93.548673" y="216.404326" style="stroke: #000000; stroke-width: 1.25"/>
      </g>
     </g>
     <g id="text_2">
      <!-- $\mathdefault{430}$ -->
      <g transform="translate(84.363673 231.52792)">
       <text>
        <tspan style="font: 11px 'Arial'" x="0 6.117676 12.235352" y="-0.09375">430</tspan>
       </text>
      </g>
     </g>
    </g>
    <g id="xtick_3">
     <g id="line2d_6">
      <g>
       <use xlink:href="#mc6dc8db19b" x="144.093359" y="216.404326" style="stroke: #000000; stroke-width: 1.25"/>
      </g>
     </g>
     <g id="text_3">
      <!-- $\mathdefault{431}$ -->
      <g transform="translate(134.908359 231.52792)">
       <text>
        <tspan style="font: 11px 'Arial'" x="0 6.117676 12.235352" y="-0.09375">431</tspan>
       </text>
      </g>
     </g>
    </g>
    <g id="xtick_4">
     <g id="line2d_7">
      <g>
       <use xlink:href="#mc6dc8db19b" x="194.638045" y="216.404326" style="stroke: #000000; stroke-width: 1.25"/>
      </g>
     </g>
     <g id="text_4">
      <!-- $\mathdefault{432}$ -->
      <g transform="translate(185.453045 231.52792)">
       <text>
        <tspan style="font: 11px 'Arial'" x="0 6.117676 12.235352" y="-0.09375">432</tspan>
       </text>
      </g>
     </g>
    </g>
    <g id="xtick_5">
     <g id="line2d_8">
      <g>
       <use xlink:href="#mc6dc8db19b" x="245.182731" y="216.404326" style="stroke: #000000; stroke-width: 1.25"/>
      </g>
     </g>
     <g id="text_5">
      <!-- $\mathdefault{433}$ -->
      <g transform="translate(235.997731 231.52792)">
       <text>
        <tspan style="font: 11px 'Arial'" x="0 6.117676 12.235352" y="-0.09375">433</tspan>
       </text>
      </g>
     </g>
    </g>
    <g id="xtick_6">
     <g id="line2d_9">
      <g>
       <use xlink:href="#mc6dc8db19b" x="295.727417" y="216.404326" style="stroke: #000000; stroke-width: 1.25"/>
      </g>
     </g>
     <g id="text_6">
      <!-- $\mathdefault{434}$ -->
      <g transform="translate(286.542417 231.52792)">
       <text>
        <tspan style="font: 11px 'Arial'" x="0 6.117676 12.235352" y="-0.09375">434</tspan>
       </text>
      </g>
     </g>
    </g>
    <g id="text_7">
     <!-- $\lambda$ {\sffamily (nm)} -->
     <g transform="translate(164.206736 246.411565) scale(0.12 -0.12)">
      <defs>
       <path id="StandardSymL-6c" d="M 480 3650 
C 525 4013 710 4224 998 4224 
C 1203 4224 1376 4064 1472 3778 
C 1517 3650 1574 3440 1632 3198 
L 154 19 
L 755 19 
L 1843 2301 
C 2048 1059 2150 607 2266 358 
C 2406 83 2611 -64 2848 -64 
C 3098 -64 3296 89 3405 371 
C 3475 543 3501 715 3507 1014 
L 3373 1014 
C 3322 683 3174 499 2944 499 
C 2752 499 2586 620 2483 843 
C 2400 1008 2355 1174 2266 1645 
L 2093 2466 
C 2086 2485 2080 2530 2067 2594 
C 1920 3415 1690 4192 1536 4422 
C 1395 4627 1203 4736 992 4736 
C 602 4736 397 4403 326 3650 
L 480 3650 
z
" transform="scale(0.015625)"/>
       <path id="NimbusSanL-Regu-28" d="M 1510 4672 
C 870 3833 467 2668 467 1663 
C 467 652 870 -513 1510 -1351 
L 1862 -1351 
C 1299 -436 986 639 986 1663 
C 986 2681 1299 3763 1862 4672 
L 1510 4672 
z
" transform="scale(0.015625)"/>
       <path id="NimbusSanL-Regu-6e" d="M 448 3328 
L 448 0 
L 986 0 
L 986 1835 
C 986 2539 1344 2988 1894 2988 
C 2317 2988 2586 2732 2586 2328 
L 2586 0 
L 3117 0 
L 3117 2539 
C 3117 3097 2701 3456 2054 3456 
C 1555 3456 1235 3263 941 2796 
L 941 3328 
L 448 3328 
z
" transform="scale(0.015625)"/>
       <path id="NimbusSanL-Regu-6d" d="M 448 3328 
L 448 0 
L 986 0 
L 986 2089 
C 986 2597 1338 2988 1773 2988 
C 2170 2988 2394 2744 2394 2315 
L 2394 0 
L 2931 0 
L 2931 2109 
C 2931 2597 3283 2988 3718 2988 
C 4109 2988 4339 2738 4339 2315 
L 4339 0 
L 4877 0 
L 4877 2520 
C 4877 3123 4531 3456 3904 3456 
C 3456 3456 3187 3321 2874 2943 
C 2675 3302 2406 3456 1971 3456 
C 1523 3456 1229 3289 941 2886 
L 941 3328 
L 448 3328 
z
" transform="scale(0.015625)"/>
       <path id="NimbusSanL-Regu-29" d="M 595 -1351 
C 1235 -513 1638 652 1638 1657 
C 1638 2668 1235 3833 595 4672 
L 243 4672 
C 806 3756 1120 2681 1120 1657 
C 1120 639 806 -442 243 -1351 
L 595 -1351 
z
" transform="scale(0.015625)"/>
      </defs>
      <use xlink:href="#StandardSymL-6c" transform="scale(0.996264)"/>
      <use xlink:href="#NimbusSanL-Regu-28" transform="translate(91.855235 0) scale(0.996264)"/>
      <use xlink:href="#NimbusSanL-Regu-6e" transform="translate(125.030464 0) scale(0.996264)"/>
      <use xlink:href="#NimbusSanL-Regu-6d" transform="translate(180.422141 0) scale(0.996264)"/>
      <use xlink:href="#NimbusSanL-Regu-29" transform="translate(263.410572 0) scale(0.996264)"/>
     </g>
    </g>
   </g>
   <g id="matplotlib.axis_2">
    <g id="ytick_1">
     <g id="line2d_10">
      <defs>
       <path id="mf1ba3e68c1" d="M 0 0 
L -3.75 0 
" style="stroke: #000000; stroke-width: 1.25"/>
      </defs>
      <g>
       <use xlink:href="#mf1ba3e68c1" x="43.003987" y="216.404326" style="stroke: #000000; stroke-width: 1.25"/>
      </g>
     </g>
     <g id="text_8">
      <!-- $\mathdefault{0.0}$ -->
      <g transform="translate(20.353987 220.341123)">
       <text>
        <tspan style="font: 11px 'Arial'" x="0 6.117676 9.173828" y="-0.09375">0.0</tspan>
       </text>
      </g>
     </g>
    </g>
    <g id="ytick_2">
     <g id="line2d_11">
      <g>
       <use xlink:href="#mf1ba3e68c1" x="43.003987" y="174.089264" style="stroke: #000000; stroke-width: 1.25"/>
      </g>
     </g>
     <g id="text_9">
      <!-- $\mathdefault{0.5}$ -->
      <g transform="translate(20.353987 178.026061)">
       <text>
        <tspan style="font: 11px 'Arial'" x="0 6.117676 9.173828" y="-0.09375">0.5</tspan>
       </text>
      </g>
     </g>
    </g>
    <g id="ytick_3">
     <g id="line2d_12">
      <g>
       <use xlink:href="#mf1ba3e68c1" x="43.003987" y="131.774202" style="stroke: #000000; stroke-width: 1.25"/>
      </g>
     </g>
     <g id="text_10">
      <!-- $\mathdefault{1.0}$ -->
      <g transform="translate(20.353987 135.710999)">
       <text>
        <tspan style="font: 11px 'Arial'" x="0 6.117676 9.173828" y="-0.09375">1.0</tspan>
       </text>
      </g>
     </g>
    </g>
    <g id="ytick_4">
     <g id="line2d_13">
      <g>
       <use xlink:href="#mf1ba3e68c1" x="43.003987" y="89.45914" style="stroke: #000000; stroke-width: 1.25"/>
      </g>
     </g>
     <g id="text_11">
      <!-- $\mathdefault{1.5}$ -->
      <g transform="translate(20.353987 93.395937)">
       <text>
        <tspan style="font: 11px 'Arial'" x="0 6.117676 9.173828" y="-0.09375">1.5</tspan>
       </text>
      </g>
     </g>
    </g>
    <g id="ytick_5">
     <g id="line2d_14">
      <g>
       <use xlink:href="#mf1ba3e68c1" x="43.003987" y="47.144079" style="stroke: #000000; stroke-width: 1.25"/>
      </g>
     </g>
     <g id="text_12">
      <!-- $\mathdefault{2.0}$ -->
      <g transform="translate(20.353987 51.080875)">
       <text>
        <tspan style="font: 11px 'Arial'" x="0 6.117676 9.173828" y="-0.09375">2.0</tspan>
       </text>
      </g>
     </g>
    </g>
    <g id="text_13">
     <!-- $B_{\lambda}$ {\sffamily (photons/cm\textsuperscript{2}/s/nm)} -->
     <g transform="translate(13.728305 177.658737) rotate(-90) scale(0.12 -0.12)">
      <defs>
       <path id="NimbusRomNo9L-ReguItal-42" d="M -51 0 
L 1754 0 
C 2758 0 3450 523 3450 1274 
C 3450 1510 3373 1732 3232 1872 
C 3104 2019 2976 2095 2643 2235 
C 3098 2344 3283 2420 3488 2598 
C 3667 2751 3763 2968 3763 3222 
C 3763 3827 3309 4160 2483 4160 
L 832 4160 
L 832 4057 
C 1229 4025 1325 3974 1325 3795 
C 1325 3700 1299 3541 1254 3388 
L 467 574 
C 352 204 307 166 -51 102 
L -51 0 
z
M 1523 2108 
C 1939 2108 2208 2083 2336 2032 
C 2598 1923 2758 1643 2758 1299 
C 2758 612 2285 192 1504 192 
C 1235 192 1094 287 1094 459 
C 1094 535 1171 841 1318 1350 
C 1402 1637 1440 1783 1523 2108 
z
M 2003 3789 
C 2042 3929 2118 3967 2368 3967 
C 2880 3967 3117 3751 3117 3280 
C 3117 2917 2963 2637 2688 2484 
C 2470 2356 2163 2312 1587 2312 
L 2003 3789 
z
" transform="scale(0.015625)"/>
       <path id="NimbusSanL-Regu-70" d="M 346 -1408 
L 883 -1408 
L 883 371 
C 1165 25 1478 -128 1914 -128 
C 2778 -128 3347 568 3347 1632 
C 3347 2752 2797 3456 1907 3456 
C 1453 3456 1088 3251 838 2854 
L 838 3359 
L 346 3359 
L 346 -1408 
z
M 1818 2956 
C 2406 2956 2790 2440 2790 1644 
C 2790 887 2400 371 1818 371 
C 1254 371 883 880 883 1663 
C 883 2447 1254 2956 1818 2956 
z
" transform="scale(0.015625)"/>
       <path id="NimbusSanL-Regu-68" d="M 448 4672 
L 448 0 
L 979 0 
L 979 1853 
C 979 2539 1338 2988 1888 2988 
C 2061 2988 2234 2930 2362 2834 
C 2515 2725 2579 2565 2579 2328 
L 2579 0 
L 3110 0 
L 3110 2539 
C 3110 3103 2707 3456 2054 3456 
C 1581 3456 1293 3308 979 2898 
L 979 4672 
L 448 4672 
z
" transform="scale(0.015625)"/>
       <path id="NimbusSanL-Regu-6f" d="M 1741 3456 
C 800 3456 230 2784 230 1663 
C 230 543 794 -128 1747 -128 
C 2688 -128 3264 543 3264 1638 
C 3264 2791 2707 3456 1741 3456 
z
M 1747 2963 
C 2349 2963 2707 2472 2707 1644 
C 2707 861 2336 364 1747 364 
C 1152 364 787 855 787 1663 
C 787 2466 1152 2963 1747 2963 
z
" transform="scale(0.015625)"/>
       <path id="NimbusSanL-Regu-74" d="M 1626 3328 
L 1075 3328 
L 1075 4249 
L 544 4249 
L 544 3328 
L 90 3328 
L 90 2892 
L 544 2892 
L 544 402 
C 544 64 774 -128 1190 -128 
C 1318 -128 1446 -116 1626 -84 
L 1626 364 
C 1555 345 1472 339 1370 339 
C 1139 339 1075 402 1075 634 
L 1075 2892 
L 1626 2892 
L 1626 3328 
z
" transform="scale(0.015625)"/>
       <path id="NimbusSanL-Regu-73" d="M 2803 2428 
C 2797 3084 2362 3456 1587 3456 
C 806 3456 301 3052 301 2434 
C 301 1912 570 1663 1363 1472 
L 1862 1351 
C 2234 1262 2381 1129 2381 887 
C 2381 574 2067 364 1600 364 
C 1312 364 1069 447 934 587 
C 851 683 813 778 781 1014 
L 218 1014 
C 243 243 678 -128 1555 -128 
C 2400 -128 2938 288 2938 931 
C 2938 1428 2656 1702 1990 1861 
L 1478 1982 
C 1043 2084 858 2224 858 2459 
C 858 2765 1133 2963 1568 2963 
C 1997 2963 2227 2778 2240 2428 
L 2803 2428 
z
" transform="scale(0.015625)"/>
       <path id="NimbusSanL-Regu-2f" d="M 1466 4672 
L -51 -128 
L 301 -128 
L 1818 4672 
L 1466 4672 
z
" transform="scale(0.015625)"/>
       <path id="NimbusSanL-Regu-63" d="M 3014 2237 
C 2989 2561 2918 2771 2790 2956 
C 2560 3270 2157 3456 1690 3456 
C 787 3456 198 2740 198 1632 
C 198 555 774 -128 1683 -128 
C 2483 -128 2989 352 3053 1167 
L 2515 1167 
C 2426 632 2150 364 1696 364 
C 1107 364 755 842 755 1632 
C 755 2466 1101 2963 1683 2963 
C 2131 2963 2413 2701 2477 2237 
L 3014 2237 
z
" transform="scale(0.015625)"/>
       <path id="NimbusSanL-Regu-32" d="M 3238 556 
L 851 556 
C 909 928 1114 1165 1670 1493 
L 2310 1839 
C 2944 2185 3270 2653 3270 3211 
C 3270 3589 3117 3942 2848 4185 
C 2579 4428 2246 4544 1818 4544 
C 1242 4544 813 4339 563 3955 
C 403 3711 333 3429 320 2967 
L 883 2967 
C 902 3275 941 3461 1018 3608 
C 1165 3884 1459 4051 1798 4051 
C 2310 4051 2694 3685 2694 3198 
C 2694 2839 2483 2531 2080 2300 
L 1491 1967 
C 544 1428 269 999 218 0 
L 3238 0 
L 3238 556 
z
" transform="scale(0.015625)"/>
      </defs>
      <use xlink:href="#NimbusRomNo9L-ReguItal-42" transform="scale(0.996264)"/>
      <use xlink:href="#StandardSymL-6c" transform="translate(60.871631 -20.616338) scale(0.737241)"/>
      <use xlink:href="#NimbusSanL-Regu-28" transform="translate(135.818713 0) scale(0.996264)"/>
      <use xlink:href="#NimbusSanL-Regu-70" transform="translate(168.993943 0) scale(0.996264)"/>
      <use xlink:href="#NimbusSanL-Regu-68" transform="translate(224.38562 0) scale(0.996264)"/>
      <use xlink:href="#NimbusSanL-Regu-6f" transform="translate(279.777297 0) scale(0.996264)"/>
      <use xlink:href="#NimbusSanL-Regu-74" transform="translate(335.168974 0) scale(0.996264)"/>
      <use xlink:href="#NimbusSanL-Regu-6f" transform="translate(362.864143 0) scale(0.996264)"/>
      <use xlink:href="#NimbusSanL-Regu-6e" transform="translate(418.25582 0) scale(0.996264)"/>
      <use xlink:href="#NimbusSanL-Regu-73" transform="translate(473.647497 0) scale(0.996264)"/>
      <use xlink:href="#NimbusSanL-Regu-2f" transform="translate(523.460698 0) scale(0.996264)"/>
      <use xlink:href="#NimbusSanL-Regu-63" transform="translate(551.155868 0) scale(0.996264)"/>
      <use xlink:href="#NimbusSanL-Regu-6d" transform="translate(600.969068 0) scale(0.996264)"/>
      <use xlink:href="#NimbusSanL-Regu-32" transform="translate(683.957498 36.163231) scale(0.737241)"/>
      <use xlink:href="#NimbusSanL-Regu-2f" transform="translate(725.445777 0) scale(0.996264)"/>
      <use xlink:href="#NimbusSanL-Regu-73" transform="translate(753.140947 0) scale(0.996264)"/>
      <use xlink:href="#NimbusSanL-Regu-2f" transform="translate(802.954147 0) scale(0.996264)"/>
      <use xlink:href="#NimbusSanL-Regu-6e" transform="translate(830.649317 0) scale(0.996264)"/>
      <use xlink:href="#NimbusSanL-Regu-6d" transform="translate(886.040994 0) scale(0.996264)"/>
      <use xlink:href="#NimbusSanL-Regu-29" transform="translate(969.029424 0) scale(0.996264)"/>
     </g>
    </g>
    <g id="text_14">
     <!-- $\times\mathdefault{10^{12}}\mathdefault{}$ -->
     <g transform="translate(43.003987 14.62524)">
      <text>
       <tspan style="font: 11px 'STIXGeneral'" x="0" y="-0.799312500000001"></tspan>
       <tspan style="font: 11px 'Arial'" x="7.039993 13.157669" y="-0.799312500000001">10</tspan>
       <tspan style="font: 7.7px 'Arial'" x="19.467003 23.749376" y="-8.465625">12</tspan>
      </text>
     </g>
    </g>
   </g>
   <g id="patch_7">
    <path d="M 217.800817 47.550661 
L 217.800817 67.320011 
L 294.609383 67.320011 
" style="fill: none; stroke: #000000; stroke-linecap: round"/>
    <path d="M 290.609383 65.320011 
L 294.609383 67.320011 
L 290.609383 69.320011 
" style="fill: none; stroke: #000000; stroke-linecap: round"/>
   </g>
   <g id="text_15">
    <g id="patch_8">
     <path d="M 184.100817 50.603149 
L 251.500817 50.603149 
Q 254.500817 50.603149 254.500817 47.603149 
L 254.500817 37.503149 
Q 254.500817 34.503149 251.500817 34.503149 
L 184.100817 34.503149 
Q 181.100817 34.503149 181.100817 37.503149 
L 181.100817 47.603149 
Q 181.100817 50.603149 184.100817 50.603149 
z
" style="fill: #f5deb3; stroke: #000000; stroke-linejoin: miter"/>
    </g>
    <!-- D$_{\gamma}$ (434.00) nm -->
    <g transform="translate(184.100817 44.803149)">
     <text>
      <tspan style="font: 10px 'Arial'" x="0 10.686517 13.464837 16.794915 22.356439 27.917962 33.479486 36.257806 41.81933 47.380853 50.710931 53.489251 59.050775" y="-0.71875">D(434.00)nm</tspan>
      <tspan style="font: italic 7px 'STIXGeneral'" x="7.375898" y="0.6031250000000004"></tspan>
     </text>
    </g>
   </g>
   <g id="text_16">
    <text style="font: 10px 'Arial'; text-anchor: middle" x="230.085529" y="94.077274" transform="rotate(-0 230.085529 94.077274)">Q-branch</text>
   </g>
   <g id="text_17">
    <text style="font: 10px 'Arial'; text-anchor: middle" x="118.057333" y="63.662882" transform="rotate(-0 118.057333 63.662882)">B-D + C-D</text>
   </g>
   <g id="text_18">
    <text style="font: 700 12px 'Arial'; text-anchor: middle" x="182.001874" y="11.62524" transform="rotate(-0 182.001874 11.62524)">HP boron pebble rod - 69 min</text>
   </g>
  </g>
 </g>
 <defs>
  <clipPath id="pf8c0017e5a">
   <rect x="43.003987" y="17.62524" width="277.995773" height="198.779086"/>
  </clipPath>
 </defs>
</svg>
