<?xml version="1.0" encoding="utf-8" standalone="no"?>
<!DOCTYPE svg PUBLIC "-//W3C//DTD SVG 1.1//EN"
  "http://www.w3.org/Graphics/SVG/1.1/DTD/svg11.dtd">
<svg xmlns:xlink="http://www.w3.org/1999/xlink" width="324pt" height="252pt" viewBox="0 0 324 252" xmlns="http://www.w3.org/2000/svg" version="1.1">
 <metadata>
  <rdf:RDF xmlns:dc="http://purl.org/dc/elements/1.1/" xmlns:cc="http://creativecommons.org/ns#" xmlns:rdf="http://www.w3.org/1999/02/22-rdf-syntax-ns#">
   <cc:Work>
    <dc:type rdf:resource="http://purl.org/dc/dcmitype/StillImage"/>
    <dc:date>2025-02-18T13:01:50.337627</dc:date>
    <dc:format>image/svg+xml</dc:format>
    <dc:creator>
     <cc:Agent>
      <dc:title>Matplotlib v3.9.2, https://matplotlib.org/</dc:title>
     </cc:Agent>
    </dc:creator>
   </cc:Work>
  </rdf:RDF>
 </metadata>
 <defs>
  <style type="text/css">*{stroke-linejoin: round; stroke-linecap: butt}</style>
 </defs>
 <g id="figure_1">
  <g id="patch_1">
   <path d="M 0 252 
L 324 252 
L 324 0 
L 0 0 
z
" style="fill: #ffffff"/>
  </g>
  <g id="axes_1">
   <g id="patch_2">
    <path d="M 33.37024 216.428666 
L 317.24976 216.428666 
L 317.24976 17.45399 
L 33.37024 17.45399 
z
" style="fill: #ffffff"/>
   </g>
   <g id="line2d_1">
    <defs>
     <path id="m6b20295b64" d="M 0 3.5 
C 0.928211 3.5 1.81853 3.131218 2.474874 2.474874 
C 3.131218 1.81853 3.5 0.928211 3.5 0 
C 3.5 -0.928211 3.131218 -1.81853 2.474874 -2.474874 
C 1.81853 -3.131218 0.928211 -3.5 0 -3.5 
C -0.928211 -3.5 -1.81853 -3.131218 -2.474874 -2.474874 
C -3.131218 -1.81853 -3.5 -0.928211 -3.5 0 
C -3.5 0.928211 -3.131218 1.81853 -2.474874 2.474874 
C -1.81853 3.131218 -0.928211 3.5 0 3.5 
z
" style="stroke: #1f77b4"/>
    </defs>
    <g clip-path="url(#pc627333882)">
     <use xlink:href="#m6b20295b64" x="104.280245" y="216.336808" style="fill-opacity: 0; stroke: #1f77b4"/>
     <use xlink:href="#m6b20295b64" x="106.195462" y="216.338047" style="fill-opacity: 0; stroke: #1f77b4"/>
     <use xlink:href="#m6b20295b64" x="109.068252" y="216.523546" style="fill-opacity: 0; stroke: #1f77b4"/>
     <use xlink:href="#m6b20295b64" x="111.174969" y="216.341268" style="fill-opacity: 0; stroke: #1f77b4"/>
     <use xlink:href="#m6b20295b64" x="113.473187" y="216.342755" style="fill-opacity: 0; stroke: #1f77b4"/>
     <use xlink:href="#m6b20295b64" x="115.771428" y="216.344241" style="fill-opacity: 0; stroke: #1f77b4"/>
     <use xlink:href="#m6b20295b64" x="118.452694" y="214.876863" style="fill-opacity: 0; stroke: #1f77b4"/>
     <use xlink:href="#m6b20295b64" x="120.750935" y="213.96013" style="fill-opacity: 0; stroke: #1f77b4"/>
     <use xlink:href="#m6b20295b64" x="123.432201" y="210.28916" style="fill-opacity: 0; stroke: #1f77b4"/>
     <use xlink:href="#m6b20295b64" x="125.538918" y="198.721057" style="fill-opacity: 0; stroke: #1f77b4"/>
     <use xlink:href="#m6b20295b64" x="128.220184" y="184.581348" style="fill-opacity: 0; stroke: #1f77b4"/>
     <use xlink:href="#m6b20295b64" x="130.135377" y="164.567338" style="fill-opacity: 0; stroke: #1f77b4"/>
     <use xlink:href="#m6b20295b64" x="133.008166" y="147.674388" style="fill-opacity: 0; stroke: #1f77b4"/>
     <use xlink:href="#m6b20295b64" x="134.92336" y="123.066906" style="fill-opacity: 0; stroke: #1f77b4"/>
     <use xlink:href="#m6b20295b64" x="137.987673" y="103.971022" style="fill-opacity: 0; stroke: #1f77b4"/>
     <use xlink:href="#m6b20295b64" x="139.711319" y="84.138931" style="fill-opacity: 0; stroke: #1f77b4"/>
     <use xlink:href="#m6b20295b64" x="142.775656" y="71.285167" style="fill-opacity: 0; stroke: #1f77b4"/>
     <use xlink:href="#m6b20295b64" x="144.499326" y="60.819099" style="fill-opacity: 0; stroke: #1f77b4"/>
     <use xlink:href="#m6b20295b64" x="146.989067" y="55.679868" style="fill-opacity: 0; stroke: #1f77b4"/>
     <use xlink:href="#m6b20295b64" x="149.287309" y="48.701542" style="fill-opacity: 0; stroke: #1f77b4"/>
     <use xlink:href="#m6b20295b64" x="151.777074" y="46.131926" style="fill-opacity: 0; stroke: #1f77b4"/>
     <use xlink:href="#m6b20295b64" x="153.883767" y="46.316688" style="fill-opacity: 0; stroke: #1f77b4"/>
     <use xlink:href="#m6b20295b64" x="156.373509" y="47.97102" style="fill-opacity: 0; stroke: #1f77b4"/>
     <use xlink:href="#m6b20295b64" x="158.67175" y="52.564493" style="fill-opacity: 0; stroke: #1f77b4"/>
     <use xlink:href="#m6b20295b64" x="160.778468" y="55.321713" style="fill-opacity: 0; stroke: #1f77b4"/>
     <use xlink:href="#m6b20295b64" x="163.651257" y="58.076091" style="fill-opacity: 0; stroke: #1f77b4"/>
     <use xlink:href="#m6b20295b64" x="165.566451" y="64.321054" style="fill-opacity: 0; stroke: #1f77b4"/>
     <use xlink:href="#m6b20295b64" x="168.43924" y="68.181162" style="fill-opacity: 0; stroke: #1f77b4"/>
     <use xlink:href="#m6b20295b64" x="170.354434" y="73.507999" style="fill-opacity: 0; stroke: #1f77b4"/>
     <use xlink:href="#m6b20295b64" x="173.227223" y="80.855849" style="fill-opacity: 0; stroke: #1f77b4"/>
     <use xlink:href="#m6b20295b64" x="175.142416" y="86.731287" style="fill-opacity: 0; stroke: #1f77b4"/>
     <use xlink:href="#m6b20295b64" x="178.015206" y="90.958078" style="fill-opacity: 0; stroke: #1f77b4"/>
     <use xlink:href="#m6b20295b64" x="179.930399" y="99.224054" style="fill-opacity: 0; stroke: #1f77b4"/>
     <use xlink:href="#m6b20295b64" x="182.803166" y="107.671951" style="fill-opacity: 0; stroke: #1f77b4"/>
     <use xlink:href="#m6b20295b64" x="184.718382" y="112.265423" style="fill-opacity: 0; stroke: #1f77b4"/>
     <use xlink:href="#m6b20295b64" x="187.208148" y="116.489371" style="fill-opacity: 0; stroke: #1f77b4"/>
     <use xlink:href="#m6b20295b64" x="189.506365" y="122.18289" style="fill-opacity: 0; stroke: #1f77b4"/>
     <use xlink:href="#m6b20295b64" x="192.187631" y="127.327806" style="fill-opacity: 0; stroke: #1f77b4"/>
     <use xlink:href="#m6b20295b64" x="194.485872" y="132.287961" style="fill-opacity: 0; stroke: #1f77b4"/>
     <use xlink:href="#m6b20295b64" x="196.59259" y="136.881433" style="fill-opacity: 0; stroke: #1f77b4"/>
     <use xlink:href="#m6b20295b64" x="198.699307" y="142.390189" style="fill-opacity: 0; stroke: #1f77b4"/>
     <use xlink:href="#m6b20295b64" x="203.67879" y="149.371358" style="fill-opacity: 0; stroke: #1f77b4"/>
     <use xlink:href="#m6b20295b64" x="208.658297" y="155.985845" style="fill-opacity: 0; stroke: #1f77b4"/>
     <use xlink:href="#m6b20295b64" x="213.44628" y="163.336538" style="fill-opacity: 0; stroke: #1f77b4"/>
     <use xlink:href="#m6b20295b64" x="218.234263" y="169.948182" style="fill-opacity: 0; stroke: #1f77b4"/>
     <use xlink:href="#m6b20295b64" x="220.149456" y="177.11127" style="fill-opacity: 0; stroke: #1f77b4"/>
     <use xlink:href="#m6b20295b64" x="223.022222" y="189.969298" style="fill-opacity: 0; stroke: #1f77b4"/>
     <use xlink:href="#m6b20295b64" x="224.745891" y="200.9888" style="fill-opacity: 0; stroke: #1f77b4"/>
     <use xlink:href="#m6b20295b64" x="227.810229" y="211.091028" style="fill-opacity: 0; stroke: #1f77b4"/>
    </g>
   </g>
   <g id="line2d_2">
    <path d="M 33.37024 216.428666 
L 83.383048 216.320599 
L 90.771304 216.084435 
L 95.602087 215.727128 
L 99.296215 215.244054 
L 102.422015 214.606136 
L 104.979488 213.856415 
L 107.252798 212.954558 
L 109.241944 211.92889 
L 110.946926 210.829559 
L 112.651908 209.481914 
L 114.35689 207.835242 
L 116.061872 205.830179 
L 117.48269 203.836172 
L 118.903509 201.500545 
L 120.324327 198.773275 
L 121.745146 195.599612 
L 123.165964 191.920597 
L 124.586782 187.674055 
L 126.007601 182.796242 
L 127.428419 177.224346 
L 129.133401 169.540398 
L 130.838384 160.691861 
L 132.543366 150.633258 
L 134.532511 137.389238 
L 136.805821 120.483441 
L 140.215785 92.994885 
L 143.057422 70.741826 
L 144.762404 59.164913 
L 145.899059 52.684777 
L 147.035713 47.451757 
L 147.888205 44.451921 
L 148.740696 42.301663 
L 149.309023 41.352576 
L 149.87735 40.791004 
L 150.445678 40.609574 
L 151.014005 40.794059 
L 151.582332 41.323307 
L 152.15066 42.169388 
L 153.003151 43.955933 
L 154.139806 47.081314 
L 158.402261 60.020226 
L 159.254752 61.797812 
L 160.107243 63.12329 
L 160.959734 64.003593 
L 161.812225 64.486731 
L 162.664716 64.65384 
L 163.801371 64.565522 
L 165.790517 64.303757 
L 166.643008 64.412189 
L 167.495499 64.764236 
L 168.34799 65.409003 
L 169.200481 66.375311 
L 170.052972 67.674232 
L 171.189627 69.915734 
L 172.326281 72.702078 
L 173.7471 76.850973 
L 175.452082 82.586065 
L 178.293719 93.110678 
L 181.419519 104.459156 
L 183.408665 110.797393 
L 185.113647 115.439402 
L 186.534466 118.710713 
L 187.955284 121.464014 
L 189.376102 123.76372 
L 191.081084 126.057546 
L 193.07023 128.336221 
L 197.048522 132.777951 
L 199.037668 135.419761 
L 200.74265 138.057729 
L 202.447632 141.07801 
L 204.436778 145.083662 
L 206.710087 150.24082 
L 209.26756 156.639474 
L 212.961688 166.568006 
L 218.929125 182.630431 
L 221.770762 189.594231 
L 224.044072 194.623698 
L 226.033218 198.562751 
L 228.022363 202.040136 
L 230.011509 205.047035 
L 231.716491 207.256468 
L 233.421473 209.141686 
L 235.126455 210.724327 
L 236.831438 212.03103 
L 238.53642 213.09166 
L 240.525565 214.059975 
L 242.514711 214.785851 
L 244.788021 215.378826 
L 247.345494 215.818787 
L 250.471294 216.132805 
L 254.73375 216.330049 
L 262.406169 216.419118 
L 301.620757 216.428666 
L 317.24976 216.428666 
L 317.24976 216.428666 
" clip-path="url(#pc627333882)" style="fill: none; stroke: #d62728; stroke-width: 1.5; stroke-linecap: square"/>
   </g>
   <g id="line2d_3">
    <path d="M 33.37024 216.428666 
L 96.170414 216.318046 
L 102.137851 216.067598 
L 106.116143 215.676867 
L 108.95778 215.190625 
L 111.515253 214.521868 
L 113.504399 213.789453 
L 115.493545 212.809771 
L 117.198527 211.72035 
L 118.903509 210.345065 
L 120.324327 208.936852 
L 121.745146 207.248341 
L 123.165964 205.236582 
L 124.586782 202.856128 
L 126.007601 200.060536 
L 127.428419 196.804676 
L 128.849238 193.048066 
L 130.55422 187.83613 
L 132.259202 181.83532 
L 134.248348 173.878062 
L 136.521657 163.753585 
L 141.35244 141.744961 
L 142.773258 136.450341 
L 143.909913 133.09992 
L 144.762404 131.253558 
L 145.330731 130.392206 
L 145.899059 129.856795 
L 146.467386 129.670778 
L 147.035713 129.854575 
L 147.604041 130.42482 
L 148.172368 131.393616 
L 148.740696 132.767819 
L 149.593187 135.589583 
L 150.445678 139.299581 
L 151.582332 145.518797 
L 153.003151 154.977494 
L 155.27646 172.271095 
L 157.54977 189.073903 
L 158.970588 197.880536 
L 160.107243 203.583052 
L 161.243898 208.014289 
L 162.096389 210.541262 
L 162.94888 212.458551 
L 163.801371 213.855259 
L 164.653862 214.829787 
L 165.506353 215.479324 
L 166.358844 215.8917 
L 167.495499 216.197123 
L 169.200481 216.374563 
L 172.610445 216.427357 
L 252.176276 216.428666 
L 317.24976 216.428666 
L 317.24976 216.428666 
" clip-path="url(#pc627333882)" style="fill: none; stroke: #333333; stroke-width: 0.75; stroke-linecap: square"/>
   </g>
   <g id="line2d_4">
    <path d="M 33.37024 216.428666 
L 88.782158 216.318125 
L 96.454578 216.065501 
L 101.569524 215.682809 
L 105.547816 215.169468 
L 108.95778 214.501281 
L 111.799417 213.722654 
L 114.35689 212.798124 
L 116.630199 211.75567 
L 118.903509 210.462458 
L 120.892655 209.088592 
L 122.8818 207.452658 
L 124.870946 205.517776 
L 126.860092 203.245219 
L 128.849238 200.595401 
L 130.838384 197.529302 
L 132.827529 194.010412 
L 134.816675 190.007302 
L 136.805821 185.496877 
L 138.794967 180.468393 
L 141.068276 174.096326 
L 143.625749 166.189044 
L 146.75155 155.673465 
L 154.423969 129.353155 
L 156.413115 123.613101 
L 157.833933 120.125109 
L 158.970588 117.794053 
L 160.107243 115.936815 
L 160.959734 114.889568 
L 161.812225 114.163806 
L 162.664716 113.780014 
L 163.233043 113.723108 
L 163.801371 113.830788 
L 164.369698 114.106948 
L 165.222189 114.843764 
L 166.07468 115.973735 
L 166.927171 117.49952 
L 167.779662 119.418882 
L 168.916317 122.576637 
L 170.052972 126.387641 
L 171.47379 131.992362 
L 173.178772 139.769167 
L 175.452082 151.415735 
L 181.419519 182.83689 
L 183.124501 190.498124 
L 184.829483 197.114101 
L 186.250302 201.753393 
L 187.67112 205.589891 
L 188.807775 208.104791 
L 189.94443 210.163921 
L 191.081084 211.812391 
L 192.217739 213.101672 
L 193.354394 214.0859 
L 194.491049 214.818577 
L 195.911867 215.456683 
L 197.616849 215.926974 
L 199.605995 216.215022 
L 202.447632 216.375256 
L 208.415069 216.427269 
L 317.24976 216.428666 
L 317.24976 216.428666 
" clip-path="url(#pc627333882)" style="fill: none; stroke: #333333; stroke-width: 0.75; stroke-linecap: square"/>
   </g>
   <g id="line2d_5">
    <path d="M 33.37024 216.428666 
L 87.929667 216.319733 
L 97.591233 216.072754 
L 104.411161 215.683974 
L 109.810271 215.156495 
L 114.35689 214.490807 
L 118.335181 213.685624 
L 122.029309 212.70207 
L 125.439274 211.548332 
L 128.565074 210.245313 
L 131.406711 208.825928 
L 134.248348 207.153882 
L 137.089985 205.200741 
L 139.647458 203.179549 
L 142.204931 200.889048 
L 144.762404 198.312269 
L 147.319877 195.435409 
L 149.87735 192.249087 
L 152.718987 188.341736 
L 155.560624 184.05425 
L 158.686425 178.923745 
L 162.096389 172.89192 
L 166.358844 164.879293 
L 175.452082 147.599017 
L 178.293719 142.73558 
L 180.567028 139.245274 
L 182.556174 136.56955 
L 184.261156 134.610975 
L 185.966138 133.00516 
L 187.386957 131.964586 
L 188.807775 131.216683 
L 189.94443 130.841561 
L 191.081084 130.673821 
L 192.217739 130.720417 
L 193.354394 130.986885 
L 194.491049 131.477201 
L 195.627703 132.193651 
L 196.764358 133.136711 
L 198.185177 134.631851 
L 199.605995 136.471564 
L 201.026813 138.643769 
L 202.731795 141.664959 
L 204.720941 145.711369 
L 206.994251 150.927491 
L 209.551724 157.381484 
L 213.530015 168.12784 
L 218.644962 181.899826 
L 221.486599 188.929192 
L 223.759908 194.024703 
L 226.033218 198.562751 
L 228.022363 202.040136 
L 230.011509 205.047035 
L 231.716491 207.256468 
L 233.421473 209.141686 
L 235.126455 210.724327 
L 236.831438 212.03103 
L 238.53642 213.09166 
L 240.525565 214.059975 
L 242.514711 214.785851 
L 244.788021 215.378826 
L 247.345494 215.818787 
L 250.471294 216.132805 
L 254.73375 216.330049 
L 262.406169 216.419118 
L 301.620757 216.428666 
L 317.24976 216.428666 
L 317.24976 216.428666 
" clip-path="url(#pc627333882)" style="fill: none; stroke: #333333; stroke-width: 0.75; stroke-linecap: square"/>
   </g>
   <g id="line2d_6">
    <path d="M 33.37024 216.428666 
L 83.383048 216.320599 
L 90.771304 216.084435 
L 95.602087 215.727128 
L 99.296215 215.244054 
L 102.422015 214.606136 
L 104.979488 213.856415 
L 107.252798 212.954558 
L 109.241944 211.92889 
L 110.946926 210.829559 
L 112.651908 209.481914 
L 114.35689 207.835242 
L 116.061872 205.830179 
L 117.48269 203.836172 
L 118.903509 201.500545 
L 120.324327 198.773275 
L 121.745146 195.599612 
L 123.165964 191.920597 
L 124.586782 187.674055 
L 126.007601 182.796242 
L 127.428419 177.224346 
L 129.133401 169.540398 
L 130.838384 160.691861 
L 132.543366 150.633258 
L 134.532511 137.389238 
L 136.805821 120.483441 
L 140.215785 92.994885 
L 143.057422 70.741826 
L 144.762404 59.164913 
L 145.899059 52.684777 
L 147.035713 47.451757 
L 147.888205 44.451921 
L 148.740696 42.301663 
L 149.309023 41.352576 
L 149.87735 40.791004 
L 150.445678 40.609574 
L 151.014005 40.794059 
L 151.582332 41.323307 
L 152.15066 42.169388 
L 153.003151 43.955933 
L 154.139806 47.081314 
L 158.402261 60.020226 
L 159.254752 61.797812 
L 160.107243 63.12329 
L 160.959734 64.003593 
L 161.812225 64.486731 
L 162.664716 64.65384 
L 163.801371 64.565522 
L 165.790517 64.303757 
L 166.643008 64.412189 
L 167.495499 64.764236 
L 168.34799 65.409003 
L 169.200481 66.375311 
L 170.052972 67.674232 
L 171.189627 69.915734 
L 172.326281 72.702078 
L 173.7471 76.850973 
L 175.452082 82.586065 
L 178.293719 93.110678 
L 181.419519 104.459156 
L 183.408665 110.797393 
L 185.113647 115.439402 
L 186.534466 118.710713 
L 187.955284 121.464014 
L 189.376102 123.76372 
L 191.081084 126.057546 
L 193.07023 128.336221 
L 197.048522 132.777951 
L 199.037668 135.419761 
L 200.74265 138.057729 
L 202.447632 141.07801 
L 204.436778 145.083662 
L 206.710087 150.24082 
L 209.26756 156.639474 
L 212.961688 166.568006 
L 218.929125 182.630431 
L 221.770762 189.594231 
L 224.044072 194.623698 
L 226.033218 198.562751 
L 228.022363 202.040136 
L 230.011509 205.047035 
L 231.716491 207.256468 
L 233.421473 209.141686 
L 235.126455 210.724327 
L 236.831438 212.03103 
L 238.53642 213.09166 
L 240.525565 214.059975 
L 242.514711 214.785851 
L 244.788021 215.378826 
L 247.345494 215.818787 
L 250.471294 216.132805 
L 254.73375 216.330049 
L 262.406169 216.419118 
L 301.620757 216.428666 
L 317.24976 216.428666 
L 317.24976 216.428666 
" clip-path="url(#pc627333882)" style="fill: none; stroke: #000000; stroke-width: 2; stroke-linecap: square"/>
   </g>
   <g id="patch_3">
    <path d="M 33.37024 216.428666 
L 33.37024 17.45399 
" style="fill: none; stroke: #000000; stroke-linejoin: miter; stroke-linecap: square"/>
   </g>
   <g id="patch_4">
    <path d="M 317.24976 216.428666 
L 317.24976 17.45399 
" style="fill: none; stroke: #000000; stroke-linejoin: miter; stroke-linecap: square"/>
   </g>
   <g id="patch_5">
    <path d="M 33.37024 216.428666 
L 317.24976 216.428666 
" style="fill: none; stroke: #000000; stroke-linejoin: miter; stroke-linecap: square"/>
   </g>
   <g id="patch_6">
    <path d="M 33.37024 17.45399 
L 317.24976 17.45399 
" style="fill: none; stroke: #000000; stroke-linejoin: miter; stroke-linecap: square"/>
   </g>
   <g id="matplotlib.axis_1">
    <g id="xtick_1">
     <g id="line2d_7">
      <defs>
       <path id="m5598e58e70" d="M 0 0 
L 0 3.75 
" style="stroke: #000000; stroke-width: 1.25"/>
      </defs>
      <g>
       <use xlink:href="#m5598e58e70" x="57.026867" y="216.428666" style="stroke: #000000; stroke-width: 1.25"/>
      </g>
     </g>
     <g id="text_1">
      <text style="font: 11px 'Arial'; text-anchor: middle" x="57.026867" y="231.55226" transform="rotate(-0 57.026867 231.55226)">400</text>
     </g>
    </g>
    <g id="xtick_2">
     <g id="line2d_8">
      <g>
       <use xlink:href="#m5598e58e70" x="104.34012" y="216.428666" style="stroke: #000000; stroke-width: 1.25"/>
      </g>
     </g>
     <g id="text_2">
      <text style="font: 11px 'Arial'; text-anchor: middle" x="104.34012" y="231.55226" transform="rotate(-0 104.34012 231.55226)">600</text>
     </g>
    </g>
    <g id="xtick_3">
     <g id="line2d_9">
      <g>
       <use xlink:href="#m5598e58e70" x="151.653373" y="216.428666" style="stroke: #000000; stroke-width: 1.25"/>
      </g>
     </g>
     <g id="text_3">
      <text style="font: 11px 'Arial'; text-anchor: middle" x="151.653373" y="231.55226" transform="rotate(-0 151.653373 231.55226)">800</text>
     </g>
    </g>
    <g id="xtick_4">
     <g id="line2d_10">
      <g>
       <use xlink:href="#m5598e58e70" x="198.966627" y="216.428666" style="stroke: #000000; stroke-width: 1.25"/>
      </g>
     </g>
     <g id="text_4">
      <text style="font: 11px 'Arial'; text-anchor: middle" x="198.966627" y="231.55226" transform="rotate(-0 198.966627 231.55226)">1000</text>
     </g>
    </g>
    <g id="xtick_5">
     <g id="line2d_11">
      <g>
       <use xlink:href="#m5598e58e70" x="246.27988" y="216.428666" style="stroke: #000000; stroke-width: 1.25"/>
      </g>
     </g>
     <g id="text_5">
      <text style="font: 11px 'Arial'; text-anchor: middle" x="246.27988" y="231.55226" transform="rotate(-0 246.27988 231.55226)">1200</text>
     </g>
    </g>
    <g id="xtick_6">
     <g id="line2d_12">
      <g>
       <use xlink:href="#m5598e58e70" x="293.593133" y="216.428666" style="stroke: #000000; stroke-width: 1.25"/>
      </g>
     </g>
     <g id="text_6">
      <text style="font: 11px 'Arial'; text-anchor: middle" x="293.593133" y="231.55226" transform="rotate(-0 293.593133 231.55226)">1400</text>
     </g>
    </g>
    <g id="text_7">
     <text style="font: 12px 'Arial'; text-anchor: middle" x="175.31" y="246.474135" transform="rotate(-0 175.31 246.474135)">Temperature (K)</text>
    </g>
   </g>
   <g id="matplotlib.axis_2">
    <g id="ytick_1">
     <g id="line2d_13">
      <defs>
       <path id="m1837b66d55" d="M 0 0 
L -3.75 0 
" style="stroke: #000000; stroke-width: 1.25"/>
      </defs>
      <g>
       <use xlink:href="#m1837b66d55" x="33.37024" y="216.428666" style="stroke: #000000; stroke-width: 1.25"/>
      </g>
     </g>
     <g id="line2d_14">
      <defs>
       <path id="m091b678552" d="M 0 0 
L 3.75 0 
" style="stroke: #000000; stroke-width: 1.25"/>
      </defs>
      <g>
       <use xlink:href="#m091b678552" x="317.24976" y="216.428666" style="stroke: #000000; stroke-width: 1.25"/>
      </g>
     </g>
     <g id="text_8">
      <!-- $\mathdefault{0}$ -->
      <g transform="translate(19.96024 220.365463)">
       <text>
        <tspan style="font: 11px 'Arial'" x="0" y="-0.09375">0</tspan>
       </text>
      </g>
     </g>
    </g>
    <g id="ytick_2">
     <g id="line2d_15">
      <g>
       <use xlink:href="#m1837b66d55" x="33.37024" y="188.003713" style="stroke: #000000; stroke-width: 1.25"/>
      </g>
     </g>
     <g id="line2d_16">
      <g>
       <use xlink:href="#m091b678552" x="317.24976" y="188.003713" style="stroke: #000000; stroke-width: 1.25"/>
      </g>
     </g>
     <g id="text_9">
      <!-- $\mathdefault{1}$ -->
      <g transform="translate(19.96024 191.940509)">
       <text>
        <tspan style="font: 11px 'Arial'" x="0" y="-0.09375">1</tspan>
       </text>
      </g>
     </g>
    </g>
    <g id="ytick_3">
     <g id="line2d_17">
      <g>
       <use xlink:href="#m1837b66d55" x="33.37024" y="159.578759" style="stroke: #000000; stroke-width: 1.25"/>
      </g>
     </g>
     <g id="line2d_18">
      <g>
       <use xlink:href="#m091b678552" x="317.24976" y="159.578759" style="stroke: #000000; stroke-width: 1.25"/>
      </g>
     </g>
     <g id="text_10">
      <!-- $\mathdefault{2}$ -->
      <g transform="translate(19.96024 163.515556)">
       <text>
        <tspan style="font: 11px 'Arial'" x="0" y="-0.09375">2</tspan>
       </text>
      </g>
     </g>
    </g>
    <g id="ytick_4">
     <g id="line2d_19">
      <g>
       <use xlink:href="#m1837b66d55" x="33.37024" y="131.153805" style="stroke: #000000; stroke-width: 1.25"/>
      </g>
     </g>
     <g id="line2d_20">
      <g>
       <use xlink:href="#m091b678552" x="317.24976" y="131.153805" style="stroke: #000000; stroke-width: 1.25"/>
      </g>
     </g>
     <g id="text_11">
      <!-- $\mathdefault{3}$ -->
      <g transform="translate(19.96024 135.090602)">
       <text>
        <tspan style="font: 11px 'Arial'" x="0" y="-0.09375">3</tspan>
       </text>
      </g>
     </g>
    </g>
    <g id="ytick_5">
     <g id="line2d_21">
      <g>
       <use xlink:href="#m1837b66d55" x="33.37024" y="102.728851" style="stroke: #000000; stroke-width: 1.25"/>
      </g>
     </g>
     <g id="line2d_22">
      <g>
       <use xlink:href="#m091b678552" x="317.24976" y="102.728851" style="stroke: #000000; stroke-width: 1.25"/>
      </g>
     </g>
     <g id="text_12">
      <!-- $\mathdefault{4}$ -->
      <g transform="translate(19.96024 106.665648)">
       <text>
        <tspan style="font: 11px 'Arial'" x="0" y="-0.125">4</tspan>
       </text>
      </g>
     </g>
    </g>
    <g id="ytick_6">
     <g id="line2d_23">
      <g>
       <use xlink:href="#m1837b66d55" x="33.37024" y="74.303898" style="stroke: #000000; stroke-width: 1.25"/>
      </g>
     </g>
     <g id="line2d_24">
      <g>
       <use xlink:href="#m091b678552" x="317.24976" y="74.303898" style="stroke: #000000; stroke-width: 1.25"/>
      </g>
     </g>
     <g id="text_13">
      <!-- $\mathdefault{5}$ -->
      <g transform="translate(19.96024 78.240694)">
       <text>
        <tspan style="font: 11px 'Arial'" x="0" y="-0.234375">5</tspan>
       </text>
      </g>
     </g>
    </g>
    <g id="ytick_7">
     <g id="line2d_25">
      <g>
       <use xlink:href="#m1837b66d55" x="33.37024" y="45.878944" style="stroke: #000000; stroke-width: 1.25"/>
      </g>
     </g>
     <g id="line2d_26">
      <g>
       <use xlink:href="#m091b678552" x="317.24976" y="45.878944" style="stroke: #000000; stroke-width: 1.25"/>
      </g>
     </g>
     <g id="text_14">
      <!-- $\mathdefault{6}$ -->
      <g transform="translate(19.96024 49.815741)">
       <text>
        <tspan style="font: 11px 'Arial'" x="0" y="-0.09375">6</tspan>
       </text>
      </g>
     </g>
    </g>
    <g id="ytick_8">
     <g id="line2d_27">
      <g>
       <use xlink:href="#m1837b66d55" x="33.37024" y="17.45399" style="stroke: #000000; stroke-width: 1.25"/>
      </g>
     </g>
     <g id="line2d_28">
      <g>
       <use xlink:href="#m091b678552" x="317.24976" y="17.45399" style="stroke: #000000; stroke-width: 1.25"/>
      </g>
     </g>
     <g id="text_15">
      <!-- $\mathdefault{7}$ -->
      <g transform="translate(19.96024 21.390787)">
       <text>
        <tspan style="font: 11px 'Arial'" x="0" y="-0.234375">7</tspan>
       </text>
      </g>
     </g>
    </g>
    <g id="text_16">
     <!-- Desorption flux (m$^{\mathregular{-2}}$ s$^{\mathregular{-1}}$) -->
     <g transform="translate(13.32024 182.581328) rotate(-90)">
      <text>
       <tspan style="font: 12px 'Arial'" x="0 8.666016 15.339844 21.339844 28.013672 32.009766 38.683594 42.017578 44.683594 51.357422 58.03125 61.365234 64.699219 67.365234 74.039062 80.039062 83.373047 87.369141 107.657461 110.991445 127.283672" y="-0.7250000000000014">Desorption flux (m s)</tspan>
       <tspan style="font: 8.4px 'Arial'" x="97.550625 102.456094 117.176836 122.082305" y="-4.962500000000001">−2−1</tspan>
      </text>
     </g>
    </g>
    <g id="text_17">
     <!-- $\times\mathdefault{10^{17}}\mathdefault{}$ -->
     <g transform="translate(33.37024 14.45399)">
      <text>
       <tspan style="font: 11px 'STIXGeneral'" x="0" y="-0.799312500000001">×</tspan>
       <tspan style="font: 11px 'Arial'" x="7.039993 13.157669" y="-0.799312500000001">10</tspan>
       <tspan style="font: 7.7px 'Arial'" x="19.467003 23.749376" y="-8.465625">17</tspan>
      </text>
     </g>
    </g>
   </g>
   <g id="text_18">
    <!-- {\sffamily D\textsuperscript{+} → hBN 20~keV} -->
    <g transform="translate(127.175472 11.45399) scale(0.12 -0.12)">
     <defs>
      <path id="NimbusSanL-Regu-44" d="M 570 0 
L 2368 0 
C 3546 0 4269 883 4269 2339 
C 4269 3788 3552 4672 2368 4672 
L 570 4672 
L 570 0 
z
M 1165 524 
L 1165 4147 
L 2266 4147 
C 3187 4147 3674 3525 3674 2332 
C 3674 1153 3187 524 2266 524 
L 1165 524 
z
" transform="scale(0.015625)"/>
      <path id="NimbusSanL-Regu-2b" d="M 3418 1728 
L 2093 1728 
L 2093 3052 
L 1645 3052 
L 1645 1728 
L 320 1728 
L 320 1279 
L 1645 1279 
L 1645 -64 
L 2093 -64 
L 2093 1279 
L 3418 1279 
L 3418 1728 
z
" transform="scale(0.015625)"/>
      <path id="SFSS3583-19" d="M 4032 3264 
C 4096 2818 4288 2405 4570 2057 
C 4666 1934 4781 1837 4890 1728 
L 486 1728 
C 410 1728 320 1715 320 1625 
C 320 1535 410 1523 486 1523 
L 4890 1523 
C 4781 1414 4666 1318 4570 1196 
C 4288 851 4096 441 4032 0 
L 4237 0 
C 4378 672 4762 1331 5402 1619 
L 5402 1631 
C 4787 1908 4371 2599 4237 3264 
L 4032 3264 
z
" transform="scale(0.015625)"/>
      <path id="NimbusSanL-Regu-68" d="M 448 4672 
L 448 0 
L 979 0 
L 979 1853 
C 979 2539 1338 2988 1888 2988 
C 2061 2988 2234 2930 2362 2834 
C 2515 2725 2579 2565 2579 2328 
L 2579 0 
L 3110 0 
L 3110 2539 
C 3110 3103 2707 3456 2054 3456 
C 1581 3456 1293 3308 979 2898 
L 979 4672 
L 448 4672 
z
" transform="scale(0.015625)"/>
      <path id="NimbusSanL-Regu-42" d="M 506 0 
L 2611 0 
C 3053 0 3379 121 3629 390 
C 3859 632 3987 961 3987 1321 
C 3987 1878 3731 2214 3136 2444 
C 3558 2643 3782 2994 3782 3476 
C 3782 3821 3654 4127 3411 4345 
C 3168 4569 2848 4672 2400 4672 
L 506 4672 
L 506 0 
z
M 1101 2636 
L 1101 4147 
L 2253 4147 
C 2586 4147 2771 4101 2931 3977 
C 3098 3847 3187 3652 3187 3391 
C 3187 3138 3098 2936 2931 2806 
C 2771 2682 2586 2636 2253 2636 
L 1101 2636 
z
M 1101 524 
L 1101 2112 
L 2554 2112 
C 2842 2112 3034 2042 3174 1890 
C 3315 1745 3392 1542 3392 1315 
C 3392 1093 3315 891 3174 746 
C 3034 594 2842 524 2554 524 
L 1101 524 
z
" transform="scale(0.015625)"/>
      <path id="NimbusSanL-Regu-4e" d="M 4134 4672 
L 3571 4672 
L 3571 852 
L 1133 4672 
L 486 4672 
L 486 0 
L 1050 0 
L 1050 3787 
L 3462 0 
L 4134 0 
L 4134 4672 
z
" transform="scale(0.015625)"/>
      <path id="NimbusSanL-Regu-32" d="M 3238 556 
L 851 556 
C 909 928 1114 1165 1670 1493 
L 2310 1839 
C 2944 2185 3270 2653 3270 3211 
C 3270 3589 3117 3942 2848 4185 
C 2579 4428 2246 4544 1818 4544 
C 1242 4544 813 4339 563 3955 
C 403 3711 333 3429 320 2967 
L 883 2967 
C 902 3275 941 3461 1018 3608 
C 1165 3884 1459 4051 1798 4051 
C 2310 4051 2694 3685 2694 3198 
C 2694 2839 2483 2531 2080 2300 
L 1491 1967 
C 544 1428 269 999 218 0 
L 3238 0 
L 3238 556 
z
" transform="scale(0.015625)"/>
      <path id="NimbusSanL-Regu-30" d="M 1760 4544 
C 1338 4544 954 4358 717 4044 
C 422 3649 275 3043 275 2207 
C 275 683 787 -128 1760 -128 
C 2720 -128 3245 683 3245 2169 
C 3245 3049 3104 3636 2803 4044 
C 2566 4364 2189 4544 1760 4544 
z
M 1760 4044 
C 2368 4044 2669 3432 2669 2220 
C 2669 938 2374 339 1747 339 
C 1152 339 851 964 851 2201 
C 851 3438 1152 4044 1760 4044 
z
" transform="scale(0.015625)"/>
      <path id="NimbusSanL-Regu-6b" d="M 902 4672 
L 371 4672 
L 371 0 
L 902 0 
L 902 1307 
L 1421 1820 
L 2554 0 
L 3213 0 
L 1843 2198 
L 3008 3358 
L 2323 3358 
L 902 1935 
L 902 4672 
z
" transform="scale(0.015625)"/>
      <path id="NimbusSanL-Regu-65" d="M 3283 1484 
C 3283 1998 3245 2311 3149 2565 
C 2931 3123 2419 3456 1792 3456 
C 858 3456 256 2734 256 1619 
C 256 545 838 -128 1779 -128 
C 2547 -128 3078 307 3213 1018 
L 2675 1018 
C 2528 588 2227 364 1798 364 
C 1459 364 1171 514 992 787 
C 864 974 819 1161 813 1484 
L 3283 1484 
z
M 826 1920 
C 870 2552 1248 2963 1786 2963 
C 2310 2963 2714 2519 2714 1959 
C 2714 1946 2714 1933 2707 1920 
L 826 1920 
z
" transform="scale(0.015625)"/>
      <path id="NimbusSanL-Regu-56" d="M 2509 0 
L 4128 4672 
L 3494 4672 
L 2202 717 
L 832 4672 
L 192 4672 
L 1869 0 
L 2509 0 
z
" transform="scale(0.015625)"/>
     </defs>
     <use xlink:href="#NimbusSanL-Regu-44" transform="scale(0.996264)"/>
     <use xlink:href="#NimbusSanL-Regu-2b" transform="translate(71.929985 36.163231) scale(0.737241)"/>
     <use xlink:href="#SFSS3583-19" transform="translate(143.177911 0) scale(0.996264)"/>
     <use xlink:href="#NimbusSanL-Regu-68" transform="translate(260.15362 0) scale(0.996264)"/>
     <use xlink:href="#NimbusSanL-Regu-42" transform="translate(315.545297 0) scale(0.996264)"/>
     <use xlink:href="#NimbusSanL-Regu-4e" transform="translate(381.995328 0) scale(0.996264)"/>
     <use xlink:href="#NimbusSanL-Regu-32" transform="translate(481.620483 0) scale(0.996264)"/>
     <use xlink:href="#NimbusSanL-Regu-30" transform="translate(537.01216 0) scale(0.996264)"/>
     <use xlink:href="#NimbusSanL-Regu-6b" transform="translate(620.099006 0) scale(0.996264)"/>
     <use xlink:href="#NimbusSanL-Regu-65" transform="translate(667.920196 0) scale(0.996264)"/>
     <use xlink:href="#NimbusSanL-Regu-56" transform="translate(723.311872 0) scale(0.996264)"/>
    </g>
   </g>
  </g>
 </g>
 <defs>
  <clipPath id="pc627333882">
   <rect x="33.37024" y="17.45399" width="283.87952" height="198.974676"/>
  </clipPath>
 </defs>
</svg>
